<?xml version="1.0" encoding="UTF-8" standalone="no"?>
<!-- Created with Inkscape (http://www.inkscape.org/) -->
<svg
   xmlns:dc="http://purl.org/dc/elements/1.1/"
   xmlns:cc="http://web.resource.org/cc/"
   xmlns:rdf="http://www.w3.org/1999/02/22-rdf-syntax-ns#"
   xmlns:svg="http://www.w3.org/2000/svg"
   xmlns="http://www.w3.org/2000/svg"
   xmlns:xlink="http://www.w3.org/1999/xlink"
   xmlns:sodipodi="http://sodipodi.sourceforge.net/DTD/sodipodi-0.dtd"
   xmlns:inkscape="http://www.inkscape.org/namespaces/inkscape"
   width="16"
   height="16"
   id="svg1325"
   sodipodi:version="0.32"
   inkscape:version="0.45"
   sodipodi:docbase="/home/dobey/Projects/gnome-icon-theme/16x16/places"
   sodipodi:docname="start-here.svg"
   version="1.0"
   inkscape:output_extension="org.inkscape.output.svg.inkscape">
  <sodipodi:namedview
     inkscape:window-height="622"
     inkscape:window-width="1041"
     inkscape:pageshadow="2"
     inkscape:pageopacity="0.0"
     guidetolerance="10.0"
     gridtolerance="10.0"
     objecttolerance="10.0"
     borderopacity="1.0"
     bordercolor="#666666"
     pagecolor="#ffffff"
     id="base"
     width="16px"
     height="16px"
     inkscape:showpageshadow="false"
     showgrid="false"
     showborder="false"
     inkscape:zoom="1"
     inkscape:cx="9.9875333"
     inkscape:cy="6.4246862"
     inkscape:window-x="5"
     inkscape:window-y="45"
     inkscape:current-layer="layer1" />
  <defs
     id="defs1327">
    <linearGradient
       id="linearGradient2890">
      <stop
         style="stop-color:#555753;stop-opacity:1;"
         offset="0"
         id="stop2892" />
      <stop
         style="stop-color:#2e3436;stop-opacity:1"
         offset="1"
         id="stop2894" />
    </linearGradient>
    <linearGradient
       id="linearGradient2876">
      <stop
         style="stop-color:#555753;stop-opacity:1;"
         offset="0"
         id="stop2878" />
      <stop
         style="stop-color:white;stop-opacity:1;"
         offset="1"
         id="stop2880" />
    </linearGradient>
    <linearGradient
       inkscape:collect="always"
       xlink:href="#linearGradient2876"
       id="linearGradient2882"
       x1="6.375"
       y1="2.65625"
       x2="6.9375"
       y2="5.375"
       gradientUnits="userSpaceOnUse" />
    <linearGradient
       inkscape:collect="always"
       xlink:href="#linearGradient2876"
       id="linearGradient2884"
       x1="6.9311519"
       y1="6.1781015"
       x2="9.1195116"
       y2="15.158121"
       gradientUnits="userSpaceOnUse" />
    <radialGradient
       inkscape:collect="always"
       xlink:href="#linearGradient2890"
       id="radialGradient2896"
       cx="5.8949537"
       cy="8.5116825"
       fx="5.8949537"
       fy="8.5116825"
       r="4.5304474"
       gradientTransform="matrix(2.63495,-0.40007,0.14964,0.985565,-10.9316,2.500836)"
       gradientUnits="userSpaceOnUse" />
  </defs>
  <sodipodi:namedview
     pagecolor="#ffffff"
     bordercolor="#666666"
     borderopacity="1.0"
     inkscape:pageopacity="0"
     inkscape:pageshadow="2"
     inkscape:zoom="1"
     inkscape:cx="29.202731"
     inkscape:cy="14.650528"
     inkscape:current-layer="layer1"
     showgrid="false"
     inkscape:grid-bbox="true"
     inkscape:document-units="px"
     stroke="#eeeeec"
     fill="#2e3436"
     inkscape:window-width="1270"
     inkscape:window-height="943"
     inkscape:window-x="0"
     inkscape:window-y="25"
     showborder="false"
     gridspacingx="0.5px"
     gridspacingy="0.5px"
     gridempspacing="2"
     inkscape:grid-points="true"
     showguides="false"
     inkscape:guide-bbox="true"
     inkscape:showpageshadow="false"
     id="namedview14">
    <sodipodi:guide
       orientation="vertical"
       position="31.875"
       id="guide2260" />
  </sodipodi:namedview>
  <metadata
     id="metadata1330">
    <rdf:RDF>
      <cc:Work
         rdf:about="">
        <dc:format>image/svg+xml</dc:format>
        <dc:type
           rdf:resource="http://purl.org/dc/dcmitype/StillImage" />
        <dc:title>Piedone</dc:title>
        <dc:creator>
          <cc:Agent>
            <dc:title>Lapo Calamandrei</dc:title>
          </cc:Agent>
        </dc:creator>
        <dc:subject>
          <rdf:Bag />
        </dc:subject>
        <dc:contributor>
          <cc:Agent>
            <dc:title />
          </cc:Agent>
        </dc:contributor>
        <cc:license
           rdf:resource="http://creativecommons.org/licenses/GPL/2.0/" />
      </cc:Work>
      <cc:License
         rdf:about="http://creativecommons.org/licenses/GPL/2.0/">
        <cc:permits
           rdf:resource="http://web.resource.org/cc/Reproduction" />
        <cc:permits
           rdf:resource="http://web.resource.org/cc/Distribution" />
        <cc:requires
           rdf:resource="http://web.resource.org/cc/Notice" />
        <cc:permits
           rdf:resource="http://web.resource.org/cc/DerivativeWorks" />
        <cc:requires
           rdf:resource="http://web.resource.org/cc/ShareAlike" />
        <cc:requires
           rdf:resource="http://web.resource.org/cc/SourceCode" />
      </cc:License>
    </rdf:RDF>
  </metadata>
  <g
     id="layer1"
     inkscape:label="Layer 1"
     inkscape:groupmode="layer">
    <g
       id="g2886"
       style="opacity:0.5">
      <path
         transform="matrix(0.999611,0,0,1.002225,9.045039e-3,-3.559431e-2)"
         d="M 7.40625,5.15625 C 6.2956804,5.3417946 5.156171,5.7244341 4.1875,6.34375 C 3.218829,6.9630659 2.3779008,7.8640387 2.09375,9.0625 C 1.69874,10.727334 2.4973238,12.419681 3.6875,13.71875 C 4.8776762,15.017819 6.5604458,16 8.4375,16 C 9.4626404,16 10.433326,15.574489 11.25,14.9375 C 12.066674,14.300511 12.750066,13.404259 12.96875,12.3125 C 13.038048,11.967077 12.975164,11.539599 12.78125,11.21875 C 12.587336,10.897901 12.320701,10.708867 12.0625,10.59375 C 11.556691,10.368238 11.065224,10.365366 10.59375,10.40625 C 10.900985,10.204241 11.218851,10.058174 11.5,9.8125 C 12.201749,9.199297 12.855829,8.2419346 12.65625,7.125 C 12.463426,6.0458859 11.508921,5.4655249 10.5625,5.21875 C 9.6160791,4.9719751 8.5179941,4.9705092 7.40625,5.15625 z M 8.375,11.9375 C 8.3432244,12.079352 8.2287459,12.159701 8.25,12.3125 C 8.246777,12.314009 8.2664657,12.320195 8.125,12.21875 C 8.0209824,12.144162 8.0661352,12.194021 8.03125,12.15625 C 8.0718697,12.116195 8.2822399,12.009315 8.375,11.9375 z "
         id="path2848"
         style="opacity:1;fill:url(#linearGradient2884);fill-opacity:1;fill-rule:nonzero;stroke:none;stroke-width:0.99639398;stroke-miterlimit:4;stroke-dasharray:none"
         inkscape:original="M 7.5625 6.125 C 5.5631498 6.4590346 3.4824223 7.5101462 3.0625 9.28125 C 2.4940104 11.677242 5.4026231 15 8.4375 15 C 9.9305033 15 11.67782 13.733453 12 12.125 C 12.246065 10.898467 9.1058589 11.375909 9.21875 12.1875 C 9.3539997 13.160304 8.4370432 13.658382 7.5625 13.03125 C 4.7784526 11.034896 12.174864 10.04001 11.6875 7.3125 C 11.485236 6.180554 9.5618502 5.7909654 7.5625 6.125 z "
         inkscape:radius="0.98537672"
         sodipodi:type="inkscape:offset" />
      <path
         id="path2840"
         d="M 12.625 0 C 11.259051 0 10.231031 0.7230467 9.625 1.625 C 9.2639281 1.1508561 8.6037776 0.7966229 7.96875 0.875 C 7.2614789 0.96232512 6.6472899 1.4039588 6.34375 1.9375 C 6.3200591 1.9791422 6.3022344 2.0204487 6.28125 2.0625 C 6.0891212 1.9089876 5.855387 1.7830023 5.59375 1.71875 C 5.2449007 1.6330803 4.851866 1.6244243 4.53125 1.75 C 3.9199076 1.9894534 3.4843955 2.5426691 3.34375 3.09375 C 3.3027284 3.2544819 3.288595 3.4100517 3.28125 3.5625 C 3.1339069 3.5206518 2.9730261 3.4740274 2.8125 3.46875 C 2.470818 3.4575169 2.146683 3.5094275 1.875 3.6875 C 1.3588213 4.0260323 1.0131891 4.6500491 1 5.1875 C 0.98681092 5.7249509 1.1726828 6.1621692 1.40625 6.53125 C 1.6398172 6.9003308 1.9514395 7.2355628 2.3125 7.46875 C 2.6735605 7.7019372 3.1750117 7.9224876 3.8125 7.65625 C 4.1837647 7.5011298 4.4172849 7.2181476 4.53125 6.96875 C 4.6452151 6.7193524 4.6708777 6.4719745 4.6875 6.25 C 4.6890831 6.2288596 4.6862925 6.2084923 4.6875 6.1875 C 4.9482176 6.3182442 5.272605 6.3869188 5.65625 6.3125 C 6.0620994 6.2339602 6.3590559 6.0092684 6.53125 5.78125 C 6.6173471 5.6672408 6.6944063 5.5522996 6.75 5.4375 C 7.0032696 5.7247077 7.3394025 5.9707144 7.84375 6 C 8.6942298 6.0494048 9.1233301 5.4763785 9.40625 5.03125 C 9.7635756 5.5701954 10.403805 6 11.125 6 C 12.866671 6 14.156169 4.7048719 14.71875 3.375 C 15.00004 2.7100641 15.128137 1.9643965 14.78125 1.21875 C 14.434364 0.47310345 13.553387 0 12.625 0 z "
         style="opacity:1;fill:url(#linearGradient2882);fill-opacity:1.0;fill-rule:nonzero;stroke:none;stroke-width:0.99639398;stroke-miterlimit:4;stroke-dasharray:none" />
    </g>
    <path
       id="path4490"
       d="M 12.584774,1.4981912 C 10.360828,1.4981912 9.943646,4.501804 11.19474,4.501804 C 12.445654,4.501804 14.808811,1.4981912 12.584774,1.4981912 z "
       style="fill:#555753;fill-opacity:1;fill-rule:nonzero;stroke:#2e3436;stroke-width:0.99639422;stroke-miterlimit:4;stroke-dasharray:none" />
    <path
       id="path4492"
       d="M 7.8980615,4.9993772 C 8.8171266,5.05265 9.8254911,1.6702087 8.0981127,1.8829428 C 6.3713584,2.0956769 6.9786221,4.946105 7.8980615,4.9993772 z "
       style="fill:#2e3436;fill-opacity:1;fill-rule:nonzero;stroke:none;stroke-width:0.99639398;stroke-miterlimit:4;stroke-dasharray:none" />
    <path
       id="path4494"
       d="M 3.4277592,6.736009 C 4.0814192,6.4628997 3.5119459,3.791585 2.4004371,4.5201145 C 1.2894274,5.2487625 2.7740992,7.0090005 3.4277592,6.736009 z "
       style="fill:#2e3436;fill-opacity:1;fill-rule:nonzero;stroke:none;stroke-width:0.99639398;stroke-miterlimit:4;stroke-dasharray:none" />
    <path
       id="path4496"
       d="M 5.4592103,5.3377869 C 6.2373407,5.1872032 6.2799953,2.1575436 4.8923554,2.7010405 C 3.5044662,3.2446552 4.6817024,5.4886065 5.4592103,5.3377869 L 5.4592103,5.3377869 z "
       style="fill:#2e3436;fill-opacity:1;fill-rule:nonzero;stroke:none;stroke-width:0.99639398;stroke-miterlimit:4;stroke-dasharray:none" />
    <path
       sodipodi:type="inkscape:offset"
       inkscape:radius="-0.48384476"
       inkscape:original="M 7.5625 6.125 C 5.5631498 6.4590346 3.4824223 7.5101462 3.0625 9.28125 C 2.4940104 11.677242 5.4026231 15 8.4375 15 C 9.9305033 15 11.67782 13.733453 12 12.125 C 12.246065 10.898467 9.1058589 11.375909 9.21875 12.1875 C 9.3539997 13.160304 8.4370432 13.658382 7.5625 13.03125 C 4.7784526 11.034896 12.174864 10.04001 11.6875 7.3125 C 11.485236 6.180554 9.5618502 5.7909654 7.5625 6.125 z "
       style="fill:url(#radialGradient2896);fill-opacity:1.0;fill-rule:nonzero;stroke:#2e3436;stroke-width:1;stroke-miterlimit:4;stroke-dasharray:none;stroke-linejoin:round"
       id="path1934"
       d="M 9,6.5 C 8.5672528,6.4931254 8.1285732,6.5148382 7.65625,6.59375 C 6.7110269,6.7516699 5.7196119,7.0824394 4.96875,7.5625 C 4.2178881,8.0425606 3.7047821,8.6743445 3.53125,9.40625 C 3.3013937,10.375017 3.7905221,11.671486 4.75,12.71875 C 5.7094779,13.766014 7.0966419,14.53125 8.4375,14.53125 C 9.047183,14.53125 9.7863739,14.240366 10.375,13.78125 C 10.963626,13.322134 11.39844,12.694291 11.53125,12.03125 C 11.543084,11.972262 11.528619,11.995647 11.53125,12 C 11.533881,12.004353 11.53433,11.966738 11.46875,11.9375 C 11.337591,11.879023 11.034341,11.846223 10.71875,11.875 C 10.403159,11.903777 10.07239,11.993339 9.875,12.09375 C 9.7763052,12.143956 9.7008363,12.202955 9.6875,12.21875 C 9.7367218,12.826898 9.4817218,13.373801 9,13.625 C 8.4925193,13.889632 7.8328972,13.833084 7.28125,13.4375 C 6.884286,13.152849 6.6100793,12.846541 6.5,12.46875 C 6.3899207,12.090959 6.5167628,11.692201 6.71875,11.40625 C 7.1227244,10.834349 7.8056799,10.454047 8.53125,10.03125 C 9.2568201,9.6084534 10.008978,9.175122 10.53125,8.71875 C 11.053522,8.262378 11.30242,7.8745035 11.21875,7.40625 C 11.162641,7.0922422 10.85007,6.7977622 10.1875,6.625 C 9.8562148,6.5386189 9.4327472,6.5068746 9,6.5 z " />
    <g
       id="g2860"
       style="opacity:0.97000002"
       transform="translate(0,-7)">
      <path
         transform="matrix(1.000008,0,0,1,9.031704e-3,-17)"
         d="M 12.625,0 C 10.7001,0 9.4185182,1.4159743 9.09375,2.78125 C 8.9313659,3.4638878 8.945569,4.1717416 9.25,4.8125 C 9.554431,5.4532584 10.306182,6 11.125,6 C 12.866657,6 14.156174,4.7048719 14.71875,3.375 C 15.000038,2.7100641 15.128134,1.9643965 14.78125,1.21875 C 14.434366,0.47310345 13.55338,0 12.625,0 z "
         id="path2850"
         style="opacity:1;fill:#fce94f;fill-opacity:1;fill-rule:nonzero;stroke:none;stroke-width:0.99639398;stroke-miterlimit:4;stroke-dasharray:none"
         inkscape:original="M 12.625 1 C 9.6633009 1 9.2602819 5 11.125 5 C 13.501547 5 15.385789 1 12.625 1 z "
         inkscape:radius="0.98635715"
         sodipodi:type="inkscape:offset" />
      <path
         transform="matrix(0.997822,0,0,1,2.185712e-2,-17)"
         d="M 7.96875,0.875 C 7.2599353,0.96232512 6.6479525,1.4039588 6.34375,1.9375 C 6.0395475,2.4710412 5.9623627,3.0415345 6,3.5625 C 6.0376373,4.0834655 6.18514,4.5926006 6.4375,5.03125 C 6.68986,5.4698994 7.104468,5.9571661 7.84375,6 C 8.6960864,6.0494048 9.1227126,5.4763785 9.40625,5.03125 C 9.6897874,4.5861215 9.8716204,4.0973521 9.96875,3.5625 C 10.06588,3.0276479 10.093992,2.4416501 9.8125,1.84375 C 9.5310079,1.2458499 8.709054,0.78382837 7.96875,0.875 z "
         id="path2852"
         style="opacity:1;fill:#fce94f;fill-opacity:1;fill-rule:nonzero;stroke:none;stroke-width:0.99639398;stroke-miterlimit:4;stroke-dasharray:none"
         inkscape:original="M 8.09375 1.875 C 6.3669953 2.0877341 6.9868106 4.9467278 7.90625 5 C 8.8253153 5.0532727 9.8211284 1.6622659 8.09375 1.875 z "
         inkscape:radius="1.0004882"
         sodipodi:type="inkscape:offset" />
      <path
         transform="translate(0,-17)"
         d="M 2.8125,3.46875 C 2.470818,3.4575169 2.146683,3.5094275 1.875,3.6875 C 1.3588213,4.0260323 1.0131891,4.6500491 1,5.1875 C 0.98681092,5.7249509 1.1726828,6.1621692 1.40625,6.53125 C 1.6398172,6.9003308 1.9514395,7.2355628 2.3125,7.46875 C 2.6735605,7.7019372 3.1750117,7.9224876 3.8125,7.65625 C 4.1837647,7.5011298 4.4172849,7.2181476 4.53125,6.96875 C 4.6452151,6.7193524 4.6708777,6.4719745 4.6875,6.25 C 4.7207447,5.806051 4.6713621,5.3959813 4.53125,4.96875 C 4.3911379,4.5415187 4.1777797,4.1003238 3.71875,3.75 C 3.4892351,3.5748381 3.154182,3.4799831 2.8125,3.46875 z "
         id="path2854"
         style="opacity:1;fill:#fce94f;fill-opacity:1;fill-rule:nonzero;stroke:none;stroke-width:0.99639398;stroke-miterlimit:4;stroke-dasharray:none"
         inkscape:original="M 2.40625 4.53125 C 1.2952403 5.2598981 2.78384 7.0229915 3.4375 6.75 C 4.09116 6.4768906 3.5177588 3.8027205 2.40625 4.53125 z "
         inkscape:radius="0.99227977"
         sodipodi:type="inkscape:offset" />
      <path
         transform="translate(0,-17)"
         d="M 5.59375,1.71875 C 5.2449007,1.6330803 4.851866,1.6244243 4.53125,1.75 C 3.9199076,1.9894534 3.4843955,2.5426691 3.34375,3.09375 C 3.2031045,3.6448309 3.280649,4.1490864 3.4375,4.59375 C 3.594351,5.0384136 3.8314695,5.4533879 4.15625,5.78125 C 4.4810305,6.1091121 4.9559047,6.4483517 5.65625,6.3125 C 6.0620994,6.2339602 6.3590559,6.0092684 6.53125,5.78125 C 6.7034441,5.5532316 6.8044437,5.3223351 6.875,5.09375 C 7.0161126,4.6365799 7.043857,4.1416567 7,3.65625 C 6.956143,3.1708433 6.8640791,2.6876036 6.46875,2.21875 C 6.2710854,1.9843232 5.9425993,1.8044197 5.59375,1.71875 z "
         id="path2856"
         style="opacity:1;fill:#fce94f;fill-opacity:1;fill-rule:nonzero;stroke:none;stroke-width:0.99639398;stroke-miterlimit:4;stroke-dasharray:none"
         inkscape:original="M 4.90625 2.6875 C 3.5183608 3.2311147 4.6912421 5.4945696 5.46875 5.34375 C 6.2468803 5.1931665 6.2938899 2.1440031 4.90625 2.6875 z "
         inkscape:radius="1.0015517"
         sodipodi:type="inkscape:offset" />
      <path
         transform="matrix(0.999611,0,0,1.002225,9.045039e-3,-17.03559)"
         d="M 7.40625,5.15625 C 6.2956804,5.3417946 5.156171,5.7244341 4.1875,6.34375 C 3.218829,6.9630659 2.3779008,7.8640387 2.09375,9.0625 C 1.69874,10.727334 2.4973238,12.419681 3.6875,13.71875 C 4.8776762,15.017819 6.5604458,16 8.4375,16 C 9.4626404,16 10.433326,15.574489 11.25,14.9375 C 12.066674,14.300511 12.750066,13.404259 12.96875,12.3125 C 13.038048,11.967077 12.975164,11.539599 12.78125,11.21875 C 12.587336,10.897901 12.320701,10.708867 12.0625,10.59375 C 11.556691,10.368238 11.065224,10.365366 10.59375,10.40625 C 10.900985,10.204241 11.218851,10.058174 11.5,9.8125 C 12.201749,9.199297 12.855829,8.2419346 12.65625,7.125 C 12.463426,6.0458859 11.508921,5.4655249 10.5625,5.21875 C 9.6160791,4.9719751 8.5179941,4.9705092 7.40625,5.15625 z M 8.375,11.9375 C 8.3432244,12.079352 8.2287459,12.159701 8.25,12.3125 C 8.246777,12.314009 8.2664657,12.320195 8.125,12.21875 C 8.0209824,12.144162 8.0661352,12.194021 8.03125,12.15625 C 8.0718697,12.116195 8.2822399,12.009315 8.375,11.9375 z "
         id="path2858"
         style="opacity:1;fill:#fce94f;fill-opacity:1;fill-rule:nonzero;stroke:none;stroke-width:0.99639398;stroke-miterlimit:4;stroke-dasharray:none"
         inkscape:original="M 7.5625 6.125 C 5.5631498 6.4590346 3.4824223 7.5101462 3.0625 9.28125 C 2.4940104 11.677242 5.4026231 15 8.4375 15 C 9.9305033 15 11.67782 13.733453 12 12.125 C 12.246065 10.898467 9.1058589 11.375909 9.21875 12.1875 C 9.3539997 13.160304 8.4370432 13.658382 7.5625 13.03125 C 4.7784526 11.034896 12.174864 10.04001 11.6875 7.3125 C 11.485236 6.180554 9.5618502 5.7909654 7.5625 6.125 z "
         inkscape:radius="0.98537672"
         sodipodi:type="inkscape:offset" />
    </g>
    <g
       id="g1927"
       transform="translate(0,-24)">
      <path
         style="fill:#2e3436;fill-opacity:1;fill-rule:nonzero;stroke:none;stroke-width:0.99639398;stroke-miterlimit:4;stroke-dasharray:none"
         d="M 12.778758,0.99999365 C 9.8170589,0.99999365 9.2614842,5 10.927606,5 C 12.593487,5 15.740578,0.99999365 12.778758,0.99999365 z "
         id="path1917" />
      <path
         style="fill:#2e3436;fill-opacity:1;fill-rule:nonzero;stroke:none;stroke-width:0.99639398;stroke-miterlimit:4;stroke-dasharray:none"
         d="M 7.8980615,4.9993772 C 8.8171266,5.05265 9.8254911,1.6702087 8.0981127,1.8829428 C 6.3713584,2.0956769 6.9786221,4.946105 7.8980615,4.9993772 z "
         id="path1919" />
      <path
         style="fill:#2e3436;fill-opacity:1;fill-rule:nonzero;stroke:none;stroke-width:0.99639398;stroke-miterlimit:4;stroke-dasharray:none"
         d="M 3.4277592,6.736009 C 4.0814192,6.4628997 3.5119459,3.791585 2.4004371,4.5201145 C 1.2894274,5.2487625 2.7740992,7.0090005 3.4277592,6.736009 z "
         id="path1921" />
      <path
         style="fill:#2e3436;fill-opacity:1;fill-rule:nonzero;stroke:none;stroke-width:0.99639398;stroke-miterlimit:4;stroke-dasharray:none"
         d="M 5.4592103,5.3377869 C 6.2373407,5.1872032 6.2799953,2.1575436 4.8923554,2.7010405 C 3.5044662,3.2446552 4.6817024,5.4886065 5.4592103,5.3377869 L 5.4592103,5.3377869 z "
         id="path1923" />
      <path
         style="fill:#2e3436;fill-opacity:1;fill-rule:nonzero;stroke:none;stroke-width:0.99639398;stroke-miterlimit:4;stroke-dasharray:none"
         id="path1925"
         d="M 9.2036769,12.198362 C 9.3389269,13.171166 8.4459359,13.651584 7.5713927,13.024452 C 4.7873451,11.028098 12.181008,10.032279 11.693644,7.3047692 C 11.289116,5.040877 3.9139016,5.7378577 3.0740571,9.2800653 C 2.5055675,11.676058 5.414113,14.999977 8.4489899,14.999977 C 9.9419932,14.999977 11.664078,13.730293 11.986258,12.12184 C 12.232323,10.895307 9.0907858,11.386771 9.2036769,12.198362 L 9.2036769,12.198362 z " />
    </g>
  </g>
</svg>
