<?xml version="1.0" encoding="UTF-8" standalone="no"?>
<!-- Created with Inkscape (http://www.inkscape.org/) -->
<svg
   xmlns:dc="http://purl.org/dc/elements/1.1/"
   xmlns:cc="http://web.resource.org/cc/"
   xmlns:rdf="http://www.w3.org/1999/02/22-rdf-syntax-ns#"
   xmlns:svg="http://www.w3.org/2000/svg"
   xmlns="http://www.w3.org/2000/svg"
   xmlns:xlink="http://www.w3.org/1999/xlink"
   xmlns:sodipodi="http://sodipodi.sourceforge.net/DTD/sodipodi-0.dtd"
   xmlns:inkscape="http://www.inkscape.org/namespaces/inkscape"
   width="22"
   height="22"
   id="svg2"
   sodipodi:version="0.32"
   inkscape:version="0.45"
   version="1.0"
   sodipodi:docbase="/home/dobey/Projects/gnome-icon-theme/22x22/apps"
   sodipodi:docname="help-browser.svg"
   inkscape:output_extension="org.inkscape.output.svg.inkscape">
  <defs
     id="defs4">
    <linearGradient
       inkscape:collect="always"
       id="linearGradient3839">
      <stop
         style="stop-color:white;stop-opacity:1"
         offset="0"
         id="stop3841" />
      <stop
         style="stop-color:#eeeeec;stop-opacity:1"
         offset="1"
         id="stop3843" />
    </linearGradient>
    <linearGradient
       inkscape:collect="always"
       id="linearGradient3831">
      <stop
         style="stop-color:#ef2929;stop-opacity:1;"
         offset="0"
         id="stop3833" />
      <stop
         style="stop-color:#ef2929;stop-opacity:0;"
         offset="1"
         id="stop3835" />
    </linearGradient>
    <linearGradient
       inkscape:collect="always"
       id="linearGradient3823">
      <stop
         style="stop-color:#ef2929;stop-opacity:1;"
         offset="0"
         id="stop3825" />
      <stop
         style="stop-color:#ef2929;stop-opacity:0;"
         offset="1"
         id="stop3827" />
    </linearGradient>
    <linearGradient
       inkscape:collect="always"
       id="linearGradient3815">
      <stop
         style="stop-color:#ef2929;stop-opacity:1;"
         offset="0"
         id="stop3817" />
      <stop
         style="stop-color:#ef2929;stop-opacity:0;"
         offset="1"
         id="stop3819" />
    </linearGradient>
    <linearGradient
       inkscape:collect="always"
       id="linearGradient3807">
      <stop
         style="stop-color:#ef2929;stop-opacity:1;"
         offset="0"
         id="stop3809" />
      <stop
         style="stop-color:#ef2929;stop-opacity:0;"
         offset="1"
         id="stop3811" />
    </linearGradient>
    <linearGradient
       inkscape:collect="always"
       id="linearGradient3783">
      <stop
         style="stop-color:black;stop-opacity:1;"
         offset="0"
         id="stop3785" />
      <stop
         style="stop-color:black;stop-opacity:0;"
         offset="1"
         id="stop3787" />
    </linearGradient>
    <linearGradient
       id="linearGradient3743">
      <stop
         style="stop-color:white;stop-opacity:1;"
         offset="0"
         id="stop3745" />
      <stop
         style="stop-color:white;stop-opacity:0.3392857;"
         offset="1"
         id="stop3747" />
    </linearGradient>
    <linearGradient
       inkscape:collect="always"
       id="linearGradient3735">
      <stop
         style="stop-color:white;stop-opacity:1;"
         offset="0"
         id="stop3737" />
      <stop
         style="stop-color:white;stop-opacity:0;"
         offset="1"
         id="stop3739" />
    </linearGradient>
    <radialGradient
       inkscape:collect="always"
       xlink:href="#linearGradient3735"
       id="radialGradient3741"
       cx="10.863756"
       cy="16.148972"
       fx="10.863756"
       fy="16.148972"
       r="8.714374"
       gradientTransform="matrix(2.21022,0,0,2.138888,-12.1022,-18.82138)"
       gradientUnits="userSpaceOnUse" />
    <radialGradient
       inkscape:collect="always"
       xlink:href="#linearGradient3743"
       id="radialGradient3749"
       cx="7.5927024"
       cy="3.1548533"
       fx="7.5927024"
       fy="3.1548533"
       r="8.4622421"
       gradientTransform="matrix(2.723968,0,0,2.633434,-13.5604,-4.83122)"
       gradientUnits="userSpaceOnUse" />
    <radialGradient
       inkscape:collect="always"
       xlink:href="#linearGradient3783"
       id="radialGradient3789"
       cx="8"
       cy="17"
       fx="8"
       fy="17"
       r="8"
       gradientTransform="matrix(1,0,0,0.625,0,6.375)"
       gradientUnits="userSpaceOnUse" />
    <linearGradient
       inkscape:collect="always"
       xlink:href="#linearGradient3807"
       id="linearGradient3813"
       x1="6.055223"
       y1="6.3116894"
       x2="4.4831853"
       y2="4.7396517"
       gradientUnits="userSpaceOnUse" />
    <linearGradient
       inkscape:collect="always"
       xlink:href="#linearGradient3815"
       id="linearGradient3821"
       x1="15.291184"
       y1="6.4436507"
       x2="17.416643"
       y2="4.3181915"
       gradientUnits="userSpaceOnUse" />
    <linearGradient
       inkscape:collect="always"
       xlink:href="#linearGradient3823"
       id="linearGradient3829"
       x1="15.821683"
       y1="15.989761"
       x2="14.372151"
       y2="14.54023"
       gradientUnits="userSpaceOnUse" />
    <linearGradient
       inkscape:collect="always"
       xlink:href="#linearGradient3831"
       id="linearGradient3837"
       x1="6.4302521"
       y1="15.967495"
       x2="8.122447"
       y2="14.2753"
       gradientUnits="userSpaceOnUse" />
    <radialGradient
       inkscape:collect="always"
       xlink:href="#linearGradient3839"
       id="radialGradient3845"
       cx="11"
       cy="13.481151"
       fx="11"
       fy="13.481151"
       r="10"
       gradientUnits="userSpaceOnUse"
       gradientTransform="matrix(0.883946,0,0,0.625,1.276603,4.88678)" />
  </defs>
  <sodipodi:namedview
     id="base"
     pagecolor="#ffffff"
     bordercolor="#afafaf"
     borderopacity="1"
     inkscape:pageopacity="0.0"
     inkscape:pageshadow="2"
     inkscape:zoom="1"
     inkscape:cx="-2.2565834"
     inkscape:cy="20.530848"
     inkscape:document-units="px"
     inkscape:current-layer="layer1"
     width="22px"
     height="22px"
     gridspacingx="0.5px"
     gridspacingy="0.5px"
     inkscape:showpageshadow="false"
     borderlayer="true"
     gridempspacing="2"
     inkscape:window-width="1051"
     inkscape:window-height="797"
     inkscape:window-x="210"
     inkscape:window-y="0"
     showgrid="false"
     showborder="false"
     inkscape:grid-points="true" />
  <metadata
     id="metadata7">
    <rdf:RDF>
      <cc:Work
         rdf:about="">
        <dc:format>image/svg+xml</dc:format>
        <dc:type
           rdf:resource="http://purl.org/dc/dcmitype/StillImage" />
        <dc:creator>
          <cc:Agent>
            <dc:title>Lapo Calamandrei</dc:title>
          </cc:Agent>
        </dc:creator>
        <cc:license
           rdf:resource="http://creativecommons.org/licenses/GPL/2.0/" />
      </cc:Work>
      <cc:License
         rdf:about="http://creativecommons.org/licenses/GPL/2.0/">
        <cc:permits
           rdf:resource="http://web.resource.org/cc/Reproduction" />
        <cc:permits
           rdf:resource="http://web.resource.org/cc/Distribution" />
        <cc:requires
           rdf:resource="http://web.resource.org/cc/Notice" />
        <cc:permits
           rdf:resource="http://web.resource.org/cc/DerivativeWorks" />
        <cc:requires
           rdf:resource="http://web.resource.org/cc/ShareAlike" />
        <cc:requires
           rdf:resource="http://web.resource.org/cc/SourceCode" />
      </cc:License>
    </rdf:RDF>
  </metadata>
  <g
     inkscape:label="Livello 1"
     inkscape:groupmode="layer"
     id="layer1">
    <path
       sodipodi:type="arc"
       style="opacity:0.5;fill:url(#radialGradient3789);fill-opacity:1;stroke:none;stroke-width:1;stroke-linecap:round;stroke-linejoin:miter;stroke-miterlimit:4;stroke-dasharray:none;stroke-dashoffset:1.20000057;stroke-opacity:1"
       id="path3773"
       sodipodi:cx="8"
       sodipodi:cy="17"
       sodipodi:rx="8"
       sodipodi:ry="5"
       d="M 16 17 A 8 5 0 1 1  0,17 A 8 5 0 1 1  16 17 z"
       transform="matrix(1.375,0,0,0.6,0,8.8)" />
    <g
       id="g3767"
       style="stroke:#c4a000">
      <path
         transform="matrix(1.5,0,0,1.333333,7.105714e-8,0.166667)"
         d="M 5 3.25 A 2 2.25 0 1 1  1,3.25 A 2 2.25 0 1 1  5 3.25 z"
         sodipodi:ry="2.25"
         sodipodi:rx="2"
         sodipodi:cy="3.25"
         sodipodi:cx="3"
         id="path3759"
         style="opacity:1;fill:none;fill-opacity:1;stroke:#c4a000;stroke-width:2.12132061;stroke-linecap:round;stroke-linejoin:miter;stroke-miterlimit:4;stroke-dasharray:none;stroke-dashoffset:1.20000057;stroke-opacity:1"
         sodipodi:type="arc" />
      <path
         transform="matrix(1.5,0,0,1.333333,13,0.166667)"
         d="M 5 3.25 A 2 2.25 0 1 1  1,3.25 A 2 2.25 0 1 1  5 3.25 z"
         sodipodi:ry="2.25"
         sodipodi:rx="2"
         sodipodi:cy="3.25"
         sodipodi:cx="3"
         id="path3761"
         style="opacity:1;fill:none;fill-opacity:1;stroke:#c4a000;stroke-width:2.12132061;stroke-linecap:round;stroke-linejoin:miter;stroke-miterlimit:4;stroke-dasharray:none;stroke-dashoffset:1.20000057;stroke-opacity:1"
         sodipodi:type="arc" />
      <path
         transform="matrix(1.5,0,0,1.333333,7.105714e-8,13.16667)"
         d="M 5 3.25 A 2 2.25 0 1 1  1,3.25 A 2 2.25 0 1 1  5 3.25 z"
         sodipodi:ry="2.25"
         sodipodi:rx="2"
         sodipodi:cy="3.25"
         sodipodi:cx="3"
         id="path3763"
         style="opacity:1;fill:none;fill-opacity:1;stroke:#c4a000;stroke-width:2.12132061;stroke-linecap:round;stroke-linejoin:miter;stroke-miterlimit:4;stroke-dasharray:none;stroke-dashoffset:1.20000057;stroke-opacity:1"
         sodipodi:type="arc" />
      <path
         transform="matrix(1.5,0,0,1.333333,13,13.16667)"
         d="M 5 3.25 A 2 2.25 0 1 1  1,3.25 A 2 2.25 0 1 1  5 3.25 z"
         sodipodi:ry="2.25"
         sodipodi:rx="2"
         sodipodi:cy="3.25"
         sodipodi:cx="3"
         id="path3765"
         style="opacity:1;fill:none;fill-opacity:1;stroke:#c4a000;stroke-width:2.12132061;stroke-linecap:round;stroke-linejoin:miter;stroke-miterlimit:4;stroke-dasharray:none;stroke-dashoffset:1.20000057;stroke-opacity:1"
         sodipodi:type="arc" />
    </g>
    <path
       sodipodi:type="arc"
       style="opacity:1;fill:none;fill-opacity:1;stroke:white;stroke-width:0.70710677;stroke-linecap:round;stroke-linejoin:miter;stroke-miterlimit:4;stroke-dasharray:none;stroke-dashoffset:1.20000057;stroke-opacity:1"
       id="path3751"
       sodipodi:cx="3"
       sodipodi:cy="3.25"
       sodipodi:rx="2"
       sodipodi:ry="2.25"
       d="M 5 3.25 A 2 2.25 0 1 1  1,3.25 A 2 2.25 0 1 1  5 3.25 z"
       transform="matrix(1.5,0,0,1.333333,7.105714e-8,0.166667)" />
    <path
       sodipodi:type="arc"
       style="opacity:1;fill:none;fill-opacity:1;stroke:white;stroke-width:0.70710677;stroke-linecap:round;stroke-linejoin:miter;stroke-miterlimit:4;stroke-dasharray:none;stroke-dashoffset:1.20000057;stroke-opacity:1"
       id="path3753"
       sodipodi:cx="3"
       sodipodi:cy="3.25"
       sodipodi:rx="2"
       sodipodi:ry="2.25"
       d="M 5 3.25 A 2 2.25 0 1 1  1,3.25 A 2 2.25 0 1 1  5 3.25 z"
       transform="matrix(1.5,0,0,1.333333,13,0.166667)" />
    <path
       sodipodi:type="arc"
       style="opacity:1;fill:none;fill-opacity:1;stroke:white;stroke-width:0.70710677;stroke-linecap:round;stroke-linejoin:miter;stroke-miterlimit:4;stroke-dasharray:none;stroke-dashoffset:1.20000057;stroke-opacity:1"
       id="path3755"
       sodipodi:cx="3"
       sodipodi:cy="3.25"
       sodipodi:rx="2"
       sodipodi:ry="2.25"
       d="M 5 3.25 A 2 2.25 0 1 1  1,3.25 A 2 2.25 0 1 1  5 3.25 z"
       transform="matrix(1.5,0,0,1.333333,7.105714e-8,13.16667)" />
    <path
       sodipodi:type="arc"
       style="opacity:1;fill:none;fill-opacity:1;stroke:white;stroke-width:0.70710677;stroke-linecap:round;stroke-linejoin:miter;stroke-miterlimit:4;stroke-dasharray:none;stroke-dashoffset:1.20000057;stroke-opacity:1"
       id="path3757"
       sodipodi:cx="3"
       sodipodi:cy="3.25"
       sodipodi:rx="2"
       sodipodi:ry="2.25"
       d="M 5 3.25 A 2 2.25 0 1 1  1,3.25 A 2 2.25 0 1 1  5 3.25 z"
       transform="matrix(1.5,0,0,1.333333,13,13.16667)" />
    <path
       style="opacity:1;fill:url(#radialGradient3845);fill-opacity:1.0;stroke:#888a85;stroke-width:1;stroke-linecap:round;stroke-linejoin:round;stroke-miterlimit:4;stroke-dasharray:none;stroke-dashoffset:1.20000057;stroke-opacity:1"
       d="M 11,1.5 C 5.7560047,1.5 1.5,5.7559993 1.5,11 C 1.5,16.244001 5.7560043,20.5 11,20.5 C 16.243995,20.5 20.5,16.244001 20.5,11 C 20.5,5.7559993 16.243995,1.5 11,1.5 z M 11,6.5 C 13.483996,6.4999998 15.5,8.5160039 15.5,11 C 15.5,13.483996 13.483996,15.5 11,15.5 C 8.516004,15.5 6.5,13.483996 6.5,11 C 6.5000001,8.5160037 8.516004,6.5 11,6.5 z "
       id="path1871" />
    <path
       style="fill:url(#linearGradient3813);fill-rule:evenodd;stroke:none;stroke-width:1px;stroke-linecap:butt;stroke-linejoin:miter;stroke-opacity:1;fill-opacity:1.0"
       d="M 7.1875,2.3125 C 5.015758,3.2692318 3.2692326,5.0157576 2.3125,7.1875 L 6.875,9.1875 C 7.3279515,8.1624211 8.1624211,7.3279515 9.1875,6.875 L 7.1875,2.3125 z "
       id="path2764" />
    <path
       style="opacity:1;fill:url(#linearGradient3837);fill-opacity:1.0;stroke:none;stroke-width:1;stroke-linecap:round;stroke-linejoin:miter;stroke-miterlimit:4;stroke-dasharray:none;stroke-dashoffset:1.20000057;stroke-opacity:1"
       d="M 6.875 12.8125 L 2.3125 14.8125 C 3.2692326 16.984242 5.015758 18.730768 7.1875 19.6875 L 9.1875 15.125 C 8.1624211 14.672048 7.3279515 13.837579 6.875 12.8125 z "
       id="path2772" />
    <path
       style="fill:url(#linearGradient3821);fill-rule:evenodd;stroke:none;stroke-width:1px;stroke-linecap:butt;stroke-linejoin:miter;stroke-opacity:1;fill-opacity:1.0"
       d="M 14.8125 2.3125 L 12.8125 6.875 C 13.837579 7.3279515 14.672048 8.1624211 15.125 9.1875 L 19.6875 7.1875 C 18.730767 5.0157576 16.984242 3.2692318 14.8125 2.3125 z "
       id="path2795" />
    <path
       style="fill:url(#linearGradient3829);fill-rule:evenodd;stroke:none;stroke-width:1px;stroke-linecap:butt;stroke-linejoin:miter;stroke-opacity:1;fill-opacity:1.0"
       d="M 15.125 12.8125 C 14.672048 13.837579 13.837579 14.672048 12.8125 15.125 L 14.8125 19.6875 C 16.984242 18.730768 18.730767 16.984242 19.6875 14.8125 L 15.125 12.8125 z "
       id="path2797" />
    <path
       style="fill:none;fill-rule:evenodd;stroke:black;stroke-width:1px;stroke-linecap:butt;stroke-linejoin:miter;stroke-opacity:1"
       d="M 81,11 L 68.5,5.5 L 75.5,-1.5 L 81,11 z "
       id="path2807"
       sodipodi:nodetypes="cccc" />
    <path
       style="fill:none;fill-rule:evenodd;stroke:black;stroke-width:1px;stroke-linecap:butt;stroke-linejoin:miter;stroke-opacity:1"
       d="M 81,11 L 86.5,-1.5 L 93.5,5.5 L 81,11 z "
       id="path2809"
       sodipodi:nodetypes="cccc"
       inkscape:transform-center-x="-6.25"
       inkscape:transform-center-y="-6.25" />
    <path
       style="fill:none;fill-rule:evenodd;stroke:black;stroke-width:1px;stroke-linecap:butt;stroke-linejoin:miter;stroke-opacity:1"
       d="M 81,11 L 93.5,16.5 L 86.5,23.5 L 81,11 z "
       id="path2811"
       sodipodi:nodetypes="cccc"
       inkscape:transform-center-x="-6.25"
       inkscape:transform-center-y="6.25" />
    <path
       style="fill:none;fill-rule:evenodd;stroke:black;stroke-width:1px;stroke-linecap:butt;stroke-linejoin:miter;stroke-opacity:1"
       d="M 81,11 L 75.5,23.5 L 68.5,16.5 L 81,11 z "
       id="path2813"
       sodipodi:nodetypes="cccc"
       inkscape:transform-center-x="6.25"
       inkscape:transform-center-y="6.25" />
    <path
       style="opacity:0.4;fill:white;fill-opacity:1;stroke:black;stroke-width:1;stroke-linecap:round;stroke-linejoin:round;stroke-miterlimit:4;stroke-dasharray:none;stroke-dashoffset:1.20000057;stroke-opacity:1"
       d="M 81,1.5 C 75.756005,1.5 71.5,5.7559993 71.5,11 C 71.5,16.244001 75.756004,20.5 81,20.5 C 86.243995,20.5 90.5,16.244001 90.5,11 C 90.5,5.7559993 86.243995,1.5 81,1.5 z M 81,6.5 C 83.483996,6.4999998 85.5,8.5160039 85.5,11 C 85.5,13.483996 83.483996,15.5 81,15.5 C 78.516004,15.5 76.5,13.483996 76.5,11 C 76.5,8.5160037 78.516004,6.5 81,6.5 z "
       id="path2815" />
    <path
       style="fill:none;fill-rule:evenodd;stroke:#a40000;stroke-width:1px;stroke-linecap:round;stroke-linejoin:miter;stroke-opacity:1"
       d="M 6.875,9.1875 C 7.327952,8.1624211 8.162421,7.3279515 9.1875,6.875 M 7.1875,2.3125 C 5.015758,3.2692318 3.269233,5.0157576 2.3125,7.1875"
       id="path3706"
       sodipodi:nodetypes="cccc" />
    <path
       style="fill:none;fill-rule:evenodd;stroke:#a40000;stroke-width:1px;stroke-linecap:round;stroke-linejoin:miter;stroke-opacity:1"
       d="M 19.6875,7.1875 C 18.730767,5.0157576 16.984242,3.2692318 14.8125,2.3125 M 12.8125,6.875 C 13.837579,7.3279515 14.672048,8.1624211 15.125,9.1875"
       id="path3708"
       sodipodi:nodetypes="cccc" />
    <path
       style="fill:none;fill-rule:evenodd;stroke:#a40000;stroke-width:1px;stroke-linecap:round;stroke-linejoin:miter;stroke-opacity:1"
       d="M 15.125,12.8125 C 14.672048,13.837579 13.837579,14.672048 12.8125,15.125 M 14.8125,19.6875 C 16.984242,18.730768 18.730767,16.984242 19.6875,14.8125"
       id="path3710"
       sodipodi:nodetypes="cccc" />
    <path
       style="opacity:1;fill:none;fill-opacity:1;stroke:#a40000;stroke-width:1;stroke-linecap:round;stroke-linejoin:miter;stroke-miterlimit:4;stroke-dasharray:none;stroke-dashoffset:1.20000057;stroke-opacity:1"
       d="M 9.1875,15.125 C 8.1624211,14.672048 7.3279515,13.837579 6.875,12.8125 M 2.3125,14.8125 C 3.2692326,16.984242 5.015758,18.730768 7.1875,19.6875"
       id="path3712"
       sodipodi:nodetypes="cccc" />
    <path
       sodipodi:type="arc"
       style="opacity:0.4;fill:none;fill-opacity:1;stroke:url(#radialGradient3749);stroke-width:0.92448425;stroke-linecap:round;stroke-linejoin:miter;stroke-miterlimit:4;stroke-dasharray:none;stroke-dashoffset:1.20000057;stroke-opacity:1"
       id="path3722"
       sodipodi:cx="10"
       sodipodi:cy="10.28125"
       sodipodi:rx="8"
       sodipodi:ry="7.71875"
       d="M 18 10.28125 A 8 7.71875 0 1 1  2,10.28125 A 8 7.71875 0 1 1  18 10.28125 z"
       transform="matrix(1.0625,0,0,1.101215,0.375,-0.321863)" />
    <path
       sodipodi:type="arc"
       style="opacity:0.8;fill:none;fill-opacity:1;stroke:url(#radialGradient3741);stroke-width:1.42874801;stroke-linecap:round;stroke-linejoin:miter;stroke-miterlimit:4;stroke-dasharray:none;stroke-dashoffset:1.20000057;stroke-opacity:1"
       id="path3724"
       sodipodi:cx="10"
       sodipodi:cy="10.28125"
       sodipodi:rx="8"
       sodipodi:ry="7.71875"
       d="M 18 10.28125 A 8 7.71875 0 1 1  2,10.28125 A 8 7.71875 0 1 1  18 10.28125 z"
       transform="matrix(0.6875,0,0,0.712551,4.124998,3.674088)" />
  </g>
</svg>
