<?xml version="1.0" encoding="UTF-8" standalone="no"?>
<!-- Created with Inkscape (http://www.inkscape.org/) -->
<svg
   xmlns:dc="http://purl.org/dc/elements/1.1/"
   xmlns:cc="http://web.resource.org/cc/"
   xmlns:rdf="http://www.w3.org/1999/02/22-rdf-syntax-ns#"
   xmlns:svg="http://www.w3.org/2000/svg"
   xmlns="http://www.w3.org/2000/svg"
   xmlns:xlink="http://www.w3.org/1999/xlink"
   xmlns:sodipodi="http://sodipodi.sourceforge.net/DTD/sodipodi-0.dtd"
   xmlns:inkscape="http://www.inkscape.org/namespaces/inkscape"
   width="22"
   height="22"
   id="svg4289"
   sodipodi:version="0.32"
   inkscape:version="0.45"
   sodipodi:docbase="/home/lapo/Icone/svn/gnome-icon-theme/22x22/apps"
   sodipodi:docname="preferences-desktop-accessibility.svg"
   inkscape:export-filename="/home/andreas/project/gnome-icon-theme/22x22/categories/preferences-desktop-accessability.png"
   inkscape:export-xdpi="90"
   inkscape:export-ydpi="90"
   version="1.0"
   inkscape:output_extension="org.inkscape.output.svg.inkscape"
   sodipodi:modified="true">
  <defs
     id="defs4291">
    <linearGradient
       inkscape:collect="always"
       id="linearGradient6953">
      <stop
         style="stop-color:#000000;stop-opacity:1;"
         offset="0"
         id="stop6955" />
      <stop
         style="stop-color:#000000;stop-opacity:0;"
         offset="1"
         id="stop6957" />
    </linearGradient>
    <linearGradient
       id="linearGradient7053">
      <stop
         id="stop7055"
         offset="0"
         style="stop-color:#92b4da;stop-opacity:1" />
      <stop
         id="stop7057"
         offset="1"
         style="stop-color:#3465a4;stop-opacity:1" />
    </linearGradient>
    <linearGradient
       inkscape:collect="always"
       id="linearGradient7018">
      <stop
         style="stop-color:#ffffff;stop-opacity:1;"
         offset="0"
         id="stop7020" />
      <stop
         style="stop-color:#ffffff;stop-opacity:0;"
         offset="1"
         id="stop7022" />
    </linearGradient>
    <linearGradient
       inkscape:collect="always"
       id="linearGradient7001">
      <stop
         style="stop-color:#ffffff;stop-opacity:1;"
         offset="0"
         id="stop7003" />
      <stop
         style="stop-color:#ffffff;stop-opacity:0;"
         offset="1"
         id="stop7005" />
    </linearGradient>
    <linearGradient
       inkscape:collect="always"
       id="linearGradient6993">
      <stop
         style="stop-color:#ffffff;stop-opacity:1;"
         offset="0"
         id="stop6995" />
      <stop
         style="stop-color:#ffffff;stop-opacity:0;"
         offset="1"
         id="stop6997" />
    </linearGradient>
    <linearGradient
       id="linearGradient6968">
      <stop
         style="stop-color:#729fcf;stop-opacity:1;"
         offset="0"
         id="stop6970" />
      <stop
         style="stop-color:#3465a4;stop-opacity:1"
         offset="1"
         id="stop6972" />
    </linearGradient>
    <linearGradient
       inkscape:collect="always"
       id="linearGradient6960">
      <stop
         style="stop-color:#ffffff;stop-opacity:1;"
         offset="0"
         id="stop6962" />
      <stop
         style="stop-color:#ffffff;stop-opacity:0;"
         offset="1"
         id="stop6964" />
    </linearGradient>
    <linearGradient
       inkscape:collect="always"
       id="linearGradient6952">
      <stop
         style="stop-color:#ffffff;stop-opacity:1;"
         offset="0"
         id="stop6954" />
      <stop
         style="stop-color:#ffffff;stop-opacity:0;"
         offset="1"
         id="stop6956" />
    </linearGradient>
    <linearGradient
       id="linearGradient7668">
      <stop
         style="stop-color:#92b4da;stop-opacity:1"
         offset="0"
         id="stop7670" />
      <stop
         style="stop-color:#5e91c8;stop-opacity:1"
         offset="1"
         id="stop7672" />
    </linearGradient>
    <linearGradient
       inkscape:collect="always"
       xlink:href="#linearGradient7668"
       id="linearGradient5936"
       gradientUnits="userSpaceOnUse"
       gradientTransform="matrix(0.479951,0,0,0.462488,0.5851475,-0.6307851)"
       x1="19.0625"
       y1="8.875"
       x2="29"
       y2="22.5" />
    <linearGradient
       inkscape:collect="always"
       xlink:href="#linearGradient6968"
       id="linearGradient6974"
       x1="-6.5407376"
       y1="11.084039"
       x2="5.3000002"
       y2="23.018845"
       gradientUnits="userSpaceOnUse"
       gradientTransform="translate(11,0)" />
    <linearGradient
       inkscape:collect="always"
       xlink:href="#linearGradient7053"
       id="linearGradient7062"
       gradientUnits="userSpaceOnUse"
       gradientTransform="matrix(0.479951,0,0,0.462488,0.5851475,-0.6307851)"
       x1="12.778871"
       y1="-11.614841"
       x2="36.995346"
       y2="60.806885" />
    <radialGradient
       inkscape:collect="always"
       xlink:href="#linearGradient6953"
       id="radialGradient6959"
       cx="10.960155"
       cy="19.790291"
       fx="10.960155"
       fy="19.790291"
       r="9.6343298"
       gradientTransform="matrix(1,0,0,0.2018349,0,15.79592)"
       gradientUnits="userSpaceOnUse" />
    <linearGradient
       inkscape:collect="always"
       xlink:href="#linearGradient6960"
       id="linearGradient5983"
       gradientUnits="userSpaceOnUse"
       gradientTransform="translate(1,0)"
       x1="3.7123106"
       y1="9.8907967"
       x2="3.7123106"
       y2="19.79801" />
    <linearGradient
       inkscape:collect="always"
       xlink:href="#linearGradient6952"
       id="linearGradient5985"
       gradientUnits="userSpaceOnUse"
       gradientTransform="translate(1,0)"
       x1="8.9272232"
       y1="19.392544"
       x2="8.7946405"
       y2="12.012116" />
    <linearGradient
       inkscape:collect="always"
       xlink:href="#linearGradient6993"
       id="linearGradient5987"
       gradientUnits="userSpaceOnUse"
       x1="9.4521217"
       y1="4.8008842"
       x2="11.715899"
       y2="5.9101801" />
    <linearGradient
       inkscape:collect="always"
       xlink:href="#linearGradient7018"
       id="linearGradient5989"
       gradientUnits="userSpaceOnUse"
       x1="12.81631"
       y1="12.896"
       x2="9.9436893"
       y2="11.437593" />
    <linearGradient
       inkscape:collect="always"
       xlink:href="#linearGradient7001"
       id="linearGradient5991"
       gradientUnits="userSpaceOnUse"
       x1="11.062373"
       y1="7.3717279"
       x2="9.5640888"
       y2="6.5320392" />
  </defs>
  <sodipodi:namedview
     id="base"
     pagecolor="#ffffff"
     bordercolor="#666666"
     borderopacity="1.0"
     inkscape:pageopacity="0.0"
     inkscape:pageshadow="2"
     inkscape:zoom="1"
     inkscape:cx="10.436224"
     inkscape:cy="20.362012"
     inkscape:current-layer="layer1"
     showgrid="false"
     inkscape:grid-bbox="true"
     inkscape:document-units="px"
     showguides="true"
     inkscape:guide-bbox="true"
     inkscape:window-width="1674"
     inkscape:window-height="968"
     inkscape:window-x="5"
     inkscape:window-y="24"
     width="22px"
     height="22px"
     inkscape:showpageshadow="false"
     showborder="false" />
  <metadata
     id="metadata4294">
    <rdf:RDF>
      <cc:Work
         rdf:about="">
        <dc:format>image/svg+xml</dc:format>
        <dc:type
           rdf:resource="http://purl.org/dc/dcmitype/StillImage" />
        <dc:title>Accessability preferences</dc:title>
        <dc:date>August 2006</dc:date>
        <dc:creator>
          <cc:Agent>
            <dc:title>Andreas Nilsson</dc:title>
          </cc:Agent>
        </dc:creator>
        <dc:source>http://www.gnome.org</dc:source>
        <dc:subject>
          <rdf:Bag>
            <rdf:li>accessability</rdf:li>
            <rdf:li>wheelchair</rdf:li>
            <rdf:li>handicap</rdf:li>
          </rdf:Bag>
        </dc:subject>
        <cc:license
           rdf:resource="http://creativecommons.org/licenses/GPL/2.0/" />
      </cc:Work>
      <cc:License
         rdf:about="http://creativecommons.org/licenses/GPL/2.0/">
        <cc:permits
           rdf:resource="http://web.resource.org/cc/Reproduction" />
        <cc:permits
           rdf:resource="http://web.resource.org/cc/Distribution" />
        <cc:requires
           rdf:resource="http://web.resource.org/cc/Notice" />
        <cc:permits
           rdf:resource="http://web.resource.org/cc/DerivativeWorks" />
        <cc:requires
           rdf:resource="http://web.resource.org/cc/ShareAlike" />
        <cc:requires
           rdf:resource="http://web.resource.org/cc/SourceCode" />
      </cc:License>
    </rdf:RDF>
  </metadata>
  <g
     id="layer1"
     inkscape:label="Layer 1"
     inkscape:groupmode="layer"
     style="display:inline">
    <path
       sodipodi:type="arc"
       style="opacity:0.35;fill:url(#radialGradient6959);fill-opacity:1;fill-rule:evenodd;stroke:none;stroke-width:1;stroke-linecap:round;stroke-linejoin:miter;stroke-miterlimit:4;stroke-dasharray:none;stroke-opacity:1"
       id="path5974"
       sodipodi:cx="10.960155"
       sodipodi:cy="19.790291"
       sodipodi:rx="9.6343298"
       sodipodi:ry="1.9445436"
       d="M 20.594484 19.790291 A 9.6343298 1.9445436 0 1 1  1.3258247,19.790291 A 9.6343298 1.9445436 0 1 1  20.594484 19.790291 z"
       transform="matrix(1.1219628,0,0,1.0285188,-1.1062444,-0.3546867)" />
    <path
       style="opacity:1;fill:url(#linearGradient6974);fill-opacity:1;fill-rule:evenodd;stroke:#1e4781;stroke-width:1.1;stroke-linecap:round;stroke-linejoin:miter;stroke-miterlimit:4;stroke-dasharray:none;stroke-opacity:1"
       d="M 6.5,7.375 C 4.128543,8.6352909 2.5000001,11.128879 2.5,14 C 2.5,18.14 5.8599995,21.500001 10,21.5 C 12.312641,21.5 14.373869,20.459714 15.75,18.8125 L 13.5,16.78125 C 12.675299,17.816131 11.425167,18.5 10,18.5 C 7.5159999,18.5 5.5,16.484 5.5,14 C 5.5,12.941167 5.8872851,11.987619 6.5,11.21875 L 6.5,7.375 z "
       id="path5939"
       sodipodi:nodetypes="cssccsscc" />
    <path
       style="fill:url(#linearGradient5936);fill-opacity:1;stroke:#204a87;stroke-width:0.99999988;stroke-linecap:round;stroke-linejoin:round;stroke-miterlimit:4;stroke-opacity:1"
       d="M 11.140542,0.4999999 C 9.6908959,0.4999999 8.5467919,1.6500575 8.5467919,3.0624999 L 8.5467919,14 C 8.5489364,14.275249 8.7715427,14.497855 9.0467919,14.5 L 14.046792,14.5 L 17.265542,17.40625 C 17.422535,17.540345 17.645442,17.565113 17.828042,17.46875 L 20.234292,16.25 C 20.469537,16.123735 20.565479,15.835909 20.453042,15.59375 L 19.734292,14.21875 C 19.619174,13.971627 19.328404,13.860857 19.078042,13.96875 L 18.171792,14.40625 L 15.078042,11.65625 C 14.983157,11.573003 14.860487,11.528395 14.734292,11.53125 L 11.546792,11.53125 L 11.546792,9.5312499 L 14.046792,9.5312499 C 14.322041,9.5291054 14.544647,9.3064991 14.546792,9.0312499 L 14.546792,7.0312499 C 14.544647,6.7560007 14.322041,6.5333944 14.046792,6.5312499 L 11.578042,6.5312499 L 11.578042,5.9999999 C 12.180176,5.9213716 12.742074,5.7499291 13.171792,5.3749999 C 13.71985,4.8968193 14.027216,4.1565648 14.015542,3.2812499 C 14.003701,2.3933881 13.656191,1.6576641 13.109292,1.1874999 C 12.562393,0.7173357 11.843702,0.4999999 11.140542,0.4999999 z "
       id="path5934"
       sodipodi:nodetypes="ccccccccccccccccccccccsssc" />
    <path
       style="fill:url(#linearGradient7062);fill-opacity:1;stroke:#204a87;stroke-width:0.99999988;stroke-linecap:round;stroke-linejoin:round;stroke-miterlimit:4;stroke-opacity:1"
       d="M 11.140542,0.4999999 C 9.6908959,0.4999999 8.5467919,1.6500575 8.5467919,3.0624999 L 8.5467919,14 C 8.5489364,14.275249 8.7715427,14.497855 9.0467919,14.5 L 14.046792,14.5 L 17.265542,17.40625 C 17.422535,17.540345 17.645442,17.565113 17.828042,17.46875 L 20.587845,16.09532 C 20.82309,15.969055 20.919032,15.681229 20.806595,15.43907 L 20.087845,14.06407 C 19.972727,13.816947 19.681957,13.706177 19.431595,13.81407 L 18.171792,14.40625 L 15.078042,11.65625 C 14.983157,11.573003 14.860487,11.528395 14.734292,11.53125 L 11.546792,11.53125 L 11.546792,9.5312499 L 14.046792,9.5312499 C 14.322041,9.5291054 14.544647,9.3064991 14.546792,9.0312499 L 14.546792,7.0312499 C 14.544647,6.7560007 14.322041,6.5333944 14.046792,6.5312499 L 11.578042,6.5312499 L 11.578042,5.9999999 C 12.180176,5.9213716 12.742074,5.6561791 13.171792,5.2812499 C 13.71985,4.8030693 14.027216,4.0628148 14.015542,3.1874999 C 14.003701,2.2996381 13.656191,1.5639141 13.109292,1.0937499 C 12.562393,0.6235857 11.843702,0.4999999 11.140542,0.4999999 z "
       id="path6932"
       sodipodi:nodetypes="ccccccccccccccccccccccsssc" />
    <g
       id="g5974"
       style="opacity:0.6">
      <path
         sodipodi:nodetypes="cssc"
         id="path6924"
         d="M 5.53125,9.3125 C 4.2890237,10.49661 3.5,12.149653 3.5,14 C 3.5,17.588 6.412,20.500001 10,20.5 C 11.673907,20.5 13.191148,19.853048 14.34375,18.8125"
         style="opacity:0.98880597;fill:none;fill-opacity:1;fill-rule:evenodd;stroke:url(#linearGradient5983);stroke-width:0.99999994;stroke-linecap:round;stroke-linejoin:miter;stroke-miterlimit:4;stroke-dasharray:none;stroke-opacity:1" />
      <path
         sodipodi:nodetypes="cssc"
         id="path6926"
         d="M 5.53125,10.8125 C 4.8844909,11.714317 4.5,12.80637 4.5,14 C 4.5,17.036 6.9639998,19.499999 10,19.5 C 11.3915,19.5 12.655985,18.978057 13.625,18.125"
         style="opacity:0.7;fill:none;fill-opacity:1;fill-rule:evenodd;stroke:url(#linearGradient5985);stroke-width:0.99999994;stroke-linecap:round;stroke-linejoin:miter;stroke-miterlimit:4;stroke-dasharray:none;stroke-opacity:1" />
      <g
         style="opacity:0.98880597"
         transform="translate(1,0)"
         id="g7042">
        <path
           style="fill:none;fill-opacity:1;stroke:url(#linearGradient5987);stroke-width:1;stroke-linecap:round;stroke-linejoin:miter;stroke-miterlimit:4;stroke-dasharray:none;stroke-opacity:1"
           d="M 11.515542,4.6249999 C 11.82117,4.3583397 12.024037,3.9182013 12.015542,3.2812499 C 12.007037,2.6435383 11.770746,2.2106269 11.453042,1.9374999 C 11.116217,1.6479342 10.640368,1.4999999 10.140542,1.4999999 C 9.212801,1.4999999 8.546792,2.1829363 8.546792,3.0624999 L 8.546792,13.5"
           id="path6987"
           sodipodi:nodetypes="cssccc" />
        <path
           style="opacity:0.7;fill:none;fill-opacity:1;stroke:url(#linearGradient5989);stroke-width:1;stroke-linecap:round;stroke-linejoin:miter;stroke-miterlimit:4;stroke-dasharray:none;stroke-opacity:1"
           d="M 18.703692,15.461167 L 18.422442,14.929917 L 17.609292,15.28125 C 17.253177,15.465688 16.820861,15.41628 16.515542,15.15625 L 13.546792,12.53125 L 10.546792,12.53125 C 10.2805,12.534812 10.024071,12.430599 9.835757,12.242285 C 9.647443,12.053971 9.54323,11.797542 9.546792,11.53125"
           id="path6989"
           sodipodi:nodetypes="ccccccsc" />
        <path
           style="opacity:0.71268658;fill:none;fill-opacity:1;stroke:url(#linearGradient5991);stroke-width:1;stroke-linecap:round;stroke-linejoin:miter;stroke-miterlimit:4;stroke-dasharray:none;stroke-opacity:1"
           d="M 12.546792,7.5312499 L 10.578042,7.5312499 C 10.31175,7.5348117 10.055321,7.4305991 9.867007,7.242285 C 9.678693,7.053971 9.57448,6.7975423 9.578042,6.5312499"
           id="path6991"
           sodipodi:nodetypes="ccsc" />
      </g>
      <path
         transform="matrix(0.7299167,0,0,1,1.3548389,-0.3977476)"
         d="M 6.363961 9.2278833 A 0.68500972 0.61871845 0 1 1  4.9939415,9.2278833 A 0.68500972 0.61871845 0 1 1  6.363961 9.2278833 z"
         sodipodi:ry="0.61871845"
         sodipodi:rx="0.68500972"
         sodipodi:cy="9.2278833"
         sodipodi:cx="5.6789513"
         id="path6961"
         style="opacity:0.58955222;fill:#ffffff;fill-opacity:1;fill-rule:evenodd;stroke:none;stroke-width:1;stroke-linecap:round;stroke-linejoin:miter;stroke-miterlimit:4;stroke-dasharray:none;stroke-opacity:1"
         sodipodi:type="arc" />
    </g>
  </g>
  <g
     inkscape:groupmode="layer"
     id="layer2"
     inkscape:label="troiai"
     style="display:none">
    <path
       style="fill:none;fill-opacity:1;stroke:#ffff00;stroke-width:0.99999988;stroke-linecap:round;stroke-linejoin:round;stroke-miterlimit:4;stroke-opacity:1"
       d="M -1.671958,15.59375 L -1.953208,15.0625 L -2.390708,15.28125 C -2.746823,15.465688 -3.179139,15.41628 -3.484458,15.15625 L -6.453208,12.53125 L -9.453208,12.53125 C -9.7195,12.534812 -9.975929,12.430599 -10.164243,12.242285 C -10.352557,12.053971 -10.45677,11.797542 -10.453208,11.53125 M -7.453208,7.5312499 L -9.421958,7.5312499 C -9.68825,7.5348117 -9.944679,7.4305991 -10.132993,7.242285 C -10.321307,7.053971 -10.42552,6.7975423 -10.421958,6.5312499 M -8.484458,4.6249999 C -8.17883,4.3583397 -7.975963,3.9182013 -7.984458,3.2812499 C -7.992963,2.6435383 -8.229254,2.2106269 -8.546958,1.9374999 C -8.883783,1.6479342 -9.359632,1.4999999 -9.859458,1.4999999 C -10.787199,1.4999999 -11.453208,2.1829363 -11.453208,3.0624999 L -11.453208,13.5"
       id="path6984"
       sodipodi:nodetypes="ccccccscccsccssccc" />
    <path
       style="opacity:0.2;fill:#2e3436;fill-opacity:1;stroke:none;stroke-width:0.99999994;stroke-linecap:round;stroke-linejoin:miter;stroke-miterlimit:4;stroke-dasharray:none;stroke-opacity:1"
       d="M -25.52562,8.662087 C -27.724479,8.662087 -28.928606,10.401498 -28.928606,12.162529 L -28.928606,27.759434 L -21.172451,27.759434 L -15.824902,32.855014 L -11.913678,30.373688 L -13.438392,27.958827 L -15.051496,29.110871 L -19.912904,24.214683 L -25.393037,24.170374 L -25.393037,22.796782 L -20.399045,22.796782 L -20.399045,19.252032 L -25.393037,19.252032 L -25.370939,15.662971 C -23.264828,15.636693 -21.901661,14.088552 -21.901661,12.162529 C -21.901661,10.249161 -23.3714,8.662087 -25.52562,8.662087 z M -29.591525,20.537003 C -32.794357,21.820961 -35.336826,24.883348 -35.292631,29.022252 C -35.239488,33.999221 -30.996643,38.582177 -25.923372,38.482307 C -21.465878,38.393689 -19.065966,36.174009 -17.460102,33.541809 L -20.045488,31.016175 C -21.039314,33.194176 -23.467218,34.871092 -26.055956,34.871092 C -29.568896,34.871092 -31.845451,31.360306 -31.845451,29.110871 C -31.845451,27.266361 -30.889633,25.712252 -29.591525,24.569158 L -29.591525,20.537003 z "
       id="path10354"
       sodipodi:nodetypes="cccccccccccccccszcssccsscc" />
    <path
       style="opacity:1;fill:#729fcf;fill-opacity:1;stroke:#204a87;stroke-width:1;stroke-linecap:butt;stroke-linejoin:miter;stroke-miterlimit:4;stroke-dasharray:none;stroke-opacity:1"
       d="M -13.433185,18.456671 C -15.265196,19.476188 -16.523623,21.37213 -16.523623,23.557228 C -16.523623,26.813721 -13.783139,29.456667 -10.406467,29.456668 C -8.393638,29.456668 -6.61499,28.50842 -5.499998,27.06002 L -7.029287,25.769518 C -7.762389,26.815746 -8.999521,27.490188 -10.406467,27.490188 C -12.657581,27.490188 -14.484571,25.728223 -14.484571,23.557228 C -14.484571,22.559694 -14.06854,21.6698 -13.433185,20.976223 L -13.433185,18.456671 z "
       id="path4302" />
    <path
       style="opacity:1;fill:#729fcf;fill-opacity:1;fill-rule:evenodd;stroke:#204a87;stroke-width:0.99999994;stroke-linecap:round;stroke-linejoin:miter;stroke-miterlimit:4;stroke-dasharray:none;stroke-opacity:1"
       d="M 9,36.5 C 4.8599998,36.5 1.5000001,39.86 1.5,44 C 1.5,48.14 4.8599995,51.500001 9,51.5 C 13.14,51.5 16.5,48.14 16.5,44 C 16.5,39.86 13.14,36.5 9,36.5 z M 9,39.5 C 11.484,39.5 13.5,41.516 13.5,44 C 13.5,46.484 11.484,48.5 9,48.5 C 6.5159999,48.5 4.5,46.484 4.5,44 C 4.5,41.516 6.5160001,39.5 9,39.5 z "
       id="path6921" />
    <path
       sodipodi:type="inkscape:offset"
       inkscape:radius="-0.98679048"
       inkscape:original="M 10.59375 0.96875 C 9.144104 0.96875 8 2.1188076 8 3.53125 L 8 14.46875 C 8.0021445 14.743999 8.2247508 14.966605 8.5 14.96875 L 13.5 14.96875 L 16.71875 17.875 C 16.875743 18.009095 17.09865 18.033863 17.28125 17.9375 L 19.6875 16.71875 C 19.922745 16.592485 20.018687 16.304659 19.90625 16.0625 L 19.1875 14.6875 C 19.072382 14.440377 18.781612 14.329607 18.53125 14.4375 L 17.625 14.875 L 14.53125 12.125 C 14.436365 12.041753 14.313695 11.997145 14.1875 12 L 11 12 L 11 10 L 13.5 10 C 13.775249 9.9978555 13.997855 9.7752492 14 9.5 L 14 7.5 C 13.997855 7.2247508 13.775249 7.0021445 13.5 7 L 11.03125 7 L 11.03125 6.46875 C 11.633384 6.3901217 12.195282 6.2186792 12.625 5.84375 C 13.173058 5.3655694 13.480424 4.6253149 13.46875 3.75 C 13.456909 2.8621382 13.109399 2.1264142 12.5625 1.65625 C 12.015601 1.1860858 11.29691 0.96875 10.59375 0.96875 z "
       style="fill:none;fill-opacity:1;stroke:#204a87;stroke-width:0.99999988;stroke-linecap:round;stroke-linejoin:round;stroke-miterlimit:4;stroke-opacity:1"
       id="path6980"
       d="M 10.59375,1.96875 C 9.6660088,1.96875 9,2.6516864 9,3.53125 L 9,13.96875 L 13.5,13.96875 C 13.746185,13.977312 13.980267,14.077634 14.15625,14.25 L 17.125,16.9375 L 18.78125,16.0625 L 18.5,15.53125 L 18.0625,15.75 C 17.706385,15.934438 17.274069,15.88503 16.96875,15.625 L 14,13 L 11,13 C 10.733708,13.003562 10.477279,12.899349 10.288965,12.711035 C 10.100651,12.522721 9.9964382,12.266292 10,12 L 10,10 C 9.9964382,9.7337076 10.100651,9.4772789 10.288965,9.2889649 C 10.477279,9.1006508 10.733708,8.9964382 11,9 L 13,9 L 13,8 L 11.03125,8 C 10.764958,8.0035618 10.508529,7.8993492 10.320215,7.7110351 C 10.131901,7.5227211 10.027688,7.2662924 10.03125,7 L 10.03125,6.46875 C 10.037188,5.9715006 10.412168,5.5563445 10.90625,5.5 C 11.403923,5.4350125 11.747843,5.2864916 11.96875,5.09375 C 12.274378,4.8270898 12.477245,4.3869514 12.46875,3.75 C 12.460245,3.1122884 12.223954,2.679377 11.90625,2.40625 C 11.569425,2.1166843 11.093576,1.96875 10.59375,1.96875 z "
       transform="translate(-20.453208,-0.4687501)" />
  </g>
</svg>
