<?xml version="1.0" encoding="UTF-8" standalone="no"?>
<!-- Created with Inkscape (http://www.inkscape.org/) -->
<svg
   xmlns:dc="http://purl.org/dc/elements/1.1/"
   xmlns:cc="http://web.resource.org/cc/"
   xmlns:rdf="http://www.w3.org/1999/02/22-rdf-syntax-ns#"
   xmlns:svg="http://www.w3.org/2000/svg"
   xmlns="http://www.w3.org/2000/svg"
   xmlns:xlink="http://www.w3.org/1999/xlink"
   xmlns:sodipodi="http://sodipodi.sourceforge.net/DTD/sodipodi-0.dtd"
   xmlns:inkscape="http://www.inkscape.org/namespaces/inkscape"
   width="48"
   height="48"
   id="svg2"
   sodipodi:version="0.32"
   inkscape:version="0.45"
   version="1.0"
   sodipodi:docbase="/home/dobey/Projects/gnome-icon-theme/scalable/actions"
   sodipodi:docname="format-text-underline.svg"
   inkscape:output_extension="org.inkscape.output.svg.inkscape"
   inkscape:export-filename="/home/lapo/Desktop/format-text.png"
   inkscape:export-xdpi="90"
   inkscape:export-ydpi="90">
  <defs
     id="defs4">
    <linearGradient
       inkscape:collect="always"
       id="linearGradient4348">
      <stop
         style="stop-color:#ffffff;stop-opacity:1;"
         offset="0"
         id="stop4350" />
      <stop
         style="stop-color:#ffffff;stop-opacity:0;"
         offset="1"
         id="stop4352" />
    </linearGradient>
    <linearGradient
       inkscape:collect="always"
       id="linearGradient4309">
      <stop
         style="stop-color:#ffffff;stop-opacity:1;"
         offset="0"
         id="stop4311" />
      <stop
         style="stop-color:#ffffff;stop-opacity:0;"
         offset="1"
         id="stop4313" />
    </linearGradient>
    <linearGradient
       inkscape:collect="always"
       id="linearGradient4301">
      <stop
         style="stop-color:#ffffff;stop-opacity:1;"
         offset="0"
         id="stop4303" />
      <stop
         style="stop-color:#ffffff;stop-opacity:0;"
         offset="1"
         id="stop4305" />
    </linearGradient>
    <linearGradient
       inkscape:collect="always"
       id="linearGradient4293">
      <stop
         style="stop-color:#ffffff;stop-opacity:1;"
         offset="0"
         id="stop4295" />
      <stop
         style="stop-color:#ffffff;stop-opacity:0;"
         offset="1"
         id="stop4297" />
    </linearGradient>
    <linearGradient
       inkscape:collect="always"
       id="linearGradient4285">
      <stop
         style="stop-color:#ffffff;stop-opacity:1;"
         offset="0"
         id="stop4287" />
      <stop
         style="stop-color:#ffffff;stop-opacity:0;"
         offset="1"
         id="stop4289" />
    </linearGradient>
    <linearGradient
       inkscape:collect="always"
       id="linearGradient4207">
      <stop
         style="stop-color:#555753;stop-opacity:1;"
         offset="0"
         id="stop4209" />
      <stop
         style="stop-color:#888a85;stop-opacity:1"
         offset="1"
         id="stop4211" />
    </linearGradient>
    <linearGradient
       inkscape:collect="always"
       id="linearGradient4176">
      <stop
         style="stop-color:#000000;stop-opacity:1;"
         offset="0"
         id="stop4178" />
      <stop
         style="stop-color:#000000;stop-opacity:0;"
         offset="1"
         id="stop4180" />
    </linearGradient>
    <linearGradient
       id="linearGradient2512">
      <stop
         style="stop-color:#babdb6;stop-opacity:1"
         offset="0"
         id="stop2514" />
      <stop
         style="stop-color:#555753;stop-opacity:1"
         offset="1"
         id="stop2516" />
    </linearGradient>
    <radialGradient
       inkscape:collect="always"
       xlink:href="#linearGradient4176"
       id="radialGradient5706"
       gradientUnits="userSpaceOnUse"
       gradientTransform="matrix(1,0,0,0.2326044,0,29.746876)"
       cx="24.174213"
       cy="38.763416"
       fx="24.174213"
       fy="38.763416"
       r="22.22967" />
    <linearGradient
       inkscape:collect="always"
       xlink:href="#linearGradient4207"
       id="linearGradient5708"
       gradientUnits="userSpaceOnUse"
       gradientTransform="translate(1,0)"
       x1="28.75"
       y1="17.25"
       x2="34.5"
       y2="57" />
    <linearGradient
       inkscape:collect="always"
       xlink:href="#linearGradient4301"
       id="linearGradient5710"
       gradientUnits="userSpaceOnUse"
       gradientTransform="translate(1,0)"
       x1="22.75"
       y1="36.125"
       x2="18.625"
       y2="19" />
    <radialGradient
       inkscape:collect="always"
       xlink:href="#linearGradient4285"
       id="radialGradient5712"
       gradientUnits="userSpaceOnUse"
       gradientTransform="matrix(3.3627251,0,0,2.1931621,-50.750694,-14.716108)"
       cx="21.40613"
       cy="8.5665998"
       fx="21.40613"
       fy="8.5665998"
       r="11" />
    <radialGradient
       inkscape:collect="always"
       xlink:href="#linearGradient4293"
       id="radialGradient5714"
       gradientUnits="userSpaceOnUse"
       gradientTransform="matrix(1.6866958,0,0,1.2901137,-8.2703838,-6.0386027)"
       cx="13.499985"
       cy="22.762897"
       fx="13.499985"
       fy="22.762897"
       r="10.000016" />
    <linearGradient
       inkscape:collect="always"
       xlink:href="#linearGradient4309"
       id="linearGradient5716"
       gradientUnits="userSpaceOnUse"
       gradientTransform="translate(1,0)"
       x1="35.875"
       y1="36.5625"
       x2="32.4375"
       y2="36.25" />
    <linearGradient
       inkscape:collect="always"
       xlink:href="#linearGradient2512"
       id="linearGradient5718"
       gradientUnits="userSpaceOnUse"
       gradientTransform="translate(60,50)"
       x1="23.625"
       y1="49.3125"
       x2="22.457119"
       y2="37.938366" />
    <linearGradient
       inkscape:collect="always"
       xlink:href="#linearGradient4348"
       id="linearGradient5720"
       gradientUnits="userSpaceOnUse"
       gradientTransform="translate(60,47)"
       x1="20.155684"
       y1="43.910683"
       x2="20.155684"
       y2="46" />
  </defs>
  <sodipodi:namedview
     id="base"
     pagecolor="#8c86cb"
     bordercolor="#afafaf"
     borderopacity="1"
     inkscape:pageopacity="0"
     inkscape:pageshadow="2"
     inkscape:zoom="1"
     inkscape:cx="26.419277"
     inkscape:cy="73.010869"
     inkscape:document-units="px"
     inkscape:current-layer="layer1"
     width="48px"
     height="48px"
     gridspacingx="0.5px"
     gridspacingy="0.5px"
     inkscape:showpageshadow="false"
     borderlayer="true"
     gridempspacing="2"
     inkscape:window-width="1023"
     inkscape:window-height="797"
     inkscape:window-x="77"
     inkscape:window-y="53"
     showgrid="false"
     showborder="true"
     showguides="false"
     inkscape:guide-bbox="false"
     inkscape:grid-points="true"
     inkscape:grid-bbox="false">
    <sodipodi:guide
       orientation="vertical"
       position="10"
       id="guide3217" />
    <sodipodi:guide
       orientation="horizontal"
       position="39.125"
       id="guide3219" />
    <sodipodi:guide
       orientation="vertical"
       position="23.997436"
       id="guide3221" />
    <sodipodi:guide
       orientation="horizontal"
       position="4.125"
       id="guide3544" />
    <sodipodi:guide
       orientation="horizontal"
       position="5"
       id="guide4317" />
    <sodipodi:guide
       orientation="vertical"
       position="3"
       id="guide4887" />
    <sodipodi:guide
       orientation="vertical"
       position="44.989669"
       id="guide4889" />
    <sodipodi:guide
       orientation="horizontal"
       position="28"
       id="guide3281" />
    <sodipodi:guide
       orientation="horizontal"
       position="24.96875"
       id="guide3361" />
    <sodipodi:guide
       orientation="horizontal"
       position="20.948038"
       id="guide3363" />
    <sodipodi:guide
       orientation="horizontal"
       position="9"
       id="guide4351" />
  </sodipodi:namedview>
  <metadata
     id="metadata7">
    <rdf:RDF>
      <cc:Work
         rdf:about="">
        <dc:format>image/svg+xml</dc:format>
        <dc:type
           rdf:resource="http://purl.org/dc/dcmitype/StillImage" />
        <dc:creator>
          <cc:Agent>
            <dc:title>Lapo Calamandrei</dc:title>
          </cc:Agent>
        </dc:creator>
        <cc:license
           rdf:resource="http://creativecommons.org/licenses/GPL/2.0/" />
      </cc:Work>
      <cc:License
         rdf:about="http://creativecommons.org/licenses/GPL/2.0/">
        <cc:permits
           rdf:resource="http://web.resource.org/cc/Reproduction" />
        <cc:permits
           rdf:resource="http://web.resource.org/cc/Distribution" />
        <cc:requires
           rdf:resource="http://web.resource.org/cc/Notice" />
        <cc:permits
           rdf:resource="http://web.resource.org/cc/DerivativeWorks" />
        <cc:requires
           rdf:resource="http://web.resource.org/cc/ShareAlike" />
        <cc:requires
           rdf:resource="http://web.resource.org/cc/SourceCode" />
      </cc:License>
    </rdf:RDF>
  </metadata>
  <g
     inkscape:label="Livello 1"
     inkscape:groupmode="layer"
     id="layer1"
     style="display:inline">
    <g
       id="g5639"
       inkscape:export-filename="/home/lapo/Desktop/format-text.png"
       inkscape:export-xdpi="90"
       inkscape:export-ydpi="90"
       transform="translate(-60,0)">
      <path
         transform="matrix(0.9439427,0,0,0.9669836,61.19739,5.016412)"
         d="M 46.403883 38.763416 A 22.22967 5.1707182 0 1 1  1.9445438,38.763416 A 22.22967 5.1707182 0 1 1  46.403883 38.763416 z"
         sodipodi:ry="5.1707182"
         sodipodi:rx="22.22967"
         sodipodi:cy="38.763416"
         sodipodi:cx="24.174213"
         id="path4319"
         style="opacity:0.5;color:#000000;fill:url(#radialGradient5706);fill-opacity:1;fill-rule:nonzero;stroke:none;stroke-width:1;stroke-linecap:round;stroke-linejoin:round;marker:none;marker-start:none;marker-mid:none;marker-end:none;stroke-miterlimit:4;stroke-dasharray:none;stroke-dashoffset:0;stroke-opacity:0.96078431;visibility:visible;display:inline;overflow:visible;enable-background:accumulate"
         sodipodi:type="arc" />
      <g
         transform="translate(60,-3)"
         id="g4323">
        <path
           style="font-size:57.68214035px;font-style:normal;font-weight:bold;fill:#555753;fill-opacity:1;stroke:#2e3436;stroke-width:2;stroke-linecap:butt;stroke-linejoin:round;stroke-miterlimit:4;stroke-dasharray:none;stroke-opacity:1;display:inline;font-family:Bitstream Vera Serif"
           d="M 29,29.273427 L 29,23 L 22.82688,23.040567 C 18.12479,22.945541 15.762603,25.257574 15.524182,29.755565 C 15.511215,34.006726 18.196753,36.587167 22.314882,36.850131 C 26.854217,36.803026 28.827163,33.394704 29,29.273427 M 34,19.573578 L 34,36 L 38,36 L 38,39 L 29,38.985299 L 29,35.720357 C 26.940182,38.763206 23.923026,39.86992 20.374683,40 C 14.027853,40.007401 10.376826,35.827599 10,29.755565 C 10.04646,22.489294 15.834662,20.199049 22.260988,19.890697 L 29,19.85013 L 29,17.5 C 29.029267,12.769881 25.97336,10.257857 21.5,10 C 17.640478,9.948142 15.746665,12.362586 15,16 L 12,16 L 12,9.6708235 C 13.724616,8.8662144 15.605015,8.0107027 17.221857,7.6181644 C 18.856644,7.206064 20.446529,6.9999979 21.991516,6.9999658 C 29.981122,6.9161882 33.601803,12.111819 34,19.573578"
           id="path4205"
           sodipodi:nodetypes="cccccccccccccccccccccccc" />
        <path
           style="font-size:57.68214035px;font-style:normal;font-weight:bold;fill:url(#linearGradient5708);fill-opacity:1;stroke:none;stroke-width:1px;stroke-linecap:butt;stroke-linejoin:miter;stroke-opacity:1;font-family:Bitstream Vera Serif"
           d="M 29,29.273427 L 29,23 L 22.82688,23.040567 C 18.12479,22.945541 15.762603,25.257574 15.524182,29.755565 C 15.511215,34.006726 18.196753,36.587167 22.314882,36.850131 C 26.854217,36.803026 28.827163,33.394704 29,29.273427 M 34,19.573578 L 34,36 L 38,36 L 38,39 L 29,38.985299 L 29,35.720357 C 26.940182,38.763206 23.923026,39.86992 20.374683,40 C 14.027853,40.007401 10.376826,35.827599 10,29.755565 C 10.04646,22.489294 15.834662,20.199049 22.260988,19.890697 L 29,19.85013 L 29,17.351024 C 29.029267,12.620905 25.97336,10.257857 21.5,10 C 17.640478,9.9481424 15.746665,12.362586 15,16 L 12,16 L 12,9.6708235 C 13.724616,8.8662144 15.605015,8.0107027 17.221857,7.6181644 C 18.856644,7.206064 20.446529,6.9999979 21.991516,6.9999658 C 29.981122,6.9161882 33.601803,12.111819 34,19.573578"
           id="text4190"
           sodipodi:nodetypes="cccccccccccccccccccccccc" />
        <path
           style="font-size:57.68214035px;font-style:normal;font-weight:bold;opacity:0.12999998;fill:none;fill-opacity:1;stroke:#ffffff;stroke-width:1px;stroke-linecap:butt;stroke-linejoin:miter;stroke-opacity:1;display:inline;font-family:Bitstream Vera Serif"
           d="M 22,7.5 C 20.501295,7.5000311 18.94278,7.7219131 17.34375,8.125 C 15.881923,8.4799036 14.139608,9.2405067 12.5,10 L 12.5,15.5 L 14.625,15.5 C 15.025092,13.806723 15.662735,12.30861 16.71875,11.25 C 17.863987,10.101948 19.464074,9.4726447 21.5,9.5 C 21.510414,9.499677 21.520836,9.499677 21.53125,9.5 C 23.849372,9.633623 25.85236,10.312034 27.28125,11.625 C 28.71014,12.937966 29.515308,14.869653 29.5,17.34375 L 29.5,19.84375 C 29.497826,20.118987 29.275237,20.341576 29,20.34375 L 22.25,20.40625 C 19.088726,20.557936 16.133564,21.191412 14,22.625 C 11.873378,24.053924 10.530934,26.238753 10.5,29.71875 C 10.499899,29.730109 10.500073,29.738613 10.5,29.75 C 10.687706,32.678265 11.664355,35.116293 13.3125,36.8125 C 14.966708,38.514947 17.312472,39.503571 20.375,39.5 C 23.829067,39.373376 26.630134,38.338236 28.59375,35.4375 C 28.721689,35.267468 28.942631,35.196107 29.145859,35.259178 C 29.349086,35.322248 29.490806,35.50616 29.5,35.71875 L 29.5,38.5 L 37.5,38.53125 L 37.5,36.5 L 34,36.5 C 33.724763,36.497826 33.502174,36.275237 33.5,36 L 33.5,19.59375 L 33.5,19.5625 C 33.300858,15.920703 32.314542,12.879437 30.46875,10.78125 C 28.617525,8.6768875 25.88502,7.4592624 22,7.5 z "
           id="path4274"
           sodipodi:nodetypes="cccccssssccccssssccsccccccccsc" />
        <path
           style="font-size:57.68214035px;font-style:normal;font-weight:bold;opacity:0.55;fill:none;fill-opacity:1;stroke:url(#linearGradient5710);stroke-width:1px;stroke-linecap:butt;stroke-linejoin:miter;stroke-opacity:1;display:inline;font-family:Bitstream Vera Serif"
           d="M 29,22.5 C 29.275237,22.502174 29.497826,22.724763 29.5,23 L 29.5,29.28125 C 29.500323,29.291664 29.500323,29.302086 29.5,29.3125 C 29.410456,31.447654 28.859147,33.424368 27.6875,34.90625 C 26.515853,36.388132 24.706991,37.318902 22.3125,37.34375 C 22.302086,37.344073 22.291664,37.344073 22.28125,37.34375 C 20.124529,37.206032 18.281854,36.467385 17,35.15625 C 15.718146,33.845115 15.024443,31.981633 15.03125,29.75 C 15.030927,29.739586 15.030927,29.729164 15.03125,29.71875 C 15.154833,27.387269 15.83467,25.553393 17.15625,24.3125 C 18.47783,23.071607 20.377085,22.482032 22.8125,22.53125 L 29,22.5 z "
           id="path4277"
           sodipodi:nodetypes="cccsssssssscc" />
        <path
           style="font-size:57.68214035px;font-style:normal;font-weight:bold;opacity:0.55;fill:none;fill-opacity:1;stroke:url(#radialGradient5712);stroke-width:1px;stroke-linecap:round;stroke-linejoin:miter;stroke-opacity:1;display:inline;font-family:Bitstream Vera Serif"
           d="M 33.5,36 L 33.5,19.59375 L 33.5,19.5625 C 33.300858,15.920703 32.314542,12.879437 30.46875,10.78125 C 28.617525,8.6768875 25.88502,7.4592624 22,7.5 C 20.501295,7.5000311 18.94278,7.7219131 17.34375,8.125 C 15.881923,8.4799036 14.139608,9.2405067 12.5,10 L 12.5,15.5"
           id="path4279"
           sodipodi:nodetypes="cccscccc" />
        <path
           style="font-size:57.68214035px;font-style:normal;font-weight:bold;opacity:0.55;fill:none;fill-opacity:1;stroke:url(#radialGradient5714);stroke-width:1px;stroke-linecap:round;stroke-linejoin:miter;stroke-opacity:1;display:inline;font-family:Bitstream Vera Serif"
           d="M 29.5,19.84375 C 29.497826,20.118987 29.275237,20.341576 29,20.34375 L 22.25,20.40625 C 19.088726,20.557936 16.133564,21.191412 14,22.625 C 11.873378,24.053924 10.530934,26.238753 10.5,29.71875 C 10.499899,29.730109 10.500073,29.738613 10.5,29.75 C 10.687706,32.678265 11.664355,35.116293 13.3125,36.8125"
           id="path4281"
           sodipodi:nodetypes="cccssss" />
        <path
           style="font-size:57.68214035px;font-style:normal;font-weight:bold;opacity:0.45;fill:none;fill-opacity:1;stroke:url(#linearGradient5716);stroke-width:1px;stroke-linecap:round;stroke-linejoin:miter;stroke-opacity:1;display:inline;font-family:Bitstream Vera Serif"
           d="M 37.5,36.5 L 34,36.5 C 33.724763,36.497826 33.502174,36.275237 33.5,36"
           id="path4283"
           sodipodi:nodetypes="ccc" />
      </g>
      <g
         transform="translate(0,-50)"
         id="g4387">
        <rect
           style="opacity:1;color:#000000;fill:url(#linearGradient5718);fill-opacity:1;fill-rule:nonzero;stroke:#2e3436;stroke-width:1;stroke-linecap:round;stroke-linejoin:round;marker:none;marker-start:none;marker-mid:none;marker-end:none;stroke-miterlimit:4;stroke-dasharray:none;stroke-dashoffset:0;stroke-opacity:1;visibility:visible;display:inline;overflow:visible;enable-background:accumulate"
           id="rect4342"
           width="34"
           height="4"
           x="67.5"
           y="89.5"
           rx="0.95964491"
           ry="0.95964491" />
        <path
           style="opacity:0.4;color:#000000;fill:none;fill-opacity:1;fill-rule:nonzero;stroke:url(#linearGradient5720);stroke-width:1;stroke-linecap:round;stroke-linejoin:round;marker:none;marker-start:none;marker-mid:none;marker-end:none;stroke-miterlimit:4;stroke-dashoffset:0;stroke-opacity:1;visibility:visible;display:inline;overflow:visible;enable-background:accumulate"
           d="M 68.5,90.5 L 68.5,92.5 L 100.5,92.5 L 100.5,90.5 L 68.5,90.5 z "
           id="path4346"
           sodipodi:nodetypes="ccccc" />
      </g>
    </g>
  </g>
</svg>
