<?xml version="1.0" encoding="UTF-8" standalone="no"?>
<!-- Created with Inkscape (http://www.inkscape.org/) -->
<svg
   xmlns:dc="http://purl.org/dc/elements/1.1/"
   xmlns:cc="http://web.resource.org/cc/"
   xmlns:rdf="http://www.w3.org/1999/02/22-rdf-syntax-ns#"
   xmlns:svg="http://www.w3.org/2000/svg"
   xmlns="http://www.w3.org/2000/svg"
   xmlns:xlink="http://www.w3.org/1999/xlink"
   xmlns:sodipodi="http://sodipodi.sourceforge.net/DTD/sodipodi-0.dtd"
   xmlns:inkscape="http://www.inkscape.org/namespaces/inkscape"
   width="48"
   height="48"
   id="svg2"
   sodipodi:version="0.32"
   inkscape:version="0.45"
   version="1.0"
   sodipodi:docname="mail-reply-all.svg"
   sodipodi:docbase="/home/lapo/Icone/svn/gnome-icon-theme/scalable/actions"
   inkscape:output_extension="org.inkscape.output.svg.inkscape"
   sodipodi:modified="true">
  <defs
     id="defs4">
    <radialGradient
       inkscape:collect="always"
       xlink:href="#linearGradient4562"
       id="radialGradient5864"
       gradientUnits="userSpaceOnUse"
       gradientTransform="matrix(0.558489,0,-1.377346e-8,0.563387,14.87134,4.364123)"
       cx="29.922075"
       cy="17.727694"
       fx="29.922075"
       fy="17.727694"
       r="17.986025" />
    <radialGradient
       inkscape:collect="always"
       xlink:href="#linearGradient3816"
       id="radialGradient5862"
       gradientUnits="userSpaceOnUse"
       cx="31.112698"
       cy="19.008621"
       fx="31.112698"
       fy="19.008621"
       r="8.6620579" />
    <linearGradient
       inkscape:collect="always"
       xlink:href="#linearGradient4356"
       id="linearGradient5860"
       gradientUnits="userSpaceOnUse"
       gradientTransform="matrix(1.3161,0.243028,-0.243028,1.3161,-9.262129,-16.07396)"
       x1="14.562769"
       y1="24.457714"
       x2="19.142244"
       y2="29.001118" />
    <linearGradient
       inkscape:collect="always"
       xlink:href="#linearGradient4356"
       id="linearGradient5858"
       gradientUnits="userSpaceOnUse"
       gradientTransform="matrix(-1.308485,0.281154,0.281154,1.308485,56.98075,-16.938395)"
       x1="30.070353"
       y1="23.335436"
       x2="29.042383"
       y2="28.535603" />
    <radialGradient
       inkscape:collect="always"
       xlink:href="#linearGradient4562"
       id="radialGradient5856"
       gradientUnits="userSpaceOnUse"
       gradientTransform="matrix(1.3836548,0,-3.4123709e-8,1.366395,-9.2409011,-9.6420655)"
       cx="11.783379"
       cy="18.582106"
       fx="11.783379"
       fy="18.582106"
       r="17.986025" />
    <linearGradient
       id="linearGradient3816"
       inkscape:collect="always">
      <stop
         id="stop3818"
         offset="0"
         style="stop-color:#000000;stop-opacity:1;" />
      <stop
         id="stop3820"
         offset="1"
         style="stop-color:#000000;stop-opacity:0;" />
    </linearGradient>
    <linearGradient
       id="linearGradient4356"
       inkscape:collect="always">
      <stop
         id="stop4358"
         offset="0"
         style="stop-color:#000000;stop-opacity:1;" />
      <stop
         id="stop4360"
         offset="1"
         style="stop-color:#000000;stop-opacity:0;" />
    </linearGradient>
    <linearGradient
       id="linearGradient4562">
      <stop
         id="stop4564"
         offset="0"
         style="stop-color:#ffffff;stop-opacity:1;" />
      <stop
         id="stop4566"
         offset="1"
         style="stop-color:#d6d6d2;stop-opacity:1;" />
    </linearGradient>
    <filter
       id="filter5655"
       height="1.5668966"
       y="-0.28344828"
       width="1.1522222"
       x="-0.076111108"
       inkscape:collect="always">
      <feGaussianBlur
         id="feGaussianBlur5657"
         stdDeviation="1.4531044"
         inkscape:collect="always" />
    </filter>
    <linearGradient
       inkscape:collect="always"
       id="linearGradient7063">
      <stop
         style="stop-color:#000000;stop-opacity:1;"
         offset="0"
         id="stop7065" />
      <stop
         style="stop-color:#000000;stop-opacity:0;"
         offset="1"
         id="stop7067" />
    </linearGradient>
    <linearGradient
       inkscape:collect="always"
       id="linearGradient6984">
      <stop
         style="stop-color:#babdb6;stop-opacity:1;"
         offset="0"
         id="stop6986" />
      <stop
         style="stop-color:#babdb6;stop-opacity:0;"
         offset="1"
         id="stop6988" />
    </linearGradient>
    <linearGradient
       inkscape:collect="always"
       id="linearGradient6945">
      <stop
         style="stop-color:#ffffff;stop-opacity:1"
         offset="0"
         id="stop6947" />
      <stop
         style="stop-color:#d3d7cf;stop-opacity:1"
         offset="1"
         id="stop6949" />
    </linearGradient>
    <radialGradient
       inkscape:collect="always"
       xlink:href="#linearGradient6945"
       id="radialGradient7047"
       gradientUnits="userSpaceOnUse"
       gradientTransform="matrix(2.6083242,0,0,2.218814,-74.941381,-118.61799)"
       cx="13.107393"
       cy="61.48016"
       fx="13.107393"
       fy="61.48016"
       r="18.5" />
    <linearGradient
       inkscape:collect="always"
       xlink:href="#linearGradient7063"
       id="linearGradient7069"
       x1="12.875"
       y1="35.314098"
       x2="12.875"
       y2="15.75"
       gradientUnits="userSpaceOnUse"
       gradientTransform="translate(-2.6757604e-8,-1.9445437)" />
    <radialGradient
       inkscape:collect="always"
       xlink:href="#linearGradient6945"
       id="radialGradient7077"
       cx="12.5"
       cy="15.927882"
       fx="12.5"
       fy="15.927882"
       r="18.5"
       gradientTransform="matrix(2.0135589,0,0,1.7460565,-12.669486,-11.130529)"
       gradientUnits="userSpaceOnUse" />
    <linearGradient
       inkscape:collect="always"
       xlink:href="#linearGradient6984"
       id="linearGradient7081"
       gradientUnits="userSpaceOnUse"
       gradientTransform="translate(1,-43.944544)"
       x1="14.125"
       y1="79.81311"
       x2="14.125"
       y2="75.499176" />
    <filter
       inkscape:collect="always"
       x="-0.10033944"
       width="1.2006789"
       y="-0.38725492"
       height="1.7745098"
       id="filter5672">
      <feGaussianBlur
         inkscape:collect="always"
         stdDeviation="77.342928"
         id="feGaussianBlur5674" />
    </filter>
    <radialGradient
       inkscape:collect="always"
       xlink:href="#linearGradient4562"
       id="radialGradient6683"
       gradientUnits="userSpaceOnUse"
       gradientTransform="matrix(1.3836548,0,-3.4123709e-8,1.366395,-9.2409011,-9.6420655)"
       cx="12.035909"
       cy="18.330086"
       fx="12.035909"
       fy="18.330086"
       r="17.986025" />
    <linearGradient
       inkscape:collect="always"
       xlink:href="#linearGradient4356"
       id="linearGradient6685"
       gradientUnits="userSpaceOnUse"
       gradientTransform="matrix(-1.308485,0.281154,0.281154,1.308485,56.98075,-16.938395)"
       x1="30.070353"
       y1="23.335436"
       x2="29.042383"
       y2="28.535603" />
    <linearGradient
       inkscape:collect="always"
       xlink:href="#linearGradient4356"
       id="linearGradient6687"
       gradientUnits="userSpaceOnUse"
       gradientTransform="matrix(1.3161,0.243028,-0.243028,1.3161,-9.262129,-16.07396)"
       x1="14.562769"
       y1="24.457714"
       x2="19.142244"
       y2="29.001118" />
    <radialGradient
       inkscape:collect="always"
       xlink:href="#linearGradient3816"
       id="radialGradient6689"
       gradientUnits="userSpaceOnUse"
       cx="31.112698"
       cy="19.008621"
       fx="31.112698"
       fy="19.008621"
       r="8.6620579" />
    <radialGradient
       inkscape:collect="always"
       xlink:href="#linearGradient4562"
       id="radialGradient6691"
       gradientUnits="userSpaceOnUse"
       gradientTransform="matrix(0.558489,0,-1.377346e-8,0.563387,14.87134,4.364123)"
       cx="29.922075"
       cy="17.727694"
       fx="29.922075"
       fy="17.727694"
       r="17.986025" />
  </defs>
  <sodipodi:namedview
     id="base"
     pagecolor="#ffffff"
     bordercolor="#666666"
     borderopacity="0.37647059"
     inkscape:pageopacity="0.0"
     inkscape:pageshadow="2"
     inkscape:zoom="1"
     inkscape:cx="24.754702"
     inkscape:cy="17.461276"
     inkscape:document-units="px"
     inkscape:current-layer="layer2"
     width="48px"
     height="48px"
     inkscape:showpageshadow="false"
     gridempspacing="2"
     gridspacingx="0.5px"
     gridspacingy="0.5px"
     inkscape:window-width="1680"
     inkscape:window-height="973"
     inkscape:window-x="5"
     inkscape:window-y="24"
     showgrid="false"
     inkscape:grid-points="true">
    <inkscape:grid
       type="xygrid"
       id="grid5021" />
  </sodipodi:namedview>
  <metadata
     id="metadata7">
    <rdf:RDF>
      <cc:Work
         rdf:about="">
        <dc:format>image/svg+xml</dc:format>
        <dc:type
           rdf:resource="http://purl.org/dc/dcmitype/StillImage" />
        <dc:creator>
          <cc:Agent>
            <dc:title>Lapo Calamandrei</dc:title>
          </cc:Agent>
        </dc:creator>
        <cc:license
           rdf:resource="http://creativecommons.org/licenses/GPL/2.0/" />
      </cc:Work>
      <cc:License
         rdf:about="http://creativecommons.org/licenses/GPL/2.0/">
        <cc:permits
           rdf:resource="http://web.resource.org/cc/Reproduction" />
        <cc:permits
           rdf:resource="http://web.resource.org/cc/Distribution" />
        <cc:requires
           rdf:resource="http://web.resource.org/cc/Notice" />
        <cc:permits
           rdf:resource="http://web.resource.org/cc/DerivativeWorks" />
        <cc:requires
           rdf:resource="http://web.resource.org/cc/ShareAlike" />
        <cc:requires
           rdf:resource="http://web.resource.org/cc/SourceCode" />
      </cc:License>
    </rdf:RDF>
  </metadata>
  <g
     inkscape:label="Livello 1"
     inkscape:groupmode="layer"
     id="layer1">
    <g
       style="opacity:0.7;display:inline"
       id="g6055"
       transform="matrix(2.2162751e-2,0,0,1.0695181e-2,44.21234,34.109128)">
      <rect
         style="opacity:0.17934786;fill:#000000;fill-opacity:1;stroke:none;stroke-width:2;stroke-linecap:butt;stroke-linejoin:miter;stroke-miterlimit:4;stroke-dasharray:none;stroke-dashoffset:0;stroke-opacity:1;filter:url(#filter5672)"
         id="rect5019"
         width="1849.9508"
         height="479.33032"
         x="-1814.411"
         y="-197.04396"
         rx="113.12692"
         ry="198.34357"
         transform="matrix(0.9496952,0,0,1,-43.332912,0)" />
    </g>
    <rect
       style="opacity:1;fill:url(#radialGradient7077);fill-opacity:1;fill-rule:evenodd;stroke:#888a85;stroke-width:1;stroke-linecap:butt;stroke-linejoin:miter;stroke-miterlimit:4;stroke-dasharray:none;stroke-dashoffset:0.69999992;stroke-opacity:0.99236642"
       id="rect6058"
       width="36"
       height="25"
       x="6.5"
       y="10.555455"
       rx="1.5340841"
       ry="1.5340841" />
    <path
       style="opacity:0.23134329;fill:url(#linearGradient7069);fill-opacity:1;fill-rule:evenodd;stroke:none;stroke-width:0.89999998;stroke-linecap:butt;stroke-linejoin:round;stroke-miterlimit:4;stroke-opacity:1"
       d="M 7.90625,10.992956 C 7.356972,10.992956 6.9375,11.412426 6.9375,11.961706 L 6.9375,13.367956 L 16.03125,24.961706 L 17.15625,23.711706 C 17.625623,23.242332 18.0906,22.626722 19.125,22.211706 C 20.1594,21.79669 21.70864,21.555456 24.5,21.555456 C 27.280132,21.555455 28.838454,21.797087 29.875,22.211706 C 30.911546,22.626325 31.373047,23.241003 31.84375,23.711706 L 32.96875,24.961706 L 42.0625,13.367956 L 42.0625,11.961706 C 42.0625,11.412428 41.64303,10.992956 41.09375,10.992956 L 7.90625,10.992956 z"
       id="path7055"
       sodipodi:nodetypes="cccccssscccccc" />
    <path
       style="fill:#888a85;fill-opacity:1;fill-rule:evenodd;stroke:none;stroke-width:0.89999998;stroke-linecap:butt;stroke-linejoin:round;stroke-miterlimit:4;stroke-dasharray:none;stroke-opacity:1"
       d="M 7,35.055456 L 17.15625,23.711706 C 17.625623,23.242332 18.0906,22.626722 19.125,22.211706 C 20.1594,21.79669 21.70864,21.555456 24.5,21.555456 C 27.280132,21.555455 28.838454,21.797087 29.875,22.211706 C 30.911546,22.626325 31.373047,23.241003 31.84375,23.711706 L 42,35.055456 L 31.84375,24.711706 C 29.799743,22.742112 27.325503,22.439549 24.5,22.555456 C 21.82915,22.604996 19.035697,22.555126 17.15625,24.711706 L 7,35.055456 z"
       id="path7039"
       sodipodi:nodetypes="ccssscccccc" />
    <path
       style="fill:#ffffff;fill-opacity:1;fill-rule:evenodd;stroke:none;stroke-width:0.89999998;stroke-linecap:butt;stroke-linejoin:round;stroke-miterlimit:4;stroke-dasharray:none;stroke-opacity:1"
       d="M 7,35.076955 L 17.15625,25.733205 C 19.035697,23.576625 21.82915,23.626495 24.5,23.576955 C 27.325503,23.461048 29.799743,23.763611 31.84375,25.733205 L 42,35.076955 L 31.84375,24.733205 C 29.799743,22.763611 27.325503,22.461048 24.5,22.576955 C 21.82915,22.626495 19.035697,22.576625 17.15625,24.733205 L 7,35.076955 z"
       id="path7049"
       sodipodi:nodetypes="ccccccccc" />
    <path
       sodipodi:type="inkscape:offset"
       inkscape:radius="-0.44194174"
       inkscape:original="M -42.09375 12.5 C -42.877224 12.5 -43.5 13.122774 -43.5 13.90625 L -43.5 15.5 L -32.5 26.5 C -31.5 27.500002 -31.022703 28.5 -25.5 28.5 C -20 28.500002 -19.5 27.5 -18.5 26.5 L -7.5 15.5 L -7.5 13.90625 C -7.5 13.122776 -8.122774 12.5 -8.90625 12.5 L -42.09375 12.5 z "
       style="fill:url(#radialGradient7047);fill-opacity:1;fill-rule:evenodd;stroke:none;stroke-width:0.89999998;stroke-linecap:butt;stroke-linejoin:round;stroke-miterlimit:4;stroke-dasharray:none;stroke-opacity:1"
       id="path7045"
       d="M -42.09375,12.9375 C -42.643028,12.9375 -43.0625,13.35697 -43.0625,13.90625 L -43.0625,15.3125 L -32.1875,26.1875 C -31.660276,26.714725 -31.377256,27.12932 -30.53125,27.46875 C -29.685244,27.80818 -28.234677,28.0625 -25.5,28.0625 C -22.776784,28.062501 -21.318209,27.808534 -20.46875,27.46875 C -19.619291,27.128966 -19.338542,26.713542 -18.8125,26.1875 L -7.9375,15.3125 L -7.9375,13.90625 C -7.9375,13.356972 -8.3569702,12.9375 -8.90625,12.9375 L -42.09375,12.9375 z"
       transform="translate(50,-1.9445437)" />
    <path
       style="fill:#888a85;fill-opacity:1;fill-rule:evenodd;stroke:none;stroke-width:0.89999998;stroke-linecap:butt;stroke-linejoin:round;stroke-miterlimit:4;stroke-dasharray:none;stroke-opacity:1"
       d="M 7,13.555456 L 17.15625,24.899206 C 17.625623,25.36858 18.0906,25.98419 19.125,26.399206 C 20.1594,26.814222 21.70864,27.055456 24.5,27.055456 C 27.280132,27.055457 28.838454,26.813825 29.875,26.399206 C 30.911546,25.984587 31.373047,25.369909 31.84375,24.899206 L 42,13.555456 L 31.84375,23.899206 C 29.799743,25.8688 27.325503,26.171363 24.5,26.055456 C 21.82915,26.005916 19.035697,26.055786 17.15625,23.899206 L 7,13.555456 z"
       id="path7031"
       sodipodi:nodetypes="ccssscccccc" />
    <path
       style="fill:#ffffff;fill-opacity:1;fill-rule:evenodd;stroke:none;stroke-width:0.89999998;stroke-linecap:butt;stroke-linejoin:round;stroke-miterlimit:4;stroke-dasharray:none;stroke-opacity:1"
       d="M 7,13.555456 L 17.15625,22.899206 C 19.035697,25.055786 21.82915,25.005916 24.5,25.055456 C 27.325503,25.171363 29.799743,24.8688 31.84375,22.899206 L 42,13.555456 L 31.84375,23.899206 C 29.799743,25.8688 27.325503,26.171363 24.5,26.055456 C 21.82915,26.005916 19.035697,26.055786 17.15625,23.899206 L 7,13.555456 z"
       id="path7037"
       sodipodi:nodetypes="ccccccccc" />
    <path
       sodipodi:type="inkscape:offset"
       inkscape:radius="-0.99436891"
       inkscape:original="M 6.90625 54.5 C 6.1227756 54.5 5.5 55.122774 5.5 55.90625 L 5.5 78.09375 C 5.5 78.877224 6.1227756 79.499998 6.90625 79.5 L 40.09375 79.5 C 40.877224 79.5 41.5 78.877224 41.5 78.09375 L 41.5 55.90625 C 41.5 55.122776 40.877226 54.5 40.09375 54.5 L 6.90625 54.5 z "
       style="opacity:0.7;fill:none;fill-opacity:1;fill-rule:evenodd;stroke:#ffffff;stroke-width:0.99999988;stroke-linecap:butt;stroke-linejoin:round;stroke-miterlimit:4;stroke-dasharray:none;stroke-dashoffset:0.69999992;stroke-opacity:0.99236642"
       id="path7053"
       d="M 6.90625,55.5 C 6.6497165,55.5 6.5,55.649715 6.5,55.90625 L 6.5,78.09375 C 6.5,78.350281 6.6497152,78.499999 6.90625,78.5 L 40.09375,78.5 C 40.350281,78.5 40.5,78.350281 40.5,78.09375 L 40.5,55.90625 C 40.5,55.649717 40.350284,55.5 40.09375,55.5 L 6.90625,55.5 z"
       transform="translate(1,-43.944544)" />
    <path
       style="opacity:0.55597014;fill:url(#linearGradient7081);fill-opacity:1;fill-rule:evenodd;stroke:none;stroke-width:0.99999988;stroke-linecap:butt;stroke-linejoin:round;stroke-miterlimit:4;stroke-dashoffset:0.69999992;stroke-opacity:0.99236642"
       d="M 7,30.961706 L 7,34.149206 C 7,34.670213 7.385241,35.055455 7.90625,35.055456 L 41.09375,35.055456 C 41.61476,35.055456 42,34.670213 42,34.149206 L 42,30.961706 L 7,30.961706 z"
       id="path7079"
       sodipodi:nodetypes="ccccccc" />
  </g>
  <g
     inkscape:groupmode="layer"
     id="layer2">
    <g
       id="g6659"
       transform="matrix(1.3461165,0,0,1.3461165,43.003665,14.341157)">
      <g
         id="g6661"
         transform="matrix(0.5435283,0,0,0.5727168,-27.233537,-0.4682482)">
        <g
           style="display:inline"
           inkscape:label="cipek"
           id="g6663" />
        <g
           style="display:inline"
           inkscape:label="dalsi cipek"
           id="g6665">
          <rect
             transform="matrix(0.6515106,0,0,0.6529519,0.2372492,1.1577356)"
             ry="7.3424234"
             rx="7.3586664"
             y="35.448853"
             x="5.3033009"
             height="10.253048"
             width="38.183765"
             id="rect6667"
             style="opacity:0.34857142;color:#000000;fill:#000000;fill-opacity:1;fill-rule:nonzero;stroke:none;stroke-width:0.30000001;stroke-linecap:butt;stroke-linejoin:miter;marker:none;marker-start:none;marker-mid:none;marker-end:none;stroke-miterlimit:10;stroke-dasharray:none;stroke-dashoffset:0;stroke-opacity:1;visibility:visible;display:block;overflow:visible;filter:url(#filter5655);enable-background:accumulate" />
          <path
             sodipodi:nodetypes="cczcczc"
             id="path6669"
             d="M 12.064982,30.7293 L 21.992635,30.7293 C 24.805475,30.7293 27.590299,29.676246 28.611077,26.67485 C 29.58042,23.824666 28.776538,18.397013 22.48902,14.004694 L 10.741298,14.004694 C 4.4537785,18.059143 3.6680404,23.603966 5.1156247,26.843784 C 6.5903581,30.144375 9.0866822,30.7293 12.064982,30.7293 z "
             style="opacity:1;color:#000000;fill:url(#radialGradient6683);fill-opacity:1;fill-rule:evenodd;stroke:#888a85;stroke-width:1.33148468px;stroke-linecap:round;stroke-linejoin:round;marker:none;marker-start:none;marker-mid:none;marker-end:none;stroke-miterlimit:4;stroke-dasharray:none;stroke-dashoffset:0;stroke-opacity:1;visibility:visible;display:inline;overflow:visible" />
          <path
             inkscape:r_cy="true"
             inkscape:r_cx="true"
             style="opacity:0.29120878;color:#000000;fill:url(#linearGradient6685);fill-opacity:1;fill-rule:evenodd;stroke:none;stroke-width:1px;stroke-linecap:round;stroke-linejoin:round;marker:none;marker-start:none;marker-mid:none;marker-end:none;stroke-miterlimit:4;stroke-dasharray:none;stroke-dashoffset:0;stroke-opacity:1;visibility:visible;display:inline;overflow:visible"
             d="M 24.716064,28.783653 C 25.864056,28.240762 27.002127,26.694339 27.002127,26.694339 C 26.10786,22.916396 23.294839,20.300105 23.294839,20.300105 C 23.294839,20.300105 24.989087,26.445169 24.716064,28.783653 z "
             id="path6671"
             sodipodi:nodetypes="cccc" />
          <path
             inkscape:r_cy="true"
             inkscape:r_cx="true"
             sodipodi:nodetypes="cccc"
             id="path6673"
             d="M 8.9200099,29.444722 C 7.7567678,28.935478 6,26.835233 6,26.835233 C 6.7843958,23.032853 9.4683876,20.250938 9.4683876,20.250938 C 9.4683876,20.250938 8.5793339,27.115172 8.9200099,29.444722 z "
             style="opacity:0.54945056;color:#000000;fill:url(#linearGradient6687);fill-opacity:1;fill-rule:evenodd;stroke:none;stroke-width:1px;stroke-linecap:round;stroke-linejoin:round;marker:none;marker-start:none;marker-mid:none;marker-end:none;stroke-miterlimit:4;stroke-dasharray:none;stroke-dashoffset:0;stroke-opacity:1;visibility:visible;display:inline;overflow:visible" />
          <path
             style="opacity:0.64285715;color:#000000;fill:none;fill-opacity:1;fill-rule:evenodd;stroke:#ffffff;stroke-width:1.33148479px;stroke-linecap:round;stroke-linejoin:round;marker:none;marker-start:none;marker-mid:none;marker-end:none;stroke-miterlimit:4;stroke-dasharray:none;stroke-dashoffset:0;stroke-opacity:1;visibility:visible;display:inline;overflow:visible"
             d="M 12.176808,29.48319 L 21.707526,29.46273 C 24.105069,29.46273 26.478733,28.566596 27.348797,26.012446 C 28.175028,23.586979 27.262764,18.968118 21.903558,15.23031 L 11.43618,15.00527 C 6.0769717,18.455551 5.0396902,23.174124 6.2936152,26.156207 C 7.5475465,29.138292 9.3773288,29.46273 12.176808,29.48319 z "
             id="path6675"
             sodipodi:nodetypes="cczcczc" />
          <path
             transform="matrix(1.0230345,0,0,0.8947365,-15.124033,-5.0961578)"
             sodipodi:type="arc"
             style="opacity:1;color:#000000;fill:url(#radialGradient6689);fill-opacity:1;fill-rule:evenodd;stroke:none;stroke-width:1px;stroke-linecap:round;stroke-linejoin:round;marker:none;marker-start:none;marker-mid:none;marker-end:none;stroke-miterlimit:4;stroke-dasharray:none;stroke-dashoffset:0;stroke-opacity:1;visibility:visible;display:inline;overflow:visible"
             id="path6677"
             sodipodi:cx="31.112698"
             sodipodi:cy="19.008621"
             sodipodi:rx="8.6620579"
             sodipodi:ry="8.6620579"
             d="M 39.774755 19.008621 A 8.6620579 8.6620579 0 1 1  22.45064,19.008621 A 8.6620579 8.6620579 0 1 1  39.774755 19.008621 z" />
          <path
             transform="matrix(0.947266,0,0,0.9000105,-12.697589,-7.0737713)"
             d="M 39.774755 19.008621 A 8.6620579 8.6620579 0 1 1  22.45064,19.008621 A 8.6620579 8.6620579 0 1 1  39.774755 19.008621 z"
             sodipodi:ry="8.6620579"
             sodipodi:rx="8.6620579"
             sodipodi:cy="19.008621"
             sodipodi:cx="31.112698"
             id="path6679"
             style="opacity:1;color:#000000;fill:url(#radialGradient6691);fill-opacity:1;fill-rule:evenodd;stroke:#888a85;stroke-width:1.44203734px;stroke-linecap:round;stroke-linejoin:round;marker:none;marker-start:none;marker-mid:none;marker-end:none;stroke-miterlimit:4;stroke-dasharray:none;stroke-dashoffset:0;stroke-opacity:1;visibility:visible;display:inline;overflow:visible"
             sodipodi:type="arc" />
          <path
             transform="matrix(0.7833115,0,0,0.7474801,-7.6762691,-4.2118631)"
             sodipodi:type="arc"
             style="opacity:0.655303;color:#000000;fill:none;fill-opacity:1;fill-rule:evenodd;stroke:#ffffff;stroke-width:1.74008048px;stroke-linecap:round;stroke-linejoin:round;marker:none;marker-start:none;marker-mid:none;marker-end:none;stroke-miterlimit:4;stroke-dasharray:none;stroke-dashoffset:0;stroke-opacity:1;visibility:visible;display:inline;overflow:visible"
             id="path6681"
             sodipodi:cx="31.112698"
             sodipodi:cy="19.008621"
             sodipodi:rx="8.6620579"
             sodipodi:ry="8.6620579"
             d="M 39.774755 19.008621 A 8.6620579 8.6620579 0 1 1  22.45064,19.008621 A 8.6620579 8.6620579 0 1 1  39.774755 19.008621 z" />
        </g>
      </g>
    </g>
    <g
       id="g6617"
       transform="matrix(1.3461165,0,0,1.3461165,35.960325,18.395759)">
      <g
         id="g5834"
         transform="matrix(0.5435283,0,0,0.5727168,-27.233537,-0.4682482)">
        <g
           style="display:inline"
           inkscape:label="cipek"
           id="g5836" />
        <g
           style="display:inline"
           inkscape:label="dalsi cipek"
           id="g5838">
          <rect
             transform="matrix(0.6515106,0,0,0.6529519,0.2372492,1.1577356)"
             ry="7.3424234"
             rx="7.3586664"
             y="35.448853"
             x="5.3033009"
             height="10.253048"
             width="38.183765"
             id="rect5840"
             style="opacity:0.34857142;color:#000000;fill:#000000;fill-opacity:1;fill-rule:nonzero;stroke:none;stroke-width:0.30000001;stroke-linecap:butt;stroke-linejoin:miter;marker:none;marker-start:none;marker-mid:none;marker-end:none;stroke-miterlimit:10;stroke-dasharray:none;stroke-dashoffset:0;stroke-opacity:1;visibility:visible;display:block;overflow:visible;filter:url(#filter5655);enable-background:accumulate" />
          <path
             sodipodi:nodetypes="cczcczc"
             id="path5842"
             d="M 12.064982,30.7293 L 21.992635,30.7293 C 24.805475,30.7293 27.590299,29.676246 28.611077,26.67485 C 29.58042,23.824666 28.776538,18.397013 22.48902,14.004694 L 10.741298,14.004694 C 4.4537785,18.059143 3.6680404,23.603966 5.1156247,26.843784 C 6.5903581,30.144375 9.0866822,30.7293 12.064982,30.7293 z "
             style="opacity:1;color:#000000;fill:url(#radialGradient5856);fill-opacity:1;fill-rule:evenodd;stroke:#888a85;stroke-width:1.33148468px;stroke-linecap:round;stroke-linejoin:round;marker:none;marker-start:none;marker-mid:none;marker-end:none;stroke-miterlimit:4;stroke-dasharray:none;stroke-dashoffset:0;stroke-opacity:1;visibility:visible;display:inline;overflow:visible" />
          <path
             inkscape:r_cy="true"
             inkscape:r_cx="true"
             style="opacity:0.29120878;color:#000000;fill:url(#linearGradient5858);fill-opacity:1;fill-rule:evenodd;stroke:none;stroke-width:1px;stroke-linecap:round;stroke-linejoin:round;marker:none;marker-start:none;marker-mid:none;marker-end:none;stroke-miterlimit:4;stroke-dasharray:none;stroke-dashoffset:0;stroke-opacity:1;visibility:visible;display:inline;overflow:visible"
             d="M 24.716064,28.783653 C 25.864056,28.240762 27.002127,26.694339 27.002127,26.694339 C 26.10786,22.916396 23.294839,20.300105 23.294839,20.300105 C 23.294839,20.300105 24.989087,26.445169 24.716064,28.783653 z "
             id="path5844"
             sodipodi:nodetypes="cccc" />
          <path
             inkscape:r_cy="true"
             inkscape:r_cx="true"
             sodipodi:nodetypes="cccc"
             id="path5846"
             d="M 8.9200099,29.444722 C 7.7567678,28.935478 6,26.835233 6,26.835233 C 6.7843958,23.032853 9.4683876,20.250938 9.4683876,20.250938 C 9.4683876,20.250938 8.5793339,27.115172 8.9200099,29.444722 z "
             style="opacity:0.54945056;color:#000000;fill:url(#linearGradient5860);fill-opacity:1;fill-rule:evenodd;stroke:none;stroke-width:1px;stroke-linecap:round;stroke-linejoin:round;marker:none;marker-start:none;marker-mid:none;marker-end:none;stroke-miterlimit:4;stroke-dasharray:none;stroke-dashoffset:0;stroke-opacity:1;visibility:visible;display:inline;overflow:visible" />
          <path
             style="opacity:0.64285715;color:#000000;fill:none;fill-opacity:1;fill-rule:evenodd;stroke:#ffffff;stroke-width:1.33148479px;stroke-linecap:round;stroke-linejoin:round;marker:none;marker-start:none;marker-mid:none;marker-end:none;stroke-miterlimit:4;stroke-dasharray:none;stroke-dashoffset:0;stroke-opacity:1;visibility:visible;display:inline;overflow:visible"
             d="M 12.176808,29.48319 L 21.707526,29.46273 C 24.105069,29.46273 26.478733,28.566596 27.348797,26.012446 C 28.175028,23.586979 27.262764,18.968118 21.903558,15.23031 L 11.43618,15.00527 C 6.0769717,18.455551 5.0396902,23.174124 6.2936152,26.156207 C 7.5475465,29.138292 9.3773288,29.46273 12.176808,29.48319 z "
             id="path5848"
             sodipodi:nodetypes="cczcczc" />
          <path
             transform="matrix(1.0230345,0,0,0.8947365,-15.124033,-5.0961578)"
             sodipodi:type="arc"
             style="opacity:1;color:#000000;fill:url(#radialGradient5862);fill-opacity:1;fill-rule:evenodd;stroke:none;stroke-width:1px;stroke-linecap:round;stroke-linejoin:round;marker:none;marker-start:none;marker-mid:none;marker-end:none;stroke-miterlimit:4;stroke-dasharray:none;stroke-dashoffset:0;stroke-opacity:1;visibility:visible;display:inline;overflow:visible"
             id="path5850"
             sodipodi:cx="31.112698"
             sodipodi:cy="19.008621"
             sodipodi:rx="8.6620579"
             sodipodi:ry="8.6620579"
             d="M 39.774755 19.008621 A 8.6620579 8.6620579 0 1 1  22.45064,19.008621 A 8.6620579 8.6620579 0 1 1  39.774755 19.008621 z" />
          <path
             transform="matrix(0.947266,0,0,0.9000105,-12.697589,-7.0737713)"
             d="M 39.774755 19.008621 A 8.6620579 8.6620579 0 1 1  22.45064,19.008621 A 8.6620579 8.6620579 0 1 1  39.774755 19.008621 z"
             sodipodi:ry="8.6620579"
             sodipodi:rx="8.6620579"
             sodipodi:cy="19.008621"
             sodipodi:cx="31.112698"
             id="path5852"
             style="opacity:1;color:#000000;fill:url(#radialGradient5864);fill-opacity:1;fill-rule:evenodd;stroke:#888a85;stroke-width:1.44203734px;stroke-linecap:round;stroke-linejoin:round;marker:none;marker-start:none;marker-mid:none;marker-end:none;stroke-miterlimit:4;stroke-dasharray:none;stroke-dashoffset:0;stroke-opacity:1;visibility:visible;display:inline;overflow:visible"
             sodipodi:type="arc" />
          <path
             transform="matrix(0.7833115,0,0,0.7474801,-7.6762691,-4.2118631)"
             sodipodi:type="arc"
             style="opacity:0.655303;color:#000000;fill:none;fill-opacity:1;fill-rule:evenodd;stroke:#ffffff;stroke-width:1.74008048px;stroke-linecap:round;stroke-linejoin:round;marker:none;marker-start:none;marker-mid:none;marker-end:none;stroke-miterlimit:4;stroke-dasharray:none;stroke-dashoffset:0;stroke-opacity:1;visibility:visible;display:inline;overflow:visible"
             id="path5854"
             sodipodi:cx="31.112698"
             sodipodi:cy="19.008621"
             sodipodi:rx="8.6620579"
             sodipodi:ry="8.6620579"
             d="M 39.774755 19.008621 A 8.6620579 8.6620579 0 1 1  22.45064,19.008621 A 8.6620579 8.6620579 0 1 1  39.774755 19.008621 z" />
        </g>
      </g>
    </g>
  </g>
</svg>
