<?xml version="1.0" encoding="UTF-8" standalone="no"?>
<!-- Created with Inkscape (http://www.inkscape.org/) -->
<svg
   xmlns:dc="http://purl.org/dc/elements/1.1/"
   xmlns:cc="http://web.resource.org/cc/"
   xmlns:rdf="http://www.w3.org/1999/02/22-rdf-syntax-ns#"
   xmlns:svg="http://www.w3.org/2000/svg"
   xmlns="http://www.w3.org/2000/svg"
   xmlns:xlink="http://www.w3.org/1999/xlink"
   xmlns:sodipodi="http://sodipodi.sourceforge.net/DTD/sodipodi-0.dtd"
   xmlns:inkscape="http://www.inkscape.org/namespaces/inkscape"
   width="48"
   height="48"
   id="svg2"
   sodipodi:version="0.32"
   inkscape:version="0.45"
   version="1.0"
   sodipodi:docname="mail-forward.svg"
   sodipodi:docbase="/home/dobey/Projects/gnome-icon-theme/scalable/actions"
   inkscape:output_extension="org.inkscape.output.svg.inkscape">
  <defs
     id="defs4">
    <linearGradient
       inkscape:collect="always"
       id="linearGradient8743">
      <stop
         style="stop-color:#ffffff;stop-opacity:1;"
         offset="0"
         id="stop8745" />
      <stop
         style="stop-color:#ffffff;stop-opacity:0;"
         offset="1"
         id="stop8747" />
    </linearGradient>
    <linearGradient
       inkscape:collect="always"
       id="linearGradient8727">
      <stop
         style="stop-color:#ffffff;stop-opacity:1;"
         offset="0"
         id="stop8729" />
      <stop
         style="stop-color:#ffffff;stop-opacity:0;"
         offset="1"
         id="stop8732" />
    </linearGradient>
    <linearGradient
       inkscape:collect="always"
       id="linearGradient8706">
      <stop
         style="stop-color:#3465a4;stop-opacity:1"
         offset="0"
         id="stop8708" />
      <stop
         style="stop-color:#3465a4;stop-opacity:0"
         offset="1"
         id="stop8710" />
    </linearGradient>
    <linearGradient
       inkscape:collect="always"
       id="linearGradient8700">
      <stop
         style="stop-color:#729fcf;stop-opacity:1"
         offset="0"
         id="stop8702" />
      <stop
         style="stop-color:#729fcf;stop-opacity:0"
         offset="1"
         id="stop8704" />
    </linearGradient>
    <linearGradient
       inkscape:collect="always"
       id="linearGradient8291">
      <stop
         style="stop-color:#000000;stop-opacity:1;"
         offset="0"
         id="stop8293" />
      <stop
         style="stop-color:#000000;stop-opacity:0;"
         offset="1"
         id="stop8295" />
    </linearGradient>
    <linearGradient
       inkscape:collect="always"
       id="linearGradient6934">
      <stop
         style="stop-color:#babdb6;stop-opacity:1"
         offset="0"
         id="stop6936" />
      <stop
         style="stop-color:#babdb6;stop-opacity:0"
         offset="1"
         id="stop6938" />
    </linearGradient>
    <linearGradient
       inkscape:collect="always"
       id="linearGradient5060">
      <stop
         style="stop-color:black;stop-opacity:1;"
         offset="0"
         id="stop5062" />
      <stop
         style="stop-color:black;stop-opacity:0;"
         offset="1"
         id="stop5064" />
    </linearGradient>
    <linearGradient
       id="linearGradient5048">
      <stop
         style="stop-color:black;stop-opacity:0;"
         offset="0"
         id="stop5050" />
      <stop
         id="stop5056"
         offset="0.5"
         style="stop-color:black;stop-opacity:1;" />
      <stop
         style="stop-color:black;stop-opacity:0;"
         offset="1"
         id="stop5052" />
    </linearGradient>
    <linearGradient
       id="linearGradient6945"
       inkscape:collect="always">
      <stop
         id="stop6947"
         offset="0"
         style="stop-color:#ffffff;stop-opacity:1" />
      <stop
         id="stop6949"
         offset="1"
         style="stop-color:#d3d7cf;stop-opacity:1" />
    </linearGradient>
    <linearGradient
       id="linearGradient7063"
       inkscape:collect="always">
      <stop
         id="stop7065"
         offset="0"
         style="stop-color:#000000;stop-opacity:1;" />
      <stop
         id="stop7067"
         offset="1"
         style="stop-color:#000000;stop-opacity:0;" />
    </linearGradient>
    <linearGradient
       inkscape:collect="always"
       xlink:href="#linearGradient8700"
       id="linearGradient11667"
       gradientUnits="userSpaceOnUse"
       gradientTransform="matrix(-1,0,0,1,4,0)"
       x1="35.266953"
       y1="32.443649"
       x2="37.299881"
       y2="24.135145" />
    <linearGradient
       inkscape:collect="always"
       xlink:href="#linearGradient8706"
       id="linearGradient11669"
       gradientUnits="userSpaceOnUse"
       gradientTransform="matrix(-1,0,0,1,4,0)"
       x1="34.825008"
       y1="29.261671"
       x2="35.532116"
       y2="24.223534" />
    <linearGradient
       inkscape:collect="always"
       xlink:href="#linearGradient8727"
       id="linearGradient11671"
       gradientUnits="userSpaceOnUse"
       x1="29.035572"
       y1="29.217476"
       x2="28.549437"
       y2="25.328388" />
    <linearGradient
       inkscape:collect="always"
       xlink:href="#linearGradient8743"
       id="linearGradient11673"
       gradientUnits="userSpaceOnUse"
       x1="38.979259"
       y1="45.84375"
       x2="38.979259"
       y2="34.156284" />
    <linearGradient
       inkscape:collect="always"
       xlink:href="#linearGradient5048"
       id="linearGradient11675"
       gradientUnits="userSpaceOnUse"
       gradientTransform="matrix(2.774389,0,0,1.969706,-1892.179,-872.8854)"
       x1="302.85715"
       y1="366.64789"
       x2="302.85715"
       y2="609.50507" />
    <radialGradient
       inkscape:collect="always"
       xlink:href="#linearGradient5060"
       id="radialGradient11677"
       gradientUnits="userSpaceOnUse"
       gradientTransform="matrix(2.774389,0,0,1.969706,-1891.633,-872.8854)"
       cx="605.71429"
       cy="486.64789"
       fx="605.71429"
       fy="486.64789"
       r="117.14286" />
    <radialGradient
       inkscape:collect="always"
       xlink:href="#linearGradient5060"
       id="radialGradient11679"
       gradientUnits="userSpaceOnUse"
       gradientTransform="matrix(-2.774389,0,0,1.969706,112.7623,-872.8854)"
       cx="605.71429"
       cy="486.64789"
       fx="605.71429"
       fy="486.64789"
       r="117.14286" />
    <radialGradient
       inkscape:collect="always"
       xlink:href="#linearGradient6945"
       id="radialGradient11681"
       gradientUnits="userSpaceOnUse"
       gradientTransform="matrix(2.0135589,0,0,1.7460565,-12.669486,-9.185985)"
       cx="12.5"
       cy="15.927882"
       fx="12.5"
       fy="15.927882"
       r="18.5" />
    <linearGradient
       inkscape:collect="always"
       xlink:href="#linearGradient7063"
       id="linearGradient11683"
       gradientUnits="userSpaceOnUse"
       x1="12.875"
       y1="35.314098"
       x2="12.875"
       y2="15.75" />
    <radialGradient
       inkscape:collect="always"
       xlink:href="#linearGradient6945"
       id="radialGradient11685"
       gradientUnits="userSpaceOnUse"
       gradientTransform="matrix(2.6083242,0,0,2.218814,-74.941381,-118.61799)"
       cx="13.107393"
       cy="61.48016"
       fx="13.107393"
       fy="61.48016"
       r="18.5" />
    <linearGradient
       inkscape:collect="always"
       xlink:href="#linearGradient6934"
       id="linearGradient11687"
       gradientUnits="userSpaceOnUse"
       gradientTransform="translate(1,-42)"
       x1="14.125"
       y1="79.81311"
       x2="14.125"
       y2="75.499176" />
    <radialGradient
       inkscape:collect="always"
       xlink:href="#linearGradient8291"
       id="radialGradient11689"
       gradientUnits="userSpaceOnUse"
       gradientTransform="matrix(1,0,0,0.2458842,0,31.065119)"
       cx="22.738329"
       cy="41.194096"
       fx="22.738329"
       fy="41.194096"
       r="14.73833" />
  </defs>
  <sodipodi:namedview
     id="base"
     pagecolor="#ffffff"
     bordercolor="#666666"
     borderopacity="0.37647059"
     inkscape:pageopacity="0"
     inkscape:pageshadow="2"
     inkscape:zoom="1.4142136"
     inkscape:cx="59.51557"
     inkscape:cy="-23.930174"
     inkscape:document-units="px"
     inkscape:current-layer="layer1"
     width="48px"
     height="48px"
     inkscape:showpageshadow="false"
     gridempspacing="2"
     gridspacingx="0.5px"
     gridspacingy="0.5px"
     inkscape:window-width="872"
     inkscape:window-height="848"
     inkscape:window-x="209"
     inkscape:window-y="67"
     borderlayer="true"
     showgrid="false"
     inkscape:grid-points="true"
     showborder="true"
     showguides="true"
     inkscape:guide-bbox="true" />
  <metadata
     id="metadata7">
    <rdf:RDF>
      <cc:Work
         rdf:about="">
        <dc:format>image/svg+xml</dc:format>
        <dc:type
           rdf:resource="http://purl.org/dc/dcmitype/StillImage" />
        <dc:creator>
          <cc:Agent>
            <dc:title>Lapo Calamandrei</dc:title>
          </cc:Agent>
        </dc:creator>
        <cc:license
           rdf:resource="http://creativecommons.org/licenses/GPL/2.0/" />
      </cc:Work>
      <cc:License
         rdf:about="http://creativecommons.org/licenses/GPL/2.0/">
        <cc:permits
           rdf:resource="http://web.resource.org/cc/Reproduction" />
        <cc:permits
           rdf:resource="http://web.resource.org/cc/Distribution" />
        <cc:requires
           rdf:resource="http://web.resource.org/cc/Notice" />
        <cc:permits
           rdf:resource="http://web.resource.org/cc/DerivativeWorks" />
        <cc:requires
           rdf:resource="http://web.resource.org/cc/ShareAlike" />
        <cc:requires
           rdf:resource="http://web.resource.org/cc/SourceCode" />
      </cc:License>
    </rdf:RDF>
  </metadata>
  <g
     inkscape:label="Livello 1"
     inkscape:groupmode="layer"
     id="layer1">
    <g
       id="g9812"
       transform="matrix(-1,0,0,1,7,-8)" />
    <path
       sodipodi:type="arc"
       style="opacity:0.3;fill:url(#radialGradient11689);fill-opacity:1;fill-rule:evenodd;stroke:none;stroke-width:1;stroke-linecap:round;stroke-linejoin:round;stroke-miterlimit:4;stroke-dasharray:none;stroke-dashoffset:0.69999992;stroke-opacity:1"
       id="path8641"
       sodipodi:cx="22.738329"
       sodipodi:cy="41.194096"
       sodipodi:rx="14.73833"
       sodipodi:ry="3.6239223"
       d="M 37.476659 41.194096 A 14.73833 3.6239223 0 1 1  7.999999,41.194096 A 14.73833 3.6239223 0 1 1  37.476659 41.194096 z"
       transform="matrix(0.7124282,0,0,1.6556646,21.30057,-29.203605)" />
    <g
       id="g8645"
       inkscape:label="Livello 1"
       transform="translate(-2,-2.999999)">
      <g
         transform="matrix(2.2162751e-2,0,0,1.0695181e-2,44.21234,36.053672)"
         id="g8647"
         style="opacity:0.7;display:inline">
        <rect
           style="opacity:0.39195981;color:#000000;fill:url(#linearGradient11675);fill-opacity:1;fill-rule:nonzero;stroke:none;stroke-width:1;stroke-linecap:round;stroke-linejoin:miter;marker:none;marker-start:none;marker-mid:none;marker-end:none;stroke-miterlimit:4;stroke-dasharray:none;stroke-dashoffset:0;stroke-opacity:1;visibility:visible;display:inline;overflow:visible"
           id="rect8649"
           width="1339.6335"
           height="478.35718"
           x="-1559.2523"
           y="-150.69685" />
        <path
           style="opacity:0.40206185;color:#000000;fill:url(#radialGradient11677);fill-opacity:1;fill-rule:nonzero;stroke:none;stroke-width:1;stroke-linecap:round;stroke-linejoin:miter;marker:none;marker-start:none;marker-mid:none;marker-end:none;stroke-miterlimit:4;stroke-dasharray:none;stroke-dashoffset:0;stroke-opacity:1;visibility:visible;display:inline;overflow:visible"
           d="M -219.61876,-150.68038 C -219.61876,-150.68038 -219.61876,327.65041 -219.61876,327.65041 C -76.744594,328.55086 125.78146,220.48075 125.78138,88.454235 C 125.78138,-43.572302 -33.655436,-150.68036 -219.61876,-150.68038 z "
           id="path8651"
           sodipodi:nodetypes="cccc" />
        <path
           sodipodi:nodetypes="cccc"
           id="path8653"
           d="M -1559.2523,-150.68038 C -1559.2523,-150.68038 -1559.2523,327.65041 -1559.2523,327.65041 C -1702.1265,328.55086 -1904.6525,220.48075 -1904.6525,88.454235 C -1904.6525,-43.572302 -1745.2157,-150.68036 -1559.2523,-150.68038 z "
           style="opacity:0.40206185;color:#000000;fill:url(#radialGradient11679);fill-opacity:1;fill-rule:nonzero;stroke:none;stroke-width:1;stroke-linecap:round;stroke-linejoin:miter;marker:none;marker-start:none;marker-mid:none;marker-end:none;stroke-miterlimit:4;stroke-dasharray:none;stroke-dashoffset:0;stroke-opacity:1;visibility:visible;display:inline;overflow:visible" />
      </g>
      <rect
         ry="1.5340841"
         rx="1.5340841"
         y="12.499999"
         x="6.5"
         height="25"
         width="36"
         id="rect8655"
         style="opacity:1;fill:url(#radialGradient11681);fill-opacity:1;fill-rule:evenodd;stroke:#888a85;stroke-width:1;stroke-linecap:butt;stroke-linejoin:miter;stroke-miterlimit:4;stroke-dasharray:none;stroke-dashoffset:0.69999992;stroke-opacity:0.99236642" />
      <path
         sodipodi:nodetypes="cccccssscccccc"
         id="path8657"
         d="M 7.90625,12.9375 C 7.356972,12.9375 6.9375,13.35697 6.9375,13.90625 L 6.9375,15.3125 L 16.03125,26.90625 L 17.15625,25.65625 C 17.625623,25.186876 18.0906,24.571266 19.125,24.15625 C 20.1594,23.741234 21.70864,23.5 24.5,23.5 C 27.280132,23.499999 28.838454,23.741631 29.875,24.15625 C 30.911546,24.570869 31.373047,25.185547 31.84375,25.65625 L 32.96875,26.90625 L 42.0625,15.3125 L 42.0625,13.90625 C 42.0625,13.356972 41.64303,12.9375 41.09375,12.9375 L 7.90625,12.9375 z "
         style="opacity:0.23134329;fill:url(#linearGradient11683);fill-opacity:1;fill-rule:evenodd;stroke:none;stroke-width:0.89999998;stroke-linecap:butt;stroke-linejoin:round;stroke-miterlimit:4;stroke-opacity:1" />
      <path
         sodipodi:nodetypes="ccssscccccc"
         id="path8659"
         d="M 7,37 L 17.15625,25.65625 C 17.625623,25.186876 18.0906,24.571266 19.125,24.15625 C 20.1594,23.741234 21.70864,23.5 24.5,23.5 C 27.280132,23.499999 28.838454,23.741631 29.875,24.15625 C 30.911546,24.570869 31.373047,25.185547 31.84375,25.65625 L 42,37 L 31.84375,26.65625 C 29.799743,24.686656 27.325503,24.384093 24.5,24.5 C 21.82915,24.54954 19.035697,24.49967 17.15625,26.65625 L 7,37 z "
         style="fill:#888a85;fill-opacity:1;fill-rule:evenodd;stroke:none;stroke-width:0.89999998;stroke-linecap:butt;stroke-linejoin:round;stroke-miterlimit:4;stroke-dasharray:none;stroke-opacity:1" />
      <path
         sodipodi:nodetypes="ccccccccc"
         id="path8661"
         d="M 7,37.021499 L 17.15625,27.677749 C 19.035697,25.521169 21.82915,25.571039 24.5,25.521499 C 27.325503,25.405592 29.799743,25.708155 31.84375,27.677749 L 42,37.021499 L 31.84375,26.677749 C 29.799743,24.708155 27.325503,24.405592 24.5,24.521499 C 21.82915,24.571039 19.035697,24.521169 17.15625,26.677749 L 7,37.021499 z "
         style="fill:#ffffff;fill-opacity:1;fill-rule:evenodd;stroke:none;stroke-width:0.89999998;stroke-linecap:butt;stroke-linejoin:round;stroke-miterlimit:4;stroke-dasharray:none;stroke-opacity:1" />
      <path
         transform="translate(50,0)"
         d="M -42.09375,13 C -42.616403,13 -43,13.383596 -43,13.90625 L -43,15.3125 L -32.15625,26.15625 C -31.625931,26.68657 -31.335927,27.070864 -30.5,27.40625 C -29.664073,27.741636 -28.231645,28 -25.5,28 C -22.779829,28.000001 -21.33945,27.74203 -20.5,27.40625 C -19.66055,27.07047 -19.372752,26.685252 -18.84375,26.15625 L -8,15.3125 L -8,13.90625 C -8,13.383597 -8.3835956,13 -8.90625,13 L -42.09375,13 z "
         id="path8663"
         style="fill:url(#radialGradient11685);fill-opacity:1;fill-rule:evenodd;stroke:none;stroke-width:0.89999998;stroke-linecap:butt;stroke-linejoin:round;stroke-miterlimit:4;stroke-dasharray:none;stroke-opacity:1"
         inkscape:original="M -42.09375 12.5 C -42.877224 12.5 -43.5 13.122774 -43.5 13.90625 L -43.5 15.5 L -32.5 26.5 C -31.5 27.500002 -31.022703 28.5 -25.5 28.5 C -20 28.500002 -19.5 27.5 -18.5 26.5 L -7.5 15.5 L -7.5 13.90625 C -7.5 13.122776 -8.122774 12.5 -8.90625 12.5 L -42.09375 12.5 z "
         inkscape:radius="-0.49218538"
         sodipodi:type="inkscape:offset" />
      <path
         sodipodi:nodetypes="ccssscccccc"
         id="path8665"
         d="M 7,15.5 L 17.15625,26.84375 C 17.625623,27.313124 18.0906,27.928734 19.125,28.34375 C 20.1594,28.758766 21.70864,29 24.5,29 C 27.280132,29.000001 28.838454,28.758369 29.875,28.34375 C 30.911546,27.929131 31.373047,27.314453 31.84375,26.84375 L 42,15.5 L 31.84375,25.84375 C 29.799743,27.813344 27.325503,28.115907 24.5,28 C 21.82915,27.95046 19.035697,28.00033 17.15625,25.84375 L 7,15.5 z "
         style="fill:#888a85;fill-opacity:1;fill-rule:evenodd;stroke:none;stroke-width:0.89999998;stroke-linecap:butt;stroke-linejoin:round;stroke-miterlimit:4;stroke-dasharray:none;stroke-opacity:1" />
      <path
         sodipodi:nodetypes="ccccccccc"
         id="path8667"
         d="M 7,15.5 L 17.15625,24.84375 C 19.035697,27.00033 21.82915,26.95046 24.5,27 C 27.325503,27.115907 29.799743,26.813344 31.84375,24.84375 L 42,15.5 L 31.84375,25.84375 C 29.799743,27.813344 27.325503,28.115907 24.5,28 C 21.82915,27.95046 19.035697,28.00033 17.15625,25.84375 L 7,15.5 z "
         style="fill:#ffffff;fill-opacity:1;fill-rule:evenodd;stroke:none;stroke-width:0.89999998;stroke-linecap:butt;stroke-linejoin:round;stroke-miterlimit:4;stroke-dasharray:none;stroke-opacity:1" />
      <path
         transform="translate(1,-42)"
         d="M 6.90625,55.5 C 6.6497165,55.5 6.5,55.649715 6.5,55.90625 L 6.5,78.09375 C 6.5,78.350281 6.6497152,78.499999 6.90625,78.5 L 40.09375,78.5 C 40.350281,78.5 40.5,78.350281 40.5,78.09375 L 40.5,55.90625 C 40.5,55.649717 40.350284,55.5 40.09375,55.5 L 6.90625,55.5 z "
         id="path8669"
         style="opacity:0.7;fill:none;fill-opacity:1;fill-rule:evenodd;stroke:#ffffff;stroke-width:0.99999988;stroke-linecap:butt;stroke-linejoin:round;stroke-miterlimit:4;stroke-dasharray:none;stroke-dashoffset:0.69999992;stroke-opacity:0.99236642"
         inkscape:original="M 6.90625 54.5 C 6.1227756 54.5 5.5 55.122774 5.5 55.90625 L 5.5 78.09375 C 5.5 78.877224 6.1227756 79.499998 6.90625 79.5 L 40.09375 79.5 C 40.877224 79.5 41.5 78.877224 41.5 78.09375 L 41.5 55.90625 C 41.5 55.122776 40.877226 54.5 40.09375 54.5 L 6.90625 54.5 z "
         inkscape:radius="-0.99436891"
         sodipodi:type="inkscape:offset" />
      <path
         sodipodi:nodetypes="ccccccc"
         id="path8671"
         d="M 7,32.90625 L 7,36.09375 C 7,36.614757 7.385241,36.999999 7.90625,37 L 41.09375,37 C 41.61476,37 42,36.614757 42,36.09375 L 42,32.90625 L 7,32.90625 z "
         style="opacity:0.55597014;fill:url(#linearGradient11687);fill-opacity:1;fill-rule:evenodd;stroke:none;stroke-width:0.99999988;stroke-linecap:butt;stroke-linejoin:round;stroke-miterlimit:4;stroke-dashoffset:0.69999992;stroke-opacity:0.99236642" />
    </g>
    <g
       id="g9099"
       style="opacity:0.9"
       transform="translate(61,0)">
      <path
         style="opacity:1;fill:url(#linearGradient11667);fill-opacity:1;fill-rule:evenodd;stroke:url(#linearGradient11669);stroke-width:1px;stroke-linecap:butt;stroke-linejoin:round;stroke-opacity:1"
         d="M -23.5,47.000002 L -13.5,37.500001 L -23.5,28.000001 L -23.5,33.500002 L -26,33.500001 C -29,33.500001 -31.5,32.000001 -31.5,23.500002 L -34.5,23.5 C -34.5,41.000001 -28,41.499999 -24,41.499999 L -23.5,41.5 L -23.5,47.000002 z "
         id="path8673"
         sodipodi:nodetypes="cccccccccc" />
      <path
         transform="translate(-61,0)"
         d="M 27.5625,24.5 C 27.696733,32.38103 29.223363,36.441602 31,38.375 C 32.858376,40.39735 35.041848,40.5 37,40.5 L 37.5,40.5 C 38.051272,40.502437 38.497563,40.948728 38.5,41.5 L 38.5,44.6875 L 46.0625,37.5 L 38.5,30.3125 L 38.5,33.5 C 38.497563,34.051272 38.051272,34.497563 37.5,34.5 L 35,34.5 C 33.332608,34.500001 31.512207,33.974579 30.3125,32.25 C 29.224505,30.686007 28.695874,28.168597 28.59375,24.5 L 27.5625,24.5 z "
         id="path8722"
         style="opacity:0.5;fill:none;fill-opacity:1;fill-rule:evenodd;stroke:url(#linearGradient11671);stroke-width:1px;stroke-linecap:butt;stroke-linejoin:miter;stroke-opacity:1"
         inkscape:original="M 26.5 23.5 C 26.5 41.000001 33 41.5 37 41.5 L 37.5 41.5 L 37.5 47 L 47.5 37.5 L 37.5 28 L 37.5 33.5 L 35 33.5 C 32 33.500001 29.5 31.999999 29.5 23.5 L 26.5 23.5 z "
         inkscape:radius="-1.0043494"
         sodipodi:type="inkscape:offset" />
      <path
         transform="translate(-61,0)"
         d="M 27.03125,24 C 27.099867,32.318101 28.64097,36.593666 30.59375,38.71875 C 32.589955,40.89109 35.020215,41 37,41 L 37.5,41 C 37.633836,40.995854 37.763436,41.0472 37.858118,41.141882 C 37.9528,41.236564 38.004146,41.366164 38,41.5 L 38,45.84375 L 46.78125,37.5 L 38,29.15625 L 38,33.5 C 38.004146,33.633836 37.9528,33.763436 37.858118,33.858118 C 37.763436,33.9528 37.633836,34.004146 37.5,34 L 35,34 C 33.41914,34.000001 31.81522,33.544926 30.71875,31.96875 C 29.669479,30.460423 29.081715,27.973181 29.03125,24 L 27.03125,24 z "
         id="path8741"
         style="opacity:0.3;fill:url(#linearGradient11673);fill-opacity:1;fill-rule:evenodd;stroke:none;stroke-width:1px;stroke-linecap:butt;stroke-linejoin:round;stroke-opacity:1"
         inkscape:original="M 26.5 23.5 C 26.5 41.000001 33 41.5 37 41.5 L 37.5 41.5 L 37.5 47 L 47.5 37.5 L 37.5 28 L 37.5 33.5 L 35 33.5 C 32 33.500001 29.5 31.999999 29.5 23.5 L 26.5 23.5 z "
         inkscape:radius="-0.48516023"
         sodipodi:type="inkscape:offset" />
    </g>
  </g>
</svg>
