<?xml version="1.0" encoding="UTF-8" standalone="no"?>
<!-- Created with Inkscape (http://www.inkscape.org/) -->
<svg
   xmlns:dc="http://purl.org/dc/elements/1.1/"
   xmlns:cc="http://web.resource.org/cc/"
   xmlns:rdf="http://www.w3.org/1999/02/22-rdf-syntax-ns#"
   xmlns:svg="http://www.w3.org/2000/svg"
   xmlns="http://www.w3.org/2000/svg"
   xmlns:xlink="http://www.w3.org/1999/xlink"
   xmlns:sodipodi="http://sodipodi.sourceforge.net/DTD/sodipodi-0.dtd"
   xmlns:inkscape="http://www.inkscape.org/namespaces/inkscape"
   width="48"
   height="48"
   id="svg2"
   sodipodi:version="0.32"
   inkscape:version="0.45"
   version="1.0"
   sodipodi:docbase="/home/dobey/Projects/gnome-icon-theme/scalable/actions"
   sodipodi:docname="mail-send.svg"
   inkscape:output_extension="org.inkscape.output.svg.inkscape">
  <defs
     id="defs4">
    <linearGradient
       inkscape:collect="always"
       id="linearGradient8590">
      <stop
         style="stop-color:#eeeeec;stop-opacity:1;"
         offset="0"
         id="stop8592" />
      <stop
         style="stop-color:#ffffff;stop-opacity:1"
         offset="1"
         id="stop8594" />
    </linearGradient>
    <linearGradient
       inkscape:collect="always"
       id="linearGradient8505">
      <stop
         style="stop-color:#ffffff;stop-opacity:1;"
         offset="0"
         id="stop8507" />
      <stop
         style="stop-color:#ffffff;stop-opacity:0;"
         offset="1"
         id="stop8509" />
    </linearGradient>
    <linearGradient
       id="linearGradient3702">
      <stop
         style="stop-color:black;stop-opacity:0;"
         offset="0"
         id="stop3704" />
      <stop
         id="stop3710"
         offset="0.5"
         style="stop-color:black;stop-opacity:1;" />
      <stop
         style="stop-color:black;stop-opacity:0;"
         offset="1"
         id="stop3706" />
    </linearGradient>
    <linearGradient
       inkscape:collect="always"
       id="linearGradient3688">
      <stop
         style="stop-color:black;stop-opacity:1;"
         offset="0"
         id="stop3690" />
      <stop
         style="stop-color:black;stop-opacity:0;"
         offset="1"
         id="stop3692" />
    </linearGradient>
    <linearGradient
       inkscape:collect="always"
       id="linearGradient6394">
      <stop
         style="stop-color:#729fcf;stop-opacity:1"
         offset="0"
         id="stop6396" />
      <stop
         style="stop-color:#ffffff;stop-opacity:1"
         offset="1"
         id="stop6398" />
    </linearGradient>
    <linearGradient
       inkscape:collect="always"
       id="linearGradient6754">
      <stop
         style="stop-color:#729fcf;stop-opacity:1"
         offset="0"
         id="stop6756" />
      <stop
         style="stop-color:#729fcf;stop-opacity:0"
         offset="1"
         id="stop6758" />
    </linearGradient>
    <radialGradient
       inkscape:collect="always"
       xlink:href="#linearGradient3688"
       id="radialGradient8621"
       gradientUnits="userSpaceOnUse"
       gradientTransform="matrix(2.003784,0,0,1.4,27.98813,-17.4)"
       cx="4.9929786"
       cy="43.5"
       fx="4.9929786"
       fy="43.5"
       r="2.5" />
    <radialGradient
       inkscape:collect="always"
       xlink:href="#linearGradient3688"
       id="radialGradient8623"
       gradientUnits="userSpaceOnUse"
       gradientTransform="matrix(2.003784,0,0,1.4,-20.01187,-104.4)"
       cx="4.9929786"
       cy="43.5"
       fx="4.9929786"
       fy="43.5"
       r="2.5" />
    <linearGradient
       inkscape:collect="always"
       xlink:href="#linearGradient3702"
       id="linearGradient8625"
       gradientUnits="userSpaceOnUse"
       x1="25.058096"
       y1="47.027729"
       x2="25.058096"
       y2="39.999443" />
    <linearGradient
       inkscape:collect="always"
       xlink:href="#linearGradient8590"
       id="linearGradient8627"
       gradientUnits="userSpaceOnUse"
       x1="-29.375"
       y1="9.25"
       x2="-6.0322471"
       y2="96.366341" />
    <linearGradient
       inkscape:collect="always"
       xlink:href="#linearGradient6394"
       id="linearGradient8629"
       gradientUnits="userSpaceOnUse"
       gradientTransform="matrix(2.074373,0,0,2.0817457,117.14774,1.0694405)"
       x1="-21.478369"
       y1="-0.80551612"
       x2="-21.478369"
       y2="18.005089" />
    <linearGradient
       inkscape:collect="always"
       xlink:href="#linearGradient6754"
       id="linearGradient8631"
       gradientUnits="userSpaceOnUse"
       gradientTransform="matrix(2.1639996,0,0,4.4339333,123.33198,-38.376868)"
       x1="-21.03125"
       y1="16.187811"
       x2="-21.03125"
       y2="14.13769" />
    <radialGradient
       inkscape:collect="always"
       xlink:href="#linearGradient8505"
       id="radialGradient8633"
       gradientUnits="userSpaceOnUse"
       gradientTransform="matrix(2.8659614,0,0,1.4416275,33.120814,-14.79452)"
       cx="-17.75"
       cy="33.5"
       fx="-17.75"
       fy="33.5"
       r="18" />
  </defs>
  <sodipodi:namedview
     id="base"
     pagecolor="#ffffff"
     bordercolor="#666666"
     borderopacity="1.0"
     inkscape:pageopacity="0.0"
     inkscape:pageshadow="2"
     inkscape:zoom="1"
     inkscape:cx="46.754558"
     inkscape:cy="34.497854"
     inkscape:document-units="px"
     inkscape:current-layer="layer1"
     width="48px"
     height="48px"
     inkscape:showpageshadow="false"
     gridspacingx="0.5px"
     gridspacingy="0.5px"
     gridempspacing="2"
     showgrid="false"
     inkscape:window-width="1003"
     inkscape:window-height="626"
     inkscape:window-x="10"
     inkscape:window-y="65"
     showborder="false"
     borderlayer="true" />
  <metadata
     id="metadata7">
    <rdf:RDF>
      <cc:Work
         rdf:about="">
        <dc:format>image/svg+xml</dc:format>
        <dc:type
           rdf:resource="http://purl.org/dc/dcmitype/StillImage" />
        <cc:license
           rdf:resource="http://creativecommons.org/licenses/GPL/2.0/" />
        <dc:creator>
          <cc:Agent>
            <dc:title>Lapo Calamandrei</dc:title>
          </cc:Agent>
        </dc:creator>
        <dc:title>Stamp</dc:title>
        <dc:contributor>
          <cc:Agent>
            <dc:title>Hylke Bons, Andreas Nilsson</dc:title>
          </cc:Agent>
        </dc:contributor>
        <dc:subject>
          <rdf:Bag>
            <rdf:li>mail</rdf:li>
            <rdf:li>send</rdf:li>
            <rdf:li>stamp</rdf:li>
          </rdf:Bag>
        </dc:subject>
      </cc:Work>
      <cc:License
         rdf:about="http://creativecommons.org/licenses/GPL/2.0/">
        <cc:permits
           rdf:resource="http://web.resource.org/cc/Reproduction" />
        <cc:permits
           rdf:resource="http://web.resource.org/cc/Distribution" />
        <cc:requires
           rdf:resource="http://web.resource.org/cc/Notice" />
        <cc:permits
           rdf:resource="http://web.resource.org/cc/DerivativeWorks" />
        <cc:requires
           rdf:resource="http://web.resource.org/cc/ShareAlike" />
        <cc:requires
           rdf:resource="http://web.resource.org/cc/SourceCode" />
      </cc:License>
    </rdf:RDF>
  </metadata>
  <g
     inkscape:label="Livello 1"
     inkscape:groupmode="layer"
     id="layer1">
    <g
       id="g8834"
       transform="translate(60,-1)">
      <g
         transform="matrix(1.1842105,0,0,0.9999996,-63.921053,-1.9999825)"
         style="opacity:0.2"
         id="g8559">
        <rect
           style="opacity:1;fill:url(#radialGradient8621);fill-opacity:1;stroke:none;stroke-width:1;stroke-linecap:round;stroke-linejoin:miter;stroke-miterlimit:4;stroke-dasharray:none;stroke-opacity:1"
           id="rect8561"
           width="5"
           height="7"
           x="38"
           y="40" />
        <rect
           style="opacity:1;fill:url(#radialGradient8623);fill-opacity:1;stroke:none;stroke-width:1;stroke-linecap:round;stroke-linejoin:miter;stroke-miterlimit:4;stroke-dasharray:none;stroke-opacity:1"
           id="rect8563"
           width="5"
           height="7"
           x="-10"
           y="-47"
           transform="scale(-1,-1)" />
        <rect
           style="opacity:1;fill:url(#linearGradient8625);fill-opacity:1;stroke:none;stroke-width:1;stroke-linecap:round;stroke-linejoin:miter;stroke-miterlimit:4;stroke-dasharray:none;stroke-opacity:1"
           id="rect8565"
           width="28"
           height="7.0000005"
           x="10"
           y="40" />
      </g>
      <g
         transform="translate(-10,0)"
         id="g8513">
        <path
           style="opacity:1;fill:url(#linearGradient8627);fill-opacity:1;stroke:#979894;stroke-width:1;stroke-linecap:round;stroke-linejoin:bevel;stroke-miterlimit:4;stroke-dasharray:none;stroke-dashoffset:0.7;stroke-opacity:1"
           d="M -44.5,42.5 L -44.5,39.5 L -43.96875,39.5 C -43.709063,39.5 -43.5,39.290937 -43.5,39.03125 L -43.5,37.96875 C -43.5,37.709063 -43.709063,37.5 -43.96875,37.5 L -44.5,37.5 L -44.5,35.5 L -43.96875,35.5 C -43.709063,35.5 -43.5,35.290937 -43.5,35.03125 L -43.5,33.96875 C -43.5,33.709063 -43.709063,33.5 -43.96875,33.5 L -44.5,33.5 L -44.5,31.5 L -43.96875,31.5 C -43.709063,31.5 -43.5,31.290937 -43.5,31.03125 L -43.5,29.96875 C -43.5,29.709063 -43.709063,29.5 -43.96875,29.5 L -44.5,29.5 L -44.5,27.5 L -43.96875,27.5 C -43.709063,27.5 -43.5,27.290937 -43.5,27.03125 L -43.5,25.96875 C -43.5,25.709063 -43.709063,25.5 -43.96875,25.5 L -44.5,25.5 L -44.5,23.5 L -43.96875,23.5 C -43.709063,23.5 -43.5,23.290937 -43.5,23.03125 L -43.5,21.96875 C -43.5,21.709063 -43.709063,21.5 -43.96875,21.5 L -44.5,21.5 L -44.5,19.5 L -43.96875,19.5 C -43.709063,19.5 -43.5,19.290937 -43.5,19.03125 L -43.5,17.96875 C -43.5,17.709063 -43.709063,17.5 -43.96875,17.5 L -44.5,17.5 L -44.5,15.5 L -43.96875,15.5 C -43.709063,15.5 -43.5,15.290937 -43.5,15.03125 L -43.5,13.96875 C -43.5,13.709062 -43.709063,13.5 -43.96875,13.5 L -44.5,13.5 L -44.5,11.5 L -43.96875,11.5 C -43.709063,11.5 -43.5,11.290938 -43.5,11.03125 L -43.5,9.96875 C -43.5,9.709062 -43.709063,9.5 -43.96875,9.5 L -44.5,9.5 L -44.5,5.5 L -40.5,5.5 L -40.5,6.03125 C -40.5,6.290938 -40.290937,6.5 -40.03125,6.5 L -38.96875,6.5 C -38.709063,6.5 -38.5,6.290938 -38.5,6.03125 L -38.5,5.5 L -36.5,5.5 L -36.5,6.03125 C -36.5,6.290938 -36.290937,6.5 -36.03125,6.5 L -34.96875,6.5 C -34.709063,6.5 -34.5,6.290938 -34.5,6.03125 L -34.5,5.5 L -32.5,5.5 L -32.5,6.03125 C -32.5,6.290938 -32.290937,6.5 -32.03125,6.5 L -30.96875,6.5 C -30.709063,6.5 -30.5,6.290938 -30.5,6.03125 L -30.5,5.5 L -28.5,5.5 L -28.5,6.03125 C -28.5,6.290938 -28.290937,6.5 -28.03125,6.5 L -26.96875,6.5 C -26.709063,6.5 -26.5,6.290938 -26.5,6.03125 L -26.5,5.5 L -24.5,5.5 L -24.5,6.03125 C -24.5,6.290938 -24.290937,6.5 -24.03125,6.5 L -22.96875,6.5 C -22.709063,6.5 -22.5,6.290938 -22.5,6.03125 L -22.5,5.5 L -20.5,5.5 L -20.5,6.03125 C -20.5,6.290938 -20.290937,6.5 -20.03125,6.5 L -18.96875,6.5 C -18.709063,6.5 -18.5,6.290938 -18.5,6.03125 L -18.5,5.5 L -16.5,5.5 L -16.5,6.03125 C -16.5,6.290938 -16.290937,6.5 -16.03125,6.5 L -14.96875,6.5 C -14.709062,6.5 -14.5,6.290938 -14.5,6.03125 L -14.5,5.5 L -12.5,5.5 L -12.5,6.03125 C -12.5,6.290938 -12.290938,6.5 -12.03125,6.5 L -10.96875,6.5 C -10.709062,6.5 -10.5,6.290938 -10.5,6.03125 L -10.5,5.5 L -7.5,5.5 L -7.5,8.5 L -8.03125,8.5 C -8.290937,8.5 -8.5,8.709062 -8.5,8.96875 L -8.5,10.03125 C -8.5,10.290938 -8.290937,10.5 -8.03125,10.5 L -7.5,10.5 L -7.5,12.5 L -8.03125,12.5 C -8.290937,12.5 -8.5,12.709062 -8.5,12.96875 L -8.5,14.03125 C -8.5,14.290937 -8.290937,14.5 -8.03125,14.5 L -7.5,14.5 L -7.5,16.5 L -8.03125,16.5 C -8.290937,16.5 -8.5,16.709063 -8.5,16.96875 L -8.5,18.03125 C -8.5,18.290937 -8.290937,18.5 -8.03125,18.5 L -7.5,18.5 L -7.5,20.5 L -8.03125,20.5 C -8.290937,20.5 -8.5,20.709063 -8.5,20.96875 L -8.5,22.03125 C -8.5,22.290937 -8.290937,22.5 -8.03125,22.5 L -7.5,22.5 L -7.5,24.5 L -8.03125,24.5 C -8.290937,24.5 -8.5,24.709063 -8.5,24.96875 L -8.5,26.03125 C -8.5,26.290937 -8.290937,26.5 -8.03125,26.5 L -7.5,26.5 L -7.5,28.5 L -8.03125,28.5 C -8.290937,28.5 -8.5,28.709063 -8.5,28.96875 L -8.5,30.03125 C -8.5,30.290937 -8.290937,30.5 -8.03125,30.5 L -7.5,30.5 L -7.5,32.5 L -8.03125,32.5 C -8.290937,32.5 -8.5,32.709063 -8.5,32.96875 L -8.5,34.03125 C -8.5,34.290937 -8.290937,34.5 -8.03125,34.5 L -7.5,34.5 L -7.5,36.5 L -8.03125,36.5 C -8.290937,36.5 -8.5,36.709063 -8.5,36.96875 L -8.5,38.03125 C -8.5,38.290937 -8.290937,38.5 -8.03125,38.5 L -7.5,38.5 L -7.5,42.5 L -11.5,42.5 L -11.5,41.96875 C -11.5,41.709063 -11.709062,41.5 -11.96875,41.5 L -13.03125,41.5 C -13.290938,41.5 -13.5,41.709063 -13.5,41.96875 L -13.5,42.5 L -15.5,42.5 L -15.5,41.96875 C -15.5,41.709063 -15.709062,41.5 -15.96875,41.5 L -17.03125,41.5 C -17.290937,41.5 -17.5,41.709063 -17.5,41.96875 L -17.5,42.5 L -19.5,42.5 L -19.5,41.96875 C -19.5,41.709063 -19.709063,41.5 -19.96875,41.5 L -21.03125,41.5 C -21.290937,41.5 -21.5,41.709063 -21.5,41.96875 L -21.5,42.5 L -23.5,42.5 L -23.5,41.96875 C -23.5,41.709063 -23.709063,41.5 -23.96875,41.5 L -25.03125,41.5 C -25.290937,41.5 -25.5,41.709063 -25.5,41.96875 L -25.5,42.5 L -27.5,42.5 L -27.5,41.96875 C -27.5,41.709063 -27.709063,41.5 -27.96875,41.5 L -29.03125,41.5 C -29.290937,41.5 -29.5,41.709063 -29.5,41.96875 L -29.5,42.5 L -31.5,42.5 L -31.5,41.96875 C -31.5,41.709063 -31.709063,41.5 -31.96875,41.5 L -33.03125,41.5 C -33.290937,41.5 -33.5,41.709063 -33.5,41.96875 L -33.5,42.5 L -35.5,42.5 L -35.5,41.96875 C -35.5,41.709063 -35.709063,41.5 -35.96875,41.5 L -37.03125,41.5 C -37.290937,41.5 -37.5,41.709063 -37.5,41.96875 L -37.5,42.5 L -39.5,42.5 L -39.5,41.96875 C -39.5,41.709063 -39.709063,41.5 -39.96875,41.5 L -41.03125,41.5 C -41.290937,41.5 -41.5,41.709063 -41.5,41.96875 L -41.5,42.5 L -44.5,42.5 z "
           id="rect7400" />
        <rect
           style="fill:url(#linearGradient8629);fill-opacity:1;stroke:#729fcf;stroke-width:0.99999994;stroke-linecap:round;stroke-linejoin:miter;stroke-miterlimit:4;stroke-dasharray:none;stroke-dashoffset:0.7;stroke-opacity:1"
           id="rect7471"
           width="26.966852"
           height="26.997641"
           x="-39.467426"
           y="10.50235"
           rx="0.66331834"
           ry="0.66331834" />
        <path
           style="fill:#ffffff;fill-opacity:1;stroke:none;stroke-width:1;stroke-linecap:round;stroke-linejoin:miter;stroke-miterlimit:4;stroke-dasharray:none;stroke-dashoffset:0.7;stroke-opacity:1"
           d="M -17.148747,17.45824 C -20.583908,17.45824 -23.371866,20.256107 -23.371866,23.703478 C -23.371866,25.328306 -22.765785,26.820706 -21.751262,27.932024 L -13,27.932024 L -13,19.084604 C -14.103212,18.086187 -15.547355,17.45824 -17.148747,17.45824 z "
           id="path7473" />
        <rect
           style="opacity:0.78448277;fill:url(#linearGradient8631);fill-opacity:1;stroke:none;stroke-width:1;stroke-linecap:round;stroke-linejoin:miter;stroke-miterlimit:4;stroke-dasharray:none;stroke-dashoffset:0.7;stroke-opacity:1"
           id="rect7475"
           width="25.967997"
           height="8.8678665"
           x="-38.967995"
           y="28.132133" />
        <rect
           style="opacity:0.2;fill:none;fill-opacity:1;stroke:#ffffff;stroke-width:0.99999988;stroke-linecap:round;stroke-linejoin:miter;stroke-miterlimit:4;stroke-dasharray:none;stroke-dashoffset:0.7;stroke-opacity:1"
           id="rect7477"
           width="24.967997"
           height="25.002342"
           x="-38.467995"
           y="11.5" />
        <path
           style="fill:#555753;fill-opacity:1;fill-rule:evenodd;stroke:none;stroke-width:0.1;stroke-linecap:butt;stroke-linejoin:miter;stroke-miterlimit:4;stroke-dasharray:none;stroke-opacity:1"
           d="M -36.355865,15.511552 C -33.9525,16.18997 -32.729594,16.078801 -30.968083,16.803088 C -28.548765,17.797848 -28.288581,18.829863 -26.567419,19.609988 C -26.600606,19.493008 -26.472193,19.373447 -25.980406,19.447352 C -25.754171,19.481349 -25.724704,19.967789 -25.724704,19.967789 C -23.957452,20.525777 -22.357312,20.275445 -21.350986,20.839727 C -19.239876,22.023508 -18.478658,23.036396 -16.292789,24.391498 C -18.605798,24.056493 -19.946387,22.936303 -21.866107,22.293615 C -23.544904,21.73158 -25.275694,21.682024 -25.724704,21.317669 L -26.43777,21.984479 L -26.113648,22.732607 C -27.349855,23.244521 -28.493272,23.058296 -29.225208,22.244698 L -28.123197,21.594152 L -27.886821,20.470805 C -29.407176,19.670419 -29.816824,19.021703 -31.135316,18.291458 C -32.62149,17.468339 -34.345411,17.301837 -36.355865,15.511552 z "
           id="path7479"
           sodipodi:nodetypes="cscscscsccccccsc" />
        <path
           transform="scale(0.9488849,1.0538685)"
           style="font-size:5.0182457px;font-style:normal;font-weight:bold;fill:#ffffff;fill-opacity:1;stroke:none;stroke-width:1px;stroke-linecap:butt;stroke-linejoin:miter;stroke-opacity:1;font-family:Bitstream Vera Sans"
           d="M -24.094409,29.481587 L -21.749457,29.481587 L -21.749457,30.175026 L -23.342162,30.175026 L -23.342162,30.741049 C -23.270287,30.721449 -23.198412,30.706747 -23.126534,30.696944 C -23.053026,30.685511 -22.977067,30.679794 -22.898655,30.679791 C -22.4527,30.679794 -22.105572,30.791691 -21.857271,31.015484 C -21.608975,31.237648 -21.484826,31.548021 -21.484823,31.946604 C -21.484826,32.341923 -21.62041,32.651479 -21.891575,32.875274 C -22.161113,33.099069 -22.53601,33.210967 -23.01627,33.210967 C -23.223732,33.210967 -23.429558,33.190548 -23.63375,33.149709 C -23.83631,33.110504 -24.038052,33.050063 -24.238977,32.968386 L -24.238977,32.22594 C -24.039686,32.340289 -23.851012,32.42605 -23.672955,32.483223 C -23.493266,32.540398 -23.324194,32.568985 -23.165739,32.568984 C -22.937045,32.568985 -22.757355,32.513445 -22.62667,32.402363 C -22.494355,32.289649 -22.428197,32.13773 -22.428194,31.946604 C -22.428197,31.753848 -22.494355,31.601928 -22.62667,31.490846 C -22.757355,31.379766 -22.937045,31.324226 -23.165739,31.324224 C -23.301325,31.324226 -23.445893,31.342195 -23.599445,31.378131 C -23.752999,31.412437 -23.917987,31.466344 -24.094409,31.539852 L -24.094409,29.481587 M -18.828681,31.307072 C -18.828684,30.849682 -18.871972,30.527874 -18.958548,30.341648 C -19.043494,30.153793 -19.187246,30.059865 -19.389803,30.059862 C -19.592364,30.059865 -19.736933,30.153793 -19.823509,30.341648 C -19.910088,30.527874 -19.953377,30.849682 -19.953376,31.307072 C -19.953377,31.769366 -19.910088,32.095258 -19.823509,32.284748 C -19.736933,32.47424 -19.592364,32.568985 -19.389803,32.568984 C -19.18888,32.568985 -19.045128,32.47424 -18.958548,32.284748 C -18.871972,32.095258 -18.828684,31.769366 -18.828681,31.307072 M -17.88531,31.314423 C -17.885313,31.920469 -18.015996,32.388479 -18.27736,32.718454 C -18.53873,33.046796 -18.909544,33.210967 -19.389803,33.210967 C -19.8717,33.210967 -20.243331,33.046796 -20.504697,32.718454 C -20.766064,32.388479 -20.896748,31.920469 -20.896747,31.314423 C -20.896748,30.706747 -20.766064,30.238737 -20.504697,29.910392 C -20.243331,29.58042 -19.8717,29.415432 -19.389803,29.415429 C -18.909544,29.415432 -18.53873,29.58042 -18.27736,29.910392 C -18.015996,30.238737 -17.885313,30.706747 -17.88531,31.314423 M -17.375644,31.338926 L -15.836846,31.338926 L -15.836846,32.051968 L -17.375644,32.051968 L -17.375644,31.338926"
           id="text7481" />
        <path
           sodipodi:type="inkscape:offset"
           inkscape:radius="-1.016466"
           inkscape:original="M -44.5 5.5 L -44.5 9.5 L -43.96875 9.5 C -43.709063 9.5 -43.5 9.709062 -43.5 9.96875 L -43.5 11.03125 C -43.5 11.290938 -43.709063 11.5 -43.96875 11.5 L -44.5 11.5 L -44.5 13.5 L -43.96875 13.5 C -43.709063 13.5 -43.5 13.709062 -43.5 13.96875 L -43.5 15.03125 C -43.5 15.290937 -43.709063 15.5 -43.96875 15.5 L -44.5 15.5 L -44.5 17.5 L -43.96875 17.5 C -43.709063 17.5 -43.5 17.709063 -43.5 17.96875 L -43.5 19.03125 C -43.5 19.290937 -43.709063 19.5 -43.96875 19.5 L -44.5 19.5 L -44.5 21.5 L -43.96875 21.5 C -43.709063 21.5 -43.5 21.709063 -43.5 21.96875 L -43.5 23.03125 C -43.5 23.290937 -43.709063 23.5 -43.96875 23.5 L -44.5 23.5 L -44.5 25.5 L -43.96875 25.5 C -43.709063 25.5 -43.5 25.709063 -43.5 25.96875 L -43.5 27.03125 C -43.5 27.290937 -43.709063 27.5 -43.96875 27.5 L -44.5 27.5 L -44.5 29.5 L -43.96875 29.5 C -43.709063 29.5 -43.5 29.709063 -43.5 29.96875 L -43.5 31.03125 C -43.5 31.290937 -43.709063 31.5 -43.96875 31.5 L -44.5 31.5 L -44.5 33.5 L -43.96875 33.5 C -43.709063 33.5 -43.5 33.709063 -43.5 33.96875 L -43.5 35.03125 C -43.5 35.290937 -43.709063 35.5 -43.96875 35.5 L -44.5 35.5 L -44.5 37.5 L -43.96875 37.5 C -43.709063 37.5 -43.5 37.709063 -43.5 37.96875 L -43.5 39.03125 C -43.5 39.290937 -43.709063 39.5 -43.96875 39.5 L -44.5 39.5 L -44.5 42.5 L -41.5 42.5 L -41.5 41.96875 C -41.5 41.709063 -41.290937 41.5 -41.03125 41.5 L -39.96875 41.5 C -39.709063 41.5 -39.5 41.709063 -39.5 41.96875 L -39.5 42.5 L -37.5 42.5 L -37.5 41.96875 C -37.5 41.709063 -37.290937 41.5 -37.03125 41.5 L -35.96875 41.5 C -35.709063 41.5 -35.5 41.709063 -35.5 41.96875 L -35.5 42.5 L -33.5 42.5 L -33.5 41.96875 C -33.5 41.709063 -33.290937 41.5 -33.03125 41.5 L -31.96875 41.5 C -31.709063 41.5 -31.5 41.709063 -31.5 41.96875 L -31.5 42.5 L -29.5 42.5 L -29.5 41.96875 C -29.5 41.709063 -29.290937 41.5 -29.03125 41.5 L -27.96875 41.5 C -27.709063 41.5 -27.5 41.709063 -27.5 41.96875 L -27.5 42.5 L -25.5 42.5 L -25.5 41.96875 C -25.5 41.709063 -25.290937 41.5 -25.03125 41.5 L -23.96875 41.5 C -23.709063 41.5 -23.5 41.709063 -23.5 41.96875 L -23.5 42.5 L -21.5 42.5 L -21.5 41.96875 C -21.5 41.709063 -21.290937 41.5 -21.03125 41.5 L -19.96875 41.5 C -19.709063 41.5 -19.5 41.709063 -19.5 41.96875 L -19.5 42.5 L -17.5 42.5 L -17.5 41.96875 C -17.5 41.709063 -17.290937 41.5 -17.03125 41.5 L -15.96875 41.5 C -15.709062 41.5 -15.5 41.709063 -15.5 41.96875 L -15.5 42.5 L -13.5 42.5 L -13.5 41.96875 C -13.5 41.709063 -13.290938 41.5 -13.03125 41.5 L -11.96875 41.5 C -11.709062 41.5 -11.5 41.709063 -11.5 41.96875 L -11.5 42.5 L -7.5 42.5 L -7.5 38.5 L -8.03125 38.5 C -8.290937 38.5 -8.5 38.290937 -8.5 38.03125 L -8.5 36.96875 C -8.5 36.709063 -8.290937 36.5 -8.03125 36.5 L -7.5 36.5 L -7.5 34.5 L -8.03125 34.5 C -8.290937 34.5 -8.5 34.290937 -8.5 34.03125 L -8.5 32.96875 C -8.5 32.709063 -8.290937 32.5 -8.03125 32.5 L -7.5 32.5 L -7.5 30.5 L -8.03125 30.5 C -8.290937 30.5 -8.5 30.290937 -8.5 30.03125 L -8.5 28.96875 C -8.5 28.709063 -8.290937 28.5 -8.03125 28.5 L -7.5 28.5 L -7.5 26.5 L -8.03125 26.5 C -8.290937 26.5 -8.5 26.290937 -8.5 26.03125 L -8.5 24.96875 C -8.5 24.709063 -8.290937 24.5 -8.03125 24.5 L -7.5 24.5 L -7.5 22.5 L -8.03125 22.5 C -8.290937 22.5 -8.5 22.290937 -8.5 22.03125 L -8.5 20.96875 C -8.5 20.709063 -8.290937 20.5 -8.03125 20.5 L -7.5 20.5 L -7.5 18.5 L -8.03125 18.5 C -8.290937 18.5 -8.5 18.290937 -8.5 18.03125 L -8.5 16.96875 C -8.5 16.709063 -8.290937 16.5 -8.03125 16.5 L -7.5 16.5 L -7.5 14.5 L -8.03125 14.5 C -8.290937 14.5 -8.5 14.290937 -8.5 14.03125 L -8.5 12.96875 C -8.5 12.709062 -8.290937 12.5 -8.03125 12.5 L -7.5 12.5 L -7.5 10.5 L -8.03125 10.5 C -8.290937 10.5 -8.5 10.290938 -8.5 10.03125 L -8.5 8.96875 C -8.5 8.709062 -8.290937 8.5 -8.03125 8.5 L -7.5 8.5 L -7.5 5.5 L -10.5 5.5 L -10.5 6.03125 C -10.5 6.290938 -10.709062 6.5 -10.96875 6.5 L -12.03125 6.5 C -12.290938 6.5 -12.5 6.290938 -12.5 6.03125 L -12.5 5.5 L -14.5 5.5 L -14.5 6.03125 C -14.5 6.290938 -14.709062 6.5 -14.96875 6.5 L -16.03125 6.5 C -16.290937 6.5 -16.5 6.290938 -16.5 6.03125 L -16.5 5.5 L -18.5 5.5 L -18.5 6.03125 C -18.5 6.290938 -18.709063 6.5 -18.96875 6.5 L -20.03125 6.5 C -20.290937 6.5 -20.5 6.290938 -20.5 6.03125 L -20.5 5.5 L -22.5 5.5 L -22.5 6.03125 C -22.5 6.290938 -22.709063 6.5 -22.96875 6.5 L -24.03125 6.5 C -24.290937 6.5 -24.5 6.290938 -24.5 6.03125 L -24.5 5.5 L -26.5 5.5 L -26.5 6.03125 C -26.5 6.290938 -26.709063 6.5 -26.96875 6.5 L -28.03125 6.5 C -28.290937 6.5 -28.5 6.290938 -28.5 6.03125 L -28.5 5.5 L -30.5 5.5 L -30.5 6.03125 C -30.5 6.290938 -30.709063 6.5 -30.96875 6.5 L -32.03125 6.5 C -32.290937 6.5 -32.5 6.290938 -32.5 6.03125 L -32.5 5.5 L -34.5 5.5 L -34.5 6.03125 C -34.5 6.290938 -34.709063 6.5 -34.96875 6.5 L -36.03125 6.5 C -36.290937 6.5 -36.5 6.290938 -36.5 6.03125 L -36.5 5.5 L -38.5 5.5 L -38.5 6.03125 C -38.5 6.290938 -38.709063 6.5 -38.96875 6.5 L -40.03125 6.5 C -40.290937 6.5 -40.5 6.290938 -40.5 6.03125 L -40.5 5.5 L -44.5 5.5 z "
           style="opacity:1;fill:none;fill-opacity:1;stroke:#ffffff;stroke-width:1;stroke-linecap:round;stroke-linejoin:miter;stroke-miterlimit:4;stroke-dasharray:none;stroke-dashoffset:0.7;stroke-opacity:1"
           id="path8496"
           d="M -43.46875,6.53125 L -43.46875,8.6875 C -42.927708,8.9117394 -42.46875,9.357475 -42.46875,9.96875 L -42.46875,11.03125 C -42.46875,11.642525 -42.927708,12.088261 -43.46875,12.3125 L -43.46875,12.6875 C -42.927708,12.911739 -42.46875,13.357475 -42.46875,13.96875 L -42.46875,15.03125 C -42.46875,15.642526 -42.927708,16.088261 -43.46875,16.3125 L -43.46875,16.6875 C -42.927708,16.911739 -42.46875,17.357474 -42.46875,17.96875 L -42.46875,19.03125 C -42.46875,19.642526 -42.927708,20.088261 -43.46875,20.3125 L -43.46875,20.6875 C -42.927708,20.911739 -42.46875,21.357474 -42.46875,21.96875 L -42.46875,23.03125 C -42.46875,23.642526 -42.927708,24.088261 -43.46875,24.3125 L -43.46875,24.6875 C -42.927708,24.911739 -42.46875,25.357474 -42.46875,25.96875 L -42.46875,27.03125 C -42.46875,27.642526 -42.927708,28.088261 -43.46875,28.3125 L -43.46875,28.6875 C -42.927708,28.911739 -42.46875,29.357474 -42.46875,29.96875 L -42.46875,31.03125 C -42.46875,31.642526 -42.927708,32.088261 -43.46875,32.3125 L -43.46875,32.6875 C -42.927708,32.911739 -42.46875,33.357474 -42.46875,33.96875 L -42.46875,35.03125 C -42.46875,35.642526 -42.927708,36.088261 -43.46875,36.3125 L -43.46875,36.6875 C -42.927708,36.911739 -42.46875,37.357474 -42.46875,37.96875 L -42.46875,39.03125 C -42.46875,39.642526 -42.927708,40.088261 -43.46875,40.3125 L -43.46875,41.46875 L -42.3125,41.46875 C -42.088261,40.927708 -41.642526,40.46875 -41.03125,40.46875 L -39.96875,40.46875 C -39.357474,40.46875 -38.911739,40.927708 -38.6875,41.46875 L -38.3125,41.46875 C -38.088261,40.927708 -37.642526,40.46875 -37.03125,40.46875 L -35.96875,40.46875 C -35.357474,40.46875 -34.911739,40.927708 -34.6875,41.46875 L -34.3125,41.46875 C -34.088261,40.927708 -33.642526,40.46875 -33.03125,40.46875 L -31.96875,40.46875 C -31.357474,40.46875 -30.911739,40.927708 -30.6875,41.46875 L -30.3125,41.46875 C -30.088261,40.927708 -29.642526,40.46875 -29.03125,40.46875 L -27.96875,40.46875 C -27.357474,40.46875 -26.911739,40.927708 -26.6875,41.46875 L -26.3125,41.46875 C -26.088261,40.927708 -25.642526,40.46875 -25.03125,40.46875 L -23.96875,40.46875 C -23.357474,40.46875 -22.911739,40.927708 -22.6875,41.46875 L -22.3125,41.46875 C -22.088261,40.927708 -21.642526,40.46875 -21.03125,40.46875 L -19.96875,40.46875 C -19.357474,40.46875 -18.911739,40.927708 -18.6875,41.46875 L -18.3125,41.46875 C -18.088261,40.927708 -17.642526,40.46875 -17.03125,40.46875 L -15.96875,40.46875 C -15.357475,40.46875 -14.911739,40.927708 -14.6875,41.46875 L -14.3125,41.46875 C -14.088261,40.927708 -13.642525,40.46875 -13.03125,40.46875 L -11.96875,40.46875 C -11.357475,40.46875 -10.911739,40.927708 -10.6875,41.46875 L -8.53125,41.46875 L -8.53125,39.3125 C -9.0722919,39.088261 -9.53125,38.642526 -9.53125,38.03125 L -9.53125,36.96875 C -9.53125,36.357474 -9.0722919,35.911739 -8.53125,35.6875 L -8.53125,35.3125 C -9.0722919,35.088261 -9.53125,34.642526 -9.53125,34.03125 L -9.53125,32.96875 C -9.53125,32.357474 -9.0722919,31.911739 -8.53125,31.6875 L -8.53125,31.3125 C -9.0722919,31.088261 -9.53125,30.642526 -9.53125,30.03125 L -9.53125,28.96875 C -9.53125,28.357474 -9.0722919,27.911739 -8.53125,27.6875 L -8.53125,27.3125 C -9.0722919,27.088261 -9.53125,26.642526 -9.53125,26.03125 L -9.53125,24.96875 C -9.53125,24.357474 -9.0722919,23.911739 -8.53125,23.6875 L -8.53125,23.3125 C -9.0722919,23.088261 -9.53125,22.642526 -9.53125,22.03125 L -9.53125,20.96875 C -9.53125,20.357474 -9.0722919,19.911739 -8.53125,19.6875 L -8.53125,19.3125 C -9.0722919,19.088261 -9.53125,18.642526 -9.53125,18.03125 L -9.53125,16.96875 C -9.53125,16.357474 -9.0722919,15.911739 -8.53125,15.6875 L -8.53125,15.3125 C -9.0722919,15.088261 -9.53125,14.642526 -9.53125,14.03125 L -9.53125,12.96875 C -9.53125,12.357475 -9.0722915,11.911739 -8.53125,11.6875 L -8.53125,11.3125 C -9.0722915,11.088261 -9.53125,10.642525 -9.53125,10.03125 L -9.53125,8.96875 C -9.53125,8.357475 -9.0722915,7.9117394 -8.53125,7.6875 L -8.53125,6.53125 L -9.6875,6.53125 C -9.9117401,7.0722913 -10.357477,7.53125 -10.96875,7.53125 L -12.03125,7.53125 C -12.642523,7.53125 -13.08826,7.0722913 -13.3125,6.53125 L -13.6875,6.53125 C -13.91174,7.0722913 -14.357477,7.53125 -14.96875,7.53125 L -16.03125,7.53125 C -16.642524,7.53125 -17.08826,7.0722918 -17.3125,6.53125 L -17.6875,6.53125 C -17.91174,7.0722918 -18.357476,7.53125 -18.96875,7.53125 L -20.03125,7.53125 C -20.642524,7.53125 -21.08826,7.0722918 -21.3125,6.53125 L -21.6875,6.53125 C -21.91174,7.0722918 -22.357476,7.53125 -22.96875,7.53125 L -24.03125,7.53125 C -24.642524,7.53125 -25.08826,7.0722918 -25.3125,6.53125 L -25.6875,6.53125 C -25.91174,7.0722918 -26.357476,7.53125 -26.96875,7.53125 L -28.03125,7.53125 C -28.642524,7.53125 -29.08826,7.0722918 -29.3125,6.53125 L -29.6875,6.53125 C -29.91174,7.0722918 -30.357476,7.53125 -30.96875,7.53125 L -32.03125,7.53125 C -32.642524,7.53125 -33.08826,7.0722918 -33.3125,6.53125 L -33.6875,6.53125 C -33.91174,7.0722918 -34.357476,7.53125 -34.96875,7.53125 L -36.03125,7.53125 C -36.642524,7.53125 -37.08826,7.0722918 -37.3125,6.53125 L -37.6875,6.53125 C -37.91174,7.0722918 -38.357476,7.53125 -38.96875,7.53125 L -40.03125,7.53125 C -40.642524,7.53125 -41.08826,7.0722918 -41.3125,6.53125 L -43.46875,6.53125 z " />
        <path
           sodipodi:type="inkscape:offset"
           inkscape:radius="-0.5"
           inkscape:original="M -44.5 5.5 L -44.5 9.5 L -43.96875 9.5 C -43.709063 9.5 -43.5 9.709062 -43.5 9.96875 L -43.5 11.03125 C -43.5 11.290938 -43.709063 11.5 -43.96875 11.5 L -44.5 11.5 L -44.5 13.5 L -43.96875 13.5 C -43.709063 13.5 -43.5 13.709062 -43.5 13.96875 L -43.5 15.03125 C -43.5 15.290937 -43.709063 15.5 -43.96875 15.5 L -44.5 15.5 L -44.5 17.5 L -43.96875 17.5 C -43.709063 17.5 -43.5 17.709063 -43.5 17.96875 L -43.5 19.03125 C -43.5 19.290937 -43.709063 19.5 -43.96875 19.5 L -44.5 19.5 L -44.5 21.5 L -43.96875 21.5 C -43.709063 21.5 -43.5 21.709063 -43.5 21.96875 L -43.5 23.03125 C -43.5 23.290937 -43.709063 23.5 -43.96875 23.5 L -44.5 23.5 L -44.5 25.5 L -43.96875 25.5 C -43.709063 25.5 -43.5 25.709063 -43.5 25.96875 L -43.5 27.03125 C -43.5 27.290937 -43.709063 27.5 -43.96875 27.5 L -44.5 27.5 L -44.5 29.5 L -43.96875 29.5 C -43.709063 29.5 -43.5 29.709063 -43.5 29.96875 L -43.5 31.03125 C -43.5 31.290937 -43.709063 31.5 -43.96875 31.5 L -44.5 31.5 L -44.5 33.5 L -43.96875 33.5 C -43.709063 33.5 -43.5 33.709063 -43.5 33.96875 L -43.5 35.03125 C -43.5 35.290937 -43.709063 35.5 -43.96875 35.5 L -44.5 35.5 L -44.5 37.5 L -43.96875 37.5 C -43.709063 37.5 -43.5 37.709063 -43.5 37.96875 L -43.5 39.03125 C -43.5 39.290937 -43.709063 39.5 -43.96875 39.5 L -44.5 39.5 L -44.5 42.5 L -41.5 42.5 L -41.5 41.96875 C -41.5 41.709063 -41.290937 41.5 -41.03125 41.5 L -39.96875 41.5 C -39.709063 41.5 -39.5 41.709063 -39.5 41.96875 L -39.5 42.5 L -37.5 42.5 L -37.5 41.96875 C -37.5 41.709063 -37.290937 41.5 -37.03125 41.5 L -35.96875 41.5 C -35.709063 41.5 -35.5 41.709063 -35.5 41.96875 L -35.5 42.5 L -33.5 42.5 L -33.5 41.96875 C -33.5 41.709063 -33.290937 41.5 -33.03125 41.5 L -31.96875 41.5 C -31.709063 41.5 -31.5 41.709063 -31.5 41.96875 L -31.5 42.5 L -29.5 42.5 L -29.5 41.96875 C -29.5 41.709063 -29.290937 41.5 -29.03125 41.5 L -27.96875 41.5 C -27.709063 41.5 -27.5 41.709063 -27.5 41.96875 L -27.5 42.5 L -25.5 42.5 L -25.5 41.96875 C -25.5 41.709063 -25.290937 41.5 -25.03125 41.5 L -23.96875 41.5 C -23.709063 41.5 -23.5 41.709063 -23.5 41.96875 L -23.5 42.5 L -21.5 42.5 L -21.5 41.96875 C -21.5 41.709063 -21.290937 41.5 -21.03125 41.5 L -19.96875 41.5 C -19.709063 41.5 -19.5 41.709063 -19.5 41.96875 L -19.5 42.5 L -17.5 42.5 L -17.5 41.96875 C -17.5 41.709063 -17.290937 41.5 -17.03125 41.5 L -15.96875 41.5 C -15.709062 41.5 -15.5 41.709063 -15.5 41.96875 L -15.5 42.5 L -13.5 42.5 L -13.5 41.96875 C -13.5 41.709063 -13.290938 41.5 -13.03125 41.5 L -11.96875 41.5 C -11.709062 41.5 -11.5 41.709063 -11.5 41.96875 L -11.5 42.5 L -7.5 42.5 L -7.5 38.5 L -8.03125 38.5 C -8.290937 38.5 -8.5 38.290937 -8.5 38.03125 L -8.5 36.96875 C -8.5 36.709063 -8.290937 36.5 -8.03125 36.5 L -7.5 36.5 L -7.5 34.5 L -8.03125 34.5 C -8.290937 34.5 -8.5 34.290937 -8.5 34.03125 L -8.5 32.96875 C -8.5 32.709063 -8.290937 32.5 -8.03125 32.5 L -7.5 32.5 L -7.5 30.5 L -8.03125 30.5 C -8.290937 30.5 -8.5 30.290937 -8.5 30.03125 L -8.5 28.96875 C -8.5 28.709063 -8.290937 28.5 -8.03125 28.5 L -7.5 28.5 L -7.5 26.5 L -8.03125 26.5 C -8.290937 26.5 -8.5 26.290937 -8.5 26.03125 L -8.5 24.96875 C -8.5 24.709063 -8.290937 24.5 -8.03125 24.5 L -7.5 24.5 L -7.5 22.5 L -8.03125 22.5 C -8.290937 22.5 -8.5 22.290937 -8.5 22.03125 L -8.5 20.96875 C -8.5 20.709063 -8.290937 20.5 -8.03125 20.5 L -7.5 20.5 L -7.5 18.5 L -8.03125 18.5 C -8.290937 18.5 -8.5 18.290937 -8.5 18.03125 L -8.5 16.96875 C -8.5 16.709063 -8.290937 16.5 -8.03125 16.5 L -7.5 16.5 L -7.5 14.5 L -8.03125 14.5 C -8.290937 14.5 -8.5 14.290937 -8.5 14.03125 L -8.5 12.96875 C -8.5 12.709062 -8.290937 12.5 -8.03125 12.5 L -7.5 12.5 L -7.5 10.5 L -8.03125 10.5 C -8.290937 10.5 -8.5 10.290938 -8.5 10.03125 L -8.5 8.96875 C -8.5 8.709062 -8.290937 8.5 -8.03125 8.5 L -7.5 8.5 L -7.5 5.5 L -10.5 5.5 L -10.5 6.03125 C -10.5 6.290938 -10.709062 6.5 -10.96875 6.5 L -12.03125 6.5 C -12.290938 6.5 -12.5 6.290938 -12.5 6.03125 L -12.5 5.5 L -14.5 5.5 L -14.5 6.03125 C -14.5 6.290938 -14.709062 6.5 -14.96875 6.5 L -16.03125 6.5 C -16.290937 6.5 -16.5 6.290938 -16.5 6.03125 L -16.5 5.5 L -18.5 5.5 L -18.5 6.03125 C -18.5 6.290938 -18.709063 6.5 -18.96875 6.5 L -20.03125 6.5 C -20.290937 6.5 -20.5 6.290938 -20.5 6.03125 L -20.5 5.5 L -22.5 5.5 L -22.5 6.03125 C -22.5 6.290938 -22.709063 6.5 -22.96875 6.5 L -24.03125 6.5 C -24.290937 6.5 -24.5 6.290938 -24.5 6.03125 L -24.5 5.5 L -26.5 5.5 L -26.5 6.03125 C -26.5 6.290938 -26.709063 6.5 -26.96875 6.5 L -28.03125 6.5 C -28.290937 6.5 -28.5 6.290938 -28.5 6.03125 L -28.5 5.5 L -30.5 5.5 L -30.5 6.03125 C -30.5 6.290938 -30.709063 6.5 -30.96875 6.5 L -32.03125 6.5 C -32.290937 6.5 -32.5 6.290938 -32.5 6.03125 L -32.5 5.5 L -34.5 5.5 L -34.5 6.03125 C -34.5 6.290938 -34.709063 6.5 -34.96875 6.5 L -36.03125 6.5 C -36.290937 6.5 -36.5 6.290938 -36.5 6.03125 L -36.5 5.5 L -38.5 5.5 L -38.5 6.03125 C -38.5 6.290938 -38.709063 6.5 -38.96875 6.5 L -40.03125 6.5 C -40.290937 6.5 -40.5 6.290938 -40.5 6.03125 L -40.5 5.5 L -44.5 5.5 z "
           style="opacity:0.3;fill:url(#radialGradient8633);fill-opacity:1;stroke:none;stroke-width:1;stroke-linecap:round;stroke-linejoin:miter;stroke-miterlimit:4;stroke-dasharray:none;stroke-dashoffset:0.7;stroke-opacity:1"
           id="path8503"
           d="M -44,6 L -44,9 L -43.96875,9 C -43.440712,9 -43,9.4407105 -43,9.96875 L -43,11.03125 C -43,11.55929 -43.440712,12 -43.96875,12 L -44,12 L -44,13 L -43.96875,13 C -43.440712,13 -43,13.44071 -43,13.96875 L -43,15.03125 C -43,15.55929 -43.44071,16 -43.96875,16 L -44,16 L -44,17 L -43.96875,17 C -43.44071,17 -43,17.44071 -43,17.96875 L -43,19.03125 C -43,19.55929 -43.44071,20 -43.96875,20 L -44,20 L -44,21 L -43.96875,21 C -43.44071,21 -43,21.44071 -43,21.96875 L -43,23.03125 C -43,23.55929 -43.44071,24 -43.96875,24 L -44,24 L -44,25 L -43.96875,25 C -43.44071,25 -43,25.44071 -43,25.96875 L -43,27.03125 C -43,27.55929 -43.44071,28 -43.96875,28 L -44,28 L -44,29 L -43.96875,29 C -43.44071,29 -43,29.44071 -43,29.96875 L -43,31.03125 C -43,31.55929 -43.44071,32 -43.96875,32 L -44,32 L -44,33 L -43.96875,33 C -43.44071,33 -43,33.44071 -43,33.96875 L -43,35.03125 C -43,35.55929 -43.44071,36 -43.96875,36 L -44,36 L -44,37 L -43.96875,37 C -43.44071,37 -43,37.44071 -43,37.96875 L -43,39.03125 C -43,39.55929 -43.44071,40 -43.96875,40 L -44,40 L -44,42 L -42,42 L -42,41.96875 C -42,41.44071 -41.55929,41 -41.03125,41 L -39.96875,41 C -39.44071,41 -39,41.44071 -39,41.96875 L -39,42 L -38,42 L -38,41.96875 C -38,41.44071 -37.55929,41 -37.03125,41 L -35.96875,41 C -35.44071,41 -35,41.44071 -35,41.96875 L -35,42 L -34,42 L -34,41.96875 C -34,41.44071 -33.55929,41 -33.03125,41 L -31.96875,41 C -31.44071,41 -31,41.44071 -31,41.96875 L -31,42 L -30,42 L -30,41.96875 C -30,41.44071 -29.55929,41 -29.03125,41 L -27.96875,41 C -27.44071,41 -27,41.44071 -27,41.96875 L -27,42 L -26,42 L -26,41.96875 C -26,41.44071 -25.55929,41 -25.03125,41 L -23.96875,41 C -23.44071,41 -23,41.44071 -23,41.96875 L -23,42 L -22,42 L -22,41.96875 C -22,41.44071 -21.55929,41 -21.03125,41 L -19.96875,41 C -19.44071,41 -19,41.44071 -19,41.96875 L -19,42 L -18,42 L -18,41.96875 C -18,41.44071 -17.55929,41 -17.03125,41 L -15.96875,41 C -15.44071,41 -15,41.440712 -15,41.96875 L -15,42 L -14,42 L -14,41.96875 C -14,41.440712 -13.55929,41 -13.03125,41 L -11.96875,41 C -11.44071,41 -11,41.440712 -11,41.96875 L -11,42 L -8,42 L -8,39 L -8.03125,39 C -8.5592895,39 -9,38.55929 -9,38.03125 L -9,36.96875 C -9,36.44071 -8.5592895,36 -8.03125,36 L -8,36 L -8,35 L -8.03125,35 C -8.5592895,35 -9,34.55929 -9,34.03125 L -9,32.96875 C -9,32.44071 -8.5592895,32 -8.03125,32 L -8,32 L -8,31 L -8.03125,31 C -8.5592895,31 -9,30.55929 -9,30.03125 L -9,28.96875 C -9,28.44071 -8.5592895,28 -8.03125,28 L -8,28 L -8,27 L -8.03125,27 C -8.5592895,27 -9,26.55929 -9,26.03125 L -9,24.96875 C -9,24.44071 -8.5592895,24 -8.03125,24 L -8,24 L -8,23 L -8.03125,23 C -8.5592895,23 -9,22.55929 -9,22.03125 L -9,20.96875 C -9,20.44071 -8.5592895,20 -8.03125,20 L -8,20 L -8,19 L -8.03125,19 C -8.5592895,19 -9,18.55929 -9,18.03125 L -9,16.96875 C -9,16.44071 -8.5592895,16 -8.03125,16 L -8,16 L -8,15 L -8.03125,15 C -8.5592895,15 -9,14.55929 -9,14.03125 L -9,12.96875 C -9,12.44071 -8.5592883,12 -8.03125,12 L -8,12 L -8,11 L -8.03125,11 C -8.5592883,11 -9,10.55929 -9,10.03125 L -9,8.96875 C -9,8.4407105 -8.5592883,8 -8.03125,8 L -8,8 L -8,6 L -10,6 L -10,6.03125 C -10,6.5592882 -10.440712,7 -10.96875,7 L -12.03125,7 C -12.559288,7 -13,6.5592882 -13,6.03125 L -13,6 L -14,6 L -14,6.03125 C -14,6.5592882 -14.440712,7 -14.96875,7 L -16.03125,7 C -16.559288,7 -17,6.5592895 -17,6.03125 L -17,6 L -18,6 L -18,6.03125 C -18,6.5592895 -18.440712,7 -18.96875,7 L -20.03125,7 C -20.559288,7 -21,6.5592895 -21,6.03125 L -21,6 L -22,6 L -22,6.03125 C -22,6.5592895 -22.440712,7 -22.96875,7 L -24.03125,7 C -24.559288,7 -25,6.5592895 -25,6.03125 L -25,6 L -26,6 L -26,6.03125 C -26,6.5592895 -26.440712,7 -26.96875,7 L -28.03125,7 C -28.559288,7 -29,6.5592895 -29,6.03125 L -29,6 L -30,6 L -30,6.03125 C -30,6.5592895 -30.440712,7 -30.96875,7 L -32.03125,7 C -32.559288,7 -33,6.5592895 -33,6.03125 L -33,6 L -34,6 L -34,6.03125 C -34,6.5592895 -34.440712,7 -34.96875,7 L -36.03125,7 C -36.559288,7 -37,6.5592895 -37,6.03125 L -37,6 L -38,6 L -38,6.03125 C -38,6.5592895 -38.440712,7 -38.96875,7 L -40.03125,7 C -40.559288,7 -41,6.5592895 -41,6.03125 L -41,6 L -44,6 z " />
      </g>
    </g>
  </g>
</svg>
