<?xml version="1.0" encoding="UTF-8" standalone="no"?>
<!-- Created with Inkscape (http://www.inkscape.org/) -->
<svg
   xmlns:dc="http://purl.org/dc/elements/1.1/"
   xmlns:cc="http://web.resource.org/cc/"
   xmlns:rdf="http://www.w3.org/1999/02/22-rdf-syntax-ns#"
   xmlns:svg="http://www.w3.org/2000/svg"
   xmlns="http://www.w3.org/2000/svg"
   xmlns:xlink="http://www.w3.org/1999/xlink"
   xmlns:sodipodi="http://sodipodi.sourceforge.net/DTD/sodipodi-0.dtd"
   xmlns:inkscape="http://www.inkscape.org/namespaces/inkscape"
   version="1.0"
   width="48"
   height="48"
   id="svg2"
   sodipodi:version="0.32"
   inkscape:version="0.45"
   sodipodi:docname="system-search.svg"
   sodipodi:docbase="/home/dobey/Projects/gnome-icon-theme/scalable/actions"
   inkscape:output_extension="org.inkscape.output.svg.inkscape">
  <metadata
     id="metadata252">
    <rdf:RDF>
      <cc:Work
         rdf:about="">
        <dc:format>image/svg+xml</dc:format>
        <dc:type
           rdf:resource="http://purl.org/dc/dcmitype/StillImage" />
        <dc:title>System Search</dc:title>
        <dc:creator>
          <cc:Agent>
            <dc:title>Lapo Calamandrei</dc:title>
          </cc:Agent>
        </dc:creator>
        <dc:subject>
          <rdf:Bag>
            <rdf:li>search</rdf:li>
            <rdf:li>find</rdf:li>
            <rdf:li>system</rdf:li>
            <rdf:li>binoculars</rdf:li>
            <rdf:li>gear</rdf:li>
          </rdf:Bag>
        </dc:subject>
        <cc:license
           rdf:resource="http://creativecommons.org/licenses/GPL/2.0/" />
      </cc:Work>
      <cc:License
         rdf:about="http://creativecommons.org/licenses/GPL/2.0/">
        <cc:permits
           rdf:resource="http://web.resource.org/cc/Reproduction" />
        <cc:permits
           rdf:resource="http://web.resource.org/cc/Distribution" />
        <cc:requires
           rdf:resource="http://web.resource.org/cc/Notice" />
        <cc:permits
           rdf:resource="http://web.resource.org/cc/DerivativeWorks" />
        <cc:requires
           rdf:resource="http://web.resource.org/cc/ShareAlike" />
        <cc:requires
           rdf:resource="http://web.resource.org/cc/SourceCode" />
      </cc:License>
    </rdf:RDF>
  </metadata>
  <sodipodi:namedview
     inkscape:window-height="619"
     inkscape:window-width="872"
     inkscape:pageshadow="2"
     inkscape:pageopacity="0.0"
     guidetolerance="10.0"
     gridtolerance="10.0"
     objecttolerance="10.0"
     borderopacity="1.0"
     bordercolor="#666666"
     pagecolor="#ffffff"
     id="base"
     showborder="false"
     gridspacingx="0.5px"
     gridspacingy="0.5px"
     gridempspacing="2"
     inkscape:showpageshadow="false"
     borderlayer="true"
     inkscape:zoom="1"
     inkscape:cx="35.057511"
     inkscape:cy="34.425048"
     inkscape:window-x="10"
     inkscape:window-y="40"
     inkscape:current-layer="svg2"
     showguides="true"
     inkscape:guide-bbox="true" />
  <defs
     id="defs4">
    <linearGradient
       id="linearGradient5493">
      <stop
         id="stop5495"
         offset="0"
         style="stop-color:#d3d7cf;stop-opacity:1" />
      <stop
         style="stop-color:#f6eef0;stop-opacity:1;"
         offset="0.26851073"
         id="stop5497" />
      <stop
         style="stop-color:#ffffff;stop-opacity:1;"
         offset="0.34727389"
         id="stop5499" />
      <stop
         id="stop5501"
         offset="0.59278351"
         style="stop-color:#eedee2;stop-opacity:1;" />
      <stop
         id="stop5503"
         offset="1"
         style="stop-color:#cb9ea7;stop-opacity:1" />
    </linearGradient>
    <linearGradient
       id="linearGradient7672">
      <stop
         style="stop-color:#000000;stop-opacity:1"
         offset="0"
         id="stop7674" />
      <stop
         style="stop-color:#000000;stop-opacity:0"
         offset="1"
         id="stop7676" />
    </linearGradient>
    <linearGradient
       id="linearGradient7598">
      <stop
         style="stop-color:#ffffff;stop-opacity:1"
         offset="0"
         id="stop7600" />
      <stop
         style="stop-color:#ffffff;stop-opacity:0"
         offset="1"
         id="stop7602" />
    </linearGradient>
    <linearGradient
       id="linearGradient7586">
      <stop
         style="stop-color:#ffffff;stop-opacity:1"
         offset="0"
         id="stop7588" />
      <stop
         style="stop-color:#ffffff;stop-opacity:0"
         offset="1"
         id="stop7590" />
    </linearGradient>
    <linearGradient
       id="linearGradient2818">
      <stop
         style="stop-color:#ffffff;stop-opacity:1"
         offset="0"
         id="stop2820" />
      <stop
         style="stop-color:#ffffff;stop-opacity:0"
         offset="1"
         id="stop2822" />
    </linearGradient>
    <linearGradient
       id="linearGradient2631">
      <stop
         style="stop-color:#010101;stop-opacity:1"
         offset="0"
         id="stop2633" />
      <stop
         style="stop-color:#959595;stop-opacity:1"
         offset="1"
         id="stop2635" />
    </linearGradient>
    <linearGradient
       id="linearGradient2591">
      <stop
         style="stop-color:#7a7a7a;stop-opacity:1"
         offset="0"
         id="stop2593" />
      <stop
         style="stop-color:#000000;stop-opacity:1"
         offset="1"
         id="stop2595" />
    </linearGradient>
    <linearGradient
       id="linearGradient6949">
      <stop
         style="stop-color:#888a85;stop-opacity:1"
         offset="0"
         id="stop6951" />
      <stop
         style="stop-color:#555753;stop-opacity:1"
         offset="1"
         id="stop6953" />
    </linearGradient>
    <linearGradient
       id="linearGradient6985">
      <stop
         style="stop-color:#888a85;stop-opacity:1"
         offset="0"
         id="stop6987" />
      <stop
         style="stop-color:#babdb6;stop-opacity:1"
         offset="0.34042552"
         id="stop6991" />
      <stop
         style="stop-color:#555753;stop-opacity:1"
         offset="1"
         id="stop6989" />
    </linearGradient>
    <linearGradient
       id="linearGradient7428">
      <stop
         style="stop-color:#888a85;stop-opacity:0"
         offset="0"
         id="stop7430" />
      <stop
         style="stop-color:#babdb6;stop-opacity:1"
         offset="1"
         id="stop7432" />
    </linearGradient>
    <linearGradient
       id="linearGradient7469">
      <stop
         style="stop-color:#555753;stop-opacity:1"
         offset="0"
         id="stop7471" />
      <stop
         style="stop-color:#888a85;stop-opacity:1"
         offset="1"
         id="stop7473" />
    </linearGradient>
    <linearGradient
       id="linearGradient7743">
      <stop
         style="stop-color:#ffffff;stop-opacity:1"
         offset="0"
         id="stop7745" />
      <stop
         style="stop-color:#ffffff;stop-opacity:0"
         offset="1"
         id="stop7747" />
    </linearGradient>
    <linearGradient
       id="linearGradient7769">
      <stop
         style="stop-color:#ffffff;stop-opacity:1"
         offset="0"
         id="stop7771" />
      <stop
         style="stop-color:#ffffff;stop-opacity:0"
         offset="1"
         id="stop7773" />
    </linearGradient>
    <linearGradient
       id="linearGradient7798">
      <stop
         style="stop-color:#f9f9f9;stop-opacity:1"
         offset="0"
         id="stop7800" />
      <stop
         style="stop-color:#f9f9f9;stop-opacity:0"
         offset="1"
         id="stop7802" />
    </linearGradient>
    <linearGradient
       id="linearGradient7927">
      <stop
         style="stop-color:#000000;stop-opacity:1"
         offset="0"
         id="stop7929" />
      <stop
         style="stop-color:#000000;stop-opacity:0"
         offset="1"
         id="stop7931" />
    </linearGradient>
    <linearGradient
       id="linearGradient7941">
      <stop
         style="stop-color:#000000;stop-opacity:1"
         offset="0"
         id="stop7943" />
      <stop
         style="stop-color:#000000;stop-opacity:0"
         offset="1"
         id="stop7945" />
    </linearGradient>
    <linearGradient
       id="linearGradient5791">
      <stop
         style="stop-color:#000000;stop-opacity:1"
         offset="0"
         id="stop5793" />
      <stop
         style="stop-color:#000000;stop-opacity:0"
         offset="1"
         id="stop5795" />
    </linearGradient>
    <radialGradient
       cx="34.206291"
       cy="24.753864"
       r="4.7729707"
       fx="34.206291"
       fy="24.753864"
       id="radialGradient7678"
       xlink:href="#linearGradient7672"
       gradientUnits="userSpaceOnUse"
       gradientTransform="matrix(1,0,0,0.7592593,0,5.9592628)" />
    <radialGradient
       cx="34.206291"
       cy="24.753864"
       r="4.7729707"
       fx="34.206291"
       fy="24.753864"
       id="radialGradient7680"
       xlink:href="#linearGradient7672"
       gradientUnits="userSpaceOnUse"
       gradientTransform="matrix(1,0,0,0.7592593,0,5.9592628)" />
    <radialGradient
       inkscape:collect="always"
       xlink:href="#linearGradient7941"
       id="radialGradient5625"
       gradientUnits="userSpaceOnUse"
       gradientTransform="matrix(1,0,0,0.5562701,0,12.188706)"
       cx="23.78125"
       cy="27.46875"
       fx="23.78125"
       fy="27.46875"
       r="9.71875" />
    <radialGradient
       inkscape:collect="always"
       xlink:href="#linearGradient7941"
       id="radialGradient5627"
       gradientUnits="userSpaceOnUse"
       gradientTransform="matrix(1,0,0,0.5562701,0,12.188706)"
       cx="23.78125"
       cy="27.46875"
       fx="23.78125"
       fy="27.46875"
       r="9.71875" />
    <radialGradient
       inkscape:collect="always"
       xlink:href="#linearGradient7941"
       id="radialGradient5629"
       gradientUnits="userSpaceOnUse"
       gradientTransform="matrix(1,0,0,0.5562701,0,12.188706)"
       cx="23.78125"
       cy="27.46875"
       fx="23.78125"
       fy="27.46875"
       r="9.71875" />
    <radialGradient
       inkscape:collect="always"
       xlink:href="#linearGradient7927"
       id="radialGradient5631"
       gradientUnits="userSpaceOnUse"
       gradientTransform="matrix(1,0,0,2.1420455,0,-29.443359)"
       cx="14.5"
       cy="25.78125"
       fx="14.5"
       fy="25.78125"
       r="5.5" />
    <radialGradient
       inkscape:collect="always"
       xlink:href="#linearGradient7927"
       id="radialGradient5633"
       gradientUnits="userSpaceOnUse"
       gradientTransform="matrix(1,0,0,2.1420455,0,-29.443359)"
       cx="14.5"
       cy="25.78125"
       fx="14.5"
       fy="25.78125"
       r="5.5" />
    <linearGradient
       inkscape:collect="always"
       xlink:href="#linearGradient6949"
       id="linearGradient5635"
       gradientUnits="userSpaceOnUse"
       x1="15.910872"
       y1="5.5152001"
       x2="17.822588"
       y2="4.4475551" />
    <radialGradient
       inkscape:collect="always"
       xlink:href="#linearGradient7798"
       id="radialGradient5637"
       gradientUnits="userSpaceOnUse"
       gradientTransform="matrix(2.0376534,0,0,2.8527147,-17.996801,-9.8700587)"
       cx="17.34375"
       cy="5.0044641"
       fx="17.34375"
       fy="5.0044641"
       r="2.5" />
    <linearGradient
       inkscape:collect="always"
       xlink:href="#linearGradient6949"
       id="linearGradient5639"
       gradientUnits="userSpaceOnUse"
       gradientTransform="matrix(-0.5,0.8660254,0.8660254,0.5,22.120835,-12.77147)"
       x1="15.910872"
       y1="5.5152001"
       x2="17.822588"
       y2="4.4475551" />
    <radialGradient
       inkscape:collect="always"
       xlink:href="#linearGradient7798"
       id="radialGradient5641"
       gradientUnits="userSpaceOnUse"
       gradientTransform="matrix(-1.0188267,1.7646596,2.4705234,1.4263573,22.571514,-33.292186)"
       cx="17.34375"
       cy="5.0044641"
       fx="17.34375"
       fy="5.0044641"
       r="2.5" />
    <linearGradient
       inkscape:collect="always"
       xlink:href="#linearGradient6985"
       id="linearGradient5643"
       gradientUnits="userSpaceOnUse"
       gradientTransform="translate(0,-56)"
       x1="14.937631"
       y1="68.506096"
       x2="19.445436"
       y2="70.892586" />
    <linearGradient
       inkscape:collect="always"
       xlink:href="#linearGradient7469"
       id="linearGradient5645"
       gradientUnits="userSpaceOnUse"
       x1="15.3125"
       y1="76.232018"
       x2="15.3125"
       y2="83.3125" />
    <linearGradient
       inkscape:collect="always"
       xlink:href="#linearGradient7428"
       id="linearGradient5647"
       gradientUnits="userSpaceOnUse"
       gradientTransform="translate(0,-56)"
       x1="14.507583"
       y1="75.603554"
       x2="14.287912"
       y2="73.9664" />
    <linearGradient
       inkscape:collect="always"
       xlink:href="#linearGradient6985"
       id="linearGradient5649"
       gradientUnits="userSpaceOnUse"
       gradientTransform="matrix(-1,0,0,1,48.0625,-56)"
       x1="20.240931"
       y1="70.804199"
       x2="15.423766"
       y2="70.229668" />
    <linearGradient
       inkscape:collect="always"
       xlink:href="#linearGradient7469"
       id="linearGradient5651"
       gradientUnits="userSpaceOnUse"
       x1="15.3125"
       y1="76.232018"
       x2="15.3125"
       y2="83.3125" />
    <linearGradient
       inkscape:collect="always"
       xlink:href="#linearGradient7428"
       id="linearGradient5653"
       gradientUnits="userSpaceOnUse"
       gradientTransform="matrix(-1,0,0,1,48.0625,-56)"
       x1="14.507583"
       y1="75.603554"
       x2="14.287912"
       y2="73.9664" />
    <linearGradient
       inkscape:collect="always"
       xlink:href="#linearGradient6985"
       id="linearGradient5655"
       gradientUnits="userSpaceOnUse"
       gradientTransform="translate(0,-3)"
       x1="21.812019"
       y1="16.46875"
       x2="26"
       y2="16.46875" />
    <linearGradient
       inkscape:collect="always"
       xlink:href="#linearGradient6985"
       id="linearGradient5657"
       gradientUnits="userSpaceOnUse"
       gradientTransform="translate(0,-96)"
       x1="32.432842"
       y1="116.58936"
       x2="42.548504"
       y2="116.58936" />
    <linearGradient
       inkscape:collect="always"
       xlink:href="#linearGradient6985"
       id="linearGradient5659"
       gradientUnits="userSpaceOnUse"
       gradientTransform="translate(-30,-96)"
       x1="32.432842"
       y1="116.58936"
       x2="42.548504"
       y2="116.58936" />
    <linearGradient
       inkscape:collect="always"
       xlink:href="#linearGradient7469"
       id="linearGradient5661"
       gradientUnits="userSpaceOnUse"
       x1="22.15625"
       y1="69.6875"
       x2="22.15625"
       y2="80.97287" />
    <radialGradient
       inkscape:collect="always"
       xlink:href="#linearGradient7743"
       id="radialGradient5663"
       gradientUnits="userSpaceOnUse"
       gradientTransform="matrix(0.881525,0,0,0.7101255,2.9647845,-1.513614)"
       cx="22.957685"
       cy="22.990465"
       fx="22.957685"
       fy="22.990465"
       r="3.9375" />
    <linearGradient
       inkscape:collect="always"
       xlink:href="#linearGradient7769"
       id="linearGradient5665"
       gradientUnits="userSpaceOnUse"
       x1="23.909048"
       y1="76.483147"
       x2="21.058523"
       y2="67.290756" />
    <radialGradient
       inkscape:collect="always"
       xlink:href="#linearGradient2591"
       id="radialGradient5667"
       gradientUnits="userSpaceOnUse"
       gradientTransform="matrix(1,0,0,1.013514,0,-0.304899)"
       cx="16.875"
       cy="23.672499"
       fx="16.875"
       fy="23.672499"
       r="4.625" />
    <linearGradient
       inkscape:collect="always"
       xlink:href="#linearGradient2631"
       id="linearGradient5669"
       gradientUnits="userSpaceOnUse"
       x1="12.835793"
       y1="18.849401"
       x2="18.422049"
       y2="27.072878" />
    <radialGradient
       inkscape:collect="always"
       xlink:href="#linearGradient2818"
       id="radialGradient5671"
       gradientUnits="userSpaceOnUse"
       gradientTransform="matrix(1,0,0,1.035714,0,-0.810268)"
       cx="14.75"
       cy="22.6875"
       fx="14.75"
       fy="22.6875"
       r="1.75" />
    <radialGradient
       inkscape:collect="always"
       xlink:href="#linearGradient2591"
       id="radialGradient5673"
       gradientUnits="userSpaceOnUse"
       gradientTransform="matrix(1,0,0,1.013514,0,-0.304899)"
       cx="16.875"
       cy="23.672499"
       fx="16.875"
       fy="23.672499"
       r="4.625" />
    <linearGradient
       inkscape:collect="always"
       xlink:href="#linearGradient2631"
       id="linearGradient5675"
       gradientUnits="userSpaceOnUse"
       x1="12.835793"
       y1="18.849401"
       x2="18.422049"
       y2="27.072878" />
    <radialGradient
       inkscape:collect="always"
       xlink:href="#linearGradient2818"
       id="radialGradient5677"
       gradientUnits="userSpaceOnUse"
       gradientTransform="matrix(1,0,0,1.035714,0,-0.810268)"
       cx="14.75"
       cy="22.6875"
       fx="14.75"
       fy="22.6875"
       r="1.75" />
    <radialGradient
       inkscape:collect="always"
       xlink:href="#linearGradient5791"
       id="radialGradient5686"
       gradientUnits="userSpaceOnUse"
       gradientTransform="matrix(1.8188639,0,0,0.5459777,4.4160698,20.581007)"
       cx="11.313708"
       cy="19.083185"
       fx="11.313708"
       fy="19.083185"
       r="9.8994951" />
    <linearGradient
       inkscape:collect="always"
       xlink:href="#linearGradient5493"
       id="linearGradient5688"
       gradientUnits="userSpaceOnUse"
       x1="17.709261"
       y1="-36.141689"
       x2="35.59359"
       y2="-6" />
    <linearGradient
       inkscape:collect="always"
       xlink:href="#linearGradient7586"
       id="linearGradient5690"
       gradientUnits="userSpaceOnUse"
       x1="16.528622"
       y1="-33.140503"
       x2="28.726213"
       y2="1.4193407" />
    <linearGradient
       inkscape:collect="always"
       xlink:href="#linearGradient7598"
       id="linearGradient5692"
       gradientUnits="userSpaceOnUse"
       x1="26.568039"
       y1="-15.856338"
       x2="26.568039"
       y2="-33.089272" />
  </defs>
  <g
     id="g5679"
     transform="translate(0,1)">
    <path
       d="M 42.999999,31 C 43.001998,33.985471 34.939925,36.405991 24.994165,36.405991 C 15.048404,36.405991 6.9863318,33.985471 6.9883311,31 C 6.9863318,28.01453 15.048404,25.594009 24.994165,25.594009 C 34.939925,25.594009 43.001998,28.01453 42.999999,31 z "
       style="opacity:0.4;color:#000000;fill:url(#radialGradient5686);fill-opacity:1;fill-rule:nonzero;stroke:none;stroke-width:1;stroke-linecap:butt;stroke-linejoin:miter;marker:none;marker-start:none;marker-mid:none;marker-end:none;stroke-miterlimit:10;stroke-dasharray:none;stroke-dashoffset:0;stroke-opacity:1;visibility:visible;display:block;overflow:visible;enable-background:accumulate"
       id="path5789" />
    <g
       transform="translate(0,41)"
       id="g7620">
      <path
         d="M 25,-39.5 C 24.6205,-39.5 24.248131,-39.462756 23.875,-39.4375 L 23.0625,-36.34375 C 22.562787,-36.271501 22.074231,-36.187983 21.59375,-36.0625 L 19.71875,-38.625 C 19.007591,-38.384454 18.320304,-38.081194 17.65625,-37.75 L 18.09375,-34.59375 C 17.670043,-34.340501 17.26701,-34.046707 16.875,-33.75 L 14.15625,-35.375 C 13.591011,-34.879696 13.055582,-34.379728 12.5625,-33.8125 L 14.1875,-31.03125 C 13.896792,-30.640575 13.622861,-30.234031 13.375,-29.8125 L 10.21875,-30.3125 C 9.886574,-29.642298 9.614932,-28.936629 9.375,-28.21875 L 11.9375,-26.3125 C 11.814937,-25.829618 11.693882,-25.345754 11.625,-24.84375 L 8.5625,-24.09375 C 8.538613,-23.73077 8.5,-23.368991 8.5,-23 C 8.5,-22.609991 8.535838,-22.227021 8.5625,-21.84375 L 11.65625,-21.0625 C 11.728499,-20.562787 11.812017,-20.074231 11.9375,-19.59375 L 9.40625,-17.71875 C 9.646074,-17.011305 9.920437,-16.317035 10.25,-15.65625 L 13.40625,-16.09375 C 13.659499,-15.670043 13.953293,-15.26701 14.25,-14.875 L 12.59375,-12.15625 C 13.093016,-11.585011 13.614905,-11.060248 14.1875,-10.5625 L 16.96875,-12.1875 C 17.359425,-11.896792 17.765969,-11.622861 18.1875,-11.375 L 17.6875,-8.21875 C 18.348972,-7.890901 19.042036,-7.613041 19.75,-7.375 L 21.6875,-9.9375 C 22.159007,-9.817824 22.635226,-9.72478 23.125,-9.65625 L 23.90625,-6.5625 C 24.26923,-6.538613 24.631009,-6.5 25,-6.5 C 25.390009,-6.5 25.772979,-6.535838 26.15625,-6.5625 L 26.9375,-9.65625 C 27.426902,-9.727009 27.904014,-9.815651 28.375,-9.9375 L 30.25,-7.375 C 30.971071,-7.617448 31.670979,-7.914459 32.34375,-8.25 L 31.90625,-11.40625 C 32.329957,-11.659499 32.73299,-11.953293 33.125,-12.25 L 35.84375,-10.59375 C 36.414989,-11.093016 36.939752,-11.614904 37.4375,-12.1875 L 35.8125,-14.9375 C 36.103547,-15.327142 36.376638,-15.735772 36.625,-16.15625 L 39.75,-15.65625 C 40.085542,-16.329021 40.382552,-17.028929 40.625,-17.75 L 38.0625,-19.6875 C 38.182176,-20.159007 38.27522,-20.635226 38.34375,-21.125 L 41.4375,-21.875 C 41.462756,-22.248131 41.5,-22.6205 41.5,-23 C 41.5,-23.3795 41.462756,-23.751869 41.4375,-24.125 L 38.34375,-24.90625 C 38.272638,-25.406157 38.186876,-25.894248 38.0625,-26.375 L 40.625,-28.25 C 40.385554,-28.962143 40.080296,-29.647421 39.75,-30.3125 L 36.59375,-29.875 C 36.341006,-30.299766 36.046367,-30.7007 35.75,-31.09375 L 37.40625,-33.84375 C 36.911664,-34.409634 36.379085,-34.912447 35.8125,-35.40625 L 33.0625,-33.78125 C 32.668401,-34.076452 32.26948,-34.373535 31.84375,-34.625 L 32.3125,-37.75 C 31.647421,-38.080296 30.962143,-38.385554 30.25,-38.625 L 28.34375,-36.0625 C 27.852954,-36.188272 27.354374,-36.273491 26.84375,-36.34375 L 26.09375,-39.4375 C 25.73077,-39.461387 25.368991,-39.5 25,-39.5 z M 25,-30.5 C 29.14,-30.5 32.5,-27.14 32.5,-23 C 32.5,-18.859999 29.14,-15.5 25,-15.5 C 20.86,-15.5 17.5,-18.86 17.5,-23 C 17.499999,-27.14 20.86,-30.5 25,-30.5 z "
         style="opacity:1;fill:url(#linearGradient5688);fill-opacity:1;stroke:#888a85;stroke-width:1;stroke-linecap:round;stroke-linejoin:miter;stroke-miterlimit:4;stroke-dasharray:none;stroke-dashoffset:0.7;stroke-opacity:1"
         id="path6572" />
      <path
         d="M 24.65625,-38.46875 L 24.03125,-36.09375 C 23.931894,-35.705471 23.613725,-35.411775 23.21875,-35.34375 C 22.735976,-35.27395 22.267915,-35.204525 21.84375,-35.09375 C 21.446372,-34.993161 21.027454,-35.141014 20.78125,-35.46875 L 19.375,-37.375 C 19.164597,-37.290302 18.958431,-37.219741 18.75,-37.125 L 19.09375,-34.71875 C 19.147914,-34.322215 18.964432,-33.930787 18.625,-33.71875 C 18.254815,-33.497491 17.882144,-33.226739 17.5,-32.9375 C 17.165242,-32.677818 16.70455,-32.652916 16.34375,-32.875 L 14.28125,-34.09375 C 14.128479,-33.950872 13.987517,-33.802252 13.84375,-33.65625 L 15.0625,-31.53125 C 15.25664,-31.185651 15.232244,-30.758735 15,-30.4375 C 14.728348,-30.072434 14.476735,-29.698102 14.25,-29.3125 C 14.041861,-28.949535 13.632632,-28.751121 13.21875,-28.8125 L 10.84375,-29.1875 C 10.756945,-28.982556 10.673152,-28.775045 10.59375,-28.5625 L 12.53125,-27.125 C 12.870632,-26.88679 13.031381,-26.46637 12.9375,-26.0625 C 12.815507,-25.581864 12.684034,-25.148985 12.625,-24.71875 C 12.580372,-24.299891 12.282106,-23.951914 11.875,-23.84375 L 9.53125,-23.28125 C 9.5269912,-23.1938 9.53125,-23.081215 9.53125,-23 C 9.53125,-22.897085 9.5260245,-22.765556 9.53125,-22.65625 L 11.90625,-22.0625 C 12.303754,-21.958602 12.599672,-21.625694 12.65625,-21.21875 C 12.72605,-20.735976 12.795475,-20.267915 12.90625,-19.84375 C 13.006839,-19.446372 12.858986,-19.027454 12.53125,-18.78125 L 10.65625,-17.375 C 10.738347,-17.160462 10.816205,-16.957263 10.90625,-16.75 L 13.28125,-17.09375 C 13.677785,-17.147914 14.069213,-16.964432 14.28125,-16.625 C 14.502509,-16.254815 14.773261,-15.882144 15.0625,-15.5 C 15.322182,-15.165242 15.347084,-14.70455 15.125,-14.34375 L 13.875,-12.28125 C 14.028803,-12.121082 14.18335,-11.965479 14.34375,-11.8125 L 16.46875,-13.0625 C 16.814349,-13.25664 17.241265,-13.232244 17.5625,-13 C 17.927566,-12.728348 18.301898,-12.476735 18.6875,-12.25 C 19.050465,-12.041861 19.248879,-11.632632 19.1875,-11.21875 L 18.8125,-8.84375 C 19.00554,-8.7606362 19.207885,-8.7009625 19.40625,-8.625 L 20.875,-10.5625 C 21.121204,-10.890236 21.540122,-11.038089 21.9375,-10.9375 C 22.372579,-10.82707 22.826979,-10.719812 23.28125,-10.65625 C 23.688194,-10.599672 24.021102,-10.303754 24.125,-9.90625 L 24.71875,-7.53125 C 24.8062,-7.5269912 24.918785,-7.53125 25,-7.53125 C 25.102915,-7.53125 25.234444,-7.5260245 25.34375,-7.53125 L 25.9375,-9.90625 C 26.041398,-10.303754 26.374306,-10.599672 26.78125,-10.65625 C 27.244255,-10.723192 27.699447,-10.796155 28.125,-10.90625 C 28.522378,-11.006839 28.941296,-10.858986 29.1875,-10.53125 L 30.59375,-8.625 C 30.814551,-8.7118489 31.033285,-8.7780231 31.25,-8.875 L 30.90625,-11.28125 C 30.852086,-11.677785 31.035568,-12.069213 31.375,-12.28125 C 31.745185,-12.502509 32.117856,-12.773261 32.5,-13.0625 C 32.834758,-13.322182 33.29545,-13.347084 33.65625,-13.125 L 35.71875,-11.875 C 35.873635,-12.02373 36.008112,-12.188882 36.15625,-12.34375 L 34.9375,-14.40625 C 34.729669,-14.759568 34.754311,-15.203128 35,-15.53125 C 35.269571,-15.892141 35.520921,-16.299668 35.75,-16.6875 C 35.966825,-17.038488 36.374237,-17.223675 36.78125,-17.15625 L 39.125,-16.78125 C 39.217616,-16.989237 39.291717,-17.194515 39.375,-17.40625 L 37.4375,-18.875 C 37.109764,-19.121204 36.961911,-19.540122 37.0625,-19.9375 C 37.17293,-20.372579 37.280188,-20.826979 37.34375,-21.28125 C 37.400328,-21.688194 37.696246,-22.021102 38.09375,-22.125 L 40.46875,-22.6875 C 40.473508,-22.785884 40.46875,-22.908027 40.46875,-23 C 40.46875,-23.091973 40.473508,-23.214116 40.46875,-23.3125 L 38.09375,-23.90625 C 37.696246,-24.010148 37.400328,-24.343056 37.34375,-24.75 C 37.275695,-25.22842 37.204717,-25.696077 37.09375,-26.125 C 36.993161,-26.522378 37.141014,-26.941296 37.46875,-27.1875 L 39.375,-28.59375 C 39.291659,-28.800848 39.21845,-29.012891 39.125,-29.21875 L 36.71875,-28.875 C 36.322215,-28.820836 35.930787,-29.004318 35.71875,-29.34375 C 35.499798,-29.711725 35.228788,-30.082435 34.9375,-30.46875 C 34.677818,-30.803508 34.652916,-31.2642 34.875,-31.625 L 36.125,-33.6875 C 35.975527,-33.839104 35.814663,-33.977315 35.65625,-34.125 L 33.59375,-32.90625 C 33.23295,-32.684166 32.772258,-32.709068 32.4375,-32.96875 C 32.044927,-33.262809 31.675776,-33.535424 31.3125,-33.75 C 30.961512,-33.966825 30.776325,-34.374237 30.84375,-34.78125 L 31.1875,-37.125 C 30.99041,-37.214078 30.791981,-37.295227 30.59375,-37.375 L 29.15625,-35.46875 C 28.91804,-35.129368 28.49762,-34.968619 28.09375,-35.0625 C 27.656368,-35.174584 27.207928,-35.276442 26.71875,-35.34375 C 26.299891,-35.388378 25.951914,-35.686644 25.84375,-36.09375 L 25.28125,-38.46875 C 25.1938,-38.473009 25.081215,-38.46875 25,-38.46875 C 24.898829,-38.46875 24.76521,-38.474384 24.65625,-38.46875 z "
         style="fill:none;fill-opacity:1;stroke:url(#linearGradient5690);stroke-width:1;stroke-linecap:round;stroke-linejoin:miter;stroke-miterlimit:4;stroke-dashoffset:0.7;stroke-opacity:1"
         id="path7569" />
      <path
         d="M 32.261746,-22.843262 C 32.261746,-18.864796 29.036562,-15.639611 25.058096,-15.639611 C 21.079629,-15.639611 17.854445,-18.864796 17.854445,-22.843262 C 17.854445,-26.821728 21.079629,-30.046913 25.058096,-30.046913 C 29.036562,-30.046913 32.261746,-26.821728 32.261746,-22.843262 L 32.261746,-22.843262 z "
         transform="matrix(1.1799574,0,0,1.1799572,-4.567485,3.9540723)"
         style="opacity:1;fill:none;fill-opacity:1;stroke:url(#linearGradient5692);stroke-width:0.84748834;stroke-linecap:round;stroke-linejoin:miter;stroke-miterlimit:4;stroke-dasharray:none;stroke-dashoffset:0.7;stroke-opacity:1"
         id="path7596" />
    </g>
  </g>
  <g
     id="g7682"
     style="opacity:0.2">
    <path
       id="path7668"
       style="opacity:1;fill:url(#radialGradient7678);fill-opacity:1;stroke:none;stroke-width:1;stroke-linecap:round;stroke-linejoin:miter;stroke-miterlimit:4;stroke-dasharray:none;stroke-dashoffset:0.7;stroke-opacity:1"
       transform="matrix(1.1523221,0,0,1.1559004,-4.9166644,-4.4241085)"
       d="M 38.979262,24.753864 C 38.980025,26.755711 36.84287,28.378835 34.206291,28.378835 C 31.569713,28.378835 29.432558,26.755711 29.433321,24.753864 C 29.432558,22.752017 31.569713,21.128893 34.206291,21.128893 C 36.84287,21.128893 38.980025,22.752017 38.979262,24.753864 L 38.979262,24.753864 z " />
    <path
       id="path7670"
       style="opacity:1;fill:url(#radialGradient7680);fill-opacity:1;stroke:none;stroke-width:1;stroke-linecap:round;stroke-linejoin:miter;stroke-miterlimit:4;stroke-dasharray:none;stroke-dashoffset:0.7;stroke-opacity:1"
       transform="matrix(1.1523221,0,0,1.1559004,-23.916664,-4.4241085)"
       d="M 38.979262,24.753864 C 38.980025,26.755711 36.84287,28.378835 34.206291,28.378835 C 31.569713,28.378835 29.432558,26.755711 29.433321,24.753864 C 29.432558,22.752017 31.569713,21.128893 34.206291,21.128893 C 36.84287,21.128893 38.980025,22.752017 38.979262,24.753864 L 38.979262,24.753864 z " />
  </g>
  <g
     id="g5801"
     style="display:inline"
     transform="translate(0.999996,11)">
    <g
       id="g6939"
       style="display:inline">
      <path
         id="path6941"
         style="opacity:0.2;fill:url(#radialGradient5625);fill-opacity:1;fill-rule:evenodd;stroke:none;stroke-width:1;stroke-linecap:butt;stroke-linejoin:round;stroke-miterlimit:4;stroke-dasharray:none;stroke-dashoffset:0.69999992;stroke-opacity:1"
         transform="matrix(1.0924855,0,0,1.0924855,-1.918172,-7.5092124)"
         d="M 33.5,27.46875 C 33.5,30.454539 29.148767,32.875 23.78125,32.875 C 18.413733,32.875 14.0625,30.454539 14.0625,27.46875 C 14.0625,24.482961 18.413733,22.0625 23.78125,22.0625 C 29.148767,22.0625 33.5,24.482961 33.5,27.46875 z " />
      <path
         id="path6943"
         style="opacity:0.2;fill:url(#radialGradient5627);fill-opacity:1;fill-rule:evenodd;stroke:none;stroke-width:1;stroke-linecap:butt;stroke-linejoin:round;stroke-miterlimit:4;stroke-dasharray:none;stroke-dashoffset:0.69999992;stroke-opacity:1;display:inline"
         transform="matrix(0.9260451,0,0,0.7398844,-13.022512,12.676301)"
         d="M 33.5,27.46875 C 33.5,30.454539 29.148767,32.875 23.78125,32.875 C 18.413733,32.875 14.0625,30.454539 14.0625,27.46875 C 14.0625,24.482961 18.413733,22.0625 23.78125,22.0625 C 29.148767,22.0625 33.5,24.482961 33.5,27.46875 z " />
      <path
         id="path6945"
         style="opacity:0.2;fill:url(#radialGradient5629);fill-opacity:1;fill-rule:evenodd;stroke:none;stroke-width:1;stroke-linecap:butt;stroke-linejoin:round;stroke-miterlimit:4;stroke-dasharray:none;stroke-dashoffset:0.69999992;stroke-opacity:1;display:inline"
         transform="matrix(0.9260451,0,0,0.7398844,16.977488,12.676301)"
         d="M 33.5,27.46875 C 33.5,30.454539 29.148767,32.875 23.78125,32.875 C 18.413733,32.875 14.0625,30.454539 14.0625,27.46875 C 14.0625,24.482961 18.413733,22.0625 23.78125,22.0625 C 29.148767,22.0625 33.5,24.482961 33.5,27.46875 z " />
      <path
         id="path6947"
         style="opacity:0.4;fill:url(#radialGradient5631);fill-opacity:1;fill-rule:evenodd;stroke:none;stroke-width:1;stroke-linecap:butt;stroke-linejoin:round;stroke-miterlimit:4;stroke-dasharray:none;stroke-dashoffset:0.69999992;stroke-opacity:1"
         transform="matrix(2.1162557,0,-0.2469898,1.0185676,-13.318001,-0.2599454)"
         d="M 20,25.78125 C 20,32.287855 17.537566,37.5625 14.5,37.5625 C 11.462434,37.5625 9,32.287855 9,25.78125 C 9,19.274645 11.462434,14 14.5,14 C 17.537566,14 20,19.274645 20,25.78125 L 20,25.78125 z " />
      <path
         id="path6949"
         style="opacity:0.4;fill:url(#radialGradient5633);fill-opacity:1;fill-rule:evenodd;stroke:none;stroke-width:1;stroke-linecap:butt;stroke-linejoin:round;stroke-miterlimit:4;stroke-dasharray:none;stroke-dashoffset:0.69999992;stroke-opacity:1;display:inline"
         transform="matrix(-2.1162563,0,0.2469899,1.0185676,61.318007,-0.2599454)"
         d="M 20,25.78125 C 20,32.287855 17.537566,37.5625 14.5,37.5625 C 11.462434,37.5625 9,32.287855 9,25.78125 C 9,19.274645 11.462434,14 14.5,14 C 17.537566,14 20,19.274645 20,25.78125 L 20,25.78125 z " />
      <g
         id="g6951"
         transform="translate(0,-3)">
        <g
           id="g6953"
           transform="matrix(0.8660254,0.5,-0.5,0.8660254,4.2283803,2.4870101)">
          <path
             id="path6955"
             style="opacity:1;fill:url(#linearGradient5635);fill-opacity:1;fill-rule:evenodd;stroke:#2e3436;stroke-width:1;stroke-linecap:butt;stroke-linejoin:miter;stroke-miterlimit:4;stroke-dasharray:none;stroke-dashoffset:0.69999992;stroke-opacity:1"
             d="M 18.5,2.5 C 16.844,2.5 15.5,3.844 15.5,5.5 L 15.5,7.5 C 15.5,9.156 16.844,10.5 18.5,10.5 C 20.156,10.5 21.5,9.156 21.5,7.5 L 21.5,5.5 C 21.5,3.844 20.156,2.5 18.5,2.5 z " />
          <path
             id="path6957"
             style="opacity:0.25;fill:none;fill-opacity:1;fill-rule:evenodd;stroke:url(#radialGradient5637);stroke-width:1;stroke-linecap:butt;stroke-linejoin:miter;stroke-miterlimit:4;stroke-dasharray:none;stroke-dashoffset:0.69999992;stroke-opacity:1"
             d="M 18.5,3.5 C 17.387994,3.5 16.5,4.387994 16.5,5.5 L 16.5,7.5 C 16.5,8.612006 17.387994,9.5 18.5,9.5 C 19.612006,9.5 20.5,8.612006 20.5,7.5 L 20.5,5.5 C 20.5,4.387994 19.612006,3.5 18.5,3.5 z " />
        </g>
        <g
           id="g6959"
           transform="matrix(-0.8660254,0.5,0.5,0.8660254,43.77132,2.4870101)">
          <path
             id="path6961"
             style="opacity:1;fill:url(#linearGradient5639);fill-opacity:1;fill-rule:evenodd;stroke:#2e3436;stroke-width:1;stroke-linecap:butt;stroke-linejoin:miter;stroke-miterlimit:4;stroke-dasharray:none;stroke-dashoffset:0.69999992;stroke-opacity:1"
             d="M 18.5,2.5 C 16.844,2.5 15.5,3.844 15.5,5.5 L 15.5,7.5 C 15.5,9.156 16.844,10.5 18.5,10.5 C 20.156,10.5 21.5,9.156 21.5,7.5 L 21.5,5.5 C 21.5,3.844 20.156,2.5 18.5,2.5 z " />
          <path
             id="path6963"
             style="opacity:0.25;fill:none;fill-opacity:1;fill-rule:evenodd;stroke:url(#radialGradient5641);stroke-width:1;stroke-linecap:butt;stroke-linejoin:miter;stroke-miterlimit:4;stroke-dasharray:none;stroke-dashoffset:0.69999992;stroke-opacity:1"
             d="M 18.5,3.5 C 17.387994,3.5 16.5,4.387994 16.5,5.5 L 16.5,7.5 C 16.5,8.612006 17.387994,9.5 18.5,9.5 C 19.612006,9.5 20.5,8.612006 20.5,7.5 L 20.5,5.5 C 20.5,4.387994 19.612006,3.5 18.5,3.5 z " />
        </g>
      </g>
      <path
         id="path6965"
         style="opacity:1;fill:url(#linearGradient5643);fill-opacity:1;fill-rule:evenodd;stroke:#2e3436;stroke-width:0.99999988;stroke-linecap:butt;stroke-linejoin:miter;stroke-miterlimit:4;stroke-dashoffset:0.69999992;stroke-opacity:1"
         d="M 19.0625,12.5 C 20.444903,12.499999 21.5625,13.652119 21.5625,15.09375 L 21.5625,18.90625 C 21.5625,19.058086 21.554827,19.199537 21.53125,19.34375 C 21.151042,21.144729 20.780852,22.947837 20.40625,24.75 C 19.965248,25.779567 18.93511,26.5 17.75,26.5 L 7.4375,26.5 C 5.84475,26.5 4.5625,25.195999 4.5625,23.59375 L 4.5625,21.375 C 4.5625,20.852604 4.69857,20.357151 4.9375,19.9375 L 7.9375,15.65625 C 8.047735,15.447971 8.184782,15.261757 8.34375,15.09375 C 8.797291,14.614423 9.424583,14.3125 10.125,14.3125 L 13.28125,14.3125 C 14.583154,14.313517 15.885601,12.501686 17.1875,12.5 L 19.0625,12.5 z " />
      <path
         id="path6967"
         style="opacity:1;fill:url(#linearGradient5645);fill-opacity:1;fill-rule:evenodd;stroke:none;stroke-width:0.99999988;stroke-linecap:butt;stroke-linejoin:miter;stroke-miterlimit:4;stroke-dashoffset:0.69999992;stroke-opacity:1"
         transform="translate(0,-56)"
         d="M 15.5,73 C 14.969704,73.000662 14.281345,73.406279 13.53125,73.90625 C 12.781155,74.406221 11.970034,75.000731 11,75 L 7.375,75 C 6.0459402,75 5,76.036836 5,77.375 L 5,79.59375 C 5,80.931916 6.0524142,82 7.375,82 L 17.6875,82 C 19.010085,82 20.0625,80.931913 20.0625,79.59375 L 20.0625,75.375 C 20.0625,74.036833 19.01656,72.999999 17.6875,73 L 15.5,73 z " />
      <path
         id="path6969"
         style="opacity:1;fill:none;fill-opacity:1;fill-rule:evenodd;stroke:url(#linearGradient5647);stroke-width:0.99999988;stroke-linecap:butt;stroke-linejoin:miter;stroke-miterlimit:4;stroke-dashoffset:0.69999992;stroke-opacity:1"
         d="M 7.375,18.497268 L 11,18.5 C 12.5,18.50113 14.000001,16.501873 15.5,16.5 L 17.6875,16.497268 C 19.28025,16.497268 20.5625,17.787165 20.5625,19.389415 L 20.5625,23.607854 C 20.5625,25.210103 19.28025,26.5 17.6875,26.5 L 7.375,26.5 C 5.78225,26.5 4.5,25.210103 4.5,23.607854 L 4.5,21.389415 C 4.5,19.787165 5.78225,18.497268 7.375,18.497268 z " />
      <path
         id="path6971"
         style="opacity:0.17803028;fill:none;fill-opacity:1;fill-rule:evenodd;stroke:#ffffff;stroke-width:0.99999988;stroke-linecap:butt;stroke-linejoin:miter;stroke-miterlimit:4;stroke-dashoffset:0.69999992;stroke-opacity:1"
         transform="translate(0,-56)"
         d="M 17.1875,69.5 C 17.000012,69.500243 16.463779,69.765575 15.8125,70.21875 C 15.161221,70.671925 14.396355,71.313371 13.28125,71.3125 L 10.125,71.3125 C 9.7119575,71.3125 9.3437446,71.484015 9.0625,71.78125 C 8.9598651,71.889721 8.8777145,72.001783 8.8125,72.125 C 8.793445,72.1574 8.7725785,72.188699 8.75,72.21875 L 5.8125,76.4375 C 5.6602457,76.704916 5.5625,77.026253 5.5625,77.375 L 5.5625,79.59375 C 5.5625,80.662478 6.3905569,81.5 7.4375,81.5 L 17.75,81.5 C 18.51409,81.5 19.173788,81.020586 19.46875,80.375 C 19.827438,78.648225 20.166176,76.917947 20.53125,75.1875 C 20.543602,75.111949 20.5625,75.024396 20.5625,74.90625 L 20.5625,71.09375 C 20.5625,70.16894 19.88929,69.499999 19.0625,69.5 L 17.1875,69.5 z " />
      <path
         id="path6973"
         style="opacity:1;fill:url(#linearGradient5649);fill-opacity:1;fill-rule:evenodd;stroke:#2e3436;stroke-width:0.99999988;stroke-linecap:butt;stroke-linejoin:miter;stroke-miterlimit:4;stroke-dashoffset:0.69999992;stroke-opacity:1"
         d="M 29,12.5 C 27.617597,12.499999 26.5,13.652119 26.5,15.09375 L 26.5,18.90625 C 26.5,19.058086 26.507673,19.199537 26.53125,19.34375 C 26.911458,21.144729 27.281648,22.947837 27.65625,24.75 C 28.097252,25.779567 29.12739,26.5 30.3125,26.5 L 40.625,26.5 C 42.21775,26.5 43.5,25.195999 43.5,23.59375 L 43.5,21.375 C 43.5,20.852604 43.36393,20.357151 43.125,19.9375 L 40.125,15.65625 C 40.014765,15.447971 39.877718,15.261757 39.71875,15.09375 C 39.265209,14.614423 38.637917,14.3125 37.9375,14.3125 L 34.78125,14.3125 C 33.479346,14.313517 32.176899,12.501686 30.875,12.5 L 29,12.5 z " />
      <path
         id="path6975"
         style="opacity:1;fill:url(#linearGradient5651);fill-opacity:1;fill-rule:evenodd;stroke:none;stroke-width:0.99999988;stroke-linecap:butt;stroke-linejoin:miter;stroke-miterlimit:4;stroke-dashoffset:0.69999992;stroke-opacity:1"
         transform="matrix(-1,0,0,1,48.0625,-56)"
         d="M 15.5,73 C 14.969704,73.000662 14.281345,73.406279 13.53125,73.90625 C 12.781155,74.406221 11.970034,75.000731 11,75 L 7.375,75 C 6.0459402,75 5,76.036836 5,77.375 L 5,79.59375 C 5,80.931916 6.0524142,82 7.375,82 L 17.6875,82 C 19.010085,82 20.0625,80.931913 20.0625,79.59375 L 20.0625,75.375 C 20.0625,74.036833 19.01656,72.999999 17.6875,73 L 15.5,73 z " />
      <path
         id="path6977"
         style="opacity:1;fill:none;fill-opacity:1;fill-rule:evenodd;stroke:url(#linearGradient5653);stroke-width:0.99999988;stroke-linecap:butt;stroke-linejoin:miter;stroke-miterlimit:4;stroke-dashoffset:0.69999992;stroke-opacity:1"
         d="M 40.6875,18.497268 L 37.0625,18.5 C 35.5625,18.50113 34.062499,16.501873 32.5625,16.5 L 30.375,16.497268 C 28.78225,16.497268 27.5,17.787165 27.5,19.389415 L 27.5,23.607854 C 27.5,25.210103 28.78225,26.5 30.375,26.5 L 40.6875,26.5 C 42.28025,26.5 43.5625,25.210103 43.5625,23.607854 L 43.5625,21.389415 C 43.5625,19.787165 42.28025,18.497268 40.6875,18.497268 z " />
      <path
         id="path6979"
         style="opacity:0.17803028;fill:none;fill-opacity:1;fill-rule:evenodd;stroke:#ffffff;stroke-width:0.99999988;stroke-linecap:butt;stroke-linejoin:miter;stroke-miterlimit:4;stroke-dashoffset:0.69999992;stroke-opacity:1"
         transform="matrix(-1,0,0,1,48.0625,-56)"
         d="M 17.1875,69.5 C 17.000012,69.500243 16.463779,69.765575 15.8125,70.21875 C 15.161221,70.671925 14.396355,71.313371 13.28125,71.3125 L 10.125,71.3125 C 9.7119575,71.3125 9.3437446,71.484015 9.0625,71.78125 C 8.9598651,71.889721 8.8777145,72.001783 8.8125,72.125 C 8.793445,72.1574 8.7725785,72.188699 8.75,72.21875 L 5.8125,76.4375 C 5.6602457,76.704916 5.5625,77.026253 5.5625,77.375 L 5.5625,79.59375 C 5.5625,80.662478 6.3905569,81.5 7.4375,81.5 L 17.75,81.5 C 18.51409,81.5 19.173788,81.020586 19.46875,80.375 C 19.827438,78.648225 20.166176,76.917947 20.53125,75.1875 C 20.543602,75.111949 20.5625,75.024396 20.5625,74.90625 L 20.5625,71.09375 C 20.5625,70.16894 19.88929,69.499999 19.0625,69.5 L 17.1875,69.5 z " />
      <path
         id="path6981"
         style="opacity:1;fill:url(#linearGradient5655);fill-opacity:1;fill-rule:evenodd;stroke:#2e3436;stroke-width:0.99999988;stroke-linecap:butt;stroke-linejoin:miter;stroke-miterlimit:4;stroke-dasharray:none;stroke-dashoffset:0.69999992;stroke-opacity:1"
         d="M 24.0625,11.5 C 22.678983,11.500004 21.505554,12.302724 20.9375,13.46875 C 20.655792,14.456405 20.438887,15.459771 20.25,16.46875 C 21.054848,17.179411 21.5625,18.221009 21.5625,19.375 L 21.5625,20.59375 C 22.248627,21.146517 23.113597,21.5 24.0625,21.5 C 24.991104,21.500001 25.820886,21.15659 26.5,20.625 L 26.5,19.375 C 26.5,18.20552 27.020137,17.14875 27.84375,16.4375 C 27.64453,15.431793 27.423318,14.435011 27.1875,13.4375 C 26.614573,12.285057 25.436064,11.5 24.0625,11.5 z " />
      <path
         id="path6983"
         style="fill:url(#linearGradient5657);fill-opacity:1;fill-rule:evenodd;stroke:#2e3436;stroke-width:1;stroke-linecap:butt;stroke-linejoin:miter;stroke-miterlimit:4;stroke-dasharray:none;stroke-dashoffset:0.69999992;stroke-opacity:1"
         d="M 38.5,17.53125 C 34.640729,17.53125 31.5,20.64073 31.5,24.5 L 31.53125,27 C 31.53125,31.13527 34.86473,34.46875 39,34.46875 C 43.135271,34.46875 46.5,31.13527 46.5,27 C 46.5,22.5 43.500098,17.53125 38.5,17.53125 z " />
      <path
         id="path6985"
         style="opacity:0.8;fill:#babdb6;fill-opacity:1;fill-rule:evenodd;stroke:#babdb6;stroke-width:1.14686775;stroke-linecap:butt;stroke-linejoin:miter;stroke-miterlimit:4;stroke-dasharray:none;stroke-dashoffset:0.69999992;stroke-opacity:1"
         transform="matrix(0.8719402,0,0,0.8719402,26.334452,5.29573)"
         d="M 22,24.882097 C 22,29.004608 18.658045,32.346563 14.535534,32.346563 C 10.413023,32.346563 7.0710678,29.004608 7.0710678,24.882097 C 7.0710678,20.759586 10.413023,17.417631 14.535534,17.417631 C 18.658045,17.417631 22,20.759586 22,24.882097 L 22,24.882097 z " />
      <path
         id="path6987"
         style="fill:url(#linearGradient5659);fill-opacity:1;fill-rule:evenodd;stroke:#2e3436;stroke-width:1;stroke-linecap:butt;stroke-linejoin:miter;stroke-miterlimit:4;stroke-dasharray:none;stroke-dashoffset:0.69999992;stroke-opacity:1"
         d="M 9.5,17.53125 C 13.359271,17.53125 16.5,20.64073 16.5,24.5 L 16.46875,27 C 16.46875,31.13527 13.13527,34.46875 9,34.46875 C 4.864729,34.46875 1.5,31.13527 1.5,27 C 1.5,22.5 4.499902,17.53125 9.5,17.53125 z " />
      <path
         id="path6989"
         style="opacity:0.8;fill:#babdb6;fill-opacity:1;fill-rule:evenodd;stroke:#babdb6;stroke-width:1.14686775;stroke-linecap:butt;stroke-linejoin:miter;stroke-miterlimit:4;stroke-dasharray:none;stroke-dashoffset:0.69999992;stroke-opacity:1"
         transform="matrix(0.8719402,0,0,0.8719402,-3.665548,5.29573)"
         d="M 22,24.882097 C 22,29.004608 18.658045,32.346563 14.535534,32.346563 C 10.413023,32.346563 7.0710678,29.004608 7.0710678,24.882097 C 7.0710678,20.759586 10.413023,17.417631 14.535534,17.417631 C 18.658045,17.417631 22,20.759586 22,24.882097 L 22,24.882097 z " />
      <path
         id="path6991"
         style="opacity:1;fill:url(#linearGradient5661);fill-opacity:1;fill-rule:evenodd;stroke:none;stroke-width:0.99999988;stroke-linecap:butt;stroke-linejoin:miter;stroke-miterlimit:4;stroke-dasharray:none;stroke-dashoffset:0.69999992;stroke-opacity:1"
         transform="translate(0,-56)"
         d="M 24,70 C 22.60089,70 21.379011,70.795226 20.8125,71.96875 C 20.808658,71.976708 20.816283,71.992008 20.8125,72 C 20.791956,72.109567 20.770286,72.228153 20.75,72.34375 C 21.524698,73.132113 22.0625,74.188764 22.0625,75.375 L 22.0625,76.3125 C 22.321925,76.49694 22.570259,76.667165 22.875,76.78125 C 23.01934,76.835286 23.209186,76.897263 23.40625,76.9375 C 23.645128,76.986275 23.855443,77 24.0625,77 C 24.269804,76.996807 24.493078,76.983718 24.71875,76.9375 C 24.89692,76.901055 25.066453,76.838043 25.21875,76.78125 C 25.140905,76.809722 25.135087,76.794301 25.25,76.75 C 25.41727,76.684154 25.470832,76.708618 25.375,76.75 C 25.370984,76.751699 25.391231,76.723543 25.46875,76.6875 C 25.613525,76.620184 25.763344,76.530543 25.90625,76.4375 C 26.025724,76.359242 26.053353,76.348925 25.96875,76.40625 C 25.909223,76.446478 25.991888,76.38484 26,76.375 L 26,75.375 C 26,74.203124 26.522622,73.161863 27.28125,72.375 C 26.810497,70.991968 25.546657,70 24,70 z " />
      <path
         id="path6993"
         style="opacity:0.90909095;fill:none;fill-opacity:1;fill-rule:evenodd;stroke:url(#radialGradient5663);stroke-width:0.99999994;stroke-linecap:butt;stroke-linejoin:miter;stroke-miterlimit:4;stroke-dashoffset:0.69999992;stroke-opacity:1"
         d="M 20.480251,18.5 C 20.480251,16.292 22.057099,14.5 24,14.5 C 25.942902,14.5 27.519749,16.292 27.519749,18.5" />
      <path
         id="path6995"
         style="opacity:0.57954544;fill:none;fill-opacity:1;fill-rule:evenodd;stroke:#2e3436;stroke-width:7.00000191;stroke-linecap:butt;stroke-linejoin:miter;stroke-miterlimit:4;stroke-dasharray:none;stroke-dashoffset:0.69999992;stroke-opacity:1"
         transform="matrix(0.142857,0,0,0.142857,20.64286,14.21429)"
         d="M 27,26.5 C 27,28.432997 25.432997,30 23.5,30 C 21.567003,30 20,28.432997 20,26.5 C 20,24.567003 21.567003,23 23.5,23 C 25.432997,23 27,24.567003 27,26.5 z " />
      <path
         id="path6997"
         style="opacity:0.15530306;fill:none;fill-opacity:1;fill-rule:evenodd;stroke:url(#linearGradient5665);stroke-width:1;stroke-linecap:butt;stroke-linejoin:round;stroke-miterlimit:4;stroke-dasharray:none;stroke-dashoffset:0.69999992;stroke-opacity:1"
         transform="translate(0,-56)"
         d="M 24.0625,68.5 C 23.080826,68.500003 22.291628,69.055575 21.875,69.875 C 21.658543,70.650161 21.470426,71.444468 21.3125,72.25 C 22.048694,73.105251 22.5625,74.166742 22.5625,75.375 L 22.5625,75.9375 C 23.021615,76.223554 23.499922,76.5 24.0625,76.5 C 24.605354,76.500001 25.052065,76.242077 25.5,75.96875 L 25.5,75.375 C 25.5,74.151111 26.027166,73.079642 26.78125,72.21875 C 26.621842,71.438907 26.463645,70.653835 26.28125,69.875 C 26.278414,69.862891 26.252841,69.85586 26.25,69.84375 C 25.832588,69.040197 25.039733,68.5 24.0625,68.5 z " />
      <g
         id="g6999"
         transform="matrix(0.7957586,0,0,0.7854084,78.571696,-29.229826)">
        <path
           id="path7001"
           style="color:#000000;fill:url(#radialGradient5667);fill-opacity:1;fill-rule:nonzero;stroke:url(#linearGradient5669);stroke-width:0.75428027;stroke-linecap:butt;stroke-linejoin:miter;marker:none;marker-start:none;marker-mid:none;marker-end:none;stroke-miterlimit:4;stroke-dashoffset:0;stroke-opacity:1;visibility:visible;display:inline;overflow:visible;font-family:Bitstream Vera Sans"
           transform="matrix(1.676984,0,0,1.676984,-113.8461,33.756151)"
           d="M 19.875,22.5625 C 19.875,24.875192 18.028175,26.75 15.75,26.75 C 13.471825,26.75 11.625,24.875192 11.625,22.5625 C 11.625,20.249808 13.471825,18.375 15.75,18.375 C 18.028175,18.375 19.875,20.249808 19.875,22.5625 L 19.875,22.5625 z " />
        <path
           id="path7003"
           style="opacity:0.60759499;color:#000000;fill:#ffffff;fill-opacity:0.52866247;fill-rule:nonzero;stroke:none;stroke-width:1;stroke-linecap:butt;stroke-linejoin:miter;marker:none;marker-start:none;marker-mid:none;marker-end:none;stroke-miterlimit:4;stroke-dashoffset:0;stroke-opacity:1;visibility:visible;display:inline;overflow:visible;font-family:Bitstream Vera Sans"
           transform="matrix(1.676984,0,0,1.676984,-111.83457,33.611503)"
           d="M 16.5,22.6875 C 16.5,23.688516 15.716498,24.5 14.75,24.5 C 13.783502,24.5 13,23.688516 13,22.6875 C 13,21.686484 13.783502,20.875 14.75,20.875 C 15.716498,20.875 16.5,21.686484 16.5,22.6875 z " />
        <path
           id="path7005"
           style="opacity:0.37341769;color:#000000;fill:#ffffff;fill-opacity:1;fill-rule:nonzero;stroke:none;stroke-width:1;stroke-linecap:butt;stroke-linejoin:miter;marker:none;marker-start:none;marker-mid:none;marker-end:none;stroke-miterlimit:4;stroke-dashoffset:0;stroke-opacity:1;visibility:visible;display:inline;overflow:visible;font-family:Bitstream Vera Sans"
           transform="matrix(1.673245,0,0,1.673245,-114.00058,31.80613)"
           d="M 16.5,22.6875 C 16.5,23.688516 15.716498,24.5 14.75,24.5 C 13.783502,24.5 13,23.688516 13,22.6875 C 13,21.686484 13.783502,20.875 14.75,20.875 C 15.716498,20.875 16.5,21.686484 16.5,22.6875 z " />
        <path
           id="path7007"
           style="color:#000000;fill:url(#radialGradient5671);fill-opacity:1;fill-rule:nonzero;stroke:none;stroke-width:1;stroke-linecap:butt;stroke-linejoin:miter;marker:none;marker-start:none;marker-mid:none;marker-end:none;stroke-miterlimit:4;stroke-dashoffset:0;stroke-opacity:1;visibility:visible;display:inline;overflow:visible;font-family:Bitstream Vera Sans"
           transform="matrix(0.41273,0,0,0.41273,-89.88316,65.788647)"
           d="M 16.5,22.6875 C 16.5,23.688516 15.716498,24.5 14.75,24.5 C 13.783502,24.5 13,23.688516 13,22.6875 C 13,21.686484 13.783502,20.875 14.75,20.875 C 15.716498,20.875 16.5,21.686484 16.5,22.6875 z " />
        <path
           id="path7009"
           style="color:#000000;fill:#ffffff;fill-opacity:1;fill-rule:nonzero;stroke:none;stroke-width:1;stroke-linecap:butt;stroke-linejoin:miter;marker:none;marker-start:none;marker-mid:none;marker-end:none;stroke-miterlimit:4;stroke-dashoffset:0;stroke-opacity:1;visibility:visible;display:inline;overflow:visible;font-family:Bitstream Vera Sans"
           transform="matrix(0.45611,0,0,0.45611,-97.03183,58.199937)"
           d="M 16.5,22.6875 C 16.5,23.688516 15.716498,24.5 14.75,24.5 C 13.783502,24.5 13,23.688516 13,22.6875 C 13,21.686484 13.783502,20.875 14.75,20.875 C 15.716498,20.875 16.5,21.686484 16.5,22.6875 z " />
      </g>
      <path
         id="path7011"
         style="opacity:0.7;color:#000000;fill:#ffffff;fill-opacity:1;fill-rule:nonzero;stroke:none;stroke-width:1;stroke-linecap:butt;stroke-linejoin:miter;marker:none;marker-start:none;marker-mid:none;marker-end:none;stroke-miterlimit:4;stroke-dashoffset:0;stroke-opacity:1;visibility:visible;display:inline;overflow:visible;font-family:Bitstream Vera Sans"
         d="M 9.25,24.65625 C 7.9608977,24.65625 6.9374999,25.744724 6.9375,27.0625 C 6.9375,27.367347 6.9917161,27.638143 7.09375,27.90625 C 7.2264692,27.930288 7.3605638,27.9375 7.5,27.9375 C 8.7862281,27.9375 9.8124996,26.877338 9.8125,25.5625 C 9.8125,25.267207 9.783725,24.979772 9.6875,24.71875 C 9.5448256,24.690872 9.4005829,24.65625 9.25,24.65625 z " />
      <g
         id="g7013"
         style="display:inline"
         transform="matrix(0.7957586,0,0,0.7854084,108.5717,-29.229826)">
        <path
           id="path7015"
           style="color:#000000;fill:url(#radialGradient5673);fill-opacity:1;fill-rule:nonzero;stroke:url(#linearGradient5675);stroke-width:0.75428027;stroke-linecap:butt;stroke-linejoin:miter;marker:none;marker-start:none;marker-mid:none;marker-end:none;stroke-miterlimit:4;stroke-dashoffset:0;stroke-opacity:1;visibility:visible;display:inline;overflow:visible;font-family:Bitstream Vera Sans"
           transform="matrix(1.676984,0,0,1.676984,-113.8461,33.756151)"
           d="M 19.875,22.5625 C 19.875,24.875192 18.028175,26.75 15.75,26.75 C 13.471825,26.75 11.625,24.875192 11.625,22.5625 C 11.625,20.249808 13.471825,18.375 15.75,18.375 C 18.028175,18.375 19.875,20.249808 19.875,22.5625 L 19.875,22.5625 z " />
        <path
           id="path7017"
           style="opacity:0.60759499;color:#000000;fill:#ffffff;fill-opacity:0.52866247;fill-rule:nonzero;stroke:none;stroke-width:1;stroke-linecap:butt;stroke-linejoin:miter;marker:none;marker-start:none;marker-mid:none;marker-end:none;stroke-miterlimit:4;stroke-dashoffset:0;stroke-opacity:1;visibility:visible;display:inline;overflow:visible;font-family:Bitstream Vera Sans"
           transform="matrix(1.676984,0,0,1.676984,-111.83457,33.611503)"
           d="M 16.5,22.6875 C 16.5,23.688516 15.716498,24.5 14.75,24.5 C 13.783502,24.5 13,23.688516 13,22.6875 C 13,21.686484 13.783502,20.875 14.75,20.875 C 15.716498,20.875 16.5,21.686484 16.5,22.6875 z " />
        <path
           id="path7019"
           style="opacity:0.37341769;color:#000000;fill:#ffffff;fill-opacity:1;fill-rule:nonzero;stroke:none;stroke-width:1;stroke-linecap:butt;stroke-linejoin:miter;marker:none;marker-start:none;marker-mid:none;marker-end:none;stroke-miterlimit:4;stroke-dashoffset:0;stroke-opacity:1;visibility:visible;display:inline;overflow:visible;font-family:Bitstream Vera Sans"
           transform="matrix(1.673245,0,0,1.673245,-114.00058,31.80613)"
           d="M 16.5,22.6875 C 16.5,23.688516 15.716498,24.5 14.75,24.5 C 13.783502,24.5 13,23.688516 13,22.6875 C 13,21.686484 13.783502,20.875 14.75,20.875 C 15.716498,20.875 16.5,21.686484 16.5,22.6875 z " />
        <path
           id="path7021"
           style="color:#000000;fill:url(#radialGradient5677);fill-opacity:1;fill-rule:nonzero;stroke:none;stroke-width:1;stroke-linecap:butt;stroke-linejoin:miter;marker:none;marker-start:none;marker-mid:none;marker-end:none;stroke-miterlimit:4;stroke-dashoffset:0;stroke-opacity:1;visibility:visible;display:inline;overflow:visible;font-family:Bitstream Vera Sans"
           transform="matrix(0.41273,0,0,0.41273,-89.88316,65.788647)"
           d="M 16.5,22.6875 C 16.5,23.688516 15.716498,24.5 14.75,24.5 C 13.783502,24.5 13,23.688516 13,22.6875 C 13,21.686484 13.783502,20.875 14.75,20.875 C 15.716498,20.875 16.5,21.686484 16.5,22.6875 z " />
        <path
           id="path7023"
           style="color:#000000;fill:#ffffff;fill-opacity:1;fill-rule:nonzero;stroke:none;stroke-width:1;stroke-linecap:butt;stroke-linejoin:miter;marker:none;marker-start:none;marker-mid:none;marker-end:none;stroke-miterlimit:4;stroke-dashoffset:0;stroke-opacity:1;visibility:visible;display:inline;overflow:visible;font-family:Bitstream Vera Sans"
           transform="matrix(0.45611,0,0,0.45611,-97.03183,58.199937)"
           d="M 16.5,22.6875 C 16.5,23.688516 15.716498,24.5 14.75,24.5 C 13.783502,24.5 13,23.688516 13,22.6875 C 13,21.686484 13.783502,20.875 14.75,20.875 C 15.716498,20.875 16.5,21.686484 16.5,22.6875 z " />
      </g>
      <path
         id="path7025"
         style="opacity:0.7;color:#000000;fill:#ffffff;fill-opacity:1;fill-rule:nonzero;stroke:none;stroke-width:1;stroke-linecap:butt;stroke-linejoin:miter;marker:none;marker-start:none;marker-mid:none;marker-end:none;stroke-miterlimit:4;stroke-dashoffset:0;stroke-opacity:1;visibility:visible;display:inline;overflow:visible;font-family:Bitstream Vera Sans"
         d="M 39.25,24.65625 C 37.960898,24.65625 36.9375,25.744724 36.9375,27.0625 C 36.9375,27.367347 36.991716,27.638143 37.09375,27.90625 C 37.226469,27.930288 37.360564,27.9375 37.5,27.9375 C 38.786228,27.9375 39.8125,26.877338 39.8125,25.5625 C 39.8125,25.267207 39.783725,24.979772 39.6875,24.71875 C 39.544826,24.690872 39.400583,24.65625 39.25,24.65625 z " />
    </g>
  </g>
</svg>
