<?xml version="1.0" encoding="UTF-8" standalone="no"?>
<!-- Created with Inkscape (http://www.inkscape.org/) -->
<svg
   xmlns:dc="http://purl.org/dc/elements/1.1/"
   xmlns:cc="http://web.resource.org/cc/"
   xmlns:rdf="http://www.w3.org/1999/02/22-rdf-syntax-ns#"
   xmlns:svg="http://www.w3.org/2000/svg"
   xmlns="http://www.w3.org/2000/svg"
   xmlns:xlink="http://www.w3.org/1999/xlink"
   xmlns:sodipodi="http://sodipodi.sourceforge.net/DTD/sodipodi-0.dtd"
   xmlns:inkscape="http://www.inkscape.org/namespaces/inkscape"
   width="22"
   height="22"
   id="svg2"
   sodipodi:version="0.32"
   inkscape:version="0.45.1"
   version="1.0"
   sodipodi:docbase="/home/lapo/Icone/gnome-icon-theme/22x22/categories"
   sodipodi:docname="applications-utilities.svg"
   inkscape:output_extension="org.inkscape.output.svg.inkscape">
  <defs
     id="defs4">
    <linearGradient
       inkscape:collect="always"
       id="linearGradient6475">
      <stop
         style="stop-color:#000000;stop-opacity:1;"
         offset="0"
         id="stop6477" />
      <stop
         style="stop-color:#000000;stop-opacity:0;"
         offset="1"
         id="stop6479" />
    </linearGradient>
    <linearGradient
       inkscape:collect="always"
       id="linearGradient6437">
      <stop
         style="stop-color:#ffffff;stop-opacity:1;"
         offset="0"
         id="stop6439" />
      <stop
         style="stop-color:#ffffff;stop-opacity:0;"
         offset="1"
         id="stop6441" />
    </linearGradient>
    <linearGradient
       inkscape:collect="always"
       id="linearGradient6424">
      <stop
         style="stop-color:#cc0000;stop-opacity:1"
         offset="0"
         id="stop6426" />
      <stop
         style="stop-color:#ef2929;stop-opacity:1"
         offset="1"
         id="stop6428" />
    </linearGradient>
    <linearGradient
       inkscape:collect="always"
       id="linearGradient6408">
      <stop
         style="stop-color:#ffffff;stop-opacity:1;"
         offset="0"
         id="stop6410" />
      <stop
         style="stop-color:#ffffff;stop-opacity:0;"
         offset="1"
         id="stop6412" />
    </linearGradient>
    <linearGradient
       inkscape:collect="always"
       id="linearGradient6397">
      <stop
         style="stop-color:#000000;stop-opacity:1;"
         offset="0"
         id="stop6399" />
      <stop
         style="stop-color:#000000;stop-opacity:0;"
         offset="1"
         id="stop6402" />
    </linearGradient>
    <linearGradient
       id="linearGradient6393">
      <stop
         style="stop-color:#d3d7cf;stop-opacity:1"
         offset="0"
         id="stop6395" />
      <stop
         id="stop6401"
         offset="0.5"
         style="stop-color:#ffffff;stop-opacity:1;" />
      <stop
         style="stop-color:#eeeeec;stop-opacity:1"
         offset="1"
         id="stop6397" />
    </linearGradient>
    <linearGradient
       inkscape:collect="always"
       id="linearGradient6377">
      <stop
         style="stop-color:#2e3436;stop-opacity:1"
         offset="0"
         id="stop6379" />
      <stop
         style="stop-color:#2e3436;stop-opacity:0"
         offset="1"
         id="stop6381" />
    </linearGradient>
    <linearGradient
       inkscape:collect="always"
       xlink:href="#linearGradient6377"
       id="linearGradient5486"
       gradientUnits="userSpaceOnUse"
       gradientTransform="matrix(0.3297188,0.6610932,-0.3297188,0.6610932,13.105617,-13.728491)"
       x1="16.175068"
       y1="5.8339934"
       x2="17.103146"
       y2="6.8994184" />
    <linearGradient
       inkscape:collect="always"
       xlink:href="#linearGradient6393"
       id="linearGradient5510"
       gradientUnits="userSpaceOnUse"
       x1="40.570251"
       y1="37.349899"
       x2="40.570251"
       y2="27.537407"
       gradientTransform="matrix(0.3669547,0.4709781,-0.3669547,0.4709781,12.55983,-15.159029)" />
    <linearGradient
       inkscape:collect="always"
       xlink:href="#linearGradient6393"
       id="linearGradient5517"
       gradientUnits="userSpaceOnUse"
       x1="8.5690336"
       y1="11.255746"
       x2="22.398188"
       y2="13"
       gradientTransform="matrix(0.4314119,0.4953406,-0.4314119,0.4953406,11.979949,-9.5380818)" />
    <linearGradient
       inkscape:collect="always"
       xlink:href="#linearGradient6393"
       id="linearGradient5524"
       gradientUnits="userSpaceOnUse"
       x1="14.273527"
       y1="15.035544"
       x2="33.601479"
       y2="20.214453"
       gradientTransform="matrix(0.3297188,0.3542106,-0.3297188,0.3542106,12.0942,-6.3153167)" />
    <linearGradient
       inkscape:collect="always"
       xlink:href="#linearGradient6377"
       id="linearGradient6380"
       gradientUnits="userSpaceOnUse"
       gradientTransform="matrix(0.3297188,0.6610932,-0.3297188,0.6610932,13.105617,4.271509)"
       x1="16.175068"
       y1="5.8339934"
       x2="17.103146"
       y2="6.8994184" />
    <linearGradient
       inkscape:collect="always"
       xlink:href="#linearGradient6377"
       id="linearGradient6384"
       gradientUnits="userSpaceOnUse"
       gradientTransform="matrix(0.3297188,0.6610932,-0.3297188,0.6610932,14.105617,-3.7284914)"
       x1="16.175068"
       y1="5.8339934"
       x2="17.103146"
       y2="6.8994184" />
    <linearGradient
       inkscape:collect="always"
       xlink:href="#linearGradient6397"
       id="linearGradient6404"
       x1="13.796335"
       y1="4.3741069"
       x2="13.796335"
       y2="8.2998066"
       gradientUnits="userSpaceOnUse" />
    <linearGradient
       inkscape:collect="always"
       xlink:href="#linearGradient6408"
       id="linearGradient6414"
       x1="6.625"
       y1="2.8125"
       x2="10.25"
       y2="24.6875"
       gradientUnits="userSpaceOnUse" />
    <linearGradient
       inkscape:collect="always"
       xlink:href="#linearGradient6424"
       id="linearGradient6430"
       x1="6.3639612"
       y1="16.519922"
       x2="11.402097"
       y2="16.343145"
       gradientUnits="userSpaceOnUse" />
    <linearGradient
       inkscape:collect="always"
       xlink:href="#linearGradient6437"
       id="linearGradient6443"
       x1="8.2201166"
       y1="6.797204"
       x2="10"
       y2="13.161165"
       gradientUnits="userSpaceOnUse" />
    <radialGradient
       inkscape:collect="always"
       xlink:href="#linearGradient6475"
       id="radialGradient6481"
       cx="10.650796"
       cy="20.40901"
       fx="10.650796"
       fy="20.40901"
       r="10.474019"
       gradientTransform="matrix(1,0,0,0.1350211,0,17.653363)"
       gradientUnits="userSpaceOnUse" />
  </defs>
  <sodipodi:namedview
     id="base"
     pagecolor="#ffffff"
     bordercolor="#666666"
     borderopacity="0.34901961"
     inkscape:pageopacity="0"
     inkscape:pageshadow="2"
     inkscape:zoom="1"
     inkscape:cx="36.327653"
     inkscape:cy="-2.604386"
     inkscape:document-units="px"
     inkscape:current-layer="layer1"
     width="22px"
     height="22px"
     inkscape:showpageshadow="false"
     gridspacingx="0.5px"
     gridspacingy="0.5px"
     gridempspacing="2"
     showgrid="false"
     inkscape:window-width="1081"
     inkscape:window-height="750"
     inkscape:window-x="107"
     inkscape:window-y="193"
     borderlayer="true"
     showborder="false"
     showguides="false"
     inkscape:guide-bbox="true"
     inkscape:grid-points="true"
     inkscape:object-paths="false"
     inkscape:grid-bbox="false">
    <sodipodi:guide
       orientation="horizontal"
       position="19.533825"
       id="guide6330" />
    <sodipodi:guide
       orientation="vertical"
       position="19.003495"
       id="guide6332" />
  </sodipodi:namedview>
  <metadata
     id="metadata7">
    <rdf:RDF>
      <cc:Work
         rdf:about="">
        <dc:format>image/svg+xml</dc:format>
        <dc:type
           rdf:resource="http://purl.org/dc/dcmitype/StillImage" />
        <cc:license
           rdf:resource="http://creativecommons.org/licenses/GPL/2.0/" />
        <dc:creator>
          <cc:Agent>
            <dc:title>Lapo Calamandrei</dc:title>
          </cc:Agent>
        </dc:creator>
        <dc:title>Swiss Army Knife</dc:title>
        <dc:subject>
          <rdf:Bag>
            <rdf:li>utilities</rdf:li>
          </rdf:Bag>
        </dc:subject>
      </cc:Work>
      <cc:License
         rdf:about="http://creativecommons.org/licenses/GPL/2.0/">
        <cc:permits
           rdf:resource="http://web.resource.org/cc/Reproduction" />
        <cc:permits
           rdf:resource="http://web.resource.org/cc/Distribution" />
        <cc:requires
           rdf:resource="http://web.resource.org/cc/Notice" />
        <cc:permits
           rdf:resource="http://web.resource.org/cc/DerivativeWorks" />
        <cc:requires
           rdf:resource="http://web.resource.org/cc/ShareAlike" />
        <cc:requires
           rdf:resource="http://web.resource.org/cc/SourceCode" />
      </cc:License>
    </rdf:RDF>
  </metadata>
  <g
     inkscape:label="Livello 1"
     inkscape:groupmode="layer"
     id="layer1">
    <g
       id="g6744"
       transform="matrix(0.7071068,0.7071068,-0.7071068,0.7071068,17.192388,-1.0918836)" />
    <path
       style="fill:url(#linearGradient5524);fill-opacity:1;stroke:#888a85;stroke-width:1.00000012;stroke-linecap:round;stroke-linejoin:miter;stroke-miterlimit:4;stroke-dashoffset:0.7;stroke-opacity:1"
       d="M 10.262992,1.2811387 L 18.242187,9.8530353 C 20.942516,12.753947 20.5,14.5 20.5,14.5 C 20.5,14.5 16.24725,14.768754 12.666705,11.188209 L 7.2846794,5.4064023 C 6.6551904,4.7301543 7.5895814,1.7118043 8.1375741,1.1231063 C 8.6855667,0.53440824 9.633503,0.60489073 10.262992,1.2811387 z "
       id="rect6318"
       sodipodi:nodetypes="cczccsc" />
    <path
       sodipodi:type="inkscape:offset"
       inkscape:radius="-0.88837439"
       inkscape:original="M 6.15625 0.71875 C 5.7720807 0.69018565 5.3989963 0.830651 5.125 1.125 C 4.5770073 1.713698 3.651761 4.7300022 4.28125 5.40625 L 9.65625 11.1875 C 13.236795 14.768045 17.5 14.5 17.5 14.5 C 17.5 14.5 17.950329 12.744662 15.25 9.84375 L 7.25 1.28125 C 6.9352555 0.94312601 6.5404193 0.74731435 6.15625 0.71875 z "
       style="fill:none;fill-opacity:1;stroke:#ffffff;stroke-width:1.00000012;stroke-linecap:round;stroke-linejoin:miter;stroke-miterlimit:4;stroke-dashoffset:0.7;stroke-opacity:1"
       id="path6361"
       d="M 6.09375,1.59375 C 5.9667569,1.5843076 5.8772565,1.6156121 5.78125,1.71875 C 5.817086,1.6802521 5.6344394,1.9528252 5.5,2.28125 C 5.3655606,2.6096748 5.2247389,3.0260519 5.125,3.4375 C 5.0252611,3.8489481 4.973771,4.275945 4.96875,4.5625 C 4.963729,4.849055 5.0784865,4.9639591 4.9375,4.8125 L 10.3125,10.59375 C 12.977116,13.258366 15.459278,13.469516 16.53125,13.5 C 16.349935,12.854038 15.866246,11.804519 14.59375,10.4375 L 6.59375,1.875 C 6.4149186,1.6828849 6.2234208,1.6033915 6.09375,1.59375 z "
       transform="translate(3,0)" />
    <path
       sodipodi:type="inkscape:offset"
       inkscape:radius="0.49961689"
       inkscape:original="M 9.15625 0.71875 C 8.7720807 0.69018565 8.3989963 0.830651 8.125 1.125 C 7.5770073 1.713698 6.651761 4.7300022 7.28125 5.40625 L 12.65625 11.1875 C 16.236795 14.768045 20.5 14.5 20.5 14.5 C 20.5 14.5 20.950329 12.744662 18.25 9.84375 L 10.25 1.28125 C 9.9352555 0.94312601 9.5404193 0.74731435 9.15625 0.71875 z "
       style="opacity:0.38362068;fill:url(#linearGradient6404);fill-opacity:1;stroke:none;stroke-width:1.00000012;stroke-linecap:round;stroke-linejoin:miter;stroke-miterlimit:4;stroke-dashoffset:0.7;stroke-opacity:1"
       id="path6393"
       d="M 9.1875,0.21875 C 8.6586962,0.17943156 8.1240968,0.37936493 7.75,0.78125 C 7.5158008,1.0328456 7.3837001,1.34704 7.21875,1.75 C 7.0537999,2.15296 6.8978993,2.6437925 6.78125,3.125 C 6.6646007,3.6062075 6.5702729,4.0876442 6.5625,4.53125 C 6.5547271,4.9748558 6.5810824,5.4006788 6.90625,5.75 L 12.28125,11.53125 C 12.291664,11.531576 12.302086,11.531576 12.3125,11.53125 C 16.042074,15.260824 20.53125,15 20.53125,15 C 20.741732,14.980144 20.916936,14.829968 20.96875,14.625 C 20.96875,14.625 21.031219,14.442033 21.03125,14.1875 C 21.031281,13.932967 20.999752,13.569447 20.875,13.125 C 20.625496,12.236107 20.018845,10.997381 18.625,9.5 L 10.625,0.9375 C 10.233819,0.51726142 9.7147979,0.25795647 9.1875,0.21875 z " />
    <path
       style="fill:url(#linearGradient5517);fill-opacity:1;stroke:#888a85;stroke-width:1.00000012;stroke-linecap:round;stroke-linejoin:miter;stroke-miterlimit:4;stroke-dashoffset:0.7;stroke-opacity:1"
       d="M 9.53874,0.50742344 C 8.0976701,0.50742341 6.9457794,1.851898 6.9457795,3.5065132 C 6.9457796,5.1611281 8.0976714,6.483712 9.53874,6.483712 L 13.104062,6.4837125 C 13.104062,6.4837125 14.5,6.5 14.5,6.5 C 14.5,6.5 14.5,4.5 14.5,4.5 C 14.5,4 15,3.5 15.5,3.5 L 17.5,3.5 C 18,3.5 18.5,4 18.5,4.5 C 18.5,4.5 18.5,5.5 18.5,5.5 L 19.5,5.5 C 20.858997,4.731391 21.503495,2.9916054 21.503495,2.1019114 C 21.503495,1.1905441 18.854024,0.50742341 17.412953,0.50742344 L 9.53874,0.50742344 z "
       id="rect5331"
       sodipodi:nodetypes="cscccccccccscc" />
    <path
       sodipodi:type="arc"
       style="opacity:0.38362068;fill:url(#radialGradient6481);fill-opacity:1;stroke:none;stroke-width:1;stroke-linecap:butt;stroke-linejoin:round;stroke-miterlimit:6.69999981;stroke-dasharray:none;stroke-dashoffset:0.7;stroke-opacity:1"
       id="path6473"
       sodipodi:cx="10.650796"
       sodipodi:cy="20.40901"
       sodipodi:rx="10.474019"
       sodipodi:ry="1.4142135"
       d="M 21.124815 20.40901 A 10.474019 1.4142135 0 1 1  0.17677689,20.40901 A 10.474019 1.4142135 0 1 1  21.124815 20.40901 z"
       transform="matrix(0.8002763,0,0,1.71875,1.1566269,-15.155112)" />
    <path
       style="fill:url(#linearGradient5510);fill-opacity:1;stroke:#888a85;stroke-width:1.1;stroke-linecap:round;stroke-linejoin:miter;stroke-miterlimit:4;stroke-dashoffset:0.7;stroke-opacity:1;stroke-dasharray:none"
       d="M 8.1432207,16.503617 C 7.0840114,16.503619 6.5863635,17.39481 6.5863635,18.50181 C 6.586364,19.608808 7.4407904,20.499999 8.5,20.5 L 18.5,20.5 L 21.5,19.5 L 21.5,17.5 L 18.5,16.5 C 17.236704,16.796842 16.520323,18.513607 15.102878,18.513607 C 14.38413,18.513607 14.5,17.422499 14.5,16.5 L 8.1432207,16.503617 z "
       id="rect6323"
       sodipodi:nodetypes="cscccccscc" />
    <path
       style="fill:#eeeeec;fill-rule:evenodd;stroke:#888a85;stroke-width:1.00000012px;stroke-linecap:butt;stroke-linejoin:miter;stroke-opacity:1"
       d="M 6.6952174,5.9492397 C 4.4074214,9.1351715 0.26115816,12.530455 0.46564143,16 L 9.454482,7.6761877 L 6.6952174,5.9492397 z "
       id="path6334"
       sodipodi:nodetypes="cccc" />
    <path
       sodipodi:type="inkscape:offset"
       inkscape:radius="-0.734375"
       inkscape:original="M 6.53125 0.5 C 5.0901804 0.49999995 3.9374999 1.8453848 3.9375 3.5 C 3.9375 5.154615 5.0901817 6.46875 6.53125 6.46875 L 10.09375 6.46875 C 10.09375 6.4687498 11.5 6.5 11.5 6.5 C 11.5 6.5 11.5 4.5 11.5 4.5 C 11.5 4 12 3.5 12.5 3.5 L 14.5 3.5 C 15 3.5 15.5 4 15.5 4.5 C 15.5 4.5 15.5 5.5 15.5 5.5 L 16.5 5.5 C 17.858997 4.731391 18.5 2.983444 18.5 2.09375 C 18.500001 1.1823828 15.847321 0.49999997 14.40625 0.5 L 6.53125 0.5 z "
       style="fill:none;fill-opacity:1;stroke:#ffffff;stroke-width:1;stroke-linecap:round;stroke-linejoin:round;stroke-miterlimit:4;stroke-dasharray:none;stroke-dashoffset:0.7;stroke-opacity:1"
       id="path5384"
       d="M 6.53125,1.21875 C 5.5472562,1.21875 4.6562499,2.1864509 4.65625,3.5 C 4.65625,4.8135485 5.5366412,5.75 6.53125,5.75 L 10.09375,5.75 C 10.104165,5.7497784 10.114585,5.7497784 10.125,5.75 C 10.125,5.75 10.441541,5.7431454 10.75,5.75 C 10.75,5.1640625 10.75,4.5 10.75,4.5 C 10.75,4.0052083 10.978354,3.5841459 11.28125,3.28125 C 11.584146,2.9783541 12.005208,2.75 12.5,2.75 L 14.5,2.75 C 14.994792,2.75 15.415854,2.9783541 15.71875,3.28125 C 16.021646,3.5841459 16.25,4.0052083 16.25,4.5 C 16.25,4.5 16.25,4.6439819 16.25,4.71875 C 16.690277,4.4181555 17.092982,3.9894013 17.34375,3.5 C 17.625122,2.950873 17.75,2.3622305 17.75,2.09375 C 17.75,2.2221609 17.801977,2.1878789 17.625,2.0625 C 17.448023,1.9371211 17.128513,1.783954 16.75,1.65625 C 15.992974,1.4008419 15.010871,1.25 14.40625,1.25 L 6.53125,1.21875 z "
       transform="translate(3,0)" />
    <path
       style="fill:url(#linearGradient5486);fill-opacity:1;fill-rule:evenodd;stroke:none;stroke-width:1px;stroke-linecap:butt;stroke-linejoin:miter;stroke-opacity:1"
       d="M 15.26053,1.0584329 L 18,1 C 17.961976,2.1603447 16.047056,2.2509481 15.26053,1.0584329 z "
       id="path6375"
       sodipodi:nodetypes="ccc" />
    <path
       sodipodi:type="inkscape:offset"
       inkscape:radius="-0.75"
       inkscape:original="M 5.15625 16.5 C 4.0970405 16.500003 3.59375 17.393 3.59375 18.5 C 3.5937504 19.606998 4.4407904 20.499999 5.5 20.5 L 15.5 20.5 L 18.5 19.5 L 18.5 17.5 L 15.5 16.5 C 14.236704 16.796842 13.511195 18.5 12.09375 18.5 C 11.375002 18.5 11.5 17.422499 11.5 16.5 L 5.15625 16.5 z "
       style="fill:none;fill-opacity:1;stroke:#ffffff;stroke-width:1.00000012;stroke-linecap:round;stroke-linejoin:miter;stroke-miterlimit:4;stroke-dashoffset:0.7;stroke-opacity:1"
       id="path6369"
       d="M 5.15625,17.25 C 4.8374146,17.250001 4.728936,17.341931 4.59375,17.53125 C 4.458564,17.720569 4.34375,18.060161 4.34375,18.5 C 4.3437503,19.224414 4.8623312,19.749999 5.5,19.75 L 15.34375,19.75 L 17.75,18.9375 L 17.75,18.0625 L 15.53125,17.3125 C 15.200154,17.436682 14.829834,17.720589 14.34375,18.15625 C 13.805542,18.638628 13.102865,19.25 12.09375,19.25 C 11.726671,19.25 11.307158,19.056932 11.09375,18.78125 C 10.880342,18.505568 10.820819,18.228535 10.78125,17.96875 C 10.74254,17.714607 10.780782,17.491484 10.78125,17.25 L 5.15625,17.25 z "
       transform="translate(3,0)" />
    <path
       style="opacity:0.15;fill:#000000;fill-opacity:1;stroke:none;stroke-width:0.99999994;stroke-linecap:butt;stroke-linejoin:miter;stroke-miterlimit:4;stroke-dasharray:none;stroke-dashoffset:0.7;stroke-opacity:1"
       d="M 9.53125 0 C 7.7789795 -6.0797546e-08 6.4374999 1.6131697 6.4375 3.5 C 6.4375001 3.8248552 6.4874024 4.1372386 6.5625 4.4375 C 6.5612026 4.4678322 6.5630256 4.5012521 6.5625 4.53125 C 6.5547271 4.9748558 6.5810824 5.4006788 6.90625 5.75 L 12.28125 11.53125 C 12.291664 11.531576 12.302086 11.531576 12.3125 11.53125 C 12.535025 11.753775 12.773182 11.961233 13 12.15625 L 13 3.5 C 13 2.0844964 12.317677 0.82767194 11.28125 0 L 9.53125 0 z M 8.15625 16 C 7.4861324 16.000002 6.902749 16.304755 6.5625 16.78125 C 6.222251 17.257745 6.09375 17.870726 6.09375 18.5 C 6.0937509 19.862054 7.1597632 20.999999 8.5 21 L 11.28125 21 C 12.317677 20.172328 13 18.915504 13 17.5 L 13 16 L 8.15625 16 z "
       id="path6449" />
    <path
       sodipodi:type="inkscape:offset"
       inkscape:radius="-0.86960024"
       inkscape:original="M 6.6875 5.9375 C 4.3997038 9.1234318 0.26426673 12.530455 0.46875 16 L 9.46875 7.6875 L 6.6875 5.9375 z "
       style="fill:none;fill-rule:evenodd;stroke:#ffffff;stroke-width:1;stroke-linecap:butt;stroke-linejoin:miter;stroke-miterlimit:10;stroke-dasharray:none;stroke-opacity:1"
       id="path6376"
       d="M 6.875,7.09375 C 5.7491164,8.5422632 4.4289503,9.9945379 3.34375,11.40625 C 2.8454285,12.054505 2.4894774,12.662125 2.15625,13.28125 L 8.03125,7.84375 L 6.875,7.09375 z " />
    <rect
       style="opacity:1;fill:url(#linearGradient6430);fill-opacity:1.0;stroke:#a40000;stroke-width:0.99999994;stroke-linecap:butt;stroke-linejoin:miter;stroke-miterlimit:4;stroke-dasharray:none;stroke-dashoffset:0.7;stroke-opacity:1"
       id="rect5529"
       width="6.0029941"
       height="20"
       x="5.4970059"
       y="0.5"
       rx="3.001497"
       ry="3.001497" />
    <path
       style="fill:url(#linearGradient6380);fill-opacity:1;fill-rule:evenodd;stroke:none;stroke-width:1px;stroke-linecap:butt;stroke-linejoin:miter;stroke-opacity:1"
       d="M 15.26053,19.85399 L 18,19.912423 C 17.961976,18.752078 16.047056,18.661475 15.26053,19.85399 z "
       id="path6378"
       sodipodi:nodetypes="ccc" />
    <path
       style="fill:url(#linearGradient6384);fill-opacity:1;fill-rule:evenodd;stroke:none;stroke-width:1px;stroke-linecap:butt;stroke-linejoin:miter;stroke-opacity:1"
       d="M 18.880086,12.143488 L 16.984306,10.165072 C 16.190706,11.012447 17.480693,12.430566 18.880086,12.143488 z "
       id="path6382"
       sodipodi:nodetypes="ccc" />
    <rect
       style="opacity:0.4;fill:none;fill-opacity:1.0;stroke:url(#linearGradient6414);stroke-width:0.99999994;stroke-linecap:butt;stroke-linejoin:miter;stroke-miterlimit:4;stroke-dasharray:none;stroke-dashoffset:0.7;stroke-opacity:1"
       id="rect6406"
       width="4"
       height="18"
       x="6.5"
       y="1.5"
       rx="2"
       ry="2" />
    <path
       style="opacity:1;fill:url(#linearGradient6443);fill-opacity:1.0;stroke:none;stroke-width:1;stroke-linecap:butt;stroke-linejoin:round;stroke-miterlimit:6.69999981;stroke-dasharray:none;stroke-dashoffset:0.7;stroke-opacity:1"
       d="M 8 6 L 8 7 L 7 7 L 7 8 L 8 8 L 8 9 L 9 9 L 9 8 L 10 8 L 10 7 L 9 7 L 9 6 L 8 6 z "
       id="rect6432" />
  </g>
</svg>
