<?xml version="1.0" encoding="UTF-8" standalone="no"?>
<!-- Created with Inkscape (http://www.inkscape.org/) -->
<svg
   xmlns:dc="http://purl.org/dc/elements/1.1/"
   xmlns:cc="http://web.resource.org/cc/"
   xmlns:rdf="http://www.w3.org/1999/02/22-rdf-syntax-ns#"
   xmlns:svg="http://www.w3.org/2000/svg"
   xmlns="http://www.w3.org/2000/svg"
   xmlns:xlink="http://www.w3.org/1999/xlink"
   xmlns:sodipodi="http://sodipodi.sourceforge.net/DTD/sodipodi-0.dtd"
   xmlns:inkscape="http://www.inkscape.org/namespaces/inkscape"
   width="22"
   height="22"
   id="svg5284"
   sodipodi:version="0.32"
   inkscape:version="0.45"
   sodipodi:docbase="/home/dobey/Projects/gnome-icon-theme/22x22/categories"
   sodipodi:docname="applications-science.svg"
   inkscape:output_extension="org.inkscape.output.svg.inkscape"
   version="1.0">
  <defs
     id="defs5286">
    <linearGradient
       inkscape:collect="always"
       id="linearGradient3674">
      <stop
         style="stop-color:#ffffff;stop-opacity:1;"
         offset="0"
         id="stop3676" />
      <stop
         style="stop-color:#ffffff;stop-opacity:0;"
         offset="1"
         id="stop3678" />
    </linearGradient>
    <linearGradient
       inkscape:collect="always"
       id="linearGradient3664">
      <stop
         style="stop-color:#73d216;stop-opacity:1"
         offset="0"
         id="stop3666" />
      <stop
         style="stop-color:#ffffff;stop-opacity:1"
         offset="1"
         id="stop3668" />
    </linearGradient>
    <linearGradient
       inkscape:collect="always"
       id="linearGradient3633">
      <stop
         style="stop-color:#ffffff;stop-opacity:1;"
         offset="0"
         id="stop3635" />
      <stop
         style="stop-color:#ffffff;stop-opacity:0;"
         offset="1"
         id="stop3637" />
    </linearGradient>
    <linearGradient
       inkscape:collect="always"
       id="linearGradient3600">
      <stop
         style="stop-color:#000000;stop-opacity:1;"
         offset="0"
         id="stop3602" />
      <stop
         style="stop-color:#000000;stop-opacity:0;"
         offset="1"
         id="stop3604" />
    </linearGradient>
    <linearGradient
       inkscape:collect="always"
       id="linearGradient3582">
      <stop
         style="stop-color:#ce5c00;stop-opacity:1"
         offset="0"
         id="stop3584" />
      <stop
         style="stop-color:#f57900;stop-opacity:1"
         offset="1"
         id="stop3586" />
    </linearGradient>
    <linearGradient
       inkscape:collect="always"
       id="linearGradient3566">
      <stop
         style="stop-color:#ce5c00;stop-opacity:1;"
         offset="0"
         id="stop3568" />
      <stop
         style="stop-color:#ffffff;stop-opacity:1"
         offset="1"
         id="stop3570" />
    </linearGradient>
    <linearGradient
       inkscape:collect="always"
       id="linearGradient3541">
      <stop
         style="stop-color:#ffffff;stop-opacity:1;"
         offset="0"
         id="stop3543" />
      <stop
         style="stop-color:#ffffff;stop-opacity:0;"
         offset="1"
         id="stop3545" />
    </linearGradient>
    <linearGradient
       inkscape:collect="always"
       id="linearGradient3523">
      <stop
         style="stop-color:#ffffff;stop-opacity:1;"
         offset="0"
         id="stop3525" />
      <stop
         style="stop-color:#ffffff;stop-opacity:0;"
         offset="1"
         id="stop3527" />
    </linearGradient>
    <linearGradient
       inkscape:collect="always"
       id="linearGradient3495">
      <stop
         style="stop-color:#ffffff;stop-opacity:1;"
         offset="0"
         id="stop3497" />
      <stop
         style="stop-color:#ffffff;stop-opacity:0;"
         offset="1"
         id="stop3499" />
    </linearGradient>
    <linearGradient
       inkscape:collect="always"
       id="linearGradient3479">
      <stop
         style="stop-color:#ffffff;stop-opacity:1;"
         offset="0"
         id="stop3481" />
      <stop
         style="stop-color:#ffffff;stop-opacity:0;"
         offset="1"
         id="stop3483" />
    </linearGradient>
    <linearGradient
       inkscape:collect="always"
       id="linearGradient3460">
      <stop
         style="stop-color:#888a85;stop-opacity:1;"
         offset="0"
         id="stop3462" />
      <stop
         style="stop-color:#888a85;stop-opacity:0;"
         offset="1"
         id="stop3464" />
    </linearGradient>
    <linearGradient
       inkscape:collect="always"
       id="linearGradient3433">
      <stop
         style="stop-color:#ffffff;stop-opacity:1;"
         offset="0"
         id="stop3435" />
      <stop
         style="stop-color:#ffffff;stop-opacity:0;"
         offset="1"
         id="stop3438" />
    </linearGradient>
    <linearGradient
       inkscape:collect="always"
       id="linearGradient3425">
      <stop
         style="stop-color:#729fcf;stop-opacity:1;"
         offset="0"
         id="stop3427" />
      <stop
         style="stop-color:#ffffff;stop-opacity:1"
         offset="1"
         id="stop3429" />
    </linearGradient>
    <linearGradient
       id="linearGradient3413">
      <stop
         style="stop-color:#3465a4;stop-opacity:1;"
         offset="0"
         id="stop3415" />
      <stop
         id="stop3421"
         offset="0.5"
         style="stop-color:#729fcf;stop-opacity:1;" />
      <stop
         style="stop-color:#3465a4;stop-opacity:1"
         offset="1"
         id="stop3417" />
    </linearGradient>
    <linearGradient
       id="linearGradient4373">
      <stop
         id="stop4375"
         offset="0"
         style="stop-color:#ffffff;stop-opacity:1" />
      <stop
         style="stop-color:#797a76;stop-opacity:1;"
         offset="0.5"
         id="stop4379" />
      <stop
         id="stop4381"
         offset="1"
         style="stop-color:#ffffff;stop-opacity:1" />
    </linearGradient>
    <linearGradient
       id="linearGradient4134">
      <stop
         style="stop-color:#d6d7d5;stop-opacity:1;"
         offset="0"
         id="stop4136" />
      <stop
         id="stop4148"
         offset="0.25"
         style="stop-color:#d1d2d0;stop-opacity:1;" />
      <stop
         id="stop4142"
         offset="0.50000000"
         style="stop-color:#a5a6a3;stop-opacity:1.0000000;" />
      <stop
         style="stop-color:#dddedc;stop-opacity:1;"
         offset="1"
         id="stop4138" />
    </linearGradient>
    <linearGradient
       inkscape:collect="always"
       xlink:href="#linearGradient3433"
       id="linearGradient3440"
       x1="3.5355339"
       y1="3.6152236"
       x2="8.3968935"
       y2="41.445438"
       gradientUnits="userSpaceOnUse" />
    <linearGradient
       inkscape:collect="always"
       xlink:href="#linearGradient4134"
       id="linearGradient3448"
       x1="3.9195426"
       y1="10.5"
       x2="8.8509512"
       y2="10.5"
       gradientUnits="userSpaceOnUse" />
    <linearGradient
       inkscape:collect="always"
       xlink:href="#linearGradient3460"
       id="linearGradient3466"
       x1="5.59375"
       y1="4.59375"
       x2="5.09375"
       y2="1.65625"
       gradientUnits="userSpaceOnUse" />
    <linearGradient
       inkscape:collect="always"
       xlink:href="#linearGradient3479"
       id="linearGradient3485"
       x1="4.375"
       y1="10.685898"
       x2="4.375"
       y2="17.001238"
       gradientUnits="userSpaceOnUse"
       gradientTransform="matrix(1,0,0,0.8333333,0,0.8333333)" />
    <linearGradient
       inkscape:collect="always"
       xlink:href="#linearGradient3495"
       id="linearGradient3501"
       x1="5.46875"
       y1="3"
       x2="5.109375"
       y2="0.96875"
       gradientUnits="userSpaceOnUse" />
    <linearGradient
       inkscape:collect="always"
       xlink:href="#linearGradient4134"
       id="linearGradient3505"
       gradientUnits="userSpaceOnUse"
       gradientTransform="matrix(0.4071827,0,0,0.4516128,2.0660057,-1.6935479)"
       x1="24.286242"
       y1="26.5"
       x2="41.894676"
       y2="26.5" />
    <linearGradient
       inkscape:collect="always"
       xlink:href="#linearGradient3523"
       id="linearGradient3529"
       x1="11.0625"
       y1="6.6875"
       x2="19.963388"
       y2="29.435122"
       gradientUnits="userSpaceOnUse" />
    <linearGradient
       inkscape:collect="always"
       xlink:href="#linearGradient3541"
       id="linearGradient3547"
       x1="12.667896"
       y1="7.5435052"
       x2="11.764371"
       y2="3.057797"
       gradientUnits="userSpaceOnUse" />
    <linearGradient
       inkscape:collect="always"
       xlink:href="#linearGradient3479"
       id="linearGradient3551"
       gradientUnits="userSpaceOnUse"
       x1="4.375"
       y1="10.685898"
       x2="4.375"
       y2="17.001238"
       gradientTransform="matrix(2,0,0,0.5833334,4,5.0833334)" />
    <linearGradient
       inkscape:collect="always"
       xlink:href="#linearGradient3566"
       id="linearGradient3572"
       x1="15.688932"
       y1="14.726806"
       x2="15.5"
       y2="16.533243"
       gradientUnits="userSpaceOnUse" />
    <linearGradient
       inkscape:collect="always"
       xlink:href="#linearGradient3582"
       id="linearGradient3588"
       x1="18.628962"
       y1="13.71875"
       x2="14.926814"
       y2="13.71875"
       gradientUnits="userSpaceOnUse"
       gradientTransform="translate(0,-1)" />
    <radialGradient
       inkscape:collect="always"
       xlink:href="#linearGradient3600"
       id="radialGradient3606"
       cx="15.5"
       cy="16.5"
       fx="15.5"
       fy="16.5"
       r="5"
       gradientTransform="matrix(1,0,0,0.4,0,9.9)"
       gradientUnits="userSpaceOnUse" />
    <radialGradient
       inkscape:collect="always"
       xlink:href="#linearGradient3600"
       id="radialGradient3610"
       gradientUnits="userSpaceOnUse"
       gradientTransform="matrix(1,0,0,0.4,0,9.9)"
       cx="15.5"
       cy="16.5"
       fx="15.5"
       fy="16.5"
       r="5" />
    <linearGradient
       inkscape:collect="always"
       xlink:href="#linearGradient3413"
       id="linearGradient3616"
       gradientUnits="userSpaceOnUse"
       x1="6.5625"
       y1="15.125"
       x2="3.3892491"
       y2="15.125" />
    <linearGradient
       inkscape:collect="always"
       xlink:href="#linearGradient3425"
       id="linearGradient3618"
       gradientUnits="userSpaceOnUse"
       x1="5.528646"
       y1="12.796875"
       x2="5.528646"
       y2="14.65789" />
    <linearGradient
       inkscape:collect="always"
       xlink:href="#linearGradient4373"
       id="linearGradient3623"
       gradientUnits="userSpaceOnUse"
       gradientTransform="matrix(0.4761777,0,0,0.4283159,-0.4519489,1.0116269)"
       x1="18.735741"
       y1="31.5"
       x2="31.940977"
       y2="31.5" />
    <linearGradient
       inkscape:collect="always"
       xlink:href="#linearGradient3633"
       id="linearGradient3639"
       x1="8.9935141"
       y1="9.8686991"
       x2="12.551146"
       y2="24.916815"
       gradientUnits="userSpaceOnUse" />
    <linearGradient
       inkscape:collect="always"
       xlink:href="#linearGradient3664"
       id="linearGradient3670"
       x1="10.257812"
       y1="14.671875"
       x2="10.140625"
       y2="15.5"
       gradientUnits="userSpaceOnUse" />
    <radialGradient
       inkscape:collect="always"
       xlink:href="#linearGradient3674"
       id="radialGradient3680"
       cx="9.0132446"
       cy="15.039416"
       fx="9.0132446"
       fy="15.039416"
       r="1.524699"
       gradientTransform="matrix(1,0,0,0.7971015,0,3.0514758)"
       gradientUnits="userSpaceOnUse" />
    <radialGradient
       inkscape:collect="always"
       xlink:href="#linearGradient3600"
       id="radialGradient3686"
       gradientUnits="userSpaceOnUse"
       gradientTransform="matrix(1,0,0,0.4,0,9.9)"
       cx="15.5"
       cy="16.5"
       fx="15.5"
       fy="16.5"
       r="5" />
  </defs>
  <sodipodi:namedview
     id="base"
     pagecolor="#ffffff"
     bordercolor="#666666"
     borderopacity="1.0"
     inkscape:pageopacity="1"
     inkscape:pageshadow="2"
     inkscape:zoom="1"
     inkscape:cx="48.341137"
     inkscape:cy="15.644739"
     inkscape:current-layer="layer1"
     showgrid="false"
     inkscape:grid-bbox="true"
     inkscape:document-units="px"
     inkscape:window-width="1270"
     inkscape:window-height="945"
     inkscape:window-x="200"
     inkscape:window-y="26"
     showborder="false"
     inkscape:showpageshadow="false"
     gridspacingx="0.5px"
     gridspacingy="0.5px"
     gridempspacing="2"
     inkscape:grid-points="true"
     showguides="false"
     inkscape:guide-bbox="true"
     width="22px"
     height="22px">
    <sodipodi:guide
       orientation="horizontal"
       position="27.625"
       id="guide4897" />
    <sodipodi:guide
       orientation="vertical"
       position="40"
       id="guide4899" />
  </sodipodi:namedview>
  <metadata
     id="metadata5289">
    <rdf:RDF>
      <cc:Work
         rdf:about="">
        <dc:format>image/svg+xml</dc:format>
        <dc:type
           rdf:resource="http://purl.org/dc/dcmitype/StillImage" />
        <dc:contributor>
          <cc:Agent>
            <dc:title>Andreasn Nilsson</dc:title>
          </cc:Agent>
        </dc:contributor>
        <dc:title>Applications Science</dc:title>
        <dc:date>2007-01-10</dc:date>
        <dc:creator>
          <cc:Agent>
            <dc:title>Lapo Calamandrei</dc:title>
          </cc:Agent>
        </dc:creator>
        <cc:license
           rdf:resource="http://creativecommons.org/licenses/GPL/2.0/" />
        <dc:subject>
          <rdf:Bag>
            <rdf:li>science</rdf:li>
            <rdf:li>chemicals</rdf:li>
            <rdf:li>baker</rdf:li>
          </rdf:Bag>
        </dc:subject>
      </cc:Work>
      <cc:License
         rdf:about="http://creativecommons.org/licenses/GPL/2.0/">
        <cc:permits
           rdf:resource="http://web.resource.org/cc/Reproduction" />
        <cc:permits
           rdf:resource="http://web.resource.org/cc/Distribution" />
        <cc:requires
           rdf:resource="http://web.resource.org/cc/Notice" />
        <cc:permits
           rdf:resource="http://web.resource.org/cc/DerivativeWorks" />
        <cc:requires
           rdf:resource="http://web.resource.org/cc/ShareAlike" />
        <cc:requires
           rdf:resource="http://web.resource.org/cc/SourceCode" />
      </cc:License>
    </rdf:RDF>
  </metadata>
  <g
     id="layer1"
     inkscape:label="Layer 1"
     inkscape:groupmode="layer">
    <path
       sodipodi:type="arc"
       style="opacity:0.49808427;color:#000000;fill:url(#radialGradient3686);fill-opacity:1;fill-rule:nonzero;stroke:none;stroke-width:1;stroke-linecap:round;stroke-linejoin:miter;marker:none;marker-start:none;marker-mid:none;marker-end:none;stroke-miterlimit:4;stroke-dasharray:none;stroke-dashoffset:0;stroke-opacity:1;visibility:visible;display:inline;overflow:visible;enable-background:accumulate"
       id="path3684"
       sodipodi:cx="15.5"
       sodipodi:cy="16.5"
       sodipodi:rx="5"
       sodipodi:ry="2"
       d="M 20.5 16.5 A 5 2 0 1 1  10.5,16.5 A 5 2 0 1 1  20.5 16.5 z"
       transform="matrix(1.35,0,0,1.5000002,-10.175,-5.7500024)" />
    <path
       sodipodi:type="arc"
       style="opacity:0.7;color:#000000;fill:url(#radialGradient3610);fill-opacity:1;fill-rule:nonzero;stroke:none;stroke-width:1;stroke-linecap:round;stroke-linejoin:miter;marker:none;marker-start:none;marker-mid:none;marker-end:none;stroke-miterlimit:4;stroke-dasharray:none;stroke-dashoffset:0;stroke-opacity:1;visibility:visible;display:inline;overflow:visible;enable-background:accumulate"
       id="path3608"
       sodipodi:cx="15.5"
       sodipodi:cy="16.5"
       sodipodi:rx="5"
       sodipodi:ry="2"
       d="M 20.5 16.5 A 5 2 0 1 1  10.5,16.5 A 5 2 0 1 1  20.5 16.5 z"
       transform="matrix(1.1,0,0,1.5000002,-11.55,-7.7500024)" />
    <path
       sodipodi:type="arc"
       style="opacity:0.7;color:#000000;fill:url(#radialGradient3606);fill-opacity:1;fill-rule:nonzero;stroke:none;stroke-width:1;stroke-linecap:round;stroke-linejoin:miter;marker:none;marker-start:none;marker-mid:none;marker-end:none;stroke-miterlimit:4;stroke-dasharray:none;stroke-dashoffset:0;stroke-opacity:1;visibility:visible;display:inline;overflow:visible;enable-background:accumulate"
       id="path3590"
       sodipodi:cx="15.5"
       sodipodi:cy="16.5"
       sodipodi:rx="5"
       sodipodi:ry="2"
       d="M 20.5 16.5 A 5 2 0 1 1  10.5,16.5 A 5 2 0 1 1  20.5 16.5 z"
       transform="matrix(1.35,0,0,1.5000002,-5.175,-8.7500024)" />
    <path
       style="opacity:1;color:#000000;fill:url(#linearGradient3448);fill-opacity:1.0;fill-rule:nonzero;stroke:#888a85;stroke-width:1;stroke-linecap:round;stroke-linejoin:round;marker:none;marker-start:none;marker-mid:none;marker-end:none;stroke-miterlimit:4;stroke-dasharray:none;stroke-dashoffset:0;stroke-opacity:1;visibility:visible;display:inline;overflow:visible;enable-background:accumulate"
       d="M 5.5625,0.5 C 5.3936448,0.5 5.1975753,0.5132288 5,0.53125 C 3.223053,0.69332854 0.5,1.5 0.5,1.5 L 2.506932,4.15625 L 2.506932,14.125 C 1.8201553,14.48506 1.5,14.959458 1.5,15.5 L 1.5,16.5 C 1.5,17.604 3.3264998,18.5 5.5,18.5 C 7.6735,18.5 9.5,17.604 9.5,16.5 L 9.5,15.5 C 9.5,14.959458 9.186777,14.48506 8.5,14.125 L 8.5,2 C 8.5,1.1719997 7.1150001,0.50000001 5.5625,0.5 z "
       id="path2402"
       sodipodi:nodetypes="cscccccsccccc" />
    <path
       style="opacity:0.65517243;color:#000000;fill:none;fill-opacity:1;fill-rule:nonzero;stroke:url(#linearGradient3440);stroke-width:1;stroke-linecap:round;stroke-linejoin:round;stroke-miterlimit:4;stroke-dashoffset:0;stroke-opacity:1;marker:none;marker-start:none;marker-mid:none;marker-end:none;visibility:visible;display:inline;overflow:visible;enable-background:accumulate"
       d="M 5.5625,1.5 C 5.4455656,1.5 5.2759037,1.5146354 5.09375,1.53125 C 4.0462187,1.6267972 3.1459994,1.9119757 2.21875,2.15625 L 3.28125,3.5625 C 3.4168847,3.7313113 3.4936932,3.9397916 3.5,4.15625 L 3.5,14.125 C 3.4982124,14.492427 3.2939182,14.828911 2.96875,15 C 2.4899149,15.251041 2.5,15.343483 2.5,15.5 L 2.5,16.5 C 2.5,16.503779 2.5750971,16.757927 3.125,17.03125 C 3.6749029,17.304573 4.5498508,17.5 5.5,17.5 C 6.4501491,17.5 7.325097,17.304573 7.875,17.03125 C 8.424903,16.757927 8.5,16.503779 8.5,16.5 L 8.5,15.5 C 8.5,15.343483 8.5100852,15.251041 8.03125,15 C 7.7060818,14.828911 7.5017876,14.492427 7.5,14.125 L 7.5,2 C 7.5,2.140274 7.5206675,1.995615 7.15625,1.8125 C 6.7918325,1.629385 6.1953191,1.5 5.5625,1.5 z "
       id="path3411"
       sodipodi:nodetypes="csccccsccsssccsccsc" />
    <g
       id="g3612"
       transform="translate(0,-2)">
      <rect
         ry="1.1022525"
         rx="1.5"
         y="12"
         x="4"
         height="7"
         width="3"
         id="rect3405"
         style="opacity:1;color:#000000;fill:url(#linearGradient3616);fill-opacity:1;fill-rule:nonzero;stroke:none;stroke-width:1;stroke-linecap:round;stroke-linejoin:miter;marker:none;marker-start:none;marker-mid:none;marker-end:none;stroke-miterlimit:4;stroke-dasharray:none;stroke-dashoffset:0;stroke-opacity:1;visibility:visible;display:inline;overflow:visible;enable-background:accumulate" />
      <path
         transform="matrix(1.2,0,0,1,-1.4,0)"
         d="M 7 13 A 1.25 1 0 1 1  4.5,13 A 1.25 1 0 1 1  7 13 z"
         sodipodi:ry="1"
         sodipodi:rx="1.25"
         sodipodi:cy="13"
         sodipodi:cx="5.75"
         id="path3423"
         style="opacity:1;color:#000000;fill:url(#linearGradient3618);fill-opacity:1;fill-rule:nonzero;stroke:none;stroke-width:1;stroke-linecap:round;stroke-linejoin:miter;marker:none;marker-start:none;marker-mid:none;marker-end:none;stroke-miterlimit:4;stroke-dasharray:none;stroke-dashoffset:0;stroke-opacity:1;visibility:visible;display:inline;overflow:visible;enable-background:accumulate"
         sodipodi:type="arc" />
    </g>
    <path
       sodipodi:type="inkscape:offset"
       inkscape:radius="-0.96842325"
       inkscape:original="M 5.65625 0.5 C 3.9419642 0.50000001 0.5 1.5 0.5 1.5 C 2.1415515 2.6222959 3.9419644 4.5 5.65625 4.5 C 7.3705355 4.4999999 8.5000002 3.604 8.5 2.5 C 8.4999997 1.3959999 7.3705357 0.5 5.65625 0.5 z "
       style="opacity:1;color:#000000;fill:#555753;fill-opacity:0.38022813;fill-rule:nonzero;stroke:url(#linearGradient3501);stroke-width:1;stroke-linecap:round;stroke-linejoin:miter;marker:none;marker-start:none;marker-mid:none;marker-end:none;stroke-miterlimit:4;stroke-dasharray:none;stroke-dashoffset:0;stroke-opacity:1;visibility:visible;display:inline;overflow:visible;enable-background:accumulate"
       id="path3452"
       d="M 5.65625,1.46875 C 4.9942126,1.46875 3.7286773,1.6966822 2.6875,1.9375 C 2.9857312,2.1698577 3.3070056,2.4239475 3.59375,2.625 C 4.4035616,3.192804 5.1526874,3.53125 5.65625,3.53125 C 6.3446719,3.53125 6.8614215,3.3398948 7.15625,3.125 C 7.4510785,2.9101052 7.53125,2.7217464 7.53125,2.5 C 7.5312499,2.2782532 7.4510784,2.0898948 7.15625,1.875 C 6.8614216,1.6601052 6.344672,1.46875 5.65625,1.46875 z " />
    <path
       sodipodi:type="arc"
       style="opacity:1;color:#000000;fill:#ffffff;fill-opacity:1;fill-rule:nonzero;stroke:none;stroke-width:1;stroke-linecap:round;stroke-linejoin:miter;marker:none;marker-start:none;marker-mid:none;marker-end:none;stroke-miterlimit:4;stroke-dasharray:none;stroke-dashoffset:0;stroke-opacity:1;visibility:visible;display:inline;overflow:visible;enable-background:accumulate"
       id="path3454"
       sodipodi:cx="1.5"
       sodipodi:cy="2"
       sodipodi:rx="0.5"
       sodipodi:ry="0.5"
       d="M 2 2 A 0.5 0.5 0 1 1  1,2 A 0.5 0.5 0 1 1  2 2 z" />
    <path
       style="opacity:0.25670498;color:#000000;fill:none;fill-opacity:1.0;fill-rule:nonzero;stroke:url(#linearGradient3466);stroke-width:0.99999994;stroke-linecap:round;stroke-linejoin:round;marker:none;marker-start:none;marker-mid:none;marker-end:none;stroke-miterlimit:4;stroke-dasharray:none;stroke-dashoffset:0;stroke-opacity:1;visibility:visible;display:inline;overflow:visible;enable-background:accumulate"
       d="M 0.5,1.5 C 2.1415515,2.6222959 3.9285713,4.4999999 5.6428569,4.4999999 C 7.3571426,4.4999999 8.4999999,3.6039999 8.4999997,2.4999999 C 8.4999997,1.3959999 7.3571426,0.49999995 5.6428569,0.49999995 C 3.9285713,0.49999995 0.5,1.5 0.5,1.5 z "
       id="path3456"
       sodipodi:nodetypes="czszc" />
    <rect
       style="opacity:1;color:#000000;fill:url(#linearGradient3485);fill-opacity:1;fill-rule:nonzero;stroke:none;stroke-width:1;stroke-linecap:round;stroke-linejoin:miter;marker:none;marker-start:none;marker-mid:none;marker-end:none;stroke-miterlimit:4;stroke-dasharray:none;stroke-dashoffset:0;stroke-opacity:1;visibility:visible;display:inline;overflow:visible;enable-background:accumulate"
       id="rect3468"
       width="1"
       height="10"
       x="4"
       y="5"
       rx="0"
       ry="0" />
    <path
       style="opacity:1;color:#000000;fill:url(#linearGradient3505);fill-opacity:1;fill-rule:nonzero;stroke:#767973;stroke-width:0.99999994;stroke-linecap:round;stroke-linejoin:round;marker:none;marker-start:none;marker-mid:none;marker-end:none;stroke-miterlimit:4;stroke-dasharray:none;stroke-dashoffset:0;stroke-opacity:1;visibility:visible;display:inline;overflow:visible;enable-background:accumulate"
       d="M 15.503034,3.5000001 C 12.468709,3.5000001 10.006068,3.9588393 10.006068,5.0806452 L 10.006068,5.532258 C 10.006068,5.8027444 10.240165,6.0905014 10.5,6.3266129 L 10.5,15.5 C 10.5,16.621807 12.693474,17.5 15.503034,17.5 C 18.312595,17.5 20.5,16.621806 20.5,15.5 L 20.5,9.678427 L 20.5,6.3266129 C 20.759837,6.0905014 21,5.8027444 21,5.532258 L 21,5.0806452 C 21,3.9588389 18.53736,3.5000001 15.503034,3.5000001 z "
       id="path3503"
       sodipodi:nodetypes="cccccscccccc" />
    <path
       sodipodi:type="inkscape:offset"
       inkscape:radius="-0.99384493"
       inkscape:original="M 15.5 4.5 C 12.465675 4.5000001 10 4.9719441 10 6.09375 L 10 6.53125 C 9.9999998 6.8017364 10.240165 7.0763885 10.5 7.3125 L 10.5 16.5 C 10.5 17.621807 12.69044 18.5 15.5 18.5 C 18.309561 18.5 20.5 17.621806 20.5 16.5 L 20.5 10.6875 L 20.5 7.3125 C 20.759837 7.0763885 21 6.8017364 21 6.53125 L 21 6.09375 C 21 4.9719438 18.534326 4.5 15.5 4.5 z "
       style="opacity:0.45977011;color:#000000;fill:none;fill-opacity:1;fill-rule:nonzero;stroke:url(#linearGradient3529);stroke-width:0.99999994;stroke-linecap:round;stroke-linejoin:round;marker:none;marker-start:none;marker-mid:none;marker-end:none;stroke-miterlimit:4;stroke-dasharray:none;stroke-dashoffset:0;stroke-opacity:1;visibility:visible;display:inline;overflow:visible;enable-background:accumulate"
       id="path3519"
       d="M 15.5,5.5 C 14.034363,5.5 12.726717,5.622879 11.875,5.84375 C 11.449141,5.9541855 11.148176,6.102713 11.03125,6.1875 C 10.914324,6.272287 11,6.177369 11,6.09375 L 11,6.53125 C 11,6.2134452 10.954728,6.3793774 11.15625,6.5625 C 11.374078,6.7508931 11.499484,7.0245054 11.5,7.3125 L 11.5,16.5 C 11.5,16.457022 11.445688,16.449984 11.5625,16.5625 C 11.679312,16.675016 11.945915,16.853263 12.3125,17 C 13.045671,17.293474 14.19877,17.5 15.5,17.5 C 16.801231,17.5 17.954329,17.293474 18.6875,17 C 19.054085,16.853263 19.320688,16.675016 19.4375,16.5625 C 19.554312,16.449984 19.5,16.457021 19.5,16.5 L 19.5,10.6875 L 19.5,7.3125 C 19.500516,7.0245054 19.625922,6.7508931 19.84375,6.5625 C 20.04527,6.3793805 20,6.2134511 20,6.53125 L 20,6.09375 C 20,6.1773687 20.085676,6.272287 19.96875,6.1875 C 19.851824,6.102713 19.550858,5.9541855 19.125,5.84375 C 18.273283,5.622879 16.965637,5.5 15.5,5.5 z "
       transform="translate(0,-1)" />
    <path
       sodipodi:type="arc"
       style="opacity:1;color:#000000;fill:none;fill-opacity:1;fill-rule:nonzero;stroke:url(#linearGradient3547);stroke-width:1.49536324;stroke-linecap:round;stroke-linejoin:miter;marker:none;marker-start:none;marker-mid:none;marker-end:none;stroke-miterlimit:4;stroke-dasharray:none;stroke-dashoffset:0;stroke-opacity:1;visibility:visible;display:inline;overflow:visible;enable-background:accumulate"
       id="path3531"
       sodipodi:cx="15.25"
       sodipodi:cy="6.25"
       sodipodi:rx="5.75"
       sodipodi:ry="1.75"
       d="M 21 6.25 A 5.75 1.75 0 1 1  9.5,6.25 A 5.75 1.75 0 1 1  21 6.25 z"
       transform="matrix(0.7826086,0,0,0.5714286,3.5652182,1.9285712)" />
    <path
       style="opacity:1;color:#000000;fill:url(#linearGradient3588);fill-opacity:1;fill-rule:nonzero;stroke:#ce5c00;stroke-width:0.99999994;stroke-linecap:round;stroke-linejoin:round;marker:none;marker-start:none;marker-mid:none;marker-end:none;stroke-miterlimit:4;stroke-dasharray:none;stroke-dashoffset:0;stroke-opacity:1;visibility:visible;display:inline;overflow:visible;enable-background:accumulate"
       d="M 12.5,9.5 L 12.5,14.96875 C 12.570332,15.009189 12.565903,15.013827 12.6875,15.0625 C 13.254952,15.28964 14.302373,15.5 15.5,15.5 C 16.697628,15.5 17.745048,15.28964 18.3125,15.0625 C 18.434097,15.013827 18.429668,15.009189 18.5,14.96875 L 18.5,9.6875 L 18.5,9.5 L 12.5,9.5 z "
       id="path3557" />
    <path
       sodipodi:type="arc"
       style="opacity:1;color:#000000;fill:#fcaf3e;fill-opacity:1;fill-rule:nonzero;stroke:url(#linearGradient3572);stroke-width:0.86602545;stroke-linecap:round;stroke-linejoin:miter;marker:none;marker-start:none;marker-mid:none;marker-end:none;stroke-miterlimit:4;stroke-dasharray:none;stroke-dashoffset:0;stroke-opacity:1;visibility:visible;display:inline;overflow:visible;enable-background:accumulate"
       id="path3561"
       sodipodi:cx="15.5"
       sodipodi:cy="15.25"
       sodipodi:rx="3"
       sodipodi:ry="0.75"
       d="M 18.5 15.25 A 3 0.75 0 1 1  12.5,15.25 A 3 0.75 0 1 1  18.5 15.25 z"
       transform="matrix(1,0,0,1.3333332,-1.9130006e-8,-10.833332)" />
    <rect
       style="opacity:0.65900388;color:#000000;fill:url(#linearGradient3551);fill-opacity:1;fill-rule:nonzero;stroke:none;stroke-width:1;stroke-linecap:round;stroke-linejoin:miter;marker:none;marker-start:none;marker-mid:none;marker-end:none;stroke-miterlimit:4;stroke-dasharray:none;stroke-dashoffset:0;stroke-opacity:1;visibility:visible;display:inline;overflow:visible;enable-background:accumulate"
       id="rect3549"
       width="2"
       height="7"
       x="12"
       y="8"
       rx="0"
       ry="0" />
    <path
       id="path3621"
       d="M 10.500135,8.5071548 C 9.0856507,8.5071548 8.1953446,9.0154989 6.928804,9.3637865 L 8.3870979,10.755813 C 8.5146897,11.291073 8.5355578,11.893916 8.119248,12.361998 C 7.1668928,13.432788 5.4754018,14.922012 5.5002712,17.287631 C 5.5002712,19.060859 7.7402107,20.499999 10.500135,20.499999 C 13.260061,20.499999 15.5,19.060859 15.5,17.287631 C 15.377817,15.020959 13.83338,13.432788 12.881023,12.361998 C 12.097282,11.48079 12.841764,10.132235 12.955427,9.6448689 C 13.053485,9.555338 13.119112,9.4639551 13.119112,9.3637865 C 13.119112,8.8909289 11.914621,8.5071548 10.500135,8.5071548 z "
       style="opacity:0.7;color:#000000;fill:url(#linearGradient3623);fill-opacity:1;fill-rule:nonzero;stroke:#555753;stroke-width:1.00000012;stroke-linecap:round;stroke-linejoin:round;marker:none;marker-start:none;marker-mid:none;marker-end:none;stroke-miterlimit:4;stroke-dashoffset:0;stroke-opacity:1;visibility:visible;display:inline;overflow:visible;enable-background:accumulate" />
    <path
       sodipodi:type="inkscape:offset"
       inkscape:radius="-0.98655123"
       inkscape:original="M 10 8.5 C 8.7269636 8.5000003 7.9211365 9.0267124 6.78125 9.375 L 8.09375 10.75 C 8.2085821 11.28526 8.2184288 11.906918 7.84375 12.375 C 6.9866304 13.44579 5.4776176 14.915631 5.5 17.28125 C 5.5 19.054479 7.5160677 20.5 10 20.5 C 12.483933 20.500001 14.5 19.054478 14.5 17.28125 C 14.390035 15.014579 13.013371 13.44579 12.15625 12.375 C 11.450883 11.493792 12.116454 10.143616 12.21875 9.65625 C 12.307003 9.5667191 12.34375 9.4751686 12.34375 9.375 C 12.34375 8.9021422 11.273037 8.5 10 8.5 z "
       style="opacity:0.72030651;color:#000000;fill:none;fill-opacity:1;fill-rule:nonzero;stroke:url(#linearGradient3639);stroke-width:0.93542969;stroke-linecap:round;stroke-linejoin:miter;marker:none;marker-start:none;marker-mid:none;marker-end:none;stroke-miterlimit:4;stroke-dashoffset:0;stroke-opacity:1;visibility:visible;display:inline;overflow:visible;enable-background:accumulate"
       id="path3629"
       d="M 10,9.5 C 9.5319517,9.5000001 9.0395889,9.7324255 8.625,9.875 L 8.8125,10.0625 C 8.9371227,10.192954 9.0235906,10.355082 9.0625,10.53125 C 9.2077682,11.20838 9.271252,12.192645 8.625,13 C 7.6901019,14.167958 6.4816232,15.338984 6.5,17.28125 C 6.5,17.793979 6.7844634,18.304919 7.40625,18.75 C 8.0280366,19.195081 8.9494079,19.5 10,19.5 C 11.050592,19.5 11.971964,19.195082 12.59375,18.75 C 13.205955,18.311777 13.491357,17.817359 13.5,17.3125 C 13.499398,17.301582 13.500673,17.292131 13.5,17.28125 C 13.385241,15.425086 12.250148,14.09331 11.375,13 C 10.774102,12.249304 10.791016,11.331503 10.90625,10.6875 C 11.003518,10.143901 11.135103,9.8027436 11.1875,9.65625 C 10.901113,9.5651256 10.481149,9.5 10,9.5 z "
       transform="matrix(1.1428199,0,0,1,-0.9282999,0)" />
    <path
       style="opacity:1;color:#000000;fill:#8ae234;fill-opacity:1;fill-rule:nonzero;stroke:#4e9a06;stroke-width:1.00000012;stroke-linecap:round;stroke-linejoin:round;marker:none;marker-start:none;marker-mid:none;marker-end:none;stroke-miterlimit:4;stroke-dashoffset:0;stroke-opacity:1;visibility:visible;display:inline;overflow:visible;enable-background:accumulate"
       d="M 8.4427672,15 C 7.8668801,15.662754 7.4584316,16.337449 7.4687817,17.25 C 7.4688805,17.260417 7.4688805,17.270833 7.4687817,17.28125 C 7.4687817,17.419193 7.5543722,17.630703 8.0681574,17.9375 C 8.5819426,18.244297 9.4736852,18.53125 10.503121,18.53125 C 11.532557,18.53125 12.4243,18.244297 12.938085,17.9375 C 13.424596,17.646989 13.491292,17.45169 13.5,17.3125 C 13.429122,16.432071 13.030354,15.693929 12.488553,15 L 8.4427672,15 z "
       id="path3649" />
    <path
       sodipodi:type="arc"
       style="opacity:1;color:#000000;fill:url(#linearGradient3670);fill-opacity:1;fill-rule:nonzero;stroke:none;stroke-width:1;stroke-linecap:round;stroke-linejoin:miter;marker:none;marker-start:none;marker-mid:none;marker-end:none;stroke-miterlimit:4;stroke-dasharray:none;stroke-dashoffset:0;stroke-opacity:1;visibility:visible;display:inline;overflow:visible;enable-background:accumulate"
       id="path3651"
       sodipodi:cx="10"
       sodipodi:cy="15"
       sodipodi:rx="1.5"
       sodipodi:ry="0.5"
       d="M 11.5 15 A 1.5 0.5 0 1 1  8.5,15 A 1.5 0.5 0 1 1  11.5 15 z"
       transform="matrix(1.6666668,0,0,2,-6.1666683,-15)" />
    <path
       sodipodi:type="arc"
       style="opacity:1;color:#000000;fill:url(#radialGradient3680);fill-opacity:1.0;fill-rule:nonzero;stroke:none;stroke-width:1;stroke-linecap:round;stroke-linejoin:miter;marker:none;marker-start:none;marker-mid:none;marker-end:none;stroke-miterlimit:4;stroke-dasharray:none;stroke-dashoffset:0;stroke-opacity:1;visibility:visible;display:inline;overflow:visible;enable-background:accumulate"
       id="path3672"
       sodipodi:cx="9.6122332"
       sodipodi:cy="15.039417"
       sodipodi:rx="1.524699"
       sodipodi:ry="1.2153398"
       d="M 11.136932 15.039417 A 1.524699 1.2153398 0 1 1  8.0875342,15.039417 A 1.524699 1.2153398 0 1 1  11.136932 15.039417 z"
       transform="matrix(1.1477674,0,0,1.2342227,-1.7826081,-4.0619901)" />
    <path
       style="fill:none;fill-rule:evenodd;stroke:#ffffff;stroke-width:1px;stroke-linecap:round;stroke-linejoin:miter;stroke-opacity:1"
       d="M 8.5,9.5 C 8.3895146,10.649049 11.5,10.5 11.5,10.5"
       id="path3682"
       sodipodi:nodetypes="cc" />
  </g>
</svg>
