<?xml version="1.0" encoding="UTF-8" standalone="no"?>
<!-- Created with Inkscape (http://www.inkscape.org/) -->
<svg
   xmlns:dc="http://purl.org/dc/elements/1.1/"
   xmlns:cc="http://web.resource.org/cc/"
   xmlns:rdf="http://www.w3.org/1999/02/22-rdf-syntax-ns#"
   xmlns:svg="http://www.w3.org/2000/svg"
   xmlns="http://www.w3.org/2000/svg"
   xmlns:xlink="http://www.w3.org/1999/xlink"
   xmlns:sodipodi="http://sodipodi.sourceforge.net/DTD/sodipodi-0.dtd"
   xmlns:inkscape="http://www.inkscape.org/namespaces/inkscape"
   width="22"
   height="22"
   id="svg2"
   sodipodi:version="0.32"
   inkscape:version="0.45"
   version="1.0"
   sodipodi:docname="applications-engineering.svg"
   sodipodi:docbase="/home/lapo/Icone/svn/gnome-icon-theme/22x22/categories"
   inkscape:output_extension="org.inkscape.output.svg.inkscape"
   sodipodi:modified="true">
  <defs
     id="defs4">
    <linearGradient
       inkscape:collect="always"
       id="linearGradient6967">
      <stop
         style="stop-color:#ffffff;stop-opacity:1;"
         offset="0"
         id="stop6969" />
      <stop
         style="stop-color:#ffffff;stop-opacity:0;"
         offset="1"
         id="stop6971" />
    </linearGradient>
    <linearGradient
       id="linearGradient6958"
       inkscape:collect="always">
      <stop
         id="stop6960"
         offset="0"
         style="stop-color:#ffffff;stop-opacity:1" />
      <stop
         id="stop6962"
         offset="1"
         style="stop-color:#ffffff;stop-opacity:0" />
    </linearGradient>
    <linearGradient
       id="linearGradient7065">
      <stop
         style="stop-color:#888a85;stop-opacity:1;"
         offset="0"
         id="stop7067" />
      <stop
         id="stop7073"
         offset="0.70408165"
         style="stop-color:#cfd0ce;stop-opacity:1;" />
      <stop
         style="stop-color:#888a85;stop-opacity:1;"
         offset="1"
         id="stop7069" />
    </linearGradient>
    <linearGradient
       inkscape:collect="always"
       id="linearGradient7033">
      <stop
         style="stop-color:#000000;stop-opacity:1;"
         offset="0"
         id="stop7035" />
      <stop
         style="stop-color:#000000;stop-opacity:0;"
         offset="1"
         id="stop7037" />
    </linearGradient>
    <linearGradient
       inkscape:collect="always"
       id="linearGradient6978">
      <stop
         style="stop-color:#babdb6;stop-opacity:1"
         offset="0"
         id="stop6980" />
      <stop
         style="stop-color:#555753;stop-opacity:0"
         offset="1"
         id="stop6982" />
    </linearGradient>
    <linearGradient
       inkscape:collect="always"
       id="linearGradient6970">
      <stop
         style="stop-color:#ffffff;stop-opacity:1"
         offset="0"
         id="stop6972" />
      <stop
         style="stop-color:#eeeeec;stop-opacity:0;"
         offset="1"
         id="stop6974" />
    </linearGradient>
    <linearGradient
       inkscape:collect="always"
       id="linearGradient6955">
      <stop
         style="stop-color:#ffffff;stop-opacity:1;"
         offset="0"
         id="stop6957" />
      <stop
         style="stop-color:#ffffff;stop-opacity:0;"
         offset="1"
         id="stop6959" />
    </linearGradient>
    <linearGradient
       id="linearGradient6939">
      <stop
         style="stop-color:#babdb6;stop-opacity:1;"
         offset="0"
         id="stop6941" />
      <stop
         id="stop7051"
         offset="0.24743238"
         style="stop-color:#ededed;stop-opacity:1;" />
      <stop
         style="stop-color:#b6b9b1;stop-opacity:1;"
         offset="0.75776166"
         id="stop7053" />
      <stop
         id="stop7049"
         offset="0.82653064"
         style="stop-color:#aaaea5;stop-opacity:1;" />
      <stop
         style="stop-color:#babdb6;stop-opacity:0;"
         offset="1"
         id="stop6943" />
    </linearGradient>
    <linearGradient
       id="linearGradient6931">
      <stop
         style="stop-color:#a1a29e;stop-opacity:1;"
         offset="0"
         id="stop6933" />
      <stop
         style="stop-color:#888a85;stop-opacity:0;"
         offset="1"
         id="stop6935" />
    </linearGradient>
    <linearGradient
       inkscape:collect="always"
       xlink:href="#linearGradient6931"
       id="linearGradient6937"
       x1="15.5625"
       y1="18.872503"
       x2="15.5625"
       y2="22.003469"
       gradientUnits="userSpaceOnUse"
       gradientTransform="translate(1,0)" />
    <linearGradient
       inkscape:collect="always"
       xlink:href="#linearGradient6939"
       id="linearGradient6945"
       x1="6.3601508"
       y1="2.5681367"
       x2="13.166054"
       y2="21.292892"
       gradientUnits="userSpaceOnUse"
       gradientTransform="translate(1,0)" />
    <linearGradient
       inkscape:collect="always"
       xlink:href="#linearGradient6955"
       id="linearGradient6961"
       x1="14.625"
       y1="18.872284"
       x2="14.625"
       y2="21.75"
       gradientUnits="userSpaceOnUse"
       gradientTransform="translate(1,0)" />
    <linearGradient
       inkscape:collect="always"
       xlink:href="#linearGradient6970"
       id="linearGradient6976"
       x1="3.800699"
       y1="9.5814371"
       x2="3.800699"
       y2="7.9975319"
       gradientUnits="userSpaceOnUse"
       gradientTransform="translate(-1,-2)" />
    <linearGradient
       inkscape:collect="always"
       xlink:href="#linearGradient6978"
       id="linearGradient6984"
       x1="3.7123106"
       y1="3.5268352"
       x2="3.7123106"
       y2="5.0105686"
       gradientUnits="userSpaceOnUse"
       gradientTransform="translate(-1,0)" />
    <linearGradient
       inkscape:collect="always"
       xlink:href="#linearGradient6958"
       id="linearGradient7039"
       x1="12.6875"
       y1="17.550121"
       x2="12.6875"
       y2="23.321859"
       gradientUnits="userSpaceOnUse"
       gradientTransform="translate(1,-1)" />
    <linearGradient
       inkscape:collect="always"
       xlink:href="#linearGradient7033"
       id="linearGradient7043"
       gradientUnits="userSpaceOnUse"
       x1="12.6875"
       y1="17.550121"
       x2="12.6875"
       y2="21.500893"
       gradientTransform="matrix(0.5,0,0,1,5.5,-2)" />
    <linearGradient
       inkscape:collect="always"
       xlink:href="#linearGradient7033"
       id="linearGradient7047"
       gradientUnits="userSpaceOnUse"
       gradientTransform="matrix(0.5,0,0,1,10.5,-2)"
       x1="12.6875"
       y1="17.550121"
       x2="12.6875"
       y2="21.500893" />
    <linearGradient
       inkscape:collect="always"
       xlink:href="#linearGradient7065"
       id="linearGradient7071"
       x1="20.461903"
       y1="15.32668"
       x2="20.461903"
       y2="11.746678"
       gradientUnits="userSpaceOnUse"
       gradientTransform="translate(1,-1)" />
    <linearGradient
       inkscape:collect="always"
       xlink:href="#linearGradient6967"
       id="linearGradient6973"
       x1="9.53125"
       y1="17.5625"
       x2="11.157452"
       y2="17.5625"
       gradientUnits="userSpaceOnUse"
       gradientTransform="translate(0,-1)" />
  </defs>
  <sodipodi:namedview
     id="base"
     pagecolor="#ffffff"
     bordercolor="#666666"
     borderopacity="0.37647059"
     inkscape:pageopacity="0.0"
     inkscape:pageshadow="2"
     inkscape:zoom="1"
     inkscape:cx="16.073117"
     inkscape:cy="12.459069"
     inkscape:document-units="px"
     inkscape:current-layer="layer1"
     width="22px"
     height="22px"
     inkscape:showpageshadow="false"
     gridempspacing="2"
     gridspacingx="0.5px"
     gridspacingy="0.5px"
     inkscape:window-width="872"
     inkscape:window-height="598"
     inkscape:window-x="315"
     inkscape:window-y="92"
     borderlayer="true"
     showgrid="false"
     showborder="false"
     inkscape:grid-points="true"
     inkscape:guide-bbox="true"
     showguides="true" />
  <metadata
     id="metadata7">
    <rdf:RDF>
      <cc:Work
         rdf:about="">
        <dc:format>image/svg+xml</dc:format>
        <dc:type
           rdf:resource="http://purl.org/dc/dcmitype/StillImage" />
        <dc:creator>
          <cc:Agent>
            <dc:title>Lapo Calamandrei</dc:title>
          </cc:Agent>
        </dc:creator>
        <cc:license
           rdf:resource="http://creativecommons.org/licenses/GPL/2.0/" />
        <dc:title>Caliper</dc:title>
        <dc:date>2006-06-10</dc:date>
        <dc:subject>
          <rdf:Bag />
        </dc:subject>
      </cc:Work>
      <cc:License
         rdf:about="http://creativecommons.org/licenses/GPL/2.0/">
        <cc:permits
           rdf:resource="http://web.resource.org/cc/Reproduction" />
        <cc:permits
           rdf:resource="http://web.resource.org/cc/Distribution" />
        <cc:requires
           rdf:resource="http://web.resource.org/cc/Notice" />
        <cc:permits
           rdf:resource="http://web.resource.org/cc/DerivativeWorks" />
        <cc:requires
           rdf:resource="http://web.resource.org/cc/ShareAlike" />
        <cc:requires
           rdf:resource="http://web.resource.org/cc/SourceCode" />
      </cc:License>
    </rdf:RDF>
  </metadata>
  <g
     inkscape:label="Livello 1"
     inkscape:groupmode="layer"
     id="layer1">
    <path
       style="fill:url(#linearGradient6945);fill-opacity:1;fill-rule:evenodd;stroke:url(#linearGradient6937);stroke-width:1px;stroke-linecap:butt;stroke-linejoin:miter;stroke-opacity:1"
       d="M 16.5,0.5 L 10.5,0.5 C 8.4651474,0.5 1.4722718,1.5277282 1.4722718,1.5277282 C 0.6034698,2.0293312 0.5,2.9407971 0.5,4.5 L 11.5,4.5 L 16.5,5.53125 C 18.757372,5.53125 21.5,4.0332335 21.5,2.5 L 16.5,2.5 L 16.5,0.5 z "
       id="path6950"
       sodipodi:nodetypes="ccccccccc" />
    <path
       style="opacity:1;fill:#babdb6;fill-opacity:1;fill-rule:evenodd;stroke:#888a85;stroke-width:1;stroke-linecap:round;stroke-linejoin:miter;stroke-miterlimit:10;stroke-dasharray:none;stroke-opacity:1"
       d="M 0.5,6.5 C 0.5,8.059203 0.5999481,8.967147 1.46875,9.46875 L 10,10.5 C 10.373164,10.685835 10.5,11 10.5,11.5 L 10.5,17.5 L 12.5,17.5 L 12.5,6.5 L 0.5,6.5 z M 15.5,6.5 L 15.5,17.5 L 17.5,17.5 L 17.5,6.5 L 15.5,6.5 z "
       id="path5979"
       sodipodi:nodetypes="ccccccccccccc" />
    <path
       style="fill:#babdb6;fill-rule:evenodd;stroke:#888a85;stroke-width:1px;stroke-linecap:butt;stroke-linejoin:miter;stroke-opacity:1"
       d="M 17.5,6.5 L 21.5,6.5 C 21.5,5.190363 19.277627,3.8466306 17.5,3.5 L 17.5,6.5 z "
       id="path5940"
       sodipodi:nodetypes="cccc" />
    <rect
       style="opacity:1;fill:#eeeeec;fill-opacity:1;fill-rule:evenodd;stroke:#babdb6;stroke-width:0.99999994;stroke-linecap:round;stroke-linejoin:miter;stroke-miterlimit:10;stroke-dasharray:none;stroke-opacity:1"
       id="rect6988"
       width="4"
       height="2"
       x="16.5"
       y="11.5"
       rx="0"
       ry="0" />
    <path
       style="fill:url(#linearGradient6945);fill-opacity:1;fill-rule:evenodd;stroke:url(#linearGradient6937);stroke-width:1px;stroke-linecap:butt;stroke-linejoin:miter;stroke-opacity:1"
       d="M 16.5,0.5 L 10.5,0.5 C 8.4651474,0.5 1.4722718,1.5277282 1.4722718,1.5277282 C 0.6034698,2.0293312 0.5,2.9407971 0.5,4.5 L 11.5,4.5 L 11.5,23.5 L 16.5,23.5 L 16.5,5.53125 C 18.757372,5.53125 21.5,4.0332335 21.5,2.5 L 16.5,2.5 L 16.5,0.5 z "
       id="path5931"
       sodipodi:nodetypes="ccccccccccc" />
    <path
       style="opacity:0.69402986;fill:url(#linearGradient7039);fill-opacity:1;fill-rule:evenodd;stroke:none;stroke-width:1;stroke-linecap:round;stroke-linejoin:miter;stroke-miterlimit:10;stroke-dasharray:none;stroke-opacity:1"
       d="M 12,8 L 12,9 L 15,9 L 15,8 L 12,8 z M 12,10 L 12,11 L 14,11 L 14,10 L 12,10 z M 12,12 L 12,13 L 15,13 L 15,12 L 12,12 z M 12,14 L 12,15 L 14,15 L 14,14 L 12,14 z M 12,16 L 12,17 L 15,17 L 15,16 L 12,16 z M 12,18 L 12,19 L 14,19 L 14,18 L 12,18 z M 12,20 L 12,21 L 15,21 L 15,20 L 12,20 z "
       id="rect6994"
       sodipodi:nodetypes="ccccccccccccccccccccccccccccccccccc" />
    <path
       style="opacity:0.77985075;fill:none;fill-opacity:1;fill-rule:evenodd;stroke:url(#linearGradient6961);stroke-width:1px;stroke-linecap:butt;stroke-linejoin:miter;stroke-opacity:1"
       d="M 10.5,1.46875 C 8.5342433,1.6746333 4.1719522,2.198224 1.96875,2.53125 C 1.4899645,2.7811217 1.564849,2.9837677 1.53125,3.53125 L 11.5,3.53125 C 12.034202,3.5332346 12.466765,3.9657983 12.46875,4.5 L 12.46875,23.53125 L 15.53125,22.53125 L 15.53125,5.53125 C 15.533235,4.9970483 15.965798,4.5644846 16.5,4.5625 C 17.413616,4.5625 18.529559,4.2262836 19.34375,3.75 C 19.531517,3.6401606 19.484557,3.5841981 19.625,3.46875 L 16.5,3.46875 C 15.965798,3.4667654 15.533235,3.0342017 15.53125,2.5 L 15.53125,1.46875 L 10.5,1.46875 z "
       id="path5947"
       sodipodi:nodetypes="ccccccccssccccc" />
    <path
       style="opacity:1;fill:#babdb6;fill-opacity:1;fill-rule:evenodd;stroke:#888a85;stroke-width:1;stroke-linecap:round;stroke-linejoin:miter;stroke-miterlimit:10;stroke-dasharray:none;stroke-opacity:1"
       d="M 0.5,6.5 C 0.5,8.059203 0.5999481,8.967147 1.46875,9.46875 L 10,10.5 C 10.373164,10.685835 10.5,11 10.5,11.5 L 10.5,15.5 L 9.5,15.5 C 8.946,15.5 8.5,15.946 8.5,16.5 C 8.5,17.054 8.946,17.5 9.5,17.5 L 10.5,17.5 L 12.5,17.5 L 12.5,6.5 L 0.5,6.5 z M 15.5,6.5 L 15.5,17.5 L 17.5,17.5 L 17.5,6.5 L 15.5,6.5 z "
       id="rect6990"
       sodipodi:nodetypes="ccccccscccccccccc" />
    <g
       id="g6926"
       style="opacity:0.6268657"
       transform="translate(1,-1)">
      <path
         style="fill:none;fill-rule:evenodd;stroke:#ffffff;stroke-width:1px;stroke-linecap:butt;stroke-linejoin:miter;stroke-opacity:1"
         d="M 0.515625,8.5 C 0.515625,9.0073099 0.6806198,9.3023 1.0625,9.5 C 4.334805,10.073037 10.388561,10.113478 10.28125,11.4375 C 10.452659,11.79686 10.5,13.165442 10.5,13.5 L 10.5,8.5 L 0.515625,8.5 z "
         id="path6920"
         sodipodi:nodetypes="cccccc" />
      <path
         sodipodi:nodetypes="cc"
         id="path6922"
         d="M 10.5,18 L 10.5,12.5"
         style="fill:none;fill-rule:evenodd;stroke:#ffffff;stroke-width:1px;stroke-linecap:butt;stroke-linejoin:miter;stroke-opacity:1" />
      <path
         sodipodi:nodetypes="cc"
         id="path6924"
         d="M 15.5,18 L 15.5,9"
         style="fill:none;fill-rule:evenodd;stroke:#ffffff;stroke-width:1px;stroke-linecap:butt;stroke-linejoin:miter;stroke-opacity:1" />
    </g>
    <path
       style="opacity:1;fill:url(#linearGradient6976);fill-opacity:1;fill-rule:evenodd;stroke:none;stroke-width:1;stroke-linecap:round;stroke-linejoin:miter;stroke-miterlimit:10;stroke-opacity:1"
       d="M 5,6 L 5,7.03125 C 5,7.5679375 4.5679375,8 4.03125,8 L 1.6417354,8 C 1.6417354,8 1,7.5399631 1,7.03125 L 1,6 L 5,6 z "
       id="rect6965"
       sodipodi:nodetypes="ccccccc" />
    <path
       style="opacity:1;fill:url(#linearGradient6984);fill-opacity:1;fill-rule:evenodd;stroke:none;stroke-width:1;stroke-linecap:round;stroke-linejoin:miter;stroke-miterlimit:10;stroke-opacity:1"
       d="M 5,5 L 5,3.96875 C 5,3.4320625 4.5679375,3 4.03125,3 L 1.6104854,3 C 1.6104854,3 1,3.4600369 1,3.96875 L 1,5 L 5,5 z "
       id="path6968"
       sodipodi:nodetypes="ccccccc" />
    <rect
       style="opacity:1;fill:#eeeeec;fill-opacity:1;fill-rule:evenodd;stroke:url(#linearGradient7071);stroke-width:1;stroke-linecap:round;stroke-linejoin:miter;stroke-miterlimit:10;stroke-dasharray:none;stroke-opacity:1"
       id="rect6986"
       width="2"
       height="4"
       x="19.5"
       y="10.5"
       rx="0.4826141"
       ry="0.4826141" />
    <rect
       style="opacity:0.21268658;fill:#000000;fill-opacity:1;fill-rule:evenodd;stroke:none;stroke-width:1;stroke-linecap:round;stroke-linejoin:miter;stroke-miterlimit:10;stroke-dasharray:none;stroke-opacity:1"
       id="rect6992"
       width="1"
       height="1"
       x="20"
       y="12" />
    <path
       style="opacity:0.15671644;fill:url(#linearGradient7043);fill-opacity:1;fill-rule:evenodd;stroke:none;stroke-width:1;stroke-linecap:round;stroke-linejoin:miter;stroke-miterlimit:10;stroke-dasharray:none;stroke-opacity:1"
       d="M 11,9 L 11,10 L 12,10 L 12,9 L 11,9 z M 11,11 L 11,12 L 12,12 L 12,11 L 11,11 z M 11,13 L 11,14 L 12,14 L 12,13 L 11,13 z M 11,15 L 11,16 L 12,16 L 12,15 L 11,15 z "
       id="path7041"
       sodipodi:nodetypes="cccccccccccccccccccc" />
    <path
       style="opacity:0.1;fill:url(#linearGradient7047);fill-opacity:1;fill-rule:evenodd;stroke:none;stroke-width:1;stroke-linecap:round;stroke-linejoin:miter;stroke-miterlimit:10;stroke-dasharray:none;stroke-opacity:1"
       d="M 16,9 L 16,10 L 17,10 L 17,9 L 16,9 z M 16,11 L 16,12 L 17,12 L 17,11 L 16,11 z M 16,13 L 16,14 L 17,14 L 17,13 L 16,13 z M 16,15 L 16,16 L 17,16 L 17,15 L 16,15 z "
       id="path7045"
       sodipodi:nodetypes="cccccccccccccccccccc" />
    <path
       style="opacity:0.53731342;fill:none;fill-opacity:1;fill-rule:evenodd;stroke:url(#linearGradient6973);stroke-width:1px;stroke-linecap:round;stroke-linejoin:miter;stroke-opacity:1"
       d="M 9.5,16.5 L 11.5,16.5"
       id="path6965" />
  </g>
</svg>
