<?xml version="1.0" encoding="UTF-8" standalone="no"?>
<!-- Created with Inkscape (http://www.inkscape.org/) -->
<svg
   xmlns:dc="http://purl.org/dc/elements/1.1/"
   xmlns:cc="http://web.resource.org/cc/"
   xmlns:rdf="http://www.w3.org/1999/02/22-rdf-syntax-ns#"
   xmlns:svg="http://www.w3.org/2000/svg"
   xmlns="http://www.w3.org/2000/svg"
   xmlns:xlink="http://www.w3.org/1999/xlink"
   xmlns:sodipodi="http://sodipodi.sourceforge.net/DTD/sodipodi-0.dtd"
   xmlns:inkscape="http://www.inkscape.org/namespaces/inkscape"
   width="22"
   height="22"
   id="svg2"
   sodipodi:version="0.32"
   inkscape:version="0.45pre1"
   version="1.0"
   sodipodi:docbase="/home/jimmac/src/cvs/gnome/gnome-icon-theme/22x22/categories"
   sodipodi:docname="applications-system.svg"
   inkscape:output_extension="org.inkscape.output.svg.inkscape"
   sodipodi:modified="true">
  <defs
     id="defs4">
    <linearGradient
       inkscape:collect="always"
       id="linearGradient5791">
      <stop
         style="stop-color:#000000;stop-opacity:1;"
         offset="0"
         id="stop5793" />
      <stop
         style="stop-color:#000000;stop-opacity:0;"
         offset="1"
         id="stop5795" />
    </linearGradient>
    <linearGradient
       inkscape:collect="always"
       id="linearGradient5781">
      <stop
         style="stop-color:#ffffff;stop-opacity:1;"
         offset="0"
         id="stop5783" />
      <stop
         style="stop-color:#ffffff;stop-opacity:0;"
         offset="1"
         id="stop5785" />
    </linearGradient>
    <linearGradient
       inkscape:collect="always"
       id="linearGradient5769">
      <stop
         style="stop-color:#ffffff;stop-opacity:1;"
         offset="0"
         id="stop5771" />
      <stop
         style="stop-color:#ffffff;stop-opacity:0;"
         offset="1"
         id="stop5773" />
    </linearGradient>
    <linearGradient
       inkscape:collect="always"
       id="linearGradient5753">
      <stop
         style="stop-color:#ffffff;stop-opacity:1;"
         offset="0"
         id="stop5755" />
      <stop
         style="stop-color:#ffffff;stop-opacity:0;"
         offset="1"
         id="stop5757" />
    </linearGradient>
    <linearGradient
       inkscape:collect="always"
       id="linearGradient5745">
      <stop
         style="stop-color:#ffffff;stop-opacity:1;"
         offset="0"
         id="stop5747" />
      <stop
         style="stop-color:#ffffff;stop-opacity:0;"
         offset="1"
         id="stop5749" />
    </linearGradient>
    <linearGradient
       id="linearGradient5978">
      <stop
         id="stop5980"
         offset="0"
         style="stop-color:#f5f5f5;stop-opacity:1;" />
      <stop
         id="stop5982"
         offset="1"
         style="stop-color:#c7c7c7;stop-opacity:1;" />
    </linearGradient>
    <linearGradient
       id="linearGradient5966">
      <stop
         style="stop-color:#e3e3e3;stop-opacity:1;"
         offset="0"
         id="stop5968" />
      <stop
         id="stop5970"
         offset="0.5"
         style="stop-color:#b2b2b2;stop-opacity:1;" />
      <stop
         style="stop-color:#d6d6d6;stop-opacity:1;"
         offset="1"
         id="stop5972" />
    </linearGradient>
    <linearGradient
       id="linearGradient5897">
      <stop
         style="stop-color:#cecece;stop-opacity:1;"
         offset="0"
         id="stop5899" />
      <stop
         style="stop-color:#a0a0a0;stop-opacity:1;"
         offset="1"
         id="stop5901" />
    </linearGradient>
    <linearGradient
       inkscape:collect="always"
       id="linearGradient5887">
      <stop
         style="stop-color:#ffffff;stop-opacity:1;"
         offset="0"
         id="stop5889" />
      <stop
         style="stop-color:#ffffff;stop-opacity:0;"
         offset="1"
         id="stop5891" />
    </linearGradient>
    <linearGradient
       id="linearGradient5707">
      <stop
         id="stop5709"
         offset="0"
         style="stop-color:#e8e8e8;stop-opacity:1;" />
      <stop
         id="stop5711"
         offset="1"
         style="stop-color:#717171;stop-opacity:0;" />
    </linearGradient>
    <linearGradient
       id="linearGradient5693">
      <stop
         style="stop-color:#c9c9c9;stop-opacity:1;"
         offset="0"
         id="stop5695" />
      <stop
         id="stop5701"
         offset="0.32142857"
         style="stop-color:#939393;stop-opacity:1;" />
      <stop
         style="stop-color:#d1d1d1;stop-opacity:1;"
         offset="0.75"
         id="stop5703" />
      <stop
         style="stop-color:#b2b2b2;stop-opacity:1;"
         offset="1"
         id="stop5697" />
    </linearGradient>
    <linearGradient
       id="linearGradient5641">
      <stop
         id="stop5643"
         offset="0"
         style="stop-color:#b5b5b5;stop-opacity:1;" />
      <stop
         style="stop-color:#868686;stop-opacity:1;"
         offset="0.5"
         id="stop5647" />
      <stop
         id="stop5645"
         offset="1"
         style="stop-color:#c7c7c7;stop-opacity:1;" />
    </linearGradient>
    <linearGradient
       id="linearGradient5615">
      <stop
         style="stop-color:#717171;stop-opacity:1;"
         offset="0"
         id="stop5617" />
      <stop
         style="stop-color:#cccccc;stop-opacity:1;"
         offset="1"
         id="stop5619" />
    </linearGradient>
    <linearGradient
       inkscape:collect="always"
       id="linearGradient5597">
      <stop
         style="stop-color:#717171;stop-opacity:1;"
         offset="0"
         id="stop5599" />
      <stop
         style="stop-color:#717171;stop-opacity:0;"
         offset="1"
         id="stop5601" />
    </linearGradient>
    <linearGradient
       id="linearGradient5589">
      <stop
         id="stop5591"
         offset="0"
         style="stop-color:#eddee1;stop-opacity:1;" />
      <stop
         id="stop5593"
         offset="1"
         style="stop-color:#cb9ea7;stop-opacity:1;" />
    </linearGradient>
    <linearGradient
       id="linearGradient5579">
      <stop
         style="stop-color:#eddee1;stop-opacity:1;"
         offset="0"
         id="stop5581" />
      <stop
         style="stop-color:#cb9ea7;stop-opacity:1;"
         offset="1"
         id="stop5583" />
    </linearGradient>
    <linearGradient
       inkscape:collect="always"
       xlink:href="#linearGradient5579"
       id="linearGradient5585"
       x1="134.34375"
       y1="71.5"
       x2="171.65625"
       y2="212.5"
       gradientUnits="userSpaceOnUse"
       gradientTransform="matrix(9.5817074e-2,0,0,0.1069878,30.695012,-5.5314888)" />
    <radialGradient
       inkscape:collect="always"
       xlink:href="#linearGradient5597"
       id="radialGradient5603"
       cx="-88.308083"
       cy="73.568199"
       fx="-88.308083"
       fy="73.568199"
       r="101.65625"
       gradientTransform="matrix(6.5824041e-2,2.4206264e-2,-1.1360306e-2,3.8514964e-2,8.9846119,6.7716498)"
       gradientUnits="userSpaceOnUse" />
    <radialGradient
       inkscape:collect="always"
       xlink:href="#linearGradient5597"
       id="radialGradient5607"
       gradientUnits="userSpaceOnUse"
       gradientTransform="matrix(6.8651724e-2,3.1573386e-2,-1.3830891e-2,3.7494108e-2,10.02647,0.3340229)"
       cx="147.50781"
       cy="165.91266"
       fx="147.50781"
       fy="165.91266"
       r="101.65625" />
    <linearGradient
       inkscape:collect="always"
       xlink:href="#linearGradient5615"
       id="linearGradient5621"
       x1="172.42566"
       y1="202.57323"
       x2="152.25"
       y2="202.57323"
       gradientUnits="userSpaceOnUse"
       gradientTransform="matrix(9.5817074e-2,0,0,0.1069878,31.007512,-3.2531182)" />
    <linearGradient
       inkscape:collect="always"
       xlink:href="#linearGradient5615"
       id="linearGradient5627"
       gradientUnits="userSpaceOnUse"
       x1="201"
       y1="189"
       x2="145"
       y2="212.5"
       gradientTransform="matrix(9.5817074e-2,0,0,0.1069878,30.695012,-3.2531182)" />
    <linearGradient
       inkscape:collect="always"
       xlink:href="#linearGradient5615"
       id="linearGradient5631"
       gradientUnits="userSpaceOnUse"
       x1="228.5"
       y1="149.5"
       x2="141"
       y2="202.5"
       gradientTransform="matrix(9.5817074e-2,0,0,0.1069878,30.695012,-2.7498083)" />
    <linearGradient
       inkscape:collect="always"
       xlink:href="#linearGradient5615"
       id="linearGradient5635"
       gradientUnits="userSpaceOnUse"
       x1="184"
       y1="166"
       x2="215.5"
       y2="170.25"
       gradientTransform="matrix(9.5817074e-2,0,0,0.1069878,30.695012,-2.7498083)" />
    <linearGradient
       inkscape:collect="always"
       xlink:href="#linearGradient5641"
       id="linearGradient5639"
       gradientUnits="userSpaceOnUse"
       x1="153.25"
       y1="202.75"
       x2="184.25"
       y2="201.75"
       gradientTransform="matrix(9.5817074e-2,0,0,0.1069878,30.695012,-3.2531182)" />
    <linearGradient
       inkscape:collect="always"
       xlink:href="#linearGradient5693"
       id="linearGradient5699"
       x1="65"
       y1="95"
       x2="190"
       y2="95"
       gradientUnits="userSpaceOnUse"
       gradientTransform="matrix(9.4858809e-2,0,0,9.345788e-2,30.877064,-1.8838979)" />
    <radialGradient
       inkscape:collect="always"
       xlink:href="#linearGradient5707"
       id="radialGradient5713"
       gradientUnits="userSpaceOnUse"
       gradientTransform="matrix(0.1349144,-0.1506432,7.0118015e-2,7.8292711e-2,33.309371,11.003066)"
       cx="69.515442"
       cy="48.968105"
       fx="69.515442"
       fy="48.968105"
       r="101.65625" />
    <linearGradient
       inkscape:collect="always"
       xlink:href="#linearGradient5641"
       id="linearGradient5717"
       gradientUnits="userSpaceOnUse"
       x1="192"
       y1="146.25"
       x2="225.75"
       y2="145.25"
       gradientTransform="matrix(9.5817074e-2,0,0,0.1069878,30.695012,-2.7498083)" />
    <linearGradient
       inkscape:collect="always"
       xlink:href="#linearGradient5641"
       id="linearGradient5723"
       gradientUnits="userSpaceOnUse"
       x1="199.5"
       y1="114.25"
       x2="228.25"
       y2="113"
       gradientTransform="matrix(9.5817074e-2,0,0,0.1069878,30.695012,-2.7498083)" />
    <linearGradient
       inkscape:collect="always"
       xlink:href="#linearGradient5641"
       id="linearGradient5729"
       gradientUnits="userSpaceOnUse"
       x1="116.834"
       y1="194.83527"
       x2="145.664"
       y2="194.83527"
       gradientTransform="matrix(9.5817074e-2,0,0,0.1069878,30.695012,-3.2531182)" />
    <linearGradient
       inkscape:collect="always"
       xlink:href="#linearGradient5641"
       id="linearGradient5733"
       gradientUnits="userSpaceOnUse"
       x1="80.96373"
       y1="195.32538"
       x2="108.54089"
       y2="195.73959"
       gradientTransform="matrix(9.5817074e-2,0,0,0.1069878,30.695012,-3.2531182)" />
    <linearGradient
       inkscape:collect="always"
       xlink:href="#linearGradient5887"
       id="linearGradient5893"
       x1="147.25"
       y1="195.625"
       x2="148.75"
       y2="218.875"
       gradientUnits="userSpaceOnUse"
       gradientTransform="matrix(9.5817074e-2,0,0,0.1069878,-1.304988,-3.3601057)" />
    <linearGradient
       inkscape:collect="always"
       xlink:href="#linearGradient5897"
       id="linearGradient5903"
       x1="115"
       y1="205.75"
       x2="124.5"
       y2="206"
       gradientUnits="userSpaceOnUse"
       gradientTransform="matrix(9.5817074e-2,0,0,0.1069878,30.695012,-3.2531182)" />
    <linearGradient
       inkscape:collect="always"
       xlink:href="#linearGradient5966"
       id="linearGradient5974"
       gradientUnits="userSpaceOnUse"
       x1="38.890877"
       y1="145.8279"
       x2="59.220192"
       y2="145.88857"
       gradientTransform="matrix(9.5817074e-2,0,0,0.1069878,30.695012,-2.7498083)" />
    <linearGradient
       inkscape:collect="always"
       xlink:href="#linearGradient5978"
       id="linearGradient5976"
       gradientUnits="userSpaceOnUse"
       x1="42"
       y1="172.625"
       x2="55.910641"
       y2="172.625"
       gradientTransform="matrix(9.5817074e-2,0,0,0.1069878,30.695012,-2.7498083)" />
    <linearGradient
       inkscape:collect="always"
       xlink:href="#linearGradient5978"
       id="linearGradient5984"
       gradientUnits="userSpaceOnUse"
       x1="63.213203"
       y1="180.75673"
       x2="83.841362"
       y2="193.125"
       gradientTransform="matrix(9.5817074e-2,0,0,0.1069878,30.695012,-3.2531182)" />
    <linearGradient
       inkscape:collect="always"
       xlink:href="#linearGradient5641"
       id="linearGradient5988"
       gradientUnits="userSpaceOnUse"
       x1="57.21373"
       y1="179.57538"
       x2="93.290894"
       y2="177.23959"
       gradientTransform="matrix(9.5817074e-2,0,0,0.1069878,30.695012,-2.7498083)" />
    <linearGradient
       inkscape:collect="always"
       xlink:href="#linearGradient5641"
       id="linearGradient4685"
       gradientUnits="userSpaceOnUse"
       x1="192"
       y1="146.25"
       x2="225.75"
       y2="145.25"
       gradientTransform="matrix(9.5817074e-2,0,0,0.1069878,30.695012,-2.7498083)" />
    <filter
       inkscape:collect="always"
       x="-0.12703244"
       width="1.2540649"
       y="-0.16318549"
       height="1.326371"
       id="filter5735">
      <feGaussianBlur
         inkscape:collect="always"
         stdDeviation="12.915397"
         id="feGaussianBlur5737" />
    </filter>
    <linearGradient
       inkscape:collect="always"
       xlink:href="#linearGradient5745"
       id="linearGradient5751"
       x1="26.934336"
       y1="5.5277748"
       x2="26.934338"
       y2="28.598352"
       gradientUnits="userSpaceOnUse"
       gradientTransform="matrix(0.5075563,0,0,0.5672689,30.409281,-2.6961985)" />
    <linearGradient
       inkscape:collect="always"
       xlink:href="#linearGradient5753"
       id="linearGradient5759"
       x1="30.812529"
       y1="38.433514"
       x2="30.94672"
       y2="11.32831"
       gradientUnits="userSpaceOnUse"
       gradientTransform="matrix(0.4649179,0,0,0.5276604,31.504002,-2.0391975)" />
    <linearGradient
       inkscape:collect="always"
       xlink:href="#linearGradient5641"
       id="linearGradient5718"
       gradientUnits="userSpaceOnUse"
       gradientTransform="matrix(9.5817074e-2,0,0,0.1069878,-11.304988,-36.78076)"
       x1="57.21373"
       y1="179.57538"
       x2="93.290894"
       y2="177.23959" />
    <linearGradient
       inkscape:collect="always"
       xlink:href="#linearGradient5966"
       id="linearGradient5720"
       gradientUnits="userSpaceOnUse"
       gradientTransform="matrix(9.5817074e-2,0,0,0.1069878,-11.304988,-36.78076)"
       x1="38.890877"
       y1="145.8279"
       x2="59.220192"
       y2="145.88857" />
    <linearGradient
       inkscape:collect="always"
       xlink:href="#linearGradient5641"
       id="linearGradient5722"
       gradientUnits="userSpaceOnUse"
       gradientTransform="matrix(9.5817074e-2,0,0,0.1069878,-11.304988,-37.28407)"
       x1="80.96373"
       y1="195.32538"
       x2="108.54089"
       y2="195.73959" />
    <linearGradient
       inkscape:collect="always"
       xlink:href="#linearGradient5641"
       id="linearGradient5724"
       gradientUnits="userSpaceOnUse"
       gradientTransform="matrix(9.5817074e-2,0,0,0.1069878,-11.304988,-36.78076)"
       x1="199.5"
       y1="114.25"
       x2="228.25"
       y2="113" />
    <linearGradient
       inkscape:collect="always"
       xlink:href="#linearGradient5641"
       id="linearGradient5726"
       gradientUnits="userSpaceOnUse"
       gradientTransform="matrix(9.5817074e-2,0,0,0.1069878,-11.304988,-36.78076)"
       x1="192"
       y1="146.25"
       x2="225.75"
       y2="145.25" />
    <linearGradient
       inkscape:collect="always"
       xlink:href="#linearGradient5615"
       id="linearGradient5728"
       gradientUnits="userSpaceOnUse"
       gradientTransform="matrix(9.5817074e-2,0,0,0.1069878,-11.304988,-36.78076)"
       x1="184"
       y1="166"
       x2="215.5"
       y2="170.25" />
    <linearGradient
       inkscape:collect="always"
       xlink:href="#linearGradient5641"
       id="linearGradient5730"
       gradientUnits="userSpaceOnUse"
       gradientTransform="matrix(9.5817074e-2,0,0,0.1069878,-11.304988,-36.78076)"
       x1="192"
       y1="146.25"
       x2="225.75"
       y2="145.25" />
    <linearGradient
       inkscape:collect="always"
       xlink:href="#linearGradient5641"
       id="linearGradient5732"
       gradientUnits="userSpaceOnUse"
       gradientTransform="matrix(9.5817074e-2,0,0,0.1069878,-11.304988,-37.28407)"
       x1="116.834"
       y1="194.83527"
       x2="145.664"
       y2="194.83527" />
    <linearGradient
       inkscape:collect="always"
       xlink:href="#linearGradient5579"
       id="linearGradient5734"
       gradientUnits="userSpaceOnUse"
       gradientTransform="matrix(9.5817074e-2,0,0,0.1069878,7.47582,-36.286549)"
       x1="134.34375"
       y1="71.5"
       x2="171.65625"
       y2="212.5" />
    <linearGradient
       inkscape:collect="always"
       xlink:href="#linearGradient5641"
       id="linearGradient5736"
       gradientUnits="userSpaceOnUse"
       gradientTransform="matrix(9.5817074e-2,0,0,0.1069878,-11.304988,-37.28407)"
       x1="153.25"
       y1="202.75"
       x2="184.25"
       y2="201.75" />
    <linearGradient
       inkscape:collect="always"
       xlink:href="#linearGradient5615"
       id="linearGradient5738"
       gradientUnits="userSpaceOnUse"
       gradientTransform="matrix(9.5817074e-2,0,0,0.1069878,-10.992488,-37.28407)"
       x1="172.42566"
       y1="202.57323"
       x2="152.25"
       y2="202.57323" />
    <linearGradient
       inkscape:collect="always"
       xlink:href="#linearGradient5615"
       id="linearGradient5740"
       gradientUnits="userSpaceOnUse"
       gradientTransform="matrix(9.5817074e-2,0,0,0.1069878,-11.304988,-37.28407)"
       x1="201"
       y1="189"
       x2="145"
       y2="212.5" />
    <linearGradient
       inkscape:collect="always"
       xlink:href="#linearGradient5615"
       id="linearGradient5742"
       gradientUnits="userSpaceOnUse"
       gradientTransform="matrix(9.5817074e-2,0,0,0.1069878,-11.304988,-36.78076)"
       x1="228.5"
       y1="149.5"
       x2="141"
       y2="202.5" />
    <linearGradient
       inkscape:collect="always"
       xlink:href="#linearGradient5693"
       id="linearGradient5744"
       gradientUnits="userSpaceOnUse"
       gradientTransform="matrix(9.4858809e-2,0,0,9.345788e-2,-11.122936,-35.91485)"
       x1="65"
       y1="95"
       x2="190"
       y2="95" />
    <radialGradient
       inkscape:collect="always"
       xlink:href="#linearGradient5707"
       id="radialGradient5746"
       gradientUnits="userSpaceOnUse"
       gradientTransform="matrix(0.1349144,-0.1506432,7.0118015e-2,7.8292711e-2,15.090179,-24.751994)"
       cx="69.515442"
       cy="48.968105"
       fx="69.515442"
       fy="48.968105"
       r="101.65625" />
    <linearGradient
       inkscape:collect="always"
       xlink:href="#linearGradient5897"
       id="linearGradient5748"
       gradientUnits="userSpaceOnUse"
       gradientTransform="matrix(9.5817074e-2,0,0,0.1069878,-11.304988,-37.28407)"
       x1="115"
       y1="205.75"
       x2="124.5"
       y2="206" />
    <linearGradient
       inkscape:collect="always"
       xlink:href="#linearGradient5978"
       id="linearGradient5750"
       gradientUnits="userSpaceOnUse"
       gradientTransform="matrix(9.5817074e-2,0,0,0.1069878,-11.304988,-37.28407)"
       x1="63.213203"
       y1="180.75673"
       x2="83.841362"
       y2="193.125" />
    <linearGradient
       inkscape:collect="always"
       xlink:href="#linearGradient5978"
       id="linearGradient5752"
       gradientUnits="userSpaceOnUse"
       gradientTransform="matrix(9.5817074e-2,0,0,0.1069878,-11.304988,-36.78076)"
       x1="42"
       y1="172.625"
       x2="55.910641"
       y2="172.625" />
    <linearGradient
       inkscape:collect="always"
       xlink:href="#linearGradient5753"
       id="linearGradient5754"
       gradientUnits="userSpaceOnUse"
       gradientTransform="matrix(0.4649179,0,0,0.5276604,23.504002,-38.039196)"
       x1="30.812529"
       y1="38.433514"
       x2="30.94672"
       y2="11.32831" />
    <linearGradient
       inkscape:collect="always"
       xlink:href="#linearGradient5745"
       id="linearGradient5756"
       gradientUnits="userSpaceOnUse"
       gradientTransform="matrix(0.5075563,0,0,0.5672689,-11.590719,-36.72715)"
       x1="26.934336"
       y1="5.5277748"
       x2="26.934338"
       y2="28.598352" />
    <linearGradient
       inkscape:collect="always"
       xlink:href="#linearGradient5579"
       id="linearGradient5758"
       gradientUnits="userSpaceOnUse"
       gradientTransform="matrix(6.61949e-2,0,0,-7.3912158e-2,8.5653309,43.495039)"
       x1="36.780293"
       y1="365.76822"
       x2="96.121727"
       y2="581.70453" />
    <linearGradient
       inkscape:collect="always"
       xlink:href="#linearGradient5579"
       id="linearGradient5762"
       gradientUnits="userSpaceOnUse"
       gradientTransform="matrix(9.5817074e-2,0,0,0.1069878,7.47582,-36.286549)"
       x1="134.34375"
       y1="71.5"
       x2="171.65625"
       y2="212.5" />
    <linearGradient
       inkscape:collect="always"
       xlink:href="#linearGradient5769"
       id="linearGradient5775"
       x1="11.344039"
       y1="15.724428"
       x2="11.283378"
       y2="9.0953016"
       gradientUnits="userSpaceOnUse" />
    <linearGradient
       inkscape:collect="always"
       xlink:href="#linearGradient5579"
       id="linearGradient5779"
       gradientUnits="userSpaceOnUse"
       gradientTransform="matrix(6.61949e-2,0,0,-7.3912158e-2,8.5653309,43.495039)"
       x1="16.008299"
       y1="521.35834"
       x2="117.8379"
       y2="333.0986" />
    <linearGradient
       inkscape:collect="always"
       xlink:href="#linearGradient5781"
       id="linearGradient5787"
       x1="11"
       y1="1.84375"
       x2="11"
       y2="14.625"
       gradientUnits="userSpaceOnUse" />
    <radialGradient
       inkscape:collect="always"
       xlink:href="#linearGradient5791"
       id="radialGradient5797"
       cx="11.313708"
       cy="19.083185"
       fx="11.313708"
       fy="19.083185"
       r="9.8994951"
       gradientTransform="matrix(1,0,0,0.2767857,0,13.801232)"
       gradientUnits="userSpaceOnUse" />
  </defs>
  <sodipodi:namedview
     id="base"
     pagecolor="#ffffff"
     bordercolor="#d6d6d6"
     borderopacity="1"
     gridtolerance="10000"
     guidetolerance="10"
     objecttolerance="10"
     inkscape:pageopacity="0.0"
     inkscape:pageshadow="2"
     inkscape:zoom="1"
     inkscape:cx="9.2984989"
     inkscape:cy="3.1352116"
     inkscape:document-units="px"
     inkscape:current-layer="layer1"
     width="22px"
     height="22px"
     inkscape:showpageshadow="false"
     borderlayer="true"
     inkscape:window-width="872"
     inkscape:window-height="630"
     inkscape:window-x="524"
     inkscape:window-y="249"
     showgrid="false" />
  <metadata
     id="metadata7">
    <rdf:RDF>
      <cc:Work
         rdf:about="">
        <dc:format>image/svg+xml</dc:format>
        <dc:type
           rdf:resource="http://purl.org/dc/dcmitype/StillImage" />
        <dc:title>System Applications</dc:title>
        <dc:subject>
          <rdf:Bag>
            <rdf:li>system</rdf:li>
            <rdf:li>applications</rdf:li>
            <rdf:li>category</rdf:li>
          </rdf:Bag>
        </dc:subject>
        <dc:creator>
          <cc:Agent>
            <dc:title>Jakub Steiner</dc:title>
          </cc:Agent>
        </dc:creator>
        <cc:license
           rdf:resource="http://creativecommons.org/licenses/GPL/2.0/" />
      </cc:Work>
      <cc:License
         rdf:about="http://creativecommons.org/licenses/GPL/2.0/">
        <cc:permits
           rdf:resource="http://web.resource.org/cc/Reproduction" />
        <cc:permits
           rdf:resource="http://web.resource.org/cc/Distribution" />
        <cc:requires
           rdf:resource="http://web.resource.org/cc/Notice" />
        <cc:permits
           rdf:resource="http://web.resource.org/cc/DerivativeWorks" />
        <cc:requires
           rdf:resource="http://web.resource.org/cc/ShareAlike" />
        <cc:requires
           rdf:resource="http://web.resource.org/cc/SourceCode" />
      </cc:License>
    </rdf:RDF>
  </metadata>
  <g
     inkscape:label="Layer 1"
     inkscape:groupmode="layer"
     id="layer1">
    <path
       sodipodi:type="arc"
       style="opacity:0.50285716;color:#000000;fill:url(#radialGradient5797);fill-opacity:1;fill-rule:nonzero;stroke:none;stroke-width:1;stroke-linecap:butt;stroke-linejoin:miter;marker:none;marker-start:none;marker-mid:none;marker-end:none;stroke-miterlimit:10;stroke-dasharray:none;stroke-dashoffset:0;stroke-opacity:1;visibility:visible;display:block;overflow:visible;enable-background:accumulate"
       id="path5789"
       sodipodi:cx="11.313708"
       sodipodi:cy="19.083185"
       sodipodi:rx="9.8994951"
       sodipodi:ry="2.7400389"
       d="M 21.213203 19.083185 A 9.8994951 2.7400389 0 1 1  1.4142132,19.083185 A 9.8994951 2.7400389 0 1 1  21.213203 19.083185 z"
       transform="matrix(1.0600708,0,0,1.0322581,-1.2099528,-0.5271983)" />
    <path
       id="path5735"
       d="M 136.21875,61.34375 C 133.04768,66.942039 132.03863,75.798453 124.09375,76.089734 C 116.13482,76.381531 114.09566,67.607316 110.25,62.268416 C 105.60995,62.902732 101.08947,63.790852 96.6875,64.896413 C 96.492107,71.016647 99.963446,79.506145 92.75,82.148728 C 85.535056,84.791861 79.337504,77.294317 73.15625,73.510404 C 69.220627,75.469125 65.480634,77.65891 61.9375,80.007397 C 64.779063,85.711954 72.103334,92.508989 66.75,97.089379 C 61.389764,101.67567 52.003171,96.63263 44.4375,94.972381 C 41.768272,97.936096 39.325534,101.02655 37.1875,104.2677 C 42.602989,108.70808 52.797413,112.8025 50.09375,118.64869 C 47.395676,124.48279 36.211903,122.62479 28.40625,123.34502 C 27.414668,126.84828 26.719006,130.44088 26.34375,134.10034 C 33.533341,136.56954 44.907172,137.35526 45.28125,143.54166 C 45.655989,149.73901 34.387722,151.32683 27.53125,154.32132 C 28.34587,157.93437 29.486436,161.45431 30.90625,164.88197 C 38.766148,165.03412 49.668768,162.3311 53.0625,167.94797 C 56.456938,173.566 46.828232,178.39183 41.96875,183.20496 C 44.484233,186.26949 47.296461,189.1817 50.3125,191.94061 C 57.638565,189.72799 66.367644,184.02483 72.25,188.19328 C 78.13994,192.36712 71.663421,199.67614 69.53125,205.56726 C 73.337395,207.6457 77.306309,209.54778 81.46875,211.21259 C 87.17129,206.99574 92.429542,199.05768 99.9375,201.16294 C 107.42994,203.26383 105.0438,211.97226 105.96875,218.05025 C 110.4678,218.82236 115.08159,219.36405 119.78125,219.65625 C 122.95232,214.05796 123.96137,205.20154 131.90625,204.91027 C 139.86518,204.61847 141.90434,213.39269 145.75,218.73158 C 150.39005,218.09727 154.91053,217.20914 159.3125,216.10359 C 159.50789,209.98335 156.03655,201.49385 163.25,198.85127 C 170.46494,196.20814 176.6625,203.70569 182.84375,207.4896 C 186.77937,205.53088 190.51937,203.34109 194.0625,200.9926 C 191.22094,195.28805 183.89667,188.49101 189.25,183.91062 C 194.61024,179.32433 203.99683,184.36737 211.5625,186.02762 C 214.23173,183.0639 216.67447,179.97345 218.8125,176.7323 C 213.39701,172.29192 203.20258,168.1975 205.90625,162.35131 C 208.60432,156.5172 219.7881,158.37521 227.59375,157.65498 C 228.58533,154.15173 229.28099,150.55912 229.65625,146.89966 C 222.46666,144.43046 211.09282,143.64474 210.71875,137.45834 C 210.34401,131.26099 221.61228,129.67317 228.46875,126.67868 C 227.65413,123.06564 226.51356,119.54569 225.09375,116.11803 C 217.23385,115.96588 206.33123,118.66889 202.9375,113.05203 C 199.54306,107.434 209.17177,102.60818 214.03125,97.795045 C 211.51577,94.73051 208.70354,91.818305 205.6875,89.059387 C 198.36144,91.272016 189.63236,96.975174 183.75,92.806717 C 177.86006,88.632884 184.33658,81.323865 186.46875,75.432735 C 182.6626,73.354298 178.69369,71.452222 174.53125,69.787408 C 168.82871,74.004264 163.57046,81.942314 156.0625,79.837064 C 148.57006,77.736166 150.9562,69.027744 150.03125,62.949748 C 145.5322,62.177637 140.91841,61.635949 136.21875,61.34375 z M 128,92.222717 C 162.224,92.222717 190,113.85094 190,140.5 C 190,167.14906 162.224,188.77728 128,188.77728 C 93.775999,188.77728 66,167.14906 66,140.5 C 65.999999,113.85094 93.776,92.222717 128,92.222717 z "
       style="opacity:1;color:#000000;fill:#000000;fill-opacity:1;fill-rule:nonzero;stroke:none;stroke-width:0.30000001;stroke-linecap:butt;stroke-linejoin:miter;marker:none;marker-start:none;marker-mid:none;marker-end:none;stroke-miterlimit:10;stroke-dasharray:none;stroke-dashoffset:0;stroke-opacity:1;visibility:visible;display:block;overflow:visible;filter:url(#filter5735);enable-background:accumulate"
       transform="matrix(9.5817074e-2,0,0,0.1069878,30.695012,-3.2531182)" />
    <path
       style="opacity:1;color:#000000;fill:#717171;fill-opacity:1;fill-rule:nonzero;stroke:#888a85;stroke-width:1.99999988;stroke-linecap:butt;stroke-linejoin:miter;marker:none;marker-start:none;marker-mid:none;marker-end:none;stroke-miterlimit:10;stroke-dasharray:none;stroke-dashoffset:0;stroke-opacity:1;visibility:visible;display:block;overflow:visible;enable-background:accumulate"
       d="M 43.810397,0.96904889 C 43.498514,1.5481421 43.399136,2.4670878 42.617736,2.4972184 C 41.834956,2.5274023 41.63511,1.6178267 41.25688,1.0655649 C 40.80052,1.1311793 40.35955,1.224666 39.926606,1.3390269 C 39.907387,1.9721101 40.253802,2.8512208 39.544342,3.124572 C 38.834734,3.3979808 38.210388,2.6151686 37.602446,2.2237564 C 37.215367,2.4263685 36.588025,2.8993681 36.588025,2.8993681 C 36.588025,2.8993681 36.672798,4.9418155 36.672798,4.9418155 C 36.672798,4.9418155 35.533093,4.6153623 34.788991,4.4436231 C 34.526465,4.750193 34.280617,5.0735154 34.070336,5.4087837 C 34.070336,5.4087837 34.262143,7.3069317 34.262143,7.3069317 C 34.262143,7.3069317 33.65861,7.3442201 33.214067,7.3873609 C 33.116542,7.749741 33.036907,8.1187557 33,8.4972951 C 33,8.4972951 33.086496,10.865169 33.086496,10.865169 C 33.086496,10.865169 33.122324,13.274834 33.122324,13.274834 C 33.202443,13.648573 33.319073,14.014121 33.458715,14.368682 C 34.805493,14.014398 34.46227,14.417413 34.46227,14.417413 C 34.46227,14.417413 34.544342,16.26683 34.544342,16.26683 C 34.791746,16.583827 35.073395,16.88226 35.37003,17.167645 C 36.090567,16.938771 36.947449,16.350392 37.525993,16.781581 C 38.105283,17.213328 37.460468,17.973829 37.250764,18.583212 C 37.625108,18.798208 38.018747,18.990097 38.428134,19.162308 C 38.988993,18.726112 39.50928,17.898948 40.247706,18.116719 C 40.984608,18.334037 40.753065,19.241378 40.844037,19.870092 C 41.286528,19.949958 41.727379,20.000725 42.189603,20.030952 C 42.501485,19.451858 42.600863,18.532911 43.382262,18.502781 C 44.165042,18.4726 44.614888,19.382175 44.993118,19.934437 C 45.449479,19.868823 45.65574,19.775332 46.088684,19.660973 C 46.107901,19.02789 45.761487,18.14878 46.470947,17.875428 C 47.180555,17.60202 47.789612,18.384833 48.397553,18.776244 C 48.784631,18.573632 49.149995,18.343563 49.498469,18.100633 C 49.498469,18.100633 49.413697,16.42217 49.413697,16.42217 C 49.94089,15.947759 50.482195,16.384639 51.226299,16.556377 C 51.488823,16.249807 51.719382,15.926486 51.929663,15.591217 C 51.929663,15.591217 51.87502,13.779021 51.87502,13.779021 C 51.87502,13.779021 52.801223,13.61264 52.801223,13.61264 C 52.898746,13.250261 52.963091,12.881245 52.999999,12.502707 C 52.999999,12.502707 52.999999,9.8163473 52.999999,9.8163473 C 52.907258,9.7828463 52.797718,9.7650781 52.694188,9.735916 C 52.649161,9.5978537 52.826094,9.3619629 52.772815,9.2266838 C 52.772815,9.2266838 52.892965,7.7251672 52.892965,7.7251672 C 52.812846,7.3514313 52.696216,6.9858805 52.556573,6.6313192 C 51.976793,6.6195147 51.230928,6.782448 50.752292,6.6152329 C 50.740896,6.6112509 50.732796,6.6034989 50.721712,6.5991459 C 50.695552,6.5734126 50.671745,6.544197 50.645259,6.5187158 C 50.630871,6.5232863 50.613882,6.5299556 50.599388,6.534802 C 50.511901,6.4810839 50.423673,6.4029757 50.37003,6.3095982 C 50.036178,5.7284633 50.993004,5.2310476 51.470946,4.7331714 C 51.223543,4.4161722 50.941894,4.1177417 50.645259,3.8323558 C 49.924723,4.0612325 49.067841,4.6496093 48.489296,4.2184195 C 47.910006,3.7866735 48.539531,3.0422592 48.749235,2.4328743 C 48.37489,2.2178789 47.996542,2.0099028 47.587155,1.8376926 C 47.026296,2.273889 46.50601,3.101052 45.767583,2.8832821 C 45.030683,2.6659627 45.262226,1.7586235 45.171253,1.1299089 C 44.728761,1.050041 44.272621,0.99927413 43.810397,0.96904889 z M 43,4.1540754 C 43.200137,4.1540754 43.401117,4.1707903 43.596331,4.1862478 C 43.405672,4.674279 43.185249,5.1616954 42.617736,5.1835795 C 42.068951,5.2047403 41.800991,4.770043 41.56269,4.3149354 C 42.026706,4.2223133 42.501325,4.1540754 43,4.1540754 z M 45.217125,4.5079672 C 45.787848,4.6909299 46.319993,4.9404362 46.792048,5.2479236 C 46.485882,5.5036393 46.158441,5.6849107 45.767583,5.569643 C 45.278348,5.425363 45.229476,4.9751427 45.217125,4.5079672 z M 39.972477,4.8296868 C 40.001224,5.2531718 39.976713,5.6443428 39.544342,5.8109332 C 39.2228,5.9348219 38.916522,5.8396903 38.626911,5.666159 C 39.021741,5.3336577 39.47813,5.0622478 39.972477,4.8296868 z M 43,6.8565231 C 45.798001,6.8565231 48.154804,8.4029828 48.871559,10.508044 C 48.149032,12.605835 45.791688,14.143478 43,14.143478 C 40.207853,14.143479 37.850551,12.60636 37.12844,10.508044 C 37.844664,8.4023157 40.20142,6.8565231 43,6.8565231 z M 46.730886,15.140809 C 46.951733,15.130008 47.167141,15.212199 47.373087,15.333842 C 46.978616,15.666049 46.521343,15.937859 46.027523,16.170314 C 45.999775,15.749684 46.041103,15.354685 46.470947,15.189067 C 46.559649,15.154891 46.64512,15.145005 46.730886,15.140809 z M 39.972477,15.398185 C 40.058383,15.395721 40.155403,15.403136 40.247706,15.430357 C 40.736942,15.574638 40.785814,16.024858 40.798165,16.492033 C 40.219392,16.307455 39.685402,16.064479 39.207951,15.752077 C 39.444128,15.553529 39.691513,15.406241 39.972477,15.398185 z M 43.382262,15.816421 C 43.935405,15.795093 44.197488,16.242215 44.437309,16.701151 C 43.978673,16.791502 43.492333,16.845925 43,16.845925 C 42.800117,16.845925 42.613931,16.829172 42.418959,16.813753 C 42.60962,16.325722 42.814751,15.838304 43.382262,15.816421 z "
       id="path5670"
       sodipodi:nodetypes="csccsccscccccccccccsccsccsccsccsccccccccccsssssccsccsccccsccccsccsccccscccccsccscccccscc" />
    <path
       id="path5609"
       d="M 43.747088,3.0959357 C 43.443246,3.6948837 43.346562,4.6424109 42.585307,4.6735749 C 41.822706,4.7047937 41.627319,3.7660604 41.25884,3.1948632 C 40.814244,3.2627272 40.381105,3.3577454 39.959321,3.4760265 C 39.9406,4.1308161 40.273213,5.0390887 39.582042,5.321813 C 38.890727,5.6045949 38.296897,4.8024505 37.704627,4.3976182 C 37.327527,4.6071773 36.969172,4.8414581 36.629679,5.0927166 C 36.90195,5.7030339 37.60374,6.4302334 37.090799,6.9202813 C 36.577197,7.410956 35.677802,6.8714133 34.952881,6.6937867 C 34.697124,7.0108671 34.463068,7.3415085 34.258208,7.6882717 C 34.777104,8.163338 35.753903,8.6013901 35.494846,9.2268614 C 35.236325,9.8510381 34.164729,9.6522551 33.416815,9.7293118 C 33.321804,10.104118 33.255148,10.488481 33.219192,10.879999 C 33.908077,11.144173 34.997884,11.228235 35.033727,11.890105 C 35.069633,12.553145 33.989942,12.723023 33.332975,13.043395 C 33.411029,13.429949 33.520315,13.806538 33.656357,14.173256 C 34.40947,14.189534 35.454126,13.900344 35.779303,14.50128 C 36.104548,15.102342 35.181954,15.618644 34.716333,16.13359 C 34.957359,16.461458 35.226819,16.773029 35.515806,17.068198 C 36.217768,16.831475 37.054162,16.221307 37.617793,16.66728 C 38.18215,17.11383 37.561588,17.895805 37.35729,18.526083 C 37.721984,18.748451 38.102273,18.951949 38.501106,19.130064 C 39.047506,18.678913 39.551336,17.829638 40.270727,18.054874 C 40.988631,18.279644 40.759997,19.211339 40.848624,19.861611 C 41.279708,19.944216 41.721789,20.002169 42.172095,20.033432 C 42.475938,19.434483 42.572623,18.486956 43.333878,18.455792 C 44.096479,18.424573 44.291865,19.363307 44.660344,19.934504 C 45.104941,19.866641 45.53808,19.771621 45.959863,19.653341 C 45.978585,18.99855 45.645972,18.090278 46.337143,17.807555 C 47.028457,17.524772 47.622288,18.326918 48.214558,18.73175 C 48.591658,18.52219 48.950013,18.28791 49.289505,18.036651 C 49.017235,17.426334 48.315446,16.699133 48.828386,16.209088 C 49.341988,15.718411 50.241383,16.257955 50.966303,16.435582 C 51.222061,16.118499 51.456117,15.78786 51.660977,15.441096 C 51.142081,14.96603 50.165281,14.527977 50.424339,13.902506 C 50.682859,13.278329 51.754455,13.477112 52.50237,13.400056 C 52.59738,13.025251 52.664037,12.640885 52.699993,12.249369 C 52.011107,11.985196 50.9213,11.901133 50.885458,11.239263 C 50.84955,10.576222 51.929242,10.406346 52.586209,10.085972 C 52.508154,9.6994222 52.39887,9.3228302 52.262827,8.9561116 C 51.509715,8.9398338 50.465058,9.2290231 50.139881,8.6280874 C 49.814636,8.0270274 50.73723,7.510724 51.202852,6.9957767 C 50.961825,6.6679113 50.692366,6.3563399 50.403378,6.0611695 C 49.701416,6.2978921 48.865022,6.9080611 48.301392,6.462086 C 47.737035,6.0155378 48.357597,5.2335626 48.561895,4.6032833 C 48.197201,4.3809169 47.816912,4.1774178 47.418078,3.9993033 C 46.871678,4.4504551 46.367849,5.2997289 45.648457,5.0744921 C 44.930555,4.849723 45.159188,3.9180284 45.070562,3.2677573 C 44.639476,3.1851511 44.197397,3.1271971 43.747088,3.0959357 z M 42.959592,6.3996072 C 46.238835,6.3996072 48.900249,8.7135615 48.900249,11.564684 C 48.900249,14.415807 46.238835,16.72976 42.959592,16.72976 C 39.68035,16.72976 37.018936,14.415807 37.018936,11.564684 C 37.018936,8.7135615 39.68035,6.3996072 42.959592,6.3996072 z "
       style="opacity:1;color:#000000;fill:#717171;fill-opacity:1;fill-rule:nonzero;stroke:none;stroke-width:0.30000001;stroke-linecap:butt;stroke-linejoin:miter;marker:none;marker-start:none;marker-mid:none;marker-end:none;stroke-miterlimit:10;stroke-dasharray:none;stroke-dashoffset:0;stroke-opacity:1;visibility:visible;display:block;overflow:visible;enable-background:accumulate" />
    <path
       style="opacity:1;color:#000000;fill:url(#linearGradient5988);fill-opacity:1;fill-rule:evenodd;stroke:none;stroke-width:1px;stroke-linecap:butt;stroke-linejoin:miter;marker:none;marker-start:none;marker-mid:none;marker-end:none;stroke-miterlimit:4;stroke-dasharray:none;stroke-dashoffset:0;stroke-opacity:1;visibility:visible;display:inline;overflow:visible;enable-background:accumulate"
       d="M 35.509818,14.715938 L 35.533772,17.57786 L 36.563805,17.123162 C 36.563805,17.123162 37.402205,16.855694 37.809427,17.176657 C 38.0813,17.390939 38.16874,13.940278 38.16874,13.940278 L 36.444034,13.967024 L 35.509818,14.715938 z "
       id="path5986"
       sodipodi:nodetypes="cccsccc" />
    <path
       style="opacity:1;color:#000000;fill:url(#linearGradient5974);fill-opacity:1;fill-rule:evenodd;stroke:none;stroke-width:1px;stroke-linecap:butt;stroke-linejoin:miter;marker:none;marker-start:none;marker-mid:none;marker-end:none;stroke-miterlimit:4;stroke-dasharray:none;stroke-dashoffset:0;stroke-opacity:1;visibility:visible;display:inline;overflow:visible;enable-background:accumulate"
       d="M 33.608386,11.816079 L 33.676139,14.690846 L 36.030551,14.539542 L 36.369315,11.645862 L 33.608386,11.816079 z "
       id="path5964"
       sodipodi:nodetypes="ccccc" />
    <path
       style="opacity:1;color:#000000;fill:url(#linearGradient5733);fill-opacity:1;fill-rule:evenodd;stroke:none;stroke-width:1px;stroke-linecap:butt;stroke-linejoin:miter;marker:none;marker-start:none;marker-mid:none;marker-end:none;stroke-miterlimit:4;stroke-dasharray:none;stroke-dashoffset:0;stroke-opacity:1;visibility:visible;display:inline;overflow:visible;enable-background:accumulate"
       d="M 40.836043,19.836965 L 40.977715,17.013399 L 41.095078,14.868402 L 39.536762,14.52797 L 38.452716,16.381437 L 38.486593,19.142727 C 38.738113,18.982246 39.575496,17.870847 40.383673,18.112642 C 40.896685,18.266131 40.836043,19.836965 40.836043,19.836965 z "
       id="path5731"
       sodipodi:nodetypes="ccccccsc" />
    <path
       style="opacity:1;color:#000000;fill:url(#linearGradient5723);fill-opacity:1;fill-rule:evenodd;stroke:none;stroke-width:1px;stroke-linecap:butt;stroke-linejoin:miter;marker:none;marker-start:none;marker-mid:none;marker-end:none;stroke-miterlimit:4;stroke-dasharray:none;stroke-dashoffset:0;stroke-opacity:1;visibility:visible;display:inline;overflow:visible;enable-background:accumulate"
       d="M 52.56525,7.8152295 L 52.517341,10.356188 L 49.81051,10.088719 L 50.002144,8.8048658 L 52.56525,7.8152295 z "
       id="path5721" />
    <path
       style="opacity:1;color:#000000;fill:url(#linearGradient4685);fill-opacity:1;fill-rule:evenodd;stroke:none;stroke-width:1px;stroke-linecap:butt;stroke-linejoin:miter;marker:none;marker-start:none;marker-mid:none;marker-end:none;stroke-miterlimit:4;stroke-dasharray:none;stroke-dashoffset:0;stroke-opacity:1;visibility:visible;display:inline;overflow:visible;enable-background:accumulate"
       d="M 52.493387,11.105103 L 52.493387,13.886784 L 50.026099,14.074011 L 49.786556,11.238837 L 52.493387,11.105103 z "
       id="path5715"
       sodipodi:nodetypes="ccccc" />
    <path
       style="opacity:1;color:#000000;fill:url(#linearGradient5635);fill-opacity:1;fill-rule:evenodd;stroke:none;stroke-width:1px;stroke-linecap:butt;stroke-linejoin:miter;marker:none;marker-start:none;marker-mid:none;marker-end:none;stroke-miterlimit:4;stroke-dasharray:none;stroke-dashoffset:0;stroke-opacity:1;visibility:visible;display:inline;overflow:visible;enable-background:accumulate"
       d="M 50.960315,16.962681 C 50.960315,16.962681 49.427242,16.320756 48.996066,16.534731 C 48.564888,16.748706 48.612797,14.047266 48.612797,14.047266 C 49.4971,13.383112 50.190196,13.999939 50.960315,14.10076 L 50.960315,16.962681 z "
       id="path5633"
       sodipodi:nodetypes="csccc" />
    <path
       style="opacity:1;color:#000000;fill:url(#linearGradient5717);fill-opacity:1;fill-rule:evenodd;stroke:none;stroke-width:1px;stroke-linecap:butt;stroke-linejoin:miter;marker:none;marker-start:none;marker-mid:none;marker-end:none;stroke-miterlimit:4;stroke-dasharray:none;stroke-dashoffset:0;stroke-opacity:1;visibility:visible;display:inline;overflow:visible;enable-background:accumulate"
       d="M 51.056131,7.5210138 L 51.151948,4.7125862 L 48.516981,4.8998149 L 48.540935,2.3588563 L 47.439039,1.7436768 L 46.241326,3.9369256 L 45.378972,3.3217458 L 45.091522,1.0482567 L 43.774038,0.86102786 L 43.366815,3.0275294 L 40.803709,3.2949988 L 39.989264,1.2087381 L 39.989264,3.6159619 C 39.989264,3.6159619 38.911323,3.7229499 38.815506,3.6962032 C 38.719689,3.6694559 36.707531,2.813554 36.707531,2.813554 L 36.779393,5.2742722 L 34.815144,5.0068031 L 34.288151,5.4080063 L 34.503739,7.6280017 L 35.485864,8.0559509 L 33.234164,8.5908908 L 33.210209,11.399319 L 36.060904,10.725967 L 36.515897,6.9058322 L 38.240603,5.514994 L 41.019298,3.7229499 L 46.193417,4.3113822 L 49.690739,7.5745073 L 51.056131,7.5210138 z "
       id="path5725"
       sodipodi:nodetypes="cccccccccccccsccccccccccccccc" />
    <path
       style="opacity:1;color:#000000;fill:url(#linearGradient5729);fill-opacity:1;fill-rule:evenodd;stroke:none;stroke-width:1px;stroke-linecap:butt;stroke-linejoin:miter;marker:none;marker-start:none;marker-mid:none;marker-end:none;stroke-miterlimit:4;stroke-dasharray:none;stroke-dashoffset:0;stroke-opacity:1;visibility:visible;display:inline;overflow:visible;enable-background:accumulate"
       d="M 44.94065,19.914912 L 44.964604,17.024478 L 43.771317,15.133184 L 42.551766,15.246661 L 42.179125,17.28926 L 42.15928,20.104041 C 42.15928,20.104041 42.647583,18.435114 43.3648,18.46186 C 44.177381,18.492165 44.715139,19.647443 44.94065,19.914912 z "
       id="path5727"
       sodipodi:nodetypes="ccccccsc" />
    <path
       style="opacity:1;color:#000000;fill:url(#linearGradient5585);fill-opacity:1;fill-rule:nonzero;stroke:none;stroke-width:0.30000001;stroke-linecap:butt;stroke-linejoin:miter;marker:none;marker-start:none;marker-mid:none;marker-end:none;stroke-miterlimit:10;stroke-dasharray:none;stroke-dashoffset:0;stroke-opacity:1;visibility:visible;display:block;overflow:visible;enable-background:accumulate"
       d="M 43.747088,0.8175642 C 43.443246,1.4165123 43.346562,2.3640401 42.585307,2.3952037 C 41.822706,2.4264225 41.627319,1.487689 41.25884,0.91649208 C 40.814244,0.98435618 40.381105,1.0793741 39.959321,1.1976557 C 39.9406,1.8524455 40.273213,2.7607178 39.582042,3.0434415 C 38.890727,3.3262247 38.296897,2.5240795 37.704627,2.1192468 C 37.327527,2.3288061 36.969172,2.5630864 36.629679,2.8143457 C 36.90195,3.4246633 37.60374,4.151863 37.090799,4.641908 C 36.577197,5.1325848 35.677802,4.5930422 34.952881,4.4154154 C 34.697124,4.7324958 34.463068,5.0631377 34.258208,5.4098996 C 34.777104,5.8849666 35.753903,6.3230177 35.494846,6.9484881 C 35.236325,7.5726658 34.164729,7.3738827 33.416815,7.4509385 C 33.321804,7.8257452 33.255148,8.2101087 33.219192,8.601625 C 33.908077,8.8657997 34.997884,8.9498632 35.033727,9.611731 C 35.069633,10.274772 33.989942,10.44465 33.332975,10.765022 C 33.411029,11.151574 33.520315,11.528166 33.656357,11.894883 C 34.40947,11.911162 35.454126,11.621972 35.779303,12.222907 C 36.104548,12.823967 35.181954,13.340272 34.716333,13.855218 C 34.957359,14.183085 35.226819,14.494656 35.515806,14.789825 C 36.217768,14.553102 37.054162,13.942935 37.617793,14.388907 C 38.18215,14.835456 37.561588,15.617433 37.35729,16.247709 C 37.721984,16.470077 38.102273,16.673576 38.501106,16.851691 C 39.047506,16.400539 39.551336,15.551265 40.270727,15.776501 C 40.988631,16.001271 40.759997,16.932967 40.848624,17.583236 C 41.279708,17.665843 41.721789,17.723798 42.172095,17.75506 C 42.475938,17.156111 42.572623,16.208582 43.333878,16.177419 C 44.096479,16.146202 44.291865,17.084935 44.660344,17.65613 C 45.104941,17.588267 45.53808,17.493248 45.959863,17.374968 C 45.978585,16.720177 45.645972,15.811905 46.337143,15.529181 C 47.028457,15.246399 47.622288,16.048544 48.214558,16.453377 C 48.591658,16.243817 48.950013,16.009536 49.289505,15.758278 C 49.017235,15.14796 48.315446,14.420761 48.828386,13.930714 C 49.341988,13.440039 50.241383,13.979582 50.966303,14.157207 C 51.222061,13.840126 51.456117,13.509485 51.660977,13.162722 C 51.142081,12.687657 50.165281,12.249604 50.424339,11.624134 C 50.682859,10.999955 51.754455,11.198739 52.50237,11.121684 C 52.59738,10.746879 52.664037,10.362514 52.699993,9.9709965 C 52.011107,9.7068218 50.9213,9.6227601 50.885458,8.9608905 C 50.84955,8.2978497 51.929242,8.1279729 52.586209,7.8075986 C 52.508154,7.421048 52.39887,7.044457 52.262827,6.6777384 C 51.509715,6.6614596 50.465058,6.9506489 50.139881,6.3497141 C 49.814636,5.7486552 50.73723,5.2323523 51.202852,4.7174058 C 50.961825,4.3895375 50.692366,4.0779679 50.403378,3.7827977 C 49.701416,4.019522 48.865022,4.6296897 48.301392,4.1837159 C 47.737035,3.7371666 48.357597,2.9551913 48.561895,2.3249127 C 48.197201,2.1025457 47.816912,1.8990466 47.418078,1.7209321 C 46.871678,2.172084 46.367849,3.021358 45.648457,2.796122 C 44.930555,2.5713515 45.159188,1.6396572 45.070562,0.98938612 C 44.639476,0.90677989 44.197397,0.84882574 43.747088,0.8175642 z M 42.959592,4.1212349 C 46.238835,4.1212349 48.900249,6.4351891 48.900249,9.2863103 C 48.900249,12.137434 46.238835,14.451388 42.959592,14.451388 C 39.68035,14.451388 37.018936,12.137434 37.018936,9.2863103 C 37.018936,6.4351891 39.68035,4.1212349 42.959592,4.1212349 z "
       id="path4582" />
    <path
       style="opacity:1;color:#000000;fill:url(#linearGradient5639);fill-opacity:1;fill-rule:evenodd;stroke:none;stroke-width:1px;stroke-linecap:butt;stroke-linejoin:miter;marker:none;marker-start:none;marker-mid:none;marker-end:none;stroke-miterlimit:4;stroke-dasharray:none;stroke-dashoffset:0;stroke-opacity:1;visibility:visible;display:inline;overflow:visible;enable-background:accumulate"
       d="M 48.181621,18.786357 L 48.181621,15.844193 C 48.181621,15.844193 46.888091,14.613834 46.361097,14.908051 C 45.834103,15.202266 45.738286,16.031422 45.738286,16.031422 L 45.929921,19.669005 C 45.929921,19.669005 45.666424,17.957202 46.409005,17.79672 C 47.151587,17.636238 48.181621,18.786357 48.181621,18.786357 z "
       id="path5637" />
    <path
       style="fill:url(#linearGradient5621);fill-opacity:1;fill-rule:evenodd;stroke:none;stroke-width:1px;stroke-linecap:butt;stroke-linejoin:miter;stroke-opacity:1"
       d="M 44.94889,17.154793 L 44.924937,19.989969 L 46.266375,19.669005 L 46.254046,16.849499 L 44.94889,17.154793 z "
       id="path5613"
       sodipodi:nodetypes="ccccc" />
    <path
       style="opacity:1;color:#000000;fill:url(#linearGradient5627);fill-opacity:1;fill-rule:evenodd;stroke:none;stroke-width:1px;stroke-linecap:butt;stroke-linejoin:miter;marker:none;marker-start:none;marker-mid:none;marker-end:none;stroke-miterlimit:4;stroke-dasharray:none;stroke-dashoffset:0;stroke-opacity:1;visibility:visible;display:inline;overflow:visible;enable-background:accumulate"
       d="M 48.181621,15.844193 L 48.205575,18.813102 L 49.706426,18.233947 L 49.673108,15.746755 L 48.181621,15.844193 z "
       id="path5623"
       sodipodi:nodetypes="ccccc" />
    <path
       style="opacity:1;color:#000000;fill:url(#linearGradient5631);fill-opacity:1;fill-rule:evenodd;stroke:none;stroke-width:1px;stroke-linecap:butt;stroke-linejoin:miter;marker:none;marker-start:none;marker-mid:none;marker-end:none;stroke-miterlimit:4;stroke-dasharray:none;stroke-dashoffset:0;stroke-opacity:1;visibility:visible;display:inline;overflow:visible;enable-background:accumulate"
       d="M 50.960315,14.154254 L 50.960315,17.042922 L 51.967488,15.982051 L 51.991444,13.307357 L 50.960315,14.154254 z "
       id="path5629"
       sodipodi:nodetypes="ccccc" />
    <path
       style="opacity:1;color:#000000;fill:url(#linearGradient5699);fill-opacity:1;fill-rule:evenodd;stroke:none;stroke-width:1px;stroke-linecap:butt;stroke-linejoin:miter;marker:none;marker-start:none;marker-mid:none;marker-end:none;stroke-miterlimit:4;stroke-dasharray:none;stroke-dashoffset:0;stroke-opacity:1;visibility:visible;display:inline;overflow:visible;enable-background:accumulate"
       d="M 37.133187,9.8917953 C 37.823014,7.9531313 40.243564,6.5273099 42.97157,6.5273099 C 45.699575,6.5273099 48.120125,7.9531313 48.809953,9.8917953 C 49.179265,2.4906526 36.585966,2.1293706 37.133187,9.8917953 z "
       id="path5688"
       sodipodi:nodetypes="cscc" />
    <path
       id="path5705"
       d="M 43.747088,0.8175642 C 43.443246,1.4165123 43.346562,2.3640401 42.585307,2.3952037 C 41.822706,2.4264225 41.627319,1.487689 41.25884,0.91649208 C 40.814244,0.98435618 40.381105,1.0793741 39.959321,1.1976557 C 39.9406,1.8524455 40.273213,2.7607178 39.582042,3.0434415 C 38.890727,3.3262247 38.296897,2.5240795 37.704627,2.1192468 C 37.327527,2.3288061 36.969172,2.5630864 36.629679,2.8143457 C 36.90195,3.4246633 37.60374,4.151863 37.090799,4.641908 C 36.577197,5.1325848 35.677802,4.5930422 34.952881,4.4154154 C 34.697124,4.7324958 34.463068,5.0631377 34.258208,5.4098996 C 34.777104,5.8849666 35.753903,6.3230177 35.494846,6.9484881 C 35.236325,7.5726658 34.164729,7.3738827 33.416815,7.4509385 C 33.321804,7.8257452 33.255148,8.2101087 33.219192,8.601625 C 33.908077,8.8657997 34.997884,8.9498632 35.033727,9.611731 C 35.069633,10.274772 33.989942,10.44465 33.332975,10.765022 C 33.411029,11.151574 33.520315,11.528166 33.656357,11.894883 C 34.40947,11.911162 35.454126,11.621972 35.779303,12.222907 C 36.104548,12.823967 35.181954,13.340272 34.716333,13.855218 C 34.957359,14.183085 35.226819,14.494656 35.515806,14.789825 C 36.217768,14.553102 37.054162,13.942935 37.617793,14.388907 C 38.18215,14.835456 37.561588,15.617433 37.35729,16.247709 C 37.721984,16.470077 38.102273,16.673576 38.501106,16.851691 C 39.047506,16.400539 39.551336,15.551265 40.270727,15.776501 C 40.988631,16.001271 40.759997,16.932967 40.848624,17.583236 C 41.279708,17.665843 41.721789,17.723798 42.172095,17.75506 C 42.475938,17.156111 42.572623,16.208582 43.333878,16.177419 C 44.096479,16.146202 44.291865,17.084935 44.660344,17.65613 C 45.104941,17.588267 45.53808,17.493248 45.959863,17.374968 C 45.978585,16.720177 45.645972,15.811905 46.337143,15.529181 C 47.028457,15.246399 47.622288,16.048544 48.214558,16.453377 C 48.591658,16.243817 48.950013,16.009536 49.289505,15.758278 C 49.017235,15.14796 48.315446,14.420761 48.828386,13.930714 C 49.341988,13.440039 50.241383,13.979582 50.966303,14.157207 C 51.222061,13.840126 51.456117,13.509485 51.660977,13.162722 C 51.142081,12.687657 50.165281,12.249604 50.424339,11.624134 C 50.682859,10.999955 51.754455,11.198739 52.50237,11.121684 C 52.59738,10.746879 52.664037,10.362514 52.699993,9.9709965 C 52.011107,9.7068218 50.9213,9.6227601 50.885458,8.9608905 C 50.84955,8.2978497 51.929242,8.1279729 52.586209,7.8075986 C 52.508154,7.421048 52.39887,7.044457 52.262827,6.6777384 C 51.509715,6.6614596 50.465058,6.9506489 50.139881,6.3497141 C 49.814636,5.7486552 50.73723,5.2323523 51.202852,4.7174058 C 50.961825,4.3895375 50.692366,4.0779679 50.403378,3.7827977 C 49.701416,4.019522 48.865022,4.6296897 48.301392,4.1837159 C 47.737035,3.7371666 48.357597,2.9551913 48.561895,2.3249127 C 48.197201,2.1025457 47.816912,1.8990466 47.418078,1.7209321 C 46.871678,2.172084 46.367849,3.021358 45.648457,2.796122 C 44.930555,2.5713515 45.159188,1.6396572 45.070562,0.98938612 C 44.639476,0.90677989 44.197397,0.84882574 43.747088,0.8175642 z M 42.959592,4.1212349 C 46.238835,4.1212349 48.900249,6.4351891 48.900249,9.2863103 C 48.900249,12.137434 46.238835,14.451388 42.959592,14.451388 C 39.68035,14.451388 37.018936,12.137434 37.018936,9.2863103 C 37.018936,6.4351891 39.68035,4.1212349 42.959592,4.1212349 z "
       style="opacity:1;color:#000000;fill:url(#radialGradient5713);fill-opacity:1;fill-rule:nonzero;stroke:none;stroke-width:0.30000001;stroke-linecap:butt;stroke-linejoin:miter;marker:none;marker-start:none;marker-mid:none;marker-end:none;stroke-miterlimit:10;stroke-dasharray:none;stroke-dashoffset:0;stroke-opacity:1;visibility:visible;display:block;overflow:visible;enable-background:accumulate" />
    <path
       style="opacity:1;color:#000000;fill:#6f6f6f;fill-opacity:1;fill-rule:evenodd;stroke:none;stroke-width:1px;stroke-linecap:butt;stroke-linejoin:miter;marker:none;marker-start:none;marker-mid:none;marker-end:none;stroke-miterlimit:4;stroke-dasharray:none;stroke-dashoffset:0;stroke-opacity:1;visibility:visible;display:inline;overflow:visible;enable-background:accumulate"
       d="M 52.708976,10.008479 L 52.708976,12.763413 L 52.493387,13.91353 L 52.493387,11.131849 L 52.708976,10.008479 z "
       id="path5719" />
    <path
       style="opacity:1;color:#000000;fill:url(#linearGradient5903);fill-opacity:1;fill-rule:evenodd;stroke:none;stroke-width:1px;stroke-linecap:butt;stroke-linejoin:miter;marker:none;marker-start:none;marker-mid:none;marker-end:none;stroke-miterlimit:4;stroke-dasharray:none;stroke-dashoffset:0;stroke-opacity:1;visibility:visible;display:inline;overflow:visible;enable-background:accumulate"
       d="M 40.90214,17.087926 C 41.337117,17.155225 41.715617,17.235816 42.181078,17.235034 L 42.169103,20.043462 C 41.748378,20.001638 41.354744,19.947026 40.90214,19.869608 L 40.90214,17.087926 z "
       id="path5895"
       sodipodi:nodetypes="ccccc" />
    <path
       style="opacity:1;color:#000000;fill:url(#linearGradient5984);fill-opacity:1;fill-rule:evenodd;stroke:none;stroke-width:1px;stroke-linecap:butt;stroke-linejoin:miter;marker:none;marker-start:none;marker-mid:none;marker-end:none;stroke-miterlimit:4;stroke-dasharray:none;stroke-dashoffset:0;stroke-opacity:1;visibility:visible;display:inline;overflow:visible;enable-background:accumulate"
       d="M 38.480146,16.298891 L 38.480146,19.10732 L 37.306387,18.49214 L 37.37825,15.710459 L 38.480146,16.298891 z "
       id="path5958" />
    <path
       style="opacity:1;color:#000000;fill:url(#linearGradient5976);fill-opacity:1;fill-rule:evenodd;stroke:none;stroke-width:1px;stroke-linecap:butt;stroke-linejoin:miter;marker:none;marker-start:none;marker-mid:none;marker-end:none;stroke-miterlimit:4;stroke-dasharray:none;stroke-dashoffset:0;stroke-opacity:1;visibility:visible;display:inline;overflow:visible;enable-background:accumulate"
       d="M 35.509818,14.769432 L 35.533772,17.551113 C 35.270275,17.391417 34.982824,17.085616 34.719327,16.641719 L 34.719327,13.860037 C 34.982824,14.223854 35.246321,14.547626 35.509818,14.769432 z "
       id="path5960"
       sodipodi:nodetypes="ccccc" />
    <path
       style="opacity:1;color:#000000;fill:#ffffff;fill-opacity:1;fill-rule:evenodd;stroke:none;stroke-width:1px;stroke-linecap:butt;stroke-linejoin:miter;marker:none;marker-start:none;marker-mid:none;marker-end:none;stroke-miterlimit:4;stroke-dasharray:none;stroke-dashoffset:0;stroke-opacity:1;visibility:visible;display:inline;overflow:visible;enable-background:accumulate"
       d="M 33.66534,14.689192 L 33.629409,11.813897 C 33.533592,11.556988 33.425798,11.196352 33.329981,10.797514 L 33.329981,13.565821 C 33.395024,14.061191 33.537126,14.405427 33.66534,14.689192 z "
       id="path5962"
       sodipodi:nodetypes="ccccc" />
    <path
       style="opacity:0.83428572;color:#000000;fill:none;fill-opacity:1;fill-rule:nonzero;stroke:url(#linearGradient5759);stroke-width:0.99999994;stroke-linecap:butt;stroke-linejoin:miter;marker:none;marker-start:none;marker-mid:none;marker-end:none;stroke-miterlimit:10;stroke-dasharray:none;stroke-dashoffset:0;stroke-opacity:1;visibility:visible;display:block;overflow:visible;enable-background:accumulate"
       d="M 43.768061,0.71331606 C 43.471717,1.3069313 43.377419,2.2460222 42.634951,2.2769083 C 41.891172,2.3078491 41.700608,1.3774741 41.341223,0.81136297 C 40.9076,0.8786228 40.485152,0.97279468 40.073778,1.0900232 C 40.055518,1.7389828 40.379922,2.6391679 39.705809,2.9193742 C 39.031557,3.1996396 38.452383,2.4046365 37.874731,2.0034085 C 37.506938,2.2111017 37.157428,2.443296 36.826314,2.6923181 C 37.091864,3.2972018 37.776334,4.0179259 37.276053,4.5036079 C 36.775127,4.989916 35.897929,4.455178 35.1909,4.2791316 C 34.941455,4.5933896 34.713176,4.9210874 34.513372,5.2647621 C 35.019461,5.7355993 35.972153,6.169749 35.719489,6.7896502 C 35.467349,7.4082711 34.4222,7.2112566 33.692745,7.2876276 C 33.600079,7.659096 33.535068,8.0400365 33.5,8.4280686 C 34.171883,8.6898914 35.234792,8.7732057 35.269751,9.4291807 C 35.304771,10.086316 34.251727,10.254682 33.610974,10.572203 C 33.687102,10.955313 33.793691,11.32855 33.926376,11.692003 C 34.6609,11.708137 35.679774,11.421521 35.996926,12.017106 C 36.314143,12.612816 35.41432,13.124523 34.96019,13.634882 C 35.195268,13.959832 35.458076,14.268627 35.739932,14.561169 C 36.424569,14.326552 37.24032,13.721818 37.790039,14.163819 C 38.340468,14.606393 37.735222,15.381406 37.535966,16.006072 C 37.891659,16.226461 38.262562,16.428148 38.651552,16.604675 C 39.184467,16.157541 39.675862,15.315829 40.377497,15.53906 C 41.077683,15.761828 40.854692,16.685228 40.941131,17.329707 C 41.361577,17.411579 41.792745,17.469016 42.231941,17.499999 C 42.528284,16.906384 42.622581,15.967293 43.365047,15.936407 C 44.108827,15.905467 44.29939,16.835843 44.658776,17.401952 C 45.0924,17.334693 45.514847,17.24052 45.926221,17.123293 C 45.944482,16.474332 45.620077,15.574148 46.29419,15.293942 C 46.968441,15.013678 47.547617,15.80868 48.125268,16.209908 C 48.493061,16.002215 48.842572,15.77002 49.173685,15.520999 C 48.908136,14.916116 48.223667,14.19539 48.723946,13.709707 C 49.224873,13.223399 50.102069,13.75814 50.809099,13.934185 C 51.058544,13.619926 51.286823,13.29223 51.486627,12.948553 C 50.980538,12.477718 50.027846,12.043565 50.28051,11.423664 C 50.53265,10.805044 51.577799,11.002058 52.307254,10.925688 C 52.399919,10.554221 52.46493,10.173278 52.5,9.7852462 C 51.828117,9.5234244 50.765206,9.4401101 50.730249,8.784135 C 50.695228,8.1269975 51.748273,7.9586334 52.389024,7.6411112 C 52.312897,7.2580029 52.206309,6.8847643 52.073623,6.5213112 C 51.339098,6.5051791 50.320226,6.7917924 50.003073,6.1962097 C 49.685855,5.600502 50.58568,5.0887951 51.039809,4.5784328 C 50.804732,4.2534849 50.541923,3.9446899 50.260067,3.6521476 C 49.575432,3.8867631 48.759679,4.4914978 48.209959,4.0494957 C 47.659532,3.6069224 48.264778,2.8319096 48.464034,2.2072431 C 48.108339,1.986856 47.737436,1.7851689 47.348446,1.6086403 C 46.815532,2.0557753 46.324138,2.8974874 45.622502,2.6742567 C 44.922316,2.4514878 45.145307,1.528089 45.058868,0.883608 C 44.638424,0.80173734 44.207253,0.74429924 43.768061,0.71331606 z "
       id="path5743" />
    <path
       style="opacity:1;color:#000000;fill:none;fill-opacity:1;fill-rule:nonzero;stroke:url(#linearGradient5751);stroke-width:0.99999988;stroke-linecap:butt;stroke-linejoin:miter;marker:none;marker-start:none;marker-mid:none;marker-end:none;stroke-miterlimit:10;stroke-dasharray:none;stroke-dashoffset:0;stroke-opacity:1;visibility:visible;display:block;overflow:visible;enable-background:accumulate"
       d="M 42.959592,3.7829651 C 46.451222,3.7829651 49.285007,6.2484641 49.285007,9.2863119 C 49.285007,12.32416 46.451222,14.789659 42.959592,14.789659 C 39.467963,14.789659 36.634177,12.32416 36.634177,9.2863119 C 36.634177,6.2484641 39.467963,3.7829651 42.959592,3.7829651 z "
       id="path5739" />
    <path
       style="opacity:1;color:#000000;fill:url(#linearGradient5779);fill-opacity:1;fill-rule:nonzero;stroke:#888a85;stroke-width:1;stroke-linecap:butt;stroke-linejoin:miter;marker:none;marker-start:none;marker-mid:none;marker-end:none;stroke-miterlimit:10;stroke-dasharray:none;stroke-dashoffset:0;stroke-opacity:1;visibility:visible;display:block;overflow:visible;enable-background:accumulate"
       d="M 10.8125,0.5 C 9.7516847,0.51744441 10.255778,2.5571859 9.21875,2.78125 C 8.1817212,3.005314 7.7858898,0.95292703 6.8125,1.375 C 5.8391102,1.797073 7.0910943,3.4898882 6.21875,4.09375 C 5.3464059,4.6976119 4.2065247,2.9250552 3.46875,3.6875 C 2.7309754,4.4499447 4.5123529,5.5457728 3.9375,6.4375 C 3.3626471,7.3292273 1.60859,6.1695087 1.21875,7.15625 C 0.8289101,8.1429912 2.9085955,8.4561647 2.71875,9.5 C 2.5289044,10.543835 0.4825556,10.126685 0.5,11.1875 C 0.51744441,12.248315 2.5571859,11.744221 2.78125,12.78125 C 3.005314,13.818279 0.95292699,14.21411 1.375,15.1875 C 1.797073,16.16089 3.4898881,14.908906 4.09375,15.78125 C 4.6976119,16.653594 2.9250553,17.793476 3.6875,18.53125 C 4.4499447,19.269025 5.5457727,17.487646 6.4375,18.0625 C 7.3292273,18.637353 6.169509,20.391411 7.15625,20.78125 C 8.1429912,21.17109 8.4561651,19.091404 9.5,19.28125 C 10.543835,19.471096 10.126684,21.517445 11.1875,21.5 C 12.248315,21.482556 11.744221,19.442815 12.78125,19.21875 C 13.818279,18.994686 14.214111,21.047073 15.1875,20.625 C 16.16089,20.202927 14.908906,18.510111 15.78125,17.90625 C 16.653594,17.302388 17.793476,19.074945 18.53125,18.3125 C 19.269025,17.550055 17.487648,16.454227 18.0625,15.5625 C 18.637353,14.670773 20.39141,15.830491 20.78125,14.84375 C 21.17109,13.857009 19.091404,13.543835 19.28125,12.5 C 19.471096,11.456165 21.517444,11.873315 21.5,10.8125 C 21.482556,9.7516847 19.442814,10.255779 19.21875,9.21875 C 18.994686,8.1817212 21.047073,7.7858899 20.625,6.8125 C 20.202927,5.8391102 18.510113,7.0910939 17.90625,6.21875 C 17.302388,5.3464059 19.074944,4.2065246 18.3125,3.46875 C 17.550055,2.7309754 16.454228,4.5123528 15.5625,3.9375 C 14.670773,3.3626471 15.830491,1.6085899 14.84375,1.21875 C 13.857009,0.8289101 13.543835,2.9085956 12.5,2.71875 C 11.456165,2.5289044 11.873315,0.48255558 10.8125,0.5 z M 11,5.5 C 14.036,5.5 16.5,7.964 16.5,11 C 16.5,14.036 14.036,16.5 11,16.5 C 7.964,16.5 5.5,14.036 5.5,11 C 5.5,7.964 7.964,5.5 11,5.5 z "
       id="path5665" />
    <path
       sodipodi:type="arc"
       style="opacity:1;color:#000000;fill:none;fill-opacity:1;fill-rule:nonzero;stroke:url(#linearGradient5775);stroke-width:1;stroke-linecap:butt;stroke-linejoin:miter;marker:none;marker-start:none;marker-mid:none;marker-end:none;stroke-miterlimit:10;stroke-dasharray:none;stroke-dashoffset:0;stroke-opacity:1;visibility:visible;display:block;overflow:visible;enable-background:accumulate"
       id="path5767"
       sodipodi:cx="10.783379"
       sodipodi:cy="10.863069"
       sodipodi:rx="6.5407376"
       sodipodi:ry="6.5407376"
       d="M 17.324116 10.863069 A 6.5407376 6.5407376 0 1 1  4.242641,10.863069 A 6.5407376 6.5407376 0 1 1  17.324116 10.863069 z"
       transform="translate(8.8388348e-2,8.8388348e-2)" />
    <path
       sodipodi:type="inkscape:offset"
       inkscape:radius="-1.0570278"
       inkscape:original="M 10.8125 0.5 C 9.7516847 0.51744441 10.255778 2.5571859 9.21875 2.78125 C 8.1817212 3.005314 7.7858898 0.95292703 6.8125 1.375 C 5.8391102 1.797073 7.0910943 3.4898882 6.21875 4.09375 C 5.3464059 4.6976119 4.2065247 2.9250552 3.46875 3.6875 C 2.7309754 4.4499447 4.5123529 5.5457728 3.9375 6.4375 C 3.3626471 7.3292273 1.60859 6.1695087 1.21875 7.15625 C 0.8289101 8.1429912 2.9085955 8.4561647 2.71875 9.5 C 2.5289044 10.543835 0.4825556 10.126685 0.5 11.1875 C 0.51744441 12.248315 2.5571859 11.744221 2.78125 12.78125 C 3.005314 13.818279 0.95292699 14.21411 1.375 15.1875 C 1.797073 16.16089 3.4898881 14.908906 4.09375 15.78125 C 4.6976119 16.653594 2.9250553 17.793476 3.6875 18.53125 C 4.4499447 19.269025 5.5457727 17.487646 6.4375 18.0625 C 7.3292273 18.637353 6.169509 20.391411 7.15625 20.78125 C 8.1429912 21.17109 8.4561651 19.091404 9.5 19.28125 C 10.543835 19.471096 10.126684 21.517445 11.1875 21.5 C 12.248315 21.482556 11.744221 19.442815 12.78125 19.21875 C 13.818279 18.994686 14.214111 21.047073 15.1875 20.625 C 16.16089 20.202927 14.908906 18.510111 15.78125 17.90625 C 16.653594 17.302388 17.793476 19.074945 18.53125 18.3125 C 19.269025 17.550055 17.487648 16.454227 18.0625 15.5625 C 18.637353 14.670773 20.39141 15.830491 20.78125 14.84375 C 21.17109 13.857009 19.091404 13.543835 19.28125 12.5 C 19.471096 11.456165 21.517444 11.873315 21.5 10.8125 C 21.482556 9.7516847 19.442814 10.255779 19.21875 9.21875 C 18.994686 8.1817212 21.047073 7.7858899 20.625 6.8125 C 20.202927 5.8391102 18.510113 7.0910939 17.90625 6.21875 C 17.302388 5.3464059 19.074944 4.2065246 18.3125 3.46875 C 17.550055 2.7309754 16.454228 4.5123528 15.5625 3.9375 C 14.670773 3.3626471 15.830491 1.6085899 14.84375 1.21875 C 13.857009 0.8289101 13.543835 2.9085956 12.5 2.71875 C 11.456165 2.5289044 11.873315 0.48255558 10.8125 0.5 z M 11 5.5 C 14.036 5.5 16.5 7.964 16.5 11 C 16.5 14.036 14.036 16.5 11 16.5 C 7.964 16.5 5.5 14.036 5.5 11 C 5.5 7.964 7.964 5.5 11 5.5 z "
       xlink:href="#path5665"
       style="opacity:1;color:#000000;fill:none;fill-opacity:1;fill-rule:nonzero;stroke:url(#linearGradient5787);stroke-width:1;stroke-linecap:butt;stroke-linejoin:miter;marker:none;marker-start:none;marker-mid:none;marker-end:none;stroke-miterlimit:10;stroke-dasharray:none;stroke-dashoffset:0;stroke-opacity:1;visibility:visible;display:block;overflow:visible;enable-background:accumulate"
       id="path5777"
       inkscape:href="#path5665"
       d="M 10.84375,2.34375 C 10.794368,2.5019025 10.781638,2.6301844 10.6875,2.8125 C 10.486028,3.2026895 10.037627,3.6828343 9.4375,3.8125 C 8.8390777,3.9417972 8.2518588,3.7066387 7.90625,3.4375 C 7.7511433,3.3167125 7.6706959,3.2119036 7.5625,3.09375 C 7.5759468,3.2516595 7.6095973,3.3691607 7.59375,3.5625 C 7.557846,4.0005343 7.3179063,4.6188932 6.8125,4.96875 C 6.3068534,5.3187732 5.6413972,5.3090807 5.21875,5.1875 C 5.0359628,5.1349186 4.9532775,5.0670663 4.8125,5 C 4.8847521,5.142718 4.9417715,5.2502283 5,5.4375 C 5.1300587,5.8557884 5.1443375,6.4852449 4.8125,7 C 4.479614,7.5163817 3.9033337,7.7882657 3.46875,7.84375 C 3.251646,7.8714682 3.1123195,7.8529346 2.9375,7.84375 C 3.0652879,7.9500167 3.1794012,7.9990357 3.3125,8.15625 C 3.5963589,8.4915398 3.8599217,9.0831132 3.75,9.6875 C 3.6405,10.289568 3.1930294,10.752122 2.8125,10.96875 C 2.6275731,11.074025 2.5045471,11.099452 2.34375,11.15625 C 2.5019025,11.205632 2.6301843,11.218362 2.8125,11.3125 C 3.2026897,11.513972 3.6828345,11.962373 3.8125,12.5625 C 3.9417971,13.160922 3.7066387,13.748141 3.4375,14.09375 C 3.3167125,14.248857 3.2119036,14.329304 3.09375,14.4375 C 3.2516595,14.424053 3.3691608,14.390403 3.5625,14.40625 C 4.0005342,14.442154 4.6188931,14.682094 4.96875,15.1875 C 5.3187733,15.693147 5.3090807,16.358603 5.1875,16.78125 C 5.1349186,16.964037 5.0670663,17.046722 5,17.1875 C 5.1427181,17.115248 5.2502281,17.058229 5.4375,17 C 5.8557887,16.869941 6.485245,16.855662 7,17.1875 C 7.5163818,17.520386 7.7882656,18.096666 7.84375,18.53125 C 7.8714682,18.748354 7.8529346,18.887681 7.84375,19.0625 C 7.9500167,18.934712 7.9990357,18.820599 8.15625,18.6875 C 8.4915398,18.403641 9.0831131,18.140078 9.6875,18.25 C 10.289568,18.3595 10.752122,18.806971 10.96875,19.1875 C 11.074025,19.372427 11.099452,19.495453 11.15625,19.65625 C 11.205632,19.498097 11.218362,19.369816 11.3125,19.1875 C 11.513972,18.79731 11.962373,18.317166 12.5625,18.1875 C 13.160922,18.058203 13.748141,18.293361 14.09375,18.5625 C 14.248857,18.683287 14.329304,18.788096 14.4375,18.90625 C 14.424053,18.74834 14.390403,18.630839 14.40625,18.4375 C 14.442154,17.999466 14.682093,17.381107 15.1875,17.03125 C 15.693147,16.681227 16.358603,16.690919 16.78125,16.8125 C 16.964037,16.865081 17.046722,16.932934 17.1875,17 C 17.115248,16.857282 17.058229,16.749772 17,16.5625 C 16.869941,16.144212 16.855663,15.514755 17.1875,15 C 17.520386,14.483618 18.096666,14.211734 18.53125,14.15625 C 18.748354,14.128532 18.887681,14.147065 19.0625,14.15625 C 18.934712,14.049983 18.820599,14.000964 18.6875,13.84375 C 18.403641,13.50846 18.140078,12.916887 18.25,12.3125 C 18.3595,11.710432 18.806971,11.247878 19.1875,11.03125 C 19.372427,10.925975 19.495453,10.900548 19.65625,10.84375 C 19.498097,10.794368 19.369816,10.781638 19.1875,10.6875 C 18.79731,10.486028 18.317166,10.037627 18.1875,9.4375 C 18.058203,8.8390777 18.293361,8.2518588 18.5625,7.90625 C 18.683287,7.7511433 18.788096,7.6706959 18.90625,7.5625 C 18.74834,7.5759468 18.630839,7.6095973 18.4375,7.59375 C 17.999466,7.557846 17.381107,7.3179057 17.03125,6.8125 C 16.681227,6.3068535 16.690919,5.6413973 16.8125,5.21875 C 16.865081,5.0359628 16.932934,4.9532776 17,4.8125 C 16.857282,4.8847521 16.749772,4.9417715 16.5625,5 C 16.144212,5.1300587 15.514755,5.1443371 15,4.8125 C 14.483618,4.4796139 14.211734,3.9033336 14.15625,3.46875 C 14.128532,3.251646 14.147065,3.1123194 14.15625,2.9375 C 14.049983,3.0652879 14.000964,3.1794012 13.84375,3.3125 C 13.50846,3.5963588 12.916887,3.8599218 12.3125,3.75 C 11.710432,3.6405 11.247878,3.1930294 11.03125,2.8125 C 10.925975,2.6275731 10.900548,2.5045471 10.84375,2.34375 z M 11,4.4375 C 14.607918,4.4375 17.5625,7.3920816 17.5625,11 C 17.5625,14.607918 14.607918,17.5625 11,17.5625 C 7.3920816,17.5625 4.4375,14.607918 4.4375,11 C 4.4375,7.3920816 7.3920816,4.4375 11,4.4375 z " />
  </g>
</svg>
