<?xml version="1.0" encoding="UTF-8" standalone="no"?>
<!-- Created with Inkscape (http://www.inkscape.org/) -->
<svg
   xmlns:dc="http://purl.org/dc/elements/1.1/"
   xmlns:cc="http://web.resource.org/cc/"
   xmlns:rdf="http://www.w3.org/1999/02/22-rdf-syntax-ns#"
   xmlns:svg="http://www.w3.org/2000/svg"
   xmlns="http://www.w3.org/2000/svg"
   xmlns:xlink="http://www.w3.org/1999/xlink"
   xmlns:sodipodi="http://sodipodi.sourceforge.net/DTD/sodipodi-0.dtd"
   xmlns:inkscape="http://www.inkscape.org/namespaces/inkscape"
   width="16"
   height="16"
   id="svg18269"
   sodipodi:version="0.32"
   inkscape:version="0.45"
   version="1.0"
   sodipodi:docbase="/home/dobey/Projects/gnome-icon-theme/16x16/mimetypes"
   sodipodi:docname="application-certificate.svg"
   inkscape:output_extension="org.inkscape.output.svg.inkscape">
  <sodipodi:namedview
     inkscape:window-height="771"
     inkscape:window-width="872"
     inkscape:pageshadow="2"
     inkscape:pageopacity="0.0"
     guidetolerance="10.0"
     gridtolerance="10.0"
     objecttolerance="10.0"
     borderopacity="1"
     bordercolor="#ebebeb"
     pagecolor="#ffffff"
     id="base"
     borderlayer="true"
     inkscape:showpageshadow="false"
     showgrid="false"
     width="16px"
     height="16px"
     inkscape:zoom="1"
     inkscape:cx="13.052441"
     inkscape:cy="3.9536024"
     inkscape:window-x="2269"
     inkscape:window-y="228"
     inkscape:current-layer="layer1" />
  <defs
     id="defs18271">
    <linearGradient
       inkscape:collect="always"
       id="linearGradient5715">
      <stop
         style="stop-color:#fdcd12;stop-opacity:1;"
         offset="0"
         id="stop5717" />
      <stop
         style="stop-color:#bd9600;stop-opacity:1"
         offset="1"
         id="stop5719" />
    </linearGradient>
    <linearGradient
       id="linearGradient5635">
      <stop
         style="stop-color:#ffffff;stop-opacity:1;"
         offset="0"
         id="stop5637" />
      <stop
         style="stop-color:#ededed;stop-opacity:1;"
         offset="1"
         id="stop5639" />
    </linearGradient>
    <linearGradient
       inkscape:collect="always"
       id="linearGradient5584">
      <stop
         style="stop-color:#ffffff;stop-opacity:1;"
         offset="0"
         id="stop5586" />
      <stop
         style="stop-color:#ffffff;stop-opacity:0;"
         offset="1"
         id="stop5588" />
    </linearGradient>
    <linearGradient
       id="linearGradient9590">
      <stop
         style="stop-color:#bfbfbf;stop-opacity:1;"
         offset="0"
         id="stop9592" />
      <stop
         style="stop-color:#f8f8f8;stop-opacity:1;"
         offset="1"
         id="stop9594" />
    </linearGradient>
    <linearGradient
       inkscape:collect="always"
       xlink:href="#linearGradient9590"
       id="linearGradient1356"
       gradientUnits="userSpaceOnUse"
       gradientTransform="matrix(3.1808632e-2,0,0,3.7491858e-2,23.934212,85.74588)"
       x1="-543.28723"
       y1="-2279.0508"
       x2="-500.66992"
       y2="-1917.6714" />
    <linearGradient
       inkscape:collect="always"
       xlink:href="#linearGradient5584"
       id="linearGradient5590"
       x1="25.980804"
       y1="2.4864533"
       x2="26.085234"
       y2="42.614761"
       gradientUnits="userSpaceOnUse"
       gradientTransform="matrix(0.3170692,0,0,0.3638057,0.3903103,-0.8648225)" />
    <linearGradient
       inkscape:collect="always"
       xlink:href="#linearGradient5635"
       id="linearGradient5641"
       x1="22.5"
       y1="23"
       x2="20.75"
       y2="3.5"
       gradientUnits="userSpaceOnUse"
       gradientTransform="matrix(0.2777777,0,0,0.350436,1.3333332,-0.1539239)" />
    <linearGradient
       inkscape:collect="always"
       xlink:href="#linearGradient5715"
       id="linearGradient5721"
       x1="-2093.4902"
       y1="-1592.3221"
       x2="-2050.6555"
       y2="-1414.5605"
       gradientUnits="userSpaceOnUse" />
  </defs>
  <sodipodi:namedview
     id="namedview9"
     pagecolor="#ffffff"
     bordercolor="#666666"
     borderopacity="1.0"
     inkscape:pageopacity="0.0"
     inkscape:pageshadow="2"
     inkscape:zoom="7.9999999"
     inkscape:cx="44.95067"
     inkscape:cy="11.390847"
     inkscape:document-units="px"
     inkscape:current-layer="layer1"
     inkscape:window-width="1264"
     inkscape:window-height="945"
     inkscape:window-x="6"
     inkscape:window-y="25"
     showgrid="false"
     stroke="#888a85"
     fill="#729fcf"
     showguides="true"
     inkscape:guide-bbox="true" />
  <metadata
     id="metadata18274">
    <rdf:RDF>
      <cc:Work
         rdf:about="">
        <dc:format>image/svg+xml</dc:format>
        <dc:type
           rdf:resource="http://purl.org/dc/dcmitype/StillImage" />
        <dc:title>Certificate</dc:title>
        <dc:date>May 2006</dc:date>
        <dc:creator>
          <cc:Agent>
            <dc:title>Máirín Duffy</dc:title>
          </cc:Agent>
        </dc:creator>
        <cc:license
           rdf:resource="http://creativecommons.org/licenses/GPL/2.0/" />
        <dc:contributor>
          <cc:Agent>
            <dc:title>Andreas Nilsson
Jakub Steiner</dc:title>
          </cc:Agent>
        </dc:contributor>
        <dc:subject>
          <rdf:Bag>
            <rdf:li>certificate</rdf:li>
          </rdf:Bag>
        </dc:subject>
        <dc:source>http://www.redhat.com</dc:source>
      </cc:Work>
      <cc:License
         rdf:about="http://creativecommons.org/licenses/GPL/2.0/">
        <cc:permits
           rdf:resource="http://web.resource.org/cc/Reproduction" />
        <cc:permits
           rdf:resource="http://web.resource.org/cc/Distribution" />
        <cc:requires
           rdf:resource="http://web.resource.org/cc/Notice" />
        <cc:permits
           rdf:resource="http://web.resource.org/cc/DerivativeWorks" />
        <cc:requires
           rdf:resource="http://web.resource.org/cc/ShareAlike" />
        <cc:requires
           rdf:resource="http://web.resource.org/cc/SourceCode" />
      </cc:License>
    </rdf:RDF>
  </metadata>
  <g
     inkscape:label="Layer 1"
     inkscape:groupmode="layer"
     id="layer1">
    <rect
       ry="0.31046632"
       y="0.49999988"
       x="0.51717508"
       height="14.000001"
       width="14.982825"
       id="rect1324"
       style="color:#000000;fill:url(#linearGradient1356);fill-opacity:1;fill-rule:nonzero;stroke:#888a85;stroke-width:0.99999982;stroke-linecap:square;stroke-linejoin:miter;marker:none;marker-start:none;marker-mid:none;marker-end:none;stroke-miterlimit:4;stroke-dasharray:none;stroke-dashoffset:0;stroke-opacity:1;visibility:visible;display:inline;overflow:visible"
       rx="0.2705794" />
    <rect
       ry="0"
       y="1.5000002"
       x="1.5000002"
       height="12"
       width="13"
       id="rect2231"
       style="opacity:0.69714284;color:#000000;fill:none;fill-opacity:1;fill-rule:nonzero;stroke:url(#linearGradient5590);stroke-width:1.00000048;stroke-linecap:butt;stroke-linejoin:miter;marker:none;marker-start:none;marker-mid:none;marker-end:none;stroke-miterlimit:4;stroke-dasharray:none;stroke-dashoffset:0;stroke-opacity:1;visibility:visible;display:inline;overflow:visible"
       rx="0" />
    <path
       style="opacity:0.3028571;color:#000000;fill:#555753;fill-opacity:1;fill-rule:evenodd;stroke:none;stroke-width:1;stroke-linecap:round;stroke-linejoin:round;marker:none;marker-start:none;marker-mid:none;marker-end:none;stroke-miterlimit:10;stroke-dasharray:none;stroke-dashoffset:0;stroke-opacity:1;visibility:visible;display:inline;overflow:visible;enable-background:accumulate"
       d="M 2.4907745,1.7070678 C 2.0576238,1.7070678 1.7080228,2.1182526 1.7080228,2.6277051 C 1.7080228,2.9288873 1.8356853,3.1940474 2.0250867,3.3618843 C 1.8310876,3.5318789 1.7080228,3.801515 1.7080228,4.1077175 C 1.7080228,4.4139191 1.8310876,4.6835552 2.0250867,4.8535498 C 1.8310876,5.0235444 1.7080228,5.2931812 1.7080228,5.599383 C 1.7080228,5.9055846 1.8310876,6.1752208 2.0250867,6.345216 C 1.8310876,6.51521 1.7080228,6.7848467 1.7080228,7.0910484 C 1.7080228,7.3972502 1.8310876,7.6668862 2.0250867,7.8368809 C 1.8310876,8.0068761 1.7080228,8.2765125 1.7080228,8.5827138 C 1.7080228,8.888915 1.8310876,9.1585518 2.0250867,9.3285469 C 1.8310876,9.4985412 1.7080228,9.768178 1.7080228,10.074379 C 1.7080228,10.380581 1.8310876,10.650217 2.0250867,10.820212 C 1.8310876,10.990207 1.7080228,11.259843 1.7080228,11.566045 C 1.7080228,11.774467 1.7681743,11.970108 1.8665548,12.12542 C 1.7651685,12.280622 1.7080228,12.473392 1.7080228,12.684794 C 1.7080228,13.194247 2.057624,13.605432 2.4907745,13.605432 C 2.7441854,13.605432 2.9715005,13.463632 3.1149942,13.244169 C 3.2586506,13.460352 3.4781136,13.605432 3.7293056,13.605432 C 3.9804977,13.605432 4.1999608,13.460352 4.3436171,13.244169 C 4.4871108,13.463633 4.714426,13.605432 4.9678371,13.605432 C 5.2212478,13.605432 5.4485627,13.463632 5.5920567,13.244169 C 5.7357126,13.460352 5.9551763,13.605432 6.2063678,13.605432 C 6.4590388,13.605432 6.6771274,13.462538 6.8206791,13.244169 C 6.964173,13.463633 7.1914875,13.605432 7.4448991,13.605432 C 7.6975699,13.605432 7.9156594,13.462538 8.0592105,13.244169 C 8.2027617,13.462538 8.4208511,13.605432 8.6735212,13.605432 C 8.9269328,13.605432 9.1542482,13.463632 9.2977414,13.244169 C 9.4412925,13.462538 9.6593812,13.605432 9.9120528,13.605432 C 10.165464,13.605432 10.392778,13.463632 10.536272,13.244169 C 10.679824,13.462538 10.897914,13.605432 11.150584,13.605432 C 11.403995,13.605432 11.63131,13.463632 11.774804,13.244169 C 11.91846,13.460352 12.137922,13.605432 12.389115,13.605432 C 12.640307,13.605432 12.85977,13.460352 13.003426,13.244169 C 13.14692,13.463633 13.374235,13.605432 13.627646,13.605432 C 14.060796,13.605432 14.410398,13.194246 14.410398,12.684794 C 14.410398,12.467651 14.348381,12.270975 14.241958,12.113767 C 14.335244,11.960864 14.390582,11.768464 14.390582,11.566045 C 14.390582,11.259843 14.267516,10.990207 14.073517,10.820212 C 14.267516,10.650217 14.390582,10.380581 14.390582,10.074379 C 14.390582,9.768178 14.267516,9.4985412 14.073517,9.3285469 C 14.267516,9.1585518 14.390582,8.888915 14.390582,8.5827138 C 14.390582,8.2765125 14.267516,8.0068761 14.073517,7.8368809 C 14.267516,7.6668862 14.390582,7.3972502 14.390582,7.0910484 C 14.390582,6.7848467 14.267516,6.51521 14.073517,6.345216 C 14.267516,6.1752208 14.390582,5.9055846 14.390582,5.599383 C 14.390582,5.2931812 14.267516,5.0235444 14.073517,4.8535498 C 14.267516,4.6835552 14.390582,4.4139191 14.390582,4.1077175 C 14.390582,3.807519 14.270975,3.5440912 14.083425,3.3735381 C 14.279029,3.2063727 14.410398,2.9346291 14.410398,2.6277051 C 14.410398,2.1182527 14.060796,1.7070678 13.627646,1.7070678 C 13.374235,1.7070678 13.14692,1.8488666 13.003426,2.0683306 C 12.85977,1.8521463 12.640307,1.7070678 12.389115,1.7070678 C 12.137923,1.7070678 11.91846,1.8521463 11.774804,2.0683306 C 11.63131,1.8488666 11.403995,1.7070678 11.150584,1.7070678 C 10.897914,1.7070678 10.679824,1.8499614 10.536272,2.0683306 C 10.392779,1.8488666 10.165464,1.7070678 9.9120528,1.7070678 C 9.6593812,1.7070678 9.4412925,1.8499614 9.2977414,2.0683306 C 9.1542482,1.8488666 8.9269328,1.7070678 8.6735212,1.7070678 C 8.4208511,1.7070678 8.2027617,1.8499614 8.0592105,2.0683306 C 7.9156594,1.8499614 7.6975699,1.7070678 7.4448991,1.7070678 C 7.1914875,1.7070678 6.964173,1.8488666 6.8206791,2.0683306 C 6.6771274,1.8499614 6.4590388,1.7070678 6.2063678,1.7070678 C 5.9551763,1.7070678 5.7357126,1.8521463 5.5920567,2.0683306 C 5.4485627,1.8488666 5.2212478,1.7070678 4.9678371,1.7070678 C 4.714426,1.7070678 4.4871108,1.8488666 4.3436171,2.0683306 C 4.1999608,1.8521463 3.9804975,1.7070678 3.7293056,1.7070678 C 3.4781136,1.7070678 3.2586506,1.8521463 3.1149942,2.0683306 C 2.9715005,1.8488666 2.7441854,1.7070678 2.4907745,1.7070678 z M 3.1149942,3.1870795 C 3.2586506,3.4032642 3.4781136,3.5483422 3.7293056,3.5483422 C 3.9804977,3.5483422 4.1999608,3.4032642 4.3436171,3.1870795 C 4.4871108,3.4065434 4.714426,3.5483422 4.9678371,3.5483422 C 5.2212478,3.5483422 5.4485627,3.4065434 5.5920567,3.1870795 C 5.7357126,3.4032642 5.9551763,3.5483422 6.2063678,3.5483422 C 6.4590388,3.5483422 6.6771274,3.4054489 6.8206791,3.1870795 C 6.964173,3.4065434 7.1914875,3.5483422 7.4448991,3.5483422 C 7.6975699,3.5483422 7.9156594,3.4054489 8.0592105,3.1870795 C 8.2027617,3.4054489 8.4208511,3.5483422 8.6735212,3.5483422 C 8.9269328,3.5483422 9.1542482,3.4065434 9.2977414,3.1870795 C 9.4412925,3.4054489 9.6593812,3.5483422 9.9120528,3.5483422 C 10.165464,3.5483422 10.392778,3.4065434 10.536272,3.1870795 C 10.679824,3.4054489 10.897914,3.5483422 11.150584,3.5483422 C 11.403995,3.5483422 11.63131,3.4065434 11.774804,3.1870795 C 11.91846,3.4032642 12.137922,3.5483422 12.389115,3.5483422 C 12.640307,3.5483422 12.85977,3.4032642 13.003426,3.1870795 C 13.043716,3.2486985 13.089916,3.3022761 13.142142,3.3502305 C 12.937883,3.5189255 12.805261,3.7920802 12.805261,4.1077175 C 12.805261,4.4139191 12.928326,4.6835552 13.122326,4.8535498 C 12.928326,5.0235444 12.805261,5.2931812 12.805261,5.599383 C 12.805261,5.9055846 12.928326,6.1752208 13.122326,6.345216 C 12.928326,6.51521 12.805261,6.7848467 12.805261,7.0910484 C 12.805261,7.3972502 12.928326,7.6668862 13.122326,7.8368809 C 12.928326,8.0068761 12.805261,8.2765125 12.805261,8.5827138 C 12.805261,8.888915 12.928326,9.1585518 13.122326,9.3285469 C 12.928326,9.4985412 12.805261,9.768178 12.805261,10.074379 C 12.805261,10.380581 12.928326,10.650217 13.122326,10.820212 C 12.928326,10.990207 12.805261,11.259843 12.805261,11.566045 C 12.805261,11.712514 12.833282,11.850555 12.884527,11.973923 C 12.750423,11.841916 12.577509,11.764158 12.389115,11.764158 C 12.137923,11.764159 11.91846,11.909235 11.774804,12.12542 C 11.63131,11.905956 11.403995,11.764158 11.150584,11.764158 C 10.897914,11.764159 10.679824,11.907051 10.536272,12.12542 C 10.392779,11.905956 10.165464,11.764158 9.9120528,11.764158 C 9.6593812,11.764159 9.4412925,11.907051 9.2977414,12.12542 C 9.1542482,11.905956 8.9269328,11.764158 8.6735212,11.764158 C 8.4208511,11.764159 8.2027617,11.907051 8.0592105,12.12542 C 7.9156594,11.907051 7.6975699,11.764158 7.4448991,11.764158 C 7.1914875,11.764159 6.964173,11.905956 6.8206791,12.12542 C 6.6771274,11.907051 6.4590388,11.764158 6.2063678,11.764158 C 5.9551763,11.764159 5.7357126,11.909235 5.5920567,12.12542 C 5.4485627,11.905956 5.2212478,11.764158 4.9678371,11.764158 C 4.714426,11.764159 4.4871108,11.905956 4.3436171,12.12542 C 4.1999608,11.909236 3.9804975,11.764158 3.7293056,11.764158 C 3.5082085,11.764159 3.3163201,11.881146 3.1744438,12.055498 C 3.2486137,11.913642 3.2933428,11.744679 3.2933428,11.566045 C 3.2933428,11.259843 3.1702779,10.990207 2.9762787,10.820212 C 3.1702779,10.650217 3.2933428,10.380581 3.2933428,10.074379 C 3.2933428,9.768178 3.1702779,9.4985412 2.9762787,9.3285469 C 3.1702779,9.1585518 3.2933428,8.888915 3.2933428,8.5827138 C 3.2933428,8.2765125 3.1702779,8.0068761 2.9762787,7.8368809 C 3.1702779,7.6668862 3.2933428,7.3972502 3.2933428,7.0910484 C 3.2933428,6.7848467 3.1702779,6.51521 2.9762787,6.345216 C 3.1702779,6.1752208 3.2933428,5.9055846 3.2933428,5.599383 C 3.2933428,5.2931812 3.1702779,5.0235444 2.9762787,4.8535498 C 3.1702779,4.6835552 3.2933428,4.4139191 3.2933428,4.1077175 C 3.2933428,3.798085 3.164083,3.5314671 2.9663705,3.3618843 C 3.0229477,3.3117565 3.071946,3.2529191 3.1149942,3.1870795 z "
       id="path5613" />
    <rect
       style="opacity:1;color:#000000;fill:url(#linearGradient5641);fill-opacity:1;fill-rule:evenodd;stroke:none;stroke-width:0.2;stroke-linecap:round;stroke-linejoin:round;marker:none;marker-start:none;marker-mid:none;marker-end:none;stroke-miterlimit:4;stroke-dasharray:none;stroke-dashoffset:0;stroke-opacity:1;visibility:visible;display:inline;overflow:visible;enable-background:accumulate"
       id="rect5580"
       width="10"
       height="9.8122082"
       x="3"
       y="3"
       rx="0.21563405"
       ry="0.27203757" />
    <path
       style="fill:#3465a4;fill-rule:evenodd;stroke:#204a87;stroke-width:1.00000012;stroke-linecap:butt;stroke-linejoin:miter;stroke-miterlimit:10;stroke-dasharray:none;stroke-opacity:1"
       d="M 12.135756,11.627435 C 12.187787,13.25849 12.702525,14.776034 13.458254,16.234459 L 14.053378,13.833615 L 16.5,14.352714 C 15.626716,13.816991 13.855611,12.202068 13.127629,11.043446 L 12.135756,11.627435 z "
       id="path5582"
       sodipodi:nodetypes="cccccc" />
    <g
       id="g1340"
       transform="matrix(6.1629357e-2,0,0,6.0816652e-2,67.113781,132.76585)">
      <path
         sodipodi:type="star"
         style="color:#000000;fill:#f7f999;fill-opacity:1;fill-rule:nonzero;stroke:url(#linearGradient5721);stroke-width:68.94406128;stroke-linecap:square;stroke-linejoin:miter;marker:none;marker-start:none;marker-mid:none;marker-end:none;stroke-miterlimit:4;stroke-dasharray:none;stroke-dashoffset:0;stroke-opacity:1;visibility:visible;display:inline;overflow:visible"
         id="path1342"
         sodipodi:sides="9"
         sodipodi:cx="-2073.0457"
         sodipodi:cy="-1596.6304"
         sodipodi:r1="209.7282"
         sodipodi:r2="180.36626"
         sodipodi:arg1="0.84055688"
         sodipodi:arg2="1.1896227"
         inkscape:flatsided="false"
         inkscape:rounded="0.38"
         inkscape:randomized="0"
         d="M -1933.1469,-1440.3798 C -1953.9984,-1421.7104 -1979.9683,-1439.6211 -2005.9476,-1429.2092 C -2031.9269,-1418.7974 -2038.3393,-1387.9088 -2066.3129,-1387.0103 C -2094.2865,-1386.1118 -2102.6679,-1416.5253 -2129.2618,-1425.2485 C -2155.8557,-1433.9718 -2180.6227,-1414.4315 -2202.6293,-1431.7243 C -2224.6358,-1449.0172 -2211.5069,-1477.7027 -2226.2718,-1501.4793 C -2241.0367,-1525.2559 -2272.5696,-1526.2072 -2278.312,-1553.5998 C -2284.0544,-1580.9924 -2255.5584,-1594.5277 -2251.5856,-1622.2323 C -2247.6129,-1649.937 -2271.1571,-1670.9346 -2257.9484,-1695.6097 C -2244.7397,-1720.2848 -2214.2101,-1712.3365 -2193.3586,-1731.0059 C -2172.5071,-1749.6752 -2177.046,-1780.8943 -2151.0667,-1791.3061 C -2125.0874,-1801.7179 -2106.8094,-1776.0052 -2078.8358,-1776.9037 C -2050.8622,-1777.8021 -2034.272,-1804.6348 -2007.6781,-1795.9116 C -1981.0842,-1787.1883 -1983.6103,-1755.7424 -1961.6037,-1738.4496 C -1939.5972,-1721.1568 -1909.6406,-1731.0478 -1894.8757,-1707.2711 C -1880.1108,-1683.4945 -1902.259,-1661.0293 -1896.5166,-1633.6367 C -1890.7742,-1606.2441 -1861.4683,-1594.5653 -1865.441,-1566.8607 C -1869.4138,-1539.156 -1900.8206,-1536.1833 -1914.0293,-1511.5082 C -1927.238,-1486.8331 -1912.2954,-1459.0492 -1933.1469,-1440.3798 z "
         transform="matrix(0.236918,0,0,0.236918,-411.8839,-1633.833)" />
      <g
         transform="matrix(0.89577,0,0,0.89577,-95.73024,-211.15)"
         id="g1344">
        <path
           transform="matrix(1.162924,0,0,1.162924,226.5602,-739.689)"
           d="M -941.13729 -1093.3582 A 29.97831 29.069878 0 1 1  -1001.0939,-1093.3582 A 29.97831 29.069878 0 1 1  -941.13729 -1093.3582 z"
           sodipodi:ry="29.069878"
           sodipodi:rx="29.97831"
           sodipodi:cy="-1093.3582"
           sodipodi:cx="-971.1156"
           id="path1346"
           style="color:#000000;fill:#fdce15;fill-opacity:1;fill-rule:nonzero;stroke:none;stroke-width:6.25;stroke-linecap:round;stroke-linejoin:round;marker:none;marker-start:none;marker-mid:none;marker-end:none;stroke-miterlimit:4;stroke-dasharray:none;stroke-dashoffset:0;stroke-opacity:1;visibility:visible;display:inline;overflow:visible"
           sodipodi:type="arc" />
        <path
           sodipodi:nodetypes="cccccc"
           id="path1348"
           d="M -888.9211,-2029.5723 C -890.083,-2030.3268 -891.3477,-2030.9553 -892.7095,-2031.4461 C -896.1994,-2033.0267 -900.0341,-2033.7844 -903.8503,-2033.666 C -903.9418,-2033.6632 -904.0234,-2033.6496 -904.1151,-2033.6457 C -919.8297,-2033.9934 -932.1829,-2013.9212 -923.3417,-2000.3862 C -922.4823,-1998.883 -921.4426,-1997.5276 -920.2662,-1996.3127"
           style="color:#000000;fill:none;fill-opacity:1;fill-rule:nonzero;stroke:#ffffff;stroke-width:10.17346191;stroke-linecap:round;stroke-linejoin:round;marker:none;marker-start:none;marker-mid:none;marker-end:none;stroke-miterlimit:4;stroke-dasharray:none;stroke-dashoffset:0;stroke-opacity:1;visibility:visible;display:inline;overflow:visible" />
      </g>
    </g>
    <path
       style="fill:none;fill-opacity:0.75;fill-rule:evenodd;stroke:#888a85;stroke-width:2;stroke-linecap:round;stroke-linejoin:miter;stroke-miterlimit:4;stroke-dasharray:none;stroke-opacity:1"
       d="M 4.7735087,5 L 11.226492,5"
       id="path2235" />
    <path
       style="fill:none;fill-opacity:0.75;fill-rule:evenodd;stroke:#888a85;stroke-width:1.00000036px;stroke-linecap:round;stroke-linejoin:miter;stroke-opacity:1"
       d="M 4.4427498,7.4999998 L 7.5572506,7.4999998"
       id="path2237" />
    <path
       style="fill:none;fill-opacity:0.75;fill-rule:evenodd;stroke:#888a85;stroke-width:1px;stroke-linecap:round;stroke-linejoin:miter;stroke-opacity:1"
       d="M 4.4222457,9.5 L 6.5777543,9.5"
       id="path2241" />
    <path
       id="path5723"
       d="M 4.4222457,11.5 L 6.5777543,11.5"
       style="fill:none;fill-opacity:0.75;fill-rule:evenodd;stroke:#888a85;stroke-width:1px;stroke-linecap:round;stroke-linejoin:miter;stroke-opacity:1" />
  </g>
</svg>
