<?xml version="1.0" encoding="UTF-8" standalone="no"?>
<!-- Created with Inkscape (http://www.inkscape.org/) -->
<svg
   xmlns:s="http://inkscape.sourceforge.net/DTD/s odipodi-0.dtd"
   xmlns:dc="http://purl.org/dc/elements/1.1/"
   xmlns:cc="http://web.resource.org/cc/"
   xmlns:rdf="http://www.w3.org/1999/02/22-rdf-syntax-ns#"
   xmlns:svg="http://www.w3.org/2000/svg"
   xmlns="http://www.w3.org/2000/svg"
   xmlns:xlink="http://www.w3.org/1999/xlink"
   xmlns:sodipodi="http://sodipodi.sourceforge.net/DTD/sodipodi-0.dtd"
   xmlns:inkscape="http://www.inkscape.org/namespaces/inkscape"
   width="16"
   height="16"
   id="svg18269"
   s:version="0.32"
   inkscape:version="0.44"
   version="1.0"
   s:docbase="/home/andreas/projekt/tango/16"
   s:docname="certificate.svg"
   inkscape:export-filename="/home/andreas/projekt/tango/16/certificate.png"
   inkscape:export-xdpi="90"
   inkscape:export-ydpi="90"
   sodipodi:version="0.32"
   sodipodi:docname="application-certificate.svg"
   sodipodi:docbase="/home/lapo/Icone/cvs/gnome-icon-theme/16x16/mimetypes"
   inkscape:output_extension="org.inkscape.output.svg.inkscape">
  <sodipodi:namedview
     inkscape:window-height="480"
     inkscape:window-width="640"
     inkscape:pageshadow="2"
     inkscape:pageopacity="0.0"
     guidetolerance="10.0"
     gridtolerance="10.0"
     objecttolerance="10.0"
     borderopacity="1.0"
     bordercolor="#666666"
     pagecolor="#ffffff"
     id="base" />
  <defs
     id="defs18271">
    <linearGradient
       id="linearGradient9590">
      <stop
         style="stop-color:#eaeaea;stop-opacity:1;"
         offset="0"
         id="stop9592" />
      <stop
         style="stop-color:#ffffff;stop-opacity:1;"
         offset="1"
         id="stop9594" />
    </linearGradient>
    <linearGradient
       inkscape:collect="always"
       xlink:href="#linearGradient9590"
       id="linearGradient5235"
       gradientUnits="userSpaceOnUse"
       gradientTransform="matrix(0.625666,0,0,0.675917,-763.8958,-719.5624)"
       x1="-500.67075"
       y1="-2282.6199"
       x2="-500.67075"
       y2="-2060.9878" />
  </defs>
  <s:namedview
     id="base"
     pagecolor="#ffffff"
     bordercolor="#666666"
     borderopacity="1.0"
     inkscape:pageopacity="0.0"
     inkscape:pageshadow="2"
     inkscape:zoom="16"
     inkscape:cx="28.101692"
     inkscape:cy="4.9320675"
     inkscape:document-units="px"
     inkscape:current-layer="g4270"
     inkscape:window-width="1264"
     inkscape:window-height="945"
     inkscape:window-x="6"
     inkscape:window-y="25"
     showgrid="false"
     stroke="#888a85"
     fill="#729fcf"
     showguides="true"
     inkscape:guide-bbox="true" />
  <metadata
     id="metadata18274">
    <rdf:RDF>
      <cc:Work
         rdf:about="">
        <dc:format>image/svg+xml</dc:format>
        <dc:type
           rdf:resource="http://purl.org/dc/dcmitype/StillImage" />
      </cc:Work>
    </rdf:RDF>
  </metadata>
  <g
     inkscape:label="Layer 1"
     inkscape:groupmode="layer"
     id="layer1">
    <g
       id="g4270"
       transform="matrix(5.088341e-2,0,0,5.116989e-2,62.80899,117.0024)">
      <g
         id="g5187"
         transform="matrix(7.388989,0,0,4.167227,-2413.026,-1673.029)"
         inkscape:r_cx="true"
         inkscape:r_cy="true"
         style="opacity:0.4">
        <path
           inkscape:r_cy="true"
           inkscape:r_cx="true"
           id="path5189"
           style="opacity:0.04787233;fill-rule:evenodd;stroke-width:3pt"
           d="M 162.36286,-88.911137 C 160.1183,-88.911137 158.3113,-86.711005 158.3113,-83.978106 C 158.3113,-81.245207 160.1183,-79.045075 162.36286,-79.045075 L 199.63718,-79.045075 C 201.88174,-79.045075 203.68873,-81.245207 203.68873,-83.978106 C 203.68873,-86.711005 201.88174,-88.911137 199.63718,-88.911137 L 162.36286,-88.911137 z " />
        <path
           inkscape:r_cy="true"
           inkscape:r_cx="true"
           id="path5191"
           style="opacity:0.04787233;fill-rule:evenodd;stroke-width:3pt"
           d="M 162.36286,-88.582269 C 160.26794,-88.582269 158.58141,-86.528812 158.58141,-83.978106 C 158.58141,-81.4274 160.26794,-79.373944 162.36286,-79.373944 L 199.63718,-79.373944 C 201.7321,-79.373944 203.41863,-81.4274 203.41863,-83.978106 C 203.41863,-86.528812 201.7321,-88.582269 199.63718,-88.582269 L 162.36286,-88.582269 z " />
        <path
           inkscape:r_cy="true"
           inkscape:r_cx="true"
           id="path5193"
           style="opacity:0.04787233;fill-rule:evenodd;stroke-width:3pt"
           d="M 162.36286,-88.2534 C 160.41757,-88.2534 158.85151,-86.346619 158.85151,-83.978106 C 158.85151,-81.609593 160.41757,-79.702812 162.36286,-79.702812 L 199.63718,-79.702812 C 201.58246,-79.702812 203.14853,-81.609593 203.14853,-83.978106 C 203.14853,-86.346619 201.58246,-88.2534 199.63718,-88.2534 L 162.36286,-88.2534 z " />
        <path
           inkscape:r_cy="true"
           inkscape:r_cx="true"
           id="path5195"
           style="opacity:0.04787233;fill-rule:evenodd;stroke-width:3pt"
           d="M 162.36286,-87.924531 C 160.56721,-87.924531 159.12162,-86.164426 159.12162,-83.978106 C 159.12162,-81.791787 160.56721,-80.031681 162.36286,-80.031681 L 199.63718,-80.031681 C 201.43283,-80.031681 202.87842,-81.791787 202.87842,-83.978106 C 202.87842,-86.164426 201.43283,-87.924531 199.63718,-87.924531 L 162.36286,-87.924531 z " />
        <path
           inkscape:r_cy="true"
           inkscape:r_cx="true"
           id="path5197"
           style="opacity:0.04787233;fill-rule:evenodd;stroke-width:3pt"
           d="M 162.36309,-87.595662 C 160.71708,-87.595662 159.39195,-85.982232 159.39195,-83.978106 C 159.39195,-81.97398 160.71708,-80.36055 162.36309,-80.36055 L 199.63707,-80.36055 C 201.28308,-80.36055 202.60821,-81.97398 202.60821,-83.978106 C 202.60821,-85.982232 201.28308,-87.595662 199.63707,-87.595662 L 162.36309,-87.595662 z " />
        <path
           inkscape:r_cy="true"
           inkscape:r_cx="true"
           id="path5199"
           style="opacity:0.04787233;fill-rule:evenodd;stroke-width:3pt"
           d="M 162.36286,-87.266794 C 160.86649,-87.266794 159.66182,-85.800039 159.66182,-83.978106 C 159.66182,-82.156173 160.86649,-80.689419 162.36286,-80.689419 L 199.63718,-80.689419 C 201.13355,-80.689419 202.33821,-82.156173 202.33821,-83.978106 C 202.33821,-85.800039 201.13355,-87.266794 199.63718,-87.266794 L 162.36286,-87.266794 z " />
        <path
           inkscape:r_cy="true"
           inkscape:r_cx="true"
           id="path5201"
           style="opacity:0.04787233;fill-rule:evenodd;stroke-width:3pt"
           d="M 162.36286,-86.937925 C 161.01612,-86.937925 159.93193,-85.617846 159.93193,-83.978106 C 159.93193,-82.338367 161.01612,-81.018287 162.36286,-81.018287 L 199.63718,-81.018287 C 200.98391,-81.018287 202.06811,-82.338367 202.06811,-83.978106 C 202.06811,-85.617846 200.98391,-86.937925 199.63718,-86.937925 L 162.36286,-86.937925 z " />
        <path
           inkscape:r_cy="true"
           inkscape:r_cx="true"
           id="path5203"
           style="opacity:0.04787233;fill-rule:evenodd;stroke-width:3pt"
           d="M 162.36286,-86.609056 C 161.16576,-86.609056 160.20203,-85.435652 160.20203,-83.978106 C 160.20203,-82.52056 161.16576,-81.347156 162.36286,-81.347156 L 199.63718,-81.347156 C 200.83428,-81.347156 201.79801,-82.52056 201.79801,-83.978106 C 201.79801,-85.435652 200.83428,-86.609056 199.63718,-86.609056 L 162.36286,-86.609056 z " />
      </g>
      <rect
         ry="15.170697"
         y="-2256.4036"
         x="-1224.5023"
         height="252.39677"
         width="294.70813"
         id="rect5205"
         style="color:#000000;fill:url(#linearGradient5235);fill-opacity:1;fill-rule:nonzero;stroke:#777974;stroke-width:19.59767723;stroke-linecap:square;stroke-linejoin:miter;marker:none;marker-start:none;marker-mid:none;marker-end:none;stroke-miterlimit:4;stroke-dasharray:none;stroke-dashoffset:0;stroke-opacity:1;visibility:visible;display:inline;overflow:visible"
         rx="15.256107" />
      <path
         s:type="star"
         style="color:#000000;fill:#f7f999;fill-opacity:1;fill-rule:nonzero;stroke:#f2c101;stroke-width:99.37438965;stroke-linecap:square;stroke-linejoin:miter;marker:none;marker-start:none;marker-mid:none;marker-end:none;stroke-miterlimit:4;stroke-dasharray:none;stroke-dashoffset:0;stroke-opacity:1;visibility:visible;display:inline;overflow:visible"
         id="path5217"
         s:sides="9"
         s:cx="-2073.0457"
         s:cy="-1596.6304"
         s:r1="209.7282"
         s:r2="180.36626"
         s:arg1="0.84055688"
         s:arg2="1.1896227"
         inkscape:flatsided="false"
         inkscape:rounded="0.38"
         inkscape:randomized="0"
         d="M -1933.1469,-1440.3798 C -1953.9984,-1421.7104 -1979.9683,-1439.6211 -2005.9476,-1429.2092 C -2031.9269,-1418.7974 -2038.3393,-1387.9088 -2066.3129,-1387.0103 C -2094.2865,-1386.1118 -2102.6679,-1416.5253 -2129.2618,-1425.2485 C -2155.8557,-1433.9718 -2180.6227,-1414.4315 -2202.6293,-1431.7243 C -2224.6358,-1449.0172 -2211.5069,-1477.7027 -2226.2718,-1501.4793 C -2241.0367,-1525.2559 -2272.5696,-1526.2072 -2278.312,-1553.5998 C -2284.0544,-1580.9924 -2255.5584,-1594.5277 -2251.5856,-1622.2323 C -2247.6129,-1649.937 -2271.1571,-1670.9346 -2257.9484,-1695.6097 C -2244.7397,-1720.2848 -2214.2101,-1712.3365 -2193.3586,-1731.0059 C -2172.5071,-1749.6752 -2177.046,-1780.8943 -2151.0667,-1791.3061 C -2125.0874,-1801.7179 -2106.8094,-1776.0052 -2078.8358,-1776.9037 C -2050.8622,-1777.8021 -2034.272,-1804.6348 -2007.6781,-1795.9116 C -1981.0842,-1787.1883 -1983.6103,-1755.7424 -1961.6037,-1738.4496 C -1939.5972,-1721.1568 -1909.6406,-1731.0478 -1894.8757,-1707.2711 C -1880.1108,-1683.4945 -1902.259,-1661.0293 -1896.5166,-1633.6367 C -1890.7742,-1606.2441 -1861.4683,-1594.5653 -1865.441,-1566.8607 C -1869.4138,-1539.156 -1900.8206,-1536.1833 -1914.0293,-1511.5082 C -1927.238,-1486.8331 -1912.2954,-1459.0492 -1933.1469,-1440.3798 z "
         transform="matrix(0.190303,0,0,0.187143,-632.651,-1802.899)" />
      <g
         transform="matrix(0.281861,0,0,0.289042,-773.56,-1519.576)"
         id="g5219">
        <path
           transform="matrix(1.162924,0,0,1.162924,226.5602,-739.689)"
           d="M -941.13729 -1093.3582 A 29.97831 29.069878 0 1 1  -1001.0939,-1093.3582 A 29.97831 29.069878 0 1 1  -941.13729 -1093.3582 z"
           s:ry="29.069878"
           s:rx="29.97831"
           s:cy="-1093.3582"
           s:cx="-971.1156"
           id="path5221"
           style="color:#000000;fill:#fdce15;fill-opacity:1;fill-rule:nonzero;stroke:none;stroke-width:6.25;stroke-linecap:round;stroke-linejoin:round;marker:none;marker-start:none;marker-mid:none;marker-end:none;stroke-miterlimit:4;stroke-dasharray:none;stroke-dashoffset:0;stroke-opacity:1;visibility:visible;display:inline;overflow:visible"
           s:type="arc" />
      </g>
      <rect
         ry="0"
         y="-2237.2905"
         x="-1205.2603"
         height="214.17015"
         width="256.22446"
         id="rect5225"
         style="color:#000000;fill:none;fill-opacity:1;fill-rule:nonzero;stroke:#ffffff;stroke-width:19.59769058;stroke-linecap:butt;stroke-linejoin:miter;marker:none;marker-start:none;marker-mid:none;marker-end:none;stroke-miterlimit:4;stroke-dasharray:none;stroke-dashoffset:0;stroke-opacity:1;visibility:visible;display:inline;overflow:visible"
         rx="0" />
      <path
         style="fill:none;fill-opacity:0.75;fill-rule:evenodd;stroke:#888a85;stroke-width:19.59770012px;stroke-linecap:round;stroke-linejoin:miter;stroke-opacity:1"
         d="M -1147.8359,-2179.0627 L -1007.4696,-2179.0627"
         id="path5227" />
      <path
         style="fill:none;fill-opacity:0.75;fill-rule:evenodd;stroke:#888a85;stroke-width:19.5976944px;stroke-linecap:round;stroke-linejoin:miter;stroke-opacity:1"
         d="M -1146.3128,-2120.4345 L -1103.1843,-2120.4345"
         id="path5231" />
      <rect
         style="opacity:1;fill:none;fill-opacity:1;fill-rule:nonzero;stroke:#729fcf;stroke-width:19.59768295;stroke-linecap:round;stroke-linejoin:round;stroke-miterlimit:4;stroke-dasharray:none;stroke-dashoffset:0;stroke-opacity:1"
         id="rect5233"
         width="217.06183"
         height="176.12531"
         x="-1185.3026"
         y="-2218.2683" />
    </g>
  </g>
</svg>
