<?xml version="1.0" encoding="UTF-8" standalone="no"?>
<!-- Created with Inkscape (http://www.inkscape.org/) -->
<svg
   xmlns:dc="http://purl.org/dc/elements/1.1/"
   xmlns:cc="http://creativecommons.org/ns#"
   xmlns:rdf="http://www.w3.org/1999/02/22-rdf-syntax-ns#"
   xmlns:svg="http://www.w3.org/2000/svg"
   xmlns="http://www.w3.org/2000/svg"
   xmlns:xlink="http://www.w3.org/1999/xlink"
   xmlns:sodipodi="http://sodipodi.sourceforge.net/DTD/sodipodi-0.dtd"
   xmlns:inkscape="http://www.inkscape.org/namespaces/inkscape"
   width="16"
   height="16"
   id="svg2"
   sodipodi:version="0.32"
   inkscape:version="0.45+0.46pre0"
   version="1.0"
   sodipodi:docbase="/home/lapo/Modelli"
   sodipodi:docname="text-x-generic-template.svg"
   inkscape:output_extension="org.inkscape.output.svg.inkscape">
  <defs
     id="defs4">
    <linearGradient
       inkscape:collect="always"
       xlink:href="#linearGradient2596"
       id="linearGradient6112"
       gradientUnits="userSpaceOnUse"
       gradientTransform="translate(-1,300)"
       x1="12.59375"
       y1="4.59375"
       x2="9.40625"
       y2="4.8125" />
    <linearGradient
       inkscape:collect="always"
       xlink:href="#linearGradient2588"
       id="linearGradient6115"
       gradientUnits="userSpaceOnUse"
       x1="14.958019"
       y1="5.0490041"
       x2="17.11025"
       y2="3.8396702"
       gradientTransform="matrix(0.7662047,0,0,0.7509927,-0.4195637,300.11458)" />
    <linearGradient
       inkscape:collect="always"
       id="linearGradient6085">
      <stop
         style="stop-color:#ffffff;stop-opacity:1;"
         offset="0"
         id="stop6087" />
      <stop
         style="stop-color:#ffffff;stop-opacity:0;"
         offset="1"
         id="stop6089" />
    </linearGradient>
    <linearGradient
       inkscape:collect="always"
       xlink:href="#linearGradient6085"
       id="linearGradient6091"
       x1="10"
       y1="305"
       x2="11"
       y2="304"
       gradientUnits="userSpaceOnUse" />
    <linearGradient
       inkscape:collect="always"
       xlink:href="#linearGradient3613"
       id="linearGradient6121"
       gradientUnits="userSpaceOnUse"
       gradientTransform="matrix(0.3721874,0,0,0.3672163,21.407945,299.20801)"
       x1="-46.226273"
       y1="55.166615"
       x2="-62.75"
       y2="-22.502075" />
    <radialGradient
       inkscape:collect="always"
       xlink:href="#linearGradient3683"
       id="radialGradient6119"
       gradientUnits="userSpaceOnUse"
       gradientTransform="matrix(1.4871674,0,0,0.5489048,55.136091,293.4791)"
       cx="-30.314398"
       cy="39.271858"
       fx="-30.314398"
       fy="39.271858"
       r="18.000002" />
    <linearGradient
       inkscape:collect="always"
       id="linearGradient2596">
      <stop
         style="stop-color:#000000;stop-opacity:1;"
         offset="0"
         id="stop2598" />
      <stop
         style="stop-color:#000000;stop-opacity:0;"
         offset="1"
         id="stop2600" />
    </linearGradient>
    <linearGradient
       inkscape:collect="always"
       id="linearGradient2588">
      <stop
         style="stop-color:#ffffff;stop-opacity:1;"
         offset="0"
         id="stop2590" />
      <stop
         style="stop-color:#ffffff;stop-opacity:0;"
         offset="1"
         id="stop2592" />
    </linearGradient>
    <linearGradient
       inkscape:collect="always"
       id="linearGradient3613">
      <stop
         style="stop-color:#888a85;stop-opacity:1"
         offset="0"
         id="stop3615" />
      <stop
         style="stop-color:#babdb6;stop-opacity:1"
         offset="1"
         id="stop3617" />
    </linearGradient>
    <linearGradient
       id="linearGradient3683">
      <stop
         id="stop3685"
         offset="0"
         style="stop-color:#f6f6f5;stop-opacity:1;" />
      <stop
         id="stop3689"
         offset="1"
         style="stop-color:#d3d7cf;stop-opacity:1" />
    </linearGradient>
  </defs>
  <sodipodi:namedview
     id="base"
     pagecolor="#ffffff"
     bordercolor="#666666"
     borderopacity="1.0"
     inkscape:pageopacity="0.0"
     inkscape:pageshadow="2"
     inkscape:zoom="1"
     inkscape:cx="32.142857"
     inkscape:cy="22.857143"
     inkscape:document-units="px"
     inkscape:current-layer="layer1"
     inkscape:showpageshadow="false"
     width="16px"
     height="16px"
     inkscape:window-width="872"
     inkscape:window-height="715"
     inkscape:window-x="5"
     inkscape:window-y="24"
     showgrid="false">
    <inkscape:grid
       id="GridFromPre046Settings"
       type="xygrid"
       originx="0px"
       originy="0px"
       spacingx="0.5px"
       spacingy="0.5px"
       color="#0000ff"
       empcolor="#0000ff"
       opacity="0.2"
       empopacity="0.4"
       empspacing="2" />
  </sodipodi:namedview>
  <metadata
     id="metadata7">
    <rdf:RDF>
      <cc:Work
         rdf:about="">
        <dc:format>image/svg+xml</dc:format>
        <dc:type
           rdf:resource="http://purl.org/dc/dcmitype/StillImage" />
        <cc:license
           rdf:resource="http://creativecommons.org/licenses/GPL/2.0/" />
        <dc:creator>
          <cc:Agent>
            <dc:title>Lapo Calamandrei</dc:title>
          </cc:Agent>
        </dc:creator>
        <dc:title></dc:title>
        <dc:date></dc:date>
        <dc:rights>
          <cc:Agent>
            <dc:title></dc:title>
          </cc:Agent>
        </dc:rights>
        <dc:publisher>
          <cc:Agent>
            <dc:title></dc:title>
          </cc:Agent>
        </dc:publisher>
        <dc:identifier></dc:identifier>
        <dc:source></dc:source>
        <dc:relation></dc:relation>
        <dc:language></dc:language>
        <dc:subject>
          <rdf:Bag />
        </dc:subject>
        <dc:coverage></dc:coverage>
        <dc:description></dc:description>
        <dc:contributor>
          <cc:Agent>
            <dc:title></dc:title>
          </cc:Agent>
        </dc:contributor>
      </cc:Work>
      <cc:License
         rdf:about="http://creativecommons.org/licenses/GPL/2.0/">
        <cc:permits
           rdf:resource="http://web.resource.org/cc/Reproduction" />
        <cc:permits
           rdf:resource="http://web.resource.org/cc/Distribution" />
        <cc:requires
           rdf:resource="http://web.resource.org/cc/Notice" />
        <cc:permits
           rdf:resource="http://web.resource.org/cc/DerivativeWorks" />
        <cc:requires
           rdf:resource="http://web.resource.org/cc/ShareAlike" />
        <cc:requires
           rdf:resource="http://web.resource.org/cc/SourceCode" />
      </cc:License>
    </rdf:RDF>
  </metadata>
  <g
     inkscape:label="Livello 1"
     inkscape:groupmode="layer"
     id="layer1">
    <g
       style="display:inline"
       id="g22918"
       transform="translate(0,-300.00993)">
      <g
         id="g6145">
        <rect
           style="opacity:0;fill:#000000;fill-opacity:1;stroke:none;stroke-width:1;stroke-linejoin:round;stroke-miterlimit:4;stroke-dasharray:none;stroke-opacity:1"
           id="rect4017"
           width="16"
           height="16"
           x="0"
           y="300" />
        <g
           id="g6123">
          <path
             sodipodi:nodetypes="cccccccscc"
             id="path4021"
             d="M 3.0044136,300.49007 C 2.1731137,300.49007 1.495948,301.15379 1.495948,301.96859 L 1.495948,314.03141 C 1.495948,314.84621 2.1731136,315.50993 3.0044136,315.50993 L 12.012962,315.50993 C 12.844262,315.50993 13.521428,314.84621 13.521428,314.03141 C 13.521428,311.23083 13.521427,308.43026 13.521428,305.62968 C 13.37541,304.25358 12.584272,303.23866 11.653804,302.32062 C 10.723336,301.40258 9.744649,300.51686 8.3016584,300.49007 L 3.0044136,300.49007 z"
             style="fill:url(#radialGradient6119);fill-opacity:1;stroke:url(#linearGradient6121);stroke-width:1.00000012;stroke-miterlimit:4;display:inline" />
          <path
             id="path6079"
             d="M 3,301.1875 C 2.5287724,301.1875 2.1875,301.5296 2.1875,301.96875 L 2.1875,314.03125 C 2.1875,314.26532 2.2755838,314.48318 2.4375,314.625 L 7.5,304.5 L 7.5,301.1875 L 3,301.1875 z"
             style="opacity:0.06072872;fill:#555753;fill-opacity:1;stroke:none;stroke-width:0.69999999;stroke-linejoin:round;stroke-miterlimit:4;stroke-opacity:1;display:inline" />
          <path
             id="path6074"
             d="M 7.5,301.1875 L 7.5,304.5 L 12.5625,314.625 C 12.734674,314.48044 12.84375,314.25744 12.84375,314.03125 C 12.84375,311.25149 12.843749,308.46732 12.84375,305.6875 C 12.721695,304.53724 12.077066,303.69018 11.1875,302.8125 C 10.272941,301.91016 9.4861151,301.20929 8.3125,301.1875 L 7.5,301.1875 z"
             style="opacity:0.3;fill:url(#linearGradient6091);fill-opacity:1;stroke:none;stroke-width:1.00000012;stroke-miterlimit:4;display:inline" />
          <path
             sodipodi:nodetypes="ccccczc"
             id="path4025"
             d="M 8.16243,301.05538 C 7.7762701,301.05538 8.150734,301.23442 8.536041,301.46058 C 10,301.5 9.933167,301.74702 9.933167,304 C 11.837422,304 12.548659,305.06134 12.637872,305.47874 C 12.727085,305.89613 12.915907,306.41793 12.915907,305.91769 C 12.923785,304.54703 12.014293,303.71167 11.458689,302.91045 C 10.903084,302.10923 9.178314,301.2271 8.16243,301.05538 z"
             style="fill:#ffffff;fill-opacity:1;stroke:none;stroke-width:1;stroke-miterlimit:4;display:inline" />
          <path
             sodipodi:nodetypes="cccccccccccsccc"
             id="path4027"
             d="M 3.0044136,301.52269 C 2.7450358,301.52269 2.5494795,301.71437 2.5494795,301.96859 L 2.5494795,310.22951 L 2.5494795,311.77844 L 2.5494795,314.03141 C 2.5494795,314.28564 2.7450356,314.47732 3.0044136,314.47732 L 12.012963,314.47732 C 12.272341,314.47732 12.467897,314.28564 12.467897,314.03141 L 12.467897,313.30389 L 12.467897,310.22951 C 12.467896,308.18098 12.467897,306.1589 12.467897,305.74703 C 12.356856,304.70056 11.778856,303.90387 10.911543,303.04815 C 10.002607,302.15135 9.2902711,301.54149 8.2777147,301.52269 L 3.7706183,301.52269 L 3.0044136,301.52269 z"
             style="fill:none;fill-opacity:1;stroke:url(#linearGradient6115);stroke-width:1.00000012;stroke-miterlimit:4;display:inline" />
          <path
             sodipodi:nodetypes="ccccc"
             id="path4029"
             d="M 9,305 C 12.5,305 11.95305,305.35378 12.540666,305.92668 C 12.410013,305.36061 12.991498,304 10,304 C 10,300.94452 8.5,301.5 8,301.45228 C 8.9564159,302.58495 9.415739,301.72379 9,305 z"
             style="opacity:0.35627531;fill:url(#linearGradient6112);fill-opacity:1;stroke:none;stroke-width:1;stroke-miterlimit:4;display:inline" />
          <g
             style="opacity:0.7;fill:#888a85"
             id="g6057">
            <path
               sodipodi:type="arc"
               style="opacity:0.9;fill:#555753;fill-opacity:1;stroke:none;stroke-width:0.69999999;stroke-linejoin:round;stroke-miterlimit:4;stroke-dasharray:none;stroke-opacity:1"
               id="path6031"
               sodipodi:cx="7.5130095"
               sodipodi:cy="302.57712"
               sodipodi:rx="0.61871845"
               sodipodi:ry="0.59662133"
               d="M 8.131728,302.57712 A 0.61871845,0.59662133 0 1 1 6.8942911,302.57712 A 0.61871845,0.59662133 0 1 1 8.131728,302.57712 z"
               transform="matrix(0.808122,0,0,0.8543974,1.4285718,43.96915)" />
            <path
               sodipodi:type="arc"
               style="opacity:0.9;fill:#555753;fill-opacity:1;stroke:none;stroke-width:0.69999999;stroke-linejoin:round;stroke-miterlimit:4;stroke-dasharray:none;stroke-opacity:1;display:inline"
               id="path6033"
               sodipodi:cx="7.5130095"
               sodipodi:cy="302.57712"
               sodipodi:rx="0.61871845"
               sodipodi:ry="0.59662133"
               d="M 8.131728,302.57712 A 0.61871845,0.59662133 0 1 1 6.8942911,302.57712 A 0.61871845,0.59662133 0 1 1 8.131728,302.57712 z"
               transform="matrix(0.808122,0,0,0.8543974,1.4285718,45.96915)" />
            <path
               sodipodi:type="arc"
               style="opacity:0.9;fill:#555753;fill-opacity:1;stroke:none;stroke-width:0.69999999;stroke-linejoin:round;stroke-miterlimit:4;stroke-dasharray:none;stroke-opacity:1;display:inline"
               id="path6035"
               sodipodi:cx="7.5130095"
               sodipodi:cy="302.57712"
               sodipodi:rx="0.61871845"
               sodipodi:ry="0.59662133"
               d="M 8.131728,302.57712 A 0.61871845,0.59662133 0 1 1 6.8942911,302.57712 A 0.61871845,0.59662133 0 1 1 8.131728,302.57712 z"
               transform="matrix(0.808122,0,0,0.8543974,1.4285718,49.96915)" />
            <path
               sodipodi:type="arc"
               style="opacity:0.9;fill:#555753;fill-opacity:1;stroke:none;stroke-width:0.69999999;stroke-linejoin:round;stroke-miterlimit:4;stroke-dasharray:none;stroke-opacity:1;display:inline"
               id="path6037"
               sodipodi:cx="7.5130095"
               sodipodi:cy="302.57712"
               sodipodi:rx="0.61871845"
               sodipodi:ry="0.59662133"
               d="M 8.131728,302.57712 A 0.61871845,0.59662133 0 1 1 6.8942911,302.57712 A 0.61871845,0.59662133 0 1 1 8.131728,302.57712 z"
               transform="matrix(0.808122,0,0,0.8543974,1.4285718,51.96915)" />
            <path
               sodipodi:type="arc"
               style="opacity:0.9;fill:#555753;fill-opacity:1;stroke:none;stroke-width:0.69999999;stroke-linejoin:round;stroke-miterlimit:4;stroke-dasharray:none;stroke-opacity:1;display:inline"
               id="path6039"
               sodipodi:cx="7.5130095"
               sodipodi:cy="302.57712"
               sodipodi:rx="0.61871845"
               sodipodi:ry="0.59662133"
               d="M 8.131728,302.57712 A 0.61871845,0.59662133 0 1 1 6.8942911,302.57712 A 0.61871845,0.59662133 0 1 1 8.131728,302.57712 z"
               transform="matrix(0.808122,0,0,0.8543974,1.4285718,53.96915)" />
            <path
               sodipodi:type="arc"
               style="opacity:0.9;fill:#555753;fill-opacity:1;stroke:none;stroke-width:0.69999999;stroke-linejoin:round;stroke-miterlimit:4;stroke-dasharray:none;stroke-opacity:1;display:inline"
               id="path6041"
               sodipodi:cx="7.5130095"
               sodipodi:cy="302.57712"
               sodipodi:rx="0.61871845"
               sodipodi:ry="0.59662133"
               d="M 8.131728,302.57712 A 0.61871845,0.59662133 0 1 1 6.8942911,302.57712 A 0.61871845,0.59662133 0 1 1 8.131728,302.57712 z"
               transform="matrix(0.808122,0,0,0.8543974,5.4285718,53.96915)" />
            <path
               sodipodi:type="arc"
               style="opacity:0.9;fill:#555753;fill-opacity:1;stroke:none;stroke-width:0.69999999;stroke-linejoin:round;stroke-miterlimit:4;stroke-dasharray:none;stroke-opacity:1;display:inline"
               id="path6043"
               sodipodi:cx="7.5130095"
               sodipodi:cy="302.57712"
               sodipodi:rx="0.61871845"
               sodipodi:ry="0.59662133"
               d="M 8.131728,302.57712 A 0.61871845,0.59662133 0 1 1 6.8942911,302.57712 A 0.61871845,0.59662133 0 1 1 8.131728,302.57712 z"
               transform="matrix(0.808122,0,0,0.8543974,4.4285718,51.96915)" />
            <path
               sodipodi:type="arc"
               style="opacity:0.9;fill:#555753;fill-opacity:1;stroke:none;stroke-width:0.69999999;stroke-linejoin:round;stroke-miterlimit:4;stroke-dasharray:none;stroke-opacity:1;display:inline"
               id="path6045"
               sodipodi:cx="7.5130095"
               sodipodi:cy="302.57712"
               sodipodi:rx="0.61871845"
               sodipodi:ry="0.59662133"
               d="M 8.131728,302.57712 A 0.61871845,0.59662133 0 1 1 6.8942911,302.57712 A 0.61871845,0.59662133 0 1 1 8.131728,302.57712 z"
               transform="matrix(0.808122,0,0,0.8543974,3.4285718,49.96915)" />
            <path
               sodipodi:type="arc"
               style="opacity:0.9;fill:#555753;fill-opacity:1;stroke:none;stroke-width:0.69999999;stroke-linejoin:round;stroke-miterlimit:4;stroke-dasharray:none;stroke-opacity:1;display:inline"
               id="path6047"
               sodipodi:cx="7.5130095"
               sodipodi:cy="302.57712"
               sodipodi:rx="0.61871845"
               sodipodi:ry="0.59662133"
               d="M 8.131728,302.57712 A 0.61871845,0.59662133 0 1 1 6.8942911,302.57712 A 0.61871845,0.59662133 0 1 1 8.131728,302.57712 z"
               transform="matrix(0.808122,0,0,0.8543974,2.4285718,47.96915)" />
            <path
               sodipodi:type="arc"
               style="opacity:0.9;fill:#555753;fill-opacity:1;stroke:none;stroke-width:0.69999999;stroke-linejoin:round;stroke-miterlimit:4;stroke-dasharray:none;stroke-opacity:1;display:inline"
               id="path6049"
               sodipodi:cx="7.5130095"
               sodipodi:cy="302.57712"
               sodipodi:rx="0.61871845"
               sodipodi:ry="0.59662133"
               d="M 8.131728,302.57712 A 0.61871845,0.59662133 0 1 1 6.8942911,302.57712 A 0.61871845,0.59662133 0 1 1 8.131728,302.57712 z"
               transform="matrix(0.808122,0,0,0.8543974,0.4285718,47.96915)" />
            <path
               sodipodi:type="arc"
               style="opacity:0.9;fill:#555753;fill-opacity:1;stroke:none;stroke-width:0.69999999;stroke-linejoin:round;stroke-miterlimit:4;stroke-dasharray:none;stroke-opacity:1;display:inline"
               id="path6051"
               sodipodi:cx="7.5130095"
               sodipodi:cy="302.57712"
               sodipodi:rx="0.61871845"
               sodipodi:ry="0.59662133"
               d="M 8.131728,302.57712 A 0.61871845,0.59662133 0 1 1 6.8942911,302.57712 A 0.61871845,0.59662133 0 1 1 8.131728,302.57712 z"
               transform="matrix(0.808122,0,0,0.8543974,-0.5714282,49.96915)" />
            <path
               sodipodi:type="arc"
               style="opacity:0.9;fill:#555753;fill-opacity:1;stroke:none;stroke-width:0.69999999;stroke-linejoin:round;stroke-miterlimit:4;stroke-dasharray:none;stroke-opacity:1;display:inline"
               id="path6053"
               sodipodi:cx="7.5130095"
               sodipodi:cy="302.57712"
               sodipodi:rx="0.61871845"
               sodipodi:ry="0.59662133"
               d="M 8.131728,302.57712 A 0.61871845,0.59662133 0 1 1 6.8942911,302.57712 A 0.61871845,0.59662133 0 1 1 8.131728,302.57712 z"
               transform="matrix(0.808122,0,0,0.8543974,-1.5714282,51.96915)" />
            <path
               sodipodi:type="arc"
               style="opacity:0.9;fill:#555753;fill-opacity:1;stroke:none;stroke-width:0.69999999;stroke-linejoin:round;stroke-miterlimit:4;stroke-dasharray:none;stroke-opacity:1;display:inline"
               id="path6055"
               sodipodi:cx="7.5130095"
               sodipodi:cy="302.57712"
               sodipodi:rx="0.61871845"
               sodipodi:ry="0.59662133"
               d="M 8.131728,302.57712 A 0.61871845,0.59662133 0 1 1 6.8942911,302.57712 A 0.61871845,0.59662133 0 1 1 8.131728,302.57712 z"
               transform="matrix(0.808122,0,0,0.8543974,-2.5714282,53.96915)" />
          </g>
        </g>
      </g>
    </g>
  </g>
</svg>
