<?xml version="1.0" encoding="UTF-8" standalone="no"?>
<!-- Created with Inkscape (http://www.inkscape.org/) -->
<svg
   xmlns:dc="http://purl.org/dc/elements/1.1/"
   xmlns:cc="http://web.resource.org/cc/"
   xmlns:rdf="http://www.w3.org/1999/02/22-rdf-syntax-ns#"
   xmlns:svg="http://www.w3.org/2000/svg"
   xmlns="http://www.w3.org/2000/svg"
   xmlns:xlink="http://www.w3.org/1999/xlink"
   xmlns:sodipodi="http://sodipodi.sourceforge.net/DTD/sodipodi-0.dtd"
   xmlns:inkscape="http://www.inkscape.org/namespaces/inkscape"
   width="16"
   height="16"
   id="svg4908"
   sodipodi:version="0.32"
   inkscape:version="0.45"
   sodipodi:docbase="/home/dobey/Projects/gnome-icon-theme/16x16/mimetypes"
   sodipodi:docname="x-office-address-book.svg"
   inkscape:output_extension="org.inkscape.output.svg.inkscape"
   inkscape:export-filename="/home/andreas/project/misc icons/32x32/actions/bookmark-view.png"
   inkscape:export-xdpi="90"
   inkscape:export-ydpi="90"
   version="1.0">
  <defs
     id="defs4910">
    <linearGradient
       id="linearGradient7937">
      <stop
         style="stop-color:#eeeeec;stop-opacity:1;"
         offset="0"
         id="stop7939" />
      <stop
         style="stop-color:#ffffff;stop-opacity:1;"
         offset="1"
         id="stop7941" />
    </linearGradient>
    <linearGradient
       id="linearGradient7929">
      <stop
         style="stop-color:#888a85;stop-opacity:1;"
         offset="0"
         id="stop7931" />
      <stop
         style="stop-color:#babdb6;stop-opacity:1"
         offset="1"
         id="stop7933" />
    </linearGradient>
    <linearGradient
       inkscape:collect="always"
       id="linearGradient6881">
      <stop
         style="stop-color:#ffffff;stop-opacity:1;"
         offset="0"
         id="stop6883" />
      <stop
         style="stop-color:#ffffff;stop-opacity:0;"
         offset="1"
         id="stop6885" />
    </linearGradient>
    <linearGradient
       inkscape:collect="always"
       id="linearGradient6859">
      <stop
         style="stop-color:#9ee757;stop-opacity:1"
         offset="0"
         id="stop6861" />
      <stop
         style="stop-color:#8ae234;stop-opacity:1"
         offset="1"
         id="stop6863" />
    </linearGradient>
    <linearGradient
       inkscape:collect="always"
       id="linearGradient6851">
      <stop
         style="stop-color:#fdee77;stop-opacity:1"
         offset="0"
         id="stop6853" />
      <stop
         style="stop-color:#fce94f;stop-opacity:1"
         offset="1"
         id="stop6855" />
    </linearGradient>
    <linearGradient
       inkscape:collect="always"
       id="linearGradient6843">
      <stop
         style="stop-color:#fec065;stop-opacity:1"
         offset="0"
         id="stop6845" />
      <stop
         style="stop-color:#fcaf3e;stop-opacity:1"
         offset="1"
         id="stop6847" />
    </linearGradient>
    <linearGradient
       inkscape:collect="always"
       id="linearGradient6820">
      <stop
         style="stop-color:#729fcf;stop-opacity:1;"
         offset="0"
         id="stop6822" />
      <stop
         style="stop-color:#729fcf;stop-opacity:0;"
         offset="1"
         id="stop6824" />
    </linearGradient>
    <linearGradient
       inkscape:collect="always"
       id="linearGradient6794">
      <stop
         style="stop-color:#ffffff;stop-opacity:1;"
         offset="0"
         id="stop6796" />
      <stop
         style="stop-color:#ffffff;stop-opacity:0;"
         offset="1"
         id="stop6798" />
    </linearGradient>
    <linearGradient
       id="linearGradient6499"
       inkscape:collect="always">
      <stop
         id="stop6501"
         offset="0"
         style="stop-color:#729fcf;stop-opacity:1" />
      <stop
         id="stop6503"
         offset="1"
         style="stop-color:#3465a4;stop-opacity:1" />
    </linearGradient>
    <radialGradient
       inkscape:collect="always"
       xlink:href="#linearGradient6859"
       id="radialGradient7858"
       gradientUnits="userSpaceOnUse"
       gradientTransform="matrix(0.4720308,0,0,0.5769264,-5.8252933,-3.6598712)"
       cx="42"
       cy="15.814279"
       fx="42"
       fy="15.814279"
       r="3" />
    <radialGradient
       inkscape:collect="always"
       xlink:href="#linearGradient6851"
       id="radialGradient7860"
       gradientUnits="userSpaceOnUse"
       gradientTransform="matrix(0.382744,0,0,0.4015369,-2.138625,-1.2304505)"
       cx="42.8125"
       cy="25.727272"
       fx="42.8125"
       fy="25.727272"
       r="4.5" />
    <radialGradient
       inkscape:collect="always"
       xlink:href="#linearGradient6843"
       id="radialGradient7862"
       gradientUnits="userSpaceOnUse"
       gradientTransform="matrix(0.3260419,0,0,0.3643388,-0.106778,0.155493)"
       cx="42.5"
       cy="36.307945"
       fx="42.5"
       fy="36.307945"
       r="4.5" />
    <linearGradient
       inkscape:collect="always"
       xlink:href="#linearGradient6794"
       id="linearGradient7864"
       gradientUnits="userSpaceOnUse"
       x1="42.875"
       y1="30.9375"
       x2="39.919209"
       y2="51.062393" />
    <linearGradient
       inkscape:collect="always"
       xlink:href="#linearGradient6499"
       id="linearGradient7888"
       gradientUnits="userSpaceOnUse"
       gradientTransform="matrix(0.4165126,0,0,0.4260718,-1.36876,-2.8433949)"
       x1="18.27758"
       y1="15.698529"
       x2="35.660713"
       y2="49.290443" />
    <linearGradient
       inkscape:collect="always"
       xlink:href="#linearGradient6820"
       id="linearGradient7890"
       gradientUnits="userSpaceOnUse"
       x1="24.75"
       y1="43.927441"
       x2="24.75"
       y2="36.060127" />
    <linearGradient
       inkscape:collect="always"
       xlink:href="#linearGradient6881"
       id="linearGradient7892"
       gradientUnits="userSpaceOnUse"
       x1="17.353554"
       y1="7.9356604"
       x2="28.035534"
       y2="81.759773" />
    <linearGradient
       inkscape:collect="always"
       xlink:href="#linearGradient6794"
       id="linearGradient7895"
       gradientUnits="userSpaceOnUse"
       x1="42.875"
       y1="30.9375"
       x2="39.919209"
       y2="51.062393" />
    <linearGradient
       inkscape:collect="always"
       xlink:href="#linearGradient6794"
       id="linearGradient7899"
       gradientUnits="userSpaceOnUse"
       x1="42.875"
       y1="30.9375"
       x2="39.919209"
       y2="51.062393" />
    <linearGradient
       inkscape:collect="always"
       xlink:href="#linearGradient7929"
       id="linearGradient7935"
       x1="2.1655145"
       y1="2.9878671"
       x2="1.016466"
       y2="3.8466024"
       gradientUnits="userSpaceOnUse"
       gradientTransform="translate(0,1)" />
    <linearGradient
       inkscape:collect="always"
       xlink:href="#linearGradient7937"
       id="linearGradient7943"
       x1="1.5625"
       y1="2.75"
       x2="1.65625"
       y2="3.3125"
       gradientUnits="userSpaceOnUse"
       gradientTransform="translate(0,1)" />
  </defs>
  <sodipodi:namedview
     id="base"
     pagecolor="#ffffff"
     bordercolor="#666666"
     borderopacity="1.0"
     inkscape:pageopacity="0.0"
     inkscape:pageshadow="2"
     inkscape:zoom="1"
     inkscape:cx="-19.021737"
     inkscape:cy="13.468959"
     inkscape:current-layer="layer1"
     showgrid="false"
     inkscape:grid-bbox="true"
     inkscape:document-units="px"
     inkscape:window-width="1280"
     inkscape:window-height="970"
     inkscape:window-x="5"
     inkscape:window-y="24"
     width="16px"
     height="16px"
     showguides="true"
     inkscape:guide-bbox="true"
     gridspacingx="0.5px"
     gridspacingy="0.5px"
     gridempspacing="2"
     showborder="false"
     inkscape:showpageshadow="false"
     inkscape:object-points="true"
     inkscape:grid-points="true" />
  <metadata
     id="metadata4913">
    <rdf:RDF>
      <cc:Work
         rdf:about="">
        <dc:format>image/svg+xml</dc:format>
        <dc:type
           rdf:resource="http://purl.org/dc/dcmitype/StillImage" />
        <dc:title>New Address Book</dc:title>
        <dc:date>2007-06-23</dc:date>
        <dc:creator>
          <cc:Agent>
            <dc:title>Lapo Calamandrei</dc:title>
          </cc:Agent>
        </dc:creator>
        <dc:subject>
          <rdf:Bag>
            <rdf:li>address</rdf:li>
            <rdf:li>book</rdf:li>
            <rdf:li>contact</rdf:li>
          </rdf:Bag>
        </dc:subject>
        <cc:license
           rdf:resource="http://creativecommons.org/licenses/GPL/2.0/" />
        <dc:source />
        <dc:contributor>
          <cc:Agent>
            <dc:title>Andreas Nilsson</dc:title>
          </cc:Agent>
        </dc:contributor>
      </cc:Work>
      <cc:License
         rdf:about="http://creativecommons.org/licenses/GPL/2.0/">
        <cc:permits
           rdf:resource="http://web.resource.org/cc/Reproduction" />
        <cc:permits
           rdf:resource="http://web.resource.org/cc/Distribution" />
        <cc:requires
           rdf:resource="http://web.resource.org/cc/Notice" />
        <cc:permits
           rdf:resource="http://web.resource.org/cc/DerivativeWorks" />
        <cc:requires
           rdf:resource="http://web.resource.org/cc/ShareAlike" />
        <cc:requires
           rdf:resource="http://web.resource.org/cc/SourceCode" />
      </cc:License>
    </rdf:RDF>
  </metadata>
  <g
     id="layer1"
     inkscape:label="Layer 1"
     inkscape:groupmode="layer">
    <rect
       ry="2.0567338"
       rx="2.0567338"
       y="0.5"
       x="1.5"
       height="13.033343"
       width="12.010204"
       id="rect7945"
       style="fill:#ffffff;fill-opacity:1;stroke:#204a87;stroke-width:1.00000012;stroke-linecap:round;stroke-linejoin:miter;stroke-miterlimit:0;stroke-dasharray:none;stroke-dashoffset:0;stroke-opacity:1" />
    <rect
       style="fill:url(#radialGradient7858);fill-opacity:1;stroke:#4e9a06;stroke-width:1.00000024;stroke-linecap:butt;stroke-linejoin:miter;stroke-miterlimit:4;stroke-dasharray:none;stroke-dashoffset:0;stroke-opacity:1"
       id="rect7810"
       width="2.9999998"
       height="3.9999995"
       x="12.5"
       y="2.5"
       rx="0.74246216"
       ry="0.44547731" />
    <path
       sodipodi:type="inkscape:offset"
       inkscape:radius="-0.99302852"
       inkscape:original="M 39.75 29.5 C 39.06446 29.5 38.5 30.064461 38.5 30.75 L 38.5 38.25 C 38.5 38.93554 39.064459 39.5 39.75 39.5 L 45.25 39.5 C 45.93554 39.5 46.5 38.935541 46.5 38.25 L 46.5 30.75 C 46.5 30.06446 45.935541 29.5 45.25 29.5 L 39.75 29.5 z "
       style="opacity:0.5;fill:none;fill-opacity:1;stroke:url(#linearGradient7899);stroke-width:3.00286031;stroke-linecap:butt;stroke-linejoin:miter;stroke-miterlimit:4;stroke-dasharray:none;stroke-dashoffset:0;stroke-opacity:1"
       id="path7897"
       d="M 39.75,30.5 C 39.609554,30.5 39.5,30.609555 39.5,30.75 L 39.5,38.25 C 39.5,38.390448 39.609551,38.5 39.75,38.5 L 45.25,38.5 C 45.390448,38.5 45.5,38.390449 45.5,38.25 L 45.5,30.75 C 45.5,30.609552 45.390449,30.5 45.25,30.5 L 39.75,30.5 z "
       transform="matrix(0.4435981,0,0,0.2500001,-5.683715,-4.1250028)" />
    <rect
       style="fill:url(#radialGradient7860);fill-opacity:1;stroke:#c4a000;stroke-width:1.00000012;stroke-linecap:butt;stroke-linejoin:miter;stroke-miterlimit:4;stroke-dasharray:none;stroke-dashoffset:0;stroke-opacity:1"
       id="rect7812"
       width="3.7280617"
       height="4"
       x="11.771938"
       y="6.5"
       rx="0.57665509"
       ry="0.49497476" />
    <rect
       style="fill:url(#radialGradient7862);fill-opacity:1;stroke:#ce5c00;stroke-width:1.00000012;stroke-linecap:butt;stroke-linejoin:miter;stroke-miterlimit:4;stroke-dasharray:none;stroke-dashoffset:0;stroke-opacity:1"
       id="rect7814"
       width="3.5"
       height="3.999999"
       x="12"
       y="10.500001"
       rx="0.54137862"
       ry="0.4949747" />
    <path
       sodipodi:type="inkscape:offset"
       inkscape:radius="-0.99302852"
       inkscape:original="M 39.75 29.5 C 39.06446 29.5 38.5 30.064461 38.5 30.75 L 38.5 38.25 C 38.5 38.93554 39.064459 39.5 39.75 39.5 L 45.25 39.5 C 45.93554 39.5 46.5 38.935541 46.5 38.25 L 46.5 30.75 C 46.5 30.06446 45.935541 29.5 45.25 29.5 L 39.75 29.5 z "
       style="opacity:0.5;fill:none;fill-opacity:1;stroke:url(#linearGradient7864);stroke-width:3.00286031;stroke-linecap:butt;stroke-linejoin:miter;stroke-miterlimit:4;stroke-dasharray:none;stroke-dashoffset:0;stroke-opacity:1"
       id="path7816"
       d="M 39.75,30.5 C 39.609554,30.5 39.5,30.609555 39.5,30.75 L 39.5,38.25 C 39.5,38.390448 39.609551,38.5 39.75,38.5 L 45.25,38.5 C 45.390448,38.5 45.5,38.390449 45.5,38.25 L 45.5,30.75 C 45.5,30.609552 45.390449,30.5 45.25,30.5 L 39.75,30.5 z "
       transform="matrix(0.4435981,0,0,0.2500001,-5.683715,-0.1250028)" />
    <path
       sodipodi:type="inkscape:offset"
       inkscape:radius="-0.99302852"
       inkscape:original="M 39.75 29.5 C 39.06446 29.5 38.5 30.064461 38.5 30.75 L 38.5 38.25 C 38.5 38.93554 39.064459 39.5 39.75 39.5 L 45.25 39.5 C 45.93554 39.5 46.5 38.935541 46.5 38.25 L 46.5 30.75 C 46.5 30.06446 45.935541 29.5 45.25 29.5 L 39.75 29.5 z "
       style="opacity:0.5;fill:none;fill-opacity:1;stroke:url(#linearGradient7895);stroke-width:3.00286031;stroke-linecap:butt;stroke-linejoin:miter;stroke-miterlimit:4;stroke-dasharray:none;stroke-dashoffset:0;stroke-opacity:1"
       id="path7818"
       d="M 39.75,30.5 C 39.609554,30.5 39.5,30.609555 39.5,30.75 L 39.5,38.25 C 39.5,38.390448 39.609551,38.5 39.75,38.5 L 45.25,38.5 C 45.390448,38.5 45.5,38.390449 45.5,38.25 L 45.5,30.75 C 45.5,30.609552 45.390449,30.5 45.25,30.5 L 39.75,30.5 z "
       transform="matrix(0.4435981,0,0,0.2500001,-5.683715,3.8749963)" />
    <g
       id="g7883"
       transform="matrix(0.7346939,0,0,0.7647388,2.122449,2.8823694)">
      <rect
         ry="1.5861413"
         rx="1.5821517"
         y="-0.5"
         x="0.5"
         height="17.04287"
         width="15"
         id="rect7820"
         style="fill:url(#linearGradient7888);fill-opacity:1;stroke:#204a87;stroke-width:1.33410573;stroke-linecap:round;stroke-linejoin:miter;stroke-miterlimit:0;stroke-dasharray:none;stroke-dashoffset:0;stroke-opacity:1" />
      <path
         transform="matrix(0.4390681,0,0,0.4020885,-2.7571676,-2.2485322)"
         d="M 10.96875,6 C 9.866556,6 9,6.8665563 9,7.96875 L 9,43.03125 C 9,44.133444 9.8665564,45 10.96875,45 L 38.03125,45 C 39.133444,45 40,44.133443 40,43.03125 L 40,7.96875 C 40,6.8665562 39.133443,6 38.03125,6 L 10.96875,6 z "
         id="path7822"
         style="fill:url(#linearGradient7890);fill-opacity:1;stroke:none;stroke-width:1;stroke-linecap:round;stroke-linejoin:miter;stroke-miterlimit:0;stroke-dasharray:none;stroke-dashoffset:0;stroke-opacity:1"
         inkscape:original="M 10.96875 5.5 C 9.5976699 5.5 8.5 6.5976702 8.5 7.96875 L 8.5 43.03125 C 8.5 44.40233 9.5976702 45.5 10.96875 45.5 L 38.03125 45.5 C 39.40233 45.5 40.5 44.402329 40.5 43.03125 L 40.5 7.96875 C 40.5 6.5976699 39.402329 5.5 38.03125 5.5 L 10.96875 5.5 z "
         inkscape:radius="-0.50379127"
         sodipodi:type="inkscape:offset" />
      <path
         transform="matrix(0.4091858,0,0,0.3805283,-2.0250524,-1.6809081)"
         d="M 10.96875,6.53125 C 10.140184,6.53125 9.53125,7.1401838 9.53125,7.96875 L 9.53125,43.03125 C 9.53125,43.859816 10.140184,44.46875 10.96875,44.46875 L 38.03125,44.46875 C 38.859816,44.46875 39.46875,43.859815 39.46875,43.03125 L 39.46875,7.96875 C 39.46875,7.1401839 38.859815,6.53125 38.03125,6.53125 L 10.96875,6.53125 z "
         id="path7824"
         style="opacity:0.46120689;fill:none;fill-opacity:1;stroke:url(#linearGradient7892);stroke-width:3.38093257;stroke-linecap:round;stroke-linejoin:miter;stroke-miterlimit:0;stroke-dasharray:none;stroke-dashoffset:0;stroke-opacity:1"
         inkscape:original="M 10.96875 5.5 C 9.5976699 5.5 8.5 6.5976702 8.5 7.96875 L 8.5 43.03125 C 8.5 44.40233 9.5976702 45.5 10.96875 45.5 L 38.03125 45.5 C 39.40233 45.5 40.5 44.402329 40.5 43.03125 L 40.5 7.96875 C 40.5 6.5976699 39.402329 5.5 38.03125 5.5 L 10.96875 5.5 z "
         inkscape:radius="-1.016466"
         sodipodi:type="inkscape:offset" />
    </g>
    <path
       style="font-size:23.55376053px;font-style:normal;font-weight:normal;fill:#ffffff;fill-opacity:1;stroke:none;stroke-width:1px;stroke-linecap:butt;stroke-linejoin:miter;stroke-opacity:1;font-family:Bitstream Vera Sans"
       d="M 7.755655,8.511693 C 7.7556532,8.8312934 7.8242804,9.0833345 7.961539,9.2678173 C 8.1014296,9.4523028 8.290154,9.5445442 8.5277148,9.5445433 C 8.7626278,9.5445442 8.9500335,9.4523028 9.089932,9.2678173 C 9.2298218,9.0807371 9.2997692,8.8286943 9.2997727,8.511693 C 9.2997692,8.1972927 9.2285023,7.9491494 9.0859726,7.7672596 C 8.9460732,7.5827794 8.7573489,7.4905371 8.519796,7.4905346 C 8.287515,7.4905371 8.1014296,7.5827794 7.961539,7.7672596 C 7.8242804,7.9491494 7.7556532,8.1972927 7.755655,8.511693 M 9.3789594,9.6848548 C 9.2997692,9.8693393 9.1717524,10.013549 8.9949096,10.117484 C 8.8206962,10.21882 8.6161344,10.269488 8.3812214,10.269488 C 7.9272215,10.269488 7.5576889,10.10839 7.2726244,9.7861922 C 6.9901936,9.4613971 6.8489791,9.0391615 6.8489818,8.5194886 C 6.8489791,7.9998168 6.9915131,7.5775829 7.2765838,7.2527842 C 7.5616491,6.9279917 7.9298605,6.7655937 8.3812214,6.7655902 C 8.6161344,6.7655937 8.8206962,6.8175608 8.9949096,6.9214921 C 9.1717524,7.0254305 9.2997692,7.1696398 9.3789594,7.35412 L 9.3789594,6.8435417 L 10.206448,6.8435417 L 10.206448,9.5445433 C 10.533741,9.4951754 10.791095,9.3405722 10.978507,9.0807354 C 11.165907,8.8183012 11.259609,8.4831121 11.259615,8.0751673 C 11.259609,7.8153322 11.221336,7.5723864 11.144796,7.3463252 C 11.068244,7.1176728 10.952105,6.9085034 10.796381,6.7188193 C 10.54562,6.401823 10.231517,6.1575766 9.8540721,5.9860799 C 9.4792562,5.8145928 9.0727706,5.7288465 8.6346152,5.7288418 C 8.3284274,5.7288465 8.0354415,5.7691211 7.755655,5.849666 C 7.4758641,5.9276215 7.2171923,6.0432486 6.9796376,6.1965479 C 6.5889869,6.4511921 6.2841229,6.7811841 6.0650448,7.1865255 C 5.8486039,7.5892755 5.740383,8.0258003 5.7403848,8.4961026 C 5.740383,8.8832604 5.8103305,9.2470312 5.9502264,9.5874177 C 6.0927586,9.925205 6.2973214,10.224018 6.5639138,10.483852 C 6.8278636,10.738492 7.1300886,10.932071 7.4705888,11.064587 C 7.8137217,11.199701 8.179295,11.267259 8.5673076,11.26726 C 8.8998829,11.267259 9.2324616,11.206198 9.5650456,11.084076 C 9.8976191,10.961952 10.181367,10.796955 10.41629,10.589087 L 10.839932,11.22049 C 10.509986,11.47253 10.149692,11.664809 9.7590498,11.797327 C 9.3710354,11.932441 8.9764296,11.999999 8.5752264,12 C 8.0869116,11.999999 7.6263169,11.914251 7.1934386,11.742761 C 6.7605551,11.573867 6.3751868,11.327022 6.03733,11.002227 C 5.6994706,10.677431 5.4421183,10.301968 5.2652711,9.8758354 C 5.0884231,9.4471062 4.9999991,8.9871953 5,8.4961026 C 4.9999991,8.023202 5.0897426,7.5723864 5.2692305,7.1436528 C 5.4487166,6.7149261 5.7047495,6.3381629 6.03733,6.0133629 C 6.369907,5.6911702 6.7565966,5.4417273 7.197398,5.265033 C 7.6408331,5.0883497 8.1001093,5.0000056 8.5752264,5 C 9.1664735,5.0000056 9.7036141,5.111735 10.186652,5.3351889 C 10.669677,5.5560555 11.073523,5.8756542 11.398191,6.2939863 C 11.596147,6.5486306 11.74528,6.8253564 11.845588,7.1241646 C 11.948522,7.4203814 11.999993,7.7321852 12,8.0595769 C 11.999993,8.7637368 11.784872,9.3106926 11.354639,9.7004452 C 10.924391,10.090201 10.317302,10.285079 9.5333715,10.285079 L 9.3789594,10.285079 L 9.3789594,9.6848548"
       id="path7834" />
    <use
       x="0"
       y="0"
       xlink:href="#path7913"
       id="use7949"
       width="16"
       height="16"
       transform="translate(0,9)" />
    <use
       x="0"
       y="0"
       xlink:href="#path7913"
       id="use7927"
       transform="translate(0,6)"
       width="16"
       height="16" />
    <use
       x="0"
       y="0"
       xlink:href="#path7913"
       id="use7923"
       transform="translate(0,3)"
       width="16"
       height="16" />
    <path
       style="fill:url(#linearGradient7943);fill-opacity:1;fill-rule:evenodd;stroke:url(#linearGradient7935);stroke-width:1;stroke-linecap:round;stroke-linejoin:miter;stroke-miterlimit:4;stroke-dasharray:none;stroke-opacity:1"
       d="M 1.28125,2.5 C 0.8156215,2.6042783 0.48851392,3.022976 0.5,3.5 C 0.5,4.5 0.5,5.5 1.5,5.5 C 2.2049011,5.5001714 2.75,5.5 3.5,5.5 C 3.8606359,5.5051003 4.1960814,5.3156247 4.3778877,5.0041272 C 4.5596941,4.6926296 4.5596941,4.3073704 4.3778877,3.9958728 C 4.1960814,3.6843753 3.8606359,3.4948997 3.5,3.5 C 2.8680939,3.5 2.6634935,3.5001006 2.5,3.5 C 2.48864,3.2031294 2.3458821,2.8641761 2.1104031,2.6830384 C 1.8749242,2.5019008 1.571102,2.434831 1.28125,2.5 z "
       id="path7913"
       sodipodi:nodetypes="cccsssscsc" />
  </g>
</svg>
