<svg xmlns="http://www.w3.org/2000/svg" width="128" version="1.0" height="128">
    <g transform="translate(-280 -2122)">
        <g fill="#87bae1">
            <path style="marker:none" d="M300.68 2134.1c-4.799-.023-8.689 3.89-8.689 8.69v86.89h95.454c4.947 0 8.689-3.442 8.689-8.735v-69.998c0-4.799-3.89-8.692-8.69-8.689l-51.444-.024-8-8z" fill="#6aa9da"/>
            <path style="marker:none" d="M344 2156.234l-8.689 8.278h-34.63a8.689 8.689 0 0 0-8.69 8.689v65.167h95.49c4.32 0 8.653-3.596 8.653-8.685v-64.734c0-4.799-3.89-8.686-8.69-8.689z" fill="#f7fbfd"/>
            <path style="marker:none" d="M396.134 2225.632v4.047a8.689 8.689 0 0 1-8.69 8.69h-95.578v-4.048h95.579a8.689 8.689 0 0 0 8.689-8.69z" fill="#e6e6e6"/>
        </g>
        <path style="line-height:normal;-inkscape-font-specification:Sans;text-indent:0;text-align:start;text-decoration-line:none;text-transform:none;marker:none" d="M331.032 2178.734a2.5 2.5 0 0 0-2.032 2.5v32.5a2.5 2.5 0 0 0 2.5 2.5h25a2.5 2.5 0 0 0 2.5-2.5v-23.594a2.5 2.5 0 0 0-.703-1.796l-8.906-8.907a2.5 2.5 0 0 0-1.797-.703H331.5a2.5 2.5 0 0 0-.234 0 2.5 2.5 0 0 0-.234 0zm2.968 5h12.5v7.5h7.5v20h-20z" color="#000" font-weight="400" font-family="Sans" overflow="visible" fill="#87bae1"/>
    </g>
</svg>
