<svg xmlns="http://www.w3.org/2000/svg" width="128" version="1.0" height="128">
    <g transform="translate(-420 -1642)">
        <g fill="#87bae1">
            <path style="marker:none" d="M440.68 1653.866c-4.799-.023-8.689 3.89-8.689 8.69v86.889h95.454c4.947 0 8.689-3.442 8.689-8.734v-69.998c0-4.799-3.89-8.692-8.69-8.69L476 1662l-8-8z" fill="#6aa9da"/>
            <path style="marker:none" d="M484 1676l-8.689 8.278h-34.63a8.689 8.689 0 0 0-8.69 8.689v65.167h95.49c4.32 0 8.653-3.597 8.653-8.686v-64.733c0-4.799-3.89-8.686-8.69-8.689z" fill="#f7fbfd"/>
            <path style="marker:none" d="M536.134 1745.398v4.047a8.689 8.689 0 0 1-8.69 8.689h-95.578v-4.047h95.579a8.689 8.689 0 0 0 8.689-8.69z" fill="#e6e6e6"/>
        </g>
        <path style="line-height:normal;font-variant-ligatures:normal;font-variant-position:normal;font-variant-caps:normal;font-variant-numeric:normal;font-variant-alternates:normal;font-feature-settings:normal;text-indent:0;text-align:start;text-decoration-line:none;text-decoration-style:solid;text-decoration-color:#000;text-transform:none;text-orientation:mixed;white-space:normal;shape-padding:0;isolation:auto;mix-blend-mode:normal;solid-color:#000;solid-opacity:1;marker:none" d="M480.737 1700.251c-7.572 0-13.764 6.185-13.764 13.749 0 7.564 6.192 13.749 13.764 13.749 2.887 0 5.572-.902 7.791-2.434l9.212 9.203a2.5 2.5 0 1 0 3.535-3.536l-9.21-9.2a13.638 13.638 0 0 0 2.436-7.782c0-7.564-6.192-13.749-13.764-13.749zm0 4.998A8.719 8.719 0 0 1 489.5 1714a8.719 8.719 0 0 1-8.762 8.751 8.719 8.719 0 0 1-8.76-8.751 8.719 8.719 0 0 1 8.76-8.751z" color="#000" font-weight="400" font-family="sans-serif" overflow="visible" fill="#87bae1"/>
    </g>
</svg>
