<svg xmlns="http://www.w3.org/2000/svg" width="128" version="1.0" height="128">
    <g transform="translate(-140 -2122)">
        <g fill="#87bae1">
            <path style="marker:none" d="M160.68 2134.1c-4.799-.023-8.689 3.89-8.689 8.69v86.89h95.454c4.947 0 8.689-3.442 8.689-8.735v-69.998c0-4.799-3.89-8.692-8.69-8.689l-51.444-.024-8-8z" fill="#6aa9da"/>
            <path style="marker:none" d="M204 2156.234l-8.689 8.278h-34.63a8.689 8.689 0 0 0-8.69 8.689v65.167h95.49c4.32 0 8.653-3.596 8.653-8.685v-64.734c0-4.799-3.89-8.686-8.69-8.689z" fill="#f7fbfd"/>
            <path style="marker:none" d="M256.134 2225.632v4.047a8.689 8.689 0 0 1-8.69 8.69h-95.578v-4.048h95.579a8.689 8.689 0 0 0 8.689-8.69z" fill="#e6e6e6"/>
        </g>
        <path style="isolation:auto;mix-blend-mode:normal;solid-color:#000;solid-opacity:1;marker:none" d="M202.71 2190.73h2.5c.693 0 1.25.502 1.25 1.125v2.75c0 .623-.557 1.125-1.25 1.125h-2.5c-.692 0-1.25-.502-1.25-1.125v-2.75c0-.623.558-1.125 1.25-1.125zm0-7.5h2.5c.693 0 1.25.558 1.25 1.25v2.5c0 .693-.557 1.25-1.25 1.25h-2.5c-.692 0-1.25-.557-1.25-1.25v-2.5c0-.692.558-1.25 1.25-1.25zm0 15h2.5c.693 0 1.25.558 1.25 1.25v2.5c0 .693-.557 1.25-1.25 1.25h-2.5c-.692 0-1.25-.557-1.25-1.25v-2.5c0-.692.558-1.25 1.25-1.25zm-13.75 2.508v2.578a2.6 2.6 0 0 0 .782 1.719l13.047 13.203 2.422-.01 13.047-13.195c.47-.47.703-1.134.703-1.797v-2.5h-4.268c-.663 0-1.326.233-1.797.703l-8.89 9.611-.006.352-.046-.352-8.961-9.611c-.487-.527-1.173-.758-1.875-.703z" color="#000" overflow="visible" fill="#87bae1"/>
    </g>
</svg>
