<?xml version="1.0" encoding="UTF-8"?>
<svg height="128px" viewBox="0 0 128 128" width="128px" xmlns="http://www.w3.org/2000/svg" xmlns:xlink="http://www.w3.org/1999/xlink">
    <linearGradient id="a" gradientTransform="matrix(0.45451 0 0 0.455522 -1210.292114 616.172607)" gradientUnits="userSpaceOnUse" x1="2689.251953" x2="2918.069824" y1="-1106.802979" y2="-1106.802979">
        <stop offset="0" stop-color="#62a0ea"/>
        <stop offset="0.0576991" stop-color="#afd4ff"/>
        <stop offset="0.122204" stop-color="#62a0ea"/>
        <stop offset="0.873306" stop-color="#62a0ea"/>
        <stop offset="0.955997" stop-color="#c0d5ea"/>
        <stop offset="1" stop-color="#62a0ea"/>
    </linearGradient>
    <path d="m 21.976562 12 c -5.527343 0 -9.976562 4.460938 -9.976562 10 v 84 c 0 5.539062 4.449219 10 9.976562 10 h 84.042969 c 5.53125 0 9.980469 -4.460938 9.980469 -10 v -72 c 0 -6.628906 -5.359375 -12 -11.972656 -12 h -46.027344 c -2.480469 0 -4.78125 -1.304688 -6.0625 -3.4375 l -0.84375 -1.410156 c -1.921875 -3.195313 -5.371094 -5.152344 -9.09375 -5.152344 z m 0 0" fill="#438de6"/>
    <path d="m 65.976562 36 c -2.746093 0 -5.226562 1.101562 -7.027343 2.890625 c -2.273438 2.253906 -5.382813 5.109375 -8.632813 5.109375 h -28.339844 c -5.527343 0 -9.976562 4.460938 -9.976562 10 v 52 c 0 5.539062 4.449219 10 9.976562 10 h 84.042969 c 5.53125 0 9.980469 -4.460938 9.980469 -10 v -60 c 0 -5.539062 -4.449219 -10 -9.980469 -10 z m 0 0" fill="url(#a)"/>
    <path d="m 65.976562 32 c -2.746093 0 -5.226562 1.101562 -7.027343 2.890625 c -2.273438 2.253906 -5.382813 5.109375 -8.632813 5.109375 h -28.339844 c -5.527343 0 -9.976562 4.460938 -9.976562 10 v 54 c 0 5.539062 4.449219 10 9.976562 10 h 84.042969 c 5.53125 0 9.980469 -4.460938 9.980469 -10 v -62 c 0 -5.539062 -4.449219 -10 -9.980469 -10 z m 0 0" fill="#a4caee"/>
    <path d="m 74 56 c -3.3125 0 -6 2.679688 -6 6 c 0 0.242188 0.023438 0.492188 0.054688 0.734375 l -9.890626 4.945313 c -1.117187 -1.078126 -2.609374 -1.679688 -4.164062 -1.679688 c -3.3125 0 -6 2.679688 -6 6 c 0 3.3125 2.6875 6 6 6 c 1.546875 -0.007812 3.039062 -0.617188 4.148438 -1.6875 l 9.90625 4.945312 c -0.03125 0.242188 -0.054688 0.492188 -0.054688 0.742188 c 0 3.3125 2.6875 6 6 6 s 6 -2.6875 6 -6 c 0 -3.320312 -2.6875 -6 -6 -6 c -1.546875 0 -3.039062 0.609375 -4.148438 1.6875 l -9.90625 -4.953125 c 0.03125 -0.242187 0.054688 -0.492187 0.054688 -0.734375 c 0 -0.25 -0.015625 -0.5 -0.046875 -0.742188 l 9.890625 -4.945312 c 1.117188 1.070312 2.609375 1.679688 4.15625 1.6875 c 3.3125 0 6 -2.6875 6 -6 c 0 -3.320312 -2.6875 -6 -6 -6 z m 0 0" fill="#438de6"/>
</svg>
