<?xml version="1.0" encoding="UTF-8"?>
<svg height="16px" viewBox="0 0 16 16" width="16px" xmlns="http://www.w3.org/2000/svg">
    <path d="m 5 1 s -0.707031 -0.015625 -1.449219 0.355469 c -0.738281 0.371093 -1.550781 1.3125 -1.550781 2.644531 v 9 s -0.015625 0.707031 0.355469 1.449219 c 0.371093 0.738281 1.3125 1.550781 2.644531 1.550781 h 6 c 1.332031 0 2.273438 -0.8125 2.644531 -1.550781 c 0.371094 -0.742188 0.355469 -1.449219 0.355469 -1.449219 v -7.914062 l -4.085938 -4.085938 z m 0 2 h 4 v 3 h 3 v 7 s -0.015625 0.292969 -0.144531 0.550781 c -0.128907 0.261719 -0.1875 0.449219 -0.855469 0.449219 h -6 c -0.667969 0 -0.726562 -0.1875 -0.855469 -0.449219 c -0.128906 -0.257812 -0.144531 -0.550781 -0.144531 -0.550781 v -9 c 0 -0.667969 0.1875 -0.726562 0.449219 -0.855469 c 0.257812 -0.128906 0.550781 -0.144531 0.550781 -0.144531 z m 0 0" fill="#2e3436" fill-rule="evenodd"/>
</svg>
