<?xml version="1.0" encoding="UTF-8"?>
<svg height="16px" viewBox="0 0 16 16" width="16px" xmlns="http://www.w3.org/2000/svg">
    <path d="m 12.015625 8 l -4 4 l -4 -4 h 0.5 l 3.5 3.5 l 3.5 -3.5 z m 0 0" fill="none" stroke="#2e3436" stroke-linejoin="round" stroke-width="2"/>
    <g fill="#2e3436">
        <path d="m 4.015625 8 v -1 h -1 v 1 z m 0 0"/>
        <path d="m 13.015625 8 v -1 h -1 v 1 z m 0 0"/>
        <path d="m 14.015625 15.5 v -1 c 0 -0.277344 -0.222656 -0.5 -0.5 -0.5 h -11 c -0.277344 0 -0.5 0.222656 -0.5 0.5 v 1 c 0 0.277344 0.222656 0.5 0.5 0.5 h 11 c 0.277344 0 0.5 -0.222656 0.5 -0.5 z m 0 0"/>
        <path d="m 9.015625 10.5 v -9 c 0 -0.277344 -0.222656 -0.5 -0.5 -0.5 h -1 c -0.277344 0 -0.5 0.222656 -0.5 0.5 v 9 c 0 0.277344 0.222656 0.5 0.5 0.5 h 1 c 0.277344 0 0.5 -0.222656 0.5 -0.5 z m 0 0"/>
    </g>
</svg>
