<?xml version="1.0" encoding="UTF-8" standalone="no"?>
<svg
   xmlns:dc="http://purl.org/dc/elements/1.1/"
   xmlns:cc="http://creativecommons.org/ns#"
   xmlns:rdf="http://www.w3.org/1999/02/22-rdf-syntax-ns#"
   xmlns:svg="http://www.w3.org/2000/svg"
   xmlns="http://www.w3.org/2000/svg"
   width="128"
   viewBox="0 0 128 128"
   version="1.0"
   style="display:inline;enable-background:new"
   id="svg11300"
   height="128">
  <title
     id="title4162">Adwaita Icon Template</title>
  <defs
     id="defs3" />
  <metadata
     id="metadata4">
    <rdf:RDF>
      <cc:Work
         rdf:about="">
        <dc:format>image/svg+xml</dc:format>
        <dc:type
           rdf:resource="http://purl.org/dc/dcmitype/StillImage" />
        <dc:creator>
          <cc:Agent>
            <dc:title>GNOME Design Team</dc:title>
          </cc:Agent>
        </dc:creator>
        <dc:source />
        <cc:license
           rdf:resource="http://creativecommons.org/licenses/by-sa/4.0/" />
        <dc:title>Adwaita Icon Template</dc:title>
        <dc:subject>
          <rdf:Bag />
        </dc:subject>
        <dc:date />
        <dc:rights>
          <cc:Agent>
            <dc:title />
          </cc:Agent>
        </dc:rights>
        <dc:publisher>
          <cc:Agent>
            <dc:title />
          </cc:Agent>
        </dc:publisher>
        <dc:identifier />
        <dc:relation />
        <dc:language />
        <dc:coverage />
        <dc:description />
        <dc:contributor>
          <cc:Agent>
            <dc:title />
          </cc:Agent>
        </dc:contributor>
      </cc:Work>
      <cc:License
         rdf:about="http://creativecommons.org/licenses/by-sa/4.0/">
        <cc:permits
           rdf:resource="http://creativecommons.org/ns#Reproduction" />
        <cc:permits
           rdf:resource="http://creativecommons.org/ns#Distribution" />
        <cc:requires
           rdf:resource="http://creativecommons.org/ns#Notice" />
        <cc:requires
           rdf:resource="http://creativecommons.org/ns#Attribution" />
        <cc:permits
           rdf:resource="http://creativecommons.org/ns#DerivativeWorks" />
        <cc:requires
           rdf:resource="http://creativecommons.org/ns#ShareAlike" />
      </cc:License>
    </rdf:RDF>
  </metadata>
  <g
     transform="translate(-280,-2122)"
     style="display:inline"
     id="layer9">
    <g
       style="display:inline;enable-background:new"
       id="g5719">
      <title
         id="title5733">folder-documents</title>
      <g
         transform="matrix(0.25,0,0,0.25,280,2175.2342)"
         style="fill:#87bae1"
         id="use8882">
        <path
           style="display:inline;opacity:1;vector-effect:none;fill:#98c1f1;fill-opacity:1;stroke:none;stroke-width:26.06693268;stroke-linecap:butt;stroke-linejoin:miter;stroke-miterlimit:4;stroke-dasharray:none;stroke-dashoffset:0;stroke-opacity:1;marker:none;marker-start:none;marker-mid:none;marker-end:none;paint-order:normal;enable-background:new"
           id="path1007"
           d="m 82.72039,-164.53549 c -19.194944,-0.0941 -34.755921,15.56075 -34.755921,34.75591 V 217.7796 H 429.77938 c 19.78984,0 34.75612,-13.76588 34.75612,-34.93672 V -97.148681 c 0,-19.195149 -15.56076,-34.767409 -34.75591,-34.755899 L 224,-132 192,-164 Z" />
        <path
           style="display:inline;opacity:1;vector-effect:none;fill:#f6f5f4;fill-opacity:1;stroke:none;stroke-width:26.06693268;stroke-linecap:butt;stroke-linejoin:miter;stroke-miterlimit:4;stroke-dasharray:none;stroke-dashoffset:0;stroke-opacity:1;marker:none;marker-start:none;marker-mid:none;marker-end:none;paint-order:normal;enable-background:new"
           id="path1009"
           d="m 256,-76 -34.75601,33.110199 H 82.72039 c -19.195174,0 -34.755921,15.56077 -34.755921,34.7559274 V 252.53551 H 429.9233 c 17.2845,0 34.6122,-14.38562 34.6122,-34.74196 V -41.139801 c 0,-19.195161 -15.56076,-34.744388 -34.75591,-34.755908 z" />
        <path
           style="display:inline;opacity:1;vector-effect:none;fill:#98c1f1;fill-opacity:1;stroke:none;stroke-width:26.06693077;stroke-linecap:butt;stroke-linejoin:miter;stroke-miterlimit:4;stroke-dasharray:none;stroke-dashoffset:0;stroke-opacity:1;marker:none;marker-start:none;marker-mid:none;marker-end:none;paint-order:normal;enable-background:new"
           id="path1011"
           d="m 464.5355,201.59072 v 16.18888 c 0,19.19515 -15.56076,34.7559 -34.75591,34.75591 H 47.464469 V 236.3465 H 429.77959 c 19.1951,0 34.75583,-15.56068 34.75591,-34.75578 z" />
      </g>
      <g
         transform="matrix(2.5,0,0,2.5,-225.9995,1966.2339)"
         style="display:inline"
         id="g11114">
        <g
           transform="translate(171.9998,-313.99988)"
           id="use11112">
          <path
             style="color:#000000;font-style:normal;font-variant:normal;font-weight:normal;font-stretch:normal;font-size:medium;line-height:normal;font-family:Sans;-inkscape-font-specification:Sans;text-indent:0;text-align:start;text-decoration:none;text-decoration-line:none;letter-spacing:normal;word-spacing:normal;text-transform:none;writing-mode:lr-tb;direction:ltr;baseline-shift:baseline;text-anchor:start;display:inline;overflow:visible;visibility:visible;fill:#98c1f1;fill-opacity:1;stroke:none;stroke-width:1.99999988;marker:none;enable-background:accumulate"
             id="path8914"
             d="m 50.812695,399 a 1.0000999,1.0000999 0 0 0 -0.8125,1 v 13 a 1.0000999,1.0000999 0 0 0 1,1 h 10 a 1.0000999,1.0000999 0 0 0 1,-1 v -9.4375 a 1.0000999,1.0000999 0 0 0 -0.28125,-0.71875 l -3.5625,-3.5625 A 1.0000999,1.0000999 0 0 0 57.437695,399 h -6.4375 a 1.0000999,1.0000999 0 0 0 -0.0937,0 1.0000999,1.0000999 0 0 0 -0.0937,0 z m 1.1875,2 h 5 v 3 h 3 v 8 h -8 z" />
        </g>
      </g>
    </g>
  </g>
</svg>
