<?xml version="1.0" encoding="UTF-8"?>
<svg height="16px" viewBox="0 0 16 16" width="16px" xmlns="http://www.w3.org/2000/svg">
    <g fill="#2e3436">
        <path d="m 6.96875 10.007812 l 0.03125 3.992188 h -5.5 c -0.277344 0 -0.5 0.222656 -0.5 0.5 v 1 c 0 0.277344 0.222656 0.5 0.5 0.5 h 13 c 0.277344 0 0.5 -0.222656 0.5 -0.5 v -1 c 0 -0.277344 -0.222656 -0.5 -0.5 -0.5 h -5.5 v -4 z m 0 0" fill-rule="evenodd"/>
        <path d="m 4 0 c -1.644531 0 -3 1.355469 -3 3 v 6 c 0 1.644531 1.355469 3 3 3 h 8 c 1.644531 0 3 -1.355469 3 -3 v -4 c 0 -1.644531 -1.355469 -3 -3 -3 h -2.585938 l -1.707031 -1.707031 c -0.1875 -0.1875 -0.441406 -0.292969 -0.707031 -0.292969 z m 0 2 h 2.585938 l 1.707031 1.707031 c 0.1875 0.1875 0.441406 0.292969 0.707031 0.292969 h 3 c 0.5625 0 1 0.4375 1 1 v 4 c 0 0.5625 -0.4375 1 -1 1 h -8 c -0.5625 0 -1 -0.4375 -1 -1 v -6 c 0 -0.5625 0.4375 -1 1 -1 z m 0 0"/>
        <path d="m 2 3 v 1 h 8 v -1 z m 0 0"/>
    </g>
</svg>
