<?xml version="1.0" encoding="UTF-8" standalone="no"?>
<svg
   xmlns:dc="http://purl.org/dc/elements/1.1/"
   xmlns:cc="http://creativecommons.org/ns#"
   xmlns:rdf="http://www.w3.org/1999/02/22-rdf-syntax-ns#"
   xmlns:svg="http://www.w3.org/2000/svg"
   xmlns="http://www.w3.org/2000/svg"
   width="128"
   viewBox="0 0 128 128"
   version="1.0"
   style="display:inline;enable-background:new"
   id="svg11300"
   height="128">
  <title
     id="title4162">Adwaita Icon Template</title>
  <defs
     id="defs3" />
  <metadata
     id="metadata4">
    <rdf:RDF>
      <cc:Work
         rdf:about="">
        <dc:format>image/svg+xml</dc:format>
        <dc:type
           rdf:resource="http://purl.org/dc/dcmitype/StillImage" />
        <dc:creator>
          <cc:Agent>
            <dc:title>GNOME Design Team</dc:title>
          </cc:Agent>
        </dc:creator>
        <dc:source />
        <cc:license
           rdf:resource="http://creativecommons.org/licenses/by-sa/4.0/" />
        <dc:title>Adwaita Icon Template</dc:title>
        <dc:subject>
          <rdf:Bag />
        </dc:subject>
        <dc:date />
        <dc:rights>
          <cc:Agent>
            <dc:title />
          </cc:Agent>
        </dc:rights>
        <dc:publisher>
          <cc:Agent>
            <dc:title />
          </cc:Agent>
        </dc:publisher>
        <dc:identifier />
        <dc:relation />
        <dc:language />
        <dc:coverage />
        <dc:description />
        <dc:contributor>
          <cc:Agent>
            <dc:title />
          </cc:Agent>
        </dc:contributor>
      </cc:Work>
      <cc:License
         rdf:about="http://creativecommons.org/licenses/by-sa/4.0/">
        <cc:permits
           rdf:resource="http://creativecommons.org/ns#Reproduction" />
        <cc:permits
           rdf:resource="http://creativecommons.org/ns#Distribution" />
        <cc:requires
           rdf:resource="http://creativecommons.org/ns#Notice" />
        <cc:requires
           rdf:resource="http://creativecommons.org/ns#Attribution" />
        <cc:permits
           rdf:resource="http://creativecommons.org/ns#DerivativeWorks" />
        <cc:requires
           rdf:resource="http://creativecommons.org/ns#ShareAlike" />
      </cc:License>
    </rdf:RDF>
  </metadata>
  <g
     transform="translate(-140,-1642)"
     style="display:inline"
     id="layer9">
    <g
       style="display:inline;enable-background:new"
       id="g8157">
      <title
         id="title8159">folder-music</title>
      <g
         transform="matrix(0.25,0,0,0.25,140,1695)"
         style="fill:#87bae1"
         id="use6964">
        <path
           style="display:inline;opacity:1;vector-effect:none;fill:#98c1f1;fill-opacity:1;stroke:none;stroke-width:26.06693268;stroke-linecap:butt;stroke-linejoin:miter;stroke-miterlimit:4;stroke-dasharray:none;stroke-dashoffset:0;stroke-opacity:1;marker:none;marker-start:none;marker-mid:none;marker-end:none;paint-order:normal;enable-background:new"
           id="path943"
           d="m 82.72039,-164.53549 c -19.194944,-0.0941 -34.755921,15.56075 -34.755921,34.75591 V 217.7796 H 429.77938 c 19.78984,0 34.75612,-13.76588 34.75612,-34.93672 V -97.148681 c 0,-19.195149 -15.56076,-34.767409 -34.75591,-34.755899 L 224,-132 192,-164 Z" />
        <path
           style="display:inline;opacity:1;vector-effect:none;fill:#f6f5f4;fill-opacity:1;stroke:none;stroke-width:26.06693268;stroke-linecap:butt;stroke-linejoin:miter;stroke-miterlimit:4;stroke-dasharray:none;stroke-dashoffset:0;stroke-opacity:1;marker:none;marker-start:none;marker-mid:none;marker-end:none;paint-order:normal;enable-background:new"
           id="path945"
           d="m 256,-76 -34.75601,33.110199 H 82.72039 c -19.195174,0 -34.755921,15.56077 -34.755921,34.7559274 V 252.53551 H 429.9233 c 17.2845,0 34.6122,-14.38562 34.6122,-34.74196 V -41.139801 c 0,-19.195161 -15.56076,-34.744388 -34.75591,-34.755908 z" />
        <path
           style="display:inline;opacity:1;vector-effect:none;fill:#98c1f1;fill-opacity:1;stroke:none;stroke-width:26.06693077;stroke-linecap:butt;stroke-linejoin:miter;stroke-miterlimit:4;stroke-dasharray:none;stroke-dashoffset:0;stroke-opacity:1;marker:none;marker-start:none;marker-mid:none;marker-end:none;paint-order:normal;enable-background:new"
           id="path947"
           d="m 464.5355,201.59072 v 16.18888 c 0,19.19515 -15.56076,34.7559 -34.75591,34.75591 H 47.464469 V 236.3465 H 429.77959 c 19.1951,0 34.75583,-15.56068 34.75591,-34.75578 z" />
      </g>
      <g
         transform="matrix(2.5,0,0,2.5,-1271,741.00008)"
         style="display:inline"
         id="g6252">
        <path
           transform="matrix(0.1,0,0,0.1,508.4,360.39997)"
           style="color:#000000;font-style:normal;font-variant:normal;font-weight:normal;font-stretch:normal;font-size:medium;line-height:normal;font-family:sans-serif;font-variant-ligatures:normal;font-variant-position:normal;font-variant-caps:normal;font-variant-numeric:normal;font-variant-alternates:normal;font-feature-settings:normal;text-indent:0;text-align:start;text-decoration:none;text-decoration-line:none;text-decoration-style:solid;text-decoration-color:#000000;letter-spacing:normal;word-spacing:normal;text-transform:none;writing-mode:lr-tb;direction:ltr;text-orientation:mixed;dominant-baseline:auto;baseline-shift:baseline;text-anchor:start;white-space:normal;shape-padding:0;clip-rule:nonzero;display:inline;overflow:visible;visibility:visible;opacity:1;isolation:auto;mix-blend-mode:normal;color-interpolation:sRGB;color-interpolation-filters:linearRGB;solid-color:#000000;solid-opacity:1;vector-effect:none;fill:#98c1f1;fill-opacity:1;fill-rule:nonzero;stroke:none;stroke-width:20;stroke-linecap:butt;stroke-linejoin:miter;stroke-miterlimit:4;stroke-dasharray:none;stroke-dashoffset:0;stroke-opacity:1;marker:none;color-rendering:auto;image-rendering:auto;shape-rendering:auto;text-rendering:auto;enable-background:new"
           id="path6170"
           d="m 786.00195,236 v 20 43.41602 c -4.55549,-2.18819 -9.64361,-3.41993 -15,-3.41993 -19.2115,0 -34.99414,15.80218 -34.99414,35.01368 0,19.2115 15.78264,34.99414 34.99414,34.99414 19.16184,0 34.90683,-15.70177 34.98828,-34.84571 h 0.0117 V 256 h 60 v 43.41602 c -4.55549,-2.18819 -9.64361,-3.41993 -15,-3.41993 -19.2115,0 -34.99414,15.80218 -34.99414,35.01368 0,19.2115 15.78264,34.99414 34.99414,34.99414 19.00472,0 34.64173,-15.44682 34.97657,-34.37696 h 0.0234 V 256 236 h -20 -60 z m -15,80.00391 c 8.36251,0 14.93708,6.5416 15,14.88671 v 0.23829 c -0.0629,8.34492 -6.63749,14.86718 -15,14.86718 -8.4027,0 -15.00586,-6.58362 -15.00586,-14.98632 0,-8.4027 6.60316,-15.00586 15.00586,-15.00586 z m 80,0 c 8.36251,0 14.93708,6.5416 15,14.88671 v 0.23829 c -0.0629,8.34492 -6.63749,14.86718 -15,14.86718 -8.4027,0 -15.00586,-6.58362 -15.00586,-14.98632 0,-8.4027 6.60316,-15.00586 15.00586,-15.00586 z" />
      </g>
    </g>
  </g>
</svg>
