<svg xmlns="http://www.w3.org/2000/svg" width="128" version="1.0" height="128">
    <g transform="translate(-420 -1962)">
        <g fill="#87bae1">
            <path style="marker:none" d="M440.68 1973.866c-4.799-.023-8.689 3.89-8.689 8.69v86.889h95.454c4.947 0 8.689-3.442 8.689-8.734v-69.998c0-4.799-3.89-8.692-8.69-8.69L476 1982l-8-8z" fill="#6aa9da"/>
            <path style="marker:none" d="M484 1996l-8.689 8.278h-34.63a8.689 8.689 0 0 0-8.69 8.689v65.167h95.49c4.32 0 8.653-3.597 8.653-8.686v-64.733c0-4.799-3.89-8.686-8.69-8.689z" fill="#f7fbfd"/>
            <path style="marker:none" d="M536.134 2065.398v4.047a8.689 8.689 0 0 1-8.69 8.689h-95.578v-4.047h95.579a8.689 8.689 0 0 0 8.689-8.69z" fill="#e6e6e6"/>
        </g>
        <g transform="matrix(-2.5 0 0 2.5 554 1326)" color="#bebebe" fill="#87bae1">
            <rect y="280" x="21.031" width="9.969" style="marker:none" ry="1" rx="1" height="9" overflow="visible"/>
            <path style="marker:none" d="M31 284.47l3.47-3.47H35v7h-.5z" overflow="visible"/>
        </g>
    </g>
</svg>
