<svg xmlns="http://www.w3.org/2000/svg" width="128" version="1.0" height="128">
    <g transform="translate(0 -2122)">
        <g fill="#87bae1">
            <path style="marker:none" d="M20.68 2134.1c-4.799-.023-8.689 3.89-8.689 8.69v86.89h95.454c4.947 0 8.689-3.442 8.689-8.735v-69.998c0-4.799-3.89-8.692-8.69-8.689L56 2142.234l-8-8z" fill="#6aa9da"/>
            <path style="marker:none" d="M64 2156.234l-8.689 8.278h-34.63a8.689 8.689 0 0 0-8.69 8.689v65.167h95.49c4.32 0 8.653-3.596 8.653-8.685v-64.734c0-4.799-3.89-8.686-8.69-8.689z" fill="#f7fbfd"/>
            <path style="marker:none" d="M116.134 2225.632v4.047a8.689 8.689 0 0 1-8.69 8.69H11.867v-4.048h95.579a8.689 8.689 0 0 0 8.689-8.69z" fill="#e6e6e6"/>
        </g>
        <path style="marker:none" d="M60 2182.778a2.507 2.507 0 0 0-2.5 2.5v2.5H50c-1.38 0-2.5 1.125-2.5 2.5v20c0 1.375 1.12 2.5 2.5 2.5h30c1.38 0 2.5-1.125 2.5-2.5v-20c0-1.375-1.12-2.5-2.5-2.5h-7.5v-2.5c0-1.375-1.125-2.5-2.5-2.5zm5 7.5c5.523 0 10 4.477 10 10s-4.477 10-10 10-10-4.477-10-10 4.477-10 10-10zm0 5a5 5 0 1 0 0 10 5 5 0 0 0 0-10z" color="#bebebe" overflow="visible" fill="#87bae1"/>
    </g>
</svg>
