<svg xmlns="http://www.w3.org/2000/svg" width="128" version="1.0" height="128">
    <g transform="translate(0 -1802)">
        <path style="marker:none" d="M20.634 1814.297a8.673 8.673 0 0 0-8.673 8.674v86.732h95.405c4.938 0 8.673-3.436 8.673-8.719v-69.34a8.673 8.673 0 0 0-8.673-8.673h-52.04l-8.672-8.674z" fill="#6aa9da"/>
        <path style="marker:none" d="M64.083 1846.456l-9.125 9.125h-36.5a9.125 9.125 0 0 0-9.125 9.125l2.71 53.191h95.442c4.313 0 8.637-3.59 8.637-8.67l2.71-53.646c.255-5.033-4.085-9.123-9.124-9.125z" fill="#f7fbfd"/>
        <path style="marker:none" d="M116.134 1905.278v4.048a8.689 8.689 0 0 1-8.69 8.689H11.867v-3.926h95.579c4.799 0 8.689-4.012 8.689-8.81z" fill="#e6e6e6"/>
    </g>
</svg>
