<svg xmlns="http://www.w3.org/2000/svg" width="128" version="1.0" height="128">
    <g transform="translate(0 -1962)">
        <g fill="#87bae1">
            <path style="marker:none" d="M20.68 1973.866c-4.799-.023-8.689 3.89-8.689 8.69v86.889h95.454c4.947 0 8.689-3.442 8.689-8.734v-69.998c0-4.799-3.89-8.692-8.69-8.69L56 1982l-8-8z" fill="#6aa9da"/>
            <path style="marker:none" d="M64 1996l-8.689 8.278h-34.63a8.689 8.689 0 0 0-8.69 8.689v65.167h95.49c4.32 0 8.653-3.597 8.653-8.686v-64.733c0-4.799-3.89-8.686-8.69-8.689z" fill="#f7fbfd"/>
            <path style="marker:none" d="M116.134 2065.398v4.047a8.689 8.689 0 0 1-8.69 8.689H11.867v-4.047h95.579a8.689 8.689 0 0 0 8.689-8.69z" fill="#e6e6e6"/>
        </g>
        <g transform="matrix(2.5 0 0 2.5 -75 1022.55)" color="#000" fill="#87bae1">
            <rect y="407" x="51" width="1" style="marker:none" height="1" overflow="visible" fill-rule="evenodd"/>
            <rect y="408" x="50" width="1" style="marker:none" height="1" overflow="visible" fill-rule="evenodd"/>
            <rect y="409" x="51" width="1" style="marker:none" height="1" overflow="visible" fill-rule="evenodd"/>
            <rect y="410" x="50" width="1" style="marker:none" height="1" overflow="visible" fill-rule="evenodd"/>
            <rect y="411" x="51" width="1" style="marker:none" height="1" overflow="visible" fill-rule="evenodd"/>
            <rect y="412" x="50" width="1" style="marker:none" height="1" overflow="visible" fill-rule="evenodd"/>
            <rect y="412" x="52" width="1" style="marker:none" height="1" overflow="visible" fill-rule="evenodd"/>
            <rect y="412" x="54" width="1" style="marker:none" height="1" overflow="visible" fill-rule="evenodd"/>
            <rect y="412" x="56" width="1" style="marker:none" height="1" overflow="visible" fill-rule="evenodd"/>
            <rect y="412" x="58" width="1" style="marker:none" height="1" overflow="visible" fill-rule="evenodd"/>
            <path style="line-height:normal;-inkscape-font-specification:Sans;text-indent:0;text-align:start;text-decoration-line:none;text-transform:none;marker:none" d="M50.813 399c-.459.087-.821.533-.813 1v8h2v-7h5v3h3v7.997h2v-8.435a1.013 1.013 0 0 0-.281-.718l-3.563-3.563a1.012 1.012 0 0 0-.718-.281H51a.976.976 0 0 0-.093 0 .976.976 0 0 0-.094 0z" font-weight="400" font-family="Sans" overflow="visible"/>
            <rect y="413" x="51" width="1" style="marker:none" height="1" overflow="visible" fill-rule="evenodd"/>
            <rect y="413" x="53" width="1" style="marker:none" height="1" overflow="visible" fill-rule="evenodd"/>
            <rect y="413" x="55" width="1" style="marker:none" height="1" overflow="visible" fill-rule="evenodd"/>
            <rect y="413" x="57" width="1" style="marker:none" height="1" overflow="visible" fill-rule="evenodd"/>
            <rect y="413" x="59" width="1" style="marker:none" height="1" overflow="visible" fill-rule="evenodd"/>
            <rect y="411.812" x="60" width="1" style="marker:none" height="1.188" overflow="visible" fill-rule="evenodd"/>
        </g>
    </g>
</svg>
