<svg xmlns="http://www.w3.org/2000/svg" width="128" version="1.0" height="128">
    <g transform="translate(-140 -1802)">
        <path style="marker:none" d="M160.634 1813.961a8.673 8.673 0 0 0-8.674 8.673v86.732h95.405c4.939 0 8.673-3.435 8.673-8.718v-69.34a8.673 8.673 0 0 0-8.673-8.674h-52.039l-8.673-8.673z" fill="#6aa9da"/>
        <path style="marker:none" d="M204 1857.44l-9.125 9.125h-36.5a9.125 9.125 0 0 0-9.125 9.125l2.71 42.35h95.441c4.313 0 8.637-3.59 8.637-8.67l2.71-42.805c.32-5.03-4.12-8.53-9.124-9.125z" fill="#f7fbfd"/>
        <path style="marker:none" d="M256.038 1907.198v2.168a8.673 8.673 0 0 1-8.673 8.673H151.96v-2.168h95.405a8.673 8.673 0 0 0 8.673-8.673z" fill="#e6e6e6"/>
    </g>
</svg>
