<?xml version="1.0" encoding="UTF-8"?>
<svg height="16px" viewBox="0 0 16 16" width="16px" xmlns="http://www.w3.org/2000/svg">
    <g fill="#2e3436">
        <path d="m 2 9.992188 v 1 h 1 v -1 z m 1 1 v 1 h 1 v -1 z m 0 1 h -1 v 1 h 1 z m 0 1 v 1 h 1 v -1 z m 1 1 v 1 h 1 v -1 z m 1 1 v 1 h 1 v -1 z m 1 0 h 1 v -1 h -1 z m 1 0 v 1 h 1 v -1 z m 1 0 h 1 v -1 h -1 z m 1 0 v 1 h 1 v -1 z m 1 0 h 1 v -1 h -1 z m 1 0 v 1 h 1 v -0.992188 h 1 v -1 h -1 v 0.992188 z m 2 -0.992188 h 1 v -1 h -1 z m -9 0.992188 h -1 v 1 h 1 z m -1 0 v -1 h -1 v 1 z m 0 0" fill-rule="evenodd"/>
        <path d="m 5 1 s -0.707031 -0.015625 -1.449219 0.355469 c -0.738281 0.371093 -1.550781 1.3125 -1.550781 2.644531 v 7 h 2 v -7 c 0 -0.667969 0.1875 -0.726562 0.449219 -0.855469 c 0.257812 -0.128906 0.550781 -0.144531 0.550781 -0.144531 h 4.085938 l 2.914062 2.914062 v 7.085938 h 2 v -7.914062 l -4.085938 -4.085938 z m 0 0" fill-rule="evenodd"/>
        <path d="m 9 6 v -4 l 4 4 z m 0 0"/>
    </g>
</svg>
