<?xml version="1.0" encoding="UTF-8"?>
<svg height="16px" viewBox="0 0 16 16" width="16px" xmlns="http://www.w3.org/2000/svg">
    <g fill="#2e3436">
        <path d="m 1.75 4.003906 c -0.953125 0.003906 -1.75 0.800782 -1.75 1.75 v 5.496094 c 0 0.953125 0.796875 1.75 1.75 1.75 h 0.75 s 0.5 0.007812 0.5 0.507812 c 0 0.492188 -0.5 0.492188 -0.5 0.492188 h -0.5 v 1.992188 h 7 v -2 h -0.5 s -0.5 0.007812 -0.5 -0.492188 s 0.5 -0.507812 0.5 -0.507812 h 0.75 c 0.953125 0 1.75 -0.796876 1.75 -1.75 v -5.492188 c 0 -0.953125 -0.796875 -1.75 -1.75 -1.75 z m 0.25 2 l 7 -0.003906 v 4.992188 l -7 0.007812 z m 0 0"/>
        <path d="m 6.75 0 c -0.953125 0 -1.75 0.796875 -1.75 1.75 v 1.25 h 2 v -1 h 7 v 4.992188 l -2 0.007812 v 5 h 2 v -2 l -0.5 -0.007812 s -0.5 0.007812 -0.5 -0.492188 s 0.5 -0.507812 0.5 -0.507812 h 0.75 c 0.953125 0 1.75 -0.796876 1.75 -1.75 v -5.492188 c 0 -0.953125 -0.796875 -1.75 -1.75 -1.75 z m 0 0"/>
    </g>
</svg>
