<?xml version="1.0" encoding="UTF-8"?>
<svg height="16px" viewBox="0 0 16 16" width="16px" xmlns="http://www.w3.org/2000/svg">
    <path d="m 13.628906 0.0078125 c -3.324218 0 -3.949218 4.7304685 -2.078125 4.7304685 c 1.871094 0 5.402344 -4.7304685 2.078125 -4.7304685 z m -5.132812 0.5781255 c -0.054688 0 -0.113282 0.003906 -0.167969 0.011718 c -1.871094 0.242188 -1.214844 3.492188 -0.21875 3.554688 c 0.964844 0.058594 2.019531 -3.558594 0.386719 -3.566406 z m -3.242188 1.289062 c -0.101562 0 -0.207031 0.023438 -0.324218 0.070312 c -1.503907 0.621094 -0.230469 3.183594 0.613281 3.007813 c 0.773437 -0.15625 0.875 -3.105469 -0.289063 -3.082031 z m -2.398437 2.003906 c -0.128907 -0.003906 -0.269531 0.039063 -0.421875 0.144532 c -1.203125 0.832031 0.40625 2.839843 1.113281 2.527343 c 0.621094 -0.269531 0.222656 -2.640625 -0.691406 -2.671875 z m 6.875 1.539063 c -2.582031 -0.042969 -5.984375 1.25 -6.5625 3.851562 c -0.628907 2.8125 2.585937 6.714844 5.941406 6.714844 c 1.652344 0 3.554687 -1.492187 3.914063 -3.378906 c 0.269531 -1.441407 -3.203126 -0.863281 -3.078126 0.085937 c 0.148438 1.144532 -0.839843 1.710938 -1.804687 0.972656 c -3.082031 -2.34375 5.09375 -3.515624 4.558594 -6.71875 c -0.167969 -0.996093 -1.421875 -1.5 -2.96875 -1.527343 z m 0 0" fill="#2e3436"/>
</svg>
