<?xml version="1.0" encoding="UTF-8" standalone="no"?>
<svg
   xmlns:dc="http://purl.org/dc/elements/1.1/"
   xmlns:cc="http://creativecommons.org/ns#"
   xmlns:rdf="http://www.w3.org/1999/02/22-rdf-syntax-ns#"
   xmlns:svg="http://www.w3.org/2000/svg"
   xmlns="http://www.w3.org/2000/svg"
   width="128"
   viewBox="0 0 128 128"
   version="1.0"
   style="display:inline;enable-background:new"
   id="svg11300"
   height="128">
  <title
     id="title4162">Adwaita Icon Template</title>
  <defs
     id="defs3" />
  <metadata
     id="metadata4">
    <rdf:RDF>
      <cc:Work
         rdf:about="">
        <dc:format>image/svg+xml</dc:format>
        <dc:type
           rdf:resource="http://purl.org/dc/dcmitype/StillImage" />
        <dc:creator>
          <cc:Agent>
            <dc:title>GNOME Design Team</dc:title>
          </cc:Agent>
        </dc:creator>
        <dc:source />
        <cc:license
           rdf:resource="http://creativecommons.org/licenses/by-sa/4.0/" />
        <dc:title>Adwaita Icon Template</dc:title>
        <dc:subject>
          <rdf:Bag />
        </dc:subject>
        <dc:date />
        <dc:rights>
          <cc:Agent>
            <dc:title />
          </cc:Agent>
        </dc:rights>
        <dc:publisher>
          <cc:Agent>
            <dc:title />
          </cc:Agent>
        </dc:publisher>
        <dc:identifier />
        <dc:relation />
        <dc:language />
        <dc:coverage />
        <dc:description />
        <dc:contributor>
          <cc:Agent>
            <dc:title />
          </cc:Agent>
        </dc:contributor>
      </cc:Work>
      <cc:License
         rdf:about="http://creativecommons.org/licenses/by-sa/4.0/">
        <cc:permits
           rdf:resource="http://creativecommons.org/ns#Reproduction" />
        <cc:permits
           rdf:resource="http://creativecommons.org/ns#Distribution" />
        <cc:requires
           rdf:resource="http://creativecommons.org/ns#Notice" />
        <cc:requires
           rdf:resource="http://creativecommons.org/ns#Attribution" />
        <cc:permits
           rdf:resource="http://creativecommons.org/ns#DerivativeWorks" />
        <cc:requires
           rdf:resource="http://creativecommons.org/ns#ShareAlike" />
      </cc:License>
    </rdf:RDF>
  </metadata>
  <g
     transform="translate(-280,-1962)"
     style="display:inline"
     id="layer9">
    <g
       style="display:inline;enable-background:new"
       id="g8253">
      <title
         id="title8255">user-bookmark</title>
      <g
         transform="matrix(0.25,0,0,0.25,280,2015)"
         style="fill:#87bae1"
         id="use7887">
        <path
           style="display:inline;opacity:1;vector-effect:none;fill:#98c1f1;fill-opacity:1;stroke:none;stroke-width:26.06693268;stroke-linecap:butt;stroke-linejoin:miter;stroke-miterlimit:4;stroke-dasharray:none;stroke-dashoffset:0;stroke-opacity:1;marker:none;marker-start:none;marker-mid:none;marker-end:none;paint-order:normal;enable-background:new"
           id="path959"
           d="m 82.72039,-164.53549 c -19.194944,-0.0941 -34.755921,15.56075 -34.755921,34.75591 V 217.7796 H 429.77938 c 19.78984,0 34.75612,-13.76588 34.75612,-34.93672 V -97.148681 c 0,-19.195149 -15.56076,-34.767409 -34.75591,-34.755899 L 224,-132 192,-164 Z" />
        <path
           style="display:inline;opacity:1;vector-effect:none;fill:#f6f5f4;fill-opacity:1;stroke:none;stroke-width:26.06693268;stroke-linecap:butt;stroke-linejoin:miter;stroke-miterlimit:4;stroke-dasharray:none;stroke-dashoffset:0;stroke-opacity:1;marker:none;marker-start:none;marker-mid:none;marker-end:none;paint-order:normal;enable-background:new"
           id="path961"
           d="m 256,-76 -34.75601,33.110199 H 82.72039 c -19.195174,0 -34.755921,15.56077 -34.755921,34.7559274 V 252.53551 H 429.9233 c 17.2845,0 34.6122,-14.38562 34.6122,-34.74196 V -41.139801 c 0,-19.195161 -15.56076,-34.744388 -34.75591,-34.755908 z" />
        <path
           style="display:inline;opacity:1;vector-effect:none;fill:#98c1f1;fill-opacity:1;stroke:none;stroke-width:26.06693077;stroke-linecap:butt;stroke-linejoin:miter;stroke-miterlimit:4;stroke-dasharray:none;stroke-dashoffset:0;stroke-opacity:1;marker:none;marker-start:none;marker-mid:none;marker-end:none;paint-order:normal;enable-background:new"
           id="path963"
           d="m 464.5355,201.59072 v 16.18888 c 0,19.19515 -15.56076,34.7559 -34.75591,34.75591 H 47.464469 V 236.3465 H 429.77959 c 19.1951,0 34.75583,-15.56068 34.75591,-34.75578 z" />
      </g>
      <path
         transform="matrix(2.3830216,-0.01983366,0.01983366,2.3830216,-915.10009,1616.2765)"
         style="color:#000000;display:inline;overflow:visible;visibility:visible;opacity:1;vector-effect:none;fill:#98c1f1;fill-opacity:1;fill-rule:nonzero;stroke:none;stroke-width:1.04905188;stroke-linecap:butt;stroke-linejoin:miter;stroke-miterlimit:4;stroke-dasharray:none;stroke-dashoffset:0;stroke-opacity:1;marker:none;enable-background:accumulate"
         id="path11922"
         d="m 530.9488,186.70897 c -0.77941,0.55189 -3.15759,-1.90601 -4.11253,-1.9179 -0.95532,-0.0119 -3.39494,2.38585 -4.16096,1.8149 -0.76573,-0.57072 0.83698,-3.59203 0.55319,-4.50391 -0.2839,-0.91223 -3.31818,-2.49151 -3.01189,-3.39647 0.30617,-0.90461 3.67487,-0.31399 4.45442,-0.86567 0.77986,-0.5519 1.3442,-3.92569 2.29952,-3.91404 0.95494,0.0116 1.43421,3.39798 2.19979,3.9689 0.76588,0.57114 4.14893,0.0653 4.43307,0.97746 0.28402,0.9118 -2.78848,2.41405 -3.09488,3.31858 -0.30652,0.90489 1.21999,3.96605 0.44027,4.51815 z" />
    </g>
  </g>
</svg>
