<?xml version="1.0" encoding="UTF-8"?>
<svg height="16px" viewBox="0 0 16 16" width="16px" xmlns="http://www.w3.org/2000/svg">
    <path d="m 5 0 c -1.332031 0 -2.273438 0.816406 -2.644531 1.554688 c -0.371094 0.738281 -0.355469 1.445312 -0.355469 1.445312 l 0.03125 12.472656 l 5.996094 -2.402344 l 6.003906 2.402344 l -0.03125 -12.476562 c 0 -0.003906 0.011719 -0.707032 -0.355469 -1.441406 c -0.371093 -0.738282 -1.3125 -1.554688 -2.644531 -1.554688 z m 0 2 h 6 c 0.667969 0 0.726562 0.1875 0.855469 0.449219 c 0.128906 0.261719 0.144531 0.550781 0.144531 0.550781 l 0.023438 9.519531 l -3.996094 -1.601562 l -4.003906 1.601562 l -0.023438 -9.523437 c 0 -0.003906 0.015625 -0.289063 0.144531 -0.546875 c 0.128907 -0.261719 0.1875 -0.449219 0.855469 -0.449219 z m 0 0" fill="#2e3436" fill-rule="evenodd"/>
</svg>
