<?xml version="1.0" encoding="UTF-8" standalone="no"?>
<!-- Created with Inkscape (http://www.inkscape.org/) -->
<svg
   xmlns:dc="http://purl.org/dc/elements/1.1/"
   xmlns:cc="http://web.resource.org/cc/"
   xmlns:rdf="http://www.w3.org/1999/02/22-rdf-syntax-ns#"
   xmlns:svg="http://www.w3.org/2000/svg"
   xmlns="http://www.w3.org/2000/svg"
   xmlns:xlink="http://www.w3.org/1999/xlink"
   xmlns:sodipodi="http://sodipodi.sourceforge.net/DTD/sodipodi-0.dtd"
   xmlns:inkscape="http://www.inkscape.org/namespaces/inkscape"
   width="32"
   height="32"
   id="svg2"
   sodipodi:version="0.32"
   inkscape:version="0.45"
   version="1.0"
   sodipodi:docbase="/home/dobey/Projects/gnome-icon-theme/32x32/emotes"
   sodipodi:docname="face-cool.svg"
   inkscape:export-filename="/home/lapo/Desktop/smileys.png"
   inkscape:export-xdpi="90"
   inkscape:export-ydpi="90"
   inkscape:output_extension="org.inkscape.output.svg.inkscape">
  <defs
     id="defs4">
    <linearGradient
       id="linearGradient7638"
       inkscape:collect="always">
      <stop
         id="stop7640"
         offset="0"
         style="stop-color:#729fcf;stop-opacity:1" />
      <stop
         id="stop7642"
         offset="1"
         style="stop-color:#729fcf;stop-opacity:0" />
    </linearGradient>
    <linearGradient
       inkscape:collect="always"
       id="linearGradient7620">
      <stop
         style="stop-color:#2e3436;stop-opacity:1;"
         offset="0"
         id="stop7622" />
      <stop
         style="stop-color:#2e3436;stop-opacity:0;"
         offset="1"
         id="stop7624" />
    </linearGradient>
    <linearGradient
       inkscape:collect="always"
       id="linearGradient7567">
      <stop
         style="stop-color:#ffffff;stop-opacity:1;"
         offset="0"
         id="stop7569" />
      <stop
         style="stop-color:#ffffff;stop-opacity:0;"
         offset="1"
         id="stop7571" />
    </linearGradient>
    <linearGradient
       id="linearGradient7549">
      <stop
         style="stop-color:#000000;stop-opacity:1;"
         offset="0"
         id="stop7551" />
      <stop
         style="stop-color:#888a85;stop-opacity:1"
         offset="1"
         id="stop7553" />
    </linearGradient>
    <linearGradient
       inkscape:collect="always"
       id="linearGradient7519">
      <stop
         style="stop-color:#2e3436;stop-opacity:1"
         offset="0"
         id="stop7521" />
      <stop
         style="stop-color:#2e3436;stop-opacity:0"
         offset="1"
         id="stop7523" />
    </linearGradient>
    <linearGradient
       inkscape:collect="always"
       id="linearGradient8431">
      <stop
         style="stop-color:#ffffff;stop-opacity:1;"
         offset="0"
         id="stop8433" />
      <stop
         style="stop-color:#ffffff;stop-opacity:0;"
         offset="1"
         id="stop8435" />
    </linearGradient>
    <linearGradient
       inkscape:collect="always"
       id="linearGradient3535">
      <stop
         style="stop-color:white;stop-opacity:1;"
         offset="0"
         id="stop3537" />
      <stop
         style="stop-color:white;stop-opacity:0;"
         offset="1"
         id="stop3539" />
    </linearGradient>
    <linearGradient
       id="linearGradient3752">
      <stop
         id="stop3754"
         offset="0"
         style="stop-color:white;stop-opacity:1" />
      <stop
         style="stop-color:#fce94f;stop-opacity:1;"
         offset="0.80000001"
         id="stop3756" />
      <stop
         id="stop3758"
         offset="1"
         style="stop-color:#edd400;stop-opacity:1" />
    </linearGradient>
    <linearGradient
       inkscape:collect="always"
       id="linearGradient3734">
      <stop
         style="stop-color:black;stop-opacity:1;"
         offset="0"
         id="stop3736" />
      <stop
         style="stop-color:black;stop-opacity:0;"
         offset="1"
         id="stop3738" />
    </linearGradient>
    <linearGradient
       id="linearGradient3712">
      <stop
         id="stop3714"
         offset="0"
         style="stop-color:white;stop-opacity:1;" />
      <stop
         id="stop3716"
         offset="1"
         style="stop-color:white;stop-opacity:0.50570345" />
    </linearGradient>
    <radialGradient
       inkscape:collect="always"
       xlink:href="#linearGradient3734"
       id="radialGradient14601"
       gradientUnits="userSpaceOnUse"
       cx="12.046875"
       cy="10.046875"
       fx="12.046875"
       fy="10.046875"
       r="9.546875" />
    <radialGradient
       inkscape:collect="always"
       xlink:href="#linearGradient3752"
       id="radialGradient14603"
       gradientUnits="userSpaceOnUse"
       gradientTransform="matrix(1.200799,0,0,1.200799,-1.921023,-1.565398)"
       cx="9.3747082"
       cy="7.8025141"
       fx="9.3747082"
       fy="7.8025141"
       r="10.049342" />
    <linearGradient
       inkscape:collect="always"
       xlink:href="#linearGradient8431"
       id="linearGradient14605"
       gradientUnits="userSpaceOnUse"
       x1="18.825819"
       y1="-140.43388"
       x2="19.23638"
       y2="-134.38734" />
    <radialGradient
       inkscape:collect="always"
       xlink:href="#linearGradient3712"
       id="radialGradient14607"
       gradientUnits="userSpaceOnUse"
       gradientTransform="matrix(1.242401,0,0,1.242401,-1.281477,-0.839422)"
       cx="5.3851099"
       cy="3.2659137"
       fx="5.3851099"
       fy="3.2659137"
       r="10.108456" />
    <linearGradient
       inkscape:collect="always"
       xlink:href="#linearGradient7549"
       id="linearGradient14609"
       gradientUnits="userSpaceOnUse"
       gradientTransform="scale(0.6666667,0.6666667)"
       x1="22"
       y1="19"
       x2="-3.8114223"
       y2="17.493725" />
    <radialGradient
       inkscape:collect="always"
       xlink:href="#linearGradient7638"
       id="radialGradient14611"
       gradientUnits="userSpaceOnUse"
       gradientTransform="matrix(1.4271074,0,0,0.7135537,-7.225952,2.2588835)"
       cx="11.339117"
       cy="21.94875"
       fx="11.339117"
       fy="21.94875"
       r="8" />
    <linearGradient
       inkscape:collect="always"
       xlink:href="#linearGradient7567"
       id="linearGradient14613"
       gradientUnits="userSpaceOnUse"
       x1="12.3125"
       y1="17.102404"
       x2="12.3125"
       y2="23.001324" />
    <linearGradient
       inkscape:collect="always"
       xlink:href="#linearGradient7549"
       id="linearGradient14615"
       gradientUnits="userSpaceOnUse"
       gradientTransform="scale(0.6666667,0.6666667)"
       x1="40.875"
       y1="20.125"
       x2="19.25"
       y2="16" />
    <radialGradient
       inkscape:collect="always"
       xlink:href="#linearGradient7638"
       id="radialGradient14617"
       gradientUnits="userSpaceOnUse"
       gradientTransform="matrix(-1.4271074,0,0,0.7135537,33.225952,2.2588835)"
       cx="10.472023"
       cy="20.833914"
       fx="10.472023"
       fy="20.833914"
       r="8" />
    <linearGradient
       inkscape:collect="always"
       xlink:href="#linearGradient7567"
       id="linearGradient14619"
       gradientUnits="userSpaceOnUse"
       x1="15.936422"
       y1="17.340279"
       x2="15.936422"
       y2="23.019377" />
    <linearGradient
       inkscape:collect="always"
       xlink:href="#linearGradient7620"
       id="linearGradient14621"
       gradientUnits="userSpaceOnUse"
       gradientTransform="matrix(0.6666667,0,0,0.6666667,0,369.33333)"
       x1="4.5496697"
       y1="15.21875"
       x2="4.5496697"
       y2="14.71875" />
    <radialGradient
       inkscape:collect="always"
       xlink:href="#linearGradient3535"
       id="radialGradient14623"
       gradientUnits="userSpaceOnUse"
       gradientTransform="matrix(0.7788428,0,0,0.2853505,-2.8311238,381.63144)"
       cx="25.350018"
       cy="33.075127"
       fx="25.350018"
       fy="33.075127"
       r="14.499996" />
    <linearGradient
       inkscape:collect="always"
       xlink:href="#linearGradient7519"
       id="linearGradient14625"
       gradientUnits="userSpaceOnUse"
       gradientTransform="matrix(0.6666667,0,0,0.6666667,0,370)"
       x1="43.78125"
       y1="14.6875"
       x2="44.3125"
       y2="13.375" />
  </defs>
  <sodipodi:namedview
     id="base"
     pagecolor="#ffffff"
     bordercolor="#666666"
     borderopacity="1.0"
     inkscape:pageopacity="0"
     inkscape:pageshadow="2"
     inkscape:zoom="1"
     inkscape:cx="20.976871"
     inkscape:cy="-99.842132"
     inkscape:document-units="px"
     inkscape:current-layer="layer1"
     width="32px"
     height="32px"
     inkscape:showpageshadow="false"
     showgrid="false"
     gridempspacing="2"
     gridspacingx="0.5px"
     gridspacingy="0.5px"
     borderlayer="false"
     showborder="true"
     showguides="false"
     inkscape:guide-bbox="true"
     inkscape:window-width="1112"
     inkscape:window-height="940"
     inkscape:window-x="50"
     inkscape:window-y="39"
     inkscape:grid-points="true"
     inkscape:grid-bbox="true"
     inkscape:object-points="false"
     inkscape:object-paths="false">
    <sodipodi:guide
       orientation="vertical"
       position="16"
       id="guide8441" />
    <sodipodi:guide
       orientation="horizontal"
       position="175"
       id="guide8443" />
    <sodipodi:guide
       orientation="horizontal"
       position="167.00978"
       id="guide7776" />
    <sodipodi:guide
       orientation="vertical"
       position="71.020038"
       id="guide7778" />
  </sodipodi:namedview>
  <metadata
     id="metadata7">
    <rdf:RDF>
      <cc:Work
         rdf:about="">
        <dc:format>image/svg+xml</dc:format>
        <dc:type
           rdf:resource="http://purl.org/dc/dcmitype/StillImage" />
        <dc:title>Emotes</dc:title>
        <dc:creator>
          <cc:Agent>
            <dc:title>Lapo Calamandrei</dc:title>
          </cc:Agent>
        </dc:creator>
        <cc:license
           rdf:resource="http://creativecommons.org/licenses/GPL/2.0/" />
      </cc:Work>
      <cc:License
         rdf:about="http://creativecommons.org/licenses/GPL/2.0/">
        <cc:permits
           rdf:resource="http://web.resource.org/cc/Reproduction" />
        <cc:permits
           rdf:resource="http://web.resource.org/cc/Distribution" />
        <cc:requires
           rdf:resource="http://web.resource.org/cc/Notice" />
        <cc:permits
           rdf:resource="http://web.resource.org/cc/DerivativeWorks" />
        <cc:requires
           rdf:resource="http://web.resource.org/cc/ShareAlike" />
        <cc:requires
           rdf:resource="http://web.resource.org/cc/SourceCode" />
      </cc:License>
    </rdf:RDF>
  </metadata>
  <g
     inkscape:label="Livello 1"
     inkscape:groupmode="layer"
     id="layer1"
     style="display:inline">
    <g
       id="g9924"
       transform="translate(0,-370)">
      <path
         inkscape:export-ydpi="90"
         inkscape:export-xdpi="90"
         inkscape:export-filename="/home/lapo/Desktop/something-along-the-lines.png"
         transform="matrix(1.6061103,0,0,0.8030552,-3.3486088,385.59847)"
         d="M 21.59375 10.046875 A 9.546875 9.546875 0 1 1  2.5,10.046875 A 9.546875 9.546875 0 1 1  21.59375 10.046875 z"
         sodipodi:ry="9.546875"
         sodipodi:rx="9.546875"
         sodipodi:cy="10.046875"
         sodipodi:cx="12.046875"
         id="path7722"
         style="opacity:0.4;fill:url(#radialGradient14601);fill-opacity:1;stroke:none;stroke-width:0.46570092;stroke-linecap:round;stroke-linejoin:miter;stroke-miterlimit:4;stroke-dasharray:none;stroke-dashoffset:0;stroke-opacity:1;display:inline"
         sodipodi:type="arc" />
      <path
         sodipodi:nodetypes="csc"
         id="path7724"
         d="M 28.301025,380.33333 C 28.951853,380.33333 29.927303,380.08333 29.602048,379.33333 C 29.276792,378.58333 27.000002,378.33333 27.000002,378.33333"
         style="fill:none;fill-rule:evenodd;stroke:#2e3436;stroke-width:3.00000024;stroke-linecap:round;stroke-linejoin:round;stroke-miterlimit:4;stroke-dasharray:none;stroke-opacity:1;display:inline" />
      <path
         sodipodi:nodetypes="csc"
         id="path7726"
         d="M 28.333335,380.33333 C 29.000327,380.33333 30.000001,380.0463 29.666668,379.18519 C 29.333335,378.32407 27.000001,378.03704 27.000001,378.03704"
         style="fill:none;fill-rule:evenodd;stroke:#d3d7cf;stroke-width:1px;stroke-linecap:round;stroke-linejoin:round;stroke-opacity:1" />
      <path
         sodipodi:nodetypes="csc"
         id="path7728"
         d="M 3.7328929,380.33333 C 3.0659008,380.33333 2.0662261,380.08333 2.3995595,379.33333 C 2.7328928,378.58333 5.0662263,378.33333 5.0662263,378.33333"
         style="fill:none;fill-rule:evenodd;stroke:#2e3436;stroke-width:3.00000024;stroke-linecap:round;stroke-linejoin:round;stroke-miterlimit:4;stroke-dasharray:none;stroke-opacity:1;display:inline" />
      <path
         sodipodi:nodetypes="csc"
         id="path7730"
         d="M 3.7328929,380.33333 C 3.0659008,380.33333 2.0662261,380.08333 2.3995595,379.33333 C 2.7328928,378.58333 5.0662263,378.33333 5.0662263,378.33333"
         style="fill:none;fill-rule:evenodd;stroke:#d3d7cf;stroke-width:1px;stroke-linecap:round;stroke-linejoin:round;stroke-opacity:1;display:inline" />
      <path
         inkscape:export-ydpi="90"
         inkscape:export-xdpi="90"
         inkscape:export-filename="/home/lapo/Desktop/something-along-the-lines.png"
         transform="matrix(1.4141063,0,0,1.4141063,-1.0358578,370.79295)"
         d="M 21.59375 10.046875 A 9.546875 9.546875 0 1 1  2.5,10.046875 A 9.546875 9.546875 0 1 1  21.59375 10.046875 z"
         sodipodi:ry="9.546875"
         sodipodi:rx="9.546875"
         sodipodi:cy="10.046875"
         sodipodi:cx="12.046875"
         id="path7732"
         style="fill:url(#radialGradient14603);fill-opacity:1;stroke:#c4a000;stroke-width:0.70716023;stroke-linecap:round;stroke-linejoin:miter;stroke-miterlimit:4;stroke-dasharray:none;stroke-dashoffset:0;stroke-opacity:1;display:inline"
         sodipodi:type="arc" />
      <path
         inkscape:transform-center-x="1.9734894"
         inkscape:transform-center-y="-7.3651901"
         transform="matrix(1.4718871,-0.394391,0.3035365,1.1328139,27.162035,542.2491)"
         d="M 25.6875 -135.96875 A 6.125 5.96875 0 1 1  13.4375,-135.96875 A 6.125 5.96875 0 1 1  25.6875 -135.96875 z"
         sodipodi:ry="5.96875"
         sodipodi:rx="6.125"
         sodipodi:cy="-135.96875"
         sodipodi:cx="19.5625"
         id="path7734"
         style="fill:url(#linearGradient14605);fill-opacity:1;fill-rule:evenodd;stroke:none;stroke-width:1;stroke-linecap:round;stroke-linejoin:miter;stroke-miterlimit:4;stroke-dasharray:none;stroke-dashoffset:0.69999992;stroke-opacity:1;display:inline"
         sodipodi:type="arc" />
      <path
         id="path7738"
         d="M 4.9791669,380.33333 C 4.2527495,380.33333 3.0000001,380.66667 3.0000001,382.3125 L 3.0000001,383 C 3.0000001,385.33333 5.5273336,386.33333 8.6666671,386.33333 C 11.806001,386.33333 14.333334,385.36042 14.333334,384.14583 L 14.333334,382.375 C 14.683667,382.37554 14.977853,382.10436 15.000001,381.75 C 15.01629,381.74193 15.004954,381.74381 15.062501,381.72917 C 15.258837,381.67919 15.642858,381.66667 16.000001,381.66667 C 16.357143,381.66667 16.741165,381.67919 16.937501,381.72917 C 16.995048,381.74381 16.983712,381.74193 17.000001,381.75 C 17.022148,382.10436 17.316334,382.37554 17.666668,382.375 L 17.666668,384.14583 C 17.666668,385.36042 20.194001,386.33333 23.333334,386.33333 C 26.472668,386.33333 29.000001,385.33333 29.000001,383 L 29.000001,382.3125 C 29.000001,380.66667 27.747252,380.33333 27.020835,380.33333 C 26.000001,380.33333 24.750418,381 22.666668,381 C 20.8154,381 19.645834,381 19.645834,381 C 19.262158,381 18.727281,381.15613 18.312501,381.41667 C 18.258712,381.17305 18.123708,380.94602 17.958334,380.79167 C 17.737836,380.58587 17.500047,380.49585 17.270834,380.4375 C 16.812408,380.32081 16.357143,380.33333 16.000001,380.33333 C 15.642858,380.33333 15.187593,380.32081 14.729167,380.4375 C 14.499955,380.49585 14.262166,380.58587 14.041667,380.79167 C 13.876293,380.94602 13.74129,381.17305 13.687501,381.41667 C 13.272721,381.15613 12.737844,381 12.354167,381 C 12.354167,381 11.184601,381 9.3333338,381 C 7.2495837,381 6.0000003,380.33333 4.9791669,380.33333 z "
         style="opacity:0.15;fill:#000000;fill-opacity:1;stroke:#000000;stroke-width:1;stroke-linecap:square;stroke-linejoin:round;stroke-miterlimit:4;stroke-dasharray:none;stroke-dashoffset:0.7;stroke-opacity:1;display:inline" />
      <path
         inkscape:export-ydpi="90"
         inkscape:export-xdpi="90"
         inkscape:export-filename="/home/lapo/Desktop/something-along-the-lines.png"
         transform="matrix(1.3093302,0,0,1.309329,0.2266511,371.84534)"
         d="M 21.59375 10.046875 A 9.546875 9.546875 0 1 1  2.5,10.046875 A 9.546875 9.546875 0 1 1  21.59375 10.046875 z"
         sodipodi:ry="9.546875"
         sodipodi:rx="9.546875"
         sodipodi:cy="10.046875"
         sodipodi:cx="12.046875"
         id="path7736"
         style="fill:none;fill-opacity:1;stroke:url(#radialGradient14607);stroke-width:0.76374972;stroke-linecap:round;stroke-linejoin:miter;stroke-miterlimit:4;stroke-dasharray:none;stroke-dashoffset:0;stroke-opacity:1;display:inline"
         sodipodi:type="arc" />
      <g
         transform="matrix(1.037037,0,0,1.0019268,-0.5925914,369.80315)"
         id="g7940">
        <path
           style="fill:url(#linearGradient14609);fill-opacity:1;stroke:#000000;stroke-width:0.98103583;stroke-linecap:square;stroke-linejoin:round;stroke-miterlimit:4;stroke-dasharray:none;stroke-dashoffset:0.7;stroke-opacity:1;display:inline"
           d="M 12.354167,10.333334 C 13.081632,10.333334 14.333334,10.918369 14.333334,11.645834 L 14.333334,13.479167 C 14.333334,14.69375 11.806001,15.666667 8.6666671,15.666667 C 5.5273336,15.666667 3.0000001,14.666667 3.0000001,12.333334 L 3.0000001,11.645834 C 3.0000001,10 4.2527495,9.6666671 4.9791669,9.6666671 C 6.0000003,9.6666671 7.2495837,10.333334 9.3333338,10.333334 C 11.184601,10.333334 12.354167,10.333334 12.354167,10.333334 z "
           id="path7740"
           sodipodi:nodetypes="cccsccssc" />
        <path
           sodipodi:type="inkscape:offset"
           inkscape:radius="-0.74213904"
           inkscape:original="M 7.46875 15.5 C 6.379124 15.5 4.5 16 4.5 18.46875 L 4.5 19.5 C 4.5 23 8.291 24.5 13 24.5 C 17.709 24.499999 21.5 23.040624 21.5 21.21875 L 21.5 18.46875 C 21.5 17.377553 19.622447 16.5 18.53125 16.5 C 18.53125 16.5 16.776901 16.5 14 16.5 C 10.874375 16.5 9 15.5 7.46875 15.5 z "
           style="opacity:0.25;fill:url(#radialGradient14611);fill-opacity:1;stroke:none;stroke-width:1;stroke-linecap:square;stroke-linejoin:round;stroke-miterlimit:4;stroke-dasharray:none;stroke-dashoffset:0.7;stroke-opacity:1;display:inline"
           id="path7742"
           d="M 7.46875,16.25 C 7.0374529,16.25 6.4276651,16.350247 6,16.65625 C 5.5723349,16.962253 5.25,17.422672 5.25,18.46875 L 5.25,19.5 C 5.25,20.982052 5.9739492,21.931841 7.34375,22.65625 C 8.7135508,23.380659 10.7243,23.75 13,23.75 C 15.277834,23.75 17.332568,23.390452 18.75,22.84375 C 19.458716,22.570399 20.01451,22.239136 20.34375,21.9375 C 20.67299,21.635864 20.75,21.416842 20.75,21.21875 L 20.75,18.46875 C 20.75,18.348802 20.554918,18.007954 20.0625,17.71875 C 19.570082,17.429546 18.877903,17.25 18.53125,17.25 C 18.53125,17.25 16.776901,17.25 14,17.25 C 10.716084,17.25 8.6768918,16.25 7.46875,16.25 z "
           transform="matrix(0.6666667,0,0,0.6666667,0,-0.6666667)" />
        <path
           sodipodi:type="inkscape:offset"
           inkscape:radius="-1.4884868"
           inkscape:original="M 7.46875 14.5 C 6.379124 14.5 4.5 15 4.5 17.46875 L 4.5 18.5 C 4.5 22 8.291 23.5 13 23.5 C 17.709 23.499999 21.5 22.040624 21.5 20.21875 L 21.5 17.46875 C 21.5 16.377553 19.622447 15.5 18.53125 15.5 C 18.53125 15.5 16.776901 15.5 14 15.5 C 10.874375 15.5 9 14.5 7.46875 14.5 z "
           style="opacity:0.15;fill:none;fill-opacity:1;stroke:url(#linearGradient14613);stroke-width:1.47155392;stroke-linecap:square;stroke-linejoin:round;stroke-miterlimit:4;stroke-dasharray:none;stroke-dashoffset:0.7;stroke-opacity:1;display:inline"
           id="path7744"
           d="M 7.46875,16 C 7.1516125,16 6.6858348,16.103562 6.4375,16.28125 C 6.1891652,16.458938 6,16.612036 6,17.46875 L 6,18.5 C 6,19.712585 6.4852179,20.364182 7.6875,21 C 8.8897821,21.635818 10.803547,22 13,22 C 15.200734,22 17.170936,21.656816 18.46875,21.15625 C 19.117657,20.905967 19.61482,20.615986 19.84375,20.40625 C 20.07268,20.196514 20,20.158005 20,20.21875 L 20,17.46875 C 20,17.776866 20.034656,17.565993 19.65625,17.34375 C 19.277844,17.121507 18.677829,17 18.53125,17 C 18.53125,17 16.776901,17 14,17 C 10.556895,17 8.3519513,16 7.46875,16 z "
           transform="scale(0.6666667,0.6666667)" />
        <path
           style="fill:url(#linearGradient14615);fill-opacity:1;stroke:#000000;stroke-width:0.98103583;stroke-linecap:square;stroke-linejoin:round;stroke-miterlimit:4;stroke-dasharray:none;stroke-dashoffset:0.7;stroke-opacity:1;display:inline"
           d="M 19.645834,10.333334 C 18.91837,10.333334 17.666668,10.918369 17.666668,11.645834 L 17.666668,13.479167 C 17.666668,14.69375 20.194001,15.666667 23.333334,15.666667 C 26.472668,15.666667 29.000001,14.666667 29.000001,12.333334 L 29.000001,11.645834 C 29.000001,10 27.747252,9.6666671 27.020835,9.6666671 C 26.000001,9.6666671 24.750418,10.333334 22.666668,10.333334 C 20.8154,10.333334 19.645834,10.333334 19.645834,10.333334 z "
           id="path7754"
           sodipodi:nodetypes="cccsccssc" />
        <path
           sodipodi:type="inkscape:offset"
           inkscape:radius="-0.74417919"
           inkscape:original="M 7.46875 15.5 C 6.379124 15.5 4.5 16 4.5 18.46875 L 4.5 19.5 C 4.5 23 8.291 24.5 13 24.5 C 17.709 24.499999 21.5 23.040624 21.5 21.21875 L 21.5 18.46875 C 21.5 17.377553 19.622447 16.5 18.53125 16.5 C 18.53125 16.5 16.776901 16.5 14 16.5 C 10.874375 16.5 9 15.5 7.46875 15.5 z "
           style="opacity:0.25;fill:url(#radialGradient14617);fill-opacity:1;stroke:none;stroke-width:1;stroke-linecap:square;stroke-linejoin:round;stroke-miterlimit:4;stroke-dasharray:none;stroke-dashoffset:0.7;stroke-opacity:1;display:inline"
           id="path7756"
           d="M 7.46875,16.25 C 7.0377649,16.25 6.4271749,16.350598 6,16.65625 C 5.5728251,16.961902 5.25,17.423189 5.25,18.46875 L 5.25,19.5 C 5.25,20.981316 5.9744071,21.932084 7.34375,22.65625 C 8.7130929,23.380416 10.724517,23.75 13,23.75 C 15.277623,23.75 17.332895,23.390326 18.75,22.84375 C 19.458553,22.570462 20.014784,22.238885 20.34375,21.9375 C 20.672716,21.636115 20.75,21.416134 20.75,21.21875 L 20.75,18.46875 C 20.75,18.349972 20.554607,18.007771 20.0625,17.71875 C 19.570393,17.429729 18.877356,17.25 18.53125,17.25 C 18.53125,17.25 16.776901,17.25 14,17.25 C 10.715649,17.25 8.6760036,16.25 7.46875,16.25 z "
           transform="matrix(-0.6666667,0,0,0.6666667,32.000002,-0.6666667)" />
        <path
           sodipodi:type="inkscape:offset"
           inkscape:radius="-1.4591036"
           inkscape:original="M 7.46875 14.5 C 6.379124 14.5 4.5 15 4.5 17.46875 L 4.5 18.5 C 4.5 22 8.291 23.5 13 23.5 C 17.709 23.499999 21.5 22.040624 21.5 20.21875 L 21.5 17.46875 C 21.5 16.377553 19.622447 15.5 18.53125 15.5 C 18.53125 15.5 16.776901 15.5 14 15.5 C 10.874375 15.5 9 14.5 7.46875 14.5 z "
           style="opacity:0.15;fill:none;fill-opacity:1;stroke:url(#linearGradient14619);stroke-width:1.47155392;stroke-linecap:square;stroke-linejoin:round;stroke-miterlimit:4;stroke-dasharray:none;stroke-dashoffset:0.7;stroke-opacity:1;display:inline"
           id="path7758"
           d="M 7.46875,15.96875 C 7.1471181,15.96875 6.6928949,16.06726 6.4375,16.25 C 6.1821051,16.43274 5.96875,16.604581 5.96875,17.46875 L 5.96875,18.5 C 5.96875,19.723194 6.4473729,20.391945 7.65625,21.03125 C 8.8651271,21.670555 10.800427,22.03125 13,22.03125 C 15.203769,22.03125 17.197476,21.689882 18.5,21.1875 C 19.151262,20.936309 19.610871,20.650854 19.84375,20.4375 C 20.076629,20.224146 20.03125,20.168195 20.03125,20.21875 L 20.03125,17.46875 C 20.03125,17.760014 20.070395,17.568629 19.6875,17.34375 C 19.304605,17.118871 18.685706,16.96875 18.53125,16.96875 C 18.53125,16.96875 16.776901,16.96875 14,16.96875 C 10.563162,16.96875 8.364744,15.96875 7.46875,15.96875 z "
           transform="matrix(-0.6666667,0,0,0.6666667,32.000002,0)" />
      </g>
      <path
         sodipodi:nodetypes="cs"
         id="path7746"
         d="M 3.7328929,380.33333 C 3.0659008,380.33333 2.0662261,380 2.3995595,379"
         style="fill:none;fill-opacity:1;fill-rule:evenodd;stroke:url(#linearGradient14621);stroke-width:3.00000024;stroke-linecap:round;stroke-linejoin:round;stroke-miterlimit:4;stroke-dasharray:none;stroke-opacity:1;display:inline" />
      <path
         sodipodi:nodetypes="cs"
         id="path7748"
         d="M 3.7328929,380.33333 C 3.0659008,380.33333 2.0662261,380 2.3995595,379"
         style="fill:none;fill-rule:evenodd;stroke:#d3d7cf;stroke-width:1px;stroke-linecap:round;stroke-linejoin:round;stroke-opacity:1;display:inline" />
      <path
         inkscape:export-ydpi="90"
         inkscape:export-xdpi="90"
         inkscape:export-filename="/home/lapo/Desktop/something-along-the-lines.png"
         sodipodi:nodetypes="czc"
         id="path7750"
         d="M 7.2667153,387.8797 C 7.1079392,389.37969 7.9384793,391.25 15.999579,391.25 C 24.060696,391.25 24.732444,389.38892 24.732444,387.8797"
         style="fill:none;fill-rule:evenodd;stroke:url(#radialGradient14623);stroke-width:1.50000024;stroke-linecap:round;stroke-linejoin:miter;stroke-miterlimit:4;stroke-dasharray:none;stroke-opacity:1;display:inline" />
      <path
         inkscape:export-ydpi="90"
         inkscape:export-xdpi="90"
         inkscape:export-filename="/home/lapo/Desktop/something-along-the-lines.png"
         sodipodi:nodetypes="czc"
         id="path7752"
         d="M 7.5526325,387.56844 C 7.5526325,389.41254 8.2024229,390.519 15.999845,390.519 C 23.797284,390.519 24.447059,389.41254 24.447059,387.56844"
         style="fill:none;fill-rule:evenodd;stroke:#c4a000;stroke-width:0.99999982px;stroke-linecap:round;stroke-linejoin:miter;stroke-opacity:1;display:inline" />
      <path
         sodipodi:nodetypes="csc"
         id="path7760"
         d="M 14.333334,381.16667 C 14.333334,380.5 15.285715,380.5 16.000001,380.5 C 16.714286,380.5 17.666668,380.5 17.666668,381.16667"
         style="fill:none;fill-rule:evenodd;stroke:#2e3436;stroke-width:3.00000024;stroke-linecap:round;stroke-linejoin:miter;stroke-miterlimit:4;stroke-dasharray:none;stroke-opacity:1" />
      <path
         sodipodi:nodetypes="csc"
         id="path7762"
         d="M 14.333334,381.16667 C 14.333334,380.5 15.285715,380.5 16.000001,380.5 C 16.714286,380.5 17.666668,380.5 17.666668,381.16667"
         style="fill:none;fill-rule:evenodd;stroke:#d3d7cf;stroke-width:1;stroke-linecap:round;stroke-linejoin:miter;stroke-miterlimit:4;stroke-dasharray:none;stroke-opacity:1;display:inline" />
      <path
         sodipodi:nodetypes="cs"
         id="path7764"
         d="M 28.333335,380.33333 C 29.000327,380.33333 30.000001,380 29.666668,379"
         style="fill:none;fill-opacity:1;fill-rule:evenodd;stroke:url(#linearGradient14625);stroke-width:3.00000024;stroke-linecap:round;stroke-linejoin:round;stroke-miterlimit:4;stroke-dasharray:none;stroke-opacity:1;display:inline" />
      <path
         sodipodi:nodetypes="cs"
         id="path7766"
         d="M 28.333335,380.33333 C 29.000327,380.33333 30.000001,380 29.666668,379"
         style="fill:none;fill-rule:evenodd;stroke:#d3d7cf;stroke-width:1px;stroke-linecap:round;stroke-linejoin:round;stroke-opacity:1;display:inline" />
      <path
         transform="translate(-7.166667,363.83333)"
         d="M 22.5 16.5 A 0.5 0.5 0 1 1  21.5,16.5 A 0.5 0.5 0 1 1  22.5 16.5 z"
         sodipodi:ry="0.5"
         sodipodi:rx="0.5"
         sodipodi:cy="16.5"
         sodipodi:cx="22"
         id="path7768"
         style="fill:#ffffff;fill-opacity:1;stroke:none;stroke-width:1;stroke-linecap:round;stroke-linejoin:round;stroke-miterlimit:4;stroke-dasharray:none;stroke-dashoffset:0.7;stroke-opacity:1"
         sodipodi:type="arc" />
      <path
         transform="translate(-19.500001,363)"
         d="M 22.5 16.5 A 0.5 0.5 0 1 1  21.5,16.5 A 0.5 0.5 0 1 1  22.5 16.5 z"
         sodipodi:ry="0.5"
         sodipodi:rx="0.5"
         sodipodi:cy="16.5"
         sodipodi:cx="22"
         id="path7770"
         style="fill:#ffffff;fill-opacity:1;stroke:none;stroke-width:1;stroke-linecap:round;stroke-linejoin:round;stroke-miterlimit:4;stroke-dasharray:none;stroke-dashoffset:0.7;stroke-opacity:1;display:inline"
         sodipodi:type="arc" />
      <path
         transform="translate(6.5000003,363.66667)"
         d="M 22.5 16.5 A 0.5 0.5 0 1 1  21.5,16.5 A 0.5 0.5 0 1 1  22.5 16.5 z"
         sodipodi:ry="0.5"
         sodipodi:rx="0.5"
         sodipodi:cy="16.5"
         sodipodi:cx="22"
         id="path7772"
         style="fill:#ffffff;fill-opacity:1;stroke:none;stroke-width:1;stroke-linecap:round;stroke-linejoin:round;stroke-miterlimit:4;stroke-dasharray:none;stroke-dashoffset:0.7;stroke-opacity:1;display:inline"
         sodipodi:type="arc" />
    </g>
  </g>
</svg>
