<?xml version="1.0" encoding="UTF-8" standalone="no"?>
<!-- Created with Inkscape (http://www.inkscape.org/) -->
<svg
   xmlns:dc="http://purl.org/dc/elements/1.1/"
   xmlns:cc="http://web.resource.org/cc/"
   xmlns:rdf="http://www.w3.org/1999/02/22-rdf-syntax-ns#"
   xmlns:svg="http://www.w3.org/2000/svg"
   xmlns="http://www.w3.org/2000/svg"
   xmlns:xlink="http://www.w3.org/1999/xlink"
   xmlns:sodipodi="http://sodipodi.sourceforge.net/DTD/sodipodi-0.dtd"
   xmlns:inkscape="http://www.inkscape.org/namespaces/inkscape"
   width="32"
   height="32"
   id="svg2"
   sodipodi:version="0.32"
   inkscape:version="0.45.1"
   version="1.0"
   sodipodi:docbase="/home/lapo/Icone/gnome-icon-theme/32x32/emotes"
   sodipodi:docname="face-angry.svg"
   inkscape:export-filename="/home/lapo/Desktop/smileys.png"
   inkscape:export-xdpi="90"
   inkscape:export-ydpi="90"
   inkscape:output_extension="org.inkscape.output.svg.inkscape">
  <defs
     id="defs4">
    <linearGradient
       inkscape:collect="always"
       id="linearGradient2613">
      <stop
         style="stop-color:#ef2929;stop-opacity:1"
         offset="0"
         id="stop2615" />
      <stop
         style="stop-color:#ef2929;stop-opacity:0"
         offset="1"
         id="stop2617" />
    </linearGradient>
    <linearGradient
       inkscape:collect="always"
       id="linearGradient2607">
      <stop
         style="stop-color:#ef2929;stop-opacity:1"
         offset="0"
         id="stop2609" />
      <stop
         style="stop-color:#ef2929;stop-opacity:0"
         offset="1"
         id="stop2611" />
    </linearGradient>
    <linearGradient
       inkscape:collect="always"
       id="linearGradient3859">
      <stop
         style="stop-color:#000000;stop-opacity:1;"
         offset="0"
         id="stop3861" />
      <stop
         style="stop-color:#000000;stop-opacity:0;"
         offset="1"
         id="stop3863" />
    </linearGradient>
    <linearGradient
       id="linearGradient2566"
       inkscape:collect="always">
      <stop
         id="stop2568"
         offset="0"
         style="stop-color:#ef2929;stop-opacity:1" />
      <stop
         id="stop2570"
         offset="1"
         style="stop-color:#ef2929;stop-opacity:0" />
    </linearGradient>
    <linearGradient
       id="linearGradient2560"
       inkscape:collect="always">
      <stop
         id="stop2562"
         offset="0"
         style="stop-color:#ef2929;stop-opacity:1" />
      <stop
         id="stop2564"
         offset="1"
         style="stop-color:#ef2929;stop-opacity:0" />
    </linearGradient>
    <linearGradient
       inkscape:collect="always"
       id="linearGradient4148">
      <stop
         style="stop-color:#000000;stop-opacity:1;"
         offset="0"
         id="stop4150" />
      <stop
         style="stop-color:#000000;stop-opacity:0;"
         offset="1"
         id="stop4152" />
    </linearGradient>
    <linearGradient
       inkscape:collect="always"
       id="linearGradient4140">
      <stop
         style="stop-color:#ffffff;stop-opacity:1;"
         offset="0"
         id="stop4142" />
      <stop
         style="stop-color:#ffffff;stop-opacity:0;"
         offset="1"
         id="stop4144" />
    </linearGradient>
    <linearGradient
       inkscape:collect="always"
       id="linearGradient3734">
      <stop
         style="stop-color:black;stop-opacity:1;"
         offset="0"
         id="stop3736" />
      <stop
         style="stop-color:black;stop-opacity:0;"
         offset="1"
         id="stop3738" />
    </linearGradient>
    <linearGradient
       id="linearGradient3712">
      <stop
         id="stop3714"
         offset="0"
         style="stop-color:white;stop-opacity:1;" />
      <stop
         id="stop3716"
         offset="1"
         style="stop-color:white;stop-opacity:0.50570345" />
    </linearGradient>
    <linearGradient
       id="linearGradient3936">
      <stop
         id="stop3938"
         offset="0"
         style="stop-color:#fcaf3e;stop-opacity:1" />
      <stop
         style="stop-color:#ef2929;stop-opacity:1;"
         offset="0.64999998"
         id="stop3940" />
      <stop
         id="stop3942"
         offset="1"
         style="stop-color:#c00;stop-opacity:1" />
    </linearGradient>
    <linearGradient
       id="linearGradient3512">
      <stop
         style="stop-color:#babdb6;stop-opacity:1"
         offset="0"
         id="stop3514" />
      <stop
         id="stop3524"
         offset="0.1"
         style="stop-color:#e9ebe7;stop-opacity:1;" />
      <stop
         id="stop3520"
         offset="0.34999999"
         style="stop-color:white;stop-opacity:1;" />
      <stop
         style="stop-color:#e9ebe7;stop-opacity:1;"
         offset="0.89999998"
         id="stop3522" />
      <stop
         style="stop-color:#babdb6;stop-opacity:1"
         offset="1"
         id="stop3516" />
    </linearGradient>
    <linearGradient
       id="linearGradient8431"
       inkscape:collect="always">
      <stop
         id="stop8433"
         offset="0"
         style="stop-color:#ffffff;stop-opacity:1;" />
      <stop
         id="stop8435"
         offset="1"
         style="stop-color:#ffffff;stop-opacity:0;" />
    </linearGradient>
    <linearGradient
       id="linearGradient3696"
       inkscape:collect="always">
      <stop
         id="stop3698"
         offset="0"
         style="stop-color:white;stop-opacity:1;" />
      <stop
         id="stop3700"
         offset="1"
         style="stop-color:white;stop-opacity:0;" />
    </linearGradient>
    <linearGradient
       id="linearGradient7776"
       inkscape:collect="always">
      <stop
         id="stop7778"
         offset="0"
         style="stop-color:#2e3436;stop-opacity:1" />
      <stop
         id="stop7780"
         offset="1"
         style="stop-color:#000000;stop-opacity:1" />
    </linearGradient>
    <linearGradient
       inkscape:collect="always"
       id="linearGradient7802">
      <stop
         style="stop-color:#2e3436;stop-opacity:1"
         offset="0"
         id="stop7804" />
      <stop
         style="stop-color:#000000;stop-opacity:1"
         offset="1"
         id="stop7806" />
    </linearGradient>
    <linearGradient
       id="linearGradient7810"
       inkscape:collect="always">
      <stop
         id="stop7812"
         offset="0"
         style="stop-color:#ffffff;stop-opacity:1;" />
      <stop
         id="stop7814"
         offset="1"
         style="stop-color:#ffffff;stop-opacity:0;" />
    </linearGradient>
    <linearGradient
       id="linearGradient7824"
       inkscape:collect="always">
      <stop
         id="stop7826"
         offset="0"
         style="stop-color:#000000;stop-opacity:1;" />
      <stop
         id="stop7828"
         offset="1"
         style="stop-color:#000000;stop-opacity:0;" />
    </linearGradient>
    <linearGradient
       id="linearGradient6162"
       inkscape:collect="always">
      <stop
         id="stop6164"
         offset="0"
         style="stop-color:#edd400;stop-opacity:1" />
      <stop
         id="stop6166"
         offset="1"
         style="stop-color:#fce94f;stop-opacity:0" />
    </linearGradient>
    <linearGradient
       inkscape:collect="always"
       id="linearGradient4362">
      <stop
         style="stop-color:#ffffff;stop-opacity:1;"
         offset="0"
         id="stop4364" />
      <stop
         style="stop-color:#ffffff;stop-opacity:0;"
         offset="1"
         id="stop4366" />
    </linearGradient>
    <linearGradient
       inkscape:collect="always"
       xlink:href="#linearGradient6162"
       id="linearGradient8036"
       gradientUnits="userSpaceOnUse"
       x1="-80.725792"
       y1="46.293472"
       x2="-80.390656"
       y2="48.825111" />
    <radialGradient
       inkscape:collect="always"
       xlink:href="#linearGradient4362"
       id="radialGradient8146"
       gradientUnits="userSpaceOnUse"
       gradientTransform="matrix(1,0,0,0.4692321,-59,-84.8665)"
       cx="24.062502"
       cy="87.354622"
       fx="24.062502"
       fy="87.354622"
       r="12.249998" />
    <radialGradient
       r="10.108456"
       fy="3.2659137"
       fx="5.3851099"
       cy="3.2659137"
       cx="5.3851099"
       gradientTransform="matrix(1.242401,0,0,1.242401,-1.281477,-0.839422)"
       gradientUnits="userSpaceOnUse"
       id="radialGradient11864"
       xlink:href="#linearGradient3712"
       inkscape:collect="always" />
    <linearGradient
       y2="-134.38734"
       x2="19.23638"
       y1="-140.43388"
       x1="18.825819"
       gradientUnits="userSpaceOnUse"
       id="linearGradient11862"
       xlink:href="#linearGradient8431"
       inkscape:collect="always" />
    <radialGradient
       r="10.049342"
       fy="7.8025141"
       fx="9.3747082"
       cy="7.8025141"
       cx="9.3747082"
       gradientTransform="matrix(1.200799,0,0,1.200799,-1.921023,-1.565398)"
       gradientUnits="userSpaceOnUse"
       id="radialGradient11860"
       xlink:href="#linearGradient3752"
       inkscape:collect="always" />
    <radialGradient
       r="9.546875"
       fy="10.046875"
       fx="12.046875"
       cy="10.046875"
       cx="12.046875"
       gradientUnits="userSpaceOnUse"
       id="radialGradient11858"
       xlink:href="#linearGradient3734"
       inkscape:collect="always" />
    <linearGradient
       id="linearGradient3752">
      <stop
         style="stop-color:white;stop-opacity:1"
         offset="0"
         id="stop3754" />
      <stop
         id="stop3756"
         offset="0.80000001"
         style="stop-color:#fce94f;stop-opacity:1;" />
      <stop
         style="stop-color:#edd400;stop-opacity:1"
         offset="1"
         id="stop3758" />
    </linearGradient>
    <linearGradient
       inkscape:collect="always"
       xlink:href="#linearGradient8431"
       id="linearGradient2450"
       gradientUnits="userSpaceOnUse"
       x1="18.825819"
       y1="-140.43388"
       x2="19.23638"
       y2="-134.38734" />
    <linearGradient
       inkscape:collect="always"
       xlink:href="#linearGradient3512"
       id="linearGradient2454"
       gradientUnits="userSpaceOnUse"
       gradientTransform="matrix(0.9393939,0,0,1,0.6667383,0)"
       x1="4.2496791"
       y1="222.90671"
       x2="17.625618"
       y2="222.90671" />
    <radialGradient
       inkscape:collect="always"
       xlink:href="#linearGradient4148"
       id="radialGradient2456"
       gradientUnits="userSpaceOnUse"
       gradientTransform="matrix(3.6188667,0,0,0.3690477,-61.625207,20.809221)"
       cx="23.53125"
       cy="28.408075"
       fx="23.53125"
       fy="28.408075"
       r="12.5" />
    <radialGradient
       inkscape:collect="always"
       xlink:href="#linearGradient4140"
       id="radialGradient2458"
       gradientUnits="userSpaceOnUse"
       gradientTransform="matrix(1.9208389,0,0,0.36875,-22.58933,20.821387)"
       cx="24.53125"
       cy="28.408104"
       fx="24.53125"
       fy="28.408104"
       r="12.5" />
    <radialGradient
       inkscape:collect="always"
       xlink:href="#linearGradient3859"
       id="radialGradient2480"
       gradientUnits="userSpaceOnUse"
       gradientTransform="matrix(1.3034982,0,0,0.2828281,-3.3384807,160.50415)"
       cx="11"
       cy="215.17624"
       fx="11"
       fy="215.17624"
       r="6.875" />
    <radialGradient
       inkscape:collect="always"
       xlink:href="#linearGradient3712"
       id="radialGradient2484"
       gradientUnits="userSpaceOnUse"
       gradientTransform="matrix(2.5376699,0,0,2.5376699,-3.2238847,1.7641461)"
       cx="5.3851099"
       cy="3.2659137"
       fx="5.3851099"
       fy="3.2659137"
       r="10.108456" />
    <radialGradient
       inkscape:collect="always"
       xlink:href="#linearGradient3936"
       id="radialGradient2514"
       gradientUnits="userSpaceOnUse"
       gradientTransform="matrix(1.6987604,0,0,1.6987604,-3.7664444,-1.4216051)"
       cx="9.3747082"
       cy="7.8025141"
       fx="9.3747082"
       fy="7.8025141"
       r="10.049342" />
    <radialGradient
       inkscape:collect="always"
       xlink:href="#linearGradient7824"
       id="radialGradient2516"
       gradientUnits="userSpaceOnUse"
       gradientTransform="matrix(0.9320389,0,0,1.3203882,1.0339798,143.38105)"
       cx="29.46875"
       cy="-131.5"
       fx="29.46875"
       fy="-131.5"
       r="3.21875" />
    <radialGradient
       inkscape:collect="always"
       xlink:href="#linearGradient7824"
       id="radialGradient2518"
       gradientUnits="userSpaceOnUse"
       gradientTransform="matrix(0.9320389,0,0,1.3203882,-7.9660202,143.38105)"
       cx="29.46875"
       cy="-131.5"
       fx="29.46875"
       fy="-131.5"
       r="3.21875" />
    <radialGradient
       inkscape:collect="always"
       xlink:href="#linearGradient7802"
       id="radialGradient2520"
       gradientUnits="userSpaceOnUse"
       gradientTransform="matrix(1.2713953,0,0,1.5301983,-17.458259,170.87227)"
       cx="28.221428"
       cy="-133.18883"
       fx="28.221428"
       fy="-133.18883"
       r="3.21875" />
    <radialGradient
       inkscape:collect="always"
       xlink:href="#linearGradient7776"
       id="radialGradient2522"
       gradientUnits="userSpaceOnUse"
       gradientTransform="matrix(1.2713953,0,0,1.5301983,-8.4582587,170.87227)"
       cx="28.221428"
       cy="-133.18883"
       fx="28.221428"
       fy="-133.18883"
       r="3.21875" />
    <linearGradient
       inkscape:collect="always"
       xlink:href="#linearGradient7810"
       id="linearGradient2524"
       gradientUnits="userSpaceOnUse"
       x1="28.621698"
       y1="-135.65616"
       x2="30.315804"
       y2="-127.34384" />
    <linearGradient
       inkscape:collect="always"
       xlink:href="#linearGradient7810"
       id="linearGradient2526"
       gradientUnits="userSpaceOnUse"
       gradientTransform="matrix(0.2408327,6.0944233e-2,-4.9083318e-2,0.4390867,14.270157,23.77051)"
       x1="28.621698"
       y1="-135.65616"
       x2="30.315804"
       y2="-127.34384" />
    <linearGradient
       inkscape:collect="always"
       xlink:href="#linearGradient3696"
       id="linearGradient2528"
       gradientUnits="userSpaceOnUse"
       gradientTransform="matrix(-1,0,0,1,-54.020832,-37.989582)"
       x1="-76.3125"
       y1="49.062111"
       x2="-74.847809"
       y2="52.578125" />
    <linearGradient
       inkscape:collect="always"
       xlink:href="#linearGradient2560"
       id="linearGradient2530"
       gradientUnits="userSpaceOnUse"
       x1="-80.725792"
       y1="46.970554"
       x2="-81.683334"
       y2="49.016621" />
    <linearGradient
       inkscape:collect="always"
       xlink:href="#linearGradient2566"
       id="linearGradient2532"
       gradientUnits="userSpaceOnUse"
       x1="-80.725792"
       y1="46.970554"
       x2="-81.683334"
       y2="49.016621" />
    <linearGradient
       inkscape:collect="always"
       xlink:href="#linearGradient3696"
       id="linearGradient2534"
       gradientUnits="userSpaceOnUse"
       gradientTransform="translate(102.01042,-37.989582)"
       x1="-76.3125"
       y1="49.062111"
       x2="-74.847809"
       y2="52.578125" />
    <linearGradient
       inkscape:collect="always"
       xlink:href="#linearGradient3696"
       id="linearGradient2541"
       gradientUnits="userSpaceOnUse"
       gradientTransform="matrix(-0.6666665,0,0,0.6666665,3.666679,-26.187492)"
       x1="-76.3125"
       y1="49.062111"
       x2="-74.847809"
       y2="52.578125" />
    <linearGradient
       inkscape:collect="always"
       xlink:href="#linearGradient3696"
       id="linearGradient2545"
       gradientUnits="userSpaceOnUse"
       gradientTransform="matrix(0.6666665,0,0,0.6666665,106.18749,-27.187491)"
       x1="-77.4375"
       y1="48.562111"
       x2="-77.4375"
       y2="50.287777" />
    <radialGradient
       inkscape:collect="always"
       xlink:href="#linearGradient7776"
       id="radialGradient2595"
       gradientUnits="userSpaceOnUse"
       gradientTransform="matrix(0.7628367,0,0,1.1476467,36.325058,163.40392)"
       cx="28.221428"
       cy="-133.18883"
       fx="28.221428"
       fy="-133.18883"
       r="3.21875" />
    <linearGradient
       inkscape:collect="always"
       xlink:href="#linearGradient7810"
       id="linearGradient2597"
       gradientUnits="userSpaceOnUse"
       gradientTransform="matrix(0.1444995,4.5708092e-2,-2.9449973e-2,0.3293144,49.962099,53.077806)"
       x1="28.621698"
       y1="-135.65616"
       x2="30.315804"
       y2="-127.34384" />
    <radialGradient
       inkscape:collect="always"
       xlink:href="#linearGradient7776"
       id="radialGradient2599"
       gradientUnits="userSpaceOnUse"
       gradientTransform="matrix(0.762837,0,0,1.1476467,31.325051,163.40392)"
       cx="28.221428"
       cy="-133.18883"
       fx="28.221428"
       fy="-133.18883"
       r="3.21875" />
    <linearGradient
       inkscape:collect="always"
       xlink:href="#linearGradient7810"
       id="linearGradient2601"
       gradientUnits="userSpaceOnUse"
       gradientTransform="matrix(0.1444995,4.5708092e-2,-2.9449983e-2,0.3293144,44.962097,53.077806)"
       x1="28.621698"
       y1="-135.65616"
       x2="30.315804"
       y2="-127.34384" />
    <linearGradient
       inkscape:collect="always"
       xlink:href="#linearGradient2613"
       id="linearGradient2603"
       gradientUnits="userSpaceOnUse"
       x1="-80.725792"
       y1="46.970554"
       x2="-81.683334"
       y2="49.016621" />
    <linearGradient
       inkscape:collect="always"
       xlink:href="#linearGradient2607"
       id="linearGradient2605"
       gradientUnits="userSpaceOnUse"
       x1="-80.725792"
       y1="46.970554"
       x2="-81.683334"
       y2="49.016621" />
  </defs>
  <sodipodi:namedview
     id="base"
     pagecolor="#ffffff"
     bordercolor="#666666"
     borderopacity="1.0"
     inkscape:pageopacity="0"
     inkscape:pageshadow="2"
     inkscape:zoom="1"
     inkscape:cx="51.66407"
     inkscape:cy="19.803016"
     inkscape:document-units="px"
     inkscape:current-layer="layer1"
     width="32px"
     height="32px"
     inkscape:showpageshadow="false"
     showgrid="false"
     gridempspacing="2"
     gridspacingx="0.5px"
     gridspacingy="0.5px"
     borderlayer="true"
     showborder="false"
     showguides="true"
     inkscape:guide-bbox="true"
     inkscape:window-width="1274"
     inkscape:window-height="966"
     inkscape:window-x="15"
     inkscape:window-y="72"
     inkscape:grid-points="false"
     inkscape:grid-bbox="true"
     inkscape:object-points="false"
     inkscape:object-paths="true" />
  <metadata
     id="metadata7">
    <rdf:RDF>
      <cc:Work
         rdf:about="">
        <dc:format>image/svg+xml</dc:format>
        <dc:type
           rdf:resource="http://purl.org/dc/dcmitype/StillImage" />
        <dc:title>Devilish</dc:title>
        <dc:creator>
          <cc:Agent>
            <dc:title>Lapo Calamandrei</dc:title>
          </cc:Agent>
        </dc:creator>
        <dc:subject>
          <rdf:Bag>
            <rdf:li>emoticon</rdf:li>
            <rdf:li>emote</rdf:li>
            <rdf:li>smiley</rdf:li>
            <rdf:li>smile</rdf:li>
            <rdf:li>devilish</rdf:li>
            <rdf:li>devil</rdf:li>
            <rdf:li>grin</rdf:li>
          </rdf:Bag>
        </dc:subject>
        <cc:license
           rdf:resource="http://creativecommons.org/licenses/GPL/2.0/" />
      </cc:Work>
      <cc:License
         rdf:about="http://creativecommons.org/licenses/GPL/2.0/">
        <cc:permits
           rdf:resource="http://web.resource.org/cc/Reproduction" />
        <cc:permits
           rdf:resource="http://web.resource.org/cc/Distribution" />
        <cc:requires
           rdf:resource="http://web.resource.org/cc/Notice" />
        <cc:permits
           rdf:resource="http://web.resource.org/cc/DerivativeWorks" />
        <cc:requires
           rdf:resource="http://web.resource.org/cc/ShareAlike" />
        <cc:requires
           rdf:resource="http://web.resource.org/cc/SourceCode" />
      </cc:License>
    </rdf:RDF>
  </metadata>
  <g
     inkscape:label="Livello 1"
     inkscape:groupmode="layer"
     id="layer1"
     style="display:inline">
    <g
       id="g7909"
       transform="translate(-106,-55.000002)" />
    <path
       inkscape:export-ydpi="90"
       inkscape:export-xdpi="90"
       inkscape:export-filename="/home/lapo/Desktop/something-along-the-lines.png"
       transform="matrix(1.6061103,0,0,0.8030552,-3.348609,15.598474)"
       d="M 21.59375 10.046875 A 9.546875 9.546875 0 1 1  2.5,10.046875 A 9.546875 9.546875 0 1 1  21.59375 10.046875 z"
       sodipodi:ry="9.546875"
       sodipodi:rx="9.546875"
       sodipodi:cy="10.046875"
       sodipodi:cx="12.046875"
       id="path9627"
       style="opacity:0.4;fill:url(#radialGradient11858);fill-opacity:1;stroke:none;stroke-width:0.46570092;stroke-linecap:round;stroke-linejoin:miter;stroke-miterlimit:4;stroke-dasharray:none;stroke-dashoffset:0;stroke-opacity:1;display:inline"
       sodipodi:type="arc" />
    <path
       style="fill:url(#radialGradient2514);fill-opacity:1;stroke:#a40000;stroke-width:0.9999997;stroke-linecap:round;stroke-linejoin:miter;stroke-miterlimit:4;stroke-dasharray:none;stroke-dashoffset:0;stroke-opacity:1;display:inline"
       d="M 15.994118,1.4999999 C 8.5388697,1.4999999 2.4882366,7.5506336 2.4882367,15.005882 C 2.4882367,17.078251 2.9706121,19.035666 3.8058837,20.791175 L 3.8058837,23.611764 C 3.8058837,24.869456 4.8128968,25.876469 6.0705894,25.876469 L 8.0058835,25.876469 C 10.244942,27.524831 13.00252,28.511764 15.994118,28.511763 C 18.985717,28.511763 21.743295,27.524831 23.982353,25.876469 L 25.917647,25.876469 C 27.17534,25.876469 28.182353,24.869458 28.182353,23.611764 L 28.182353,20.791175 C 29.017625,19.035666 29.500001,17.078251 29.5,15.005882 C 29.5,7.5506329 23.449366,1.4999999 15.994118,1.4999999 z "
       id="path6206" />
    <path
       sodipodi:type="arc"
       style="opacity:0.3;fill:url(#linearGradient2450);fill-opacity:1;fill-rule:evenodd;stroke:none;stroke-width:1;stroke-linecap:round;stroke-linejoin:miter;stroke-miterlimit:4;stroke-dasharray:none;stroke-dashoffset:0.69999992;stroke-opacity:1;display:inline"
       id="path8199"
       sodipodi:cx="19.5625"
       sodipodi:cy="-135.96875"
       sodipodi:rx="6.125"
       sodipodi:ry="5.96875"
       d="M 25.6875 -135.96875 A 6.125 5.96875 0 1 1  13.4375,-135.96875 A 6.125 5.96875 0 1 1  25.6875 -135.96875 z"
       transform="matrix(1.4545706,-0.389751,0.2999655,1.1194866,27.0702,170.07557)"
       inkscape:transform-center-y="-7.3651901"
       inkscape:transform-center-x="1.9734894" />
    <path
       d="M 24,5.03125 C 13.521985,5.03125 5.03125,13.521986 5.03125,24 C 5.03125,25.949379 5.3479811,27.822474 5.90625,29.59375 C 5.9265071,29.659201 5.9039904,29.645934 5.90625,29.6875 C 6.0691058,30.196862 6.2694921,30.674477 6.46875,31.15625 C 6.4963427,31.222963 6.517159,31.279214 6.53125,31.3125 C 6.5123971,31.26751 6.5716217,31.336449 6.65625,31.53125 C 6.7531218,31.752446 6.8006789,31.937548 6.875,32.09375 C 6.9765866,32.309152 7.0356545,32.543135 7.03125,32.78125 L 7.03125,37.0625 C 7.03125,38.151129 7.8488715,38.96875 8.9375,38.96875 L 11.875,38.96875 C 12.210607,38.963256 12.540914,39.052761 12.8125,39.25 C 12.926116,39.333642 13.040658,39.428605 13.1875,39.53125 C 13.330581,39.630835 13.499279,39.741035 13.65625,39.84375 C 13.923448,40.01955 14.20308,40.169602 14.5,40.34375 C 14.763443,40.497297 14.99356,40.663059 15.21875,40.78125 C 15.672668,41.02127 16.151451,41.23444 16.625,41.4375 C 18.315409,42.162356 20.152642,42.644507 22.0625,42.84375 C 22.717967,42.91213 23.349252,42.96875 24,42.96875 C 24.650748,42.96875 25.282033,42.91213 25.9375,42.84375 C 27.847358,42.644507 29.684591,42.162356 31.375,41.4375 C 31.85276,41.235313 32.316197,41.025333 32.78125,40.78125 C 33.01082,40.659859 33.238157,40.497325 33.5,40.34375 C 33.790065,40.174686 34.07866,40.017212 34.34375,39.84375 C 34.503958,39.738342 34.670252,39.630683 34.8125,39.53125 C 34.959342,39.428605 35.073884,39.333642 35.1875,39.25 C 35.459086,39.052761 35.789393,38.963256 36.125,38.96875 L 39.0625,38.96875 C 40.151131,38.96875 40.96875,38.151132 40.96875,37.0625 L 40.96875,32.78125 C 40.964345,32.543135 41.023413,32.309152 41.125,32.09375 C 41.201882,31.931873 41.247059,31.75382 41.34375,31.53125 C 41.427687,31.339587 41.487294,31.268698 41.46875,31.3125 C 41.484119,31.275822 41.505721,31.218666 41.53125,31.15625 C 41.730508,30.674477 41.930863,30.19696 42.09375,29.6875 C 42.097062,29.647371 42.075324,29.652209 42.09375,29.59375 C 42.65202,27.822474 42.968751,25.949379 42.96875,24 C 42.96875,13.521985 34.478014,5.0312501 24,5.03125 z "
       id="path2482"
       style="opacity:0.5;fill:none;fill-opacity:1;stroke:url(#radialGradient2484);stroke-width:1.51785731;stroke-linecap:round;stroke-linejoin:miter;stroke-miterlimit:4;stroke-dasharray:none;stroke-dashoffset:0;stroke-opacity:1;display:inline"
       inkscape:original="M 24 4.46875 C 13.215826 4.46875 4.46875 13.215827 4.46875 24 C 4.46875 26.011776 4.80131 27.929796 5.375 29.75 C 5.380892 29.769037 5.369051 29.793488 5.375 29.8125 C 5.543651 30.341869 5.72646 30.86474 5.9375 31.375 C 5.958818 31.426542 5.978266 31.47991 6 31.53125 C 6.032532 31.608884 6.091496 31.672879 6.125 31.75 C 6.210618 31.945499 6.283428 32.151292 6.375 32.34375 C 6.439464 32.480438 6.471545 32.630149 6.46875 32.78125 L 6.46875 37.0625 C 6.46875 38.446819 7.553181 39.53125 8.9375 39.53125 L 11.875 39.53125 C 12.088005 39.527763 12.296378 39.593565 12.46875 39.71875 C 12.601396 39.816402 12.739937 39.905589 12.875 40 C 13.027973 40.10647 13.18763 40.210342 13.34375 40.3125 C 13.628983 40.500166 13.923738 40.670721 14.21875 40.84375 C 14.467331 40.988635 14.713349 41.147203 14.96875 41.28125 C 15.435957 41.528297 15.918063 41.759413 16.40625 41.96875 C 18.151033 42.716922 20.03573 43.201331 22 43.40625 C 22.662491 43.475363 23.318307 43.53125 24 43.53125 C 24.681693 43.53125 25.337509 43.475363 26 43.40625 C 27.96427 43.201331 29.848967 42.716922 31.59375 41.96875 C 32.089901 41.75878 32.557059 41.530129 33.03125 41.28125 C 33.287756 41.145616 33.531456 40.990258 33.78125 40.84375 C 34.072278 40.674125 34.37504 40.49651 34.65625 40.3125 C 34.813326 40.209153 34.970996 40.107651 35.125 40 C 35.260063 39.905589 35.398604 39.816402 35.53125 39.71875 C 35.703622 39.593565 35.911995 39.527763 36.125 39.53125 L 39.0625 39.53125 C 40.44682 39.53125 41.53125 38.446822 41.53125 37.0625 L 41.53125 32.78125 C 41.528455 32.630149 41.560536 32.480438 41.625 32.34375 C 41.71802 32.147895 41.788385 31.949375 41.875 31.75 C 41.908343 31.673864 41.967576 31.607839 42 31.53125 C 42.02136 31.480275 42.041561 31.426193 42.0625 31.375 C 42.27354 30.86474 42.456349 30.341869 42.625 29.8125 C 42.631133 29.79325 42.618925 29.769274 42.625 29.75 C 43.198691 27.929796 43.531251 26.011776 43.53125 24 C 43.53125 13.215826 34.784173 4.4687501 24 4.46875 z "
       inkscape:radius="-0.5661909"
       sodipodi:type="inkscape:offset"
       transform="matrix(0.6588235,0,0,0.6588235,0.1823544,-0.8058824)" />
    <g
       transform="matrix(1.4908042,0,0,1.5667513,-0.3928526,-329.7945)"
       style="display:inline"
       id="g6214">
      <path
         style="opacity:1;fill:url(#linearGradient2454);fill-opacity:1;stroke:#cc0000;stroke-width:0.65431917;stroke-linecap:round;stroke-linejoin:miter;stroke-miterlimit:4;stroke-dasharray:none;stroke-dashoffset:0;stroke-opacity:1;display:inline"
         d="M 3.9523863,223.89917 C 3.9523863,227.70156 5.8747853,224.67466 11.001182,224.69968 C 16.127578,224.72469 18.049976,227.70156 18.049976,223.89917 C 18.049976,220.09677 14.478766,222.2482 11.001182,222.29816 C 7.523597,222.34812 3.9523863,220.09677 3.9523863,223.89917 z "
         id="path6216"
         sodipodi:nodetypes="czzsz" />
    </g>
    <g
       id="g6220"
       style="display:inline"
       transform="matrix(0.6588235,0,0,0.6588235,0.2114704,-99.629407)">
      <path
         style="opacity:0.08999999;fill:url(#radialGradient2456);fill-opacity:1;fill-rule:evenodd;stroke:none;stroke-width:1px;stroke-linecap:square;stroke-linejoin:miter;stroke-opacity:1"
         d="M 35.3125,28.375 C 35.223675,28.379923 35.122112,28.399203 35.03125,28.40625 L 35.03125,37.03125 C 35.394795,37.147406 35.710603,37.215314 36.03125,37.3125 L 36.03125,28.375 C 35.797537,28.370214 35.565692,28.360968 35.3125,28.375 z M 11.625,28.5 C 11.414181,28.509486 11.223907,28.566103 11.03125,28.59375 L 11.03125,37.59375 C 11.074901,37.582714 11.111903,37.574437 11.15625,37.5625 C 11.408512,37.494604 11.746143,37.370234 12.03125,37.28125 L 12.03125,28.5 C 11.898002,28.499588 11.751757,28.494297 11.625,28.5 z M 33.03125,28.65625 C 32.713191,28.711728 32.363403,28.779596 32.03125,28.84375 L 32.03125,36.125 C 32.381078,36.219067 32.70591,36.310484 33.03125,36.40625 L 33.03125,28.65625 z M 14.03125,28.6875 L 14.03125,36.65625 C 14.354294,36.553589 14.680344,36.448019 15.03125,36.34375 L 15.03125,28.84375 C 14.690198,28.784674 14.354701,28.734082 14.03125,28.6875 z M 18.03125,29.40625 L 18.03125,35.59375 C 18.352328,35.527638 18.693647,35.464208 19.03125,35.40625 L 19.03125,29.5625 C 18.694516,29.506565 18.360498,29.466057 18.03125,29.40625 z M 29.03125,29.4375 C 28.702954,29.498067 28.365386,29.538567 28.03125,29.59375 L 28.03125,35.28125 C 28.378668,35.330453 28.699927,35.410504 29.03125,35.46875 L 29.03125,29.4375 z M 23.03125,29.96875 L 23.03125,35.03125 C 23.356509,35.021572 23.663364,34.998243 24,35 C 24.010834,35.000057 24.020427,34.999932 24.03125,35 L 24.03125,30 C 24.020872,30.000176 24.010378,29.999841 24,30 C 23.677143,30.00496 23.353339,29.979552 23.03125,29.96875 z "
         transform="translate(-4.4194e-2,150)"
         id="path6222" />
      <path
         style="fill:url(#radialGradient2458);fill-opacity:1;fill-rule:evenodd;stroke:none;stroke-width:1px;stroke-linecap:square;stroke-linejoin:miter;stroke-opacity:1;display:inline"
         d="M 36.03125,28.375 L 36.03125,37.3125 C 36.293656,37.392034 36.609768,37.500915 36.84375,37.5625 C 36.911322,37.580287 36.966769,37.577814 37.03125,37.59375 L 37.03125,28.46875 C 36.723427,28.413833 36.38517,28.382248 36.03125,28.375 z M 12.03125,28.5 L 12.03125,37.28125 C 12.356267,37.17981 12.663032,37.089013 13.03125,36.96875 L 13.03125,28.5625 C 12.916609,28.552027 12.79907,28.5387 12.6875,28.53125 C 12.455157,28.515737 12.246798,28.500667 12.03125,28.5 z M 34.03125,28.5 C 33.703562,28.545243 33.377928,28.59578 33.03125,28.65625 L 33.03125,36.40625 C 33.379195,36.508669 33.711069,36.618594 34.03125,36.71875 L 34.03125,28.5 z M 15.03125,28.84375 L 15.03125,36.34375 C 15.34994,36.249054 15.689362,36.186169 16.03125,36.09375 L 16.03125,29.03125 C 15.701367,28.969635 15.347706,28.898565 15.03125,28.84375 z M 30.03125,29.21875 C 29.699649,29.283908 29.370545,29.374904 29.03125,29.4375 L 29.03125,35.46875 C 29.367812,35.527917 29.711186,35.589636 30.03125,35.65625 L 30.03125,29.21875 z M 19.03125,29.5625 L 19.03125,35.40625 C 19.360239,35.349771 19.686457,35.296872 20.03125,35.25 L 20.03125,29.71875 C 19.696167,29.670722 19.360469,29.617187 19.03125,29.5625 z M 25.03125,29.96875 C 24.699279,29.990204 24.363751,29.994355 24.03125,30 L 24.03125,35 C 24.37804,35.002186 24.696522,35.017646 25.03125,35.03125 L 25.03125,29.96875 z "
         transform="translate(-4.4194e-2,150)"
         id="path6224" />
      <g
         style="opacity:0.8;stroke-linecap:square"
         transform="translate(5,0)"
         id="g6226" />
      <g
         transform="translate(-5,0)"
         id="g6232"
         style="opacity:0.8;stroke-linecap:square;display:inline" />
      <g
         transform="translate(-9,0)"
         id="g6238"
         style="opacity:0.7;stroke-linecap:square;display:inline" />
      <g
         transform="translate(9,0)"
         id="g6244"
         style="opacity:0.7;stroke-linecap:square;display:inline" />
      <g
         transform="translate(12,0)"
         id="g6250"
         style="opacity:0.5;stroke-linecap:square;display:inline" />
      <g
         transform="translate(-12,0)"
         id="g6256"
         style="opacity:0.5;stroke-linecap:square;display:inline" />
    </g>
    <path
       sodipodi:type="inkscape:offset"
       inkscape:radius="-0.19795807"
       inkscape:original="M 15.84375 221.65625 C 14.51625 221.72505 12.738792 222.28752 11 222.3125 C 7.5224154 222.36246 3.9375 220.10385 3.9375 223.90625 C 3.9374999 227.70864 5.8736033 224.66248 11 224.6875 C 16.126396 224.71251 18.0625 227.70864 18.0625 223.90625 C 18.0625 222.00505 17.17125 221.58745 15.84375 221.65625 z "
       style="opacity:0.32046335;fill:url(#radialGradient2480);fill-opacity:1;stroke:none;stroke-width:0.41389835;stroke-linecap:round;stroke-linejoin:miter;stroke-miterlimit:4;stroke-dasharray:none;stroke-dashoffset:0;stroke-opacity:1;display:inline"
       id="path3835"
       d="M 15.84375,221.84375 C 14.562822,221.91014 12.779532,222.47443 11,222.5 C 9.2173877,222.52561 7.443613,221.98664 6.15625,221.90625 C 5.5125685,221.86606 5.0184094,221.94435 4.6875,222.21875 C 4.3565906,222.49315 4.125,222.98676 4.125,223.90625 C 4.125,224.84005 4.2849649,225.3247 4.46875,225.5 C 4.5606426,225.58765 4.6414818,225.6186 4.8125,225.625 C 4.9835182,225.6314 5.2271098,225.59994 5.5,225.53125 C 6.5915609,225.25651 8.3974718,224.4873 11,224.5 C 13.601641,224.51269 15.409624,225.26287 16.5,225.53125 C 16.772594,225.59835 16.985498,225.63311 17.15625,225.625 C 17.327002,225.61689 17.438619,225.58974 17.53125,225.5 C 17.716512,225.32053 17.875,224.84005 17.875,223.90625 C 17.875,222.98658 17.643564,222.47147 17.3125,222.1875 C 16.981436,221.90353 16.484539,221.81054 15.84375,221.84375 z "
       transform="matrix(1.53927,0,0,1.6460231,-0.9396712,-347.27851)" />
    <g
       id="g2407"
       transform="matrix(0.6666665,0,0,0.6666665,-0.666348,-4.3336316)" />
    <g
       id="g2584"
       transform="translate(-40,0)">
      <g
         transform="translate(40,-50)"
         id="g9635"
         style="display:inline">
        <g
           style="display:inline"
           id="g9637"
           transform="matrix(0.8999994,0,0,1.1249979,1.4000116,48.500026)">
          <path
             id="path9639"
             transform="matrix(1.1111119,0,0,0.8888905,-46.000044,1.3333127)"
             d="M 59.34375,9.5 L 57.03125,11.46875 C 57.01515,11.644765 57,11.81473 57,12 C 57,13.655997 57.672,15 58.5,15 C 59.328,15 59.999999,13.655997 60,12 C 60,10.965002 59.742773,10.039296 59.34375,9.5 z "
             style="fill:url(#radialGradient2595);fill-opacity:1;fill-rule:evenodd;stroke:none;stroke-width:1;stroke-linecap:round;stroke-linejoin:miter;stroke-miterlimit:4;stroke-dasharray:none;stroke-dashoffset:0.69999992;stroke-opacity:1;display:inline" />
          <path
             id="path9641"
             transform="matrix(1.1111119,0,0,0.8888905,-46.000044,1.3333127)"
             d="M 58.5,10.21875 L 57.625,10.9375 C 57.623936,10.948431 57.625985,10.957732 57.625,10.96875 C 57.55591,11.741322 57.712011,12.450039 57.96875,12.53125 C 58.225489,12.612462 58.49341,12.053822 58.5625,11.28125 C 58.59834,10.880478 58.566985,10.502381 58.5,10.21875 z "
             style="opacity:0.5;fill:url(#linearGradient2597);fill-opacity:1;fill-rule:evenodd;stroke:none;stroke-width:1;stroke-linecap:round;stroke-linejoin:miter;stroke-miterlimit:4;stroke-dasharray:none;stroke-dashoffset:0.69999992;stroke-opacity:1;display:inline" />
        </g>
        <g
           style="display:inline"
           id="g9643"
           transform="matrix(0.8999997,0,0,1.1249979,-3.5999931,48.500026)">
          <path
             id="path9645"
             transform="matrix(1.1111115,0,0,0.8888905,-40.444466,1.3333127)"
             d="M 52.65625,9.5 C 52.257227,10.039296 52.000001,10.965002 52,12 C 52,13.655997 52.672001,15 53.5,15 C 54.328,15 55.000001,13.655997 55,12 C 55,11.825594 54.983055,11.666279 54.96875,11.5 L 52.65625,9.5 z "
             style="fill:url(#radialGradient2599);fill-opacity:1;fill-rule:evenodd;stroke:none;stroke-width:1;stroke-linecap:round;stroke-linejoin:miter;stroke-miterlimit:4;stroke-dasharray:none;stroke-dashoffset:0.69999992;stroke-opacity:1;display:inline" />
          <path
             id="path9647"
             transform="matrix(1.1111115,0,0,0.8888905,-40.444466,1.3333127)"
             d="M 53,9.8125 C 52.825085,9.9911874 52.674398,10.416361 52.625,10.96875 C 52.55591,11.741322 52.712012,12.450039 52.96875,12.53125 C 53.22549,12.612462 53.493411,12.053822 53.5625,11.28125 C 53.597045,10.894964 53.56153,10.529954 53.5,10.25 C 53.497693,10.239502 53.502421,10.229002 53.5,10.21875 L 53,9.8125 z "
             style="opacity:0.5;fill:url(#linearGradient2601);fill-opacity:1;fill-rule:evenodd;stroke:none;stroke-width:1;stroke-linecap:round;stroke-linejoin:miter;stroke-miterlimit:4;stroke-dasharray:none;stroke-dashoffset:0.69999992;stroke-opacity:1;display:inline" />
        </g>
      </g>
      <path
         transform="matrix(0.6153845,0,0,0.6153845,102.07691,-22.115378)"
         d="M -76.5 53 A 6.5 6.5 0 1 1  -89.5,53 A 6.5 6.5 0 1 1  -76.5 53 z"
         sodipodi:ry="6.5"
         sodipodi:rx="6.5"
         sodipodi:cy="53"
         sodipodi:cx="-83"
         id="path2413"
         style="fill:none;fill-opacity:1;stroke:url(#linearGradient2603);stroke-width:1.62500036;stroke-linecap:round;stroke-linejoin:round;stroke-miterlimit:4;stroke-dasharray:none;stroke-dashoffset:0;stroke-opacity:1;display:inline;opacity:0.45945946"
         sodipodi:type="arc" />
      <path
         transform="matrix(-0.6153845,0,0,0.6153845,9.923083,-22.115378)"
         d="M -76.5 53 A 6.5 6.5 0 1 1  -89.5,53 A 6.5 6.5 0 1 1  -76.5 53 z"
         sodipodi:ry="6.5"
         sodipodi:rx="6.5"
         sodipodi:cy="53"
         sodipodi:cx="-83"
         id="path2572"
         style="fill:none;fill-opacity:1;stroke:url(#linearGradient2605);stroke-width:1.62500036;stroke-linecap:round;stroke-linejoin:round;stroke-miterlimit:4;stroke-dasharray:none;stroke-dashoffset:0;stroke-opacity:1;display:inline;opacity:0.45945946"
         sodipodi:type="arc" />
    </g>
  </g>
</svg>
