<?xml version="1.0" encoding="UTF-8" standalone="no"?>
<!-- Created with Inkscape (http://www.inkscape.org/) -->
<svg
   xmlns:dc="http://purl.org/dc/elements/1.1/"
   xmlns:cc="http://web.resource.org/cc/"
   xmlns:rdf="http://www.w3.org/1999/02/22-rdf-syntax-ns#"
   xmlns:svg="http://www.w3.org/2000/svg"
   xmlns="http://www.w3.org/2000/svg"
   xmlns:xlink="http://www.w3.org/1999/xlink"
   xmlns:sodipodi="http://sodipodi.sourceforge.net/DTD/sodipodi-0.dtd"
   xmlns:inkscape="http://www.inkscape.org/namespaces/inkscape"
   width="32"
   height="32"
   id="svg2"
   sodipodi:version="0.32"
   inkscape:version="0.45.1"
   version="1.0"
   sodipodi:docbase="/home/lapo/Icone/gnome-icon-theme/32x32/emotes"
   sodipodi:docname="face-devilish.svg"
   inkscape:export-filename="/home/lapo/Desktop/smileys.png"
   inkscape:export-xdpi="90"
   inkscape:export-ydpi="90"
   inkscape:output_extension="org.inkscape.output.svg.inkscape">
  <defs
     id="defs4">
    <linearGradient
       inkscape:collect="always"
       id="linearGradient6710">
      <stop
         style="stop-color:#ffffff;stop-opacity:1;"
         offset="0"
         id="stop6712" />
      <stop
         style="stop-color:#ffffff;stop-opacity:0;"
         offset="1"
         id="stop6714" />
    </linearGradient>
    <linearGradient
       id="linearGradient6454">
      <stop
         id="stop6456"
         offset="0"
         style="stop-color:#a40000;stop-opacity:1;" />
      <stop
         id="stop6458"
         offset="1"
         style="stop-color:#ef2929;stop-opacity:1" />
    </linearGradient>
    <linearGradient
       id="linearGradient6448">
      <stop
         id="stop6450"
         offset="0"
         style="stop-color:#a40000;stop-opacity:1;" />
      <stop
         id="stop6452"
         offset="1"
         style="stop-color:#ef2929;stop-opacity:1;" />
    </linearGradient>
    <linearGradient
       inkscape:collect="always"
       id="linearGradient6436">
      <stop
         style="stop-color:#ffffff;stop-opacity:1;"
         offset="0"
         id="stop6438" />
      <stop
         style="stop-color:#ffffff;stop-opacity:0;"
         offset="1"
         id="stop6440" />
    </linearGradient>
    <linearGradient
       inkscape:collect="always"
       id="linearGradient6184">
      <stop
         style="stop-color:#ffffff;stop-opacity:1;"
         offset="0"
         id="stop6186" />
      <stop
         style="stop-color:#ffffff;stop-opacity:0;"
         offset="1"
         id="stop6188" />
    </linearGradient>
    <linearGradient
       inkscape:collect="always"
       id="linearGradient4148">
      <stop
         style="stop-color:#000000;stop-opacity:1;"
         offset="0"
         id="stop4150" />
      <stop
         style="stop-color:#000000;stop-opacity:0;"
         offset="1"
         id="stop4152" />
    </linearGradient>
    <linearGradient
       inkscape:collect="always"
       id="linearGradient4140">
      <stop
         style="stop-color:#ffffff;stop-opacity:1;"
         offset="0"
         id="stop4142" />
      <stop
         style="stop-color:#ffffff;stop-opacity:0;"
         offset="1"
         id="stop4144" />
    </linearGradient>
    <linearGradient
       inkscape:collect="always"
       id="linearGradient3734">
      <stop
         style="stop-color:black;stop-opacity:1;"
         offset="0"
         id="stop3736" />
      <stop
         style="stop-color:black;stop-opacity:0;"
         offset="1"
         id="stop3738" />
    </linearGradient>
    <linearGradient
       id="linearGradient3712">
      <stop
         id="stop3714"
         offset="0"
         style="stop-color:white;stop-opacity:1;" />
      <stop
         id="stop3716"
         offset="1"
         style="stop-color:white;stop-opacity:0.50570345" />
    </linearGradient>
    <linearGradient
       id="linearGradient3968">
      <stop
         style="stop-color:#ef2929;stop-opacity:1;"
         offset="0"
         id="stop3970" />
      <stop
         style="stop-color:#fcaf3e;stop-opacity:1"
         offset="1"
         id="stop3972" />
    </linearGradient>
    <linearGradient
       id="linearGradient3936">
      <stop
         id="stop3938"
         offset="0"
         style="stop-color:#fcaf3e;stop-opacity:1" />
      <stop
         style="stop-color:#ef2929;stop-opacity:1;"
         offset="0.64999998"
         id="stop3940" />
      <stop
         id="stop3942"
         offset="1"
         style="stop-color:#c00;stop-opacity:1" />
    </linearGradient>
    <linearGradient
       id="linearGradient3512">
      <stop
         style="stop-color:#babdb6;stop-opacity:1"
         offset="0"
         id="stop3514" />
      <stop
         id="stop3524"
         offset="0.1"
         style="stop-color:#e9ebe7;stop-opacity:1;" />
      <stop
         id="stop3520"
         offset="0.34999999"
         style="stop-color:white;stop-opacity:1;" />
      <stop
         style="stop-color:#e9ebe7;stop-opacity:1;"
         offset="0.89999998"
         id="stop3522" />
      <stop
         style="stop-color:#babdb6;stop-opacity:1"
         offset="1"
         id="stop3516" />
    </linearGradient>
    <linearGradient
       id="linearGradient8431"
       inkscape:collect="always">
      <stop
         id="stop8433"
         offset="0"
         style="stop-color:#ffffff;stop-opacity:1;" />
      <stop
         id="stop8435"
         offset="1"
         style="stop-color:#ffffff;stop-opacity:0;" />
    </linearGradient>
    <radialGradient
       inkscape:collect="always"
       xlink:href="#linearGradient3734"
       id="radialGradient8345"
       gradientUnits="userSpaceOnUse"
       cx="12.046875"
       cy="10.046875"
       fx="12.046875"
       fy="10.046875"
       r="9.546875" />
    <linearGradient
       inkscape:collect="always"
       xlink:href="#linearGradient8431"
       id="linearGradient8349"
       gradientUnits="userSpaceOnUse"
       x1="18.825819"
       y1="-140.43388"
       x2="19.23638"
       y2="-134.38734" />
    <linearGradient
       inkscape:collect="always"
       xlink:href="#linearGradient3968"
       id="linearGradient8387"
       gradientUnits="userSpaceOnUse"
       gradientTransform="matrix(2,0,0,2.0000017,2.4999998,-258.50048)"
       x1="3.810061"
       y1="275.26303"
       x2="5.0625"
       y2="273.09375" />
    <linearGradient
       inkscape:collect="always"
       xlink:href="#linearGradient6454"
       id="linearGradient8389"
       gradientUnits="userSpaceOnUse"
       gradientTransform="matrix(2,0,0,2.0000017,2.4999998,-258.50048)"
       x1="3.1209393"
       y1="273.70636"
       x2="5.4027281"
       y2="275.96967" />
    <linearGradient
       inkscape:collect="always"
       xlink:href="#linearGradient6436"
       id="linearGradient8391"
       gradientUnits="userSpaceOnUse"
       x1="5.375"
       y1="278.9375"
       x2="10.8125"
       y2="291.375" />
    <linearGradient
       inkscape:collect="always"
       xlink:href="#linearGradient3968"
       id="linearGradient8393"
       gradientUnits="userSpaceOnUse"
       gradientTransform="matrix(-2,0,0,2.0000017,45.5,-258.50046)"
       x1="3.810061"
       y1="275.26303"
       x2="5.0625"
       y2="273.09375" />
    <linearGradient
       inkscape:collect="always"
       xlink:href="#linearGradient6448"
       id="linearGradient8395"
       gradientUnits="userSpaceOnUse"
       gradientTransform="matrix(-2,0,0,2.0000017,45.5,-258.50046)"
       x1="4.2348351"
       y1="272.6076"
       x2="7.3370872"
       y2="275.6875" />
    <linearGradient
       inkscape:collect="always"
       xlink:href="#linearGradient6436"
       id="linearGradient8397"
       gradientUnits="userSpaceOnUse"
       x1="5.375"
       y1="278.9375"
       x2="8.25"
       y2="291.625" />
    <linearGradient
       inkscape:collect="always"
       xlink:href="#linearGradient6710"
       id="linearGradient8464"
       gradientUnits="userSpaceOnUse"
       gradientTransform="matrix(-0.6666667,0,0,0.6666667,32.213983,-186.00001)"
       x1="7.78125"
       y1="284.89941"
       x2="15.6875"
       y2="291.0625" />
    <linearGradient
       inkscape:collect="always"
       xlink:href="#linearGradient6710"
       id="linearGradient8467"
       gradientUnits="userSpaceOnUse"
       gradientTransform="matrix(0.6666667,0,0,0.6666667,0,-186.00001)"
       x1="7.78125"
       y1="284.89941"
       x2="15.6875"
       y2="291.0625" />
    <radialGradient
       inkscape:collect="always"
       xlink:href="#linearGradient3936"
       id="radialGradient8510"
       gradientUnits="userSpaceOnUse"
       gradientTransform="matrix(1.200799,0,0,1.200799,-1.921023,-1.565398)"
       cx="9.3747082"
       cy="7.8025141"
       fx="9.3747082"
       fy="7.8025141"
       r="10.049342" />
    <radialGradient
       inkscape:collect="always"
       xlink:href="#linearGradient3712"
       id="radialGradient8512"
       gradientUnits="userSpaceOnUse"
       gradientTransform="matrix(1.242401,0,0,1.242401,-1.281477,-0.839422)"
       cx="5.3851099"
       cy="3.2659137"
       fx="5.3851099"
       fy="3.2659137"
       r="10.108456" />
    <linearGradient
       inkscape:collect="always"
       xlink:href="#linearGradient4148"
       id="linearGradient8514"
       gradientUnits="userSpaceOnUse"
       x1="23.59375"
       y1="182.56172"
       x2="23.5"
       y2="190.1105" />
    <linearGradient
       inkscape:collect="always"
       xlink:href="#linearGradient4140"
       id="linearGradient8516"
       gradientUnits="userSpaceOnUse"
       x1="24.5"
       y1="180.8125"
       x2="24.5"
       y2="188.2066" />
    <linearGradient
       inkscape:collect="always"
       xlink:href="#linearGradient4148"
       id="linearGradient8518"
       gradientUnits="userSpaceOnUse"
       x1="23.59375"
       y1="181.11302"
       x2="23.5"
       y2="189.77684" />
    <linearGradient
       inkscape:collect="always"
       xlink:href="#linearGradient4140"
       id="linearGradient8520"
       gradientUnits="userSpaceOnUse"
       x1="24.5"
       y1="180.73172"
       x2="24.5"
       y2="189.6147" />
    <linearGradient
       inkscape:collect="always"
       xlink:href="#linearGradient4148"
       id="linearGradient8522"
       gradientUnits="userSpaceOnUse"
       x1="23.59375"
       y1="181.24934"
       x2="23.5"
       y2="189.87292" />
    <linearGradient
       inkscape:collect="always"
       xlink:href="#linearGradient4140"
       id="linearGradient8524"
       gradientUnits="userSpaceOnUse"
       x1="24.5"
       y1="177.875"
       x2="24.5"
       y2="189.44066" />
    <linearGradient
       inkscape:collect="always"
       xlink:href="#linearGradient4148"
       id="linearGradient8526"
       gradientUnits="userSpaceOnUse"
       x1="23.59375"
       y1="177.875"
       x2="23.5"
       y2="188.47891" />
    <linearGradient
       inkscape:collect="always"
       xlink:href="#linearGradient4140"
       id="linearGradient8528"
       gradientUnits="userSpaceOnUse"
       x1="24.5"
       y1="177.875"
       x2="24.5"
       y2="188.22374" />
    <linearGradient
       inkscape:collect="always"
       xlink:href="#linearGradient4148"
       id="linearGradient8530"
       gradientUnits="userSpaceOnUse"
       x1="23.59375"
       y1="177.875"
       x2="23.5"
       y2="188.49718" />
    <linearGradient
       inkscape:collect="always"
       xlink:href="#linearGradient4140"
       id="linearGradient8532"
       gradientUnits="userSpaceOnUse"
       x1="24.5"
       y1="177.875"
       x2="24.5"
       y2="187.84666" />
    <linearGradient
       inkscape:collect="always"
       xlink:href="#linearGradient4148"
       id="linearGradient8534"
       gradientUnits="userSpaceOnUse"
       x1="23.59375"
       y1="177.875"
       x2="23.5"
       y2="187.01436" />
    <linearGradient
       inkscape:collect="always"
       xlink:href="#linearGradient4140"
       id="linearGradient8536"
       gradientUnits="userSpaceOnUse"
       x1="24.5"
       y1="177.875"
       x2="24.5"
       y2="186.04939" />
    <linearGradient
       inkscape:collect="always"
       xlink:href="#linearGradient4148"
       id="linearGradient8538"
       gradientUnits="userSpaceOnUse"
       x1="23.59375"
       y1="177.875"
       x2="23.5"
       y2="186.54834" />
    <linearGradient
       inkscape:collect="always"
       xlink:href="#linearGradient4140"
       id="linearGradient8540"
       gradientUnits="userSpaceOnUse"
       x1="24.5"
       y1="177.875"
       x2="24.5"
       y2="187.11882" />
    <linearGradient
       inkscape:collect="always"
       xlink:href="#linearGradient3512"
       id="linearGradient8542"
       gradientUnits="userSpaceOnUse"
       x1="4.9076123"
       y1="222.90671"
       x2="16.967688"
       y2="222.90671" />
    <linearGradient
       inkscape:collect="always"
       xlink:href="#linearGradient6184"
       id="linearGradient8544"
       gradientUnits="userSpaceOnUse"
       x1="-77.38752"
       y1="50.142475"
       x2="-77.38752"
       y2="51.259766" />
    <linearGradient
       inkscape:collect="always"
       xlink:href="#linearGradient6184"
       id="linearGradient8546"
       gradientUnits="userSpaceOnUse"
       x1="-77.38752"
       y1="50.142475"
       x2="-77.38752"
       y2="51.259766" />
    <linearGradient
       id="linearGradient3260"
       inkscape:collect="always">
      <stop
         id="stop3262"
         offset="0"
         style="stop-color:#000000;stop-opacity:1;" />
      <stop
         id="stop3264"
         offset="1"
         style="stop-color:#000000;stop-opacity:0;" />
    </linearGradient>
    <linearGradient
       id="linearGradient3303"
       inkscape:collect="always">
      <stop
         id="stop3305"
         offset="0"
         style="stop-color:#ffffff;stop-opacity:1" />
      <stop
         id="stop3307"
         offset="1"
         style="stop-color:#ffffff;stop-opacity:0;" />
    </linearGradient>
    <radialGradient
       inkscape:collect="always"
       xlink:href="#linearGradient3260"
       id="radialGradient3826"
       gradientUnits="userSpaceOnUse"
       gradientTransform="matrix(0.856467,7.7865701e-2,-1.1195458e-2,0.123142,-1.7534718,28.030218)"
       cx="18.572042"
       cy="26.015177"
       fx="18.572042"
       fy="26.015177"
       r="17.658609" />
    <radialGradient
       inkscape:collect="always"
       xlink:href="#linearGradient3260"
       id="radialGradient3828"
       gradientUnits="userSpaceOnUse"
       gradientTransform="matrix(-0.9702215,0,0,0.4041057,51.087126,23.291942)"
       cx="15.952431"
       cy="19.943283"
       fx="15.952431"
       fy="19.943283"
       r="17.658609" />
    <radialGradient
       inkscape:collect="always"
       xlink:href="#linearGradient3303"
       id="radialGradient3833"
       gradientUnits="userSpaceOnUse"
       gradientTransform="matrix(0.3733288,0,0,0.3366396,6.4755845,9.3044343)"
       cx="20.351915"
       cy="32.157124"
       fx="20.351915"
       fy="32.157124"
       r="15.609375" />
  </defs>
  <sodipodi:namedview
     id="base"
     pagecolor="#ffffff"
     bordercolor="#666666"
     borderopacity="1.0"
     inkscape:pageopacity="0"
     inkscape:pageshadow="2"
     inkscape:zoom="1"
     inkscape:cx="11.984941"
     inkscape:cy="4.1420163"
     inkscape:document-units="px"
     inkscape:current-layer="layer1"
     width="32px"
     height="32px"
     inkscape:showpageshadow="false"
     showgrid="false"
     gridempspacing="2"
     gridspacingx="0.5px"
     gridspacingy="0.5px"
     borderlayer="true"
     showborder="false"
     showguides="true"
     inkscape:guide-bbox="true"
     inkscape:window-width="1274"
     inkscape:window-height="966"
     inkscape:window-x="15"
     inkscape:window-y="72"
     inkscape:grid-points="false"
     inkscape:grid-bbox="true"
     inkscape:object-points="false"
     inkscape:object-paths="false" />
  <metadata
     id="metadata7">
    <rdf:RDF>
      <cc:Work
         rdf:about="">
        <dc:format>image/svg+xml</dc:format>
        <dc:type
           rdf:resource="http://purl.org/dc/dcmitype/StillImage" />
        <dc:title>Devilish</dc:title>
        <dc:creator>
          <cc:Agent>
            <dc:title>Lapo Calamandrei</dc:title>
          </cc:Agent>
        </dc:creator>
        <dc:subject>
          <rdf:Bag>
            <rdf:li>emoticon</rdf:li>
            <rdf:li>emote</rdf:li>
            <rdf:li>smiley</rdf:li>
            <rdf:li>smile</rdf:li>
            <rdf:li>devilish</rdf:li>
            <rdf:li>devil</rdf:li>
            <rdf:li>grin</rdf:li>
          </rdf:Bag>
        </dc:subject>
        <cc:license
           rdf:resource="http://creativecommons.org/licenses/GPL/2.0/" />
      </cc:Work>
      <cc:License
         rdf:about="http://creativecommons.org/licenses/GPL/2.0/">
        <cc:permits
           rdf:resource="http://web.resource.org/cc/Reproduction" />
        <cc:permits
           rdf:resource="http://web.resource.org/cc/Distribution" />
        <cc:requires
           rdf:resource="http://web.resource.org/cc/Notice" />
        <cc:permits
           rdf:resource="http://web.resource.org/cc/DerivativeWorks" />
        <cc:requires
           rdf:resource="http://web.resource.org/cc/ShareAlike" />
        <cc:requires
           rdf:resource="http://web.resource.org/cc/SourceCode" />
      </cc:License>
    </rdf:RDF>
  </metadata>
  <g
     inkscape:label="Livello 1"
     inkscape:groupmode="layer"
     id="layer1"
     style="display:inline">
    <path
       sodipodi:type="arc"
       style="opacity:0.4;fill:url(#radialGradient8345);fill-opacity:1;stroke:none;stroke-width:0.46570092;stroke-linecap:round;stroke-linejoin:miter;stroke-miterlimit:4;stroke-dasharray:none;stroke-dashoffset:0;stroke-opacity:1;display:inline"
       id="path8211"
       sodipodi:cx="12.046875"
       sodipodi:cy="10.046875"
       sodipodi:rx="9.546875"
       sodipodi:ry="9.546875"
       d="M 21.59375 10.046875 A 9.546875 9.546875 0 1 1  2.5,10.046875 A 9.546875 9.546875 0 1 1  21.59375 10.046875 z"
       transform="matrix(1.5973821,0,0,0.9383687,-3.2437542,13.530812)"
       inkscape:export-filename="/home/lapo/Desktop/something-along-the-lines.png"
       inkscape:export-xdpi="90"
       inkscape:export-ydpi="90" />
    <path
       style="fill:url(#linearGradient8387);fill-opacity:1;stroke:url(#linearGradient8389);stroke-width:1.49035358;stroke-linecap:round;stroke-linejoin:round;stroke-miterlimit:4;stroke-dashoffset:0;stroke-opacity:1;display:inline"
       d="M 15.5,289.5 C 15.5,293.50001 12.5,296.50001 8.4999996,296.50001 C 6.8439997,296.50001 3.5,288.15599 3.5,286.49999 C 3.5,285.49998 4.5,284.5 5.4999999,284.5 C 7.1559997,284.5 15.5,287.84399 15.5,289.5 z "
       id="path8636"
       sodipodi:nodetypes="csssc"
       transform="matrix(0.6753247,0,0,0.6666667,1.1493496,-187.16668)" />
    <path
       style="fill:url(#linearGradient8393);fill-opacity:1;stroke:url(#linearGradient8395);stroke-width:1.49035358;stroke-linecap:round;stroke-linejoin:round;stroke-miterlimit:4;stroke-dashoffset:0;stroke-opacity:1;display:inline"
       d="M 32.5,289.49999 C 32.5,293.50001 35.5,296.50001 39.500001,296.50001 C 41.156001,296.50001 44.5,288.15599 44.5,286.49998 C 44.5,285.49998 43.500001,284.5 42.5,284.5 C 40.844001,284.5 32.5,287.84398 32.5,289.49999 z "
       id="path8638"
       sodipodi:nodetypes="csssc"
       transform="matrix(0.6753247,0,0,0.6666667,-1.5519492,-187.16668)" />
    <path
       sodipodi:type="arc"
       style="fill:url(#radialGradient8510);fill-opacity:1;stroke:#a40000;stroke-width:0.70717573;stroke-linecap:round;stroke-linejoin:miter;stroke-miterlimit:4;stroke-dasharray:none;stroke-dashoffset:0;stroke-opacity:1;display:inline"
       id="path8213"
       sodipodi:cx="12.046875"
       sodipodi:cy="10.046875"
       sodipodi:rx="9.546875"
       sodipodi:ry="9.546875"
       d="M 21.59375 10.046875 A 9.546875 9.546875 0 1 1  2.5,10.046875 A 9.546875 9.546875 0 1 1  21.59375 10.046875 z"
       transform="matrix(1.4140753,0,0,1.4140753,-1.0351884,1.7929622)"
       inkscape:export-filename="/home/lapo/Desktop/something-along-the-lines.png"
       inkscape:export-xdpi="90"
       inkscape:export-ydpi="90" />
    <path
       sodipodi:type="arc"
       style="opacity:0.3;fill:url(#linearGradient8349);fill-opacity:1;fill-rule:evenodd;stroke:none;stroke-width:1;stroke-linecap:round;stroke-linejoin:miter;stroke-miterlimit:4;stroke-dasharray:none;stroke-dashoffset:0.69999992;stroke-opacity:1;display:inline"
       id="path8215"
       sodipodi:cx="19.5625"
       sodipodi:cy="-135.96875"
       sodipodi:rx="6.125"
       sodipodi:ry="5.96875"
       d="M 25.6875 -135.96875 A 6.125 5.96875 0 1 1  13.4375,-135.96875 A 6.125 5.96875 0 1 1  25.6875 -135.96875 z"
       transform="matrix(1.4718871,-0.394391,0.3035365,1.1328139,27.207941,172.91577)"
       inkscape:transform-center-y="-7.3651901"
       inkscape:transform-center-x="1.9734894" />
    <path
       sodipodi:type="arc"
       style="opacity:0.5;fill:none;fill-opacity:1;stroke:url(#radialGradient8512);stroke-width:0.76375037;stroke-linecap:round;stroke-linejoin:miter;stroke-miterlimit:4;stroke-dasharray:none;stroke-dashoffset:0;stroke-opacity:1;display:inline"
       id="path8217"
       sodipodi:cx="12.046875"
       sodipodi:cy="10.046875"
       sodipodi:rx="9.546875"
       sodipodi:ry="9.546875"
       d="M 21.59375 10.046875 A 9.546875 9.546875 0 1 1  2.5,10.046875 A 9.546875 9.546875 0 1 1  21.59375 10.046875 z"
       transform="matrix(1.3093289,0,0,1.3093278,0.2266777,2.8453368)"
       inkscape:export-filename="/home/lapo/Desktop/something-along-the-lines.png"
       inkscape:export-xdpi="90"
       inkscape:export-ydpi="90" />
    <g
       transform="matrix(1.4659716,0,0,1.6726724,-0.1274193,-353.99202)"
       style="display:inline"
       id="g8219">
      <path
         style="opacity:1;fill:url(#linearGradient8542);fill-opacity:1;stroke:#cc0000;stroke-width:0.63860428;stroke-linecap:round;stroke-linejoin:miter;stroke-miterlimit:4;stroke-dasharray:none;stroke-dashoffset:0;stroke-opacity:1;display:inline"
         d="M 3.53125,221.5 C 3.5182669,221.66767 3.5,221.82902 3.5,222 C 3.5,224 4.5,227.5 11,227.5 C 17.5,227.5 18.5,224 18.5,222 C 18.5,221.82902 18.481733,221.66767 18.46875,221.5 L 3.53125,221.5 z "
         id="path8221"
         sodipodi:nodetypes="cszscc" />
    </g>
    <g
       id="g8223"
       style="display:inline"
       transform="matrix(0.6794581,0,0,0.6203719,-0.3042193,-92.631075)">
      <path
         id="path8225"
         d="M 23.5,177.5 L 23.5,190.5"
         style="opacity:0.08999999;fill:none;fill-opacity:1;fill-rule:evenodd;stroke:url(#linearGradient8514);stroke-width:1.54025495px;stroke-linecap:square;stroke-linejoin:miter;stroke-opacity:1"
         sodipodi:nodetypes="cc" />
      <path
         id="path8227"
         d="M 24.5,177.5 L 24.5,190.5"
         style="fill:none;fill-opacity:1;fill-rule:evenodd;stroke:url(#linearGradient8516);stroke-width:1.54025495px;stroke-linecap:square;stroke-linejoin:miter;stroke-opacity:1;display:inline"
         sodipodi:nodetypes="cc" />
      <g
         style="opacity:0.8;stroke-linecap:square"
         transform="translate(5,0)"
         id="g8229">
        <path
           style="opacity:0.08999999;fill:none;fill-opacity:1;fill-rule:evenodd;stroke:url(#linearGradient8518);stroke-width:1.54025495px;stroke-linecap:square;stroke-linejoin:miter;stroke-opacity:1;display:inline"
           d="M 23.5,177.5 L 23.5,190.5"
           id="path8231"
           sodipodi:nodetypes="cc" />
        <path
           style="fill:none;fill-opacity:1;fill-rule:evenodd;stroke:url(#linearGradient8520);stroke-width:1.54025495px;stroke-linecap:square;stroke-linejoin:miter;stroke-opacity:1;display:inline"
           d="M 24.5,177.5 L 24.5,190.5"
           id="path8233"
           sodipodi:nodetypes="cc" />
      </g>
      <g
         transform="translate(-5,0)"
         id="g8235"
         style="opacity:0.8;stroke-linecap:square;display:inline">
        <path
           style="opacity:0.08999999;fill:none;fill-opacity:1;fill-rule:evenodd;stroke:url(#linearGradient8522);stroke-width:1.54025495px;stroke-linecap:square;stroke-linejoin:miter;stroke-opacity:1;display:inline"
           d="M 23.5,177.5 L 23.5,190.5"
           id="path8237"
           sodipodi:nodetypes="cc" />
        <path
           style="fill:none;fill-opacity:1;fill-rule:evenodd;stroke:url(#linearGradient8524);stroke-width:1.54025495px;stroke-linecap:square;stroke-linejoin:miter;stroke-opacity:1;display:inline"
           d="M 24.5,177.5 L 24.5,190.5"
           id="path8239"
           sodipodi:nodetypes="cc" />
      </g>
      <g
         transform="translate(-9,0)"
         id="g8241"
         style="opacity:0.7;stroke-linecap:square;display:inline">
        <path
           style="opacity:0.08999999;fill:none;fill-opacity:1;fill-rule:evenodd;stroke:url(#linearGradient8526);stroke-width:1.54025495px;stroke-linecap:square;stroke-linejoin:miter;stroke-opacity:1;display:inline"
           d="M 23.5,177.5 L 23.5,188.5"
           id="path8243" />
        <path
           style="fill:none;fill-opacity:1;fill-rule:evenodd;stroke:url(#linearGradient8528);stroke-width:1.54025495px;stroke-linecap:square;stroke-linejoin:miter;stroke-opacity:1;display:inline"
           d="M 24.5,177.5 L 24.5,188.5"
           id="path8245" />
      </g>
      <g
         transform="translate(9,0)"
         id="g8247"
         style="opacity:0.7;stroke-linecap:square;display:inline">
        <path
           style="opacity:0.08999999;fill:none;fill-opacity:1;fill-rule:evenodd;stroke:url(#linearGradient8530);stroke-width:1.54025495px;stroke-linecap:square;stroke-linejoin:miter;stroke-opacity:1;display:inline"
           d="M 23.5,177.5 L 23.5,188.5"
           id="path8249" />
        <path
           style="fill:none;fill-opacity:1;fill-rule:evenodd;stroke:url(#linearGradient8532);stroke-width:1.54025495px;stroke-linecap:square;stroke-linejoin:miter;stroke-opacity:1;display:inline"
           d="M 24.5,177.5 L 24.5,188.5"
           id="path8251" />
      </g>
      <g
         transform="translate(12,0)"
         id="g8253"
         style="opacity:0.5;stroke-linecap:square;display:inline">
        <path
           style="opacity:0.08999999;fill:none;fill-opacity:1;fill-rule:evenodd;stroke:url(#linearGradient8534);stroke-width:1.54025495px;stroke-linecap:square;stroke-linejoin:miter;stroke-opacity:1;display:inline"
           d="M 23.5,177.5 L 23.5,188.5"
           id="path8255" />
        <path
           style="opacity:0.52873565;fill:none;fill-opacity:1;fill-rule:evenodd;stroke:url(#linearGradient8536);stroke-width:1.54025495px;stroke-linecap:square;stroke-linejoin:miter;stroke-opacity:1;display:inline"
           d="M 24.5,177.5 L 24.5,188.5"
           id="path8257" />
      </g>
      <g
         transform="translate(-12,0)"
         id="g8259"
         style="opacity:0.5;stroke-linecap:square;display:inline">
        <path
           style="opacity:0.08999999;fill:none;fill-opacity:1;fill-rule:evenodd;stroke:url(#linearGradient8538);stroke-width:1.54025495px;stroke-linecap:square;stroke-linejoin:miter;stroke-opacity:1;display:inline"
           d="M 23.5,177.5 L 23.5,188.5"
           id="path8261" />
        <path
           style="fill:none;fill-opacity:1;fill-rule:evenodd;stroke:url(#linearGradient8540);stroke-width:1.54025495px;stroke-linecap:square;stroke-linejoin:miter;stroke-opacity:1;display:inline"
           d="M 24.5,177.5 L 24.5,188.5"
           id="path8263" />
      </g>
    </g>
    <g
       style="display:inline"
       id="g8265"
       transform="matrix(0.6829264,0,0,0.7630523,-0.4024311,-1.9764078)">
      <g
         transform="translate(0,-152)"
         id="g8267"
         style="opacity:0.24137932;display:inline">
        <path
           sodipodi:type="arc"
           style="fill:none;fill-opacity:1;stroke:url(#linearGradient8544);stroke-width:2.23040771;stroke-linecap:round;stroke-linejoin:round;stroke-miterlimit:4;stroke-dasharray:none;stroke-dashoffset:0;stroke-opacity:1;display:inline"
           id="path8269"
           sodipodi:cx="-83"
           sodipodi:cy="53"
           sodipodi:rx="6.5"
           sodipodi:ry="6.5"
           d="M -89.127972,50.832521 A 6.5,6.5 0 0 1 -76.838897,50.928574"
           transform="matrix(-0.5696122,0,0,0.6772117,-17.268375,137.01057)"
           sodipodi:start="3.4815621"
           sodipodi:end="5.9588478"
           sodipodi:open="true" />
        <path
           sodipodi:type="arc"
           style="fill:none;fill-opacity:1;stroke:url(#linearGradient8546);stroke-width:2.23040771;stroke-linecap:round;stroke-linejoin:round;stroke-miterlimit:4;stroke-dasharray:none;stroke-dashoffset:0;stroke-opacity:1;display:inline"
           id="path8271"
           sodipodi:cx="-83"
           sodipodi:cy="53"
           sodipodi:rx="6.5"
           sodipodi:ry="6.5"
           d="M -89.127972,50.832521 A 6.5,6.5 0 0 1 -76.838897,50.928574"
           transform="matrix(-0.5696122,0,0,0.6772117,-29.268375,137.01057)"
           sodipodi:start="3.4815621"
           sodipodi:end="5.9588478"
           sodipodi:open="true" />
      </g>
      <path
         id="path8273"
         d="M 18.25,16.96875 C 17.709925,16.92945 17.165824,17.02287 16.625,17.25 C 15.391545,17.76803 14.479442,18.87124 14.0625,20.34375 C 14.00344,20.55851 14.056029,20.7981 14.1875,20.9375 C 14.648203,19.66847 15.509121,18.71924 16.625,18.25 C 17.165176,18.02286 17.710572,17.92945 18.25,17.96875 C 19.767142,18.07931 21.169926,19.18244 21.8125,20.90625 C 21.832472,20.88515 21.85815,20.86969 21.875,20.84375 C 21.985175,20.67415 22.022363,20.43902 21.9375,20.25 C 21.363629,18.32349 19.870224,17.08667 18.25,16.96875 z M 30.25,16.96875 C 29.710572,16.92945 29.165176,17.02286 28.625,17.25 C 27.393032,17.76806 26.47894,18.87115 26.0625,20.34375 C 26.003515,20.55851 26.056095,20.7981 26.1875,20.9375 C 26.648203,19.66847 27.509121,18.71924 28.625,18.25 C 29.165176,18.02286 29.710572,17.92945 30.25,17.96875 C 31.767142,18.07931 33.169926,19.18244 33.8125,20.90625 C 33.832463,20.88508 33.858147,20.8698 33.875,20.84375 C 33.985188,20.67343 34.023186,20.4392 33.9375,20.25 C 33.364317,18.32335 31.868285,17.08668 30.25,16.96875 z "
         style="fill:#a40000;fill-opacity:1;stroke:none;stroke-width:1.60906279;stroke-linecap:round;stroke-linejoin:round;stroke-miterlimit:4;stroke-dasharray:none;stroke-dashoffset:0;stroke-opacity:1;display:inline" />
    </g>
    <g
       style="display:inline"
       id="g8275"
       transform="matrix(0.6753247,0,0,0.6666667,-0.2012998,-186.50001)">
      <g
         transform="translate(2,-1)"
         id="g8277">
        <path
           style="fill:url(#linearGradient8387);fill-opacity:1;stroke:url(#linearGradient8389);stroke-width:1.49035358;stroke-linecap:round;stroke-linejoin:round;stroke-miterlimit:4;stroke-dashoffset:0;stroke-opacity:1;display:inline"
           d="M 15.5,289.5 C 15.5,293.50001 12.5,296.50001 8.4999996,296.50001 C 6.8439997,296.50001 3.5,288.15599 3.5,286.49999 C 3.5,285.49998 4.5,284.5 5.4999999,284.5 C 7.1559997,284.5 15.5,287.84399 15.5,289.5 z "
           id="path8279"
           sodipodi:nodetypes="csssc" />
        <path
           sodipodi:type="inkscape:offset"
           inkscape:radius="-1.5564336"
           inkscape:original="M 5.5 282.5 C 4.5000001 282.5 3.5 283.49998 3.5 284.5 C 3.5 286.156 6.8439997 294.50001 8.5 294.5 C 12.5 294.5 15.5 291.50001 15.5 287.5 C 15.5 285.84399 7.1559997 282.5 5.5 282.5 z "
           style="opacity:0.80459768;fill:none;fill-opacity:1;stroke:url(#linearGradient8391);stroke-width:1.49035358;stroke-linecap:round;stroke-linejoin:round;stroke-miterlimit:4;stroke-dashoffset:0;stroke-opacity:1;display:inline"
           id="path8281"
           d="M 5.5,284.0625 C 5.5188009,284.0625 5.349176,284.08832 5.21875,284.21875 C 5.088324,284.34918 5.0625,284.51879 5.0625,284.5 C 5.0625,284.39018 5.212034,285.32642 5.53125,286.28125 C 5.850466,287.23608 6.2831261,288.37364 6.78125,289.46875 C 7.2793739,290.56386 7.8485055,291.62622 8.3125,292.3125 C 8.5037255,292.59534 8.6624689,292.74912 8.78125,292.875 C 11.736512,292.74342 13.74342,290.73652 13.875,287.78125 C 13.749119,287.66247 13.595335,287.50373 13.3125,287.3125 C 12.626221,286.84851 11.563858,286.27937 10.46875,285.78125 C 9.3736416,285.28313 8.2360762,284.85047 7.28125,284.53125 C 6.3264238,284.21203 5.3901775,284.0625 5.5,284.0625 z "
           transform="translate(0,2)" />
        <path
           sodipodi:type="arc"
           style="opacity:1;fill:#ffffff;fill-opacity:1;stroke:none;stroke-width:1;stroke-linecap:round;stroke-linejoin:round;stroke-miterlimit:4;stroke-dasharray:none;stroke-dashoffset:0;stroke-opacity:0"
           id="path8283"
           sodipodi:cx="6.9582715"
           sodipodi:cy="287.21402"
           sodipodi:rx="1.0832715"
           sodipodi:ry="1.0265136"
           d="M 8.041543 287.21402 A 1.0832715 1.0265136 0 1 1  5.875,287.21402 A 1.0832715 1.0265136 0 1 1  8.041543 287.21402 z"
           transform="matrix(0.9231296,0,0,0.9741712,-0.9233864,6.2043737)" />
      </g>
      <g
         transform="translate(-2,-1)"
         id="g8285">
        <path
           style="fill:url(#linearGradient8393);fill-opacity:1;stroke:url(#linearGradient8395);stroke-width:1.49035358;stroke-linecap:round;stroke-linejoin:round;stroke-miterlimit:4;stroke-dashoffset:0;stroke-opacity:1;display:inline"
           d="M 32.5,289.49999 C 32.5,293.50001 35.5,296.50001 39.500001,296.50001 C 41.156001,296.50001 44.5,288.15599 44.5,286.49998 C 44.5,285.49998 43.500001,284.5 42.5,284.5 C 40.844001,284.5 32.5,287.84398 32.5,289.49999 z "
           id="path8287"
           sodipodi:nodetypes="csssc" />
        <path
           sodipodi:type="inkscape:offset"
           inkscape:radius="-1.4508965"
           inkscape:original="M 5.5 282.5 C 4.5000001 282.5 3.5 283.49998 3.5 284.5 C 3.5 286.156 6.8439997 294.50001 8.5 294.5 C 12.5 294.5 15.5 291.50001 15.5 287.5 C 15.5 285.84399 7.1559997 282.5 5.5 282.5 z "
           style="opacity:0.80459768;fill:none;fill-opacity:1;stroke:url(#linearGradient8397);stroke-width:1.49035358;stroke-linecap:round;stroke-linejoin:round;stroke-miterlimit:4;stroke-dashoffset:0;stroke-opacity:1;display:inline"
           id="path8289"
           d="M 5.5,283.9375 C 5.4836226,283.9375 5.3032598,284.00924 5.15625,284.15625 C 5.0092402,284.30326 4.9375,284.48361 4.9375,284.5 C 4.9375,284.4257 5.1169171,285.35358 5.4375,286.3125 C 5.7580829,287.27142 6.187791,288.43266 6.6875,289.53125 C 7.187209,290.62984 7.7491695,291.64921 8.21875,292.34375 C 8.4422549,292.67433 8.6278014,292.91302 8.75,293.03125 C 11.791501,292.91391 13.913909,290.79151 14.03125,287.75 C 13.913022,287.6278 13.674329,287.44226 13.34375,287.21875 C 12.649209,286.74917 11.629843,286.18721 10.53125,285.6875 C 9.4326569,285.18779 8.2714148,284.75808 7.3125,284.4375 C 6.3535852,284.11692 5.4256964,283.9375 5.5,283.9375 z "
           transform="matrix(-1,0,0,1,48.008926,2)" />
        <path
           sodipodi:type="arc"
           style="opacity:1;fill:#ffffff;fill-opacity:1;stroke:none;stroke-width:1;stroke-linecap:round;stroke-linejoin:round;stroke-miterlimit:4;stroke-dasharray:none;stroke-dashoffset:0;stroke-opacity:0;display:inline"
           id="path8291"
           sodipodi:cx="6.9582715"
           sodipodi:cy="287.21402"
           sodipodi:rx="1.0832715"
           sodipodi:ry="1.0265136"
           d="M 8.041543 287.21402 A 1.0832715 1.0265136 0 1 1  5.875,287.21402 A 1.0832715 1.0265136 0 1 1  8.041543 287.21402 z"
           transform="matrix(0.9231296,0,0,0.9741712,36.076614,6.2043737)" />
      </g>
    </g>
    <path
       style="opacity:0.45210727;fill:url(#linearGradient8467);fill-opacity:1;fill-rule:evenodd;stroke:none;stroke-width:1px;stroke-linecap:butt;stroke-linejoin:miter;stroke-opacity:1;display:inline"
       d="M 4.6026555,3.6247652 L 10.78812,9.5607722 L 11.611327,7.9148855 L 4.6026555,3.6247652 z "
       id="path8293"
       sodipodi:nodetypes="cccc" />
    <path
       style="opacity:0.45210727;fill:url(#linearGradient8464);fill-opacity:1;fill-rule:evenodd;stroke:none;stroke-width:1px;stroke-linecap:butt;stroke-linejoin:miter;stroke-opacity:1;display:inline"
       d="M 27.611327,3.6247652 L 21.425863,9.5607722 L 20.602656,7.9148855 L 27.611327,3.6247652 z "
       id="path8295"
       sodipodi:nodetypes="cccc" />
    <g
       id="g3281"
       style="opacity:0.06563707"
       transform="matrix(0.6685972,0,0,0.6759096,-9.950155e-2,-1.557506)">
      <path
         id="rect2273"
         d="M 8.5,30.5 C 8.4571737,30.518354 8.416659,30.542727 8.375,30.5625 C 8.7680202,32.127099 9.4521015,33.738886 10.65625,35.1875 C 12.904924,37.892698 16.923204,40.03125 24,40.03125 C 31.076796,40.031248 35.095076,37.892698 37.34375,35.1875 C 38.54729,33.739618 39.200616,32.126364 39.59375,30.5625 C 39.562355,30.541917 39.532728,30.519637 39.5,30.5 C 38.5,31.5 37,32 36,32 L 34.5,34 L 33,32 C 32,32.5 30,32.5 29,32 C 28,33 25,33 24,32 C 23,33 20,33 19,32 C 18,32.5 16,32.5 15,32 L 13.5,35 L 12,32 C 11,32 9.5,31.5 8.5,30.5 z "
         style="opacity:0.9420853;color:#000000;fill:url(#radialGradient3826);fill-opacity:1;fill-rule:evenodd;stroke:none;stroke-width:1.20000005;stroke-linecap:round;stroke-linejoin:miter;marker:none;marker-start:none;marker-mid:none;marker-end:none;stroke-miterlimit:4;stroke-dasharray:none;stroke-dashoffset:0;stroke-opacity:1;visibility:visible;display:inline;overflow:visible;enable-background:accumulate"
         sodipodi:nodetypes="ccssscccccccccccc" />
      <path
         id="path3277"
         d="M 39.46875,30.5 C 39.511576,30.518354 39.552091,30.542727 39.59375,30.5625 C 39.20073,32.127099 38.516649,33.738886 37.3125,35.1875 C 35.063826,37.892698 31.045546,40.03125 23.96875,40.03125 C 16.891954,40.031248 12.873674,37.892698 10.625,35.1875 C 9.42146,33.739618 8.768134,32.126364 8.375,30.5625 C 8.406395,30.541917 8.436022,30.519637 8.46875,30.5 C 9.46875,31.5 10.96875,32 11.96875,32 L 13.46875,35 L 14.96875,32 C 15.96875,32.5 17.96875,32.5 18.96875,32 C 19.96875,33 22.96875,33 23.96875,32 C 24.96875,33 27.96875,33 28.96875,32 C 29.96875,32.5 31.96875,32.5 32.96875,32 L 34.46875,35 L 35.96875,32 C 36.96875,32 38.46875,31.5 39.46875,30.5 z "
         style="opacity:0.9420853;color:#000000;fill:url(#radialGradient3828);fill-opacity:1;fill-rule:evenodd;stroke:none;stroke-width:1.20000005;stroke-linecap:round;stroke-linejoin:miter;marker:none;marker-start:none;marker-mid:none;marker-end:none;stroke-miterlimit:4;stroke-dasharray:none;stroke-dashoffset:0;stroke-opacity:1;visibility:visible;display:inline;overflow:visible;enable-background:accumulate"
         sodipodi:nodetypes="ccssscccccccccccc" />
    </g>
    <path
       style="color:#000000;fill:url(#radialGradient3833);fill-opacity:1;fill-rule:evenodd;stroke:none;stroke-width:1.20000005;stroke-linecap:round;stroke-linejoin:miter;marker:none;marker-start:none;marker-mid:none;marker-end:none;stroke-miterlimit:4;stroke-dasharray:none;stroke-dashoffset:0;stroke-opacity:1;visibility:visible;display:inline;overflow:visible;enable-background:accumulate"
       d="M 5.5835745,18.740904 C 5.5616925,18.754177 5.5418845,18.769236 5.5208934,18.783149 C 5.5473105,18.889384 5.5743395,18.993219 5.6044685,19.099981 C 6.2724995,19.748212 7.2480075,20.071601 7.9027715,20.071601 L 8.9056665,22.09933 L 9.9085624,20.071601 C 10.577159,20.409556 11.914354,20.409556 12.582951,20.071601 C 13.251548,20.747511 15.25734,20.747511 15.925937,20.071601 C 16.594534,20.747511 18.600326,20.747511 19.268923,20.071601 C 19.93752,20.409556 21.274715,20.409556 21.943312,20.071601 L 22.946208,22.09933 L 23.949103,20.071601 C 24.617701,20.071601 25.620596,19.733646 26.289194,19.057737 C 26.29492,19.060218 26.304466,19.054988 26.310087,19.057737 C 26.336359,18.964184 26.370515,18.876303 26.393662,18.783149 C 26.365809,18.769784 26.33872,18.75331 26.310087,18.740904 C 25.64149,19.416814 24.638593,19.754769 23.969997,19.754769 L 22.967101,21.782497 L 21.964205,19.754769 C 21.295608,20.092723 19.958413,20.092723 19.289817,19.754769 C 18.621219,20.430678 16.615427,20.430678 15.946831,19.754769 C 15.278233,20.430678 13.272441,20.430678 12.603845,19.754769 C 11.935247,20.092723 10.598053,20.092723 9.9294564,19.754769 L 8.9265605,21.782497 L 7.9236645,19.754769 C 7.2550675,19.754769 6.2521715,19.416814 5.5835745,18.740904 z "
       id="path3289"
       sodipodi:nodetypes="cscccccccccccssccccccccccc" />
  </g>
</svg>
