<?xml version="1.0" encoding="UTF-8" standalone="no"?>
<!-- Created with Inkscape (http://www.inkscape.org/) -->
<svg
   xmlns:dc="http://purl.org/dc/elements/1.1/"
   xmlns:cc="http://web.resource.org/cc/"
   xmlns:rdf="http://www.w3.org/1999/02/22-rdf-syntax-ns#"
   xmlns:svg="http://www.w3.org/2000/svg"
   xmlns="http://www.w3.org/2000/svg"
   xmlns:xlink="http://www.w3.org/1999/xlink"
   xmlns:sodipodi="http://sodipodi.sourceforge.net/DTD/sodipodi-0.dtd"
   xmlns:inkscape="http://www.inkscape.org/namespaces/inkscape"
   width="32"
   height="32"
   id="svg2"
   sodipodi:version="0.32"
   inkscape:version="0.45.1"
   version="1.0"
   sodipodi:docbase="/home/lapo/Icone/gnome-icon-theme/32x32/categories"
   sodipodi:docname="applications-utilities.svg"
   inkscape:output_extension="org.inkscape.output.svg.inkscape">
  <defs
     id="defs4">
    <linearGradient
       inkscape:collect="always"
       id="linearGradient6886">
      <stop
         style="stop-color:#000000;stop-opacity:1;"
         offset="0"
         id="stop6888" />
      <stop
         style="stop-color:#000000;stop-opacity:0;"
         offset="1"
         id="stop6890" />
    </linearGradient>
    <linearGradient
       inkscape:collect="always"
       id="linearGradient6856">
      <stop
         style="stop-color:#000000;stop-opacity:1;"
         offset="0"
         id="stop6858" />
      <stop
         style="stop-color:#000000;stop-opacity:0;"
         offset="1"
         id="stop6860" />
    </linearGradient>
    <linearGradient
       inkscape:collect="always"
       id="linearGradient6776">
      <stop
         style="stop-color:#ffffff;stop-opacity:1;"
         offset="0"
         id="stop6778" />
      <stop
         style="stop-color:#ffffff;stop-opacity:0;"
         offset="1"
         id="stop6780" />
    </linearGradient>
    <linearGradient
       id="linearGradient6594">
      <stop
         style="stop-color:#ffffff;stop-opacity:1;"
         offset="0"
         id="stop6596" />
      <stop
         id="stop6714"
         offset="0.5"
         style="stop-color:#babdb6;stop-opacity:1;" />
      <stop
         style="stop-color:#ffffff;stop-opacity:1;"
         offset="1"
         id="stop6598" />
    </linearGradient>
    <linearGradient
       id="linearGradient6393">
      <stop
         style="stop-color:#d3d7cf;stop-opacity:1"
         offset="0"
         id="stop6395" />
      <stop
         id="stop6401"
         offset="0.5"
         style="stop-color:#ffffff;stop-opacity:1;" />
      <stop
         style="stop-color:#eeeeec;stop-opacity:1"
         offset="1"
         id="stop6397" />
    </linearGradient>
    <linearGradient
       inkscape:collect="always"
       id="linearGradient6377">
      <stop
         style="stop-color:#2e3436;stop-opacity:1"
         offset="0"
         id="stop6379" />
      <stop
         style="stop-color:#2e3436;stop-opacity:0"
         offset="1"
         id="stop6381" />
    </linearGradient>
    <linearGradient
       id="linearGradient6350">
      <stop
         style="stop-color:#cc0000;stop-opacity:1"
         offset="0"
         id="stop6352" />
      <stop
         style="stop-color:#ef2929;stop-opacity:1;"
         offset="1"
         id="stop6354" />
    </linearGradient>
    <linearGradient
       inkscape:collect="always"
       id="linearGradient6340">
      <stop
         style="stop-color:#ffffff;stop-opacity:1;"
         offset="0"
         id="stop6342" />
      <stop
         style="stop-color:#ffffff;stop-opacity:0;"
         offset="1"
         id="stop6344" />
    </linearGradient>
    <radialGradient
       inkscape:collect="always"
       xlink:href="#linearGradient6856"
       id="radialGradient6565"
       gradientUnits="userSpaceOnUse"
       gradientTransform="matrix(1,0,0,0.4290909,0,21.651002)"
       cx="23.953241"
       cy="37.923729"
       fx="23.953241"
       fy="37.923729"
       r="24.306795" />
    <radialGradient
       inkscape:collect="always"
       xlink:href="#linearGradient6856"
       id="radialGradient6567"
       gradientUnits="userSpaceOnUse"
       gradientTransform="matrix(1,0,0,0.4290909,0,21.651002)"
       cx="23.953241"
       cy="37.923729"
       fx="23.953241"
       fy="37.923729"
       r="24.306795" />
    <linearGradient
       inkscape:collect="always"
       xlink:href="#linearGradient6340"
       id="linearGradient6579"
       gradientUnits="userSpaceOnUse"
       x1="-7.449357"
       y1="17.625364"
       x2="-31.08465"
       y2="46.566097" />
    <linearGradient
       inkscape:collect="always"
       xlink:href="#linearGradient6776"
       id="linearGradient6598"
       gradientUnits="userSpaceOnUse"
       x1="8.1083107"
       y1="20.627378"
       x2="19.899494"
       y2="24.283916"
       gradientTransform="matrix(0.6604072,0,0,0.6612805,0,0.1637575)" />
    <linearGradient
       inkscape:collect="always"
       xlink:href="#linearGradient6594"
       id="linearGradient6603"
       gradientUnits="userSpaceOnUse"
       gradientTransform="matrix(0.6604072,0,0,0.6612805,0,6.115282)"
       x1="13.660311"
       y1="37"
       x2="13.6875"
       y2="33.5625" />
    <linearGradient
       inkscape:collect="always"
       xlink:href="#linearGradient6594"
       id="linearGradient6606"
       gradientUnits="userSpaceOnUse"
       gradientTransform="matrix(0.6604072,0,0,0.6612805,0,4.1314405)"
       x1="13.660311"
       y1="37"
       x2="13.6875"
       y2="33.5625" />
    <linearGradient
       inkscape:collect="always"
       xlink:href="#linearGradient6594"
       id="linearGradient6609"
       gradientUnits="userSpaceOnUse"
       gradientTransform="matrix(0.6604072,0,0,0.6612805,0,2.147599)"
       x1="13.660311"
       y1="37"
       x2="13.6875"
       y2="33.5625" />
    <linearGradient
       inkscape:collect="always"
       xlink:href="#linearGradient6377"
       id="linearGradient6612"
       gradientUnits="userSpaceOnUse"
       gradientTransform="matrix(-0.6604072,0,0,-0.6612805,40.100203,23.644718)"
       x1="17.694265"
       y1="5.893404"
       x2="16.578959"
       y2="4.7780981" />
    <linearGradient
       inkscape:collect="always"
       xlink:href="#linearGradient6377"
       id="linearGradient6615"
       gradientUnits="userSpaceOnUse"
       gradientTransform="matrix(0.4669784,0.6331538,-0.4669784,0.6331538,16.301009,-5.1679856)"
       x1="16.594913"
       y1="6.2096438"
       x2="17.467747"
       y2="7.2198262" />
    <linearGradient
       inkscape:collect="always"
       xlink:href="#linearGradient6377"
       id="linearGradient6618"
       gradientUnits="userSpaceOnUse"
       gradientTransform="matrix(0.6604072,0,0,0.6612805,0.6604072,-0.497523)"
       x1="16.175068"
       y1="5.8339934"
       x2="17.103146"
       y2="6.8994184" />
    <linearGradient
       inkscape:collect="always"
       xlink:href="#linearGradient6350"
       id="linearGradient6622"
       gradientUnits="userSpaceOnUse"
       x1="-9.6076384"
       y1="36.047863"
       x2="-4.8166409"
       y2="36.165699"
       gradientTransform="matrix(0.6608297,0,0,0.6608297,-0.1176595,0.1176595)" />
    <linearGradient
       inkscape:collect="always"
       xlink:href="#linearGradient6594"
       id="linearGradient6625"
       gradientUnits="userSpaceOnUse"
       x1="13.660311"
       y1="37"
       x2="13.6875"
       y2="33.5625"
       gradientTransform="matrix(0.6604072,0,0,0.6612805,0,0.1637575)" />
    <linearGradient
       inkscape:collect="always"
       xlink:href="#linearGradient6594"
       id="linearGradient6628"
       gradientUnits="userSpaceOnUse"
       gradientTransform="matrix(0.6604072,0,0,0.6612805,0,-1.820084)"
       x1="14.001307"
       y1="36.6875"
       x2="14.001307"
       y2="34.3125" />
    <linearGradient
       inkscape:collect="always"
       xlink:href="#linearGradient6393"
       id="linearGradient6642"
       gradientUnits="userSpaceOnUse"
       x1="40.570251"
       y1="37.349899"
       x2="40.570251"
       y2="27.537407"
       gradientTransform="matrix(0.6604072,0,0,0.6612805,0,0.1637575)" />
    <linearGradient
       inkscape:collect="always"
       xlink:href="#linearGradient6393"
       id="linearGradient6646"
       gradientUnits="userSpaceOnUse"
       x1="31.165529"
       y1="34.234436"
       x2="33.806744"
       y2="24.377295"
       gradientTransform="matrix(0.8106673,0,0,0.6612805,-5.4491403,0.1637575)" />
    <linearGradient
       inkscape:collect="always"
       xlink:href="#linearGradient6393"
       id="linearGradient6651"
       gradientUnits="userSpaceOnUse"
       x1="8.5690336"
       y1="11.255746"
       x2="22.398188"
       y2="13"
       gradientTransform="matrix(0.6604072,0,0,0.6612805,0,0.1637575)" />
    <linearGradient
       inkscape:collect="always"
       xlink:href="#linearGradient6886"
       id="linearGradient6654"
       gradientUnits="userSpaceOnUse"
       x1="17.75"
       y1="14.625"
       x2="19.186819"
       y2="16.061819"
       gradientTransform="matrix(0.6604072,0,0,0.6612805,0.375,-0.3362425)" />
    <linearGradient
       inkscape:collect="always"
       xlink:href="#linearGradient6393"
       id="linearGradient6658"
       gradientUnits="userSpaceOnUse"
       x1="14.273527"
       y1="15.035544"
       x2="33.601479"
       y2="20.214453"
       gradientTransform="matrix(0.6604072,0,0,0.6612805,0.375,-0.3362425)" />
  </defs>
  <sodipodi:namedview
     id="base"
     pagecolor="#ffffff"
     bordercolor="#666666"
     borderopacity="0.34901961"
     inkscape:pageopacity="0"
     inkscape:pageshadow="2"
     inkscape:zoom="1"
     inkscape:cx="14.68137"
     inkscape:cy="26.874409"
     inkscape:document-units="px"
     inkscape:current-layer="layer1"
     width="32px"
     height="32px"
     inkscape:showpageshadow="false"
     gridspacingx="0.5px"
     gridspacingy="0.5px"
     gridempspacing="2"
     showgrid="false"
     inkscape:window-width="1081"
     inkscape:window-height="750"
     inkscape:window-x="107"
     inkscape:window-y="193"
     borderlayer="true"
     showborder="false"
     showguides="false"
     inkscape:guide-bbox="true"
     inkscape:grid-points="false"
     inkscape:object-paths="false"
     inkscape:grid-bbox="false">
    <sodipodi:guide
       orientation="horizontal"
       position="19.533825"
       id="guide6330" />
    <sodipodi:guide
       orientation="vertical"
       position="19.003495"
       id="guide6332" />
  </sodipodi:namedview>
  <metadata
     id="metadata7">
    <rdf:RDF>
      <cc:Work
         rdf:about="">
        <dc:format>image/svg+xml</dc:format>
        <dc:type
           rdf:resource="http://purl.org/dc/dcmitype/StillImage" />
        <cc:license
           rdf:resource="http://creativecommons.org/licenses/GPL/2.0/" />
        <dc:creator>
          <cc:Agent>
            <dc:title>Lapo Calamandrei</dc:title>
          </cc:Agent>
        </dc:creator>
        <dc:title>Swiss Army Knife</dc:title>
        <dc:subject>
          <rdf:Bag>
            <rdf:li>utilities</rdf:li>
          </rdf:Bag>
        </dc:subject>
      </cc:Work>
      <cc:License
         rdf:about="http://creativecommons.org/licenses/GPL/2.0/">
        <cc:permits
           rdf:resource="http://web.resource.org/cc/Reproduction" />
        <cc:permits
           rdf:resource="http://web.resource.org/cc/Distribution" />
        <cc:requires
           rdf:resource="http://web.resource.org/cc/Notice" />
        <cc:permits
           rdf:resource="http://web.resource.org/cc/DerivativeWorks" />
        <cc:requires
           rdf:resource="http://web.resource.org/cc/ShareAlike" />
        <cc:requires
           rdf:resource="http://web.resource.org/cc/SourceCode" />
      </cc:License>
    </rdf:RDF>
  </metadata>
  <g
     inkscape:label="Livello 1"
     inkscape:groupmode="layer"
     id="layer1">
    <path
       style="fill:url(#linearGradient6658);fill-opacity:1;stroke:#888a85;stroke-width:1.00000012;stroke-linecap:round;stroke-linejoin:miter;stroke-miterlimit:4;stroke-dashoffset:0.7;stroke-opacity:1"
       d="M 5.6226972,8.5910449 L 21.604552,8.5910449 C 27.01315,8.5910449 27.781899,9.940175 27.781899,9.940175 C 27.781899,9.940175 26.900678,12.558728 16.402575,12.558728 L 5.6226972,12.558728 C 4.3618682,12.558728 3.3468324,11.673935 3.3468324,10.574886 C 3.3468324,9.4758382 4.3618682,8.5910449 5.6226972,8.5910449 z "
       id="rect6318"
       sodipodi:nodetypes="cczccsc" />
    <path
       sodipodi:type="inkscape:offset"
       inkscape:radius="-1.009594"
       inkscape:original="M 7.9375 13.5 C 6.0283308 13.5 4.5 14.837999 4.5 16.5 C 4.5 18.162 6.0283306 19.499999 7.9375 19.5 L 24.28125 19.5 C 40.177659 19.5 41.500001 15.53125 41.5 15.53125 C 41.5 15.53125 40.346045 13.5 32.15625 13.5 L 7.9375 13.5 z "
       style="fill:none;fill-opacity:1;stroke:#ffffff;stroke-width:1.51321733;stroke-linecap:round;stroke-linejoin:miter;stroke-miterlimit:4;stroke-dashoffset:0.7;stroke-opacity:1"
       id="path6365"
       d="M 7.9375,14.5 C 6.5000319,14.5 5.5,15.456929 5.5,16.5 C 5.5,17.54307 6.5000313,18.499999 7.9375,18.5 L 24.28125,18.5 C 32.145435,18.5 36.343043,17.503772 38.46875,16.59375 C 39.301451,16.237268 39.624736,15.946311 39.9375,15.6875 C 39.787457,15.609179 39.759395,15.55704 39.53125,15.46875 C 38.383861,15.024723 36.16768,14.5 32.15625,14.5 L 7.9375,14.5 z "
       transform="matrix(0.6604072,0,0,0.6612805,0.375,-0.3362425)" />
    <path
       style="opacity:0.25862068;fill:url(#linearGradient6654);fill-opacity:1;stroke:none;stroke-width:1;stroke-linecap:round;stroke-linejoin:miter;stroke-miterlimit:4;stroke-dashoffset:0.7;stroke-opacity:1"
       d="M 5.6169822,8.260404 C 4.2018758,8.260404 3.0166288,9.2731386 3.0166288,10.574886 C 3.0166288,11.876632 4.2018758,12.889367 5.6169822,12.889368 L 16.410512,12.889368 L 16.988369,8.260404 L 5.6169822,8.260404 z "
       id="path6873"
       sodipodi:nodetypes="cscccc" />
    <path
       style="fill:url(#linearGradient6651);fill-opacity:1;stroke:#888a85;stroke-width:1.00000012;stroke-linecap:round;stroke-linejoin:miter;stroke-miterlimit:4;stroke-dashoffset:0.7;stroke-opacity:1"
       d="M 4.8280215,8.7401172 C 3.7250232,9.844574 3.7396162,11.624838 4.8426146,12.729294 C 5.9456129,13.833751 7.7089326,13.833751 8.8119308,12.729294 L 11.540836,9.996781 C 12.839772,8.6961282 12.743837,8.5671167 13.357299,7.5628737 L 12.78817,6.9929909 L 12.358049,7.4250036 C 12.034666,7.7488135 11.513985,7.7488135 11.190603,7.4250036 L 10.986299,7.2204305 C 10.662917,6.89662 10.662917,6.3752505 10.986299,6.0514404 L 13.17526,3.8595844 C 13.450136,3.5843458 13.892715,3.5843458 14.16759,3.8595844 L 15.174512,4.8678382 C 15.702322,3.3132351 15.641877,1.2283494 15.048789,0.63447779 C 14.441254,0.026139341 11.95796,1.6007502 10.854962,2.7052071 L 4.8280215,8.7401172 z "
       id="rect5331"
       sodipodi:nodetypes="cscccccccccccscc" />
    <path
       sodipodi:type="arc"
       style="opacity:0.14224135;fill:url(#radialGradient6565);fill-opacity:1;stroke:none;stroke-width:1.29999995;stroke-linecap:round;stroke-linejoin:round;stroke-miterlimit:4;stroke-dasharray:none;stroke-dashoffset:0.7;stroke-opacity:1"
       id="path6854"
       sodipodi:cx="23.953241"
       sodipodi:cy="37.923729"
       sodipodi:rx="24.306795"
       sodipodi:ry="10.429825"
       d="M 48.260036 37.923729 A 24.306795 10.429825 0 1 1  -0.35355377,37.923729 A 24.306795 10.429825 0 1 1  48.260036 37.923729 z"
       transform="matrix(0.6124276,0,0,0.3456592,1.6008675,15.00735)" />
    <path
       sodipodi:type="arc"
       style="opacity:0.28017243;fill:url(#radialGradient6567);fill-opacity:1;stroke:none;stroke-width:1.29999995;stroke-linecap:round;stroke-linejoin:round;stroke-miterlimit:4;stroke-dasharray:none;stroke-dashoffset:0.7;stroke-opacity:1"
       id="path6894"
       sodipodi:cx="23.953241"
       sodipodi:cy="37.923729"
       sodipodi:rx="24.306795"
       sodipodi:ry="10.429825"
       d="M 48.260036 37.923729 A 24.306795 10.429825 0 1 1  -0.35355377,37.923729 A 24.306795 10.429825 0 1 1  48.260036 37.923729 z"
       transform="matrix(0.2010064,0,0,0.1929894,14.456047,20.838485)" />
    <path
       style="fill:url(#linearGradient6646);fill-opacity:1;stroke:#888a85;stroke-width:1.00000012;stroke-linecap:round;stroke-linejoin:miter;stroke-miterlimit:4;stroke-dashoffset:0.7;stroke-opacity:1"
       d="M 22.518883,25.993792 L 22.518883,19.054237 C 22.518883,14.572378 20.889841,14.079872 20.889841,14.079872 C 20.889841,14.079872 18.465545,15.465355 18.465545,20.676917 L 18.465545,25.993792 C 18.465545,27.070628 19.36944,27.937539 20.492214,27.937539 C 21.614988,27.937539 22.518883,27.070628 22.518883,25.993792 z "
       id="path6321"
       sodipodi:nodetypes="cczccsc" />
    <path
       sodipodi:type="inkscape:offset"
       inkscape:radius="-1.2479775"
       inkscape:original="M 32.5 21.53125 C 32.499999 21.53125 29.5 23.650234 29.5 31.53125 L 29.5 39.5625 C 29.5 41.190908 30.615 42.5 32 42.5 C 33.385 42.5 34.5 41.19091 34.5 39.5625 L 34.5 29.0625 C 34.5 22.284953 32.5 21.53125 32.5 21.53125 z "
       style="fill:none;fill-opacity:1;stroke:#ffffff;stroke-width:1.14404845;stroke-linecap:round;stroke-linejoin:miter;stroke-miterlimit:4;stroke-dashoffset:0.7;stroke-opacity:1"
       id="path6373"
       d="M 32.46875,23.59375 C 32.346469,23.786629 32.257721,23.856926 32.125,24.125 C 31.470453,25.447075 30.75,27.749094 30.75,31.53125 L 30.75,39.5625 C 30.75,40.621233 31.401386,41.25 32,41.25 C 32.598615,41.25 33.25,40.621236 33.25,39.5625 L 33.25,29.0625 C 33.25,26.035317 32.836412,24.457453 32.46875,23.59375 z "
       transform="matrix(1.1553819,0,0,0.6612805,-16.45791,-0.1668828)" />
    <path
       style="fill:url(#linearGradient6642);fill-opacity:1;stroke:#888a85;stroke-width:1.00000012;stroke-linecap:round;stroke-linejoin:miter;stroke-miterlimit:4;stroke-dashoffset:0.7;stroke-opacity:1"
       d="M 19.478784,25.131963 C 18.525657,26.086351 18.702665,27.160393 19.478784,27.937539 C 20.254903,28.714683 21.648573,28.570454 22.601703,27.616066 L 29.632128,20.576344 C 31.033063,19.173556 31.500042,17.303172 31.500042,17.303172 L 30.099107,15.900384 C 30.099107,15.900384 28.690106,16.246732 27.443167,17.215498 C 26.51451,18.562168 27.171787,20.234363 25.896301,21.511535 C 25.249536,22.159156 24.868581,21.497875 24.221816,20.850255 C 24.140971,20.769303 24.078147,20.678988 24.017513,20.587232 L 19.478784,25.131963 z "
       id="rect6323"
       sodipodi:nodetypes="cscccccsscc" />
    <path
       sodipodi:type="inkscape:offset"
       inkscape:radius="-1.0726773"
       inkscape:original="M 45.5625 23.8125 C 45.5625 23.812501 43.450636 24.316265 41.5625 25.78125 C 40.156313 27.817708 41.150113 30.349887 39.21875 32.28125 C 38.239407 33.260592 37.666843 32.260593 36.6875 31.28125 C 36.565081 31.158834 36.466814 31.013755 36.375 30.875 L 29.5 37.75 C 28.056759 39.193243 28.324787 40.824787 29.5 42 C 30.675213 43.175211 32.775505 42.943242 34.21875 41.5 L 44.875 30.875 C 46.996321 28.753678 47.6875 25.90625 47.6875 25.90625 L 45.5625 23.8125 z "
       style="fill:none;fill-opacity:1;stroke:#ffffff;stroke-width:1.51321733;stroke-linecap:round;stroke-linejoin:miter;stroke-miterlimit:4;stroke-dashoffset:0.7;stroke-opacity:1"
       id="path6369"
       d="M 45.28125,25.03125 C 44.719541,25.204121 43.645354,25.62333 42.40625,26.53125 C 41.945274,27.262439 41.823466,28.099947 41.65625,29.21875 C 41.481314,30.389201 41.165222,31.834778 39.96875,33.03125 C 39.622419,33.377581 39.199139,33.679039 38.6875,33.75 C 38.175861,33.820961 37.703013,33.617611 37.375,33.40625 C 36.901275,33.100997 36.646118,32.744268 36.34375,32.40625 L 30.25,38.5 C 29.694766,39.055234 29.574777,39.521168 29.59375,39.9375 C 29.612723,40.353832 29.809065,40.809065 30.25,41.25 C 30.923456,41.923454 32.352804,41.865943 33.46875,40.75 L 44.125,30.125 C 45.66743,28.582569 46.266019,26.847532 46.46875,26.1875 L 45.28125,25.03125 z "
       transform="matrix(0.6604072,0,0,0.6612805,0,0.1637575)" />
    <path
       d="M 13.90625,25.09375 C 13.836214,25.106855 13.771256,25.139334 13.71875,25.1875 C 8.3362423,30.570008 5.4682257,33.393734 3.90625,35.375 C 2.3442743,37.356266 2.125,38.585994 2.125,40.5 C 2.1293321,40.645787 2.216503,40.776311 2.3495079,40.836163 C 2.4825128,40.896015 2.6380141,40.874694 2.75,40.78125 L 16.75,27.28125 C 16.833045,27.199828 16.874359,27.084939 16.862184,26.969277 C 16.850009,26.853615 16.785678,26.749845 16.6875,26.6875 L 14.1875,25.15625 C 14.105543,25.099411 14.004567,25.076972 13.90625,25.09375 z "
       id="path6521"
       style="fill:#eeeeec;fill-rule:evenodd;stroke:#888a85;stroke-width:1.51321733px;stroke-linecap:butt;stroke-linejoin:miter;stroke-opacity:1"
       inkscape:original="M 14 25.46875 C 3.2329203 36.23583 2.5 36.721255 2.5 40.5 L 16.5 27 L 14 25.46875 z "
       inkscape:radius="0.38100424"
       sodipodi:type="inkscape:offset"
       transform="matrix(0.6604072,0,0,0.6612805,0,0.1637575)" />
    <path
       sodipodi:nodetypes="cssccscccccccccsssc"
       id="path6518"
       d="M 14.590872,1.2383383 C 14.555003,1.2429717 14.543321,1.2409666 14.467045,1.2590033 C 14.123954,1.340133 13.50073,1.6461002 12.898578,2.0236089 C 12.296426,2.4011176 11.706797,2.8449951 11.350749,3.2015148 L 5.324533,9.2356994 C 4.4921024,10.069231 4.5062354,11.392082 5.3451708,12.232127 C 6.1845698,13.072636 7.4776038,13.072636 8.3170032,12.232127 L 11.041183,9.5043446 C 11.389791,9.1552757 12.946357,7.3977033 12.946357,7.3977033 C 12.946357,7.3977033 11.938785,8.8969578 11.530031,8.4876628 L 10.483964,7.7064882 C 9.8955448,7.1172906 9.8955461,6.1465235 10.483964,5.5573266 L 12.671563,3.3668349 C 13.214893,2.8227866 14.109455,2.8227856 14.652785,3.3668349 L 14.69406,3.408165 C 14.764723,3.0578219 14.826414,2.7119659 14.817887,2.4162442 C 14.808045,2.0749796 14.757918,1.7608115 14.69406,1.5276485 C 14.662131,1.411067 14.620416,1.3292906 14.590872,1.2590033 C 14.585778,1.2468848 14.596045,1.248988 14.590872,1.2383383 z "
       style="fill:none;fill-opacity:1;stroke:#ffffff;stroke-width:1.00000012;stroke-linecap:round;stroke-linejoin:miter;stroke-miterlimit:4;stroke-dashoffset:0.7;stroke-opacity:1" />
    <path
       sodipodi:type="inkscape:offset"
       inkscape:radius="-0.59492946"
       inkscape:original="M 14 25.46875 C 3.2329203 36.23583 2.5 36.721255 2.5 40.5 L 16.5 27 L 14 25.46875 z "
       style="fill:none;fill-rule:evenodd;stroke:#ffffff;stroke-width:1.51321709;stroke-linecap:butt;stroke-linejoin:miter;stroke-miterlimit:6;stroke-dasharray:none;stroke-opacity:1"
       id="path6429"
       d="M 14.0625,26.21875 C 8.95462,31.324147 6.1252658,34.145036 4.6875,35.96875 C 3.7233231,37.191747 3.4293266,38.038623 3.28125,38.9375 L 15.53125,27.09375 L 14.0625,26.21875 z "
       transform="matrix(0.6604072,0,0,0.6612805,0,0.1637575)" />
    <path
       style="fill:none;fill-opacity:1;stroke:#888a85;stroke-width:3.00000048;stroke-linecap:round;stroke-linejoin:round;stroke-miterlimit:4;stroke-dasharray:none;stroke-dashoffset:0.7;stroke-opacity:1"
       d="M 8.9154972,22.316654 C 9.6445867,22.316654 9.5759044,21.986014 9.5759044,21.324732 L 9.5759044,18.348971"
       id="path6634"
       sodipodi:nodetypes="css" />
    <g
       id="g6733"
       transform="matrix(0.6604072,0,0,0.6612805,0,0.1637575)">
      <path
         sodipodi:nodetypes="css"
         id="path6557"
         d="M 13.5,36.5 C 14.604,36.5 15.5,36 15.5,34.999998 C 15.5,33.999999 14.604,33.499999 13.5,33.499999"
         style="fill:none;fill-opacity:1;stroke:#888a85;stroke-width:4.53965187;stroke-linecap:round;stroke-linejoin:round;stroke-miterlimit:4;stroke-dasharray:none;stroke-dashoffset:0.7;stroke-opacity:1" />
      <path
         sodipodi:nodetypes="css"
         id="path6559"
         d="M 13.5,39.5 C 14.604,39.5 15.5,39 15.5,37.999998 C 15.5,36.999999 14.604,36.499999 13.5,36.499999"
         style="fill:none;fill-opacity:1;stroke:#888a85;stroke-width:4.53965187;stroke-linecap:round;stroke-linejoin:round;stroke-miterlimit:4;stroke-dasharray:none;stroke-dashoffset:0.7;stroke-opacity:1" />
      <path
         sodipodi:nodetypes="css"
         id="path6561"
         d="M 13.5,42.5 C 14.604,42.5 15.5,42 15.5,40.999998 C 15.5,39.999999 14.604,39.499999 13.5,39.499999"
         style="fill:none;fill-opacity:1;stroke:#888a85;stroke-width:4.53965187;stroke-linecap:round;stroke-linejoin:round;stroke-miterlimit:4;stroke-dasharray:none;stroke-dashoffset:0.7;stroke-opacity:1" />
      <path
         sodipodi:nodetypes="css"
         id="path6563"
         d="M 13.5,45.5 C 14.604,45.5 15.5,45 15.5,43.999998 C 15.5,42.999999 14.604,42.499999 13.5,42.499999"
         style="fill:none;fill-opacity:1;stroke:#888a85;stroke-width:4.53965187;stroke-linecap:round;stroke-linejoin:round;stroke-miterlimit:4;stroke-dasharray:none;stroke-dashoffset:0.7;stroke-opacity:1" />
      <path
         sodipodi:nodetypes="cs"
         id="path6565"
         d="M 14.914,45.874999 C 14.552,45.624999 14.052,45.499999 13.5,45.499999"
         style="fill:none;fill-opacity:1;stroke:#888a85;stroke-width:4.53965187;stroke-linecap:round;stroke-linejoin:round;stroke-miterlimit:4;stroke-dasharray:none;stroke-dashoffset:0.7;stroke-opacity:1" />
    </g>
    <path
       style="fill:none;fill-opacity:1;stroke:url(#linearGradient6628);stroke-width:1.29999995;stroke-linecap:round;stroke-linejoin:round;stroke-miterlimit:4;stroke-dasharray:none;stroke-dashoffset:0.7;stroke-opacity:1"
       d="M 8.9154972,22.316654 C 9.6445867,22.316654 9.5759044,21.986014 9.5759044,21.324732 L 9.5759044,18.348971"
       id="path6630"
       sodipodi:nodetypes="css" />
    <path
       style="fill:none;fill-opacity:1;stroke:url(#linearGradient6625);stroke-width:1.29999995;stroke-linecap:round;stroke-linejoin:round;stroke-miterlimit:4;stroke-dasharray:none;stroke-dashoffset:0.7;stroke-opacity:1"
       d="M 8.9154972,24.300496 C 9.6445867,24.300496 10.236312,23.969856 10.236312,23.308574 C 10.236312,22.647294 9.6445867,22.316654 8.9154972,22.316654"
       id="path6452"
       sodipodi:nodetypes="css" />
    <rect
       style="fill:url(#linearGradient6622);fill-opacity:1;stroke:#a40000;stroke-width:1.00024784;stroke-linecap:round;stroke-linejoin:miter;stroke-miterlimit:4;stroke-dasharray:none;stroke-dashoffset:0.7;stroke-opacity:1"
       id="rect5329"
       width="5.5753946"
       height="26.19116"
       x="-7.710289"
       y="9.2994967"
       rx="2.7876973"
       ry="2.7876973"
       transform="matrix(0.7181427,-0.6958959,0.7181427,0.6958959,0,0)" />
    <path
       sodipodi:type="inkscape:offset"
       inkscape:radius="-1.475638"
       inkscape:original="M -7.28125 13.90625 C -9.6182882 13.90625 -11.5 15.787961 -11.5 18.125 L -11.5 49.3125 C -11.5 51.649538 -9.6182882 53.531248 -7.28125 53.53125 C -4.9442118 53.53125 -3.0625 51.649539 -3.0625 49.3125 L -3.0625 18.125 C -3.0625 15.787962 -4.9442118 13.90625 -7.28125 13.90625 z "
       style="opacity:0.5;fill:none;fill-opacity:1;stroke:url(#linearGradient6579);stroke-width:1.51362419;stroke-linecap:round;stroke-linejoin:miter;stroke-miterlimit:4;stroke-dasharray:none;stroke-dashoffset:0.7;stroke-opacity:1"
       id="path6338"
       d="M -7.28125,15.375 C -8.8261961,15.375 -10.03125,16.580053 -10.03125,18.125 L -10.03125,49.3125 C -10.03125,50.857445 -8.8261972,52.062499 -7.28125,52.0625 C -5.7363039,52.0625 -4.53125,50.857447 -4.53125,49.3125 L -4.53125,18.125 C -4.53125,16.580055 -5.7363043,15.375 -7.28125,15.375 z "
       transform="matrix(0.47457,-0.4598687,0.47457,0.4598687,0,0.1637575)" />
    <path
       style="fill:url(#linearGradient6618);fill-opacity:1;fill-rule:evenodd;stroke:none;stroke-width:1px;stroke-linecap:butt;stroke-linejoin:miter;stroke-opacity:1"
       d="M 10.204279,4.7370969 L 12.91859,1.9607461 C 13.46008,2.5792138 11.587599,4.5447999 10.204279,4.7370969 z "
       id="path6375"
       sodipodi:nodetypes="ccc" />
    <path
       style="fill:url(#linearGradient6615);fill-opacity:1;fill-rule:evenodd;stroke:none;stroke-width:1px;stroke-linecap:butt;stroke-linejoin:miter;stroke-opacity:1;opacity:0.65517241"
       d="M 19.706157,9.399907 L 23.6686,9.399907 C 23.614746,10.511213 20.820108,10.542024 19.706157,9.399907 z "
       id="path6385"
       sodipodi:nodetypes="ccc" />
    <path
       style="fill:url(#linearGradient6612);fill-opacity:1;fill-rule:evenodd;stroke:none;stroke-width:1px;stroke-linecap:butt;stroke-linejoin:miter;stroke-opacity:1"
       d="M 30.556332,18.410099 L 27.84202,21.18645 C 27.30053,20.567981 29.173011,18.602396 30.556332,18.410099 z "
       id="path6389"
       sodipodi:nodetypes="ccc" />
    <path
       style="fill:none;fill-opacity:1;stroke:url(#linearGradient6609);stroke-width:1.29999995;stroke-linecap:round;stroke-linejoin:round;stroke-miterlimit:4;stroke-dasharray:none;stroke-dashoffset:0.7;stroke-opacity:1"
       d="M 8.9154972,26.284337 C 9.6445867,26.284337 10.236312,25.953697 10.236312,25.292415 C 10.236312,24.631135 9.6445867,24.300495 8.9154972,24.300495"
       id="path6716"
       sodipodi:nodetypes="css" />
    <path
       style="fill:none;fill-opacity:1;stroke:url(#linearGradient6606);stroke-width:1.29999995;stroke-linecap:round;stroke-linejoin:round;stroke-miterlimit:4;stroke-dasharray:none;stroke-dashoffset:0.7;stroke-opacity:1"
       d="M 8.9154972,28.268179 C 9.6445867,28.268179 10.236312,27.937539 10.236312,27.276257 C 10.236312,26.614977 9.6445867,26.284337 8.9154972,26.284337"
       id="path6720"
       sodipodi:nodetypes="css" />
    <path
       style="fill:none;fill-opacity:1;stroke:url(#linearGradient6603);stroke-width:1.29999995;stroke-linecap:round;stroke-linejoin:round;stroke-miterlimit:4;stroke-dasharray:none;stroke-dashoffset:0.7;stroke-opacity:1"
       d="M 8.9154972,30.25202 C 9.6445867,30.25202 10.236312,29.92138 10.236312,29.260098 C 10.236312,28.598818 9.6445867,28.268178 8.9154972,28.268178"
       id="path6724"
       sodipodi:nodetypes="css" />
    <path
       style="fill:#ffffff;fill-opacity:1;stroke:#ffffff;stroke-width:1.29999995;stroke-linecap:round;stroke-linejoin:round;stroke-miterlimit:4;stroke-dasharray:none;stroke-dashoffset:0.7;stroke-opacity:1"
       d="M 9.849313,30.5 C 9.6102456,30.33468 9.280042,30.25202 8.9154972,30.25202"
       id="path6555"
       sodipodi:nodetypes="cs" />
    <g
       id="g6744"
       transform="matrix(0.4669784,0.4675959,-0.4669784,0.4675959,11.353977,-0.5582838)" />
    <path
       style="fill:url(#linearGradient6598);fill-opacity:1;stroke:none;stroke-width:1.29999995;stroke-linecap:round;stroke-linejoin:round;stroke-miterlimit:4;stroke-dashoffset:0.7;stroke-opacity:1"
       d="M 6.9342756,13.058727 L 6.2738684,13.720008 L 6.9342756,14.381288 L 6.2738684,15.042569 L 6.9342756,15.703849 L 7.5946828,15.042569 L 8.25509,15.703849 L 8.9154972,15.042569 L 8.25509,14.381288 L 8.9154972,13.720008 L 8.25509,13.058727 L 7.5946828,13.720008 L 6.9342756,13.058727 z "
       id="rect6749" />
    <rect
       style="fill:#d3d7cf;fill-opacity:1;stroke:#cc0000;stroke-width:1.0000006;stroke-linecap:round;stroke-linejoin:round;stroke-miterlimit:4;stroke-dasharray:none;stroke-dashoffset:0.7;stroke-opacity:1"
       id="rect6864"
       width="1.5385274"
       height="1.6211327"
       x="-5.0856037"
       y="33.747646"
       transform="matrix(0.7066394,-0.7075738,0.7066394,0.7075738,0,0)" />
    <path
       style="fill:#babdb6;fill-opacity:1;stroke:#babdb6;stroke-width:1.20000005;stroke-linecap:butt;stroke-linejoin:round;stroke-miterlimit:4;stroke-dasharray:none;stroke-dashoffset:0.7;stroke-opacity:1"
       d="M 22.259454,27.794153 L 21.657256,28.397146"
       id="rect6866"
       sodipodi:nodetypes="cc" />
  </g>
</svg>
