<?xml version="1.0" encoding="UTF-8" standalone="no"?>
<!-- Created with Inkscape (http://www.inkscape.org/) -->
<svg
   xmlns:dc="http://purl.org/dc/elements/1.1/"
   xmlns:cc="http://web.resource.org/cc/"
   xmlns:rdf="http://www.w3.org/1999/02/22-rdf-syntax-ns#"
   xmlns:svg="http://www.w3.org/2000/svg"
   xmlns="http://www.w3.org/2000/svg"
   xmlns:xlink="http://www.w3.org/1999/xlink"
   xmlns:sodipodi="http://sodipodi.sourceforge.net/DTD/sodipodi-0.dtd"
   xmlns:inkscape="http://www.inkscape.org/namespaces/inkscape"
   width="32"
   height="32"
   id="svg2"
   sodipodi:version="0.32"
   inkscape:version="0.45"
   version="1.0"
   sodipodi:docname="applications-engineering.svg"
   sodipodi:docbase="/home/lapo/Icone/svn/gnome-icon-theme/32x32/categories"
   inkscape:output_extension="org.inkscape.output.svg.inkscape"
   sodipodi:modified="true">
  <defs
     id="defs4">
    <linearGradient
       inkscape:collect="always"
       id="linearGradient7358">
      <stop
         style="stop-color:#000000;stop-opacity:1;"
         offset="0"
         id="stop7360" />
      <stop
         style="stop-color:#000000;stop-opacity:0;"
         offset="1"
         id="stop7362" />
    </linearGradient>
    <linearGradient
       inkscape:collect="always"
       id="linearGradient7323">
      <stop
         style="stop-color:#ffffff;stop-opacity:1;"
         offset="0"
         id="stop7325" />
      <stop
         style="stop-color:#ffffff;stop-opacity:0;"
         offset="1"
         id="stop7327" />
    </linearGradient>
    <linearGradient
       inkscape:collect="always"
       id="linearGradient7233">
      <stop
         style="stop-color:#000000;stop-opacity:1;"
         offset="0"
         id="stop7235" />
      <stop
         style="stop-color:#000000;stop-opacity:0;"
         offset="1"
         id="stop7237" />
    </linearGradient>
    <linearGradient
       inkscape:collect="always"
       id="linearGradient7215">
      <stop
         style="stop-color:#ffffff;stop-opacity:1;"
         offset="0"
         id="stop7217" />
      <stop
         style="stop-color:#ffffff;stop-opacity:0;"
         offset="1"
         id="stop7219" />
    </linearGradient>
    <linearGradient
       inkscape:collect="always"
       id="linearGradient7007">
      <stop
         style="stop-color:#c4a000;stop-opacity:1;"
         offset="0"
         id="stop7009" />
      <stop
         style="stop-color:#c4a000;stop-opacity:0;"
         offset="1"
         id="stop7011" />
    </linearGradient>
    <linearGradient
       inkscape:collect="always"
       id="linearGradient7223">
      <stop
         style="stop-color:#fce94f;stop-opacity:0.78431374"
         offset="0"
         id="stop7225" />
      <stop
         style="stop-color:#edd400;stop-opacity:0.78431374"
         offset="1"
         id="stop7227" />
    </linearGradient>
    <linearGradient
       id="linearGradient6958"
       inkscape:collect="always">
      <stop
         id="stop6960"
         offset="0"
         style="stop-color:#ffffff;stop-opacity:1" />
      <stop
         id="stop6962"
         offset="1"
         style="stop-color:#ffffff;stop-opacity:0" />
    </linearGradient>
    <linearGradient
       id="linearGradient7065">
      <stop
         style="stop-color:#888a85;stop-opacity:1;"
         offset="0"
         id="stop7067" />
      <stop
         id="stop7073"
         offset="0.70408165"
         style="stop-color:#cfd0ce;stop-opacity:1;" />
      <stop
         style="stop-color:#888a85;stop-opacity:1;"
         offset="1"
         id="stop7069" />
    </linearGradient>
    <linearGradient
       inkscape:collect="always"
       id="linearGradient7033">
      <stop
         style="stop-color:#000000;stop-opacity:1;"
         offset="0"
         id="stop7035" />
      <stop
         style="stop-color:#000000;stop-opacity:0;"
         offset="1"
         id="stop7037" />
    </linearGradient>
    <linearGradient
       inkscape:collect="always"
       id="linearGradient6955">
      <stop
         style="stop-color:#ffffff;stop-opacity:1;"
         offset="0"
         id="stop6957" />
      <stop
         style="stop-color:#ffffff;stop-opacity:0;"
         offset="1"
         id="stop6959" />
    </linearGradient>
    <linearGradient
       id="linearGradient6939">
      <stop
         style="stop-color:#babdb6;stop-opacity:1;"
         offset="0"
         id="stop6941" />
      <stop
         id="stop7051"
         offset="0.24743238"
         style="stop-color:#ededed;stop-opacity:1;" />
      <stop
         style="stop-color:#b6b9b1;stop-opacity:1;"
         offset="0.75776166"
         id="stop7053" />
      <stop
         id="stop7049"
         offset="0.82653064"
         style="stop-color:#aaaea5;stop-opacity:1;" />
      <stop
         style="stop-color:#babdb6;stop-opacity:1;"
         offset="1"
         id="stop6943" />
    </linearGradient>
    <linearGradient
       inkscape:collect="always"
       xlink:href="#linearGradient6939"
       id="linearGradient6945"
       x1="6.3601508"
       y1="2.5681367"
       x2="18"
       y2="41.975765"
       gradientUnits="userSpaceOnUse"
       gradientTransform="translate(10,0)" />
    <linearGradient
       inkscape:collect="always"
       xlink:href="#linearGradient6955"
       id="linearGradient6961"
       x1="9.015625"
       y1="8.1772938"
       x2="22.226398"
       y2="34.389534"
       gradientUnits="userSpaceOnUse"
       gradientTransform="translate(10,0)" />
    <linearGradient
       inkscape:collect="always"
       xlink:href="#linearGradient6958"
       id="linearGradient7039"
       x1="12.6875"
       y1="17.550121"
       x2="12.6875"
       y2="23.321859"
       gradientUnits="userSpaceOnUse"
       gradientTransform="translate(10,-1)" />
    <linearGradient
       inkscape:collect="always"
       xlink:href="#linearGradient7033"
       id="linearGradient7043"
       gradientUnits="userSpaceOnUse"
       x1="12.6875"
       y1="17.550121"
       x2="12.6875"
       y2="21.500893"
       gradientTransform="matrix(0.5,0,0,1,14.5,-4)" />
    <linearGradient
       inkscape:collect="always"
       xlink:href="#linearGradient7033"
       id="linearGradient7047"
       gradientUnits="userSpaceOnUse"
       gradientTransform="matrix(0.5,0,0,1,18.5,-4)"
       x1="12.6875"
       y1="17.550121"
       x2="12.6875"
       y2="21.500893" />
    <linearGradient
       inkscape:collect="always"
       xlink:href="#linearGradient7065"
       id="linearGradient7071"
       x1="20.461903"
       y1="15.32668"
       x2="20.461903"
       y2="11.746678"
       gradientUnits="userSpaceOnUse"
       gradientTransform="matrix(1,0,0,0.75,7,2.875)" />
    <linearGradient
       inkscape:collect="always"
       xlink:href="#linearGradient7223"
       id="linearGradient7338"
       gradientUnits="userSpaceOnUse"
       gradientTransform="matrix(0,-0.630369,0.6573241,0,-23.089941,30.858135)"
       x1="15.75"
       y1="37"
       x2="4.5266504"
       y2="-0.52360207" />
    <radialGradient
       inkscape:collect="always"
       xlink:href="#linearGradient7007"
       id="radialGradient7340"
       gradientUnits="userSpaceOnUse"
       gradientTransform="matrix(0.9535505,0,0,0.7957456,-8.8899656,-11.39734)"
       cx="3.031251"
       cy="40.624996"
       fx="3.031251"
       fy="40.624996"
       r="13" />
    <linearGradient
       inkscape:collect="always"
       xlink:href="#linearGradient7215"
       id="linearGradient7342"
       gradientUnits="userSpaceOnUse"
       gradientTransform="matrix(0,-0.7262133,0.6852294,0,-23.815932,32.577613)"
       x1="11.297456"
       y1="26.989407"
       x2="28.65008"
       y2="26.806986" />
    <linearGradient
       inkscape:collect="always"
       xlink:href="#linearGradient7233"
       id="linearGradient7344"
       gradientUnits="userSpaceOnUse"
       gradientTransform="matrix(0,-1.0000003,1,0,-27.999999,35.000002)"
       x1="11.22532"
       y1="26.521631"
       x2="8.9998951"
       y2="26.521631" />
    <linearGradient
       inkscape:collect="always"
       xlink:href="#linearGradient7323"
       id="linearGradient7346"
       gradientUnits="userSpaceOnUse"
       x1="-10.5625"
       y1="17.5625"
       x2="-9.875"
       y2="25.5625" />
    <radialGradient
       inkscape:collect="always"
       xlink:href="#linearGradient7358"
       id="radialGradient7364"
       cx="23.788582"
       cy="31"
       fx="23.788582"
       fy="31"
       r="3.7885823"
       gradientTransform="matrix(1,0,0,0.263951,0,22.81752)"
       gradientUnits="userSpaceOnUse" />
    <radialGradient
       inkscape:collect="always"
       xlink:href="#linearGradient7358"
       id="radialGradient7368"
       gradientUnits="userSpaceOnUse"
       gradientTransform="matrix(1,0,0,0.263951,0,22.81752)"
       cx="23.788582"
       cy="31"
       fx="23.788582"
       fy="31"
       r="3.7885823" />
  </defs>
  <sodipodi:namedview
     id="base"
     pagecolor="#ffffff"
     bordercolor="#666666"
     borderopacity="0.37647059"
     inkscape:pageopacity="0.0"
     inkscape:pageshadow="2"
     inkscape:zoom="1"
     inkscape:cx="27.294185"
     inkscape:cy="9.6437663"
     inkscape:document-units="px"
     inkscape:current-layer="layer1"
     width="32px"
     height="32px"
     inkscape:showpageshadow="false"
     gridempspacing="2"
     gridspacingx="0.5px"
     gridspacingy="0.5px"
     inkscape:window-width="872"
     inkscape:window-height="598"
     inkscape:window-x="315"
     inkscape:window-y="92"
     borderlayer="true"
     showgrid="false"
     showborder="false"
     inkscape:grid-points="true"
     inkscape:guide-bbox="true"
     showguides="true" />
  <metadata
     id="metadata7">
    <rdf:RDF>
      <cc:Work
         rdf:about="">
        <dc:format>image/svg+xml</dc:format>
        <dc:type
           rdf:resource="http://purl.org/dc/dcmitype/StillImage" />
        <dc:creator>
          <cc:Agent>
            <dc:title>Lapo Calamandrei</dc:title>
          </cc:Agent>
        </dc:creator>
        <cc:license
           rdf:resource="http://creativecommons.org/licenses/GPL/2.0/" />
        <dc:title>Caliper</dc:title>
        <dc:date>2006-06-10</dc:date>
        <dc:subject>
          <rdf:Bag />
        </dc:subject>
      </cc:Work>
      <cc:License
         rdf:about="http://creativecommons.org/licenses/GPL/2.0/">
        <cc:permits
           rdf:resource="http://web.resource.org/cc/Reproduction" />
        <cc:permits
           rdf:resource="http://web.resource.org/cc/Distribution" />
        <cc:requires
           rdf:resource="http://web.resource.org/cc/Notice" />
        <cc:permits
           rdf:resource="http://web.resource.org/cc/DerivativeWorks" />
        <cc:requires
           rdf:resource="http://web.resource.org/cc/ShareAlike" />
        <cc:requires
           rdf:resource="http://web.resource.org/cc/SourceCode" />
      </cc:License>
    </rdf:RDF>
  </metadata>
  <g
     inkscape:label="Livello 1"
     inkscape:groupmode="layer"
     id="layer1">
    <path
       style="fill:#555753;fill-rule:evenodd;stroke:#555753;stroke-width:1px;stroke-linecap:butt;stroke-linejoin:round;stroke-opacity:1"
       d="M 25.5,6.5 L 27.5,6.5 L 24.5,3.5 L 25.5,6.5 z "
       id="path5940"
       sodipodi:nodetypes="cccc" />
    <path
       sodipodi:type="arc"
       style="opacity:0.24253731;fill:url(#radialGradient7368);fill-opacity:1;fill-rule:evenodd;stroke:none;stroke-width:1;stroke-linecap:round;stroke-linejoin:miter;stroke-miterlimit:4;stroke-dasharray:none;stroke-opacity:1"
       id="path7366"
       sodipodi:cx="23.788582"
       sodipodi:cy="31"
       sodipodi:rx="3.7885823"
       sodipodi:ry="1"
       d="M 27.577164 31 A 3.7885823 1 0 1 1  20,31 A 3.7885823 1 0 1 1  27.577164 31 z"
       transform="matrix(3.9592647,0,0,1.5,-77.185293,-17)" />
    <path
       sodipodi:type="arc"
       style="opacity:0.30970149;fill:url(#radialGradient7364);fill-opacity:1;fill-rule:evenodd;stroke:none;stroke-width:1;stroke-linecap:round;stroke-linejoin:miter;stroke-miterlimit:4;stroke-dasharray:none;stroke-opacity:1"
       id="path7348"
       sodipodi:cx="23.788582"
       sodipodi:cy="31"
       sodipodi:rx="3.7885823"
       sodipodi:ry="1"
       d="M 27.577164 31 A 3.7885823 1 0 1 1  20,31 A 3.7885823 1 0 1 1  27.577164 31 z"
       transform="matrix(1.4517303,0,0,1.5,-12.034605,-16)" />
    <g
       id="g7331"
       transform="translate(23,4)">
      <path
         sodipodi:nodetypes="ccccsssccccssccc"
         id="rect7157"
         d="M -17.502687,25.499998 L 5.5036571,25.499998 L 5.5063431,22.5 L 2.8770467,22.5 C 2.8811287,22.395145 2.8770467,22.251485 2.8770467,22.145417 C 2.8770467,17.447908 -1.1011361,13.483588 -5.9995153,13.483588 C -10.897895,13.483588 -14.870705,17.447908 -14.870705,22.145417 C -14.870705,22.251485 -14.854245,22.395145 -14.850163,22.5 L -17.5,22.5 L -17.502687,25.499998 z M -11.584084,22.145417 C -11.584084,19.187726 -9.08368,16.635433 -5.9995153,16.635433 C -2.91535,16.635434 -0.40957381,19.187726 -0.40957381,22.145417 C -0.40957381,22.250752 -0.40324378,22.396107 -0.40957381,22.5 L -11.584084,22.5 C -11.590413,22.396107 -11.584084,22.250752 -11.584084,22.145417 z "
         style="fill:url(#linearGradient7338);fill-opacity:1;fill-rule:evenodd;stroke:#c4a000;stroke-width:0.99999994;stroke-linecap:round;stroke-linejoin:round;stroke-miterlimit:4;stroke-dasharray:none;stroke-opacity:1" />
      <path
         id="path7243"
         d="M -14.544728,20.673735 L -13.620366,20.929823 C -13.570251,20.72302 -13.502926,20.51911 -13.435494,20.319153 L -14.380397,20.063065 L -14.544728,20.673735 z M -13.743614,18.506842 L -12.860335,19.019017 C -12.757491,18.839359 -12.648871,18.657547 -12.531673,18.487143 L -13.435494,17.955269 L -13.743614,18.506842 z M -12.428966,16.615735 L -11.627852,17.423395 C -11.47596,17.27105 -11.319941,17.129719 -11.155401,16.990017 L -11.977056,16.162657 L -12.428966,16.615735 z M -10.641866,15.138308 L -10.046166,16.202055 C -9.8677316,16.097347 -9.6789047,15.997545 -9.4915489,15.90657 L -10.10779,14.823123 L -10.641866,15.138308 z M -8.5671869,14.173055 L -8.2385249,15.414094 C -8.0408235,15.356902 -7.8466789,15.31834 -7.6428249,15.276201 L -7.971487,14.015463 L -8.5671869,14.173055 z M -6.3076353,15.118609 C -6.2048883,15.114722 -6.1032207,15.09891 -5.9995147,15.09891 C -5.8958086,15.09891 -5.794141,15.114722 -5.691394,15.118609 L -5.691394,13.798773 L -6.3076353,13.798773 L -6.3076353,15.118609 z M -4.3562044,15.276201 C -4.1523505,15.31834 -3.9582058,15.356902 -3.7605044,15.414094 L -3.4318424,14.173055 L -4.0275424,14.015463 L -4.3562044,15.276201 z M -2.5074804,15.90657 C -2.3201246,15.997545 -2.1312977,16.097347 -1.9528632,16.202055 L -1.3571632,15.138308 L -1.891239,14.823123 L -2.5074804,15.90657 z M -0.84362876,16.990017 C -0.6790887,17.129719 -0.52306888,17.27105 -0.37117706,17.423395 L 0.42993669,16.615735 L -0.02197363,16.162657 L -0.84362876,16.990017 z M 0.53264358,18.487143 C 0.64984118,18.657547 0.75846136,18.839359 0.86130563,19.019017 L 1.7445849,18.506842 L 1.4364642,17.955269 L 0.53264358,18.487143 z M 1.4364642,20.319153 C 1.5038965,20.51911 1.5712216,20.72302 1.6213366,20.929823 L 2.5456986,20.673735 L 2.3813676,20.063065 L 1.4364642,20.319153 z "
         style="fill:url(#radialGradient7340);fill-opacity:1;fill-rule:evenodd;stroke:none;stroke-width:1px;stroke-linecap:butt;stroke-linejoin:miter;stroke-opacity:1" />
      <path
         sodipodi:nodetypes="cssssscccc"
         id="path7194"
         d="M -12.509648,22.887202 C -12.510653,22.864521 -12.510653,22.841801 -12.509648,22.81912 C -12.519968,22.631917 -12.509648,22.458687 -12.509648,22.365236 C -12.509647,18.564916 -9.5858176,15.466209 -5.9999692,15.466209 C -2.4141201,15.46621 0.50970966,18.564916 0.50970966,22.365236 C 0.50970966,22.458685 0.52003127,22.63191 0.50970966,22.81912 C 0.48703131,23.202353 0.18679532,23.500659 -0.1755197,23.499945 L -11.82442,23.499945 C -12.164698,23.504339 -12.456471,23.243431 -12.509648,22.887202 L -12.509648,22.887202 z "
         style="opacity:0.7;fill:none;fill-opacity:1;fill-rule:evenodd;stroke:url(#linearGradient7342);stroke-width:0.99999988;stroke-linecap:round;stroke-linejoin:miter;stroke-miterlimit:4;stroke-opacity:1" />
      <path
         sodipodi:nodetypes="cccccccccccccccccccccccccccccccccccccccccccccccccc"
         id="path7231"
         d="M -16,26 L -14.999999,26 L -14.999999,24 L -16,24 L -16,26 z M -14.000001,26 L -13,26 L -13,24 L -14.000001,24 L -14.000001,26 z M -12.000001,26 L -11.000001,26 L -11.000001,24 L -12.000001,24 L -12.000001,26 z M -9.999999,26 L -8.9999996,26 L -8.9999996,24 L -9.999999,24 L -9.999999,26 z M -8.0000002,26 L -7.0000001,26 L -7.0000001,24 L -8.0000002,24 L -8.0000002,26 z M -6.0000001,26 L -5.0000002,26 L -5.0000002,24 L -6.0000001,24 L -6.0000001,26 z M -4.0000002,26 L -3.0000001,26 L -3.0000001,24 L -4.0000002,24 L -4.0000002,26 z M -2.0000001,26 L -1.0000002,26 L -1.0000002,24 L -2.0000001,24 L -2.0000001,26 z M -2e-07,26 L 0.9999999,26 L 0.9999999,24 L -2e-07,24 L -2e-07,26 z M 1.9999998,26 L 2.9999998,26 L 2.9999998,24 L 1.9999998,24 L 1.9999998,26 z "
         style="opacity:0.2;fill:url(#linearGradient7344);fill-opacity:1;fill-rule:evenodd;stroke:none;stroke-width:1;stroke-linecap:round;stroke-linejoin:miter;stroke-miterlimit:10;stroke-dasharray:none;stroke-opacity:1" />
      <path
         d="M -6,14.5 C -10.332413,14.5 -13.84375,18.046931 -13.84375,22.15625 C -13.84375,22.084352 -13.822244,22.218463 -13.8125,22.46875 C -13.807104,22.74676 -13.913014,23.015402 -14.106678,23.214934 C -14.300342,23.414466 -14.565703,23.528346 -14.84375,23.53125 L -16.46875,23.53125 L -16.46875,24.46875 L 4.46875,24.46875 L 4.46875,23.53125 L 2.875,23.53125 C 2.5969528,23.528346 2.3315917,23.414466 2.1379281,23.214934 C 1.9442645,23.015402 1.8383543,22.74676 1.84375,22.46875 C 1.8454504,22.425072 1.84375,22.289059 1.84375,22.15625 C 1.8437501,18.046932 -1.667587,14.5 -6,14.5 z "
         id="path7319"
         style="opacity:0.7;fill:none;fill-opacity:1;fill-rule:evenodd;stroke:url(#linearGradient7346);stroke-width:1;stroke-linecap:round;stroke-linejoin:miter;stroke-miterlimit:4;stroke-dasharray:none;stroke-opacity:1"
         inkscape:original="M -6 13.46875 C -10.898379 13.46875 -14.875 17.458741 -14.875 22.15625 C -14.875 22.262319 -14.847832 22.395145 -14.84375 22.5 L -17.5 22.5 L -17.5 25.5 L 5.5 25.5 L 5.5 22.5 L 2.875 22.5 C 2.8790821 22.395145 2.875 22.262318 2.875 22.15625 C 2.8750001 17.458742 -1.1016208 13.46875 -6 13.46875 z "
         inkscape:radius="-1.0422266"
         sodipodi:type="inkscape:offset" />
    </g>
    <rect
       style="opacity:1;fill:#d3d7cf;fill-opacity:1;fill-rule:evenodd;stroke:#888a85;stroke-width:1;stroke-linecap:round;stroke-linejoin:miter;stroke-miterlimit:4;stroke-dasharray:none;stroke-opacity:1"
       id="rect5967"
       width="2"
       height="6.5"
       x="21.5"
       y="24" />
    <path
       style="fill:url(#linearGradient6945);fill-opacity:1;fill-rule:evenodd;stroke:#a1a29e;stroke-width:1px;stroke-linecap:butt;stroke-linejoin:miter;stroke-opacity:1"
       d="M 23.5,0.5 L 19.5,0.5 C 17.465147,0.5 13.472272,1.5277282 13.472272,1.5277282 C 12.60347,2.0293312 12.5,1.9407971 12.5,3.5 L 20.5,3.5 L 20.5,27.5 L 24.5,27.5 L 24.5,5.53125 L 27.5,2.5 L 24.5,2.5 L 24.5,1.5 L 23.5,0.5 z "
       id="path5931"
       sodipodi:nodetypes="cccccccccccc" />
    <path
       style="opacity:0.69402986;fill:url(#linearGradient7039);fill-opacity:1;fill-rule:evenodd;stroke:none;stroke-width:1;stroke-linecap:round;stroke-linejoin:miter;stroke-miterlimit:10;stroke-dasharray:none;stroke-opacity:1"
       d="M 21,8 L 21,9 L 24,9 L 24,8 L 21,8 z M 21,10 L 21,11 L 23,11 L 23,10 L 21,10 z M 21,12 L 21,13 L 24,13 L 24,12 L 21,12 z M 21,14 L 21,15 L 23,15 L 23,14 L 21,14 z M 21,16 L 21,17 L 24,17 L 24,16 L 21,16 z M 21,18 L 21,19 L 23,19 L 23,18 L 21,18 z M 21,20 L 21,21 L 24,21 L 24,20 L 21,20 z "
       id="rect6994"
       sodipodi:nodetypes="ccccccccccccccccccccccccccccccccccc" />
    <path
       style="opacity:0.92537315;fill:none;fill-opacity:1;fill-rule:evenodd;stroke:url(#linearGradient6961);stroke-width:1px;stroke-linecap:butt;stroke-linejoin:miter;stroke-opacity:1"
       d="M 19.5,1.5 C 16.632284,1.7272266 15.856788,1.9289841 13.53125,2.53125 L 21.46875,2.5 L 21.46875,26.53125 L 23.53125,26.53125 L 23.53125,5.53125 C 23.533235,4.9970483 23.965798,4.5644846 24.5,4.5625 L 24.5,3.46875 C 23.965798,3.4667654 23.533235,3.0342017 23.53125,2.5 L 23.5,1.5 L 19.5,1.5 z "
       id="path5947"
       sodipodi:nodetypes="ccccccccccc" />
    <path
       style="opacity:1;fill:#babdb6;fill-opacity:1;fill-rule:evenodd;stroke:#888a85;stroke-width:1;stroke-linecap:round;stroke-linejoin:miter;stroke-miterlimit:10;stroke-dasharray:none;stroke-opacity:1"
       d="M 12.5,5.5 C 12.5,7.059203 12.599948,6.967147 13.46875,7.46875 L 19,8.5 C 19.373164,8.685835 19.5,9 19.5,9.5 L 19.5,13.5 L 18.5,13.5 C 17.946,13.5 17.5,13.946 17.5,14.5 C 17.5,15.054 17.946,15.5 18.5,15.5 L 19.5,15.5 L 21.5,15.5 L 21.5,5.5 L 12.5,5.5 z M 23.5,5.5 L 23.5,15.5 L 25.5,15.5 L 25.5,5.5 L 23.5,5.5 z "
       id="rect6990"
       sodipodi:nodetypes="ccccccscccccccccc" />
    <g
       id="g6926"
       style="opacity:0.6268657"
       transform="translate(10,-3)">
      <path
         style="fill:none;fill-rule:evenodd;stroke:#ffffff;stroke-width:1px;stroke-linecap:butt;stroke-linejoin:miter;stroke-opacity:1"
         d="M 3.515625,9.5 C 5.7070904,10.581809 8.6239684,9.5622795 10.28125,11.4375 C 10.452659,11.79686 10.5,13.165442 10.5,13.5 L 10.5,9.5 L 3.515625,9.5 z "
         id="path6920"
         sodipodi:nodetypes="ccccc" />
      <path
         sodipodi:nodetypes="cc"
         id="path6922"
         d="M 10.5,18 L 10.5,12.5"
         style="fill:none;fill-rule:evenodd;stroke:#ffffff;stroke-width:1px;stroke-linecap:butt;stroke-linejoin:miter;stroke-opacity:1" />
      <path
         sodipodi:nodetypes="cc"
         id="path6924"
         d="M 14.5,18 L 14.5,9"
         style="fill:none;fill-rule:evenodd;stroke:#ffffff;stroke-width:1px;stroke-linecap:butt;stroke-linejoin:miter;stroke-opacity:1" />
    </g>
    <rect
       style="opacity:1;fill:#eeeeec;fill-opacity:1;fill-rule:evenodd;stroke:url(#linearGradient7071);stroke-width:1;stroke-linecap:round;stroke-linejoin:miter;stroke-miterlimit:10;stroke-dasharray:none;stroke-opacity:1"
       id="rect6986"
       width="2"
       height="3"
       x="25.5"
       y="11.5"
       rx="0.4826141"
       ry="0.36196059" />
    <rect
       style="opacity:0.21268658;fill:#000000;fill-opacity:1;fill-rule:evenodd;stroke:none;stroke-width:1;stroke-linecap:round;stroke-linejoin:miter;stroke-miterlimit:10;stroke-dasharray:none;stroke-opacity:1"
       id="rect6992"
       width="1"
       height="1"
       x="26"
       y="13" />
    <path
       style="opacity:0.15671644;fill:url(#linearGradient7043);fill-opacity:1;fill-rule:evenodd;stroke:none;stroke-width:1;stroke-linecap:round;stroke-linejoin:miter;stroke-miterlimit:10;stroke-dasharray:none;stroke-opacity:1"
       d="M 20,7 L 20,8 L 21,8 L 21,7 L 20,7 z M 20,9 L 20,10 L 21,10 L 21,9 L 20,9 z M 20,11 L 20,12 L 21,12 L 21,11 L 20,11 z M 20,13 L 20,14 L 21,14 L 21,13 L 20,13 z "
       id="path7041"
       sodipodi:nodetypes="cccccccccccccccccccc" />
    <path
       style="opacity:0.1;fill:url(#linearGradient7047);fill-opacity:1;fill-rule:evenodd;stroke:none;stroke-width:1;stroke-linecap:round;stroke-linejoin:miter;stroke-miterlimit:10;stroke-dasharray:none;stroke-opacity:1"
       d="M 24,7 L 24,8 L 25,8 L 25,7 L 24,7 z M 24,9 L 24,10 L 25,10 L 25,9 L 24,9 z M 24,11 L 24,12 L 25,12 L 25,11 L 24,11 z M 24,13 L 24,14 L 25,14 L 25,13 L 24,13 z "
       id="path7045"
       sodipodi:nodetypes="cccccccccccccccccccc" />
    <rect
       style="opacity:1;fill:#d3d7cf;fill-opacity:1;fill-rule:evenodd;stroke:none;stroke-width:1;stroke-linecap:round;stroke-linejoin:miter;stroke-miterlimit:10;stroke-dasharray:none;stroke-opacity:1"
       id="rect6950"
       width="3"
       height="1"
       x="13"
       y="2" />
    <rect
       style="opacity:1;fill:#ffffff;fill-opacity:1;fill-rule:evenodd;stroke:none;stroke-width:1;stroke-linecap:round;stroke-linejoin:miter;stroke-miterlimit:10;stroke-dasharray:none;stroke-opacity:1"
       id="rect6952"
       width="3"
       height="1"
       x="13"
       y="6" />
    <rect
       style="opacity:1;fill:#ffffff;fill-opacity:1;fill-rule:evenodd;stroke:none;stroke-width:1;stroke-linecap:round;stroke-linejoin:miter;stroke-miterlimit:10;stroke-dasharray:none;stroke-opacity:1"
       id="rect5978"
       width="1"
       height="1"
       x="25"
       y="3" />
  </g>
</svg>
