<?xml version="1.0" encoding="UTF-8" standalone="no"?>
<!-- Created with Inkscape (http://www.inkscape.org/) -->
<svg
   xmlns:dc="http://purl.org/dc/elements/1.1/"
   xmlns:cc="http://web.resource.org/cc/"
   xmlns:rdf="http://www.w3.org/1999/02/22-rdf-syntax-ns#"
   xmlns:svg="http://www.w3.org/2000/svg"
   xmlns="http://www.w3.org/2000/svg"
   xmlns:xlink="http://www.w3.org/1999/xlink"
   xmlns:sodipodi="http://sodipodi.sourceforge.net/DTD/sodipodi-0.dtd"
   xmlns:inkscape="http://www.inkscape.org/namespaces/inkscape"
   width="32px"
   height="32px"
   id="svg6987"
   sodipodi:version="0.32"
   inkscape:version="0.45"
   sodipodi:docbase="/home/dobey/Projects/gnome-icon-theme/32x32/categories"
   sodipodi:docname="preferences-system-network.svg"
   inkscape:export-filename="/home/andreas/project/gnome-icon-theme/32x32/places/network-workgroup.png"
   inkscape:export-xdpi="90"
   inkscape:export-ydpi="90"
   inkscape:output_extension="org.inkscape.output.svg.inkscape">
  <defs
     id="defs6989">
    <radialGradient
       gradientUnits="userSpaceOnUse"
       gradientTransform="matrix(0.964821,0,0,0.315933,0.287615,8.56339)"
       r="5.0007591"
       fy="16.046284"
       fx="7.7852302"
       cy="16.046284"
       cx="7.7852302"
       id="radialGradient1406"
       xlink:href="#linearGradient1400"
       inkscape:collect="always" />
    <radialGradient
       r="21.006207"
       fy="56.564655"
       fx="213.01555"
       cy="56.564655"
       cx="213.01555"
       gradientTransform="matrix(0.359989,0,8.935599e-6,0.251093,-68.68495,-6.079129)"
       gradientUnits="userSpaceOnUse"
       id="radialGradient1359"
       xlink:href="#linearGradient4039"
       inkscape:collect="always" />
    <linearGradient
       gradientTransform="matrix(0.571428,0,0,0.571428,1.714285,1.285714)"
       y2="16.069242"
       x2="7.8237395"
       y1="4.2152305"
       x1="11.000012"
       gradientUnits="userSpaceOnUse"
       id="linearGradient1356"
       xlink:href="#linearGradient2287"
       inkscape:collect="always" />
    <linearGradient
       id="linearGradient4039"
       inkscape:collect="always">
      <stop
         id="stop4041"
         offset="0"
         style="stop-color:#729fcf" />
      <stop
         id="stop4043"
         offset="1"
         style="stop-color:#3465a4" />
    </linearGradient>
    <linearGradient
       id="linearGradient2287"
       inkscape:collect="always">
      <stop
         id="stop2289"
         offset="0"
         style="stop-color:#ffffff;stop-opacity:1;" />
      <stop
         id="stop2291"
         offset="1"
         style="stop-color:#ffffff;stop-opacity:0;" />
    </linearGradient>
    <linearGradient
       id="linearGradient1400">
      <stop
         id="stop1402"
         offset="0"
         style="stop-color:#eeeeec;stop-opacity:0;" />
      <stop
         style="stop-color:#eeeeec;stop-opacity:0.21951219;"
         offset="0.72619045"
         id="stop1408" />
      <stop
         id="stop1404"
         offset="1"
         style="stop-color:#d3d7cf" />
    </linearGradient>
    <radialGradient
       inkscape:collect="always"
       xlink:href="#linearGradient4039"
       id="radialGradient7112"
       gradientUnits="userSpaceOnUse"
       gradientTransform="matrix(0.359989,0,8.935599e-6,0.251093,-68.68495,-6.079129)"
       cx="213.01555"
       cy="56.564655"
       fx="213.01555"
       fy="56.564655"
       r="21.006207" />
    <linearGradient
       inkscape:collect="always"
       xlink:href="#linearGradient2287"
       id="linearGradient7114"
       gradientUnits="userSpaceOnUse"
       gradientTransform="matrix(0.571428,0,0,0.571428,1.714285,1.285714)"
       x1="11.000012"
       y1="4.2152305"
       x2="7.8237395"
       y2="16.069242" />
    <radialGradient
       inkscape:collect="always"
       xlink:href="#linearGradient1400"
       id="radialGradient7116"
       gradientUnits="userSpaceOnUse"
       gradientTransform="matrix(0.964821,0,0,0.315933,0.287615,8.56339)"
       cx="7.7852302"
       cy="16.046284"
       fx="7.7852302"
       fy="16.046284"
       r="5.0007591" />
    <linearGradient
       id="linearGradient7152"
       inkscape:collect="always">
      <stop
         id="stop7154"
         offset="0"
         style="stop-color:#ffffff;stop-opacity:1;" />
      <stop
         id="stop7156"
         offset="1"
         style="stop-color:#ffffff;stop-opacity:0;" />
    </linearGradient>
    <linearGradient
       id="linearGradient7065"
       inkscape:collect="always">
      <stop
         id="stop7067"
         offset="0"
         style="stop-color:#babdb6;stop-opacity:1;" />
      <stop
         id="stop7069"
         offset="1"
         style="stop-color:#babdb6;stop-opacity:0;" />
    </linearGradient>
    <linearGradient
       inkscape:collect="always"
       xlink:href="#linearGradient7065"
       id="linearGradient7244"
       gradientUnits="userSpaceOnUse"
       x1="18.813038"
       y1="44.941074"
       x2="17.10545"
       y2="41.983444"
       gradientTransform="translate(-5,-16.000001)" />
    <radialGradient
       inkscape:collect="always"
       xlink:href="#linearGradient7152"
       id="radialGradient7324"
       gradientUnits="userSpaceOnUse"
       gradientTransform="matrix(1.4010158,0,0,1.212303,-11.300033,-4.7293674)"
       cx="28.006489"
       cy="17.245893"
       fx="28.006489"
       fy="17.245893"
       r="12.593109" />
    <radialGradient
       inkscape:collect="always"
       xlink:href="#linearGradient7152"
       id="radialGradient7326"
       gradientUnits="userSpaceOnUse"
       gradientTransform="matrix(0.9877864,0,0,0.3729824,10.71051,3.9006796)"
       cx="24.871729"
       cy="33.480179"
       fx="24.871729"
       fy="33.480179"
       r="12.593109" />
  </defs>
  <sodipodi:namedview
     id="base"
     pagecolor="#ffffff"
     bordercolor="#666"
     borderopacity="1"
     inkscape:pageopacity="0.0"
     inkscape:pageshadow="2"
     inkscape:zoom="16"
     inkscape:cx="6.9925674"
     inkscape:cy="14.951597"
     inkscape:current-layer="layer1"
     showgrid="false"
     inkscape:grid-bbox="true"
     inkscape:document-units="px"
     inkscape:window-width="1085"
     inkscape:window-height="979"
     inkscape:window-x="5"
     inkscape:window-y="24"
     inkscape:showpageshadow="false"
     inkscape:object-points="true"
     showborder="false" />
  <metadata
     id="metadata6992">
    <rdf:RDF>
      <cc:Work
         rdf:about="">
        <dc:format>image/svg+xml</dc:format>
        <dc:type
           rdf:resource="http://purl.org/dc/dcmitype/StillImage" />
        <dc:title>Network Workgroup</dc:title>
        <dc:date>2006-09-28</dc:date>
        <dc:source>http://www.gnome.org</dc:source>
        <dc:subject>
          <rdf:Bag>
            <rdf:li>network</rdf:li>
            <rdf:li>workgroup</rdf:li>
          </rdf:Bag>
        </dc:subject>
        <dc:contributor>
          <cc:Agent>
            <dc:title>Jakub Steiner</dc:title>
          </cc:Agent>
        </dc:contributor>
        <cc:license
           rdf:resource="http://creativecommons.org/licenses/GPL/2.0/" />
        <dc:creator>
          <cc:Agent>
            <dc:title>Lapo Calamandrei</dc:title>
          </cc:Agent>
        </dc:creator>
      </cc:Work>
      <cc:License
         rdf:about="http://creativecommons.org/licenses/GPL/2.0/">
        <cc:permits
           rdf:resource="http://web.resource.org/cc/Reproduction" />
        <cc:permits
           rdf:resource="http://web.resource.org/cc/Distribution" />
        <cc:requires
           rdf:resource="http://web.resource.org/cc/Notice" />
        <cc:permits
           rdf:resource="http://web.resource.org/cc/DerivativeWorks" />
        <cc:requires
           rdf:resource="http://web.resource.org/cc/ShareAlike" />
        <cc:requires
           rdf:resource="http://web.resource.org/cc/SourceCode" />
      </cc:License>
    </rdf:RDF>
  </metadata>
  <g
     id="layer1"
     inkscape:label="Layer 1"
     inkscape:groupmode="layer">
    <path
       style="opacity:0.1;color:#000000;fill:#000000;fill-opacity:1;fill-rule:nonzero;stroke:#000000;stroke-width:1;stroke-linecap:round;stroke-linejoin:round;marker:none;marker-start:none;marker-mid:none;marker-end:none;stroke-miterlimit:4;stroke-dasharray:none;stroke-dashoffset:0;stroke-opacity:1;visibility:visible;display:inline;overflow:visible"
       d="M 1.5,13.559341 L 14.5,13.559341 L 15.5,16.559341 L 0.5,16.559341 L 1.5,13.559341 z "
       id="path3606"
       sodipodi:nodetypes="ccccc" />
    <path
       transform="matrix(4.1151463,0,0,4.5429157,-37.23839,-95.965808)"
       style="fill:#ffffff;fill-opacity:1;fill-rule:evenodd;stroke:none;stroke-width:0.23128104;stroke-linecap:round;stroke-linejoin:miter;stroke-miterlimit:4;stroke-opacity:1;opacity:0.3"
       d="M 10.883982,28.048223 C 10.219857,27.446163 10.219857,26.468906 10.883982,25.866847 C 11.216044,25.565817 11.617499,25.415069 12.087107,25.415069 L 12.087107,26.957535 L 10.883982,28.048223 z "
       id="path7334" />
    <path
       style="fill:none;fill-rule:evenodd;stroke:#555753;stroke-width:3;stroke-linecap:round;stroke-linejoin:miter;stroke-miterlimit:4;stroke-dasharray:none;stroke-opacity:1"
       d="M 17.5,28.5 L 13.5,28.5 L 12.5,26.5"
       id="path7007"
       sodipodi:nodetypes="ccc" />
    <path
       style="fill:none;fill-rule:evenodd;stroke:#888a85;stroke-width:1px;stroke-linecap:round;stroke-linejoin:miter;stroke-opacity:1"
       d="M 17.5,28.5 L 13.5,28.5 L 12.5,26.5"
       id="path6036"
       sodipodi:nodetypes="ccc" />
    <path
       style="opacity:0.1;color:#000000;fill:#000000;fill-opacity:1;fill-rule:nonzero;stroke:#000000;stroke-width:1;stroke-linecap:round;stroke-linejoin:round;marker:none;marker-start:none;marker-mid:none;marker-end:none;stroke-miterlimit:4;stroke-dasharray:none;stroke-dashoffset:0;stroke-opacity:1;visibility:visible;display:inline;overflow:visible"
       d="M 17.5,28.55934 L 30.5,28.55934 L 31.5,31.55934 L 16.5,31.55934 L 17.5,28.55934 z "
       id="path3608"
       sodipodi:nodetypes="ccccc" />
    <g
       id="g7318"
       transform="matrix(1,0,0.2852005,0.8926849,-17.385121,2.4887177)">
      <g
         transform="matrix(0.565202,0,0,0.3927615,22.902551,1.8538463)"
         id="g7148">
        <path
           style="fill:none;fill-rule:evenodd;stroke:#729fcf;stroke-width:6.73916197;stroke-linecap:butt;stroke-linejoin:round;stroke-miterlimit:4;stroke-dasharray:none;stroke-opacity:1"
           d="M 12.5,12.5 L 23.5,12.5 C 41.603159,12.5 8.4867447,38.499999 26.5,38.499999 L 36.5,38.499999"
           id="path7146"
           sodipodi:nodetypes="cccc" />
        <path
           style="fill:none;fill-rule:evenodd;stroke:url(#radialGradient7324);stroke-width:2.24638724px;stroke-linecap:butt;stroke-linejoin:round;stroke-opacity:1"
           d="M 12.5,12.5 L 23.5,12.5 C 41.603159,12.5 8.4867447,38.499999 26.5,38.499999 L 36.5,38.499999"
           id="path6173"
           sodipodi:nodetypes="cccc" />
      </g>
      <path
         style="fill:none;fill-rule:evenodd;stroke:url(#radialGradient7326);stroke-width:1.05840266px;stroke-linecap:butt;stroke-linejoin:round;stroke-opacity:1"
         d="M 29.967576,6.7821777 L 36.184798,6.7821777 C 46.41674,6.7821777 27.699276,16.975161 37.880404,16.975161 L 43.532424,16.975161"
         id="path7160"
         sodipodi:nodetypes="cccc" />
    </g>
    <g
       id="g7082"
       transform="translate(0,5.9341e-2)">
      <g
         inkscape:label="Shadow"
         id="g7084" />
      <g
         style="display:inline"
         inkscape:label="Lavoro"
         id="g7086">
        <g
           transform="translate(0,15.06603)"
           inkscape:label="Shadow"
           id="g7088" />
        <g
           transform="translate(0,15.06603)"
           style="display:inline"
           inkscape:label="Lavoro"
           id="g7090" />
        <rect
           y="9"
           x="5.50109"
           height="3.9293196"
           width="4.9989057"
           id="rect7092"
           style="opacity:1;color:#000000;fill:#a5ae9d;fill-opacity:1;fill-rule:nonzero;stroke:#868883;stroke-width:0.99999821;stroke-linecap:round;stroke-linejoin:miter;marker:none;marker-start:none;marker-mid:none;marker-end:none;stroke-miterlimit:4;stroke-dasharray:none;stroke-dashoffset:0;stroke-opacity:1;visibility:visible;display:inline;overflow:visible" />
        <rect
           ry="0.75630474"
           rx="0.75858551"
           y="0.49792761"
           x="1.5000002"
           height="10.002075"
           width="13.001309"
           id="rect7094"
           style="opacity:1;color:#000000;fill:#ffffff;fill-opacity:1;fill-rule:nonzero;stroke:#808083;stroke-width:0.99999946;stroke-linecap:round;stroke-linejoin:round;marker:none;marker-start:none;marker-mid:none;marker-end:none;stroke-miterlimit:4;stroke-dasharray:none;stroke-dashoffset:0;stroke-opacity:1;visibility:visible;display:inline;overflow:visible" />
        <path
           style="color:#000000;fill:#ffffff;fill-opacity:1;fill-rule:nonzero;stroke:#888a85;stroke-width:1;stroke-linecap:round;stroke-linejoin:round;marker:none;marker-start:none;marker-mid:none;marker-end:none;stroke-miterlimit:4;stroke-dasharray:none;stroke-dashoffset:0;stroke-opacity:1;visibility:visible;display:inline;overflow:visible"
           d="M 1.5,12.5 L 14.5,12.5 L 15.5,15.5 L 0.5,15.5 L 1.5,12.5 z "
           id="path7096"
           sodipodi:nodetypes="ccccc" />
        <g
           transform="translate(-306.25,-49)"
           inkscape:label="Shadow"
           id="g7098" />
        <g
           transform="translate(-306.25,-49)"
           style="display:inline"
           inkscape:label="finiture"
           id="g7100" />
        <rect
           y="2.4999995"
           x="3.4973977"
           height="6.0056019"
           width="9.0026054"
           id="rect7102"
           style="color:#000000;fill:url(#radialGradient7112);fill-opacity:1;fill-rule:nonzero;stroke:#204a87;stroke-width:1.00000072;stroke-linecap:round;stroke-linejoin:miter;marker:none;marker-start:none;marker-mid:none;marker-end:none;stroke-miterlimit:4;stroke-dasharray:none;stroke-dashoffset:0;stroke-opacity:1;visibility:visible;display:inline;overflow:visible" />
        <path
           sodipodi:nodetypes="ccccc"
           id="path7104"
           d="M 4,3 L 12,3 L 12,4.7142857 C 7.9642858,4.7500001 8,7 4,7 L 4,3 z "
           style="opacity:0.30196078;color:#000000;fill:url(#linearGradient7114);fill-opacity:1;fill-rule:nonzero;stroke:none;stroke-width:1;stroke-linecap:round;stroke-linejoin:round;marker:none;marker-start:none;marker-mid:none;marker-end:none;stroke-miterlimit:4;stroke-dashoffset:0;stroke-opacity:1;visibility:visible;display:inline;overflow:visible" />
        <rect
           ry="0.53596115"
           rx="0.53596115"
           y="12"
           x="2"
           height="2"
           width="12"
           id="rect7106"
           style="opacity:1;color:#000000;fill:#babdb6;fill-opacity:1;fill-rule:nonzero;stroke:none;stroke-width:1;stroke-linecap:square;stroke-linejoin:miter;marker:none;marker-start:none;marker-mid:none;marker-end:none;stroke-miterlimit:4;stroke-dasharray:none;stroke-dashoffset:0;stroke-opacity:1;visibility:visible;display:inline;overflow:visible" />
        <path
           id="path7108"
           d="M 3.40625,12 C 3.3899805,12.003332 3.3594033,12.026378 3.34375,12.03125 C 3.3207794,12.039666 3.2712534,12.05095 3.25,12.0625 C 3.1812732,12.104274 3.1042737,12.181273 3.0625,12.25 C 3.0509497,12.271253 3.0396659,12.320779 3.03125,12.34375 C 3.0239419,12.36723 3.0037958,12.412681 3,12.4375 C 2.998292,12.454302 3,12.48275 3,12.5 C 3,12.51725 2.998292,12.545698 3,12.5625 C 3.0037958,12.587319 3.0239419,12.63277 3.03125,12.65625 C 3.0396659,12.679221 3.0509497,12.728747 3.0625,12.75 C 3.1042737,12.818727 3.1812732,12.895726 3.25,12.9375 C 3.2712534,12.94905 3.3207794,12.960334 3.34375,12.96875 C 3.36723,12.976058 3.4126808,12.996204 3.4375,13 C 3.4543018,13.001708 3.48275,13 3.5,13 C 3.51725,13 3.5456982,13.001708 3.5625,13 C 3.5873192,12.996204 3.63277,12.976058 3.65625,12.96875 C 3.6792206,12.960334 3.7287466,12.94905 3.75,12.9375 C 3.8187268,12.895726 3.8957263,12.818727 3.9375,12.75 C 3.9490503,12.728747 3.9603341,12.679221 3.96875,12.65625 C 3.9760581,12.63277 3.9962042,12.587319 4,12.5625 C 4.001708,12.545698 4,12.51725 4,12.5 C 4,12.48275 4.001708,12.454302 4,12.4375 C 3.9962042,12.412681 3.9760581,12.36723 3.96875,12.34375 C 3.9603341,12.320779 3.9490503,12.271253 3.9375,12.25 C 3.8957263,12.181273 3.8187268,12.104274 3.75,12.0625 C 3.7287466,12.05095 3.6792206,12.039666 3.65625,12.03125 C 3.63277,12.023942 3.5873192,12.003796 3.5625,12 C 3.5456982,11.998292 3.51725,12 3.5,12 C 3.48275,12 3.4543018,11.998292 3.4375,12 C 3.4292269,12.001265 3.4143848,11.998334 3.40625,12 z M 5.40625,12 C 5.3899805,12.003332 5.3594033,12.026378 5.34375,12.03125 C 5.3207794,12.039666 5.2712534,12.05095 5.25,12.0625 C 5.1812732,12.104274 5.1042737,12.181273 5.0625,12.25 C 5.0509497,12.271253 5.0396659,12.320779 5.03125,12.34375 C 5.0239419,12.36723 5.0037958,12.412681 5,12.4375 C 4.998292,12.454302 5,12.48275 5,12.5 C 5,12.51725 4.998292,12.545698 5,12.5625 C 5.0037958,12.587319 5.0239419,12.63277 5.03125,12.65625 C 5.0396659,12.679221 5.0509497,12.728747 5.0625,12.75 C 5.1042737,12.818727 5.1812732,12.895726 5.25,12.9375 C 5.2712534,12.94905 5.3207794,12.960334 5.34375,12.96875 C 5.36723,12.976058 5.4126808,12.996204 5.4375,13 C 5.4543018,13.001708 5.48275,13 5.5,13 C 5.51725,13 5.5456982,13.001708 5.5625,13 C 5.5873192,12.996204 5.63277,12.976058 5.65625,12.96875 C 5.6792206,12.960334 5.7287466,12.94905 5.75,12.9375 C 5.8187268,12.895726 5.8957263,12.818727 5.9375,12.75 C 5.9490503,12.728747 5.9603341,12.679221 5.96875,12.65625 C 5.9760581,12.63277 5.9962042,12.587319 6,12.5625 C 6.001708,12.545698 6,12.51725 6,12.5 C 6,12.48275 6.001708,12.454302 6,12.4375 C 5.9962042,12.412681 5.9760581,12.36723 5.96875,12.34375 C 5.9603341,12.320779 5.9490503,12.271253 5.9375,12.25 C 5.8957263,12.181273 5.8187268,12.104274 5.75,12.0625 C 5.7287466,12.05095 5.6792206,12.039666 5.65625,12.03125 C 5.63277,12.023942 5.5873192,12.003796 5.5625,12 C 5.5456982,11.998292 5.51725,12 5.5,12 C 5.48275,12 5.4543018,11.998292 5.4375,12 C 5.4292269,12.001265 5.4143848,11.998334 5.40625,12 z M 7.40625,12 C 7.3899805,12.003332 7.3594033,12.026378 7.34375,12.03125 C 7.3207794,12.039666 7.2712534,12.05095 7.25,12.0625 C 7.1812732,12.104274 7.1042737,12.181273 7.0625,12.25 C 7.0509497,12.271253 7.0396659,12.320779 7.03125,12.34375 C 7.0239419,12.36723 7.0037958,12.412681 7,12.4375 C 6.998292,12.454302 7,12.48275 7,12.5 C 7,12.51725 6.998292,12.545698 7,12.5625 C 7.0037958,12.587319 7.0239419,12.63277 7.03125,12.65625 C 7.0396659,12.679221 7.0509497,12.728747 7.0625,12.75 C 7.1042737,12.818727 7.1812732,12.895726 7.25,12.9375 C 7.2712534,12.94905 7.3207794,12.960334 7.34375,12.96875 C 7.36723,12.976058 7.4126808,12.996204 7.4375,13 C 7.4543018,13.001708 7.48275,13 7.5,13 C 7.51725,13 7.5456982,13.001708 7.5625,13 C 7.5873192,12.996204 7.63277,12.976058 7.65625,12.96875 C 7.6792206,12.960334 7.7287466,12.94905 7.75,12.9375 C 7.8187268,12.895726 7.8957263,12.818727 7.9375,12.75 C 7.9490503,12.728747 7.9603341,12.679221 7.96875,12.65625 C 7.9760581,12.63277 7.9962042,12.587319 8,12.5625 C 8.001708,12.545698 8,12.51725 8,12.5 C 8,12.48275 8.001708,12.454302 8,12.4375 C 7.9962042,12.412681 7.9760581,12.36723 7.96875,12.34375 C 7.9603341,12.320779 7.9490503,12.271253 7.9375,12.25 C 7.8957263,12.181273 7.8187268,12.104274 7.75,12.0625 C 7.7287466,12.05095 7.6792206,12.039666 7.65625,12.03125 C 7.63277,12.023942 7.5873192,12.003796 7.5625,12 C 7.5456982,11.998292 7.51725,12 7.5,12 C 7.48275,12 7.4543018,11.998292 7.4375,12 C 7.4292269,12.001265 7.4143848,11.998334 7.40625,12 z M 9.40625,12 C 9.3899805,12.003332 9.3594033,12.026378 9.34375,12.03125 C 9.3207794,12.039666 9.2712534,12.05095 9.25,12.0625 C 9.1812732,12.104274 9.1042737,12.181273 9.0625,12.25 C 9.0509497,12.271253 9.0396659,12.320779 9.03125,12.34375 C 9.0239419,12.36723 9.0037958,12.412681 9,12.4375 C 8.998292,12.454302 9,12.48275 9,12.5 C 9,12.51725 8.998292,12.545698 9,12.5625 C 9.0037958,12.587319 9.0239419,12.63277 9.03125,12.65625 C 9.0396659,12.679221 9.0509497,12.728747 9.0625,12.75 C 9.1042737,12.818727 9.1812732,12.895726 9.25,12.9375 C 9.2712534,12.94905 9.3207794,12.960334 9.34375,12.96875 C 9.36723,12.976058 9.4126808,12.996204 9.4375,13 C 9.4543018,13.001708 9.48275,13 9.5,13 C 9.51725,13 9.5456982,13.001708 9.5625,13 C 9.5873192,12.996204 9.63277,12.976058 9.65625,12.96875 C 9.6792206,12.960334 9.7287466,12.94905 9.75,12.9375 C 9.8187268,12.895726 9.8957263,12.818727 9.9375,12.75 C 9.9490503,12.728747 9.9603341,12.679221 9.96875,12.65625 C 9.9760581,12.63277 9.9962042,12.587319 10,12.5625 C 10.001708,12.545698 10,12.51725 10,12.5 C 10,12.48275 10.001708,12.454302 10,12.4375 C 9.9962042,12.412681 9.9760581,12.36723 9.96875,12.34375 C 9.9603341,12.320779 9.9490503,12.271253 9.9375,12.25 C 9.8957263,12.181273 9.8187268,12.104274 9.75,12.0625 C 9.7287466,12.05095 9.6792206,12.039666 9.65625,12.03125 C 9.63277,12.023942 9.5873192,12.003796 9.5625,12 C 9.5456982,11.998292 9.51725,12 9.5,12 C 9.48275,12 9.4543018,11.998292 9.4375,12 C 9.4292269,12.001265 9.4143848,11.998334 9.40625,12 z M 11.40625,12 C 11.38998,12.003332 11.359403,12.026378 11.34375,12.03125 C 11.320779,12.039666 11.271253,12.05095 11.25,12.0625 C 11.181273,12.104274 11.104274,12.181273 11.0625,12.25 C 11.05095,12.271253 11.039666,12.320779 11.03125,12.34375 C 11.023942,12.36723 11.003796,12.412681 11,12.4375 C 10.998292,12.454302 11,12.48275 11,12.5 C 11,12.51725 10.998292,12.545698 11,12.5625 C 11.003796,12.587319 11.023942,12.63277 11.03125,12.65625 C 11.039666,12.679221 11.05095,12.728747 11.0625,12.75 C 11.104274,12.818727 11.181273,12.895726 11.25,12.9375 C 11.271253,12.94905 11.320779,12.960334 11.34375,12.96875 C 11.36723,12.976058 11.412681,12.996204 11.4375,13 C 11.454302,13.001708 11.48275,13 11.5,13 C 11.51725,13 11.545698,13.001708 11.5625,13 C 11.587319,12.996204 11.63277,12.976058 11.65625,12.96875 C 11.679221,12.960334 11.728747,12.94905 11.75,12.9375 C 11.818727,12.895726 11.895726,12.818727 11.9375,12.75 C 11.94905,12.728747 11.960334,12.679221 11.96875,12.65625 C 11.976058,12.63277 11.996204,12.587319 12,12.5625 C 12.001708,12.545698 12,12.51725 12,12.5 C 12,12.48275 12.001708,12.454302 12,12.4375 C 11.996204,12.412681 11.976058,12.36723 11.96875,12.34375 C 11.960334,12.320779 11.94905,12.271253 11.9375,12.25 C 11.895726,12.181273 11.818727,12.104274 11.75,12.0625 C 11.728747,12.05095 11.679221,12.039666 11.65625,12.03125 C 11.63277,12.023942 11.587319,12.003796 11.5625,12 C 11.545698,11.998292 11.51725,12 11.5,12 C 11.48275,12 11.454302,11.998292 11.4375,12 C 11.429227,12.001265 11.414385,11.998334 11.40625,12 z M 4.40625,13 C 4.3899805,13.003332 4.3594033,13.026378 4.34375,13.03125 C 4.3207794,13.039666 4.2712534,13.05095 4.25,13.0625 C 4.1812732,13.104274 4.1042737,13.181273 4.0625,13.25 C 4.0509497,13.271253 4.0396659,13.320779 4.03125,13.34375 C 4.0239419,13.36723 4.0037958,13.412681 4,13.4375 C 3.998292,13.454302 4,13.48275 4,13.5 C 4,13.51725 3.998292,13.545698 4,13.5625 C 4.0037958,13.587319 4.0239419,13.63277 4.03125,13.65625 C 4.0396659,13.679221 4.0509497,13.728747 4.0625,13.75 C 4.1042737,13.818727 4.1812732,13.895726 4.25,13.9375 C 4.2712534,13.94905 4.3207794,13.960334 4.34375,13.96875 C 4.36723,13.976058 4.4126808,13.996204 4.4375,14 C 4.4543018,14.001708 4.48275,14 4.5,14 C 4.51725,14 4.5456982,14.001708 4.5625,14 C 4.5873192,13.996204 4.63277,13.976058 4.65625,13.96875 C 4.6792206,13.960334 4.7287466,13.94905 4.75,13.9375 C 4.8187268,13.895726 4.8957263,13.818727 4.9375,13.75 C 4.9490503,13.728747 4.9603341,13.679221 4.96875,13.65625 C 4.9760581,13.63277 4.9962042,13.587319 5,13.5625 C 5.001708,13.545698 5,13.51725 5,13.5 C 5,13.48275 5.001708,13.454302 5,13.4375 C 4.9962042,13.412681 4.9760581,13.36723 4.96875,13.34375 C 4.9603341,13.320779 4.9490503,13.271253 4.9375,13.25 C 4.8957263,13.181273 4.8187268,13.104274 4.75,13.0625 C 4.7287466,13.05095 4.6792206,13.039666 4.65625,13.03125 C 4.63277,13.023942 4.5873192,13.003796 4.5625,13 C 4.5456982,12.998292 4.51725,13 4.5,13 C 4.48275,13 4.4543018,12.998292 4.4375,13 C 4.4292269,13.001265 4.4143848,12.998334 4.40625,13 z M 6.40625,13 C 6.3899805,13.003332 6.3594033,13.026378 6.34375,13.03125 C 6.3207794,13.039666 6.2712534,13.05095 6.25,13.0625 C 6.1812732,13.104274 6.1042737,13.181273 6.0625,13.25 C 6.0509497,13.271253 6.0396659,13.320779 6.03125,13.34375 C 6.0239419,13.36723 6.0037958,13.412681 6,13.4375 C 5.998292,13.454302 6,13.48275 6,13.5 C 6,13.51725 5.998292,13.545698 6,13.5625 C 6.0037958,13.587319 6.0239419,13.63277 6.03125,13.65625 C 6.0396659,13.679221 6.0509497,13.728747 6.0625,13.75 C 6.1042737,13.818727 6.1812732,13.895726 6.25,13.9375 C 6.2712534,13.94905 6.3207794,13.960334 6.34375,13.96875 C 6.36723,13.976058 6.4126808,13.996204 6.4375,14 C 6.4543018,14.001708 6.48275,14 6.5,14 C 6.51725,14 6.5456982,14.001708 6.5625,14 C 6.5873192,13.996204 6.63277,13.976058 6.65625,13.96875 C 6.6792206,13.960334 6.7287466,13.94905 6.75,13.9375 C 6.8187268,13.895726 6.8957263,13.818727 6.9375,13.75 C 6.9490503,13.728747 6.9603341,13.679221 6.96875,13.65625 C 6.9760581,13.63277 6.9962042,13.587319 7,13.5625 C 7.001708,13.545698 7,13.51725 7,13.5 C 7,13.48275 7.001708,13.454302 7,13.4375 C 6.9962042,13.412681 6.9760581,13.36723 6.96875,13.34375 C 6.9603341,13.320779 6.9490503,13.271253 6.9375,13.25 C 6.8957263,13.181273 6.8187268,13.104274 6.75,13.0625 C 6.7287466,13.05095 6.6792206,13.039666 6.65625,13.03125 C 6.63277,13.023942 6.5873192,13.003796 6.5625,13 C 6.5456982,12.998292 6.51725,13 6.5,13 C 6.48275,13 6.4543018,12.998292 6.4375,13 C 6.4292269,13.001265 6.4143848,12.998334 6.40625,13 z M 8.40625,13 C 8.3899805,13.003332 8.3594033,13.026378 8.34375,13.03125 C 8.3207794,13.039666 8.2712534,13.05095 8.25,13.0625 C 8.1812732,13.104274 8.1042737,13.181273 8.0625,13.25 C 8.0509497,13.271253 8.0396659,13.320779 8.03125,13.34375 C 8.0239419,13.36723 8.0037958,13.412681 8,13.4375 C 7.998292,13.454302 8,13.48275 8,13.5 C 8,13.51725 7.998292,13.545698 8,13.5625 C 8.0037958,13.587319 8.0239419,13.63277 8.03125,13.65625 C 8.0396659,13.679221 8.0509497,13.728747 8.0625,13.75 C 8.1042737,13.818727 8.1812732,13.895726 8.25,13.9375 C 8.2712534,13.94905 8.3207794,13.960334 8.34375,13.96875 C 8.36723,13.976058 8.4126808,13.996204 8.4375,14 C 8.4543018,14.001708 8.48275,14 8.5,14 C 8.51725,14 8.5456982,14.001708 8.5625,14 C 8.5873192,13.996204 8.63277,13.976058 8.65625,13.96875 C 8.6792206,13.960334 8.7287466,13.94905 8.75,13.9375 C 8.8187268,13.895726 8.8957263,13.818727 8.9375,13.75 C 8.9490503,13.728747 8.9603341,13.679221 8.96875,13.65625 C 8.9760581,13.63277 8.9962042,13.587319 9,13.5625 C 9.001708,13.545698 9,13.51725 9,13.5 C 9,13.48275 9.001708,13.454302 9,13.4375 C 8.9962042,13.412681 8.9760581,13.36723 8.96875,13.34375 C 8.9603341,13.320779 8.9490503,13.271253 8.9375,13.25 C 8.8957263,13.181273 8.8187268,13.104274 8.75,13.0625 C 8.7287466,13.05095 8.6792206,13.039666 8.65625,13.03125 C 8.63277,13.023942 8.5873192,13.003796 8.5625,13 C 8.5456982,12.998292 8.51725,13 8.5,13 C 8.48275,13 8.4543018,12.998292 8.4375,13 C 8.4292269,13.001265 8.4143848,12.998334 8.40625,13 z M 10.40625,13 C 10.38998,13.003332 10.359403,13.026378 10.34375,13.03125 C 10.320779,13.039666 10.271253,13.05095 10.25,13.0625 C 10.181273,13.104274 10.104274,13.181273 10.0625,13.25 C 10.05095,13.271253 10.039666,13.320779 10.03125,13.34375 C 10.023942,13.36723 10.003796,13.412681 10,13.4375 C 9.998292,13.454302 10,13.48275 10,13.5 C 10,13.51725 9.998292,13.545698 10,13.5625 C 10.003796,13.587319 10.023942,13.63277 10.03125,13.65625 C 10.039666,13.679221 10.05095,13.728747 10.0625,13.75 C 10.104274,13.818727 10.181273,13.895726 10.25,13.9375 C 10.271253,13.94905 10.320779,13.960334 10.34375,13.96875 C 10.36723,13.976058 10.412681,13.996204 10.4375,14 C 10.454302,14.001708 10.48275,14 10.5,14 C 10.51725,14 10.545698,14.001708 10.5625,14 C 10.587319,13.996204 10.63277,13.976058 10.65625,13.96875 C 10.679221,13.960334 10.728747,13.94905 10.75,13.9375 C 10.818727,13.895726 10.895726,13.818727 10.9375,13.75 C 10.94905,13.728747 10.960334,13.679221 10.96875,13.65625 C 10.976058,13.63277 10.996204,13.587319 11,13.5625 C 11.001708,13.545698 11,13.51725 11,13.5 C 11,13.48275 11.001708,13.454302 11,13.4375 C 10.996204,13.412681 10.976058,13.36723 10.96875,13.34375 C 10.960334,13.320779 10.94905,13.271253 10.9375,13.25 C 10.895726,13.181273 10.818727,13.104274 10.75,13.0625 C 10.728747,13.05095 10.679221,13.039666 10.65625,13.03125 C 10.63277,13.023942 10.587319,13.003796 10.5625,13 C 10.545698,12.998292 10.51725,13 10.5,13 C 10.48275,13 10.454302,12.998292 10.4375,13 C 10.429227,13.001265 10.414385,12.998334 10.40625,13 z M 12.40625,13 C 12.38998,13.003332 12.359403,13.026378 12.34375,13.03125 C 12.320779,13.039666 12.271253,13.05095 12.25,13.0625 C 12.181273,13.104274 12.104274,13.181273 12.0625,13.25 C 12.05095,13.271253 12.039666,13.320779 12.03125,13.34375 C 12.023942,13.36723 12.003796,13.412681 12,13.4375 C 11.998292,13.454302 12,13.48275 12,13.5 C 12,13.51725 11.998292,13.545698 12,13.5625 C 12.003796,13.587319 12.023942,13.63277 12.03125,13.65625 C 12.039666,13.679221 12.05095,13.728747 12.0625,13.75 C 12.104274,13.818727 12.181273,13.895726 12.25,13.9375 C 12.271253,13.94905 12.320779,13.960334 12.34375,13.96875 C 12.36723,13.976058 12.412681,13.996204 12.4375,14 C 12.454302,14.001708 12.48275,14 12.5,14 C 12.51725,14 12.545698,14.001708 12.5625,14 C 12.587319,13.996204 12.63277,13.976058 12.65625,13.96875 C 12.679221,13.960334 12.728747,13.94905 12.75,13.9375 C 12.818727,13.895726 12.895726,13.818727 12.9375,13.75 C 12.94905,13.728747 12.960334,13.679221 12.96875,13.65625 C 12.976058,13.63277 12.996204,13.587319 13,13.5625 C 13.001708,13.545698 13,13.51725 13,13.5 C 13,13.48275 13.001708,13.454302 13,13.4375 C 12.996204,13.412681 12.976058,13.36723 12.96875,13.34375 C 12.960334,13.320779 12.94905,13.271253 12.9375,13.25 C 12.895726,13.181273 12.818727,13.104274 12.75,13.0625 C 12.728747,13.05095 12.679221,13.039666 12.65625,13.03125 C 12.63277,13.023942 12.587319,13.003796 12.5625,13 C 12.545698,12.998292 12.51725,13 12.5,13 C 12.48275,13 12.454302,12.998292 12.4375,13 C 12.429227,13.001265 12.414385,12.998334 12.40625,13 z "
           style="color:#000000;fill:url(#radialGradient7116);fill-opacity:1;fill-rule:nonzero;stroke:none;stroke-width:1;stroke-linecap:square;stroke-linejoin:round;marker:none;marker-start:none;marker-mid:none;marker-end:none;stroke-miterlimit:4;stroke-dasharray:none;stroke-dashoffset:0;stroke-opacity:1;visibility:visible;display:inline;overflow:visible" />
      </g>
      <g
         style="display:inline"
         inkscape:label="finiture"
         id="g7110" />
    </g>
    <path
       style="fill:#babdb6;fill-opacity:1;fill-rule:evenodd;stroke:url(#linearGradient7244);stroke-width:1px;stroke-linecap:round;stroke-linejoin:miter;stroke-opacity:1"
       d="M 13.5,28.5 L 12.5,26.5"
       id="path7063"
       sodipodi:nodetypes="cc" />
    <g
       id="g7065"
       transform="translate(16,15.05934)">
      <g
         inkscape:label="Shadow"
         id="g7067" />
      <g
         style="display:inline"
         inkscape:label="Lavoro"
         id="layer2">
        <g
           transform="translate(0,15.06603)"
           inkscape:label="Shadow"
           id="g2611" />
        <g
           transform="translate(0,15.06603)"
           style="display:inline"
           inkscape:label="Lavoro"
           id="g2613" />
        <rect
           y="9"
           x="5.50109"
           height="3.9293196"
           width="4.9989057"
           id="rect1428"
           style="opacity:1;color:#000000;fill:#a5ae9d;fill-opacity:1;fill-rule:nonzero;stroke:#868883;stroke-width:0.99999821;stroke-linecap:round;stroke-linejoin:miter;marker:none;marker-start:none;marker-mid:none;marker-end:none;stroke-miterlimit:4;stroke-dasharray:none;stroke-dashoffset:0;stroke-opacity:1;visibility:visible;display:inline;overflow:visible" />
        <rect
           ry="0.75630474"
           rx="0.75858551"
           y="0.49792761"
           x="1.5000002"
           height="10.002075"
           width="13.001309"
           id="rect1432"
           style="opacity:1;color:#000000;fill:#ffffff;fill-opacity:1;fill-rule:nonzero;stroke:#808083;stroke-width:0.99999946;stroke-linecap:round;stroke-linejoin:round;marker:none;marker-start:none;marker-mid:none;marker-end:none;stroke-miterlimit:4;stroke-dasharray:none;stroke-dashoffset:0;stroke-opacity:1;visibility:visible;display:inline;overflow:visible" />
        <path
           style="color:#000000;fill:#ffffff;fill-opacity:1;fill-rule:nonzero;stroke:#888a85;stroke-width:1;stroke-linecap:round;stroke-linejoin:round;marker:none;marker-start:none;marker-mid:none;marker-end:none;stroke-miterlimit:4;stroke-dasharray:none;stroke-dashoffset:0;stroke-opacity:1;visibility:visible;display:inline;overflow:visible"
           d="M 1.5,12.5 L 14.5,12.5 L 15.5,15.5 L 0.5,15.5 L 1.5,12.5 z "
           id="path2622"
           sodipodi:nodetypes="ccccc" />
        <g
           transform="translate(-306.25,-49)"
           inkscape:label="Shadow"
           id="g1598" />
        <g
           transform="translate(-306.25,-49)"
           style="display:inline"
           inkscape:label="finiture"
           id="g1618" />
        <rect
           y="2.4999995"
           x="3.4973977"
           height="6.0056019"
           width="9.0026054"
           id="rect1436"
           style="color:#000000;fill:url(#radialGradient1359);fill-opacity:1;fill-rule:nonzero;stroke:#204a87;stroke-width:1.00000072;stroke-linecap:round;stroke-linejoin:miter;marker:none;marker-start:none;marker-mid:none;marker-end:none;stroke-miterlimit:4;stroke-dasharray:none;stroke-dashoffset:0;stroke-opacity:1;visibility:visible;display:inline;overflow:visible" />
        <path
           sodipodi:nodetypes="ccccc"
           id="rect2260"
           d="M 4,3 L 12,3 L 12,4.7142857 C 7.9642858,4.7500001 8,7 4,7 L 4,3 z "
           style="opacity:0.30196078;color:#000000;fill:url(#linearGradient1356);fill-opacity:1;fill-rule:nonzero;stroke:none;stroke-width:1;stroke-linecap:round;stroke-linejoin:round;marker:none;marker-start:none;marker-mid:none;marker-end:none;stroke-miterlimit:4;stroke-dashoffset:0;stroke-opacity:1;visibility:visible;display:inline;overflow:visible" />
        <rect
           ry="0.53596115"
           rx="0.53596115"
           y="12"
           x="2"
           height="2"
           width="12"
           id="rect3111"
           style="opacity:1;color:#000000;fill:#babdb6;fill-opacity:1;fill-rule:nonzero;stroke:none;stroke-width:1;stroke-linecap:square;stroke-linejoin:miter;marker:none;marker-start:none;marker-mid:none;marker-end:none;stroke-miterlimit:4;stroke-dasharray:none;stroke-dashoffset:0;stroke-opacity:1;visibility:visible;display:inline;overflow:visible" />
        <path
           id="path1344"
           d="M 3.40625,12 C 3.3899805,12.003332 3.3594033,12.026378 3.34375,12.03125 C 3.3207794,12.039666 3.2712534,12.05095 3.25,12.0625 C 3.1812732,12.104274 3.1042737,12.181273 3.0625,12.25 C 3.0509497,12.271253 3.0396659,12.320779 3.03125,12.34375 C 3.0239419,12.36723 3.0037958,12.412681 3,12.4375 C 2.998292,12.454302 3,12.48275 3,12.5 C 3,12.51725 2.998292,12.545698 3,12.5625 C 3.0037958,12.587319 3.0239419,12.63277 3.03125,12.65625 C 3.0396659,12.679221 3.0509497,12.728747 3.0625,12.75 C 3.1042737,12.818727 3.1812732,12.895726 3.25,12.9375 C 3.2712534,12.94905 3.3207794,12.960334 3.34375,12.96875 C 3.36723,12.976058 3.4126808,12.996204 3.4375,13 C 3.4543018,13.001708 3.48275,13 3.5,13 C 3.51725,13 3.5456982,13.001708 3.5625,13 C 3.5873192,12.996204 3.63277,12.976058 3.65625,12.96875 C 3.6792206,12.960334 3.7287466,12.94905 3.75,12.9375 C 3.8187268,12.895726 3.8957263,12.818727 3.9375,12.75 C 3.9490503,12.728747 3.9603341,12.679221 3.96875,12.65625 C 3.9760581,12.63277 3.9962042,12.587319 4,12.5625 C 4.001708,12.545698 4,12.51725 4,12.5 C 4,12.48275 4.001708,12.454302 4,12.4375 C 3.9962042,12.412681 3.9760581,12.36723 3.96875,12.34375 C 3.9603341,12.320779 3.9490503,12.271253 3.9375,12.25 C 3.8957263,12.181273 3.8187268,12.104274 3.75,12.0625 C 3.7287466,12.05095 3.6792206,12.039666 3.65625,12.03125 C 3.63277,12.023942 3.5873192,12.003796 3.5625,12 C 3.5456982,11.998292 3.51725,12 3.5,12 C 3.48275,12 3.4543018,11.998292 3.4375,12 C 3.4292269,12.001265 3.4143848,11.998334 3.40625,12 z M 5.40625,12 C 5.3899805,12.003332 5.3594033,12.026378 5.34375,12.03125 C 5.3207794,12.039666 5.2712534,12.05095 5.25,12.0625 C 5.1812732,12.104274 5.1042737,12.181273 5.0625,12.25 C 5.0509497,12.271253 5.0396659,12.320779 5.03125,12.34375 C 5.0239419,12.36723 5.0037958,12.412681 5,12.4375 C 4.998292,12.454302 5,12.48275 5,12.5 C 5,12.51725 4.998292,12.545698 5,12.5625 C 5.0037958,12.587319 5.0239419,12.63277 5.03125,12.65625 C 5.0396659,12.679221 5.0509497,12.728747 5.0625,12.75 C 5.1042737,12.818727 5.1812732,12.895726 5.25,12.9375 C 5.2712534,12.94905 5.3207794,12.960334 5.34375,12.96875 C 5.36723,12.976058 5.4126808,12.996204 5.4375,13 C 5.4543018,13.001708 5.48275,13 5.5,13 C 5.51725,13 5.5456982,13.001708 5.5625,13 C 5.5873192,12.996204 5.63277,12.976058 5.65625,12.96875 C 5.6792206,12.960334 5.7287466,12.94905 5.75,12.9375 C 5.8187268,12.895726 5.8957263,12.818727 5.9375,12.75 C 5.9490503,12.728747 5.9603341,12.679221 5.96875,12.65625 C 5.9760581,12.63277 5.9962042,12.587319 6,12.5625 C 6.001708,12.545698 6,12.51725 6,12.5 C 6,12.48275 6.001708,12.454302 6,12.4375 C 5.9962042,12.412681 5.9760581,12.36723 5.96875,12.34375 C 5.9603341,12.320779 5.9490503,12.271253 5.9375,12.25 C 5.8957263,12.181273 5.8187268,12.104274 5.75,12.0625 C 5.7287466,12.05095 5.6792206,12.039666 5.65625,12.03125 C 5.63277,12.023942 5.5873192,12.003796 5.5625,12 C 5.5456982,11.998292 5.51725,12 5.5,12 C 5.48275,12 5.4543018,11.998292 5.4375,12 C 5.4292269,12.001265 5.4143848,11.998334 5.40625,12 z M 7.40625,12 C 7.3899805,12.003332 7.3594033,12.026378 7.34375,12.03125 C 7.3207794,12.039666 7.2712534,12.05095 7.25,12.0625 C 7.1812732,12.104274 7.1042737,12.181273 7.0625,12.25 C 7.0509497,12.271253 7.0396659,12.320779 7.03125,12.34375 C 7.0239419,12.36723 7.0037958,12.412681 7,12.4375 C 6.998292,12.454302 7,12.48275 7,12.5 C 7,12.51725 6.998292,12.545698 7,12.5625 C 7.0037958,12.587319 7.0239419,12.63277 7.03125,12.65625 C 7.0396659,12.679221 7.0509497,12.728747 7.0625,12.75 C 7.1042737,12.818727 7.1812732,12.895726 7.25,12.9375 C 7.2712534,12.94905 7.3207794,12.960334 7.34375,12.96875 C 7.36723,12.976058 7.4126808,12.996204 7.4375,13 C 7.4543018,13.001708 7.48275,13 7.5,13 C 7.51725,13 7.5456982,13.001708 7.5625,13 C 7.5873192,12.996204 7.63277,12.976058 7.65625,12.96875 C 7.6792206,12.960334 7.7287466,12.94905 7.75,12.9375 C 7.8187268,12.895726 7.8957263,12.818727 7.9375,12.75 C 7.9490503,12.728747 7.9603341,12.679221 7.96875,12.65625 C 7.9760581,12.63277 7.9962042,12.587319 8,12.5625 C 8.001708,12.545698 8,12.51725 8,12.5 C 8,12.48275 8.001708,12.454302 8,12.4375 C 7.9962042,12.412681 7.9760581,12.36723 7.96875,12.34375 C 7.9603341,12.320779 7.9490503,12.271253 7.9375,12.25 C 7.8957263,12.181273 7.8187268,12.104274 7.75,12.0625 C 7.7287466,12.05095 7.6792206,12.039666 7.65625,12.03125 C 7.63277,12.023942 7.5873192,12.003796 7.5625,12 C 7.5456982,11.998292 7.51725,12 7.5,12 C 7.48275,12 7.4543018,11.998292 7.4375,12 C 7.4292269,12.001265 7.4143848,11.998334 7.40625,12 z M 9.40625,12 C 9.3899805,12.003332 9.3594033,12.026378 9.34375,12.03125 C 9.3207794,12.039666 9.2712534,12.05095 9.25,12.0625 C 9.1812732,12.104274 9.1042737,12.181273 9.0625,12.25 C 9.0509497,12.271253 9.0396659,12.320779 9.03125,12.34375 C 9.0239419,12.36723 9.0037958,12.412681 9,12.4375 C 8.998292,12.454302 9,12.48275 9,12.5 C 9,12.51725 8.998292,12.545698 9,12.5625 C 9.0037958,12.587319 9.0239419,12.63277 9.03125,12.65625 C 9.0396659,12.679221 9.0509497,12.728747 9.0625,12.75 C 9.1042737,12.818727 9.1812732,12.895726 9.25,12.9375 C 9.2712534,12.94905 9.3207794,12.960334 9.34375,12.96875 C 9.36723,12.976058 9.4126808,12.996204 9.4375,13 C 9.4543018,13.001708 9.48275,13 9.5,13 C 9.51725,13 9.5456982,13.001708 9.5625,13 C 9.5873192,12.996204 9.63277,12.976058 9.65625,12.96875 C 9.6792206,12.960334 9.7287466,12.94905 9.75,12.9375 C 9.8187268,12.895726 9.8957263,12.818727 9.9375,12.75 C 9.9490503,12.728747 9.9603341,12.679221 9.96875,12.65625 C 9.9760581,12.63277 9.9962042,12.587319 10,12.5625 C 10.001708,12.545698 10,12.51725 10,12.5 C 10,12.48275 10.001708,12.454302 10,12.4375 C 9.9962042,12.412681 9.9760581,12.36723 9.96875,12.34375 C 9.9603341,12.320779 9.9490503,12.271253 9.9375,12.25 C 9.8957263,12.181273 9.8187268,12.104274 9.75,12.0625 C 9.7287466,12.05095 9.6792206,12.039666 9.65625,12.03125 C 9.63277,12.023942 9.5873192,12.003796 9.5625,12 C 9.5456982,11.998292 9.51725,12 9.5,12 C 9.48275,12 9.4543018,11.998292 9.4375,12 C 9.4292269,12.001265 9.4143848,11.998334 9.40625,12 z M 11.40625,12 C 11.38998,12.003332 11.359403,12.026378 11.34375,12.03125 C 11.320779,12.039666 11.271253,12.05095 11.25,12.0625 C 11.181273,12.104274 11.104274,12.181273 11.0625,12.25 C 11.05095,12.271253 11.039666,12.320779 11.03125,12.34375 C 11.023942,12.36723 11.003796,12.412681 11,12.4375 C 10.998292,12.454302 11,12.48275 11,12.5 C 11,12.51725 10.998292,12.545698 11,12.5625 C 11.003796,12.587319 11.023942,12.63277 11.03125,12.65625 C 11.039666,12.679221 11.05095,12.728747 11.0625,12.75 C 11.104274,12.818727 11.181273,12.895726 11.25,12.9375 C 11.271253,12.94905 11.320779,12.960334 11.34375,12.96875 C 11.36723,12.976058 11.412681,12.996204 11.4375,13 C 11.454302,13.001708 11.48275,13 11.5,13 C 11.51725,13 11.545698,13.001708 11.5625,13 C 11.587319,12.996204 11.63277,12.976058 11.65625,12.96875 C 11.679221,12.960334 11.728747,12.94905 11.75,12.9375 C 11.818727,12.895726 11.895726,12.818727 11.9375,12.75 C 11.94905,12.728747 11.960334,12.679221 11.96875,12.65625 C 11.976058,12.63277 11.996204,12.587319 12,12.5625 C 12.001708,12.545698 12,12.51725 12,12.5 C 12,12.48275 12.001708,12.454302 12,12.4375 C 11.996204,12.412681 11.976058,12.36723 11.96875,12.34375 C 11.960334,12.320779 11.94905,12.271253 11.9375,12.25 C 11.895726,12.181273 11.818727,12.104274 11.75,12.0625 C 11.728747,12.05095 11.679221,12.039666 11.65625,12.03125 C 11.63277,12.023942 11.587319,12.003796 11.5625,12 C 11.545698,11.998292 11.51725,12 11.5,12 C 11.48275,12 11.454302,11.998292 11.4375,12 C 11.429227,12.001265 11.414385,11.998334 11.40625,12 z M 4.40625,13 C 4.3899805,13.003332 4.3594033,13.026378 4.34375,13.03125 C 4.3207794,13.039666 4.2712534,13.05095 4.25,13.0625 C 4.1812732,13.104274 4.1042737,13.181273 4.0625,13.25 C 4.0509497,13.271253 4.0396659,13.320779 4.03125,13.34375 C 4.0239419,13.36723 4.0037958,13.412681 4,13.4375 C 3.998292,13.454302 4,13.48275 4,13.5 C 4,13.51725 3.998292,13.545698 4,13.5625 C 4.0037958,13.587319 4.0239419,13.63277 4.03125,13.65625 C 4.0396659,13.679221 4.0509497,13.728747 4.0625,13.75 C 4.1042737,13.818727 4.1812732,13.895726 4.25,13.9375 C 4.2712534,13.94905 4.3207794,13.960334 4.34375,13.96875 C 4.36723,13.976058 4.4126808,13.996204 4.4375,14 C 4.4543018,14.001708 4.48275,14 4.5,14 C 4.51725,14 4.5456982,14.001708 4.5625,14 C 4.5873192,13.996204 4.63277,13.976058 4.65625,13.96875 C 4.6792206,13.960334 4.7287466,13.94905 4.75,13.9375 C 4.8187268,13.895726 4.8957263,13.818727 4.9375,13.75 C 4.9490503,13.728747 4.9603341,13.679221 4.96875,13.65625 C 4.9760581,13.63277 4.9962042,13.587319 5,13.5625 C 5.001708,13.545698 5,13.51725 5,13.5 C 5,13.48275 5.001708,13.454302 5,13.4375 C 4.9962042,13.412681 4.9760581,13.36723 4.96875,13.34375 C 4.9603341,13.320779 4.9490503,13.271253 4.9375,13.25 C 4.8957263,13.181273 4.8187268,13.104274 4.75,13.0625 C 4.7287466,13.05095 4.6792206,13.039666 4.65625,13.03125 C 4.63277,13.023942 4.5873192,13.003796 4.5625,13 C 4.5456982,12.998292 4.51725,13 4.5,13 C 4.48275,13 4.4543018,12.998292 4.4375,13 C 4.4292269,13.001265 4.4143848,12.998334 4.40625,13 z M 6.40625,13 C 6.3899805,13.003332 6.3594033,13.026378 6.34375,13.03125 C 6.3207794,13.039666 6.2712534,13.05095 6.25,13.0625 C 6.1812732,13.104274 6.1042737,13.181273 6.0625,13.25 C 6.0509497,13.271253 6.0396659,13.320779 6.03125,13.34375 C 6.0239419,13.36723 6.0037958,13.412681 6,13.4375 C 5.998292,13.454302 6,13.48275 6,13.5 C 6,13.51725 5.998292,13.545698 6,13.5625 C 6.0037958,13.587319 6.0239419,13.63277 6.03125,13.65625 C 6.0396659,13.679221 6.0509497,13.728747 6.0625,13.75 C 6.1042737,13.818727 6.1812732,13.895726 6.25,13.9375 C 6.2712534,13.94905 6.3207794,13.960334 6.34375,13.96875 C 6.36723,13.976058 6.4126808,13.996204 6.4375,14 C 6.4543018,14.001708 6.48275,14 6.5,14 C 6.51725,14 6.5456982,14.001708 6.5625,14 C 6.5873192,13.996204 6.63277,13.976058 6.65625,13.96875 C 6.6792206,13.960334 6.7287466,13.94905 6.75,13.9375 C 6.8187268,13.895726 6.8957263,13.818727 6.9375,13.75 C 6.9490503,13.728747 6.9603341,13.679221 6.96875,13.65625 C 6.9760581,13.63277 6.9962042,13.587319 7,13.5625 C 7.001708,13.545698 7,13.51725 7,13.5 C 7,13.48275 7.001708,13.454302 7,13.4375 C 6.9962042,13.412681 6.9760581,13.36723 6.96875,13.34375 C 6.9603341,13.320779 6.9490503,13.271253 6.9375,13.25 C 6.8957263,13.181273 6.8187268,13.104274 6.75,13.0625 C 6.7287466,13.05095 6.6792206,13.039666 6.65625,13.03125 C 6.63277,13.023942 6.5873192,13.003796 6.5625,13 C 6.5456982,12.998292 6.51725,13 6.5,13 C 6.48275,13 6.4543018,12.998292 6.4375,13 C 6.4292269,13.001265 6.4143848,12.998334 6.40625,13 z M 8.40625,13 C 8.3899805,13.003332 8.3594033,13.026378 8.34375,13.03125 C 8.3207794,13.039666 8.2712534,13.05095 8.25,13.0625 C 8.1812732,13.104274 8.1042737,13.181273 8.0625,13.25 C 8.0509497,13.271253 8.0396659,13.320779 8.03125,13.34375 C 8.0239419,13.36723 8.0037958,13.412681 8,13.4375 C 7.998292,13.454302 8,13.48275 8,13.5 C 8,13.51725 7.998292,13.545698 8,13.5625 C 8.0037958,13.587319 8.0239419,13.63277 8.03125,13.65625 C 8.0396659,13.679221 8.0509497,13.728747 8.0625,13.75 C 8.1042737,13.818727 8.1812732,13.895726 8.25,13.9375 C 8.2712534,13.94905 8.3207794,13.960334 8.34375,13.96875 C 8.36723,13.976058 8.4126808,13.996204 8.4375,14 C 8.4543018,14.001708 8.48275,14 8.5,14 C 8.51725,14 8.5456982,14.001708 8.5625,14 C 8.5873192,13.996204 8.63277,13.976058 8.65625,13.96875 C 8.6792206,13.960334 8.7287466,13.94905 8.75,13.9375 C 8.8187268,13.895726 8.8957263,13.818727 8.9375,13.75 C 8.9490503,13.728747 8.9603341,13.679221 8.96875,13.65625 C 8.9760581,13.63277 8.9962042,13.587319 9,13.5625 C 9.001708,13.545698 9,13.51725 9,13.5 C 9,13.48275 9.001708,13.454302 9,13.4375 C 8.9962042,13.412681 8.9760581,13.36723 8.96875,13.34375 C 8.9603341,13.320779 8.9490503,13.271253 8.9375,13.25 C 8.8957263,13.181273 8.8187268,13.104274 8.75,13.0625 C 8.7287466,13.05095 8.6792206,13.039666 8.65625,13.03125 C 8.63277,13.023942 8.5873192,13.003796 8.5625,13 C 8.5456982,12.998292 8.51725,13 8.5,13 C 8.48275,13 8.4543018,12.998292 8.4375,13 C 8.4292269,13.001265 8.4143848,12.998334 8.40625,13 z M 10.40625,13 C 10.38998,13.003332 10.359403,13.026378 10.34375,13.03125 C 10.320779,13.039666 10.271253,13.05095 10.25,13.0625 C 10.181273,13.104274 10.104274,13.181273 10.0625,13.25 C 10.05095,13.271253 10.039666,13.320779 10.03125,13.34375 C 10.023942,13.36723 10.003796,13.412681 10,13.4375 C 9.998292,13.454302 10,13.48275 10,13.5 C 10,13.51725 9.998292,13.545698 10,13.5625 C 10.003796,13.587319 10.023942,13.63277 10.03125,13.65625 C 10.039666,13.679221 10.05095,13.728747 10.0625,13.75 C 10.104274,13.818727 10.181273,13.895726 10.25,13.9375 C 10.271253,13.94905 10.320779,13.960334 10.34375,13.96875 C 10.36723,13.976058 10.412681,13.996204 10.4375,14 C 10.454302,14.001708 10.48275,14 10.5,14 C 10.51725,14 10.545698,14.001708 10.5625,14 C 10.587319,13.996204 10.63277,13.976058 10.65625,13.96875 C 10.679221,13.960334 10.728747,13.94905 10.75,13.9375 C 10.818727,13.895726 10.895726,13.818727 10.9375,13.75 C 10.94905,13.728747 10.960334,13.679221 10.96875,13.65625 C 10.976058,13.63277 10.996204,13.587319 11,13.5625 C 11.001708,13.545698 11,13.51725 11,13.5 C 11,13.48275 11.001708,13.454302 11,13.4375 C 10.996204,13.412681 10.976058,13.36723 10.96875,13.34375 C 10.960334,13.320779 10.94905,13.271253 10.9375,13.25 C 10.895726,13.181273 10.818727,13.104274 10.75,13.0625 C 10.728747,13.05095 10.679221,13.039666 10.65625,13.03125 C 10.63277,13.023942 10.587319,13.003796 10.5625,13 C 10.545698,12.998292 10.51725,13 10.5,13 C 10.48275,13 10.454302,12.998292 10.4375,13 C 10.429227,13.001265 10.414385,12.998334 10.40625,13 z M 12.40625,13 C 12.38998,13.003332 12.359403,13.026378 12.34375,13.03125 C 12.320779,13.039666 12.271253,13.05095 12.25,13.0625 C 12.181273,13.104274 12.104274,13.181273 12.0625,13.25 C 12.05095,13.271253 12.039666,13.320779 12.03125,13.34375 C 12.023942,13.36723 12.003796,13.412681 12,13.4375 C 11.998292,13.454302 12,13.48275 12,13.5 C 12,13.51725 11.998292,13.545698 12,13.5625 C 12.003796,13.587319 12.023942,13.63277 12.03125,13.65625 C 12.039666,13.679221 12.05095,13.728747 12.0625,13.75 C 12.104274,13.818727 12.181273,13.895726 12.25,13.9375 C 12.271253,13.94905 12.320779,13.960334 12.34375,13.96875 C 12.36723,13.976058 12.412681,13.996204 12.4375,14 C 12.454302,14.001708 12.48275,14 12.5,14 C 12.51725,14 12.545698,14.001708 12.5625,14 C 12.587319,13.996204 12.63277,13.976058 12.65625,13.96875 C 12.679221,13.960334 12.728747,13.94905 12.75,13.9375 C 12.818727,13.895726 12.895726,13.818727 12.9375,13.75 C 12.94905,13.728747 12.960334,13.679221 12.96875,13.65625 C 12.976058,13.63277 12.996204,13.587319 13,13.5625 C 13.001708,13.545698 13,13.51725 13,13.5 C 13,13.48275 13.001708,13.454302 13,13.4375 C 12.996204,13.412681 12.976058,13.36723 12.96875,13.34375 C 12.960334,13.320779 12.94905,13.271253 12.9375,13.25 C 12.895726,13.181273 12.818727,13.104274 12.75,13.0625 C 12.728747,13.05095 12.679221,13.039666 12.65625,13.03125 C 12.63277,13.023942 12.587319,13.003796 12.5625,13 C 12.545698,12.998292 12.51725,13 12.5,13 C 12.48275,13 12.454302,12.998292 12.4375,13 C 12.429227,13.001265 12.414385,12.998334 12.40625,13 z "
           style="color:#000000;fill:url(#radialGradient1406);fill-opacity:1;fill-rule:nonzero;stroke:none;stroke-width:1;stroke-linecap:square;stroke-linejoin:round;marker:none;marker-start:none;marker-mid:none;marker-end:none;stroke-miterlimit:4;stroke-dasharray:none;stroke-dashoffset:0;stroke-opacity:1;visibility:visible;display:inline;overflow:visible" />
      </g>
      <g
         style="display:inline"
         inkscape:label="finiture"
         id="layer3" />
    </g>
    <path
       transform="matrix(1.762105,0,0,1.945411,-8.7969296,-25.943483)"
       style="fill:none;fill-opacity:1;fill-rule:evenodd;stroke:#729fcf;stroke-width:0.54010528;stroke-linecap:round;stroke-linejoin:miter;stroke-miterlimit:4;stroke-opacity:1"
       d="M 10.883982,28.048223 C 10.219857,27.446163 10.219857,26.468906 10.883982,25.866847 C 11.216044,25.565817 11.617499,25.415069 12.087107,25.415069"
       id="path7328" />
    <path
       transform="matrix(2.9375549,0,0,3.2429814,-23.004718,-60.922783)"
       style="fill:none;fill-opacity:1;fill-rule:evenodd;stroke:#729fcf;stroke-width:0.32399237;stroke-linecap:round;stroke-linejoin:miter;stroke-miterlimit:4;stroke-opacity:1"
       d="M 10.883982,28.048223 C 10.219857,27.446163 10.219857,26.468906 10.883982,25.866847 C 11.216044,25.565817 11.617499,25.415069 12.087107,25.415069"
       id="path7330" />
    <path
       transform="matrix(4.1151463,0,0,4.5429157,-37.23839,-95.965808)"
       style="fill:none;fill-opacity:1;fill-rule:evenodd;stroke:#729fcf;stroke-width:0.23128104;stroke-linecap:round;stroke-linejoin:miter;stroke-miterlimit:4;stroke-opacity:1"
       d="M 10.883982,28.048223 C 10.219857,27.446163 10.219857,26.468906 10.883982,25.866847 C 11.216044,25.565817 11.617499,25.415069 12.087107,25.415069"
       id="path7332" />
  </g>
</svg>
