<?xml version="1.0" encoding="UTF-8" standalone="no"?>
<!-- Created with Inkscape (http://www.inkscape.org/) -->
<svg
   xmlns:dc="http://purl.org/dc/elements/1.1/"
   xmlns:cc="http://web.resource.org/cc/"
   xmlns:rdf="http://www.w3.org/1999/02/22-rdf-syntax-ns#"
   xmlns:svg="http://www.w3.org/2000/svg"
   xmlns="http://www.w3.org/2000/svg"
   xmlns:xlink="http://www.w3.org/1999/xlink"
   xmlns:sodipodi="http://sodipodi.sourceforge.net/DTD/sodipodi-0.dtd"
   xmlns:inkscape="http://www.inkscape.org/namespaces/inkscape"
   width="32"
   height="32"
   id="svg2"
   sodipodi:version="0.32"
   inkscape:version="0.45"
   sodipodi:docbase="/home/dobey/Projects/gnome-icon-theme/32x32/categories"
   sodipodi:docname="preferences-desktop-peripherals.svg"
   version="1.0"
   inkscape:output_extension="org.inkscape.output.svg.inkscape"
   inkscape:export-filename="/home/lapo/Icone/svn/gnome-icon-theme/32x32/categories/preferences-desktop-peripherals.png"
   inkscape:export-xdpi="90"
   inkscape:export-ydpi="90">
  <defs
     id="defs4">
    <linearGradient
       inkscape:collect="always"
       id="linearGradient7148">
      <stop
         style="stop-color:#000000;stop-opacity:1;"
         offset="0"
         id="stop7150" />
      <stop
         style="stop-color:#000000;stop-opacity:0;"
         offset="1"
         id="stop7152" />
    </linearGradient>
    <linearGradient
       id="linearGradient2303">
      <stop
         style="stop-color:#ffffff"
         offset="0"
         id="stop2305" />
      <stop
         id="stop4891"
         offset="0.67346936"
         style="stop-color:#dedfdc;stop-opacity:1;" />
      <stop
         style="stop-color:#babdb6"
         offset="1"
         id="stop2307" />
    </linearGradient>
    <linearGradient
       inkscape:collect="always"
       id="linearGradient6967">
      <stop
         style="stop-color:#ffffff;stop-opacity:1;"
         offset="0"
         id="stop6969" />
      <stop
         style="stop-color:#ffffff;stop-opacity:0;"
         offset="1"
         id="stop6971" />
    </linearGradient>
    <linearGradient
       id="linearGradient7246">
      <stop
         style="stop-color:#ffffff;stop-opacity:1;"
         offset="0"
         id="stop7248" />
      <stop
         style="stop-color:#729fcf;stop-opacity:1"
         offset="1"
         id="stop7250" />
    </linearGradient>
    <linearGradient
       id="linearGradient5717">
      <stop
         style="stop-color:#ffffff;stop-opacity:1;"
         offset="0"
         id="stop5719" />
      <stop
         style="stop-color:#d3d7cf;stop-opacity:1;"
         offset="1"
         id="stop5721" />
    </linearGradient>
    <linearGradient
       id="linearGradient49731">
      <stop
         style="stop-color:#888a85;stop-opacity:0;"
         offset="0"
         id="stop49733" />
      <stop
         id="stop51687"
         offset="1"
         style="stop-color:#888a85;stop-opacity:1;" />
      <stop
         style="stop-color:#888a85;stop-opacity:1;"
         offset="1"
         id="stop49735" />
    </linearGradient>
    <linearGradient
       id="linearGradient23236">
      <stop
         style="stop-color:#ffffff;stop-opacity:1;"
         offset="0"
         id="stop23238" />
      <stop
         style="stop-color:#babdb6;stop-opacity:1;"
         offset="1"
         id="stop23240" />
    </linearGradient>
    <linearGradient
       id="linearGradient16397">
      <stop
         style="stop-color:#888a85;stop-opacity:1;"
         offset="0"
         id="stop16399" />
      <stop
         style="stop-color:#4a4b48;stop-opacity:1;"
         offset="1"
         id="stop16401" />
    </linearGradient>
    <linearGradient
       id="linearGradient9508">
      <stop
         style="stop-color:#2e3436;stop-opacity:0.58152175;"
         offset="0"
         id="stop9510" />
      <stop
         style="stop-color:#2e3436;stop-opacity:0;"
         offset="1"
         id="stop9512" />
    </linearGradient>
    <linearGradient
       id="linearGradient4625">
      <stop
         style="stop-color:#eeeeec;stop-opacity:1;"
         offset="0"
         id="stop4627" />
      <stop
         style="stop-color:#888a85;stop-opacity:1;"
         offset="1"
         id="stop4629" />
    </linearGradient>
    <linearGradient
       id="linearGradient3648">
      <stop
         style="stop-color:#eeeeec;stop-opacity:1;"
         offset="0"
         id="stop3650" />
      <stop
         id="stop26236"
         offset="0.79710144"
         style="stop-color:#abaca9;stop-opacity:1;" />
      <stop
         style="stop-color:#d3d7cf;stop-opacity:1;"
         offset="1"
         id="stop3652" />
    </linearGradient>
    <filter
       inkscape:collect="always"
       x="-0.066309787"
       width="1.1326196"
       y="-0.16209374"
       height="1.3241875"
       id="filter5658">
      <feGaussianBlur
         inkscape:collect="always"
         stdDeviation="1.3985314"
         id="feGaussianBlur5660" />
    </filter>
    <radialGradient
       inkscape:collect="always"
       xlink:href="#linearGradient7148"
       id="radialGradient6046"
       gradientUnits="userSpaceOnUse"
       gradientTransform="matrix(1,0,0,0.414966,0,23.767007)"
       cx="24"
       cy="40.625"
       fx="24"
       fy="40.625"
       r="18.375" />
    <radialGradient
       inkscape:collect="always"
       xlink:href="#linearGradient6967"
       id="radialGradient6093"
       gradientUnits="userSpaceOnUse"
       gradientTransform="matrix(2.6078767,0,0,1.9794136,-20.682145,-42.26866)"
       cx="12.863017"
       cy="41.15139"
       fx="12.863017"
       fy="41.15139"
       r="15.727942" />
    <radialGradient
       inkscape:collect="always"
       xlink:href="#linearGradient2303"
       id="radialGradient6105"
       gradientUnits="userSpaceOnUse"
       gradientTransform="matrix(0.5117492,0,0,0.3537719,-4.7057285,13.312712)"
       cx="21.82951"
       cy="28.964069"
       fx="21.82951"
       fy="28.964069"
       r="16.803993" />
    <linearGradient
       inkscape:collect="always"
       xlink:href="#linearGradient4625"
       id="linearGradient6115"
       gradientUnits="userSpaceOnUse"
       gradientTransform="matrix(0.4305409,-0.5319753,0.4931292,0.4644567,18.912037,27.929845)"
       x1="1.5"
       y1="4.2648559"
       x2="1.5"
       y2="8" />
    <linearGradient
       inkscape:collect="always"
       xlink:href="#linearGradient16397"
       id="linearGradient6117"
       gradientUnits="userSpaceOnUse"
       gradientTransform="matrix(0.4305409,-0.5319753,0.4931292,0.4644567,18.912037,27.929845)"
       x1="46.5"
       y1="4"
       x2="46.5"
       y2="8" />
    <linearGradient
       inkscape:collect="always"
       xlink:href="#linearGradient3648"
       id="linearGradient6119"
       gradientUnits="userSpaceOnUse"
       gradientTransform="matrix(0.4305409,-0.5319753,0.4931292,0.4644567,18.912037,27.929845)"
       x1="24"
       y1="3.5"
       x2="24"
       y2="8.5" />
    <linearGradient
       inkscape:collect="always"
       xlink:href="#linearGradient16397"
       id="linearGradient6121"
       gradientUnits="userSpaceOnUse"
       gradientTransform="matrix(0.4305409,-0.5319753,0.4931292,0.4644567,18.912037,27.929845)"
       x1="6.5"
       y1="3"
       x2="6.5"
       y2="9" />
    <radialGradient
       inkscape:collect="always"
       xlink:href="#linearGradient23236"
       id="radialGradient6123"
       gradientUnits="userSpaceOnUse"
       gradientTransform="matrix(9.0783702,-4.3797969,0.7439951,1.45288,-269.26407,125.68742)"
       cx="31.332088"
       cy="19.154226"
       fx="31.332088"
       fy="19.154226"
       r="4.7440767" />
    <linearGradient
       inkscape:collect="always"
       xlink:href="#linearGradient9508"
       id="linearGradient6137"
       gradientUnits="userSpaceOnUse"
       gradientTransform="matrix(0.5401798,0,0.1810427,-0.4524216,0.3365681,25.398612)"
       x1="26.32226"
       y1="19.01865"
       x2="49.73465"
       y2="3.5158892" />
    <radialGradient
       inkscape:collect="always"
       xlink:href="#linearGradient5717"
       id="radialGradient6143"
       gradientUnits="userSpaceOnUse"
       gradientTransform="matrix(1.3911741,-0.6115283,0.4520235,1.058999,-6.6026493,1.2297049)"
       cx="7.6711912"
       cy="15.00725"
       fx="7.6711912"
       fy="15.00725"
       r="19.769346" />
    <linearGradient
       inkscape:collect="always"
       xlink:href="#linearGradient23236"
       id="linearGradient6146"
       gradientUnits="userSpaceOnUse"
       gradientTransform="matrix(0.5768284,0,0,0.4810419,5.6636474,2.3945343)"
       x1="2.4415672"
       y1="37.205902"
       x2="2.4415672"
       y2="43" />
    <radialGradient
       inkscape:collect="always"
       xlink:href="#linearGradient49731"
       id="radialGradient6150"
       gradientUnits="userSpaceOnUse"
       gradientTransform="matrix(6.4310417e-2,0.3871206,-0.2644739,2.6967436e-3,13.375576,1.6368392)"
       cx="6.5998492"
       cy="1.8850985"
       fx="6.5998492"
       fy="1.8850985"
       r="11.58128" />
    <linearGradient
       inkscape:collect="always"
       xlink:href="#linearGradient7246"
       id="linearGradient6152"
       gradientUnits="userSpaceOnUse"
       x1="23.549852"
       y1="11.71743"
       x2="23.549852"
       y2="13.085086" />
  </defs>
  <sodipodi:namedview
     id="base"
     pagecolor="#ffffff"
     bordercolor="#666666"
     borderopacity="1.0"
     inkscape:pageopacity="0.0"
     inkscape:pageshadow="2"
     inkscape:zoom="1"
     inkscape:cx="28.010551"
     inkscape:cy="7.8150765"
     inkscape:document-units="px"
     inkscape:current-layer="layer1"
     inkscape:window-width="872"
     inkscape:window-height="902"
     inkscape:window-x="400"
     inkscape:window-y="130"
     inkscape:showpageshadow="false"
     width="32px"
     height="32px"
     showgrid="false"
     inkscape:grid-points="true"
     gridtolerance="1.4"
     gridspacingx="0.5px"
     gridspacingy="0.5px"
     gridempspacing="2"
     showborder="false" />
  <metadata
     id="metadata7">
    <rdf:RDF>
      <cc:Work
         rdf:about="">
        <dc:format>image/svg+xml</dc:format>
        <dc:type
           rdf:resource="http://purl.org/dc/dcmitype/StillImage" />
        <dc:title>Graphic tablet</dc:title>
        <cc:license
           rdf:resource="http://creativecommons.org/licenses/GPL/2.0/" />
        <dc:creator>
          <cc:Agent>
            <dc:title>Sebastien Kraft</dc:title>
          </cc:Agent>
        </dc:creator>
        <dc:subject>
          <rdf:Bag>
            <rdf:li>tablet</rdf:li>
            <rdf:li>pen</rdf:li>
            <rdf:li>input</rdf:li>
            <rdf:li>stylus</rdf:li>
          </rdf:Bag>
        </dc:subject>
      </cc:Work>
      <cc:License
         rdf:about="http://creativecommons.org/licenses/GPL/2.0/">
        <cc:permits
           rdf:resource="http://web.resource.org/cc/Reproduction" />
        <cc:permits
           rdf:resource="http://web.resource.org/cc/Distribution" />
        <cc:requires
           rdf:resource="http://web.resource.org/cc/Notice" />
        <cc:permits
           rdf:resource="http://web.resource.org/cc/DerivativeWorks" />
        <cc:requires
           rdf:resource="http://web.resource.org/cc/ShareAlike" />
        <cc:requires
           rdf:resource="http://web.resource.org/cc/SourceCode" />
      </cc:License>
    </rdf:RDF>
  </metadata>
  <g
     inkscape:label="Ebene 1"
     inkscape:groupmode="layer"
     id="layer1">
    <path
       style="fill:none;fill-rule:evenodd;stroke:url(#radialGradient6150);stroke-width:0.99999982px;stroke-linecap:round;stroke-linejoin:round;stroke-opacity:1"
       d="M 13.247092,4.429365 C 12.015679,5.670241 21.369393,6.6728974 22.020914,7.5315542 C 23.691094,9.7327293 13.185623,8.848502 11.169082,9.9716354 C 8.521385,11.041144 14.940285,10.943964 14.940287,13.015485"
       id="path46799"
       sodipodi:nodetypes="cscc" />
    <path
       style="opacity:0.27058824;fill:#000000;fill-opacity:1;stroke:none;stroke-width:1;stroke-linecap:round;stroke-linejoin:round;stroke-miterlimit:4;stroke-dasharray:none;stroke-dashoffset:0;stroke-opacity:1;filter:url(#filter5658)"
       d="M 12.19393,28.500083 L 38.34636,28.500083 C 38.34636,28.500083 39.190322,28.471214 39.657664,29.48902 C 39.657664,29.48902 45.712165,43.506932 46.067164,44.310111 C 46.403002,45.069941 45.212186,45.755834 44.150175,45.755834 L 5.9180739,45.755834 C 4.8560623,45.755834 3.6652479,45.069941 4.0010855,44.310111 C 4.3560832,43.506932 10.882627,29.48902 10.882627,29.48902 C 11.194189,28.588698 12.19393,28.500083 12.19393,28.500083 z "
       id="path8537"
       sodipodi:nodetypes="ccccccccc"
       transform="matrix(0.5651626,0,0,0.5715607,5.3816169,-2.1435836)" />
    <path
       style="fill:url(#linearGradient6146);fill-opacity:1;stroke:none;stroke-width:1;stroke-linecap:round;stroke-linejoin:round;stroke-miterlimit:4;stroke-dasharray:none;stroke-dashoffset:0;stroke-opacity:1"
       d="M 12.41694,12.431266 L 26.309704,12.431266 C 26.309704,12.431266 26.758037,12.414306 27.006299,13.012185 C 27.006299,13.012185 30.279856,21.722638 30.46727,22.191515 C 30.644568,22.635085 30.015902,23.035493 29.455236,23.035493 L 9.2714087,23.035493 C 8.7107421,23.035493 8.0820769,22.635085 8.2593753,22.191515 C 8.4467889,21.722638 11.720346,13.012185 11.720346,13.012185 C 11.885854,12.483319 12.41694,12.431266 12.41694,12.431266 z "
       id="rect2676"
       sodipodi:nodetypes="ccccccccc" />
    <path
       sodipodi:nodetypes="ccccccccc"
       id="path4736"
       d="M 12.41694,12.431266 L 26.309704,12.431266 C 26.309704,12.431266 26.758037,12.414306 27.006299,13.012185 C 27.006299,13.012185 30.279856,21.722638 30.46727,22.191515 C 30.644568,22.635085 30.015902,23.035493 29.455236,23.035493 L 9.2714087,23.035493 C 8.7107421,23.035493 8.0820769,22.635085 8.2593753,22.191515 C 8.4467889,21.722638 11.720346,13.012185 11.720346,13.012185 C 11.885854,12.483319 12.41694,12.431266 12.41694,12.431266 z "
       style="opacity:0.5;fill:url(#radialGradient6143);fill-opacity:1;stroke:none;stroke-width:1;stroke-linecap:round;stroke-linejoin:round;stroke-miterlimit:4;stroke-dasharray:none;stroke-dashoffset:0;stroke-opacity:1" />
    <path
       sodipodi:nodetypes="ccccccccc"
       id="path5604"
       d="M 13.577771,13.247371 L 25.325649,13.247371 C 25.325649,13.247371 25.750403,13.231959 25.985607,13.77528 C 25.985607,13.77528 29.027345,21.459411 29.203877,21.883045 C 29.203877,21.883045 29.590773,22.477742 28.724049,22.477742 L 10.425581,22.477742 C 9.1888402,22.477742 9.6995437,21.883045 9.6995437,21.883045 C 9.8760765,21.459411 12.917814,13.77528 12.917814,13.77528 C 13.074617,13.294674 13.577771,13.247371 13.577771,13.247371 z "
       style="fill:none;fill-opacity:1;stroke:#ffffff;stroke-width:1.19999981;stroke-linecap:round;stroke-linejoin:round;stroke-miterlimit:4;stroke-dasharray:none;stroke-dashoffset:0;stroke-opacity:1" />
    <path
       sodipodi:nodetypes="ccccccccc"
       id="path7556"
       d="M 12.446183,12.52 L 26.24506,12.52 C 26.24506,12.52 26.758037,12.638128 27.006299,13.235535 C 27.006299,13.235535 30.279856,21.939108 30.46727,22.407615 C 30.644568,22.850836 30.185043,23.509632 29.624377,23.509632 L 9.0668666,23.509632 C 8.5062002,23.509632 8.0820769,22.850836 8.2593753,22.407615 C 8.4467889,21.939108 11.720346,13.235535 11.720346,13.235535 C 11.885854,12.707086 12.446183,12.52 12.446183,12.52 z "
       style="fill:none;fill-opacity:1;stroke:#555753;stroke-width:0.9;stroke-linecap:round;stroke-linejoin:round;stroke-miterlimit:4;stroke-dasharray:none;stroke-dashoffset:0;stroke-opacity:1" />
    <path
       style="fill:none;fill-opacity:1;stroke:#888a85;stroke-width:0.79999995;stroke-linecap:round;stroke-linejoin:round;stroke-miterlimit:4;stroke-dasharray:none;stroke-dashoffset:0;stroke-opacity:1"
       d="M 13.884609,14.400015 L 24.54235,14.400015 C 24.54235,14.400015 24.868057,14.391946 25.046733,14.751014 C 25.046732,14.751014 26.977994,19.834671 27.108608,20.107353 C 27.232173,20.365319 26.791428,20.599999 26.400683,20.599999 L 12.330654,20.599999 C 11.939907,20.599999 11.499162,20.365319 11.622727,20.107353 C 11.753341,19.834671 13.380226,14.751014 13.380226,14.751014 C 13.499343,14.433393 13.884609,14.400015 13.884609,14.400015 z "
       id="path41909"
       sodipodi:nodetypes="ccssccscc" />
    <path
       style="opacity:0.2;fill:url(#linearGradient6137);fill-opacity:1;stroke:none;stroke-width:0.8599999;stroke-linecap:butt;stroke-linejoin:miter;stroke-miterlimit:1;stroke-dasharray:none;stroke-dashoffset:0;stroke-opacity:1"
       d="M 17.998507,16.794163 L 18.733763,17.776484 L 18.973521,18.076638 L 23.001447,20.286858 L 23.752687,20.505152 L 27.221179,22.251499 L 29.554819,22.251499 C 29.666162,22.156344 29.739321,22.046611 29.762608,21.924058 L 25.846569,19.945775 L 25.526893,19.618335 L 21.035436,17.530904 L 20.316162,17.353541 L 17.998507,16.794163 z "
       id="path23244" />
    <g
       id="g2764"
       transform="matrix(0.6440729,0,0,0.6377122,4.1339482,-2.5074178)">
      <path
         id="rect10493"
         d="M 40.070139,6.6188883 L 40.510236,6.0751053 C 40.746109,5.7836616 41.153494,5.7538826 41.423655,6.008336 L 41.92773,6.4831016 C 42.197891,6.7375551 42.225496,7.1770315 41.989624,7.4684754 L 41.549527,8.0122584 C 41.313654,8.3037022 40.906269,8.3334811 40.636107,8.0790276 L 40.132033,7.6042621 C 39.861871,7.3498086 39.834266,6.9103321 40.070139,6.6188883 z "
         style="fill:#888a85;fill-opacity:1;stroke:none;stroke-width:1;stroke-linecap:round;stroke-linejoin:round;stroke-miterlimit:4;stroke-dashoffset:0;stroke-opacity:1" />
      <path
         sodipodi:nodetypes="ccccc"
         id="rect10499"
         d="M 22.270059,29.686394 L 23.89834,26.063844 L 25.870856,27.921671 L 22.763188,30.150849 L 22.270059,29.686394 z "
         style="fill:url(#linearGradient6115);fill-opacity:1;stroke:none;stroke-width:1;stroke-linecap:round;stroke-linejoin:round;stroke-miterlimit:4;stroke-dashoffset:0;stroke-opacity:1" />
      <path
         style="fill:url(#linearGradient6117);fill-opacity:1;stroke:#babdb6;stroke-width:1.56034303;stroke-linecap:round;stroke-linejoin:round;stroke-miterlimit:4;stroke-dashoffset:0;stroke-opacity:1"
         d="M 40.070139,6.6188883 L 40.510236,6.0751053 C 40.746109,5.7836616 41.153494,5.7538826 41.423655,6.008336 L 41.92773,6.4831016 C 42.197891,6.7375551 42.225496,7.1770315 41.989624,7.4684754 L 41.549527,8.0122584 C 41.313654,8.3037022 40.906269,8.3334811 40.636107,8.0790276 L 40.132033,7.6042621 C 39.861871,7.3498086 39.834266,6.9103321 40.070139,6.6188883 z "
         id="path12476" />
      <path
         sodipodi:nodetypes="ccccccc"
         id="rect10487"
         d="M 33.436616,19.110318 L 40.984536,9.7841254 C 41.574218,9.0555166 41.809727,8.2469255 41.508074,7.9628117 L 40.121147,6.6565272 C 39.819494,6.3724136 39.108572,6.7332326 38.51889,7.4618419 L 30.97097,16.788034 L 33.436616,19.110318 z "
         style="fill:url(#linearGradient6119);fill-opacity:1;stroke:none;stroke-width:1;stroke-linecap:round;stroke-linejoin:round;stroke-miterlimit:4;stroke-dashoffset:0;stroke-opacity:1" />
      <path
         style="fill:none;fill-opacity:1;stroke:#ffffff;stroke-width:1.56034303;stroke-linecap:round;stroke-linejoin:round;stroke-miterlimit:4;stroke-dashoffset:0;stroke-opacity:1"
         d="M 33.436616,19.110318 L 40.984536,9.7841254 C 41.574218,9.0555166 41.504717,8.5083326 41.203064,8.2242188 L 39.816138,6.9179343 C 39.514485,6.6338207 39.108572,6.7332326 38.51889,7.4618419 L 30.97097,16.788034 L 33.436616,19.110318 z "
         id="path12478"
         sodipodi:nodetypes="ccccccc" />
      <path
         style="fill:none;fill-opacity:1;stroke:#ffffff;stroke-width:1.56034303;stroke-linecap:round;stroke-linejoin:round;stroke-miterlimit:4;stroke-dashoffset:0;stroke-opacity:1"
         d="M 22.516623,29.918622 L 23.89834,26.063844 L 25.870856,27.921671 L 22.516623,29.918622 z "
         id="path12484"
         sodipodi:nodetypes="cccc" />
      <path
         style="fill:url(#linearGradient6121);fill-opacity:1;stroke:none;stroke-width:1;stroke-linecap:round;stroke-linejoin:round;stroke-miterlimit:4;stroke-dashoffset:0;stroke-opacity:1"
         d="M 23.683069,26.329831 L 25.655586,28.187658 L 26.332691,27.887911 L 33.037369,20.14051 L 33.436616,19.110318 L 30.97097,16.788034 L 30.078594,17.353769 L 23.867045,25.565628 L 23.683069,26.329831 z "
         id="path10502"
         sodipodi:nodetypes="ccccccccc" />
      <path
         sodipodi:nodetypes="ccccccccc"
         id="path12482"
         d="M 23.683069,26.329831 L 25.655586,28.187658 L 26.332691,27.887911 L 33.037369,20.14051 L 33.436616,19.110318 L 30.97097,16.788034 L 30.078594,17.353769 L 23.867045,25.565628 L 23.683069,26.329831 z "
         style="fill:none;fill-opacity:1;stroke:url(#radialGradient6123);stroke-width:1.56034303;stroke-linecap:round;stroke-linejoin:round;stroke-miterlimit:4;stroke-dashoffset:0;stroke-opacity:1" />
      <path
         id="path10496"
         d="M 22.054788,29.952381 C 21.935958,30.099207 21.949979,30.322407 22.086082,30.450597 C 22.222186,30.578787 22.429088,30.563663 22.547917,30.416838 L 22.978458,29.884862 L 22.485328,29.420406 L 22.054788,29.952381 z "
         style="color:#000000;fill:#eeeeec;fill-opacity:1;fill-rule:evenodd;stroke:none;stroke-width:1px;stroke-linecap:butt;stroke-linejoin:miter;marker:none;marker-start:none;marker-mid:none;marker-end:none;stroke-miterlimit:4;stroke-dashoffset:0;stroke-opacity:1;visibility:visible;display:inline;overflow:visible;enable-background:accumulate" />
      <path
         sodipodi:nodetypes="cccccccccccccccccc"
         id="path12486"
         d="M 22.057089,30.486421 L 25.565424,28.679253 L 26.663823,28.164647 L 33.449284,20.454604 L 33.956087,19.154341 L 41.572446,9.7435849 C 42.150022,9.0299337 42.40517,8.1272222 42.10509,7.7373334 L 42.499999,7.2493837 C 42.744281,6.9475499 42.665953,6.4347834 42.326763,6.1153159 L 41.707637,5.5321883 C 41.368448,5.2127208 40.886904,5.1981668 40.642622,5.5000012 C 40.642622,5.5000012 40.400983,5.798569 40.247712,5.9879507 C 39.849116,5.7197876 39.054392,6.1142952 38.476817,6.8279471 L 30.860457,16.238703 L 29.734528,16.955839 L 23.568192,25.249009 L 23.243701,26.492524 L 22.057089,30.486421 z "
         style="fill:none;fill-opacity:1;stroke:#2e3436;stroke-width:1.34189475;stroke-linecap:butt;stroke-linejoin:miter;stroke-miterlimit:1;stroke-dasharray:none;stroke-dashoffset:0;stroke-opacity:1" />
    </g>
    <path
       sodipodi:type="arc"
       style="opacity:0.9;fill:url(#radialGradient6046);fill-opacity:1;fill-rule:evenodd;stroke:none;stroke-width:1.10000002;stroke-linecap:round;stroke-linejoin:round;stroke-miterlimit:4;stroke-dasharray:none;stroke-opacity:1;display:inline"
       id="path7146"
       sodipodi:cx="24"
       sodipodi:cy="40.625"
       sodipodi:rx="18.375"
       sodipodi:ry="7.625"
       d="M 42.375 40.625 A 18.375 7.625 0 1 1  5.625,40.625 A 18.375 7.625 0 1 1  42.375 40.625 z"
       transform="matrix(0.4216691,0,0,0.6808257,-2.2484535,-0.8498403)" />
    <path
       style="color:#000000;fill:url(#radialGradient6105);fill-opacity:1;fill-rule:nonzero;stroke:#888a85;stroke-width:1.00000012;stroke-linecap:round;stroke-linejoin:round;marker:none;marker-start:none;marker-mid:none;marker-end:none;stroke-miterlimit:4;stroke-dashoffset:0;stroke-opacity:1;visibility:visible;display:inline;overflow:visible"
       d="M 7.1491163,19.5 C 11.276427,19.493845 4.5777788,19.493845 8.7687107,19.5 C 12.959643,19.506157 14.350941,23.691328 14.467279,26.2292 C 14.583618,28.767071 12.183038,30.51365 9.6674028,30.51365 L 6.3132215,30.51365 C 3.7975848,30.51365 1.3961809,28.74326 1.5133445,26.217294 C 1.6305073,23.691328 3.0218052,19.506157 7.1491163,19.5 z "
       id="rect1413"
       sodipodi:nodetypes="czzcczz" />
    <path
       sodipodi:type="inkscape:offset"
       inkscape:radius="-1.0606601"
       inkscape:original="M 21.875 20.5 C 11.49218 20.513973 8.0134902 29.985012 7.71875 35.71875 C 7.42401 41.452488 13.452822 45.500001 19.78125 45.5 L 28.21875 45.5 C 34.547179 45.5 40.573916 41.510763 40.28125 35.75 C 39.988585 29.989236 36.511618 20.513973 25.96875 20.5 C 15.425883 20.486027 32.25782 20.486027 21.875 20.5 z "
       style="color:#000000;fill:none;fill-opacity:1;fill-rule:nonzero;stroke:url(#radialGradient6093);stroke-width:2.62203932;stroke-linecap:round;stroke-linejoin:round;marker:none;marker-start:none;marker-mid:none;marker-end:none;stroke-miterlimit:4;stroke-dashoffset:0;stroke-opacity:1;visibility:visible;display:inline;overflow:visible"
       id="path6963"
       d="M 21.875,21.5625 C 17.005935,21.569053 13.923138,23.726255 11.875,26.59375 C 9.826862,29.461245 8.9191743,33.098135 8.78125,35.78125 C 8.6535709,38.265061 9.8564493,40.339409 11.90625,41.90625 C 13.956051,43.473091 16.84316,44.4375 19.78125,44.4375 L 28.21875,44.4375 C 31.160096,44.4375 34.045593,43.493128 36.09375,41.9375 C 38.141907,40.381872 39.345735,38.312042 39.21875,35.8125 C 39.081721,33.115256 38.159122,29.464373 36.09375,26.59375 C 34.028378,23.723127 30.922588,21.569066 25.96875,21.5625 C 25.746608,21.562206 25.698356,21.562782 25.5,21.5625 C 25.116512,21.561955 24.893949,21.562999 24.59375,21.5625 C 24.128317,21.563601 23.289161,21.561093 22.3125,21.5625 C 22.125195,21.56277 22.083881,21.562219 21.875,21.5625 z "
       transform="matrix(0.3642607,0,0,0.3993092,-0.7515333,11.798184)" />
    <path
       style="fill:#babdb6;fill-opacity:1;fill-rule:evenodd;stroke:#d3d7cf;stroke-width:0.99999988;stroke-linecap:round;stroke-linejoin:round;stroke-miterlimit:4;stroke-dasharray:none;stroke-opacity:1;display:inline"
       d="M 7.5,20.296338 L 7.5,22.5"
       id="path7111"
       sodipodi:nodetypes="cc" />
    <path
       sodipodi:nodetypes="cc"
       id="path6097"
       d="M 8.4999999,20.296338 L 8.4999999,22.5"
       style="fill:#babdb6;fill-opacity:1;fill-rule:evenodd;stroke:#ffffff;stroke-width:0.99999988;stroke-linecap:round;stroke-linejoin:round;stroke-miterlimit:4;stroke-dasharray:none;stroke-opacity:1;display:inline" />
    <path
       sodipodi:type="arc"
       style="fill:url(#linearGradient6152);fill-opacity:1;fill-rule:evenodd;stroke:#729fcf;stroke-width:1.19369221;stroke-linecap:round;stroke-linejoin:round;stroke-miterlimit:4;stroke-dasharray:none;stroke-opacity:1;display:inline"
       id="path7103"
       sodipodi:cx="23.75"
       sodipodi:cy="12.21875"
       sodipodi:rx="1.75"
       sodipodi:ry="1.21875"
       d="M 25.5 12.21875 A 1.75 1.21875 0 1 1  22,12.21875 A 1.75 1.21875 0 1 1  25.5 12.21875 z"
       transform="matrix(0.8553233,0,0,0.8205126,-12.310743,9.4743613)" />
    <path
       style="fill:#babdb6;fill-opacity:1;fill-rule:evenodd;stroke:none;stroke-width:1px;stroke-linecap:round;stroke-linejoin:round;stroke-opacity:1;display:inline"
       d="M 7.9924726,22.049181 C 5.9433246,22.023849 4.0603647,23.619684 2.8933849,22.783734 C 4.2531417,24.252842 6.1514184,22.831098 7.9924726,22.783734 C 9.8335289,22.831098 11.731804,24.252842 13.091561,22.783734 C 11.924582,23.619684 10.041623,22.023849 7.9924726,22.049181 z "
       id="path6957"
       sodipodi:nodetypes="ccccc" />
    <path
       style="fill:#ffffff;fill-opacity:1;fill-rule:evenodd;stroke:none;stroke-width:1px;stroke-linecap:round;stroke-linejoin:round;stroke-opacity:1;display:inline"
       d="M 2.8933849,22.783734 C 4.031235,25.114327 6.1514176,23.557758 7.9924726,23.518288 C 9.8335282,23.557758 11.95371,25.114327 13.091561,22.783734 C 11.465663,24.317837 10.041623,22.762624 7.9924726,22.783734 C 5.943324,22.762624 4.5192828,24.317837 2.8933849,22.783734 z "
       id="path7076"
       sodipodi:nodetypes="ccccc" />
  </g>
</svg>
