<?xml version="1.0" encoding="UTF-8" standalone="no"?>
<!-- Created with Inkscape (http://www.inkscape.org/) -->
<svg
   xmlns:dc="http://purl.org/dc/elements/1.1/"
   xmlns:cc="http://web.resource.org/cc/"
   xmlns:rdf="http://www.w3.org/1999/02/22-rdf-syntax-ns#"
   xmlns:svg="http://www.w3.org/2000/svg"
   xmlns="http://www.w3.org/2000/svg"
   xmlns:xlink="http://www.w3.org/1999/xlink"
   xmlns:sodipodi="http://sodipodi.sourceforge.net/DTD/sodipodi-0.dtd"
   xmlns:inkscape="http://www.inkscape.org/namespaces/inkscape"
   width="32"
   height="32"
   id="svg2"
   sodipodi:version="0.32"
   inkscape:version="0.45"
   version="1.0"
   sodipodi:docbase="/home/lapo/Icone/svn/gnome-icon-theme/scalable/categories"
   sodipodi:docname="system-help.svg"
   inkscape:output_extension="org.inkscape.output.svg.inkscape"
   inkscape:export-filename="/home/lapo/Icone/svn/gnome-icon-theme/22x22/apps/help-contest.png"
   inkscape:export-xdpi="90"
   inkscape:export-ydpi="90"
   sodipodi:modified="true">
  <defs
     id="defs4">
    <linearGradient
       id="linearGradient3783"
       inkscape:collect="always">
      <stop
         id="stop3785"
         offset="0"
         style="stop-color:black;stop-opacity:1;" />
      <stop
         id="stop3787"
         offset="1"
         style="stop-color:black;stop-opacity:0;" />
    </linearGradient>
    <linearGradient
       inkscape:collect="always"
       id="linearGradient8097">
      <stop
         style="stop-color:#eeeeec;stop-opacity:1"
         offset="0"
         id="stop8099" />
      <stop
         style="stop-color:#ffffff;stop-opacity:1"
         offset="1"
         id="stop8101" />
    </linearGradient>
    <linearGradient
       inkscape:collect="always"
       id="linearGradient7133">
      <stop
         style="stop-color:#ffffff;stop-opacity:1"
         offset="0"
         id="stop7135" />
      <stop
         style="stop-color:#4e9a06;stop-opacity:1"
         offset="1"
         id="stop7137" />
    </linearGradient>
    <linearGradient
       inkscape:collect="always"
       id="linearGradient7123">
      <stop
         style="stop-color:#ffffff;stop-opacity:1;"
         offset="0"
         id="stop7125" />
      <stop
         style="stop-color:#ffffff;stop-opacity:0;"
         offset="1"
         id="stop7127" />
    </linearGradient>
    <linearGradient
       inkscape:collect="always"
       id="linearGradient7069">
      <stop
         style="stop-color:#ffffff;stop-opacity:1;"
         offset="0"
         id="stop7071" />
      <stop
         style="stop-color:#ffffff;stop-opacity:0;"
         offset="1"
         id="stop7073" />
    </linearGradient>
    <linearGradient
       id="linearGradient6954">
      <stop
         style="stop-color:#73d216;stop-opacity:1;"
         offset="0"
         id="stop6956" />
      <stop
         style="stop-color:#8ae234;stop-opacity:1"
         offset="1"
         id="stop6958" />
    </linearGradient>
    <linearGradient
       inkscape:collect="always"
       id="linearGradient3839">
      <stop
         style="stop-color:white;stop-opacity:1"
         offset="0"
         id="stop3841" />
      <stop
         style="stop-color:#eeeeec;stop-opacity:1"
         offset="1"
         id="stop3843" />
    </linearGradient>
    <linearGradient
       inkscape:collect="always"
       id="linearGradient3831">
      <stop
         style="stop-color:#ef2929;stop-opacity:1;"
         offset="0"
         id="stop3833" />
      <stop
         style="stop-color:#ef2929;stop-opacity:0;"
         offset="1"
         id="stop3835" />
    </linearGradient>
    <linearGradient
       inkscape:collect="always"
       id="linearGradient3823">
      <stop
         style="stop-color:#ef2929;stop-opacity:1;"
         offset="0"
         id="stop3825" />
      <stop
         style="stop-color:#ef2929;stop-opacity:0;"
         offset="1"
         id="stop3827" />
    </linearGradient>
    <linearGradient
       inkscape:collect="always"
       id="linearGradient3815">
      <stop
         style="stop-color:#ef2929;stop-opacity:1;"
         offset="0"
         id="stop3817" />
      <stop
         style="stop-color:#ef2929;stop-opacity:0;"
         offset="1"
         id="stop3819" />
    </linearGradient>
    <linearGradient
       inkscape:collect="always"
       id="linearGradient3807">
      <stop
         style="stop-color:#ef2929;stop-opacity:1;"
         offset="0"
         id="stop3809" />
      <stop
         style="stop-color:#ef2929;stop-opacity:0;"
         offset="1"
         id="stop3811" />
    </linearGradient>
    <linearGradient
       inkscape:collect="always"
       id="linearGradient3735">
      <stop
         style="stop-color:white;stop-opacity:1;"
         offset="0"
         id="stop3737" />
      <stop
         style="stop-color:white;stop-opacity:0;"
         offset="1"
         id="stop3739" />
    </linearGradient>
    <linearGradient
       id="linearGradient3743"
       inkscape:collect="always">
      <stop
         id="stop3745"
         offset="0"
         style="stop-color:white;stop-opacity:1;" />
      <stop
         id="stop3747"
         offset="1"
         style="stop-color:white;stop-opacity:0;" />
    </linearGradient>
    <filter
       inkscape:collect="always"
       x="-0.068112016"
       width="1.136224"
       y="-0.25387204"
       height="1.5077441"
       id="filter7033">
      <feGaussianBlur
         inkscape:collect="always"
         stdDeviation="0.69814815"
         id="feGaussianBlur7035" />
    </filter>
    <linearGradient
       inkscape:collect="always"
       xlink:href="#linearGradient7133"
       id="linearGradient6095"
       gradientUnits="userSpaceOnUse"
       gradientTransform="matrix(0.7352406,0,0,0.7179756,-2.0124849,-2.5887055)"
       x1="14.015529"
       y1="24.75"
       x2="11.984554"
       y2="24.75" />
    <radialGradient
       inkscape:collect="always"
       xlink:href="#linearGradient8097"
       id="radialGradient6099"
       gradientUnits="userSpaceOnUse"
       gradientTransform="matrix(1.8786672,0,0,0.1887285,-13.101536,1.1023101)"
       cx="10.911678"
       cy="11.353445"
       fx="10.911678"
       fy="11.353445"
       r="16.003036" />
    <linearGradient
       inkscape:collect="always"
       xlink:href="#linearGradient7069"
       id="linearGradient6103"
       gradientUnits="userSpaceOnUse"
       gradientTransform="matrix(2.6567241,0,0,1.9308626,-1.2304257,-3.0232774)"
       x1="2.25"
       y1="7"
       x2="4.625"
       y2="7" />
    <linearGradient
       inkscape:collect="always"
       xlink:href="#linearGradient6954"
       id="linearGradient6106"
       gradientUnits="userSpaceOnUse"
       gradientTransform="matrix(1.9229369,0,0,1.8674175,0.6174141,-2.4400694)"
       x1="12.816311"
       y1="6.2029195"
       x2="12.816311"
       y2="13.50246" />
    <linearGradient
       inkscape:collect="always"
       xlink:href="#linearGradient7123"
       id="linearGradient6108"
       gradientUnits="userSpaceOnUse"
       x1="7"
       y1="-31.526281"
       x2="25.19265"
       y2="59.39061" />
    <radialGradient
       inkscape:collect="always"
       xlink:href="#linearGradient3783"
       id="radialGradient6462"
       gradientUnits="userSpaceOnUse"
       gradientTransform="matrix(1,0,0,0.625,0,6.375)"
       cx="8"
       cy="17"
       fx="8"
       fy="17"
       r="8" />
    <radialGradient
       inkscape:collect="always"
       xlink:href="#linearGradient3839"
       id="radialGradient6464"
       gradientUnits="userSpaceOnUse"
       gradientTransform="matrix(0.883946,0,0,0.625,-33.723397,10.88678)"
       cx="11"
       cy="13.481151"
       fx="11"
       fy="13.481151"
       r="10" />
    <linearGradient
       inkscape:collect="always"
       xlink:href="#linearGradient3807"
       id="linearGradient6466"
       gradientUnits="userSpaceOnUse"
       gradientTransform="translate(-35,6.0000001)"
       x1="6.055223"
       y1="6.3116894"
       x2="4.4831853"
       y2="4.7396517" />
    <linearGradient
       inkscape:collect="always"
       xlink:href="#linearGradient3831"
       id="linearGradient6468"
       gradientUnits="userSpaceOnUse"
       gradientTransform="translate(-35,6.0000001)"
       x1="6.4302521"
       y1="15.967495"
       x2="8.122447"
       y2="14.2753" />
    <linearGradient
       inkscape:collect="always"
       xlink:href="#linearGradient3815"
       id="linearGradient6470"
       gradientUnits="userSpaceOnUse"
       gradientTransform="translate(-35,6.0000001)"
       x1="15.291184"
       y1="6.4436507"
       x2="17.416643"
       y2="4.3181915" />
    <linearGradient
       inkscape:collect="always"
       xlink:href="#linearGradient3823"
       id="linearGradient6472"
       gradientUnits="userSpaceOnUse"
       gradientTransform="translate(-35,6.0000001)"
       x1="15.821683"
       y1="15.989761"
       x2="14.372151"
       y2="14.54023" />
    <radialGradient
       inkscape:collect="always"
       xlink:href="#linearGradient3743"
       id="radialGradient6474"
       gradientUnits="userSpaceOnUse"
       gradientTransform="matrix(2.723968,0,0,2.633434,-13.5604,-4.83122)"
       cx="7.5927024"
       cy="3.1548533"
       fx="7.5927024"
       fy="3.1548533"
       r="8.4622421" />
    <radialGradient
       inkscape:collect="always"
       xlink:href="#linearGradient3735"
       id="radialGradient6476"
       gradientUnits="userSpaceOnUse"
       gradientTransform="matrix(2.21022,0,0,2.138888,-12.1022,-18.82138)"
       cx="10.863756"
       cy="16.148972"
       fx="10.863756"
       fy="16.148972"
       r="8.714374" />
  </defs>
  <sodipodi:namedview
     id="base"
     pagecolor="#ffffff"
     bordercolor="#afafaf"
     borderopacity="1"
     inkscape:pageopacity="0.0"
     inkscape:pageshadow="2"
     inkscape:zoom="1"
     inkscape:cx="1.0406118"
     inkscape:cy="6.1957927"
     inkscape:document-units="px"
     inkscape:current-layer="layer1"
     width="32px"
     height="32px"
     gridspacingx="0.5px"
     gridspacingy="0.5px"
     inkscape:showpageshadow="false"
     borderlayer="false"
     gridempspacing="2"
     inkscape:window-width="1051"
     inkscape:window-height="796"
     inkscape:window-x="5"
     inkscape:window-y="24"
     showgrid="false"
     showborder="false"
     inkscape:grid-points="true" />
  <metadata
     id="metadata7">
    <rdf:RDF>
      <cc:Work
         rdf:about="">
        <dc:format>image/svg+xml</dc:format>
        <dc:type
           rdf:resource="http://purl.org/dc/dcmitype/StillImage" />
        <dc:creator>
          <cc:Agent>
            <dc:title>Lapo Calamandrei</dc:title>
          </cc:Agent>
        </dc:creator>
        <cc:license
           rdf:resource="http://creativecommons.org/licenses/GPL/2.0/" />
      </cc:Work>
      <cc:License
         rdf:about="http://creativecommons.org/licenses/GPL/2.0/">
        <cc:permits
           rdf:resource="http://web.resource.org/cc/Reproduction" />
        <cc:permits
           rdf:resource="http://web.resource.org/cc/Distribution" />
        <cc:requires
           rdf:resource="http://web.resource.org/cc/Notice" />
        <cc:permits
           rdf:resource="http://web.resource.org/cc/DerivativeWorks" />
        <cc:requires
           rdf:resource="http://web.resource.org/cc/ShareAlike" />
        <cc:requires
           rdf:resource="http://web.resource.org/cc/SourceCode" />
      </cc:License>
    </rdf:RDF>
  </metadata>
  <g
     inkscape:label="Livello 1"
     inkscape:groupmode="layer"
     id="layer1"
     transform="translate(1.079935e-8,2)">
    <rect
       style="opacity:0.29545456;fill:#000000;fill-opacity:1;fill-rule:evenodd;stroke:none;stroke-width:1;stroke-linecap:round;stroke-linejoin:miter;stroke-miterlimit:4;stroke-dasharray:none;stroke-dashoffset:0.69999992;stroke-opacity:1;filter:url(#filter7033)"
       id="rect7221"
       width="20.5"
       height="5.5"
       x="1"
       y="16.5"
       transform="matrix(1.3751949,0,0,1.3751949,0.6624945,-2.1028626)"
       rx="2.75"
       ry="2.75" />
    <path
       style="fill:url(#linearGradient6106);fill-opacity:1;fill-rule:evenodd;stroke:#4e9a06;stroke-width:1;stroke-linecap:round;stroke-linejoin:round;stroke-miterlimit:4;stroke-dashoffset:0.69999992;stroke-opacity:1"
       d="M 7.3388565,-1.5117421 C 5.2131333,-1.5117421 3.5018196,0.17101199 3.5018196,2.2351931 L 3.5018196,22.764808 C 3.5018196,24.828989 5.213134,26.511743 7.3388565,26.511743 L 27.764759,26.511743 C 28.170805,26.511704 28.49996,26.190278 28.5,25.793767 L 28.5,4.2320627 C 28.49996,3.8355521 28.170805,3.5141267 27.764759,3.5140871 L 27.029519,3.5140871 L 27.029519,-0.7937665 C 27.029478,-1.1902771 26.700324,-1.5117025 26.294278,-1.5117421 L 7.3388565,-1.5117421 z "
       id="path7099" />
    <path
       style="opacity:0.61363639;fill:url(#linearGradient6103);fill-opacity:1;fill-rule:evenodd;stroke:none;stroke-width:1;stroke-linecap:round;stroke-linejoin:round;stroke-miterlimit:4;stroke-dashoffset:0.69999992;stroke-opacity:1"
       d="M 8.0681083,-1.1527543 C 5.7948587,-1.1527543 4,0.15171865 4,1.8038788 L 4,23.043367 C 4,24.695526 5.7948589,26 8.0681083,26 L 11.957087,26 L 11.957087,-1.1473578 L 8.0681083,-1.1527543 z "
       id="path7057"
       sodipodi:nodetypes="ccccccc" />
    <path
       sodipodi:type="inkscape:offset"
       inkscape:radius="-1"
       inkscape:original="M 11.71875 1.5 C 8.827556 1.5 6.5 3.8437483 6.5 6.71875 L 6.5 35.3125 C 6.5 38.187502 8.827557 40.53125 11.71875 40.53125 L 39.5 40.53125 C 40.052262 40.531195 40.499945 40.083512 40.5 39.53125 L 40.5 9.5 C 40.499945 8.9477381 40.052262 8.5000552 39.5 8.5 L 38.5 8.5 L 38.5 2.5 C 38.499945 1.9477381 38.052262 1.5000552 37.5 1.5 L 11.71875 1.5 z "
       style="opacity:0.69259255;fill:none;fill-opacity:1;fill-rule:evenodd;stroke:url(#linearGradient6108);stroke-width:1.40786541;stroke-linecap:round;stroke-linejoin:round;stroke-miterlimit:4;stroke-dashoffset:0.69999992;stroke-opacity:1"
       id="path7116"
       d="M 11.71875,2.5 C 9.3679898,2.5 7.5,4.3834711 7.5,6.71875 L 7.5,35.3125 C 7.5,37.647779 9.3679909,39.53125 11.71875,39.53125 L 39.5,39.53125 L 39.5,9.5 L 38.5,9.5 C 37.947738,9.4999448 37.500055,9.0522619 37.5,8.5 L 37.5,2.5 L 11.71875,2.5 z "
       transform="matrix(0.7185759,0,0,0.7021097,-0.8893197,-2.2552742)" />
    <path
       style="fill:url(#radialGradient6099);fill-opacity:1;fill-rule:evenodd;stroke:#888a85;stroke-width:1.00000012;stroke-linecap:round;stroke-linejoin:round;stroke-miterlimit:4;stroke-dashoffset:0.69999992;stroke-opacity:1"
       d="M 26.333231,0.55665122 C 26.588658,1.7591868 26.199499,2.6117726 27.769224,4.5278487 L 7.6653159,4.5278487 C 6.4720055,4.5278487 5.5113255,3.6422716 5.5113255,2.54225 C 5.5113255,1.4422283 6.4720055,0.55665122 7.6653159,0.55665122 L 26.333231,0.55665122 z "
       id="rect6084"
       sodipodi:nodetypes="cccscc" />
    <path
       style="fill:none;fill-opacity:1;fill-rule:evenodd;stroke:#d6fab4;stroke-width:1.00000012;stroke-linecap:round;stroke-linejoin:round;stroke-miterlimit:4;stroke-dashoffset:0.69999992;stroke-opacity:1"
       d="M 26.313947,-0.49999999 L 7.4533794,-0.49999999 C 5.8387996,-0.49999999 4.5064154,0.84644774 4.5064157,2.5000001 C 4.5064157,4.1535522 5.8387994,5.5000001 7.4533794,5.5000001 L 27.76476,5.5000001"
       id="path7120"
       sodipodi:nodetypes="ccscc" />
    <rect
       style="opacity:0.35;fill:url(#linearGradient6095);fill-opacity:1;fill-rule:evenodd;stroke:none;stroke-width:1;stroke-linecap:round;stroke-linejoin:miter;stroke-miterlimit:4;stroke-dasharray:none;stroke-dashoffset:0.69999992;stroke-opacity:1"
       id="rect7131"
       width="1.4704812"
       height="20.821293"
       x="6.8104024"
       y="4.9500384"
       rx="0.73524058"
       ry="0.71797562" />
    <g
       id="g6434"
       transform="translate(-45,-7)">
      <path
         transform="matrix(1.1458333,0,0,0.5,53.833319,20.333345)"
         d="M 16 17 A 8 5 0 1 1  0,17 A 8 5 0 1 1  16 17 z"
         sodipodi:ry="5"
         sodipodi:rx="8"
         sodipodi:cy="17"
         sodipodi:cx="8"
         id="path6317"
         style="opacity:0.5;fill:url(#radialGradient6462);fill-opacity:1;stroke:none;stroke-width:1;stroke-linecap:round;stroke-linejoin:miter;stroke-miterlimit:4;stroke-dasharray:none;stroke-dashoffset:1.20000057;stroke-opacity:1;display:inline"
         sodipodi:type="arc" />
      <g
         transform="translate(65.999986,16.333345)"
         id="g6401"
         style="display:inline">
        <path
           sodipodi:type="arc"
           style="fill:none;fill-opacity:1;stroke:#edd400;stroke-width:3.63654995;stroke-linecap:round;stroke-linejoin:miter;stroke-miterlimit:4;stroke-dasharray:none;stroke-dashoffset:1.20000057;stroke-opacity:1"
           id="path6403"
           sodipodi:cx="3"
           sodipodi:cy="3.25"
           sodipodi:rx="2"
           sodipodi:ry="2.25"
           d="M 5 3.25 A 2 2.25 0 1 1  1,3.25 A 2 2.25 0 1 1  5 3.25 z"
           transform="matrix(0.8749999,0,0,0.7777777,-10.375,8.2222225)" />
        <path
           sodipodi:type="arc"
           style="fill:none;fill-opacity:1;stroke:#ffffff;stroke-width:1.06066;stroke-linecap:round;stroke-linejoin:miter;stroke-miterlimit:4;stroke-dasharray:none;stroke-dashoffset:1.20000057;stroke-opacity:1"
           id="path6405"
           sodipodi:cx="3"
           sodipodi:cy="3.25"
           sodipodi:rx="2"
           sodipodi:ry="2.25"
           d="M 5 3.25 A 2 2.25 0 1 1  1,3.25 A 2 2.25 0 1 1  5 3.25 z"
           transform="matrix(1,0,0,0.8888889,-10.5,7.6111112)" />
      </g>
      <g
         transform="matrix(-1,0,0,1,59.999986,16.333345)"
         id="g6437"
         style="display:inline">
        <path
           sodipodi:type="arc"
           style="fill:none;fill-opacity:1;stroke:#edd400;stroke-width:3.63654995;stroke-linecap:round;stroke-linejoin:miter;stroke-miterlimit:4;stroke-dasharray:none;stroke-dashoffset:1.20000057;stroke-opacity:1"
           id="path6439"
           sodipodi:cx="3"
           sodipodi:cy="3.25"
           sodipodi:rx="2"
           sodipodi:ry="2.25"
           d="M 5 3.25 A 2 2.25 0 1 1  1,3.25 A 2 2.25 0 1 1  5 3.25 z"
           transform="matrix(0.8749999,0,0,0.7777777,-10.375,8.2222225)" />
        <path
           sodipodi:type="arc"
           style="fill:none;fill-opacity:1;stroke:#ffffff;stroke-width:1.06066;stroke-linecap:round;stroke-linejoin:miter;stroke-miterlimit:4;stroke-dasharray:none;stroke-dashoffset:1.20000057;stroke-opacity:1"
           id="path6441"
           sodipodi:cx="3"
           sodipodi:cy="3.25"
           sodipodi:rx="2"
           sodipodi:ry="2.25"
           d="M 5 3.25 A 2 2.25 0 1 1  1,3.25 A 2 2.25 0 1 1  5 3.25 z"
           transform="matrix(1,0,0,0.8888889,-10.5,7.6111112)" />
      </g>
      <g
         transform="translate(46.999986,3.3333447)"
         id="g6455"
         style="display:inline">
        <g
           style="display:inline"
           id="g6443"
           transform="matrix(-1,0,0,-1,13,25)">
          <path
             transform="matrix(0.8749999,0,0,0.7777777,-10.375,8.2222225)"
             d="M 5 3.25 A 2 2.25 0 1 1  1,3.25 A 2 2.25 0 1 1  5 3.25 z"
             sodipodi:ry="2.25"
             sodipodi:rx="2"
             sodipodi:cy="3.25"
             sodipodi:cx="3"
             id="path6445"
             style="fill:none;fill-opacity:1;stroke:#edd400;stroke-width:3.63654995;stroke-linecap:round;stroke-linejoin:miter;stroke-miterlimit:4;stroke-dasharray:none;stroke-dashoffset:1.20000057;stroke-opacity:1"
             sodipodi:type="arc" />
          <path
             transform="matrix(1,0,0,0.8888889,-10.5,7.6111112)"
             d="M 5 3.25 A 2 2.25 0 1 1  1,3.25 A 2 2.25 0 1 1  5 3.25 z"
             sodipodi:ry="2.25"
             sodipodi:rx="2"
             sodipodi:cy="3.25"
             sodipodi:cx="3"
             id="path6447"
             style="fill:none;fill-opacity:1;stroke:#ffffff;stroke-width:1.06066;stroke-linecap:round;stroke-linejoin:miter;stroke-miterlimit:4;stroke-dasharray:none;stroke-dashoffset:1.20000057;stroke-opacity:1"
             sodipodi:type="arc" />
        </g>
        <g
           style="display:inline"
           id="g6449"
           transform="matrix(1,0,0,-1,19,25)">
          <path
             transform="matrix(0.8749999,0,0,0.7777777,-10.375,8.2222225)"
             d="M 5 3.25 A 2 2.25 0 1 1  1,3.25 A 2 2.25 0 1 1  5 3.25 z"
             sodipodi:ry="2.25"
             sodipodi:rx="2"
             sodipodi:cy="3.25"
             sodipodi:cx="3"
             id="path6451"
             style="fill:none;fill-opacity:1;stroke:#edd400;stroke-width:3.63654995;stroke-linecap:round;stroke-linejoin:miter;stroke-miterlimit:4;stroke-dasharray:none;stroke-dashoffset:1.20000057;stroke-opacity:1"
             sodipodi:type="arc" />
          <path
             transform="matrix(1,0,0,0.8888889,-10.5,7.6111112)"
             d="M 5 3.25 A 2 2.25 0 1 1  1,3.25 A 2 2.25 0 1 1  5 3.25 z"
             sodipodi:ry="2.25"
             sodipodi:rx="2"
             sodipodi:cy="3.25"
             sodipodi:cx="3"
             id="path6453"
             style="fill:none;fill-opacity:1;stroke:#ffffff;stroke-width:1.06066;stroke-linecap:round;stroke-linejoin:miter;stroke-miterlimit:4;stroke-dasharray:none;stroke-dashoffset:1.20000057;stroke-opacity:1"
             sodipodi:type="arc" />
        </g>
      </g>
      <g
         transform="matrix(0.7953359,0,0,0.7953359,82.088049,8.8126335)"
         id="g6319"
         style="display:inline">
        <path
           style="fill:url(#radialGradient6464);fill-opacity:1;stroke:#888a85;stroke-width:1.25733042;stroke-linecap:round;stroke-linejoin:round;stroke-miterlimit:4;stroke-dasharray:none;stroke-dashoffset:1.20000057;stroke-opacity:1"
           d="M -24,7.5000001 C -29.243995,7.5000001 -33.5,11.755999 -33.5,17 C -33.5,22.244001 -29.243996,26.5 -24,26.5 C -18.756005,26.5 -14.5,22.244001 -14.5,17 C -14.5,11.755999 -18.756005,7.5000001 -24,7.5000001 z M -24,12.5 C -21.516004,12.499999 -19.5,14.516004 -19.5,17 C -19.5,19.483996 -21.516004,21.5 -24,21.5 C -26.483996,21.5 -28.5,19.483996 -28.5,17 C -28.5,14.516003 -26.483996,12.5 -24,12.5 z "
           id="path6321" />
        <path
           style="fill:url(#linearGradient6466);fill-opacity:1;fill-rule:evenodd;stroke:none;stroke-width:1px;stroke-linecap:butt;stroke-linejoin:miter;stroke-opacity:1"
           d="M -27.8125,8.3125001 C -29.984242,9.2692319 -31.730767,11.015757 -32.6875,13.1875 L -28.125,15.1875 C -27.672048,14.162421 -26.837579,13.327951 -25.8125,12.875 L -27.8125,8.3125001 z "
           id="path6323" />
        <path
           style="fill:url(#linearGradient6468);fill-opacity:1;stroke:none;stroke-width:1;stroke-linecap:round;stroke-linejoin:miter;stroke-miterlimit:4;stroke-dasharray:none;stroke-dashoffset:1.20000057;stroke-opacity:1"
           d="M -28.125,18.8125 L -32.6875,20.8125 C -31.730767,22.984242 -29.984242,24.730768 -27.8125,25.6875 L -25.8125,21.125 C -26.837579,20.672048 -27.672048,19.837579 -28.125,18.8125 z "
           id="path6325" />
        <path
           style="fill:url(#linearGradient6470);fill-opacity:1;fill-rule:evenodd;stroke:none;stroke-width:1px;stroke-linecap:butt;stroke-linejoin:miter;stroke-opacity:1"
           d="M -20.1875,8.3125001 L -22.1875,12.875 C -21.162421,13.327951 -20.327952,14.162421 -19.875,15.1875 L -15.3125,13.1875 C -16.269233,11.015757 -18.015758,9.2692319 -20.1875,8.3125001 z "
           id="path6327" />
        <path
           style="fill:url(#linearGradient6472);fill-opacity:1;fill-rule:evenodd;stroke:none;stroke-width:1px;stroke-linecap:butt;stroke-linejoin:miter;stroke-opacity:1"
           d="M -19.875,18.8125 C -20.327952,19.837579 -21.162421,20.672048 -22.1875,21.125 L -20.1875,25.6875 C -18.015758,24.730768 -16.269233,22.984242 -15.3125,20.8125 L -19.875,18.8125 z "
           id="path6329" />
        <path
           style="fill:none;fill-rule:evenodd;stroke:#a40000;stroke-width:1.25733042px;stroke-linecap:round;stroke-linejoin:miter;stroke-opacity:1"
           d="M -28.125,15.1875 C -27.672048,14.162421 -26.837579,13.327951 -25.8125,12.875 M -27.8125,8.3125001 C -29.984242,9.2692319 -31.730767,11.015757 -32.6875,13.1875"
           id="path6331"
           sodipodi:nodetypes="cccc" />
        <path
           style="fill:none;fill-rule:evenodd;stroke:#a40000;stroke-width:1.25733042px;stroke-linecap:round;stroke-linejoin:miter;stroke-opacity:1"
           d="M -15.3125,13.1875 C -16.269233,11.015757 -18.015758,9.2692319 -20.1875,8.3125001 M -22.1875,12.875 C -21.162421,13.327951 -20.327952,14.162421 -19.875,15.1875"
           id="path6333"
           sodipodi:nodetypes="cccc" />
        <path
           style="fill:none;fill-rule:evenodd;stroke:#a40000;stroke-width:1.25733042px;stroke-linecap:round;stroke-linejoin:miter;stroke-opacity:1"
           d="M -19.875,18.8125 C -20.327952,19.837579 -21.162421,20.672048 -22.1875,21.125 M -20.1875,25.6875 C -18.015758,24.730768 -16.269233,22.984242 -15.3125,20.8125"
           id="path6335"
           sodipodi:nodetypes="cccc" />
        <path
           style="fill:none;fill-opacity:1;stroke:#a40000;stroke-width:1.25733042;stroke-linecap:round;stroke-linejoin:miter;stroke-miterlimit:4;stroke-dasharray:none;stroke-dashoffset:1.20000057;stroke-opacity:1"
           d="M -25.8125,21.125 C -26.837579,20.672048 -27.672048,19.837579 -28.125,18.8125 M -32.6875,20.8125 C -31.730767,22.984242 -29.984242,24.730768 -27.8125,25.6875"
           id="path6337"
           sodipodi:nodetypes="cccc" />
        <path
           sodipodi:type="arc"
           style="opacity:0.4;fill:none;fill-opacity:1;stroke:url(#radialGradient6474);stroke-width:1.17907941;stroke-linecap:round;stroke-linejoin:miter;stroke-miterlimit:4;stroke-dasharray:none;stroke-dashoffset:1.20000057;stroke-opacity:1"
           id="path6339"
           sodipodi:cx="10"
           sodipodi:cy="10.28125"
           sodipodi:rx="8"
           sodipodi:ry="7.71875"
           d="M 18 10.28125 A 8 7.71875 0 1 1  2,10.28125 A 8 7.71875 0 1 1  18 10.28125 z"
           transform="matrix(1.0474536,0,0,1.0856204,-34.474536,5.8384692)" />
        <path
           sodipodi:type="arc"
           style="opacity:0.8;fill:none;fill-opacity:1;stroke:url(#radialGradient6476);stroke-width:1.75697422;stroke-linecap:round;stroke-linejoin:miter;stroke-miterlimit:4;stroke-dasharray:none;stroke-dashoffset:1.20000057;stroke-opacity:1"
           id="path6341"
           sodipodi:cx="10"
           sodipodi:cy="10.28125"
           sodipodi:rx="8"
           sodipodi:ry="7.71875"
           d="M 18 10.28125 A 8 7.71875 0 1 1  2,10.28125 A 8 7.71875 0 1 1  18 10.28125 z"
           transform="matrix(0.7029305,0,0,0.7285437,-31.029307,9.5096634)" />
      </g>
    </g>
  </g>
</svg>
