<?xml version="1.0" encoding="UTF-8"?>
<svg height="16px" viewBox="0 0 16 16" width="16px" xmlns="http://www.w3.org/2000/svg">
    <path d="m 7 1 v 0.007812 c -0.296875 -0.003906 -0.578125 0.125 -0.769531 0.351563 l -3.230469 3.640625 h -1 c -1.09375 0 -2 0.84375 -2 2 v 2 c 0 1.089844 0.910156 2 2 2 h 1 l 3.230469 3.640625 c 0.210937 0.253906 0.492187 0.363281 0.769531 0.359375 h 0.054688 h 0.945312 v -14 z m 2 1 v 2 c 2.210938 0 4 1.789062 4 4 s -1.789062 4 -4 4 v 2 c 3.3125 0 6 -2.6875 6 -6 s -2.6875 -6 -6 -6 z m 0 3.5 v 5 c 1.378906 0 2.5 -1.121094 2.5 -2.5 s -1.121094 -2.5 -2.5 -2.5 z m 0 0" fill="#2e3436"/>
</svg>
