<?xml version="1.0" encoding="UTF-8" standalone="no"?>
<svg
   xmlns:dc="http://purl.org/dc/elements/1.1/"
   xmlns:cc="http://creativecommons.org/ns#"
   xmlns:rdf="http://www.w3.org/1999/02/22-rdf-syntax-ns#"
   xmlns:svg="http://www.w3.org/2000/svg"
   xmlns="http://www.w3.org/2000/svg"
   width="16"
   version="1.1"
   style="enable-background:new"
   id="svg7384"
   height="16.000057">
  <metadata
     id="metadata90">
    <rdf:RDF>
      <cc:Work
         rdf:about="">
        <dc:format>image/svg+xml</dc:format>
        <dc:type
           rdf:resource="http://purl.org/dc/dcmitype/StillImage" />
        <dc:title>Gnome Symbolic Icons</dc:title>
        <cc:license
           rdf:resource="http://creativecommons.org/licenses/by-sa/4.0/" />
      </cc:Work>
      <cc:License
         rdf:about="http://creativecommons.org/licenses/by-sa/4.0/">
        <cc:permits
           rdf:resource="http://creativecommons.org/ns#Reproduction" />
        <cc:permits
           rdf:resource="http://creativecommons.org/ns#Distribution" />
        <cc:requires
           rdf:resource="http://creativecommons.org/ns#Notice" />
        <cc:requires
           rdf:resource="http://creativecommons.org/ns#Attribution" />
        <cc:permits
           rdf:resource="http://creativecommons.org/ns#DerivativeWorks" />
        <cc:requires
           rdf:resource="http://creativecommons.org/ns#ShareAlike" />
      </cc:License>
    </rdf:RDF>
  </metadata>
  <title
     id="title8473">Gnome Symbolic Icons</title>
  <defs
     id="defs7386" />
  <g
     transform="translate(-72,-92)"
     id="layer10" />
  <g
     transform="translate(-72,-28)"
     id="layer1">
    <path
       class="error"
       d="m 77,38.99975 v 1.999995 h 2.00025 v -2 z"
       id="rect6060-0"
       style="display:inline;fill:#cc0000;fill-opacity:1;stroke:none" />
    <path
       id="path6062-4"
       d="m 77.46875,28.011719 c -0.490327,0 -0.796069,0.214786 -1.03125,0.455078 C 76.202319,28.707088 76,29.023346 76,29.496094 V 30 h -2 v 14 h 5 V 42 H 76 V 32 h 2 v -1.988281 h 4 V 32 h 2 v 3 h 2 v -5 h -2 v -0.394531 l -0.002,-0.02734 c -0.02393,-0.430605 -0.179998,-0.734718 -0.416016,-1.013672 -0.236018,-0.278954 -0.620565,-0.58483 -1.199219,-0.552734 z"
       style="color:#bebebe;font-style:normal;font-variant:normal;font-weight:normal;font-stretch:normal;font-size:medium;line-height:normal;font-family:sans-serif;font-variant-ligatures:normal;font-variant-position:normal;font-variant-caps:normal;font-variant-numeric:normal;font-variant-alternates:normal;font-feature-settings:normal;text-indent:0;text-align:start;text-decoration:none;text-decoration-line:none;text-decoration-style:solid;text-decoration-color:#000000;letter-spacing:normal;word-spacing:normal;text-transform:none;writing-mode:lr-tb;direction:ltr;text-orientation:mixed;dominant-baseline:auto;baseline-shift:baseline;text-anchor:start;white-space:normal;shape-padding:0;clip-rule:nonzero;display:inline;overflow:visible;visibility:visible;opacity:1;isolation:auto;mix-blend-mode:normal;color-interpolation:sRGB;color-interpolation-filters:linearRGB;solid-color:#000000;solid-opacity:1;vector-effect:none;fill:#2e3436;fill-opacity:1;fill-rule:nonzero;stroke:none;stroke-width:2;stroke-linecap:butt;stroke-linejoin:miter;stroke-miterlimit:4;stroke-dasharray:none;stroke-dashoffset:0;stroke-opacity:1;marker:none;color-rendering:auto;image-rendering:auto;shape-rendering:auto;text-rendering:auto;enable-background:accumulate" />
    <path
       d="M 80.875,36 C 80.38255,36 80,36.38256 80,36.875 v 6.25 C 80,43.61744 80.38255,44 80.875,44 h 6.25 C 87.61745,44 88,43.61744 88,43.125 v -6.25 C 88,36.38256 87.61745,36 87.125,36 Z M 83,37 h 2 v 3 h -2 z m 0.494141,4 h 1.011718 C 84.779254,41 85,41.22075 85,41.49414 v 1.01172 C 85,42.77925 84.779254,43 84.505859,43 H 83.494141 C 83.220746,43 83,42.77925 83,42.50586 V 41.49414 C 83,41.22075 83.220746,41 83.494141,41 Z"
       id="rect6718-3"
       style="color:#bebebe;display:inline;overflow:visible;visibility:visible;fill:#f57900;fill-opacity:1;fill-rule:nonzero;stroke:none;stroke-width:2;marker:none" />
  </g>
  <g
     transform="translate(-72,-28)"
     id="layer7" />
  <g
     transform="translate(-72,-28)"
     id="layer6" />
  <g
     transform="translate(-72,-28)"
     id="layer5" />
  <g
     transform="translate(-72,-28)"
     id="layer9" />
  <g
     transform="translate(-72,-28)"
     id="layer2" />
  <g
     transform="translate(-72,-28)"
     id="layer8" />
  <g
     transform="translate(-72,-28)"
     id="layer3" />
  <g
     transform="translate(-72,-28)"
     id="layer4" />
</svg>
