<?xml version="1.0" encoding="UTF-8"?>
<svg height="16px" viewBox="0 0 16 16" width="16px" xmlns="http://www.w3.org/2000/svg">
    <path d="m 7.957031 0 c -0.128906 0.0078125 -0.253906 0.0390625 -0.371093 0.0898438 c -0.355469 0.1640622 -0.585938 0.5195312 -0.585938 0.9101562 v 5.296875 l -2.34375 -2.046875 c -0.414062 -0.363281 -1.042969 -0.324219 -1.40625 0.089844 c -0.363281 0.417968 -0.324219 1.046875 0.089844 1.410156 l 2.570312 2.25 l -2.570312 2.246094 c -0.414063 0.367187 -0.453125 0.996094 -0.089844 1.410156 c 0.363281 0.417969 0.992188 0.457031 1.40625 0.09375 l 2.34375 -2.046875 v 5.296875 c 0 0.390625 0.230469 0.746094 0.585938 0.910156 c 0.359374 0.160156 0.777343 0.101563 1.070312 -0.160156 l 1.34375 -1.171875 v -2.65625 l -1 0.875 v -2.59375 l 1 0.875 v -1.078125 h 1.800781 l -2.28125 -2 l 3.136719 -2.75 c 0.21875 -0.1875 0.34375 -0.460938 0.34375 -0.75 s -0.125 -0.5625 -0.34375 -0.75 l -4 -3.5 c -0.191406 -0.171875 -0.445312 -0.2578125 -0.699219 -0.25 z m 1.042969 3.203125 l 1.480469 1.296875 l -1.480469 1.296875 z m 0 0" fill="#2e3434" fill-opacity="0.34902"/>
    <path d="m 11 11 h 1.375 l 1.125 1.09375 l 1.09375 -1.09375 h 1.40625 v 1.46875 l -1.09375 1.0625 l 1.09375 1.0625 v 1.40625 h -1.4375 l -1.0625 -1.0625 l -1.0625 1.0625 h -1.4375 v -1.40625 l 1.0625 -1.0625 l -1.0625 -1.0625 z m 0 0" fill="#2e3436"/>
</svg>
