<svg xmlns="http://www.w3.org/2000/svg" width="16.01" height="16.013">
    <g fill="#2e3436">
        <path d="M8.985 1.996A1 1 0 0 0 8 3.01v4a1 1 0 0 0 1 1h4a1 1 0 1 0 0-2h-3v-3a1 1 0 0 0-1.015-1.014z" style="line-height:normal;font-variant-ligatures:normal;font-variant-position:normal;font-variant-caps:normal;font-variant-numeric:normal;font-variant-alternates:normal;font-feature-settings:normal;text-indent:0;text-align:start;text-decoration-line:none;text-decoration-style:solid;text-decoration-color:#000;text-transform:none;text-orientation:mixed;shape-padding:0;isolation:auto;mix-blend-mode:normal;marker:none" color="#000" font-weight="400" font-family="sans-serif" white-space="normal" overflow="visible"/>
        <path d="M9 8.01H8v-1h1z" style="marker:none" color="#000" overflow="visible"/>
        <path d="M14.98 0a1 1 0 0 0-.687.303l-6 6a1 1 0 1 0 1.414 1.414l6-6A1 1 0 0 0 14.981 0z" style="line-height:normal;font-variant-ligatures:normal;font-variant-position:normal;font-variant-caps:normal;font-variant-numeric:normal;font-variant-alternates:normal;font-feature-settings:normal;text-indent:0;text-align:start;text-decoration-line:none;text-decoration-style:solid;text-decoration-color:#000;text-transform:none;text-orientation:mixed;shape-padding:0;isolation:auto;mix-blend-mode:normal;marker:none" color="#000" font-weight="400" font-family="sans-serif" white-space="normal" overflow="visible"/>
        <path d="M9 3.01H8v-1h1zM14 8.01h-1v-1h1z" style="marker:none" color="#000" overflow="visible"/>
        <path d="M.969 3.013a.965.965 0 0 0-.969.97v.062c.017 6.613 5.383 11.968 12 11.968h.031c.545 0 .969-.446.969-1v-3c0-.554-.446-1-1-1h-2c-.554 0-1 .446-1 1v.47a8.967 8.967 0 0 1-5.469-5.47H4c.554 0 1-.446 1-1v-2c0-.554-.446-1-1-1H.969z"/>
    </g>
</svg>
