<svg xmlns="http://www.w3.org/2000/svg" width="16" height="16">
    <g fill="#474747">
        <path d="M0 15v1h15v-1z" style="line-height:normal;font-variant-ligatures:normal;font-variant-position:normal;font-variant-caps:normal;font-variant-numeric:normal;font-variant-alternates:normal;font-feature-settings:normal;text-indent:0;text-align:start;text-decoration-line:none;text-decoration-style:solid;text-decoration-color:#000;text-transform:none;text-orientation:mixed;shape-padding:0;isolation:auto;mix-blend-mode:normal" color="#000" font-weight="400" font-family="sans-serif" white-space="normal" overflow="visible" fill-rule="evenodd"/>
        <path d="M.5 1a.499.499 0 1 0 0 1h1a.499.499 0 1 0 0-1zm2.55 0c.253 2.247 2.136 4 4.45 4s4.197-1.753 4.45-4zM13.5 1a.499.499 0 1 0 0 1h1a.499.499 0 1 0 0-1zm-1.758 3.242a.499.499 0 0 0-.354.854l.708.707a.498.498 0 0 0 .707 0 .499.499 0 0 0 0-.707l-.707-.707a.501.501 0 0 0-.354-.147zm-8.58.01a.497.497 0 0 0-.258.137l-.707.707a.499.499 0 0 0 0 .707.5.5 0 0 0 .354.148.5.5 0 0 0 .353-.148l.707-.707a.499.499 0 0 0-.449-.844zM7.5 6c-.277 0-.5.223-.5.5V9H4l3.5 4.5L11.063 9H8V6.5a.499.499 0 0 0-.5-.5z"/>
    </g>
</svg>
