<svg xmlns="http://www.w3.org/2000/svg" width="16" height="16">
    <g color="#000" font-weight="400" font-family="sans-serif" fill="#2e3436">
        <path d="M5 3.885A4.13 4.13 0 0 0 .885 8 4.13 4.13 0 0 0 5 12.115 4.13 4.13 0 0 0 9.115 8 4.13 4.13 0 0 0 5 3.885zm0 2A2.1 2.1 0 0 1 7.115 8 2.1 2.1 0 0 1 5 10.115 2.1 2.1 0 0 1 2.885 8 2.1 2.1 0 0 1 5 5.885z" style="line-height:normal;font-variant-ligatures:normal;font-variant-position:normal;font-variant-caps:normal;font-variant-numeric:normal;font-variant-alternates:normal;font-feature-settings:normal;text-indent:0;text-align:start;text-decoration-line:none;text-decoration-style:solid;text-decoration-color:#000;text-transform:none;text-orientation:mixed;white-space:normal;shape-padding:0;isolation:auto;mix-blend-mode:normal;solid-color:#000;solid-opacity:1;marker:none" overflow="visible"/>
        <path d="M7.951 7v2h5.05v2h3V7z" style="line-height:normal;font-variant-ligatures:normal;font-variant-position:normal;font-variant-caps:normal;font-variant-numeric:normal;font-variant-alternates:normal;font-feature-settings:normal;text-indent:0;text-align:start;text-decoration-line:none;text-decoration-style:solid;text-decoration-color:#000;text-transform:none;text-orientation:mixed;white-space:normal;shape-padding:0;isolation:auto;mix-blend-mode:normal;solid-color:#000;solid-opacity:1;marker:none" overflow="visible"/>
    </g>
</svg>
