<svg xmlns="http://www.w3.org/2000/svg" width="16" height="16">
    <g color="#000" font-weight="400" font-family="sans-serif" white-space="normal">
        <path d="M7.5.486a2.99 2.99 0 0 0-2.828 2.022l-.1.295L10.5 8.73V3.486c0-1.653-1.347-3-3-3zm3 5.014a1 1 0 0 0 .07.38l-.039-.192v2.761c0 .024-.002.049-.004.073l-.013.224 1.673 1.67.196-.89c.076-.347.115-.7.117-1.055V5.5c0-.557-.47-1.016-1.028-1a1.008 1.008 0 0 0-.972 1zm-3-4.014c1.117 0 2 .884 2 2v2.83L5.787 2.604c.337-.655.96-1.118 1.713-1.118zM2.625 4.395l-.12 1.027a.569.569 0 0 0-.003.04l-.002.02V8.47c.002 1.972 1.23 3.66 3 4.468v.563H4c-.854 0-1.5.706-1.5 1.5v1.5h10V15c0-.856-.711-1.5-1.5-1.5H9.5v-.469c.204-.09.412-.172.602-.289l.54-.332-1.372-1.37-.045-.046L4.5 6.27zm8.867 1.101c.01.021.008.044.008.004v.014zM5.627 8.811l1.562 1.562a1.871 1.871 0 0 1-1.562-1.562zm-.662.808c.47 1.045 1.32 1.883 2.535 1.881-1.235 0-2.07-.83-2.535-1.88zm-.797.951c.069.111.136.221.215.325-.084-.108-.143-.21-.215-.325zm4.795 1.576l.025.026c-.054.022-.101.056-.156.076l-.332.12V14.5H11c.26 0 .5.188.5.5v.5h-8V15c0-.226.224-.5.5-.5h2.5v-2.133l-.332-.119c-.014-.005-.02-.02-.033-.025.43.158.881.277 1.367.277.508.001.99-.168 1.46-.354z" style="line-height:normal;font-variant-ligatures:normal;font-variant-position:normal;font-variant-caps:normal;font-variant-numeric:normal;font-variant-alternates:normal;font-feature-settings:normal;text-indent:0;text-align:start;text-decoration-line:none;text-decoration-style:solid;text-decoration-color:#000;text-transform:none;text-orientation:mixed;shape-padding:0;isolation:auto;mix-blend-mode:normal" overflow="visible" opacity=".35"/>
        <path d="M1.531-.238l-.353.353L-.236 1.53 14.47 16.236l1.767-1.767zm0 1.414l13.293 13.293-.353.353L1.178 1.53z" style="line-height:normal;font-variant-ligatures:normal;font-variant-position:normal;font-variant-caps:normal;font-variant-numeric:normal;font-variant-alternates:normal;font-feature-settings:normal;text-indent:0;text-align:start;text-decoration-line:none;text-decoration-style:solid;text-decoration-color:#000;text-transform:none;text-orientation:mixed;shape-padding:0;isolation:auto;mix-blend-mode:normal" overflow="visible"/>
    </g>
</svg>
