<?xml version="1.0" encoding="UTF-8"?>
<svg height="16px" viewBox="0 0 16 16" width="16px" xmlns="http://www.w3.org/2000/svg">
    <g fill="#2e3436">
        <path d="m 8 1 c -1.660156 0 -3 1.339844 -3 3 v 1 h -0.9375 l 6 6 h 1.9375 v -6 h -1 v -1 c 0 -1.660156 -1.339844 -3 -3 -3 z m 0 2 c 0.554688 0 1 0.445312 1 1 v 1 h -2 v -1 c 0 -0.554688 0.445312 -1 1 -1 z m -4 4.058594 v 3.941406 h 3 v 2 h -5 v 2 h 9.941406 l -2 -2 h -0.941406 v -0.941406 z m 8.0625 5.941406 l 1.9375 1.9375 v -1.9375 z m 0 0"/>
        <path d="m 1.53125 0.46875 l -1.0625 1.0625 l 14 14 l 1.0625 -1.0625 z m 0 0"/>
    </g>
</svg>
