<?xml version="1.0" encoding="UTF-8"?>
<svg height="16px" viewBox="0 0 16 16" width="16px" xmlns="http://www.w3.org/2000/svg">
    <g fill="#2e3436">
        <path d="m 3 6 c -1.105469 0 -2 0.894531 -2 2 s 0.894531 2 2 2 s 2 -0.894531 2 -2 s -0.894531 -2 -2 -2 z m 5 0 c -1.105469 0 -2 0.894531 -2 2 s 0.894531 2 2 2 s 2 -0.894531 2 -2 s -0.894531 -2 -2 -2 z m 5 0 c -1.105469 0 -2 0.894531 -2 2 s 0.894531 2 2 2 s 2 -0.894531 2 -2 s -0.894531 -2 -2 -2 z m 0 0"/>
        <path d="m 6 -0.996094 c -0.554688 0 -1 0.445313 -1 1.00000025 v 2.99999975 c 0 0.554688 0.445312 1 1 1 h 1 v 0.996094 h 2 v -0.996094 h 1 c 0.550781 0 1 -0.445312 1 -1 v -2.99999975 c 0 -0.55468725 -0.449219 -1.00000025 -1 -1.00000025 z m -5.210938 11.023438 c -0.453124 0.097656 -0.789062 0.496094 -0.789062 0.976562 v 3 c 0 0.554688 0.445312 1 1 1 h 4 c 0.554688 0 1 -0.445312 1 -1 v -3 h -3 c -0.878906 0 -1.664062 -0.378906 -2.210938 -0.976562 z m 14.421876 0 c -0.546876 0.597656 -1.332032 0.976562 -2.210938 0.976562 h -3 v 3 c 0 0.554688 0.445312 1 1 1 h 4 c 0.550781 0 1 -0.445312 1 -1 v -3 c 0 -0.480468 -0.335938 -0.878906 -0.789062 -0.976562 z m 0 0" fill-opacity="0.34902"/>
    </g>
</svg>
