<?xml version="1.0" encoding="UTF-8"?>
<svg height="16px" viewBox="0 0 16 16" width="16px" xmlns="http://www.w3.org/2000/svg">
    <g fill="#2e3436">
        <path d="m 6.230469 1.015625 c -0.671875 0 -1.214844 0.542969 -1.214844 1.214844 v 2.554687 c 0 0.074219 0.007813 0.144532 0.019531 0.214844 h 5.945313 c 0.011719 -0.070312 0.019531 -0.140625 0.019531 -0.214844 v -2.554687 c 0 -0.671875 -0.542969 -1.214844 -1.214844 -1.214844 z m 8.945312 9.050781 c -0.546875 0.574219 -1.316406 0.933594 -2.175781 0.933594 h -2.980469 c -0.011719 0.070312 -0.019531 0.144531 -0.019531 0.21875 v 2.5625 c 0 0.675781 0.542969 1.21875 1.21875 1.21875 h 3.5625 c 0.675781 0 1.21875 -0.542969 1.21875 -1.21875 v -2.5625 c 0 -0.539062 -0.34375 -0.988281 -0.828125 -1.152344 z m -14.339843 0.015625 c -0.484376 0.160157 -0.835938 0.617188 -0.835938 1.167969 v 2.519531 c 0 0.683594 0.542969 1.234375 1.21875 1.234375 h 3.5625 c 0.671875 0 1.214844 -0.550781 1.214844 -1.234375 v -2.519531 c 0 -0.085938 -0.011719 -0.167969 -0.027344 -0.25 h -2.96875 c -0.851562 0 -1.617188 -0.351562 -2.164062 -0.917969 z m 0 0" fill-opacity="0.35"/>
        <path d="m 3 6 c -1.105469 0 -2 0.894531 -2 2 s 0.894531 2 2 2 s 2 -0.894531 2 -2 s -0.894531 -2 -2 -2 z m 5 0 c -1.105469 0 -2 0.894531 -2 2 s 0.894531 2 2 2 s 2 -0.894531 2 -2 s -0.894531 -2 -2 -2 z m 5 0 c -1.105469 0 -2 0.894531 -2 2 s 0.894531 2 2 2 s 2 -0.894531 2 -2 s -0.894531 -2 -2 -2 z m 0 0"/>
    </g>
</svg>
