<?xml version="1.0" encoding="UTF-8"?>
<svg height="16px" viewBox="0 0 16 16" width="16px" xmlns="http://www.w3.org/2000/svg">
    <g fill="#2e3436">
        <path d="m 6.230469 1.015625 c -0.671875 0 -1.214844 0.542969 -1.214844 1.214844 v 2.097656 c 0.394531 -0.445313 0.890625 -0.804687 1.460937 -1.039063 c 0.5625 -0.234374 1.160157 -0.332031 1.742188 -0.300781 c 0.976562 0.050781 1.921875 0.453125 2.636719 1.167969 c 0.050781 0.050781 0.097656 0.105469 0.144531 0.15625 v -2.082031 c 0 -0.671875 -0.542969 -1.214844 -1.214844 -1.214844 z m 1.804687 5.984375 c -0.007812 0.007812 -0.011718 0.011719 -0.019531 0.019531 c 0.003906 0 0.007813 -0.003906 0.007813 0 c -0.003907 0 0.011718 -0.023437 0.011718 -0.019531 z m -4.027344 0.070312 c -1.140624 0.238282 -2.007812 1.257813 -2.007812 2.460938 v 0.484375 h -0.78125 c -0.675781 0 -1.21875 0.550781 -1.21875 1.234375 v 2.523438 c 0 0.679687 0.542969 1.230468 1.21875 1.230468 h 3.5625 c 0.671875 0 1.214844 -0.550781 1.214844 -1.230468 v -2.523438 c 0 -0.683594 -0.542969 -1.234375 -1.214844 -1.234375 h -0.78125 v -0.484375 c 0 -0.296875 0.222656 -0.515625 0.519531 -0.515625 h 1.476563 v -0.015625 c 0 -0.367188 0.230468 -0.671875 0.429687 -0.980469 h -1.410156 c -0.535156 -0.003906 -0.972656 -0.417969 -1.007813 -0.949219 z m 8.023438 0.015626 c -0.007812 0.492187 -0.109375 0.984374 -0.300781 1.453124 c -0.070313 0.167969 -0.15625 0.328126 -0.25 0.480469 c 0.285156 0.011719 0.488281 0.222657 0.488281 0.511719 v 0.46875 h -0.75 c -0.578125 0 -1.054688 0.398438 -1.183594 0.933594 v 0.066406 c -0.007812 0.011719 -0.011718 0.023438 -0.019531 0.035156 c -0.007813 0.0625 -0.015625 0.121094 -0.015625 0.183594 c -0.003906 0.886719 0 1.78125 0 2.5625 c 0 0.675781 0.542969 1.21875 1.21875 1.21875 h 3.5625 c 0.675781 0 1.21875 -0.542969 1.21875 -1.21875 v -2.5625 c 0 -0.675781 -0.542969 -1.21875 -1.21875 -1.21875 h -0.8125 v -0.46875 c 0 -1.179688 -0.832031 -2.179688 -1.9375 -2.445312 z m 0 0" fill-opacity="0.35"/>
        <path d="m 8.167969 4.007812 c -0.4375 -0.023437 -0.882813 0.046876 -1.300781 0.222657 c -1.117188 0.460937 -1.851563 1.558593 -1.851563 2.769531 h 2 c 0 -0.40625 0.242187 -0.769531 0.617187 -0.925781 c 0.375 -0.152344 0.800782 -0.070313 1.089844 0.21875 c 0.289063 0.289062 0.371094 0.714843 0.21875 1.089843 c -0.15625 0.375 -0.519531 0.617188 -0.925781 0.617188 c -0.550781 0 -1 0.449219 -1 1 v 2 h 2 v -1.179688 c 0.785156 -0.28125 1.441406 -0.875 1.773437 -1.671874 c 0.460938 -1.117188 0.203126 -2.414063 -0.652343 -3.269532 c -0.535157 -0.535156 -1.242188 -0.835937 -1.96875 -0.871094 z m -0.152344 7.992188 c -0.550781 0 -1 0.449219 -1 1 s 0.449219 1 1 1 s 1 -0.449219 1 -1 s -0.449219 -1 -1 -1 z m 0 0"/>
    </g>
</svg>
