<svg width="16" height="16" xmlns:xlink="http://www.w3.org/1999/xlink" xmlns="http://www.w3.org/2000/svg"><path d="M549-332V852M-171-332V852" style="marker:none" color="#000" overflow="visible" fill="none" stroke="#2864b0" stroke-width="2"/><g transform="translate(68 -108)"><path d="M-60 111c-2.75 0-5 2.25-5 5s2.25 5 5 5 5-2.25 5-5-2.25-5-5-5zm0 2c.186 0 .366.023.543.055A2 2 0 00-61 115a2 2 0 002 2 2 2 0 001.945-1.547c.033.178.055.36.055.547 0 .196-.021.387-.057.572a3 3 0 01-.021.092c-.034.154-.08.302-.137.445a3 3 0 01-.056.133 2.97 2.97 0 01-.188.348 3 3 0 01-.11.162 2.979 2.979 0 01-.238.289 3 3 0 01-.103.111 3 3 0 01-.03.026 2.98 2.98 0 01-.29.24 3 3 0 01-.147.103 3 3 0 01-.002.003 2.97 2.97 0 01-.377.203 3 3 0 01-.119.052 2.99 2.99 0 01-.461.143 3 3 0 01-.092.021A3.053 3.053 0 01-60 119a3.05 3.05 0 01-.572-.057 3 3 0 01-.092-.021 2.99 2.99 0 01-.445-.137 3 3 0 01-.133-.056 2.975 2.975 0 01-.348-.188 3 3 0 01-.162-.11 2.98 2.98 0 01-.289-.238 3 3 0 01-.111-.103 3 3 0 01-.026-.03 2.982 2.982 0 01-.24-.29 3 3 0 01-.103-.147 3 3 0 01-.002-.002 2.975 2.975 0 01-.204-.377 3 3 0 01-.052-.119 2.987 2.987 0 01-.143-.46 3 3 0 01-.021-.093A3.054 3.054 0 01-63 116c0-.197.021-.387.057-.572a3 3 0 01.021-.092c.034-.154.08-.302.137-.445a3 3 0 01.056-.133 2.97 2.97 0 01.188-.348 3 3 0 01.11-.162c.072-.102.153-.198.238-.289a3 3 0 01.103-.111 3 3 0 01.03-.026 2.98 2.98 0 01.29-.24 3 3 0 01.147-.104 3 3 0 01.002-.002 2.97 2.97 0 01.377-.203 3 3 0 01.119-.052 2.99 2.99 0 01.461-.143 3 3 0 01.092-.021c.185-.036.375-.057.572-.057z" style="line-height:normal;font-variant-ligatures:normal;font-variant-position:normal;font-variant-caps:normal;font-variant-numeric:normal;font-variant-alternates:normal;font-feature-settings:normal;text-indent:0;text-align:start;text-decoration-line:none;text-decoration-style:solid;text-decoration-color:#000;text-transform:none;text-orientation:mixed;white-space:normal;shape-padding:0;isolation:auto;mix-blend-mode:normal;solid-color:#000;solid-opacity:1" color="#000" font-weight="400" font-family="sans-serif" overflow="visible" fill="#2e3436"/><path style="marker:none" color="#bebebe" overflow="visible" fill="none" d="M-68 108h16v16h-16z"/><path d="M-60.618 120.077l-.77 1.845c-.376.914-1.693 1.46-1.693 1.46s-.533-1.318-.153-2.23l.77-1.846z" id="a" fill="#2e3436" fill-opacity="1" stroke="none" stroke-width="1" stroke-linecap="butt" stroke-linejoin="miter" stroke-opacity="1"/><use xlink:href="#a" width="100%" height="100%" transform="scale(1 -1) rotate(-45.302 -337.972 0)"/><use xlink:href="#a" width="100%" height="100%" transform="scale(-1 1) rotate(89.698 0 176.317)"/><use xlink:href="#a" width="100%" height="100%" transform="scale(-1 1) rotate(44.698 0 261.94)"/><use xlink:href="#a" width="100%" height="100%" transform="scale(-1 1) rotate(-.302 .001 -22625.936)"/><use xlink:href="#a" width="100%" height="100%" transform="scale(1 -1) rotate(-.302 -44027.888 .022)"/><use xlink:href="#a" width="100%" height="100%" transform="scale(1 -1) rotate(44.698 222.152 0)"/><use xlink:href="#a" width="100%" height="100%" transform="scale(1 -1) rotate(89.698 56.614 0)"/></g></svg>