<svg xmlns="http://www.w3.org/2000/svg" width="16" height="16">
    <path d="M7.975.107c-.458.01-.823.262-1.036.489a2.625 2.625 0 0 0-.45.69c-.227.466-.385.972-.544 1.454-.158.482-.318.94-.447 1.196-.022.043-.02.034-.039.064H1.842a1 1 0 0 0-.955.701c-.24.767.102 1.262.373 1.686.27.423.61.817.953 1.203.343.385.69.757.951 1.062.26.306.42.614.387.512-.088-.264-.018.015-.117.361-.1.347-.267.805-.43 1.274-.163.469-.324.941-.402 1.433-.04.246-.065.5-.01.805.054.305.237.71.597.951.356.238.749.263 1.043.229.295-.035.537-.122.774-.223.473-.202.925-.48 1.369-.762.444-.28.874-.564 1.217-.76.342-.194.663-.241.465-.242-.226 0 .093.044.425.24.333.197.752.484 1.184.768.432.284.87.566 1.334.772.231.102.469.19.766.226.296.036.708.002 1.06-.256a1 1 0 0 0 .115-.1c.514-.513.565-1.24.48-1.763-.083-.522-.268-.98-.444-1.422-.177-.44-.35-.86-.442-1.181-.092-.32-.069-.514-.076-.493V9.02c-.058.175.083-.102.355-.367.275-.267.651-.6 1.026-.959.374-.36.75-.741 1.047-1.203.296-.462.568-1.121.312-1.83a1 1 0 0 0-.94-.66h-3.616c-.02-.032-.02-.025-.043-.07-.14-.272-.318-.738-.496-1.227-.179-.488-.36-.997-.602-1.459A2.683 2.683 0 0 0 9.035.57C8.82.35 8.448.098 7.975.107zm.045 2.78c.07.181.13.302.205.504.178.487.359.995.597 1.457.12.23.249.453.46.673.21.22.569.479 1.044.479h2.354c-.088.092-.126.157-.225.252-.33.317-.702.643-1.035.967-.333.324-.654.562-.858 1.162a1 1 0 0 0-.002.004c-.21.632-.089 1.19.053 1.683.142.494.34.953.506 1.368.07.174.087.269.139.42-.171-.103-.3-.163-.492-.29-.408-.268-.841-.565-1.264-.816-.423-.25-.762-.518-1.442-.52-.669 0-1.025.258-1.458.504-.434.247-.877.543-1.297.81-.203.128-.343.19-.524.294.045-.142.058-.228.112-.383.153-.442.33-.915.462-1.377.133-.462.322-.867.094-1.549-.178-.534-.456-.814-.764-1.175-.307-.361-.659-.735-.978-1.094-.087-.098-.129-.165-.209-.26H5.75a1 1 0 0 0 .02 0c.445-.009.815-.245 1.037-.47.222-.226.357-.458.476-.694.239-.472.4-.982.56-1.469.064-.193.116-.306.177-.48z" style="line-height:normal;font-variant-ligatures:normal;font-variant-position:normal;font-variant-caps:normal;font-variant-numeric:normal;font-variant-alternates:normal;font-feature-settings:normal;text-indent:0;text-align:start;text-decoration-line:none;text-decoration-style:solid;text-decoration-color:#000;text-transform:none;text-orientation:mixed;shape-padding:0;isolation:auto;mix-blend-mode:normal;marker:none" color="#000" font-weight="400" font-family="sans-serif" white-space="normal" overflow="visible" fill="#474747"/>
</svg>
