<svg xmlns="http://www.w3.org/2000/svg" width="16" height="16">
    <g color="#000" fill="#474747">
        <path d="M7.975.107a1.55 1.55 0 0 0-.98.405c-.224.198-.37.41-.499.627-.259.432-.444.906-.623 1.375-.18.468-.346.929-.496 1.267-.085.193-.068.17-.113.239l-3.418-.006a1 1 0 0 0-.957.7c-.24.767.101 1.262.373 1.684.271.423.61.816.953 1.2.343.383.69.752.95 1.056.26.304.42.612.386.51-.088-.264-.018.015-.117.361-.1.347-.267.805-.43 1.274-.163.469-.324.941-.402 1.433-.04.246-.065.5-.01.805.054.305.237.71.597.951.356.238.749.263 1.043.229.295-.035.537-.122.774-.223.473-.202.925-.48 1.369-.762.444-.28.874-.565 1.217-.76.342-.194.663-.241.465-.242-.226 0 .093.044.425.24.333.197.752.484 1.184.768.432.284.87.566 1.334.772.231.102.469.19.766.226.086.01.208-.069.31-.074a1 1 0 0 0 .746-.18 1 1 0 0 0 .002-.002h.002a1 1 0 0 0 .115-.1c.514-.513.565-1.239.48-1.761-.083-.522-.268-.983-.444-1.424-.177-.441-.35-.86-.442-1.181-.092-.321-.068-.514-.076-.493V9.02c-.059.176.081-.1.354-.363.274-.265.65-.592 1.025-.95.374-.356.751-.738 1.049-1.198.297-.46.57-1.12.314-1.829a1 1 0 0 0-.941-.66h-3.615c-.02-.032-.022-.026-.045-.072-.141-.273-.316-.742-.494-1.232-.18-.491-.36-1.004-.602-1.467a2.705 2.705 0 0 0-.469-.676C8.82.352 8.45.097 7.975.107zm-.016 2.631c.09.223.17.397.266.66.178.49.359 1.002.597 1.465.12.232.25.455.46.676.21.221.567.48 1.044.48h2.346c-.085.088-.12.15-.215.24-.33.315-.702.637-1.035.96-.333.322-.656.56-.86 1.162a1 1 0 0 0-.002.004c-.21.632-.089 1.19.053 1.683.142.494.34.953.506 1.368.07.174.087.269.139.42-.171-.103-.3-.163-.492-.29-.408-.268-.841-.565-1.264-.816-.423-.25-.762-.518-1.442-.52-.669 0-1.025.258-1.458.504-.434.247-.877.543-1.297.81-.203.128-.343.19-.524.294.045-.142.058-.228.112-.383.153-.442.33-.915.462-1.377.133-.462.322-.867.094-1.549-.179-.535-.456-.814-.764-1.173-.307-.36-.659-.733-.978-1.09-.084-.094-.123-.16-.201-.25l2.244.004a1 1 0 0 0 .572-.18c.55-.384.687-.806.883-1.248.196-.442.366-.923.535-1.363.078-.204.144-.317.219-.49z" style="line-height:normal;font-variant-ligatures:normal;font-variant-position:normal;font-variant-caps:normal;font-variant-numeric:normal;font-variant-alternates:normal;font-feature-settings:normal;text-indent:0;text-align:start;text-decoration-line:none;text-decoration-style:solid;text-decoration-color:#000;text-transform:none;text-orientation:mixed;shape-padding:0;isolation:auto;mix-blend-mode:normal;marker:none" font-weight="400" font-family="sans-serif" white-space="normal" overflow="visible"/>
        <path d="M12.234 13.175c-.723.53-3.266-1.942-4.175-1.944-.942-.002-3.54 2.445-4.313 1.926-.746-.5 1.033-3.476.754-4.31-.29-.866-2.929-2.964-2.657-3.834l3.908.007c.763-.533 1.303-3.893 2.245-3.913.908-.018 1.433 3.912 2.33 3.912h3.934c.419 1.158-2.468 2.85-2.75 3.683-.407 1.218 1.603 3.594.724 4.473z" style="marker:none" overflow="visible"/>
    </g>
</svg>
