<?xml version="1.0" encoding="UTF-8" standalone="no"?>
<svg
   xmlns:dc="http://purl.org/dc/elements/1.1/"
   xmlns:cc="http://creativecommons.org/ns#"
   xmlns:rdf="http://www.w3.org/1999/02/22-rdf-syntax-ns#"
   xmlns:svg="http://www.w3.org/2000/svg"
   xmlns="http://www.w3.org/2000/svg"
   width="16"
   version="1.1"
   style="enable-background:new"
   id="svg7384"
   height="16">
  <metadata
     id="metadata90">
    <rdf:RDF>
      <cc:Work
         rdf:about="">
        <dc:format>image/svg+xml</dc:format>
        <dc:type
           rdf:resource="http://purl.org/dc/dcmitype/StillImage" />
        <dc:title>Gnome Symbolic Icons</dc:title>
        <cc:license
           rdf:resource="http://creativecommons.org/licenses/by-sa/4.0/" />
      </cc:Work>
      <cc:License
         rdf:about="http://creativecommons.org/licenses/by-sa/4.0/">
        <cc:permits
           rdf:resource="http://creativecommons.org/ns#Reproduction" />
        <cc:permits
           rdf:resource="http://creativecommons.org/ns#Distribution" />
        <cc:requires
           rdf:resource="http://creativecommons.org/ns#Notice" />
        <cc:requires
           rdf:resource="http://creativecommons.org/ns#Attribution" />
        <cc:permits
           rdf:resource="http://creativecommons.org/ns#DerivativeWorks" />
        <cc:requires
           rdf:resource="http://creativecommons.org/ns#ShareAlike" />
      </cc:License>
    </rdf:RDF>
  </metadata>
  <title
     id="title8473">Gnome Symbolic Icons</title>
  <defs
     id="defs7386" />
  <g
     transform="translate(-132.03105,-252.00005)"
     id="layer10" />
  <g
     transform="translate(-132.03105,-188.00005)"
     id="layer1">
    <path
       d="m 133,190.5 v 11.9688 C 133,204 134.5,204 134.5,204 h 4.5 v -2 h -4 v -11 h 1 v -2 h -1.5 c 0,0 -1.5,0 -1.5,1.5 z m 10,-1.49995 v 2 h 1.03125 v 4.03125 L 146,195 v -4.5 c 0,-1.50004 -1.5,-1.5 -1.5,-1.5 z m -6.9375,4.03125 v 6.96875 L 139,200 v -3.00191 c 0,0 0,-1.99809 2,-1.99809 h 2 v -2 z"
       id="rect4897-9"
       style="fill:#2e3436;fill-opacity:1;stroke:none" />
    <path
       id="rect4899-7"
       d="M 137.53103,188.00005 H 141.5 c 0.27699,0 0.49999,0.22297 0.49999,0.49995 v 3.00005 c 0,0.27697 -0.223,0.49995 -0.49999,0.49995 h -3.96897 c -0.27699,0 -0.49999,-0.22298 -0.49999,-0.49995 V 188.5 c 0,-0.27698 0.223,-0.49995 0.49999,-0.49995 z"
       style="fill:#2e3436;fill-opacity:1;stroke:none" />
    <path
       class="warning"
       d="m 141,196 c -1,0 -1,1 -1,1 v 6 c 0,0 0,1 1,1 h 6 c 1,0 1,-1 1,-1 v -6 c 0,-1 -1,-1 -1,-1 z m 2,1 2.03125,5e-5 V 200 L 143,199.99995 Z"
       id="path10898-3-1-1-6"
       style="color:#bebebe;display:inline;overflow:visible;visibility:visible;fill:#f57900;fill-opacity:1;fill-rule:nonzero;stroke:none;stroke-width:2;marker:none" />
    <path
       id="rect8797"
       d="m 143.49349,200.99998 h 1.01302 c 0.27339,0 0.49349,0.2201 0.49349,0.4935 v 1.01301 c 0,0.2734 -0.2201,0.49349 -0.49349,0.49349 h -1.01302 c -0.27339,0 -0.49349,-0.22009 -0.49349,-0.49349 v -1.01301 c 0,-0.2734 0.2201,-0.4935 0.49349,-0.4935 z"
       style="opacity:1;vector-effect:none;fill:#deddda;fill-opacity:1;stroke:none;stroke-width:1;stroke-linecap:butt;stroke-linejoin:miter;stroke-miterlimit:4;stroke-dasharray:none;stroke-dashoffset:0;stroke-opacity:1;marker:none;marker-start:none;marker-mid:none;marker-end:none;paint-order:normal;enable-background:new" />
  </g>
  <g
     transform="translate(-132.03105,-188.00005)"
     id="layer7" />
  <g
     transform="translate(-132.03105,-188.00005)"
     id="layer6" />
  <g
     transform="translate(-132.03105,-188.00005)"
     id="layer5" />
  <g
     transform="translate(-132.03105,-188.00005)"
     id="layer9" />
  <g
     transform="translate(-132.03105,-188.00005)"
     id="layer2" />
  <g
     transform="translate(-132.03105,-188.00005)"
     id="layer8" />
  <g
     transform="translate(-132.03105,-188.00005)"
     id="layer3" />
  <g
     transform="translate(-132.03105,-188.00005)"
     id="layer4" />
</svg>
