<svg xmlns="http://www.w3.org/2000/svg" width="16" height="16">
    <g font-weight="400">
        <path d="M3.477 1l2 2h6.492C12.565 3 13 3.435 13 4.031V10h-.523l2.472 2.473c.028-.165.051-.332.051-.504V4.03A3.038 3.038 0 0 0 11.969 1zM.289 2.762C.11 3.149 0 3.577 0 4.032v7.937A3.038 3.038 0 0 0 3.031 15h8.938c.173 0 .34-.025.506-.053L10.527 13H8v-2h.527l-1-1H2V4.473zM2 11h5v2H3.031C2.435 13 2 12.565 2 11.969z" style="line-height:normal;-inkscape-font-specification:Sans;text-indent:0;text-align:start;text-decoration-line:none;text-transform:none;marker:none" color="#bebebe" font-family="Sans" overflow="visible" opacity=".35" fill="#2e3436"/>
        <path d="M1.531-.238l-.353.353L-.236 1.53 14.47 16.236l1.767-1.767zm0 1.414l13.293 13.293-.353.353L1.178 1.53z" style="line-height:normal;font-variant-ligatures:normal;font-variant-position:normal;font-variant-caps:normal;font-variant-numeric:normal;font-variant-alternates:normal;font-feature-settings:normal;text-indent:0;text-align:start;text-decoration-line:none;text-decoration-style:solid;text-decoration-color:#000;text-transform:none;text-orientation:mixed;shape-padding:0;isolation:auto;mix-blend-mode:normal" color="#000" font-family="sans-serif" white-space="normal" overflow="visible"/>
    </g>
</svg>
