<?xml version="1.0" encoding="UTF-8"?>
<svg height="16px" viewBox="0 0 16 16" width="16px" xmlns="http://www.w3.org/2000/svg">
    <path d="m 9 0 c -2.027344 0.00390625 -3.855469 1.234375 -4.621094 3.113281 c -0.285156 -0.074219 -0.582031 -0.113281 -0.878906 -0.113281 c -1.933594 0 -3.5 1.566406 -3.5 3.5 s 1.566406 3.5 3.5 3.5 h 10 c 1.378906 0 2.5 -1.121094 2.5 -2.5 c 0 -1.1875 -0.839844 -2.214844 -2.003906 -2.449219 c 0 -0.015625 0.003906 -0.035156 0.003906 -0.050781 c 0 -2.761719 -2.238281 -5 -5 -5 z m -4.429688 11 c -0.484374 -0.03125 -0.921874 0.285156 -1.042968 0.757812 l -0.5 2 c -0.132813 0.535157 0.195312 1.078126 0.730468 1.210938 c 0.535157 0.136719 1.078126 -0.191406 1.210938 -0.726562 l 0.5 -2 c 0.136719 -0.535157 -0.191406 -1.078126 -0.726562 -1.210938 c -0.054688 -0.015625 -0.113282 -0.023438 -0.171876 -0.03125 z m 3.5 0 c -0.484374 -0.03125 -0.921874 0.285156 -1.042968 0.757812 l -0.5 2 c -0.132813 0.535157 0.195312 1.078126 0.730468 1.210938 c 0.535157 0.136719 1.078126 -0.191406 1.210938 -0.726562 l 0.5 -2 c 0.136719 -0.535157 -0.191406 -1.078126 -0.726562 -1.210938 c -0.054688 -0.015625 -0.113282 -0.023438 -0.171876 -0.03125 z m 3.5 0 c -0.484374 -0.03125 -0.921874 0.285156 -1.042968 0.757812 l -0.5 2 c -0.132813 0.535157 0.195312 1.078126 0.730468 1.210938 c 0.535157 0.136719 1.078126 -0.191406 1.210938 -0.726562 l 0.5 -2 c 0.136719 -0.535157 -0.191406 -1.078126 -0.726562 -1.210938 c -0.054688 -0.015625 -0.113282 -0.023438 -0.171876 -0.03125 z m 0 0" fill="#2e3436"/>
</svg>
