<?xml version="1.0" encoding="UTF-8"?>
<svg height="16px" viewBox="0 0 16 16" width="16px" xmlns="http://www.w3.org/2000/svg">
    <path d="m 6.960938 1 c -0.046876 0 -0.09375 0.003906 -0.144532 0.011719 c -3.308594 0.570312 -5.839844 3.472656 -5.839844 6.941406 c 0 2 0.84375 3.808594 2.1875 5.09375 c 0.390626 -1.09375 1.433594 -1.878906 2.648438 -1.96875 c 0.402344 -1.179687 1.253906 -2.105469 2.351562 -2.605469 c -0.5625 -0.96875 -0.886718 -2.09375 -0.886718 -3.296875 c 0 -0.984375 0.222656 -1.910156 0.613281 -2.757812 c 0.320313 -0.683594 -0.207031 -1.441407 -0.929687 -1.421875 z m 3.039062 8 c -1.765625 0.003906 -3.253906 1.320312 -3.472656 3.074219 c -0.171875 -0.050781 -0.347656 -0.074219 -0.527344 -0.074219 c -1.105469 0 -2 0.894531 -2 2 s 0.894531 2 2 2 h 7.5 c 1.378906 0 2.5 -1.121094 2.5 -2.5 s -1.121094 -2.5 -2.5 -2.5 c -0.109375 0 -0.21875 0.007812 -0.328125 0.023438 c -0.574219 -1.234376 -1.8125 -2.023438 -3.171875 -2.023438 z m 0 0" fill="#2e3436"/>
</svg>
