<?xml version="1.0" encoding="UTF-8" standalone="no"?>
<!-- Created with Inkscape (http://www.inkscape.org/) -->
<svg
   xmlns:dc="http://purl.org/dc/elements/1.1/"
   xmlns:cc="http://creativecommons.org/ns#"
   xmlns:rdf="http://www.w3.org/1999/02/22-rdf-syntax-ns#"
   xmlns:svg="http://www.w3.org/2000/svg"
   xmlns="http://www.w3.org/2000/svg"
   xmlns:xlink="http://www.w3.org/1999/xlink"
   xmlns:sodipodi="http://sodipodi.sourceforge.net/DTD/sodipodi-0.dtd"
   xmlns:inkscape="http://www.inkscape.org/namespaces/inkscape"
   width="48"
   height="48"
   id="svg2"
   sodipodi:version="0.32"
   inkscape:version="0.46"
   version="1.0"
   sodipodi:docbase="/home/lapo/Desktop/kenneth"
   sodipodi:docname="call-stop.svg"
   inkscape:output_extension="org.inkscape.output.svg.inkscape">
  <defs
     id="defs4">
    <linearGradient
       inkscape:collect="always"
       id="linearGradient4444">
      <stop
         style="stop-color:#000000;stop-opacity:1;"
         offset="0"
         id="stop4446" />
      <stop
         style="stop-color:#000000;stop-opacity:0;"
         offset="1"
         id="stop4448" />
    </linearGradient>
    <linearGradient
       inkscape:collect="always"
       id="linearGradient4436">
      <stop
         style="stop-color:#000000;stop-opacity:1;"
         offset="0"
         id="stop4438" />
      <stop
         style="stop-color:#000000;stop-opacity:0;"
         offset="1"
         id="stop4440" />
    </linearGradient>
    <linearGradient
       inkscape:collect="always"
       id="linearGradient4428">
      <stop
         style="stop-color:#000000;stop-opacity:1;"
         offset="0"
         id="stop4430" />
      <stop
         style="stop-color:#000000;stop-opacity:0;"
         offset="1"
         id="stop4432" />
    </linearGradient>
    <linearGradient
       inkscape:collect="always"
       id="linearGradient2844">
      <stop
         style="stop-color:white;stop-opacity:1;"
         offset="0"
         id="stop2846" />
      <stop
         style="stop-color:white;stop-opacity:0;"
         offset="1"
         id="stop2848" />
    </linearGradient>
    <linearGradient
       id="linearGradient2910">
      <stop
         id="stop2912"
         offset="0"
         style="stop-color:#ef2929;stop-opacity:1" />
      <stop
         id="stop2914"
         offset="1"
         style="stop-color:#c00;stop-opacity:1" />
    </linearGradient>
    <linearGradient
       id="linearGradient2894">
      <stop
         style="stop-color:white;stop-opacity:1;"
         offset="0"
         id="stop2896" />
      <stop
         style="stop-color:white;stop-opacity:0.43629342"
         offset="1"
         id="stop2898" />
    </linearGradient>
    <radialGradient
       inkscape:collect="always"
       xlink:href="#linearGradient4444"
       id="radialGradient2867"
       gradientUnits="userSpaceOnUse"
       gradientTransform="matrix(0.6111111,0,0,0.2222221,38.666667,31.140002)"
       cx="-51"
       cy="35.370022"
       fx="-51"
       fy="35.370022"
       r="9" />
    <radialGradient
       inkscape:collect="always"
       xlink:href="#linearGradient4444"
       id="radialGradient2869"
       gradientUnits="userSpaceOnUse"
       gradientTransform="matrix(0.6111111,0,0,0.2222221,74.666667,31.140002)"
       cx="-51"
       cy="35.370022"
       fx="-51"
       fy="35.370022"
       r="9" />
    <radialGradient
       inkscape:collect="always"
       xlink:href="#linearGradient4444"
       id="radialGradient2871"
       gradientUnits="userSpaceOnUse"
       gradientTransform="matrix(1,0,0,0.4033312,0,83.104189)"
       cx="-51"
       cy="35.370022"
       fx="-51"
       fy="35.370022"
       r="9" />
    <radialGradient
       inkscape:collect="always"
       xlink:href="#linearGradient4436"
       id="radialGradient2873"
       gradientUnits="userSpaceOnUse"
       gradientTransform="matrix(1,0,0,0.4033312,0,83.104189)"
       cx="-21"
       cy="35.370022"
       fx="-21"
       fy="35.370022"
       r="9" />
    <radialGradient
       inkscape:collect="always"
       xlink:href="#linearGradient4428"
       id="radialGradient2875"
       gradientUnits="userSpaceOnUse"
       gradientTransform="matrix(1,0,0,0.1551494,0,88.328574)"
       cx="-35.781593"
       cy="43"
       fx="-35.781593"
       fy="43"
       r="25.781593" />
    <radialGradient
       inkscape:collect="always"
       xlink:href="#linearGradient2910"
       id="radialGradient2877"
       gradientUnits="userSpaceOnUse"
       gradientTransform="matrix(1.82365,0,-3.597168e-8,0.352977,-129.24312,81.94153)"
       cx="44.230965"
       cy="1.2280405"
       fx="44.230965"
       fy="1.2280405"
       r="20.988943" />
    <radialGradient
       inkscape:collect="always"
       xlink:href="#linearGradient2910"
       id="radialGradient2879"
       gradientUnits="userSpaceOnUse"
       gradientTransform="matrix(1.172449,1.635808e-7,-1.396764e-7,1.001117,-0.689313,0.375097)"
       cx="5.5431213"
       cy="19.583324"
       fx="5.5431213"
       fy="19.583324"
       r="5.4701443" />
    <radialGradient
       inkscape:collect="always"
       xlink:href="#linearGradient2910"
       id="radialGradient2881"
       gradientUnits="userSpaceOnUse"
       gradientTransform="matrix(1.065299,0,0,1.069873,-2.349853,-1.383156)"
       cx="35.986053"
       cy="19.67079"
       fx="35.986053"
       fy="19.67079"
       r="5.4555612" />
    <radialGradient
       inkscape:collect="always"
       xlink:href="#linearGradient2894"
       id="radialGradient2883"
       gradientUnits="userSpaceOnUse"
       gradientTransform="matrix(2.0055393,-0.537381,0.1076452,0.4017375,-12.008424,17.149937)"
       cx="10.714277"
       cy="1.3471706"
       fx="10.714277"
       fy="1.3471706"
       r="19.954109" />
    <linearGradient
       inkscape:collect="always"
       xlink:href="#linearGradient2844"
       id="linearGradient2885"
       gradientUnits="userSpaceOnUse"
       x1="8.550292"
       y1="28.996506"
       x2="8.550292"
       y2="32.225834" />
    <linearGradient
       inkscape:collect="always"
       xlink:href="#linearGradient2844"
       id="linearGradient2887"
       gradientUnits="userSpaceOnUse"
       x1="8.550292"
       y1="28.996506"
       x2="8.550292"
       y2="32.225834" />
    <radialGradient
       inkscape:collect="always"
       xlink:href="#linearGradient2894"
       id="radialGradient2889"
       gradientUnits="userSpaceOnUse"
       gradientTransform="matrix(2.0055393,-0.537381,0.1076452,0.4017375,-72.008424,88.149937)"
       cx="10.714277"
       cy="1.3471706"
       fx="10.714277"
       fy="1.3471706"
       r="19.954109" />
  </defs>
  <sodipodi:namedview
     id="base"
     pagecolor="#7d7d7d"
     bordercolor="#666666"
     borderopacity="1.0"
     inkscape:pageopacity="0"
     inkscape:pageshadow="2"
     inkscape:zoom="4"
     inkscape:cx="25.910138"
     inkscape:cy="18.805882"
     inkscape:document-units="px"
     inkscape:current-layer="layer1"
     width="48px"
     height="48px"
     inkscape:showpageshadow="false"
     showgrid="false"
     inkscape:window-width="1043"
     inkscape:window-height="712"
     inkscape:window-x="45"
     inkscape:window-y="233"
     showguides="false"
     inkscape:guide-bbox="true"
     showborder="true"
     objecttolerance="10000"
     inkscape:object-nodes="false"
     inkscape:snap-nodes="false"
     gridtolerance="10000"
     guidetolerance="10000"
     inkscape:snap-bbox="true">
    <sodipodi:guide
       orientation="horizontal"
       position="26"
       id="guide2780" />
    <sodipodi:guide
       orientation="vertical"
       position="10.9375"
       id="guide2782" />
    <inkscape:grid
       id="GridFromPre046Settings"
       type="xygrid"
       originx="0px"
       originy="0px"
       spacingx="0.5px"
       spacingy="0.5px"
       color="#0000ff"
       empcolor="#0000ff"
       opacity="0.2"
       empopacity="0.4"
       empspacing="2"
       visible="true"
       enabled="true" />
  </sodipodi:namedview>
  <metadata
     id="metadata7">
    <rdf:RDF>
      <cc:Work
         rdf:about="">
        <dc:format>image/svg+xml</dc:format>
        <dc:type
           rdf:resource="http://purl.org/dc/dcmitype/StillImage" />
        <cc:license
           rdf:resource="http://www.gnu.org/licenses/lgpl.html" />
        <dc:creator>
          <cc:Agent>
            <dc:title>Lapo Calamandrei</dc:title>
          </cc:Agent>
        </dc:creator>
        <dc:title>Call Stop</dc:title>
        <dc:subject>
          <rdf:Bag>
            <rdf:li>receiver</rdf:li>
            <rdf:li>phone</rdf:li>
            <rdf:li>call</rdf:li>
            <rdf:li>stop</rdf:li>
            <rdf:li>hang-up</rdf:li>
          </rdf:Bag>
        </dc:subject>
      </cc:Work>
    </rdf:RDF>
  </metadata>
  <g
     inkscape:label="Livello 1"
     inkscape:groupmode="layer"
     id="layer1"
     style="display:inline">
    <g
       id="g2850"
       transform="translate(-1,0)">
      <rect
         y="37"
         x="2"
         height="3.9999971"
         width="11"
         id="rect6289"
         style="opacity:0.2;fill:url(#radialGradient2867);fill-opacity:1;stroke:none;stroke-width:1;stroke-linecap:round;stroke-linejoin:miter;stroke-miterlimit:4;stroke-dasharray:none;stroke-dashoffset:0;stroke-opacity:1;display:inline" />
      <rect
         y="37"
         x="38"
         height="3.9999971"
         width="11"
         id="rect6293"
         style="opacity:0.2;fill:url(#radialGradient2869);fill-opacity:1;stroke:none;stroke-width:1;stroke-linecap:round;stroke-linejoin:miter;stroke-miterlimit:4;stroke-dasharray:none;stroke-dashoffset:0;stroke-opacity:1;display:inline" />
      <g
         transform="translate(61,-60)"
         id="g6045">
        <rect
           y="93.740036"
           x="-60"
           height="7.2599611"
           width="18"
           id="rect3075"
           style="opacity:0.2;fill:url(#radialGradient2871);fill-opacity:1;stroke:none;stroke-width:1;stroke-linecap:round;stroke-linejoin:miter;stroke-miterlimit:4;stroke-dasharray:none;stroke-dashoffset:0;stroke-opacity:1;display:inline" />
        <rect
           y="93.740036"
           x="-30"
           height="7.2599611"
           width="18"
           id="rect3083"
           style="opacity:0.2;fill:url(#radialGradient2873);fill-opacity:1;stroke:none;stroke-width:1;stroke-linecap:round;stroke-linejoin:miter;stroke-miterlimit:4;stroke-dasharray:none;stroke-dashoffset:0;stroke-opacity:1;display:inline" />
        <rect
           y="91"
           x="-61.563187"
           height="8"
           width="51.563187"
           id="rect2954"
           style="opacity:0.06756759;fill:url(#radialGradient2875);fill-opacity:1;stroke:none;stroke-width:1;stroke-linecap:round;stroke-linejoin:miter;stroke-miterlimit:4;stroke-dasharray:none;stroke-dashoffset:0;stroke-opacity:1" />
        <rect
           inkscape:transform-center-x="-0.26691096"
           transform="matrix(0.9659258,-0.258819,0.258819,0.9659258,0,0)"
           inkscape:transform-center-y="0.99612571"
           ry="1.4805118"
           rx="1.4805118"
           y="77.215225"
           x="-79.230225"
           height="4.0000105"
           width="12.034308"
           id="rect2814"
           style="fill:#cc0000;fill-opacity:1;stroke:#a40000;stroke-width:1.0000037;stroke-linecap:round;stroke-linejoin:miter;stroke-miterlimit:4;stroke-dasharray:none;stroke-dashoffset:0;stroke-opacity:1" />
        <rect
           inkscape:transform-center-x="-0.26691096"
           transform="matrix(-0.9659258,-0.258819,-0.258819,0.9659258,0,0)"
           inkscape:transform-center-y="0.99612571"
           ry="1.4805118"
           rx="1.4805118"
           y="95.846207"
           x="-9.6902475"
           height="4.0000105"
           width="12.034308"
           id="rect2828"
           style="fill:#cc0000;fill-opacity:1;stroke:#a40000;stroke-width:1.00000358;stroke-linecap:round;stroke-linejoin:miter;stroke-miterlimit:4;stroke-dasharray:none;stroke-dashoffset:0;stroke-opacity:1" />
        <path
           id="path2759"
           d="M -36,81.5 C -46.459658,81.5 -55.063005,86.115197 -55.9375,92 C -56.505475,93.229253 -56.658859,94.653245 -56.28125,96.0625 C -56.193792,96.388899 -56.072966,96.702183 -55.9375,97 L -44.53125,93.9375 C -44.562842,93.61185 -44.600041,93.263899 -44.6875,92.9375 C -44.895691,92.160519 -45.25952,91.477891 -45.71875,90.875 C -44.341067,88.324703 -40.512137,86.5 -36,86.5 C -31.487862,86.5 -27.658932,88.324703 -26.28125,90.875 C -26.738917,91.476943 -27.073542,92.162323 -27.28125,92.9375 C -27.368709,93.263899 -27.437159,93.611851 -27.46875,93.9375 L -16.0625,97 C -15.927034,96.702183 -15.806211,96.388898 -15.71875,96.0625 C -15.333229,94.623715 -15.496369,93.15269 -16.09375,91.90625 C -17.045278,86.066284 -25.596108,81.5 -36,81.5 z"
           style="fill:url(#radialGradient2877);fill-opacity:1;stroke:#a40000;stroke-width:1;stroke-linecap:round;stroke-linejoin:miter;stroke-miterlimit:4;stroke-dasharray:none;stroke-dashoffset:0;stroke-opacity:1" />
        <path
           transform="translate(-60,71)"
           d="M 10.28125,18.03125 C 9.5736169,17.93258 8.8345396,17.989006 8.09375,18.1875 C 5.1417658,18.978483 3.3968235,21.986655 4.1875,24.9375 C 4.2294144,25.093927 4.2860071,25.253209 4.34375,25.40625 L 14.9375,22.59375 C 14.913297,22.408905 14.887368,22.225284 14.84375,22.0625 C 14.250695,19.849188 12.415004,18.328774 10.28125,18.03125 z"
           id="path2855"
           style="fill:url(#radialGradient2879);fill-opacity:1;stroke:none;stroke-width:1.00000012;stroke-linecap:round;stroke-linejoin:miter;stroke-miterlimit:4;stroke-dasharray:none;stroke-dashoffset:0;stroke-opacity:1"
           inkscape:original="M 10.34375 17.5625 C 9.5718404 17.454867 8.7685364 17.504448 7.96875 17.71875 C 4.769604 18.57596 2.8615416 21.863355 3.71875 25.0625 C 3.8062083 25.388899 3.9270339 25.702183 4.0625 26 L 15.46875 22.9375 C 15.437158 22.61185 15.399959 22.263899 15.3125 21.9375 C 14.669594 19.538141 12.659479 17.885398 10.34375 17.5625 z "
           inkscape:radius="-0.47406253"
           sodipodi:type="inkscape:offset" />
        <path
           transform="translate(-60,71)"
           d="M 37.75,18.03125 C 35.617916,18.328542 33.780097,19.850896 33.1875,22.0625 C 33.139948,22.239965 33.125627,22.41277 33.09375,22.59375 L 43.65625,25.40625 C 43.713949,25.253325 43.770626,25.093772 43.8125,24.9375 C 44.603318,21.986127 42.886463,18.977673 39.9375,18.1875 C 39.197252,17.989151 38.457043,17.932662 37.75,18.03125 z"
           id="path2875"
           style="fill:url(#radialGradient2881);fill-opacity:1;stroke:none;stroke-width:1.00000012;stroke-linecap:round;stroke-linejoin:miter;stroke-miterlimit:4;stroke-dasharray:none;stroke-dashoffset:0;stroke-opacity:1"
           inkscape:original="M 37.6875 17.5625 C 35.371771 17.885399 33.361656 19.538141 32.71875 21.9375 C 32.631291 22.263899 32.562841 22.611851 32.53125 22.9375 L 43.9375 26 C 44.072966 25.702183 44.193789 25.388898 44.28125 25.0625 C 45.138458 21.863355 43.261646 18.575959 40.0625 17.71875 C 39.262714 17.504448 38.45941 17.454867 37.6875 17.5625 z "
           inkscape:radius="-0.47841442"
           sodipodi:type="inkscape:offset" />
        <path
           transform="translate(-60,71)"
           d="M 24,11.53125 C 18.921657,11.53125 14.291861,12.675735 10.90625,14.46875 C 7.5206391,16.261765 5.4645692,18.660869 5.09375,21.15625 C 5.0762252,21.25403 5.0446482,21.348761 5,21.4375 C 4.5294438,22.455912 4.4040816,23.606892 4.71875,24.78125 C 4.6773163,24.626617 4.7076549,24.66492 4.78125,24.90625 C 4.8062906,24.988364 4.7737549,24.972537 4.78125,25.03125 C 4.781408,25.041666 4.781408,25.052084 4.78125,25.0625 C 4.7845732,25.103196 4.8142632,25.128378 4.8125,25.15625 C 4.805474,25.06881 4.8126453,25.133916 4.84375,25.25 C 4.843908,25.260416 4.843908,25.270834 4.84375,25.28125 L 5.09375,26.28125 C 5.1622416,26.536864 5.354334,26.635025 5.625,26.5625 L 14.4375,24.21875 C 14.693114,24.150259 14.791275,23.958167 14.71875,23.6875 C 14.718592,23.677084 14.718592,23.666666 14.71875,23.65625 L 14.46875,22.65625 C 14.491254,22.740236 14.502581,22.724236 14.4375,22.59375 C 14.395536,22.514837 14.364022,22.430798 14.34375,22.34375 C 14.304919,22.159697 14.286823,22.122924 14.3125,22.21875 C 14.142918,21.58586 13.85979,21.01337 13.46875,20.5 C 13.216496,20.177036 13.179682,19.735262 13.375,19.375 C 15.034329,16.303335 19.210187,14.46875 24,14.46875 C 28.789814,14.46875 32.965672,16.303335 34.625,19.375 C 34.820318,19.735262 34.783504,20.177036 34.53125,20.5 C 34.155167,20.99464 33.894164,21.564097 33.71875,22.21875 C 33.713479,22.238423 33.700283,22.261112 33.6875,22.3125 C 33.667228,22.399548 33.635714,22.483587 33.59375,22.5625 C 33.535416,22.666858 33.518774,22.73406 33.53125,22.6875 L 33.28125,23.65625 C 33.281408,23.666666 33.281408,23.677084 33.28125,23.6875 C 33.208726,23.958166 33.338137,24.150259 33.59375,24.21875 L 42.34375,26.5625 C 42.614418,26.635025 42.837758,26.505615 42.90625,26.25 L 43.15625,25.28125 C 43.156092,25.270834 43.156092,25.260416 43.15625,25.25 C 43.187354,25.133919 43.194526,25.068809 43.1875,25.15625 C 43.187648,25.071952 43.198143,24.987991 43.21875,24.90625 C 43.292343,24.664932 43.322681,24.626633 43.28125,24.78125 C 43.602546,23.582157 43.461215,22.371283 42.96875,21.34375 C 42.924102,21.255011 42.892525,21.16028 42.875,21.0625 C 42.471132,18.583777 40.407544,16.213918 37.03125,14.4375 C 33.654956,12.661082 29.051262,11.53125 24,11.53125 z"
           id="path2892"
           style="opacity:0.34234236;fill:none;fill-opacity:1;stroke:url(#radialGradient2883);stroke-width:1;stroke-linecap:round;stroke-linejoin:miter;stroke-miterlimit:4;stroke-dasharray:none;stroke-dashoffset:0;stroke-opacity:1"
           inkscape:original="M 24 10.5 C 13.540342 10.5 4.9369948 15.115197 4.0625 21 C 3.4945247 22.229253 3.3411412 23.653245 3.71875 25.0625 C 3.7334834 25.117486 3.7647122 25.16452 3.78125 25.21875 C 3.7841345 25.228209 3.7783138 25.240565 3.78125 25.25 C 3.788405 25.339046 3.8197661 25.441741 3.84375 25.53125 L 4.09375 26.53125 C 4.3060333 27.323502 5.1139975 27.774783 5.90625 27.5625 L 14.6875 25.21875 C 15.479752 25.006467 15.931033 24.198503 15.71875 23.40625 L 15.46875 22.40625 C 15.442215 22.307218 15.387727 22.213173 15.34375 22.125 C 15.33063 22.062813 15.328837 21.998469 15.3125 21.9375 C 15.104309 21.160519 14.74048 20.477891 14.28125 19.875 C 15.658933 17.324703 19.487863 15.5 24 15.5 C 28.512138 15.5 32.341068 17.324703 33.71875 19.875 C 33.261083 20.476943 32.926458 21.162323 32.71875 21.9375 C 32.707694 21.978762 32.697913 22.020638 32.6875 22.0625 C 32.628492 22.168063 32.564047 22.283851 32.53125 22.40625 L 32.28125 23.40625 C 32.068968 24.198502 32.520248 25.006467 33.3125 25.21875 L 42.09375 27.5625 C 42.886004 27.774784 43.693967 27.323502 43.90625 26.53125 L 44.15625 25.53125 C 44.180234 25.441741 44.211595 25.339045 44.21875 25.25 C 44.219511 25.240527 44.218173 25.228207 44.21875 25.21875 C 44.235288 25.16452 44.266516 25.117486 44.28125 25.0625 C 44.666771 23.623715 44.503631 22.15269 43.90625 20.90625 C 42.954722 15.066284 34.403892 10.5 24 10.5 z "
           inkscape:radius="-1.0299597"
           sodipodi:type="inkscape:offset" />
        <path
           transform="matrix(1,0,0,1.077496,-31.25565,58.756381)"
           d="M 11.755651,30.852661 A 2.9831069,1.8561553 0 1 1 5.7894371,30.852661 A 2.9831069,1.8561553 0 1 1 11.755651,30.852661 z"
           sodipodi:ry="1.8561553"
           sodipodi:rx="2.9831069"
           sodipodi:cy="30.852661"
           sodipodi:cx="8.7725439"
           id="path2852"
           style="opacity:0.5;fill:url(#linearGradient2885);fill-opacity:1;stroke:none;stroke-width:1.29538584;stroke-linecap:round;stroke-linejoin:miter;stroke-miterlimit:4;stroke-dasharray:none;stroke-dashoffset:0;stroke-opacity:1;display:inline"
           sodipodi:type="arc" />
        <path
           transform="matrix(1,0,0,1.077496,-60.25565,58.756381)"
           d="M 11.755651,30.852661 A 2.9831069,1.8561553 0 1 1 5.7894371,30.852661 A 2.9831069,1.8561553 0 1 1 11.755651,30.852661 z"
           sodipodi:ry="1.8561553"
           sodipodi:rx="2.9831069"
           sodipodi:cy="30.852661"
           sodipodi:cx="8.7725439"
           id="path2861"
           style="opacity:0.5;fill:url(#linearGradient2887);fill-opacity:1;stroke:none;stroke-width:1.29538584;stroke-linecap:round;stroke-linejoin:miter;stroke-miterlimit:4;stroke-dasharray:none;stroke-dashoffset:0;stroke-opacity:1;display:inline"
           sodipodi:type="arc" />
        <path
           style="opacity:0.2342342;fill:none;fill-opacity:1;stroke:url(#radialGradient2889);stroke-width:1;stroke-linecap:round;stroke-linejoin:miter;stroke-miterlimit:4;stroke-dashoffset:0;stroke-opacity:1;display:inline"
           d="M -17.65625,97.5625 C -17.385582,97.635025 -17.162242,97.505615 -17.09375,97.25 L -16.84375,96.28125 C -16.843908,96.270834 -16.843908,96.260416 -16.84375,96.25 C -16.812646,96.133919 -16.805474,96.068809 -16.8125,96.15625 C -16.812352,96.071952 -16.801857,95.987991 -16.78125,95.90625 C -16.707657,95.664932 -16.677319,95.626633 -16.71875,95.78125 C -16.397454,94.582157 -16.538785,93.371283 -17.03125,92.34375 C -17.075898,92.255011 -17.107475,92.16028 -17.125,92.0625 C -17.528868,89.583777 -19.592456,87.213918 -22.96875,85.4375 C -26.345044,83.661082 -30.948738,82.53125 -36,82.53125 C -41.078343,82.53125 -45.708139,83.675735 -49.09375,85.46875 C -52.479361,87.261765 -54.535431,89.660869 -54.90625,92.15625 C -54.923775,92.25403 -54.955352,92.348761 -55,92.4375 C -55.470556,93.455912 -55.595918,94.606892 -55.28125,95.78125 C -55.322684,95.626617 -55.292345,95.66492 -55.21875,95.90625 C -55.193709,95.988364 -55.226245,95.972537 -55.21875,96.03125 C -55.218592,96.041666 -55.218592,96.052084 -55.21875,96.0625 C -55.215427,96.103196 -55.185737,96.128378 -55.1875,96.15625 C -55.194526,96.06881 -55.187355,96.133916 -55.15625,96.25 C -55.156092,96.260416 -55.156092,96.270834 -55.15625,96.28125 L -54.90625,97.28125 C -54.837758,97.536864 -54.645666,97.635025 -54.375,97.5625"
           id="path2793"
           sodipodi:nodetypes="cccssssssscsssssssssccc" />
      </g>
    </g>
  </g>
  <g
     inkscape:groupmode="layer"
     id="layer2"
     inkscape:label="troiai"
     style="display:none">
    <path
       sodipodi:type="arc"
       style="opacity:0.9;fill:#ef2929;fill-opacity:1;stroke:#a40000;stroke-width:1.21590912;stroke-linecap:round;stroke-linejoin:miter;stroke-miterlimit:4;stroke-dasharray:none;stroke-dashoffset:0;stroke-opacity:1"
       id="path2763"
       sodipodi:cx="11.3125"
       sodipodi:cy="21.4375"
       sodipodi:rx="6.6875"
       sodipodi:ry="6.6875"
       d="M 18,21.4375 A 6.6875,6.6875 0 1 1 4.625,21.4375 A 6.6875,6.6875 0 1 1 18,21.4375 z"
       transform="matrix(0.82243,0,0,0.82243,-68.30374,4.369158)" />
    <path
       sodipodi:type="arc"
       style="opacity:0.9;fill:#ef2929;fill-opacity:1;stroke:#a40000;stroke-width:1.21590912;stroke-linecap:round;stroke-linejoin:miter;stroke-miterlimit:4;stroke-dasharray:none;stroke-dashoffset:0;stroke-opacity:1"
       id="path2765"
       sodipodi:cx="11.3125"
       sodipodi:cy="21.4375"
       sodipodi:rx="6.6875"
       sodipodi:ry="6.6875"
       d="M 18,21.4375 A 6.6875,6.6875 0 1 1 4.625,21.4375 A 6.6875,6.6875 0 1 1 18,21.4375 z"
       transform="matrix(0.82243,0,0,0.82243,-42.30374,4.369158)" />
    <path
       sodipodi:type="arc"
       style="opacity:0.6;fill:#ef2929;fill-opacity:1;stroke:#a40000;stroke-width:0.87122524;stroke-linecap:round;stroke-linejoin:miter;stroke-miterlimit:4;stroke-dasharray:none;stroke-dashoffset:0;stroke-opacity:1"
       id="path2767"
       sodipodi:cx="24.1875"
       sodipodi:cy="21.375"
       sodipodi:rx="16.5625"
       sodipodi:ry="9.75"
       d="M 40.75,21.375 A 16.5625,9.75 0 1 1 7.625,21.375 A 16.5625,9.75 0 1 1 40.75,21.375 z"
       transform="matrix(1.116981,0,0,1.179487,-73.01698,-3.211538)" />
    <path
       sodipodi:type="arc"
       style="opacity:0.6;fill:#ef2929;fill-opacity:1;stroke:#a40000;stroke-width:1.62041819;stroke-linecap:round;stroke-linejoin:miter;stroke-miterlimit:4;stroke-dasharray:none;stroke-dashoffset:0;stroke-opacity:1"
       id="path2769"
       sodipodi:cx="24.1875"
       sodipodi:cy="21.375"
       sodipodi:rx="16.5625"
       sodipodi:ry="9.75"
       d="M 40.75,21.375 A 16.5625,9.75 0 1 1 7.625,21.375 A 16.5625,9.75 0 1 1 40.75,21.375 z"
       transform="matrix(0.573586,0,0,0.663968,-59.87362,7.781372)" />
    <path
       style="opacity:0.6;fill:#ef2929;fill-opacity:1;stroke:#a40000;stroke-width:1;stroke-linecap:round;stroke-linejoin:miter;stroke-miterlimit:4;stroke-dasharray:none;stroke-dashoffset:0;stroke-opacity:1"
       d="M 23.99999,70.5 C 12.959975,70.5 3.9999611,75.652001 3.999961,82 L 13.729705,82 C 13.729624,81.989472 13.729705,81.97929 13.729705,81.96875 C 13.729705,78.395274 18.330782,75.5 23.99999,75.5 C 29.6692,75.5 34.270275,78.395274 34.270275,81.96875 C 34.270275,81.97929 34.270356,81.989472 34.270275,82 L 44.00002,82 C 44.00002,75.652001 35.040006,70.5 23.99999,70.5 z"
       id="path2805" />
    <path
       sodipodi:type="arc"
       style="opacity:0.9;fill:#ef2929;fill-opacity:1;stroke:#a40000;stroke-width:1.11458337;stroke-linecap:round;stroke-linejoin:miter;stroke-miterlimit:4;stroke-dasharray:none;stroke-dashoffset:0;stroke-opacity:1"
       id="path2807"
       sodipodi:cx="11.3125"
       sodipodi:cy="21.4375"
       sodipodi:rx="6.6875"
       sodipodi:ry="6.6875"
       d="M 18,21.4375 A 6.6875,6.6875 0 1 1 4.625,21.4375 A 6.6875,6.6875 0 1 1 18,21.4375 z"
       transform="matrix(0.897196,0,0,0.897196,-0.649528,64.26636)" />
    <path
       sodipodi:type="arc"
       style="opacity:0.9;fill:#ef2929;fill-opacity:1;stroke:#a40000;stroke-width:1.11458337;stroke-linecap:round;stroke-linejoin:miter;stroke-miterlimit:4;stroke-dasharray:none;stroke-dashoffset:0;stroke-opacity:1"
       id="path2809"
       sodipodi:cx="11.3125"
       sodipodi:cy="21.4375"
       sodipodi:rx="6.6875"
       sodipodi:ry="6.6875"
       d="M 18,21.4375 A 6.6875,6.6875 0 1 1 4.625,21.4375 A 6.6875,6.6875 0 1 1 18,21.4375 z"
       transform="matrix(0.897196,0,0,0.897196,28.35047,64.26636)" />
    <path
       style="fill:#ef2929;fill-opacity:1;stroke:#a40000;stroke-width:1.00000012;stroke-linecap:round;stroke-linejoin:miter;stroke-miterlimit:4;stroke-dasharray:none;stroke-dashoffset:0;stroke-opacity:1"
       d="M 7.9557575,-22.292184 C 4.7566116,-21.434975 2.8559071,-18.142859 3.7131155,-14.943714 C 3.8005738,-14.617315 3.927024,-14.299869 4.0624901,-14.002052 L 15.472491,-17.059351 C 15.440899,-17.385001 15.391686,-17.723143 15.304227,-18.049542 C 14.447019,-21.248687 11.154903,-23.149392 7.9557575,-22.292184 z"
       id="path2840"
       inkscape:transform-center-x="0.027159543"
       inkscape:transform-center-y="-1.7187079" />
    <path
       style="fill:#ef2929;fill-opacity:1;stroke:#a40000;stroke-width:1.00000012;stroke-linecap:round;stroke-linejoin:miter;stroke-miterlimit:4;stroke-dasharray:none;stroke-dashoffset:0;stroke-opacity:1"
       d="M 40.051683,-22.294327 C 43.250828,-21.437118 45.151533,-18.145002 44.294325,-14.945857 C 44.206866,-14.619458 44.080416,-14.302012 43.94495,-14.004195 L 32.534949,-17.061494 C 32.566541,-17.387144 32.615754,-17.725286 32.703213,-18.051685 C 33.560421,-21.25083 36.852537,-23.151535 40.051683,-22.294327 z"
       id="path2842"
       inkscape:transform-center-x="0.027159543"
       inkscape:transform-center-y="-1.7187079" />
  </g>
</svg>
