<?xml version="1.0" encoding="UTF-8" standalone="no"?>
<!-- Created with Inkscape (http://www.inkscape.org/) -->
<svg
   xmlns:dc="http://purl.org/dc/elements/1.1/"
   xmlns:cc="http://web.resource.org/cc/"
   xmlns:rdf="http://www.w3.org/1999/02/22-rdf-syntax-ns#"
   xmlns:svg="http://www.w3.org/2000/svg"
   xmlns="http://www.w3.org/2000/svg"
   xmlns:xlink="http://www.w3.org/1999/xlink"
   xmlns:sodipodi="http://sodipodi.sourceforge.net/DTD/sodipodi-0.dtd"
   xmlns:inkscape="http://www.inkscape.org/namespaces/inkscape"
   width="48"
   height="48"
   id="svg2"
   sodipodi:version="0.32"
   inkscape:version="0.45"
   version="1.0"
   sodipodi:docname="mail-reply-all.svg"
   sodipodi:docbase="/home/dobey/Projects/gnome-icon-theme/scalable/actions"
   inkscape:output_extension="org.inkscape.output.svg.inkscape">
  <defs
     id="defs4">
    <linearGradient
       inkscape:collect="always"
       id="linearGradient8585">
      <stop
         style="stop-color:#ffffff;stop-opacity:1;"
         offset="0"
         id="stop8587" />
      <stop
         style="stop-color:#ffffff;stop-opacity:0;"
         offset="1"
         id="stop8589" />
    </linearGradient>
    <linearGradient
       inkscape:collect="always"
       id="linearGradient8555">
      <stop
         style="stop-color:#fce94f;stop-opacity:1;"
         offset="0"
         id="stop8557" />
      <stop
         style="stop-color:#fce94f;stop-opacity:0;"
         offset="1"
         id="stop8559" />
    </linearGradient>
    <linearGradient
       inkscape:collect="always"
       id="linearGradient8542">
      <stop
         style="stop-color:#c4a000;stop-opacity:1"
         offset="0"
         id="stop8544" />
      <stop
         style="stop-color:#c4a000;stop-opacity:0"
         offset="1"
         id="stop8546" />
    </linearGradient>
    <linearGradient
       inkscape:collect="always"
       id="linearGradient8536">
      <stop
         style="stop-color:#edd400;stop-opacity:1"
         offset="0"
         id="stop8538" />
      <stop
         style="stop-color:#edd400;stop-opacity:0"
         offset="1"
         id="stop8540" />
    </linearGradient>
    <linearGradient
       inkscape:collect="always"
       id="linearGradient8526">
      <stop
         style="stop-color:#ffffff;stop-opacity:1;"
         offset="0"
         id="stop8528" />
      <stop
         style="stop-color:#ffffff;stop-opacity:0;"
         offset="1"
         id="stop8530" />
    </linearGradient>
    <linearGradient
       inkscape:collect="always"
       id="linearGradient8291">
      <stop
         style="stop-color:#000000;stop-opacity:1;"
         offset="0"
         id="stop8293" />
      <stop
         style="stop-color:#000000;stop-opacity:0;"
         offset="1"
         id="stop8295" />
    </linearGradient>
    <linearGradient
       inkscape:collect="always"
       id="linearGradient6934">
      <stop
         style="stop-color:#babdb6;stop-opacity:1"
         offset="0"
         id="stop6936" />
      <stop
         style="stop-color:#babdb6;stop-opacity:0"
         offset="1"
         id="stop6938" />
    </linearGradient>
    <linearGradient
       inkscape:collect="always"
       id="linearGradient5060">
      <stop
         style="stop-color:black;stop-opacity:1;"
         offset="0"
         id="stop5062" />
      <stop
         style="stop-color:black;stop-opacity:0;"
         offset="1"
         id="stop5064" />
    </linearGradient>
    <linearGradient
       id="linearGradient5048">
      <stop
         style="stop-color:black;stop-opacity:0;"
         offset="0"
         id="stop5050" />
      <stop
         id="stop5056"
         offset="0.5"
         style="stop-color:black;stop-opacity:1;" />
      <stop
         style="stop-color:black;stop-opacity:0;"
         offset="1"
         id="stop5052" />
    </linearGradient>
    <linearGradient
       id="linearGradient6945"
       inkscape:collect="always">
      <stop
         id="stop6947"
         offset="0"
         style="stop-color:#ffffff;stop-opacity:1" />
      <stop
         id="stop6949"
         offset="1"
         style="stop-color:#d3d7cf;stop-opacity:1" />
    </linearGradient>
    <linearGradient
       id="linearGradient7063"
       inkscape:collect="always">
      <stop
         id="stop7065"
         offset="0"
         style="stop-color:#000000;stop-opacity:1;" />
      <stop
         id="stop7067"
         offset="1"
         style="stop-color:#000000;stop-opacity:0;" />
    </linearGradient>
    <linearGradient
       inkscape:collect="always"
       xlink:href="#linearGradient8536"
       id="linearGradient11691"
       gradientUnits="userSpaceOnUse"
       gradientTransform="matrix(1,0,0,-1,-7,48)"
       x1="37.299881"
       y1="17.939838"
       x2="37.299881"
       y2="21.088894" />
    <linearGradient
       inkscape:collect="always"
       xlink:href="#linearGradient8542"
       id="linearGradient11693"
       gradientUnits="userSpaceOnUse"
       gradientTransform="matrix(1,0,0,-1,-7,48)"
       x1="35.532116"
       y1="20.08194"
       x2="35.532116"
       y2="23.0016" />
    <linearGradient
       inkscape:collect="always"
       xlink:href="#linearGradient8555"
       id="linearGradient11695"
       gradientUnits="userSpaceOnUse"
       x1="8.625"
       y1="45"
       x2="8.625"
       y2="35.616734" />
    <linearGradient
       inkscape:collect="always"
       xlink:href="#linearGradient8526"
       id="linearGradient11697"
       gradientUnits="userSpaceOnUse"
       x1="28.75"
       y1="30.750763"
       x2="28.75"
       y2="27.086111" />
    <linearGradient
       inkscape:collect="always"
       xlink:href="#linearGradient8585"
       id="linearGradient11699"
       gradientUnits="userSpaceOnUse"
       x1="27.135223"
       y1="30.941286"
       x2="27.135223"
       y2="26.786797" />
    <linearGradient
       inkscape:collect="always"
       xlink:href="#linearGradient5048"
       id="linearGradient11701"
       gradientUnits="userSpaceOnUse"
       gradientTransform="matrix(2.774389,0,0,1.969706,-1892.179,-872.8854)"
       x1="302.85715"
       y1="366.64789"
       x2="302.85715"
       y2="609.50507" />
    <radialGradient
       inkscape:collect="always"
       xlink:href="#linearGradient5060"
       id="radialGradient11703"
       gradientUnits="userSpaceOnUse"
       gradientTransform="matrix(2.774389,0,0,1.969706,-1891.633,-872.8854)"
       cx="605.71429"
       cy="486.64789"
       fx="605.71429"
       fy="486.64789"
       r="117.14286" />
    <radialGradient
       inkscape:collect="always"
       xlink:href="#linearGradient5060"
       id="radialGradient11705"
       gradientUnits="userSpaceOnUse"
       gradientTransform="matrix(-2.774389,0,0,1.969706,112.7623,-872.8854)"
       cx="605.71429"
       cy="486.64789"
       fx="605.71429"
       fy="486.64789"
       r="117.14286" />
    <radialGradient
       inkscape:collect="always"
       xlink:href="#linearGradient6945"
       id="radialGradient11707"
       gradientUnits="userSpaceOnUse"
       gradientTransform="matrix(2.0135589,0,0,1.7460565,-12.669486,-9.185985)"
       cx="12.5"
       cy="15.927882"
       fx="12.5"
       fy="15.927882"
       r="18.5" />
    <linearGradient
       inkscape:collect="always"
       xlink:href="#linearGradient7063"
       id="linearGradient11709"
       gradientUnits="userSpaceOnUse"
       x1="12.875"
       y1="35.314098"
       x2="12.875"
       y2="15.75" />
    <radialGradient
       inkscape:collect="always"
       xlink:href="#linearGradient6945"
       id="radialGradient11711"
       gradientUnits="userSpaceOnUse"
       gradientTransform="matrix(2.6083242,0,0,2.218814,-74.941381,-118.61799)"
       cx="13.107393"
       cy="61.48016"
       fx="13.107393"
       fy="61.48016"
       r="18.5" />
    <linearGradient
       inkscape:collect="always"
       xlink:href="#linearGradient6934"
       id="linearGradient11713"
       gradientUnits="userSpaceOnUse"
       gradientTransform="translate(1,-42)"
       x1="14.125"
       y1="79.81311"
       x2="14.125"
       y2="75.499176" />
    <radialGradient
       inkscape:collect="always"
       xlink:href="#linearGradient8291"
       id="radialGradient11715"
       gradientUnits="userSpaceOnUse"
       gradientTransform="matrix(1,0,0,0.2458842,0,31.065119)"
       cx="22.738329"
       cy="41.194096"
       fx="22.738329"
       fy="41.194096"
       r="14.73833" />
    <radialGradient
       inkscape:collect="always"
       xlink:href="#linearGradient8291"
       id="radialGradient11717"
       gradientUnits="userSpaceOnUse"
       gradientTransform="matrix(1,0,0,0.2458842,0,31.065119)"
       cx="22.738329"
       cy="41.194096"
       fx="22.738329"
       fy="41.194096"
       r="14.73833" />
  </defs>
  <sodipodi:namedview
     id="base"
     pagecolor="#ffffff"
     bordercolor="#666666"
     borderopacity="0.37647059"
     inkscape:pageopacity="0"
     inkscape:pageshadow="2"
     inkscape:zoom="1"
     inkscape:cx="40.896014"
     inkscape:cy="-17.81799"
     inkscape:document-units="px"
     inkscape:current-layer="layer1"
     width="48px"
     height="48px"
     inkscape:showpageshadow="false"
     gridempspacing="2"
     gridspacingx="0.5px"
     gridspacingy="0.5px"
     inkscape:window-width="872"
     inkscape:window-height="848"
     inkscape:window-x="209"
     inkscape:window-y="67"
     borderlayer="true"
     showgrid="false"
     inkscape:grid-points="true"
     showborder="true"
     showguides="true"
     inkscape:guide-bbox="true" />
  <metadata
     id="metadata7">
    <rdf:RDF>
      <cc:Work
         rdf:about="">
        <dc:format>image/svg+xml</dc:format>
        <dc:type
           rdf:resource="http://purl.org/dc/dcmitype/StillImage" />
        <dc:creator>
          <cc:Agent>
            <dc:title>Lapo Calamandrei</dc:title>
          </cc:Agent>
        </dc:creator>
        <cc:license
           rdf:resource="http://creativecommons.org/licenses/GPL/2.0/" />
      </cc:Work>
      <cc:License
         rdf:about="http://creativecommons.org/licenses/GPL/2.0/">
        <cc:permits
           rdf:resource="http://web.resource.org/cc/Reproduction" />
        <cc:permits
           rdf:resource="http://web.resource.org/cc/Distribution" />
        <cc:requires
           rdf:resource="http://web.resource.org/cc/Notice" />
        <cc:permits
           rdf:resource="http://web.resource.org/cc/DerivativeWorks" />
        <cc:requires
           rdf:resource="http://web.resource.org/cc/ShareAlike" />
        <cc:requires
           rdf:resource="http://web.resource.org/cc/SourceCode" />
      </cc:License>
    </rdf:RDF>
  </metadata>
  <g
     inkscape:label="Livello 1"
     inkscape:groupmode="layer"
     id="layer1">
    <g
       id="g9812"
       transform="matrix(-1,0,0,1,7,-8)" />
    <g
       id="g8577"
       style="opacity:0.3"
       transform="matrix(1,0,0,1.1999999,1,-8.999995)">
      <path
         transform="matrix(0.678503,0,0,1.3797206,22.571977,-16.836343)"
         d="M 37.476659 41.194096 A 14.73833 3.6239223 0 1 1  7.999999,41.194096 A 14.73833 3.6239223 0 1 1  37.476659 41.194096 z"
         sodipodi:ry="3.6239223"
         sodipodi:rx="14.73833"
         sodipodi:cy="41.194096"
         sodipodi:cx="22.738329"
         id="path8572"
         style="opacity:1;fill:url(#radialGradient11715);fill-opacity:1;fill-rule:evenodd;stroke:none;stroke-width:1;stroke-linecap:round;stroke-linejoin:round;stroke-miterlimit:4;stroke-dasharray:none;stroke-dashoffset:0.69999992;stroke-opacity:1"
         sodipodi:type="arc" />
      <path
         transform="matrix(1.0856045,0,0,1.3797206,-10.684831,-16.836343)"
         d="M 37.476659 41.194096 A 14.73833 3.6239223 0 1 1  7.999999,41.194096 A 14.73833 3.6239223 0 1 1  37.476659 41.194096 z"
         sodipodi:ry="3.6239223"
         sodipodi:rx="14.73833"
         sodipodi:cy="41.194096"
         sodipodi:cx="22.738329"
         id="path8568"
         style="opacity:1;fill:url(#radialGradient11717);fill-opacity:1;fill-rule:evenodd;stroke:none;stroke-width:1;stroke-linecap:round;stroke-linejoin:round;stroke-miterlimit:4;stroke-dasharray:none;stroke-dashoffset:0.69999992;stroke-opacity:1"
         sodipodi:type="arc" />
    </g>
    <g
       id="g8421"
       inkscape:label="Livello 1"
       transform="translate(-3,-2.999999)">
      <g
         transform="matrix(2.2162751e-2,0,0,1.0695181e-2,44.21234,36.053672)"
         id="g8423"
         style="opacity:0.7;display:inline">
        <rect
           style="opacity:0.39195981;color:#000000;fill:url(#linearGradient11701);fill-opacity:1;fill-rule:nonzero;stroke:none;stroke-width:1;stroke-linecap:round;stroke-linejoin:miter;marker:none;marker-start:none;marker-mid:none;marker-end:none;stroke-miterlimit:4;stroke-dasharray:none;stroke-dashoffset:0;stroke-opacity:1;visibility:visible;display:inline;overflow:visible"
           id="rect8425"
           width="1339.6335"
           height="478.35718"
           x="-1559.2523"
           y="-150.69685" />
        <path
           style="opacity:0.40206185;color:#000000;fill:url(#radialGradient11703);fill-opacity:1;fill-rule:nonzero;stroke:none;stroke-width:1;stroke-linecap:round;stroke-linejoin:miter;marker:none;marker-start:none;marker-mid:none;marker-end:none;stroke-miterlimit:4;stroke-dasharray:none;stroke-dashoffset:0;stroke-opacity:1;visibility:visible;display:inline;overflow:visible"
           d="M -219.61876,-150.68038 C -219.61876,-150.68038 -219.61876,327.65041 -219.61876,327.65041 C -76.744594,328.55086 125.78146,220.48075 125.78138,88.454235 C 125.78138,-43.572302 -33.655436,-150.68036 -219.61876,-150.68038 z "
           id="path8427"
           sodipodi:nodetypes="cccc" />
        <path
           sodipodi:nodetypes="cccc"
           id="path8429"
           d="M -1559.2523,-150.68038 C -1559.2523,-150.68038 -1559.2523,327.65041 -1559.2523,327.65041 C -1702.1265,328.55086 -1904.6525,220.48075 -1904.6525,88.454235 C -1904.6525,-43.572302 -1745.2157,-150.68036 -1559.2523,-150.68038 z "
           style="opacity:0.40206185;color:#000000;fill:url(#radialGradient11705);fill-opacity:1;fill-rule:nonzero;stroke:none;stroke-width:1;stroke-linecap:round;stroke-linejoin:miter;marker:none;marker-start:none;marker-mid:none;marker-end:none;stroke-miterlimit:4;stroke-dasharray:none;stroke-dashoffset:0;stroke-opacity:1;visibility:visible;display:inline;overflow:visible" />
      </g>
      <rect
         ry="1.5340841"
         rx="1.5340841"
         y="12.499999"
         x="6.5"
         height="25"
         width="36"
         id="rect8431"
         style="opacity:1;fill:url(#radialGradient11707);fill-opacity:1;fill-rule:evenodd;stroke:#888a85;stroke-width:1;stroke-linecap:butt;stroke-linejoin:miter;stroke-miterlimit:4;stroke-dasharray:none;stroke-dashoffset:0.69999992;stroke-opacity:0.99236642" />
      <path
         sodipodi:nodetypes="cccccssscccccc"
         id="path8433"
         d="M 7.90625,12.9375 C 7.356972,12.9375 6.9375,13.35697 6.9375,13.90625 L 6.9375,15.3125 L 16.03125,26.90625 L 17.15625,25.65625 C 17.625623,25.186876 18.0906,24.571266 19.125,24.15625 C 20.1594,23.741234 21.70864,23.5 24.5,23.5 C 27.280132,23.499999 28.838454,23.741631 29.875,24.15625 C 30.911546,24.570869 31.373047,25.185547 31.84375,25.65625 L 32.96875,26.90625 L 42.0625,15.3125 L 42.0625,13.90625 C 42.0625,13.356972 41.64303,12.9375 41.09375,12.9375 L 7.90625,12.9375 z "
         style="opacity:0.23134329;fill:url(#linearGradient11709);fill-opacity:1;fill-rule:evenodd;stroke:none;stroke-width:0.89999998;stroke-linecap:butt;stroke-linejoin:round;stroke-miterlimit:4;stroke-opacity:1" />
      <path
         sodipodi:nodetypes="ccssscccccc"
         id="path8435"
         d="M 7,37 L 17.15625,25.65625 C 17.625623,25.186876 18.0906,24.571266 19.125,24.15625 C 20.1594,23.741234 21.70864,23.5 24.5,23.5 C 27.280132,23.499999 28.838454,23.741631 29.875,24.15625 C 30.911546,24.570869 31.373047,25.185547 31.84375,25.65625 L 42,37 L 31.84375,26.65625 C 29.799743,24.686656 27.325503,24.384093 24.5,24.5 C 21.82915,24.54954 19.035697,24.49967 17.15625,26.65625 L 7,37 z "
         style="fill:#888a85;fill-opacity:1;fill-rule:evenodd;stroke:none;stroke-width:0.89999998;stroke-linecap:butt;stroke-linejoin:round;stroke-miterlimit:4;stroke-dasharray:none;stroke-opacity:1" />
      <path
         sodipodi:nodetypes="ccccccccc"
         id="path8437"
         d="M 7,37.021499 L 17.15625,27.677749 C 19.035697,25.521169 21.82915,25.571039 24.5,25.521499 C 27.325503,25.405592 29.799743,25.708155 31.84375,27.677749 L 42,37.021499 L 31.84375,26.677749 C 29.799743,24.708155 27.325503,24.405592 24.5,24.521499 C 21.82915,24.571039 19.035697,24.521169 17.15625,26.677749 L 7,37.021499 z "
         style="fill:#ffffff;fill-opacity:1;fill-rule:evenodd;stroke:none;stroke-width:0.89999998;stroke-linecap:butt;stroke-linejoin:round;stroke-miterlimit:4;stroke-dasharray:none;stroke-opacity:1" />
      <path
         transform="translate(50,0)"
         d="M -42.09375,13 C -42.616403,13 -43,13.383596 -43,13.90625 L -43,15.3125 L -32.15625,26.15625 C -31.625931,26.68657 -31.335927,27.070864 -30.5,27.40625 C -29.664073,27.741636 -28.231645,28 -25.5,28 C -22.779829,28.000001 -21.33945,27.74203 -20.5,27.40625 C -19.66055,27.07047 -19.372752,26.685252 -18.84375,26.15625 L -8,15.3125 L -8,13.90625 C -8,13.383597 -8.3835956,13 -8.90625,13 L -42.09375,13 z "
         id="path8439"
         style="fill:url(#radialGradient11711);fill-opacity:1;fill-rule:evenodd;stroke:none;stroke-width:0.89999998;stroke-linecap:butt;stroke-linejoin:round;stroke-miterlimit:4;stroke-dasharray:none;stroke-opacity:1"
         inkscape:original="M -42.09375 12.5 C -42.877224 12.5 -43.5 13.122774 -43.5 13.90625 L -43.5 15.5 L -32.5 26.5 C -31.5 27.500002 -31.022703 28.5 -25.5 28.5 C -20 28.500002 -19.5 27.5 -18.5 26.5 L -7.5 15.5 L -7.5 13.90625 C -7.5 13.122776 -8.122774 12.5 -8.90625 12.5 L -42.09375 12.5 z "
         inkscape:radius="-0.49218538"
         sodipodi:type="inkscape:offset" />
      <path
         sodipodi:nodetypes="ccssscccccc"
         id="path8441"
         d="M 7,15.5 L 17.15625,26.84375 C 17.625623,27.313124 18.0906,27.928734 19.125,28.34375 C 20.1594,28.758766 21.70864,29 24.5,29 C 27.280132,29.000001 28.838454,28.758369 29.875,28.34375 C 30.911546,27.929131 31.373047,27.314453 31.84375,26.84375 L 42,15.5 L 31.84375,25.84375 C 29.799743,27.813344 27.325503,28.115907 24.5,28 C 21.82915,27.95046 19.035697,28.00033 17.15625,25.84375 L 7,15.5 z "
         style="fill:#888a85;fill-opacity:1;fill-rule:evenodd;stroke:none;stroke-width:0.89999998;stroke-linecap:butt;stroke-linejoin:round;stroke-miterlimit:4;stroke-dasharray:none;stroke-opacity:1" />
      <path
         sodipodi:nodetypes="ccccccccc"
         id="path8443"
         d="M 7,15.5 L 17.15625,24.84375 C 19.035697,27.00033 21.82915,26.95046 24.5,27 C 27.325503,27.115907 29.799743,26.813344 31.84375,24.84375 L 42,15.5 L 31.84375,25.84375 C 29.799743,27.813344 27.325503,28.115907 24.5,28 C 21.82915,27.95046 19.035697,28.00033 17.15625,25.84375 L 7,15.5 z "
         style="fill:#ffffff;fill-opacity:1;fill-rule:evenodd;stroke:none;stroke-width:0.89999998;stroke-linecap:butt;stroke-linejoin:round;stroke-miterlimit:4;stroke-dasharray:none;stroke-opacity:1" />
      <path
         transform="translate(1,-42)"
         d="M 6.90625,55.5 C 6.6497165,55.5 6.5,55.649715 6.5,55.90625 L 6.5,78.09375 C 6.5,78.350281 6.6497152,78.499999 6.90625,78.5 L 40.09375,78.5 C 40.350281,78.5 40.5,78.350281 40.5,78.09375 L 40.5,55.90625 C 40.5,55.649717 40.350284,55.5 40.09375,55.5 L 6.90625,55.5 z "
         id="path8445"
         style="opacity:0.7;fill:none;fill-opacity:1;fill-rule:evenodd;stroke:#ffffff;stroke-width:0.99999988;stroke-linecap:butt;stroke-linejoin:round;stroke-miterlimit:4;stroke-dasharray:none;stroke-dashoffset:0.69999992;stroke-opacity:0.99236642"
         inkscape:original="M 6.90625 54.5 C 6.1227756 54.5 5.5 55.122774 5.5 55.90625 L 5.5 78.09375 C 5.5 78.877224 6.1227756 79.499998 6.90625 79.5 L 40.09375 79.5 C 40.877224 79.5 41.5 78.877224 41.5 78.09375 L 41.5 55.90625 C 41.5 55.122776 40.877226 54.5 40.09375 54.5 L 6.90625 54.5 z "
         inkscape:radius="-0.99436891"
         sodipodi:type="inkscape:offset" />
      <path
         sodipodi:nodetypes="ccccccc"
         id="path8447"
         d="M 7,32.90625 L 7,36.09375 C 7,36.614757 7.385241,36.999999 7.90625,37 L 41.09375,37 C 41.61476,37 42,36.614757 42,36.09375 L 42,32.90625 L 7,32.90625 z "
         style="opacity:0.55597014;fill:url(#linearGradient11713);fill-opacity:1;fill-rule:evenodd;stroke:none;stroke-width:0.99999988;stroke-linecap:butt;stroke-linejoin:round;stroke-miterlimit:4;stroke-dashoffset:0.69999992;stroke-opacity:0.99236642" />
    </g>
    <g
       id="g8607"
       style="opacity:0.9">
      <path
         sodipodi:nodetypes="cccccccccccccccccc"
         id="path8449"
         d="M 26.5,23.5 C 26.5,31.999999 24,33.500001 21,33.5 L 10.5,33.5 L 10.5,28 L 0.5,37.5 L 10.5,47 L 10.5,41.5 L 16,41.5 C 20.966535,41.5 25.679807,41.239592 28,34.84375 C 30.320193,41.239592 33.999349,41.5 37,41.5 L 37.5,41.5 L 37.5,47 L 47.5,37.5 L 37.5,28 L 37.5,33.5 L 35,33.5 C 32,33.500001 29.5,31.999999 29.5,23.5 L 26.5,23.5 z "
         style="opacity:1;fill:url(#linearGradient11691);fill-opacity:1;fill-rule:evenodd;stroke:url(#linearGradient11693);stroke-width:1px;stroke-linecap:butt;stroke-linejoin:round;stroke-opacity:1" />
      <path
         d="M 26.9375,23.96875 C 26.890015,27.960055 26.299081,30.460695 25.25,31.96875 C 24.156793,33.540236 22.578125,33.968751 21,33.96875 L 10.5,33.96875 C 10.241127,33.968724 10.031276,33.758873 10.03125,33.5 L 10.03125,29.09375 L 1.1875,37.5 L 10.03125,45.90625 L 10.03125,41.5 C 10.031276,41.241127 10.241127,41.031276 10.5,41.03125 L 16,41.03125 C 18.475075,41.03125 20.833837,40.943854 22.8125,40.125 C 24.791163,39.306146 26.436408,37.791684 27.5625,34.6875 C 27.632168,34.506522 27.806075,34.38712 28,34.38712 C 28.193925,34.38712 28.367832,34.506522 28.4375,34.6875 C 29.571205,37.812671 30.996693,39.353222 32.46875,40.15625 C 33.940807,40.959278 35.513234,41.03125 37,41.03125 L 37.5,41.03125 C 37.758873,41.031276 37.968724,41.241127 37.96875,41.5 L 37.96875,45.90625 L 46.8125,37.5 L 37.96875,29.09375 L 37.96875,33.5 C 37.968724,33.758873 37.758873,33.968724 37.5,33.96875 L 35,33.96875 C 33.421875,33.968751 31.843207,33.540236 30.75,31.96875 C 29.700919,30.460695 29.109985,27.960055 29.0625,23.96875 L 26.9375,23.96875 z "
         id="path8553"
         style="opacity:1;fill:url(#linearGradient11695);fill-opacity:1;fill-rule:evenodd;stroke:none;stroke-width:1px;stroke-linecap:butt;stroke-linejoin:round;stroke-opacity:1"
         inkscape:original="M 26.5 23.5 C 26.5 31.999999 24 33.500001 21 33.5 L 10.5 33.5 L 10.5 28 L 0.5 37.5 L 10.5 47 L 10.5 41.5 L 16 41.5 C 20.966535 41.5 25.679807 41.239592 28 34.84375 C 30.320193 41.239592 33.999349 41.5 37 41.5 L 37.5 41.5 L 37.5 47 L 47.5 37.5 L 37.5 28 L 37.5 33.5 L 35 33.5 C 32 33.500001 29.5 31.999999 29.5 23.5 L 26.5 23.5 z "
         inkscape:radius="-0.46875003"
         sodipodi:type="inkscape:offset" />
      <path
         d="M 27.40625,24.5 C 27.30412,28.168144 26.77471,30.687135 25.6875,32.25 C 24.488658,33.973336 22.666667,34.500001 21,34.5 L 10.5,34.5 C 9.9477381,34.499945 9.5000552,34.052262 9.5,33.5 L 9.5,30.3125 L 1.9375,37.5 L 9.5,44.6875 L 9.5,41.5 C 9.5000552,40.947738 9.9477381,40.500055 10.5,40.5 L 16,40.5 C 18.46579,40.5 20.771565,40.42328 22.625,39.65625 C 24.478435,38.88922 25.974947,37.497948 27.0625,34.5 C 27.208068,34.108151 27.581986,33.848173 28,33.848173 C 28.418014,33.848173 28.791932,34.108151 28.9375,34.5 C 30.041295,37.54272 31.374576,38.954234 32.71875,39.6875 C 34.062924,40.420766 35.528602,40.5 37,40.5 L 37.5,40.5 C 38.052262,40.500055 38.499945,40.947738 38.5,41.5 L 38.5,44.6875 L 46.0625,37.5 L 38.5,30.3125 L 38.5,33.5 C 38.499945,34.052262 38.052262,34.499945 37.5,34.5 L 35,34.5 C 33.333333,34.500001 31.511342,33.973336 30.3125,32.25 C 29.22529,30.687135 28.69588,28.168144 28.59375,24.5 L 27.40625,24.5 z "
         id="path8499"
         style="opacity:0.6;fill:none;fill-opacity:1;fill-rule:evenodd;stroke:url(#linearGradient11697);stroke-width:1px;stroke-linecap:butt;stroke-linejoin:miter;stroke-opacity:1"
         inkscape:original="M 26.5 23.5 C 26.5 31.999999 24 33.500001 21 33.5 L 10.5 33.5 L 10.5 28 L 0.5 37.5 L 10.5 47 L 10.5 41.5 L 16 41.5 C 20.966535 41.5 25.679807 41.239592 28 34.84375 C 30.320193 41.239592 33.999349 41.5 37 41.5 L 37.5 41.5 L 37.5 47 L 47.5 37.5 L 37.5 28 L 37.5 33.5 L 35 33.5 C 32 33.500001 29.5 31.999999 29.5 23.5 L 26.5 23.5 z "
         inkscape:radius="-1"
         sodipodi:type="inkscape:offset" />
      <path
         sodipodi:nodetypes="csccccccccccscscccc"
         id="path8548"
         d="M 27.40625,24.5 C 27.30412,28.168144 26.77471,30.687135 25.6875,32.25 C 24.488658,33.973336 22.666667,34.500001 21,34.5 L 10.5,34.5 C 9.9477381,34.499945 9.5000552,34.052262 9.5,33.5 L 9.5,30.3125 L 1.9375,37.5 M 46.0625,37.5 L 38.5,30.3125 L 38.5,33.5 C 38.499945,34.052262 38.052262,34.499945 37.5,34.5 L 35,34.5 C 33.333333,34.500001 31.511342,33.973336 30.3125,32.25 M 28.9375,34.5 C 30.041295,37.54272 31.374576,38.954234 32.71875,39.6875 C 34.062924,40.420766 35.528602,40.5 37,40.5 L 37.5,40.5 C 38.052262,40.500055 38.499945,40.947738 38.5,41.5 L 38.5,44.6875"
         style="opacity:0.5;fill:none;fill-opacity:1;fill-rule:evenodd;stroke:url(#linearGradient11699);stroke-width:1px;stroke-linecap:round;stroke-linejoin:miter;stroke-opacity:1" />
    </g>
  </g>
</svg>
