<?xml version="1.0" encoding="UTF-8" standalone="no"?>
<!-- Created with Inkscape (http://www.inkscape.org/) -->
<svg
   xmlns:dc="http://purl.org/dc/elements/1.1/"
   xmlns:cc="http://web.resource.org/cc/"
   xmlns:rdf="http://www.w3.org/1999/02/22-rdf-syntax-ns#"
   xmlns:svg="http://www.w3.org/2000/svg"
   xmlns="http://www.w3.org/2000/svg"
   xmlns:xlink="http://www.w3.org/1999/xlink"
   xmlns:sodipodi="http://sodipodi.sourceforge.net/DTD/sodipodi-0.dtd"
   xmlns:inkscape="http://www.inkscape.org/namespaces/inkscape"
   width="48"
   height="48"
   id="svg5157"
   sodipodi:version="0.32"
   inkscape:version="0.45"
   version="1.0"
   sodipodi:docname="system-log-out.svg"
   sodipodi:docbase="/home/dobey/Projects/gnome-icon-theme/scalable/actions"
   inkscape:output_extension="org.inkscape.output.svg.inkscape">
  <defs
     id="defs5159">
    <linearGradient
       inkscape:collect="always"
       id="linearGradient7130">
      <stop
         style="stop-color:#4e9a06;stop-opacity:1"
         offset="0"
         id="stop7132" />
      <stop
         style="stop-color:#73d216;stop-opacity:1"
         offset="1"
         id="stop7134" />
    </linearGradient>
    <linearGradient
       id="linearGradient7121">
      <stop
         style="stop-color:#ffffff;stop-opacity:1;"
         offset="0"
         id="stop7123" />
      <stop
         style="stop-color:#8ae234;stop-opacity:1"
         offset="1"
         id="stop7125" />
    </linearGradient>
    <linearGradient
       id="linearGradient6998"
       inkscape:collect="always">
      <stop
         id="stop7000"
         offset="0"
         style="stop-color:#000000;stop-opacity:1;" />
      <stop
         id="stop7002"
         offset="1"
         style="stop-color:#000000;stop-opacity:0;" />
    </linearGradient>
    <linearGradient
       inkscape:collect="always"
       xlink:href="#linearGradient7130"
       id="linearGradient7145"
       gradientUnits="userSpaceOnUse"
       x1="11.5"
       y1="68.75"
       x2="-13.247213"
       y2="21.843145" />
    <linearGradient
       inkscape:collect="always"
       xlink:href="#linearGradient7121"
       id="linearGradient7147"
       gradientUnits="userSpaceOnUse"
       x1="-33.040741"
       y1="10.966461"
       x2="-30.919424"
       y2="17.448257" />
    <radialGradient
       inkscape:collect="always"
       xlink:href="#linearGradient6998"
       id="radialGradient7161"
       gradientUnits="userSpaceOnUse"
       gradientTransform="matrix(1,0,0,0.3222749,0,20.728756)"
       cx="19.688505"
       cy="30.585787"
       fx="19.688505"
       fy="30.585787"
       r="4.6624851" />
    <radialGradient
       inkscape:collect="always"
       xlink:href="#linearGradient6998"
       id="radialGradient7163"
       gradientUnits="userSpaceOnUse"
       gradientTransform="matrix(1,0,0,0.3222749,0,20.728756)"
       cx="19.688505"
       cy="30.585787"
       fx="19.688505"
       fy="30.585787"
       r="4.6624851" />
  </defs>
  <sodipodi:namedview
     id="base"
     pagecolor="#ffffff"
     bordercolor="#666666"
     borderopacity="1.0"
     gridtolerance="10000"
     guidetolerance="10"
     objecttolerance="10"
     inkscape:pageopacity="0.0"
     inkscape:pageshadow="2"
     inkscape:zoom="1"
     inkscape:cx="197.95843"
     inkscape:cy="28.49025"
     inkscape:document-units="px"
     inkscape:current-layer="layer2"
     width="48px"
     height="48px"
     inkscape:window-width="872"
     inkscape:window-height="624"
     inkscape:window-x="684"
     inkscape:window-y="208"
     showborder="false"
     inkscape:showpageshadow="false"
     showgrid="false"
     showguides="true"
     inkscape:guide-bbox="true"
     gridspacingx="0.5px"
     gridspacingy="0.5px"
     gridempspacing="2"
     inkscape:grid-points="true" />
  <metadata
     id="metadata5162">
    <rdf:RDF>
      <cc:Work
         rdf:about="">
        <dc:format>image/svg+xml</dc:format>
        <dc:type
           rdf:resource="http://purl.org/dc/dcmitype/StillImage" />
        <dc:title>System-log-out</dc:title>
        <dc:date>2007-08-27</dc:date>
        <dc:creator>
          <cc:Agent>
            <dc:title>Lapo Calamandrei</dc:title>
          </cc:Agent>
        </dc:creator>
        <dc:source />
        <cc:license
           rdf:resource="http://creativecommons.org/licenses/GPL/2.0/" />
        <dc:contributor>
          <cc:Agent>
            <dc:title>Kalle Persson</dc:title>
          </cc:Agent>
        </dc:contributor>
        <dc:subject>
          <rdf:Bag>
            <rdf:li>logout</rdf:li>
            <rdf:li>exit</rdf:li>
            <rdf:li>man</rdf:li>
            <rdf:li>sign</rdf:li>
            <rdf:li>running</rdf:li>
          </rdf:Bag>
        </dc:subject>
      </cc:Work>
      <cc:License
         rdf:about="http://creativecommons.org/licenses/GPL/2.0/">
        <cc:permits
           rdf:resource="http://web.resource.org/cc/Reproduction" />
        <cc:permits
           rdf:resource="http://web.resource.org/cc/Distribution" />
        <cc:requires
           rdf:resource="http://web.resource.org/cc/Notice" />
        <cc:permits
           rdf:resource="http://web.resource.org/cc/DerivativeWorks" />
        <cc:requires
           rdf:resource="http://web.resource.org/cc/ShareAlike" />
        <cc:requires
           rdf:resource="http://web.resource.org/cc/SourceCode" />
      </cc:License>
    </rdf:RDF>
  </metadata>
  <g
     inkscape:label="shadow"
     inkscape:groupmode="layer"
     id="layer1"
     style="display:inline">
    <g
       id="g6227"
       transform="matrix(0.6759778,0,0,0.8422279,-72.059226,25.879981)"
       style="opacity:0.33000004" />
    <g
       id="g7008"
       style="opacity:0.5"
       transform="matrix(1.2209709,0,0,1.465165,4.32932,-3.7089664)">
      <path
         transform="matrix(1.356682,0,0,1.1785115,-7.0105312,-5.8165354)"
         d="M 24.35099 30.585787 A 4.6624851 1.5026019 0 1 1  15.02602,30.585787 A 4.6624851 1.5026019 0 1 1  24.35099 30.585787 z"
         sodipodi:ry="1.5026019"
         sodipodi:rx="4.6624851"
         sodipodi:cy="30.585787"
         sodipodi:cx="19.688505"
         id="path6984"
         style="opacity:0.5;fill:url(#radialGradient7161);fill-opacity:1;fill-rule:evenodd;stroke:none;stroke-width:0.80000001;stroke-linecap:round;stroke-linejoin:round;stroke-miterlimit:4;stroke-dasharray:none;stroke-dashoffset:0.69999992;stroke-opacity:1"
         sodipodi:type="arc" />
      <path
         transform="matrix(3.7061179,0,0,1.3310245,-58.247641,-11.710432)"
         d="M 24.35099 30.585787 A 4.6624851 1.5026019 0 1 1  15.02602,30.585787 A 4.6624851 1.5026019 0 1 1  24.35099 30.585787 z"
         sodipodi:ry="1.5026019"
         sodipodi:rx="4.6624851"
         sodipodi:cy="30.585787"
         sodipodi:cx="19.688505"
         id="path6986"
         style="opacity:0.25;fill:url(#radialGradient7163);fill-opacity:1;fill-rule:evenodd;stroke:none;stroke-width:0.80000001;stroke-linecap:round;stroke-linejoin:round;stroke-miterlimit:4;stroke-dasharray:none;stroke-dashoffset:0.69999992;stroke-opacity:1"
         sodipodi:type="arc" />
    </g>
  </g>
  <g
     inkscape:groupmode="layer"
     id="layer2"
     inkscape:label="omino">
    <g
       id="g7138"
       transform="translate(40,0)">
      <g
         id="g7094">
        <path
           id="path5955"
           d="M -7.5,5.5 C -9.708,5.5 -11.5,7.292 -11.5,9.5 C -11.5,11.708 -9.7080001,13.5 -7.5,13.5 C -5.292,13.5 -3.5000001,11.708 -3.5,9.5 C -3.5,7.292 -5.2920001,5.5 -7.5,5.5 z M -20.6875,11.5 C -21.228728,11.552698 -21.725172,11.823486 -22.0625,12.25 L -26.0625,17.25 C -26.752856,18.112945 -26.612945,19.372144 -25.75,20.0625 C -24.887055,20.752856 -23.627856,20.612945 -22.9375,19.75 L -19.53125,15.5 L -15.75,15.5 L -22.1875,23.3125 C -22.420945,23.645583 -22.50685,24.06221 -22.5,24.5 L -22.5,31.5 L -30.5,31.5 L -30.5,35.5 L -20.5,35.5 C -19.395476,35.49989 -18.50011,34.604524 -18.5,33.5 L -18.5,27.3125 L -13.5,32.3125 L -13.5,40.5 L -9.5,40.5 L -9.5,31.5 L -9.5,30.65625 L -10.09375,30.09375 L -14.84375,25.34375 L -11.5,21.28125 L -11.5,22.5 C -11.49989,23.604524 -10.604524,24.49989 -9.5,24.5 L -2.5,24.5 C -1.778728,24.510201 -1.113613,24.122995 -0.75,23.5 C -0.386387,22.877006 -0.386387,22.122995 -0.75,21.5 C -1.113613,20.877004 -1.778728,20.489799 -2.5,20.5 L -7.5,20.5 L -7.5,16 C -10.390638,16 -12.843604,14.110886 -13.6875,11.5 L -20.5,11.5 C -20.562466,11.497069 -20.625034,11.497069 -20.6875,11.5 z "
           style="opacity:1;fill:url(#linearGradient7145);fill-opacity:1;fill-rule:evenodd;stroke:#4e9a06;stroke-width:1;stroke-linecap:round;stroke-linejoin:round;stroke-miterlimit:4;stroke-dasharray:none;stroke-opacity:1;display:inline" />
      </g>
      <path
         d="M -20.625,12.5 C -20.883516,12.532601 -21.119099,12.669978 -21.28125,12.875 L -25.28125,17.875 C -25.632167,18.313646 -25.563646,18.930333 -25.125,19.28125 C -24.686354,19.632167 -24.069667,19.563646 -23.71875,19.125 L -20.3125,14.875 C -20.122073,14.638438 -19.834933,14.500611 -19.53125,14.5 L -15.75,14.5 C -15.36741,14.504084 -15.020291,14.724946 -14.854508,15.069775 C -14.688724,15.414605 -14.733008,15.823641 -14.96875,16.125 L -21.375,23.875 C -21.378721,23.880309 -21.37135,23.900494 -21.375,23.90625 L -21.40625,23.9375 C -21.46879,24.048638 -21.50412,24.205427 -21.5,24.46875 C -21.499838,24.479166 -21.499838,24.489584 -21.5,24.5 L -21.5,31.5 C -21.503016,32.051031 -21.948969,32.496984 -22.5,32.5 L -29.5,32.5 L -29.5,34.5 L -20.5,34.5 C -19.938773,34.499944 -19.500056,34.061227 -19.5,33.5 L -19.5,27.3125 C -19.504078,26.903415 -19.259899,26.532643 -18.882467,26.374807 C -18.505035,26.216972 -18.069603,26.303544 -17.78125,26.59375 L -12.78125,31.59375 C -12.595622,31.786381 -12.494406,32.045043 -12.5,32.3125 L -12.5,39.5 L -10.5,39.5 L -10.5,31.5 L -10.5,31.09375 L -10.78125,30.8125 C -10.791666,30.812662 -10.802084,30.812662 -10.8125,30.8125 L -15.5625,26.0625 C -15.923992,25.696513 -15.95096,25.116711 -15.625,24.71875 L -12.28125,20.65625 C -12.013038,20.330928 -11.570348,20.207488 -11.172497,20.347084 C -10.774646,20.486681 -10.506139,20.859664 -10.5,21.28125 L -10.5,22.5 C -10.499944,23.061227 -10.061227,23.499944 -9.5,23.5 L -2.5,23.5 C -2.1471898,23.50499 -1.8109749,23.318639 -1.625,23 C -1.439414,22.682027 -1.4394134,22.317974 -1.625,22 C -1.8109749,21.68136 -2.1471889,21.49501 -2.5,21.5 L -7.5,21.5 C -8.0510308,21.496984 -8.4969843,21.051031 -8.5,20.5 L -8.5,16.84375 C -11.109944,16.483168 -13.278833,14.83457 -14.3125,12.5 L -20.5,12.5 C -20.520828,12.500648 -20.541672,12.500648 -20.5625,12.5 C -20.578034,12.499271 -20.578204,12.5 -20.59375,12.5 C -20.609296,12.5 -20.609466,12.499271 -20.625,12.5 z "
         id="path7104"
         style="opacity:1;fill:none;fill-opacity:1;fill-rule:evenodd;stroke:#8ae234;stroke-width:1;stroke-linecap:round;stroke-linejoin:miter;stroke-miterlimit:4;stroke-dasharray:none;stroke-opacity:1;display:inline"
         inkscape:original="M -20.6875 11.5 C -21.228728 11.552698 -21.725172 11.823486 -22.0625 12.25 L -26.0625 17.25 C -26.752856 18.112945 -26.612945 19.372144 -25.75 20.0625 C -24.887055 20.752856 -23.627856 20.612945 -22.9375 19.75 L -19.53125 15.5 L -15.75 15.5 L -22.1875 23.3125 C -22.420945 23.645583 -22.50685 24.06221 -22.5 24.5 L -22.5 31.5 L -30.5 31.5 L -30.5 35.5 L -20.5 35.5 C -19.395476 35.49989 -18.50011 34.604524 -18.5 33.5 L -18.5 27.3125 L -13.5 32.3125 L -13.5 40.5 L -9.5 40.5 L -9.5 31.5 L -9.5 30.65625 L -10.09375 30.09375 L -14.84375 25.34375 L -11.5 21.28125 L -11.5 22.5 C -11.49989 23.604524 -10.604524 24.49989 -9.5 24.5 L -2.5 24.5 C -1.778728 24.510201 -1.113613 24.122995 -0.75 23.5 C -0.386387 22.877006 -0.386387 22.122995 -0.75 21.5 C -1.113613 20.877004 -1.778728 20.489799 -2.5 20.5 L -7.5 20.5 L -7.5 16 C -10.390638 16 -12.843604 14.110886 -13.6875 11.5 L -20.5 11.5 C -20.562466 11.497069 -20.625034 11.497069 -20.6875 11.5 z "
         inkscape:radius="-1.0054175"
         sodipodi:type="inkscape:offset" />
      <path
         sodipodi:nodetypes="cccccccsscccscccccccccccccsccccc"
         id="path7106"
         d="M -1.625,22 C -1.810975,21.68136 -2.147189,21.49501 -2.5,21.5 L -7.5,21.5 C -8.051031,21.496984 -8.496984,21.051031 -8.5,20.5 L -8.5,16.84375 C -11.109944,16.483168 -13.278833,14.83457 -14.3125,12.5 L -20.5,12.5 C -20.520828,12.500648 -20.541672,12.500648 -20.5625,12.5 C -20.578034,12.499271 -20.578204,12.5 -20.59375,12.5 C -20.609296,12.5 -20.609466,12.499271 -20.625,12.5 C -20.883516,12.532601 -21.119099,12.669978 -21.28125,12.875 L -25.28125,17.875 C -25.632167,18.313646 -25.563646,18.930333 -25.125,19.28125 M -10.5,31.5 L -10.5,31.09375 L -10.78125,30.8125 C -10.791666,30.812662 -10.802084,30.812662 -10.8125,30.8125 L -15.5625,26.0625 C -15.923992,25.696513 -15.95096,25.116711 -15.625,24.71875 M -12.5,32.3125 L -12.5,39.5 M -14.854508,15.069775 C -14.688724,15.414605 -14.733008,15.823641 -14.96875,16.125 L -21.375,23.875 C -21.378721,23.880309 -21.37135,23.900494 -21.375,23.90625 L -21.40625,23.9375 C -21.46879,24.048638 -21.50412,24.205427 -21.5,24.46875 C -21.499838,24.479166 -21.499838,24.489584 -21.5,24.5 L -21.5,31.5 C -21.503016,32.051031 -21.948969,32.496984 -22.5,32.5 L -29.5,32.5 L -29.5,34.5"
         style="opacity:0.3;fill:none;fill-opacity:1;fill-rule:evenodd;stroke:#ffffff;stroke-width:1;stroke-linecap:round;stroke-linejoin:miter;stroke-miterlimit:4;stroke-opacity:1;display:inline" />
      <path
         inkscape:export-ydpi="90"
         inkscape:export-xdpi="90"
         inkscape:export-filename="/home/kalle/Desktop/system-log-out.png"
         sodipodi:type="arc"
         style="color:#000000;fill:none;fill-opacity:1;fill-rule:nonzero;stroke:url(#linearGradient7147);stroke-width:0.6666649;stroke-linecap:round;stroke-linejoin:round;marker:none;marker-start:none;marker-mid:none;marker-end:none;stroke-miterlimit:4;stroke-dasharray:none;stroke-dashoffset:0;stroke-opacity:1;visibility:visible;display:inline;overflow:visible;enable-background:accumulate"
         id="path7119"
         sodipodi:cx="-31.5"
         sodipodi:cy="16"
         sodipodi:rx="2"
         sodipodi:ry="2"
         d="M -29.5 16 A 2 2 0 1 1  -33.5,16 A 2 2 0 1 1  -29.5 16 z"
         transform="matrix(1.500004,0,0,1.500004,39.750134,-14.500064)" />
    </g>
    <g
       id="g7055"
       transform="translate(130,0)">
      <path
         sodipodi:nodetypes="ccc"
         id="path7045"
         d="M -28.5,33.5 L -20.5,33.5 L -20.5,24.5"
         style="opacity:0.4089219;fill:none;fill-rule:evenodd;stroke:#000000;stroke-width:4;stroke-linecap:round;stroke-linejoin:round;stroke-miterlimit:4;stroke-dasharray:none;stroke-opacity:1;display:inline" />
      <path
         sodipodi:nodetypes="ccc"
         id="path7047"
         d="M -24.5,18.5 L -20.5,13.5 L -11.5,13.5"
         style="opacity:0.5;fill:none;fill-rule:evenodd;stroke:#000000;stroke-width:4;stroke-linecap:round;stroke-linejoin:round;stroke-miterlimit:4;stroke-dasharray:none;stroke-opacity:1" />
      <path
         sodipodi:nodetypes="ccc"
         id="path7049"
         d="M -2.5,22.5 L -9.5,22.5 L -9.5,13.5"
         style="opacity:0.5;fill:none;fill-rule:evenodd;stroke:#000000;stroke-width:4;stroke-linecap:round;stroke-linejoin:round;stroke-miterlimit:4;stroke-dasharray:none;stroke-opacity:1" />
      <path
         sodipodi:nodetypes="ccc"
         id="path7051"
         d="M -11.5,38.5 L -11.5,31.5 L -18.5,24.5"
         style="opacity:0.5;fill:none;fill-rule:evenodd;stroke:#000000;stroke-width:4;stroke-linecap:round;stroke-linejoin:miter;stroke-miterlimit:4;stroke-dasharray:none;stroke-opacity:1" />
      <path
         sodipodi:nodetypes="cc"
         id="path7053"
         d="M -10,14 L -19.5,25.5"
         style="opacity:0.5;fill:none;fill-rule:evenodd;stroke:#000000;stroke-width:7;stroke-linecap:butt;stroke-linejoin:miter;stroke-miterlimit:4;stroke-dasharray:none;stroke-opacity:1" />
    </g>
  </g>
</svg>
