<?xml version="1.0" encoding="UTF-8" standalone="no"?>
<!-- Created with Inkscape (http://www.inkscape.org/) -->
<svg
   xmlns:i="http://ns.adobe.com/AdobeIllustrator/10.0/"
   xmlns:dc="http://purl.org/dc/elements/1.1/"
   xmlns:cc="http://web.resource.org/cc/"
   xmlns:rdf="http://www.w3.org/1999/02/22-rdf-syntax-ns#"
   xmlns:svg="http://www.w3.org/2000/svg"
   xmlns="http://www.w3.org/2000/svg"
   xmlns:xlink="http://www.w3.org/1999/xlink"
   xmlns:sodipodi="http://inkscape.sourceforge.net/DTD/s odipodi-0.dtd"
   xmlns:inkscape="http://www.inkscape.org/namespaces/inkscape"
   width="24"
   height="24"
   id="svg18269"
   sodipodi:version="0.32"
   inkscape:version="0.43"
   version="1.0"
   sodipodi:docbase="/home/andreas/projekt/tango/22"
   sodipodi:docname="certificate.svg"
   inkscape:export-filename="/home/andreas/projekt/tango/24/certificate.png"
   inkscape:export-xdpi="90"
   inkscape:export-ydpi="90">
  <defs
     id="defs18271">
    <linearGradient
       id="linearGradient9590">
      <stop
         style="stop-color:#eaeaea;stop-opacity:1;"
         offset="0"
         id="stop9592" />
      <stop
         style="stop-color:#ffffff;stop-opacity:1;"
         offset="1"
         id="stop9594" />
    </linearGradient>
    <linearGradient
       inkscape:collect="always"
       xlink:href="#linearGradient9590"
       id="linearGradient23123"
       gradientUnits="userSpaceOnUse"
       gradientTransform="matrix(0.301224,0,0,0.301224,328.4742,682.067)"
       x1="-500.67075"
       y1="-2282.6199"
       x2="-500.67075"
       y2="-2060.9878" />
    <linearGradient
       inkscape:collect="always"
       xlink:href="#linearGradient9590"
       id="linearGradient1356"
       gradientUnits="userSpaceOnUse"
       gradientTransform="matrix(9.125781e-2,0,0,9.374382e-2,95.85095,188.2426)"
       x1="-500.67075"
       y1="-2282.6199"
       x2="-500.67075"
       y2="-2060.9878" />
    <linearGradient
       inkscape:collect="always"
       xlink:href="#linearGradient9590"
       id="linearGradient4290"
       gradientUnits="userSpaceOnUse"
       gradientTransform="matrix(4.459545e-2,0,0,4.526733e-2,34.20433,105.5245)"
       x1="-500.67075"
       y1="-2282.6199"
       x2="-500.67075"
       y2="-2060.9878" />
  </defs>
  <sodipodi:namedview
     id="base"
     pagecolor="#ffffff"
     bordercolor="#666666"
     borderopacity="1.0"
     inkscape:pageopacity="0.0"
     inkscape:pageshadow="2"
     inkscape:zoom="2.8284271"
     inkscape:cx="18.295942"
     inkscape:cy="8.6708797"
     inkscape:document-units="px"
     inkscape:current-layer="g4270"
     inkscape:window-width="1264"
     inkscape:window-height="945"
     inkscape:window-x="6"
     inkscape:window-y="25"
     showgrid="false"
     stroke="#888a85"
     fill="#729fcf"
     showguides="true"
     inkscape:guide-bbox="true" />
  <metadata
     id="metadata18274">
    <rdf:RDF>
      <cc:Work
         rdf:about="">
        <dc:format>image/svg+xml</dc:format>
        <dc:type
           rdf:resource="http://purl.org/dc/dcmitype/StillImage" />
      </cc:Work>
    </rdf:RDF>
  </metadata>
  <g
     inkscape:label="Layer 1"
     inkscape:groupmode="layer"
     id="layer1">
    <g
       id="g4238"
       transform="matrix(0.528897,0,0,0.302775,-83.73038,45.01561)"
       inkscape:r_cx="true"
       inkscape:r_cy="true"
       style="opacity:0.4">
      <path
         inkscape:r_cy="true"
         inkscape:r_cx="true"
         id="path4240"
         style="opacity:0.04787233;fill-rule:evenodd;stroke-width:3pt"
         d="M 162.36286,-88.911137 C 160.1183,-88.911137 158.3113,-86.711005 158.3113,-83.978106 C 158.3113,-81.245207 160.1183,-79.045075 162.36286,-79.045075 L 199.63718,-79.045075 C 201.88174,-79.045075 203.68873,-81.245207 203.68873,-83.978106 C 203.68873,-86.711005 201.88174,-88.911137 199.63718,-88.911137 L 162.36286,-88.911137 z " />
      <path
         inkscape:r_cy="true"
         inkscape:r_cx="true"
         id="path4242"
         style="opacity:0.04787233;fill-rule:evenodd;stroke-width:3pt"
         d="M 162.36286,-88.582269 C 160.26794,-88.582269 158.58141,-86.528812 158.58141,-83.978106 C 158.58141,-81.4274 160.26794,-79.373944 162.36286,-79.373944 L 199.63718,-79.373944 C 201.7321,-79.373944 203.41863,-81.4274 203.41863,-83.978106 C 203.41863,-86.528812 201.7321,-88.582269 199.63718,-88.582269 L 162.36286,-88.582269 z " />
      <path
         inkscape:r_cy="true"
         inkscape:r_cx="true"
         id="path4244"
         style="opacity:0.04787233;fill-rule:evenodd;stroke-width:3pt"
         d="M 162.36286,-88.2534 C 160.41757,-88.2534 158.85151,-86.346619 158.85151,-83.978106 C 158.85151,-81.609593 160.41757,-79.702812 162.36286,-79.702812 L 199.63718,-79.702812 C 201.58246,-79.702812 203.14853,-81.609593 203.14853,-83.978106 C 203.14853,-86.346619 201.58246,-88.2534 199.63718,-88.2534 L 162.36286,-88.2534 z " />
      <path
         inkscape:r_cy="true"
         inkscape:r_cx="true"
         id="path4246"
         style="opacity:0.04787233;fill-rule:evenodd;stroke-width:3pt"
         d="M 162.36286,-87.924531 C 160.56721,-87.924531 159.12162,-86.164426 159.12162,-83.978106 C 159.12162,-81.791787 160.56721,-80.031681 162.36286,-80.031681 L 199.63718,-80.031681 C 201.43283,-80.031681 202.87842,-81.791787 202.87842,-83.978106 C 202.87842,-86.164426 201.43283,-87.924531 199.63718,-87.924531 L 162.36286,-87.924531 z " />
      <path
         inkscape:r_cy="true"
         inkscape:r_cx="true"
         id="path4248"
         style="opacity:0.04787233;fill-rule:evenodd;stroke-width:3pt"
         d="M 162.36309,-87.595662 C 160.71708,-87.595662 159.39195,-85.982232 159.39195,-83.978106 C 159.39195,-81.97398 160.71708,-80.36055 162.36309,-80.36055 L 199.63707,-80.36055 C 201.28308,-80.36055 202.60821,-81.97398 202.60821,-83.978106 C 202.60821,-85.982232 201.28308,-87.595662 199.63707,-87.595662 L 162.36309,-87.595662 z " />
      <path
         inkscape:r_cy="true"
         inkscape:r_cx="true"
         id="path4250"
         style="opacity:0.04787233;fill-rule:evenodd;stroke-width:3pt"
         d="M 162.36286,-87.266794 C 160.86649,-87.266794 159.66182,-85.800039 159.66182,-83.978106 C 159.66182,-82.156173 160.86649,-80.689419 162.36286,-80.689419 L 199.63718,-80.689419 C 201.13355,-80.689419 202.33821,-82.156173 202.33821,-83.978106 C 202.33821,-85.800039 201.13355,-87.266794 199.63718,-87.266794 L 162.36286,-87.266794 z " />
      <path
         inkscape:r_cy="true"
         inkscape:r_cx="true"
         id="path4252"
         style="opacity:0.04787233;fill-rule:evenodd;stroke-width:3pt"
         d="M 162.36286,-86.937925 C 161.01612,-86.937925 159.93193,-85.617846 159.93193,-83.978106 C 159.93193,-82.338367 161.01612,-81.018287 162.36286,-81.018287 L 199.63718,-81.018287 C 200.98391,-81.018287 202.06811,-82.338367 202.06811,-83.978106 C 202.06811,-85.617846 200.98391,-86.937925 199.63718,-86.937925 L 162.36286,-86.937925 z " />
      <path
         inkscape:r_cy="true"
         inkscape:r_cx="true"
         id="path4254"
         style="opacity:0.04787233;fill-rule:evenodd;stroke-width:3pt"
         d="M 162.36286,-86.609056 C 161.16576,-86.609056 160.20203,-85.435652 160.20203,-83.978106 C 160.20203,-82.52056 161.16576,-81.347156 162.36286,-81.347156 L 199.63718,-81.347156 C 200.83428,-81.347156 201.79801,-82.52056 201.79801,-83.978106 C 201.79801,-85.435652 200.83428,-86.609056 199.63718,-86.609056 L 162.36286,-86.609056 z " />
    </g>
    <rect
       ry="0.77628338"
       y="2.5993679"
       x="1.3738292"
       height="16.903473"
       width="21.005804"
       id="rect4256"
       style="color:#000000;fill:url(#linearGradient4290);fill-opacity:1;fill-rule:nonzero;stroke:#777974;stroke-width:1.00000024;stroke-linecap:square;stroke-linejoin:miter;marker:none;marker-start:none;marker-mid:none;marker-end:none;stroke-miterlimit:4;stroke-dasharray:none;stroke-dashoffset:0;stroke-opacity:1;visibility:visible;display:inline;overflow:visible"
       rx="0.77628297" />
    <g
       id="g4260"
       transform="matrix(0.215313,3.093973e-2,-3.931461e-3,0.210275,-96.26799,-17.53766)">
      <path
         style="fill:none;stroke:#1d3f99;stroke-width:2.80751991;stroke-linecap:round;stroke-linejoin:round;stroke-miterlimit:3.86369991"
         id="path4262"
         d="M 474.25,81.922 C 474.28,82.283 474.334,82.875 474.334,82.875 C 474.334,82.875 474.403,81.798 473.923,81.718 C 472.88,81.553 472.334,83.058 471.98,84.151 C 471.486,85.66 471.888,87.31 473.359,87.539 C 475.113,87.817 477.832,85.159 477.832,85.159 C 477.832,85.159 477.489,85.437 477.43,85.66 C 477.337,85.947 477.147,86.369 477.171,86.418 C 477.193,86.455 477.452,86.458 477.627,86.489 C 478.122,86.565 478.687,86.224 478.847,85.714 C 478.985,85.297 479.19,84.681 479.19,84.681 C 479.19,84.681 478.976,84.98 478.915,85.167 C 478.779,85.576 479.205,85.793 479.602,85.857 C 480.273,85.966 481.204,84.836 481.255,84.84 C 481.324,84.847 481.538,85.409 481.888,85.463 C 482.399,85.548 483.032,84.888 483.244,84.901 C 483.306,84.905 483.366,85.174 483.534,85.204 C 484.113,85.296 485.02,84.547 485.072,84.585 C 485.232,84.71 485.333,86.061 485.316,87.117"
         stroke-miterlimit="3.8637"
         i:knockout="Off" />
      <path
         style="fill:none;stroke:#1d3f99;stroke-width:2.80751991;stroke-linecap:round;stroke-linejoin:round;stroke-miterlimit:3.86369991"
         id="path4264"
         d="M 487.965,80.738 C 487.616,82.026 487.661,82.795 487.371,84.087"
         stroke-miterlimit="3.8637"
         i:knockout="Off" />
      <path
         style="fill:none;stroke:#1d3f99;stroke-width:2.80751991;stroke-linecap:round;stroke-linejoin:round;stroke-miterlimit:3.86369991"
         id="path4266"
         d="M 487.707,81.308 C 487.556,81.515 487.472,81.62 487.311,81.826 C 488.401,81.436 490.032,80.784 490.093,80.843 C 490.099,80.857 490.177,81.052 490.13,81.2 C 489.857,82.038 488.987,83.221 488.987,83.221 C 489.055,83.304 492.049,82.234 492.316,82.456 C 492.37,82.503 492.416,82.885 492.333,83.153 C 492.18,83.625 491.937,83.843 491.639,84.256 C 491.746,84.233 491.799,84.232 491.907,84.212"
         stroke-miterlimit="3.8637"
         i:knockout="Off" />
      <path
         style="fill:none;stroke:#1d3f99;stroke-width:2.80751991;stroke-linecap:round;stroke-linejoin:round;stroke-miterlimit:3.86369991"
         id="path4268"
         d="M 493.933,81.351 C 493.834,81.468 493.796,81.523 493.698,81.639 C 494.512,81.553 494.946,81.075 495.724,80.964 C 495.472,81.739 495.35,82.13 495.106,82.905 C 495.938,82.002 497.183,80.74 497.417,80.802 C 497.592,80.842 497.378,82.657 497.477,82.676 C 497.905,82.751 501.106,79.522 501.357,79.613 C 501.585,79.697 500.732,82.204 501.798,82.37 C 502.666,82.516 503.917,80.981 503.917,80.981 C 503.917,80.981 503.513,81.379 503.284,81.66 C 503.397,81.713 503.451,81.743 503.574,81.795 C 504.35,81.514 504.816,81.175 505.6,80.909 C 505.531,81.11 505.508,81.199 505.44,81.398 C 505.553,81.43 505.607,81.516 505.752,81.543 C 506.514,81.653 507.794,80.825 507.794,80.825 C 507.824,80.842 507.619,81.491 507.9,81.535 C 509.28,81.758 510.221,81.042 511.642,80.483"
         stroke-miterlimit="3.8637"
         i:knockout="Off" />
    </g>
    <g
       id="g4270"
       transform="matrix(5.088341e-2,0,0,5.116989e-2,62.80899,117.0024)">
      <path
         sodipodi:type="star"
         style="color:#000000;fill:#f7f999;fill-opacity:1;fill-rule:nonzero;stroke:#f2c101;stroke-width:78.94178009;stroke-linecap:square;stroke-linejoin:miter;marker:none;marker-start:none;marker-mid:none;marker-end:none;stroke-miterlimit:4;stroke-dasharray:none;stroke-dashoffset:0;stroke-opacity:1;visibility:visible;display:inline;overflow:visible"
         id="path4272"
         sodipodi:sides="9"
         sodipodi:cx="-2073.0457"
         sodipodi:cy="-1596.6304"
         sodipodi:r1="209.7282"
         sodipodi:r2="180.36626"
         sodipodi:arg1="0.84055688"
         sodipodi:arg2="1.1896227"
         inkscape:flatsided="false"
         inkscape:rounded="0.38"
         inkscape:randomized="0"
         d="M -1933.1469,-1440.3798 C -1953.9984,-1421.7104 -1979.9683,-1439.6211 -2005.9476,-1429.2092 C -2031.9269,-1418.7974 -2038.3393,-1387.9088 -2066.3129,-1387.0103 C -2094.2865,-1386.1118 -2102.6679,-1416.5253 -2129.2618,-1425.2485 C -2155.8557,-1433.9718 -2180.6227,-1414.4315 -2202.6293,-1431.7243 C -2224.6358,-1449.0172 -2211.5069,-1477.7027 -2226.2718,-1501.4793 C -2241.0367,-1525.2559 -2272.5696,-1526.2072 -2278.312,-1553.5998 C -2284.0544,-1580.9924 -2255.5584,-1594.5277 -2251.5856,-1622.2323 C -2247.6129,-1649.937 -2271.1571,-1670.9346 -2257.9484,-1695.6097 C -2244.7397,-1720.2848 -2214.2101,-1712.3365 -2193.3586,-1731.0059 C -2172.5071,-1749.6752 -2177.046,-1780.8943 -2151.0667,-1791.3061 C -2125.0874,-1801.7179 -2106.8094,-1776.0052 -2078.8358,-1776.9037 C -2050.8622,-1777.8021 -2034.272,-1804.6348 -2007.6781,-1795.9116 C -1981.0842,-1787.1883 -1983.6103,-1755.7424 -1961.6037,-1738.4496 C -1939.5972,-1721.1568 -1909.6406,-1731.0478 -1894.8757,-1707.2711 C -1880.1108,-1683.4945 -1902.259,-1661.0293 -1896.5166,-1633.6367 C -1890.7742,-1606.2441 -1861.4683,-1594.5653 -1865.441,-1566.8607 C -1869.4138,-1539.156 -1900.8206,-1536.1833 -1914.0293,-1511.5082 C -1927.238,-1486.8331 -1912.2954,-1459.0492 -1933.1469,-1440.3798 z "
         transform="matrix(0.236918,0,0,0.238208,-411.8839,-1632.095)" />
      <g
         transform="matrix(0.563723,0,0,0.578094,-393.76,-848.4303)"
         id="g4274">
        <path
           transform="matrix(1.162924,0,0,1.162924,226.5602,-739.689)"
           d="M -941.13729 -1093.3582 A 29.97831 29.069878 0 1 1  -1001.0939,-1093.3582 A 29.97831 29.069878 0 1 1  -941.13729 -1093.3582 z"
           sodipodi:ry="29.069878"
           sodipodi:rx="29.97831"
           sodipodi:cy="-1093.3582"
           sodipodi:cx="-971.1156"
           id="path4276"
           style="color:#000000;fill:#fdce15;fill-opacity:1;fill-rule:nonzero;stroke:none;stroke-width:6.25;stroke-linecap:round;stroke-linejoin:round;marker:none;marker-start:none;marker-mid:none;marker-end:none;stroke-miterlimit:4;stroke-dasharray:none;stroke-dashoffset:0;stroke-opacity:1;visibility:visible;display:inline;overflow:visible"
           sodipodi:type="arc" />
        <path
           transform="matrix(0.581452,0,0,0.581452,-355.5476,-1392.35)"
           d="M -941.13729 -1093.3582 A 29.97831 29.069878 0 1 1  -1001.0939,-1093.3582 A 29.97831 29.069878 0 1 1  -941.13729 -1093.3582 z"
           sodipodi:ry="29.069878"
           sodipodi:rx="29.97831"
           sodipodi:cy="-1093.3582"
           sodipodi:cx="-971.1156"
           id="path5167"
           style="color:#000000;fill:#ffffff;fill-opacity:1;fill-rule:nonzero;stroke:none;stroke-width:6.25;stroke-linecap:round;stroke-linejoin:round;marker:none;marker-start:none;marker-mid:none;marker-end:none;stroke-miterlimit:4;stroke-dasharray:none;stroke-dashoffset:0;stroke-opacity:1;visibility:visible;display:inline;overflow:visible"
           sodipodi:type="arc" />
      </g>
    </g>
    <rect
       ry="0"
       y="3.5551805"
       x="2.3495924"
       height="14.948914"
       width="19.056528"
       id="rect4280"
       style="color:#000000;fill:none;fill-opacity:1;fill-rule:nonzero;stroke:#ffffff;stroke-width:1.00000107;stroke-linecap:butt;stroke-linejoin:miter;marker:none;marker-start:none;marker-mid:none;marker-end:none;stroke-miterlimit:4;stroke-dasharray:none;stroke-dashoffset:0;stroke-opacity:1;visibility:visible;display:inline;overflow:visible"
       rx="0" />
    <path
       style="fill:none;fill-opacity:0.75;fill-rule:evenodd;stroke:#888a85;stroke-width:1.00000083px;stroke-linecap:round;stroke-linejoin:miter;stroke-opacity:1"
       d="M 5.3778627,7.5954982 L 17.693903,7.5954982"
       id="path4282" />
    <path
       style="fill:none;fill-opacity:0.75;fill-rule:evenodd;stroke:#888a85;stroke-width:1.00000107px;stroke-linecap:round;stroke-linejoin:miter;stroke-opacity:1"
       d="M 7.5000005,9.5954981 L 16.377861,9.5954981"
       id="path4284" />
    <path
       style="fill:none;fill-opacity:0.75;fill-rule:evenodd;stroke:#888a85;stroke-width:1.00000083px;stroke-linecap:round;stroke-linejoin:miter;stroke-opacity:1"
       d="M 5.8736481,11.595499 L 11.941285,11.595499"
       id="path4286" />
    <rect
       style="opacity:1;fill:none;fill-opacity:1;fill-rule:nonzero;stroke:#729fcf;stroke-width:1.0000006;stroke-linecap:round;stroke-linejoin:round;stroke-miterlimit:4;stroke-dasharray:none;stroke-dashoffset:0;stroke-opacity:1"
       id="rect4292"
       width="16.937323"
       height="12.956161"
       x="3.4397116"
       y="4.5981994" />
  </g>
</svg>
