<?xml version="1.0" encoding="UTF-8" standalone="no"?>
<!-- Created with Inkscape (http://www.inkscape.org/) -->
<svg
   xmlns:dc="http://purl.org/dc/elements/1.1/"
   xmlns:cc="http://creativecommons.org/ns#"
   xmlns:rdf="http://www.w3.org/1999/02/22-rdf-syntax-ns#"
   xmlns:svg="http://www.w3.org/2000/svg"
   xmlns="http://www.w3.org/2000/svg"
   xmlns:xlink="http://www.w3.org/1999/xlink"
   xmlns:sodipodi="http://sodipodi.sourceforge.net/DTD/sodipodi-0.dtd"
   xmlns:inkscape="http://www.inkscape.org/namespaces/inkscape"
   width="22"
   height="22"
   id="svg2"
   sodipodi:version="0.32"
   inkscape:version="0.45+0.46pre0"
   version="1.0"
   sodipodi:docbase="/home/lapo/Modelli"
   sodipodi:docname="text-x-generic-template.svg"
   inkscape:output_extension="org.inkscape.output.svg.inkscape">
  <defs
     id="defs4">
    <linearGradient
       inkscape:collect="always"
       id="linearGradient5852">
      <stop
         style="stop-color:#ffffff;stop-opacity:1;"
         offset="0"
         id="stop5854" />
      <stop
         style="stop-color:#ffffff;stop-opacity:0;"
         offset="1"
         id="stop5856" />
    </linearGradient>
    <linearGradient
       inkscape:collect="always"
       xlink:href="#linearGradient5852"
       id="linearGradient4570"
       gradientUnits="userSpaceOnUse"
       x1="-24.6875"
       y1="307.4375"
       x2="-22.875"
       y2="305" />
    <linearGradient
       inkscape:collect="always"
       id="linearGradient5027">
      <stop
         style="stop-color:#000000;stop-opacity:1"
         offset="0"
         id="stop5029" />
      <stop
         style="stop-color:#000000;stop-opacity:0;"
         offset="1"
         id="stop5031" />
    </linearGradient>
    <linearGradient
       inkscape:collect="always"
       xlink:href="#linearGradient5027"
       id="linearGradient20859"
       gradientUnits="userSpaceOnUse"
       x1="-23.4375"
       y1="-24.875"
       x2="-26.453966"
       y2="-24.144068" />
    <linearGradient
       inkscape:collect="always"
       id="linearGradient3741">
      <stop
         style="stop-color:#ffffff;stop-opacity:1;"
         offset="0"
         id="stop3743" />
      <stop
         style="stop-color:#ffffff;stop-opacity:0;"
         offset="1"
         id="stop3745" />
    </linearGradient>
    <radialGradient
       inkscape:collect="always"
       xlink:href="#linearGradient3741"
       id="radialGradient20857"
       gradientUnits="userSpaceOnUse"
       gradientTransform="matrix(2.0545562,0,0,1.1764706,-4.2182248,-4.2352941)"
       cx="4"
       cy="5.2999997"
       fx="4"
       fy="5.2999997"
       r="17" />
    <linearGradient
       inkscape:collect="always"
       id="linearGradient3613">
      <stop
         style="stop-color:#888a85;stop-opacity:1"
         offset="0"
         id="stop3615" />
      <stop
         style="stop-color:#babdb6;stop-opacity:1"
         offset="1"
         id="stop3617" />
    </linearGradient>
    <linearGradient
       inkscape:collect="always"
       xlink:href="#linearGradient3613"
       id="linearGradient20855"
       gradientUnits="userSpaceOnUse"
       gradientTransform="matrix(0.4857545,0,0,0.4889745,-11.512171,-31.207161)"
       x1="-46.226273"
       y1="55.166615"
       x2="-62.75"
       y2="-22.502075" />
    <linearGradient
       id="linearGradient3683">
      <stop
         id="stop3685"
         offset="0"
         style="stop-color:#f6f6f5;stop-opacity:1;" />
      <stop
         id="stop3689"
         offset="1"
         style="stop-color:#d3d7cf;stop-opacity:1" />
    </linearGradient>
    <radialGradient
       inkscape:collect="always"
       xlink:href="#linearGradient3683"
       id="radialGradient20853"
       gradientUnits="userSpaceOnUse"
       gradientTransform="matrix(1.9409531,0,0,0.7309057,32.507588,-38.835614)"
       cx="-30.314398"
       cy="34.277431"
       fx="-30.314398"
       fy="34.277431"
       r="18.000002" />
    <filter
       inkscape:collect="always"
       id="filter4538"
       x="-0.05577689"
       width="1.1115538"
       y="-0.50199205"
       height="2.0039842">
      <feGaussianBlur
         inkscape:collect="always"
         stdDeviation="0.41832669"
         id="feGaussianBlur4540" />
    </filter>
  </defs>
  <sodipodi:namedview
     id="base"
     pagecolor="#ffffff"
     bordercolor="#666666"
     borderopacity="1.0"
     inkscape:pageopacity="0.0"
     inkscape:pageshadow="2"
     inkscape:zoom="1"
     inkscape:cx="32.142857"
     inkscape:cy="22.857143"
     inkscape:document-units="px"
     inkscape:current-layer="layer1"
     inkscape:showpageshadow="false"
     width="22px"
     height="22px"
     inkscape:window-width="872"
     inkscape:window-height="715"
     inkscape:window-x="5"
     inkscape:window-y="24"
     showgrid="false">
    <inkscape:grid
       id="GridFromPre046Settings"
       type="xygrid"
       originx="0px"
       originy="0px"
       spacingx="0.5px"
       spacingy="0.5px"
       color="#0000ff"
       empcolor="#0000ff"
       opacity="0.2"
       empopacity="0.4"
       empspacing="2" />
  </sodipodi:namedview>
  <metadata
     id="metadata7">
    <rdf:RDF>
      <cc:Work
         rdf:about="">
        <dc:format>image/svg+xml</dc:format>
        <dc:type
           rdf:resource="http://purl.org/dc/dcmitype/StillImage" />
        <cc:license
           rdf:resource="http://creativecommons.org/licenses/GPL/2.0/" />
        <dc:creator>
          <cc:Agent>
            <dc:title>Lapo Calamandrei</dc:title>
          </cc:Agent>
        </dc:creator>
        <dc:title></dc:title>
        <dc:date></dc:date>
        <dc:rights>
          <cc:Agent>
            <dc:title></dc:title>
          </cc:Agent>
        </dc:rights>
        <dc:publisher>
          <cc:Agent>
            <dc:title></dc:title>
          </cc:Agent>
        </dc:publisher>
        <dc:identifier></dc:identifier>
        <dc:source></dc:source>
        <dc:relation></dc:relation>
        <dc:language></dc:language>
        <dc:subject>
          <rdf:Bag />
        </dc:subject>
        <dc:coverage></dc:coverage>
        <dc:description></dc:description>
        <dc:contributor>
          <cc:Agent>
            <dc:title></dc:title>
          </cc:Agent>
        </dc:contributor>
      </cc:Work>
      <cc:License
         rdf:about="http://creativecommons.org/licenses/GPL/2.0/">
        <cc:permits
           rdf:resource="http://web.resource.org/cc/Reproduction" />
        <cc:permits
           rdf:resource="http://web.resource.org/cc/Distribution" />
        <cc:requires
           rdf:resource="http://web.resource.org/cc/Notice" />
        <cc:permits
           rdf:resource="http://web.resource.org/cc/DerivativeWorks" />
        <cc:requires
           rdf:resource="http://web.resource.org/cc/ShareAlike" />
        <cc:requires
           rdf:resource="http://web.resource.org/cc/SourceCode" />
      </cc:License>
    </rdf:RDF>
  </metadata>
  <g
     inkscape:label="Livello 1"
     inkscape:groupmode="layer"
     id="layer1">
    <g
       style="display:inline"
       id="g21291"
       transform="translate(40,-300)">
      <g
         id="use4576"
         transform="translate(0,330)">
        <rect
           y="-30"
           x="-40"
           height="22"
           width="22"
           id="rect20839"
           style="opacity:0;fill:#000000;fill-opacity:1;stroke:none;stroke-width:1;stroke-linejoin:round;stroke-miterlimit:4;stroke-dasharray:none;stroke-opacity:1" />
        <rect
           ry="1"
           rx="1"
           y="-10.5"
           x="-38.5"
           height="2"
           width="19"
           id="rect20841"
           style="opacity:0.29959513;fill:#000000;fill-opacity:1;stroke:none;stroke-width:1;stroke-linejoin:round;stroke-miterlimit:4;stroke-dasharray:none;stroke-opacity:1;filter:url(#filter4538)" />
        <path
           sodipodi:nodetypes="cccccccscc"
           id="path20843"
           d="M -35.53125,-29.5 C -36.616208,-29.5 -37.5,-28.616208 -37.5,-27.53125 L -37.5,-11.46875 C -37.5,-10.383792 -36.616208,-9.5 -35.53125,-9.5 L -22.46875,-9.5 C -21.383792,-9.5 -20.5,-10.383792 -20.5,-11.46875 L -20.5,-12.4375 C -20.5,-15.84375 -20.5,-18.106789 -20.5,-21.5 C -20.5,-26.34375 -25.554363,-29.5 -30,-29.5 L -35.53125,-29.5 z"
           style="fill:url(#radialGradient20853);fill-opacity:1;stroke:url(#linearGradient20855);stroke-width:1;stroke-miterlimit:4;display:inline" />
        <path
           transform="matrix(0.4857545,0,0,0.4649261,-40.657441,-30.164812)"
           d="M 8.53125,4.65625 C 8.0283868,4.65625 7.65625,5.0283867 7.65625,5.53125 L 7.65625,42.46875 C 7.65625,42.971613 8.0283867,43.34375 8.53125,43.34375 L 39.46875,43.34375 C 39.971612,43.34375 40.34375,42.971612 40.34375,42.46875 C 40.34375,42.46875 40.34375,19 40.34375,17.5 C 40.34375,16.25395 39.850807,13.475807 38.1875,11.8125 C 36.1875,9.8125 35.1875,8.8125 33.1875,6.8125 C 31.524193,5.1491934 28.74605,4.65625 27.5,4.65625 C 26,4.65625 8.53125,4.65625 8.53125,4.65625 z"
           id="path20845"
           style="opacity:0.68016196;fill:url(#radialGradient20857);fill-opacity:1;stroke:none;stroke-width:1;stroke-miterlimit:4;display:inline"
           inkscape:original="M 8.53125 3.5 C 7.410033 3.5 6.5 4.4100329 6.5 5.53125 L 6.5 42.46875 C 6.5 43.589967 7.4100329 44.5 8.53125 44.5 L 39.46875 44.5 C 40.589967 44.5 41.5 43.589966 41.5 42.46875 C 41.5 42.46875 41.5 19 41.5 17.5 C 41.5 16 41 13 39 11 C 37 9 36 8 34 6 C 32 4 29 3.5 27.5 3.5 C 26 3.5 8.5312499 3.5 8.53125 3.5 z "
           inkscape:radius="-1.1427754"
           sodipodi:type="inkscape:offset" />
        <path
           transform="translate(-40,-30)"
           style="fill:none;fill-opacity:1;stroke:#ffffff;stroke-width:1;stroke-miterlimit:4;display:inline"
           d="M 4.46875,1.5 C 3.935335,1.5 3.5,1.9353349 3.5,2.46875 L 3.5,18.53125 C 3.5,19.064665 3.9353349,19.5 4.46875,19.5 L 17.53125,19.5 C 18.064665,19.5 18.5,19.064665 18.5,18.53125 C 18.5,14.833333 18.5,12.110569 18.5,8.4375 C 18.5,4.5 14,1.5 10.03125,1.5 L 4.46875,1.5 z"
           id="path20847"
           sodipodi:nodetypes="ccccccscc" />
        <path
           sodipodi:nodetypes="ccccc"
           id="path20849"
           d="M -30,-28 C -26.644116,-27.447576 -26.265165,-27.234835 -26.265165,-22.734835 C -22.765165,-22.734835 -22.174455,-22.060635 -21,-21 C -21,-21.510019 -21,-20.938365 -21,-21.5 C -21.498954,-27.105011 -25.649842,-27.691208 -30,-28 z"
           style="opacity:0.48987852;fill:url(#linearGradient20859);fill-opacity:1;stroke:none;stroke-width:1;stroke-miterlimit:4;display:inline" />
        <path
           sodipodi:nodetypes="cccssc"
           id="path20851"
           d="M -30,-29 C -26.644116,-28.447576 -25,-28.5 -25,-24 C -21.5,-24 -22.859464,-22.651625 -21,-20 C -21,-20.510019 -21,-20.938365 -21,-21.5 C -21,-23.747961 -22.15018,-25.584137 -23.875,-26.90625 C -25.59982,-28.228363 -27.895509,-29 -30,-29 z"
           style="fill:#ffffff;fill-opacity:1;stroke:none;stroke-width:1;stroke-miterlimit:4;display:inline" />
      </g>
      <g
         id="g5897"
         style="display:inline">
        <path
           sodipodi:nodetypes="ccccccc"
           id="path5577"
           d="M -21.700043,317.63687 L -29.498133,305.99825 L -29.498133,300.97535 L -27.374209,301.0066 C -25.752081,301.03474 -22.301523,303.32757 -21.014975,306.87063 L -21.031254,317.59672 L -21.700043,317.63687 z"
           style="opacity:0.3;fill:url(#linearGradient4570);fill-opacity:1;fill-rule:evenodd;stroke:none;stroke-width:1px;stroke-linecap:butt;stroke-linejoin:miter;stroke-opacity:1;display:inline" />
        <path
           sodipodi:nodetypes="cccccc"
           id="path5615"
           d="M -36.469102,317.0625 L -29.435633,305.95947 L -29.529383,301.03033 L -36.940756,301.0193 L -37.079418,317.02234 L -36.469102,317.0625 z"
           style="opacity:0.05;fill:#707070;fill-opacity:1;fill-rule:evenodd;stroke:none;stroke-width:1px;stroke-linecap:butt;stroke-linejoin:miter;stroke-opacity:1;display:inline" />
        <path
           style="opacity:1;fill:#888a85;fill-opacity:1;stroke:none;stroke-width:1;stroke-linecap:round;stroke-linejoin:miter;stroke-miterlimit:4;stroke-dasharray:1, 3;stroke-dashoffset:0;stroke-opacity:1;display:inline"
           d="M -29.5,302 C -29.776,302 -30,302.224 -30,302.5 C -30,302.776 -29.776,303 -29.5,303 C -29.224,303 -28.999999,302.776 -29,302.5 C -29,302.224 -29.223999,302 -29.5,302 z M -29.5,305 C -29.783504,305 -30,305.224 -30,305.5 C -30,305.776 -29.783505,306 -29.5,306 C -29.216496,306 -28.968749,305.776 -28.96875,305.5 C -28.96875,305.224 -29.216496,305 -29.5,305 z M -30.5,307 C -30.776,307 -31.000001,307.224 -31,307.5 C -31,307.776 -30.775999,308 -30.5,308 C -30.224,308 -30,307.776 -30,307.5 C -30,307.224 -30.223999,307 -30.5,307 z M -28.5,307 C -28.776,307 -29,307.224 -29,307.5 C -29,307.776 -28.776,308 -28.5,308 C -28.224,308 -28,307.776 -28,307.5 C -28,307.224 -28.224,307 -28.5,307 z M -29.5,309 C -29.776,309 -29.999999,309.224 -30,309.5 C -30,309.776 -29.775999,310 -29.5,310 C -29.224,310 -28.999999,309.776 -29,309.5 C -29,309.224 -29.223999,309 -29.5,309 z M -32.5,310 C -32.776,310.00001 -33,310.224 -33,310.5 C -33,310.77601 -32.776,311 -32.5,311 C -32.224,311 -32,310.776 -32,310.5 C -32,310.22401 -32.224,310 -32.5,310 z M -26.5,310 C -26.776,310 -27,310.22425 -27,310.5 C -27,310.77576 -26.776,311 -26.5,311 C -26.224,310.99999 -26,310.77575 -26,310.5 C -26,310.22425 -26.224,310 -26.5,310 z M -29.5,312 C -29.776,312 -30,312.224 -30,312.5 C -30,312.776 -29.776,313 -29.5,313 C -29.224,313 -29,312.776 -29,312.5 C -29,312.224 -29.224,312 -29.5,312 z M -34.5,313 C -34.776,313 -35,313.22401 -35,313.5 C -35,313.776 -34.776,314 -34.5,314 C -34.224,314 -34,313.776 -34,313.5 C -34,313.224 -34.224,313.00001 -34.5,313 z M -24.5,313 C -24.776,313 -25,313.22401 -25,313.5 C -25,313.776 -24.776,314 -24.5,314 C -24.224,314 -24,313.776 -24,313.5 C -24,313.224 -24.224,313.00001 -24.5,313 z M -29.5,315 C -29.776,315 -30,315.224 -30,315.5 C -30,315.776 -29.776,316 -29.5,316 C -29.224,316 -28.999999,315.776 -29,315.5 C -29,315.224 -29.224001,315 -29.5,315 z M -22.5,316 C -22.776246,316 -23,316.224 -23,316.5 C -23,316.77599 -22.776246,317 -22.5,317 C -22.223754,316.99999 -22,316.776 -22,316.5 C -22,316.224 -22.223754,316 -22.5,316 z M -29.5,318 C -29.776,318 -30,318.224 -30,318.5 C -30,318.776 -29.776,319 -29.5,319 C -29.224,319 -29,318.776 -29,318.5 C -29,318.224 -29.224,318 -29.5,318 z"
           id="path5579" />
      </g>
    </g>
  </g>
</svg>
