<?xml version="1.0" encoding="UTF-8" standalone="no"?>
<!-- Created with Inkscape (http://www.inkscape.org/) -->
<svg
   xmlns:dc="http://purl.org/dc/elements/1.1/"
   xmlns:cc="http://creativecommons.org/ns#"
   xmlns:rdf="http://www.w3.org/1999/02/22-rdf-syntax-ns#"
   xmlns:svg="http://www.w3.org/2000/svg"
   xmlns="http://www.w3.org/2000/svg"
   xmlns:xlink="http://www.w3.org/1999/xlink"
   xmlns:sodipodi="http://sodipodi.sourceforge.net/DTD/sodipodi-0.dtd"
   xmlns:inkscape="http://www.inkscape.org/namespaces/inkscape"
   width="22"
   height="22"
   id="svg2"
   sodipodi:version="0.32"
   inkscape:version="0.45+0.46pre0"
   version="1.0"
   sodipodi:docbase="/home/lapo/Modelli"
   sodipodi:docname="x-office-drawing.svg"
   inkscape:output_extension="org.inkscape.output.svg.inkscape">
  <defs
     id="defs4">
    <linearGradient
       inkscape:collect="always"
       id="linearGradient5027">
      <stop
         style="stop-color:#000000;stop-opacity:1"
         offset="0"
         id="stop5029" />
      <stop
         style="stop-color:#000000;stop-opacity:0;"
         offset="1"
         id="stop5031" />
    </linearGradient>
    <linearGradient
       inkscape:collect="always"
       id="linearGradient3741">
      <stop
         style="stop-color:#ffffff;stop-opacity:1;"
         offset="0"
         id="stop3743" />
      <stop
         style="stop-color:#ffffff;stop-opacity:0;"
         offset="1"
         id="stop3745" />
    </linearGradient>
    <linearGradient
       inkscape:collect="always"
       id="linearGradient3613">
      <stop
         style="stop-color:#888a85;stop-opacity:1"
         offset="0"
         id="stop3615" />
      <stop
         style="stop-color:#babdb6;stop-opacity:1"
         offset="1"
         id="stop3617" />
    </linearGradient>
    <linearGradient
       id="linearGradient3683">
      <stop
         id="stop3685"
         offset="0"
         style="stop-color:#f6f6f5;stop-opacity:1;" />
      <stop
         id="stop3689"
         offset="1"
         style="stop-color:#d3d7cf;stop-opacity:1" />
    </linearGradient>
    <filter
       inkscape:collect="always"
       id="filter4538"
       x="-0.05577689"
       width="1.1115538"
       y="-0.50199205"
       height="2.0039842">
      <feGaussianBlur
         inkscape:collect="always"
         stdDeviation="0.41832669"
         id="feGaussianBlur4540" />
    </filter>
    <radialGradient
       inkscape:collect="always"
       xlink:href="#linearGradient3683"
       id="radialGradient22000"
       gradientUnits="userSpaceOnUse"
       gradientTransform="matrix(1.9409531,0,0,0.7309057,32.507588,-38.835614)"
       cx="-30.314398"
       cy="34.277431"
       fx="-30.314398"
       fy="34.277431"
       r="18.000002" />
    <linearGradient
       inkscape:collect="always"
       xlink:href="#linearGradient3613"
       id="linearGradient22002"
       gradientUnits="userSpaceOnUse"
       gradientTransform="matrix(0.4857545,0,0,0.4889745,-11.512171,-31.207161)"
       x1="-46.226273"
       y1="55.166615"
       x2="-62.75"
       y2="-22.502075" />
    <radialGradient
       inkscape:collect="always"
       xlink:href="#linearGradient3741"
       id="radialGradient22004"
       gradientUnits="userSpaceOnUse"
       gradientTransform="matrix(2.0545562,0,0,1.1764706,-4.2182248,-4.2352941)"
       cx="4"
       cy="5.2999997"
       fx="4"
       fy="5.2999997"
       r="17" />
    <linearGradient
       inkscape:collect="always"
       xlink:href="#linearGradient5027"
       id="linearGradient22006"
       gradientUnits="userSpaceOnUse"
       x1="-23.4375"
       y1="-24.875"
       x2="-26.453966"
       y2="-24.144068" />
  </defs>
  <sodipodi:namedview
     id="base"
     pagecolor="#ffffff"
     bordercolor="#666666"
     borderopacity="1.0"
     inkscape:pageopacity="0.0"
     inkscape:pageshadow="2"
     inkscape:zoom="1"
     inkscape:cx="32.142857"
     inkscape:cy="22.857143"
     inkscape:document-units="px"
     inkscape:current-layer="layer1"
     inkscape:showpageshadow="false"
     width="22px"
     height="22px"
     inkscape:window-width="872"
     inkscape:window-height="715"
     inkscape:window-x="5"
     inkscape:window-y="24"
     showgrid="false">
    <inkscape:grid
       id="GridFromPre046Settings"
       type="xygrid"
       originx="0px"
       originy="0px"
       spacingx="0.5px"
       spacingy="0.5px"
       color="#0000ff"
       empcolor="#0000ff"
       opacity="0.2"
       empopacity="0.4"
       empspacing="2" />
  </sodipodi:namedview>
  <metadata
     id="metadata7">
    <rdf:RDF>
      <cc:Work
         rdf:about="">
        <dc:format>image/svg+xml</dc:format>
        <dc:type
           rdf:resource="http://purl.org/dc/dcmitype/StillImage" />
        <cc:license
           rdf:resource="http://creativecommons.org/licenses/GPL/2.0/" />
        <dc:creator>
          <cc:Agent>
            <dc:title>Lapo Calamandrei</dc:title>
          </cc:Agent>
        </dc:creator>
        <dc:title></dc:title>
        <dc:date></dc:date>
        <dc:rights>
          <cc:Agent>
            <dc:title></dc:title>
          </cc:Agent>
        </dc:rights>
        <dc:publisher>
          <cc:Agent>
            <dc:title></dc:title>
          </cc:Agent>
        </dc:publisher>
        <dc:identifier></dc:identifier>
        <dc:source></dc:source>
        <dc:relation></dc:relation>
        <dc:language></dc:language>
        <dc:subject>
          <rdf:Bag />
        </dc:subject>
        <dc:coverage></dc:coverage>
        <dc:description></dc:description>
        <dc:contributor>
          <cc:Agent>
            <dc:title></dc:title>
          </cc:Agent>
        </dc:contributor>
      </cc:Work>
      <cc:License
         rdf:about="http://creativecommons.org/licenses/GPL/2.0/">
        <cc:permits
           rdf:resource="http://web.resource.org/cc/Reproduction" />
        <cc:permits
           rdf:resource="http://web.resource.org/cc/Distribution" />
        <cc:requires
           rdf:resource="http://web.resource.org/cc/Notice" />
        <cc:permits
           rdf:resource="http://web.resource.org/cc/DerivativeWorks" />
        <cc:requires
           rdf:resource="http://web.resource.org/cc/ShareAlike" />
        <cc:requires
           rdf:resource="http://web.resource.org/cc/SourceCode" />
      </cc:License>
    </rdf:RDF>
  </metadata>
  <g
     inkscape:label="Livello 1"
     inkscape:groupmode="layer"
     id="layer1">
    <g
       style="display:inline"
       id="g21900"
       transform="translate(40,-420)">
      <g
         id="use4650"
         transform="translate(0,450)">
        <rect
           y="-30"
           x="-40"
           height="22"
           width="22"
           id="rect20863"
           style="opacity:0;fill:#000000;fill-opacity:1;stroke:none;stroke-width:1;stroke-linejoin:round;stroke-miterlimit:4;stroke-dasharray:none;stroke-opacity:1" />
        <rect
           ry="1"
           rx="1"
           y="-10.5"
           x="-38.5"
           height="2"
           width="19"
           id="rect20865"
           style="opacity:0.29959513;fill:#000000;fill-opacity:1;stroke:none;stroke-width:1;stroke-linejoin:round;stroke-miterlimit:4;stroke-dasharray:none;stroke-opacity:1;filter:url(#filter4538)" />
        <path
           sodipodi:nodetypes="cccccccscc"
           id="path20867"
           d="M -35.53125,-29.5 C -36.616208,-29.5 -37.5,-28.616208 -37.5,-27.53125 L -37.5,-11.46875 C -37.5,-10.383792 -36.616208,-9.5 -35.53125,-9.5 L -22.46875,-9.5 C -21.383792,-9.5 -20.5,-10.383792 -20.5,-11.46875 L -20.5,-12.4375 C -20.5,-15.84375 -20.5,-18.106789 -20.5,-21.5 C -20.5,-26.34375 -25.554363,-29.5 -30,-29.5 L -35.53125,-29.5 z"
           style="fill:url(#radialGradient22000);fill-opacity:1;stroke:url(#linearGradient22002);stroke-width:1;stroke-miterlimit:4;display:inline" />
        <path
           transform="matrix(0.4857545,0,0,0.4649261,-40.657441,-30.164812)"
           d="M 8.53125,4.65625 C 8.0283868,4.65625 7.65625,5.0283867 7.65625,5.53125 L 7.65625,42.46875 C 7.65625,42.971613 8.0283867,43.34375 8.53125,43.34375 L 39.46875,43.34375 C 39.971612,43.34375 40.34375,42.971612 40.34375,42.46875 C 40.34375,42.46875 40.34375,19 40.34375,17.5 C 40.34375,16.25395 39.850807,13.475807 38.1875,11.8125 C 36.1875,9.8125 35.1875,8.8125 33.1875,6.8125 C 31.524193,5.1491934 28.74605,4.65625 27.5,4.65625 C 26,4.65625 8.53125,4.65625 8.53125,4.65625 z"
           id="path20869"
           style="opacity:0.68016196;fill:url(#radialGradient22004);fill-opacity:1;stroke:none;stroke-width:1;stroke-miterlimit:4;display:inline"
           inkscape:original="M 8.53125 3.5 C 7.410033 3.5 6.5 4.4100329 6.5 5.53125 L 6.5 42.46875 C 6.5 43.589967 7.4100329 44.5 8.53125 44.5 L 39.46875 44.5 C 40.589967 44.5 41.5 43.589966 41.5 42.46875 C 41.5 42.46875 41.5 19 41.5 17.5 C 41.5 16 41 13 39 11 C 37 9 36 8 34 6 C 32 4 29 3.5 27.5 3.5 C 26 3.5 8.5312499 3.5 8.53125 3.5 z "
           inkscape:radius="-1.1427754"
           sodipodi:type="inkscape:offset" />
        <path
           transform="translate(-40,-30)"
           style="fill:none;fill-opacity:1;stroke:#ffffff;stroke-width:1;stroke-miterlimit:4;display:inline"
           d="M 4.46875,1.5 C 3.935335,1.5 3.5,1.9353349 3.5,2.46875 L 3.5,18.53125 C 3.5,19.064665 3.9353349,19.5 4.46875,19.5 L 17.53125,19.5 C 18.064665,19.5 18.5,19.064665 18.5,18.53125 C 18.5,14.833333 18.5,12.110569 18.5,8.4375 C 18.5,4.5 14,1.5 10.03125,1.5 L 4.46875,1.5 z"
           id="path20871"
           sodipodi:nodetypes="ccccccscc" />
        <path
           sodipodi:nodetypes="ccccc"
           id="path20873"
           d="M -30,-28 C -26.644116,-27.447576 -26.265165,-27.234835 -26.265165,-22.734835 C -22.765165,-22.734835 -22.174455,-22.060635 -21,-21 C -21,-21.510019 -21,-20.938365 -21,-21.5 C -21.498954,-27.105011 -25.649842,-27.691208 -30,-28 z"
           style="opacity:0.48987852;fill:url(#linearGradient22006);fill-opacity:1;stroke:none;stroke-width:1;stroke-miterlimit:4;display:inline" />
        <path
           sodipodi:nodetypes="cccssc"
           id="path20875"
           d="M -30,-29 C -26.644116,-28.447576 -25,-28.5 -25,-24 C -21.5,-24 -22.859464,-22.651625 -21,-20 C -21,-20.510019 -21,-20.938365 -21,-21.5 C -21,-23.747961 -22.15018,-25.584137 -23.875,-26.90625 C -25.59982,-28.228363 -27.895509,-29 -30,-29 z"
           style="fill:#ffffff;fill-opacity:1;stroke:none;stroke-width:1;stroke-miterlimit:4;display:inline" />
      </g>
      <g
         id="g4635">
        <path
           sodipodi:nodetypes="czz"
           id="path8522"
           d="M -25.5,437.5 C -16,432.5 -43.009996,425.49999 -30.5,425.49999 C -17.990004,425.49999 -34.80217,442.39588 -25.5,437.5 z"
           style="opacity:0.08999999;fill:#000000;fill-rule:evenodd;stroke:#000000;stroke-width:0.99999994px;stroke-linecap:butt;stroke-linejoin:miter;stroke-opacity:1;display:inline" />
        <path
           style="opacity:1;fill:#fcaf3e;fill-rule:evenodd;stroke:#ce5c00;stroke-width:0.99999994px;stroke-linecap:butt;stroke-linejoin:miter;stroke-opacity:1"
           d="M -26.5,436.5 C -17,431.5 -44.009996,424.49999 -31.5,424.49999 C -18.990004,424.49999 -35.80217,441.39588 -26.5,436.5 z"
           id="path7426"
           sodipodi:nodetypes="czz" />
        <path
           sodipodi:type="inkscape:offset"
           inkscape:radius="-0.80646801"
           inkscape:original="M -31.5 424.5 C -39.34204 424.5 -31.676289 427.24683 -27.1875 430.53125 C -26.222511 427.45642 -26.276889 424.5 -31.5 424.5 z M -27.1875 430.53125 C -28.533778 434.82101 -31.918374 439.35178 -26.5 436.5 C -22.955188 434.63431 -24.515559 432.4863 -27.1875 430.53125 z "
           style="opacity:0.54655875;fill:none;fill-rule:evenodd;stroke:#ffffff;stroke-width:0.69999999;stroke-linecap:butt;stroke-linejoin:miter;stroke-miterlimit:4;stroke-dasharray:none;stroke-opacity:1;display:inline"
           id="path7462"
           d="M -31.5,425.3125 C -32.456715,425.3125 -33.161309,425.33521 -33.625,425.40625 C -33.703389,425.41826 -33.655543,425.42235 -33.71875,425.4375 C -33.629494,425.51533 -33.623085,425.5348 -33.5,425.625 C -32.346196,426.47055 -29.872966,427.82223 -27.75,429.21875 C -27.546221,428.21158 -27.466689,427.30185 -27.75,426.71875 C -27.941693,426.32422 -28.232417,426.01038 -28.8125,425.75 C -29.392583,425.48962 -30.270303,425.3125 -31.5,425.3125 z M -26.84375,431.90625 C -27.520762,433.67922 -28.371179,435.5398 -28.59375,436.40625 C -28.613921,436.48477 -28.615766,436.47013 -28.625,436.53125 C -28.5353,436.5174 -28.563443,436.52097 -28.40625,436.46875 C -28.049946,436.35038 -27.528666,436.12529 -26.875,435.78125 C -26.066816,435.35589 -25.607556,434.94551 -25.40625,434.625 C -25.204944,434.30449 -25.191593,434.07374 -25.28125,433.75 C -25.414805,433.26775 -26.046838,432.60752 -26.84375,431.90625 z" />
        <path
           sodipodi:type="inkscape:offset"
           inkscape:radius="0.56875861"
           inkscape:original="M -28.46875 422.46875 C -29.036354 422.46875 -29.5 422.9324 -29.5 423.5 C -29.5 424.0676 -29.036353 424.53126 -28.46875 424.53125 C -27.901146 424.53125 -27.437499 424.0676 -27.4375 423.5 C -27.4375 422.9324 -27.901146 422.46874 -28.46875 422.46875 z M -32.5 423.5 L -32.5 425.5 L -30.5 425.5 L -30.5 423.5 L -32.5 423.5 z M -34.5 424.5 C -35.052 424.5 -35.5 424.948 -35.5 425.5 C -35.5 426.052 -35.052 426.5 -34.5 426.5 C -33.948 426.5 -33.5 426.052 -33.5 425.5 C -33.5 424.948 -33.948 424.5 -34.5 424.5 z "
           style="opacity:1;fill:#ffffff;fill-opacity:1;stroke:#ffffff;stroke-width:0.99999994;stroke-linecap:round;stroke-linejoin:round;stroke-miterlimit:4;stroke-dasharray:none;stroke-opacity:1;display:inline"
           id="path6612"
           d="M -28.46875,421.90625 C -29.260426,421.90625 -29.846299,422.52171 -29.96875,423.28125 C -30.059879,423.06966 -30.269643,422.93393 -30.5,422.9375 L -32.5,422.9375 C -32.809235,422.94091 -33.059085,423.19077 -33.0625,423.5 L -33.0625,425.21875 C -33.214028,424.51225 -33.751438,423.9375 -34.5,423.9375 C -35.359734,423.9375 -36.0625,424.64027 -36.0625,425.5 C -36.0625,426.35973 -35.359734,427.0625 -34.5,427.0625 C -33.726239,427.0625 -33.15385,426.46036 -33.03125,425.71875 C -32.940121,425.93034 -32.730357,426.06607 -32.5,426.0625 L -30.5,426.0625 C -30.190765,426.05909 -29.940915,425.80923 -29.9375,425.5 L -29.9375,423.8125 C -29.77483,424.52256 -29.224962,425.09376 -28.46875,425.09375 C -27.591417,425.09375 -26.874998,424.37733 -26.875,423.5 C -26.875,422.62267 -27.591405,421.90623 -28.46875,421.90625 z"
           transform="translate(5,12)" />
        <path
           sodipodi:type="arc"
           style="opacity:1;fill:#ffffff;fill-opacity:1;stroke:#729fcf;stroke-width:0.99999994;stroke-linecap:round;stroke-linejoin:round;stroke-miterlimit:4;stroke-dasharray:none;stroke-opacity:1"
           id="path7438"
           sodipodi:cx="-113.5"
           sodipodi:cy="453.5"
           sodipodi:rx="1"
           sodipodi:ry="1"
           d="M -112.5,453.5 A 1,1 0 1 1 -114.5,453.5 A 1,1 0 1 1 -112.5,453.5 z"
           transform="translate(90,-18)" />
        <path
           sodipodi:type="inkscape:offset"
           inkscape:radius="0.56875861"
           inkscape:original="M -28.46875 422.46875 C -29.036354 422.46875 -29.5 422.9324 -29.5 423.5 C -29.5 424.0676 -29.036353 424.53126 -28.46875 424.53125 C -27.901146 424.53125 -27.437499 424.0676 -27.4375 423.5 C -27.4375 422.9324 -27.901146 422.46874 -28.46875 422.46875 z M -32.5 423.5 L -32.5 425.5 L -30.5 425.5 L -30.5 423.5 L -32.5 423.5 z M -34.5 424.5 C -35.052 424.5 -35.5 424.948 -35.5 425.5 C -35.5 426.052 -35.052 426.5 -34.5 426.5 C -33.948 426.5 -33.5 426.052 -33.5 425.5 C -33.5 424.948 -33.948 424.5 -34.5 424.5 z "
           style="opacity:1;fill:#ffffff;fill-opacity:1;stroke:#ffffff;stroke-width:0.99999994;stroke-linecap:round;stroke-linejoin:round;stroke-miterlimit:4;stroke-dasharray:none;stroke-opacity:1;display:inline"
           id="path6562"
           d="M -28.46875,421.90625 C -29.260426,421.90625 -29.846299,422.52171 -29.96875,423.28125 C -30.059879,423.06966 -30.269643,422.93393 -30.5,422.9375 L -32.5,422.9375 C -32.809235,422.94091 -33.059085,423.19077 -33.0625,423.5 L -33.0625,425.21875 C -33.214028,424.51225 -33.751438,423.9375 -34.5,423.9375 C -35.359734,423.9375 -36.0625,424.64027 -36.0625,425.5 C -36.0625,426.35973 -35.359734,427.0625 -34.5,427.0625 C -33.726239,427.0625 -33.15385,426.46036 -33.03125,425.71875 C -32.940121,425.93034 -32.730357,426.06607 -32.5,426.0625 L -30.5,426.0625 C -30.190765,426.05909 -29.940915,425.80923 -29.9375,425.5 L -29.9375,423.8125 C -29.77483,424.52256 -29.224962,425.09376 -28.46875,425.09375 C -27.591417,425.09375 -26.874998,424.37733 -26.875,423.5 C -26.875,422.62267 -27.591405,421.90623 -28.46875,421.90625 z" />
        <rect
           style="opacity:0.9;fill:#729fcf;fill-opacity:1;stroke:#3465a4;stroke-width:0.99999994;stroke-linecap:round;stroke-linejoin:miter;stroke-miterlimit:4;stroke-dasharray:none;stroke-opacity:1;display:inline"
           id="rect7440"
           width="1.9999999"
           height="1.9999999"
           x="-32.5"
           y="423.5" />
        <path
           sodipodi:type="arc"
           style="opacity:0.9;fill:#ffffff;fill-opacity:1;stroke:#729fcf;stroke-width:0.97250974;stroke-linecap:round;stroke-linejoin:round;stroke-miterlimit:4;stroke-dasharray:none;stroke-opacity:1;display:inline"
           id="path7442"
           sodipodi:cx="-113.5"
           sodipodi:cy="453.5"
           sodipodi:rx="1"
           sodipodi:ry="1"
           d="M -112.5,453.5 A 1,1 0 1 1 -114.5,453.5 A 1,1 0 1 1 -112.5,453.5 z"
           transform="matrix(1.0282674,0,0,1.0282674,88.236617,-42.819266)" />
        <path
           sodipodi:type="arc"
           style="opacity:0.9;fill:#ffffff;fill-opacity:1;stroke:#729fcf;stroke-width:0.99999994;stroke-linecap:round;stroke-linejoin:round;stroke-miterlimit:4;stroke-dasharray:none;stroke-opacity:1;display:inline"
           id="path7444"
           sodipodi:cx="-113.5"
           sodipodi:cy="453.5"
           sodipodi:rx="1"
           sodipodi:ry="1"
           d="M -112.5,453.5 A 1,1 0 1 1 -114.5,453.5 A 1,1 0 1 1 -112.5,453.5 z"
           transform="translate(79,-28)" />
        <path
           sodipodi:type="arc"
           style="opacity:1;fill:#ffffff;fill-opacity:1;stroke:#729fcf;stroke-width:0.99999994;stroke-linecap:round;stroke-linejoin:round;stroke-miterlimit:4;stroke-dasharray:none;stroke-opacity:1;display:inline"
           id="path7446"
           sodipodi:cx="-113.5"
           sodipodi:cy="453.5"
           sodipodi:rx="1"
           sodipodi:ry="1"
           d="M -112.5,453.5 A 1,1 0 1 1 -114.5,453.5 A 1,1 0 1 1 -112.5,453.5 z"
           transform="translate(84,-16)" />
        <rect
           style="opacity:1;fill:#729fcf;fill-opacity:1;stroke:#3465a4;stroke-width:0.99999988;stroke-linecap:round;stroke-linejoin:miter;stroke-miterlimit:4;stroke-dasharray:none;stroke-opacity:1"
           id="rect7436"
           width="2"
           height="2"
           x="-27.5"
           y="435.5" />
      </g>
    </g>
  </g>
</svg>
