<?xml version="1.0" encoding="UTF-8" standalone="no"?>
<!-- Created with Inkscape (http://www.inkscape.org/) -->
<svg
   xmlns:dc="http://purl.org/dc/elements/1.1/"
   xmlns:cc="http://web.resource.org/cc/"
   xmlns:rdf="http://www.w3.org/1999/02/22-rdf-syntax-ns#"
   xmlns:svg="http://www.w3.org/2000/svg"
   xmlns="http://www.w3.org/2000/svg"
   xmlns:xlink="http://www.w3.org/1999/xlink"
   xmlns:sodipodi="http://sodipodi.sourceforge.net/DTD/sodipodi-0.dtd"
   xmlns:inkscape="http://www.inkscape.org/namespaces/inkscape"
   width="22"
   height="22"
   id="svg2"
   sodipodi:version="0.32"
   inkscape:version="0.45"
   version="1.0"
   sodipodi:docbase="/home/dobey/Projects/gnome-icon-theme/22x22/status"
   sodipodi:docname="battery-low.svg"
   inkscape:export-filename="/home/lapo/Desktop/per jimmac/scalable/devices/battery.png"
   inkscape:export-xdpi="90"
   inkscape:export-ydpi="90"
   inkscape:output_extension="org.inkscape.output.svg.inkscape">
  <defs
     id="defs4">
    <linearGradient
       id="linearGradient7397">
      <stop
         id="stop7399"
         offset="0"
         style="stop-color:#c4a000;stop-opacity:1" />
      <stop
         style="stop-color:#fdea50;stop-opacity:1;"
         offset="0.5"
         id="stop7401" />
      <stop
         id="stop7403"
         offset="1"
         style="stop-color:#c4a000;stop-opacity:1" />
    </linearGradient>
    <linearGradient
       id="linearGradient7507"
       inkscape:collect="always">
      <stop
         id="stop7509"
         offset="0"
         style="stop-color:#888a85;stop-opacity:1" />
      <stop
         id="stop7511"
         offset="1"
         style="stop-color:#888a85;stop-opacity:0" />
    </linearGradient>
    <linearGradient
       inkscape:collect="always"
       id="linearGradient7499">
      <stop
         style="stop-color:#888a85;stop-opacity:1;"
         offset="0"
         id="stop7501" />
      <stop
         style="stop-color:#babdb6;stop-opacity:1"
         offset="1"
         id="stop7503" />
    </linearGradient>
    <linearGradient
       id="linearGradient7477">
      <stop
         style="stop-color:#ffffff;stop-opacity:1"
         offset="0"
         id="stop7479" />
      <stop
         id="stop7343"
         offset="0.70866305"
         style="stop-color:#f0e4a9;stop-opacity:1;" />
      <stop
         id="stop7333"
         offset="0.84693879"
         style="stop-color:#e1ca54;stop-opacity:1;" />
      <stop
         style="stop-color:#c4a000;stop-opacity:1"
         offset="1"
         id="stop7481" />
    </linearGradient>
    <linearGradient
       id="linearGradient7451">
      <stop
         id="stop7453"
         offset="0"
         style="stop-color:#ffffff;stop-opacity:1;" />
      <stop
         id="stop7455"
         offset="1"
         style="stop-color:#ffffff;stop-opacity:0.18702289" />
    </linearGradient>
    <linearGradient
       inkscape:collect="always"
       id="linearGradient3290">
      <stop
         style="stop-color:#ffffff;stop-opacity:1;"
         offset="0"
         id="stop3292" />
      <stop
         style="stop-color:#ffffff;stop-opacity:0;"
         offset="1"
         id="stop3294" />
    </linearGradient>
    <linearGradient
       inkscape:collect="always"
       id="linearGradient3280">
      <stop
         style="stop-color:#000000;stop-opacity:1;"
         offset="0"
         id="stop3282" />
      <stop
         style="stop-color:#000000;stop-opacity:0;"
         offset="1"
         id="stop3284" />
    </linearGradient>
    <linearGradient
       inkscape:collect="always"
       id="linearGradient3254">
      <stop
         style="stop-color:#ffffff;stop-opacity:1;"
         offset="0"
         id="stop3256" />
      <stop
         style="stop-color:#ffffff;stop-opacity:0;"
         offset="1"
         id="stop3258" />
    </linearGradient>
    <linearGradient
       inkscape:collect="always"
       id="linearGradient3174">
      <stop
         style="stop-color:#ffffff;stop-opacity:1;"
         offset="0"
         id="stop3176" />
      <stop
         style="stop-color:#ffffff;stop-opacity:0;"
         offset="1"
         id="stop3178" />
    </linearGradient>
    <radialGradient
       inkscape:collect="always"
       xlink:href="#linearGradient3280"
       id="radialGradient3286"
       cx="21.34375"
       cy="14.125"
       fx="21.34375"
       fy="14.125"
       r="11.96875"
       gradientTransform="matrix(1,0,0,0.302872,0,9.846932)"
       gradientUnits="userSpaceOnUse" />
    <linearGradient
       id="linearGradient4134">
      <stop
         id="stop4136"
         offset="0"
         style="stop-color:#d6d7d5;stop-opacity:1;" />
      <stop
         style="stop-color:#d1d2d0;stop-opacity:1;"
         offset="0.25"
         id="stop4148" />
      <stop
         style="stop-color:#a5a6a3;stop-opacity:1.0000000;"
         offset="0.50000000"
         id="stop4142" />
      <stop
         id="stop4138"
         offset="1"
         style="stop-color:#dddedc;stop-opacity:1;" />
    </linearGradient>
    <radialGradient
       inkscape:collect="always"
       xlink:href="#linearGradient7477"
       id="radialGradient7364"
       gradientUnits="userSpaceOnUse"
       gradientTransform="matrix(0.9586348,0,0,0.9519987,0.6690842,-1.0414239)"
       cx="15.207981"
       cy="46.733425"
       fx="15.207981"
       fy="46.733425"
       r="8.897234" />
    <linearGradient
       inkscape:collect="always"
       xlink:href="#linearGradient7507"
       id="linearGradient7370"
       gradientUnits="userSpaceOnUse"
       x1="31.18708"
       y1="9.9904861"
       x2="25.531752"
       y2="18.613125" />
    <radialGradient
       inkscape:collect="always"
       xlink:href="#linearGradient7451"
       id="radialGradient7372"
       gradientUnits="userSpaceOnUse"
       gradientTransform="matrix(0.690032,0,0,0.228281,6.615871,10.90053)"
       cx="18.995695"
       cy="11.994148"
       fx="18.995695"
       fy="11.994148"
       r="12.46875" />
    <radialGradient
       inkscape:collect="always"
       xlink:href="#linearGradient3174"
       id="radialGradient7374"
       gradientUnits="userSpaceOnUse"
       gradientTransform="matrix(1.2532713,-0.3487142,0.1098099,0.4255197,-7.5807449,13.83398)"
       cx="18.370865"
       cy="23.649349"
       fx="18.370865"
       fy="23.649349"
       r="12.46875" />
    <linearGradient
       inkscape:collect="always"
       xlink:href="#linearGradient7499"
       id="linearGradient7376"
       gradientUnits="userSpaceOnUse"
       gradientTransform="matrix(0.4999733,0,0,0.5924997,28.750627,-5.0912451)"
       x1="22"
       y1="11.375"
       x2="21.1875"
       y2="13.25" />
    <linearGradient
       inkscape:collect="always"
       xlink:href="#linearGradient3290"
       id="linearGradient7385"
       gradientUnits="userSpaceOnUse"
       gradientTransform="matrix(0.625,0,0,0.6310217,-2.937501,-5.5563791)"
       x1="13.96536"
       y1="10.495919"
       x2="20.682875"
       y2="31.382992" />
    <linearGradient
       inkscape:collect="always"
       xlink:href="#linearGradient3254"
       id="linearGradient7388"
       gradientUnits="userSpaceOnUse"
       gradientTransform="matrix(0.5999999,0,0,0.6212992,-1.799999,-4.6737749)"
       x1="14.666668"
       y1="19.928923"
       x2="16.930634"
       y2="37.100224" />
    <linearGradient
       inkscape:collect="always"
       xlink:href="#linearGradient7397"
       id="linearGradient7392"
       gradientUnits="userSpaceOnUse"
       gradientTransform="matrix(0.5739305,0,0,0.3942382,-8.413437,2.5937524)"
       x1="14.64196"
       y1="33.070244"
       x2="46.229019"
       y2="33.070244" />
    <linearGradient
       inkscape:collect="always"
       xlink:href="#linearGradient4134"
       id="linearGradient7395"
       gradientUnits="userSpaceOnUse"
       gradientTransform="matrix(0.6671091,0,0,0.6761721,-5.17652,-6.8858374)"
       x1="11.492082"
       y1="24.875"
       x2="37.640503"
       y2="24.875" />
  </defs>
  <sodipodi:namedview
     id="base"
     pagecolor="#ffffff"
     bordercolor="#666666"
     borderopacity="1.0"
     inkscape:pageopacity="0.0"
     inkscape:pageshadow="2"
     inkscape:zoom="1"
     inkscape:cx="22.738904"
     inkscape:cy="11.579894"
     inkscape:document-units="px"
     inkscape:current-layer="layer5"
     showgrid="false"
     gridempspacing="2"
     gridspacingx="0.5px"
     gridspacingy="0.5px"
     inkscape:window-width="872"
     inkscape:window-height="771"
     inkscape:window-x="392"
     inkscape:window-y="55"
     stroke="#c4a000"
     inkscape:grid-points="false"
     inkscape:grid-bbox="true"
     fill="#555753"
     showborder="false"
     inkscape:showpageshadow="false"
     width="22px"
     height="22px" />
  <metadata
     id="metadata7">
    <rdf:RDF>
      <cc:Work
         rdf:about="">
        <dc:format>image/svg+xml</dc:format>
        <dc:type
           rdf:resource="http://purl.org/dc/dcmitype/StillImage" />
        <dc:creator>
          <cc:Agent>
            <dc:title>Lapo Calamandrei</dc:title>
          </cc:Agent>
        </dc:creator>
        <dc:title>Battery</dc:title>
        <dc:subject>
          <rdf:Bag>
            <rdf:li>battery</rdf:li>
            <rdf:li>recharge</rdf:li>
            <rdf:li>power</rdf:li>
            <rdf:li>acpi</rdf:li>
            <rdf:li>apm</rdf:li>
          </rdf:Bag>
        </dc:subject>
        <cc:license
           rdf:resource="http://creativecommons.org/licenses/GPL/2.0/" />
      </cc:Work>
      <cc:License
         rdf:about="http://creativecommons.org/licenses/GPL/2.0/">
        <cc:permits
           rdf:resource="http://web.resource.org/cc/Reproduction" />
        <cc:permits
           rdf:resource="http://web.resource.org/cc/Distribution" />
        <cc:requires
           rdf:resource="http://web.resource.org/cc/Notice" />
        <cc:permits
           rdf:resource="http://web.resource.org/cc/DerivativeWorks" />
        <cc:requires
           rdf:resource="http://web.resource.org/cc/ShareAlike" />
        <cc:requires
           rdf:resource="http://web.resource.org/cc/SourceCode" />
      </cc:License>
    </rdf:RDF>
  </metadata>
  <g
     inkscape:groupmode="layer"
     id="layer6"
     inkscape:label="Shadow"
     style="display:inline">
    <path
       sodipodi:type="arc"
       style="opacity:0.48507463;color:#000000;fill:url(#radialGradient3286);fill-opacity:1;fill-rule:nonzero;stroke:none;stroke-width:1;stroke-linecap:round;stroke-linejoin:round;marker:none;marker-start:none;marker-mid:none;marker-end:none;stroke-miterlimit:4;stroke-dasharray:none;stroke-dashoffset:0;stroke-opacity:1;visibility:visible;display:inline;overflow:visible"
       id="path3278"
       sodipodi:cx="21.34375"
       sodipodi:cy="14.125"
       sodipodi:rx="11.96875"
       sodipodi:ry="3.625"
       d="M 33.3125 14.125 A 11.96875 3.625 0 1 1  9.375,14.125 A 11.96875 3.625 0 1 1  33.3125 14.125 z"
       transform="matrix(0.91906,0,0,0.965517,-9.1161878,5.3620717)" />
  </g>
  <g
     inkscape:groupmode="layer"
     id="layer2"
     inkscape:label="Battery"
     style="display:inline" />
  <g
     inkscape:groupmode="layer"
     id="layer4"
     inkscape:label="inner stroke"
     style="display:inline" />
  <g
     inkscape:groupmode="layer"
     id="layer5"
     inkscape:label="tip"
     style="display:inline">
    <path
       style="color:#000000;fill:url(#linearGradient7395);fill-opacity:1;fill-rule:nonzero;stroke:#888a85;stroke-width:1;stroke-linecap:round;stroke-linejoin:round;marker:none;marker-start:none;marker-mid:none;marker-end:none;stroke-miterlimit:4;stroke-dasharray:none;stroke-dashoffset:0;stroke-opacity:1;visibility:visible;display:inline;overflow:visible"
       d="M 9.49988,1.2139696 C 5.553277,1.3603744 2.495235,2.374592 2.495235,3.580572 L 2.495235,18.13253 C 2.495235,19.438895 6.081613,20.499133 10.500544,20.499133 C 14.919475,20.499133 18.505853,19.438895 18.505853,18.13253 L 18.505853,3.580572 C 18.505853,2.2742075 14.919475,1.2139696 10.500544,1.2139696 C 10.258884,1.2139696 10.02797,1.2077624 9.79174,1.2139696 C 9.696036,1.216485 9.594598,1.2104536 9.49988,1.2139696 z "
       id="path2217"
       sodipodi:nodetypes="cccsccssc" />
    <path
       sodipodi:nodetypes="ccsccc"
       id="path7457"
       d="M 4.5,13.003994 L 4.5,17.180565 C 4.5,17.92654 7.199768,18.535759 10.52627,18.535759 C 13.852771,18.535759 16.55254,17.92654 16.55254,17.180565 L 16.55254,13.003994 L 4.5,13.003994 z "
       style="color:#000000;fill:url(#linearGradient7392);fill-opacity:1;fill-rule:nonzero;stroke:#c4a000;stroke-width:0.99999994;stroke-linecap:round;stroke-linejoin:round;marker:none;marker-start:none;marker-mid:none;marker-end:none;stroke-miterlimit:4;stroke-dasharray:none;stroke-dashoffset:0;stroke-opacity:1;visibility:visible;display:inline;overflow:visible;enable-background:accumulate" />
    <path
       transform="matrix(0.7627219,0,0,0.3085557,-1.837079,1.1075083)"
       d="M 24.041631 38.542446 A 7.8665628 4.8613591 0 1 1  8.3085051,38.542446 A 7.8665628 4.8613591 0 1 1  24.041631 38.542446 z"
       sodipodi:ry="4.8613591"
       sodipodi:rx="7.8665628"
       sodipodi:cy="38.542446"
       sodipodi:cx="16.175068"
       id="path7459"
       style="color:#000000;fill:#fce94f;fill-opacity:1;fill-rule:nonzero;stroke:url(#radialGradient7364);stroke-width:2.06134176;stroke-linecap:round;stroke-linejoin:round;marker:none;marker-start:none;marker-mid:none;marker-end:none;stroke-miterlimit:4;stroke-dasharray:none;stroke-dashoffset:0;stroke-opacity:1;visibility:visible;display:inline;overflow:visible;enable-background:accumulate"
       sodipodi:type="arc" />
    <path
       style="opacity:0.58208953;color:#000000;fill:url(#linearGradient7388);fill-opacity:1;fill-rule:nonzero;stroke:none;stroke-width:1;stroke-linecap:round;stroke-linejoin:round;marker:none;marker-start:none;marker-mid:none;marker-end:none;stroke-miterlimit:4;stroke-dashoffset:0;stroke-opacity:1;visibility:visible;display:inline;overflow:visible"
       d="M 6,5.5 L 9,6.082468 L 9,20.37235 L 6,19.867545 L 6,5.5 z "
       id="rect3244"
       sodipodi:nodetypes="ccccc" />
    <path
       style="opacity:0.52238805;color:#000000;fill:url(#linearGradient7385);fill-opacity:1;fill-rule:nonzero;stroke:none;stroke-width:1;stroke-linecap:round;stroke-linejoin:round;marker:none;marker-start:none;marker-mid:none;marker-end:none;stroke-miterlimit:4;stroke-dasharray:none;stroke-dashoffset:0;stroke-opacity:1;visibility:visible;display:inline;overflow:visible"
       d="M 9.562499,2.0025751 C 5.865013,2.1392034 3,3.0856987 3,4.2111511 L 3,17.791423 C 3,19.010559 6.36,20 10.5,20 C 14.64,20 18,19.01056 18,17.791423 L 18,4.2111511 C 18,2.992016 14.64,2.0025751 10.5,2.0025751 C 10.273594,2.0025751 10.057255,1.9967811 9.835937,2.0025751 C 9.746274,2.0049226 9.651239,1.9992964 9.562499,2.0025751 z "
       id="path3288"
       sodipodi:nodetypes="csssssssc" />
    <path
       sodipodi:type="arc"
       style="opacity:0.63921569;color:#000000;fill:url(#linearGradient7370);fill-opacity:1;fill-rule:nonzero;stroke:none;stroke-width:1;stroke-linecap:round;stroke-linejoin:round;marker:none;marker-start:none;marker-mid:none;marker-end:none;stroke-miterlimit:4;stroke-dasharray:none;stroke-dashoffset:0;stroke-opacity:1;visibility:visible;display:inline;overflow:visible"
       id="path3263"
       sodipodi:cx="21.34375"
       sodipodi:cy="14.125"
       sodipodi:rx="11.96875"
       sodipodi:ry="3.625"
       d="M 33.3125 14.125 A 11.96875 3.625 0 1 1  9.375,14.125 A 11.96875 3.625 0 1 1  33.3125 14.125 z"
       transform="matrix(0.6266319,0,0,0.7586207,-2.874674,-6.465518)" />
    <path
       sodipodi:type="arc"
       style="color:#000000;fill:url(#radialGradient7372);fill-opacity:1;fill-rule:nonzero;stroke:url(#radialGradient7374);stroke-width:1.54904497;stroke-linecap:round;stroke-linejoin:round;marker:none;marker-start:none;marker-mid:none;marker-end:none;stroke-miterlimit:4;stroke-dasharray:none;stroke-dashoffset:0;stroke-opacity:1;visibility:visible;display:inline;overflow:visible"
       id="path3164"
       sodipodi:cx="21.34375"
       sodipodi:cy="14.125"
       sodipodi:rx="11.96875"
       sodipodi:ry="3.625"
       d="M 33.3125 14.125 A 11.96875 3.625 0 1 1  9.375,14.125 A 11.96875 3.625 0 1 1  33.3125 14.125 z"
       transform="matrix(0.6273049,0,0,0.6431113,-2.889038,-4.9071698)" />
    <path
       sodipodi:type="inkscape:offset"
       inkscape:radius="-1.0625"
       inkscape:original="M 29.5 1.21875 C 25.553397 1.3651548 22.5 2.38777 22.5 3.59375 L 22.5 18.125 C 22.5 19.431365 26.081069 20.5 30.5 20.5 C 34.918931 20.500001 38.5 19.431365 38.5 18.125 L 38.5 3.59375 C 38.500001 2.2873856 34.918931 1.21875 30.5 1.21875 C 30.25834 1.21875 30.01748 1.2125428 29.78125 1.21875 C 29.685546 1.2212654 29.594718 1.215234 29.5 1.21875 z "
       style="opacity:0.55;color:#000000;fill:none;fill-opacity:1;fill-rule:nonzero;stroke:#ffffff;stroke-width:0.99805796;stroke-linecap:round;stroke-linejoin:round;marker:none;marker-start:none;marker-mid:none;marker-end:none;stroke-miterlimit:4;stroke-dasharray:none;stroke-dashoffset:0;stroke-opacity:1;visibility:visible;display:inline;overflow:visible"
       id="path6358"
       d="M 29.53125,2.28125 C 27.639385,2.3514314 25.988298,2.6237533 24.875,3 C 24.318351,3.1881234 23.890342,3.4063999 23.6875,3.5625 C 23.484658,3.7186001 23.5625,3.7406088 23.5625,3.59375 L 23.5625,18.125 C 23.5625,17.966162 23.493843,18.007841 23.75,18.1875 C 24.006157,18.367159 24.503004,18.587007 25.15625,18.78125 C 26.462743,19.169736 28.376183,19.4375 30.5,19.4375 C 32.623817,19.4375 34.537257,19.169736 35.84375,18.78125 C 36.496996,18.587007 36.993843,18.367159 37.25,18.1875 C 37.506157,18.007841 37.4375,17.966162 37.4375,18.125 L 37.4375,3.59375 C 37.4375,3.7525885 37.506157,3.7109093 37.25,3.53125 C 36.993843,3.3515907 36.496996,3.1317431 35.84375,2.9375 C 34.537257,2.5490138 32.623817,2.28125 30.5,2.28125 C 30.240146,2.28125 30.01118,2.2760295 29.8125,2.28125 C 29.654552,2.2854014 29.555794,2.2803389 29.53125,2.28125 z "
       transform="matrix(1.0038954,0,0,1,-20.091728,0)" />
    <g
       id="g7335"
       transform="translate(-30,0)">
      <path
         sodipodi:nodetypes="cssssssssssssssssssssssssssssc"
         id="path3205"
         d="M 40.250013,0.53750163 C 39.407891,0.58511876 38.725191,0.87761717 38.546979,1.241095 C 38.543647,1.2483247 38.534288,1.2708338 38.531355,1.2781262 C 38.529989,1.2817878 38.516996,1.2929654 38.515731,1.2966419 C 38.514567,1.3003331 38.516791,1.311452 38.515731,1.3151574 C 38.510942,1.3337542 38.502267,1.3702937 38.500106,1.3892199 C 38.499781,1.3930172 38.500324,1.4039257 38.500106,1.4077355 C 38.499997,1.4115566 38.500106,2.6074175 38.500106,2.6112504 C 38.500106,2.6150834 38.499997,2.625945 38.500106,2.6297661 C 38.500324,2.6335759 38.499781,2.6444844 38.500106,2.6482817 C 38.502267,2.6672079 38.510942,2.7037474 38.515731,2.7223441 C 38.516791,2.7260496 38.514567,2.7371685 38.515731,2.7408597 C 38.516996,2.7445362 38.529989,2.7557137 38.531355,2.7593753 C 38.534288,2.7666679 38.543647,2.7891769 38.546979,2.7964066 C 38.742835,3.1958722 39.542676,3.5 40.5,3.5 C 41.457324,3.5 42.257164,3.1958722 42.453021,2.7964066 C 42.456352,2.7891769 42.465711,2.7666679 42.468645,2.7593753 C 42.470011,2.7557137 42.483004,2.7445362 42.484269,2.7408597 C 42.485432,2.7371685 42.483208,2.7260496 42.484269,2.7223441 C 42.489058,2.7037474 42.497731,2.6672079 42.499893,2.6482817 C 42.500218,2.6444844 42.499675,2.6335759 42.499893,2.6297661 C 42.500002,2.625945 42.499893,2.6150834 42.499893,2.6112504 C 42.499893,2.6074175 42.500002,1.4115566 42.499893,1.4077355 C 42.499675,1.4039257 42.500218,1.3930172 42.499893,1.3892199 C 42.497731,1.3702937 42.489058,1.3337542 42.484269,1.3151574 C 42.483208,1.311452 42.485432,1.3003331 42.484269,1.2966419 C 42.483004,1.2929654 42.470011,1.2817878 42.468645,1.2781262 C 42.465711,1.2708338 42.456352,1.2483247 42.453021,1.241095 C 42.257164,0.84162933 41.457324,0.53750163 40.5,0.53750163 C 40.413755,0.53750163 40.333391,0.53278705 40.250013,0.53750163 z "
         style="color:#000000;fill:#eeeeec;fill-opacity:1;fill-rule:nonzero;stroke:url(#linearGradient7376);stroke-width:0.99999994;stroke-linecap:round;stroke-linejoin:round;marker:none;marker-start:none;marker-mid:none;marker-end:none;stroke-miterlimit:4;stroke-dasharray:none;stroke-dashoffset:0;stroke-opacity:1;visibility:visible;display:inline;overflow:visible" />
      <path
         transform="matrix(0.375,0,0,0.3333335,32.4375,-2.1666681)"
         d="M 25.5 11 A 4 1.5 0 1 1  17.5,11 A 4 1.5 0 1 1  25.5 11 z"
         sodipodi:ry="1.5"
         sodipodi:rx="4"
         sodipodi:cy="11"
         sodipodi:cx="21.5"
         id="path3225"
         style="color:#000000;fill:#ffffff;fill-opacity:1;fill-rule:nonzero;stroke:none;stroke-width:1;stroke-linecap:round;stroke-linejoin:round;marker:none;marker-start:none;marker-mid:none;marker-end:none;stroke-miterlimit:4;stroke-dasharray:none;stroke-dashoffset:0;stroke-opacity:1;visibility:visible;display:inline;overflow:visible"
         sodipodi:type="arc" />
    </g>
  </g>
</svg>
