<?xml version="1.0" encoding="UTF-8" standalone="no"?>
<!-- Created with Inkscape (http://www.inkscape.org/) -->
<svg
   xmlns:dc="http://purl.org/dc/elements/1.1/"
   xmlns:cc="http://creativecommons.org/ns#"
   xmlns:rdf="http://www.w3.org/1999/02/22-rdf-syntax-ns#"
   xmlns:svg="http://www.w3.org/2000/svg"
   xmlns="http://www.w3.org/2000/svg"
   xmlns:xlink="http://www.w3.org/1999/xlink"
   xmlns:sodipodi="http://sodipodi.sourceforge.net/DTD/sodipodi-0.dtd"
   xmlns:inkscape="http://www.inkscape.org/namespaces/inkscape"
   width="22"
   height="22"
   id="svg2"
   sodipodi:version="0.32"
   inkscape:version="0.45+devel"
   version="1.0"
   sodipodi:docname="dialog-password.svg"
   sodipodi:docbase="/home/lapo/Templates"
   inkscape:output_extension="org.inkscape.output.svg.inkscape">
  <defs
     id="defs4">
    <linearGradient
       inkscape:collect="always"
       id="linearGradient6877">
      <stop
         style="stop-color:#d3d7cf;stop-opacity:1"
         offset="0"
         id="stop6879" />
      <stop
         style="stop-color:#eeeeec;stop-opacity:1"
         offset="1"
         id="stop6881" />
    </linearGradient>
    <linearGradient
       inkscape:collect="always"
       id="linearGradient6863">
      <stop
         style="stop-color:#eeeeec;stop-opacity:1;"
         offset="0"
         id="stop6865" />
      <stop
         style="stop-color:#babdb6;stop-opacity:1"
         offset="1"
         id="stop6867" />
    </linearGradient>
    <linearGradient
       inkscape:collect="always"
       id="linearGradient6855">
      <stop
         style="stop-color:#888a85;stop-opacity:1"
         offset="0"
         id="stop6857" />
      <stop
         style="stop-color:#babdb6;stop-opacity:1"
         offset="1"
         id="stop6859" />
    </linearGradient>
    <linearGradient
       inkscape:collect="always"
       id="linearGradient6847">
      <stop
         style="stop-color:#eeeeec;stop-opacity:1"
         offset="0"
         id="stop6849" />
      <stop
         style="stop-color:#babdb6;stop-opacity:1"
         offset="1"
         id="stop6851" />
    </linearGradient>
    <linearGradient
       inkscape:collect="always"
       id="linearGradient6837">
      <stop
         style="stop-color:#ffffff;stop-opacity:1;"
         offset="0"
         id="stop6839" />
      <stop
         style="stop-color:#ffffff;stop-opacity:0;"
         offset="1"
         id="stop6841" />
    </linearGradient>
    <linearGradient
       inkscape:collect="always"
       id="linearGradient6821">
      <stop
         style="stop-color:#000000;stop-opacity:1;"
         offset="0"
         id="stop6823" />
      <stop
         style="stop-color:#000000;stop-opacity:0;"
         offset="1"
         id="stop6825" />
    </linearGradient>
    <linearGradient
       inkscape:collect="always"
       id="linearGradient6811">
      <stop
         style="stop-color:#ffffff;stop-opacity:1;"
         offset="0"
         id="stop6813" />
      <stop
         style="stop-color:#ffffff;stop-opacity:0;"
         offset="1"
         id="stop6815" />
    </linearGradient>
    <linearGradient
       inkscape:collect="always"
       id="linearGradient6762">
      <stop
         style="stop-color:#000000;stop-opacity:1;"
         offset="0"
         id="stop6764" />
      <stop
         style="stop-color:#000000;stop-opacity:0;"
         offset="1"
         id="stop6766" />
    </linearGradient>
    <linearGradient
       inkscape:collect="always"
       id="linearGradient6753">
      <stop
         style="stop-color:#888a85;stop-opacity:1"
         offset="0"
         id="stop6755" />
      <stop
         style="stop-color:#eeeeec;stop-opacity:1"
         offset="1"
         id="stop6757" />
    </linearGradient>
    <linearGradient
       inkscape:collect="always"
       id="linearGradient6742">
      <stop
         style="stop-color:#ffffff;stop-opacity:1;"
         offset="0"
         id="stop6744" />
      <stop
         style="stop-color:#ffffff;stop-opacity:0;"
         offset="1"
         id="stop6746" />
    </linearGradient>
    <linearGradient
       inkscape:collect="always"
       id="linearGradient6833">
      <stop
         style="stop-color:#ffffff;stop-opacity:1;"
         offset="0"
         id="stop6835" />
      <stop
         style="stop-color:#ffffff;stop-opacity:0;"
         offset="1"
         id="stop6837" />
    </linearGradient>
    <linearGradient
       inkscape:collect="always"
       id="linearGradient6793">
      <stop
         style="stop-color:#d3d7cf;stop-opacity:1;"
         offset="0"
         id="stop6795" />
      <stop
         style="stop-color:#eeeeec;stop-opacity:1"
         offset="1"
         id="stop6797" />
    </linearGradient>
    <linearGradient
       inkscape:collect="always"
       xlink:href="#linearGradient6793"
       id="linearGradient6119"
       gradientUnits="userSpaceOnUse"
       gradientTransform="matrix(0.7071068,0.7071068,-0.7071068,0.7071068,4.0850314,-5.107357)"
       x1="9.4656744"
       y1="4.9728107"
       x2="13.530422"
       y2="8.6812181" />
    <linearGradient
       inkscape:collect="always"
       xlink:href="#linearGradient6762"
       id="linearGradient6121"
       gradientUnits="userSpaceOnUse"
       x1="6.5"
       y1="9"
       x2="7.5"
       y2="5.5" />
    <linearGradient
       inkscape:collect="always"
       xlink:href="#linearGradient6833"
       id="linearGradient6123"
       gradientUnits="userSpaceOnUse"
       x1="8.7232523"
       y1="6.2651649"
       x2="5.9061942"
       y2="5.2978506" />
    <linearGradient
       inkscape:collect="always"
       xlink:href="#linearGradient6742"
       id="linearGradient6125"
       gradientUnits="userSpaceOnUse"
       x1="9.9340439"
       y1="4.53125"
       x2="10.562407"
       y2="22.717516" />
    <linearGradient
       inkscape:collect="always"
       xlink:href="#linearGradient6753"
       id="linearGradient6127"
       gradientUnits="userSpaceOnUse"
       x1="14.4375"
       y1="13.8125"
       x2="8"
       y2="7.5" />
    <linearGradient
       inkscape:collect="always"
       xlink:href="#linearGradient6793"
       id="linearGradient6776"
       gradientUnits="userSpaceOnUse"
       gradientTransform="matrix(0,1.0000001,-1.0000001,0,2.9939421,-1.0071264)"
       x1="9.4656744"
       y1="4.9728107"
       x2="13.530422"
       y2="8.6812181" />
    <linearGradient
       inkscape:collect="always"
       xlink:href="#linearGradient6762"
       id="linearGradient6778"
       gradientUnits="userSpaceOnUse"
       gradientTransform="matrix(0.7071068,0.7071068,-0.7071068,0.7071068,-3.506058,-0.3596506)"
       x1="6.4375"
       y1="6.7797499"
       x2="8.4537582"
       y2="8.7975082" />
    <linearGradient
       inkscape:collect="always"
       xlink:href="#linearGradient6833"
       id="linearGradient6780"
       gradientUnits="userSpaceOnUse"
       x1="8.7232523"
       y1="6.2651649"
       x2="6.1381931"
       y2="6.2651649" />
    <linearGradient
       inkscape:collect="always"
       xlink:href="#linearGradient6753"
       id="linearGradient6782"
       gradientUnits="userSpaceOnUse"
       gradientTransform="matrix(0.7071068,0.7071068,-0.7071068,0.7071068,-3.506058,-0.3596506)"
       x1="9.2127371"
       y1="9.4198446"
       x2="17.65192"
       y2="17.15192" />
    <radialGradient
       inkscape:collect="always"
       xlink:href="#linearGradient6811"
       id="radialGradient6817"
       cx="2.0133355"
       cy="-0.56112808"
       fx="2.0133355"
       fy="-0.56112808"
       r="4.4564355"
       gradientTransform="matrix(1.8934298,-0.5603083,0.3410254,0.8002882,-1.5251608,2.5117967)"
       gradientUnits="userSpaceOnUse" />
    <radialGradient
       inkscape:collect="always"
       xlink:href="#linearGradient6821"
       id="radialGradient6827"
       cx="6.53125"
       cy="5.5"
       fx="6.53125"
       fy="5.5"
       r="2.90625"
       gradientTransform="matrix(1,0,0,0.5376344,0,2.5430108)"
       gradientUnits="userSpaceOnUse" />
    <linearGradient
       inkscape:collect="always"
       xlink:href="#linearGradient6837"
       id="linearGradient6843"
       x1="-7.96875"
       y1="11.5"
       x2="0.96875"
       y2="11.5"
       gradientUnits="userSpaceOnUse" />
    <radialGradient
       inkscape:collect="always"
       xlink:href="#linearGradient6847"
       id="radialGradient6853"
       cx="3.625"
       cy="1.5411059"
       fx="3.625"
       fy="1.5411059"
       r="5.40625"
       gradientTransform="matrix(0.9538273,0,0,0.5635838,0.1673761,1.7252077)"
       gradientUnits="userSpaceOnUse" />
    <linearGradient
       inkscape:collect="always"
       xlink:href="#linearGradient6855"
       id="linearGradient6861"
       x1="4.703125"
       y1="11.5"
       x2="0.71875"
       y2="7.0625"
       gradientUnits="userSpaceOnUse" />
    <linearGradient
       inkscape:collect="always"
       xlink:href="#linearGradient6863"
       id="linearGradient6869"
       x1="0.9375"
       y1="6.5625"
       x2="3.625"
       y2="8.75"
       gradientUnits="userSpaceOnUse" />
    <linearGradient
       inkscape:collect="always"
       xlink:href="#linearGradient6877"
       id="linearGradient6883"
       x1="10.689062"
       y1="5.46875"
       x2="7.875"
       y2="5.46875"
       gradientUnits="userSpaceOnUse" />
    <radialGradient
       inkscape:collect="always"
       xlink:href="#linearGradient6821"
       id="radialGradient6887"
       gradientUnits="userSpaceOnUse"
       gradientTransform="matrix(1,0,0,0.5376344,0,2.5430108)"
       cx="6.53125"
       cy="5.5"
       fx="6.53125"
       fy="5.5"
       r="2.90625" />
  </defs>
  <sodipodi:namedview
     id="base"
     pagecolor="#ffffff"
     bordercolor="#666666"
     borderopacity="0.37647059"
     inkscape:pageopacity="0.0"
     inkscape:pageshadow="2"
     inkscape:zoom="1"
     inkscape:cx="8.9653376"
     inkscape:cy="11.489127"
     inkscape:document-units="px"
     inkscape:current-layer="layer1"
     width="22px"
     height="22px"
     inkscape:showpageshadow="false"
     gridempspacing="2"
     gridspacingx="0.5px"
     gridspacingy="0.5px"
     inkscape:window-width="872"
     inkscape:window-height="696"
     inkscape:window-x="38"
     inkscape:window-y="37"
     borderlayer="true"
     inkscape:snap-nodes="true"
     inkscape:snap-bbox="true"
     gridtolerance="10000"
     showborder="false">
    <inkscape:grid
       type="xygrid"
       id="grid6054"
       spacingx="0.5px"
       spacingy="0.5px"
       empspacing="2" />
  </sodipodi:namedview>
  <metadata
     id="metadata7">
    <rdf:RDF>
      <cc:Work
         rdf:about="">
        <dc:format>image/svg+xml</dc:format>
        <dc:type
           rdf:resource="http://purl.org/dc/dcmitype/StillImage" />
        <dc:creator>
          <cc:Agent>
            <dc:title>Lapo Calamandrei</dc:title>
          </cc:Agent>
        </dc:creator>
        <cc:license
           rdf:resource="http://creativecommons.org/licenses/GPL/2.0/" />
      </cc:Work>
      <cc:License
         rdf:about="http://creativecommons.org/licenses/GPL/2.0/">
        <cc:permits
           rdf:resource="http://web.resource.org/cc/Reproduction" />
        <cc:permits
           rdf:resource="http://web.resource.org/cc/Distribution" />
        <cc:requires
           rdf:resource="http://web.resource.org/cc/Notice" />
        <cc:permits
           rdf:resource="http://web.resource.org/cc/DerivativeWorks" />
        <cc:requires
           rdf:resource="http://web.resource.org/cc/ShareAlike" />
        <cc:requires
           rdf:resource="http://web.resource.org/cc/SourceCode" />
      </cc:License>
    </rdf:RDF>
  </metadata>
  <g
     inkscape:label="Livello 1"
     inkscape:groupmode="layer"
     id="layer1">
    <path
       style="opacity:1;fill:url(#linearGradient6869);fill-opacity:1;fill-rule:evenodd;stroke:url(#linearGradient6861);stroke-width:1;stroke-linecap:round;stroke-linejoin:miter;stroke-miterlimit:4;stroke-dasharray:none;stroke-dashoffset:0.69999992000000000;stroke-opacity:1"
       d="M 7.84375,6.7000001 C 7.296591,7.1103691 6.44965,7.4125001 5.5,7.4125001 C 4.55035,7.4125001 3.703409,7.1103691 3.15625,6.7000001 C 2.609091,6.2896311 2.40625,5.8538364 2.40625,5.5000001 C 2.40625,5.1461638 2.609091,4.7103691 3.15625,4.3000001 M 2.1875,2.4625001 C 1.286659,3.1381311 0.59375,4.1978364 0.59375,5.5000001 C 0.59375,6.8021638 1.286659,7.8618691 2.1875,8.5375001 C 3.088341,9.2131311 4.24165,9.5875001 5.5,9.5875001 C 6.75835,9.5875001 7.911659,9.2131311 8.8125,8.5375001"
       id="path6796"
       sodipodi:nodetypes="csssccssss" />
    <path
       sodipodi:type="arc"
       style="opacity:0.27149321;fill:url(#radialGradient6887);fill-opacity:1;fill-rule:evenodd;stroke:none;stroke-width:1;stroke-linecap:round;stroke-linejoin:miter;stroke-miterlimit:4;stroke-dasharray:none;stroke-dashoffset:0.69999992000000000;stroke-opacity:1"
       id="path6885"
       sodipodi:cx="6.53125"
       sodipodi:cy="5.5"
       sodipodi:rx="2.90625"
       sodipodi:ry="1.5625"
       d="M 9.4375,5.5 A 2.90625,1.5625 0 1 1 3.625,5.5 A 2.90625,1.5625 0 1 1 9.4375,5.5 z"
       transform="matrix(1.548387,0,0,1.28,-1.612903,12.96)" />
    <g
       id="g6769"
       transform="translate(12,0)">
      <path
         id="path6081"
         d="M 0.0294758,3.9584078 C -0.87552433,3.0534077 -2.1260583,2.5 -3.5060582,2.5 C -6.2660581,2.5 -8.5,4.7339416 -8.5,7.4939418 C -8.4999997,9.5385796 -7.2541443,11.271336 -5.4947961,12.045942 L -5.5000002,14.575418 L -4.5,16 L -5.5,17.5 L -5.5,18.5 C -5.5,18.5 -3.5,20.5 -3.5,20.5 L -2.5000011,20.5 L -1.5,19.5 L -1.5173203,12.045942 C 0.242028,11.271336 1.4878833,9.5385796 1.4878836,7.4939418 C 1.4878837,6.1139418 0.93447593,4.8634079 0.0294758,3.9584078 z M -2.7989514,5.3726214 C -2.6179513,5.5536215 -2.4895922,5.803728 -2.4895922,6.0797282 C -2.489592,6.6317287 -2.9540578,7.0961942 -3.5060582,7.0961942 C -4.0580582,7.0961943 -4.5225242,6.6317286 -4.5225242,6.0797282 C -4.5225242,5.5277278 -4.0580586,5.0632622 -3.5060582,5.0632622 C -3.230058,5.0632622 -2.9799515,5.1916213 -2.7989514,5.3726214 z"
         style="fill:url(#linearGradient6776);fill-opacity:1;fill-rule:evenodd;stroke:#888a85;stroke-width:1;stroke-linecap:round;stroke-linejoin:round;stroke-miterlimit:4;stroke-dasharray:none;stroke-dashoffset:0.69999992;stroke-opacity:1"
         sodipodi:nodetypes="csscccccccccsccssssc" />
      <path
         id="path6083"
         d="M 0.71269221,8.9174565 L -7.7248082,8.9174565 C -7.1033899,10.658697 -5.459898,11.917457 -3.506058,11.917457 C -1.5522181,11.917457 0.091274801,10.658698 0.71269221,8.9174565 z"
         style="opacity:0.06334845;fill:url(#linearGradient6778);fill-opacity:1;fill-rule:evenodd;stroke:none;stroke-width:1;stroke-linecap:round;stroke-linejoin:round;stroke-miterlimit:4;stroke-dasharray:none;stroke-dashoffset:0.69999992;stroke-opacity:1" />
      <path
         d="M -3.5,3.53125 C -5.7081443,3.53125 -7.46875,5.2918555 -7.46875,7.5 C -7.4687498,9.1320467 -6.5076956,10.471218 -5.09375,11.09375 C -4.7160672,11.2524 -4.4699334,11.621601 -4.46875,12.03125 L -4.46875,14.25 L -3.65625,15.40625 C -3.4167176,15.75445 -3.4167176,16.2143 -3.65625,16.5625 L -4.46875,17.78125 L -4.46875,18.09375 C -4.1062012,18.456299 -3.4562988,19.106201 -3.09375,19.46875 L -2.90625,19.46875 L -2.53125,19.09375 L -2.5625,12.03125 C -2.5613166,11.621601 -2.3151828,11.2524 -1.9375,11.09375 C -0.51947782,10.469423 0.46874976,9.1216542 0.46875,7.5 C 0.46875008,6.3977756 0.036201058,5.411201 -0.6875,4.6875 C -1.411201,3.9637989 -2.3977756,3.53125 -3.5,3.53125 z"
         id="path6765"
         style="opacity:0.52036205000000002;fill:none;fill-opacity:1;fill-rule:evenodd;stroke:url(#linearGradient6843);stroke-width:1;stroke-linecap:round;stroke-linejoin:round;stroke-miterlimit:4;stroke-dasharray:none;stroke-dashoffset:0.69999992000000000;stroke-opacity:1"
         inkscape:original="M -3.5 2.5 C -6.2599999 2.5 -8.5 4.7399998 -8.5 7.5 C -8.4999997 9.5446378 -7.2593482 11.256644 -5.5 12.03125 L -5.5 14.5625 L -4.5 16 L -5.5 17.5 L -5.5 18.5 C -5.5 18.5 -3.5 20.5 -3.5 20.5 L -2.5 20.5 L -1.5 19.5 L -1.53125 12.03125 C 0.22809828 11.256644 1.4999997 9.5446378 1.5 7.5 C 1.5000001 6.12 0.93625013 4.8737501 0.03125 3.96875 C -0.87375013 3.0637498 -2.1200001 2.5 -3.5 2.5 z "
         inkscape:radius="-1.0199475"
         sodipodi:type="inkscape:offset" />
      <path
         transform="matrix(0,1.3333333,-1.3333333,0,4.493942,-3.3285949)"
         d="M 8.5,6 A 1.5,1.5 0 1 1 5.5,6 A 1.5,1.5 0 1 1 8.5,6 z"
         sodipodi:ry="1.5"
         sodipodi:rx="1.5"
         sodipodi:cy="6"
         sodipodi:cx="7"
         id="path6085"
         style="fill:none;fill-opacity:1;fill-rule:evenodd;stroke:url(#linearGradient6780);stroke-width:0.75;stroke-linecap:round;stroke-linejoin:round;stroke-miterlimit:4;stroke-dasharray:none;stroke-dashoffset:0.69999992;stroke-opacity:1"
         sodipodi:type="arc" />
      <path
         sodipodi:nodetypes="cc"
         id="path6091"
         d="M -3.1525046,18.37868 L -3.1525046,12.721825"
         style="fill:none;fill-opacity:1;fill-rule:evenodd;stroke:url(#linearGradient6782);stroke-width:1px;stroke-linecap:round;stroke-linejoin:miter;stroke-opacity:1" />
    </g>
    <path
       style="fill:#000000;fill-opacity:1;fill-rule:evenodd;stroke:#000000;stroke-width:1;stroke-linecap:round;stroke-linejoin:round;stroke-miterlimit:4;stroke-dasharray:none;stroke-dashoffset:0.69999992000000000;stroke-opacity:1;opacity:0.14027149"
       d="M 9.5 2.59375 C 8.5663877 2.7819214 7.6929324 3.2445676 6.96875 3.96875 C 5.0171354 5.9203646 5.0171352 9.0796352 6.96875 11.03125 C 7.9351022 11.997602 9.203404 12.468405 10.46875 12.46875 L 10.46875 12.03125 C 12.228099 11.256644 13.5 9.5446378 13.5 7.5 C 13.5 6.12 12.93625 4.8737501 12.03125 3.96875 C 11.359419 3.2969188 10.495528 2.795499 9.53125 2.59375 C 9.5213192 2.5916723 9.5099523 2.595769 9.5 2.59375 z M 8.5 5.0625 C 8.7759997 5.0625002 9.0064999 5.1939999 9.1875 5.375 C 9.23275 5.42025 9.2750132 5.4780369 9.3125 5.53125 C 9.3766345 5.5201298 9.4360068 5.5 9.5 5.5 C 9.7559728 5.5 10.023588 5.5860884 10.21875 5.78125 C 10.609073 6.1715732 10.609073 6.8284268 10.21875 7.21875 C 9.8284271 7.609073 9.1715732 7.6090732 8.78125 7.21875 C 8.7376256 7.1751256 8.721373 7.1120388 8.6875 7.0625 C 8.6231759 7.0757572 8.5676471 7.09375 8.5 7.09375 C 7.9479995 7.09375 7.46875 6.6457504 7.46875 6.09375 C 7.4687502 5.5417497 7.9479996 5.0625 8.5 5.0625 z "
       id="path6802" />
    <g
       id="g6111"
       transform="translate(5,1)">
      <path
         id="path7124"
         d="M 5.5,0.5 C 4.2201366,0.50000003 2.9445573,0.99294272 1.96875,1.96875 C 0.017135421,3.9203646 0.017135161,7.0796352 1.96875,9.03125 C 3.4145274,10.477027 5.5207239,10.821318 7.3125,10.125 L 8,11 L 9.5,10.5 L 9.5,12.5 L 11.5,12.5 L 11.5,14 L 12,14.5 C 12,14.5 15,14.5 15,14.5 L 15.5,14 L 15.5,12.5 L 10.125,7.3125 C 10.821318,5.5207238 10.477027,3.4145274 9.03125,1.96875 C 8.0554428,0.9929426 6.7798634,0.49999997 5.5,0.5 z M 4.5,3.5 C 4.7559728,3.5 5.0235884,3.5860884 5.21875,3.78125 C 5.6090734,4.1715732 5.6090732,4.8284268 5.21875,5.21875 C 4.8284271,5.609073 4.1715732,5.6090732 3.78125,5.21875 C 3.3909268,4.8284267 3.3909268,4.1715732 3.78125,3.78125 C 3.9764116,3.5860884 4.2440272,3.5 4.5,3.5 z"
         style="fill:url(#linearGradient6119);fill-opacity:1;fill-rule:evenodd;stroke:#888a85;stroke-width:1;stroke-linecap:round;stroke-linejoin:round;stroke-miterlimit:4;stroke-dasharray:none;stroke-dashoffset:0.69999992;stroke-opacity:1" />
      <path
         id="path6142"
         d="M 9.543012,3.5767984 L 3.5767984,9.543012 C 5.2474506,10.334846 7.2996521,10.062799 8.6812256,8.6812256 C 10.062799,7.2996522 10.334847,5.2474503 9.543012,3.5767984 z"
         style="opacity:0.13574661;fill:url(#linearGradient6121);fill-opacity:1;fill-rule:evenodd;stroke:none;stroke-width:1;stroke-linecap:round;stroke-linejoin:round;stroke-miterlimit:4;stroke-dasharray:none;stroke-dashoffset:0.69999992000000000;stroke-opacity:1" />
      <path
         transform="matrix(0.942809,0.942809,-0.942809,0.942809,3.5574935,-7.7562147)"
         d="M 8.5,6 A 1.5,1.5 0 1 1 5.5,6 A 1.5,1.5 0 1 1 8.5,6 z"
         sodipodi:ry="1.5"
         sodipodi:rx="1.5"
         sodipodi:cy="6"
         sodipodi:cx="7"
         id="path7134"
         style="fill:none;fill-opacity:1;fill-rule:evenodd;stroke:url(#linearGradient6123);stroke-width:0.75;stroke-linecap:round;stroke-linejoin:round;stroke-miterlimit:4;stroke-dasharray:none;stroke-dashoffset:0.69999992;stroke-opacity:1"
         sodipodi:type="arc" />
      <path
         d="M 5.5,1.53125 C 4.4849664,1.53125 3.4683295,1.9066705 2.6875,2.6875 C 1.129419,4.245581 1.1294188,6.7544188 2.6875,8.3125 C 3.8370193,9.462019 5.5070738,9.7121406 6.9375,9.15625 C 7.3657587,8.9946645 7.8492807,9.1346313 8.125,9.5 L 8.375,9.8125 L 9.1875,9.53125 C 9.4986527,9.4323875 9.8382391,9.4866661 10.103073,9.6775927 C 10.367906,9.8685192 10.526718,10.173551 10.53125,10.5 L 10.53125,11.46875 L 11.5,11.46875 C 12.069487,11.468887 12.531113,11.930513 12.53125,12.5 L 12.53125,13.46875 C 13.095934,13.46875 13.904066,13.46875 14.46875,13.46875 L 14.46875,12.9375 L 9.40625,8.0625 C 9.1016694,7.7733588 9.0027957,7.3284268 9.15625,6.9375 C 9.7121406,5.5070736 9.462019,3.8370193 8.3125,2.6875 C 7.5316707,1.9066705 6.5150336,1.53125 5.5,1.53125 z"
         id="path6161"
         style="opacity:0.42986426;fill:none;fill-opacity:1;fill-rule:evenodd;stroke:#ffffff;stroke-width:1;stroke-linecap:round;stroke-linejoin:miter;stroke-miterlimit:4;stroke-dasharray:none;stroke-dashoffset:0.69999992;stroke-opacity:1"
         inkscape:original="M 5.5 0.5 C 4.2201366 0.50000003 2.9445573 0.99294272 1.96875 1.96875 C 0.017135421 3.9203646 0.017135161 7.0796352 1.96875 9.03125 C 3.4145274 10.477027 5.5207239 10.821318 7.3125 10.125 L 8 11 L 9.5 10.5 L 9.5 12.5 L 11.5 12.5 L 11.5 14 L 12 14.5 C 12 14.5 15 14.5 15 14.5 L 15.5 14 L 15.5 12.5 L 10.125 7.3125 C 10.821318 5.5207238 10.477027 3.4145274 9.03125 1.96875 C 8.0554428 0.9929426 6.7798634 0.49999997 5.5 0.5 z "
         inkscape:radius="-1.0313957"
         sodipodi:type="inkscape:offset" />
      <path
         sodipodi:nodetypes="cccsscsc"
         id="path6750"
         d="M 14.46875,13.46875 L 14.46875,12.9375 L 9.40625,8.0625 C 9.1016694,7.7733588 9.0027957,7.3284268 9.15625,6.9375 C 9.7121406,5.5070736 9.462019,3.8370193 8.3125,2.6875 C 7.5316707,1.9066705 6.5150336,1.53125 5.5,1.53125 C 4.4849664,1.53125 3.4683295,1.9066705 2.6875,2.6875 C 1.129419,4.245581 1.1294188,6.7544188 2.6875,8.3125"
         style="fill:none;fill-opacity:1;fill-rule:evenodd;stroke:url(#linearGradient6125);stroke-width:1;stroke-linecap:round;stroke-linejoin:miter;stroke-miterlimit:4;stroke-dashoffset:0.69999992;stroke-opacity:1" />
      <path
         sodipodi:nodetypes="cc"
         id="path6773"
         d="M 13.5,13 L 9.5,9"
         style="opacity:1;fill:none;fill-opacity:1;fill-rule:evenodd;stroke:url(#linearGradient6127);stroke-width:1px;stroke-linecap:round;stroke-linejoin:miter;stroke-opacity:1" />
    </g>
    <path
       sodipodi:type="arc"
       style="opacity:0.3438914;fill:url(#radialGradient6827);fill-opacity:1;fill-rule:evenodd;stroke:none;stroke-width:1;stroke-linecap:round;stroke-linejoin:miter;stroke-miterlimit:4;stroke-dasharray:none;stroke-dashoffset:0.69999992;stroke-opacity:1"
       id="path6819"
       sodipodi:cx="6.53125"
       sodipodi:cy="5.5"
       sodipodi:rx="2.90625"
       sodipodi:ry="1.5625"
       d="M 9.4375,5.5 A 2.90625,1.5625 0 1 1 3.625,5.5 A 2.90625,1.5625 0 1 1 9.4375,5.5 z"
       transform="matrix(1.3494623,0,0,1.56,-1.7355511,-4.455)" />
    <path
       style="opacity:1;fill:url(#linearGradient6883);fill-opacity:1;fill-rule:evenodd;stroke:url(#radialGradient6853);stroke-width:1;stroke-linecap:round;stroke-linejoin:miter;stroke-miterlimit:4;stroke-dasharray:none;stroke-dashoffset:0.69999992000000000;stroke-opacity:1"
       d="M 2.40625,5.5 C 2.4062499,5.1461638 2.6090913,4.722869 3.15625,4.3125 C 3.7034086,3.9021309 4.5503502,3.59375 5.5,3.59375 C 6.4496497,3.59375 7.2965913,3.902131 7.84375,4.3125 C 8.3909086,4.7228689 8.59375,5.1461637 8.59375,5.5 C 8.59375,5.5787502 8.5841545,5.6643143 8.5625,5.75 C 8.5598303,5.760564 8.5655255,5.7706008 8.5625,5.78125 C 8.6885996,6.1891858 9.0508235,6.5 9.5,6.5 C 9.8797197,6.5 10.205684,6.2807631 10.375,5.96875 C 10.376374,5.9584679 10.373713,5.9478178 10.375,5.9375 C 10.393104,5.7923624 10.40625,5.6519671 10.40625,5.5 C 10.40625,4.1978364 9.7133413,3.144381 8.8125,2.46875 C 7.9116586,1.7931191 6.7583502,1.40625 5.5,1.40625 C 4.2416497,1.40625 3.0883413,1.7931191 2.1875,2.46875 C 1.2866586,3.144381 0.59375,4.1978363 0.59375,5.5"
       id="path6784"
       sodipodi:nodetypes="cssssssssssscsc" />
    <path
       sodipodi:type="arc"
       style="opacity:1;fill:none;fill-opacity:1;fill-rule:evenodd;stroke:url(#radialGradient6817);stroke-width:0.91287094000000002;stroke-linecap:round;stroke-linejoin:miter;stroke-miterlimit:4;stroke-dasharray:none;stroke-dashoffset:0.69999992000000000;stroke-opacity:1"
       id="path6809"
       sodipodi:cx="4"
       sodipodi:cy="3.5"
       sodipodi:rx="4"
       sodipodi:ry="2.5"
       d="M 8,3.5 A 4,2.5 0 1 1 0,3.5 A 4,2.5 0 1 1 8,3.5 z"
       transform="matrix(1,0,0,1.2,1.5,1.3000001)" />
  </g>
</svg>
