<?xml version="1.0" encoding="UTF-8" standalone="no"?>
<!-- Created with Inkscape (http://www.inkscape.org/) -->
<svg
   xmlns:dc="http://purl.org/dc/elements/1.1/"
   xmlns:cc="http://web.resource.org/cc/"
   xmlns:rdf="http://www.w3.org/1999/02/22-rdf-syntax-ns#"
   xmlns:svg="http://www.w3.org/2000/svg"
   xmlns="http://www.w3.org/2000/svg"
   xmlns:xlink="http://www.w3.org/1999/xlink"
   xmlns:sodipodi="http://sodipodi.sourceforge.net/DTD/sodipodi-0.dtd"
   xmlns:inkscape="http://www.inkscape.org/namespaces/inkscape"
   width="22"
   height="22"
   id="svg1306"
   sodipodi:version="0.32"
   inkscape:version="0.45+devel"
   sodipodi:docbase="/home/lapo/Icone/cvs/gnome-icon-theme/32x32/mimetypes"
   sodipodi:docname="image-missing.svg"
   version="1.0"
   inkscape:output_extension="org.inkscape.output.svg.inkscape">
  <defs
     id="defs1308">
    <linearGradient
       inkscape:collect="always"
       id="linearGradient5651">
      <stop
         style="stop-color:#888a85;stop-opacity:1;"
         offset="0"
         id="stop5653" />
      <stop
         style="stop-color:#b6b7b4;stop-opacity:1"
         offset="1"
         id="stop5655" />
    </linearGradient>
    <linearGradient
       inkscape:collect="always"
       id="linearGradient5203">
      <stop
         id="stop5207"
         offset="0"
         style="stop-color:#babdb6;stop-opacity:0;" />
      <stop
         id="stop5205"
         offset="1"
         style="stop-color:#babdb6;stop-opacity:1;" />
    </linearGradient>
    <radialGradient
       inkscape:collect="always"
       xlink:href="#linearGradient5203"
       id="radialGradient5209"
       cx="18.926863"
       cy="27.744455"
       fx="18.926863"
       fy="27.744455"
       r="18.013514"
       gradientTransform="matrix(0.6033189,0,0,0.4039314,-0.3637677,4.5673206)"
       gradientUnits="userSpaceOnUse" />
    <linearGradient
       id="linearGradient4928">
      <stop
         id="stop4930"
         offset="0"
         style="stop-color:#fce94f;stop-opacity:1;" />
      <stop
         id="stop4932"
         offset="1"
         style="stop-color:#fce94f;stop-opacity:0;" />
    </linearGradient>
    <linearGradient
       inkscape:collect="always"
       id="linearGradient2807">
      <stop
         style="stop-color:#d3d7cf"
         offset="0"
         id="stop2809" />
      <stop
         style="stop-color:#eeeeec"
         offset="1"
         id="stop2811" />
    </linearGradient>
    <linearGradient
       inkscape:collect="always"
       xlink:href="#linearGradient2807"
       id="linearGradient1968"
       gradientUnits="userSpaceOnUse"
       x1="22.257065"
       y1="52.938255"
       x2="17.160702"
       y2="17.396523"
       gradientTransform="matrix(0.439697,0,0,0.448928,0.4935201,-7.0773384e-2)" />
    <linearGradient
       inkscape:collect="always"
       xlink:href="#linearGradient5651"
       id="linearGradient5657"
       x1="13.047829"
       y1="5.7313089"
       x2="13.047829"
       y2="15.298446"
       gradientUnits="userSpaceOnUse" />
  </defs>
  <sodipodi:namedview
     id="base"
     pagecolor="#ffffff"
     bordercolor="#dedede"
     borderopacity="1"
     inkscape:pageopacity="0.0"
     inkscape:pageshadow="2"
     inkscape:zoom="1"
     inkscape:cx="10.372176"
     inkscape:cy="13.587416"
     inkscape:current-layer="layer1"
     showgrid="false"
     inkscape:grid-bbox="true"
     inkscape:document-units="px"
     fill="#fcaf3e"
     stroke="#555753"
     showguides="true"
     inkscape:guide-bbox="true"
     inkscape:window-width="1048"
     inkscape:window-height="760"
     inkscape:window-x="375"
     inkscape:window-y="225"
     inkscape:showpageshadow="false"
     width="22px"
     height="22px"
     showborder="true"
     borderlayer="true">
    <inkscape:grid
       type="xygrid"
       id="grid5412" />
  </sodipodi:namedview>
  <metadata
     id="metadata1311">
    <rdf:RDF>
      <cc:Work
         rdf:about="">
        <dc:format>image/svg+xml</dc:format>
        <dc:type
           rdf:resource="http://purl.org/dc/dcmitype/StillImage" />
        <dc:title>Missing image</dc:title>
        <dc:creator>
          <cc:Agent>
            <dc:title>Jakub Steiner, Andreas Nilsson</dc:title>
          </cc:Agent>
        </dc:creator>
        <dc:source>http://www.gnome.org</dc:source>
        <dc:contributor>
          <cc:Agent>
            <dc:title>Lapo Calamandrei</dc:title>
          </cc:Agent>
        </dc:contributor>
        <cc:license
           rdf:resource="http://creativecommons.org/licenses/GPL/2.0/" />
      </cc:Work>
      <cc:License
         rdf:about="http://creativecommons.org/licenses/GPL/2.0/">
        <cc:permits
           rdf:resource="http://web.resource.org/cc/Reproduction" />
        <cc:permits
           rdf:resource="http://web.resource.org/cc/Distribution" />
        <cc:requires
           rdf:resource="http://web.resource.org/cc/Notice" />
        <cc:permits
           rdf:resource="http://web.resource.org/cc/DerivativeWorks" />
        <cc:requires
           rdf:resource="http://web.resource.org/cc/ShareAlike" />
        <cc:requires
           rdf:resource="http://web.resource.org/cc/SourceCode" />
      </cc:License>
    </rdf:RDF>
  </metadata>
  <g
     id="layer1"
     inkscape:label="Layer 1"
     inkscape:groupmode="layer">
    <g
       id="g3799"
       transform="matrix(0.4595677,0,0,0.4445106,-72.139567,56.207983)"
       inkscape:r_cx="true"
       inkscape:r_cy="true"
       style="opacity:0.58241763">
      <path
         inkscape:r_cy="true"
         inkscape:r_cx="true"
         id="path1196"
         style="opacity:0.04787233;fill-rule:evenodd;stroke-width:3pt"
         d="M 162.36286,-88.911137 C 160.1183,-88.911137 158.3113,-86.711005 158.3113,-83.978106 C 158.3113,-81.245207 160.1183,-79.045075 162.36286,-79.045075 L 199.63718,-79.045075 C 201.88174,-79.045075 203.68873,-81.245207 203.68873,-83.978106 C 203.68873,-86.711005 201.88174,-88.911137 199.63718,-88.911137 L 162.36286,-88.911137 z" />
      <path
         inkscape:r_cy="true"
         inkscape:r_cx="true"
         id="path1195"
         style="opacity:0.04787233;fill-rule:evenodd;stroke-width:3pt"
         d="M 162.36286,-88.582269 C 160.26794,-88.582269 158.58141,-86.528812 158.58141,-83.978106 C 158.58141,-81.4274 160.26794,-79.373944 162.36286,-79.373944 L 199.63718,-79.373944 C 201.7321,-79.373944 203.41863,-81.4274 203.41863,-83.978106 C 203.41863,-86.528812 201.7321,-88.582269 199.63718,-88.582269 L 162.36286,-88.582269 z" />
      <path
         inkscape:r_cy="true"
         inkscape:r_cx="true"
         id="path1194"
         style="opacity:0.04787233;fill-rule:evenodd;stroke-width:3pt"
         d="M 162.36286,-88.2534 C 160.41757,-88.2534 158.85151,-86.346619 158.85151,-83.978106 C 158.85151,-81.609593 160.41757,-79.702812 162.36286,-79.702812 L 199.63718,-79.702812 C 201.58246,-79.702812 203.14853,-81.609593 203.14853,-83.978106 C 203.14853,-86.346619 201.58246,-88.2534 199.63718,-88.2534 L 162.36286,-88.2534 z" />
      <path
         inkscape:r_cy="true"
         inkscape:r_cx="true"
         id="path1193"
         style="opacity:0.04787233;fill-rule:evenodd;stroke-width:3pt"
         d="M 162.36286,-87.924531 C 160.56721,-87.924531 159.12162,-86.164426 159.12162,-83.978106 C 159.12162,-81.791787 160.56721,-80.031681 162.36286,-80.031681 L 199.63718,-80.031681 C 201.43283,-80.031681 202.87842,-81.791787 202.87842,-83.978106 C 202.87842,-86.164426 201.43283,-87.924531 199.63718,-87.924531 L 162.36286,-87.924531 z" />
      <path
         inkscape:r_cy="true"
         inkscape:r_cx="true"
         id="path1192"
         style="opacity:0.04787233;fill-rule:evenodd;stroke-width:3pt"
         d="M 162.36309,-87.595662 C 160.71708,-87.595662 159.39195,-85.982232 159.39195,-83.978106 C 159.39195,-81.97398 160.71708,-80.36055 162.36309,-80.36055 L 199.63707,-80.36055 C 201.28308,-80.36055 202.60821,-81.97398 202.60821,-83.978106 C 202.60821,-85.982232 201.28308,-87.595662 199.63707,-87.595662 L 162.36309,-87.595662 z" />
      <path
         inkscape:r_cy="true"
         inkscape:r_cx="true"
         id="path1191"
         style="opacity:0.04787233;fill-rule:evenodd;stroke-width:3pt"
         d="M 162.36286,-87.266794 C 160.86649,-87.266794 159.66182,-85.800039 159.66182,-83.978106 C 159.66182,-82.156173 160.86649,-80.689419 162.36286,-80.689419 L 199.63718,-80.689419 C 201.13355,-80.689419 202.33821,-82.156173 202.33821,-83.978106 C 202.33821,-85.800039 201.13355,-87.266794 199.63718,-87.266794 L 162.36286,-87.266794 z" />
      <path
         inkscape:r_cy="true"
         inkscape:r_cx="true"
         id="path1190"
         style="opacity:0.04787233;fill-rule:evenodd;stroke-width:3pt"
         d="M 162.36286,-86.937925 C 161.01612,-86.937925 159.93193,-85.617846 159.93193,-83.978106 C 159.93193,-82.338367 161.01612,-81.018287 162.36286,-81.018287 L 199.63718,-81.018287 C 200.98391,-81.018287 202.06811,-82.338367 202.06811,-83.978106 C 202.06811,-85.617846 200.98391,-86.937925 199.63718,-86.937925 L 162.36286,-86.937925 z" />
      <path
         inkscape:r_cy="true"
         inkscape:r_cx="true"
         id="path1189"
         style="opacity:0.04787233;fill-rule:evenodd;stroke-width:3pt"
         d="M 162.36286,-86.609056 C 161.16576,-86.609056 160.20203,-85.435652 160.20203,-83.978106 C 160.20203,-82.52056 161.16576,-81.347156 162.36286,-81.347156 L 199.63718,-81.347156 C 200.83428,-81.347156 201.79801,-82.52056 201.79801,-83.978106 C 201.79801,-85.435652 200.83428,-86.609056 199.63718,-86.609056 L 162.36286,-86.609056 z" />
    </g>
    <rect
       style="fill:url(#linearGradient1968);fill-opacity:1;stroke:#8a8a8a;stroke-width:0.99999850999999995;stroke-linecap:round;stroke-linejoin:round;stroke-miterlimit:4;stroke-dasharray:none;stroke-dashoffset:0;stroke-opacity:1"
       id="rect2073"
       width="18.905804"
       height="17.956406"
       x="1.5927627"
       y="1.5004743"
       rx="1.7313067"
       ry="1.7676538" />
    <rect
       style="fill:none;fill-opacity:1;stroke:#ffffff;stroke-width:0.99999857;stroke-linecap:round;stroke-linejoin:round;stroke-miterlimit:4;stroke-dasharray:none;stroke-dashoffset:0;stroke-opacity:1"
       id="rect2077"
       width="16.961418"
       height="15.967561"
       x="2.5661218"
       y="2.5324397"
       rx="0.85525727"
       ry="0.85525727" />
    <rect
       style="opacity:1;color:#000000;fill:url(#radialGradient5209);fill-opacity:1;fill-rule:nonzero;stroke:url(#linearGradient5657);stroke-width:0.99999994000000003;stroke-linecap:round;stroke-linejoin:round;marker:none;marker-start:none;marker-mid:none;marker-end:none;stroke-miterlimit:4;stroke-dasharray:none;stroke-dashoffset:0;stroke-opacity:1;visibility:visible;display:inline;overflow:visible;enable-background:accumulate"
       id="rect2063"
       width="14.889671"
       height="9.9626188"
       x="3.6103289"
       y="5.5"
       rx="0.18597738"
       ry="0.18161021" />
    <path
       transform="scale(0.9898936,1.0102096)"
       style="font-size:9.78454876px;font-style:normal;font-variant:normal;font-weight:normal;font-stretch:normal;text-align:start;line-height:125%;writing-mode:lr-tb;text-anchor:start;opacity:0.56024098;fill:#eeeeec;fill-opacity:1;stroke:none;stroke-width:1px;stroke-linecap:butt;stroke-linejoin:miter;stroke-opacity:1;font-family:Myriad"
       d="M 10.998755,12.606382 L 10.979186,12.351984 C 10.949832,11.852972 11.106385,11.422451 11.536905,10.913655 C 12.006563,10.365721 12.378376,9.876492 12.378376,9.2209279 C 12.378376,8.4773029 11.869579,7.7728146 10.744357,7.7728146 C 10.225776,7.7728146 9.6778405,7.9293677 9.3451662,8.1739811 L 9.5799954,8.7904077 C 9.8246088,8.5947169 10.215991,8.4870867 10.568235,8.4870867 C 11.184661,8.4870867 11.497767,8.8295464 11.497767,9.3285579 C 11.497767,9.7590776 11.253153,10.140676 10.812849,10.659257 C 10.323622,11.246329 10.147499,11.823619 10.206206,12.351984 L 10.225776,12.606382 L 10.998755,12.606382 M 10.597588,14.706597 C 10.949832,14.706597 11.174877,14.442414 11.174877,14.099955 C 11.174877,13.737927 10.949832,13.483528 10.597588,13.483528 C 10.264914,13.483528 10.0203,13.737927 10.0203,14.099955 C 10.0203,14.442414 10.25513,14.706597 10.587804,14.706597 L 10.597588,14.706597"
       id="text5217"
       sodipodi:nodetypes="ccsssccsssccccssscc" />
    <path
       transform="scale(0.9898936,1.0102096)"
       style="font-size:9.78454876px;font-style:normal;font-variant:normal;font-weight:normal;font-stretch:normal;text-align:start;line-height:125%;writing-mode:lr-tb;text-anchor:start;fill:#888a85;fill-opacity:1;stroke:none;stroke-width:1px;stroke-linecap:butt;stroke-linejoin:miter;stroke-opacity:1;font-family:Myriad"
       d="M 10.998755,11.834577 L 10.979186,11.580178 C 10.949832,11.081167 11.106385,10.650646 11.536905,10.14185 C 12.006563,9.5939155 12.378376,9.1046869 12.378376,8.4491228 C 12.378376,7.7054978 11.869579,7.0010096 10.744357,7.0010096 C 10.225776,7.0010096 9.6778405,7.1575626 9.3451662,7.4021761 L 9.5799954,8.0186026 C 9.8246088,7.8229118 10.215991,7.7152816 10.568235,7.7152816 C 11.184661,7.7152816 11.497767,8.0577413 11.497767,8.5567528 C 11.497767,8.9872725 11.253153,9.3688709 10.812849,9.887451 C 10.323622,10.474524 10.147499,11.051813 10.206206,11.580178 L 10.225776,11.834577 L 10.998755,11.834577 M 10.597588,13.99666 C 10.949832,13.99666 11.174877,13.732477 11.174877,13.390018 C 11.174877,13.027991 10.949832,12.773592 10.597588,12.773592 C 10.264914,12.773592 10.0203,13.027991 10.0203,13.390018 C 10.0203,13.732477 10.25513,13.99666 10.587804,13.99666 L 10.597588,13.99666"
       id="text5213"
       sodipodi:nodetypes="ccsssccsssccccssscc" />
  </g>
</svg>
