<?xml version="1.0" encoding="UTF-8" standalone="no"?>
<!-- Created with Inkscape (http://www.inkscape.org/) -->
<svg
   xmlns:dc="http://purl.org/dc/elements/1.1/"
   xmlns:cc="http://web.resource.org/cc/"
   xmlns:rdf="http://www.w3.org/1999/02/22-rdf-syntax-ns#"
   xmlns:svg="http://www.w3.org/2000/svg"
   xmlns="http://www.w3.org/2000/svg"
   xmlns:xlink="http://www.w3.org/1999/xlink"
   xmlns:sodipodi="http://sodipodi.sourceforge.net/DTD/sodipodi-0.dtd"
   xmlns:inkscape="http://www.inkscape.org/namespaces/inkscape"
   inkscape:export-ydpi="90.000000"
   inkscape:export-xdpi="90.000000"
   inkscape:export-filename="/home/jimmac/src/cvs/gnome/nld-ui/trunk/tango-yast2-theme/icons/48x48/apps/apparmor_app_armor.png"
   width="22"
   height="22"
   id="svg11300"
   sodipodi:version="0.32"
   inkscape:version="0.45"
   sodipodi:docbase="/home/dobey/Projects/gnome-icon-theme/22x22/status"
   sodipodi:docname="security-high.svg"
   inkscape:output_extension="org.inkscape.output.svg.inkscape"
   version="1.0">
  <defs
     id="defs3">
    <linearGradient
       inkscape:collect="always"
       id="linearGradient6250">
      <stop
         style="stop-color:#888a85;stop-opacity:1;"
         offset="0"
         id="stop6252" />
      <stop
         style="stop-color:#60615e;stop-opacity:1"
         offset="1"
         id="stop6254" />
    </linearGradient>
    <linearGradient
       inkscape:collect="always"
       id="linearGradient5892">
      <stop
         style="stop-color:#c9b400;stop-opacity:1"
         offset="0"
         id="stop5894" />
      <stop
         style="stop-color:#edd400;stop-opacity:1"
         offset="1"
         id="stop5896" />
    </linearGradient>
    <linearGradient
       id="linearGradient5880">
      <stop
         id="stop5882"
         offset="0"
         style="stop-color:#ffffff;stop-opacity:0;" />
      <stop
         style="stop-color:#ffffff;stop-opacity:1;"
         offset="0.5045045"
         id="stop5884" />
      <stop
         id="stop5886"
         offset="1"
         style="stop-color:#ffffff;stop-opacity:0;" />
    </linearGradient>
    <linearGradient
       inkscape:collect="always"
       id="linearGradient5776">
      <stop
         style="stop-color:#ffffff;stop-opacity:1;"
         offset="0"
         id="stop5778" />
      <stop
         style="stop-color:#ffffff;stop-opacity:0;"
         offset="1"
         id="stop5780" />
    </linearGradient>
    <linearGradient
       inkscape:collect="always"
       id="linearGradient5694">
      <stop
         style="stop-color:#ffffff;stop-opacity:1;"
         offset="0"
         id="stop5696" />
      <stop
         style="stop-color:#ffffff;stop-opacity:0;"
         offset="1"
         id="stop5698" />
    </linearGradient>
    <linearGradient
       id="linearGradient5666">
      <stop
         style="stop-color:#ffffff;stop-opacity:0;"
         offset="0"
         id="stop5668" />
      <stop
         id="stop5682"
         offset="0.5"
         style="stop-color:#ffffff;stop-opacity:1;" />
      <stop
         style="stop-color:#ffffff;stop-opacity:0;"
         offset="1"
         id="stop5670" />
    </linearGradient>
    <linearGradient
       inkscape:collect="always"
       id="linearGradient5556">
      <stop
         style="stop-color:#ef2929;stop-opacity:1"
         offset="0"
         id="stop5558" />
      <stop
         style="stop-color:#cc0000;stop-opacity:1"
         offset="1"
         id="stop5560" />
    </linearGradient>
    <linearGradient
       inkscape:collect="always"
       id="linearGradient5541">
      <stop
         style="stop-color:#fff8ff;stop-opacity:1"
         offset="0"
         id="stop5543" />
      <stop
         style="stop-color:#746f76;stop-opacity:1"
         offset="1"
         id="stop5545" />
    </linearGradient>
    <linearGradient
       inkscape:collect="always"
       id="linearGradient15679">
      <stop
         style="stop-color:#000000;stop-opacity:1;"
         offset="0"
         id="stop15681" />
      <stop
         style="stop-color:#000000;stop-opacity:0;"
         offset="1"
         id="stop15683" />
    </linearGradient>
    <radialGradient
       inkscape:collect="always"
       xlink:href="#linearGradient15679"
       id="radialGradient5566"
       gradientUnits="userSpaceOnUse"
       gradientTransform="matrix(1,0,0,0.316364,0,27.98636)"
       cx="23.3125"
       cy="40.9375"
       fx="23.3125"
       fy="40.9375"
       r="17.1875" />
    <filter
       inkscape:collect="always"
       x="-0.11315908"
       width="1.2263182"
       y="-0.35768676"
       height="1.7153735"
       id="filter5652">
      <feGaussianBlur
         inkscape:collect="always"
         stdDeviation="1.6207681"
         id="feGaussianBlur5654" />
    </filter>
    <linearGradient
       inkscape:collect="always"
       xlink:href="#linearGradient5541"
       id="linearGradient5664"
       gradientUnits="userSpaceOnUse"
       x1="10.25"
       y1="23.75"
       x2="37.750107"
       y2="23.75"
       gradientTransform="matrix(0.4965104,0,0,0.4667893,-0.3150581,-0.3143572)" />
    <radialGradient
       inkscape:collect="always"
       xlink:href="#linearGradient5694"
       id="radialGradient5700"
       cx="33.35825"
       cy="25.90712"
       fx="33.35825"
       fy="25.90712"
       r="2.5625"
       gradientTransform="matrix(8.4634146,0,0,6.1219512,-258.8872,-133.28963)"
       gradientUnits="userSpaceOnUse" />
    <filter
       inkscape:collect="always"
       x="-0.56632382"
       width="2.1326478"
       y="-0.092507079"
       height="1.1850142"
       id="filter5770">
      <feGaussianBlur
         inkscape:collect="always"
         stdDeviation="1.2093374"
         id="feGaussianBlur5772" />
    </filter>
    <linearGradient
       inkscape:collect="always"
       xlink:href="#linearGradient5776"
       id="linearGradient5782"
       x1="27.875"
       y1="46.625"
       x2="28.25"
       y2="26.5"
       gradientUnits="userSpaceOnUse"
       gradientTransform="translate(0,-1)" />
    <filter
       inkscape:collect="always"
       x="-0.27887827"
       width="1.5577565"
       y="-0.48532739"
       height="1.9706548"
       id="filter5852">
      <feGaussianBlur
         inkscape:collect="always"
         stdDeviation="3.093806"
         id="feGaussianBlur5854" />
    </filter>
    <linearGradient
       inkscape:collect="always"
       xlink:href="#linearGradient5556"
       id="linearGradient5868"
       gradientUnits="userSpaceOnUse"
       gradientTransform="matrix(0.6902153,0,0,0.4977757,-5.3832602,-1.3175988)"
       x1="18.5"
       y1="25.5"
       x2="29.252907"
       y2="25.5" />
    <linearGradient
       inkscape:collect="always"
       xlink:href="#linearGradient5880"
       id="linearGradient5878"
       x1="11"
       y1="4.375"
       x2="38.75"
       y2="4.375"
       gradientUnits="userSpaceOnUse"
       gradientTransform="matrix(0.4637384,0,0,0.4651848,3.5452304e-2,0.8597163)" />
    <radialGradient
       inkscape:collect="always"
       xlink:href="#linearGradient5892"
       id="radialGradient6077"
       gradientUnits="userSpaceOnUse"
       gradientTransform="matrix(0.3550303,0.414341,-1.8825802,1.6231735,53.54372,-37.335313)"
       cx="24.975599"
       cy="25.601711"
       fx="24.975599"
       fy="25.601711"
       r="9.5822678" />
    <radialGradient
       inkscape:collect="always"
       xlink:href="#linearGradient5892"
       id="radialGradient6092"
       gradientUnits="userSpaceOnUse"
       gradientTransform="matrix(-0.3550303,0.414341,1.8825802,1.6231735,-30.497068,-37.317007)"
       cx="24.975599"
       cy="25.601711"
       fx="24.975599"
       fy="25.601711"
       r="9.5822678" />
    <linearGradient
       inkscape:collect="always"
       xlink:href="#linearGradient6250"
       id="linearGradient6256"
       x1="3.9374206"
       y1="16.132629"
       x2="27.90823"
       y2="16.132629"
       gradientUnits="userSpaceOnUse"
       gradientTransform="matrix(0.6969794,0,0,0.6597921,0.4690825,0.4990302)" />
    <radialGradient
       inkscape:collect="always"
       xlink:href="#linearGradient5892"
       id="radialGradient4902"
       gradientUnits="userSpaceOnUse"
       gradientTransform="matrix(6.681315e-8,-0.5434493,2.6181274,2.8577366e-6,-55.793617,25.303804)"
       cx="24.975599"
       cy="25.601711"
       fx="24.975599"
       fy="25.601711"
       r="9.5822678" />
    <linearGradient
       inkscape:collect="always"
       xlink:href="#linearGradient5666"
       id="linearGradient4904"
       gradientUnits="userSpaceOnUse"
       x1="1.2730535"
       y1="23.612246"
       x2="31.828896"
       y2="23.612246"
       gradientTransform="matrix(0.6788434,0,0,0.6521912,0.7829414,0.7321377)" />
  </defs>
  <sodipodi:namedview
     stroke="#888a85"
     fill="#204a87"
     id="base"
     pagecolor="#ffffff"
     bordercolor="#666666"
     borderopacity="0.25490196"
     inkscape:pageopacity="0.0"
     inkscape:pageshadow="2"
     inkscape:zoom="1"
     inkscape:cx="15.385541"
     inkscape:cy="12.356973"
     inkscape:current-layer="layer1"
     showgrid="false"
     inkscape:grid-bbox="true"
     inkscape:document-units="px"
     inkscape:showpageshadow="false"
     inkscape:window-width="907"
     inkscape:window-height="886"
     inkscape:window-x="561"
     inkscape:window-y="157"
     width="22px"
     height="22px">
    <inkscape:grid
       type="xygrid"
       id="grid5328" />
  </sodipodi:namedview>
  <metadata
     id="metadata4">
    <rdf:RDF>
      <cc:Work
         rdf:about="">
        <dc:format>image/svg+xml</dc:format>
        <dc:type
           rdf:resource="http://purl.org/dc/dcmitype/StillImage" />
        <dc:creator>
          <cc:Agent>
            <dc:title>Jakub Steiner</dc:title>
          </cc:Agent>
        </dc:creator>
        <dc:source>http://jimmac.musichall.cz</dc:source>
        <cc:license
           rdf:resource="GPL" />
        <dc:title>Medium Security</dc:title>
        <dc:subject>
          <rdf:Bag>
            <rdf:li>security</rdf:li>
            <rdf:li>level</rdf:li>
            <rdf:li>medium</rdf:li>
          </rdf:Bag>
        </dc:subject>
      </cc:Work>
    </rdf:RDF>
  </metadata>
  <g
     id="layer1"
     inkscape:label="Layer 1"
     inkscape:groupmode="layer">
    <path
       transform="matrix(0.5434136,0,0,0.44049,-1.4065306,1.1868972)"
       d="M 40.5,40.9375 A 17.1875,5.4375 0 1 1 6.125,40.9375 A 17.1875,5.4375 0 1 1 40.5,40.9375 z"
       sodipodi:ry="5.4375"
       sodipodi:rx="17.1875"
       sodipodi:cy="40.9375"
       sodipodi:cx="23.3125"
       id="path5564"
       style="opacity:1;color:#000000;fill:url(#radialGradient5566);fill-opacity:1;fill-rule:nonzero;stroke:none;stroke-width:1.00000024;stroke-linecap:round;stroke-linejoin:round;marker:none;marker-start:none;marker-mid:none;marker-end:none;stroke-miterlimit:4;stroke-dasharray:none;stroke-dashoffset:0;stroke-opacity:1;visibility:visible;display:block;overflow:visible;filter:url(#filter5652)"
       sodipodi:type="arc" />
    <path
       style="opacity:1;color:#000000;fill:url(#linearGradient5664);fill-opacity:1;fill-rule:nonzero;stroke:url(#linearGradient6256);stroke-width:1;stroke-linecap:round;stroke-linejoin:round;marker:none;marker-start:none;marker-mid:none;marker-end:none;stroke-miterlimit:4;stroke-dasharray:none;stroke-dashoffset:0;stroke-opacity:1;visibility:visible;display:inline;overflow:visible;enable-background:accumulate"
       d="M 3.5665435,4.4737721 C 3.5665435,4.4737721 3.5150734,16.606753 3.5150734,16.606753 C 3.5150734,16.606753 3.4369089,17.279731 3.6717717,17.481983 C 3.6717717,17.481983 7.5340708,20.471712 11.385116,20.512505 C 15.280042,20.553764 19.297104,17.59868 19.297104,17.59868 C 19.626032,17.32512 19.550212,16.665102 19.550212,16.665102 C 19.550212,16.665102 19.545359,2.4277779 19.545359,2.4277779 C 19.65559,1.9444305 19.411654,1.7071888 19.048849,1.5525481 C 19.048849,1.5525481 5.0560748,1.5525481 5.0560748,1.5525481 C 4.6187162,1.6091348 4.3253554,2.0557974 4.5595644,2.3694293 L 5.552585,3.4124115 C 5.8341502,3.7040591 5.5311809,4.3017489 4.7457558,4.087212 L 4.2414874,3.9486339 C 3.8691045,3.8319366 3.4967218,4.1455607 3.5665435,4.4737721 z"
       id="path5539"
       sodipodi:nodetypes="csszcccccccccc" />
    <path
       style="opacity:1;color:#000000;fill:url(#linearGradient5868);fill-opacity:1;fill-rule:nonzero;stroke:none;stroke-width:1;stroke-linecap:round;stroke-linejoin:round;marker:none;marker-start:none;marker-mid:none;marker-end:none;stroke-miterlimit:4;stroke-dasharray:none;stroke-dashoffset:0;stroke-opacity:1;visibility:visible;display:inline;overflow:visible;enable-background:accumulate"
       d="M 7.8300388,1.0305956 C 7.8300388,1.0305956 7.9558058,20.317595 7.9558058,20.317595 C 11,21.237627 12.778756,21.185159 15,20.32892 C 15,20.32892 14.932619,0.9658528 14.932619,0.9658528 C 14.932619,0.9658528 7.8300388,1.0305956 7.8300388,1.0305956 z"
       id="path5549"
       sodipodi:nodetypes="ccccc" />
    <path
       style="opacity:0.60240939;color:#000000;fill:none;fill-opacity:1;fill-rule:nonzero;stroke:url(#linearGradient4904);stroke-width:1;stroke-linecap:round;stroke-linejoin:round;marker:none;marker-start:none;marker-mid:none;marker-end:none;stroke-miterlimit:4;stroke-dashoffset:0;stroke-opacity:1;visibility:visible;display:inline;overflow:visible;enable-background:accumulate"
       d="M 5.7469838,2.4862586 L 6.4470411,3.2403547 C 6.8209866,3.6334573 6.7707844,4.1626796 6.4470411,4.54338 C 6.1232979,4.9240805 5.5281598,5.0467843 4.9620712,4.8898566 L 4.686291,4.8083327 C 4.686291,4.8083327 4.537794,16.812727 4.537794,16.812727 C 4.4995044,16.953051 4.4808335,17.042696 4.4741525,17.098061 C 4.5967548,17.197625 8.1065668,19.507828 11.411083,19.543353 C 14.813034,19.579926 18.426734,17.138823 18.426734,17.138823 C 18.473496,17.099354 18.424245,17.141198 18.426734,17.118442 C 18.428633,17.101079 18.423175,17.011068 18.40552,16.914632 C 18.398735,16.894646 18.391012,16.873511 18.384307,16.853489 C 18.384307,16.853489 18.447948,2.5881635 18.447948,2.5881635 C 18.447836,2.5813703 18.447836,2.5745757 18.447948,2.5677825 C 18.474593,2.4492081 18.461965,2.4751954 18.469162,2.4862586 C 18.185196,2.4862586 6.3085648,2.4862586 5.7469838,2.4862586 z"
       id="path5662"
       sodipodi:nodetypes="ccsccssscssssssc" />
    <path
       style="opacity:1;color:#000000;fill:url(#radialGradient5700);fill-opacity:1;fill-rule:nonzero;stroke:none;stroke-width:1;stroke-linecap:round;stroke-linejoin:round;marker:none;marker-start:none;marker-mid:none;marker-end:none;stroke-miterlimit:4;stroke-dasharray:none;stroke-dashoffset:0;stroke-opacity:1;visibility:visible;display:inline;overflow:visible;filter:url(#filter5770);enable-background:accumulate"
       d="M 37,6.7499999 C 37,6.7499999 34.625,27.375 37.25,33.875 C 37.25,33.875 32.125,38.125 32.125,38.125 L 37,6.7499999 z"
       id="path5684"
       sodipodi:nodetypes="cscc"
       transform="matrix(0.4637384,0,0,0.4651847,-6.3075296e-2,0.2201129)" />
    <path
       style="opacity:0.5;color:#000000;fill:url(#linearGradient5782);fill-opacity:1;fill-rule:nonzero;stroke:none;stroke-width:1;stroke-linecap:round;stroke-linejoin:round;marker:none;marker-start:none;marker-mid:none;marker-end:none;stroke-miterlimit:4;stroke-dasharray:none;stroke-dashoffset:0;stroke-opacity:1;visibility:visible;display:inline;overflow:visible;filter:url(#filter5852);enable-background:accumulate"
       d="M 12.75,25.5 L 10.375,35.75 C 18.505783,40.753549 28.212016,44.172673 37,35.375 L 34.75,25.75 C 27.750301,28.335742 20.416365,28.247591 12.75,25.5 z"
       id="path5774"
       sodipodi:nodetypes="ccccc"
       transform="matrix(0.4637384,0,0,0.4651847,-6.3075296e-2,0.2201129)" />
    <path
       style="color:#000000;fill:url(#radialGradient4902);fill-opacity:1;fill-rule:nonzero;stroke:none;stroke-width:1;stroke-linecap:round;stroke-linejoin:round;marker:none;marker-start:none;marker-mid:none;marker-end:none;stroke-miterlimit:4;stroke-dasharray:none;stroke-dashoffset:0;stroke-opacity:1;visibility:visible;display:inline;overflow:visible;enable-background:accumulate"
       d="M 7.1773187,7 L 15.369488,7 L 16.44465,3.601578 L 15.50775,4.2899188 L 14.378633,4.2542221 L 15.360205,4.7549868 L 14.806547,6 L 12.04197,5.9711939 L 11.94822,5.0396425 L 13,4.9626804 L 12.969884,4 L 12.021044,4 L 12,3.0382586 L 10.982573,3.0695086 L 10.982573,4.015492 L 10.037289,3.9915129 L 9.9510443,5.0283787 L 10.985672,5.0271314 L 11,5.9656364 L 8,6.0336939 L 7.3155852,4.7768751 L 7.8886891,4.2249228 L 6.789356,4.2119581 L 6.0252136,3.6925038 L 7.1773187,7 z"
       id="path5656"
       sodipodi:nodetypes="ccccccccccccccccccccccccc" />
    <path
       style="color:#000000;fill:url(#radialGradient6077);fill-opacity:1;fill-rule:nonzero;stroke:none;stroke-width:2;stroke-linecap:round;stroke-linejoin:round;marker:none;marker-start:none;marker-mid:none;marker-end:none;stroke-miterlimit:4;stroke-dashoffset:0;stroke-opacity:1;visibility:visible;display:inline;overflow:visible;enable-background:accumulate"
       d="M 16.18499,16.704888 C 16.381265,16.535657 16.403462,16.240913 16.234757,16.044025 L 15.195187,14.830787 L 16.612339,13.608907 C 16.923673,13.340473 17.024447,12.949466 16.83829,12.73221 C 16.652135,12.514955 16.251627,12.556157 15.940294,12.824591 L 14.914082,13.709401 C 14.902799,13.691164 14.886232,13.676901 14.872078,13.660382 L 11.081326,9.2363542 C 10.851331,8.9679359 9.4309191,7.9957596 9.0112957,8.357562 C 8.5916722,8.7193651 9.3364442,10.274084 9.5664405,10.542502 L 13.357192,14.96653 C 13.371346,14.983048 13.382916,15.00162 13.399195,15.015549 L 12.348549,15.921426 C 12.037215,16.18986 11.936441,16.580867 12.122598,16.798123 C 12.308754,17.015378 12.70926,16.974176 13.020593,16.705741 L 14.486612,15.441727 L 15.526182,16.654965 C 15.694885,16.851853 15.988713,16.874118 16.18499,16.704888 z"
       id="rect5858" />
    <path
       style="opacity:1;color:#000000;fill:none;fill-opacity:1;fill-rule:nonzero;stroke:url(#linearGradient5878);stroke-width:1;stroke-linecap:round;stroke-linejoin:round;marker:none;marker-start:none;marker-mid:none;marker-end:none;stroke-miterlimit:4;stroke-dasharray:none;stroke-dashoffset:0;stroke-opacity:1;visibility:visible;display:inline;overflow:visible;enable-background:accumulate"
       d="M 5.3705038,2.3815435 C 5.3705038,2.3815435 18.109244,2.4722929 18.109244,2.4722929"
       id="path5870"
       sodipodi:nodetypes="cc" />
    <path
       id="path6086"
       d="M 6.861661,16.723194 C 6.6653858,16.553963 6.6431895,16.259219 6.8118941,16.062331 L 7.8514636,14.849093 L 6.434312,13.627213 C 6.1229785,13.358779 6.0222043,12.967772 6.2083609,12.750516 C 6.3945168,12.533261 6.7950231,12.574463 7.1063566,12.842897 L 8.1325692,13.727707 C 8.1438522,13.70947 8.1604192,13.695207 8.174573,13.678688 L 11.965325,9.25466 C 12.195321,8.9862417 13.615732,8.0140654 14.035355,8.3758678 C 14.454978,8.7376709 13.710206,10.29239 13.48021,10.560808 L 9.6894576,14.984836 C 9.6753046,15.001354 9.6637356,15.019926 9.6474556,15.033855 L 10.698102,15.939732 C 11.009436,16.208166 11.110209,16.599173 10.924053,16.816429 C 10.737897,17.033684 10.337391,16.992482 10.026058,16.724047 L 8.5600383,15.460033 L 7.5204695,16.673271 C 7.3517649,16.870159 7.0579371,16.892424 6.861661,16.723194 z"
       style="color:#000000;fill:url(#radialGradient6092);fill-opacity:1;fill-rule:nonzero;stroke:none;stroke-width:2;stroke-linecap:round;stroke-linejoin:round;marker:none;marker-start:none;marker-mid:none;marker-end:none;stroke-miterlimit:4;stroke-dashoffset:0;stroke-opacity:1;visibility:visible;display:inline;overflow:visible;enable-background:accumulate" />
  </g>
</svg>
