<?xml version="1.0" encoding="UTF-8" standalone="no"?>
<!-- Created with Inkscape (http://www.inkscape.org/) -->
<svg
   xmlns:dc="http://purl.org/dc/elements/1.1/"
   xmlns:cc="http://web.resource.org/cc/"
   xmlns:rdf="http://www.w3.org/1999/02/22-rdf-syntax-ns#"
   xmlns:svg="http://www.w3.org/2000/svg"
   xmlns="http://www.w3.org/2000/svg"
   xmlns:xlink="http://www.w3.org/1999/xlink"
   xmlns:sodipodi="http://sodipodi.sourceforge.net/DTD/sodipodi-0.dtd"
   xmlns:inkscape="http://www.inkscape.org/namespaces/inkscape"
   width="22"
   height="22"
   id="svg1306"
   sodipodi:version="0.32"
   inkscape:version="0.44"
   sodipodi:docbase="/home/lapo/Icone/cvs/gnome-icon-theme/22x22/status"
   sodipodi:docname="weather-clear-night.svg"
   version="1.0"
   inkscape:export-filename="/home/jimmac/src/cvs/gnome/gnome-icon-theme/22x22/status/weather-clear-night.png"
   inkscape:export-xdpi="90"
   inkscape:export-ydpi="90"
   inkscape:output_extension="org.inkscape.output.svg.inkscape">
  <defs
     id="defs1308">
    <linearGradient
       id="linearGradient5199">
      <stop
         style="stop-color:#7e7878;stop-opacity:0.09708738;"
         offset="0"
         id="stop5201" />
      <stop
         style="stop-color:#7e7878;stop-opacity:1;"
         offset="1"
         id="stop5203" />
    </linearGradient>
    <linearGradient
       inkscape:collect="always"
       id="linearGradient5191">
      <stop
         style="stop-color:#dadad9;stop-opacity:1;"
         offset="0"
         id="stop5193" />
      <stop
         style="stop-color:#dadad9;stop-opacity:0;"
         offset="1"
         id="stop5195" />
    </linearGradient>
    <linearGradient
       inkscape:collect="always"
       id="linearGradient5164">
      <stop
         style="stop-color:white;stop-opacity:1;"
         offset="0"
         id="stop5166" />
      <stop
         style="stop-color:white;stop-opacity:0;"
         offset="1"
         id="stop5168" />
    </linearGradient>
    <linearGradient
       id="linearGradient5154">
      <stop
         style="stop-color:#d9d8d6;stop-opacity:1;"
         offset="0"
         id="stop5156" />
      <stop
         style="stop-color:#b5b4b0;stop-opacity:1;"
         offset="1"
         id="stop5158" />
    </linearGradient>
    <linearGradient
       inkscape:collect="always"
       id="linearGradient5138">
      <stop
         style="stop-color:white;stop-opacity:1;"
         offset="0"
         id="stop5140" />
      <stop
         style="stop-color:white;stop-opacity:0;"
         offset="1"
         id="stop5142" />
    </linearGradient>
    <radialGradient
       inkscape:collect="always"
       xlink:href="#linearGradient5138"
       id="radialGradient5144"
       cx="23.071428"
       cy="11.011853"
       fx="23.071428"
       fy="11.011853"
       r="22.856438"
       gradientUnits="userSpaceOnUse"
       gradientTransform="matrix(3.373032,-2.744236e-17,2.744127e-17,3.373032,-54.74925,-26.13148)" />
    <radialGradient
       inkscape:collect="always"
       xlink:href="#linearGradient5154"
       id="radialGradient5160"
       cx="23.071428"
       cy="6.8925552"
       fx="23.071428"
       fy="6.8925552"
       r="22.812965"
       gradientUnits="userSpaceOnUse"
       gradientTransform="matrix(1.440625,4.174343e-16,-4.174186e-16,1.440625,-10.16586,-3.037035)" />
    <radialGradient
       inkscape:collect="always"
       xlink:href="#linearGradient5164"
       id="radialGradient5170"
       cx="23.688078"
       cy="23.42804"
       fx="23.688078"
       fy="23.42804"
       r="22.45064"
       gradientUnits="userSpaceOnUse" />
    <radialGradient
       inkscape:collect="always"
       xlink:href="#linearGradient5191"
       id="radialGradient5197"
       cx="22.288452"
       cy="34.537094"
       fx="22.288452"
       fy="34.537094"
       r="9.9375"
       gradientTransform="matrix(0.731354,1.278878e-16,-9.651914e-17,0.551965,-6.130093,-3.296943)"
       gradientUnits="userSpaceOnUse" />
    <radialGradient
       inkscape:collect="always"
       xlink:href="#linearGradient5199"
       id="radialGradient5205"
       cx="24.125"
       cy="9.7349367"
       fx="24.125"
       fy="9.7349367"
       r="15.75"
       gradientTransform="matrix(0.806467,1.921233e-16,-1.265574e-16,0.531244,-8.388821,0.825646)"
       gradientUnits="userSpaceOnUse" />
  </defs>
  <sodipodi:namedview
     id="base"
     pagecolor="white"
     bordercolor="#666"
     borderopacity="0.34117647"
     inkscape:pageopacity="0"
     inkscape:pageshadow="2"
     inkscape:zoom="5.6568542"
     inkscape:cx="55.631241"
     inkscape:cy="-6.8580487"
     inkscape:current-layer="layer1"
     showgrid="false"
     inkscape:grid-bbox="true"
     inkscape:document-units="px"
     inkscape:window-width="822"
     inkscape:window-height="900"
     inkscape:window-x="581"
     inkscape:window-y="130"
     inkscape:showpageshadow="false"
     width="22px"
     height="22px" />
  <metadata
     id="metadata1311">
    <rdf:RDF>
      <cc:Work
         rdf:about="">
        <dc:format>image/svg+xml</dc:format>
        <dc:type
           rdf:resource="http://purl.org/dc/dcmitype/StillImage" />
        <cc:license
           rdf:resource="http://creativecommons.org/licenses/GPL/2.0/" />
        <dc:title>Weather Clear (Night)</dc:title>
        <dc:creator>
          <cc:Agent>
            <dc:title>Jakub Steiner</dc:title>
          </cc:Agent>
        </dc:creator>
        <dc:subject>
          <rdf:Bag>
            <rdf:li>weather</rdf:li>
            <rdf:li>clear</rdf:li>
            <rdf:li>night</rdf:li>
            <rdf:li>moon</rdf:li>
          </rdf:Bag>
        </dc:subject>
      </cc:Work>
      <cc:License
         rdf:about="http://creativecommons.org/licenses/GPL/2.0/">
        <cc:permits
           rdf:resource="http://web.resource.org/cc/Reproduction" />
        <cc:permits
           rdf:resource="http://web.resource.org/cc/Distribution" />
        <cc:requires
           rdf:resource="http://web.resource.org/cc/Notice" />
        <cc:permits
           rdf:resource="http://web.resource.org/cc/DerivativeWorks" />
        <cc:requires
           rdf:resource="http://web.resource.org/cc/ShareAlike" />
        <cc:requires
           rdf:resource="http://web.resource.org/cc/SourceCode" />
      </cc:License>
    </rdf:RDF>
  </metadata>
  <g
     id="layer1"
     inkscape:label="Layer 1"
     inkscape:groupmode="layer">
    <path
       sodipodi:type="arc"
       style="opacity:1;color:black;fill:url(#radialGradient5170);fill-opacity:1;fill-rule:evenodd;stroke:none;stroke-width:1;stroke-linecap:round;stroke-linejoin:round;marker:none;marker-start:none;marker-mid:none;marker-end:none;stroke-miterlimit:4;stroke-dasharray:none;stroke-dashoffset:0;stroke-opacity:1;visibility:visible;display:inline;overflow:visible"
       id="path5162"
       sodipodi:cx="23.688078"
       sodipodi:cy="23.42804"
       sodipodi:rx="22.45064"
       sodipodi:ry="22.45064"
       d="M 46.138718 23.42804 A 22.45064 22.45064 0 1 1  1.2374382,23.42804 A 22.45064 22.45064 0 1 1  46.138718 23.42804 z"
       transform="matrix(0.488172,0,0,0.488172,-0.781443,-0.664538)" />
    <path
       sodipodi:type="arc"
       style="opacity:1;color:black;fill:url(#radialGradient5160);fill-opacity:1;fill-rule:evenodd;stroke:#888a85;stroke-width:2.60146189;stroke-linecap:butt;stroke-linejoin:round;marker:none;marker-start:none;marker-mid:none;marker-end:none;stroke-miterlimit:4;stroke-dasharray:none;stroke-dashoffset:0;stroke-opacity:1;visibility:visible;display:inline;overflow:visible"
       id="path1314"
       sodipodi:cx="23.071428"
       sodipodi:cy="23.142857"
       sodipodi:rx="22.142857"
       sodipodi:ry="22.142857"
       d="M 45.214285 23.142857 A 22.142857 22.142857 0 1 1  0.9285717,23.142857 A 22.142857 22.142857 0 1 1  45.214285 23.142857 z"
       transform="matrix(0.384403,0,0,0.384396,2.169338,2.115605)" />
    <path
       style="opacity:0.33146069;color:black;fill:url(#radialGradient5205);fill-opacity:1;fill-rule:evenodd;stroke:none;stroke-width:1;stroke-linecap:round;stroke-linejoin:round;marker:none;marker-start:none;marker-mid:none;marker-end:none;stroke-miterlimit:4;stroke-dasharray:none;stroke-dashoffset:0;stroke-opacity:1;visibility:visible;display:inline;overflow:visible"
       d="M 4.5989188,11.489211 C 4.5989188,11.489211 5.8651151,12.084171 5.8803706,12.526577 C 5.8956259,12.968983 4.7514727,12.679131 4.6599404,13.258835 C 4.5684082,13.838539 4.7972388,14.830138 5.5142415,14.845394 C 6.2312442,14.86065 6.4143088,13.655474 7.5279512,13.319856 C 8.6415937,12.984238 9.4806398,14.036859 9.9688114,13.502921 C 10.456984,12.968983 9.4043631,12.221469 9.4806398,11.184104 C 9.5569165,10.146738 9.7399813,10.345058 10.273919,9.994184 C 10.807857,9.6433107 11.007637,10.835003 11.616392,9.780609 C 12.20468,8.7616641 10.380706,9.1246279 10.456984,8.4381359 C 10.533261,7.7516439 10.990922,6.988875 11.9215,7.0346412 C 12.852077,7.0804073 14.179296,8.6212004 14.179296,8.6212004 C 14.770541,9.1900498 14.198151,10.293874 14.484403,11.062061 C 14.820626,11.96435 15.745514,11.912665 16.376069,11.916362 C 16.376069,11.916362 15.445492,10.863741 15.58279,10.20776 C 15.720088,9.5517789 16.254027,8.8957972 16.925264,9.2924375 C 17.5965,9.6890772 18.267736,11.794319 18.267736,11.794319 L 18.755909,9.6585658 L 17.718543,7.0956627 C 17.718543,7.0956627 16.238771,7.6143455 14.606446,7.2787273 C 12.974121,6.9431089 12.806312,5.6769126 11.189242,5.7531896 C 9.5721716,5.8294665 9.4196182,7.4465364 8.1381663,7.5838348 C 6.8567147,7.7211332 6.4905856,7.0193858 6.0634351,6.3023831 C 5.6362845,5.5853804 6.4295641,4.7158239 6.4295641,4.7158239 L 3.3784887,8.8652864 L 4.5989188,11.489211 z "
       id="path5152"
       sodipodi:nodetypes="cssssssszsscscsscccssssccc" />
    <path
       sodipodi:type="arc"
       style="opacity:0.80898874;color:black;fill:none;fill-opacity:1;fill-rule:evenodd;stroke:url(#radialGradient5144);stroke-width:2.92348194;stroke-linecap:butt;stroke-linejoin:round;marker:none;marker-start:none;marker-mid:none;marker-end:none;stroke-miterlimit:4;stroke-dasharray:none;stroke-dashoffset:0;stroke-opacity:1;visibility:visible;display:inline;overflow:visible"
       id="path2044"
       sodipodi:cx="23.071428"
       sodipodi:cy="23.142857"
       sodipodi:rx="22.142857"
       sodipodi:ry="22.142857"
       d="M 45.214285 23.142857 A 22.142857 22.142857 0 1 1  0.9285717,23.142857 A 22.142857 22.142857 0 1 1  45.214285 23.142857 z"
       transform="matrix(0.342061,0,0,0.342054,3.148171,3.097443)" />
    <path
       style="opacity:0.64606742;color:black;fill:url(#radialGradient5197);fill-opacity:1;fill-rule:evenodd;stroke:none;stroke-width:1;stroke-linecap:round;stroke-linejoin:round;marker:none;marker-start:none;marker-mid:none;marker-end:none;stroke-miterlimit:4;stroke-dasharray:none;stroke-dashoffset:0;stroke-opacity:1;visibility:visible;display:inline;overflow:visible"
       d="M 10.334941,12.465555 C 10.521489,13.241421 10.763392,13.740506 11.006177,14.235179 C 11.765055,14.166374 12.369842,13.789391 12.958865,13.380878 C 12.605938,14.117425 12.191503,14.812967 11.666309,15.43467 C 12.77249,15.864888 13.79794,15.770362 14.789511,15.455609 C 14.093722,16.038198 13.419336,16.487916 12.000394,16.625488 C 13.024681,16.934545 14.159959,17.290201 15.58279,16.859104 C 14.276012,17.614012 12.903723,18.185492 11.311285,18.140555 L 12.887374,18.118346 L 9.724725,18.262598 L 8.0771448,17.957491 L 8.1381663,17.225233 C 7.4492052,17.301949 6.6833086,16.917053 5.941392,16.67604 C 6.607991,16.38039 7.3241911,16.146742 7.7720373,15.577652 C 6.9053239,15.407 6.4919735,14.782985 5.8803706,14.357222 C 6.6939884,14.47928 7.447293,14.963215 8.3212308,14.723351 C 7.8646572,13.46224 7.9193798,12.201129 7.7720373,10.940018 C 8.2704488,12.018064 8.5948864,13.096111 9.2975751,14.174157 C 9.7663552,13.819859 10.096052,13.222165 10.334941,12.465555 z "
       id="path5150"
       sodipodi:nodetypes="ccccccccccccccccccc" />
    <path
       sodipodi:type="arc"
       style="opacity:0.33146069;color:black;fill:#bbbbb8;fill-opacity:1;fill-rule:evenodd;stroke:#888984;stroke-width:2.36535573;stroke-linecap:round;stroke-linejoin:round;marker:none;marker-start:none;marker-mid:none;marker-end:none;stroke-miterlimit:4;stroke-dasharray:none;stroke-dashoffset:0;stroke-opacity:1;visibility:visible;display:inline;overflow:visible"
       id="path4263"
       sodipodi:cx="21.625"
       sodipodi:cy="34.5"
       sodipodi:rx="2.25"
       sodipodi:ry="2.25"
       d="M 23.875 34.5 A 2.25 2.25 0 1 1  19.375,34.5 A 2.25 2.25 0 1 1  23.875 34.5 z"
       transform="matrix(0.488172,0,0,0.366129,-0.709953,3.565987)" />
    <path
       sodipodi:type="arc"
       style="opacity:0.71910113;color:black;fill:#b2afad;fill-opacity:1;fill-rule:evenodd;stroke:none;stroke-width:1;stroke-linecap:round;stroke-linejoin:round;marker:none;marker-start:none;marker-mid:none;marker-end:none;stroke-miterlimit:4;stroke-dasharray:none;stroke-dashoffset:0;stroke-opacity:1;visibility:visible;display:inline;overflow:visible"
       id="path5207"
       sodipodi:cx="22.375"
       sodipodi:cy="21.75"
       sodipodi:rx="2.625"
       sodipodi:ry="2.3125"
       d="M 25 21.75 A 2.625 2.3125 0 1 1  19.75,21.75 A 2.625 2.3125 0 1 1  25 21.75 z"
       transform="matrix(0.488172,0,0,0.488172,-0.709953,-0.71509)" />
    <path
       d="M 25 21.75 A 2.625 2.3125 0 1 1  19.75,21.75 A 2.625 2.3125 0 1 1  25 21.75 z"
       sodipodi:ry="2.3125"
       sodipodi:rx="2.625"
       sodipodi:cy="21.75"
       sodipodi:cx="22.375"
       id="path5209"
       style="opacity:0.71910113;color:black;fill:#b2afad;fill-opacity:1;fill-rule:evenodd;stroke:none;stroke-width:1;stroke-linecap:round;stroke-linejoin:round;marker:none;marker-start:none;marker-mid:none;marker-end:none;stroke-miterlimit:4;stroke-dasharray:none;stroke-dashoffset:0;stroke-opacity:1;visibility:visible;display:inline;overflow:visible"
       sodipodi:type="arc"
       transform="matrix(0.598591,0,0,0.598591,-5.636711,-5.751908)" />
    <path
       transform="matrix(0.517549,0.300758,-0.300758,0.517549,1.467164,-6.111559)"
       sodipodi:type="arc"
       style="opacity:0.71910113;color:black;fill:#b2afad;fill-opacity:1;fill-rule:evenodd;stroke:none;stroke-width:1;stroke-linecap:round;stroke-linejoin:round;marker:none;marker-start:none;marker-mid:none;marker-end:none;stroke-miterlimit:4;stroke-dasharray:none;stroke-dashoffset:0;stroke-opacity:1;visibility:visible;display:inline;overflow:visible"
       id="path5211"
       sodipodi:cx="22.375"
       sodipodi:cy="21.75"
       sodipodi:rx="2.625"
       sodipodi:ry="2.3125"
       d="M 25 21.75 A 2.625 2.3125 0 1 1  19.75,21.75 A 2.625 2.3125 0 1 1  25 21.75 z" />
    <path
       transform="matrix(0.19451,0.183244,-0.106167,0.189249,14.66866,2.383809)"
       sodipodi:type="arc"
       style="opacity:0.71910113;color:black;fill:#dfdedc;fill-opacity:1;fill-rule:evenodd;stroke:none;stroke-width:1;stroke-linecap:round;stroke-linejoin:round;marker:none;marker-start:none;marker-mid:none;marker-end:none;stroke-miterlimit:4;stroke-dasharray:none;stroke-dashoffset:0;stroke-opacity:1;visibility:visible;display:inline;overflow:visible"
       id="path5213"
       sodipodi:cx="22.375"
       sodipodi:cy="21.75"
       sodipodi:rx="2.625"
       sodipodi:ry="2.3125"
       d="M 25 21.75 A 2.625 2.3125 0 1 1  19.75,21.75 A 2.625 2.3125 0 1 1  25 21.75 z" />
    <path
       d="M 25 21.75 A 2.625 2.3125 0 1 1  19.75,21.75 A 2.625 2.3125 0 1 1  25 21.75 z"
       sodipodi:ry="2.3125"
       sodipodi:rx="2.625"
       sodipodi:cy="21.75"
       sodipodi:cx="22.375"
       id="path5215"
       style="opacity:0.71910113;color:black;fill:#dfdedc;fill-opacity:1;fill-rule:evenodd;stroke:none;stroke-width:1;stroke-linecap:round;stroke-linejoin:round;marker:none;marker-start:none;marker-mid:none;marker-end:none;stroke-miterlimit:4;stroke-dasharray:none;stroke-dashoffset:0;stroke-opacity:1;visibility:visible;display:inline;overflow:visible"
       sodipodi:type="arc"
       transform="matrix(-4.600814e-2,0.130251,-0.111661,-1.0663e-2,18.16322,13.67209)"
       inkscape:transform-center-y="0.75870757"
       inkscape:transform-center-x="0.99244834" />
    <path
       inkscape:transform-center-x="-0.30074272"
       inkscape:transform-center-y="1.2469173"
       transform="matrix(0.103238,9.725803e-2,-5.634872e-2,0.100445,15.98474,4.896726)"
       sodipodi:type="arc"
       style="opacity:0.71910113;color:black;fill:#dfdedc;fill-opacity:1;fill-rule:evenodd;stroke:none;stroke-width:1;stroke-linecap:round;stroke-linejoin:round;marker:none;marker-start:none;marker-mid:none;marker-end:none;stroke-miterlimit:4;stroke-dasharray:none;stroke-dashoffset:0;stroke-opacity:1;visibility:visible;display:inline;overflow:visible"
       id="path5217"
       sodipodi:cx="22.375"
       sodipodi:cy="21.75"
       sodipodi:rx="2.625"
       sodipodi:ry="2.3125"
       d="M 25 21.75 A 2.625 2.3125 0 1 1  19.75,21.75 A 2.625 2.3125 0 1 1  25 21.75 z" />
    <path
       d="M 25 21.75 A 2.625 2.3125 0 1 1  19.75,21.75 A 2.625 2.3125 0 1 1  25 21.75 z"
       sodipodi:ry="2.3125"
       sodipodi:rx="2.625"
       sodipodi:cy="21.75"
       sodipodi:cx="22.375"
       id="path5219"
       style="opacity:0.71910113;color:black;fill:#f7f7f6;fill-opacity:1;fill-rule:evenodd;stroke:none;stroke-width:1;stroke-linecap:round;stroke-linejoin:round;marker:none;marker-start:none;marker-mid:none;marker-end:none;stroke-miterlimit:4;stroke-dasharray:none;stroke-dashoffset:0;stroke-opacity:1;visibility:visible;display:inline;overflow:visible"
       sodipodi:type="arc"
       transform="matrix(0.245158,-0.106348,0.131948,0.172267,0.589627,3.493987)" />
    <path
       transform="matrix(0.147295,-6.389587e-2,7.927719e-2,0.103501,5.280207,3.500414)"
       sodipodi:type="arc"
       style="opacity:0.71910113;color:black;fill:#f7f7f6;fill-opacity:1;fill-rule:evenodd;stroke:none;stroke-width:1;stroke-linecap:round;stroke-linejoin:round;marker:none;marker-start:none;marker-mid:none;marker-end:none;stroke-miterlimit:4;stroke-dasharray:none;stroke-dashoffset:0;stroke-opacity:1;visibility:visible;display:inline;overflow:visible"
       id="path5221"
       sodipodi:cx="22.375"
       sodipodi:cy="21.75"
       sodipodi:rx="2.625"
       sodipodi:ry="2.3125"
       d="M 25 21.75 A 2.625 2.3125 0 1 1  19.75,21.75 A 2.625 2.3125 0 1 1  25 21.75 z"
       inkscape:transform-center-x="1.0888517" />
    <path
       inkscape:transform-center-x="0.76732494"
       d="M 25 21.75 A 2.625 2.3125 0 1 1  19.75,21.75 A 2.625 2.3125 0 1 1  25 21.75 z"
       sodipodi:ry="2.3125"
       sodipodi:rx="2.625"
       sodipodi:cy="21.75"
       sodipodi:cx="22.375"
       id="path5223"
       style="opacity:0.71910113;color:black;fill:#f7f7f6;fill-opacity:1;fill-rule:evenodd;stroke:none;stroke-width:1;stroke-linecap:round;stroke-linejoin:round;marker:none;marker-start:none;marker-mid:none;marker-end:none;stroke-miterlimit:4;stroke-dasharray:none;stroke-dashoffset:0;stroke-opacity:1;visibility:visible;display:inline;overflow:visible"
       sodipodi:type="arc"
       transform="matrix(0.103801,-4.502833e-2,5.586788e-2,7.293877e-2,6.549874,4.64911)" />
  </g>
</svg>
