<?xml version="1.0" encoding="UTF-8"?>
<svg height="16px" viewBox="0 0 16 16" width="16px" xmlns="http://www.w3.org/2000/svg">
    <g fill="#2e3436">
        <path d="m 3 0 c -1.644531 0 -3 1.355469 -3 3 v 9 c 0 1.644531 1.355469 3 3 3 h 8.882812 c 0.832032 0 1.578126 -0.402344 2.054688 -0.9375 c 0.472656 -0.53125 0.738281 -1.167969 0.910156 -1.800781 l 0.972656 -3.609375 c 0.390626 -1.449219 -0.09375 -2.652344 -0.820312 -3.167969 c -0.484375 -0.34375 -0.714844 -0.292969 -1 -0.324219 v -1.160156 c 0 -0.855469 -0.558594 -1.589844 -1.09375 -1.828125 c -0.53125 -0.238281 -1.011719 -0.167969 -1.011719 -0.167969 l 0.105469 -0.003906 h -3.585938 l -1.707031 -1.707031 c -0.1875 -0.1875 -0.441406 -0.292969 -0.707031 -0.292969 z m 0 2 h 2.585938 l 1.707031 1.707031 c 0.1875 0.1875 0.441406 0.292969 0.707031 0.292969 h 4 c 0.035156 0 0.070312 -0.003906 0.105469 -0.007812 c 0 0 0.019531 0.019531 -0.011719 0.003906 c -0.035156 -0.011719 -0.09375 -0.25 -0.09375 0.003906 v 2 c 0 0.550781 0.449219 1 1 1 h 0.5 s 0.226562 0.03125 0.339844 0.113281 c 0.113281 0.082031 0.304687 0.074219 0.046875 1.015625 l -0.972657 3.609375 c -0.117187 0.4375 -0.296874 0.800781 -0.472656 0.996094 c -0.175781 0.199219 -0.285156 0.265625 -0.558594 0.265625 h -8.882812 c -0.570312 0 -1 -0.429688 -1 -1 v -9 c 0 -0.570312 0.429688 -1 1 -1 z m 0 0"/>
        <path d="m 7 5 l 0.042969 0.003906 c -0.914063 -0.042968 -1.75 0.390625 -2.195313 0.96875 c -0.441406 0.574219 -0.613281 1.179688 -0.792968 1.699219 c -0.355469 1.019531 -1.007813 3.019531 -1.007813 3.019531 c -0.082031 0.25 -0.058594 0.523438 0.0625 0.761719 c 0.117187 0.238281 0.328125 0.414063 0.578125 0.5 c 0.253906 0.082031 0.527344 0.058594 0.765625 -0.0625 c 0.238281 -0.117187 0.414063 -0.328125 0.496094 -0.578125 c 0 0 0.660156 -2.015625 0.996093 -2.984375 c 0.1875 -0.542969 0.355469 -0.964844 0.488282 -1.136719 c 0.132812 -0.175781 0.113281 -0.210937 0.519531 -0.191406 h 0.046875 h 6 c 0.550781 0 1 -0.449219 1 -1 s -0.449219 -1 -1 -1 z m 0 0"/>
    </g>
</svg>
