<?xml version="1.0" encoding="UTF-8"?>
<svg height="16px" viewBox="0 0 16 16" width="16px" xmlns="http://www.w3.org/2000/svg">
    <g fill="#2e3436">
        <path d="m 14 4 c -0.53125 0 -1.039062 0.210938 -1.414062 0.585938 l -1.148438 1.144531 l 2.832031 2.832031 l 1.144531 -1.148438 c 0.78125 -0.78125 0.78125 -2.046874 0 -2.828124 c -0.375 -0.375 -0.882812 -0.585938 -1.414062 -0.585938 z m -3.269531 2.4375 l -6.144531 6.148438 c -0.371094 0.378906 -0.574219 0.886718 -0.574219 1.414062 h -0.011719 v 2 h 2 v -0.015625 c 0.527344 0.003906 1.035156 -0.199219 1.414062 -0.570313 l 6.148438 -6.148437 z m 0 0" fill-rule="evenodd"/>
        <path d="m 6.5 0 c -3.578125 0 -6.5 2.921875 -6.5 6.5 c 0 2.128906 1.035156 4.027344 2.628906 5.210938 l 1.433594 -1.429688 c -1.242188 -0.796875 -2.0625 -2.1875 -2.0625 -3.78125 c 0 -2.496094 2.003906 -4.5 4.5 -4.5 c 1.59375 0 2.984375 0.820312 3.78125 2.0625 l 1.433594 -1.433594 c -1.1875 -1.59375 -3.085938 -2.628906 -5.214844 -2.628906 z m 7.042969 12.113281 l -1.421875 1.421875 l 2.152344 2.152344 c 0.957031 0.9375 2.363281 -0.5 1.40625 -1.4375 z m 0 0"/>
    </g>
</svg>
