<?xml version="1.0" encoding="UTF-8"?>
<svg height="16px" viewBox="0 0 16 16" width="16px" xmlns="http://www.w3.org/2000/svg">
    <g fill="#2e3436">
        <path d="m 2.996094 13 h 13 v 2 h -13 z m 0 0"/>
        <path d="m 9.980469 0 c -0.261719 0.00390625 -0.507813 0.109375 -0.691407 0.292969 l -8.5 8.5 c -0.390624 0.390625 -0.390624 1.023437 0 1.414062 l 1.792969 1.792969 h 6.828125 l 5.792969 -5.792969 c 0.386719 -0.390625 0.386719 -1.023437 0 -1.414062 l -4.5 -4.5 c -0.191406 -0.191407 -0.453125 -0.29687525 -0.722656 -0.292969 z m -3.585938 5.898438 l 3.136719 3.09375 s 0.5 0.5 0 1 l -0.976562 1.007812 h -5.164063 l -1.582031 -1.5 l 3.585937 -3.601562 c 0.5 -0.5 1 0 1 0 z m 0 0" fill-rule="evenodd"/>
    </g>
</svg>
