<?xml version="1.0" encoding="UTF-8"?>
<svg height="16px" viewBox="0 0 16 16" width="16px" xmlns="http://www.w3.org/2000/svg">
    <path d="m 15.027344 4.402344 c -0.023438 -0.398438 -0.203125 -0.769532 -0.503906 -1.03125 c -0.617188 -0.550782 -1.566407 -0.492188 -2.117188 0.128906 l -6.925781 7.820312 l -2.929688 -2.882812 c -0.589843 -0.582031 -1.539062 -0.574219 -2.121093 0.015625 c -0.277344 0.285156 -0.43359425 0.667969 -0.429688 1.066406 c 0.00390625 0.398438 0.164062 0.777344 0.449219 1.058594 l 4.054687 3.992187 c 0.292969 0.289063 0.691406 0.445313 1.101563 0.429688 c 0.414062 -0.015625 0.800781 -0.195312 1.074219 -0.503906 l 7.972656 -9.007813 c 0.265625 -0.296875 0.398437 -0.6875 0.375 -1.085937 z m 0 0" fill="#2e3436"/>
</svg>
