<?xml version="1.0" encoding="UTF-8"?>
<svg height="16px" viewBox="0 0 16 16" width="16px" xmlns="http://www.w3.org/2000/svg">
    <path d="m 7.828125 0 c -0.871094 0.0195312 -1.726563 0.179688 -2.53125 0.46875 c -1.617187 0.582031 -3.050781 1.679688 -4.027344 3.199219 c -1.957031 3.042969 -1.625 7.035156 0.808594 9.710937 c 2.429687 2.675782 6.371094 3.386719 9.582031 1.730469 c 3.214844 -1.65625 4.921875 -5.273437 4.152344 -8.808594 c -0.113281 -0.539062 -0.648438 -0.878906 -1.1875 -0.761719 c -0.539062 0.117188 -0.882812 0.648438 -0.765625 1.1875 c 0.578125 2.660157 -0.695313 5.359376 -3.113281 6.605469 c -2.417969 1.246094 -5.359375 0.714844 -7.1875 -1.300781 c -1.832032 -2.011719 -2.078125 -4.992188 -0.605469 -7.28125 c 1.46875 -2.285156 4.28125 -3.296875 6.875 -2.46875 c 0.523437 0.171875 1.085937 -0.117188 1.253906 -0.644531 c 0.082031 -0.253907 0.058594 -0.527344 -0.0625 -0.761719 c -0.121093 -0.238281 -0.332031 -0.414062 -0.582031 -0.496094 c -0.863281 -0.277344 -1.742188 -0.3984372 -2.609375 -0.378906 z m 6.1875 1 c -0.320313 -0.003906 -0.621094 0.144531 -0.8125 0.398438 l -5.15625 6.871093 l -1.214844 -1.824219 c -0.304687 -0.460937 -0.925781 -0.582031 -1.386719 -0.277343 c -0.460937 0.304687 -0.582031 0.925781 -0.277343 1.386719 l 2 3 c 0.179687 0.269531 0.480469 0.4375 0.804687 0.445312 c 0.324219 0.007812 0.632813 -0.140625 0.828125 -0.398438 l 6 -8 c 0.160157 -0.214843 0.226563 -0.480468 0.1875 -0.746093 c -0.035156 -0.261719 -0.175781 -0.496094 -0.386719 -0.65625 c -0.167968 -0.125 -0.375 -0.195313 -0.585937 -0.199219 z m 0 0" fill="#2e3436"/>
</svg>
