<?xml version="1.0" encoding="UTF-8"?>
<svg height="16px" viewBox="0 0 16 16" width="16px" xmlns="http://www.w3.org/2000/svg">
    <path d="m 6.398438 0 c -0.34375 0 -0.648438 0.21875 -0.761719 0.546875 l -1.15625 3.472656 l -3.671875 -0.015625 c -0.7851565 -0.003906 -1.105469 1.003906 -0.464844 1.453125 l 2.898438 2.046875 l -1.199219 3.429688 c -0.253907 0.71875 0.554687 1.351562 1.195312 0.933594 l 3.199219 -2.074219 l 0.308594 0.207031 h 3.253906 v -1.210938 l -0.449219 -1.285156 l 0.582031 -0.410156 l 2.332032 -1.648438 c 0.632812 -0.453124 0.316406 -1.449218 -0.460938 -1.453124 l -3.722656 -0.015626 l -1.125 -3.425781 c -0.105469 -0.328125 -0.410156 -0.54687475 -0.757812 -0.550781 z m 4.601562 8 v 3 h -3 v 2 h 3 v 3 h 2 v -3 h 3 v -2 h -3 v -3 z m 0 0" fill="#2e3436"/>
</svg>
