<?xml version="1.0" encoding="UTF-8"?>
<svg height="16px" viewBox="0 0 16 16" width="16px" xmlns="http://www.w3.org/2000/svg">
    <g fill="#2e3436">
        <path d="m 8.9375 2.640625 v 0.085937 c 0 0.152344 -0.101562 0.289063 -0.246094 0.335938 l -0.230468 0.074219 c -0.144532 0.046875 -0.304688 -0.003907 -0.394532 -0.128907 l -0.050781 -0.070312 c -0.328125 -0.453125 -0.960937 -0.550781 -1.414063 -0.222656 l -0.082031 0.058594 c -0.453125 0.332031 -0.554687 0.964843 -0.226562 1.417968 l 0.050781 0.066406 c 0.089844 0.125 0.089844 0.292969 0 0.414063 l -0.140625 0.199219 c -0.089844 0.121094 -0.25 0.175781 -0.398437 0.128906 l -0.078126 -0.027344 c -0.535156 -0.171875 -1.105468 0.117188 -1.277343 0.648438 l -0.03125 0.101562 c -0.171875 0.53125 0.117187 1.101563 0.648437 1.273438 l 0.082032 0.027344 c 0.148437 0.046874 0.246093 0.183593 0.246093 0.335937 v 0.242187 c 0 0.152344 -0.097656 0.289063 -0.246093 0.335938 l -0.082032 0.027344 c -0.53125 0.171875 -0.820312 0.742187 -0.648437 1.273437 l 0.03125 0.097657 c 0.171875 0.535156 0.742187 0.824218 1.277343 0.652343 l 0.078126 -0.027343 c 0.148437 -0.046876 0.308593 0.003906 0.398437 0.128906 l 0.140625 0.195312 c 0.089844 0.125 0.089844 0.292969 0 0.417969 l -0.050781 0.066406 c -0.328125 0.453125 -0.226563 1.085938 0.226562 1.414063 l 0.082031 0.0625 c 0.453126 0.328125 1.085938 0.226562 1.414063 -0.222656 c 0.015625 -0.023438 0.035156 -0.046876 0.050781 -0.070313 c 0.082032 -0.113281 0.257813 -0.171875 0.394532 -0.128906 l 0.230468 0.074219 c 0.144532 0.046874 0.246094 0.183593 0.246094 0.335937 v 0.085937 c 0 0.558594 0.453125 1.011719 1.011719 1.011719 h 0.101562 c 0.558594 0 1.011719 -0.453125 1.011719 -1.011719 v -0.085937 c 0 -0.152344 0.101562 -0.289063 0.246094 -0.335937 l 0.230468 -0.074219 c 0.144532 -0.046875 0.304688 0.003906 0.394532 0.128906 l 0.050781 0.070313 c 0.328125 0.449218 0.960937 0.550781 1.414063 0.222656 l 0.082031 -0.0625 c 0.453125 -0.328125 0.554687 -0.960938 0.226562 -1.414063 l -0.050781 -0.066406 c -0.089844 -0.125 -0.089844 -0.292969 0 -0.417969 l 0.140625 -0.195312 c 0.089844 -0.125 0.25 -0.175782 0.398437 -0.128906 l 0.078126 0.027343 c 0.535156 0.171875 1.105468 -0.117187 1.277343 -0.652343 l 0.03125 -0.097657 c 0.171875 -0.53125 -0.117187 -1.101562 -0.648437 -1.273437 l -0.082032 -0.027344 c -0.148437 -0.046875 -0.246093 -0.183594 -0.246093 -0.335938 v -0.242187 c 0 -0.152344 0.097656 -0.289063 0.246093 -0.335937 l 0.082032 -0.027344 c 0.53125 -0.171875 0.820312 -0.742188 0.648437 -1.273438 l -0.03125 -0.101562 c -0.171875 -0.53125 -0.742187 -0.820313 -1.277343 -0.648438 l -0.078126 0.023438 c -0.148437 0.050781 -0.308593 -0.003906 -0.398437 -0.125 l -0.140625 -0.199219 c -0.089844 -0.121094 -0.089844 -0.289063 0 -0.414063 l 0.050781 -0.066406 c 0.328125 -0.453125 0.226563 -1.085937 -0.226562 -1.417968 l -0.082031 -0.058594 c -0.453126 -0.328125 -1.085938 -0.230469 -1.414063 0.222656 l -0.050781 0.070312 c -0.089844 0.125 -0.25 0.175782 -0.394532 0.128907 l -0.230468 -0.074219 c -0.144532 -0.046875 -0.246094 -0.183594 -0.246094 -0.335938 v -0.085937 c 0 -0.5625 -0.453125 -1.015625 -1.011719 -1.015625 h -0.101562 c -0.558594 0 -1.011719 0.453125 -1.011719 1.015625 z m 1.78125 2.46875 l 0.09375 0.027344 c 0.46875 0.152343 0.875 0.449219 1.164062 0.847656 l 0.058594 0.078125 c 0.289063 0.398438 0.441406 0.878906 0.441406 1.367188 v 0.097656 c 0 0.492187 -0.152343 0.972656 -0.441406 1.367187 l -0.058594 0.082031 c -0.289062 0.398438 -0.695312 0.691407 -1.164062 0.84375 l -0.09375 0.03125 c -0.46875 0.152344 -0.96875 0.152344 -1.4375 0 l -0.09375 -0.03125 c -0.46875 -0.152343 -0.875 -0.445312 -1.164062 -0.84375 l -0.058594 -0.082031 c -0.289063 -0.394531 -0.441406 -0.875 -0.441406 -1.367187 v -0.097656 c 0 -0.488282 0.152343 -0.96875 0.441406 -1.367188 l 0.058594 -0.078125 c 0.289062 -0.398437 0.695312 -0.695313 1.164062 -0.847656 l 0.09375 -0.027344 c 0.46875 -0.152344 0.96875 -0.152344 1.4375 0 z m 0 0"/>
        <path d="m 3.488281 10 c -1.367187 0 -2.5 1.132812 -2.5 2.5 s 1.132813 2.5 2.5 2.5 c 1.367188 0 2.5 -1.132812 2.5 -2.5 s -1.132812 -2.5 -2.5 -2.5 z m 0 2 c 0.289063 0 0.5 0.210938 0.5 0.5 s -0.210937 0.5 -0.5 0.5 c -0.289062 0 -0.5 -0.210938 -0.5 -0.5 s 0.210938 -0.5 0.5 -0.5 z m 0 0"/>
    </g>
</svg>
