<?xml version="1.0" encoding="UTF-8"?>
<svg xmlns="http://www.w3.org/2000/svg" xmlns:xlink="http://www.w3.org/1999/xlink" width="16px" height="16px" viewBox="0 0 16 16" version="1.1">
<g id="surface76608">
<path style="fill:none;stroke-width:2;stroke-linecap:round;stroke-linejoin:miter;stroke:rgb(64.705884%,11.372549%,17.647059%);stroke-opacity:1;stroke-miterlimit:4;" d="M 127.855469 161.140625 L 128.441406 160.332031 M 132.558594 154.667969 L 133.144531 153.859375 " transform="matrix(1,0,0,1,-120,-132)"/>
<path style="fill:none;stroke-width:2;stroke-linecap:round;stroke-linejoin:miter;stroke:rgb(64.705884%,11.372549%,17.647059%);stroke-opacity:1;stroke-miterlimit:4;" d="M 126.21875 158.890625 L 127.171875 158.582031 M 133.828125 156.417969 L 134.78125 156.109375 " transform="matrix(1,0,0,1,-120,-132)"/>
<path style="fill:none;stroke-width:2;stroke-linecap:round;stroke-linejoin:miter;stroke:rgb(64.705884%,11.372549%,17.647059%);stroke-opacity:1;stroke-miterlimit:4;" d="M 126.21875 156.109375 L 127.171875 156.417969 M 133.828125 158.582031 L 134.78125 158.890625 " transform="matrix(1,0,0,1,-120,-132)"/>
<path style="fill:none;stroke-width:2;stroke-linecap:round;stroke-linejoin:miter;stroke:rgb(64.705884%,11.372549%,17.647059%);stroke-opacity:1;stroke-miterlimit:4;" d="M 127.855469 153.859375 L 128.441406 154.667969 M 132.558594 160.332031 L 133.144531 161.140625 " transform="matrix(1,0,0,1,-120,-132)"/>
<path style=" stroke:none;fill-rule:nonzero;fill:rgb(18.039216%,20.392157%,21.176471%);fill-opacity:1;" d="M 8.9375 2.640625 L 8.9375 2.726562 C 8.9375 2.878906 8.835938 3.015625 8.691406 3.0625 L 8.460938 3.136719 C 8.316406 3.183594 8.15625 3.132812 8.066406 3.007812 L 8.015625 2.9375 C 7.6875 2.484375 7.054688 2.386719 6.601562 2.714844 L 6.519531 2.773438 C 6.066406 3.105469 5.964844 3.738281 6.292969 4.191406 L 6.34375 4.257812 C 6.433594 4.382812 6.433594 4.550781 6.34375 4.671875 L 6.203125 4.871094 C 6.113281 4.992188 5.953125 5.046875 5.804688 5 L 5.726562 4.972656 C 5.191406 4.800781 4.621094 5.089844 4.449219 5.621094 L 4.417969 5.722656 C 4.246094 6.253906 4.535156 6.824219 5.066406 6.996094 L 5.148438 7.023438 C 5.296875 7.070312 5.394531 7.207031 5.394531 7.359375 L 5.394531 7.601562 C 5.394531 7.753906 5.296875 7.890625 5.148438 7.9375 L 5.066406 7.964844 C 4.535156 8.136719 4.246094 8.707031 4.417969 9.238281 L 4.449219 9.335938 C 4.621094 9.871094 5.191406 10.160156 5.726562 9.988281 L 5.804688 9.960938 C 5.953125 9.914062 6.113281 9.964844 6.203125 10.089844 L 6.34375 10.285156 C 6.433594 10.410156 6.433594 10.578125 6.34375 10.703125 L 6.292969 10.769531 C 5.964844 11.222656 6.066406 11.855469 6.519531 12.183594 L 6.601562 12.246094 C 7.054688 12.574219 7.6875 12.472656 8.015625 12.023438 C 8.03125 12 8.050781 11.976562 8.066406 11.953125 C 8.148438 11.839844 8.324219 11.78125 8.460938 11.824219 L 8.691406 11.898438 C 8.835938 11.945312 8.9375 12.082031 8.9375 12.234375 L 8.9375 12.320312 C 8.9375 12.878906 9.390625 13.332031 9.949219 13.332031 L 10.050781 13.332031 C 10.609375 13.332031 11.0625 12.878906 11.0625 12.320312 L 11.0625 12.234375 C 11.0625 12.082031 11.164062 11.945312 11.308594 11.898438 L 11.539062 11.824219 C 11.683594 11.777344 11.84375 11.828125 11.933594 11.953125 L 11.984375 12.023438 C 12.3125 12.472656 12.945312 12.574219 13.398438 12.246094 L 13.480469 12.183594 C 13.933594 11.855469 14.035156 11.222656 13.707031 10.769531 L 13.65625 10.703125 C 13.566406 10.578125 13.566406 10.410156 13.65625 10.285156 L 13.796875 10.089844 C 13.886719 9.964844 14.046875 9.914062 14.195312 9.960938 L 14.273438 9.988281 C 14.808594 10.160156 15.378906 9.871094 15.550781 9.335938 L 15.582031 9.238281 C 15.753906 8.707031 15.464844 8.136719 14.933594 7.964844 L 14.851562 7.9375 C 14.703125 7.890625 14.605469 7.753906 14.605469 7.601562 L 14.605469 7.359375 C 14.605469 7.207031 14.703125 7.070312 14.851562 7.023438 L 14.933594 6.996094 C 15.464844 6.824219 15.753906 6.253906 15.582031 5.722656 L 15.550781 5.621094 C 15.378906 5.089844 14.808594 4.800781 14.273438 4.972656 L 14.195312 4.996094 C 14.046875 5.046875 13.886719 4.992188 13.796875 4.871094 L 13.65625 4.671875 C 13.566406 4.550781 13.566406 4.382812 13.65625 4.257812 L 13.707031 4.191406 C 14.035156 3.738281 13.933594 3.105469 13.480469 2.773438 L 13.398438 2.714844 C 12.945312 2.386719 12.3125 2.484375 11.984375 2.9375 L 11.933594 3.007812 C 11.84375 3.132812 11.683594 3.183594 11.539062 3.136719 L 11.308594 3.0625 C 11.164062 3.015625 11.0625 2.878906 11.0625 2.726562 L 11.0625 2.640625 C 11.0625 2.078125 10.609375 1.625 10.050781 1.625 L 9.949219 1.625 C 9.390625 1.625 8.9375 2.078125 8.9375 2.640625 Z M 10.71875 5.109375 L 10.8125 5.136719 C 11.28125 5.289062 11.6875 5.585938 11.976562 5.984375 L 12.035156 6.0625 C 12.324219 6.460938 12.476562 6.941406 12.476562 7.429688 L 12.476562 7.527344 C 12.476562 8.019531 12.324219 8.5 12.035156 8.894531 L 11.976562 8.976562 C 11.6875 9.375 11.28125 9.667969 10.8125 9.820312 L 10.71875 9.851562 C 10.25 10.003906 9.75 10.003906 9.28125 9.851562 L 9.1875 9.820312 C 8.71875 9.667969 8.3125 9.375 8.023438 8.976562 L 7.964844 8.894531 C 7.675781 8.5 7.523438 8.019531 7.523438 7.527344 L 7.523438 7.429688 C 7.523438 6.941406 7.675781 6.460938 7.964844 6.0625 L 8.023438 5.984375 C 8.3125 5.585938 8.71875 5.289062 9.1875 5.136719 L 9.28125 5.109375 C 9.75 4.957031 10.25 4.957031 10.71875 5.109375 Z M 10.71875 5.109375 "/>
<path style=" stroke:none;fill-rule:nonzero;fill:rgb(18.039216%,20.392157%,21.176471%);fill-opacity:1;" d="M 3.488281 10 C 2.121094 10 0.988281 11.132812 0.988281 12.5 C 0.988281 13.867188 2.121094 15 3.488281 15 C 4.855469 15 5.988281 13.867188 5.988281 12.5 C 5.988281 11.132812 4.855469 10 3.488281 10 Z M 3.488281 12 C 3.777344 12 3.988281 12.210938 3.988281 12.5 C 3.988281 12.789062 3.777344 13 3.488281 13 C 3.199219 13 2.988281 12.789062 2.988281 12.5 C 2.988281 12.210938 3.199219 12 3.488281 12 Z M 3.488281 12 "/>
</g>
</svg>
