<svg xmlns="http://www.w3.org/2000/svg" width="16" height="16">
    <g fill="#2e3436">
        <path d="M2.994 3h2v2h-2zM7.568 3h.851c.319 0 .575.256.575.575v.85A.573.573 0 0 1 8.419 5h-.85a.573.573 0 0 1-.575-.575v-.85c0-.319.256-.575.574-.575zM10.994 3h2v2h-2zM2.994 7h2v2h-2zM7.994 7c.554 0 1 .446 1 1s-.446 1-1 1-1-.446-1-1 .446-1 1-1zM11.994 7c.554 0 1 .446 1 1s-.446 1-1 1-1-.446-1-1 .446-1 1-1zM3.994 11c.554 0 1 .446 1 1s-.446 1-1 1-1-.446-1-1 .446-1 1-1zM6.994 11h2v2h-2zM11.48 11h1.028c.27 0 .486.217.486.486v1.028c0 .27-.217.486-.486.486H11.48a.485.485 0 0 1-.486-.486v-1.028c0-.27.217-.486.486-.486z" style="marker:none"/>
    </g>
</svg>
