<?xml version="1.0" encoding="UTF-8" standalone="no"?>
<svg
   xmlns:dc="http://purl.org/dc/elements/1.1/"
   xmlns:cc="http://creativecommons.org/ns#"
   xmlns:rdf="http://www.w3.org/1999/02/22-rdf-syntax-ns#"
   xmlns:svg="http://www.w3.org/2000/svg"
   xmlns="http://www.w3.org/2000/svg"
   width="16"
   version="1.1"
   style="enable-background:new"
   id="svg7384"
   height="16">
  <metadata
     id="metadata90">
    <rdf:RDF>
      <cc:Work
         rdf:about="">
        <dc:format>image/svg+xml</dc:format>
        <dc:type
           rdf:resource="http://purl.org/dc/dcmitype/StillImage" />
        <dc:title>Gnome Symbolic Icons</dc:title>
        <cc:license
           rdf:resource="http://creativecommons.org/licenses/by-sa/4.0/" />
      </cc:Work>
      <cc:License
         rdf:about="http://creativecommons.org/licenses/by-sa/4.0/">
        <cc:permits
           rdf:resource="http://creativecommons.org/ns#Reproduction" />
        <cc:permits
           rdf:resource="http://creativecommons.org/ns#Distribution" />
        <cc:requires
           rdf:resource="http://creativecommons.org/ns#Notice" />
        <cc:requires
           rdf:resource="http://creativecommons.org/ns#Attribution" />
        <cc:permits
           rdf:resource="http://creativecommons.org/ns#DerivativeWorks" />
        <cc:requires
           rdf:resource="http://creativecommons.org/ns#ShareAlike" />
      </cc:License>
    </rdf:RDF>
  </metadata>
  <title
     id="title8473">Gnome Symbolic Icons</title>
  <defs
     id="defs7386" />
  <g
     transform="translate(-232.00605,-707.99999)"
     id="layer1" />
  <g
     transform="translate(-232.00605,-707.99999)"
     id="layer7" />
  <g
     transform="translate(-232.00605,-707.99999)"
     id="layer6" />
  <g
     transform="translate(-232.00605,-707.99999)"
     id="layer5" />
  <g
     transform="translate(-232.00605,-707.99999)"
     id="layer9" />
  <g
     transform="translate(-232.00605,-707.99999)"
     id="layer2" />
  <g
     transform="translate(-232.00605,-707.99999)"
     id="layer8" />
  <g
     transform="translate(-232.00605,-707.99999)"
     id="layer3" />
  <g
     transform="translate(-232.00605,-707.99999)"
     id="layer4">
    <path
       id="rect3537"
       d="m 233.39046,711 h 1.23077 c 0.21308,0 0.38461,0.16894 0.38461,0.37879 v 1.24242 c 0,0.20985 -0.17153,0.37879 -0.38461,0.37879 h -1.23077 c -0.21308,0 -0.38462,-0.16894 -0.38462,-0.37879 v -1.24242 c 0,-0.20985 0.17154,-0.37879 0.38462,-0.37879 z"
       style="color:#000000;display:inline;overflow:visible;visibility:visible;fill:#2e3436;fill-opacity:1;fill-rule:nonzero;stroke:none;stroke-width:1;marker:none;enable-background:new" />
    <path
       id="rect3539"
       d="m 233.39046,715.01562 h 1.23077 c 0.21308,0 0.38461,0.16894 0.38461,0.37879 v 1.24243 c 0,0.20985 -0.17153,0.37878 -0.38461,0.37878 h -1.23077 c -0.21308,0 -0.38462,-0.16893 -0.38462,-0.37878 v -1.24243 c 0,-0.20985 0.17154,-0.37879 0.38462,-0.37879 z"
       style="color:#000000;display:inline;overflow:visible;visibility:visible;fill:#2e3436;fill-opacity:1;fill-rule:nonzero;stroke:none;stroke-width:1;marker:none;enable-background:new" />
    <path
       id="rect3541"
       d="m 233.39046,719 h 1.23077 c 0.21308,0 0.38461,0.16894 0.38461,0.37879 v 1.24242 c 0,0.20985 -0.17153,0.37879 -0.38461,0.37879 h -1.23077 c -0.21308,0 -0.38462,-0.16894 -0.38462,-0.37879 v -1.24242 c 0,-0.20985 0.17154,-0.37879 0.38462,-0.37879 z"
       style="color:#000000;display:inline;overflow:visible;visibility:visible;fill:#2e3436;fill-opacity:1;fill-rule:nonzero;stroke:none;stroke-width:1;marker:none;enable-background:new" />
    <path
       id="rect3559"
       d="m 237,711 h 9 c 0.554,0 1,0.446 1,1 0,0.554 -0.446,1 -1,1 h -9 c -0.554,0 -1,-0.446 -1,-1 0,-0.554 0.446,-1 1,-1 z"
       style="opacity:1;vector-effect:none;fill:#2e3436;fill-opacity:1;stroke:none;stroke-width:1;stroke-linecap:round;stroke-linejoin:miter;stroke-miterlimit:4;stroke-dasharray:none;stroke-dashoffset:0;stroke-opacity:1;marker:none;marker-start:none;marker-mid:none;marker-end:none;paint-order:normal" />
    <path
       id="rect3561"
       d="m 237,715 h 9 c 0.554,0 1,0.446 1,1 0,0.554 -0.446,1 -1,1 h -9 c -0.554,0 -1,-0.446 -1,-1 0,-0.554 0.446,-1 1,-1 z"
       style="opacity:1;vector-effect:none;fill:#2e3436;fill-opacity:1;stroke:none;stroke-width:1;stroke-linecap:round;stroke-linejoin:miter;stroke-miterlimit:4;stroke-dasharray:none;stroke-dashoffset:0;stroke-opacity:1;marker:none;marker-start:none;marker-mid:none;marker-end:none;paint-order:normal" />
    <path
       id="rect3563"
       d="m 237,719 h 9 c 0.554,0 1,0.446 1,1 0,0.554 -0.446,1 -1,1 h -9 c -0.554,0 -1,-0.446 -1,-1 0,-0.554 0.446,-1 1,-1 z"
       style="opacity:1;vector-effect:none;fill:#2e3436;fill-opacity:1;stroke:none;stroke-width:1;stroke-linecap:round;stroke-linejoin:miter;stroke-miterlimit:4;stroke-dasharray:none;stroke-dashoffset:0;stroke-opacity:1;marker:none;marker-start:none;marker-mid:none;marker-end:none;paint-order:normal" />
  </g>
</svg>
