<?xml version="1.0" encoding="UTF-8"?>
<svg height="16px" viewBox="0 0 16 16" width="16px" xmlns="http://www.w3.org/2000/svg">
    <g fill="#2e3436">
        <path d="m 14.984375 4 h -2.988281 l -0.007813 -3.003906 l -2 0.007812 l 0.015625 4.996094 h 4.980469 z m 0 0"/>
        <path d="m 15.988281 1 c -0.003906 -0.265625 -0.109375 -0.523438 -0.296875 -0.707031 c -0.390625 -0.3906252 -1.023437 -0.3906252 -1.414062 0.003906 l -3.984375 4 c -0.390625 0.390625 -0.390625 1.023437 0 1.414063 c 0.390625 0.386718 1.023437 0.386718 1.414062 -0.003907 l 3.988281 -4 c 0.1875 -0.1875 0.292969 -0.445312 0.292969 -0.707031 z m 0 0"/>
        <path d="m 9 7 h -8 v 3 h 8 z m 0 0" fill-rule="evenodd"/>
        <path d="m 14.984375 5 h 1 v 1 h -1 z m 0 0"/>
        <path d="m 9.984375 0 h 1 v 1 h -1 z m 0 0"/>
        <path d="m 10.984375 0 c 0.554687 0 1 0.449219 1 1 s -0.445313 1 -1 1 c -0.550781 0 -1 -0.449219 -1 -1 s 0.449219 -1 1 -1 z m 0 0"/>
        <path d="m 14.984375 4 c 0.554687 0 1 0.449219 1 1 s -0.445313 1 -1 1 c -0.550781 0 -1 -0.449219 -1 -1 s 0.449219 -1 1 -1 z m 0 0"/>
        <path d="m 2 6 c -1.089844 0 -2 0.910156 -2 2 v 6 c 0 1.089844 0.910156 2 2 2 h 6 c 1.089844 0 2 -0.910156 2 -2 v -6 c 0 -1.089844 -0.910156 -2 -2 -2 z m 0 2 h 6 v 6 h -6 z m 0 0"/>
    </g>
</svg>
