<?xml version="1.0" encoding="UTF-8" standalone="no"?>
<!-- Created with Inkscape (http://www.inkscape.org/) -->
<svg
   xmlns:dc="http://purl.org/dc/elements/1.1/"
   xmlns:cc="http://web.resource.org/cc/"
   xmlns:rdf="http://www.w3.org/1999/02/22-rdf-syntax-ns#"
   xmlns:svg="http://www.w3.org/2000/svg"
   xmlns="http://www.w3.org/2000/svg"
   xmlns:xlink="http://www.w3.org/1999/xlink"
   xmlns:sodipodi="http://sodipodi.sourceforge.net/DTD/sodipodi-0.dtd"
   xmlns:inkscape="http://www.inkscape.org/namespaces/inkscape"
   width="32"
   height="32"
   id="svg2"
   sodipodi:version="0.32"
   inkscape:version="0.44"
   version="1.0"
   sodipodi:docbase="/home/lapo/Desktop/to submit/help-browser/32x32"
   sodipodi:docname="help-browser.svg">
  <defs
     id="defs4">
    <linearGradient
       id="linearGradient3839">
      <stop
         style="stop-color:#eeeeec;stop-opacity:1;"
         offset="0"
         id="stop3841" />
      <stop
         id="stop2893"
         offset="0.5"
         style="stop-color:#eeeeec;stop-opacity:1;" />
      <stop
         id="stop2891"
         offset="0.78313255"
         style="stop-color:white;stop-opacity:1;" />
      <stop
         style="stop-color:#d3d7cf;stop-opacity:1"
         offset="1"
         id="stop3843" />
    </linearGradient>
    <linearGradient
       inkscape:collect="always"
       id="linearGradient3831">
      <stop
         style="stop-color:#ef2929;stop-opacity:1;"
         offset="0"
         id="stop3833" />
      <stop
         style="stop-color:#ef2929;stop-opacity:0;"
         offset="1"
         id="stop3835" />
    </linearGradient>
    <linearGradient
       inkscape:collect="always"
       id="linearGradient3823">
      <stop
         style="stop-color:#ef2929;stop-opacity:1;"
         offset="0"
         id="stop3825" />
      <stop
         style="stop-color:#ef2929;stop-opacity:0;"
         offset="1"
         id="stop3827" />
    </linearGradient>
    <linearGradient
       inkscape:collect="always"
       id="linearGradient3815">
      <stop
         style="stop-color:#ef2929;stop-opacity:1;"
         offset="0"
         id="stop3817" />
      <stop
         style="stop-color:#ef2929;stop-opacity:0;"
         offset="1"
         id="stop3819" />
    </linearGradient>
    <linearGradient
       inkscape:collect="always"
       id="linearGradient3807">
      <stop
         style="stop-color:#ef2929;stop-opacity:1;"
         offset="0"
         id="stop3809" />
      <stop
         style="stop-color:#ef2929;stop-opacity:0;"
         offset="1"
         id="stop3811" />
    </linearGradient>
    <linearGradient
       inkscape:collect="always"
       id="linearGradient3783">
      <stop
         style="stop-color:black;stop-opacity:1;"
         offset="0"
         id="stop3785" />
      <stop
         style="stop-color:black;stop-opacity:0;"
         offset="1"
         id="stop3787" />
    </linearGradient>
    <linearGradient
       id="linearGradient3743">
      <stop
         style="stop-color:white;stop-opacity:1;"
         offset="0"
         id="stop3745" />
      <stop
         style="stop-color:white;stop-opacity:0.3392857;"
         offset="1"
         id="stop3747" />
    </linearGradient>
    <linearGradient
       inkscape:collect="always"
       id="linearGradient3735">
      <stop
         style="stop-color:white;stop-opacity:1;"
         offset="0"
         id="stop3737" />
      <stop
         style="stop-color:white;stop-opacity:0;"
         offset="1"
         id="stop3739" />
    </linearGradient>
    <radialGradient
       inkscape:collect="always"
       xlink:href="#linearGradient3783"
       id="radialGradient1950"
       gradientUnits="userSpaceOnUse"
       gradientTransform="matrix(1,0,0,0.625,0,6.375)"
       cx="8"
       cy="17"
       fx="8"
       fy="17"
       r="8" />
    <linearGradient
       inkscape:collect="always"
       xlink:href="#linearGradient3823"
       id="linearGradient1973"
       gradientUnits="userSpaceOnUse"
       x1="15.821683"
       y1="15.989761"
       x2="14.372151"
       y2="14.54023"
       gradientTransform="matrix(2,0,0,2.073159,2,0.390502)" />
    <linearGradient
       inkscape:collect="always"
       xlink:href="#linearGradient3815"
       id="linearGradient1976"
       gradientUnits="userSpaceOnUse"
       x1="15.291184"
       y1="6.4436507"
       x2="17.416643"
       y2="4.3181915"
       gradientTransform="matrix(2,0,0,2.073159,2,0.390502)" />
    <linearGradient
       inkscape:collect="always"
       xlink:href="#linearGradient3831"
       id="linearGradient1979"
       gradientUnits="userSpaceOnUse"
       x1="6.4302521"
       y1="15.967495"
       x2="8.122447"
       y2="14.2753"
       gradientTransform="matrix(2,0,0,2.073159,2,0.390502)" />
    <linearGradient
       inkscape:collect="always"
       xlink:href="#linearGradient3807"
       id="linearGradient1982"
       gradientUnits="userSpaceOnUse"
       x1="6.055223"
       y1="6.3116894"
       x2="4.4831853"
       y2="4.7396517"
       gradientTransform="matrix(2,0,0,2.073159,2,0.390502)" />
    <radialGradient
       inkscape:collect="always"
       xlink:href="#linearGradient3743"
       id="radialGradient1997"
       gradientUnits="userSpaceOnUse"
       gradientTransform="matrix(2.723968,0,0,2.633434,-13.5604,-4.83122)"
       cx="7.5927024"
       cy="3.1548533"
       fx="7.5927024"
       fy="3.1548533"
       r="8.4622421" />
    <radialGradient
       inkscape:collect="always"
       xlink:href="#linearGradient3735"
       id="radialGradient1999"
       gradientUnits="userSpaceOnUse"
       gradientTransform="matrix(2.21022,0,0,2.138888,-12.1022,-18.82138)"
       cx="10.863756"
       cy="16.148972"
       fx="10.863756"
       fy="16.148972"
       r="8.7143736" />
    <radialGradient
       inkscape:collect="always"
       xlink:href="#linearGradient3839"
       id="radialGradient2889"
       cx="24"
       cy="22.136841"
       fx="24"
       fy="22.136841"
       r="19.5"
       gradientTransform="matrix(1,0,0,1.035642,0,-0.826715)"
       gradientUnits="userSpaceOnUse" />
    <linearGradient
       inkscape:collect="always"
       xlink:href="#linearGradient3823"
       id="linearGradient2839"
       gradientUnits="userSpaceOnUse"
       gradientTransform="matrix(1.209048,0,0,1.253274,2.691896,1.7189)"
       x1="15.821683"
       y1="15.989761"
       x2="14.372151"
       y2="14.54023" />
    <linearGradient
       inkscape:collect="always"
       xlink:href="#linearGradient3815"
       id="linearGradient2842"
       gradientUnits="userSpaceOnUse"
       gradientTransform="matrix(1.209048,0,0,1.253274,2.691896,1.7189)"
       x1="15.291184"
       y1="6.4436507"
       x2="17.416643"
       y2="4.3181915" />
    <linearGradient
       inkscape:collect="always"
       xlink:href="#linearGradient3831"
       id="linearGradient2845"
       gradientUnits="userSpaceOnUse"
       gradientTransform="matrix(1.209048,0,0,1.253274,2.691896,1.7189)"
       x1="6.4302521"
       y1="15.967495"
       x2="8.122447"
       y2="14.2753" />
    <linearGradient
       inkscape:collect="always"
       xlink:href="#linearGradient3807"
       id="linearGradient2848"
       gradientUnits="userSpaceOnUse"
       gradientTransform="matrix(1.209048,0,0,1.253274,2.691896,1.7189)"
       x1="6.055223"
       y1="6.3116894"
       x2="4.4831853"
       y2="4.7396517" />
    <radialGradient
       inkscape:collect="always"
       xlink:href="#linearGradient3839"
       id="radialGradient2851"
       gradientUnits="userSpaceOnUse"
       gradientTransform="matrix(0.604524,0,0,0.62607,1.482848,0.983063)"
       cx="24"
       cy="22.136841"
       fx="24"
       fy="22.136841"
       r="19.5" />
    <radialGradient
       inkscape:collect="always"
       xlink:href="#linearGradient3743"
       id="radialGradient2862"
       gradientUnits="userSpaceOnUse"
       gradientTransform="matrix(2.723968,0,0,2.633434,-13.5604,-4.83122)"
       cx="7.5927024"
       cy="3.1548533"
       fx="7.5927024"
       fy="3.1548533"
       r="8.4622421" />
    <radialGradient
       inkscape:collect="always"
       xlink:href="#linearGradient3735"
       id="radialGradient2864"
       gradientUnits="userSpaceOnUse"
       gradientTransform="matrix(2.21022,0,0,2.138888,-12.1022,-18.82138)"
       cx="10.863756"
       cy="16.148972"
       fx="10.863756"
       fy="16.148972"
       r="8.7143736" />
  </defs>
  <sodipodi:namedview
     id="base"
     pagecolor="#ffffff"
     bordercolor="#afafaf"
     borderopacity="1"
     inkscape:pageopacity="0.0"
     inkscape:pageshadow="2"
     inkscape:zoom="1"
     inkscape:cx="-2.2565834"
     inkscape:cy="20.530848"
     inkscape:document-units="px"
     inkscape:current-layer="layer1"
     width="32px"
     height="32px"
     gridspacingx="0.5px"
     gridspacingy="0.5px"
     inkscape:showpageshadow="false"
     borderlayer="true"
     gridempspacing="2"
     inkscape:window-width="1051"
     inkscape:window-height="797"
     inkscape:window-x="210"
     inkscape:window-y="0"
     showgrid="false"
     showborder="true"
     inkscape:grid-points="false"
     showguides="true"
     inkscape:guide-bbox="true"
     inkscape:grid-bbox="false" />
  <metadata
     id="metadata7">
    <rdf:RDF>
      <cc:Work
         rdf:about="">
        <dc:format>image/svg+xml</dc:format>
        <dc:type
           rdf:resource="http://purl.org/dc/dcmitype/StillImage" />
        <dc:creator>
          <cc:Agent>
            <dc:title>Lapo Calamandrei</dc:title>
          </cc:Agent>
        </dc:creator>
        <cc:license
           rdf:resource="http://creativecommons.org/licenses/GPL/2.0/" />
      </cc:Work>
      <cc:License
         rdf:about="http://creativecommons.org/licenses/GPL/2.0/">
        <cc:permits
           rdf:resource="http://web.resource.org/cc/Reproduction" />
        <cc:permits
           rdf:resource="http://web.resource.org/cc/Distribution" />
        <cc:requires
           rdf:resource="http://web.resource.org/cc/Notice" />
        <cc:permits
           rdf:resource="http://web.resource.org/cc/DerivativeWorks" />
        <cc:requires
           rdf:resource="http://web.resource.org/cc/ShareAlike" />
        <cc:requires
           rdf:resource="http://web.resource.org/cc/SourceCode" />
      </cc:License>
    </rdf:RDF>
  </metadata>
  <g
     inkscape:label="Livello 1"
     inkscape:groupmode="layer"
     id="layer1">
    <path
       style="fill:none;fill-opacity:1;stroke:#edd400;stroke-width:2.99999595;stroke-linecap:round;stroke-linejoin:miter;stroke-miterlimit:4;stroke-dasharray:none;stroke-dashoffset:1.20000057;stroke-opacity:1"
       d="M 11.759756,7.358633 C 11.759756,9.4340547 8.9149233,12.961476 8.132612,11.118455 C 6.6279441,7.5736569 4.3847255,10.765438 3.3238687,8.6646112 C 2.275943,6.5893925 7.2139241,6.4746143 7.697286,4.5316526 C 8.3934912,1.7331278 11.759756,5.2832113 11.759756,7.358633 z "
       id="path4685"
       sodipodi:nodetypes="cszsc" />
    <path
       style="fill:none;fill-opacity:1;stroke:#edd400;stroke-width:2.99999595;stroke-linecap:round;stroke-linejoin:miter;stroke-miterlimit:4;stroke-dasharray:none;stroke-dashoffset:1.20000057;stroke-opacity:1"
       d="M 27.71756,8.1992627 C 30.271891,9.6515539 25.852419,11.118455 23.850236,11.118455 C 21.848053,11.118455 20.223092,9.4340547 20.223092,7.358633 C 20.223092,5.2832113 23.121087,3.4680649 24.99109,4.7396655 C 26.833383,5.9924223 25.132767,6.7296519 27.71756,8.1992627 z "
       id="path4687"
       sodipodi:nodetypes="csszz" />
    <path
       sodipodi:type="arc"
       style="opacity:0.5;fill:url(#radialGradient1950);fill-opacity:1;stroke:none;stroke-width:1;stroke-linecap:round;stroke-linejoin:miter;stroke-miterlimit:4;stroke-dasharray:none;stroke-dashoffset:1.20000057;stroke-opacity:1"
       id="path3773"
       sodipodi:cx="8"
       sodipodi:cy="17"
       sodipodi:rx="8"
       sodipodi:ry="5"
       d="M 16 17 A 8 5 0 1 1  0,17 A 8 5 0 1 1  16 17 z"
       transform="matrix(1.815214,0,0,0.78957,1.469706,11.3563)" />
    <path
       style="fill:none;fill-opacity:1;stroke:#edd400;stroke-width:2.99999595;stroke-linecap:round;stroke-linejoin:miter;stroke-miterlimit:4;stroke-dasharray:none;stroke-dashoffset:1.20000057;stroke-opacity:1"
       d="M 11.759756,23.651204 C 9.5841281,24.342231 9.3209333,28.984772 7.6044926,27.700834 C 5.7893382,26.343055 7.934637,23.915685 5.0948025,24.300727 C 2.2680024,24.684003 4.1693711,20.774468 8.132612,19.891382 C 10.08687,19.455936 11.759756,21.575782 11.759756,23.651204 z "
       id="path4689"
       sodipodi:nodetypes="czzsc" />
    <path
       style="fill:none;fill-opacity:1;stroke:#edd400;stroke-width:2.99999595;stroke-linecap:round;stroke-linejoin:miter;stroke-miterlimit:4;stroke-dasharray:none;stroke-dashoffset:1.20000057;stroke-opacity:1"
       d="M 27.315268,23.986015 C 24.237114,24.850372 26.513931,27.421482 24.327335,27.713288 C 22.227187,27.993557 21.359143,25.523617 21.078018,23.651204 C 20.798534,21.789724 22.330828,18.587489 23.850236,19.891382 C 25.157792,21.013472 30.41525,23.115529 27.315268,23.986015 z "
       id="path4691"
       sodipodi:nodetypes="czzsz" />
    <path
       style="fill:none;fill-opacity:1;stroke:white;stroke-width:0.99999857;stroke-linecap:round;stroke-linejoin:miter;stroke-miterlimit:4;stroke-dashoffset:1.20000057;stroke-opacity:1"
       d="M 11.759756,7.358633 C 11.759756,9.4340547 8.9149233,12.961476 8.132612,11.118455 C 6.6279441,7.5736569 4.3847255,10.765438 3.3238687,8.6646112 C 2.275943,6.5893925 7.2139241,6.4746143 7.697286,4.5316526 C 8.3934912,1.7331278 11.759756,5.2832113 11.759756,7.358633 z "
       id="path3751"
       sodipodi:nodetypes="cszsc" />
    <path
       style="fill:none;fill-opacity:1;stroke:white;stroke-width:0.99999857;stroke-linecap:round;stroke-linejoin:miter;stroke-miterlimit:4;stroke-dashoffset:1.20000057;stroke-opacity:1"
       d="M 27.71756,8.1992627 C 30.271891,9.6515539 25.852419,11.118455 23.850236,11.118455 C 21.848053,11.118455 20.223092,9.4340547 20.223092,7.358633 C 20.223092,5.2832113 23.121087,3.4680649 24.99109,4.7396655 C 26.833383,5.9924223 25.132767,6.7296519 27.71756,8.1992627 z "
       id="path3753"
       sodipodi:nodetypes="csszz" />
    <path
       style="fill:none;fill-opacity:1;stroke:white;stroke-width:0.99999857;stroke-linecap:round;stroke-linejoin:miter;stroke-miterlimit:4;stroke-dashoffset:1.20000057;stroke-opacity:1"
       d="M 11.759756,23.651204 C 9.5841281,24.342231 9.3209333,28.984772 7.6044926,27.700834 C 5.7893382,26.343055 7.934637,23.915685 5.0948025,24.300727 C 2.2680024,24.684003 4.1693711,20.774468 8.132612,19.891382 C 10.08687,19.455936 11.759756,21.575782 11.759756,23.651204 z "
       id="path3755"
       sodipodi:nodetypes="czzsc" />
    <path
       style="fill:none;fill-opacity:1;stroke:white;stroke-width:0.99999857;stroke-linecap:round;stroke-linejoin:miter;stroke-miterlimit:4;stroke-dashoffset:1.20000057;stroke-opacity:1"
       d="M 27.315268,23.986015 C 24.237114,24.850372 26.513931,27.421482 24.327335,27.713288 C 22.227187,27.993557 21.359143,25.523617 21.078018,23.651204 C 20.798534,21.789724 22.330828,18.587489 23.850236,19.891382 C 25.157792,21.013472 30.41525,23.115529 27.315268,23.986015 z "
       id="path3757"
       sodipodi:nodetypes="czzsz" />
    <path
       style="fill:url(#radialGradient2851);fill-opacity:1;stroke:#888a85;stroke-width:0.99999881;stroke-linecap:round;stroke-linejoin:round;stroke-miterlimit:4;stroke-dasharray:none;stroke-dashoffset:1.20000057;stroke-opacity:1"
       d="M 15.991424,3.5988114 C 9.6511817,3.5988114 4.505468,8.9327464 4.505468,15.504918 C 4.505468,22.07709 9.6511817,27.411025 15.991424,27.411025 C 22.331666,27.411025 27.47738,22.07709 27.47738,15.504918 C 27.47738,8.9327464 22.331666,3.5988114 15.991424,3.5988114 z M 15.991424,9.8651835 C 18.994694,9.8651829 21.43214,12.391789 21.43214,15.504918 C 21.43214,18.618047 18.994694,21.144653 15.991424,21.144653 C 12.988154,21.144653 10.550708,18.618047 10.550708,15.504918 C 10.550708,12.391789 12.988154,9.8651835 15.991424,9.8651835 z "
       id="path1871" />
    <path
       style="fill:url(#linearGradient2848);fill-opacity:1;fill-rule:evenodd;stroke:none;stroke-width:1px;stroke-linecap:butt;stroke-linejoin:miter;stroke-opacity:1"
       d="M 11.381928,4.6170968 C 8.7561882,5.8161442 6.6445551,8.0050203 5.4878195,10.726809 C 7.9026311,10.698248 9.4714997,11.938604 11.004101,13.233358 C 11.551741,11.948653 12.560655,10.902834 13.800024,10.335161 C 13.364103,8.1647754 12.605101,6.2251604 11.381928,4.6170968 z "
       id="path2764"
       sodipodi:nodetypes="ccccc" />
    <path
       style="fill:url(#linearGradient2845);fill-opacity:1;stroke:none;stroke-width:1;stroke-linecap:round;stroke-linejoin:miter;stroke-miterlimit:4;stroke-dasharray:none;stroke-dashoffset:1.20000057;stroke-opacity:1"
       d="M 11.004101,17.776478 C 9.1653403,18.246212 7.32658,18.370484 5.4878195,20.283027 C 6.6445551,23.004815 8.7561882,25.193691 11.381928,26.392739 C 11.709821,24.167958 12.337799,22.143234 13.800024,20.674675 C 12.560655,20.107001 11.551741,19.061183 11.004101,17.776478 z "
       id="path2772"
       sodipodi:nodetypes="ccccc" />
    <path
       style="fill:url(#linearGradient2842);fill-opacity:1;fill-rule:evenodd;stroke:none;stroke-width:1px;stroke-linecap:butt;stroke-linejoin:miter;stroke-opacity:1"
       d="M 20.600919,4.6170968 C 19.422836,6.1510664 18.419592,7.8598765 18.182823,10.335161 C 19.422193,10.902834 20.431106,11.948653 20.978747,13.233358 C 22.900816,11.648064 24.762427,10.606894 26.495028,10.726809 C 25.338292,8.0050203 23.22666,5.8161442 20.600919,4.6170968 z "
       id="path2795"
       sodipodi:nodetypes="ccccc" />
    <path
       style="fill:url(#linearGradient2839);fill-opacity:1;fill-rule:evenodd;stroke:none;stroke-width:1px;stroke-linecap:butt;stroke-linejoin:miter;stroke-opacity:1"
       d="M 20.978747,17.776478 C 20.431106,19.061183 19.422193,20.107001 18.182823,20.674675 C 19.40483,22.164722 20.13763,24.143975 20.600919,26.392739 C 23.22666,25.193691 25.338292,23.004815 26.495028,20.283027 C 25.187088,18.810526 23.234022,18.112176 20.978747,17.776478 z "
       id="path2797"
       sodipodi:nodetypes="ccccc" />
    <path
       style="fill:none;fill-rule:evenodd;stroke:#a40000;stroke-width:0.99999881px;stroke-linecap:round;stroke-linejoin:miter;stroke-opacity:1"
       d="M 11.004101,13.233358 C 11.551742,11.948653 12.560655,10.902834 13.800024,10.335161 M 11.381928,4.6170968 C 8.7561882,5.8161442 6.6445556,8.0050203 5.4878195,10.726809"
       id="path3706"
       sodipodi:nodetypes="cccc" />
    <path
       style="fill:none;fill-rule:evenodd;stroke:#a40000;stroke-width:0.99999881px;stroke-linecap:round;stroke-linejoin:miter;stroke-opacity:1"
       d="M 26.495028,10.726809 C 25.338292,8.0050203 23.22666,5.8161442 20.600919,4.6170968 M 18.182823,10.335161 C 19.422193,10.902834 20.431106,11.948653 20.978747,13.233358"
       id="path3708"
       sodipodi:nodetypes="cccc" />
    <path
       style="fill:none;fill-rule:evenodd;stroke:#a40000;stroke-width:0.99999881px;stroke-linecap:round;stroke-linejoin:miter;stroke-opacity:1"
       d="M 20.978747,17.776478 C 20.431106,19.061183 19.422193,20.107001 18.182823,20.674675 M 20.600919,26.392739 C 23.22666,25.193691 25.338292,23.004815 26.495028,20.283027"
       id="path3710"
       sodipodi:nodetypes="cccc" />
    <path
       style="fill:none;fill-opacity:1;stroke:#a40000;stroke-width:0.99999881;stroke-linecap:round;stroke-linejoin:miter;stroke-miterlimit:4;stroke-dasharray:none;stroke-dashoffset:1.20000057;stroke-opacity:1"
       d="M 13.800024,20.674675 C 12.560655,20.107001 11.551741,19.061183 11.004101,17.776478 M 5.4878195,20.283027 C 6.6445551,23.004815 8.7561882,25.193691 11.381928,26.392739"
       id="path3712"
       sodipodi:nodetypes="cccc" />
    <path
       sodipodi:type="arc"
       style="opacity:0.4;fill:none;fill-opacity:1;stroke:url(#radialGradient2862);stroke-width:0.73350757;stroke-linecap:round;stroke-linejoin:miter;stroke-miterlimit:4;stroke-dasharray:none;stroke-dashoffset:1.20000057;stroke-opacity:1"
       id="path3722"
       sodipodi:cx="10"
       sodipodi:cy="10.28125"
       sodipodi:rx="8"
       sodipodi:ry="7.71875"
       d="M 18 10.28125 A 8 7.71875 0 1 1  2,10.28125 A 8 7.71875 0 1 1  18 10.28125 z"
       transform="matrix(1.312945,0,0,1.415609,2.861978,0.950691)" />
    <path
       sodipodi:type="arc"
       style="opacity:0.8;fill:none;fill-opacity:1;stroke:url(#radialGradient2864);stroke-width:1.22297823;stroke-linecap:round;stroke-linejoin:miter;stroke-miterlimit:4;stroke-dasharray:none;stroke-dashoffset:1.20000057;stroke-opacity:1"
       id="path3724"
       sodipodi:cx="10"
       sodipodi:cy="10.28125"
       sodipodi:rx="8"
       sodipodi:ry="7.71875"
       d="M 18 10.28125 A 8 7.71875 0 1 1  2,10.28125 A 8 7.71875 0 1 1  18 10.28125 z"
       transform="matrix(0.788862,0,0,0.847542,8.102811,6.791139)" />
  </g>
</svg>
