<?xml version="1.0" encoding="UTF-8" standalone="no"?>
<!-- Created with Inkscape (http://www.inkscape.org/) -->
<svg
   xmlns:dc="http://purl.org/dc/elements/1.1/"
   xmlns:cc="http://web.resource.org/cc/"
   xmlns:rdf="http://www.w3.org/1999/02/22-rdf-syntax-ns#"
   xmlns:svg="http://www.w3.org/2000/svg"
   xmlns="http://www.w3.org/2000/svg"
   xmlns:xlink="http://www.w3.org/1999/xlink"
   xmlns:sodipodi="http://sodipodi.sourceforge.net/DTD/sodipodi-0.dtd"
   xmlns:inkscape="http://www.inkscape.org/namespaces/inkscape"
   width="48"
   height="48"
   id="svg2"
   sodipodi:version="0.32"
   inkscape:version="0.45.1"
   version="1.0"
   sodipodi:docbase="/home/lapo/Icone/gnome-icon-theme/scalable/emotes"
   sodipodi:docname="face-angry.svg"
   inkscape:export-filename="/home/lapo/Desktop/smileys.png"
   inkscape:export-xdpi="90"
   inkscape:export-ydpi="90"
   inkscape:output_extension="org.inkscape.output.svg.inkscape">
  <defs
     id="defs4">
    <linearGradient
       inkscape:collect="always"
       id="linearGradient3859">
      <stop
         style="stop-color:#000000;stop-opacity:1;"
         offset="0"
         id="stop3861" />
      <stop
         style="stop-color:#000000;stop-opacity:0;"
         offset="1"
         id="stop3863" />
    </linearGradient>
    <linearGradient
       id="linearGradient2566"
       inkscape:collect="always">
      <stop
         id="stop2568"
         offset="0"
         style="stop-color:#ef2929;stop-opacity:1" />
      <stop
         id="stop2570"
         offset="1"
         style="stop-color:#ef2929;stop-opacity:0" />
    </linearGradient>
    <linearGradient
       id="linearGradient2560"
       inkscape:collect="always">
      <stop
         id="stop2562"
         offset="0"
         style="stop-color:#ef2929;stop-opacity:1" />
      <stop
         id="stop2564"
         offset="1"
         style="stop-color:#ef2929;stop-opacity:0" />
    </linearGradient>
    <linearGradient
       inkscape:collect="always"
       id="linearGradient4148">
      <stop
         style="stop-color:#000000;stop-opacity:1;"
         offset="0"
         id="stop4150" />
      <stop
         style="stop-color:#000000;stop-opacity:0;"
         offset="1"
         id="stop4152" />
    </linearGradient>
    <linearGradient
       inkscape:collect="always"
       id="linearGradient4140">
      <stop
         style="stop-color:#ffffff;stop-opacity:1;"
         offset="0"
         id="stop4142" />
      <stop
         style="stop-color:#ffffff;stop-opacity:0;"
         offset="1"
         id="stop4144" />
    </linearGradient>
    <linearGradient
       inkscape:collect="always"
       id="linearGradient3734">
      <stop
         style="stop-color:black;stop-opacity:1;"
         offset="0"
         id="stop3736" />
      <stop
         style="stop-color:black;stop-opacity:0;"
         offset="1"
         id="stop3738" />
    </linearGradient>
    <linearGradient
       id="linearGradient3712">
      <stop
         id="stop3714"
         offset="0"
         style="stop-color:white;stop-opacity:1;" />
      <stop
         id="stop3716"
         offset="1"
         style="stop-color:white;stop-opacity:0.50570345" />
    </linearGradient>
    <linearGradient
       id="linearGradient3936">
      <stop
         id="stop3938"
         offset="0"
         style="stop-color:#fcaf3e;stop-opacity:1" />
      <stop
         style="stop-color:#ef2929;stop-opacity:1;"
         offset="0.64999998"
         id="stop3940" />
      <stop
         id="stop3942"
         offset="1"
         style="stop-color:#c00;stop-opacity:1" />
    </linearGradient>
    <linearGradient
       id="linearGradient3512">
      <stop
         style="stop-color:#a7aba2;stop-opacity:1;"
         offset="0"
         id="stop3514" />
      <stop
         id="stop3524"
         offset="0.1"
         style="stop-color:#e9ebe7;stop-opacity:1;" />
      <stop
         id="stop3520"
         offset="0.34999999"
         style="stop-color:white;stop-opacity:1;" />
      <stop
         style="stop-color:#e9ebe7;stop-opacity:1;"
         offset="0.89999998"
         id="stop3522" />
      <stop
         style="stop-color:#a7aba2;stop-opacity:1;"
         offset="1"
         id="stop3516" />
    </linearGradient>
    <linearGradient
       id="linearGradient8431"
       inkscape:collect="always">
      <stop
         id="stop8433"
         offset="0"
         style="stop-color:#ffffff;stop-opacity:1;" />
      <stop
         id="stop8435"
         offset="1"
         style="stop-color:#ffffff;stop-opacity:0;" />
    </linearGradient>
    <linearGradient
       inkscape:collect="always"
       xlink:href="#linearGradient3512"
       id="linearGradient8452"
       gradientUnits="userSpaceOnUse"
       x1="4.5911422"
       y1="222.90671"
       x2="17.284155"
       y2="222.90671"
       gradientTransform="matrix(0.9393939,0,0,1,0.6667383,0)" />
    <linearGradient
       inkscape:collect="always"
       xlink:href="#linearGradient8431"
       id="linearGradient8456"
       gradientUnits="userSpaceOnUse"
       x1="18.825819"
       y1="-140.43388"
       x2="19.23638"
       y2="-134.38734" />
    <radialGradient
       inkscape:collect="always"
       xlink:href="#linearGradient3734"
       id="radialGradient8460"
       gradientUnits="userSpaceOnUse"
       cx="12.046875"
       cy="10.046875"
       fx="12.046875"
       fy="10.046875"
       r="9.546875" />
    <linearGradient
       id="linearGradient3696"
       inkscape:collect="always">
      <stop
         id="stop3698"
         offset="0"
         style="stop-color:white;stop-opacity:1;" />
      <stop
         id="stop3700"
         offset="1"
         style="stop-color:white;stop-opacity:0;" />
    </linearGradient>
    <linearGradient
       id="linearGradient7776"
       inkscape:collect="always">
      <stop
         id="stop7778"
         offset="0"
         style="stop-color:#2e3436;stop-opacity:1" />
      <stop
         id="stop7780"
         offset="1"
         style="stop-color:#000000;stop-opacity:1" />
    </linearGradient>
    <linearGradient
       inkscape:collect="always"
       id="linearGradient7802">
      <stop
         style="stop-color:#2e3436;stop-opacity:1"
         offset="0"
         id="stop7804" />
      <stop
         style="stop-color:#000000;stop-opacity:1"
         offset="1"
         id="stop7806" />
    </linearGradient>
    <linearGradient
       id="linearGradient7810"
       inkscape:collect="always">
      <stop
         id="stop7812"
         offset="0"
         style="stop-color:#ffffff;stop-opacity:1;" />
      <stop
         id="stop7814"
         offset="1"
         style="stop-color:#ffffff;stop-opacity:0;" />
    </linearGradient>
    <linearGradient
       id="linearGradient7824"
       inkscape:collect="always">
      <stop
         id="stop7826"
         offset="0"
         style="stop-color:#000000;stop-opacity:1;" />
      <stop
         id="stop7828"
         offset="1"
         style="stop-color:#000000;stop-opacity:0;" />
    </linearGradient>
    <radialGradient
       inkscape:collect="always"
       xlink:href="#linearGradient3936"
       id="radialGradient3725"
       gradientUnits="userSpaceOnUse"
       gradientTransform="matrix(2.5784757,0,0,2.5784757,-5.9937127,-0.9345791)"
       cx="9.3747082"
       cy="7.8025141"
       fx="9.3747082"
       fy="7.8025141"
       r="10.049342" />
    <radialGradient
       inkscape:collect="always"
       xlink:href="#linearGradient3712"
       id="radialGradient3737"
       gradientUnits="userSpaceOnUse"
       gradientTransform="matrix(2.5376699,0,0,2.5376699,-3.2238847,1.7641461)"
       cx="5.3851099"
       cy="3.2659137"
       fx="5.3851099"
       fy="3.2659137"
       r="10.108456" />
    <radialGradient
       inkscape:collect="always"
       xlink:href="#linearGradient4140"
       id="radialGradient3854"
       cx="24.53125"
       cy="28.408104"
       fx="24.53125"
       fy="28.408104"
       r="12.5"
       gradientTransform="matrix(1.9208389,0,0,0.36875,-22.58933,20.821387)"
       gradientUnits="userSpaceOnUse" />
    <radialGradient
       inkscape:collect="always"
       xlink:href="#linearGradient4148"
       id="radialGradient3856"
       cx="23.53125"
       cy="28.408075"
       fx="23.53125"
       fy="28.408075"
       r="12.5"
       gradientTransform="matrix(3.6188667,0,0,0.3690477,-61.625207,20.809221)"
       gradientUnits="userSpaceOnUse" />
    <radialGradient
       inkscape:collect="always"
       xlink:href="#linearGradient3859"
       id="radialGradient3867"
       cx="11"
       cy="214.82245"
       fx="11"
       fy="214.82245"
       r="6.875"
       gradientTransform="matrix(1.3034982,0,0,0.2828281,-3.3384807,160.50415)"
       gradientUnits="userSpaceOnUse" />
    <radialGradient
       inkscape:collect="always"
       xlink:href="#linearGradient7824"
       id="radialGradient3983"
       gradientUnits="userSpaceOnUse"
       gradientTransform="matrix(0.9320389,0,0,1.3203882,1.0339798,143.38105)"
       cx="29.46875"
       cy="-131.5"
       fx="29.46875"
       fy="-131.5"
       r="3.21875" />
    <radialGradient
       inkscape:collect="always"
       xlink:href="#linearGradient7824"
       id="radialGradient3985"
       gradientUnits="userSpaceOnUse"
       gradientTransform="matrix(0.9320389,0,0,1.3203882,-7.9660202,143.38105)"
       cx="29.46875"
       cy="-131.5"
       fx="29.46875"
       fy="-131.5"
       r="3.21875" />
    <radialGradient
       inkscape:collect="always"
       xlink:href="#linearGradient7802"
       id="radialGradient3987"
       gradientUnits="userSpaceOnUse"
       gradientTransform="matrix(1.2713953,0,0,1.5301983,-17.458259,170.87227)"
       cx="28.221428"
       cy="-133.18883"
       fx="28.221428"
       fy="-133.18883"
       r="3.21875" />
    <radialGradient
       inkscape:collect="always"
       xlink:href="#linearGradient7776"
       id="radialGradient3989"
       gradientUnits="userSpaceOnUse"
       gradientTransform="matrix(1.2713953,0,0,1.5301983,-8.4582587,170.87227)"
       cx="28.221428"
       cy="-133.18883"
       fx="28.221428"
       fy="-133.18883"
       r="3.21875" />
    <linearGradient
       inkscape:collect="always"
       xlink:href="#linearGradient7810"
       id="linearGradient3991"
       gradientUnits="userSpaceOnUse"
       x1="28.621698"
       y1="-135.65616"
       x2="30.315804"
       y2="-127.34384" />
    <linearGradient
       inkscape:collect="always"
       xlink:href="#linearGradient7810"
       id="linearGradient3993"
       gradientUnits="userSpaceOnUse"
       gradientTransform="matrix(0.2408327,6.0944233e-2,-4.9083318e-2,0.4390867,14.270157,23.77051)"
       x1="28.621698"
       y1="-135.65616"
       x2="30.315804"
       y2="-127.34384" />
    <linearGradient
       inkscape:collect="always"
       xlink:href="#linearGradient3696"
       id="linearGradient3995"
       gradientUnits="userSpaceOnUse"
       gradientTransform="matrix(-1,0,0,1,-54.020832,-37.989582)"
       x1="-76.3125"
       y1="49.062111"
       x2="-74.847809"
       y2="52.578125" />
    <linearGradient
       inkscape:collect="always"
       xlink:href="#linearGradient2560"
       id="linearGradient3997"
       gradientUnits="userSpaceOnUse"
       x1="-80.725792"
       y1="46.970554"
       x2="-81.683334"
       y2="49.016621" />
    <linearGradient
       inkscape:collect="always"
       xlink:href="#linearGradient2566"
       id="linearGradient3999"
       gradientUnits="userSpaceOnUse"
       x1="-80.725792"
       y1="46.970554"
       x2="-81.683334"
       y2="49.016621" />
    <linearGradient
       inkscape:collect="always"
       xlink:href="#linearGradient3696"
       id="linearGradient4001"
       gradientUnits="userSpaceOnUse"
       gradientTransform="translate(102.01042,-37.989582)"
       x1="-76.3125"
       y1="49.062111"
       x2="-74.847809"
       y2="52.578125" />
  </defs>
  <sodipodi:namedview
     id="base"
     pagecolor="#ffffff"
     bordercolor="#666666"
     borderopacity="1.0"
     inkscape:pageopacity="0"
     inkscape:pageshadow="2"
     inkscape:zoom="1"
     inkscape:cx="39.098452"
     inkscape:cy="17.940116"
     inkscape:document-units="px"
     inkscape:current-layer="layer1"
     width="48px"
     height="48px"
     inkscape:showpageshadow="false"
     showgrid="false"
     gridempspacing="2"
     gridspacingx="0.5px"
     gridspacingy="0.5px"
     borderlayer="true"
     showborder="false"
     showguides="true"
     inkscape:guide-bbox="true"
     inkscape:window-width="1274"
     inkscape:window-height="966"
     inkscape:window-x="15"
     inkscape:window-y="72"
     inkscape:grid-points="true"
     inkscape:grid-bbox="false"
     inkscape:object-points="false"
     inkscape:object-paths="false" />
  <metadata
     id="metadata7">
    <rdf:RDF>
      <cc:Work
         rdf:about="">
        <dc:format>image/svg+xml</dc:format>
        <dc:type
           rdf:resource="http://purl.org/dc/dcmitype/StillImage" />
        <dc:title>Devilish</dc:title>
        <dc:creator>
          <cc:Agent>
            <dc:title>Lapo Calamandrei</dc:title>
          </cc:Agent>
        </dc:creator>
        <dc:subject>
          <rdf:Bag>
            <rdf:li>emoticon</rdf:li>
            <rdf:li>emote</rdf:li>
            <rdf:li>smiley</rdf:li>
            <rdf:li>smile</rdf:li>
            <rdf:li>devilish</rdf:li>
            <rdf:li>devil</rdf:li>
            <rdf:li>grin</rdf:li>
          </rdf:Bag>
        </dc:subject>
        <cc:license
           rdf:resource="http://creativecommons.org/licenses/GPL/2.0/" />
      </cc:Work>
      <cc:License
         rdf:about="http://creativecommons.org/licenses/GPL/2.0/">
        <cc:permits
           rdf:resource="http://web.resource.org/cc/Reproduction" />
        <cc:permits
           rdf:resource="http://web.resource.org/cc/Distribution" />
        <cc:requires
           rdf:resource="http://web.resource.org/cc/Notice" />
        <cc:permits
           rdf:resource="http://web.resource.org/cc/DerivativeWorks" />
        <cc:requires
           rdf:resource="http://web.resource.org/cc/ShareAlike" />
        <cc:requires
           rdf:resource="http://web.resource.org/cc/SourceCode" />
      </cc:License>
    </rdf:RDF>
  </metadata>
  <g
     inkscape:label="Livello 1"
     inkscape:groupmode="layer"
     id="layer1"
     style="display:inline">
    <path
       sodipodi:type="arc"
       style="opacity:0.4;fill:url(#radialGradient8460);fill-opacity:1;stroke:none;stroke-width:0.46570092;stroke-linecap:round;stroke-linejoin:miter;stroke-miterlimit:4;stroke-dasharray:none;stroke-dashoffset:0;stroke-opacity:1;display:inline"
       id="path6204"
       sodipodi:cx="12.046875"
       sodipodi:cy="10.046875"
       sodipodi:rx="9.546875"
       sodipodi:ry="9.546875"
       d="M 21.59375 10.046875 A 9.546875 9.546875 0 1 1  2.5,10.046875 A 9.546875 9.546875 0 1 1  21.59375 10.046875 z"
       transform="matrix(2.396073,0,0,1.407553,-4.865631,20.29622)"
       inkscape:export-filename="/home/lapo/Desktop/something-along-the-lines.png"
       inkscape:export-xdpi="90"
       inkscape:export-ydpi="90" />
    <path
       style="fill:url(#radialGradient3725);fill-opacity:1;stroke:#a40000;stroke-width:0.99999958;stroke-linecap:round;stroke-linejoin:miter;stroke-miterlimit:4;stroke-dasharray:none;stroke-dashoffset:0;stroke-opacity:1;display:inline"
       d="M 24 3.5 C 12.683997 3.5 3.4999999 12.683998 3.5 24 C 3.5 27.145561 4.2321771 30.116638 5.5 32.78125 L 5.5 37.0625 C 5.5 38.971498 7.0285021 40.5 8.9375 40.5 L 11.875 40.5 C 15.273571 43.001978 19.459181 44.500001 24 44.5 C 28.540819 44.5 32.726429 43.001978 36.125 40.5 L 39.0625 40.5 C 40.971498 40.5 42.5 38.9715 42.5 37.0625 L 42.5 32.78125 C 43.767823 30.116638 44.500001 27.145561 44.5 24 C 44.5 12.683997 35.316002 3.5000001 24 3.5 z "
       id="path6206" />
    <path
       sodipodi:type="arc"
       style="opacity:0.3;fill:url(#linearGradient8456);fill-opacity:1;fill-rule:evenodd;stroke:none;stroke-width:1;stroke-linecap:round;stroke-linejoin:miter;stroke-miterlimit:4;stroke-dasharray:none;stroke-dashoffset:0.69999992;stroke-opacity:1;display:inline"
       id="path8199"
       sodipodi:cx="19.5625"
       sodipodi:cy="-135.96875"
       sodipodi:rx="6.125"
       sodipodi:ry="5.96875"
       d="M 25.6875 -135.96875 A 6.125 5.96875 0 1 1  13.4375,-135.96875 A 6.125 5.96875 0 1 1  25.6875 -135.96875 z"
       transform="matrix(2.2078305,-0.5915864,0.4553048,1.6992208,40.81191,259.37364)"
       inkscape:transform-center-y="-7.3651901"
       inkscape:transform-center-x="1.9734894" />
    <path
       style="opacity:0.5;fill:none;fill-opacity:1;stroke:url(#radialGradient3737);stroke-width:1;stroke-linecap:round;stroke-linejoin:miter;stroke-miterlimit:4;stroke-dasharray:none;stroke-dashoffset:0;stroke-opacity:1;display:inline"
       d="M 24,4.46875 C 13.215826,4.46875 4.46875,13.215827 4.46875,24 C 4.46875,26.011776 4.80131,27.929796 5.375,29.75 C 5.380892,29.769037 5.369051,29.793488 5.375,29.8125 C 5.543651,30.341869 5.72646,30.86474 5.9375,31.375 C 5.958818,31.426542 5.978266,31.47991 6,31.53125 C 6.032532,31.608884 6.091496,31.672879 6.125,31.75 C 6.210618,31.945499 6.283428,32.151292 6.375,32.34375 C 6.439464,32.480438 6.471545,32.630149 6.46875,32.78125 L 6.46875,37.0625 C 6.46875,38.446819 7.553181,39.53125 8.9375,39.53125 L 11.875,39.53125 C 12.088005,39.527763 12.296378,39.593565 12.46875,39.71875 C 12.601396,39.816402 12.739937,39.905589 12.875,40 C 13.027973,40.10647 13.18763,40.210342 13.34375,40.3125 C 13.628983,40.500166 13.923738,40.670721 14.21875,40.84375 C 14.467331,40.988635 14.713349,41.147203 14.96875,41.28125 C 15.435957,41.528297 15.918063,41.759413 16.40625,41.96875 C 18.151033,42.716922 20.03573,43.201331 22,43.40625 C 22.662491,43.475363 23.318307,43.53125 24,43.53125 C 24.681693,43.53125 25.337509,43.475363 26,43.40625 C 27.96427,43.201331 29.848967,42.716922 31.59375,41.96875 C 32.089901,41.75878 32.557059,41.530129 33.03125,41.28125 C 33.287756,41.145616 33.531456,40.990258 33.78125,40.84375 C 34.072278,40.674125 34.37504,40.49651 34.65625,40.3125 C 34.813326,40.209153 34.970996,40.107651 35.125,40 C 35.260063,39.905589 35.398604,39.816402 35.53125,39.71875 C 35.703622,39.593565 35.911995,39.527763 36.125,39.53125 L 39.0625,39.53125 C 40.44682,39.53125 41.53125,38.446822 41.53125,37.0625 L 41.53125,32.78125 C 41.528455,32.630149 41.560536,32.480438 41.625,32.34375 C 41.71802,32.147895 41.788385,31.949375 41.875,31.75 C 41.908343,31.673864 41.967576,31.607839 42,31.53125 C 42.02136,31.480275 42.041561,31.426193 42.0625,31.375 C 42.27354,30.86474 42.456349,30.341869 42.625,29.8125 C 42.631133,29.79325 42.618925,29.769274 42.625,29.75 C 43.198691,27.929796 43.531251,26.011776 43.53125,24 C 43.53125,13.215826 34.784173,4.4687501 24,4.46875 z "
       id="path6208" />
    <g
       transform="matrix(2.3363921,0,0,2.4984281,-1.7030746,-525.89597)"
       style="display:inline"
       id="g6214">
      <path
         style="opacity:1;fill:url(#linearGradient8452);fill-opacity:1;stroke:#cc0000;stroke-width:0.41389835;stroke-linecap:round;stroke-linejoin:miter;stroke-miterlimit:4;stroke-dasharray:none;stroke-dashoffset:0;stroke-opacity:1;display:inline"
         d="M 3.9523863,223.89917 C 3.9523863,227.70156 5.8747853,224.67466 11.001182,224.69968 C 16.127578,224.72469 18.049976,227.70156 18.049976,223.89917 C 18.049976,220.09677 14.478766,222.2482 11.001182,222.29816 C 7.523597,222.34812 3.9523863,220.09677 3.9523863,223.89917 z "
         id="path6216"
         sodipodi:nodetypes="czzsz" />
    </g>
    <g
       id="g6220"
       style="display:inline"
       transform="translate(4.4194e-2,-150)">
      <path
         style="opacity:0.08999999;fill:url(#radialGradient3856);fill-opacity:1.0;fill-rule:evenodd;stroke:none;stroke-width:1px;stroke-linecap:square;stroke-linejoin:miter;stroke-opacity:1"
         d="M 35.3125 28.375 C 35.223675 28.379923 35.122112 28.399203 35.03125 28.40625 L 35.03125 37.03125 C 35.394795 37.147406 35.710603 37.215314 36.03125 37.3125 L 36.03125 28.375 C 35.797537 28.370214 35.565692 28.360968 35.3125 28.375 z M 11.625 28.5 C 11.414181 28.509486 11.223907 28.566103 11.03125 28.59375 L 11.03125 37.59375 C 11.074901 37.582714 11.111903 37.574437 11.15625 37.5625 C 11.408512 37.494604 11.746143 37.370234 12.03125 37.28125 L 12.03125 28.5 C 11.898002 28.499588 11.751757 28.494297 11.625 28.5 z M 33.03125 28.65625 C 32.713191 28.711728 32.363403 28.779596 32.03125 28.84375 L 32.03125 36.125 C 32.381078 36.219067 32.70591 36.310484 33.03125 36.40625 L 33.03125 28.65625 z M 14.03125 28.6875 L 14.03125 36.65625 C 14.354294 36.553589 14.680344 36.448019 15.03125 36.34375 L 15.03125 28.84375 C 14.690198 28.784674 14.354701 28.734082 14.03125 28.6875 z M 18.03125 29.40625 L 18.03125 35.59375 C 18.352328 35.527638 18.693647 35.464208 19.03125 35.40625 L 19.03125 29.5625 C 18.694516 29.506565 18.360498 29.466057 18.03125 29.40625 z M 29.03125 29.4375 C 28.702954 29.498067 28.365386 29.538567 28.03125 29.59375 L 28.03125 35.28125 C 28.378668 35.330453 28.699927 35.410504 29.03125 35.46875 L 29.03125 29.4375 z M 23.03125 29.96875 L 23.03125 35.03125 C 23.356509 35.021572 23.663364 34.998243 24 35 C 24.010834 35.000057 24.020427 34.999932 24.03125 35 L 24.03125 30 C 24.020872 30.000176 24.010378 29.999841 24 30 C 23.677143 30.00496 23.353339 29.979552 23.03125 29.96875 z "
         transform="translate(-4.4194e-2,150)"
         id="path6222" />
      <path
         style="fill:url(#radialGradient3854);fill-opacity:1.0;fill-rule:evenodd;stroke:none;stroke-width:1px;stroke-linecap:square;stroke-linejoin:miter;stroke-opacity:1;display:inline"
         d="M 36.03125 28.375 L 36.03125 37.3125 C 36.293656 37.392034 36.609768 37.500915 36.84375 37.5625 C 36.911322 37.580287 36.966769 37.577814 37.03125 37.59375 L 37.03125 28.46875 C 36.723427 28.413833 36.38517 28.382248 36.03125 28.375 z M 12.03125 28.5 L 12.03125 37.28125 C 12.356267 37.17981 12.663032 37.089013 13.03125 36.96875 L 13.03125 28.5625 C 12.916609 28.552027 12.79907 28.5387 12.6875 28.53125 C 12.455157 28.515737 12.246798 28.500667 12.03125 28.5 z M 34.03125 28.5 C 33.703562 28.545243 33.377928 28.59578 33.03125 28.65625 L 33.03125 36.40625 C 33.379195 36.508669 33.711069 36.618594 34.03125 36.71875 L 34.03125 28.5 z M 15.03125 28.84375 L 15.03125 36.34375 C 15.34994 36.249054 15.689362 36.186169 16.03125 36.09375 L 16.03125 29.03125 C 15.701367 28.969635 15.347706 28.898565 15.03125 28.84375 z M 30.03125 29.21875 C 29.699649 29.283908 29.370545 29.374904 29.03125 29.4375 L 29.03125 35.46875 C 29.367812 35.527917 29.711186 35.589636 30.03125 35.65625 L 30.03125 29.21875 z M 19.03125 29.5625 L 19.03125 35.40625 C 19.360239 35.349771 19.686457 35.296872 20.03125 35.25 L 20.03125 29.71875 C 19.696167 29.670722 19.360469 29.617187 19.03125 29.5625 z M 25.03125 29.96875 C 24.699279 29.990204 24.363751 29.994355 24.03125 30 L 24.03125 35 C 24.37804 35.002186 24.696522 35.017646 25.03125 35.03125 L 25.03125 29.96875 z "
         transform="translate(-4.4194e-2,150)"
         id="path6224" />
      <g
         style="opacity:0.8;stroke-linecap:square"
         transform="translate(5,0)"
         id="g6226" />
      <g
         transform="translate(-5,0)"
         id="g6232"
         style="opacity:0.8;stroke-linecap:square;display:inline" />
      <g
         transform="translate(-9,0)"
         id="g6238"
         style="opacity:0.7;stroke-linecap:square;display:inline" />
      <g
         transform="translate(9,0)"
         id="g6244"
         style="opacity:0.7;stroke-linecap:square;display:inline" />
      <g
         transform="translate(12,0)"
         id="g6250"
         style="opacity:0.5;stroke-linecap:square;display:inline" />
      <g
         transform="translate(-12,0)"
         id="g6256"
         style="opacity:0.5;stroke-linecap:square;display:inline" />
    </g>
    <g
       id="g7909"
       transform="translate(-106,-55.000002)" />
    <g
       id="g3969">
      <g
         transform="translate(60,49.999998)"
         id="g7844"
         style="display:inline">
        <path
           style="opacity:0.7;fill:url(#radialGradient3983);fill-opacity:1;fill-rule:evenodd;stroke:none;stroke-width:1;stroke-linecap:round;stroke-linejoin:miter;stroke-miterlimit:4;stroke-dasharray:none;stroke-dashoffset:0.69999992;stroke-opacity:1;display:inline"
           d="M 29,-34.4375 L 25.6875,-31.5625 C 25.59043,-31.144576 25.5,-30.713763 25.5,-30.25 C 25.5,-27.904 26.843999,-25.999999 28.5,-26 C 30.156,-26 31.499999,-27.904001 31.5,-30.25 C 31.5,-32.350304 30.413926,-34.094812 29,-34.4375 z "
           transform="translate(-60,2e-6)"
           id="path7847" />
        <path
           style="opacity:0.7;fill:url(#radialGradient3985);fill-opacity:1;fill-rule:evenodd;stroke:none;stroke-width:1;stroke-linecap:round;stroke-linejoin:miter;stroke-miterlimit:4;stroke-dasharray:none;stroke-dashoffset:0.69999992;stroke-opacity:1;display:inline"
           d="M 19,-34.4375 C 17.586073,-34.094813 16.500001,-32.350305 16.5,-30.25 C 16.5,-27.904 17.843999,-25.999999 19.5,-26 C 21.156,-26 22.499999,-27.904001 22.5,-30.25 C 22.5,-30.713763 22.40957,-31.144576 22.3125,-31.5625 L 19,-34.4375 z "
           transform="translate(-60,2e-6)"
           id="path7849" />
        <path
           style="fill:url(#radialGradient3987);fill-opacity:1;fill-rule:evenodd;stroke:none;stroke-width:1;stroke-linecap:round;stroke-linejoin:miter;stroke-miterlimit:4;stroke-dasharray:none;stroke-dashoffset:0.69999992;stroke-opacity:1;display:inline"
           d="M 18.625,-34.75 C 17.676232,-34.182032 17,-32.71543 17,-31 C 17,-28.792 18.12,-27 19.5,-27 C 20.88,-27 22.000001,-28.792 22,-31 C 22,-31.322622 21.95139,-31.636934 21.90625,-31.9375 L 18.625,-34.75 z "
           transform="translate(-60,2e-6)"
           id="path7851" />
        <path
           style="fill:url(#radialGradient3989);fill-opacity:1;fill-rule:evenodd;stroke:none;stroke-width:1;stroke-linecap:round;stroke-linejoin:miter;stroke-miterlimit:4;stroke-dasharray:none;stroke-dashoffset:0.69999992;stroke-opacity:1;display:inline"
           d="M 29.375,-34.75 L 26.09375,-31.9375 C 26.04861,-31.636934 26,-31.322622 26,-31 C 26,-28.792 27.12,-27 28.5,-27 C 29.88,-27 31.000001,-28.792 31,-31 C 31,-32.71543 30.323768,-34.182033 29.375,-34.75 z "
           transform="translate(-60,2e-6)"
           id="path7853" />
        <path
           sodipodi:type="arc"
           style="opacity:0.5;fill:url(#linearGradient3991);fill-opacity:1;fill-rule:evenodd;stroke:none;stroke-width:1;stroke-linecap:round;stroke-linejoin:miter;stroke-miterlimit:4;stroke-dasharray:none;stroke-dashoffset:0.69999992;stroke-opacity:1;display:inline"
           id="path7855"
           sodipodi:cx="29.46875"
           sodipodi:cy="-131.5"
           sodipodi:rx="3.21875"
           sodipodi:ry="4.25"
           d="M 32.6875 -131.5 A 3.21875 4.25 0 1 1  26.25,-131.5 A 3.21875 4.25 0 1 1  32.6875 -131.5 z"
           transform="matrix(0.2408327,6.0944233e-2,-4.9083318e-2,0.4390867,-54.729843,23.770512)" />
        <path
           style="opacity:0.5;fill:url(#linearGradient3993);fill-opacity:1;fill-rule:evenodd;stroke:none;stroke-width:1;stroke-linecap:round;stroke-linejoin:miter;stroke-miterlimit:4;stroke-dasharray:none;stroke-dashoffset:0.69999992;stroke-opacity:1;display:inline"
           d="M 28.3125,-33.8125 L 27.125,-32.8125 C 27.093619,-32.670909 27.048762,-32.531653 27.03125,-32.375 C 26.916101,-31.344903 27.1971,-30.420783 27.625,-30.3125 C 28.052899,-30.204217 28.4786,-30.938653 28.59375,-31.96875 C 28.680112,-32.741323 28.559011,-33.458685 28.3125,-33.8125 z "
           transform="translate(-60,2e-6)"
           id="path7857" />
      </g>
      <g
         style="opacity:0.54054051"
         id="g3869">
        <path
           style="opacity:0.11196911;fill:none;fill-opacity:1;stroke:url(#linearGradient3995);stroke-width:1.08333337;stroke-linecap:round;stroke-linejoin:round;stroke-miterlimit:4;stroke-dashoffset:0;stroke-opacity:1;display:inline"
           d="M 10.010419,16.510418 C 10.010419,12.674268 13.143015,9.541668 16.979169,9.541668 C 19.587622,9.541668 21.784952,11.033588 22.979169,13.166668"
           id="path8086"
           sodipodi:nodetypes="csc" />
        <path
           sodipodi:type="arc"
           style="fill:none;fill-opacity:1;stroke:url(#linearGradient3997);stroke-width:1.08333337;stroke-linecap:round;stroke-linejoin:round;stroke-miterlimit:4;stroke-dasharray:none;stroke-dashoffset:0;stroke-opacity:1;display:inline"
           id="path8088"
           sodipodi:cx="-83"
           sodipodi:cy="53"
           sodipodi:rx="6.5"
           sodipodi:ry="6.5"
           d="M -76.5 53 A 6.5 6.5 0 1 1  -89.5,53 A 6.5 6.5 0 1 1  -76.5 53 z"
           transform="matrix(0.923077,0,0,0.923077,93.59456,-32.412662)" />
        <path
           sodipodi:type="arc"
           style="fill:none;fill-opacity:1;stroke:url(#linearGradient3999);stroke-width:1.08333337;stroke-linecap:round;stroke-linejoin:round;stroke-miterlimit:4;stroke-dasharray:none;stroke-dashoffset:0;stroke-opacity:1;display:inline"
           id="path2538"
           sodipodi:cx="-83"
           sodipodi:cy="53"
           sodipodi:rx="6.5"
           sodipodi:ry="6.5"
           d="M -76.5 53 A 6.5 6.5 0 1 1  -89.5,53 A 6.5 6.5 0 1 1  -76.5 53 z"
           transform="matrix(-0.923077,0,0,0.923077,-45.636222,-32.412662)" />
        <path
           style="opacity:0.11196911;fill:none;fill-opacity:1;stroke:url(#linearGradient4001);stroke-width:1.08333337;stroke-linecap:round;stroke-linejoin:round;stroke-miterlimit:4;stroke-dashoffset:0;stroke-opacity:1;display:inline"
           d="M 37.979169,16.510418 C 37.979169,12.674268 34.846573,9.541668 31.010419,9.541668 C 28.401966,9.541668 26.204636,11.033588 25.010419,13.166668"
           id="path2556"
           sodipodi:nodetypes="csc" />
      </g>
    </g>
    <path
       sodipodi:type="inkscape:offset"
       inkscape:radius="-0.19795807"
       inkscape:original="M 15.84375 221.65625 C 14.51625 221.72505 12.738792 222.28752 11 222.3125 C 7.5224154 222.36246 3.9375 220.10385 3.9375 223.90625 C 3.9374999 227.70864 5.8736033 224.66248 11 224.6875 C 16.126396 224.71251 18.0625 227.70864 18.0625 223.90625 C 18.0625 222.00505 17.17125 221.58745 15.84375 221.65625 z "
       style="opacity:0.57528958;fill:url(#radialGradient3867);fill-opacity:1;stroke:none;stroke-width:0.41389835;stroke-linecap:round;stroke-linejoin:miter;stroke-miterlimit:4;stroke-dasharray:none;stroke-dashoffset:0;stroke-opacity:1;display:inline"
       id="path3835"
       d="M 15.84375,221.84375 C 14.562822,221.91014 12.779532,222.47443 11,222.5 C 9.2173877,222.52561 7.443613,221.98664 6.15625,221.90625 C 5.5125685,221.86606 5.0184094,221.94435 4.6875,222.21875 C 4.3565906,222.49315 4.125,222.98676 4.125,223.90625 C 4.125,224.84005 4.2849649,225.3247 4.46875,225.5 C 4.5606426,225.58765 4.6414818,225.6186 4.8125,225.625 C 4.9835182,225.6314 5.2271098,225.59994 5.5,225.53125 C 6.5915609,225.25651 8.3974718,224.4873 11,224.5 C 13.601641,224.51269 15.409624,225.26287 16.5,225.53125 C 16.772594,225.59835 16.985498,225.63311 17.15625,225.625 C 17.327002,225.61689 17.438619,225.58974 17.53125,225.5 C 17.716512,225.32053 17.875,224.84005 17.875,223.90625 C 17.875,222.98658 17.643564,222.47147 17.3125,222.1875 C 16.981436,221.90353 16.484539,221.81054 15.84375,221.84375 z "
       transform="matrix(2.3363921,0,0,2.4984281,-1.7030746,-525.89597)" />
  </g>
</svg>
