<?xml version="1.0" encoding="UTF-8"?>
<svg xmlns="http://www.w3.org/2000/svg" xmlns:xlink="http://www.w3.org/1999/xlink" width="16pt" height="16pt" viewBox="0 0 16 16" version="1.1">
<g id="surface2">
<path style="fill:none;stroke-width:1.944545;stroke-linecap:butt;stroke-linejoin:miter;stroke:rgb(74.509804%,74.509804%,74.509804%);stroke-opacity:1;stroke-miterlimit:4;" d="M 348.426664 174.170934 C 348.426664 175.511607 347.340454 176.601616 345.995984 176.601616 C 344.655311 176.601616 343.565303 175.511607 343.565303 174.170934 C 343.565303 172.830261 344.655311 171.740252 345.995984 171.740252 C 347.340454 171.740252 348.426664 172.830261 348.426664 174.170934 Z M 348.426664 174.170934 " transform="matrix(1.028518,0,0,1.028518,-351.36327,-167.637941)"/>
<path style="fill:none;stroke-width:1.944545;stroke-linecap:butt;stroke-linejoin:miter;stroke:rgb(74.509804%,74.509804%,74.509804%);stroke-opacity:1;stroke-miterlimit:4;" d="M 348.426664 174.170934 C 348.426664 175.511607 347.340454 176.601616 345.995984 176.601616 C 344.655311 176.601616 343.565303 175.511607 343.565303 174.170934 C 343.565303 172.830261 344.655311 171.740252 345.995984 171.740252 C 347.340454 171.740252 348.426664 172.830261 348.426664 174.170934 Z M 348.426664 174.170934 " transform="matrix(1.028518,0,0,1.028518,-343.36327,-167.637941)"/>
<path style=" stroke:none;fill-rule:nonzero;fill:rgb(74.509804%,74.509804%,74.509804%);fill-opacity:1;" d="M 6 2 L 8 2 L 8 11.515625 L 6 11.515625 Z M 6 2 "/>
<path style=" stroke:none;fill-rule:nonzero;fill:rgb(74.509804%,74.509804%,74.509804%);fill-opacity:1;" d="M 14 2 L 16 2 L 16 11.5625 L 14 11.5625 Z M 14 2 "/>
<path style=" stroke:none;fill-rule:nonzero;fill:rgb(74.509804%,74.509804%,74.509804%);fill-opacity:1;" d="M 6 2 L 16 2 L 16 4 L 6 4 Z M 6 2 "/>
</g>
</svg>
