<?xml version="1.0" encoding="UTF-8"?>
<svg xmlns="http://www.w3.org/2000/svg" xmlns:xlink="http://www.w3.org/1999/xlink" width="15pt" height="16pt" viewBox="0 0 15 16" version="1.1">
<g id="surface2">
<path style=" stroke:none;fill-rule:nonzero;fill:rgb(74.509804%,74.509804%,74.509804%);fill-opacity:1;" d="M 14.902344 2 C 14.859375 2.007812 14.816406 2.019531 14.777344 2.03125 C 14.328125 2.132812 13.984375 2.574219 13.996094 3.03125 L 13.996094 4.71875 C 14 6.03125 14 6.03125 12.433594 6.03125 L 10.996094 6.03125 C 10.472656 6.03125 9.996094 6.507812 9.996094 7.03125 C 9.988281 7.105469 9.988281 7.179688 9.996094 7.25 L 9.996094 8.03125 L 15.996094 8.03125 L 15.996094 3.03125 C 16 2.96875 16 2.90625 15.996094 2.84375 L 15.996094 2.03125 L 15.183594 2.03125 C 15.089844 2.007812 14.996094 1.996094 14.902344 2 Z M 14.902344 2 "/>
<path style=" stroke:none;fill-rule:nonzero;fill:rgb(74.509804%,74.509804%,74.509804%);fill-opacity:1;" d="M 0.00390625 8 L 0.00390625 13 C 0 13.0625 0 13.125 0.00390625 13.1875 L 0.00390625 14 L 0.816406 14 C 0.910156 14.023438 1.003906 14.035156 1.097656 14.03125 C 1.140625 14.023438 1.183594 14.011719 1.222656 14 C 1.671875 13.898438 2.015625 13.457031 2.003906 13 L 2.003906 11.3125 C 2 10 2 10 3.566406 10 L 5.003906 10 C 5.527344 10 6.003906 9.523438 6.003906 9 C 6.011719 8.925781 6.011719 8.855469 6.003906 8.78125 L 6.003906 8 Z M 0.00390625 8 "/>
<path style=" stroke:none;fill-rule:nonzero;fill:rgb(74.509804%,74.509804%,74.509804%);fill-opacity:1;" d="M 8 1 C 4.847656 1 2.179688 3.125 1.3125 6 L 3.40625 6 C 4.179688 4.234375 5.945312 3 8 3 C 10.054688 3 11.820312 4.234375 12.59375 6 L 14.6875 6 C 13.820312 3.125 11.152344 1 8 1 Z M 1.3125 10 C 2.179688 12.875 4.847656 15 8 15 C 11.152344 15 13.820312 12.875 14.6875 10 L 12.59375 10 C 11.820312 11.765625 10.054688 13 8 13 C 5.945312 13 4.179688 11.765625 3.40625 10 Z M 1.3125 10 "/>
</g>
</svg>
