<?xml version="1.0" encoding="UTF-8" standalone="no"?>
<!-- Created with Inkscape (http://www.inkscape.org/) -->
<svg
   xmlns:dc="http://purl.org/dc/elements/1.1/"
   xmlns:cc="http://web.resource.org/cc/"
   xmlns:rdf="http://www.w3.org/1999/02/22-rdf-syntax-ns#"
   xmlns:svg="http://www.w3.org/2000/svg"
   xmlns="http://www.w3.org/2000/svg"
   xmlns:xlink="http://www.w3.org/1999/xlink"
   xmlns:sodipodi="http://sodipodi.sourceforge.net/DTD/sodipodi-0.dtd"
   xmlns:inkscape="http://www.inkscape.org/namespaces/inkscape"
   width="22"
   height="22"
   id="svg7854"
   sodipodi:version="0.32"
   inkscape:version="0.45+devel"
   version="1.0"
   sodipodi:docname="input-gaming.svg"
   inkscape:output_extension="org.inkscape.output.svg.inkscape">
  <defs
     id="defs7856">
    <linearGradient
       inkscape:collect="always"
       id="linearGradient6317">
      <stop
         style="stop-color:#ffffff;stop-opacity:1;"
         offset="0"
         id="stop6319" />
      <stop
         style="stop-color:#ffffff;stop-opacity:0;"
         offset="1"
         id="stop6321" />
    </linearGradient>
    <linearGradient
       id="linearGradient6307">
      <stop
         style="stop-color:#204a87;stop-opacity:1;"
         offset="0"
         id="stop6309" />
      <stop
         style="stop-color:#c9daf3;stop-opacity:1;"
         offset="1"
         id="stop6311" />
    </linearGradient>
    <linearGradient
       inkscape:collect="always"
       id="linearGradient6297">
      <stop
         id="stop6301"
         offset="0"
         style="stop-color:#7f837c;stop-opacity:1" />
      <stop
         id="stop6299"
         offset="1"
         style="stop-color:#4e504c;stop-opacity:1" />
    </linearGradient>
    <linearGradient
       inkscape:collect="always"
       id="linearGradient6260">
      <stop
         style="stop-color:#ffffff;stop-opacity:1;"
         offset="0"
         id="stop6262" />
      <stop
         style="stop-color:#ffffff;stop-opacity:0;"
         offset="1"
         id="stop6264" />
    </linearGradient>
    <linearGradient
       id="linearGradient6240">
      <stop
         style="stop-color:#999999;stop-opacity:1;"
         offset="0"
         id="stop6242" />
      <stop
         style="stop-color:#7b7b7b;stop-opacity:1;"
         offset="1"
         id="stop6244" />
    </linearGradient>
    <linearGradient
       inkscape:collect="always"
       id="linearGradient5804">
      <stop
         style="stop-color:#ffffff;stop-opacity:1;"
         offset="0"
         id="stop5806" />
      <stop
         style="stop-color:#ffffff;stop-opacity:0;"
         offset="1"
         id="stop5808" />
    </linearGradient>
    <linearGradient
       inkscape:collect="always"
       id="linearGradient5784">
      <stop
         style="stop-color:#ffffff;stop-opacity:1;"
         offset="0"
         id="stop5786" />
      <stop
         style="stop-color:#ffffff;stop-opacity:0;"
         offset="1"
         id="stop5788" />
    </linearGradient>
    <linearGradient
       id="linearGradient5739">
      <stop
         style="stop-color:#eeeeec;stop-opacity:1;"
         offset="0"
         id="stop5741" />
      <stop
         id="stop5747"
         offset="0.79172641"
         style="stop-color:#cacac5;stop-opacity:1" />
      <stop
         style="stop-color:#dedede;stop-opacity:1"
         offset="1"
         id="stop5743" />
    </linearGradient>
    <linearGradient
       inkscape:collect="always"
       id="linearGradient5731">
      <stop
         style="stop-color:#ffffff;stop-opacity:1;"
         offset="0"
         id="stop5733" />
      <stop
         style="stop-color:#ffffff;stop-opacity:0;"
         offset="1"
         id="stop5735" />
    </linearGradient>
    <linearGradient
       id="linearGradient5024">
      <stop
         style="stop-color:#555753"
         offset="0"
         id="stop5026" />
      <stop
         style="stop-color:#555753;stop-opacity:0;"
         offset="1"
         id="stop5028" />
    </linearGradient>
    <linearGradient
       inkscape:collect="always"
       xlink:href="#linearGradient5024"
       id="linearGradient6086"
       gradientUnits="userSpaceOnUse"
       gradientTransform="matrix(0.4611328,0,0,1.0778995,0.9128525,2.2164812)"
       x1="29.87479"
       y1="4.7625585"
       x2="30.728344"
       y2="-0.46811083" />
    <linearGradient
       inkscape:collect="always"
       xlink:href="#linearGradient5731"
       id="linearGradient5737"
       x1="24"
       y1="35"
       x2="24"
       y2="28"
       gradientUnits="userSpaceOnUse"
       gradientTransform="matrix(0.4597883,0,0,0.5170404,3.9420692e-2,0.278526)" />
    <linearGradient
       inkscape:collect="always"
       xlink:href="#linearGradient5739"
       id="linearGradient5745"
       x1="22"
       y1="22.700733"
       x2="22"
       y2="37.375"
       gradientUnits="userSpaceOnUse"
       gradientTransform="matrix(0.4849584,0,0,0.534096,-0.5656049,-9.0966586e-2)" />
    <linearGradient
       inkscape:collect="always"
       xlink:href="#linearGradient5784"
       id="linearGradient5790"
       x1="9.6875"
       y1="31.34375"
       x2="9.40625"
       y2="29.3125"
       gradientUnits="userSpaceOnUse" />
    <linearGradient
       inkscape:collect="always"
       xlink:href="#linearGradient5784"
       id="linearGradient5800"
       gradientUnits="userSpaceOnUse"
       x1="9.6875"
       y1="31.34375"
       x2="9.40625"
       y2="29.3125"
       gradientTransform="matrix(-1,0,0,1,23.106302,0)" />
    <linearGradient
       inkscape:collect="always"
       xlink:href="#linearGradient5804"
       id="linearGradient5810"
       x1="11.453125"
       y1="34"
       x2="11.453125"
       y2="32.390625"
       gradientUnits="userSpaceOnUse"
       gradientTransform="matrix(0.9490611,0,0,1,0.6606143,0)" />
    <filter
       inkscape:collect="always"
       id="filter6232"
       x="-0.057737056"
       width="1.1154741"
       y="-0.14605433"
       height="1.2921087">
      <feGaussianBlur
         inkscape:collect="always"
         stdDeviation="1.0326498"
         id="feGaussianBlur6234" />
    </filter>
    <linearGradient
       inkscape:collect="always"
       xlink:href="#linearGradient6240"
       id="linearGradient6280"
       gradientUnits="userSpaceOnUse"
       gradientTransform="matrix(0.7,0,0,1,5.7,0)"
       x1="24"
       y1="27.680285"
       x2="24"
       y2="31" />
    <linearGradient
       inkscape:collect="always"
       xlink:href="#linearGradient6260"
       id="linearGradient6282"
       gradientUnits="userSpaceOnUse"
       gradientTransform="matrix(0.7,0,0,1,5.7,0)"
       x1="24"
       y1="31"
       x2="24"
       y2="27.680285" />
    <linearGradient
       inkscape:collect="always"
       xlink:href="#linearGradient6240"
       id="linearGradient6284"
       gradientUnits="userSpaceOnUse"
       gradientTransform="matrix(0.7,0,0,1,5.7,0)"
       x1="24"
       y1="28"
       x2="24"
       y2="31" />
    <linearGradient
       inkscape:collect="always"
       xlink:href="#linearGradient6240"
       id="linearGradient6286"
       gradientUnits="userSpaceOnUse"
       gradientTransform="translate(-1.5,0)"
       x1="24"
       y1="27.680285"
       x2="24"
       y2="31" />
    <linearGradient
       inkscape:collect="always"
       xlink:href="#linearGradient6260"
       id="linearGradient6288"
       gradientUnits="userSpaceOnUse"
       gradientTransform="translate(-1.5,0)"
       x1="24"
       y1="31"
       x2="24"
       y2="27.680285" />
    <linearGradient
       inkscape:collect="always"
       xlink:href="#linearGradient6240"
       id="linearGradient6290"
       gradientUnits="userSpaceOnUse"
       gradientTransform="translate(-1.5,0)"
       x1="24"
       y1="28"
       x2="24"
       y2="31" />
    <linearGradient
       inkscape:collect="always"
       xlink:href="#linearGradient6317"
       id="linearGradient6323"
       x1="21.666193"
       y1="28.145767"
       x2="21.666193"
       y2="29.648371"
       gradientUnits="userSpaceOnUse"
       gradientTransform="matrix(0.4611328,0,0,0.5170404,7.103508e-3,0.278526)" />
    <linearGradient
       inkscape:collect="always"
       xlink:href="#linearGradient6317"
       id="linearGradient6330"
       gradientUnits="userSpaceOnUse"
       x1="21.666193"
       y1="28.145767"
       x2="21.666193"
       y2="29.648371"
       gradientTransform="matrix(0.4611328,0,0,0.5170404,-2.3465549e-2,0.278526)" />
    <linearGradient
       inkscape:collect="always"
       xlink:href="#linearGradient5024"
       id="linearGradient6480"
       gradientUnits="userSpaceOnUse"
       gradientTransform="matrix(0.6843492,0,0,1.423653,-64.473506,2.2954075)"
       x1="29.87479"
       y1="4.7625585"
       x2="30.728344"
       y2="-0.46811083" />
    <linearGradient
       inkscape:collect="always"
       xlink:href="#linearGradient5739"
       id="linearGradient6482"
       gradientUnits="userSpaceOnUse"
       gradientTransform="matrix(0.6843492,0,0,0.7054158,-65.817693,-0.752191)"
       x1="22"
       y1="22.700733"
       x2="22"
       y2="37.375" />
    <linearGradient
       inkscape:collect="always"
       xlink:href="#linearGradient5731"
       id="linearGradient6484"
       gradientUnits="userSpaceOnUse"
       gradientTransform="matrix(0.6843492,0,0,0.6828894,-65.817693,-0.2641777)"
       x1="24"
       y1="35"
       x2="24"
       y2="28" />
    <radialGradient
       inkscape:collect="always"
       xlink:href="#linearGradient6297"
       id="radialGradient6486"
       gradientUnits="userSpaceOnUse"
       gradientTransform="matrix(0.6843492,0,0,0.6000001,-66.041762,1.7999995)"
       cx="11.65625"
       cy="30.65625"
       fx="11.65625"
       fy="30.65625"
       r="5.5" />
    <linearGradient
       inkscape:collect="always"
       xlink:href="#linearGradient5784"
       id="linearGradient6488"
       gradientUnits="userSpaceOnUse"
       x1="9.6875"
       y1="31.34375"
       x2="9.40625"
       y2="29.3125" />
    <linearGradient
       inkscape:collect="always"
       xlink:href="#linearGradient5784"
       id="linearGradient6490"
       gradientUnits="userSpaceOnUse"
       gradientTransform="matrix(-1,0,0,1,23.106302,0)"
       x1="9.6875"
       y1="31.34375"
       x2="9.40625"
       y2="29.3125" />
    <linearGradient
       inkscape:collect="always"
       xlink:href="#linearGradient5804"
       id="linearGradient6492"
       gradientUnits="userSpaceOnUse"
       gradientTransform="matrix(0.9490611,0,0,1,0.6606143,0)"
       x1="11.453125"
       y1="34"
       x2="11.453125"
       y2="32.390625" />
    <linearGradient
       inkscape:collect="always"
       xlink:href="#linearGradient6240"
       id="linearGradient6494"
       gradientUnits="userSpaceOnUse"
       gradientTransform="matrix(0.7,0,0,1,5.7,0)"
       x1="24"
       y1="27.680285"
       x2="24"
       y2="31" />
    <linearGradient
       inkscape:collect="always"
       xlink:href="#linearGradient6260"
       id="linearGradient6496"
       gradientUnits="userSpaceOnUse"
       gradientTransform="matrix(0.7,0,0,1,5.7,0)"
       x1="24"
       y1="31"
       x2="24"
       y2="27.680285" />
    <linearGradient
       inkscape:collect="always"
       xlink:href="#linearGradient6240"
       id="linearGradient6498"
       gradientUnits="userSpaceOnUse"
       gradientTransform="matrix(0.7,0,0,1,5.7,0)"
       x1="24"
       y1="28"
       x2="24"
       y2="31" />
    <linearGradient
       inkscape:collect="always"
       xlink:href="#linearGradient6240"
       id="linearGradient6500"
       gradientUnits="userSpaceOnUse"
       gradientTransform="translate(-1.5,0)"
       x1="24"
       y1="27.680285"
       x2="24"
       y2="31" />
    <linearGradient
       inkscape:collect="always"
       xlink:href="#linearGradient6260"
       id="linearGradient6502"
       gradientUnits="userSpaceOnUse"
       gradientTransform="translate(-1.5,0)"
       x1="24"
       y1="31"
       x2="24"
       y2="27.680285" />
    <linearGradient
       inkscape:collect="always"
       xlink:href="#linearGradient6240"
       id="linearGradient6504"
       gradientUnits="userSpaceOnUse"
       gradientTransform="translate(-1.5,0)"
       x1="24"
       y1="28"
       x2="24"
       y2="31" />
    <linearGradient
       inkscape:collect="always"
       xlink:href="#linearGradient6317"
       id="linearGradient6506"
       gradientUnits="userSpaceOnUse"
       gradientTransform="matrix(0.6843492,0,0,0.6828894,-65.817693,-0.2641777)"
       x1="21.666193"
       y1="28.145767"
       x2="21.666193"
       y2="29.648371" />
    <linearGradient
       inkscape:collect="always"
       xlink:href="#linearGradient6317"
       id="linearGradient6508"
       gradientUnits="userSpaceOnUse"
       gradientTransform="matrix(0.6843492,0,0,0.6828894,-65.863059,-0.2641777)"
       x1="21.666193"
       y1="28.145767"
       x2="21.666193"
       y2="29.648371" />
  </defs>
  <sodipodi:namedview
     id="base"
     pagecolor="#ffffff"
     bordercolor="#e0e0e0"
     borderopacity="1"
     gridtolerance="10000"
     guidetolerance="10"
     objecttolerance="10"
     inkscape:pageopacity="0.0"
     inkscape:pageshadow="2"
     inkscape:zoom="1"
     inkscape:cx="22.898854"
     inkscape:cy="1.3321936"
     inkscape:document-units="px"
     inkscape:current-layer="layer1"
     width="22px"
     height="22px"
     inkscape:showpageshadow="false"
     inkscape:window-width="641"
     inkscape:window-height="626"
     inkscape:window-x="237"
     inkscape:window-y="419">
    <inkscape:grid
       type="xygrid"
       id="grid4974" />
  </sodipodi:namedview>
  <metadata
     id="metadata7859">
    <rdf:RDF>
      <cc:Work
         rdf:about="">
        <dc:format>image/svg+xml</dc:format>
        <dc:type
           rdf:resource="http://purl.org/dc/dcmitype/StillImage" />
        <dc:creator>
          <cc:Agent>
            <dc:title>Jakub Steiner</dc:title>
          </cc:Agent>
        </dc:creator>
        <dc:source>http://jimmac.musichall.cz</dc:source>
        <cc:license
           rdf:resource="GPL" />
        <dc:title>Gaming Input Device</dc:title>
        <dc:subject>
          <rdf:Bag>
            <rdf:li>gaming</rdf:li>
            <rdf:li>joypad</rdf:li>
            <rdf:li>joystiuck</rdf:li>
            <rdf:li>device</rdf:li>
            <rdf:li>gaming</rdf:li>
            <rdf:li>game</rdf:li>
            <rdf:li>arcade</rdf:li>
            <rdf:li>controller</rdf:li>
          </rdf:Bag>
        </dc:subject>
      </cc:Work>
    </rdf:RDF>
  </metadata>
  <g
     inkscape:label="Layer 1"
     inkscape:groupmode="layer"
     id="layer1">
    <path
       id="path6206"
       d="M 10.955203,22.664056 C 6.3273995,22.664056 2.5750634,26.442075 2.5750633,31.101556 C 2.5750633,35.761036 6.3273995,39.539058 10.955203,39.539056 C 14.281437,39.539056 17.142798,37.586796 18.497329,34.757806 L 29.51566,34.757806 C 30.851051,37.637443 33.756904,39.632806 37.119861,39.632806 C 41.747664,39.632806 45.499999,35.854787 45.5,31.195306 C 45.5,26.827044 42.183703,23.221579 37.957875,22.789056 C 37.646098,22.705142 37.334477,22.664056 36.99571,22.664056 L 11.948405,22.664056 C 11.844225,22.664056 11.740015,22.687009 11.63803,22.695306 C 11.407188,22.676063 11.190952,22.664056 10.955203,22.664056 z"
       style="opacity:0.64457834;color:#000000;fill:#000000;fill-opacity:1;fill-rule:nonzero;stroke:none;stroke-width:0.99999994;stroke-linecap:butt;stroke-linejoin:miter;marker:none;marker-start:none;marker-mid:none;marker-end:none;stroke-miterlimit:4;stroke-dasharray:none;stroke-dashoffset:0;stroke-opacity:1;visibility:visible;display:inline;overflow:visible;filter:url(#filter6232);enable-background:accumulate"
       transform="matrix(0.4611328,0,0,0.5170404,7.103508e-3,0.5624522)" />
    <path
       style="fill:none;fill-opacity:1;fill-rule:evenodd;stroke:url(#linearGradient6086);stroke-width:0.99999988;stroke-linecap:square;stroke-linejoin:miter;stroke-miterlimit:4;stroke-dasharray:none;stroke-opacity:1;display:inline"
       d="M 11.260367,12.569752 C 13.101877,7.744465 5.0257249,10.915722 6.5945306,8.3976568 C 8.1363915,5.9228409 16.64974,11.081755 18.42354,8.4571511 C 20.227501,5.7879176 13.767405,6.7216849 16.527863,1.9704249"
       id="path5014"
       sodipodi:nodetypes="czzc" />
    <path
       style="opacity:1;color:#000000;fill:url(#linearGradient5745);fill-opacity:1;fill-rule:nonzero;stroke:#babdb6;stroke-width:0.99999988;stroke-linecap:butt;stroke-linejoin:miter;marker:none;marker-start:none;marker-mid:none;marker-end:none;stroke-miterlimit:4;stroke-dasharray:none;stroke-dashoffset:0;stroke-opacity:1;visibility:visible;display:inline;overflow:visible;enable-background:accumulate"
       d="M 4.7472123,11.479718 C 2.5029203,11.479718 0.6831936,13.497542 0.68319349,15.986153 C 0.68319349,18.474762 2.5029203,20.492588 4.7472123,20.492587 C 6.3602972,20.492587 7.7479375,20.012393 8.4048287,18.501441 L 13.748261,18.501441 C 14.39587,20.039444 15.805087,20.542659 17.435981,20.542659 C 19.680273,20.542659 21.499999,18.524835 21.499999,16.036223 C 21.499999,13.703153 19.891734,11.777489 17.842383,11.54648 C 17.691185,11.501661 17.540061,11.479718 17.375773,11.479718 L 5.2288739,11.479718 C 5.1783508,11.479718 5.1278134,11.491977 5.0783549,11.496409 C 4.9664062,11.486131 4.8615406,11.479718 4.7472123,11.479718 z"
       id="path5553"
       sodipodi:nodetypes="cssccsscccsc" />
    <path
       id="path5729"
       d="M 5.356756,11.911935 C 3.3280872,11.911935 1.683193,13.523571 1.6831929,15.511222 C 1.6831929,17.498872 2.875342,19.48551 4.9040109,19.485509 C 6.3621166,19.485509 7.2405129,18.84376 7.6281169,17.445912 L 14.527864,17.445912 C 14.886759,18.740225 15.796359,19.5625 17.270562,19.5625 C 19.299232,19.5625 20.499998,17.538866 20.499999,15.551214 C 20.499999,13.687792 19.046248,12.149764 17.193792,11.965258 C 17.057119,11.929462 16.920516,11.911935 16.772012,11.911935 L 5.7921414,11.911935 C 5.7464724,11.911935 5.7007903,11.921726 5.6560836,11.925266 C 5.5548906,11.917058 5.4601003,11.911935 5.356756,11.911935 z"
       style="opacity:1;color:#000000;fill:none;fill-opacity:1;fill-rule:nonzero;stroke:url(#linearGradient5737);stroke-width:0.99999994;stroke-linecap:butt;stroke-linejoin:miter;marker:none;marker-start:none;marker-mid:none;marker-end:none;stroke-miterlimit:4;stroke-dasharray:none;stroke-dashoffset:0;stroke-opacity:1;visibility:visible;display:inline;overflow:visible;enable-background:accumulate"
       sodipodi:nodetypes="cssccsscccsc" />
    <path
       sodipodi:type="arc"
       style="opacity:1;color:#000000;fill:#ef2929;fill-opacity:1;fill-rule:nonzero;stroke:none;stroke-width:2.04797554;stroke-linecap:butt;stroke-linejoin:miter;marker:none;marker-start:none;marker-mid:none;marker-end:none;stroke-miterlimit:4;stroke-dasharray:none;stroke-dashoffset:0;stroke-opacity:1;visibility:visible;display:inline;overflow:visible;enable-background:accumulate"
       id="path5767"
       sodipodi:cx="33"
       sodipodi:cy="28.5"
       sodipodi:rx="2"
       sodipodi:ry="1.5"
       d="M 35,28.5 A 2,1.5 0 1 1 31,28.5 A 2,1.5 0 1 1 35,28.5 z"
       transform="matrix(0.5,0,0,0.5606198,-1.5,-0.8185954)" />
    <path
       transform="matrix(0.5,0,0,0.5606198,0.5,-2.1367346)"
       d="M 35,28.5 A 2,1.5 0 1 1 31,28.5 A 2,1.5 0 1 1 35,28.5 z"
       sodipodi:ry="1.5"
       sodipodi:rx="2"
       sodipodi:cy="28.5"
       sodipodi:cx="33"
       id="path5769"
       style="opacity:1;color:#000000;fill:#3465a4;fill-opacity:1;fill-rule:nonzero;stroke:none;stroke-width:2.04797554;stroke-linecap:butt;stroke-linejoin:miter;marker:none;marker-start:none;marker-mid:none;marker-end:none;stroke-miterlimit:4;stroke-dasharray:none;stroke-dashoffset:0;stroke-opacity:1;visibility:visible;display:inline;overflow:visible;enable-background:accumulate"
       sodipodi:type="arc" />
    <path
       sodipodi:type="arc"
       style="opacity:1;color:#000000;fill:#73d216;fill-opacity:1;fill-rule:nonzero;stroke:none;stroke-width:2.04797554;stroke-linecap:butt;stroke-linejoin:miter;marker:none;marker-start:none;marker-mid:none;marker-end:none;stroke-miterlimit:4;stroke-dasharray:none;stroke-dashoffset:0;stroke-opacity:1;visibility:visible;display:inline;overflow:visible;enable-background:accumulate"
       id="path5771"
       sodipodi:cx="33"
       sodipodi:cy="28.5"
       sodipodi:rx="2"
       sodipodi:ry="1.5"
       d="M 35,28.5 A 2,1.5 0 1 1 31,28.5 A 2,1.5 0 1 1 35,28.5 z"
       transform="matrix(0.5000004,0,0,0.5265028,2.4999876,0.204916)" />
    <path
       transform="matrix(0.5,0,0,0.5606198,0.5,0.8632641)"
       d="M 35,28.5 A 2,1.5 0 1 1 31,28.5 A 2,1.5 0 1 1 35,28.5 z"
       sodipodi:ry="1.5"
       sodipodi:rx="2"
       sodipodi:cy="28.5"
       sodipodi:cx="33"
       id="path5773"
       style="opacity:1;color:#000000;fill:#edd400;fill-opacity:1;fill-rule:nonzero;stroke:none;stroke-width:2.04797554;stroke-linecap:butt;stroke-linejoin:miter;marker:none;marker-start:none;marker-mid:none;marker-end:none;stroke-miterlimit:4;stroke-dasharray:none;stroke-dashoffset:0;stroke-opacity:1;visibility:visible;display:inline;overflow:visible;enable-background:accumulate"
       sodipodi:type="arc" />
    <path
       style="opacity:1;color:#000000;fill:#888a85;fill-opacity:1;fill-rule:nonzero;stroke:#2e3436;stroke-width:1;stroke-linecap:butt;stroke-linejoin:miter;marker:none;marker-start:none;marker-mid:none;marker-end:none;stroke-miterlimit:4;stroke-dasharray:none;stroke-dashoffset:0;stroke-opacity:1;visibility:visible;display:inline;overflow:visible;enable-background:accumulate"
       d="M 5.140625,13.5 C 4.7685491,13.5 4.4687501,13.552339 4.4687501,13.849999 L 4.4687501,14.5125 L 3.640625,14.5125 C 3.268549,14.5125 2.96875,14.752338 2.96875,15.050001 L 2.96875,15.897917 C 2.96875,16.195577 3.268549,16.435416 3.640625,16.435416 L 4.4687501,16.435416 L 4.4687501,16.962499 C 4.4687501,17.26016 4.7685491,17.499999 5.140625,17.499999 L 5.7968751,17.499999 C 6.168951,17.499999 6.4687499,17.26016 6.4687499,16.962499 L 6.4687499,16.435416 L 7.2968747,16.435416 C 7.6689506,16.435416 7.96875,16.195577 7.96875,15.897917 L 7.96875,15.050001 C 7.96875,14.752338 7.6689506,14.5125 7.2968747,14.5125 L 6.4687499,14.5125 L 6.4687499,13.849999 C 6.4687499,13.552339 6.168951,13.5 5.7968751,13.5 L 5.140625,13.5 z"
       id="rect5775"
       sodipodi:nodetypes="ccccccccccccccccccccc" />
    <g
       id="g5812"
       style="opacity:0.8433735"
       transform="matrix(0.4611328,0,0,0.5170404,-9.2481281,-0.4150411)">
      <path
         sodipodi:nodetypes="cccccc"
         id="path5782"
         d="M 7.0625,29.3125 C 7.0625,29.3125 7.03125,30.15625 7.625,30.1875 L 10.03125,30.1875 L 10,31.0625 L 7.6875,31 C 6.875,30.9375 7.0625,29.3125 7.0625,29.3125 z"
         style="opacity:1;color:#000000;fill:url(#linearGradient5790);fill-opacity:1;fill-rule:nonzero;stroke:none;stroke-width:1;stroke-linecap:butt;stroke-linejoin:miter;marker:none;marker-start:none;marker-mid:none;marker-end:none;stroke-miterlimit:4;stroke-dasharray:none;stroke-dashoffset:0;stroke-opacity:1;visibility:visible;display:inline;overflow:visible;enable-background:accumulate" />
      <path
         style="opacity:1;color:#000000;fill:url(#linearGradient5800);fill-opacity:1;fill-rule:nonzero;stroke:none;stroke-width:1;stroke-linecap:butt;stroke-linejoin:miter;marker:none;marker-start:none;marker-mid:none;marker-end:none;stroke-miterlimit:4;stroke-dasharray:none;stroke-dashoffset:0;stroke-opacity:1;visibility:visible;display:inline;overflow:visible;enable-background:accumulate"
         d="M 16.043802,29.3125 C 16.043802,29.3125 16.075052,30.15625 15.481302,30.1875 L 13.075052,30.1875 L 13.106302,31.0625 L 15.418802,31 C 16.231302,30.9375 16.043802,29.3125 16.043802,29.3125 z"
         id="path5798"
         sodipodi:nodetypes="cccccc" />
      <path
         sodipodi:nodetypes="ccccc"
         id="path5802"
         d="M 10.091909,32.71875 C 10.210541,32.71875 12.96875,32.71875 12.96875,32.71875 C 12.929015,33.243364 13.043872,33.869784 12.405245,34 L 10.744388,34 C 10.019388,33.869998 10.143374,33.243022 10.091909,32.71875 z"
         style="opacity:1;color:#000000;fill:url(#linearGradient5810);fill-opacity:1;fill-rule:nonzero;stroke:none;stroke-width:1;stroke-linecap:butt;stroke-linejoin:miter;marker:none;marker-start:none;marker-mid:none;marker-end:none;stroke-miterlimit:4;stroke-dasharray:none;stroke-dashoffset:0;stroke-opacity:1;visibility:visible;display:inline;overflow:visible;enable-background:accumulate" />
    </g>
    <path
       style="font-size:1.99232042px;font-style:normal;font-variant:normal;font-weight:normal;font-stretch:normal;text-indent:0;text-align:start;text-decoration:none;line-height:200%;letter-spacing:normal;word-spacing:normal;text-transform:none;direction:ltr;block-progression:tb;writing-mode:lr-tb;text-anchor:start;color:#000000;fill:#204a87;fill-opacity:1;fill-rule:nonzero;stroke:none;stroke-width:1;stroke-linecap:butt;stroke-linejoin:miter;marker:none;marker-start:none;marker-mid:none;marker-end:none;stroke-miterlimit:4;stroke-dashoffset:0;stroke-opacity:1;visibility:visible;display:inline;overflow:visible;enable-background:accumulate;font-family:Qlassik Bold"
       d="M 9.0698422,13.501656 C 9.0605541,13.510582 9.0074843,13.531408 8.9902364,13.52992 C 8.947782,13.52992 8.9384939,13.474879 8.9331873,13.397524 L 8.9331873,13.324634 C 8.9331873,13.293393 8.9318602,13.262154 8.9318602,13.227939 C 8.9318602,13.16546 8.9331873,13.101494 8.9345135,13.036038 C 8.9836039,13.036038 9.0021778,13.036038 9.0287126,13.034552 C 9.0393258,13.034552 9.0525932,13.033065 9.0618813,13.031577 C 9.0884151,13.025626 9.0990292,13.006288 9.1030108,12.922983 L 8.9345135,12.922983 C 8.9345135,12.866455 8.9358395,12.818851 8.9371667,12.756371 L 8.9371667,12.73257 C 8.8575621,12.738519 8.8230673,12.766785 8.8124532,12.800999 C 8.8111271,12.842653 8.8071467,12.888768 8.8058195,12.93042 C 8.7978597,12.934882 8.7952053,12.931908 8.7845922,12.934882 C 8.7673454,12.940834 8.7474432,12.946783 8.727542,12.961661 C 8.7169278,12.97356 8.7156018,12.97356 8.7156018,13.0167 C 8.735503,13.027115 8.7580574,13.036038 8.7938792,13.037527 L 8.7938792,13.391574 C 8.7938792,13.513557 8.819088,13.645953 8.9517614,13.645953 C 8.994217,13.645953 9.0446334,13.632565 9.0751476,13.61025 C 9.0844346,13.601326 9.0910694,13.5924 9.0937227,13.581988 C 9.0950499,13.570087 9.0950499,13.553724 9.0950499,13.540334 C 9.0950499,13.526945 9.0937227,13.515046 9.0923955,13.50612 L 9.0698422,13.501656 M 9.1947822,13.015213 C 9.1974365,13.031577 9.202743,13.056865 9.221317,13.07918 C 9.2412194,13.07918 9.2558128,13.074717 9.2704063,13.067279 C 9.3088837,13.050915 9.3606262,13.030088 9.4030818,13.030088 C 9.4468635,13.030088 9.4521701,13.062816 9.4521701,13.125296 L 9.4521701,13.198187 C 9.4442091,13.1967 9.4349222,13.1967 9.422982,13.1967 C 9.4110416,13.1967 9.3964481,13.1967 9.3845068,13.198187 C 9.3009229,13.208601 9.1523266,13.260666 9.1523266,13.440665 C 9.1523266,13.579011 9.2385649,13.641491 9.3287838,13.641491 C 9.3659317,13.641491 9.3991003,13.638515 9.4309428,13.620664 C 9.4389037,13.614713 9.4534972,13.604301 9.460131,13.598351 C 9.4773778,13.619176 9.5092203,13.641491 9.5397357,13.641491 C 9.580864,13.640003 9.6100533,13.619176 9.6219933,13.599838 C 9.6219933,13.590912 9.6233205,13.556698 9.6246462,13.535871 C 9.5835184,13.544796 9.5874978,13.477856 9.5874978,13.477856 C 9.5874978,13.451079 9.588825,13.384136 9.588825,13.349922 C 9.5901521,13.294881 9.5901521,13.236865 9.5901521,13.181824 L 9.5901521,13.11637 C 9.5901521,12.986948 9.5556563,12.912569 9.449518,12.905131 C 9.4282895,12.903643 9.4243091,12.903643 9.4030818,12.903643 C 9.3102098,12.906618 9.2266247,12.948271 9.1974365,12.978024 C 9.1947822,12.985462 9.1934561,12.9929 9.1934561,12.997362 C 9.1934561,13.003313 9.1934561,13.007774 9.1961093,13.0167 L 9.1947822,13.015213 M 9.449518,13.465955 C 9.4481907,13.474879 9.4468635,13.485293 9.4468635,13.483805 L 9.4481907,13.482318 C 9.4322689,13.50612 9.3924666,13.525459 9.3579708,13.525459 L 9.350011,13.525459 C 9.3168435,13.522483 9.2929619,13.497194 9.2929619,13.428765 C 9.2929619,13.340996 9.3420512,13.312732 9.3991003,13.300832 L 9.3977743,13.300832 C 9.4110416,13.299343 9.4256352,13.297857 9.4389037,13.297857 L 9.4521701,13.297857 L 9.4521701,13.396038 C 9.4521701,13.425788 9.4521701,13.448104 9.449518,13.465955 M 9.9726469,13.027115 C 10.040311,13.027115 10.062865,13.065791 10.062865,13.172898 L 10.062865,13.562648 C 10.062865,13.584963 10.066845,13.607276 10.077459,13.62959 C 10.165024,13.62959 10.188906,13.62364 10.206154,13.605788 C 10.204827,13.547772 10.2035,13.474879 10.2035,13.394551 L 10.2035,13.169922 C 10.2035,13.000337 10.171659,12.905131 10.005815,12.905131 C 9.973974,12.905131 9.9474385,12.911082 9.9195772,12.921496 C 9.8956959,12.93042 9.8678347,12.945296 9.8413006,12.966122 C 9.8333392,12.948271 9.8174193,12.934882 9.7935365,12.934882 C 9.7908837,12.934882 9.7829223,12.934882 9.7749624,12.937857 C 9.7457754,12.951247 9.7285269,12.963148 9.7192399,12.975048 C 9.7285269,13.004801 9.7338341,13.039015 9.7338341,13.086618 L 9.7338341,13.336533 C 9.7338341,13.44959 9.7325069,13.550747 9.7311798,13.62959 L 9.7656753,13.62959 C 9.8240521,13.628103 9.8386463,13.628103 9.8572205,13.61025 C 9.870489,13.589425 9.8731403,13.571574 9.8731403,13.538846 L 9.8731403,13.080668 L 9.8691618,13.085129 C 9.8956959,13.052403 9.9301914,13.027115 9.9726469,13.027115 M 10.779159,13.160997 C 10.779159,13.113394 10.769873,13.077692 10.748646,13.040502 C 10.764566,13.041991 10.772526,13.041991 10.791102,13.041991 C 10.822942,13.041991 10.838864,13.013727 10.838864,12.975048 C 10.838864,12.954222 10.833557,12.936371 10.82825,12.924469 C 10.814982,12.924469 10.78712,12.925958 10.769873,12.927445 L 10.771199,12.927445 C 10.743338,12.928933 10.706189,12.93042 10.677001,12.931908 C 10.673021,12.934882 10.674348,12.936371 10.677001,12.937857 C 10.646486,12.921496 10.605356,12.903643 10.558922,12.903643 C 10.422268,12.903643 10.324087,12.998851 10.324087,13.166948 C 10.324087,13.259178 10.35195,13.329096 10.409,13.36926 C 10.403693,13.375211 10.40502,13.376698 10.398386,13.382648 C 10.378484,13.403475 10.353276,13.427277 10.334702,13.448104 C 10.324087,13.46298 10.317455,13.473392 10.317455,13.483805 C 10.318782,13.528433 10.35195,13.568598 10.41696,13.590912 C 10.41696,13.590912 10.456762,13.605788 10.517792,13.611738 C 10.525753,13.611738 10.535041,13.613227 10.543,13.613227 C 10.573515,13.614713 10.602704,13.616202 10.631893,13.620664 C 10.677001,13.626615 10.690268,13.651904 10.700882,13.683143 C 10.700882,13.687606 10.700882,13.699507 10.700882,13.703969 C 10.70221,13.764961 10.634546,13.85868 10.54698,13.885456 C 10.523099,13.889919 10.484624,13.898843 10.45809,13.898843 C 10.440841,13.898843 10.427573,13.89587 10.424921,13.883967 C 10.419613,13.857191 10.46605,13.805126 10.508505,13.764961 C 10.532388,13.739672 10.524426,13.689093 10.491258,13.669755 C 10.407673,13.732233 10.273672,13.860167 10.286939,13.934546 C 10.300206,13.983637 10.361237,14 10.427573,14 C 10.470028,14 10.516466,13.994051 10.55096,13.986612 C 10.715477,13.943472 10.83621,13.794713 10.83621,13.663804 C 10.83223,13.576037 10.77518,13.523971 10.692922,13.50612 C 10.680981,13.503144 10.662408,13.501656 10.64516,13.500169 C 10.623931,13.498681 10.602704,13.495706 10.581475,13.494219 L 10.529732,13.489755 C 10.485949,13.485293 10.46207,13.471904 10.46207,13.458516 C 10.46207,13.452566 10.463397,13.44364 10.468702,13.437691 L 10.495238,13.407939 C 10.511158,13.410912 10.527079,13.412401 10.55096,13.412401 C 10.692922,13.412401 10.779159,13.320169 10.779159,13.160997 M 10.543,13.003313 C 10.602703,13.003313 10.635873,13.056865 10.643833,13.147609 C 10.650467,13.241329 10.626584,13.311246 10.566882,13.311246 C 10.501871,13.311246 10.470028,13.253228 10.463397,13.15951 C 10.45411,13.05389 10.491258,13.003313 10.543,13.003313 M 11.167419,13.520996 C 11.085161,13.520996 11.029438,13.473392 11.026784,13.324634 C 11.048011,13.326121 11.051992,13.324634 11.073221,13.324634 C 11.135576,13.324634 11.203241,13.321658 11.24437,13.315708 C 11.282845,13.309757 11.331935,13.290419 11.347856,13.275543 C 11.351835,13.253228 11.354489,13.220502 11.354489,13.187774 C 11.354489,13.162485 11.353162,13.138684 11.351835,13.11637 C 11.341222,12.986948 11.276209,12.903643 11.150172,12.903643 C 10.997595,12.903643 10.886149,13.01075 10.886149,13.299343 C 10.886149,13.421326 10.910032,13.515046 10.959121,13.571574 C 11.012191,13.631077 11.079854,13.644467 11.14619,13.644467 C 11.188646,13.644467 11.229775,13.63554 11.249677,13.62959 L 11.24835,13.62959 C 11.289478,13.617689 11.333262,13.583474 11.334589,13.552235 C 11.333262,13.535871 11.329281,13.50612 11.321321,13.477856 C 11.269578,13.509095 11.219163,13.520996 11.167419,13.520996 M 11.136903,13.013727 C 11.18732,13.013727 11.211201,13.052403 11.217836,13.131246 L 11.217836,13.146121 C 11.217836,13.152071 11.219163,13.156535 11.219163,13.162485 C 11.219163,13.180337 11.216508,13.1967 11.213854,13.207114 C 11.207221,13.211574 11.200587,13.211574 11.193954,13.213063 C 11.167419,13.216038 11.113022,13.217527 11.066586,13.217527 L 11.029438,13.217527 C 11.037398,13.083643 11.083835,13.021164 11.131596,13.013727 L 11.136903,13.013727 M 11.701038,13.027115 C 11.768702,13.027115 11.791258,13.065791 11.791258,13.172898 L 11.791258,13.562648 C 11.791258,13.584963 11.795236,13.607276 11.805849,13.62959 C 11.893416,13.62959 11.917297,13.62364 11.934544,13.605788 C 11.933217,13.547772 11.93189,13.474879 11.93189,13.394551 L 11.93189,13.169922 C 11.93189,13.000337 11.900049,12.905131 11.734207,12.905131 C 11.702364,12.905131 11.67583,12.911082 11.647969,12.921496 C 11.624087,12.93042 11.596225,12.945296 11.569691,12.966122 C 11.561731,12.948271 11.545808,12.934882 11.521927,12.934882 C 11.519275,12.934882 11.511314,12.934882 11.503352,12.937857 C 11.474165,12.951247 11.456918,12.963148 11.447631,12.975048 C 11.456918,13.004801 11.462224,13.039015 11.462224,13.086618 L 11.462224,13.336533 C 11.462224,13.44959 11.460897,13.550747 11.459571,13.62959 L 11.494067,13.62959 C 11.552444,13.628103 11.567036,13.628103 11.585612,13.61025 C 11.598879,13.589425 11.601533,13.571574 11.601533,13.538846 L 11.601533,13.080668 L 11.597552,13.085129 C 11.624087,13.052403 11.658583,13.027115 11.701038,13.027115 M 12.381511,13.501656 C 12.372224,13.510582 12.319155,13.531408 12.301907,13.52992 C 12.259452,13.52992 12.250164,13.474879 12.244856,13.397524 L 12.244856,13.324634 C 12.244856,13.293393 12.243531,13.262154 12.243531,13.227939 C 12.243531,13.16546 12.244856,13.101494 12.246184,13.036038 C 12.295272,13.036038 12.313847,13.036038 12.340383,13.034552 C 12.350996,13.034552 12.364264,13.033065 12.373551,13.031577 C 12.400085,13.025626 12.410698,13.006288 12.41468,12.922983 L 12.246184,12.922983 C 12.246184,12.866455 12.247511,12.818851 12.248836,12.756371 L 12.248836,12.73257 C 12.169233,12.738519 12.134737,12.766785 12.124124,12.800999 C 12.122797,12.842653 12.118816,12.888768 12.117489,12.93042 C 12.109529,12.934882 12.106876,12.931908 12.096262,12.934882 C 12.079015,12.940834 12.059113,12.946783 12.039213,12.961661 C 12.028599,12.97356 12.027272,12.97356 12.027272,13.0167 C 12.047172,13.027115 12.069727,13.036038 12.10555,13.037527 L 12.10555,13.391574 C 12.10555,13.513557 12.130757,13.645953 12.263431,13.645953 C 12.305886,13.645953 12.356303,13.632565 12.386817,13.61025 C 12.396105,13.601326 12.402738,13.5924 12.405394,13.581988 C 12.40672,13.570087 12.40672,13.553724 12.40672,13.540334 C 12.40672,13.526945 12.405394,13.515046 12.404065,13.50612 L 12.381511,13.501656 M 13,13.268104 C 13,13.028601 12.912436,12.903643 12.738632,12.903643 C 12.58075,12.903643 12.469303,13.021164 12.469303,13.27703 C 12.469303,13.537357 12.56483,13.645953 12.734653,13.645953 C 12.887228,13.645953 13,13.518021 13,13.268104 M 12.616572,13.271079 C 12.616572,13.086618 12.672296,13.0167 12.734653,13.0167 C 12.807623,13.0167 12.854059,13.086618 12.854059,13.272566 C 12.854059,13.46893 12.799663,13.535871 12.737306,13.535871 C 12.668315,13.535871 12.616572,13.46893 12.616572,13.271079"
       id="text6292" />
    <path
       transform="matrix(0.6843492,0,0,0.6828894,-65.817693,0.1108223)"
       style="opacity:0.64457834;color:#000000;fill:#000000;fill-opacity:1;fill-rule:nonzero;stroke:none;stroke-width:0.99999994;stroke-linecap:butt;stroke-linejoin:miter;marker:none;marker-start:none;marker-mid:none;marker-end:none;stroke-miterlimit:4;stroke-dasharray:none;stroke-dashoffset:0;stroke-opacity:1;visibility:visible;display:inline;overflow:visible;filter:url(#filter6232);enable-background:accumulate"
       d="M 10.955203,22.664056 C 6.3273995,22.664056 2.5750634,26.442075 2.5750633,31.101556 C 2.5750633,35.761036 6.3273995,39.539058 10.955203,39.539056 C 14.281437,39.539056 17.142798,37.586796 18.497329,34.757806 L 29.51566,34.757806 C 30.851051,37.637443 33.756904,39.632806 37.119861,39.632806 C 41.747664,39.632806 45.499999,35.854787 45.5,31.195306 C 45.5,26.827044 42.183703,23.221579 37.957875,22.789056 C 37.646098,22.705142 37.334477,22.664056 36.99571,22.664056 L 11.948405,22.664056 C 11.844225,22.664056 11.740015,22.687009 11.63803,22.695306 C 11.407188,22.676063 11.190952,22.664056 10.955203,22.664056 z"
       id="path6430" />
    <path
       sodipodi:nodetypes="czzc"
       id="path6432"
       d="M -49.117162,15.969656 C -46.384249,9.5965805 -58.369752,13.785069 -56.041549,10.459294 C -53.753333,7.1906413 -41.119003,14.00436 -38.486576,10.537872 C -35.809387,7.0124393 -45.396565,8.2457273 -41.299876,1.9704248"
       style="fill:none;fill-opacity:1;fill-rule:evenodd;stroke:url(#linearGradient6480);stroke-width:0.99999994;stroke-linecap:square;stroke-linejoin:miter;stroke-miterlimit:4;stroke-dasharray:none;stroke-opacity:1;display:inline" />
    <path
       id="path6434"
       d="M -58.320508,14.529975 C -61.487542,14.529975 -64.05545,17.195049 -64.05545,20.481921 C -64.05545,23.768792 -61.487542,26.433868 -58.320508,26.433867 C -56.044203,26.433867 -54.086033,25.056712 -53.159061,23.061098 L -45.618675,23.061098 C -44.704801,25.09244 -42.716183,26.5 -40.414746,26.5 C -37.247713,26.5 -34.679805,23.834926 -34.679805,20.548053 C -34.679805,17.466613 -36.94931,14.923261 -39.841252,14.618152 C -40.054616,14.558957 -40.267874,14.529975 -40.499709,14.529975 L -57.640811,14.529975 C -57.712107,14.529975 -57.783423,14.546167 -57.853216,14.55202 C -58.011193,14.538445 -58.159174,14.529975 -58.320508,14.529975 z"
       style="opacity:1;color:#000000;fill:url(#linearGradient6482);fill-opacity:1;fill-rule:nonzero;stroke:#babdb6;stroke-width:0.99999994;stroke-linecap:butt;stroke-linejoin:miter;marker:none;marker-start:none;marker-mid:none;marker-end:none;stroke-miterlimit:4;stroke-dasharray:none;stroke-dashoffset:0;stroke-opacity:1;visibility:visible;display:inline;overflow:visible;enable-background:accumulate" />
    <path
       style="opacity:1;color:#000000;fill:none;fill-opacity:1;fill-rule:nonzero;stroke:url(#linearGradient6484);stroke-width:1;stroke-linecap:butt;stroke-linejoin:miter;marker:none;marker-start:none;marker-mid:none;marker-end:none;stroke-miterlimit:4;stroke-dasharray:none;stroke-dashoffset:0;stroke-opacity:1;visibility:visible;display:inline;overflow:visible;enable-background:accumulate"
       d="M -57.903367,15.100833 C -60.922839,15.100833 -63.371101,17.229427 -63.371101,19.854649 C -63.371101,22.47987 -60.922839,24.608466 -57.903367,24.608465 C -55.733122,24.608465 -53.866189,23.508532 -52.982407,21.914635 L -45.79335,21.914635 C -44.922057,23.537067 -43.026094,24.661286 -40.831888,24.661286 C -37.812416,24.661286 -35.364156,22.532692 -35.364155,19.907469 C -35.364155,17.446324 -37.527917,15.41495 -40.285114,15.17126 C -40.488538,15.123982 -40.691859,15.100833 -40.912892,15.100833 L -57.255339,15.100833 C -57.323313,15.100833 -57.391307,15.113765 -57.457848,15.11844 C -57.608464,15.107599 -57.74955,15.100833 -57.903367,15.100833 z"
       id="path6436" />
    <path
       transform="matrix(0.6843492,0,0,0.6828894,-66.844217,7.7267e-2)"
       d="M 35,28.5 A 2,1.5 0 1 1 31,28.5 A 2,1.5 0 1 1 35,28.5 z"
       sodipodi:ry="1.5"
       sodipodi:rx="2"
       sodipodi:cy="28.5"
       sodipodi:cx="33"
       id="path6438"
       style="opacity:1;color:#000000;fill:#ef2929;fill-opacity:1;fill-rule:nonzero;stroke:#cc0000;stroke-width:1.46280336;stroke-linecap:butt;stroke-linejoin:miter;marker:none;marker-start:none;marker-mid:none;marker-end:none;stroke-miterlimit:4;stroke-dasharray:none;stroke-dashoffset:0;stroke-opacity:1;visibility:visible;display:inline;overflow:visible;enable-background:accumulate"
       sodipodi:type="arc" />
    <path
       sodipodi:type="arc"
       style="opacity:1;color:#000000;fill:#3465a4;fill-opacity:1;fill-rule:nonzero;stroke:#204a87;stroke-width:1.46280336;stroke-linecap:butt;stroke-linejoin:miter;marker:none;marker-start:none;marker-mid:none;marker-end:none;stroke-miterlimit:4;stroke-dasharray:none;stroke-dashoffset:0;stroke-opacity:1;visibility:visible;display:inline;overflow:visible;enable-background:accumulate"
       id="path6440"
       sodipodi:cx="33"
       sodipodi:cy="28.5"
       sodipodi:rx="2"
       sodipodi:ry="1.5"
       d="M 35,28.5 A 2,1.5 0 1 1 31,28.5 A 2,1.5 0 1 1 35,28.5 z"
       transform="matrix(0.6843492,0,0,0.6828894,-63.764645,-1.9714012)" />
    <path
       transform="matrix(0.6843492,0,0,0.6828894,-60.685074,7.7267e-2)"
       d="M 35,28.5 A 2,1.5 0 1 1 31,28.5 A 2,1.5 0 1 1 35,28.5 z"
       sodipodi:ry="1.5"
       sodipodi:rx="2"
       sodipodi:cy="28.5"
       sodipodi:cx="33"
       id="path6442"
       style="opacity:1;color:#000000;fill:#73d216;fill-opacity:1;fill-rule:nonzero;stroke:#4e9a06;stroke-width:1.46280336;stroke-linecap:butt;stroke-linejoin:miter;marker:none;marker-start:none;marker-mid:none;marker-end:none;stroke-miterlimit:4;stroke-dasharray:none;stroke-dashoffset:0;stroke-opacity:1;visibility:visible;display:inline;overflow:visible;enable-background:accumulate"
       sodipodi:type="arc" />
    <path
       sodipodi:type="arc"
       style="opacity:1;color:#000000;fill:#edd400;fill-opacity:1;fill-rule:nonzero;stroke:#c4a000;stroke-width:1.46280336;stroke-linecap:butt;stroke-linejoin:miter;marker:none;marker-start:none;marker-mid:none;marker-end:none;stroke-miterlimit:4;stroke-dasharray:none;stroke-dashoffset:0;stroke-opacity:1;visibility:visible;display:inline;overflow:visible;enable-background:accumulate"
       id="path6444"
       sodipodi:cx="33"
       sodipodi:cy="28.5"
       sodipodi:rx="2"
       sodipodi:ry="1.5"
       d="M 35,28.5 A 2,1.5 0 1 1 31,28.5 A 2,1.5 0 1 1 35,28.5 z"
       transform="matrix(0.6843492,0,0,0.6828894,-63.764645,2.1259352)" />
    <path
       sodipodi:nodetypes="ccccccccccccccccccccc"
       id="path6446"
       d="M -58.62085,16.5 C -59.13011,16.5 -59.540444,16.859759 -59.540444,17.30625 L -59.540444,18.3 L -60.673898,18.3 C -61.183158,18.3 -61.593492,18.659759 -61.593492,19.106251 L -61.593492,19.768751 C -61.593492,20.215242 -61.183158,20.575 -60.673898,20.575 L -59.540444,20.575 L -59.540444,21.693751 C -59.540444,22.140242 -59.13011,22.5 -58.62085,22.5 L -57.722642,22.5 C -57.213382,22.5 -56.803048,22.140242 -56.803048,21.693751 L -56.803048,20.575 L -55.669595,20.575 C -55.160335,20.575 -54.75,20.215242 -54.75,19.768751 L -54.75,19.106251 C -54.75,18.659759 -55.160335,18.3 -55.669595,18.3 L -56.803048,18.3 L -56.803048,17.30625 C -56.803048,16.859759 -57.213382,16.5 -57.722642,16.5 L -58.62085,16.5 z"
       style="opacity:1;color:#000000;fill:url(#radialGradient6486);fill-opacity:1;fill-rule:nonzero;stroke:#2e3436;stroke-width:1;stroke-linecap:butt;stroke-linejoin:miter;marker:none;marker-start:none;marker-mid:none;marker-end:none;stroke-miterlimit:4;stroke-dasharray:none;stroke-dashoffset:0;stroke-opacity:1;visibility:visible;display:inline;overflow:visible;enable-background:accumulate" />
    <g
       transform="matrix(0.6843492,0,0,0.6828894,-66.15639,-1.1802176)"
       style="opacity:0.8433735"
       id="g6448">
      <path
         style="opacity:1;color:#000000;fill:url(#linearGradient6488);fill-opacity:1;fill-rule:nonzero;stroke:none;stroke-width:1;stroke-linecap:butt;stroke-linejoin:miter;marker:none;marker-start:none;marker-mid:none;marker-end:none;stroke-miterlimit:4;stroke-dasharray:none;stroke-dashoffset:0;stroke-opacity:1;visibility:visible;display:inline;overflow:visible;enable-background:accumulate"
         d="M 7.0625,29.3125 C 7.0625,29.3125 7.03125,30.15625 7.625,30.1875 L 10.03125,30.1875 L 10,31.0625 L 7.6875,31 C 6.875,30.9375 7.0625,29.3125 7.0625,29.3125 z"
         id="path6450"
         sodipodi:nodetypes="cccccc" />
      <path
         sodipodi:nodetypes="cccccc"
         id="path6452"
         d="M 16.043802,29.3125 C 16.043802,29.3125 16.075052,30.15625 15.481302,30.1875 L 13.075052,30.1875 L 13.106302,31.0625 L 15.418802,31 C 16.231302,30.9375 16.043802,29.3125 16.043802,29.3125 z"
         style="opacity:1;color:#000000;fill:url(#linearGradient6490);fill-opacity:1;fill-rule:nonzero;stroke:none;stroke-width:1;stroke-linecap:butt;stroke-linejoin:miter;marker:none;marker-start:none;marker-mid:none;marker-end:none;stroke-miterlimit:4;stroke-dasharray:none;stroke-dashoffset:0;stroke-opacity:1;visibility:visible;display:inline;overflow:visible;enable-background:accumulate" />
      <path
         style="opacity:1;color:#000000;fill:url(#linearGradient6492);fill-opacity:1;fill-rule:nonzero;stroke:none;stroke-width:1;stroke-linecap:butt;stroke-linejoin:miter;marker:none;marker-start:none;marker-mid:none;marker-end:none;stroke-miterlimit:4;stroke-dasharray:none;stroke-dashoffset:0;stroke-opacity:1;visibility:visible;display:inline;overflow:visible;enable-background:accumulate"
         d="M 10.091909,32.71875 C 10.210541,32.71875 12.96875,32.71875 12.96875,32.71875 C 12.929015,33.243364 13.043872,33.869784 12.405245,34 L 10.744388,34 C 10.019388,33.869998 10.143374,33.243022 10.091909,32.71875 z"
         id="path6454"
         sodipodi:nodetypes="ccccc" />
    </g>
    <path
       inkscape:transform-center-y="1.2163967"
       inkscape:transform-center-x="0.19247238"
       transform="matrix(0.6843492,0,0,0.6828894,-65.774921,-0.3495389)"
       d="M 37.0625,25.640625 A 1.109375,0.484375 0 1 1 34.84375,25.640625 A 1.109375,0.484375 0 1 1 37.0625,25.640625 z"
       sodipodi:ry="0.484375"
       sodipodi:rx="1.109375"
       sodipodi:cy="25.640625"
       sodipodi:cx="35.953125"
       id="path6456"
       style="opacity:1;color:#000000;fill:#ffffff;fill-opacity:0.64375;fill-rule:nonzero;stroke:none;stroke-width:1;stroke-linecap:butt;stroke-linejoin:miter;marker:none;marker-start:none;marker-mid:none;marker-end:none;stroke-miterlimit:4;stroke-dasharray:none;stroke-dashoffset:0;stroke-opacity:1;visibility:visible;display:inline;overflow:visible;enable-background:accumulate"
       sodipodi:type="arc" />
    <path
       sodipodi:type="arc"
       style="opacity:1;color:#000000;fill:#ffffff;fill-opacity:0.64375;fill-rule:nonzero;stroke:none;stroke-width:1;stroke-linecap:butt;stroke-linejoin:miter;marker:none;marker-start:none;marker-mid:none;marker-end:none;stroke-miterlimit:4;stroke-dasharray:none;stroke-dashoffset:0;stroke-opacity:1;visibility:visible;display:inline;overflow:visible;enable-background:accumulate"
       id="path6458"
       sodipodi:cx="35.953125"
       sodipodi:cy="25.640625"
       sodipodi:rx="1.109375"
       sodipodi:ry="0.484375"
       d="M 37.0625,25.640625 A 1.109375,0.484375 0 1 1 34.84375,25.640625 A 1.109375,0.484375 0 1 1 37.0625,25.640625 z"
       transform="matrix(0.6843492,0,0,0.6828894,-68.854492,1.677789)"
       inkscape:transform-center-x="0.19247238"
       inkscape:transform-center-y="1.2163967" />
    <path
       inkscape:transform-center-y="1.2163967"
       inkscape:transform-center-x="0.19247239"
       transform="matrix(0.6843492,0,0,0.6828894,-62.673964,1.7204696)"
       d="M 37.0625,25.640625 A 1.109375,0.484375 0 1 1 34.84375,25.640625 A 1.109375,0.484375 0 1 1 37.0625,25.640625 z"
       sodipodi:ry="0.484375"
       sodipodi:rx="1.109375"
       sodipodi:cy="25.640625"
       sodipodi:cx="35.953125"
       id="path6460"
       style="opacity:1;color:#000000;fill:#ffffff;fill-opacity:0.64375;fill-rule:nonzero;stroke:none;stroke-width:1;stroke-linecap:butt;stroke-linejoin:miter;marker:none;marker-start:none;marker-mid:none;marker-end:none;stroke-miterlimit:4;stroke-dasharray:none;stroke-dashoffset:0;stroke-opacity:1;visibility:visible;display:inline;overflow:visible;enable-background:accumulate"
       sodipodi:type="arc" />
    <path
       sodipodi:type="arc"
       style="opacity:1;color:#000000;fill:#ffffff;fill-opacity:0.64375;fill-rule:nonzero;stroke:none;stroke-width:1;stroke-linecap:butt;stroke-linejoin:miter;marker:none;marker-start:none;marker-mid:none;marker-end:none;stroke-miterlimit:4;stroke-dasharray:none;stroke-dashoffset:0;stroke-opacity:1;visibility:visible;display:inline;overflow:visible;enable-background:accumulate"
       id="path6462"
       sodipodi:cx="35.953125"
       sodipodi:cy="25.640625"
       sodipodi:rx="1.109375"
       sodipodi:ry="0.484375"
       d="M 37.0625,25.640625 A 1.109375,0.484375 0 1 1 34.84375,25.640625 A 1.109375,0.484375 0 1 1 37.0625,25.640625 z"
       transform="matrix(0.6843492,0,0,0.6828894,-65.774921,3.7477975)"
       inkscape:transform-center-x="0.19247237"
       inkscape:transform-center-y="1.2163967" />
    <g
       transform="matrix(0.6843492,0,0,0.6828894,-65.133344,-0.6056224)"
       id="g6464">
      <path
         id="path6466"
         d="M 19,28 L 19,31 L 22.5,29.5 L 19,28 z"
         style="opacity:1;color:#000000;fill:url(#linearGradient6494);fill-opacity:1;fill-rule:nonzero;stroke:url(#linearGradient6496);stroke-width:1.46280336;stroke-linecap:butt;stroke-linejoin:miter;marker:none;marker-start:none;marker-mid:none;marker-end:none;stroke-miterlimit:4;stroke-dasharray:none;stroke-dashoffset:0;stroke-opacity:1;visibility:visible;display:inline;overflow:visible;enable-background:accumulate" />
      <path
         style="opacity:1;color:#000000;fill:url(#linearGradient6498);fill-opacity:1;fill-rule:nonzero;stroke:none;stroke-width:1;stroke-linecap:butt;stroke-linejoin:miter;marker:none;marker-start:none;marker-mid:none;marker-end:none;stroke-miterlimit:4;stroke-dasharray:none;stroke-dashoffset:0;stroke-opacity:1;visibility:visible;display:inline;overflow:visible;enable-background:accumulate"
         d="M 19,28 L 19,31 L 22.5,29.5 L 19,28 z"
         id="path6468" />
      <rect
         ry="1.2348046"
         rx="1.2321707"
         y="28"
         x="23.5"
         height="3"
         width="3"
         id="rect6470"
         style="opacity:1;color:#000000;fill:url(#linearGradient6500);fill-opacity:1;fill-rule:nonzero;stroke:url(#linearGradient6502);stroke-width:1.46280336;stroke-linecap:butt;stroke-linejoin:miter;marker:none;marker-start:none;marker-mid:none;marker-end:none;stroke-miterlimit:4;stroke-dasharray:none;stroke-dashoffset:0;stroke-opacity:1;visibility:visible;display:inline;overflow:visible;enable-background:accumulate" />
      <rect
         style="opacity:1;color:#000000;fill:url(#linearGradient6504);fill-opacity:1;fill-rule:nonzero;stroke:none;stroke-width:1;stroke-linecap:butt;stroke-linejoin:miter;marker:none;marker-start:none;marker-mid:none;marker-end:none;stroke-miterlimit:4;stroke-dasharray:none;stroke-dashoffset:0;stroke-opacity:1;visibility:visible;display:inline;overflow:visible;enable-background:accumulate"
         id="rect6472"
         width="3"
         height="3"
         x="23.5"
         y="28"
         rx="1.2321707"
         ry="1.2348046" />
    </g>
    <path
       id="path6474"
       d="M -51.552016,16.422384 C -51.561561,16.430547 -51.616099,16.449594 -51.633824,16.448234 C -51.677453,16.448234 -51.686997,16.397894 -51.692451,16.327146 L -51.692451,16.260481 C -51.692451,16.231909 -51.693815,16.203338 -51.693815,16.172046 C -51.693815,16.114903 -51.692451,16.0564 -51.691088,15.996536 C -51.64064,15.996536 -51.621552,15.996536 -51.594283,15.995176 C -51.583376,15.995176 -51.569742,15.993816 -51.560197,15.992455 C -51.532929,15.987013 -51.522021,15.969326 -51.51793,15.893136 L -51.691088,15.893136 C -51.691088,15.841436 -51.689725,15.797899 -51.688361,15.740756 L -51.688361,15.718987 C -51.770168,15.724429 -51.805617,15.75028 -51.816525,15.781572 C -51.817888,15.819667 -51.821978,15.861844 -51.823342,15.899939 C -51.831522,15.90402 -51.83425,15.901299 -51.845157,15.90402 C -51.862881,15.909462 -51.883333,15.914904 -51.903785,15.92851 C -51.914693,15.939394 -51.916056,15.939394 -51.916056,15.978849 C -51.895604,15.988374 -51.872426,15.996536 -51.835613,15.997897 L -51.835613,16.321704 C -51.835613,16.433268 -51.809707,16.554356 -51.673363,16.554356 C -51.629733,16.554356 -51.577922,16.542111 -51.546563,16.521703 C -51.537019,16.51354 -51.530201,16.505376 -51.527475,16.495853 C -51.526111,16.484969 -51.526111,16.470003 -51.526111,16.457758 C -51.526111,16.445513 -51.527475,16.434629 -51.528838,16.426466 L -51.552016,16.422384 M -51.423619,15.977489 C -51.420892,15.992455 -51.415438,16.015584 -51.39635,16.035992 C -51.375898,16.035992 -51.3609,16.031911 -51.345903,16.025108 C -51.306362,16.010142 -51.253188,15.991094 -51.209558,15.991094 C -51.164565,15.991094 -51.159111,16.021026 -51.159111,16.078169 L -51.159111,16.144835 C -51.167292,16.143474 -51.176836,16.143474 -51.189107,16.143474 C -51.201378,16.143474 -51.216375,16.143474 -51.228646,16.144835 C -51.314543,16.154359 -51.467249,16.201977 -51.467249,16.366602 C -51.467249,16.493131 -51.378625,16.550274 -51.285911,16.550274 C -51.247735,16.550274 -51.213649,16.547553 -51.180926,16.531226 C -51.172745,16.525784 -51.157747,16.516261 -51.15093,16.510819 C -51.133206,16.529866 -51.100483,16.550274 -51.069124,16.550274 C -51.026857,16.548914 -50.996861,16.529866 -50.98459,16.512179 C -50.98459,16.504016 -50.983226,16.472724 -50.981863,16.453676 C -51.02413,16.461839 -51.02004,16.400616 -51.02004,16.400616 C -51.02004,16.376126 -51.018676,16.314901 -51.018676,16.283609 C -51.017312,16.233269 -51.017312,16.180209 -51.017312,16.129869 L -51.017312,16.070006 C -51.017312,15.951639 -51.052762,15.883612 -51.161837,15.876809 C -51.183653,15.875449 -51.187743,15.875449 -51.209558,15.875449 C -51.304999,15.87817 -51.390896,15.916265 -51.420892,15.943476 C -51.423619,15.950279 -51.424982,15.957081 -51.424982,15.961163 C -51.424982,15.966605 -51.424982,15.970686 -51.422256,15.978849 L -51.423619,15.977489 M -51.161837,16.389731 C -51.163201,16.397894 -51.164565,16.407418 -51.164565,16.406058 L -51.163201,16.404697 C -51.179563,16.426466 -51.220466,16.444153 -51.255916,16.444153 L -51.264096,16.444153 C -51.298182,16.441431 -51.322724,16.418302 -51.322724,16.355718 C -51.322724,16.275446 -51.272276,16.249596 -51.213649,16.238712 L -51.215012,16.238712 C -51.201378,16.237351 -51.18638,16.235991 -51.172745,16.235991 L -51.159111,16.235991 L -51.159111,16.325786 C -51.159111,16.352996 -51.159111,16.373405 -51.161837,16.389731 M -50.624237,15.988374 C -50.554701,15.988374 -50.531522,16.023747 -50.531522,16.121706 L -50.531522,16.478166 C -50.531522,16.498574 -50.527432,16.518982 -50.516524,16.53939 C -50.426537,16.53939 -50.401995,16.533948 -50.38427,16.517621 C -50.385634,16.464561 -50.386997,16.397894 -50.386997,16.324426 L -50.386997,16.118984 C -50.386997,15.963884 -50.41972,15.876809 -50.590151,15.876809 C -50.622873,15.876809 -50.650142,15.882252 -50.678775,15.891776 C -50.703316,15.899939 -50.731948,15.913544 -50.759217,15.932591 C -50.767398,15.916265 -50.783759,15.90402 -50.808301,15.90402 C -50.811028,15.90402 -50.819209,15.90402 -50.827389,15.906741 C -50.857385,15.918986 -50.87511,15.929871 -50.884654,15.940754 C -50.87511,15.967966 -50.869656,15.999258 -50.869656,16.042795 L -50.869656,16.271364 C -50.869656,16.374765 -50.87102,16.467281 -50.872383,16.53939 L -50.836934,16.53939 C -50.776942,16.538029 -50.761944,16.538029 -50.742856,16.521703 C -50.729221,16.502656 -50.726495,16.486329 -50.726495,16.456397 L -50.726495,16.037353 L -50.730585,16.041434 C -50.703316,16.011502 -50.667867,15.988374 -50.624237,15.988374 M -49.795413,16.110821 C -49.795413,16.067284 -49.804956,16.034631 -49.826771,16.000618 C -49.81041,16.001979 -49.802229,16.001979 -49.783141,16.001979 C -49.750419,16.001979 -49.734057,15.976129 -49.734057,15.940754 C -49.734057,15.921707 -49.739511,15.905381 -49.744965,15.894496 C -49.758599,15.894496 -49.787232,15.895857 -49.804956,15.897218 L -49.803593,15.897218 C -49.832225,15.898578 -49.870402,15.899939 -49.900398,15.901299 C -49.904488,15.90402 -49.903124,15.905381 -49.900398,15.906741 C -49.931757,15.891776 -49.974024,15.875449 -50.021744,15.875449 C -50.162178,15.875449 -50.263073,15.962524 -50.263073,16.116264 C -50.263073,16.200616 -50.234441,16.264562 -50.175813,16.301296 C -50.181267,16.306739 -50.179903,16.308099 -50.186721,16.313541 C -50.207172,16.332589 -50.233078,16.354357 -50.252166,16.373405 C -50.263073,16.38701 -50.26989,16.396534 -50.26989,16.406058 C -50.268527,16.446873 -50.234441,16.483608 -50.167632,16.504016 C -50.167632,16.504016 -50.126729,16.517621 -50.064011,16.523063 C -50.05583,16.523063 -50.046286,16.524424 -50.038105,16.524424 C -50.006746,16.525784 -49.97675,16.527145 -49.946754,16.531226 C -49.900398,16.536669 -49.886763,16.559798 -49.875856,16.588369 C -49.875856,16.592451 -49.875856,16.603335 -49.875856,16.607416 C -49.874492,16.663198 -49.944028,16.748912 -50.034015,16.773402 C -50.058557,16.777483 -50.098097,16.785646 -50.125365,16.785646 C -50.143091,16.785646 -50.156725,16.782926 -50.159451,16.772041 C -50.164906,16.747551 -50.117185,16.699933 -50.073555,16.663199 C -50.049012,16.640069 -50.057193,16.593811 -50.091279,16.576124 C -50.177176,16.633266 -50.314884,16.750273 -50.30125,16.818299 C -50.287616,16.863197 -50.224897,16.878163 -50.156725,16.878163 C -50.113095,16.878163 -50.065374,16.872721 -50.029925,16.865918 C -49.860858,16.826463 -49.736784,16.690409 -49.736784,16.570682 C -49.740875,16.490411 -49.799503,16.442792 -49.884036,16.426466 C -49.896307,16.423744 -49.915395,16.422384 -49.93312,16.421023 C -49.954935,16.419663 -49.97675,16.416942 -49.998566,16.415581 L -50.05174,16.411499 C -50.096734,16.407418 -50.121275,16.395173 -50.121275,16.382928 C -50.121275,16.377486 -50.119912,16.369323 -50.114458,16.363881 L -50.087189,16.336671 C -50.070828,16.339391 -50.054467,16.340752 -50.029925,16.340752 C -49.884036,16.340752 -49.795413,16.256398 -49.795413,16.110821 M -50.038105,15.966605 C -49.976751,15.966605 -49.942664,16.015584 -49.934484,16.098577 C -49.927666,16.184291 -49.952209,16.248236 -50.013563,16.248236 C -50.080372,16.248236 -50.113095,16.195174 -50.119912,16.109461 C -50.129456,16.012863 -50.091279,15.966605 -50.038105,15.966605 M -49.396414,16.440071 C -49.480947,16.440071 -49.538212,16.396533 -49.540939,16.260481 C -49.519124,16.261841 -49.515033,16.260481 -49.493218,16.260481 C -49.429137,16.260481 -49.3596,16.257759 -49.317334,16.252317 C -49.277794,16.246875 -49.227347,16.229188 -49.210985,16.215583 C -49.206895,16.195174 -49.204168,16.165243 -49.204168,16.135311 C -49.204168,16.112182 -49.205532,16.090414 -49.206895,16.070006 C -49.217803,15.951639 -49.284612,15.875449 -49.414138,15.875449 C -49.570934,15.875449 -49.685464,15.973408 -49.685464,16.237351 C -49.685464,16.348915 -49.660921,16.434629 -49.610474,16.486329 C -49.555936,16.540751 -49.486401,16.552996 -49.418229,16.552996 C -49.374599,16.552996 -49.332332,16.544832 -49.31188,16.53939 L -49.313243,16.53939 C -49.270977,16.528506 -49.225983,16.497213 -49.224619,16.468642 C -49.225983,16.453676 -49.230074,16.426466 -49.238254,16.400616 C -49.291428,16.429186 -49.343239,16.440071 -49.396414,16.440071 M -49.427773,15.976129 C -49.375962,15.976129 -49.35142,16.011502 -49.344603,16.083611 L -49.344603,16.097216 C -49.344603,16.102658 -49.343239,16.10674 -49.343239,16.112182 C -49.343239,16.128509 -49.345966,16.143474 -49.348693,16.152998 C -49.35551,16.157079 -49.362328,16.157079 -49.369144,16.15844 C -49.396414,16.161161 -49.452315,16.162522 -49.500035,16.162522 L -49.538212,16.162522 C -49.530031,16.040074 -49.48231,15.982931 -49.433227,15.976129 L -49.427773,15.976129 M -48.848032,15.988374 C -48.778497,15.988374 -48.755318,16.023747 -48.755318,16.121706 L -48.755318,16.478166 C -48.755318,16.498574 -48.751228,16.518982 -48.740321,16.53939 C -48.650333,16.53939 -48.625791,16.533948 -48.608067,16.517621 C -48.60943,16.464561 -48.610794,16.397894 -48.610794,16.324426 L -48.610794,16.118984 C -48.610794,15.963884 -48.643516,15.876809 -48.813946,15.876809 C -48.846669,15.876809 -48.873938,15.882252 -48.90257,15.891776 C -48.927112,15.899939 -48.955745,15.913544 -48.983013,15.932591 C -48.991194,15.916265 -49.007556,15.90402 -49.032098,15.90402 C -49.034824,15.90402 -49.043005,15.90402 -49.051186,15.906741 C -49.081181,15.918986 -49.098906,15.929871 -49.10845,15.940754 C -49.098906,15.967966 -49.093452,15.999258 -49.093452,16.042795 L -49.093452,16.271364 C -49.093452,16.374765 -49.094816,16.467281 -49.096179,16.53939 L -49.060729,16.53939 C -49.000738,16.538029 -48.985741,16.538029 -48.966652,16.521703 C -48.953018,16.502656 -48.950291,16.486329 -48.950291,16.456397 L -48.950291,16.037353 L -48.954381,16.041434 C -48.927112,16.011502 -48.891662,15.988374 -48.848032,15.988374 M -48.148736,16.422384 C -48.15828,16.430547 -48.212817,16.449594 -48.230542,16.448234 C -48.274172,16.448234 -48.283717,16.397894 -48.28917,16.327146 L -48.28917,16.260481 C -48.28917,16.231909 -48.290533,16.203338 -48.290533,16.172046 C -48.290533,16.114903 -48.28917,16.0564 -48.287806,15.996536 C -48.23736,15.996536 -48.218271,15.996536 -48.191002,15.995176 C -48.180095,15.995176 -48.16646,15.993816 -48.156916,15.992455 C -48.129647,15.987013 -48.11874,15.969326 -48.11465,15.893136 L -48.287806,15.893136 C -48.287806,15.841436 -48.286443,15.797899 -48.28508,15.740756 L -48.28508,15.718987 C -48.366886,15.724429 -48.402336,15.75028 -48.413243,15.781572 C -48.414607,15.819667 -48.418697,15.861844 -48.420061,15.899939 C -48.428241,15.90402 -48.430968,15.901299 -48.441876,15.90402 C -48.459601,15.909462 -48.480052,15.914904 -48.500503,15.92851 C -48.511411,15.939394 -48.512774,15.939394 -48.512774,15.978849 C -48.492323,15.988374 -48.469144,15.996536 -48.432331,15.997897 L -48.432331,16.321704 C -48.432331,16.433268 -48.406426,16.554356 -48.270082,16.554356 C -48.226452,16.554356 -48.174641,16.542111 -48.143282,16.521703 C -48.133737,16.51354 -48.126921,16.505376 -48.124193,16.495853 C -48.12283,16.484969 -48.12283,16.470003 -48.12283,16.457758 C -48.12283,16.445513 -48.124193,16.434629 -48.125557,16.426466 L -48.148736,16.422384 M -47.513137,16.20878 C -47.513137,15.989734 -47.603124,15.875449 -47.781735,15.875449 C -47.943985,15.875449 -48.058514,15.982932 -48.058514,16.216943 C -48.058514,16.455036 -47.960346,16.554356 -47.785825,16.554356 C -47.629029,16.554356 -47.513137,16.43735 -47.513137,16.20878 M -47.907172,16.211501 C -47.907172,16.042795 -47.849907,15.978849 -47.785825,15.978849 C -47.710836,15.978849 -47.663115,16.042795 -47.663115,16.212861 C -47.663115,16.392452 -47.719017,16.453676 -47.783098,16.453676 C -47.853997,16.453676 -47.907172,16.392452 -47.907172,16.211501"
       style="font-size:1.99232042px;font-style:normal;font-variant:normal;font-weight:normal;font-stretch:normal;text-indent:0;text-align:start;text-decoration:none;line-height:200%;letter-spacing:normal;word-spacing:normal;text-transform:none;direction:ltr;block-progression:tb;writing-mode:lr-tb;text-anchor:start;color:#000000;fill:#204a87;fill-opacity:1;fill-rule:nonzero;stroke:none;stroke-width:1;stroke-linecap:butt;stroke-linejoin:miter;marker:none;marker-start:none;marker-mid:none;marker-end:none;stroke-miterlimit:4;stroke-dashoffset:0;stroke-opacity:1;visibility:visible;display:inline;overflow:visible;enable-background:accumulate;font-family:Qlassik Bold" />
    <path
       id="path6476"
       d="M -52.071683,18.631835 L -52.071683,19.612677 L -50.19654,19.612677 L -49.90922,19.522137 L -52.071683,18.631835 z"
       style="opacity:0.22289159;color:#000000;fill:url(#linearGradient6506);fill-opacity:1;fill-rule:nonzero;stroke:none;stroke-width:1;stroke-linecap:butt;stroke-linejoin:miter;marker:none;marker-start:none;marker-mid:none;marker-end:none;stroke-miterlimit:4;stroke-dasharray:none;stroke-dashoffset:0;stroke-opacity:1;visibility:visible;display:inline;overflow:visible;enable-background:accumulate" />
    <path
       id="path6478"
       d="M -48.540471,18.664662 C -48.742879,18.664662 -48.904031,18.82547 -48.904031,19.027447 L -48.904031,19.603635 L -47.193158,19.603635 L -47.193158,19.027447 C -47.193158,18.82547 -47.375697,18.664662 -47.578105,18.664662 L -48.540471,18.664662 z"
       style="opacity:0.22289159;color:#000000;fill:url(#linearGradient6508);fill-opacity:1;fill-rule:nonzero;stroke:none;stroke-width:1;stroke-linecap:butt;stroke-linejoin:miter;marker:none;marker-start:none;marker-mid:none;marker-end:none;stroke-miterlimit:4;stroke-dasharray:none;stroke-dashoffset:0;stroke-opacity:1;visibility:visible;display:inline;overflow:visible;enable-background:accumulate" />
  </g>
</svg>
