<?xml version="1.0" encoding="UTF-8" standalone="no"?>
<!-- Created with Inkscape (http://www.inkscape.org/) -->
<svg
   xmlns:dc="http://purl.org/dc/elements/1.1/"
   xmlns:cc="http://web.resource.org/cc/"
   xmlns:rdf="http://www.w3.org/1999/02/22-rdf-syntax-ns#"
   xmlns:svg="http://www.w3.org/2000/svg"
   xmlns="http://www.w3.org/2000/svg"
   xmlns:xlink="http://www.w3.org/1999/xlink"
   xmlns:sodipodi="http://sodipodi.sourceforge.net/DTD/sodipodi-0.dtd"
   xmlns:inkscape="http://www.inkscape.org/namespaces/inkscape"
   width="22"
   height="22"
   id="svg2"
   sodipodi:version="0.32"
   inkscape:version="0.44"
   version="1.0"
   sodipodi:docbase="/home/lapo/Icone/cvs/gnome-icon-theme/22x22/devices"
   sodipodi:docname="input-keyboard.svg"
   inkscape:export-filename="/home/jimmac/src/cvs/gnome/gnome-icon-theme/22x22/devices/input-keyboard.png"
   inkscape:export-xdpi="90"
   inkscape:export-ydpi="90"
   inkscape:output_extension="org.inkscape.output.svg.inkscape">
  <defs
     id="defs4">
    <linearGradient
       inkscape:collect="always"
       id="linearGradient5259">
      <stop
         style="stop-color:black;stop-opacity:1;"
         offset="0"
         id="stop5261" />
      <stop
         style="stop-color:black;stop-opacity:0;"
         offset="1"
         id="stop5263" />
    </linearGradient>
    <linearGradient
       inkscape:collect="always"
       xlink:href="#linearGradient5259"
       id="linearGradient5265"
       x1="18.390438"
       y1="15.705806"
       x2="18.390438"
       y2="5.0808058"
       gradientUnits="userSpaceOnUse"
       gradientTransform="matrix(0.396358,0,0,0.382999,2.469196,2.097367)" />
    <linearGradient
       inkscape:collect="always"
       id="linearGradient5251">
      <stop
         style="stop-color:#729fcf;stop-opacity:1;"
         offset="0"
         id="stop5253" />
      <stop
         style="stop-color:#729fcf;stop-opacity:0;"
         offset="1"
         id="stop5255" />
    </linearGradient>
    <linearGradient
       inkscape:collect="always"
       xlink:href="#linearGradient5251"
       id="linearGradient5257"
       x1="32.864544"
       y1="13.794194"
       x2="32.864544"
       y2="5.5441942"
       gradientUnits="userSpaceOnUse"
       gradientTransform="matrix(0.396358,0,0,0.393423,2.469196,1.613997)" />
    <linearGradient
       id="linearGradient2240">
      <stop
         style="stop-color:#ffffff;stop-opacity:1;"
         offset="0"
         id="stop2242" />
      <stop
         style="stop-color:#babdb6"
         offset="1"
         id="stop2244" />
    </linearGradient>
    <radialGradient
       inkscape:collect="always"
       xlink:href="#linearGradient2240"
       id="radialGradient2832"
       gradientUnits="userSpaceOnUse"
       gradientTransform="matrix(2.486133,0,0,0.660746,-16.34558,2.781574)"
       cx="10.999241"
       cy="17.366135"
       fx="10.999241"
       fy="17.366135"
       r="7.0007591" />
  </defs>
  <sodipodi:namedview
     id="base"
     pagecolor="#ffffff"
     bordercolor="#666"
     borderopacity="1"
     inkscape:pageopacity="0.0"
     inkscape:pageshadow="2"
     inkscape:zoom="1"
     inkscape:cx="23.711965"
     inkscape:cy="8.2849394"
     inkscape:document-units="px"
     inkscape:current-layer="layer2"
     showgrid="false"
     stroke="#888a85"
     fill="#eeeeec"
     inkscape:grid-points="true"
     inkscape:grid-bbox="true"
     inkscape:window-width="1085"
     inkscape:window-height="760"
     inkscape:window-x="185"
     inkscape:window-y="213"
     gridspacingx="0.5px"
     gridspacingy="0.5px"
     gridempspacing="2"
     showguides="false"
     inkscape:guide-bbox="true"
     inkscape:showpageshadow="false"
     showborder="false">
    <sodipodi:guide
       orientation="vertical"
       position="24.010638"
       id="guide2292" />
    <sodipodi:guide
       orientation="horizontal"
       position="7"
       id="guide2294" />
  </sodipodi:namedview>
  <metadata
     id="metadata7">
    <rdf:RDF>
      <cc:Work
         rdf:about="">
        <dc:format>image/svg+xml</dc:format>
        <dc:type
           rdf:resource="http://purl.org/dc/dcmitype/StillImage" />
      </cc:Work>
    </rdf:RDF>
  </metadata>
  <g
     inkscape:groupmode="layer"
     id="layer1"
     inkscape:label="Shadow" />
  <g
     inkscape:groupmode="layer"
     id="layer2"
     inkscape:label="Lavoro"
     style="display:inline">
    <g
       id="g2611"
       inkscape:label="Shadow"
       transform="translate(0,15.06603)" />
    <g
       id="g2613"
       inkscape:label="Lavoro"
       style="display:inline"
       transform="translate(0,15.06603)" />
    <path
       style="fill:none;fill-rule:evenodd;stroke:black;stroke-width:3;stroke-linecap:round;stroke-linejoin:miter;stroke-opacity:1;stroke-miterlimit:4;stroke-dasharray:none;opacity:0.1"
       d="M 1.5,18.5 L 20.5,18.5"
       id="path4623"
       sodipodi:nodetypes="cc" />
    <path
       style="fill:#eeeeec;fill-opacity:1.0;stroke:#81837d;stroke-width:1;stroke-linecap:round;stroke-linejoin:round;stroke-miterlimit:4;stroke-dashoffset:0;stroke-opacity:1"
       d="M 3.5652583,11.5 L 18.446647,11.5 C 19.036801,11.5 20.304594,11.519043 20.511906,12.539306 L 21.511906,17.460694 C 21.719218,18.480957 21.036801,18.5 20.446647,18.5 L 1.5652583,18.5 C 0.97510523,18.5 0.38568902,18.023263 0.50000002,17.460694 L 1.5,12.539306 C 1.614311,11.976737 2.9751052,11.5 3.5652583,11.5 z "
       id="rect2834"
       sodipodi:nodetypes="cczzccssc" />
    <path
       style="opacity:0.10112359;fill:none;fill-opacity:1;fill-rule:evenodd;stroke:url(#linearGradient5265);stroke-width:0.99999994;stroke-linecap:butt;stroke-linejoin:miter;stroke-miterlimit:4;stroke-dasharray:none;stroke-opacity:1;display:inline"
       d="M 15.568846,12.629839 C 12.390685,8.382999 22.387253,11.106494 21,9 C 19.612747,6.8935062 9.207284,9.606494 10,7.5 C 10.729433,5.561665 16.143549,8.382999 15.152654,3.595513"
       id="path1541"
       sodipodi:nodetypes="czzc" />
    <path
       style="fill:none;fill-opacity:1;fill-rule:evenodd;stroke:url(#linearGradient5257);stroke-width:0.99999994;stroke-linecap:butt;stroke-linejoin:miter;stroke-miterlimit:4;stroke-dasharray:none;stroke-opacity:1;display:inline"
       d="M 15.568846,12.271189 C 12.390685,7.908762 21.887253,10.663827 20.5,8.5 C 19.112747,6.336174 9.207284,8.663826 10,6.5 C 10.729433,4.508909 16.143549,7.908762 15.152654,2.990975"
       id="path4172"
       sodipodi:nodetypes="czzc" />
    <path
       sodipodi:nodetypes="ccccc"
       id="path2626"
       d="M 3.5,11.500005 L 18.5,11.500005 L 19,16.609746 L 3,16.609746 L 3.5,11.500005 z "
       style="color:black;fill:#bfc5ba;fill-opacity:1;fill-rule:nonzero;stroke:#b5b8b1;stroke-width:1.00000083;stroke-linecap:round;stroke-linejoin:round;marker:none;marker-start:none;marker-mid:none;marker-end:none;stroke-miterlimit:4;stroke-dashoffset:0;stroke-opacity:1;visibility:visible;display:inline;overflow:visible" />
    <path
       style="fill:url(#radialGradient2832);fill-opacity:1;stroke:none;stroke-width:0.80000001;stroke-linecap:round;stroke-linejoin:round;stroke-miterlimit:4;stroke-dasharray:none;stroke-opacity:1"
       d="M 4.5,12 C 4.224,12 4,12.224 4,12.5 C 4,12.776 4.224,13 4.5,13 C 4.776,13 5,12.776 5,12.5 C 5,12.224 4.776,12 4.5,12 z M 6.5,12 C 6.224,12 6,12.224 6,12.5 C 6,12.776 6.224,13 6.5,13 C 6.776,13 7,12.776 7,12.5 C 7,12.224 6.776,12 6.5,12 z M 8.5,12 C 8.224,12 8,12.224 8,12.5 C 8,12.776 8.224,13 8.5,13 C 8.776,13 9,12.776 9,12.5 C 9,12.224 8.776,12 8.5,12 z M 10.5,12 C 10.224,12 10,12.224 10,12.5 C 10,12.776 10.224,13 10.5,13 C 10.776,13 11,12.776 11,12.5 C 11,12.224 10.776,12 10.5,12 z M 12.5,12 C 12.224,12 12,12.224 12,12.5 C 12,12.776 12.224,13 12.5,13 C 12.776,13 13,12.776 13,12.5 C 13,12.224 12.776,12 12.5,12 z M 14.5,12 C 14.224,12 14,12.224 14,12.5 C 14,12.776 14.224,13 14.5,13 C 14.776,13 15,12.776 15,12.5 C 15,12.224 14.776,12 14.5,12 z M 16.5,12 C 16.224,12 16,12.224 16,12.5 C 16,12.776 16.224,13 16.5,13 C 16.776,13 17,12.776 17,12.5 C 17,12.224 16.776,12 16.5,12 z M 5.40625,13 C 5.3899805,13.003332 5.3594033,13.026378 5.34375,13.03125 C 5.3207794,13.039666 5.2712534,13.05095 5.25,13.0625 C 5.1812732,13.104274 5.1042737,13.181273 5.0625,13.25 C 5.0509497,13.271253 5.0396659,13.320779 5.03125,13.34375 C 5.0239419,13.36723 5.0037958,13.412681 5,13.4375 C 4.998292,13.454302 5,13.48275 5,13.5 C 5,13.51725 4.998292,13.545698 5,13.5625 C 5.0037958,13.587319 5.0239419,13.63277 5.03125,13.65625 C 5.0396659,13.679221 5.0509497,13.728747 5.0625,13.75 C 5.1042737,13.818727 5.1812732,13.895726 5.25,13.9375 C 5.2712534,13.94905 5.3207794,13.960334 5.34375,13.96875 C 5.36723,13.976058 5.4126808,13.996204 5.4375,14 C 5.4543018,14.001708 5.48275,14 5.5,14 C 5.51725,14 5.5456982,14.001708 5.5625,14 C 5.5873192,13.996204 5.63277,13.976058 5.65625,13.96875 C 5.6792206,13.960334 5.7287466,13.94905 5.75,13.9375 C 5.8187268,13.895726 5.8957263,13.818727 5.9375,13.75 C 5.9490503,13.728747 5.9603341,13.679221 5.96875,13.65625 C 5.9760581,13.63277 5.9962042,13.587319 6,13.5625 C 6.001708,13.545698 6,13.51725 6,13.5 C 6,13.48275 6.001708,13.454302 6,13.4375 C 5.9962042,13.412681 5.9760581,13.36723 5.96875,13.34375 C 5.9603341,13.320779 5.9490503,13.271253 5.9375,13.25 C 5.8957263,13.181273 5.8187268,13.104274 5.75,13.0625 C 5.7287466,13.05095 5.6792206,13.039666 5.65625,13.03125 C 5.63277,13.023942 5.5873192,13.003796 5.5625,13 C 5.5456982,12.998292 5.51725,13 5.5,13 C 5.48275,13 5.4543018,12.998292 5.4375,13 C 5.4292269,13.001265 5.4143848,12.998334 5.40625,13 z M 7.40625,13 C 7.3899805,13.003332 7.3594033,13.026378 7.34375,13.03125 C 7.3207794,13.039666 7.2712534,13.05095 7.25,13.0625 C 7.1812732,13.104274 7.1042737,13.181273 7.0625,13.25 C 7.0509497,13.271253 7.0396659,13.320779 7.03125,13.34375 C 7.0239419,13.36723 7.0037958,13.412681 7,13.4375 C 6.998292,13.454302 7,13.48275 7,13.5 C 7,13.51725 6.998292,13.545698 7,13.5625 C 7.0037958,13.587319 7.0239419,13.63277 7.03125,13.65625 C 7.0396659,13.679221 7.0509497,13.728747 7.0625,13.75 C 7.1042737,13.818727 7.1812732,13.895726 7.25,13.9375 C 7.2712534,13.94905 7.3207794,13.960334 7.34375,13.96875 C 7.36723,13.976058 7.4126808,13.996204 7.4375,14 C 7.4543018,14.001708 7.48275,14 7.5,14 C 7.51725,14 7.5456982,14.001708 7.5625,14 C 7.5873192,13.996204 7.63277,13.976058 7.65625,13.96875 C 7.6792206,13.960334 7.7287466,13.94905 7.75,13.9375 C 7.8187268,13.895726 7.8957263,13.818727 7.9375,13.75 C 7.9490503,13.728747 7.9603341,13.679221 7.96875,13.65625 C 7.9760581,13.63277 7.9962042,13.587319 8,13.5625 C 8.001708,13.545698 8,13.51725 8,13.5 C 8,13.48275 8.001708,13.454302 8,13.4375 C 7.9962042,13.412681 7.9760581,13.36723 7.96875,13.34375 C 7.9603341,13.320779 7.9490503,13.271253 7.9375,13.25 C 7.8957263,13.181273 7.8187268,13.104274 7.75,13.0625 C 7.7287466,13.05095 7.6792206,13.039666 7.65625,13.03125 C 7.63277,13.023942 7.5873192,13.003796 7.5625,13 C 7.5456982,12.998292 7.51725,13 7.5,13 C 7.48275,13 7.4543018,12.998292 7.4375,13 C 7.4292269,13.001265 7.4143848,12.998334 7.40625,13 z M 9.40625,13 C 9.3899805,13.003332 9.3594033,13.026378 9.34375,13.03125 C 9.3207794,13.039666 9.2712534,13.05095 9.25,13.0625 C 9.1812732,13.104274 9.1042737,13.181273 9.0625,13.25 C 9.0509497,13.271253 9.0396659,13.320779 9.03125,13.34375 C 9.0239419,13.36723 9.0037958,13.412681 9,13.4375 C 8.998292,13.454302 9,13.48275 9,13.5 C 9,13.51725 8.998292,13.545698 9,13.5625 C 9.0037958,13.587319 9.0239419,13.63277 9.03125,13.65625 C 9.0396659,13.679221 9.0509497,13.728747 9.0625,13.75 C 9.1042737,13.818727 9.1812732,13.895726 9.25,13.9375 C 9.2712534,13.94905 9.3207794,13.960334 9.34375,13.96875 C 9.36723,13.976058 9.4126808,13.996204 9.4375,14 C 9.4543018,14.001708 9.48275,14 9.5,14 C 9.51725,14 9.5456982,14.001708 9.5625,14 C 9.5873192,13.996204 9.63277,13.976058 9.65625,13.96875 C 9.6792206,13.960334 9.7287466,13.94905 9.75,13.9375 C 9.8187268,13.895726 9.8957263,13.818727 9.9375,13.75 C 9.9490503,13.728747 9.9603341,13.679221 9.96875,13.65625 C 9.9760581,13.63277 9.9962043,13.587319 10,13.5625 C 10.001708,13.545698 10,13.51725 10,13.5 C 9.9999999,13.48275 10.001708,13.454302 10,13.4375 C 9.9962042,13.412681 9.9760581,13.36723 9.96875,13.34375 C 9.9603341,13.320779 9.9490503,13.271253 9.9375,13.25 C 9.8957263,13.181273 9.8187268,13.104274 9.75,13.0625 C 9.7287466,13.05095 9.6792206,13.039666 9.65625,13.03125 C 9.63277,13.023942 9.5873192,13.003796 9.5625,13 C 9.5456982,12.998292 9.51725,13 9.5,13 C 9.48275,13 9.4543018,12.998292 9.4375,13 C 9.4292269,13.001265 9.4143848,12.998334 9.40625,13 z M 11.40625,13 C 11.38998,13.003332 11.359403,13.026378 11.34375,13.03125 C 11.320779,13.039666 11.271253,13.05095 11.25,13.0625 C 11.181273,13.104274 11.104274,13.181273 11.0625,13.25 C 11.05095,13.271253 11.039666,13.320779 11.03125,13.34375 C 11.023942,13.36723 11.003796,13.412681 11,13.4375 C 10.998292,13.454302 11,13.48275 11,13.5 C 11,13.51725 10.998292,13.545698 11,13.5625 C 11.003796,13.587319 11.023942,13.63277 11.03125,13.65625 C 11.039666,13.679221 11.05095,13.728747 11.0625,13.75 C 11.104274,13.818727 11.181273,13.895726 11.25,13.9375 C 11.271253,13.94905 11.320779,13.960334 11.34375,13.96875 C 11.36723,13.976058 11.412681,13.996204 11.4375,14 C 11.454302,14.001708 11.48275,14 11.5,14 C 11.51725,14 11.545698,14.001708 11.5625,14 C 11.587319,13.996204 11.63277,13.976058 11.65625,13.96875 C 11.679221,13.960334 11.728747,13.94905 11.75,13.9375 C 11.818727,13.895726 11.895726,13.818727 11.9375,13.75 C 11.94905,13.728747 11.960334,13.679221 11.96875,13.65625 C 11.976058,13.63277 11.996204,13.587319 12,13.5625 C 12.001708,13.545698 12,13.51725 12,13.5 C 12,13.48275 12.001708,13.454302 12,13.4375 C 11.996204,13.412681 11.976058,13.36723 11.96875,13.34375 C 11.960334,13.320779 11.94905,13.271253 11.9375,13.25 C 11.895726,13.181273 11.818727,13.104274 11.75,13.0625 C 11.728747,13.05095 11.679221,13.039666 11.65625,13.03125 C 11.63277,13.023942 11.587319,13.003796 11.5625,13 C 11.545698,12.998292 11.51725,13 11.5,13 C 11.48275,13 11.454302,12.998292 11.4375,13 C 11.429227,13.001265 11.414385,12.998334 11.40625,13 z M 13.40625,13 C 13.38998,13.003332 13.359403,13.026378 13.34375,13.03125 C 13.320779,13.039666 13.271253,13.05095 13.25,13.0625 C 13.181273,13.104274 13.104274,13.181273 13.0625,13.25 C 13.05095,13.271253 13.039666,13.320779 13.03125,13.34375 C 13.023942,13.36723 13.003796,13.412681 13,13.4375 C 12.998292,13.454302 13,13.48275 13,13.5 C 13,13.51725 12.998292,13.545698 13,13.5625 C 13.003796,13.587319 13.023942,13.63277 13.03125,13.65625 C 13.039666,13.679221 13.05095,13.728747 13.0625,13.75 C 13.104274,13.818727 13.181273,13.895726 13.25,13.9375 C 13.271253,13.94905 13.320779,13.960334 13.34375,13.96875 C 13.36723,13.976058 13.412681,13.996204 13.4375,14 C 13.454302,14.001708 13.48275,14 13.5,14 C 13.51725,14 13.545698,14.001708 13.5625,14 C 13.587319,13.996204 13.63277,13.976058 13.65625,13.96875 C 13.679221,13.960334 13.728747,13.94905 13.75,13.9375 C 13.818727,13.895726 13.895726,13.818727 13.9375,13.75 C 13.94905,13.728747 13.960334,13.679221 13.96875,13.65625 C 13.976058,13.63277 13.996204,13.587319 14,13.5625 C 14.001708,13.545698 14,13.51725 14,13.5 C 14,13.48275 14.001708,13.454302 14,13.4375 C 13.996204,13.412681 13.976058,13.36723 13.96875,13.34375 C 13.960334,13.320779 13.94905,13.271253 13.9375,13.25 C 13.895726,13.181273 13.818727,13.104274 13.75,13.0625 C 13.728747,13.05095 13.679221,13.039666 13.65625,13.03125 C 13.63277,13.023942 13.587319,13.003796 13.5625,13 C 13.545698,12.998292 13.51725,13 13.5,13 C 13.48275,13 13.454302,12.998292 13.4375,13 C 13.429227,13.001265 13.414385,12.998334 13.40625,13 z M 15.40625,13 C 15.38998,13.003332 15.359403,13.026378 15.34375,13.03125 C 15.320779,13.039666 15.271253,13.05095 15.25,13.0625 C 15.181273,13.104274 15.104274,13.181273 15.0625,13.25 C 15.05095,13.271253 15.039666,13.320779 15.03125,13.34375 C 15.023942,13.36723 15.003796,13.412681 15,13.4375 C 14.998292,13.454302 15,13.48275 15,13.5 C 15,13.51725 14.998292,13.545698 15,13.5625 C 15.003796,13.587319 15.023942,13.63277 15.03125,13.65625 C 15.039666,13.679221 15.05095,13.728747 15.0625,13.75 C 15.104274,13.818727 15.181273,13.895726 15.25,13.9375 C 15.271253,13.94905 15.320779,13.960334 15.34375,13.96875 C 15.36723,13.976058 15.412681,13.996204 15.4375,14 C 15.454302,14.001708 15.48275,14 15.5,14 C 15.51725,14 15.545698,14.001708 15.5625,14 C 15.587319,13.996204 15.63277,13.976058 15.65625,13.96875 C 15.679221,13.960334 15.728747,13.94905 15.75,13.9375 C 15.818727,13.895726 15.895726,13.818727 15.9375,13.75 C 15.94905,13.728747 15.960334,13.679221 15.96875,13.65625 C 15.976058,13.63277 15.996204,13.587319 16,13.5625 C 16.001708,13.545698 16,13.51725 16,13.5 C 16,13.48275 16.001708,13.454302 16,13.4375 C 15.996204,13.412681 15.976058,13.36723 15.96875,13.34375 C 15.960334,13.320779 15.94905,13.271253 15.9375,13.25 C 15.895726,13.181273 15.818727,13.104274 15.75,13.0625 C 15.728747,13.05095 15.679221,13.039666 15.65625,13.03125 C 15.63277,13.023942 15.587319,13.003796 15.5625,13 C 15.545698,12.998292 15.51725,13 15.5,13 C 15.48275,13 15.454302,12.998292 15.4375,13 C 15.429227,13.001265 15.414385,12.998334 15.40625,13 z M 17.40625,13 C 17.38998,13.003332 17.359403,13.026378 17.34375,13.03125 C 17.320779,13.039666 17.271253,13.05095 17.25,13.0625 C 17.181273,13.104274 17.104274,13.181273 17.0625,13.25 C 17.05095,13.271253 17.039666,13.320779 17.03125,13.34375 C 17.023942,13.36723 17.003796,13.412681 17,13.4375 C 16.998292,13.454302 17,13.48275 17,13.5 C 17,13.51725 16.998292,13.545698 17,13.5625 C 17.003796,13.587319 17.023942,13.63277 17.03125,13.65625 C 17.039666,13.679221 17.05095,13.728747 17.0625,13.75 C 17.104274,13.818727 17.181273,13.895726 17.25,13.9375 C 17.271253,13.94905 17.320779,13.960334 17.34375,13.96875 C 17.36723,13.976058 17.412681,13.996204 17.4375,14 C 17.454302,14.001708 17.48275,14 17.5,14 C 17.51725,14 17.545698,14.001708 17.5625,14 C 17.587319,13.996204 17.63277,13.976058 17.65625,13.96875 C 17.679221,13.960334 17.728747,13.94905 17.75,13.9375 C 17.818727,13.895726 17.895726,13.818727 17.9375,13.75 C 17.94905,13.728747 17.960334,13.679221 17.96875,13.65625 C 17.976058,13.63277 17.996204,13.587319 18,13.5625 C 18.001708,13.545698 18,13.51725 18,13.5 C 18,13.48275 18.001708,13.454302 18,13.4375 C 17.996204,13.412681 17.976058,13.36723 17.96875,13.34375 C 17.960334,13.320779 17.94905,13.271253 17.9375,13.25 C 17.895726,13.181273 17.818727,13.104274 17.75,13.0625 C 17.728747,13.05095 17.679221,13.039666 17.65625,13.03125 C 17.63277,13.023942 17.587319,13.003796 17.5625,13 C 17.545698,12.998292 17.51725,13 17.5,13 C 17.48275,13 17.454302,12.998292 17.4375,13 C 17.429227,13.001265 17.414385,12.998334 17.40625,13 z M 4.40625,14 C 4.3899805,14.003332 4.3594033,14.026378 4.34375,14.03125 C 4.3207794,14.039666 4.2712534,14.05095 4.25,14.0625 C 4.1812732,14.104274 4.1042737,14.181273 4.0625,14.25 C 4.0509497,14.271253 4.0396659,14.320779 4.03125,14.34375 C 4.0239419,14.36723 4.0037958,14.412681 4,14.4375 C 3.998292,14.454302 4,14.48275 4,14.5 C 4,14.51725 3.998292,14.545698 4,14.5625 C 4.0037958,14.587319 4.0239419,14.63277 4.03125,14.65625 C 4.0396659,14.679221 4.0509497,14.728747 4.0625,14.75 C 4.1042737,14.818727 4.1812732,14.895726 4.25,14.9375 C 4.2712534,14.94905 4.3207794,14.960334 4.34375,14.96875 C 4.36723,14.976058 4.4126808,14.996204 4.4375,15 C 4.4543018,15.001708 4.48275,15 4.5,15 C 4.51725,15 4.5456982,15.001708 4.5625,15 C 4.5873192,14.996204 4.63277,14.976058 4.65625,14.96875 C 4.6792206,14.960334 4.7287466,14.94905 4.75,14.9375 C 4.8187268,14.895726 4.8957263,14.818727 4.9375,14.75 C 4.9490503,14.728747 4.9603341,14.679221 4.96875,14.65625 C 4.9760581,14.63277 4.9962042,14.587319 5,14.5625 C 5.001708,14.545698 5,14.51725 5,14.5 C 5,14.48275 5.001708,14.454302 5,14.4375 C 4.9962042,14.412681 4.9760581,14.36723 4.96875,14.34375 C 4.9603341,14.320779 4.9490503,14.271253 4.9375,14.25 C 4.8957263,14.181273 4.8187268,14.104274 4.75,14.0625 C 4.7287466,14.05095 4.6792206,14.039666 4.65625,14.03125 C 4.63277,14.023942 4.5873192,14.003796 4.5625,14 C 4.5456982,13.998292 4.51725,14 4.5,14 C 4.48275,14 4.4543018,13.998292 4.4375,14 C 4.4292269,14.001265 4.4143848,13.998334 4.40625,14 z M 6.40625,14 C 6.3899805,14.003332 6.3594033,14.026378 6.34375,14.03125 C 6.3207794,14.039666 6.2712534,14.05095 6.25,14.0625 C 6.1812732,14.104274 6.1042737,14.181273 6.0625,14.25 C 6.0509497,14.271253 6.0396659,14.320779 6.03125,14.34375 C 6.0239419,14.36723 6.0037958,14.412681 6,14.4375 C 5.998292,14.454302 6,14.48275 6,14.5 C 6,14.51725 5.998292,14.545698 6,14.5625 C 6.0037958,14.587319 6.0239419,14.63277 6.03125,14.65625 C 6.0396659,14.679221 6.0509497,14.728747 6.0625,14.75 C 6.1042737,14.818727 6.1812732,14.895726 6.25,14.9375 C 6.2712534,14.94905 6.3207794,14.960334 6.34375,14.96875 C 6.36723,14.976058 6.4126808,14.996204 6.4375,15 C 6.4543018,15.001708 6.48275,15 6.5,15 C 6.51725,15 6.5456982,15.001708 6.5625,15 C 6.5873192,14.996204 6.63277,14.976058 6.65625,14.96875 C 6.6792206,14.960334 6.7287466,14.94905 6.75,14.9375 C 6.8187268,14.895726 6.8957263,14.818727 6.9375,14.75 C 6.9490503,14.728747 6.9603341,14.679221 6.96875,14.65625 C 6.9760581,14.63277 6.9962042,14.587319 7,14.5625 C 7.001708,14.545698 7,14.51725 7,14.5 C 7,14.48275 7.001708,14.454302 7,14.4375 C 6.9962042,14.412681 6.9760581,14.36723 6.96875,14.34375 C 6.9603341,14.320779 6.9490503,14.271253 6.9375,14.25 C 6.8957263,14.181273 6.8187268,14.104274 6.75,14.0625 C 6.7287466,14.05095 6.6792206,14.039666 6.65625,14.03125 C 6.63277,14.023942 6.5873192,14.003796 6.5625,14 C 6.5456982,13.998292 6.51725,14 6.5,14 C 6.48275,14 6.4543018,13.998292 6.4375,14 C 6.4292269,14.001265 6.4143848,13.998334 6.40625,14 z M 8.40625,14 C 8.3899805,14.003332 8.3594033,14.026378 8.34375,14.03125 C 8.3207794,14.039666 8.2712534,14.05095 8.25,14.0625 C 8.1812732,14.104274 8.1042737,14.181273 8.0625,14.25 C 8.0509497,14.271253 8.0396659,14.320779 8.03125,14.34375 C 8.0239419,14.36723 8.0037958,14.412681 8,14.4375 C 7.998292,14.454302 8,14.48275 8,14.5 C 8,14.51725 7.998292,14.545698 8,14.5625 C 8.0037958,14.587319 8.0239419,14.63277 8.03125,14.65625 C 8.0396659,14.679221 8.0509497,14.728747 8.0625,14.75 C 8.1042737,14.818727 8.1812732,14.895726 8.25,14.9375 C 8.2712534,14.94905 8.3207794,14.960334 8.34375,14.96875 C 8.36723,14.976058 8.4126808,14.996204 8.4375,15 C 8.4543018,15.001708 8.48275,15 8.5,15 C 8.51725,15 8.5456982,15.001708 8.5625,15 C 8.5873192,14.996204 8.63277,14.976058 8.65625,14.96875 C 8.6792206,14.960334 8.7287466,14.94905 8.75,14.9375 C 8.8187268,14.895726 8.8957263,14.818727 8.9375,14.75 C 8.9490503,14.728747 8.9603341,14.679221 8.96875,14.65625 C 8.9760581,14.63277 8.9962042,14.587319 9,14.5625 C 9.001708,14.545698 9,14.51725 9,14.5 C 9,14.48275 9.001708,14.454302 9,14.4375 C 8.9962042,14.412681 8.9760581,14.36723 8.96875,14.34375 C 8.9603341,14.320779 8.9490503,14.271253 8.9375,14.25 C 8.8957263,14.181273 8.8187268,14.104274 8.75,14.0625 C 8.7287466,14.05095 8.6792206,14.039666 8.65625,14.03125 C 8.63277,14.023942 8.5873192,14.003796 8.5625,14 C 8.5456982,13.998292 8.51725,14 8.5,14 C 8.48275,14 8.4543018,13.998292 8.4375,14 C 8.4292269,14.001265 8.4143848,13.998334 8.40625,14 z M 10.40625,14 C 10.38998,14.003332 10.359403,14.026378 10.34375,14.03125 C 10.320779,14.039666 10.271253,14.05095 10.25,14.0625 C 10.181273,14.104274 10.104274,14.181273 10.0625,14.25 C 10.05095,14.271253 10.039666,14.320779 10.03125,14.34375 C 10.023942,14.36723 10.003796,14.412681 10,14.4375 C 9.998292,14.454302 10,14.48275 10,14.5 C 9.9999999,14.51725 9.9982921,14.545698 10,14.5625 C 10.003796,14.587319 10.023942,14.63277 10.03125,14.65625 C 10.039666,14.679221 10.05095,14.728747 10.0625,14.75 C 10.104274,14.818727 10.181273,14.895726 10.25,14.9375 C 10.271253,14.94905 10.320779,14.960334 10.34375,14.96875 C 10.36723,14.976058 10.412681,14.996204 10.4375,15 C 10.454302,15.001708 10.48275,15 10.5,15 C 10.51725,15 10.545698,15.001708 10.5625,15 C 10.587319,14.996204 10.63277,14.976058 10.65625,14.96875 C 10.679221,14.960334 10.728747,14.94905 10.75,14.9375 C 10.818727,14.895726 10.895726,14.818727 10.9375,14.75 C 10.94905,14.728747 10.960334,14.679221 10.96875,14.65625 C 10.976058,14.63277 10.996204,14.587319 11,14.5625 C 11.001708,14.545698 11,14.51725 11,14.5 C 11,14.48275 11.001708,14.454302 11,14.4375 C 10.996204,14.412681 10.976058,14.36723 10.96875,14.34375 C 10.960334,14.320779 10.94905,14.271253 10.9375,14.25 C 10.895726,14.181273 10.818727,14.104274 10.75,14.0625 C 10.728747,14.05095 10.679221,14.039666 10.65625,14.03125 C 10.63277,14.023942 10.587319,14.003796 10.5625,14 C 10.545698,13.998292 10.51725,14 10.5,14 C 10.48275,14 10.454302,13.998292 10.4375,14 C 10.429227,14.001265 10.414385,13.998334 10.40625,14 z M 12.40625,14 C 12.38998,14.003332 12.359403,14.026378 12.34375,14.03125 C 12.320779,14.039666 12.271253,14.05095 12.25,14.0625 C 12.181273,14.104274 12.104274,14.181273 12.0625,14.25 C 12.05095,14.271253 12.039666,14.320779 12.03125,14.34375 C 12.023942,14.36723 12.003796,14.412681 12,14.4375 C 11.998292,14.454302 12,14.48275 12,14.5 C 12,14.51725 11.998292,14.545698 12,14.5625 C 12.003796,14.587319 12.023942,14.63277 12.03125,14.65625 C 12.039666,14.679221 12.05095,14.728747 12.0625,14.75 C 12.104274,14.818727 12.181273,14.895726 12.25,14.9375 C 12.271253,14.94905 12.320779,14.960334 12.34375,14.96875 C 12.36723,14.976058 12.412681,14.996204 12.4375,15 C 12.454302,15.001708 12.48275,15 12.5,15 C 12.51725,15 12.545698,15.001708 12.5625,15 C 12.587319,14.996204 12.63277,14.976058 12.65625,14.96875 C 12.679221,14.960334 12.728747,14.94905 12.75,14.9375 C 12.818727,14.895726 12.895726,14.818727 12.9375,14.75 C 12.94905,14.728747 12.960334,14.679221 12.96875,14.65625 C 12.976058,14.63277 12.996204,14.587319 13,14.5625 C 13.001708,14.545698 13,14.51725 13,14.5 C 13,14.48275 13.001708,14.454302 13,14.4375 C 12.996204,14.412681 12.976058,14.36723 12.96875,14.34375 C 12.960334,14.320779 12.94905,14.271253 12.9375,14.25 C 12.895726,14.181273 12.818727,14.104274 12.75,14.0625 C 12.728747,14.05095 12.679221,14.039666 12.65625,14.03125 C 12.63277,14.023942 12.587319,14.003796 12.5625,14 C 12.545698,13.998292 12.51725,14 12.5,14 C 12.48275,14 12.454302,13.998292 12.4375,14 C 12.429227,14.001265 12.414385,13.998334 12.40625,14 z M 14.40625,14 C 14.38998,14.003332 14.359403,14.026378 14.34375,14.03125 C 14.320779,14.039666 14.271253,14.05095 14.25,14.0625 C 14.181273,14.104274 14.104274,14.181273 14.0625,14.25 C 14.05095,14.271253 14.039666,14.320779 14.03125,14.34375 C 14.023942,14.36723 14.003796,14.412681 14,14.4375 C 13.998292,14.454302 14,14.48275 14,14.5 C 14,14.51725 13.998292,14.545698 14,14.5625 C 14.003796,14.587319 14.023942,14.63277 14.03125,14.65625 C 14.039666,14.679221 14.05095,14.728747 14.0625,14.75 C 14.104274,14.818727 14.181273,14.895726 14.25,14.9375 C 14.271253,14.94905 14.320779,14.960334 14.34375,14.96875 C 14.36723,14.976058 14.412681,14.996204 14.4375,15 C 14.454302,15.001708 14.48275,15 14.5,15 C 14.51725,15 14.545698,15.001708 14.5625,15 C 14.587319,14.996204 14.63277,14.976058 14.65625,14.96875 C 14.679221,14.960334 14.728747,14.94905 14.75,14.9375 C 14.818727,14.895726 14.895726,14.818727 14.9375,14.75 C 14.94905,14.728747 14.960334,14.679221 14.96875,14.65625 C 14.976058,14.63277 14.996204,14.587319 15,14.5625 C 15.001708,14.545698 15,14.51725 15,14.5 C 15,14.48275 15.001708,14.454302 15,14.4375 C 14.996204,14.412681 14.976058,14.36723 14.96875,14.34375 C 14.960334,14.320779 14.94905,14.271253 14.9375,14.25 C 14.895726,14.181273 14.818727,14.104274 14.75,14.0625 C 14.728747,14.05095 14.679221,14.039666 14.65625,14.03125 C 14.63277,14.023942 14.587319,14.003796 14.5625,14 C 14.545698,13.998292 14.51725,14 14.5,14 C 14.48275,14 14.454302,13.998292 14.4375,14 C 14.429227,14.001265 14.414385,13.998334 14.40625,14 z M 16.40625,14 C 16.38998,14.003332 16.359403,14.026378 16.34375,14.03125 C 16.320779,14.039666 16.271253,14.05095 16.25,14.0625 C 16.181273,14.104274 16.104274,14.181273 16.0625,14.25 C 16.05095,14.271253 16.039666,14.320779 16.03125,14.34375 C 16.023942,14.36723 16.003796,14.412681 16,14.4375 C 15.998292,14.454302 16,14.48275 16,14.5 C 16,14.51725 15.998292,14.545698 16,14.5625 C 16.003796,14.587319 16.023942,14.63277 16.03125,14.65625 C 16.039666,14.679221 16.05095,14.728747 16.0625,14.75 C 16.104274,14.818727 16.181273,14.895726 16.25,14.9375 C 16.271253,14.94905 16.320779,14.960334 16.34375,14.96875 C 16.36723,14.976058 16.412681,14.996204 16.4375,15 C 16.454302,15.001708 16.48275,15 16.5,15 C 16.51725,15 16.545698,15.001708 16.5625,15 C 16.587319,14.996204 16.63277,14.976058 16.65625,14.96875 C 16.679221,14.960334 16.728747,14.94905 16.75,14.9375 C 16.818727,14.895726 16.895726,14.818727 16.9375,14.75 C 16.94905,14.728747 16.960334,14.679221 16.96875,14.65625 C 16.976058,14.63277 16.996204,14.587319 17,14.5625 C 17.001708,14.545698 17,14.51725 17,14.5 C 17,14.48275 17.001708,14.454302 17,14.4375 C 16.996204,14.412681 16.976058,14.36723 16.96875,14.34375 C 16.960334,14.320779 16.94905,14.271253 16.9375,14.25 C 16.895726,14.181273 16.818727,14.104274 16.75,14.0625 C 16.728747,14.05095 16.679221,14.039666 16.65625,14.03125 C 16.63277,14.023942 16.587319,14.003796 16.5625,14 C 16.545698,13.998292 16.51725,14 16.5,14 C 16.48275,14 16.454302,13.998292 16.4375,14 C 16.429227,14.001265 16.414385,13.998334 16.40625,14 z M 5.40625,15 C 5.3899805,15.003332 5.3594033,15.026378 5.34375,15.03125 C 5.3207794,15.039666 5.2712534,15.05095 5.25,15.0625 C 5.1812732,15.104274 5.1042737,15.181273 5.0625,15.25 C 5.0509497,15.271253 5.0396659,15.320779 5.03125,15.34375 C 5.0239419,15.36723 5.0037958,15.412681 5,15.4375 C 4.998292,15.454302 5,15.48275 5,15.5 C 5,15.51725 4.998292,15.545698 5,15.5625 C 5.0037958,15.587319 5.0239419,15.63277 5.03125,15.65625 C 5.0396659,15.679221 5.0509497,15.728747 5.0625,15.75 C 5.1042737,15.818727 5.1812732,15.895726 5.25,15.9375 C 5.2712534,15.94905 5.3207794,15.960334 5.34375,15.96875 C 5.36723,15.976058 5.4126808,15.996204 5.4375,16 C 5.4543018,16.001708 5.48275,16 5.5,16 C 5.51725,16 5.5456982,16.001708 5.5625,16 C 5.5873192,15.996204 5.63277,15.976058 5.65625,15.96875 C 5.6792206,15.960334 5.7287466,15.94905 5.75,15.9375 C 5.8187268,15.895726 5.8957263,15.818727 5.9375,15.75 C 5.9490503,15.728747 5.9603341,15.679221 5.96875,15.65625 C 5.9760581,15.63277 5.9962042,15.587319 6,15.5625 C 6.001708,15.545698 6,15.51725 6,15.5 C 6,15.48275 6.001708,15.454302 6,15.4375 C 5.9962042,15.412681 5.9760581,15.36723 5.96875,15.34375 C 5.9603341,15.320779 5.9490503,15.271253 5.9375,15.25 C 5.8957263,15.181273 5.8187268,15.104274 5.75,15.0625 C 5.7287466,15.05095 5.6792206,15.039666 5.65625,15.03125 C 5.63277,15.023942 5.5873192,15.003796 5.5625,15 C 5.5456982,14.998292 5.51725,15 5.5,15 C 5.48275,15 5.4543018,14.998292 5.4375,15 C 5.4292269,15.001265 5.4143848,14.998334 5.40625,15 z M 7.40625,15 C 7.3899805,15.003332 7.3594033,15.026378 7.34375,15.03125 C 7.3207794,15.039666 7.2712534,15.05095 7.25,15.0625 C 7.1812732,15.104274 7.1042737,15.181273 7.0625,15.25 C 7.0509497,15.271253 7.0396659,15.320779 7.03125,15.34375 C 7.0239419,15.36723 7.0037958,15.412681 7,15.4375 C 6.998292,15.454302 7,15.48275 7,15.5 C 7,15.51725 6.998292,15.545698 7,15.5625 C 7.0037958,15.587319 7.0239419,15.63277 7.03125,15.65625 C 7.0396659,15.679221 7.0509497,15.728747 7.0625,15.75 C 7.1042737,15.818727 7.1812732,15.895726 7.25,15.9375 C 7.2712534,15.94905 7.3207794,15.960334 7.34375,15.96875 C 7.36723,15.976058 7.4126808,15.996204 7.4375,16 C 7.4543018,16.001708 7.48275,16 7.5,16 C 7.51725,16 7.5456982,16.001708 7.5625,16 C 7.5873192,15.996204 7.63277,15.976058 7.65625,15.96875 C 7.6792206,15.960334 7.7287466,15.94905 7.75,15.9375 C 7.8187268,15.895726 7.8957263,15.818727 7.9375,15.75 C 7.9490503,15.728747 7.9603341,15.679221 7.96875,15.65625 C 7.9760581,15.63277 7.9962042,15.587319 8,15.5625 C 8.001708,15.545698 8,15.51725 8,15.5 C 8,15.48275 8.001708,15.454302 8,15.4375 C 7.9962042,15.412681 7.9760581,15.36723 7.96875,15.34375 C 7.9603341,15.320779 7.9490503,15.271253 7.9375,15.25 C 7.8957263,15.181273 7.8187268,15.104274 7.75,15.0625 C 7.7287466,15.05095 7.6792206,15.039666 7.65625,15.03125 C 7.63277,15.023942 7.5873192,15.003796 7.5625,15 C 7.5456982,14.998292 7.51725,15 7.5,15 C 7.48275,15 7.4543018,14.998292 7.4375,15 C 7.4292269,15.001265 7.4143848,14.998334 7.40625,15 z M 15.40625,15 C 15.38998,15.003332 15.359403,15.026378 15.34375,15.03125 C 15.320779,15.039666 15.271253,15.05095 15.25,15.0625 C 15.181273,15.104274 15.104274,15.181273 15.0625,15.25 C 15.05095,15.271253 15.039666,15.320779 15.03125,15.34375 C 15.023942,15.36723 15.003796,15.412681 15,15.4375 C 14.998292,15.454302 15,15.48275 15,15.5 C 15,15.51725 14.998292,15.545698 15,15.5625 C 15.003796,15.587319 15.023942,15.63277 15.03125,15.65625 C 15.039666,15.679221 15.05095,15.728747 15.0625,15.75 C 15.104274,15.818727 15.181273,15.895726 15.25,15.9375 C 15.271253,15.94905 15.320779,15.960334 15.34375,15.96875 C 15.36723,15.976058 15.412681,15.996204 15.4375,16 C 15.454302,16.001708 15.48275,16 15.5,16 C 15.51725,16 15.545698,16.001708 15.5625,16 C 15.587319,15.996204 15.63277,15.976058 15.65625,15.96875 C 15.679221,15.960334 15.728747,15.94905 15.75,15.9375 C 15.818727,15.895726 15.895726,15.818727 15.9375,15.75 C 15.94905,15.728747 15.960334,15.679221 15.96875,15.65625 C 15.976058,15.63277 15.996204,15.587319 16,15.5625 C 16.001708,15.545698 16,15.51725 16,15.5 C 16,15.48275 16.001708,15.454302 16,15.4375 C 15.996204,15.412681 15.976058,15.36723 15.96875,15.34375 C 15.960334,15.320779 15.94905,15.271253 15.9375,15.25 C 15.895726,15.181273 15.818727,15.104274 15.75,15.0625 C 15.728747,15.05095 15.679221,15.039666 15.65625,15.03125 C 15.63277,15.023942 15.587319,15.003796 15.5625,15 C 15.545698,14.998292 15.51725,15 15.5,15 C 15.48275,15 15.454302,14.998292 15.4375,15 C 15.429227,15.001265 15.414385,14.998334 15.40625,15 z M 17.40625,15 C 17.38998,15.003332 17.359403,15.026378 17.34375,15.03125 C 17.320779,15.039666 17.271253,15.05095 17.25,15.0625 C 17.181273,15.104274 17.104274,15.181273 17.0625,15.25 C 17.05095,15.271253 17.039666,15.320779 17.03125,15.34375 C 17.023942,15.36723 17.003796,15.412681 17,15.4375 C 16.998292,15.454302 17,15.48275 17,15.5 C 17,15.51725 16.998292,15.545698 17,15.5625 C 17.003796,15.587319 17.023942,15.63277 17.03125,15.65625 C 17.039666,15.679221 17.05095,15.728747 17.0625,15.75 C 17.104274,15.818727 17.181273,15.895726 17.25,15.9375 C 17.271253,15.94905 17.320779,15.960334 17.34375,15.96875 C 17.36723,15.976058 17.412681,15.996204 17.4375,16 C 17.454302,16.001708 17.48275,16 17.5,16 C 17.51725,16 17.545698,16.001708 17.5625,16 C 17.587319,15.996204 17.63277,15.976058 17.65625,15.96875 C 17.679221,15.960334 17.728747,15.94905 17.75,15.9375 C 17.818727,15.895726 17.895726,15.818727 17.9375,15.75 C 17.94905,15.728747 17.960334,15.679221 17.96875,15.65625 C 17.976058,15.63277 17.996204,15.587319 18,15.5625 C 18.001708,15.545698 18,15.51725 18,15.5 C 18,15.48275 18.001708,15.454302 18,15.4375 C 17.996204,15.412681 17.976058,15.36723 17.96875,15.34375 C 17.960334,15.320779 17.94905,15.271253 17.9375,15.25 C 17.895726,15.181273 17.818727,15.104274 17.75,15.0625 C 17.728747,15.05095 17.679221,15.039666 17.65625,15.03125 C 17.63277,15.023942 17.587319,15.003796 17.5625,15 C 17.545698,14.998292 17.51725,15 17.5,15 C 17.48275,15 17.454302,14.998292 17.4375,15 C 17.429227,15.001265 17.414385,14.998334 17.40625,15 z "
       id="path2414" />
    <g
       id="g1598"
       inkscape:label="Shadow"
       transform="translate(-306.25,-49)" />
    <g
       id="g1618"
       inkscape:label="finiture"
       style="display:inline"
       transform="translate(-306.25,-49)" />
    <path
       style="fill:none;fill-opacity:0.75;fill-rule:evenodd;stroke:white;stroke-width:1;stroke-linecap:round;stroke-linejoin:miter;stroke-miterlimit:4;stroke-dasharray:none;stroke-opacity:1"
       d="M 1.5,17.5 L 20.5,17.5"
       id="path2258" />
  </g>
  <g
     inkscape:groupmode="layer"
     id="layer3"
     inkscape:label="finiture"
     style="display:inline" />
</svg>
