<?xml version="1.0" encoding="UTF-8" standalone="no"?>
<!-- Created with Inkscape (http://www.inkscape.org/) -->
<svg
   xmlns:dc="http://purl.org/dc/elements/1.1/"
   xmlns:cc="http://creativecommons.org/ns#"
   xmlns:rdf="http://www.w3.org/1999/02/22-rdf-syntax-ns#"
   xmlns:svg="http://www.w3.org/2000/svg"
   xmlns="http://www.w3.org/2000/svg"
   xmlns:xlink="http://www.w3.org/1999/xlink"
   xmlns:sodipodi="http://sodipodi.sourceforge.net/DTD/sodipodi-0.dtd"
   xmlns:inkscape="http://www.inkscape.org/namespaces/inkscape"
   width="22"
   height="22"
   id="svg2"
   sodipodi:version="0.32"
   inkscape:version="0.46"
   version="1.0"
   sodipodi:docbase="/home/lapo/Desktop/kenneth"
   sodipodi:docname="call-start.svg"
   inkscape:output_extension="org.inkscape.output.svg.inkscape">
  <defs
     id="defs4">
    <linearGradient
       inkscape:collect="always"
       id="linearGradient8172">
      <stop
         style="stop-color:#ffffff;stop-opacity:1;"
         offset="0"
         id="stop8174" />
      <stop
         style="stop-color:#ffffff;stop-opacity:0;"
         offset="1"
         id="stop8176" />
    </linearGradient>
    <linearGradient
       id="linearGradient4833">
      <stop
         id="stop4835"
         offset="0"
         style="stop-color:#8ae234;stop-opacity:1" />
      <stop
         id="stop4837"
         offset="1"
         style="stop-color:#63b513;stop-opacity:1" />
    </linearGradient>
    <linearGradient
       id="linearGradient4827">
      <stop
         id="stop4829"
         offset="0"
         style="stop-color:#8ae234;stop-opacity:1" />
      <stop
         id="stop4831"
         offset="1"
         style="stop-color:#63b612;stop-opacity:1" />
    </linearGradient>
    <linearGradient
       inkscape:collect="always"
       id="linearGradient4000">
      <stop
         style="stop-color:#4e9a06;stop-opacity:1;"
         offset="0"
         id="stop4002" />
      <stop
         style="stop-color:#4e9a06;stop-opacity:0;"
         offset="1"
         id="stop4004" />
    </linearGradient>
    <linearGradient
       inkscape:collect="always"
       id="linearGradient3992">
      <stop
         style="stop-color:#4e9a06;stop-opacity:1;"
         offset="0"
         id="stop3994" />
      <stop
         style="stop-color:#4e9a06;stop-opacity:0;"
         offset="1"
         id="stop3996" />
    </linearGradient>
    <linearGradient
       inkscape:collect="always"
       id="linearGradient2844">
      <stop
         style="stop-color:white;stop-opacity:1;"
         offset="0"
         id="stop2846" />
      <stop
         style="stop-color:white;stop-opacity:0;"
         offset="1"
         id="stop2848" />
    </linearGradient>
    <linearGradient
       inkscape:collect="always"
       id="linearGradient2964">
      <stop
         style="stop-color:black;stop-opacity:1;"
         offset="0"
         id="stop2966" />
      <stop
         style="stop-color:black;stop-opacity:0;"
         offset="1"
         id="stop2968" />
    </linearGradient>
    <linearGradient
       id="linearGradient2946">
      <stop
         style="stop-color:#8ae234;stop-opacity:1"
         offset="0"
         id="stop2948" />
      <stop
         style="stop-color:#73d216;stop-opacity:1"
         offset="1"
         id="stop2950" />
    </linearGradient>
    <radialGradient
       inkscape:collect="always"
       xlink:href="#linearGradient2964"
       id="radialGradient6428"
       gradientUnits="userSpaceOnUse"
       gradientTransform="matrix(0.3201244,0,0,9.6649949e-2,0.174649,15.356416)"
       cx="24.218407"
       cy="29"
       fx="24.218407"
       fy="29"
       r="24.218407" />
    <radialGradient
       inkscape:collect="always"
       xlink:href="#linearGradient2946"
       id="radialGradient6430"
       gradientUnits="userSpaceOnUse"
       gradientTransform="matrix(0.772611,-0.8991781,0.313033,0.268969,10.144147,45.704498)"
       cx="18.706072"
       cy="-31.017405"
       fx="18.706072"
       fy="-31.017405"
       r="20.988943" />
    <radialGradient
       inkscape:collect="always"
       xlink:href="#linearGradient4827"
       id="radialGradient6432"
       gradientUnits="userSpaceOnUse"
       gradientTransform="matrix(1.172449,1.635808e-7,-1.396764e-7,1.001117,-0.689313,0.375097)"
       cx="6.8288355"
       cy="22.955854"
       fx="6.8288355"
       fy="22.955854"
       r="5.4701443" />
    <linearGradient
       inkscape:collect="always"
       xlink:href="#linearGradient4000"
       id="linearGradient6434"
       gradientUnits="userSpaceOnUse"
       x1="4.570446"
       y1="31.585321"
       x2="4.5704455"
       y2="24.445797" />
    <radialGradient
       inkscape:collect="always"
       xlink:href="#linearGradient4833"
       id="radialGradient6436"
       gradientUnits="userSpaceOnUse"
       gradientTransform="matrix(1.065299,0,0,1.069873,-2.349853,-1.383156)"
       cx="36.314796"
       cy="22.349407"
       fx="36.314796"
       fy="22.349407"
       r="5.4555612" />
    <linearGradient
       inkscape:collect="always"
       xlink:href="#linearGradient3992"
       id="linearGradient6438"
       gradientUnits="userSpaceOnUse"
       x1="-46.397331"
       y1="17.728373"
       x2="-46.397331"
       y2="14.59966" />
    <linearGradient
       inkscape:collect="always"
       xlink:href="#linearGradient2844"
       id="linearGradient6442"
       gradientUnits="userSpaceOnUse"
       gradientTransform="matrix(0.5037656,0,0,0.5037656,-31.56548,-0.928401)"
       x1="92.586792"
       y1="6.5408134"
       x2="92.390625"
       y2="11.931311" />
    <linearGradient
       inkscape:collect="always"
       xlink:href="#linearGradient2844"
       id="linearGradient6444"
       gradientUnits="userSpaceOnUse"
       gradientTransform="matrix(0.5037656,0,0,0.5037656,-31.56548,-0.928401)"
       x1="72.375"
       y1="28.301006"
       x2="72.550453"
       y2="32" />
    <radialGradient
       inkscape:collect="always"
       xlink:href="#linearGradient8172"
       id="radialGradient8180"
       cx="-17.567728"
       cy="15.217962"
       fx="-17.567728"
       fy="15.217962"
       r="4.807271"
       gradientTransform="matrix(1.5722652,0,0,1.70162,10.053399,-10.411161)"
       gradientUnits="userSpaceOnUse" />
  </defs>
  <sodipodi:namedview
     id="base"
     pagecolor="#7d7d7d"
     bordercolor="#666666"
     borderopacity="1.0"
     inkscape:pageopacity="0"
     inkscape:pageshadow="2"
     inkscape:zoom="1"
     inkscape:cx="10.148694"
     inkscape:cy="21.289734"
     inkscape:document-units="px"
     inkscape:current-layer="layer1"
     width="48px"
     height="48px"
     inkscape:showpageshadow="false"
     showgrid="false"
     inkscape:window-width="1043"
     inkscape:window-height="712"
     inkscape:window-x="50"
     inkscape:window-y="257"
     showguides="false"
     inkscape:guide-bbox="true"
     showborder="false"
     objecttolerance="10000"
     inkscape:object-nodes="false"
     inkscape:snap-nodes="false"
     gridtolerance="10000"
     guidetolerance="10000"
     inkscape:snap-bbox="true">
    <sodipodi:guide
       orientation="horizontal"
       position="26"
       id="guide2780" />
    <sodipodi:guide
       orientation="vertical"
       position="10.9375"
       id="guide2782" />
    <inkscape:grid
       id="GridFromPre046Settings"
       type="xygrid"
       originx="0px"
       originy="0px"
       spacingx="0.5px"
       spacingy="0.5px"
       color="#0000ff"
       empcolor="#0000ff"
       opacity="0.2"
       empopacity="0.4"
       empspacing="2"
       visible="true"
       enabled="true" />
  </sodipodi:namedview>
  <metadata
     id="metadata7">
    <rdf:RDF>
      <cc:Work
         rdf:about="">
        <dc:format>image/svg+xml</dc:format>
        <dc:type
           rdf:resource="http://purl.org/dc/dcmitype/StillImage" />
        <cc:license
           rdf:resource="http://www.gnu.org/licenses/lgpl.html" />
        <dc:creator>
          <cc:Agent>
            <dc:title>Lapo Calamandrei</dc:title>
          </cc:Agent>
        </dc:creator>
        <dc:title>Call Start</dc:title>
        <dc:subject>
          <rdf:Bag>
            <rdf:li>receiver</rdf:li>
            <rdf:li>phone</rdf:li>
            <rdf:li>call</rdf:li>
            <rdf:li>start</rdf:li>
            <rdf:li>answer</rdf:li>
          </rdf:Bag>
        </dc:subject>
      </cc:Work>
    </rdf:RDF>
  </metadata>
  <g
     inkscape:label="Livello 1"
     inkscape:groupmode="layer"
     id="layer1"
     style="display:inline">
    <g
       id="g2662"
       transform="translate(30,-1)">
      <g
         transform="translate(-28,2)"
         id="g6412">
        <rect
           style="opacity:0.2;fill:url(#radialGradient6428);fill-opacity:1;stroke:none;stroke-width:1;stroke-linecap:round;stroke-linejoin:miter;stroke-miterlimit:4;stroke-dasharray:none;stroke-dashoffset:0;stroke-opacity:1"
           id="rect2492"
           width="15.505809"
           height="4.6814399"
           x="0.1746521"
           y="15.818558" />
        <g
           id="g6398">
          <g
             transform="matrix(-0.3562162,0.3562162,-0.3562162,-0.3562162,27.515344,10.354246)"
             id="g2500">
            <path
               sodipodi:type="inkscape:offset"
               inkscape:radius="0.50188547"
               inkscape:original="M 24 14.5 C 13.540342 14.5 4.9369948 19.115197 4.0625 25 C 3.4945247 26.229253 3.3411412 27.653245 3.71875 29.0625 C 3.8062083 29.388899 3.9270339 29.702183 4.0625 30 L 15.46875 26.9375 C 15.437158 26.61185 15.399959 26.263899 15.3125 25.9375 C 15.104309 25.160519 14.74048 24.477891 14.28125 23.875 C 15.658933 21.324703 19.487863 19.5 24 19.5 C 28.512138 19.5 32.341068 21.324703 33.71875 23.875 C 33.261083 24.476943 32.926458 25.162323 32.71875 25.9375 C 32.631291 26.263899 32.562841 26.611851 32.53125 26.9375 L 43.9375 30 C 44.072966 29.702183 44.193789 29.388898 44.28125 29.0625 C 44.666771 27.623715 44.503631 26.15269 43.90625 24.90625 C 42.954722 19.066284 34.403892 14.5 24 14.5 z "
               style="opacity:1;fill:url(#radialGradient6430);fill-opacity:1;stroke:#448705;stroke-width:1.78654456;stroke-linecap:round;stroke-linejoin:round;stroke-miterlimit:4;stroke-dasharray:none;stroke-dashoffset:0;stroke-opacity:1"
               id="path2542"
               d="M 24,14 C 18.696354,14 13.84379,15.157384 10.1875,17.09375 C 6.5953421,18.996152 4.1564295,21.691391 3.625,24.78125 C 3.6155122,24.836414 3.5707371,24.882069 3.5625,24.9375 C 3.0008337,26.236013 2.8252412,27.718905 3.21875,29.1875 C 3.315338,29.547971 3.4499295,29.902566 3.59375,30.21875 C 3.6943008,30.446998 3.9471946,30.56679 4.1875,30.5 L 15.59375,27.4375 C 15.845209,27.37491 16.00769,27.131189 15.96875,26.875 C 15.93682,26.545861 15.91383,26.190666 15.8125,25.8125 C 15.622524,25.103498 15.29073,24.473822 14.90625,23.90625 C 16.261027,21.720619 19.771266,20 24,20 C 28.251374,20 31.786748,21.734917 33.125,23.9375 C 32.748233,24.508126 32.40475,25.118337 32.21875,25.8125 C 32.125156,26.161796 32.066251,26.5142 32.03125,26.875 C 31.99231,27.131189 32.154791,27.37491 32.40625,27.4375 L 43.8125,30.5 C 44.052805,30.56679 44.305699,30.446998 44.40625,30.21875 C 44.550072,29.902564 44.68466,29.547965 44.78125,29.1875 C 45.18627,27.675942 44.979042,26.140367 44.375,24.8125 L 44.40625,24.8125 C 44.398801,24.766781 44.352049,24.733034 44.34375,24.6875 C 43.783006,21.610688 41.310846,18.952462 37.71875,17.0625 C 34.073494,15.144569 29.275372,14 24,14 z" />
            <path
               sodipodi:type="inkscape:offset"
               inkscape:radius="-0.47406253"
               inkscape:original="M 10.34375 17.5625 C 9.5718404 17.454867 8.7685364 17.504448 7.96875 17.71875 C 4.769604 18.57596 2.8615416 21.863355 3.71875 25.0625 C 3.8062083 25.388899 3.9270339 25.702183 4.0625 26 L 15.46875 22.9375 C 15.437158 22.61185 15.399959 22.263899 15.3125 21.9375 C 14.669594 19.538141 12.659479 17.885398 10.34375 17.5625 z "
               style="fill:url(#radialGradient6432);fill-opacity:1;stroke:none;stroke-width:1.00000012;stroke-linecap:round;stroke-linejoin:miter;stroke-miterlimit:4;stroke-dasharray:none;stroke-dashoffset:0;stroke-opacity:1"
               id="path2508"
               d="M 10.28125,18.03125 C 9.5736169,17.93258 8.8345396,17.989006 8.09375,18.1875 C 5.1417658,18.978483 3.3968235,21.986655 4.1875,24.9375 C 4.2294144,25.093927 4.2860071,25.253209 4.34375,25.40625 L 14.9375,22.59375 C 14.913297,22.408905 14.887368,22.225284 14.84375,22.0625 C 14.250695,19.849188 12.415004,18.328774 10.28125,18.03125 z"
               transform="translate(0,4)" />
            <rect
               style="fill:#8ae234;fill-opacity:1;stroke:url(#linearGradient6434);stroke-width:1.58803964;stroke-linecap:round;stroke-linejoin:miter;stroke-miterlimit:4;stroke-dasharray:none;stroke-dashoffset:0;stroke-opacity:1"
               id="rect2502"
               width="12.03427"
               height="4.000001"
               x="-4.0504165"
               y="28.702452"
               rx="1.480507"
               ry="1.480507"
               inkscape:transform-center-y="0.99612571"
               transform="matrix(0.9659258,-0.258819,0.258819,0.9659258,0,0)"
               inkscape:transform-center-x="-0.26691096" />
            <path
               sodipodi:type="inkscape:offset"
               inkscape:radius="-0.47841442"
               inkscape:original="M 37.6875 17.5625 C 35.371771 17.885399 33.361656 19.538141 32.71875 21.9375 C 32.631291 22.263899 32.562841 22.611851 32.53125 22.9375 L 43.9375 26 C 44.072966 25.702183 44.193789 25.388898 44.28125 25.0625 C 45.138458 21.863355 43.261646 18.575959 40.0625 17.71875 C 39.262714 17.504448 38.45941 17.454867 37.6875 17.5625 z "
               style="fill:url(#radialGradient6436);fill-opacity:1;stroke:none;stroke-width:1.00000012;stroke-linecap:round;stroke-linejoin:miter;stroke-miterlimit:4;stroke-dasharray:none;stroke-dashoffset:0;stroke-opacity:1"
               id="path2510"
               d="M 37.75,18.03125 C 35.617916,18.328542 33.780097,19.850896 33.1875,22.0625 C 33.139948,22.239965 33.125627,22.41277 33.09375,22.59375 L 43.65625,25.40625 C 43.713949,25.253325 43.770626,25.093772 43.8125,24.9375 C 44.603318,21.986127 42.886463,18.977673 39.9375,18.1875 C 39.197252,17.989151 38.457043,17.932662 37.75,18.03125 z"
               transform="translate(0,4)" />
            <rect
               style="fill:#8ae234;fill-opacity:1;stroke:url(#linearGradient6438);stroke-width:1.58803964;stroke-linecap:round;stroke-linejoin:miter;stroke-miterlimit:4;stroke-dasharray:none;stroke-dashoffset:0;stroke-opacity:1"
               id="rect2504"
               width="12.03427"
               height="4.000001"
               x="-50.541378"
               y="16.243025"
               rx="1.480507"
               ry="1.480507"
               inkscape:transform-center-y="0.99612571"
               transform="matrix(-0.9659258,-0.258819,-0.258819,0.9659258,0,0)"
               inkscape:transform-center-x="-0.26691096" />
          </g>
          <path
             id="path2514"
             d="M 15.080066,2.125678 L 13.883623,4.203711 C 14.113993,4.456189 14.443986,4.61302 14.812441,4.61302 C 15.507637,4.61302 16.071853,4.048803 16.071855,3.353606 C 16.071855,2.750718 15.646165,2.248992 15.080066,2.125678 z"
             style="opacity:0.8;fill:url(#linearGradient6442);fill-opacity:1;stroke:none;stroke-width:1.29538584;stroke-linecap:round;stroke-linejoin:miter;stroke-miterlimit:4;stroke-dasharray:none;stroke-dashoffset:0;stroke-opacity:1;display:inline" />
          <path
             id="path2516"
             d="M 5.618718,13.019609 L 3.524943,14.247538 C 3.666088,14.788745 4.151908,15.192098 4.737129,15.192098 C 5.432325,15.192098 5.996541,14.627881 5.996543,13.932684 C 5.996543,13.576975 5.856111,13.248702 5.618718,13.019609 z"
             style="opacity:0.8;fill:url(#linearGradient6444);fill-opacity:1;stroke:none;stroke-width:1.29538584;stroke-linecap:round;stroke-linejoin:miter;stroke-miterlimit:4;stroke-dasharray:none;stroke-dashoffset:0;stroke-opacity:1;display:inline" />
          <path
             transform="matrix(0.6645941,0,0,0.6808511,-46.62189,-2.478724)"
             d="M 91.96875,6.578125 A 0.734375,0.734375 0 1 1 90.5,6.578125 A 0.734375,0.734375 0 1 1 91.96875,6.578125 z"
             sodipodi:ry="0.734375"
             sodipodi:rx="0.734375"
             sodipodi:cy="6.578125"
             sodipodi:cx="91.234375"
             id="path2518"
             style="fill:#ecfbdd;fill-opacity:1;stroke:none;stroke-width:1;stroke-linecap:round;stroke-linejoin:miter;stroke-miterlimit:4;stroke-dasharray:none;stroke-dashoffset:0;stroke-opacity:1"
             sodipodi:type="arc" />
          <path
             transform="matrix(0.6808513,0,0,0.6808513,-57.617046,8.021275)"
             d="M 91.96875,6.578125 A 0.734375,0.734375 0 1 1 90.5,6.578125 A 0.734375,0.734375 0 1 1 91.96875,6.578125 z"
             sodipodi:ry="0.734375"
             sodipodi:rx="0.734375"
             sodipodi:cy="6.578125"
             sodipodi:cx="91.234375"
             id="path2520"
             style="fill:#ecfbdd;fill-opacity:1;stroke:none;stroke-width:1;stroke-linecap:round;stroke-linejoin:miter;stroke-miterlimit:4;stroke-dasharray:none;stroke-dashoffset:0;stroke-opacity:1;display:inline"
             sodipodi:type="arc" />
          <path
             sodipodi:type="arc"
             style="fill:#ecfbdd;fill-opacity:1;stroke:none;stroke-width:1;stroke-linecap:round;stroke-linejoin:miter;stroke-miterlimit:4;stroke-dasharray:none;stroke-dashoffset:0;stroke-opacity:1;display:inline"
             id="path2791"
             sodipodi:cx="91.234375"
             sodipodi:cy="6.578125"
             sodipodi:rx="0.734375"
             sodipodi:ry="0.734375"
             d="M 91.96875,6.578125 A 0.734375,0.734375 0 1 1 90.5,6.578125 A 0.734375,0.734375 0 1 1 91.96875,6.578125 z"
             transform="matrix(0.6808513,0,0,0.6808513,-51.797703,9.341781)" />
        </g>
      </g>
      <path
         d="M -13.375,3.65625 C -13.442855,3.7768189 -13.544233,4.0098284 -13.71875,4.28125 C -13.746265,4.3240435 -13.749662,4.3299277 -13.78125,4.375 C -14.341216,5.3609836 -14.909174,6.3250382 -15.4375,7.28125 C -15.352175,7.3615999 -15.168359,7.6523569 -15,7.84375 C -14.904483,7.911749 -14.55262,8.0150263 -14.0625,8.3125 C -13.81744,8.4612369 -13.506033,8.6911889 -13.34375,9.09375 C -13.205809,9.435927 -13.263231,9.8092613 -13.34375,10.15625 L -13.28125,10.15625 C -13.288794,10.222599 -13.334242,10.278042 -13.34375,10.34375 C -13.740342,13.084682 -15.789033,15.29882 -18.21875,16.28125 C -18.259673,16.294442 -18.301433,16.304882 -18.34375,16.3125 C -18.573213,16.371041 -19.145335,16.574428 -19.78125,16.65625 C -20.099208,16.697161 -20.459968,16.721786 -20.875,16.5625 C -21.290032,16.403214 -21.718837,15.977682 -21.84375,15.5 C -21.85846,15.448868 -21.868913,15.396606 -21.875,15.34375 C -21.897107,15.122646 -22.052973,15.054376 -22.53125,14.71875 C -22.602088,14.665184 -22.665184,14.602088 -22.71875,14.53125 C -22.765046,14.548869 -22.807848,14.534403 -22.84375,14.5625 C -22.872812,14.595864 -22.904136,14.627188 -22.9375,14.65625 C -24.072128,15.319756 -25.212474,15.962135 -26.3125,16.625 C -26.248622,16.748723 -26.173539,17.003573 -26.09375,17.3125 L -26.0625,17.3125 C -25.931996,17.671781 -25.285529,18.208274 -24.71875,18.5 C -24.708334,18.499831 -24.697916,18.499831 -24.6875,18.5 C -23.96632,18.889061 -23.180733,19.146819 -22.46875,19.125 C -22.458334,19.124831 -22.447916,19.124831 -22.4375,19.125 C -19.851034,19.090937 -17.411798,17.6775 -15.375,15.875 C -13.126103,13.811614 -11.257136,11.218238 -10.8125,8.3125 C -10.659663,7.2179652 -10.835958,6.120664 -11.40625,5.3125 C -11.455103,5.2551011 -11.497056,5.1921713 -11.53125,5.125 C -11.793463,4.4768214 -12.316907,3.8942632 -12.84375,3.78125 L -12.84375,3.75 C -12.935091,3.7440505 -13.056232,3.8022246 -13.125,3.78125 C -13.263645,3.7389624 -13.303637,3.6986001 -13.375,3.65625 z"
         id="path8163"
         style="opacity:0.30180179;fill:none;fill-opacity:1;stroke:#ffffff;stroke-width:1;stroke-linecap:round;stroke-linejoin:round;stroke-miterlimit:4;stroke-dasharray:none;stroke-dashoffset:0;stroke-opacity:1;display:inline"
         inkscape:original="M -13.375 2.625 C -14.070358 2.5632737 -14.244283 3.3584378 -14.5625 3.8125 C -15.184485 4.9120941 -15.835509 5.9838288 -16.4375 7.09375 C -16.636986 7.8416863 -15.76792 8.0867065 -15.5625 8.625 C -14.948219 9.0623116 -13.925234 9.042313 -14.25 10.0625 C -14.523054 12.463871 -16.401296 14.488505 -18.59375 15.375 C -19.265719 15.546433 -20.670957 16.149789 -20.90625 15.25 C -20.979032 14.52208 -21.593845 14.200586 -21.96875 13.9375 C -22.26028 13.310532 -23.001376 13.471196 -23.4375 13.8125 C -24.66276 14.529005 -25.914541 15.229453 -27.125 15.96875 C -27.694367 16.497392 -27.021446 17.091644 -26.96875 17.65625 C -26.674703 18.465767 -25.791588 19.016736 -25.15625 19.34375 C -24.343589 19.782163 -23.39697 20.123154 -22.4375 20.09375 C -19.51274 20.055232 -16.882166 18.480647 -14.75 16.59375 C -12.403948 14.441224 -10.367317 11.686091 -9.875 8.46875 C -9.6971663 7.1952066 -9.8702318 5.8195867 -10.625 4.75 C -10.97987 3.872778 -11.706139 3.0475584 -12.65625 2.84375 C -12.895016 2.9726062 -13.112198 2.5835791 -13.375 2.625 z "
         inkscape:radius="-0.96401542"
         sodipodi:type="inkscape:offset" />
      <path
         sodipodi:nodetypes="csssssccccscsscc"
         id="path8167"
         d="M -20.875,16.5625 C -21.290032,16.403214 -21.718837,15.977682 -21.84375,15.5 C -21.85846,15.448868 -21.868913,15.396606 -21.875,15.34375 C -21.897107,15.122646 -22.052973,15.054376 -22.53125,14.71875 C -22.602088,14.665184 -22.665184,14.602088 -22.71875,14.53125 C -22.765046,14.548869 -22.807848,14.534403 -22.84375,14.5625 C -22.872812,14.595864 -22.904136,14.627188 -22.9375,14.65625 C -24.072128,15.319756 -25.212474,15.962135 -26.3125,16.625 M -12.84375,3.78125 L -12.84375,3.75 C -12.935091,3.7440505 -13.056232,3.8022246 -13.125,3.78125 C -13.263645,3.7389624 -13.303637,3.6986001 -13.375,3.65625 C -13.442855,3.7768189 -13.544233,4.0098284 -13.71875,4.28125 C -13.746265,4.3240435 -13.749662,4.3299277 -13.78125,4.375 C -14.341216,5.3609836 -14.909174,6.3250382 -15.4375,7.28125 C -15.352175,7.3615999 -15.168359,7.6523569 -15,7.84375"
         style="opacity:0.41891892;fill:none;fill-opacity:1;stroke:#ffffff;stroke-width:1;stroke-linecap:round;stroke-linejoin:round;stroke-miterlimit:4;stroke-dashoffset:0;stroke-opacity:1;display:inline" />
      <path
         sodipodi:nodetypes="csssccsssssss"
         id="path8170"
         d="M -15.4375,7.28125 C -15.352175,7.3615999 -15.168359,7.6523569 -15,7.84375 C -14.904483,7.911749 -14.55262,8.0150263 -14.0625,8.3125 C -13.81744,8.4612369 -13.506033,8.6911889 -13.34375,9.09375 C -13.205809,9.435927 -13.263231,9.8092613 -13.34375,10.15625 L -13.28125,10.15625 C -13.288794,10.222599 -13.334242,10.278042 -13.34375,10.34375 C -13.740342,13.084682 -15.789033,15.29882 -18.21875,16.28125 C -18.259673,16.294442 -18.301433,16.304882 -18.34375,16.3125 C -18.573213,16.371041 -19.145335,16.574428 -19.78125,16.65625 C -20.099208,16.697161 -20.459968,16.721786 -20.875,16.5625 C -21.290032,16.403214 -21.718837,15.977682 -21.84375,15.5 C -21.85846,15.448868 -21.868913,15.396606 -21.875,15.34375"
         style="opacity:0.56756759;fill:none;fill-opacity:1;stroke:url(#radialGradient8180);stroke-width:1;stroke-linecap:round;stroke-linejoin:round;stroke-miterlimit:4;stroke-dashoffset:0;stroke-opacity:1;display:inline" />
    </g>
  </g>
  <g
     inkscape:groupmode="layer"
     id="layer2"
     inkscape:label="troiai"
     style="display:none">
    <path
       sodipodi:type="arc"
       style="opacity:0.9;fill:#ef2929;fill-opacity:1;stroke:#a40000;stroke-width:1.21590912;stroke-linecap:round;stroke-linejoin:miter;stroke-miterlimit:4;stroke-dasharray:none;stroke-dashoffset:0;stroke-opacity:1"
       id="path2763"
       sodipodi:cx="11.3125"
       sodipodi:cy="21.4375"
       sodipodi:rx="6.6875"
       sodipodi:ry="6.6875"
       d="M 18,21.4375 A 6.6875,6.6875 0 1 1 4.625,21.4375 A 6.6875,6.6875 0 1 1 18,21.4375 z"
       transform="matrix(0.82243,0,0,0.82243,-68.30374,4.369158)" />
    <path
       sodipodi:type="arc"
       style="opacity:0.9;fill:#ef2929;fill-opacity:1;stroke:#a40000;stroke-width:1.21590912;stroke-linecap:round;stroke-linejoin:miter;stroke-miterlimit:4;stroke-dasharray:none;stroke-dashoffset:0;stroke-opacity:1"
       id="path2765"
       sodipodi:cx="11.3125"
       sodipodi:cy="21.4375"
       sodipodi:rx="6.6875"
       sodipodi:ry="6.6875"
       d="M 18,21.4375 A 6.6875,6.6875 0 1 1 4.625,21.4375 A 6.6875,6.6875 0 1 1 18,21.4375 z"
       transform="matrix(0.82243,0,0,0.82243,-42.30374,4.369158)" />
    <path
       sodipodi:type="arc"
       style="opacity:0.6;fill:#ef2929;fill-opacity:1;stroke:#a40000;stroke-width:0.87122524;stroke-linecap:round;stroke-linejoin:miter;stroke-miterlimit:4;stroke-dasharray:none;stroke-dashoffset:0;stroke-opacity:1"
       id="path2767"
       sodipodi:cx="24.1875"
       sodipodi:cy="21.375"
       sodipodi:rx="16.5625"
       sodipodi:ry="9.75"
       d="M 40.75,21.375 A 16.5625,9.75 0 1 1 7.625,21.375 A 16.5625,9.75 0 1 1 40.75,21.375 z"
       transform="matrix(1.116981,0,0,1.179487,-73.01698,-3.211538)" />
    <path
       sodipodi:type="arc"
       style="opacity:0.6;fill:#ef2929;fill-opacity:1;stroke:#a40000;stroke-width:1.62041819;stroke-linecap:round;stroke-linejoin:miter;stroke-miterlimit:4;stroke-dasharray:none;stroke-dashoffset:0;stroke-opacity:1"
       id="path2769"
       sodipodi:cx="24.1875"
       sodipodi:cy="21.375"
       sodipodi:rx="16.5625"
       sodipodi:ry="9.75"
       d="M 40.75,21.375 A 16.5625,9.75 0 1 1 7.625,21.375 A 16.5625,9.75 0 1 1 40.75,21.375 z"
       transform="matrix(0.573586,0,0,0.663968,-59.87362,7.781372)" />
    <path
       style="opacity:0.6;fill:#ef2929;fill-opacity:1;stroke:#a40000;stroke-width:1;stroke-linecap:round;stroke-linejoin:miter;stroke-miterlimit:4;stroke-dasharray:none;stroke-dashoffset:0;stroke-opacity:1"
       d="M 23.99999,70.5 C 12.959975,70.5 3.9999611,75.652001 3.999961,82 L 13.729705,82 C 13.729624,81.989472 13.729705,81.97929 13.729705,81.96875 C 13.729705,78.395274 18.330782,75.5 23.99999,75.5 C 29.6692,75.5 34.270275,78.395274 34.270275,81.96875 C 34.270275,81.97929 34.270356,81.989472 34.270275,82 L 44.00002,82 C 44.00002,75.652001 35.040006,70.5 23.99999,70.5 z"
       id="path2805" />
    <path
       sodipodi:type="arc"
       style="opacity:0.9;fill:#ef2929;fill-opacity:1;stroke:#a40000;stroke-width:1.11458337;stroke-linecap:round;stroke-linejoin:miter;stroke-miterlimit:4;stroke-dasharray:none;stroke-dashoffset:0;stroke-opacity:1"
       id="path2807"
       sodipodi:cx="11.3125"
       sodipodi:cy="21.4375"
       sodipodi:rx="6.6875"
       sodipodi:ry="6.6875"
       d="M 18,21.4375 A 6.6875,6.6875 0 1 1 4.625,21.4375 A 6.6875,6.6875 0 1 1 18,21.4375 z"
       transform="matrix(0.897196,0,0,0.897196,-0.649528,64.26636)" />
    <path
       sodipodi:type="arc"
       style="opacity:0.9;fill:#ef2929;fill-opacity:1;stroke:#a40000;stroke-width:1.11458337;stroke-linecap:round;stroke-linejoin:miter;stroke-miterlimit:4;stroke-dasharray:none;stroke-dashoffset:0;stroke-opacity:1"
       id="path2809"
       sodipodi:cx="11.3125"
       sodipodi:cy="21.4375"
       sodipodi:rx="6.6875"
       sodipodi:ry="6.6875"
       d="M 18,21.4375 A 6.6875,6.6875 0 1 1 4.625,21.4375 A 6.6875,6.6875 0 1 1 18,21.4375 z"
       transform="matrix(0.897196,0,0,0.897196,28.35047,64.26636)" />
    <path
       style="fill:#ef2929;fill-opacity:1;stroke:#a40000;stroke-width:1.00000012;stroke-linecap:round;stroke-linejoin:miter;stroke-miterlimit:4;stroke-dasharray:none;stroke-dashoffset:0;stroke-opacity:1"
       d="M 7.9557575,-22.292184 C 4.7566116,-21.434975 2.8559071,-18.142859 3.7131155,-14.943714 C 3.8005738,-14.617315 3.927024,-14.299869 4.0624901,-14.002052 L 15.472491,-17.059351 C 15.440899,-17.385001 15.391686,-17.723143 15.304227,-18.049542 C 14.447019,-21.248687 11.154903,-23.149392 7.9557575,-22.292184 z"
       id="path2840"
       inkscape:transform-center-x="0.027159543"
       inkscape:transform-center-y="-1.7187079" />
    <path
       style="fill:#ef2929;fill-opacity:1;stroke:#a40000;stroke-width:1.00000012;stroke-linecap:round;stroke-linejoin:miter;stroke-miterlimit:4;stroke-dasharray:none;stroke-dashoffset:0;stroke-opacity:1"
       d="M 40.051683,-22.294327 C 43.250828,-21.437118 45.151533,-18.145002 44.294325,-14.945857 C 44.206866,-14.619458 44.080416,-14.302012 43.94495,-14.004195 L 32.534949,-17.061494 C 32.566541,-17.387144 32.615754,-17.725286 32.703213,-18.051685 C 33.560421,-21.25083 36.852537,-23.151535 40.051683,-22.294327 z"
       id="path2842"
       inkscape:transform-center-x="0.027159543"
       inkscape:transform-center-y="-1.7187079" />
  </g>
</svg>
