<?xml version="1.0" encoding="UTF-8" standalone="no"?>
<!-- Created with Inkscape (http://www.inkscape.org/) -->
<svg
   xmlns:dc="http://purl.org/dc/elements/1.1/"
   xmlns:cc="http://creativecommons.org/ns#"
   xmlns:rdf="http://www.w3.org/1999/02/22-rdf-syntax-ns#"
   xmlns:svg="http://www.w3.org/2000/svg"
   xmlns="http://www.w3.org/2000/svg"
   xmlns:xlink="http://www.w3.org/1999/xlink"
   xmlns:sodipodi="http://sodipodi.sourceforge.net/DTD/sodipodi-0.dtd"
   xmlns:inkscape="http://www.inkscape.org/namespaces/inkscape"
   width="22"
   height="22"
   id="svg2"
   sodipodi:version="0.32"
   inkscape:version="0.46"
   version="1.0"
   sodipodi:docbase="/home/lapo/Desktop/kenneth"
   sodipodi:docname="call-stop.svg"
   inkscape:output_extension="org.inkscape.output.svg.inkscape">
  <defs
     id="defs4">
    <linearGradient
       inkscape:collect="always"
       id="linearGradient2844">
      <stop
         style="stop-color:white;stop-opacity:1;"
         offset="0"
         id="stop2846" />
      <stop
         style="stop-color:white;stop-opacity:0;"
         offset="1"
         id="stop2848" />
    </linearGradient>
    <linearGradient
       inkscape:collect="always"
       id="linearGradient2964">
      <stop
         style="stop-color:black;stop-opacity:1;"
         offset="0"
         id="stop2966" />
      <stop
         style="stop-color:black;stop-opacity:0;"
         offset="1"
         id="stop2968" />
    </linearGradient>
    <linearGradient
       id="linearGradient2910">
      <stop
         id="stop2912"
         offset="0"
         style="stop-color:#ef2929;stop-opacity:1" />
      <stop
         id="stop2914"
         offset="1"
         style="stop-color:#c00;stop-opacity:1" />
    </linearGradient>
    <linearGradient
       id="linearGradient2894">
      <stop
         style="stop-color:white;stop-opacity:1;"
         offset="0"
         id="stop2896" />
      <stop
         style="stop-color:white;stop-opacity:0.43629342"
         offset="1"
         id="stop2898" />
    </linearGradient>
    <radialGradient
       inkscape:collect="always"
       xlink:href="#linearGradient2964"
       id="radialGradient6465"
       gradientUnits="userSpaceOnUse"
       gradientTransform="matrix(0.2163844,0,0,9.2904069e-2,13.206521,15.05577)"
       cx="24.218407"
       cy="29"
       fx="24.218407"
       fy="29"
       r="24.218407" />
    <radialGradient
       inkscape:collect="always"
       xlink:href="#linearGradient2964"
       id="radialGradient6467"
       gradientUnits="userSpaceOnUse"
       gradientTransform="matrix(0.2163844,0,0,9.2904069e-2,-1.6875011,15.05577)"
       cx="24.218407"
       cy="29"
       fx="24.218407"
       fy="29"
       r="24.218407" />
    <radialGradient
       inkscape:collect="always"
       xlink:href="#linearGradient2964"
       id="radialGradient6469"
       gradientUnits="userSpaceOnUse"
       gradientTransform="matrix(0.3201244,0,0,7.2258703e-2,3.4941895,13.654488)"
       cx="24.218407"
       cy="29"
       fx="24.218407"
       fy="29"
       r="24.218407" />
    <linearGradient
       inkscape:collect="always"
       xlink:href="#linearGradient2844"
       id="linearGradient6471"
       gradientUnits="userSpaceOnUse"
       gradientTransform="matrix(-0.3562161,-0.3562161,0.3562161,-0.3562161,32.788047,51.249814)"
       x1="92.586792"
       y1="6.5408134"
       x2="92.586792"
       y2="10.352213" />
    <linearGradient
       inkscape:collect="always"
       xlink:href="#linearGradient2844"
       id="linearGradient6473"
       gradientUnits="userSpaceOnUse"
       gradientTransform="matrix(-0.3562161,-0.3562161,0.3562161,-0.3562161,32.788047,51.249814)"
       x1="72.375"
       y1="28.301006"
       x2="72.375"
       y2="31.375868" />
    <radialGradient
       inkscape:collect="always"
       xlink:href="#linearGradient2910"
       id="radialGradient6475"
       gradientUnits="userSpaceOnUse"
       gradientTransform="matrix(1.82365,0,-3.597168e-8,0.352977,-130.24312,81.94153)"
       cx="13.566036"
       cy="4.123991"
       fx="13.566036"
       fy="4.123991"
       r="20.988943" />
    <radialGradient
       inkscape:collect="always"
       xlink:href="#linearGradient2910"
       id="radialGradient6477"
       gradientUnits="userSpaceOnUse"
       gradientTransform="matrix(1.172449,1.635808e-7,-1.396764e-7,1.001117,-0.689313,0.375097)"
       cx="5.5431213"
       cy="19.583324"
       fx="5.5431213"
       fy="19.583324"
       r="5.4701443" />
    <radialGradient
       inkscape:collect="always"
       xlink:href="#linearGradient2910"
       id="radialGradient6479"
       gradientUnits="userSpaceOnUse"
       gradientTransform="matrix(1.065299,0,0,1.069873,-2.349853,-1.383156)"
       cx="35.986053"
       cy="19.67079"
       fx="35.986053"
       fy="19.67079"
       r="5.4555612" />
    <radialGradient
       inkscape:collect="always"
       xlink:href="#linearGradient2894"
       id="radialGradient6481"
       gradientUnits="userSpaceOnUse"
       gradientTransform="matrix(2.005539,-0.537382,9.849159e-2,0.367575,-11.99609,17.19597)"
       cx="10.714277"
       cy="1.3471706"
       fx="10.714277"
       fy="1.3471706"
       r="19.954109" />
    <linearGradient
       inkscape:collect="always"
       xlink:href="#linearGradient2844"
       id="linearGradient6483"
       gradientUnits="userSpaceOnUse"
       x1="8.550292"
       y1="28.996506"
       x2="8.550292"
       y2="32.225834" />
    <linearGradient
       inkscape:collect="always"
       xlink:href="#linearGradient2844"
       id="linearGradient6485"
       gradientUnits="userSpaceOnUse"
       x1="8.550292"
       y1="28.996506"
       x2="8.550292"
       y2="32.225834" />
  </defs>
  <sodipodi:namedview
     id="base"
     pagecolor="#7d7d7d"
     bordercolor="#666666"
     borderopacity="1.0"
     inkscape:pageopacity="0"
     inkscape:pageshadow="2"
     inkscape:zoom="1"
     inkscape:cx="11.970599"
     inkscape:cy="2.2031805"
     inkscape:document-units="px"
     inkscape:current-layer="layer1"
     width="48px"
     height="48px"
     inkscape:showpageshadow="false"
     showgrid="false"
     inkscape:window-width="1043"
     inkscape:window-height="712"
     inkscape:window-x="50"
     inkscape:window-y="257"
     showguides="false"
     inkscape:guide-bbox="true"
     showborder="false"
     objecttolerance="10000"
     inkscape:object-nodes="false"
     inkscape:snap-nodes="false"
     gridtolerance="10000"
     guidetolerance="10000"
     inkscape:snap-bbox="true">
    <sodipodi:guide
       orientation="horizontal"
       position="26"
       id="guide2780" />
    <sodipodi:guide
       orientation="vertical"
       position="10.9375"
       id="guide2782" />
    <inkscape:grid
       id="GridFromPre046Settings"
       type="xygrid"
       originx="0px"
       originy="0px"
       spacingx="0.5px"
       spacingy="0.5px"
       color="#0000ff"
       empcolor="#0000ff"
       opacity="0.2"
       empopacity="0.4"
       empspacing="2"
       visible="true"
       enabled="true" />
  </sodipodi:namedview>
  <metadata
     id="metadata7">
    <rdf:RDF>
      <cc:Work
         rdf:about="">
        <dc:format>image/svg+xml</dc:format>
        <dc:type
           rdf:resource="http://purl.org/dc/dcmitype/StillImage" />
        <cc:license
           rdf:resource="http://www.gnu.org/licenses/lgpl.html" />
        <dc:creator>
          <cc:Agent>
            <dc:title>Lapo Calamandrei</dc:title>
          </cc:Agent>
        </dc:creator>
        <dc:title>Call Start</dc:title>
        <dc:subject>
          <rdf:Bag>
            <rdf:li>receiver</rdf:li>
            <rdf:li>phone</rdf:li>
            <rdf:li>call</rdf:li>
            <rdf:li>start</rdf:li>
            <rdf:li>answer</rdf:li>
          </rdf:Bag>
        </dc:subject>
      </cc:Work>
    </rdf:RDF>
  </metadata>
  <g
     inkscape:label="Livello 1"
     inkscape:groupmode="layer"
     id="layer1"
     style="display:inline">
    <g
       id="g6446"
       transform="translate(0,-70)">
      <g
         transform="translate(0,70)"
         id="g4644">
        <rect
           y="15.5"
           x="13.206522"
           height="4.5000005"
           width="10.480978"
           id="rect4636"
           style="opacity:0.13999999;fill:url(#radialGradient6465);fill-opacity:1;stroke:none;stroke-width:1;stroke-linecap:round;stroke-linejoin:miter;stroke-miterlimit:4;stroke-dasharray:none;stroke-dashoffset:0;stroke-opacity:1;display:inline" />
        <rect
           y="15.5"
           x="-1.6875"
           height="4.5000005"
           width="10.480978"
           id="rect4640"
           style="opacity:0.13999999;fill:url(#radialGradient6467);fill-opacity:1;stroke:none;stroke-width:1;stroke-linecap:round;stroke-linejoin:miter;stroke-miterlimit:4;stroke-dasharray:none;stroke-dashoffset:0;stroke-opacity:1;display:inline" />
        <rect
           y="14"
           x="3.4941912"
           height="3.4999995"
           width="15.505809"
           id="rect4628"
           style="opacity:0.1;fill:url(#radialGradient6469);fill-opacity:1;stroke:none;stroke-width:1;stroke-linecap:round;stroke-linejoin:miter;stroke-miterlimit:4;stroke-dasharray:none;stroke-dashoffset:0;stroke-opacity:1;display:inline" />
        <path
           style="opacity:0.8;fill:url(#linearGradient6471);fill-opacity:1;stroke:none;stroke-width:1.29538584;stroke-linecap:round;stroke-linejoin:miter;stroke-miterlimit:4;stroke-dasharray:none;stroke-dashoffset:0;stroke-opacity:1;display:inline"
           d="M 1.964224,16.106872 L 4.2796283,15.483493 C 4.2952612,15.142068 4.1728174,14.797831 3.9122803,14.537294 C 3.4207025,14.045716 2.6227794,14.045717 2.1311999,14.537294 C 1.7048936,14.9636 1.6511282,15.619382 1.964224,16.106872 z"
           id="path4032" />
        <path
           style="opacity:0.8;fill:url(#linearGradient6473);fill-opacity:1;stroke:none;stroke-width:1.29538584;stroke-linecap:round;stroke-linejoin:miter;stroke-miterlimit:4;stroke-dasharray:none;stroke-dashoffset:0;stroke-opacity:1;display:inline"
           d="M 16.35758,15.093882 L 18.70638,15.706128 C 18.989266,15.223632 18.930953,14.594892 18.51714,14.181078 C 18.025562,13.689501 17.227639,13.689501 16.73606,14.181078 C 16.484535,14.432603 16.351712,14.764027 16.35758,15.093882 z"
           id="path4034" />
        <path
           sodipodi:type="arc"
           style="fill:#ecfbdd;fill-opacity:1;stroke:none;stroke-width:1;stroke-linecap:round;stroke-linejoin:miter;stroke-miterlimit:4;stroke-dasharray:none;stroke-dashoffset:0;stroke-opacity:1"
           id="path4036"
           sodipodi:cx="91.234375"
           sodipodi:cy="6.578125"
           sodipodi:rx="0.734375"
           sodipodi:ry="0.734375"
           d="M 91.96875,6.578125 A 0.734375,0.734375 0 1 1 90.5,6.578125 A 0.734375,0.734375 0 1 1 91.96875,6.578125 z"
           transform="matrix(-0.469939,-0.469939,0.4814344,-0.4814344,42.338293,62.992548)" />
        <path
           sodipodi:type="arc"
           style="fill:#ecfbdd;fill-opacity:1;stroke:none;stroke-width:1;stroke-linecap:round;stroke-linejoin:miter;stroke-miterlimit:4;stroke-dasharray:none;stroke-dashoffset:0;stroke-opacity:1;display:inline"
           id="path4038"
           sodipodi:cx="91.234375"
           sodipodi:cy="6.578125"
           sodipodi:rx="0.734375"
           sodipodi:ry="0.734375"
           d="M 91.96875,6.578125 A 0.734375,0.734375 0 1 1 90.5,6.578125 A 0.734375,0.734375 0 1 1 91.96875,6.578125 z"
           transform="matrix(-0.4814346,-0.4814346,0.4814346,-0.4814346,57.537663,63.342677)" />
      </g>
      <g
         transform="matrix(0.5125654,0,0,0.5269462,29.9657,35.54972)"
         id="g4611">
        <rect
           inkscape:transform-center-x="-0.26691096"
           transform="matrix(0.9659258,-0.258819,0.258819,0.9659258,0,0)"
           inkscape:transform-center-y="0.99612571"
           ry="1.4805118"
           rx="1.4805118"
           y="76.956444"
           x="-80.196159"
           height="4.0000105"
           width="12.034308"
           id="rect4549"
           style="fill:#cc0000;fill-opacity:1;stroke:#a40000;stroke-width:1.92417181;stroke-linecap:round;stroke-linejoin:miter;stroke-miterlimit:4;stroke-dasharray:none;stroke-dashoffset:0;stroke-opacity:1" />
        <rect
           inkscape:transform-center-x="-0.26691096"
           transform="matrix(-0.9659258,-0.258819,-0.258819,0.9659258,0,0)"
           inkscape:transform-center-y="0.99612571"
           ry="1.4805118"
           rx="1.4805118"
           y="96.105034"
           x="-8.7243319"
           height="4.0000105"
           width="12.034308"
           id="rect4551"
           style="fill:#cc0000;fill-opacity:1;stroke:#a40000;stroke-width:1.92417157;stroke-linecap:round;stroke-linejoin:miter;stroke-miterlimit:4;stroke-dasharray:none;stroke-dashoffset:0;stroke-opacity:1" />
        <path
           id="path4553"
           d="M -37,81.5 C -47.459658,81.5 -56.063005,86.115197 -56.9375,92 C -57.505475,93.229253 -57.658859,94.653245 -57.28125,96.0625 C -57.193792,96.388899 -57.072966,96.702183 -56.9375,97 L -45.53125,93.9375 C -45.562842,93.61185 -45.600041,93.263899 -45.6875,92.9375 C -45.895691,92.160519 -46.25952,91.477891 -46.71875,90.875 C -45.341067,88.324703 -41.512137,86.5 -37,86.5 C -32.487862,86.5 -28.658932,88.324703 -27.28125,90.875 C -27.738917,91.476943 -28.073542,92.162323 -28.28125,92.9375 C -28.368709,93.263899 -28.437159,93.611851 -28.46875,93.9375 L -17.0625,97 C -16.927034,96.702183 -16.806211,96.388898 -16.71875,96.0625 C -16.333229,94.623715 -16.496369,93.15269 -17.09375,91.90625 C -18.045278,86.066284 -26.596108,81.5 -37,81.5 z"
           style="fill:url(#radialGradient6475);fill-opacity:1;stroke:#a40000;stroke-width:1.92416465;stroke-linecap:round;stroke-linejoin:miter;stroke-miterlimit:4;stroke-dasharray:none;stroke-dashoffset:0;stroke-opacity:1" />
        <path
           transform="translate(-61,71)"
           d="M 10.28125,18.03125 C 9.5736169,17.93258 8.8345396,17.989006 8.09375,18.1875 C 5.1417658,18.978483 3.3968235,21.986655 4.1875,24.9375 C 4.2294144,25.093927 4.2860071,25.253209 4.34375,25.40625 L 14.9375,22.59375 C 14.913297,22.408905 14.887368,22.225284 14.84375,22.0625 C 14.250695,19.849188 12.415004,18.328774 10.28125,18.03125 z"
           id="path4555"
           style="fill:url(#radialGradient6477);fill-opacity:1;stroke:none;stroke-width:1.00000012;stroke-linecap:round;stroke-linejoin:miter;stroke-miterlimit:4;stroke-dasharray:none;stroke-dashoffset:0;stroke-opacity:1"
           inkscape:original="M 10.34375 17.5625 C 9.5718404 17.454867 8.7685364 17.504448 7.96875 17.71875 C 4.769604 18.57596 2.8615416 21.863355 3.71875 25.0625 C 3.8062083 25.388899 3.9270339 25.702183 4.0625 26 L 15.46875 22.9375 C 15.437158 22.61185 15.399959 22.263899 15.3125 21.9375 C 14.669594 19.538141 12.659479 17.885398 10.34375 17.5625 z "
           inkscape:radius="-0.47406253"
           sodipodi:type="inkscape:offset" />
        <path
           transform="translate(-61,71)"
           d="M 37.75,18.03125 C 35.617916,18.328542 33.780097,19.850896 33.1875,22.0625 C 33.139948,22.239965 33.125627,22.41277 33.09375,22.59375 L 43.65625,25.40625 C 43.713949,25.253325 43.770626,25.093772 43.8125,24.9375 C 44.603318,21.986127 42.886463,18.977673 39.9375,18.1875 C 39.197252,17.989151 38.457043,17.932662 37.75,18.03125 z"
           id="path4557"
           style="fill:url(#radialGradient6479);fill-opacity:1;stroke:none;stroke-width:1.00000012;stroke-linecap:round;stroke-linejoin:miter;stroke-miterlimit:4;stroke-dasharray:none;stroke-dashoffset:0;stroke-opacity:1"
           inkscape:original="M 37.6875 17.5625 C 35.371771 17.885399 33.361656 19.538141 32.71875 21.9375 C 32.631291 22.263899 32.562841 22.611851 32.53125 22.9375 L 43.9375 26 C 44.072966 25.702183 44.193789 25.388898 44.28125 25.0625 C 45.138458 21.863355 43.261646 18.575959 40.0625 17.71875 C 39.262714 17.504448 38.45941 17.454867 37.6875 17.5625 z "
           inkscape:radius="-0.47841442"
           sodipodi:type="inkscape:offset" />
        <path
           sodipodi:nodetypes="csssccccssssssscssssssccccsssss"
           id="path4559"
           d="M 35.28125,21.0625 C 34.977915,21.461459 34.740367,21.890316 34.59375,22.4375 C 34.593637,22.437923 34.608645,22.471368 34.59375,22.53125 C 34.5395,22.685693 34.466004,22.832684 34.375,22.96875 C 34.375084,22.979166 34.375084,22.989584 34.375,23 L 34.25,23.46875 L 42.15625,25.5625 L 42.28125,25.09375 C 42.281166,25.083334 42.281166,25.072916 42.28125,25.0625 C 42.281166,25.052084 42.281166,25.041666 42.28125,25.03125 C 42.28981,24.904512 42.310743,24.778914 42.34375,24.65625 C 42.468217,24.248108 42.497762,24.220984 42.40625,24.5625 C 42.670277,23.577136 42.555164,22.582336 42.15625,21.75 C 42.068346,21.582934 42.005186,21.403981 41.96875,21.21875 C 41.628991,19.133492 39.808791,16.941576 36.59375,15.25 C 33.378709,13.558424 28.9169,12.4375 24,12.4375 C 19.056734,12.4375 14.567079,13.542929 11.34375,15.25 C 8.1204212,16.957071 6.3115862,19.18447 6,21.28125 C 5.9734728,21.464869 5.9208583,21.643758 5.84375,21.8125 C 5.4600608,22.642908 5.3352045,23.597595 5.59375,24.5625 C 5.502233,24.220953 5.5317778,24.248086 5.65625,24.65625 C 5.6707961,24.728517 5.6812295,24.801551 5.6875,24.875 C 5.7020461,24.947267 5.7124795,25.020301 5.71875,25.09375 L 5.84375,25.5625 L 13.75,23.46875 L 13.59375,22.875 C 13.659981,23.122181 13.677649,23.168216 13.59375,23 C 13.521987,22.851013 13.469481,22.693497 13.4375,22.53125 C 13.375743,22.238531 13.37436,22.201863 13.4375,22.4375 C 13.302345,21.933093 13.048987,21.496045 12.71875,21.0625 C 12.249703,20.447892 12.188395,19.614105 12.5625,18.9375"
           style="opacity:0.58620689;fill:none;fill-opacity:1;stroke:url(#radialGradient6481);stroke-width:1.92416465;stroke-linecap:round;stroke-linejoin:miter;stroke-miterlimit:4;stroke-dashoffset:0;stroke-opacity:1"
           transform="translate(-61,71)" />
        <path
           transform="matrix(1,0,0,1.077496,-32.25565,58.756381)"
           d="M 11.755651,30.852661 A 2.9831069,1.8561553 0 1 1 5.7894371,30.852661 A 2.9831069,1.8561553 0 1 1 11.755651,30.852661 z"
           sodipodi:ry="1.8561553"
           sodipodi:rx="2.9831069"
           sodipodi:cy="30.852661"
           sodipodi:cx="8.7725439"
           id="path4561"
           style="opacity:0.5;fill:url(#linearGradient6483);fill-opacity:1;stroke:none;stroke-width:1.29538584;stroke-linecap:round;stroke-linejoin:miter;stroke-miterlimit:4;stroke-dasharray:none;stroke-dashoffset:0;stroke-opacity:1;display:inline"
           sodipodi:type="arc" />
        <path
           transform="matrix(1,0,0,1.077496,-61.25565,58.756381)"
           d="M 11.755651,30.852661 A 2.9831069,1.8561553 0 1 1 5.7894371,30.852661 A 2.9831069,1.8561553 0 1 1 11.755651,30.852661 z"
           sodipodi:ry="1.8561553"
           sodipodi:rx="2.9831069"
           sodipodi:cy="30.852661"
           sodipodi:cx="8.7725439"
           id="path4563"
           style="opacity:0.5;fill:url(#linearGradient6485);fill-opacity:1;stroke:none;stroke-width:1.29538584;stroke-linecap:round;stroke-linejoin:miter;stroke-miterlimit:4;stroke-dasharray:none;stroke-dashoffset:0;stroke-opacity:1;display:inline"
           sodipodi:type="arc" />
      </g>
    </g>
  </g>
  <g
     inkscape:groupmode="layer"
     id="layer2"
     inkscape:label="troiai"
     style="display:none">
    <path
       sodipodi:type="arc"
       style="opacity:0.9;fill:#ef2929;fill-opacity:1;stroke:#a40000;stroke-width:1.21590912;stroke-linecap:round;stroke-linejoin:miter;stroke-miterlimit:4;stroke-dasharray:none;stroke-dashoffset:0;stroke-opacity:1"
       id="path2763"
       sodipodi:cx="11.3125"
       sodipodi:cy="21.4375"
       sodipodi:rx="6.6875"
       sodipodi:ry="6.6875"
       d="M 18,21.4375 A 6.6875,6.6875 0 1 1 4.625,21.4375 A 6.6875,6.6875 0 1 1 18,21.4375 z"
       transform="matrix(0.82243,0,0,0.82243,-68.30374,4.369158)" />
    <path
       sodipodi:type="arc"
       style="opacity:0.9;fill:#ef2929;fill-opacity:1;stroke:#a40000;stroke-width:1.21590912;stroke-linecap:round;stroke-linejoin:miter;stroke-miterlimit:4;stroke-dasharray:none;stroke-dashoffset:0;stroke-opacity:1"
       id="path2765"
       sodipodi:cx="11.3125"
       sodipodi:cy="21.4375"
       sodipodi:rx="6.6875"
       sodipodi:ry="6.6875"
       d="M 18,21.4375 A 6.6875,6.6875 0 1 1 4.625,21.4375 A 6.6875,6.6875 0 1 1 18,21.4375 z"
       transform="matrix(0.82243,0,0,0.82243,-42.30374,4.369158)" />
    <path
       sodipodi:type="arc"
       style="opacity:0.6;fill:#ef2929;fill-opacity:1;stroke:#a40000;stroke-width:0.87122524;stroke-linecap:round;stroke-linejoin:miter;stroke-miterlimit:4;stroke-dasharray:none;stroke-dashoffset:0;stroke-opacity:1"
       id="path2767"
       sodipodi:cx="24.1875"
       sodipodi:cy="21.375"
       sodipodi:rx="16.5625"
       sodipodi:ry="9.75"
       d="M 40.75,21.375 A 16.5625,9.75 0 1 1 7.625,21.375 A 16.5625,9.75 0 1 1 40.75,21.375 z"
       transform="matrix(1.116981,0,0,1.179487,-73.01698,-3.211538)" />
    <path
       sodipodi:type="arc"
       style="opacity:0.6;fill:#ef2929;fill-opacity:1;stroke:#a40000;stroke-width:1.62041819;stroke-linecap:round;stroke-linejoin:miter;stroke-miterlimit:4;stroke-dasharray:none;stroke-dashoffset:0;stroke-opacity:1"
       id="path2769"
       sodipodi:cx="24.1875"
       sodipodi:cy="21.375"
       sodipodi:rx="16.5625"
       sodipodi:ry="9.75"
       d="M 40.75,21.375 A 16.5625,9.75 0 1 1 7.625,21.375 A 16.5625,9.75 0 1 1 40.75,21.375 z"
       transform="matrix(0.573586,0,0,0.663968,-59.87362,7.781372)" />
    <path
       style="opacity:0.6;fill:#ef2929;fill-opacity:1;stroke:#a40000;stroke-width:1;stroke-linecap:round;stroke-linejoin:miter;stroke-miterlimit:4;stroke-dasharray:none;stroke-dashoffset:0;stroke-opacity:1"
       d="M 23.99999,70.5 C 12.959975,70.5 3.9999611,75.652001 3.999961,82 L 13.729705,82 C 13.729624,81.989472 13.729705,81.97929 13.729705,81.96875 C 13.729705,78.395274 18.330782,75.5 23.99999,75.5 C 29.6692,75.5 34.270275,78.395274 34.270275,81.96875 C 34.270275,81.97929 34.270356,81.989472 34.270275,82 L 44.00002,82 C 44.00002,75.652001 35.040006,70.5 23.99999,70.5 z"
       id="path2805" />
    <path
       sodipodi:type="arc"
       style="opacity:0.9;fill:#ef2929;fill-opacity:1;stroke:#a40000;stroke-width:1.11458337;stroke-linecap:round;stroke-linejoin:miter;stroke-miterlimit:4;stroke-dasharray:none;stroke-dashoffset:0;stroke-opacity:1"
       id="path2807"
       sodipodi:cx="11.3125"
       sodipodi:cy="21.4375"
       sodipodi:rx="6.6875"
       sodipodi:ry="6.6875"
       d="M 18,21.4375 A 6.6875,6.6875 0 1 1 4.625,21.4375 A 6.6875,6.6875 0 1 1 18,21.4375 z"
       transform="matrix(0.897196,0,0,0.897196,-0.649528,64.26636)" />
    <path
       sodipodi:type="arc"
       style="opacity:0.9;fill:#ef2929;fill-opacity:1;stroke:#a40000;stroke-width:1.11458337;stroke-linecap:round;stroke-linejoin:miter;stroke-miterlimit:4;stroke-dasharray:none;stroke-dashoffset:0;stroke-opacity:1"
       id="path2809"
       sodipodi:cx="11.3125"
       sodipodi:cy="21.4375"
       sodipodi:rx="6.6875"
       sodipodi:ry="6.6875"
       d="M 18,21.4375 A 6.6875,6.6875 0 1 1 4.625,21.4375 A 6.6875,6.6875 0 1 1 18,21.4375 z"
       transform="matrix(0.897196,0,0,0.897196,28.35047,64.26636)" />
    <path
       style="fill:#ef2929;fill-opacity:1;stroke:#a40000;stroke-width:1.00000012;stroke-linecap:round;stroke-linejoin:miter;stroke-miterlimit:4;stroke-dasharray:none;stroke-dashoffset:0;stroke-opacity:1"
       d="M 7.9557575,-22.292184 C 4.7566116,-21.434975 2.8559071,-18.142859 3.7131155,-14.943714 C 3.8005738,-14.617315 3.927024,-14.299869 4.0624901,-14.002052 L 15.472491,-17.059351 C 15.440899,-17.385001 15.391686,-17.723143 15.304227,-18.049542 C 14.447019,-21.248687 11.154903,-23.149392 7.9557575,-22.292184 z"
       id="path2840"
       inkscape:transform-center-x="0.027159543"
       inkscape:transform-center-y="-1.7187079" />
    <path
       style="fill:#ef2929;fill-opacity:1;stroke:#a40000;stroke-width:1.00000012;stroke-linecap:round;stroke-linejoin:miter;stroke-miterlimit:4;stroke-dasharray:none;stroke-dashoffset:0;stroke-opacity:1"
       d="M 40.051683,-22.294327 C 43.250828,-21.437118 45.151533,-18.145002 44.294325,-14.945857 C 44.206866,-14.619458 44.080416,-14.302012 43.94495,-14.004195 L 32.534949,-17.061494 C 32.566541,-17.387144 32.615754,-17.725286 32.703213,-18.051685 C 33.560421,-21.25083 36.852537,-23.151535 40.051683,-22.294327 z"
       id="path2842"
       inkscape:transform-center-x="0.027159543"
       inkscape:transform-center-y="-1.7187079" />
  </g>
</svg>
