<?xml version="1.0" encoding="UTF-8" standalone="no"?>
<!-- Created with Inkscape (http://www.inkscape.org/) -->
<svg
   xmlns:dc="http://purl.org/dc/elements/1.1/"
   xmlns:cc="http://web.resource.org/cc/"
   xmlns:rdf="http://www.w3.org/1999/02/22-rdf-syntax-ns#"
   xmlns:svg="http://www.w3.org/2000/svg"
   xmlns="http://www.w3.org/2000/svg"
   xmlns:xlink="http://www.w3.org/1999/xlink"
   xmlns:sodipodi="http://sodipodi.sourceforge.net/DTD/sodipodi-0.dtd"
   xmlns:inkscape="http://www.inkscape.org/namespaces/inkscape"
   width="22"
   height="22"
   id="svg2"
   sodipodi:version="0.32"
   inkscape:version="0.45"
   version="1.0"
   sodipodi:docbase="/home/lapo/Icone/format-text/22x22"
   sodipodi:docname="format-text-bold.svg"
   inkscape:output_extension="org.inkscape.output.svg.inkscape"
   inkscape:export-filename="/home/lapo/Desktop/format-text.png"
   inkscape:export-xdpi="90"
   inkscape:export-ydpi="90">
  <defs
     id="defs4">
    <linearGradient
       inkscape:collect="always"
       id="linearGradient3464">
      <stop
         style="stop-color:#888a85;stop-opacity:1"
         offset="0"
         id="stop3466" />
      <stop
         style="stop-color:#555753;stop-opacity:1"
         offset="1"
         id="stop3468" />
    </linearGradient>
    <linearGradient
       inkscape:collect="always"
       id="linearGradient3787">
      <stop
         style="stop-color:#000000;stop-opacity:1"
         offset="0"
         id="stop3789" />
      <stop
         style="stop-color:#000000;stop-opacity:0"
         offset="1"
         id="stop3791" />
    </linearGradient>
    <linearGradient
       id="linearGradient4256"
       inkscape:collect="always">
      <stop
         id="stop4258"
         offset="0"
         style="stop-color:#ffffff;stop-opacity:1;" />
      <stop
         id="stop4260"
         offset="1"
         style="stop-color:#ffffff;stop-opacity:0;" />
    </linearGradient>
    <linearGradient
       inkscape:collect="always"
       xlink:href="#linearGradient4256"
       id="linearGradient3782"
       gradientUnits="userSpaceOnUse"
       x1="10.386932"
       y1="15.424131"
       x2="14.555588"
       y2="8.153533"
       gradientTransform="matrix(1,0,0,-1,33,21.001565)" />
    <radialGradient
       inkscape:collect="always"
       xlink:href="#linearGradient3787"
       id="radialGradient3793"
       cx="11.03125"
       cy="17.125"
       fx="11.03125"
       fy="17.125"
       r="9.84375"
       gradientTransform="matrix(1,0,0,0.2730159,0,12.449603)"
       gradientUnits="userSpaceOnUse" />
    <linearGradient
       inkscape:collect="always"
       xlink:href="#linearGradient4256"
       id="linearGradient4237"
       gradientUnits="userSpaceOnUse"
       gradientTransform="matrix(1,0,0,-1,3,-8.998435)"
       x1="0.5915947"
       y1="11.553171"
       x2="16.993088"
       y2="0.059782967" />
    <radialGradient
       inkscape:collect="always"
       xlink:href="#linearGradient3464"
       id="radialGradient3474"
       cx="44.001678"
       cy="16.424559"
       fx="44.001678"
       fy="16.424559"
       r="9.0001011"
       gradientTransform="matrix(2.5511273,0,0,1.6493193,-64.253785,-7.9033609)"
       gradientUnits="userSpaceOnUse" />
  </defs>
  <sodipodi:namedview
     id="base"
     pagecolor="#8c86cb"
     bordercolor="#afafaf"
     borderopacity="1"
     inkscape:pageopacity="0"
     inkscape:pageshadow="2"
     inkscape:zoom="1"
     inkscape:cx="-126.04297"
     inkscape:cy="72.510869"
     inkscape:document-units="px"
     inkscape:current-layer="layer1"
     width="22px"
     height="22px"
     gridspacingx="0.5px"
     gridspacingy="0.5px"
     inkscape:showpageshadow="false"
     borderlayer="true"
     gridempspacing="2"
     inkscape:window-width="1023"
     inkscape:window-height="797"
     inkscape:window-x="77"
     inkscape:window-y="53"
     showgrid="false"
     showborder="true"
     showguides="false"
     inkscape:guide-bbox="false"
     inkscape:grid-points="true"
     inkscape:grid-bbox="false">
    <sodipodi:guide
       orientation="vertical"
       position="10"
       id="guide3217" />
    <sodipodi:guide
       orientation="horizontal"
       position="39.125"
       id="guide3219" />
    <sodipodi:guide
       orientation="vertical"
       position="23.997436"
       id="guide3221" />
    <sodipodi:guide
       orientation="horizontal"
       position="4.125"
       id="guide3544" />
    <sodipodi:guide
       orientation="horizontal"
       position="5"
       id="guide4317" />
    <sodipodi:guide
       orientation="vertical"
       position="3"
       id="guide4887" />
    <sodipodi:guide
       orientation="vertical"
       position="44.989669"
       id="guide4889" />
    <sodipodi:guide
       orientation="horizontal"
       position="28"
       id="guide3281" />
    <sodipodi:guide
       orientation="horizontal"
       position="24.96875"
       id="guide3361" />
    <sodipodi:guide
       orientation="horizontal"
       position="20.948038"
       id="guide3363" />
    <sodipodi:guide
       orientation="horizontal"
       position="9"
       id="guide4351" />
  </sodipodi:namedview>
  <metadata
     id="metadata7">
    <rdf:RDF>
      <cc:Work
         rdf:about="">
        <dc:format>image/svg+xml</dc:format>
        <dc:type
           rdf:resource="http://purl.org/dc/dcmitype/StillImage" />
        <dc:creator>
          <cc:Agent>
            <dc:title>Lapo Calamandrei</dc:title>
          </cc:Agent>
        </dc:creator>
        <cc:license
           rdf:resource="http://creativecommons.org/licenses/GPL/2.0/" />
      </cc:Work>
      <cc:License
         rdf:about="http://creativecommons.org/licenses/GPL/2.0/">
        <cc:permits
           rdf:resource="http://web.resource.org/cc/Reproduction" />
        <cc:permits
           rdf:resource="http://web.resource.org/cc/Distribution" />
        <cc:requires
           rdf:resource="http://web.resource.org/cc/Notice" />
        <cc:permits
           rdf:resource="http://web.resource.org/cc/DerivativeWorks" />
        <cc:requires
           rdf:resource="http://web.resource.org/cc/ShareAlike" />
        <cc:requires
           rdf:resource="http://web.resource.org/cc/SourceCode" />
      </cc:License>
    </rdf:RDF>
  </metadata>
  <g
     inkscape:label="Livello 1"
     inkscape:groupmode="layer"
     id="layer1"
     style="display:inline">
    <g
       style="display:inline"
       id="g3532"
       transform="matrix(1.1234418,0,-0.7136519,1.2607334,166.69725,2.9002995)"
       inkscape:export-filename="/home/lapo/Desktop/format-text.png"
       inkscape:export-xdpi="90"
       inkscape:export-ydpi="90" />
    <g
       style="fill:#fce94f;stroke:none;display:inline"
       id="g3557"
       transform="matrix(1.1234418,0,-0.7136519,1.2607334,166.69725,2.9002995)"
       inkscape:export-filename="/home/lapo/Desktop/format-text.png"
       inkscape:export-xdpi="90"
       inkscape:export-ydpi="90" />
    <g
       id="g5584"
       inkscape:export-filename="/home/lapo/Desktop/format-text.png"
       inkscape:export-xdpi="90"
       inkscape:export-ydpi="90"
       transform="translate(0,30)">
      <path
         inkscape:export-ydpi="90"
         inkscape:export-xdpi="90"
         inkscape:export-filename="/home/lapo/Desktop/format-text.png"
         transform="matrix(1.1174603,0,0,0.8372092,-1.32698,-27.087207)"
         d="M 20.875 17.125 A 9.84375 2.6875 0 1 1  1.1875,17.125 A 9.84375 2.6875 0 1 1  20.875 17.125 z"
         sodipodi:ry="2.6875"
         sodipodi:rx="9.84375"
         sodipodi:cy="17.125"
         sodipodi:cx="11.03125"
         id="path3785"
         style="opacity:0.6;color:#000000;fill:url(#radialGradient3793);fill-opacity:1;fill-rule:nonzero;stroke:none;stroke-width:1;stroke-linecap:round;stroke-linejoin:miter;marker:none;marker-start:none;marker-mid:none;marker-end:none;stroke-miterlimit:4;stroke-dasharray:none;stroke-dashoffset:0;stroke-opacity:1;visibility:visible;display:inline;overflow:visible;enable-background:accumulate"
         sodipodi:type="arc" />
      <g
         inkscape:export-ydpi="90"
         inkscape:export-xdpi="90"
         inkscape:export-filename="/home/lapo/Desktop/format-text.png"
         transform="translate(3,-29.001565)"
         id="g3776"
         style="display:inline">
        <path
           sodipodi:nodetypes="csccscsscccssccsccsccsccscccssccccsssssc"
           id="path3778"
           d="M 42,-0.5 C 41.866246,-0.503858 41.736815,-0.4524194 41.642198,-0.357802 C 41.547581,-0.2631845 41.496142,-0.1337537 41.5,0 L 41.5,2 C 41.496142,2.1337537 41.547581,2.2631845 41.642198,2.357802 C 41.736815,2.4524194 41.866246,2.503858 42,2.5 C 45.000107,2.5 47.771516,2.5034692 48.625,2.75 C 49.051742,2.8732654 49.194536,3.014441 49.3125,3.21875 C 49.430464,3.423059 49.498152,3.7680891 49.5,4.3125 L 49.5,4.5 L 46,4.5 C 44.821539,4.5227944 42.524606,4.5165905 41.4375,4.9375 C 40.893947,5.1479548 40.378886,5.4872257 40.03125,6 C 39.683614,6.5127743 39.5,9.1789739 39.5,10 C 40.089014,13.546349 41.307837,13.478229 44,13.5 C 44.581023,13.5 46.58801,13.352997 47.625,13.09375 C 48.30489,12.923777 48.928528,12.680176 49.5,12.375 L 49.5,13 C 49.496142,13.133754 49.547581,13.263185 49.642198,13.357802 C 49.736815,13.452419 49.866246,13.503858 50,13.5 L 56,13.5 C 56.133754,13.503858 56.263185,13.452419 56.357802,13.357802 C 56.452419,13.263185 56.503858,13.133754 56.5,13 L 56.5,11 C 56.503858,10.866246 56.452419,10.736815 56.357802,10.642198 C 56.263185,10.547581 56.133754,10.496142 56,10.5 L 54.5,10.5 L 54.5,5.125 C 54.5,4.0647195 54.384855,2.2545209 54.15625,1.59375 C 53.927645,0.9329791 53.551078,0.4088838 53.03125,0.09375 C 51.991594,-0.5365177 49.604757,-0.4942165 47.71875,-0.5 C 45.995996,-0.4884564 43.5025,-0.5 42,-0.5 z M 49.5,7.5 L 49.5,8.71875 C 48.796137,9.380057 47.44848,10.172298 46.34375,10.375 C 45.759158,10.482264 45.290743,10.413383 45,10.21875 C 44.709257,10.024117 44.497402,9.677797 44.5,8.875 C 44.497479,8.4685623 44.565386,8.2470771 44.6875,8.09375 C 44.809614,7.9404229 45.027291,7.789316 45.4375,7.6875 C 46.185,7.5019664 47.570062,7.5033054 49.5,7.5 z "
           style="font-size:21.15485954px;font-style:normal;font-weight:bold;fill:url(#radialGradient3474);fill-opacity:1;stroke:#2e3436;stroke-width:1px;stroke-linecap:butt;stroke-linejoin:miter;stroke-opacity:1;font-family:Bitstream Vera Serif"
           transform="translate(-40,3)" />
        <path
           sodipodi:nodetypes="cccccccccccccsc"
           id="path3780"
           transform="translate(-33,-0.9984346)"
           d="M 35,4 L 35,5 L 35,6.015625 L 36,5 C 37.20131,5.001985 38.646286,5.0071862 39.71875,5 C 45.679602,5 46,5.002432 46,9.125 L 46,16 L 48,16 L 49,16 L 49,15 L 47,15 L 47,8.125 C 47,4.0024316 45.586837,4 40.71875,4 C 39.293902,4.0095475 37.479622,4.0024632 36,4 C 35.686438,3.999478 35.262295,4 35,4 z "
           style="font-size:21.15485954px;font-style:normal;font-weight:bold;opacity:0.4;fill:url(#linearGradient3782);fill-opacity:1;stroke:none;stroke-width:1px;stroke-linecap:butt;stroke-linejoin:miter;stroke-opacity:1;font-family:Bitstream Vera Serif" />
      </g>
      <path
         inkscape:export-ydpi="90"
         inkscape:export-xdpi="90"
         inkscape:export-filename="/home/lapo/Desktop/format-text.png"
         sodipodi:nodetypes="cccccccccc"
         id="path4235"
         d="M 8,-21 C 6.10068,-20.963263 4.02715,-20.971063 3.28125,-19.4375 C 4.26453,-19.963679 5.6668,-19.974213 7,-20 C 11.9148,-20.11199 10.98257,-20.685586 12.9375,-21.03125 L 8,-21 z M 6.5,-16.125 C 6.4883,-12.510556 10.49214,-14.500353 12,-16.0625 L 12,-16.28125 C 10.08477,-15.003198 6.99028,-14.120575 7,-17.125 C 7.00756,-18.119586 6.48665,-17.655884 6.5,-16.125 z "
         style="font-size:21.15485954px;font-style:normal;font-weight:bold;opacity:0.757318;fill:url(#linearGradient4237);fill-opacity:1;stroke:none;stroke-width:1px;stroke-linecap:butt;stroke-linejoin:miter;stroke-opacity:1;display:inline;font-family:Bitstream Vera Serif" />
      <path
         sodipodi:nodetypes="cccccc"
         id="path3590"
         d="M 16,-14 L 18,-14 L 19,-14 L 19,-15 L 17,-15 L 16,-14 z "
         style="font-size:21.15485954px;font-style:normal;font-weight:bold;opacity:0.24904217;fill:#ffffff;fill-opacity:1;stroke:none;stroke-width:1px;stroke-linecap:butt;stroke-linejoin:miter;stroke-opacity:1;display:inline;font-family:Bitstream Vera Serif" />
    </g>
  </g>
</svg>
