<?xml version="1.0" encoding="UTF-8" standalone="no"?>
<!-- Created with Inkscape (http://www.inkscape.org/) -->
<svg
   xmlns:dc="http://purl.org/dc/elements/1.1/"
   xmlns:cc="http://web.resource.org/cc/"
   xmlns:rdf="http://www.w3.org/1999/02/22-rdf-syntax-ns#"
   xmlns:svg="http://www.w3.org/2000/svg"
   xmlns="http://www.w3.org/2000/svg"
   xmlns:xlink="http://www.w3.org/1999/xlink"
   xmlns:sodipodi="http://sodipodi.sourceforge.net/DTD/sodipodi-0.dtd"
   xmlns:inkscape="http://www.inkscape.org/namespaces/inkscape"
   width="22"
   height="22"
   id="svg2"
   sodipodi:version="0.32"
   inkscape:version="0.45"
   version="1.0"
   sodipodi:docbase="/home/dobey/Projects/gnome-icon-theme/22x22/actions"
   sodipodi:docname="format-text-underline.svg"
   inkscape:output_extension="org.inkscape.output.svg.inkscape"
   inkscape:export-filename="/home/lapo/Desktop/format-text.png"
   inkscape:export-xdpi="90"
   inkscape:export-ydpi="90">
  <defs
     id="defs4">
    <linearGradient
       inkscape:collect="always"
       id="linearGradient3787">
      <stop
         style="stop-color:#000000;stop-opacity:1"
         offset="0"
         id="stop3789" />
      <stop
         style="stop-color:#000000;stop-opacity:0"
         offset="1"
         id="stop3791" />
    </linearGradient>
    <linearGradient
       inkscape:collect="always"
       id="linearGradient3185">
      <stop
         style="stop-color:#888a85;stop-opacity:1"
         offset="0"
         id="stop3187" />
      <stop
         style="stop-color:#555753;stop-opacity:1"
         offset="1"
         id="stop3189" />
    </linearGradient>
    <linearGradient
       id="linearGradient4256"
       inkscape:collect="always">
      <stop
         id="stop4258"
         offset="0"
         style="stop-color:#ffffff;stop-opacity:1;" />
      <stop
         id="stop4260"
         offset="1"
         style="stop-color:#ffffff;stop-opacity:0;" />
    </linearGradient>
    <linearGradient
       inkscape:collect="always"
       xlink:href="#linearGradient4256"
       id="linearGradient3809"
       gradientUnits="userSpaceOnUse"
       x1="7.2478447"
       y1="6.3656702"
       x2="12.993087"
       y2="16.751301" />
    <radialGradient
       inkscape:collect="always"
       xlink:href="#linearGradient3185"
       id="radialGradient3813"
       gradientUnits="userSpaceOnUse"
       gradientTransform="matrix(1.1706733,6.11754e-6,0,0.4155624,62.41864,-17.378912)"
       cx="3.8879435"
       cy="14.134427"
       fx="3.8879435"
       fy="14.134427"
       r="7" />
    <radialGradient
       inkscape:collect="always"
       xlink:href="#linearGradient3787"
       id="radialGradient3817"
       gradientUnits="userSpaceOnUse"
       gradientTransform="matrix(1,0,0,0.2730159,0,12.449603)"
       cx="11.03125"
       cy="17.125"
       fx="11.03125"
       fy="17.125"
       r="9.84375" />
  </defs>
  <sodipodi:namedview
     id="base"
     pagecolor="#8c86cb"
     bordercolor="#afafaf"
     borderopacity="1"
     inkscape:pageopacity="0"
     inkscape:pageshadow="2"
     inkscape:zoom="1"
     inkscape:cx="-126.04297"
     inkscape:cy="72.510869"
     inkscape:document-units="px"
     inkscape:current-layer="layer1"
     width="22px"
     height="22px"
     gridspacingx="0.5px"
     gridspacingy="0.5px"
     inkscape:showpageshadow="false"
     borderlayer="true"
     gridempspacing="2"
     inkscape:window-width="1023"
     inkscape:window-height="797"
     inkscape:window-x="77"
     inkscape:window-y="53"
     showgrid="false"
     showborder="true"
     showguides="false"
     inkscape:guide-bbox="false"
     inkscape:grid-points="true"
     inkscape:grid-bbox="false">
    <sodipodi:guide
       orientation="vertical"
       position="10"
       id="guide3217" />
    <sodipodi:guide
       orientation="horizontal"
       position="39.125"
       id="guide3219" />
    <sodipodi:guide
       orientation="vertical"
       position="23.997436"
       id="guide3221" />
    <sodipodi:guide
       orientation="horizontal"
       position="4.125"
       id="guide3544" />
    <sodipodi:guide
       orientation="horizontal"
       position="5"
       id="guide4317" />
    <sodipodi:guide
       orientation="vertical"
       position="3"
       id="guide4887" />
    <sodipodi:guide
       orientation="vertical"
       position="44.989669"
       id="guide4889" />
    <sodipodi:guide
       orientation="horizontal"
       position="28"
       id="guide3281" />
    <sodipodi:guide
       orientation="horizontal"
       position="24.96875"
       id="guide3361" />
    <sodipodi:guide
       orientation="horizontal"
       position="20.948038"
       id="guide3363" />
    <sodipodi:guide
       orientation="horizontal"
       position="9"
       id="guide4351" />
  </sodipodi:namedview>
  <metadata
     id="metadata7">
    <rdf:RDF>
      <cc:Work
         rdf:about="">
        <dc:format>image/svg+xml</dc:format>
        <dc:type
           rdf:resource="http://purl.org/dc/dcmitype/StillImage" />
        <dc:creator>
          <cc:Agent>
            <dc:title>Lapo Calamandrei</dc:title>
          </cc:Agent>
        </dc:creator>
        <cc:license
           rdf:resource="http://creativecommons.org/licenses/GPL/2.0/" />
      </cc:Work>
      <cc:License
         rdf:about="http://creativecommons.org/licenses/GPL/2.0/">
        <cc:permits
           rdf:resource="http://web.resource.org/cc/Reproduction" />
        <cc:permits
           rdf:resource="http://web.resource.org/cc/Distribution" />
        <cc:requires
           rdf:resource="http://web.resource.org/cc/Notice" />
        <cc:permits
           rdf:resource="http://web.resource.org/cc/DerivativeWorks" />
        <cc:requires
           rdf:resource="http://web.resource.org/cc/ShareAlike" />
        <cc:requires
           rdf:resource="http://web.resource.org/cc/SourceCode" />
      </cc:License>
    </rdf:RDF>
  </metadata>
  <g
     inkscape:label="Livello 1"
     inkscape:groupmode="layer"
     id="layer1"
     style="display:inline">
    <g
       id="g5592"
       inkscape:export-filename="/home/lapo/Desktop/format-text.png"
       inkscape:export-xdpi="90"
       inkscape:export-ydpi="90"
       transform="translate(-60,30)">
      <g
         inkscape:export-ydpi="90"
         inkscape:export-xdpi="90"
         inkscape:export-filename="/home/lapo/Desktop/format-text.png"
         transform="translate(64,-31.001565)"
         id="g3801"
         style="display:inline">
        <path
           sodipodi:nodetypes="csccscsscccsssccccsccsccscccssccccsssssc"
           id="path3803"
           d="M 43,-0.5 C 42.866246,-0.503858 42.736815,-0.4524194 42.642198,-0.357802 C 42.547581,-0.2631845 42.496142,-0.1337537 42.5,0 L 42.5,1 C 42.496142,1.1337537 42.547581,1.2631845 42.642198,1.357802 C 42.736815,1.4524194 42.866246,1.503858 43,1.5 C 46.000107,1.5 47.771516,1.5034692 48.625,1.75 C 49.051742,1.8732654 49.194536,2.014441 49.3125,2.21875 C 49.430464,2.423059 49.498152,3.7680891 49.5,4.3125 L 49.5,4.5 L 46,4.5 C 44.821539,4.5227944 43.524606,4.5165905 42.4375,4.9375 C 41.893947,5.1479548 41.378886,5.4872257 41.03125,6 C 40.683614,6.5127743 40.5,9.1789739 40.5,10 C 40.5,10.763504 40.536984,11.348337 40.65625,11.84375 C 41.774979,14.389902 45.235068,13.483189 47.492417,13.005362 C 48.172307,12.835389 48.928528,12.680176 49.5,12.375 L 49.5,13 C 49.496142,13.133754 49.547581,13.263185 49.642198,13.357802 C 49.736815,13.452419 49.866246,13.503858 50,13.5 L 54,13.5 C 54.133754,13.503858 54.263185,13.452419 54.357802,13.357802 C 54.452419,13.263185 54.503858,13.133754 54.5,13 L 54.5,12 C 54.503858,11.866246 54.452419,11.736815 54.357802,11.642198 C 54.263185,11.547581 54.133754,11.496142 54,11.5 L 52.5,11.5 L 52.5,5.125 C 52.5,4.0647195 52.384855,2.2545209 52.15625,1.59375 C 51.927645,0.9329791 51.551078,0.4088838 51.03125,0.09375 C 49.991594,-0.5365177 49.604757,-0.4942165 47.71875,-0.5 C 45.995996,-0.4884564 44.5025,-0.5 43,-0.5 z M 49.5,6.5 L 49.5,9.375 C 49.194836,10.513889 46.44848,11.172298 45.34375,11.375 C 44.759158,11.482264 44.290743,11.413383 44,11.21875 C 43.709257,11.024117 43.497402,10.677797 43.5,9.875 C 43.497479,9.4685623 43.565386,7.2470771 43.6875,7.09375 C 43.809614,6.9404229 44.027291,6.789316 44.4375,6.6875 C 45.185,6.5019664 47.570062,6.5033054 49.5,6.5 z "
           style="font-size:21.15485954px;font-style:normal;font-weight:bold;fill:#555753;fill-opacity:1;stroke:#2e3436;stroke-width:1px;stroke-linecap:butt;stroke-linejoin:miter;stroke-opacity:1;font-family:Bitstream Vera Serif"
           transform="translate(-40,3)" />
        <path
           sodipodi:nodetypes="cccccccccccccccccccccccsc"
           style="font-size:21.15485954px;font-style:normal;font-weight:bold;opacity:0.4;fill:url(#linearGradient3809);fill-opacity:1;stroke:none;stroke-width:1px;stroke-linecap:butt;stroke-linejoin:miter;stroke-opacity:1;font-family:Bitstream Vera Serif"
           d="M 3,3 L 3,4 C 4.1901464,3.9995905 5.3578928,4.0091186 6.71875,4 C 10.491948,4.0115709 11,4.002432 11,8.125 L 11,16 L 13,16 L 14,16 L 14,15 L 12,15 L 12,7.125 C 12,3.002432 10.308492,3 7.71875,3 C 5.991948,3.0115707 4.5,3 3,3 z M 6,8 C 4.1006816,8.0367372 2.027151,8.0289371 1.28125,9.5625 C 2.264525,9.036321 3.6667974,9.025787 5,9 L 9,9 L 9,8.3125 C 8.9995899,8.1916851 8.9751262,8.1085413 8.96875,8 L 6,8 z M 3.09375,11.34375 C 2.3400912,11.599303 1.9947007,13.020751 2,13.875 C 1.9883029,17.489444 7.492137,15.499647 9,13.9375 L 9,13.71875 C 5.9597658,14.996802 2.9902773,15.879425 3,12.875 C 2.9987524,12.673882 3.0587947,11.504253 3.09375,11.34375 z "
           id="path3805" />
      </g>
      <path
         inkscape:export-ydpi="90"
         inkscape:export-xdpi="90"
         inkscape:export-filename="/home/lapo/Desktop/format-text.png"
         transform="matrix(1.015873,0,0,0.8372092,59.79365,-25.087207)"
         d="M 20.875 17.125 A 9.84375 2.6875 0 1 1  1.1875,17.125 A 9.84375 2.6875 0 1 1  20.875 17.125 z"
         sodipodi:ry="2.6875"
         sodipodi:rx="9.84375"
         sodipodi:cy="17.125"
         sodipodi:cx="11.03125"
         id="path3815"
         style="opacity:0.6;color:#000000;fill:url(#radialGradient3817);fill-opacity:1;fill-rule:nonzero;stroke:none;stroke-width:1;stroke-linecap:round;stroke-linejoin:miter;marker:none;marker-start:none;marker-mid:none;marker-end:none;stroke-miterlimit:4;stroke-dasharray:none;stroke-dashoffset:0;stroke-opacity:1;visibility:visible;display:inline;overflow:visible;enable-background:accumulate"
         sodipodi:type="arc" />
      <rect
         inkscape:export-ydpi="90"
         inkscape:export-xdpi="90"
         inkscape:export-filename="/home/lapo/Desktop/format-text.png"
         ry="0.54054403"
         rx="0.54054403"
         y="-12.5"
         x="64.5"
         height="2"
         width="14"
         id="rect3811"
         style="opacity:1;color:#000000;fill:url(#radialGradient3813);fill-opacity:1;fill-rule:nonzero;stroke:#2e3436;stroke-width:1;stroke-linecap:round;stroke-linejoin:miter;marker:none;marker-start:none;marker-mid:none;marker-end:none;stroke-miterlimit:4;stroke-dasharray:none;stroke-dashoffset:0;stroke-opacity:1;visibility:visible;display:inline;overflow:visible;enable-background:accumulate" />
    </g>
    <g
       style="display:inline"
       id="g3532"
       transform="matrix(1.1234418,0,-0.7136519,1.2607334,166.69725,2.9002995)"
       inkscape:export-filename="/home/lapo/Desktop/format-text.png"
       inkscape:export-xdpi="90"
       inkscape:export-ydpi="90" />
    <g
       style="fill:#fce94f;stroke:none;display:inline"
       id="g3557"
       transform="matrix(1.1234418,0,-0.7136519,1.2607334,166.69725,2.9002995)"
       inkscape:export-filename="/home/lapo/Desktop/format-text.png"
       inkscape:export-xdpi="90"
       inkscape:export-ydpi="90" />
  </g>
</svg>
