<?xml version="1.0" encoding="UTF-8" standalone="no"?>
<!-- Created with Inkscape (http://www.inkscape.org/) -->
<svg
   xmlns:dc="http://purl.org/dc/elements/1.1/"
   xmlns:cc="http://web.resource.org/cc/"
   xmlns:rdf="http://www.w3.org/1999/02/22-rdf-syntax-ns#"
   xmlns:svg="http://www.w3.org/2000/svg"
   xmlns="http://www.w3.org/2000/svg"
   xmlns:xlink="http://www.w3.org/1999/xlink"
   xmlns:sodipodi="http://sodipodi.sourceforge.net/DTD/sodipodi-0.dtd"
   xmlns:inkscape="http://www.inkscape.org/namespaces/inkscape"
   width="22"
   height="22"
   id="svg2"
   sodipodi:version="0.32"
   inkscape:version="0.45"
   version="1.0"
   sodipodi:docname="help-about.svg"
   inkscape:output_extension="org.inkscape.output.svg.inkscape"
   sodipodi:docbase="/home/dobey/Projects/gnome-icon-theme/22x22/actions">
  <defs
     id="defs4">
    <linearGradient
       inkscape:collect="always"
       id="linearGradient5420">
      <stop
         style="stop-color:#000000;stop-opacity:1;"
         offset="0"
         id="stop5422" />
      <stop
         style="stop-color:#000000;stop-opacity:0;"
         offset="1"
         id="stop5424" />
    </linearGradient>
    <linearGradient
       inkscape:collect="always"
       id="linearGradient5211">
      <stop
         style="stop-color:#ffffff;stop-opacity:1;"
         offset="0"
         id="stop5213" />
      <stop
         style="stop-color:#ffffff;stop-opacity:0;"
         offset="1"
         id="stop5215" />
    </linearGradient>
    <linearGradient
       id="linearGradient5195">
      <stop
         id="stop5199"
         offset="0"
         style="stop-color:#fef6b3;stop-opacity:1;" />
      <stop
         style="stop-color:#dbc40b;stop-opacity:1"
         offset="0.58336526"
         id="stop5205" />
      <stop
         id="stop5197"
         offset="1"
         style="stop-color:#fff48f;stop-opacity:1;" />
    </linearGradient>
    <radialGradient
       inkscape:collect="always"
       xlink:href="#linearGradient5195"
       id="radialGradient5209"
       gradientUnits="userSpaceOnUse"
       gradientTransform="matrix(0.9754964,0,0,0.9751226,0.194925,0.6749098)"
       cx="7.9549513"
       cy="5.9379601"
       fx="7.9549513"
       fy="5.9379601"
       r="7.6684914" />
    <radialGradient
       inkscape:collect="always"
       xlink:href="#linearGradient5420"
       id="radialGradient5426"
       cx="11"
       cy="18.125"
       fx="11"
       fy="18.125"
       r="5.25"
       gradientTransform="matrix(1,0,0,0.5,0,9.0625)"
       gradientUnits="userSpaceOnUse" />
    <filter
       inkscape:collect="always"
       x="-0.19518072"
       width="1.3903614"
       y="-0.39036145"
       height="1.7807229"
       id="filter5532">
      <feGaussianBlur
         inkscape:collect="always"
         stdDeviation="0.85391566"
         id="feGaussianBlur5534" />
    </filter>
    <radialGradient
       inkscape:collect="always"
       xlink:href="#linearGradient5211"
       id="radialGradient5536"
       gradientUnits="userSpaceOnUse"
       gradientTransform="matrix(2.4583688,0,0,2.4488017,-8.0762526,-6.6808992)"
       cx="7.953125"
       cy="4.8580775"
       fx="7.953125"
       fy="4.8580775"
       r="5.734375" />
  </defs>
  <sodipodi:namedview
     id="base"
     pagecolor="#ffffff"
     bordercolor="#e5e5e5"
     borderopacity="1"
     gridtolerance="10000"
     guidetolerance="10"
     objecttolerance="10"
     inkscape:pageopacity="0.0"
     inkscape:pageshadow="2"
     inkscape:zoom="1"
     inkscape:cx="20.443853"
     inkscape:cy="-8.9917717"
     inkscape:document-units="px"
     inkscape:current-layer="layer1"
     width="22px"
     height="22px"
     borderlayer="true"
     inkscape:showpageshadow="false"
     inkscape:window-width="890"
     inkscape:window-height="692"
     inkscape:window-x="341"
     inkscape:window-y="305">
    <inkscape:grid
       type="xygrid"
       id="grid4598" />
  </sodipodi:namedview>
  <metadata
     id="metadata7">
    <rdf:RDF>
      <cc:Work
         rdf:about="">
        <dc:format>image/svg+xml</dc:format>
        <dc:type
           rdf:resource="http://purl.org/dc/dcmitype/StillImage" />
      </cc:Work>
    </rdf:RDF>
  </metadata>
  <g
     inkscape:label="Layer 1"
     inkscape:groupmode="layer"
     id="layer1">
    <path
       sodipodi:type="arc"
       style="opacity:0.37951804;color:#000000;fill:url(#radialGradient5426);fill-opacity:1;fill-rule:nonzero;stroke:none;stroke-width:1px;stroke-linecap:butt;stroke-linejoin:miter;marker:none;marker-start:none;marker-mid:none;marker-end:none;stroke-miterlimit:4;stroke-dasharray:none;stroke-dashoffset:0;stroke-opacity:1;visibility:visible;display:inline;overflow:visible;filter:url(#filter5532);enable-background:accumulate"
       id="path5418"
       sodipodi:cx="11"
       sodipodi:cy="18.125"
       sodipodi:rx="5.25"
       sodipodi:ry="2.625"
       d="M 16.25,18.125 A 5.25,2.625 0 1 1 5.75,18.125 A 5.25,2.625 0 1 1 16.25,18.125 z"
       transform="matrix(1.3333333,0,0,1,-3.6666667,0.75)" />
    <path
       sodipodi:type="star"
       style="opacity:1;color:#000000;fill:url(#radialGradient5209);fill-opacity:1;fill-rule:nonzero;stroke:#c4a000;stroke-width:0.79555577px;stroke-linecap:butt;stroke-linejoin:miter;marker:none;marker-start:none;marker-mid:none;marker-end:none;stroke-miterlimit:4;stroke-dasharray:none;stroke-dashoffset:0;stroke-opacity:1;visibility:visible;display:inline;overflow:visible;enable-background:accumulate"
       id="path4596"
       sodipodi:sides="4"
       sodipodi:cx="7.9549513"
       sodipodi:cy="8.0450487"
       sodipodi:r1="7.1600018"
       sodipodi:r2="3.3845155"
       sodipodi:arg1="1.5707963"
       sodipodi:arg2="2.3561945"
       inkscape:flatsided="false"
       inkscape:rounded="0.13800197"
       inkscape:randomized="0"
       d="M 7.9549515,15.20505 C 7.2188725,15.20505 6.0822239,10.958749 5.5617374,10.438263 C 5.0412509,9.9177761 0.79494952,8.7811279 0.79494953,8.0450489 C 0.79494954,7.3089699 5.041251,6.1723213 5.5617374,5.6518348 C 6.0822239,5.1313484 7.2188721,0.88504695 7.9549511,0.88504696 C 8.6910301,0.88504697 9.8276787,5.1313484 10.348165,5.6518349 C 10.868652,6.1723213 15.114953,7.3089695 15.114953,8.0450485 C 15.114953,8.7811275 10.868652,9.9177761 10.348165,10.438263 C 9.8276787,10.958749 8.6910305,15.20505 7.9549515,15.20505 z"
       transform="matrix(1.256983,0,0,1.2569829,1.500762,1.3875111)" />
    <path
       style="color:#000000;fill:none;fill-opacity:1;fill-rule:nonzero;stroke:url(#radialGradient5536);stroke-width:1px;stroke-linecap:butt;stroke-linejoin:miter;marker:none;marker-start:none;marker-mid:none;marker-end:none;stroke-miterlimit:4;stroke-dashoffset:0;stroke-opacity:1;visibility:visible;display:inline;overflow:visible;enable-background:accumulate"
       d="M 11.497376,4.1022432 C 11.358648,4.422652 11.245283,4.6584637 11.102902,5.0190997 C 10.798494,5.7901366 10.466861,6.5937757 10.182464,7.2894109 C 10.040266,7.6372286 9.932687,7.9600136 9.7879903,8.2499272 C 9.6432936,8.5398408 9.5276576,8.7712054 9.1743646,9.1231238 C 8.8184393,9.477664 8.5897878,9.5912345 8.2977566,9.7343614 C 8.0057253,9.8774884 7.6830329,9.9876636 7.3334877,10.1273 C 6.6343974,10.406572 5.7845549,10.702591 5.0104763,11.000497 C 4.6657321,11.133172 4.442958,11.263574 4.1338683,11.393435 C 4.4555289,11.531623 4.6922619,11.644547 5.0543067,11.786374 C 5.828356,12.089598 6.6351346,12.41994 7.3334877,12.70323 C 7.6826643,12.844875 8.0067102,12.952035 8.2977566,13.096168 C 8.5888029,13.240302 8.8210714,13.355488 9.1743646,13.707406 C 9.5276584,14.059325 9.6432934,14.290689 9.7879903,14.580603 C 9.9326871,14.870517 10.040265,15.193302 10.182464,15.541119 C 10.466861,16.236755 10.798494,17.040393 11.102902,17.81143 C 11.245283,18.172066 11.358648,18.407878 11.497376,18.728287 C 11.627744,18.4204 11.758656,18.198492 11.89185,17.85509 C 12.190919,17.084024 12.488094,16.237488 12.768458,15.541119 C 12.90864,15.192934 13.019245,14.871497 13.162931,14.580603 C 13.306618,14.289708 13.420631,14.061947 13.776557,13.707406 C 14.12985,13.355487 14.362119,13.240302 14.653165,13.096168 C 14.944212,12.952035 15.268258,12.844875 15.617434,12.70323 C 16.315788,12.41994 17.122566,12.089598 17.896615,11.786374 C 18.25866,11.644547 18.495393,11.531623 18.817053,11.393435 C 18.507964,11.263574 18.285189,11.133172 17.940445,11.000497 C 17.166367,10.702591 16.316524,10.406572 15.617434,10.1273 C 15.267889,9.9876636 14.945196,9.8774884 14.653165,9.7343614 C 14.361134,9.5912345 14.132483,9.4776644 13.776557,9.1231238 C 13.420632,8.7685836 13.306617,8.5408219 13.162931,8.2499272 C 13.019245,7.9590324 12.90864,7.6375957 12.768458,7.2894109 C 12.488094,6.5930412 12.190919,5.746506 11.89185,4.9754398 C 11.758656,4.6320372 11.627744,4.4101301 11.497376,4.1022432 z"
       id="path5207" />
  </g>
</svg>
