<?xml version="1.0" encoding="UTF-8" standalone="no"?>
<!-- Created with Inkscape (http://www.inkscape.org/) -->
<svg
   xmlns:dc="http://purl.org/dc/elements/1.1/"
   xmlns:cc="http://web.resource.org/cc/"
   xmlns:rdf="http://www.w3.org/1999/02/22-rdf-syntax-ns#"
   xmlns:svg="http://www.w3.org/2000/svg"
   xmlns="http://www.w3.org/2000/svg"
   xmlns:xlink="http://www.w3.org/1999/xlink"
   xmlns:sodipodi="http://sodipodi.sourceforge.net/DTD/sodipodi-0.dtd"
   xmlns:inkscape="http://www.inkscape.org/namespaces/inkscape"
   width="22"
   height="22"
   id="svg2"
   sodipodi:version="0.32"
   inkscape:version="0.44"
   version="1.0"
   sodipodi:docbase="/home/lapo/Icone/cvs/gnome-icon-theme/22x22/actions"
   sodipodi:docname="object-rotate-left.svg"
   inkscape:output_extension="org.inkscape.output.svg.inkscape"
   inkscape:export-filename="/home/lapo/Desktop/rotate.png"
   inkscape:export-xdpi="90"
   inkscape:export-ydpi="90">
  <defs
     id="defs4">
    <linearGradient
       id="linearGradient3460">
      <stop
         style="stop-color:#fcaf3e;stop-opacity:1"
         offset="0"
         id="stop3462" />
      <stop
         style="stop-color:white;stop-opacity:1;"
         offset="1"
         id="stop3464" />
    </linearGradient>
    <linearGradient
       inkscape:collect="always"
       id="linearGradient3371">
      <stop
         style="stop-color:white;stop-opacity:1;"
         offset="0"
         id="stop3373" />
      <stop
         style="stop-color:white;stop-opacity:0;"
         offset="1"
         id="stop3375" />
    </linearGradient>
    <linearGradient
       inkscape:collect="always"
       id="linearGradient3209">
      <stop
         style="stop-color:black;stop-opacity:1;"
         offset="0"
         id="stop3211" />
      <stop
         style="stop-color:black;stop-opacity:0;"
         offset="1"
         id="stop3213" />
    </linearGradient>
    <linearGradient
       id="linearGradient3195">
      <stop
         style="stop-color:#ad7fa8;stop-opacity:1;"
         offset="0"
         id="stop3197" />
      <stop
         style="stop-color:white;stop-opacity:1;"
         offset="1"
         id="stop3199" />
    </linearGradient>
    <linearGradient
       inkscape:collect="always"
       id="linearGradient3126">
      <stop
         style="stop-color:black;stop-opacity:1;"
         offset="0"
         id="stop3128" />
      <stop
         style="stop-color:black;stop-opacity:0;"
         offset="1"
         id="stop3130" />
    </linearGradient>
    <linearGradient
       inkscape:collect="always"
       id="linearGradient3104">
      <stop
         style="stop-color:#ad7fa8;stop-opacity:1;"
         offset="0"
         id="stop3106" />
      <stop
         style="stop-color:white;stop-opacity:1"
         offset="1"
         id="stop3108" />
    </linearGradient>
    <linearGradient
       inkscape:collect="always"
       xlink:href="#linearGradient3104"
       id="linearGradient3110"
       x1="6.9826794"
       y1="6.0900974"
       x2="15.771578"
       y2="27.517767"
       gradientUnits="userSpaceOnUse"
       gradientTransform="translate(-60.52773,-30.03033)" />
    <radialGradient
       inkscape:collect="always"
       xlink:href="#linearGradient3126"
       id="radialGradient3132"
       cx="12.53125"
       cy="17"
       fx="12.53125"
       fy="17"
       r="9.21875"
       gradientTransform="matrix(1,0,0,0.515254,0,8.240678)"
       gradientUnits="userSpaceOnUse" />
    <radialGradient
       inkscape:collect="always"
       xlink:href="#linearGradient3126"
       id="radialGradient3140"
       gradientUnits="userSpaceOnUse"
       gradientTransform="matrix(1,0,0,0.515254,0,8.240678)"
       cx="12.53125"
       cy="17"
       fx="12.53125"
       fy="17"
       r="9.21875" />
    <linearGradient
       inkscape:collect="always"
       xlink:href="#linearGradient3104"
       id="linearGradient3142"
       gradientUnits="userSpaceOnUse"
       x1="6.9826794"
       y1="6.0900974"
       x2="15.771578"
       y2="27.517767"
       gradientTransform="translate(-90,-30)" />
    <radialGradient
       inkscape:collect="always"
       xlink:href="#linearGradient3126"
       id="radialGradient3150"
       gradientUnits="userSpaceOnUse"
       gradientTransform="matrix(1,0,0,0.515254,0,8.240678)"
       cx="12.53125"
       cy="17"
       fx="12.53125"
       fy="17"
       r="9.21875" />
    <linearGradient
       inkscape:collect="always"
       xlink:href="#linearGradient3104"
       id="linearGradient3158"
       gradientUnits="userSpaceOnUse"
       gradientTransform="matrix(1,0,0,-1,-0.52773,20.96967)"
       x1="6.9826794"
       y1="6.0900974"
       x2="15.771578"
       y2="27.517767" />
    <radialGradient
       inkscape:collect="always"
       xlink:href="#linearGradient3126"
       id="radialGradient3166"
       gradientUnits="userSpaceOnUse"
       gradientTransform="matrix(1,0,0,0.515254,0,8.240678)"
       cx="12.53125"
       cy="17"
       fx="12.53125"
       fy="17"
       r="9.21875" />
    <linearGradient
       inkscape:collect="always"
       xlink:href="#linearGradient3104"
       id="linearGradient3174"
       gradientUnits="userSpaceOnUse"
       x1="6.9826794"
       y1="6.0900974"
       x2="15.771578"
       y2="27.517767"
       gradientTransform="matrix(1,0,0,-1,0,21)" />
    <linearGradient
       inkscape:collect="always"
       xlink:href="#linearGradient3195"
       id="linearGradient3201"
       x1="7.3665624"
       y1="1.1795635"
       x2="21"
       y2="33.490486"
       gradientUnits="userSpaceOnUse"
       gradientTransform="translate(-31,-30)" />
    <radialGradient
       inkscape:collect="always"
       xlink:href="#linearGradient3209"
       id="radialGradient3215"
       cx="12.15625"
       cy="16.96875"
       fx="12.15625"
       fy="16.96875"
       r="7.84375"
       gradientTransform="matrix(1,0,0,0.537849,0,7.842131)"
       gradientUnits="userSpaceOnUse" />
    <radialGradient
       inkscape:collect="always"
       xlink:href="#linearGradient3209"
       id="radialGradient3306"
       gradientUnits="userSpaceOnUse"
       gradientTransform="matrix(1,0,0,0.537849,0,7.842131)"
       cx="12.15625"
       cy="16.96875"
       fx="12.15625"
       fy="16.96875"
       r="7.84375" />
    <linearGradient
       inkscape:collect="always"
       xlink:href="#linearGradient3371"
       id="linearGradient3377"
       x1="10.5625"
       y1="4.0625"
       x2="19.6875"
       y2="6.5"
       gradientUnits="userSpaceOnUse" />
    <linearGradient
       inkscape:collect="always"
       xlink:href="#linearGradient3460"
       id="linearGradient4198"
       gradientUnits="userSpaceOnUse"
       gradientTransform="translate(-5,0)"
       x1="18.5625"
       y1="3.8699894"
       x2="29.480078"
       y2="25.193497" />
    <radialGradient
       inkscape:collect="always"
       xlink:href="#linearGradient3209"
       id="radialGradient4200"
       gradientUnits="userSpaceOnUse"
       gradientTransform="matrix(1,0,0,0.537849,0,7.842131)"
       cx="12.15625"
       cy="16.96875"
       fx="12.15625"
       fy="16.96875"
       r="7.84375" />
    <linearGradient
       inkscape:collect="always"
       xlink:href="#linearGradient3460"
       id="linearGradient2530"
       gradientUnits="userSpaceOnUse"
       gradientTransform="translate(-142,1)"
       x1="18.5625"
       y1="3.8699894"
       x2="29.480078"
       y2="25.193497" />
    <linearGradient
       inkscape:collect="always"
       xlink:href="#linearGradient3460"
       id="linearGradient2532"
       gradientUnits="userSpaceOnUse"
       gradientTransform="matrix(1,0,0,-1,-142,20)"
       x1="18.5625"
       y1="3.8699894"
       x2="29.480078"
       y2="25.193497" />
  </defs>
  <sodipodi:namedview
     id="base"
     pagecolor="#ffffff"
     bordercolor="#afafaf"
     borderopacity="1"
     inkscape:pageopacity="0.0"
     inkscape:pageshadow="2"
     inkscape:zoom="1"
     inkscape:cx="14.554193"
     inkscape:cy="7.7898622"
     inkscape:document-units="px"
     inkscape:current-layer="layer1"
     width="22px"
     height="22px"
     gridspacingx="0.5px"
     gridspacingy="0.5px"
     inkscape:showpageshadow="false"
     borderlayer="true"
     gridempspacing="2"
     inkscape:window-width="1085"
     inkscape:window-height="880"
     inkscape:window-x="0"
     inkscape:window-y="145"
     showgrid="false"
     showguides="true"
     showborder="true"
     inkscape:guide-bbox="true"
     inkscape:grid-points="true" />
  <metadata
     id="metadata7">
    <rdf:RDF>
      <cc:Work
         rdf:about="">
        <dc:format>image/svg+xml</dc:format>
        <dc:type
           rdf:resource="http://purl.org/dc/dcmitype/StillImage" />
        <dc:creator>
          <cc:Agent>
            <dc:title>Lapo Calamandrei</dc:title>
          </cc:Agent>
        </dc:creator>
        <cc:license
           rdf:resource="http://creativecommons.org/licenses/GPL/2.0/" />
      </cc:Work>
      <cc:License
         rdf:about="http://creativecommons.org/licenses/GPL/2.0/">
        <cc:permits
           rdf:resource="http://web.resource.org/cc/Reproduction" />
        <cc:permits
           rdf:resource="http://web.resource.org/cc/Distribution" />
        <cc:requires
           rdf:resource="http://web.resource.org/cc/Notice" />
        <cc:permits
           rdf:resource="http://web.resource.org/cc/DerivativeWorks" />
        <cc:requires
           rdf:resource="http://web.resource.org/cc/ShareAlike" />
        <cc:requires
           rdf:resource="http://web.resource.org/cc/SourceCode" />
      </cc:License>
    </rdf:RDF>
  </metadata>
  <g
     inkscape:label="Livello 1"
     inkscape:groupmode="layer"
     id="layer1"
     style="display:inline">
    <path
       sodipodi:type="arc"
       style="opacity:0.2;color:black;fill:url(#radialGradient4200);fill-opacity:1;fill-rule:nonzero;stroke:none;stroke-width:1;stroke-linecap:round;stroke-linejoin:miter;marker:none;marker-start:none;marker-mid:none;marker-end:none;stroke-miterlimit:4;stroke-dasharray:none;stroke-dashoffset:1.4;stroke-opacity:1;visibility:visible;display:inline;overflow:visible"
       id="path3438"
       sodipodi:cx="12.15625"
       sodipodi:cy="16.96875"
       sodipodi:rx="7.84375"
       sodipodi:ry="4.21875"
       d="M 20 16.96875 A 7.84375 4.21875 0 1 1  4.3125,16.96875 A 7.84375 4.21875 0 1 1  20 16.96875 z"
       transform="matrix(1.211155,0,0,1.066665,-5.2231,-0.59998)"
       inkscape:export-filename="/home/lapo/Desktop/rotate.png"
       inkscape:export-xdpi="90"
       inkscape:export-ydpi="90" />
    <path
       style="opacity:1;color:black;fill:url(#linearGradient4198);fill-opacity:1;fill-rule:nonzero;stroke:#ce5c00;stroke-width:1;stroke-linecap:round;stroke-linejoin:miter;marker:none;marker-start:none;marker-mid:none;marker-end:none;stroke-miterlimit:4;stroke-dasharray:none;stroke-dashoffset:1.4;stroke-opacity:1;visibility:visible;display:inline;overflow:visible"
       d="M 15.0625,0.5 C 9.81007,0.5 5.5,4.810069 5.5,10.0625 L 5.5,11.5 L 1.5,11.5 L 8.5,19.5 L 15.5,11.5 L 11.5,11.5 L 11.5,10.0625 C 11.5,8.030286 13.03029,6.5 15.0625,6.5 L 19.5,6.5 L 19.5,0.5 L 15.0625,0.5 z "
       id="path3440"
       inkscape:export-filename="/home/lapo/Desktop/rotate.png"
       inkscape:export-xdpi="90"
       inkscape:export-ydpi="90" />
    <path
       sodipodi:type="inkscape:offset"
       inkscape:radius="-0.99436891"
       inkscape:original="M 15.0625 0.5 C 9.810069 0.5 5.5 4.810069 5.5 10.0625 L 5.5 11.5 L 1.5 11.5 L 8.5 19.5 L 15.5 11.5 L 11.5 11.5 L 11.5 10.0625 C 11.5 8.0302856 13.030286 6.5 15.0625 6.5 L 19.5 6.5 L 19.5 0.5 L 15.0625 0.5 z "
       style="opacity:0.8;color:black;fill:none;fill-opacity:1;fill-rule:nonzero;stroke:white;stroke-width:1;stroke-linecap:round;stroke-linejoin:miter;marker:none;marker-start:none;marker-mid:none;marker-end:none;stroke-miterlimit:4;stroke-dasharray:none;stroke-dashoffset:1.4;stroke-opacity:1;visibility:visible;display:inline;overflow:visible"
       id="path3442"
       d="M 15.0625,1.5 C 10.354046,1.5 6.5,5.3540455 6.5,10.0625 L 6.5,11.5 C 6.5014819,11.765668 6.396601,12.020884 6.2087424,12.208742 C 6.0208839,12.396601 5.765668,12.501482 5.5,12.5 L 3.6875,12.5 L 8.5,18 L 13.3125,12.5 L 11.5,12.5 C 11.234332,12.501482 10.979116,12.396601 10.791258,12.208742 C 10.603399,12.020884 10.498518,11.765668 10.5,11.5 L 10.5,10.0625 C 10.5,7.5311031 12.531104,5.5 15.0625,5.5 L 18.5,5.5 L 18.5,1.5 L 15.0625,1.5 z "
       inkscape:export-filename="/home/lapo/Desktop/rotate.png"
       inkscape:export-xdpi="90"
       inkscape:export-ydpi="90" />
  </g>
  <g
     inkscape:groupmode="layer"
     id="layer2"
     inkscape:label="troiai"
     style="display:none">
    <path
       sodipodi:type="arc"
       style="opacity:0.5;color:black;fill:url(#radialGradient3132);fill-opacity:1;fill-rule:nonzero;stroke:none;stroke-width:1;stroke-linecap:round;stroke-linejoin:miter;marker:none;marker-start:none;marker-mid:none;marker-end:none;stroke-miterlimit:4;stroke-dasharray:none;stroke-dashoffset:1.4;stroke-opacity:1;visibility:visible;display:inline;overflow:visible"
       id="path3116"
       sodipodi:cx="12.53125"
       sodipodi:cy="17"
       sodipodi:rx="9.21875"
       sodipodi:ry="4.75"
       d="M 21.75 17 A 9.21875 4.75 0 1 1  3.3125,17 A 9.21875 4.75 0 1 1  21.75 17 z"
       transform="matrix(1.084745,0,0,1.052632,-63.59322,-30.89474)" />
    <path
       style="opacity:1;color:black;fill:url(#linearGradient3110);fill-opacity:1;fill-rule:nonzero;stroke:#5c3566;stroke-width:1.06066024;stroke-linecap:round;stroke-linejoin:miter;marker:none;marker-start:none;marker-mid:none;marker-end:none;stroke-miterlimit:4;stroke-dasharray:none;stroke-dashoffset:1.4;stroke-opacity:1;visibility:visible;display:inline;overflow:visible"
       d="M -50.46967,-28.53033 L -50.46967,-23.53033 C -52.677663,-23.53033 -54.46967,-21.738329 -54.46967,-19.53033 C -54.469671,-17.322331 -52.677663,-15.53033 -50.46967,-15.53033 C -48.261677,-15.53033 -46.46967,-17.322331 -46.46967,-19.53033 L -49.955806,-19.53033 L -44.46967,-26.53033 L -39.027728,-19.53033 L -41.46967,-19.53033 C -41.46967,-14.56233 -45.501675,-10.53033 -50.46967,-10.53033 C -55.437664,-10.53033 -59.46967,-14.56233 -59.46967,-19.53033 C -59.46967,-24.49833 -55.437664,-28.53033 -50.46967,-28.53033 z "
       id="path3099"
       sodipodi:nodetypes="ccsscccccssc" />
    <path
       sodipodi:type="inkscape:offset"
       inkscape:radius="-0.96643943"
       inkscape:original="M 12.5 1.5 L 12.5 6.5 C 14.707993 6.5 16.5 8.292001 16.5 10.5 C 16.500001 12.707999 14.707993 14.5 12.5 14.5 C 10.292007 14.5 8.5 12.707999 8.5 10.5 L 12 10.5 L 6.5 3.5 L 1.0625 10.5 L 3.5 10.5 C 3.5 15.468 7.5320055 19.5 12.5 19.5 C 17.467994 19.5 21.5 15.468 21.5 10.5 C 21.5 5.532 17.467994 1.5 12.5 1.5 z "
       style="opacity:0.7;color:black;fill:none;fill-opacity:1;fill-rule:nonzero;stroke:white;stroke-width:1.06066024;stroke-linecap:round;stroke-linejoin:miter;marker:none;marker-start:none;marker-mid:none;marker-end:none;stroke-miterlimit:4;stroke-dasharray:none;stroke-dashoffset:1.4;stroke-opacity:1;visibility:visible;display:inline;overflow:visible"
       id="path3114"
       d="M 13.46875,2.65625 L 13.46875,5.75 C 15.724586,6.2164455 17.46875,8.1115633 17.46875,10.5 C 17.468751,13.230906 15.230899,15.46875 12.5,15.46875 C 9.7691006,15.46875 7.53125,13.230906 7.53125,10.5 C 7.5306604,10.242891 7.6325355,9.9961432 7.8143393,9.8143393 C 7.9961432,9.6325355 8.2428912,9.5306604 8.5,9.53125 L 10.03125,9.53125 L 6.5,5.0625 L 3.03125,9.53125 L 3.5,9.53125 C 3.7571088,9.5306604 4.0038568,9.6325355 4.1856607,9.8143393 C 4.3674645,9.9961432 4.4693396,10.242891 4.46875,10.5 C 4.46875,14.945095 8.0549105,18.53125 12.5,18.53125 C 16.945089,18.53125 20.53125,14.945095 20.53125,10.5 C 20.53125,6.3989726 17.432325,3.1536721 13.46875,2.65625 z "
       transform="matrix(-1,0,0,1,-37.93842,-30.06158)" />
    <path
       sodipodi:type="arc"
       style="opacity:0.5;color:black;fill:url(#radialGradient3140);fill-opacity:1;fill-rule:nonzero;stroke:none;stroke-width:1;stroke-linecap:round;stroke-linejoin:miter;marker:none;marker-start:none;marker-mid:none;marker-end:none;stroke-miterlimit:4;stroke-dasharray:none;stroke-dashoffset:1.4;stroke-opacity:1;visibility:visible;display:inline;overflow:visible"
       id="path3134"
       sodipodi:cx="12.53125"
       sodipodi:cy="17"
       sodipodi:rx="9.21875"
       sodipodi:ry="4.75"
       d="M 21.75 17 A 9.21875 4.75 0 1 1  3.3125,17 A 9.21875 4.75 0 1 1  21.75 17 z"
       transform="matrix(1.084745,0,0,1.052632,-91.59322,-30.89474)" />
    <path
       style="opacity:1;color:black;fill:url(#linearGradient3142);fill-opacity:1;fill-rule:nonzero;stroke:#5c3566;stroke-width:1.06066024;stroke-linecap:round;stroke-linejoin:miter;marker:none;marker-start:none;marker-mid:none;marker-end:none;stroke-miterlimit:4;stroke-dasharray:none;stroke-dashoffset:1.4;stroke-opacity:1;visibility:visible;display:inline;overflow:visible"
       d="M -77.5,-28.5 L -77.5,-23.5 C -75.292007,-23.5 -73.5,-21.707999 -73.5,-19.5 C -73.499999,-17.292001 -75.292007,-15.5 -77.5,-15.5 C -79.707993,-15.5 -81.5,-17.292001 -81.5,-19.5 L -78.013864,-19.5 L -83.5,-26.5 L -88.941942,-19.5 L -86.5,-19.5 C -86.5,-14.532 -82.467994,-10.5 -77.5,-10.5 C -72.532006,-10.5 -68.5,-14.532 -68.5,-19.5 C -68.5,-24.468 -72.532006,-28.5 -77.5,-28.5 z "
       id="path3136"
       sodipodi:nodetypes="ccsscccccssc" />
    <path
       sodipodi:type="inkscape:offset"
       inkscape:radius="-0.96643943"
       inkscape:original="M 12.5 1.5 L 12.5 6.5 C 14.707993 6.5 16.5 8.292001 16.5 10.5 C 16.500001 12.707999 14.707993 14.5 12.5 14.5 C 10.292007 14.5 8.5 12.707999 8.5 10.5 L 12 10.5 L 6.5 3.5 L 1.0625 10.5 L 3.5 10.5 C 3.5 15.468 7.5320055 19.5 12.5 19.5 C 17.467994 19.5 21.5 15.468 21.5 10.5 C 21.5 5.532 17.467994 1.5 12.5 1.5 z "
       style="opacity:0.7;color:black;fill:none;fill-opacity:1;fill-rule:nonzero;stroke:white;stroke-width:1.06066024;stroke-linecap:round;stroke-linejoin:miter;marker:none;marker-start:none;marker-mid:none;marker-end:none;stroke-miterlimit:4;stroke-dasharray:none;stroke-dashoffset:1.4;stroke-opacity:1;visibility:visible;display:inline;overflow:visible"
       id="path3138"
       d="M 13.46875,2.65625 L 13.46875,5.75 C 15.724586,6.2164455 17.46875,8.1115633 17.46875,10.5 C 17.468751,13.230906 15.230899,15.46875 12.5,15.46875 C 9.7691006,15.46875 7.53125,13.230906 7.53125,10.5 C 7.5306604,10.242891 7.6325355,9.9961432 7.8143393,9.8143393 C 7.9961432,9.6325355 8.2428912,9.5306604 8.5,9.53125 L 10.03125,9.53125 L 6.5,5.0625 L 3.03125,9.53125 L 3.5,9.53125 C 3.7571088,9.5306604 4.0038568,9.6325355 4.1856607,9.8143393 C 4.3674645,9.9961432 4.4693396,10.242891 4.46875,10.5 C 4.46875,14.945095 8.0549105,18.53125 12.5,18.53125 C 16.945089,18.53125 20.53125,14.945095 20.53125,10.5 C 20.53125,6.3989726 17.432325,3.1536721 13.46875,2.65625 z "
       transform="translate(-90,-30)" />
    <path
       sodipodi:type="arc"
       style="opacity:0.2;color:black;fill:url(#radialGradient3150);fill-opacity:1;fill-rule:nonzero;stroke:none;stroke-width:1;stroke-linecap:round;stroke-linejoin:miter;marker:none;marker-start:none;marker-mid:none;marker-end:none;stroke-miterlimit:4;stroke-dasharray:none;stroke-dashoffset:1.4;stroke-opacity:1;visibility:visible;display:inline;overflow:visible"
       id="path3144"
       sodipodi:cx="12.53125"
       sodipodi:cy="17"
       sodipodi:rx="9.21875"
       sodipodi:ry="4.75"
       d="M 21.75 17 A 9.21875 4.75 0 1 1  3.3125,17 A 9.21875 4.75 0 1 1  21.75 17 z"
       transform="matrix(1.084745,0,0,1.052632,-63.59322,-0.89474)" />
    <g
       id="g3154"
       transform="matrix(1,0,0,-1,-60,20.93934)">
      <path
         sodipodi:nodetypes="ccsscccccssc"
         id="path3146"
         d="M 9.5303298,1.46967 L 9.5303298,6.46967 C 7.3223371,6.46967 5.5303301,8.261671 5.5303301,10.46967 C 5.5303291,12.677669 7.3223371,14.46967 9.5303298,14.46967 C 11.738323,14.46967 13.53033,12.677669 13.53033,10.46967 L 10.044194,10.46967 L 15.53033,3.46967 L 20.972272,10.46967 L 18.53033,10.46967 C 18.53033,15.43767 14.498325,19.46967 9.5303298,19.46967 C 4.5623361,19.46967 0.53033012,15.43767 0.53033012,10.46967 C 0.53033012,5.50167 4.5623361,1.46967 9.5303298,1.46967 z "
         style="opacity:1;color:black;fill:url(#linearGradient3158);fill-opacity:1;fill-rule:nonzero;stroke:#5c3566;stroke-width:1.06066024;stroke-linecap:round;stroke-linejoin:miter;marker:none;marker-start:none;marker-mid:none;marker-end:none;stroke-miterlimit:4;stroke-dasharray:none;stroke-dashoffset:1.4;stroke-opacity:1;visibility:visible;display:inline;overflow:visible" />
      <path
         transform="matrix(-1,0,0,1,22.06158,-6.158e-2)"
         d="M 13.46875,2.65625 L 13.46875,5.75 C 15.724586,6.2164455 17.46875,8.1115633 17.46875,10.5 C 17.468751,13.230906 15.230899,15.46875 12.5,15.46875 C 9.7691006,15.46875 7.53125,13.230906 7.53125,10.5 C 7.5306604,10.242891 7.6325355,9.9961432 7.8143393,9.8143393 C 7.9961432,9.6325355 8.2428912,9.5306604 8.5,9.53125 L 10.03125,9.53125 L 6.5,5.0625 L 3.03125,9.53125 L 3.5,9.53125 C 3.7571088,9.5306604 4.0038568,9.6325355 4.1856607,9.8143393 C 4.3674645,9.9961432 4.4693396,10.242891 4.46875,10.5 C 4.46875,14.945095 8.0549105,18.53125 12.5,18.53125 C 16.945089,18.53125 20.53125,14.945095 20.53125,10.5 C 20.53125,6.3989726 17.432325,3.1536721 13.46875,2.65625 z "
         id="path3148"
         style="opacity:0.7;color:black;fill:none;fill-opacity:1;fill-rule:nonzero;stroke:white;stroke-width:1.06066024;stroke-linecap:round;stroke-linejoin:miter;marker:none;marker-start:none;marker-mid:none;marker-end:none;stroke-miterlimit:4;stroke-dasharray:none;stroke-dashoffset:1.4;stroke-opacity:1;visibility:visible;display:inline;overflow:visible"
         inkscape:original="M 12.5 1.5 L 12.5 6.5 C 14.707993 6.5 16.5 8.292001 16.5 10.5 C 16.500001 12.707999 14.707993 14.5 12.5 14.5 C 10.292007 14.5 8.5 12.707999 8.5 10.5 L 12 10.5 L 6.5 3.5 L 1.0625 10.5 L 3.5 10.5 C 3.5 15.468 7.5320055 19.5 12.5 19.5 C 17.467994 19.5 21.5 15.468 21.5 10.5 C 21.5 5.532 17.467994 1.5 12.5 1.5 z "
         inkscape:radius="-0.96643943"
         sodipodi:type="inkscape:offset" />
    </g>
    <path
       sodipodi:type="arc"
       style="opacity:0.2;color:black;fill:url(#radialGradient3166);fill-opacity:1;fill-rule:nonzero;stroke:none;stroke-width:1;stroke-linecap:round;stroke-linejoin:miter;marker:none;marker-start:none;marker-mid:none;marker-end:none;stroke-miterlimit:4;stroke-dasharray:none;stroke-dashoffset:1.4;stroke-opacity:1;visibility:visible;display:inline;overflow:visible"
       id="path3160"
       sodipodi:cx="12.53125"
       sodipodi:cy="17"
       sodipodi:rx="9.21875"
       sodipodi:ry="4.75"
       d="M 21.75 17 A 9.21875 4.75 0 1 1  3.3125,17 A 9.21875 4.75 0 1 1  21.75 17 z"
       transform="matrix(1.084745,0,0,1.052632,-91.59322,-0.89474)" />
    <g
       id="g3170"
       transform="matrix(1,0,0,-1,-90,21)">
      <path
         sodipodi:nodetypes="ccsscccccssc"
         id="path3162"
         d="M 12.5,1.5 L 12.5,6.5 C 14.707993,6.5 16.5,8.292001 16.5,10.5 C 16.500001,12.707999 14.707993,14.5 12.5,14.5 C 10.292007,14.5 8.5,12.707999 8.5,10.5 L 11.986136,10.5 L 6.5,3.5 L 1.058058,10.5 L 3.5,10.5 C 3.5,15.468 7.532006,19.5 12.5,19.5 C 17.467994,19.5 21.5,15.468 21.5,10.5 C 21.5,5.532 17.467994,1.5 12.5,1.5 z "
         style="opacity:1;color:black;fill:url(#linearGradient3174);fill-opacity:1;fill-rule:nonzero;stroke:#5c3566;stroke-width:1.06066024;stroke-linecap:round;stroke-linejoin:miter;marker:none;marker-start:none;marker-mid:none;marker-end:none;stroke-miterlimit:4;stroke-dasharray:none;stroke-dashoffset:1.4;stroke-opacity:1;visibility:visible;display:inline;overflow:visible" />
      <path
         d="M 13.46875,2.65625 L 13.46875,5.75 C 15.724586,6.2164455 17.46875,8.1115633 17.46875,10.5 C 17.468751,13.230906 15.230899,15.46875 12.5,15.46875 C 9.7691006,15.46875 7.53125,13.230906 7.53125,10.5 C 7.5306604,10.242891 7.6325355,9.9961432 7.8143393,9.8143393 C 7.9961432,9.6325355 8.2428912,9.5306604 8.5,9.53125 L 10.03125,9.53125 L 6.5,5.0625 L 3.03125,9.53125 L 3.5,9.53125 C 3.7571088,9.5306604 4.0038568,9.6325355 4.1856607,9.8143393 C 4.3674645,9.9961432 4.4693396,10.242891 4.46875,10.5 C 4.46875,14.945095 8.0549105,18.53125 12.5,18.53125 C 16.945089,18.53125 20.53125,14.945095 20.53125,10.5 C 20.53125,6.3989726 17.432325,3.1536721 13.46875,2.65625 z "
         id="path3164"
         style="opacity:0.7;color:black;fill:none;fill-opacity:1;fill-rule:nonzero;stroke:white;stroke-width:1.06066024;stroke-linecap:round;stroke-linejoin:miter;marker:none;marker-start:none;marker-mid:none;marker-end:none;stroke-miterlimit:4;stroke-dasharray:none;stroke-dashoffset:1.4;stroke-opacity:1;visibility:visible;display:inline;overflow:visible"
         inkscape:original="M 12.5 1.5 L 12.5 6.5 C 14.707993 6.5 16.5 8.292001 16.5 10.5 C 16.500001 12.707999 14.707993 14.5 12.5 14.5 C 10.292007 14.5 8.5 12.707999 8.5 10.5 L 12 10.5 L 6.5 3.5 L 1.0625 10.5 L 3.5 10.5 C 3.5 15.468 7.5320055 19.5 12.5 19.5 C 17.467994 19.5 21.5 15.468 21.5 10.5 C 21.5 5.532 17.467994 1.5 12.5 1.5 z "
         inkscape:radius="-0.96643943"
         sodipodi:type="inkscape:offset" />
    </g>
    <path
       sodipodi:type="arc"
       style="opacity:0.2;color:black;fill:url(#radialGradient3215);fill-opacity:1;fill-rule:nonzero;stroke:none;stroke-width:1;stroke-linecap:round;stroke-linejoin:miter;marker:none;marker-start:none;marker-mid:none;marker-end:none;stroke-miterlimit:4;stroke-dasharray:none;stroke-dashoffset:1.4;stroke-opacity:1;visibility:visible;display:inline;overflow:visible"
       id="path3207"
       sodipodi:cx="12.15625"
       sodipodi:cy="16.96875"
       sodipodi:rx="7.84375"
       sodipodi:ry="4.21875"
       d="M 20 16.96875 A 7.84375 4.21875 0 1 1  4.3125,16.96875 A 7.84375 4.21875 0 1 1  20 16.96875 z"
       transform="matrix(1.211155,0,0,1.066665,-33.2231,-30.59998)" />
    <path
       style="opacity:1;color:black;fill:url(#linearGradient3201);fill-opacity:1;fill-rule:nonzero;stroke:#5c3566;stroke-width:1;stroke-linecap:round;stroke-linejoin:miter;marker:none;marker-start:none;marker-mid:none;marker-end:none;stroke-miterlimit:4;stroke-dasharray:none;stroke-dashoffset:1.4;stroke-opacity:1;visibility:visible;display:inline;overflow:visible"
       d="M -27.5,-29.5 L -27.5,-23.5 C -20.517641,-23.5 -20.5,-21.811998 -20.5,-18.5 L -24.5,-18.5 L -17.5,-10.5 L -10.5,-18.5 L -14.5,-18.5 C -14.5,-25.124001 -17.561337,-29.5 -27.5,-29.5 z "
       id="path3176"
       sodipodi:nodetypes="cccccccc" />
    <path
       sodipodi:type="inkscape:offset"
       inkscape:radius="-0.96384346"
       inkscape:original="M 2.5 0.5 L 2.5 6.5 C 9.4823586 6.5 9.5 8.1880024 9.5 11.5 L 5.5 11.5 L 12.5 19.5 L 19.5 11.5 L 15.5 11.5 C 15.5 4.8759991 12.438663 0.5 2.5 0.5 z "
       style="opacity:0.6;color:black;fill:none;fill-opacity:1;fill-rule:nonzero;stroke:white;stroke-width:1;stroke-linecap:round;stroke-linejoin:miter;marker:none;marker-start:none;marker-mid:none;marker-end:none;stroke-miterlimit:4;stroke-dasharray:none;stroke-dashoffset:1.4;stroke-opacity:1;visibility:visible;display:inline;overflow:visible"
       id="path3219"
       d="M 3.46875,1.59375 L 3.46875,5.59375 C 6.3272378,5.6706431 8.1961009,6.0283235 9.28125,7.0625 C 9.8929437,7.6454607 10.210693,8.4065883 10.34375,9.15625 C 10.476807,9.9059117 10.46875,10.671145 10.46875,11.5 C 10.470037,11.757321 10.368386,12.004475 10.186431,12.186431 C 10.004475,12.368386 9.7573209,12.470037 9.5,12.46875 L 7.625,12.46875 L 12.5,18.0625 L 17.375,12.46875 L 15.5,12.46875 C 15.242679,12.470037 14.995525,12.368386 14.813569,12.186431 C 14.631614,12.004475 14.529963,11.757321 14.53125,11.5 C 14.53125,8.3364823 13.826811,5.9077778 12.0625,4.21875 C 10.442168,2.6675578 7.627906,1.7499135 3.46875,1.59375 z "
       transform="translate(-30,-30)" />
    <path
       sodipodi:type="arc"
       style="opacity:0.2;color:black;fill:url(#radialGradient3306);fill-opacity:1;fill-rule:nonzero;stroke:none;stroke-width:1;stroke-linecap:round;stroke-linejoin:miter;marker:none;marker-start:none;marker-mid:none;marker-end:none;stroke-miterlimit:4;stroke-dasharray:none;stroke-dashoffset:1.4;stroke-opacity:1;visibility:visible;display:inline;overflow:visible"
       id="path3300"
       sodipodi:cx="12.15625"
       sodipodi:cy="16.96875"
       sodipodi:rx="7.84375"
       sodipodi:ry="4.21875"
       d="M 20 16.96875 A 7.84375 4.21875 0 1 1  4.3125,16.96875 A 7.84375 4.21875 0 1 1  20 16.96875 z"
       transform="matrix(1.211155,0,0,1.066665,-35.2231,-80.59998)" />
    <path
       style="opacity:1;color:black;fill:#ad7fa8;fill-opacity:1;fill-rule:nonzero;stroke:#5c3566;stroke-width:1;stroke-linecap:round;stroke-linejoin:miter;marker:none;marker-start:none;marker-mid:none;marker-end:none;stroke-miterlimit:4;stroke-dasharray:none;stroke-dashoffset:1.4;stroke-opacity:1;visibility:visible;display:inline;overflow:visible"
       d="M -14.9375,-79.5 C -20.189931,-79.5 -24.5,-75.189931 -24.5,-69.9375 L -24.5,-68.5 L -28.5,-68.5 L -21.5,-60.5 L -14.5,-68.5 L -18.5,-68.5 L -18.5,-69.9375 C -18.5,-71.969714 -16.969714,-73.5 -14.9375,-73.5 L -10.5,-73.5 L -10.5,-79.5 L -14.9375,-79.5 z "
       id="path3302" />
    <path
       style="opacity:0.5;color:black;fill:#5c3566;fill-opacity:1;fill-rule:nonzero;stroke:none;stroke-width:1;stroke-linecap:round;stroke-linejoin:miter;marker:none;marker-start:none;marker-mid:none;marker-end:none;stroke-miterlimit:4;stroke-dasharray:none;stroke-dashoffset:1.4;stroke-opacity:1;visibility:visible;display:inline;overflow:visible"
       d="M -13.9375,-76.03125 C -18.930344,-76.03125 -21.03125,-73.836203 -21.03125,-69.9375 L -20.96875,-61.84375 L -20.5,-61.28125 L -14.625,-68 L -17.5,-68 C -17.775588,-68.001334 -17.998666,-68.224412 -18,-68.5 L -18,-69.9375 C -18,-72.221918 -16.221918,-74 -13.9375,-74 L -10,-74 L -10,-76.03125 L -13.9375,-76.03125 z "
       id="path3320"
       sodipodi:nodetypes="cccccccccccc" />
    <path
       sodipodi:type="inkscape:offset"
       inkscape:radius="-0.99436891"
       inkscape:original="M 15.0625 0.5 C 9.810069 0.5 5.5 4.810069 5.5 10.0625 L 5.5 11.5 L 1.5 11.5 L 8.5 19.5 L 15.5 11.5 L 11.5 11.5 L 11.5 10.0625 C 11.5 8.0302856 13.030286 6.5 15.0625 6.5 L 19.5 6.5 L 19.5 0.5 L 15.0625 0.5 z "
       style="opacity:0.6;color:black;fill:none;fill-opacity:1;fill-rule:nonzero;stroke:url(#linearGradient3377);stroke-width:1;stroke-linecap:round;stroke-linejoin:miter;marker:none;marker-start:none;marker-mid:none;marker-end:none;stroke-miterlimit:4;stroke-dasharray:none;stroke-dashoffset:1.4;stroke-opacity:1;visibility:visible;display:inline;overflow:visible"
       id="path3304"
       d="M 15.0625,1.5 C 10.354046,1.5 6.5,5.3540455 6.5,10.0625 L 6.5,11.5 C 6.5014819,11.765668 6.396601,12.020884 6.2087424,12.208742 C 6.0208839,12.396601 5.765668,12.501482 5.5,12.5 L 3.6875,12.5 L 8.5,18 L 13.3125,12.5 L 11.5,12.5 C 11.234332,12.501482 10.979116,12.396601 10.791258,12.208742 C 10.603399,12.020884 10.498518,11.765668 10.5,11.5 L 10.5,10.0625 C 10.5,7.5311031 12.531104,5.5 15.0625,5.5 L 18.5,5.5 L 18.5,1.5 L 15.0625,1.5 z "
       transform="translate(-30,-80)" />
    <path
       style="opacity:1;color:black;fill:url(#linearGradient2530);fill-opacity:1;fill-rule:nonzero;stroke:#ce5c00;stroke-width:1;stroke-linecap:round;stroke-linejoin:miter;marker:none;marker-start:none;marker-mid:none;marker-end:none;stroke-miterlimit:4;stroke-dasharray:none;stroke-dashoffset:1.4;stroke-opacity:1;visibility:visible;display:inline;overflow:visible"
       d="M -135.5,12.5 L -128.5,20.5 L -121.5,12.5 L -135.5,12.5 z "
       id="path2526"
       inkscape:export-filename="/home/lapo/Desktop/rotate.png"
       inkscape:export-xdpi="90"
       inkscape:export-ydpi="90"
       sodipodi:nodetypes="cccc" />
    <path
       style="opacity:1;color:black;fill:url(#linearGradient2532);fill-opacity:1;fill-rule:nonzero;stroke:#ce5c00;stroke-width:1;stroke-linecap:round;stroke-linejoin:miter;marker:none;marker-start:none;marker-mid:none;marker-end:none;stroke-miterlimit:4;stroke-dasharray:none;stroke-dashoffset:1.4;stroke-opacity:1;visibility:visible;display:inline;overflow:visible"
       d="M -135.5,8.5 L -128.5,0.5 L -121.5,8.5 L -135.5,8.5 z "
       id="path2528"
       inkscape:export-filename="/home/lapo/Desktop/rotate.png"
       inkscape:export-xdpi="90"
       inkscape:export-ydpi="90"
       sodipodi:nodetypes="cccc" />
  </g>
</svg>
