<?xml version="1.0" encoding="UTF-8" standalone="no"?>
<!-- Created with Inkscape (http://www.inkscape.org/) -->
<svg
   xmlns:dc="http://purl.org/dc/elements/1.1/"
   xmlns:cc="http://web.resource.org/cc/"
   xmlns:rdf="http://www.w3.org/1999/02/22-rdf-syntax-ns#"
   xmlns:svg="http://www.w3.org/2000/svg"
   xmlns="http://www.w3.org/2000/svg"
   xmlns:xlink="http://www.w3.org/1999/xlink"
   xmlns:sodipodi="http://sodipodi.sourceforge.net/DTD/sodipodi-0.dtd"
   xmlns:inkscape="http://www.inkscape.org/namespaces/inkscape"
   width="22"
   height="22"
   id="svg5157"
   sodipodi:version="0.32"
   inkscape:version="0.45"
   version="1.0"
   sodipodi:docbase="/home/lapo/Icone/svn/gnome-icon-theme/22x22/actions"
   sodipodi:docname="system-log-out.svg"
   inkscape:output_extension="org.inkscape.output.svg.inkscape"
   inkscape:export-filename="/home/kalle/Grafik/Tango/system-log-out/24x24/system-log-out.png"
   inkscape:export-xdpi="90"
   inkscape:export-ydpi="90"
   sodipodi:modified="true">
  <defs
     id="defs5159">
    <linearGradient
       id="linearGradient6967">
      <stop
         style="stop-color:#8ae234;stop-opacity:1;"
         offset="0"
         id="stop6969" />
      <stop
         style="stop-color:#afeb73;stop-opacity:1;"
         offset="1"
         id="stop6971" />
    </linearGradient>
    <linearGradient
       inkscape:collect="always"
       id="linearGradient6926">
      <stop
         style="stop-color:#000000;stop-opacity:1;"
         offset="0"
         id="stop6928" />
      <stop
         style="stop-color:#000000;stop-opacity:0;"
         offset="1"
         id="stop6930" />
    </linearGradient>
    <radialGradient
       inkscape:collect="always"
       xlink:href="#linearGradient6926"
       id="radialGradient6932"
       cx="11.96875"
       cy="18.96875"
       fx="11.96875"
       fy="18.96875"
       r="9.78125"
       gradientTransform="matrix(1,0,0,0.3226837,0,12.847843)"
       gradientUnits="userSpaceOnUse" />
    <radialGradient
       inkscape:collect="always"
       xlink:href="#linearGradient6926"
       id="radialGradient6936"
       gradientUnits="userSpaceOnUse"
       gradientTransform="matrix(1,0,0,0.3226837,0,12.847843)"
       cx="11.96875"
       cy="18.96875"
       fx="11.96875"
       fy="18.96875"
       r="9.78125" />
    <linearGradient
       inkscape:collect="always"
       xlink:href="#linearGradient6967"
       id="linearGradient6973"
       x1="13.0625"
       y1="14.4375"
       x2="9.625"
       y2="2.625"
       gradientUnits="userSpaceOnUse" />
  </defs>
  <sodipodi:namedview
     id="base"
     pagecolor="#ffffff"
     bordercolor="#666666"
     borderopacity="1.0"
     gridtolerance="10000"
     guidetolerance="10"
     objecttolerance="10"
     inkscape:pageopacity="0.0"
     inkscape:pageshadow="2"
     inkscape:zoom="1"
     inkscape:cx="4.2215397"
     inkscape:cy="12.163101"
     inkscape:document-units="px"
     inkscape:current-layer="layer1"
     width="22px"
     height="22px"
     inkscape:window-width="872"
     inkscape:window-height="624"
     inkscape:window-x="10"
     inkscape:window-y="48"
     showgrid="false"
     inkscape:showpageshadow="false"
     showborder="false"
     showguides="false" />
  <metadata
     id="metadata5162">
    <rdf:RDF>
      <cc:Work
         rdf:about="">
        <dc:format>image/svg+xml</dc:format>
        <dc:type
           rdf:resource="http://purl.org/dc/dcmitype/StillImage" />
        <dc:title>System-log-out</dc:title>
        <dc:date>2007-08-27</dc:date>
        <dc:creator>
          <cc:Agent>
            <dc:title>Kalle Persson</dc:title>
          </cc:Agent>
        </dc:creator>
        <dc:source>http://nemus.se</dc:source>
        <cc:license
           rdf:resource="http://creativecommons.org/licenses/GPL/2.0/" />
        <dc:contributor>
          <cc:Agent>
            <dc:title>Lapo Calamandrei</dc:title>
          </cc:Agent>
        </dc:contributor>
      </cc:Work>
      <cc:License
         rdf:about="http://creativecommons.org/licenses/GPL/2.0/">
        <cc:permits
           rdf:resource="http://web.resource.org/cc/Reproduction" />
        <cc:permits
           rdf:resource="http://web.resource.org/cc/Distribution" />
        <cc:requires
           rdf:resource="http://web.resource.org/cc/Notice" />
        <cc:permits
           rdf:resource="http://web.resource.org/cc/DerivativeWorks" />
        <cc:requires
           rdf:resource="http://web.resource.org/cc/ShareAlike" />
        <cc:requires
           rdf:resource="http://web.resource.org/cc/SourceCode" />
      </cc:License>
    </rdf:RDF>
  </metadata>
  <g
     inkscape:label="Layer 1"
     inkscape:groupmode="layer"
     id="layer1">
    <g
       id="g6938">
      <path
         transform="matrix(1.1246006,0,0,0.5076444,-3.4600639,10.768369)"
         d="M 21.75 18.96875 A 9.78125 3.15625 0 1 1  2.1875,18.96875 A 9.78125 3.15625 0 1 1  21.75 18.96875 z"
         sodipodi:ry="3.15625"
         sodipodi:rx="9.78125"
         sodipodi:cy="18.96875"
         sodipodi:cx="11.96875"
         id="path5955"
         style="opacity:0.2;fill:url(#radialGradient6932);fill-opacity:1;fill-rule:evenodd;stroke:none;stroke-width:2;stroke-linecap:round;stroke-linejoin:miter;stroke-miterlimit:4;stroke-dasharray:none;stroke-dashoffset:0.69999992;stroke-opacity:1"
         sodipodi:type="arc" />
      <path
         transform="matrix(0.3578275,0,0,0.3168317,10.217252,14.990099)"
         d="M 21.75 18.96875 A 9.78125 3.15625 0 1 1  2.1875,18.96875 A 9.78125 3.15625 0 1 1  21.75 18.96875 z"
         sodipodi:ry="3.15625"
         sodipodi:rx="9.78125"
         sodipodi:cy="18.96875"
         sodipodi:cx="11.96875"
         id="path6934"
         style="opacity:0.3;fill:url(#radialGradient6936);fill-opacity:1;fill-rule:evenodd;stroke:none;stroke-width:2;stroke-linecap:round;stroke-linejoin:miter;stroke-miterlimit:4;stroke-dasharray:none;stroke-dashoffset:0.69999992;stroke-opacity:1"
         sodipodi:type="arc" />
    </g>
    <path
       style="color:#000000;fill:url(#linearGradient6973);fill-opacity:1.0;fill-rule:nonzero;stroke:#4e9a06;stroke-width:0.9999997;stroke-linecap:round;stroke-linejoin:round;marker:none;marker-start:none;marker-mid:none;marker-end:none;stroke-miterlimit:4;stroke-dasharray:none;stroke-dashoffset:0;stroke-opacity:1;visibility:visible;display:inline;overflow:visible;enable-background:accumulate"
       d="M 15.5,0.5 C 14.395719,0.5 13.5,1.396 13.5,2.5 C 13.5,3.604 14.395719,4.5 15.5,4.5 C 16.604281,4.5 17.5,3.604 17.5,2.5 C 17.5,1.396 16.604282,0.5 15.5,0.5 z M 6.484835,4.5 L 3.4638483,8.6066942 L 4.4395743,9.501048 L 5.5732233,9.294194 L 7.631932,6.5129442 L 10.9375,6.53125 C 10.9375,6.5312499 7.46875,10.655965 7.46875,11.34375 C 7.4687501,12.001592 7.5,14.639482 7.5,15.6875 C 7.5000001,16.600205 5.875,16.53125 5.875,16.53125 L 1.5,16.53125 L 1.5,18.5 C 1.5,18.5 7.1118929,18.5 8.09375,18.5 C 8.9875033,18.5 9.5,18.024155 9.5,17.0625 C 9.4999997,16.861634 9.5,14.5 9.5,14.5 C 9.5,14.5 10.271148,14.470056 10.6875,14.5 C 11.103851,14.529944 13.5,16.8125 13.5,16.8125 L 13.5,21.5 L 15.53125,21.5 C 15.53125,21.500001 15.53412,17.549327 15.53125,16.53125 C 15.528359,15.511497 14.9375,15.15625 14.9375,15.15625 C 14.9375,15.15625 11.974945,12.832975 11.71875,12.59375 C 11.241278,12.147889 11.625,11.9375 11.625,11.9375 L 13.5,9.4375 C 13.5,9.4375001 13.484366,11.030763 13.5,11.21875 C 13.533589,11.622725 14.375,11.5 14.375,11.5 L 19.925476,11.5 L 20.5,10.509515 L 19.925476,9.53125 L 15.46875,9.53125 L 15.5,6.40625 L 12,4.5 L 6.484835,4.5 z "
       id="path15086"
       sodipodi:nodetypes="cssscccccccsscccsscscccscsccscccccccc" />
    <path
       style="fill:#6bc514;fill-opacity:1;fill-rule:evenodd;stroke:none;stroke-width:1px;stroke-linecap:butt;stroke-linejoin:miter;stroke-opacity:1"
       d="M 12.471673,6.4999999 L 14.034572,7.3749999 L 14.034572,7.9687499 C 14.034572,7.9687499 13.065575,7.5312499 12.190352,8.7187499 C 11.315129,9.90625 10.127326,11.40625 10.127326,11.40625 C 10.127326,11.40625 9.7834887,12 9.9397785,12.34375 C 10.096068,12.6875 10.314874,13 10.314874,13 L 8.9707816,13.0625 L 8.9707816,11.53125 L 12.190352,7.4374999 C 12.190352,7.4374999 12.471673,6.4062499 12.471673,6.4999999 z "
       id="path5046"
       inkscape:export-filename="/home/kalle/Desktop/system-log-out.png"
       inkscape:export-xdpi="90"
       inkscape:export-ydpi="90" />
    <rect
       style="opacity:1;fill:#73d216;fill-opacity:1;fill-rule:evenodd;stroke:none;stroke-width:1;stroke-linecap:round;stroke-linejoin:miter;stroke-miterlimit:4;stroke-dasharray:none;stroke-dashoffset:0.69999992;stroke-opacity:1"
       id="rect6975"
       width="1"
       height="1"
       x="15"
       y="2" />
    <rect
       style="opacity:1;fill:#8ae234;fill-opacity:1;fill-rule:evenodd;stroke:none;stroke-width:1;stroke-linecap:round;stroke-linejoin:miter;stroke-miterlimit:4;stroke-dasharray:none;stroke-dashoffset:0.69999992;stroke-opacity:1"
       id="rect5936"
       width="1"
       height="0.99565071"
       x="19"
       y="10" />
    <rect
       style="opacity:1;fill:#4e9a06;fill-opacity:1;fill-rule:evenodd;stroke:none;stroke-width:1;stroke-linecap:round;stroke-linejoin:miter;stroke-miterlimit:4;stroke-dasharray:none;stroke-dashoffset:0.69999992;stroke-opacity:1"
       id="rect6907"
       width="1"
       height="0.99565071"
       x="20"
       y="10" />
  </g>
</svg>
