<?xml version="1.0" encoding="UTF-8" standalone="no"?>
<!-- Created with Inkscape (http://www.inkscape.org/) -->
<svg
   xmlns:dc="http://purl.org/dc/elements/1.1/"
   xmlns:cc="http://web.resource.org/cc/"
   xmlns:rdf="http://www.w3.org/1999/02/22-rdf-syntax-ns#"
   xmlns:svg="http://www.w3.org/2000/svg"
   xmlns="http://www.w3.org/2000/svg"
   xmlns:xlink="http://www.w3.org/1999/xlink"
   xmlns:sodipodi="http://sodipodi.sourceforge.net/DTD/sodipodi-0.dtd"
   xmlns:inkscape="http://www.inkscape.org/namespaces/inkscape"
   width="48"
   height="48"
   id="svg2"
   sodipodi:version="0.32"
   inkscape:version="0.45"
   version="1.0"
   sodipodi:docbase="/home/dobey/Projects/gnome-icon-theme/scalable/status"
   sodipodi:docname="audio-volume-low.svg"
   inkscape:output_extension="org.inkscape.output.svg.inkscape">
  <defs
     id="defs4">
    <linearGradient
       id="linearGradient6958">
      <stop
         style="stop-color:#729fcf;stop-opacity:1;"
         offset="0"
         id="stop6960" />
      <stop
         id="stop6966"
         offset="0.60000002"
         style="stop-color:#729fcf;stop-opacity:1;" />
      <stop
         style="stop-color:#729fcf;stop-opacity:0;"
         offset="1"
         id="stop6962" />
    </linearGradient>
    <linearGradient
       inkscape:collect="always"
       id="linearGradient6700">
      <stop
         style="stop-color:#ffffff;stop-opacity:1;"
         offset="0"
         id="stop6702" />
      <stop
         style="stop-color:#ffffff;stop-opacity:0;"
         offset="1"
         id="stop6704" />
    </linearGradient>
    <linearGradient
       inkscape:collect="always"
       id="linearGradient6628">
      <stop
         style="stop-color:#000000;stop-opacity:1;"
         offset="0"
         id="stop6630" />
      <stop
         style="stop-color:#000000;stop-opacity:0;"
         offset="1"
         id="stop6632" />
    </linearGradient>
    <linearGradient
       inkscape:collect="always"
       id="linearGradient6546">
      <stop
         style="stop-color:#555753;stop-opacity:1;"
         offset="0"
         id="stop6548" />
      <stop
         style="stop-color:#888a85;stop-opacity:1"
         offset="1"
         id="stop6550" />
    </linearGradient>
    <linearGradient
       id="linearGradient6667"
       inkscape:collect="always">
      <stop
         id="stop6669"
         offset="0"
         style="stop-color:#babdb6;stop-opacity:1" />
      <stop
         id="stop6671"
         offset="1"
         style="stop-color:#555753;stop-opacity:1" />
    </linearGradient>
    <linearGradient
       inkscape:collect="always"
       id="linearGradient6651">
      <stop
         style="stop-color:#ffffff;stop-opacity:1;"
         offset="0"
         id="stop6653" />
      <stop
         style="stop-color:#ffffff;stop-opacity:0;"
         offset="1"
         id="stop6655" />
    </linearGradient>
    <linearGradient
       id="linearGradient6643">
      <stop
         style="stop-color:#555753;stop-opacity:1"
         offset="0"
         id="stop6645" />
      <stop
         style="stop-color:#d3d7cf;stop-opacity:1"
         offset="1"
         id="stop6647" />
    </linearGradient>
    <linearGradient
       id="linearGradient6633"
       inkscape:collect="always">
      <stop
         id="stop6635"
         offset="0"
         style="stop-color:#eeeeec;stop-opacity:1;" />
      <stop
         id="stop6637"
         offset="1"
         style="stop-color:#61635f;stop-opacity:1" />
    </linearGradient>
    <linearGradient
       id="linearGradient6627">
      <stop
         style="stop-color:#555753;stop-opacity:1"
         offset="0"
         id="stop6629" />
      <stop
         style="stop-color:#babdb6;stop-opacity:1"
         offset="1"
         id="stop6631" />
    </linearGradient>
    <linearGradient
       inkscape:collect="always"
       id="linearGradient6607">
      <stop
         style="stop-color:#eeeeec;stop-opacity:1"
         offset="0"
         id="stop6609" />
      <stop
         style="stop-color:#babdb6;stop-opacity:1"
         offset="1"
         id="stop6611" />
    </linearGradient>
    <linearGradient
       inkscape:collect="always"
       id="linearGradient6589">
      <stop
         style="stop-color:#babdb6;stop-opacity:1"
         offset="0"
         id="stop6591" />
      <stop
         style="stop-color:#555753;stop-opacity:1"
         offset="1"
         id="stop6593" />
    </linearGradient>
    <linearGradient
       inkscape:collect="always"
       id="linearGradient6573">
      <stop
         style="stop-color:#ffffff;stop-opacity:1;"
         offset="0"
         id="stop6575" />
      <stop
         style="stop-color:#ffffff;stop-opacity:0;"
         offset="1"
         id="stop6577" />
    </linearGradient>
    <linearGradient
       inkscape:collect="always"
       id="linearGradient6531">
      <stop
         style="stop-color:#ffffff;stop-opacity:1;"
         offset="0"
         id="stop6533" />
      <stop
         style="stop-color:#ffffff;stop-opacity:0;"
         offset="1"
         id="stop6535" />
    </linearGradient>
    <linearGradient
       id="linearGradient5533">
      <stop
         style="stop-color:#555753;stop-opacity:1"
         offset="0"
         id="stop5535" />
      <stop
         style="stop-color:#babdb6;stop-opacity:1"
         offset="1"
         id="stop5537" />
    </linearGradient>
    <linearGradient
       id="linearGradient21662">
      <stop
         id="stop21664"
         offset="0"
         style="stop-color:#3465a4;stop-opacity:0;" />
      <stop
         style="stop-color:#3465a4;stop-opacity:0;"
         offset="0.81927711"
         id="stop21666" />
      <stop
         id="stop21668"
         offset="1"
         style="stop-color:#3465a4;stop-opacity:1" />
    </linearGradient>
    <linearGradient
       id="linearGradient21644">
      <stop
         id="stop21646"
         offset="0"
         style="stop-color:#3465a4;stop-opacity:0;" />
      <stop
         style="stop-color:#3465a4;stop-opacity:0;"
         offset="0.73493975"
         id="stop21648" />
      <stop
         id="stop21650"
         offset="1"
         style="stop-color:#3465a4;stop-opacity:1" />
    </linearGradient>
    <linearGradient
       id="linearGradient21622">
      <stop
         style="stop-color:#3465a4;stop-opacity:0;"
         offset="0"
         id="stop21624" />
      <stop
         id="stop21630"
         offset="0.85542166"
         style="stop-color:#3465a4;stop-opacity:0;" />
      <stop
         style="stop-color:#3465a4;stop-opacity:1"
         offset="1"
         id="stop21626" />
    </linearGradient>
    <linearGradient
       inkscape:collect="always"
       id="linearGradient17123">
      <stop
         style="stop-color:black;stop-opacity:1;"
         offset="0"
         id="stop17125" />
      <stop
         style="stop-color:black;stop-opacity:0;"
         offset="1"
         id="stop17127" />
    </linearGradient>
    <linearGradient
       id="linearGradient9086">
      <stop
         id="stop9088"
         offset="0"
         style="stop-color:black;stop-opacity:1;" />
      <stop
         id="stop9090"
         offset="1"
         style="stop-color:black;stop-opacity:0;" />
    </linearGradient>
    <linearGradient
       id="linearGradient6387">
      <stop
         style="stop-color:white;stop-opacity:1;"
         offset="0"
         id="stop6389" />
      <stop
         style="stop-color:white;stop-opacity:0;"
         offset="1"
         id="stop6391" />
    </linearGradient>
    <linearGradient
       id="linearGradient6379">
      <stop
         style="stop-color:white;stop-opacity:0;"
         offset="0"
         id="stop6381" />
      <stop
         id="stop21606"
         offset="0.5"
         style="stop-color:white;stop-opacity:1;" />
      <stop
         style="stop-color:white;stop-opacity:0;"
         offset="1"
         id="stop6383" />
    </linearGradient>
    <linearGradient
       id="linearGradient2793">
      <stop
         style="stop-color:#babdb6;stop-opacity:1;"
         offset="0"
         id="stop2795" />
      <stop
         id="stop2801"
         offset="0.25301206"
         style="stop-color:#eeeeec;stop-opacity:1;" />
      <stop
         style="stop-color:#555753;stop-opacity:1"
         offset="1"
         id="stop2797" />
    </linearGradient>
    <linearGradient
       inkscape:collect="always"
       xlink:href="#linearGradient6387"
       id="linearGradient6393"
       x1="17.25"
       y1="18.81151"
       x2="16.1875"
       y2="32.629498"
       gradientUnits="userSpaceOnUse"
       gradientTransform="translate(-28,0)" />
    <radialGradient
       inkscape:collect="always"
       xlink:href="#linearGradient9086"
       id="radialGradient8199"
       cx="7.1396246"
       cy="22.5"
       fx="7.1396246"
       fy="22.5"
       r="6"
       gradientTransform="matrix(1.914836,-0.506192,0.654838,2.477012,-48.62381,-29.61876)"
       gradientUnits="userSpaceOnUse" />
    <radialGradient
       inkscape:collect="always"
       xlink:href="#linearGradient21622"
       id="radialGradient21684"
       gradientUnits="userSpaceOnUse"
       cx="20.84375"
       cy="21.84375"
       fx="20.84375"
       fy="21.84375"
       r="2.9063251" />
    <radialGradient
       inkscape:collect="always"
       xlink:href="#linearGradient21662"
       id="radialGradient21686"
       gradientUnits="userSpaceOnUse"
       cx="20.84375"
       cy="21.84375"
       fx="20.84375"
       fy="21.84375"
       r="2.9063251" />
    <radialGradient
       inkscape:collect="always"
       xlink:href="#linearGradient21644"
       id="radialGradient21688"
       gradientUnits="userSpaceOnUse"
       cx="20.84375"
       cy="21.84375"
       fx="20.84375"
       fy="21.84375"
       r="2.9063251" />
    <linearGradient
       inkscape:collect="always"
       xlink:href="#linearGradient2793"
       id="linearGradient5545"
       gradientUnits="userSpaceOnUse"
       x1="78.5"
       y1="-4.0065207"
       x2="78.5"
       y2="14.00099"
       gradientTransform="matrix(0.90625,0,0,1,-65.921875,19)" />
    <linearGradient
       inkscape:collect="always"
       xlink:href="#linearGradient5533"
       id="linearGradient5547"
       gradientUnits="userSpaceOnUse"
       x1="80.0625"
       y1="14"
       x2="80.0625"
       y2="-4.0087729"
       gradientTransform="matrix(0.90625,0,0,1,-65.921875,19)" />
    <linearGradient
       inkscape:collect="always"
       xlink:href="#linearGradient6531"
       id="linearGradient6537"
       x1="3.8448932"
       y1="15.561477"
       x2="3.8448932"
       y2="39.884338"
       gradientUnits="userSpaceOnUse" />
    <linearGradient
       inkscape:collect="always"
       xlink:href="#linearGradient6627"
       id="linearGradient6545"
       x1="7.75"
       y1="33.046577"
       x2="4.6431866"
       y2="12.063652"
       gradientUnits="userSpaceOnUse"
       gradientTransform="matrix(0.9114584,0,0,0.8787879,2.7005208,4.6666545)" />
    <radialGradient
       inkscape:collect="always"
       xlink:href="#linearGradient6633"
       id="radialGradient6553"
       cx="9.3203983"
       cy="18.817093"
       fx="9.3203983"
       fy="18.817093"
       r="12.5"
       gradientTransform="matrix(0.7132478,0.5221478,-0.9280778,1.1784895,22.517143,-6.7083001)"
       gradientUnits="userSpaceOnUse" />
    <linearGradient
       inkscape:collect="always"
       xlink:href="#linearGradient6573"
       id="linearGradient6579"
       x1="12.197592"
       y1="9.2597418"
       x2="12.197592"
       y2="47.496857"
       gradientUnits="userSpaceOnUse" />
    <radialGradient
       inkscape:collect="always"
       xlink:href="#linearGradient6667"
       id="radialGradient6595"
       cx="23.164974"
       cy="30.23279"
       fx="23.164974"
       fy="30.23279"
       r="8.1890125"
       gradientTransform="matrix(1.7346265,-0.1698771,0.327755,3.6175226,-27.429343,-73.69679)"
       gradientUnits="userSpaceOnUse" />
    <radialGradient
       inkscape:collect="always"
       xlink:href="#linearGradient6589"
       id="radialGradient6603"
       cx="20.8839"
       cy="20.434256"
       fx="20.8839"
       fy="20.434256"
       r="3.9999842"
       gradientTransform="matrix(1.3093938,0,0,1.5604932,-8.3886376,-9.784483)"
       gradientUnits="userSpaceOnUse" />
    <linearGradient
       inkscape:collect="always"
       xlink:href="#linearGradient6379"
       id="linearGradient6641"
       gradientUnits="userSpaceOnUse"
       x1="20.226221"
       y1="20.33363"
       x2="11.4375"
       y2="21.75"
       gradientTransform="matrix(0.6666667,0,0,1,2,-1)" />
    <radialGradient
       inkscape:collect="always"
       xlink:href="#linearGradient6651"
       id="radialGradient6657"
       cx="23.986883"
       cy="27.053167"
       fx="23.986883"
       fy="27.053167"
       r="7.75"
       gradientTransform="matrix(-0.2432942,0,0,-1.2543129,25.221399,61.870636)"
       gradientUnits="userSpaceOnUse" />
    <linearGradient
       inkscape:collect="always"
       xlink:href="#linearGradient6546"
       id="linearGradient6558"
       gradientUnits="userSpaceOnUse"
       x1="80.693359"
       y1="31.561478"
       x2="77.125"
       y2="14"
       gradientTransform="translate(-70,2)" />
    <radialGradient
       inkscape:collect="always"
       xlink:href="#linearGradient6607"
       id="radialGradient6625"
       gradientUnits="userSpaceOnUse"
       gradientTransform="matrix(3.9866298,0.1169977,0,-2.530036,-104.62676,112.74341)"
       cx="30.685316"
       cy="42.261425"
       fx="30.685316"
       fy="42.261425"
       r="8.22791" />
    <linearGradient
       inkscape:collect="always"
       xlink:href="#linearGradient6628"
       id="linearGradient6634"
       x1="23.238182"
       y1="12.158657"
       x2="29.892563"
       y2="26.354361"
       gradientUnits="userSpaceOnUse" />
    <linearGradient
       inkscape:collect="always"
       xlink:href="#linearGradient6700"
       id="linearGradient6706"
       x1="17.5"
       y1="25.587416"
       x2="28.555141"
       y2="25.699326"
       gradientUnits="userSpaceOnUse" />
    <linearGradient
       inkscape:collect="always"
       xlink:href="#linearGradient6643"
       id="linearGradient6801"
       gradientUnits="userSpaceOnUse"
       x1="33.430557"
       y1="45.052155"
       x2="33.430557"
       y2="0.31037101" />
    <radialGradient
       inkscape:collect="always"
       xlink:href="#linearGradient6958"
       id="radialGradient6984"
       cx="60.640625"
       cy="22.65625"
       fx="60.640625"
       fy="22.65625"
       r="2.6194003"
       gradientTransform="matrix(2.1454532,0,0,3.0191635,-69.461,-45.746674)"
       gradientUnits="userSpaceOnUse" />
    <radialGradient
       inkscape:collect="always"
       xlink:href="#linearGradient17123"
       id="radialGradient7118"
       gradientUnits="userSpaceOnUse"
       gradientTransform="matrix(1,0,0,0.330579,0,24.67693)"
       cx="11.402097"
       cy="36.863068"
       fx="11.402097"
       fy="36.863068"
       r="10.69499" />
  </defs>
  <sodipodi:namedview
     id="base"
     pagecolor="#ffffff"
     bordercolor="#666666"
     borderopacity="1.0"
     inkscape:pageopacity="0.0"
     inkscape:pageshadow="2"
     inkscape:zoom="1"
     inkscape:cx="24"
     inkscape:cy="42.911478"
     inkscape:document-units="px"
     inkscape:current-layer="layer2"
     width="48px"
     height="48px"
     inkscape:showpageshadow="false"
     borderlayer="true"
     showgrid="false"
     gridspacingx="0.5px"
     gridspacingy="0.5px"
     gridempspacing="2"
     inkscape:window-width="1051"
     inkscape:window-height="936"
     inkscape:window-x="14"
     inkscape:window-y="43"
     inkscape:guide-points="false"
     inkscape:grid-points="true"
     showguides="false"
     inkscape:guide-bbox="true"
     showborder="false"
     inkscape:grid-bbox="true">
    <sodipodi:guide
       orientation="vertical"
       position="22"
       id="guide21670" />
    <sodipodi:guide
       orientation="horizontal"
       position="26"
       id="guide21672" />
    <sodipodi:guide
       orientation="vertical"
       position="32"
       id="guide6673" />
    <inkscape:grid
       type="xygrid"
       id="grid6385" />
    <sodipodi:guide
       orientation="horizontal"
       position="2.5"
       id="guide6925" />
  </sodipodi:namedview>
  <metadata
     id="metadata7">
    <rdf:RDF>
      <cc:Work
         rdf:about="">
        <dc:format>image/svg+xml</dc:format>
        <dc:type
           rdf:resource="http://purl.org/dc/dcmitype/StillImage" />
        <dc:creator>
          <cc:Agent>
            <dc:title>Ulisse Perusin</dc:title>
          </cc:Agent>
        </dc:creator>
        <cc:license
           rdf:resource="http://creativecommons.org/licenses/GPL/2.0/" />
        <dc:title>Audio Volume High</dc:title>
        <dc:contributor>
          <cc:Agent>
            <dc:title>Lapo Calamandrei</dc:title>
          </cc:Agent>
        </dc:contributor>
      </cc:Work>
      <cc:License
         rdf:about="http://creativecommons.org/licenses/GPL/2.0/">
        <cc:permits
           rdf:resource="http://web.resource.org/cc/Reproduction" />
        <cc:permits
           rdf:resource="http://web.resource.org/cc/Distribution" />
        <cc:requires
           rdf:resource="http://web.resource.org/cc/Notice" />
        <cc:permits
           rdf:resource="http://web.resource.org/cc/DerivativeWorks" />
        <cc:requires
           rdf:resource="http://web.resource.org/cc/ShareAlike" />
        <cc:requires
           rdf:resource="http://web.resource.org/cc/SourceCode" />
      </cc:License>
    </rdf:RDF>
  </metadata>
  <g
     inkscape:groupmode="layer"
     id="layer3"
     inkscape:label="constr"
     style="display:none">
    <path
       style="opacity:0.83011588;fill:url(#radialGradient8199);fill-opacity:1;fill-rule:evenodd;stroke:none;stroke-width:1px;stroke-linecap:butt;stroke-linejoin:miter;stroke-opacity:1;display:inline"
       d="M -8.21875,10.5 L -20.21875,22.5 L -8.21875,34.5 L -8.21875,10.5 z "
       id="path7288"
       sodipodi:nodetypes="cccc" />
    <path
       style="opacity:0.76833975;fill:none;fill-opacity:1;fill-rule:evenodd;stroke:url(#linearGradient6393);stroke-width:1px;stroke-linecap:butt;stroke-linejoin:miter;stroke-opacity:1;display:inline"
       d="M -7,10.5 L -19,22.5 L -7,34.5 L -7,10.5 z "
       id="path2791"
       sodipodi:nodetypes="cccc" />
    <path
       sodipodi:type="inkscape:offset"
       inkscape:radius="0.50000006"
       inkscape:original="M 19.5 9.5 C 18 15 12 14 7.5 22.5 C 12 31 18 30 19.5 35.5 L 19.5 9.5 z "
       style="opacity:0.63320462;fill:#fce94f;fill-opacity:1;fill-rule:evenodd;stroke:none;stroke-width:1px;stroke-linecap:butt;stroke-linejoin:miter;stroke-opacity:1;display:inline"
       id="path21580"
       d="M 19.375,9 C 19.200644,9.0530225 19.06894,9.1967002 19.03125,9.375 C 18.327802,11.954311 16.604417,12.961638 14.34375,14.46875 C 12.083083,15.975862 9.3592888,17.942871 7.0625,22.28125 C 6.9953198,22.419346 6.9953198,22.580654 7.0625,22.71875 C 9.3592888,27.057129 12.083083,29.024138 14.34375,30.53125 C 16.604417,32.038362 18.327802,33.045689 19.03125,35.625 C 19.110592,35.845992 19.333006,35.982016 19.565879,35.951968 C 19.798752,35.92192 19.979353,35.733894 20,35.5 L 20,9.5 C 20.005,9.3425939 19.935556,9.1920293 19.812581,9.0936489 C 19.689605,8.9952685 19.527469,8.9605689 19.375,9 z "
       transform="translate(-42,0)" />
    <path
       style="fill:none;fill-rule:evenodd;stroke:black;stroke-width:1px;stroke-linecap:butt;stroke-linejoin:miter;stroke-opacity:1;display:inline"
       d="M -47.5,22.5 L -20,-8 L -20,56 L -47.5,22.5 z "
       id="path21676" />
    <path
       sodipodi:type="arc"
       style="opacity:1;fill:url(#radialGradient21684);fill-opacity:1;stroke:#204a87;stroke-width:0.12515022;stroke-linecap:round;stroke-linejoin:round;stroke-miterlimit:4;stroke-dasharray:none;stroke-dashoffset:1.20000057;stroke-opacity:1;display:inline"
       id="path21678"
       sodipodi:cx="20.84375"
       sodipodi:cy="21.84375"
       sodipodi:rx="2.84375"
       sodipodi:ry="2.84375"
       d="M 23.6875 21.84375 A 2.84375 2.84375 0 1 1  18,21.84375 A 2.84375 2.84375 0 1 1  23.6875 21.84375 z"
       transform="matrix(7.990397,0,0,7.990397,-220.7725,-152.0403)" />
    <path
       sodipodi:type="arc"
       style="opacity:1;fill:url(#radialGradient21686);fill-opacity:1;stroke:#204a87;stroke-width:0.18086948;stroke-linecap:round;stroke-linejoin:round;stroke-miterlimit:4;stroke-dasharray:none;stroke-dashoffset:1.20000057;stroke-opacity:1;display:inline"
       id="path21680"
       sodipodi:cx="20.84375"
       sodipodi:cy="21.84375"
       sodipodi:rx="2.84375"
       sodipodi:ry="2.84375"
       d="M 23.6875 21.84375 A 2.84375 2.84375 0 1 1  18,21.84375 A 2.84375 2.84375 0 1 1  23.6875 21.84375 z"
       transform="matrix(5.528848,0,0,5.528848,-169.4646,-98.27085)" />
    <path
       sodipodi:type="arc"
       style="opacity:1;fill:url(#radialGradient21688);fill-opacity:1;stroke:#204a87;stroke-width:0.29248634;stroke-linecap:round;stroke-linejoin:round;stroke-miterlimit:4;stroke-dasharray:none;stroke-dashoffset:1.20000057;stroke-opacity:1;display:inline"
       id="path21682"
       sodipodi:cx="20.84375"
       sodipodi:cy="21.84375"
       sodipodi:rx="2.84375"
       sodipodi:ry="2.84375"
       d="M 23.6875 21.84375 A 2.84375 2.84375 0 1 1  18,21.84375 A 2.84375 2.84375 0 1 1  23.6875 21.84375 z"
       transform="matrix(3.418962,0,0,3.418962,-125.4867,-52.18304)" />
  </g>
  <g
     inkscape:label="Livello 1"
     inkscape:groupmode="layer"
     id="layer1"
     style="display:inline">
    <path
       sodipodi:type="arc"
       style="opacity:0.2;fill:url(#radialGradient7118);fill-opacity:1;stroke:none;stroke-width:1;stroke-linecap:round;stroke-linejoin:round;stroke-miterlimit:4;stroke-dasharray:none;stroke-dashoffset:1.20000057;stroke-opacity:1"
       id="path16236"
       sodipodi:cx="11.402097"
       sodipodi:cy="36.863068"
       sodipodi:rx="10.69499"
       sodipodi:ry="3.5355339"
       d="M 22.097087 36.863068 A 10.69499 3.5355339 0 1 1  0.70710659,36.863068 A 10.69499 3.5355339 0 1 1  22.097087 36.863068 z"
       transform="matrix(1.5365906,0,0,2.4199734,-1.1723206,-56.384863)" />
    <path
       sodipodi:type="arc"
       style="fill:#2e3436;fill-opacity:1;stroke:#555753;stroke-width:1.30267787;stroke-linecap:round;stroke-linejoin:miter;stroke-miterlimit:4;stroke-dasharray:none;stroke-dashoffset:0;stroke-opacity:1"
       id="path5330"
       sodipodi:cx="4"
       sodipodi:cy="25"
       sodipodi:rx="4"
       sodipodi:ry="7"
       d="M 8 25 A 4 7 0 1 1  0,25 A 4 7 0 1 1  8 25 z"
       transform="matrix(0.75,0,0,0.7857143,1.5,4.357156)" />
    <path
       sodipodi:type="arc"
       style="opacity:1;fill:#babdb6;fill-opacity:1;stroke:none;stroke-width:1;stroke-linecap:round;stroke-linejoin:round;stroke-miterlimit:4;stroke-dasharray:none;stroke-dashoffset:1.20000057;stroke-opacity:1;display:inline"
       id="path6659"
       sodipodi:cx="3.75"
       sodipodi:cy="20.75"
       sodipodi:rx="0.75"
       sodipodi:ry="0.75"
       d="M 4.5 20.75 A 0.75 0.75 0 1 1  3,20.75 A 0.75 0.75 0 1 1  4.5 20.75 z"
       transform="translate(-1.53125,0.65625)" />
    <path
       style="fill:url(#linearGradient5545);fill-opacity:1;stroke:url(#linearGradient5547);stroke-width:1;stroke-linecap:round;stroke-linejoin:miter;stroke-miterlimit:4;stroke-dasharray:none;stroke-dashoffset:0;stroke-opacity:1"
       d="M 6.125,15.500014 C 4.1240036,15.500014 2.5000009,19.308036 2.5,24.000014 C 2.5,28.691991 4.1240036,32.500015 6.125,32.500014 L 9.75,32.500014 C 11.750996,32.500014 13.375,28.69199 13.375,24.000014 C 13.375,19.308037 11.750996,15.500014 9.75,15.500014 L 6.125,15.500014 z "
       id="path2766"
       sodipodi:nodetypes="csccscc" />
    <path
       sodipodi:type="inkscape:offset"
       inkscape:radius="-1.0054175"
       inkscape:original="M 5.5 13.5 C 3.292004 13.5 1.500001 17.308022 1.5 22 C 1.5 26.691978 3.292004 30.500001 5.5 30.5 L 9.5 30.5 C 11.707996 30.500001 13.5 26.691976 13.5 22 C 13.5 17.308024 11.707996 13.5 9.5 13.5 L 5.5 13.5 z "
       style="opacity:0.6;fill:none;fill-opacity:1;stroke:url(#linearGradient6537);stroke-width:1.0577718;stroke-linecap:round;stroke-linejoin:miter;stroke-miterlimit:4;stroke-dasharray:none;stroke-dashoffset:0;stroke-opacity:1;display:inline"
       id="path5556"
       d="M 5.5,14.5 C 4.974,14.5 4.2339165,15.045895 3.59375,16.40625 C 2.9535835,17.766605 2.5000005,19.78201 2.5,22 C 2.5,24.21799 2.9535834,26.233394 3.59375,27.59375 C 4.2339166,28.954106 4.9740003,29.5 5.5,29.5 L 9.5,29.5 C 10.025999,29.5 10.766083,28.954106 11.40625,27.59375 C 12.046417,26.233394 12.5,24.217988 12.5,22 C 12.5,19.782012 12.046417,17.766606 11.40625,16.40625 C 10.766083,15.045894 10.026,14.5 9.5,14.5 L 5.5,14.5 z "
       transform="matrix(0.89375,0,0,1,1.265625,2)" />
    <path
       style="opacity:1;fill:url(#linearGradient6558);fill-opacity:1;stroke:none;stroke-width:1;stroke-linecap:round;stroke-linejoin:miter;stroke-miterlimit:4;stroke-dasharray:none;stroke-dashoffset:0;stroke-opacity:1;display:inline"
       d="M 9.696925,16 C 7.656226,16 6.000001,19.57702 6,23.984375 C 6,28.391729 7.656226,31.968751 9.696925,31.96875 L 10.334325,31.96875 C 12.375024,31.96875 14.03125,28.391728 14.03125,23.984375 C 14.03125,19.577021 12.375024,16 10.334325,16 L 9.696925,16 z "
       id="path6556"
       sodipodi:nodetypes="csccscc" />
    <path
       style="fill:url(#radialGradient6553);fill-opacity:1;stroke:url(#linearGradient6545);stroke-width:1;stroke-linecap:round;stroke-linejoin:miter;stroke-miterlimit:4;stroke-dasharray:none;stroke-dashoffset:0;stroke-opacity:1"
       d="M 8.6250003,24 C 8.6250003,33.227273 17.811975,38.499999 23.500002,38.499999 C 27.437502,38.499999 30.500002,32.003996 30.500002,24 C 30.500002,15.996003 27.437502,9.5000001 23.500002,9.5000001 C 17.811975,9.5000001 8.6250003,14.772728 8.6250003,24 z "
       id="path1871"
       sodipodi:nodetypes="cssss" />
    <path
       sodipodi:type="arc"
       style="fill:url(#radialGradient6657);fill-opacity:1;stroke:none;stroke-width:0.87802505;stroke-linecap:round;stroke-linejoin:miter;stroke-miterlimit:4;stroke-dasharray:none;stroke-dashoffset:0;stroke-opacity:1;display:inline"
       id="path6649"
       sodipodi:cx="25.25"
       sodipodi:cy="27.9375"
       sodipodi:rx="7.75"
       sodipodi:ry="16.5625"
       d="M 33 27.9375 A 7.75 16.5625 0 1 1  17.5,27.9375 A 7.75 16.5625 0 1 1  33 27.9375 z"
       transform="matrix(1.3225807,0,0,1.026415,-12.145162,-4.6754711)" />
    <path
       style="opacity:0.7335907;fill:url(#linearGradient6641);fill-opacity:1;fill-rule:evenodd;stroke:none;stroke-width:1px;stroke-linecap:butt;stroke-linejoin:miter;stroke-opacity:1;display:inline"
       d="M 16,13.375 C 13.416667,14.769678 10.541667,17.570921 8,21.5 C 10.69956,20.373913 13.491292,19.539527 16,19.75 L 16,13.375 z "
       id="path6639"
       sodipodi:nodetypes="cccc" />
    <path
       sodipodi:type="inkscape:offset"
       inkscape:radius="-1.0125009"
       inkscape:original="M 22.8125 5.5 C 16.571923 5.5000002 6.5 11.5 6.5 22 C 6.5 32.500001 16.571923 38.5 22.8125 38.5 C 27.1325 38.499999 30.5 31.107996 30.5 22 C 30.5 12.892005 27.1325 5.5 22.8125 5.5 z "
       style="opacity:0.58620689;fill:none;fill-opacity:1;stroke:url(#linearGradient6579);stroke-width:1.12734473;stroke-linecap:round;stroke-linejoin:miter;stroke-miterlimit:4;stroke-dasharray:none;stroke-dashoffset:0;stroke-opacity:1;display:inline"
       id="path6567"
       d="M 22.8125,6.5 C 20.016701,6.5000001 16.088488,7.9333131 12.96875,10.59375 C 9.8490125,13.254187 7.5,17.073741 7.5,22 C 7.5,26.92626 9.8490125,30.745813 12.96875,33.40625 C 16.088487,36.066687 20.016701,37.5 22.8125,37.5 C 24.394999,37.5 26.045271,36.056265 27.34375,33.25 C 28.642229,30.443735 29.5,26.429214 29.5,22 C 29.5,17.570787 28.642229,13.556265 27.34375,10.75 C 26.045271,7.943735 24.394999,6.5 22.8125,6.5 z "
       transform="matrix(0.9034091,0,0,0.8709678,2.8494318,4.8387095)" />
    <path
       sodipodi:type="arc"
       style="fill:url(#radialGradient6595);fill-opacity:1;stroke:url(#linearGradient6801);stroke-width:0.83240509;stroke-linecap:round;stroke-linejoin:miter;stroke-miterlimit:4;stroke-dasharray:none;stroke-dashoffset:0;stroke-opacity:1"
       id="path1873"
       sodipodi:cx="25.25"
       sodipodi:cy="27.9375"
       sodipodi:rx="7.75"
       sodipodi:ry="16.5625"
       d="M 33 27.9375 A 7.75 16.5625 0 1 1  17.5,27.9375 A 7.75 16.5625 0 1 1  33 27.9375 z"
       transform="matrix(1.2258059,0,0,1.1773585,-8.9515943,-8.892453)" />
    <path
       style="fill:url(#radialGradient6603);fill-opacity:1;stroke:#555753;stroke-width:1.00000048;stroke-linecap:round;stroke-linejoin:miter;stroke-miterlimit:4;stroke-dashoffset:0;stroke-opacity:1"
       d="M 21.616117,24.000008 C 21.616117,26.484005 19.233185,28.49999 17.549734,28.49999 C 15.866281,28.49999 14.500001,26.483992 14.500001,23.999995 C 14.500001,21.515998 15.866281,19.5 17.549734,19.5 C 19.233185,19.5 21.616117,21.51601 21.616117,24.000008 z "
       id="path3672"
       sodipodi:nodetypes="csssc" />
    <path
       style="opacity:1;fill:url(#radialGradient6625);fill-opacity:1;stroke:none;stroke-width:0.90347975;stroke-linecap:round;stroke-linejoin:miter;stroke-miterlimit:4;stroke-dasharray:none;stroke-dashoffset:0;stroke-opacity:1;display:inline"
       d="M 22,5 C 19.367552,4.9999999 17.141972,7.2498264 15.5625,10.6875 C 13.983028,14.125173 13.03125,18.830125 13.03125,24 C 13.03125,29.169874 13.983028,33.874826 15.5625,37.3125 C 17.141972,40.750172 19.367552,43 22,43 C 24.632449,43 26.858028,40.750173 28.4375,37.3125 C 29.42467,35.163953 30.174611,32.501281 30.59375,29.5625 C 30.606967,29.469828 30.612431,29.374514 30.625,29.28125 C 30.701405,28.714302 30.760731,28.149758 30.8125,27.5625 C 30.863372,27.016086 30.910141,26.469464 30.9375,25.90625 C 30.938938,25.875286 30.936131,25.843507 30.9375,25.8125 C 30.964969,25.216652 30.96875,24.611754 30.96875,24 C 30.96875,23.355639 30.96794,22.720382 30.9375,22.09375 C 30.911649,21.537127 30.860238,20.979033 30.8125,20.4375 C 30.760731,19.850242 30.701405,19.285698 30.625,18.71875 C 30.611503,18.623565 30.607961,18.532009 30.59375,18.4375 C 30.174611,15.498719 29.42467,12.836046 28.4375,10.6875 C 26.858028,7.249826 24.632449,5 22,5 z M 22.5,7 C 24.422274,7.0000002 26.280368,8.7656497 27.6875,11.84375 C 28.566957,13.767562 29.264379,16.179117 29.65625,18.875 C 29.734624,19.414177 29.789845,19.97021 29.84375,20.53125 C 29.89121,21.056658 29.942834,21.584653 29.96875,22.125 C 30.000626,22.745494 30.03125,23.361156 30.03125,24 C 30.03125,24.595745 29.99653,25.170104 29.96875,25.75 C 29.966916,25.790974 29.970711,25.834105 29.96875,25.875 C 29.941175,26.411772 29.893755,26.948299 29.84375,27.46875 C 29.789845,28.029789 29.734624,28.585823 29.65625,29.125 C 29.264379,31.820883 28.566957,34.232438 27.6875,36.15625 C 26.280368,39.23435 24.422274,41 22.5,41 C 20.577727,40.999998 18.719632,39.234351 17.3125,36.15625 C 15.905367,33.078149 14.96875,28.765963 14.96875,24 C 14.96875,19.234036 15.905368,14.92185 17.3125,11.84375 C 18.719631,8.7656496 20.577727,7 22.5,7 z "
       id="path6605"
       sodipodi:nodetypes="cssssssssssssssssccssssssssssssssc" />
    <path
       sodipodi:type="arc"
       style="opacity:0.36637932;fill:none;fill-opacity:1;stroke:url(#linearGradient6634);stroke-width:1.05419946;stroke-linecap:round;stroke-linejoin:miter;stroke-miterlimit:4;stroke-dasharray:none;stroke-dashoffset:0;stroke-opacity:1;display:inline"
       id="path6615"
       sodipodi:cx="25.25"
       sodipodi:cy="27.9375"
       sodipodi:rx="7.75"
       sodipodi:ry="16.5625"
       d="M 33 27.9375 A 7.75 16.5625 0 1 1  17.5,27.9375 A 7.75 16.5625 0 1 1  33 27.9375 z"
       transform="matrix(0.9032258,0,0,0.9962264,-0.3064529,-3.8320749)" />
    <path
       sodipodi:type="arc"
       style="opacity:1;fill:#ffffff;fill-opacity:1;stroke:none;stroke-width:1;stroke-linecap:round;stroke-linejoin:round;stroke-miterlimit:4;stroke-dasharray:none;stroke-dashoffset:1.20000057;stroke-opacity:1;display:inline"
       id="path6661"
       sodipodi:cx="20.5"
       sodipodi:cy="13.5"
       sodipodi:rx="1"
       sodipodi:ry="1"
       d="M 21.5 13.5 A 1 1 0 1 1  19.5,13.5 A 1 1 0 1 1  21.5 13.5 z"
       transform="translate(-16,5.3125)" />
    <path
       sodipodi:type="arc"
       style="opacity:0.65517243;fill:none;fill-opacity:1;stroke:url(#linearGradient6706);stroke-width:0.90347946;stroke-linecap:round;stroke-linejoin:miter;stroke-miterlimit:4;stroke-dasharray:none;stroke-dashoffset:0;stroke-opacity:1;display:inline"
       id="path6698"
       sodipodi:cx="25.25"
       sodipodi:cy="27.9375"
       sodipodi:rx="7.75"
       sodipodi:ry="16.5625"
       d="M 33 27.9375 A 7.75 16.5625 0 1 1  17.5,27.9375 A 7.75 16.5625 0 1 1  33 27.9375 z"
       transform="matrix(1.0967748,0,0,1.1169811,-5.6935592,-7.2056602)" />
    <path
       sodipodi:type="arc"
       style="opacity:1;fill:#ffffff;fill-opacity:1;stroke:none;stroke-width:1;stroke-linecap:round;stroke-linejoin:round;stroke-miterlimit:4;stroke-dasharray:none;stroke-dashoffset:1.20000057;stroke-opacity:1;display:inline"
       id="path5501"
       sodipodi:cx="20.5"
       sodipodi:cy="13.5"
       sodipodi:rx="1"
       sodipodi:ry="1"
       d="M 21.5 13.5 A 1 1 0 1 1  19.5,13.5 A 1 1 0 1 1  21.5 13.5 z"
       transform="translate(-5,-1.875)" />
  </g>
  <g
     inkscape:groupmode="layer"
     id="layer2"
     inkscape:label="waves">
    <g
       style="stroke:#729fcf;display:inline"
       id="g28807"
       transform="matrix(0.3535062,0,0,1.2242975,13.43562,-3.80102)">
      <path
         sodipodi:nodetypes="csc"
         id="path27920"
         d="M 58.78125,30.15625 C 61.050824,28.375887 62.5,25.606103 62.5,22.5 C 62.5,19.560794 61.188424,16.939552 59.125,15.15625"
         style="opacity:1;fill:none;fill-opacity:1;stroke:url(#radialGradient6984);stroke-width:1.52005064;stroke-linecap:round;stroke-linejoin:round;stroke-miterlimit:4;stroke-dasharray:none;stroke-dashoffset:1.20000057;stroke-opacity:1;display:inline" />
    </g>
  </g>
</svg>
