<?xml version="1.0" encoding="UTF-8" standalone="no"?>
<!-- Created with Inkscape (http://www.inkscape.org/) -->
<svg
   xmlns:dc="http://purl.org/dc/elements/1.1/"
   xmlns:cc="http://web.resource.org/cc/"
   xmlns:rdf="http://www.w3.org/1999/02/22-rdf-syntax-ns#"
   xmlns:svg="http://www.w3.org/2000/svg"
   xmlns="http://www.w3.org/2000/svg"
   xmlns:xlink="http://www.w3.org/1999/xlink"
   xmlns:sodipodi="http://sodipodi.sourceforge.net/DTD/sodipodi-0.dtd"
   xmlns:inkscape="http://www.inkscape.org/namespaces/inkscape"
   width="48"
   height="48"
   id="svg2"
   sodipodi:version="0.32"
   inkscape:version="0.45"
   version="1.0"
   sodipodi:docbase="/home/dobey/Projects/gnome-icon-theme/scalable/status"
   sodipodi:docname="dialog-question.svg"
   inkscape:output_extension="org.inkscape.output.svg.inkscape">
  <defs
     id="defs4">
    <linearGradient
       inkscape:collect="always"
       id="linearGradient6565">
      <stop
         style="stop-color:#000000;stop-opacity:1;"
         offset="0"
         id="stop6567" />
      <stop
         style="stop-color:#000000;stop-opacity:0;"
         offset="1"
         id="stop6569" />
    </linearGradient>
    <linearGradient
       inkscape:collect="always"
       id="linearGradient6548">
      <stop
         style="stop-color:#729fcf;stop-opacity:1;"
         offset="0"
         id="stop6550" />
      <stop
         style="stop-color:#3465a4;stop-opacity:1"
         offset="1"
         id="stop6552" />
    </linearGradient>
    <linearGradient
       id="linearGradient6516"
       inkscape:collect="always">
      <stop
         id="stop6518"
         offset="0"
         style="stop-color:#cc0000;stop-opacity:1" />
      <stop
         id="stop6520"
         offset="1"
         style="stop-color:#ef2929;stop-opacity:1" />
    </linearGradient>
    <linearGradient
       inkscape:collect="always"
       xlink:href="#linearGradient6516"
       id="linearGradient6690"
       gradientUnits="userSpaceOnUse"
       gradientTransform="matrix(2.1466396,0,0,2.0983681,-62.708523,-14.532865)"
       x1="8.3140812"
       y1="12.284181"
       x2="8.3140812"
       y2="-8.0501661" />
    <linearGradient
       inkscape:collect="always"
       xlink:href="#linearGradient6516"
       id="linearGradient6707"
       gradientUnits="userSpaceOnUse"
       gradientTransform="matrix(2.1466396,0,0,2.0983681,-62.708523,-14.532865)"
       x1="8.3140812"
       y1="12.284181"
       x2="8.3140812"
       y2="-8.0501661" />
    <linearGradient
       inkscape:collect="always"
       xlink:href="#linearGradient6516"
       id="linearGradient6716"
       gradientUnits="userSpaceOnUse"
       gradientTransform="matrix(2.1466396,0,0,-2.0983681,-172.70852,46.532865)"
       x1="8.3140812"
       y1="12.284181"
       x2="8.3140812"
       y2="-8.0501661" />
    <linearGradient
       inkscape:collect="always"
       xlink:href="#linearGradient6516"
       id="linearGradient6999"
       gradientUnits="userSpaceOnUse"
       gradientTransform="matrix(1.53347,0,0,1.5010009,-3.0898627,2.4172e-2)"
       x1="8.3140812"
       y1="12.284181"
       x2="8.3140812"
       y2="-8.0501661" />
    <linearGradient
       inkscape:collect="always"
       xlink:href="#linearGradient6516"
       id="linearGradient7001"
       gradientUnits="userSpaceOnUse"
       gradientTransform="matrix(1.53347,0,0,-1.5010009,-283.08986,31.975828)"
       x1="8.3140812"
       y1="12.284181"
       x2="8.3140812"
       y2="-8.0501661" />
    <radialGradient
       inkscape:collect="always"
       xlink:href="#linearGradient6565"
       id="radialGradient6748"
       gradientUnits="userSpaceOnUse"
       gradientTransform="matrix(1,0,0,0.3381924,0,11.54027)"
       cx="10.84375"
       cy="17.4375"
       fx="10.84375"
       fy="17.4375"
       r="10.71875" />
    <radialGradient
       inkscape:collect="always"
       xlink:href="#linearGradient6565"
       id="radialGradient6750"
       gradientUnits="userSpaceOnUse"
       gradientTransform="matrix(1,0,0,0.3381924,0,11.54027)"
       cx="10.84375"
       cy="17.4375"
       fx="10.84375"
       fy="17.4375"
       r="10.71875" />
    <linearGradient
       inkscape:collect="always"
       xlink:href="#linearGradient6548"
       id="linearGradient6752"
       gradientUnits="userSpaceOnUse"
       x1="-3.8747485"
       y1="20.506098"
       x2="-23.864857"
       y2="67.351921" />
  </defs>
  <sodipodi:namedview
     id="base"
     pagecolor="#ffffff"
     bordercolor="#666666"
     borderopacity="1.0"
     inkscape:pageopacity="0.0"
     inkscape:pageshadow="2"
     inkscape:zoom="1"
     inkscape:cx="65.546934"
     inkscape:cy="-7.0602509"
     inkscape:document-units="px"
     inkscape:current-layer="layer1"
     width="48px"
     height="48px"
     inkscape:showpageshadow="false"
     gridspacingx="0.5px"
     gridspacingy="0.5px"
     gridempspacing="2"
     showgrid="false"
     inkscape:window-width="1072"
     inkscape:window-height="783"
     inkscape:window-x="10"
     inkscape:window-y="65"
     showborder="false"
     showguides="false"
     inkscape:guide-bbox="true"
     inkscape:grid-bbox="false"
     inkscape:grid-points="false"
     inkscape:object-points="false"
     inkscape:object-paths="false"
     borderlayer="false">
    <sodipodi:guide
       orientation="horizontal"
       position="22.5"
       id="guide6694" />
  </sodipodi:namedview>
  <metadata
     id="metadata7">
    <rdf:RDF>
      <cc:Work
         rdf:about="">
        <dc:format>image/svg+xml</dc:format>
        <dc:type
           rdf:resource="http://purl.org/dc/dcmitype/StillImage" />
        <cc:license
           rdf:resource="http://creativecommons.org/licenses/GPL/2.0/" />
        <dc:creator>
          <cc:Agent>
            <dc:title>Lapo Calamandrei</dc:title>
          </cc:Agent>
        </dc:creator>
        <dc:title>Question</dc:title>
        <dc:subject>
          <rdf:Bag>
            <rdf:li>question mark</rdf:li>
            <rdf:li>question</rdf:li>
            <rdf:li>sign</rdf:li>
          </rdf:Bag>
        </dc:subject>
      </cc:Work>
      <cc:License
         rdf:about="http://creativecommons.org/licenses/GPL/2.0/">
        <cc:permits
           rdf:resource="http://web.resource.org/cc/Reproduction" />
        <cc:permits
           rdf:resource="http://web.resource.org/cc/Distribution" />
        <cc:requires
           rdf:resource="http://web.resource.org/cc/Notice" />
        <cc:permits
           rdf:resource="http://web.resource.org/cc/DerivativeWorks" />
        <cc:requires
           rdf:resource="http://web.resource.org/cc/ShareAlike" />
        <cc:requires
           rdf:resource="http://web.resource.org/cc/SourceCode" />
      </cc:License>
    </rdf:RDF>
  </metadata>
  <g
     inkscape:label="Livello 1"
     inkscape:groupmode="layer"
     id="layer1"
     style="display:inline">
    <g
       id="g6649">
      <path
         transform="matrix(1.7259475,0,0,1.9999999,5.2842566,2.8750011)"
         d="M 21.5625 17.4375 A 10.71875 3.625 0 1 1  0.125,17.4375 A 10.71875 3.625 0 1 1  21.5625 17.4375 z"
         sodipodi:ry="3.625"
         sodipodi:rx="10.71875"
         sodipodi:cy="17.4375"
         sodipodi:cx="10.84375"
         id="path6607"
         style="opacity:0.2;fill:url(#radialGradient6748);fill-opacity:1;stroke:none;stroke-width:1;stroke-linecap:round;stroke-linejoin:miter;stroke-miterlimit:4;stroke-dasharray:none;stroke-dashoffset:0.7;stroke-opacity:1;display:inline"
         sodipodi:type="arc" />
      <path
         transform="matrix(0.4664723,0,0,0.5715648,18.941691,33.03334)"
         d="M 21.5625 17.4375 A 10.71875 3.625 0 1 1  0.125,17.4375 A 10.71875 3.625 0 1 1  21.5625 17.4375 z"
         sodipodi:ry="3.625"
         sodipodi:rx="10.71875"
         sodipodi:cy="17.4375"
         sodipodi:cx="10.84375"
         id="path6611"
         style="opacity:0.25;fill:url(#radialGradient6750);fill-opacity:1;stroke:none;stroke-width:1;stroke-linecap:round;stroke-linejoin:miter;stroke-miterlimit:4;stroke-dasharray:none;stroke-dashoffset:0.7;stroke-opacity:1;display:inline"
         sodipodi:type="arc" />
      <rect
         transform="matrix(0.7071068,-0.7071068,0.7071068,0.7071068,0,0)"
         ry="3.0791118"
         rx="3.0791118"
         y="17.838459"
         x="-14.688457"
         height="30.791121"
         width="30.791121"
         id="rect6591"
         style="opacity:1;fill:url(#linearGradient6752);fill-opacity:1;stroke:#3465a4;stroke-width:1.00000036;stroke-linecap:round;stroke-linejoin:miter;stroke-miterlimit:4;stroke-dasharray:none;stroke-dashoffset:0.7;stroke-opacity:1;display:inline" />
      <path
         transform="matrix(0.7071068,-0.7071068,0.7071068,0.7071068,0,0)"
         d="M -11.59375,19.3125 C -12.527424,19.3125 -13.21875,19.990363 -13.21875,20.90625 L -13.21875,45.5625 C -13.21875,46.478389 -12.527423,47.156251 -11.59375,47.15625 L 13.03125,47.15625 C 13.964924,47.15625 14.624999,46.496175 14.625,45.5625 L 14.625,20.90625 C 14.625,19.972575 13.964925,19.3125 13.03125,19.3125 L -11.59375,19.3125 z "
         id="path6599"
         style="opacity:1;fill:none;fill-opacity:1;stroke:#ffffff;stroke-width:2;stroke-linecap:round;stroke-linejoin:miter;stroke-miterlimit:4;stroke-dasharray:none;stroke-dashoffset:0.7;stroke-opacity:1;display:inline"
         inkscape:original="M -11.59375 17.84375 C -13.299578 17.84375 -14.6875 19.200423 -14.6875 20.90625 L -14.6875 45.5625 C -14.6875 47.268328 -13.299578 48.625002 -11.59375 48.625 L 13.03125 48.625 C 14.737078 48.625 16.093749 47.268327 16.09375 45.5625 L 16.09375 20.90625 C 16.09375 19.200422 14.737078 17.84375 13.03125 17.84375 L -11.59375 17.84375 z "
         inkscape:radius="-1.456314"
         sodipodi:type="inkscape:offset" />
      <path
         sodipodi:nodetypes="cccsccsssssccsssssccsccccccc"
         id="text6603"
         d="M 26.089442,26.048277 L 22.13977,26.048277 L 22.13977,25.512172 C 22.139767,24.914075 22.260117,24.385265 22.500821,23.925739 C 22.741517,23.458934 23.248445,22.868125 24.021608,22.15331 L 24.721827,21.518737 C 25.137575,21.139462 25.440274,20.782059 25.629923,20.446527 C 25.826853,20.111017 25.925321,19.775495 25.925328,19.439962 C 25.925321,18.929399 25.750266,18.531879 25.400164,18.247402 C 25.050048,17.955658 24.561354,17.809779 23.934081,17.809765 C 23.343266,17.809779 22.705047,17.933776 22.01942,18.181756 C 21.333786,18.42247 20.61898,18.78352 19.875,19.264907 L 19.875,15.829459 C 20.757565,15.523129 21.563545,15.297017 22.292943,15.151122 C 23.022333,15.00526 23.726198,14.93232 24.404541,14.932304 C 26.184256,14.93232 27.540928,15.297017 28.474562,16.026395 C 29.408176,16.748511 29.874988,17.806132 29.875,19.199262 C 29.874988,19.91408 29.732757,20.555947 29.448304,21.124864 C 29.163829,21.686507 28.678782,22.291904 27.993162,22.941056 L 27.292943,23.564688 C 26.796946,24.016921 26.472366,24.381618 26.319201,24.65878 C 26.166021,24.928663 26.089434,25.227714 26.089442,25.555936 L 26.089442,26.048277 M 22.07727,28.042533 L 26.026942,28.042533 L 26.026942,31.9375 L 22.07727,31.9375 L 22.07727,28.042533"
         style="font-size:22.4070015px;font-style:normal;font-weight:bold;fill:#ffffff;fill-opacity:1;stroke:none;stroke-width:1px;stroke-linecap:butt;stroke-linejoin:miter;stroke-opacity:1;font-family:Bitstream Vera Sans" />
    </g>
  </g>
  <g
     inkscape:groupmode="layer"
     id="layer2"
     inkscape:label="troiai"
     style="display:none">
    <path
       sodipodi:type="inkscape:offset"
       inkscape:radius="1.9887378"
       inkscape:original="M -40.3125 4.5 L -50.46875 28.25 L -52.28125 42.5 L -30.71875 42.5 L -20.5625 18.75 L -18.78125 4.5 L -40.3125 4.5 z "
       style="fill:url(#linearGradient6690);fill-opacity:1;stroke:#a40000;stroke-width:0.99999988;stroke-linecap:round;stroke-linejoin:round;stroke-miterlimit:4;stroke-dashoffset:0.7;stroke-opacity:1"
       id="path6688"
       d="M -40.3125,2.5 C -41.117011,2.495964 -41.844721,2.9769928 -42.15625,3.71875 L -52.3125,27.46875 C -52.37838,27.639248 -52.420442,27.818014 -52.4375,28 L -54.25,42.25 C -54.325145,42.817543 -54.15209,43.389943 -53.775099,43.82079 C -53.398108,44.251636 -52.853745,44.499143 -52.28125,44.5 L -30.71875,44.5 C -29.914239,44.504036 -29.186529,44.023007 -28.875,43.28125 L -18.71875,19.53125 C -18.65287,19.360752 -18.610808,19.181986 -18.59375,19 L -16.8125,4.75 C -16.737355,4.1824575 -16.91041,3.6100574 -17.287401,3.1792105 C -17.664392,2.7483636 -18.208755,2.5008574 -18.78125,2.5 L -40.3125,2.5 z "
       transform="translate(-50,0)" />
    <path
       sodipodi:type="inkscape:offset"
       inkscape:radius="1.9887378"
       inkscape:original="M -40.3125 4.5 L -50.46875 28.25 L -52.28125 42.5 L -30.71875 42.5 L -20.5625 18.75 L -18.78125 4.5 L -40.3125 4.5 z "
       style="opacity:0.46982757;fill:url(#linearGradient6707);fill-opacity:1;stroke:#280b0b;stroke-width:0.99999988;stroke-linecap:round;stroke-linejoin:round;stroke-miterlimit:4;stroke-dashoffset:0.7;stroke-opacity:1"
       id="path6700"
       d="M -40.3125,2.5 C -41.117011,2.495964 -41.844721,2.9769928 -42.15625,3.71875 L -52.3125,27.46875 C -52.37838,27.639248 -52.420442,27.818014 -52.4375,28 L -54.25,42.25 C -54.325145,42.817543 -54.15209,43.389943 -53.775099,43.82079 C -53.398108,44.251636 -52.853745,44.499143 -52.28125,44.5 L -30.71875,44.5 C -29.914239,44.504036 -29.186529,44.023007 -28.875,43.28125 L -18.71875,19.53125 C -18.65287,19.360752 -18.610808,19.181986 -18.59375,19 L -16.8125,4.75 C -16.737355,4.1824575 -16.91041,3.6100574 -17.287401,3.1792105 C -17.664392,2.7483636 -18.208755,2.5008574 -18.78125,2.5 L -40.3125,2.5 z "
       transform="translate(-105.15625,12)" />
    <path
       style="fill:url(#linearGradient6716);fill-opacity:1;stroke:#a40000;stroke-width:0.99999988;stroke-linecap:round;stroke-linejoin:round;stroke-miterlimit:4;stroke-dashoffset:0.7;stroke-opacity:1"
       d="M -128.78125,2.5 C -128.495,2.500429 -128.22506,2.569588 -127.96875,2.6875 C -128.22353,2.57166 -128.495,2.500429 -128.78125,2.5 z M -155.46875,14.5 C -156.20251,14.496319 -156.87043,14.897931 -157.21875,15.53125 L -157.25,15.59375 L -162.3125,27.46875 C -162.37838,27.639248 -162.42044,27.818014 -162.4375,28 L -164.25,42.25 C -164.32515,42.817543 -164.15824,43.381653 -163.78125,43.8125 C -163.40426,44.243347 -162.85375,44.499143 -162.28125,44.5 L -140.71875,44.5 C -139.91424,44.504036 -139.18653,44.023007 -138.875,43.28125 L -128.71875,19.53125 L -133.875,31.53125 C -133.80912,31.360752 -133.76706,31.181986 -133.75,31 L -131.96875,16.75 C -131.8936,16.182457 -132.06051,15.618347 -132.4375,15.1875 C -132.81449,14.756653 -133.365,14.500857 -133.9375,14.5 L -155.46875,14.5 z "
       id="path6709" />
    <path
       style="fill:#3465a4;fill-opacity:1;stroke:#204a87;stroke-width:0.99999988;stroke-linecap:round;stroke-linejoin:round;stroke-miterlimit:4;stroke-dashoffset:0.7;stroke-opacity:1"
       d="M -90.3125,2.5 C -91.11701,2.495964 -91.84472,2.976993 -92.15625,3.71875 L -97.25,15.59375 C -96.91175,14.925428 -96.2258,14.496202 -95.46875,14.5 L -73.9375,14.5 C -73.365,14.500857 -72.81449,14.756653 -72.4375,15.1875 C -72.06051,15.618347 -71.8936,16.182457 -71.96875,16.75 L -73.75,31 C -73.76706,31.181986 -73.80912,31.360752 -73.875,31.53125 L -68.71875,19.53125 C -68.65287,19.360752 -68.61081,19.181986 -68.59375,19 L -66.8125,4.75 C -66.73735,4.182457 -66.90426,3.618347 -67.28125,3.1875 C -67.65824,2.756653 -68.20875,2.500857 -68.78125,2.5 L -90.3125,2.5 z "
       id="path6702"
       sodipodi:nodetypes="cccccsccccccscc" />
    <path
       sodipodi:type="inkscape:offset"
       inkscape:radius="-0.46875"
       inkscape:original="M -40.3125 2.5 C -41.117011 2.495964 -41.844721 2.9769928 -42.15625 3.71875 L -52.3125 27.46875 C -52.37838 27.639248 -52.420442 27.818014 -52.4375 28 L -54.25 42.25 C -54.325145 42.817543 -54.158241 43.381653 -53.78125 43.8125 C -53.404261 44.243347 -52.853745 44.499143 -52.28125 44.5 L -30.71875 44.5 C -29.914239 44.504036 -29.186529 44.023007 -28.875 43.28125 L -18.71875 19.53125 C -18.65287 19.360752 -18.610808 19.181986 -18.59375 19 L -16.8125 4.75 C -16.737355 4.1824575 -16.904259 3.6183469 -17.28125 3.1875 C -17.658241 2.7566532 -18.208755 2.5008574 -18.78125 2.5 L -40.3125 2.5 z "
       style="fill:#fce94f;fill-opacity:1;stroke:none;stroke-width:0.99999988;stroke-linecap:round;stroke-linejoin:round;stroke-miterlimit:4;stroke-dashoffset:0.7;stroke-opacity:1"
       id="path6748"
       d="M -40.3125,2.96875 C -40.928752,2.9656584 -41.48012,3.3380673 -41.71875,3.90625 L -51.875,27.65625 C -51.925353,27.786565 -51.955712,27.892152 -51.96875,28.03125 C -51.968403,28.041664 -51.968403,28.052086 -51.96875,28.0625 L -53.78125,42.3125 C -53.839235,42.750439 -53.726117,43.170152 -53.4375,43.5 C -53.148886,43.829846 -52.714567,44.030601 -52.28125,44.03125 L -30.71875,44.03125 C -30.102498,44.034342 -29.55113,43.661933 -29.3125,43.09375 L -19.15625,19.34375 C -19.105897,19.213435 -19.075538,19.107848 -19.0625,18.96875 C -19.062847,18.958336 -19.062847,18.947914 -19.0625,18.9375 L -17.28125,4.6875 C -17.223265,4.2495612 -17.336383,3.8298475 -17.625,3.5 C -17.913617,3.1701526 -18.347932,2.969399 -18.78125,2.96875 L -40.3125,2.96875 z "
       transform="translate(-150,-90)" />
    <path
       sodipodi:type="inkscape:offset"
       inkscape:radius="1.5"
       inkscape:original="M 13.03125 2 L 5.78125 18.96875 L 4.5 29 L 19.65625 29 L 26.875 12.0625 L 28.15625 2 L 13.03125 2 z "
       style="fill:url(#linearGradient6999);fill-opacity:1;stroke:#a40000;stroke-width:0.99999982;stroke-linecap:round;stroke-linejoin:round;stroke-miterlimit:4;stroke-dashoffset:0.7;stroke-opacity:1;display:inline"
       id="path6892"
       d="M 12.875,0.5 C 12.334549,0.55892959 11.868276,0.9056458 11.65625,1.40625 L 4.40625,18.375 C 4.3455131,18.503798 4.3034241,18.640587 4.28125,18.78125 L 3,28.8125 C 2.9459675,29.241658 3.0798058,29.673252 3.3671735,29.99654 C 3.6545411,30.319829 4.0674674,30.503345 4.5,30.5 L 19.65625,30.5 C 20.254243,30.49897 20.794509,30.142886 21.03125,29.59375 L 28.25,12.65625 C 28.310737,12.527452 28.352826,12.390663 28.375,12.25 L 29.65625,2.1875 C 29.710282,1.7583425 29.576444,1.3267483 29.289077,1.0034597 C 29.001709,0.68017114 28.588783,0.49665518 28.15625,0.5 L 13.03125,0.5 C 12.979202,0.49728576 12.927048,0.49728576 12.875,0.5 L 12.875,0.5 z "
       transform="translate(-210,0)" />
    <path
       style="fill:url(#linearGradient7001);fill-opacity:1;stroke:#a40000;stroke-width:0.99999982;stroke-linecap:round;stroke-linejoin:round;stroke-miterlimit:4;stroke-dashoffset:0.7;stroke-opacity:1;display:inline"
       d="M -270.96875,9.5 C -271.5092,9.55893 -271.97547,9.905646 -272.1875,10.40625 L -275.59375,18.375 C -275.65449,18.503798 -275.69658,18.640587 -275.71875,18.78125 L -277,28.8125 C -277.05403,29.241658 -276.91237,29.676711 -276.625,30 C -276.33763,30.323289 -275.93253,30.503345 -275.5,30.5 L -260.34375,30.5 C -259.74576,30.49897 -259.20549,30.142886 -258.96875,29.59375 L -255.59375,21.65625 C -255.53301,21.527452 -255.49092,21.390663 -255.46875,21.25 L -254.1875,11.1875 C -254.13347,10.758342 -254.27513,10.323289 -254.5625,10 C -254.84987,9.676711 -255.25497,9.496655 -255.6875,9.5 L -270.8125,9.5 C -270.86455,9.497286 -270.9167,9.497286 -270.96875,9.5 z "
       id="path6905" />
    <path
       style="fill:#3465a4;fill-opacity:1;stroke:#204a87;stroke-width:0.99999982;stroke-linecap:round;stroke-linejoin:round;stroke-miterlimit:4;stroke-dashoffset:0.7;stroke-opacity:1;display:inline"
       d="M -267.125,0.5 C -267.66545,0.55893 -268.13172,0.905646 -268.34375,1.40625 L -272.1875,10.40625 C -271.97547,9.905646 -271.5092,9.55893 -270.96875,9.5 C -270.9167,9.497286 -270.86455,9.497286 -270.8125,9.5 L -255.6875,9.5 C -255.25497,9.496655 -254.84987,9.676711 -254.5625,10 C -254.27513,10.323289 -254.13347,10.758342 -254.1875,11.1875 L -255.46875,21.25 C -255.49092,21.390663 -255.53301,21.527452 -255.59375,21.65625 L -251.75,12.65625 C -251.68926,12.527452 -251.64717,12.390663 -251.625,12.25 L -250.34375,2.1875 C -250.28972,1.758342 -250.43138,1.323289 -250.71875,1 C -251.00612,0.676711 -251.41122,0.496655 -251.84375,0.5 L -266.96875,0.5 C -267.0208,0.497286 -267.07295,0.497286 -267.125,0.5 z "
       id="path6900" />
  </g>
</svg>
