<?xml version="1.0" encoding="UTF-8" standalone="no"?>
<!-- Created with Inkscape (http://www.inkscape.org/) -->
<svg
   xmlns:dc="http://purl.org/dc/elements/1.1/"
   xmlns:cc="http://creativecommons.org/ns#"
   xmlns:rdf="http://www.w3.org/1999/02/22-rdf-syntax-ns#"
   xmlns:svg="http://www.w3.org/2000/svg"
   xmlns="http://www.w3.org/2000/svg"
   xmlns:xlink="http://www.w3.org/1999/xlink"
   xmlns:sodipodi="http://sodipodi.sourceforge.net/DTD/sodipodi-0.dtd"
   xmlns:inkscape="http://www.inkscape.org/namespaces/inkscape"
   width="16"
   height="16"
   id="svg2"
   sodipodi:version="0.32"
   inkscape:version="0.45+devel"
   version="1.0"
   sodipodi:docname="dialog-password.svg"
   sodipodi:docbase="/home/lapo/Templates"
   inkscape:output_extension="org.inkscape.output.svg.inkscape">
  <defs
     id="defs4">
    <linearGradient
       inkscape:collect="always"
       id="linearGradient6762">
      <stop
         style="stop-color:#000000;stop-opacity:1;"
         offset="0"
         id="stop6764" />
      <stop
         style="stop-color:#000000;stop-opacity:0;"
         offset="1"
         id="stop6766" />
    </linearGradient>
    <linearGradient
       inkscape:collect="always"
       id="linearGradient6753">
      <stop
         style="stop-color:#888a85;stop-opacity:1"
         offset="0"
         id="stop6755" />
      <stop
         style="stop-color:#eeeeec;stop-opacity:1"
         offset="1"
         id="stop6757" />
    </linearGradient>
    <linearGradient
       inkscape:collect="always"
       id="linearGradient6742">
      <stop
         style="stop-color:#ffffff;stop-opacity:1;"
         offset="0"
         id="stop6744" />
      <stop
         style="stop-color:#ffffff;stop-opacity:0;"
         offset="1"
         id="stop6746" />
    </linearGradient>
    <linearGradient
       inkscape:collect="always"
       id="linearGradient6833">
      <stop
         style="stop-color:#ffffff;stop-opacity:1;"
         offset="0"
         id="stop6835" />
      <stop
         style="stop-color:#ffffff;stop-opacity:0;"
         offset="1"
         id="stop6837" />
    </linearGradient>
    <linearGradient
       inkscape:collect="always"
       id="linearGradient6793">
      <stop
         style="stop-color:#d3d7cf;stop-opacity:1;"
         offset="0"
         id="stop6795" />
      <stop
         style="stop-color:#eeeeec;stop-opacity:1"
         offset="1"
         id="stop6797" />
    </linearGradient>
    <linearGradient
       inkscape:collect="always"
       xlink:href="#linearGradient6793"
       id="linearGradient6150"
       gradientUnits="userSpaceOnUse"
       gradientTransform="matrix(0.7071068,0.7071068,-0.7071068,0.7071068,4.0850314,-5.107357)"
       x1="9.4656744"
       y1="4.9728107"
       x2="13.530422"
       y2="8.6812181" />
    <linearGradient
       inkscape:collect="always"
       xlink:href="#linearGradient6833"
       id="linearGradient6154"
       gradientUnits="userSpaceOnUse"
       x1="8.7232523"
       y1="6.2651649"
       x2="5.9061942"
       y2="5.2978506" />
    <linearGradient
       inkscape:collect="always"
       xlink:href="#linearGradient6742"
       id="linearGradient6748"
       x1="9.9340439"
       y1="4.53125"
       x2="10.562407"
       y2="22.717516"
       gradientUnits="userSpaceOnUse" />
    <linearGradient
       inkscape:collect="always"
       xlink:href="#linearGradient6753"
       id="linearGradient6760"
       x1="14.4375"
       y1="13.8125"
       x2="8"
       y2="7.5"
       gradientUnits="userSpaceOnUse" />
    <linearGradient
       inkscape:collect="always"
       xlink:href="#linearGradient6762"
       id="linearGradient6768"
       x1="7.1875"
       y1="8.84375"
       x2="7.5"
       y2="6.03125"
       gradientUnits="userSpaceOnUse" />
  </defs>
  <sodipodi:namedview
     id="base"
     pagecolor="#ffffff"
     bordercolor="#666666"
     borderopacity="0.37647059"
     inkscape:pageopacity="0.0"
     inkscape:pageshadow="2"
     inkscape:zoom="1"
     inkscape:cx="8.3069244"
     inkscape:cy="7.7739447"
     inkscape:document-units="px"
     inkscape:current-layer="layer1"
     width="16px"
     height="16px"
     inkscape:showpageshadow="false"
     gridempspacing="2"
     gridspacingx="0.5px"
     gridspacingy="0.5px"
     inkscape:window-width="872"
     inkscape:window-height="696"
     inkscape:window-x="38"
     inkscape:window-y="37"
     borderlayer="true"
     inkscape:snap-nodes="true"
     inkscape:snap-bbox="true"
     gridtolerance="10000"
     showborder="false">
    <inkscape:grid
       type="xygrid"
       id="grid6054"
       spacingx="0.5px"
       spacingy="0.5px"
       empspacing="2" />
  </sodipodi:namedview>
  <metadata
     id="metadata7">
    <rdf:RDF>
      <cc:Work
         rdf:about="">
        <dc:format>image/svg+xml</dc:format>
        <dc:type
           rdf:resource="http://purl.org/dc/dcmitype/StillImage" />
        <dc:creator>
          <cc:Agent>
            <dc:title>Lapo Calamandrei</dc:title>
          </cc:Agent>
        </dc:creator>
        <cc:license
           rdf:resource="http://creativecommons.org/licenses/GPL/2.0/" />
      </cc:Work>
      <cc:License
         rdf:about="http://creativecommons.org/licenses/GPL/2.0/">
        <cc:permits
           rdf:resource="http://web.resource.org/cc/Reproduction" />
        <cc:permits
           rdf:resource="http://web.resource.org/cc/Distribution" />
        <cc:requires
           rdf:resource="http://web.resource.org/cc/Notice" />
        <cc:permits
           rdf:resource="http://web.resource.org/cc/DerivativeWorks" />
        <cc:requires
           rdf:resource="http://web.resource.org/cc/ShareAlike" />
        <cc:requires
           rdf:resource="http://web.resource.org/cc/SourceCode" />
      </cc:License>
    </rdf:RDF>
  </metadata>
  <g
     inkscape:label="Livello 1"
     inkscape:groupmode="layer"
     id="layer1">
    <path
       style="fill:url(#linearGradient6150);fill-opacity:1;fill-rule:evenodd;stroke:#888a85;stroke-width:1;stroke-linecap:round;stroke-linejoin:round;stroke-miterlimit:4;stroke-dasharray:none;stroke-dashoffset:0.69999992000000000;stroke-opacity:1"
       d="M 5.5 0.5 C 4.2201366 0.50000003 2.9445573 0.99294272 1.96875 1.96875 C 0.017135421 3.9203646 0.017135161 7.0796352 1.96875 9.03125 C 3.4145274 10.477027 5.5207239 10.821318 7.3125 10.125 L 8 11 L 9.5 10.5 L 9.5 12.5 L 11.5 12.5 L 11.5 14 L 12 14.5 C 12 14.5 15 14.5 15 14.5 L 15.5 14 L 15.5 12.5 L 10.125 7.3125 C 10.821318 5.5207238 10.477027 3.4145274 9.03125 1.96875 C 8.0554428 0.9929426 6.7798634 0.49999997 5.5 0.5 z M 4.5 3.5 C 4.7559728 3.5 5.0235884 3.5860884 5.21875 3.78125 C 5.6090734 4.1715732 5.6090732 4.8284268 5.21875 5.21875 C 4.8284271 5.609073 4.1715732 5.6090732 3.78125 5.21875 C 3.3909268 4.8284267 3.3909268 4.1715732 3.78125 3.78125 C 3.9764116 3.5860884 4.2440272 3.5 4.5 3.5 z "
       id="path7124" />
    <path
       style="opacity:0.10859729000000000;fill:url(#linearGradient6768);fill-opacity:1;fill-rule:evenodd;stroke:none;stroke-width:1;stroke-linecap:round;stroke-linejoin:round;stroke-miterlimit:4;stroke-dasharray:none;stroke-dashoffset:0.69999992000000000;stroke-opacity:1"
       d="M 9.543012,3.5767984 L 3.5767984,9.543012 C 5.2474506,10.334846 7.2996521,10.062799 8.6812256,8.6812256 C 10.062799,7.2996522 10.334847,5.2474503 9.543012,3.5767984 z"
       id="path6142" />
    <path
       sodipodi:type="arc"
       style="fill:none;fill-opacity:1;fill-rule:evenodd;stroke:url(#linearGradient6154);stroke-width:0.75000000000000000;stroke-linecap:round;stroke-linejoin:round;stroke-miterlimit:4;stroke-dasharray:none;stroke-dashoffset:0.69999992000000000;stroke-opacity:1"
       id="path7134"
       sodipodi:cx="7"
       sodipodi:cy="6"
       sodipodi:rx="1.5"
       sodipodi:ry="1.5"
       d="M 8.5,6 A 1.5,1.5 0 1 1 5.5,6 A 1.5,1.5 0 1 1 8.5,6 z"
       transform="matrix(0.942809,0.942809,-0.942809,0.942809,3.5574935,-7.7562147)" />
    <path
       sodipodi:type="inkscape:offset"
       inkscape:radius="-1.0313957"
       inkscape:original="M 5.5 0.5 C 4.2201366 0.50000003 2.9445573 0.99294272 1.96875 1.96875 C 0.017135421 3.9203646 0.017135161 7.0796352 1.96875 9.03125 C 3.4145274 10.477027 5.5207239 10.821318 7.3125 10.125 L 8 11 L 9.5 10.5 L 9.5 12.5 L 11.5 12.5 L 11.5 14 L 12 14.5 C 12 14.5 15 14.5 15 14.5 L 15.5 14 L 15.5 12.5 L 10.125 7.3125 C 10.821318 5.5207238 10.477027 3.4145274 9.03125 1.96875 C 8.0554428 0.9929426 6.7798634 0.49999997 5.5 0.5 z "
       style="fill:none;fill-opacity:1;fill-rule:evenodd;stroke:#ffffff;stroke-width:1;stroke-linecap:round;stroke-linejoin:miter;stroke-miterlimit:4;stroke-dasharray:none;stroke-dashoffset:0.69999992000000000;stroke-opacity:1;opacity:0.42986425000000000"
       id="path6161"
       d="M 5.5,1.53125 C 4.4849664,1.53125 3.4683295,1.9066705 2.6875,2.6875 C 1.129419,4.245581 1.1294188,6.7544188 2.6875,8.3125 C 3.8370193,9.462019 5.5070738,9.7121406 6.9375,9.15625 C 7.3657587,8.9946645 7.8492807,9.1346313 8.125,9.5 L 8.375,9.8125 L 9.1875,9.53125 C 9.4986527,9.4323875 9.8382391,9.4866661 10.103073,9.6775927 C 10.367906,9.8685192 10.526718,10.173551 10.53125,10.5 L 10.53125,11.46875 L 11.5,11.46875 C 12.069487,11.468887 12.531113,11.930513 12.53125,12.5 L 12.53125,13.46875 C 13.095934,13.46875 13.904066,13.46875 14.46875,13.46875 L 14.46875,12.9375 L 9.40625,8.0625 C 9.1016694,7.7733588 9.0027957,7.3284268 9.15625,6.9375 C 9.7121406,5.5070736 9.462019,3.8370193 8.3125,2.6875 C 7.5316707,1.9066705 6.5150336,1.53125 5.5,1.53125 z" />
    <path
       style="fill:none;fill-opacity:1;fill-rule:evenodd;stroke:url(#linearGradient6748);stroke-width:1;stroke-linecap:round;stroke-linejoin:miter;stroke-miterlimit:4;stroke-dashoffset:0.69999992;stroke-opacity:1"
       d="M 14.46875,13.46875 L 14.46875,12.9375 L 9.40625,8.0625 C 9.1016694,7.7733588 9.0027957,7.3284268 9.15625,6.9375 C 9.7121406,5.5070736 9.462019,3.8370193 8.3125,2.6875 C 7.5316707,1.9066705 6.5150336,1.53125 5.5,1.53125 C 4.4849664,1.53125 3.4683295,1.9066705 2.6875,2.6875 C 1.129419,4.245581 1.1294188,6.7544188 2.6875,8.3125"
       id="path6750"
       sodipodi:nodetypes="cccsscsc" />
    <path
       style="opacity:1;fill:none;fill-opacity:1;fill-rule:evenodd;stroke:url(#linearGradient6760);stroke-width:1px;stroke-linecap:round;stroke-linejoin:miter;stroke-opacity:1"
       d="M 13.5,13 L 9.5,9"
       id="path6773"
       sodipodi:nodetypes="cc" />
  </g>
</svg>
