<?xml version="1.0" encoding="UTF-8" standalone="no"?>
<!-- Created with Inkscape (http://www.inkscape.org/) -->
<svg
   xmlns:dc="http://purl.org/dc/elements/1.1/"
   xmlns:cc="http://web.resource.org/cc/"
   xmlns:rdf="http://www.w3.org/1999/02/22-rdf-syntax-ns#"
   xmlns:svg="http://www.w3.org/2000/svg"
   xmlns="http://www.w3.org/2000/svg"
   xmlns:sodipodi="http://sodipodi.sourceforge.net/DTD/sodipodi-0.dtd"
   xmlns:inkscape="http://www.inkscape.org/namespaces/inkscape"
   width="16"
   height="16"
   id="svg7854"
   sodipodi:version="0.32"
   inkscape:version="0.45"
   version="1.0"
   sodipodi:docbase="/home/dobey/Projects/gnome-icon-theme/16x16/status"
   sodipodi:docname="media-playlist-shuffle.svg"
   inkscape:output_extension="org.inkscape.output.svg.inkscape"
   inkscape:export-filename="/home/lapo/Icone/gnome-icon-theme/32x32/status/media-playlist-repeat.png"
   inkscape:export-xdpi="90"
   inkscape:export-ydpi="90">
  <defs
     id="defs7856" />
  <sodipodi:namedview
     id="base"
     pagecolor="#ffffff"
     bordercolor="#afafaf"
     borderopacity="1"
     gridtolerance="15.1"
     guidetolerance="10"
     objecttolerance="10"
     inkscape:pageopacity="0"
     inkscape:pageshadow="2"
     inkscape:zoom="1"
     inkscape:cx="-15.115384"
     inkscape:cy="12.63713"
     inkscape:document-units="px"
     inkscape:current-layer="layer1"
     width="16px"
     height="16px"
     inkscape:showpageshadow="false"
     inkscape:window-width="872"
     inkscape:window-height="971"
     inkscape:window-x="62"
     inkscape:window-y="21"
     showgrid="false"
     gridspacingx="0.5px"
     gridspacingy="0.5px"
     gridempspacing="2"
     inkscape:grid-points="false"
     showborder="true"
     showguides="false"
     inkscape:guide-bbox="false"
     inkscape:grid-bbox="true"
     inkscape:object-paths="false">
    <sodipodi:guide
       orientation="horizontal"
       position="8.6620581"
       id="guide7377" />
    <sodipodi:guide
       orientation="horizontal"
       position="6"
       id="guide7379" />
    <sodipodi:guide
       orientation="horizontal"
       position="36.062446"
       id="guide7492" />
    <sodipodi:guide
       orientation="horizontal"
       position="51"
       id="guide7046" />
    <sodipodi:guide
       orientation="horizontal"
       position="-17.5"
       id="guide7233" />
    <sodipodi:guide
       orientation="horizontal"
       position="-29"
       id="guide7235" />
    <sodipodi:guide
       orientation="horizontal"
       position="44.547727"
       id="guide6795" />
    <sodipodi:guide
       orientation="horizontal"
       position="16.970563"
       id="guide6797" />
    <sodipodi:guide
       orientation="horizontal"
       position="23.511301"
       id="guide6914" />
  </sodipodi:namedview>
  <metadata
     id="metadata7859">
    <rdf:RDF>
      <cc:Work
         rdf:about="">
        <dc:format>image/svg+xml</dc:format>
        <dc:type
           rdf:resource="http://purl.org/dc/dcmitype/StillImage" />
        <dc:creator>
          <cc:Agent>
            <dc:title>Lapo Calamandrei</dc:title>
          </cc:Agent>
        </dc:creator>
        <dc:source />
        <cc:license
           rdf:resource="http://creativecommons.org/licenses/GPL/2.0/" />
        <dc:title>Media statusses</dc:title>
        <dc:subject>
          <rdf:Bag />
        </dc:subject>
      </cc:Work>
      <cc:License
         rdf:about="http://creativecommons.org/licenses/GPL/2.0/">
        <cc:permits
           rdf:resource="http://web.resource.org/cc/Reproduction" />
        <cc:permits
           rdf:resource="http://web.resource.org/cc/Distribution" />
        <cc:requires
           rdf:resource="http://web.resource.org/cc/Notice" />
        <cc:permits
           rdf:resource="http://web.resource.org/cc/DerivativeWorks" />
        <cc:requires
           rdf:resource="http://web.resource.org/cc/ShareAlike" />
        <cc:requires
           rdf:resource="http://web.resource.org/cc/SourceCode" />
      </cc:License>
    </rdf:RDF>
  </metadata>
  <g
     inkscape:label="Layer 1"
     inkscape:groupmode="layer"
     id="layer1">
    <g
       id="g7359"
       transform="translate(0,-90)">
      <g
         transform="translate(0,90)"
         style="opacity:0.4"
         id="g7380">
        <path
           sodipodi:type="inkscape:offset"
           inkscape:radius="0.50563109"
           inkscape:original="M 11.5 2.5 L 11.5 3.5 L 9.5 3.5 C 8.2986422 3.5 7.2350616 4.0597172 6.5 4.90625 C 5.7649384 4.0597172 4.7013578 3.5 3.5 3.5 L 1.46875 3.5 L 1.46875 5.5 L 3.5 5.5 C 4.625297 5.5 5.5 6.374703 5.5 7.5 C 5.5 8.625297 4.625297 9.5 3.5 9.5 L 1.46875 9.5 L 1.46875 11.5 L 3.5 11.5 C 4.7013578 11.5 5.7649384 10.940283 6.5 10.09375 C 7.2350616 10.940283 8.2986422 11.5 9.5 11.5 L 11.5 11.5 L 11.5 12.5 L 12.5 12.5 L 14.5 10.5 L 12.5 8.5 L 11.5 8.5 L 11.5 9.5 L 9.5 9.5 C 8.374703 9.5 7.5 8.625297 7.5 7.5 C 7.5 6.374703 8.374703 5.5 9.5 5.5 L 11.5 5.5 L 11.5 6.5 L 12.5 6.5 L 14.5 4.5 L 12.5 2.5 L 11.5 2.5 z "
           style="opacity:1;fill:#000000;fill-opacity:0.31372549;stroke:none;stroke-width:1;stroke-linecap:square;stroke-linejoin:round;stroke-miterlimit:4;stroke-dasharray:none;stroke-dashoffset:0.7;stroke-opacity:1"
           id="path7359"
           d="M 11.40625,2 C 11.168452,2.0476803 10.997992,2.2574772 11,2.5 L 11,3 L 9.5,3 C 8.3136698,3 7.2982389,3.5287777 6.5,4.28125 C 5.7017611,3.5287777 4.6863302,3 3.5,3 L 1.46875,3 C 1.1938898,3.0030713 0.97182126,3.2251398 0.96875,3.5 L 0.96875,5.5 C 0.97182126,5.7748602 1.1938898,5.9969287 1.46875,6 L 3.5,6 C 4.3632761,6 5,6.6367239 5,7.5 C 5,8.3632761 4.3632761,9 3.5,9 L 1.46875,9 C 1.1938898,9.0030713 0.97182126,9.2251398 0.96875,9.5 L 0.96875,11.5 C 0.97182126,11.77486 1.1938898,11.996929 1.46875,12 L 3.5,12 C 4.6863301,12 5.7017611,11.471222 6.5,10.71875 C 7.2982389,11.471222 8.3136699,12 9.5,12 L 11,12 L 11,12.5 C 11.003071,12.77486 11.22514,12.996929 11.5,13 L 12.5,13 C 12.63046,12.994255 12.75364,12.938264 12.84375,12.84375 L 14.84375,10.84375 C 15.023489,10.649826 15.023489,10.350174 14.84375,10.15625 L 12.84375,8.15625 C 12.75364,8.0617357 12.63046,8.0057449 12.5,8 L 11.5,8 C 11.22514,8.0030713 11.003071,8.2251398 11,8.5 L 11,9 L 9.5,9 C 8.6367239,9 8,8.3632761 8,7.5 C 8,6.6367239 8.6367239,6 9.5,6 L 11,6 L 11,6.5 C 11.003071,6.7748602 11.22514,6.9969287 11.5,7 L 12.5,7 C 12.63046,6.9942551 12.75364,6.9382643 12.84375,6.84375 L 14.84375,4.84375 C 15.023489,4.6498265 15.023489,4.3501735 14.84375,4.15625 L 12.84375,2.15625 C 12.75364,2.0617357 12.63046,2.0057449 12.5,2 L 11.5,2 C 11.468817,1.997097 11.437433,1.997097 11.40625,2 z "
           transform="matrix(1.1442879,0,0,1,-1.1397789,-1)" />
        <path
           sodipodi:type="inkscape:offset"
           inkscape:radius="0.50563109"
           inkscape:original="M 11.5 2.5 L 11.5 3.5 L 9.5 3.5 C 8.2986422 3.5 7.2350616 4.0597172 6.5 4.90625 C 5.7649384 4.0597172 4.7013578 3.5 3.5 3.5 L 1.46875 3.5 L 1.46875 5.5 L 3.5 5.5 C 4.625297 5.5 5.5 6.374703 5.5 7.5 C 5.5 8.625297 4.625297 9.5 3.5 9.5 L 1.46875 9.5 L 1.46875 11.5 L 3.5 11.5 C 4.7013578 11.5 5.7649384 10.940283 6.5 10.09375 C 7.2350616 10.940283 8.2986422 11.5 9.5 11.5 L 11.5 11.5 L 11.5 12.5 L 12.5 12.5 L 14.5 10.5 L 12.5 8.5 L 11.5 8.5 L 11.5 9.5 L 9.5 9.5 C 8.374703 9.5 7.5 8.625297 7.5 7.5 C 7.5 6.374703 8.374703 5.5 9.5 5.5 L 11.5 5.5 L 11.5 6.5 L 12.5 6.5 L 14.5 4.5 L 12.5 2.5 L 11.5 2.5 z "
           style="opacity:1;fill:#ffffff;fill-opacity:1;stroke:none;stroke-width:1;stroke-linecap:square;stroke-linejoin:round;stroke-miterlimit:4;stroke-dasharray:none;stroke-dashoffset:0.7;stroke-opacity:1"
           id="path7372"
           d="M 11.40625,2 C 11.168452,2.0476803 10.997992,2.2574772 11,2.5 L 11,3 L 9.5,3 C 8.3136698,3 7.2982389,3.5287777 6.5,4.28125 C 5.7017611,3.5287777 4.6863302,3 3.5,3 L 1.46875,3 C 1.1938898,3.0030713 0.97182126,3.2251398 0.96875,3.5 L 0.96875,5.5 C 0.97182126,5.7748602 1.1938898,5.9969287 1.46875,6 L 3.5,6 C 4.3632761,6 5,6.6367239 5,7.5 C 5,8.3632761 4.3632761,9 3.5,9 L 1.46875,9 C 1.1938898,9.0030713 0.97182126,9.2251398 0.96875,9.5 L 0.96875,11.5 C 0.97182126,11.77486 1.1938898,11.996929 1.46875,12 L 3.5,12 C 4.6863301,12 5.7017611,11.471222 6.5,10.71875 C 7.2982389,11.471222 8.3136699,12 9.5,12 L 11,12 L 11,12.5 C 11.003071,12.77486 11.22514,12.996929 11.5,13 L 12.5,13 C 12.63046,12.994255 12.75364,12.938264 12.84375,12.84375 L 14.84375,10.84375 C 15.023489,10.649826 15.023489,10.350174 14.84375,10.15625 L 12.84375,8.15625 C 12.75364,8.0617357 12.63046,8.0057449 12.5,8 L 11.5,8 C 11.22514,8.0030713 11.003071,8.2251398 11,8.5 L 11,9 L 9.5,9 C 8.6367239,9 8,8.3632761 8,7.5 C 8,6.6367239 8.6367239,6 9.5,6 L 11,6 L 11,6.5 C 11.003071,6.7748602 11.22514,6.9969287 11.5,7 L 12.5,7 C 12.63046,6.9942551 12.75364,6.9382643 12.84375,6.84375 L 14.84375,4.84375 C 15.023489,4.6498265 15.023489,4.3501735 14.84375,4.15625 L 12.84375,2.15625 C 12.75364,2.0617357 12.63046,2.0057449 12.5,2 L 11.5,2 C 11.468817,1.997097 11.437433,1.997097 11.40625,2 z "
           transform="matrix(1.1442879,0,0,1,-1.1397789,1)" />
      </g>
      <path
         id="path7329"
         d="M 11.5,92.5 L 11.5,93.5 L 9.5,93.5 C 7.3013,93.5 5.5,95.3013 5.5,97.5 C 5.5,98.6253 4.6253,99.5 3.5,99.5 L 1.46875,99.5 L 1.46875,101.5 L 3.5,101.5 C 5.6987,101.5 7.5,99.6987 7.5,97.5 C 7.5,96.3747 8.3747,95.5 9.5,95.5 L 11.5,95.5 L 11.5,96.5 L 12.5,96.5 L 14.5,94.5 L 12.5,92.5 L 11.5,92.5 z "
         style="fill:#eeeeec;fill-opacity:1;stroke:#888a85;stroke-width:1;stroke-linecap:square;stroke-linejoin:round;stroke-miterlimit:4;stroke-dasharray:none;stroke-dashoffset:0.7;stroke-opacity:1" />
      <path
         id="path7327"
         d="M 11.5,102.5 L 11.5,101.5 L 9.5,101.5 C 7.3013,101.5 5.5,99.6987 5.5,97.5 C 5.5,96.3747 4.6253,95.5 3.5,95.5 L 1.46875,95.5 L 1.46875,93.5 L 3.5,93.5 C 5.6987,93.5 7.5,95.3013 7.5,97.5 C 7.5,98.6253 8.3747,99.5 9.5,99.5 L 11.5,99.5 L 11.5,98.5 L 12.5,98.5 L 14.5,100.5 L 12.5,102.5 L 11.5,102.5 z "
         style="fill:#d3d7cf;fill-opacity:1;stroke:#555753;stroke-width:1;stroke-linecap:square;stroke-linejoin:round;stroke-miterlimit:4;stroke-dasharray:none;stroke-dashoffset:0.7;stroke-opacity:1" />
      <path
         id="path7269"
         d="M 11.5,102.5 L 11.5,101.5 L 9.5,101.5 C 7.3013,101.5 5.5,99.6987 5.5,97.5 C 5.5,96.3747 4.6253,95.5 3.5,95.5 L 1.46875,95.5 L 1.46875,93.5 L 3.5,93.5 C 5.6987,93.5 7.5,95.3013 7.5,97.5 C 7.5,98.6253 8.3747,99.5 9.5,99.5 L 11.5,99.5 L 11.5,98.5 L 12.5,98.5 L 14.5,100.5 L 12.5,102.5 L 11.5,102.5 z "
         style="fill:#d3d7cf;fill-opacity:1;stroke:#555753;stroke-width:1;stroke-linecap:square;stroke-linejoin:round;stroke-miterlimit:4;stroke-dasharray:none;stroke-dashoffset:0.7;stroke-opacity:1" />
      <g
         transform="translate(0,90)"
         style="opacity:0.2;fill:#000000"
         id="g7349">
        <rect
           style="opacity:1;fill:#000000;fill-opacity:1;stroke:none;stroke-width:1;stroke-linecap:square;stroke-linejoin:round;stroke-miterlimit:4;stroke-dasharray:none;stroke-dashoffset:0.7;stroke-opacity:1"
           id="rect7345"
           width="1"
           height="1"
           x="5"
           y="5" />
        <rect
           style="opacity:1;fill:#000000;fill-opacity:1;stroke:none;stroke-width:1;stroke-linecap:square;stroke-linejoin:round;stroke-miterlimit:4;stroke-dasharray:none;stroke-dashoffset:0.7;stroke-opacity:1"
           id="rect7347"
           width="1"
           height="1"
           x="7"
           y="9" />
      </g>
      <path
         id="rect7156"
         d="M 11.5,92.5 L 11.5,93.5 L 9.5,93.5 C 7.3013,93.5 5.5,95.3013 5.5,97.5 C 5.5,98.6253 4.6253,99.5 3.5,99.5 L 1.46875,99.5 L 1.46875,101.5 L 3.5,101.5 C 5.6987,101.5 7.5,99.6987 7.5,97.5 C 7.5,96.3747 8.3747,95.5 9.5,95.5 L 11.5,95.5 L 11.5,96.5 L 12.5,96.5 L 14.5,94.5 L 12.5,92.5 L 11.5,92.5 z "
         style="fill:#eeeeec;fill-opacity:1;stroke:#646662;stroke-width:1;stroke-linecap:square;stroke-linejoin:round;stroke-miterlimit:4;stroke-dasharray:none;stroke-dashoffset:0.7;stroke-opacity:1" />
      <g
         style="fill:#646662;fill-opacity:1"
         transform="matrix(1,0,0,-1,0,99)"
         id="g7285">
        <rect
           style="opacity:1;fill:#646662;fill-opacity:1;stroke:none;stroke-width:0.69999999;stroke-linecap:round;stroke-linejoin:round;stroke-miterlimit:4;stroke-dasharray:none;stroke-dashoffset:0.7;stroke-opacity:1"
           id="rect7287"
           width="1"
           height="1"
           x="12"
           y="2" />
        <rect
           style="opacity:1;fill:#646662;fill-opacity:1;stroke:none;stroke-width:0.69999999;stroke-linecap:round;stroke-linejoin:round;stroke-miterlimit:4;stroke-dasharray:none;stroke-dashoffset:0.7;stroke-opacity:1"
           id="rect7289"
           width="1"
           height="1"
           x="12"
           y="6" />
        <rect
           style="opacity:1;fill:#646662;fill-opacity:1;stroke:none;stroke-width:0.69999999;stroke-linecap:round;stroke-linejoin:round;stroke-miterlimit:4;stroke-dasharray:none;stroke-dashoffset:0.7;stroke-opacity:1"
           id="rect7292"
           width="1"
           height="1"
           x="13"
           y="5" />
        <rect
           style="opacity:1;fill:#646662;fill-opacity:1;stroke:none;stroke-width:0.69999999;stroke-linecap:round;stroke-linejoin:round;stroke-miterlimit:4;stroke-dasharray:none;stroke-dashoffset:0.7;stroke-opacity:1"
           id="rect7294"
           width="1"
           height="1"
           x="13"
           y="3" />
        <rect
           style="opacity:1;fill:#646662;fill-opacity:1;stroke:none;stroke-width:0.69999999;stroke-linecap:round;stroke-linejoin:round;stroke-miterlimit:4;stroke-dasharray:none;stroke-dashoffset:0.7;stroke-opacity:1"
           id="rect7296"
           width="1"
           height="1"
           x="14"
           y="4" />
      </g>
      <g
         transform="matrix(1,0,0,-1,-1,99)"
         style="fill:#ffffff"
         id="g7298">
        <rect
           style="opacity:1;fill:#ffffff;fill-opacity:1;stroke:none;stroke-width:0.69999999;stroke-linecap:round;stroke-linejoin:round;stroke-miterlimit:4;stroke-dasharray:none;stroke-dashoffset:0.7;stroke-opacity:1"
           id="rect7300"
           width="1"
           height="1"
           x="13"
           y="5" />
        <rect
           style="opacity:1;fill:#ffffff;fill-opacity:1;stroke:none;stroke-width:0.69999999;stroke-linecap:round;stroke-linejoin:round;stroke-miterlimit:4;stroke-dasharray:none;stroke-dashoffset:0.7;stroke-opacity:1"
           id="rect7302"
           width="1"
           height="1"
           x="13"
           y="3" />
        <rect
           style="opacity:1;fill:#ffffff;fill-opacity:1;stroke:none;stroke-width:0.69999999;stroke-linecap:round;stroke-linejoin:round;stroke-miterlimit:4;stroke-dasharray:none;stroke-dashoffset:0.7;stroke-opacity:1"
           id="rect7304"
           width="1"
           height="1"
           x="14"
           y="4" />
      </g>
      <g
         style="fill:#555753"
         transform="matrix(1,0,0,-1,0,105)"
         id="g7306">
        <rect
           style="opacity:1;fill:#555753;fill-opacity:1;stroke:none;stroke-width:0.69999999;stroke-linecap:round;stroke-linejoin:round;stroke-miterlimit:4;stroke-dasharray:none;stroke-dashoffset:0.7;stroke-opacity:1"
           id="rect7309"
           width="1"
           height="1"
           x="12"
           y="2" />
        <rect
           style="opacity:1;fill:#555753;fill-opacity:1;stroke:none;stroke-width:0.69999999;stroke-linecap:round;stroke-linejoin:round;stroke-miterlimit:4;stroke-dasharray:none;stroke-dashoffset:0.7;stroke-opacity:1"
           id="rect7311"
           width="1"
           height="1"
           x="12"
           y="6" />
        <rect
           style="opacity:1;fill:#555753;fill-opacity:1;stroke:none;stroke-width:0.69999999;stroke-linecap:round;stroke-linejoin:round;stroke-miterlimit:4;stroke-dasharray:none;stroke-dashoffset:0.7;stroke-opacity:1"
           id="rect7313"
           width="1"
           height="1"
           x="13"
           y="5" />
        <rect
           style="opacity:1;fill:#555753;fill-opacity:1;stroke:none;stroke-width:0.69999999;stroke-linecap:round;stroke-linejoin:round;stroke-miterlimit:4;stroke-dasharray:none;stroke-dashoffset:0.7;stroke-opacity:1"
           id="rect7315"
           width="1"
           height="1"
           x="13"
           y="3" />
        <rect
           style="opacity:1;fill:#555753;fill-opacity:1;stroke:none;stroke-width:0.69999999;stroke-linecap:round;stroke-linejoin:round;stroke-miterlimit:4;stroke-dasharray:none;stroke-dashoffset:0.7;stroke-opacity:1"
           id="rect7317"
           width="1"
           height="1"
           x="14"
           y="4" />
      </g>
      <g
         transform="matrix(1,0,0,-1,-1,105)"
         style="fill:#eeeeec"
         id="g7319">
        <rect
           style="opacity:1;fill:#eeeeec;fill-opacity:1;stroke:none;stroke-width:0.69999999;stroke-linecap:round;stroke-linejoin:round;stroke-miterlimit:4;stroke-dasharray:none;stroke-dashoffset:0.7;stroke-opacity:1"
           id="rect7321"
           width="1"
           height="1"
           x="13"
           y="5" />
        <rect
           style="opacity:1;fill:#eeeeec;fill-opacity:1;stroke:none;stroke-width:0.69999999;stroke-linecap:round;stroke-linejoin:round;stroke-miterlimit:4;stroke-dasharray:none;stroke-dashoffset:0.7;stroke-opacity:1"
           id="rect7323"
           width="1"
           height="1"
           x="13"
           y="3" />
        <rect
           style="opacity:1;fill:#eeeeec;fill-opacity:1;stroke:none;stroke-width:0.69999999;stroke-linecap:round;stroke-linejoin:round;stroke-miterlimit:4;stroke-dasharray:none;stroke-dashoffset:0.7;stroke-opacity:1"
           id="rect7325"
           width="1"
           height="1"
           x="14"
           y="4" />
      </g>
      <g
         transform="translate(0,90)"
         id="g7535">
        <rect
           style="opacity:1;fill:#ffffff;fill-opacity:1;stroke:none;stroke-width:1;stroke-linecap:square;stroke-linejoin:round;stroke-miterlimit:4;stroke-dasharray:none;stroke-dashoffset:0.7;stroke-opacity:1"
           id="rect7331"
           width="1"
           height="1"
           x="6"
           y="6" />
        <rect
           style="opacity:1;fill:#ffffff;fill-opacity:1;stroke:none;stroke-width:1;stroke-linecap:square;stroke-linejoin:round;stroke-miterlimit:4;stroke-dasharray:none;stroke-dashoffset:0.7;stroke-opacity:1"
           id="rect7333"
           width="1"
           height="1"
           x="7"
           y="5" />
        <rect
           style="opacity:1;fill:#ffffff;fill-opacity:1;stroke:none;stroke-width:1;stroke-linecap:square;stroke-linejoin:round;stroke-miterlimit:4;stroke-dasharray:none;stroke-dashoffset:0.7;stroke-opacity:1"
           id="rect7335"
           width="1"
           height="1"
           x="8"
           y="4" />
      </g>
      <g
         transform="translate(0,90)"
         id="g7540">
        <rect
           style="opacity:1;fill:#ffffff;fill-opacity:1;stroke:none;stroke-width:1;stroke-linecap:square;stroke-linejoin:round;stroke-miterlimit:4;stroke-dasharray:none;stroke-dashoffset:0.7;stroke-opacity:1"
           id="rect7338"
           width="1"
           height="1"
           x="5"
           y="9" />
        <rect
           style="opacity:1;fill:#ffffff;fill-opacity:1;stroke:none;stroke-width:1;stroke-linecap:square;stroke-linejoin:round;stroke-miterlimit:4;stroke-dasharray:none;stroke-dashoffset:0.7;stroke-opacity:1"
           id="rect7341"
           width="1"
           height="1"
           x="6"
           y="8" />
        <rect
           style="opacity:1;fill:#ffffff;fill-opacity:1;stroke:none;stroke-width:1;stroke-linecap:square;stroke-linejoin:round;stroke-miterlimit:4;stroke-dasharray:none;stroke-dashoffset:0.7;stroke-opacity:1"
           id="rect7343"
           width="1"
           height="1"
           x="4"
           y="10" />
      </g>
    </g>
  </g>
</svg>
