<?xml version="1.0" encoding="UTF-8" standalone="no"?>
<!-- Created with Inkscape (http://www.inkscape.org/) -->
<svg
   xmlns:dc="http://purl.org/dc/elements/1.1/"
   xmlns:cc="http://web.resource.org/cc/"
   xmlns:rdf="http://www.w3.org/1999/02/22-rdf-syntax-ns#"
   xmlns:svg="http://www.w3.org/2000/svg"
   xmlns="http://www.w3.org/2000/svg"
   xmlns:xlink="http://www.w3.org/1999/xlink"
   xmlns:sodipodi="http://sodipodi.sourceforge.net/DTD/sodipodi-0.dtd"
   xmlns:inkscape="http://www.inkscape.org/namespaces/inkscape"
   width="16"
   height="16"
   id="svg2"
   sodipodi:version="0.32"
   inkscape:version="0.45"
   version="1.0"
   sodipodi:docbase="/home/dobey/Projects/gnome-icon-theme/16x16/status"
   sodipodi:docname="software-update-available.svg"
   inkscape:output_extension="org.inkscape.output.svg.inkscape">
  <defs
     id="defs4">
    <linearGradient
       inkscape:collect="always"
       id="linearGradient7097">
      <stop
         style="stop-color:#f9f9f9;stop-opacity:1;"
         offset="0"
         id="stop7099" />
      <stop
         style="stop-color:#f9f9f9;stop-opacity:0;"
         offset="1"
         id="stop7101" />
    </linearGradient>
    <linearGradient
       id="linearGradient7081">
      <stop
         style="stop-color:#fcaf3e;stop-opacity:1;"
         offset="0"
         id="stop7083" />
      <stop
         style="stop-color:#f57900;stop-opacity:1"
         offset="1"
         id="stop7085" />
    </linearGradient>
    <linearGradient
       inkscape:collect="always"
       id="linearGradient3266">
      <stop
         style="stop-color:#ffffff;stop-opacity:1;"
         offset="0"
         id="stop3268" />
      <stop
         style="stop-color:#ffffff;stop-opacity:0;"
         offset="1"
         id="stop3270" />
    </linearGradient>
    <linearGradient
       id="linearGradient3444"
       inkscape:collect="always">
      <stop
         id="stop3446"
         offset="0"
         style="stop-color:#fcaf3e;stop-opacity:1" />
      <stop
         id="stop3448"
         offset="1"
         style="stop-color:#f57900;stop-opacity:1" />
    </linearGradient>
    <linearGradient
       inkscape:collect="always"
       id="linearGradient3383">
      <stop
         style="stop-color:#000000;stop-opacity:1;"
         offset="0"
         id="stop3385" />
      <stop
         style="stop-color:#000000;stop-opacity:0;"
         offset="1"
         id="stop3387" />
    </linearGradient>
    <linearGradient
       inkscape:collect="always"
       id="linearGradient3360">
      <stop
         style="stop-color:#ffffff;stop-opacity:1;"
         offset="0"
         id="stop3362" />
      <stop
         style="stop-color:#ffffff;stop-opacity:0;"
         offset="1"
         id="stop3364" />
    </linearGradient>
    <linearGradient
       inkscape:collect="always"
       id="linearGradient3243">
      <stop
         style="stop-color:#ffffff;stop-opacity:1;"
         offset="0"
         id="stop3245" />
      <stop
         style="stop-color:#ffffff;stop-opacity:0;"
         offset="1"
         id="stop3247" />
    </linearGradient>
    <linearGradient
       inkscape:collect="always"
       id="linearGradient3169">
      <stop
         style="stop-color:#ffffff;stop-opacity:1;"
         offset="0"
         id="stop3171" />
      <stop
         style="stop-color:#ffffff;stop-opacity:0;"
         offset="1"
         id="stop3173" />
    </linearGradient>
    <linearGradient
       inkscape:collect="always"
       id="linearGradient3161">
      <stop
         style="stop-color:#a40000;stop-opacity:1;"
         offset="0"
         id="stop3163" />
      <stop
         style="stop-color:#a40000;stop-opacity:0;"
         offset="1"
         id="stop3165" />
    </linearGradient>
    <linearGradient
       id="linearGradient3153">
      <stop
         style="stop-color:#f35c5c;stop-opacity:1"
         offset="0"
         id="stop3155" />
      <stop
         id="stop3177"
         offset="0.5"
         style="stop-color:#ef2929;stop-opacity:1;" />
      <stop
         style="stop-color:#ef2929;stop-opacity:0;"
         offset="1"
         id="stop3157" />
    </linearGradient>
    <linearGradient
       inkscape:collect="always"
       xlink:href="#linearGradient3153"
       id="linearGradient3222"
       gradientUnits="userSpaceOnUse"
       x1="9.9125319"
       y1="3.6448569"
       x2="11.008502"
       y2="24.195427"
       gradientTransform="matrix(0.7453889,0,0,-0.6666667,-0.560288,45.864583)" />
    <linearGradient
       inkscape:collect="always"
       xlink:href="#linearGradient3161"
       id="linearGradient3224"
       gradientUnits="userSpaceOnUse"
       x1="17.46875"
       y1="20.623686"
       x2="17.46875"
       y2="23.96875"
       gradientTransform="matrix(0.7453889,0,0,-0.6666667,-0.560288,45.864583)" />
    <linearGradient
       inkscape:collect="always"
       xlink:href="#linearGradient3243"
       id="linearGradient3249"
       x1="4.4636116"
       y1="13.591417"
       x2="4.4636116"
       y2="15.824207"
       gradientUnits="userSpaceOnUse"
       gradientTransform="matrix(1,0,0,-1,0,46.03125)" />
    <linearGradient
       inkscape:collect="always"
       xlink:href="#linearGradient3169"
       id="linearGradient3280"
       gradientUnits="userSpaceOnUse"
       x1="6.65625"
       y1="18.74963"
       x2="6.65625"
       y2="21.415125"
       gradientTransform="matrix(1,0,0,-1,-30,52)" />
    <linearGradient
       inkscape:collect="always"
       xlink:href="#linearGradient3153"
       id="linearGradient3283"
       gradientUnits="userSpaceOnUse"
       x1="9.4750319"
       y1="6.6448569"
       x2="10.946002"
       y2="21.695427"
       gradientTransform="matrix(1,0,0,-1,-30,52)" />
    <linearGradient
       inkscape:collect="always"
       xlink:href="#linearGradient3161"
       id="linearGradient3285"
       gradientUnits="userSpaceOnUse"
       x1="17.46875"
       y1="17.998686"
       x2="17.46875"
       y2="21.595922"
       gradientTransform="matrix(1,0,0,-1,-30,52)" />
    <radialGradient
       inkscape:collect="always"
       xlink:href="#linearGradient3383"
       id="radialGradient3438"
       gradientUnits="userSpaceOnUse"
       gradientTransform="matrix(1,0,0,0.4889336,0,8.0475196)"
       cx="11.026446"
       cy="15.746525"
       fx="11.026446"
       fy="15.746525"
       r="10.982252" />
    <radialGradient
       inkscape:collect="always"
       xlink:href="#linearGradient3444"
       id="radialGradient3440"
       gradientUnits="userSpaceOnUse"
       gradientTransform="matrix(0.7770732,-0.1759354,0.1794238,0.8033146,1.9176842,5.476637)"
       cx="-9.6242685"
       cy="-13.159472"
       fx="-9.6242685"
       fy="-13.159472"
       r="29.191137" />
    <linearGradient
       inkscape:collect="always"
       xlink:href="#linearGradient3360"
       id="linearGradient3442"
       gradientUnits="userSpaceOnUse"
       x1="-10.618274"
       y1="-9.0397129"
       x2="18.455231"
       y2="35.779209" />
    <linearGradient
       inkscape:collect="always"
       xlink:href="#linearGradient3266"
       id="linearGradient3276"
       gradientUnits="userSpaceOnUse"
       x1="9.6875"
       y1="103.375"
       x2="7.9375"
       y2="94.8125"
       gradientTransform="matrix(1,0,0,-1,-30,142)" />
    <radialGradient
       inkscape:collect="always"
       xlink:href="#linearGradient3383"
       id="radialGradient6069"
       gradientUnits="userSpaceOnUse"
       gradientTransform="matrix(1,0,0,0.4889336,0,8.0475196)"
       cx="11.026446"
       cy="15.746525"
       fx="11.026446"
       fy="15.746525"
       r="10.982252" />
    <linearGradient
       inkscape:collect="always"
       xlink:href="#linearGradient7081"
       id="linearGradient7087"
       x1="5.038136"
       y1="4.6862917"
       x2="10.31601"
       y2="13.827838"
       gradientUnits="userSpaceOnUse" />
    <linearGradient
       inkscape:collect="always"
       xlink:href="#linearGradient7097"
       id="linearGradient7103"
       x1="4.9421649"
       y1="34.458"
       x2="11.275034"
       y2="46.050735"
       gradientUnits="userSpaceOnUse" />
  </defs>
  <sodipodi:namedview
     id="base"
     pagecolor="#ffffff"
     bordercolor="#afafaf"
     borderopacity="1"
     inkscape:pageopacity="0"
     inkscape:pageshadow="2"
     inkscape:zoom="1"
     inkscape:cx="4.8690211"
     inkscape:cy="4.2128992"
     inkscape:document-units="px"
     inkscape:current-layer="layer1"
     width="16px"
     height="16px"
     gridspacingx="0.5px"
     gridspacingy="0.5px"
     inkscape:showpageshadow="false"
     borderlayer="true"
     gridempspacing="2"
     inkscape:window-width="1267"
     inkscape:window-height="957"
     inkscape:window-x="5"
     inkscape:window-y="24"
     showgrid="false"
     inkscape:grid-points="true"
     showborder="false" />
  <metadata
     id="metadata7">
    <rdf:RDF>
      <cc:Work
         rdf:about="">
        <dc:format>image/svg+xml</dc:format>
        <dc:type
           rdf:resource="http://purl.org/dc/dcmitype/StillImage" />
        <dc:creator>
          <cc:Agent>
            <dc:title>Lapo Calamandrei</dc:title>
          </cc:Agent>
        </dc:creator>
        <cc:license
           rdf:resource="http://creativecommons.org/licenses/GPL/2.0/" />
      </cc:Work>
      <cc:License
         rdf:about="http://creativecommons.org/licenses/GPL/2.0/">
        <cc:permits
           rdf:resource="http://web.resource.org/cc/Reproduction" />
        <cc:permits
           rdf:resource="http://web.resource.org/cc/Distribution" />
        <cc:requires
           rdf:resource="http://web.resource.org/cc/Notice" />
        <cc:permits
           rdf:resource="http://web.resource.org/cc/DerivativeWorks" />
        <cc:requires
           rdf:resource="http://web.resource.org/cc/ShareAlike" />
        <cc:requires
           rdf:resource="http://web.resource.org/cc/SourceCode" />
      </cc:License>
    </rdf:RDF>
  </metadata>
  <g
     inkscape:label="Livello 1"
     inkscape:groupmode="layer"
     id="layer1">
    <path
       sodipodi:type="arc"
       style="opacity:0.2;fill:url(#radialGradient6069);fill-opacity:1;stroke:none;stroke-width:1;stroke-linecap:round;stroke-linejoin:miter;stroke-miterlimit:4;stroke-dasharray:none;stroke-dashoffset:0;stroke-opacity:1"
       id="path6067"
       sodipodi:cx="11.026446"
       sodipodi:cy="15.746525"
       sodipodi:rx="10.982252"
       sodipodi:ry="5.3695922"
       d="M 22.008698 15.746525 A 10.982252 5.3695922 0 1 1  0.044194221,15.746525 A 10.982252 5.3695922 0 1 1  22.008698 15.746525 z"
       transform="matrix(1.1073895,0,0,1.2906478,-30.728319,25.790725)" />
    <path
       style="fill:url(#linearGradient3283);fill-opacity:1;fill-rule:evenodd;stroke:url(#linearGradient3285);stroke-width:1px;stroke-linecap:butt;stroke-linejoin:round;stroke-opacity:1"
       d="M -18.5,51.5 L -28.5,39.5 L -24.5,39.5 L -24.5,29.5 L -12.5,29.5 L -12.5,39.5 L -8.5,39.5 L -18.5,51.5 z "
       id="path3133"
       sodipodi:nodetypes="cccccccc" />
    <path
       style="opacity:0.55;fill:none;fill-opacity:1;fill-rule:evenodd;stroke:url(#linearGradient3280);stroke-width:1px;stroke-linecap:butt;stroke-linejoin:miter;stroke-opacity:1"
       d="M -18.5,49.90625 L -26.34375,40.5 L -24.5,40.5 C -23.949114,40.496638 -23.503362,40.050886 -23.5,39.5 L -23.5,29.5 L -13.5,29.5 L -13.5,39.5 C -13.496638,40.050886 -13.050886,40.496638 -12.5,40.5 L -10.65625,40.5 L -18.5,49.90625 z "
       id="path3142"
       sodipodi:nodetypes="cccccccccc" />
    <path
       style="fill:#ffffff;fill-opacity:1;stroke:#cc0000;stroke-width:1;stroke-linecap:round;stroke-linejoin:miter;stroke-miterlimit:4;stroke-dashoffset:0;stroke-opacity:1"
       d="M -20.035961,31.5 L -16.964039,31.5 C -16.706961,31.5 -16.5,31.706961 -16.5,31.964039 L -17.035961,40.035961 C -17.035961,40.293039 -17.242922,40.5 -17.5,40.5 L -19.5,40.5 C -19.757078,40.5 -20,40.257078 -20,40 L -20.5,31.964039 C -20.5,31.706961 -20.293039,31.5 -20.035961,31.5 z "
       id="rect3179"
       sodipodi:nodetypes="ccccccccc" />
    <rect
       style="fill:#ffffff;fill-opacity:1;stroke:#cc0000;stroke-width:1;stroke-linecap:round;stroke-linejoin:miter;stroke-miterlimit:4;stroke-dasharray:none;stroke-dashoffset:0;stroke-opacity:1"
       id="rect3181"
       width="4"
       height="4"
       x="-20.5"
       y="41.5"
       rx="1.59375"
       ry="1.59375" />
    <path
       style="fill:url(#linearGradient3222);fill-opacity:1;fill-rule:evenodd;stroke:url(#linearGradient3224);stroke-width:1.00000012px;stroke-linecap:butt;stroke-linejoin:round;stroke-opacity:1"
       d="M 8.011684,45.53125 L 0.557795,37.53125 L 3.539351,37.53125 L 3.539351,29.531249 L 12.484018,29.531249 L 12.484018,37.53125 L 15.465573,37.53125 L 8.011684,45.53125 z "
       id="path3205" />
    <path
       style="opacity:0.55;fill:none;fill-opacity:1;fill-rule:evenodd;stroke:url(#linearGradient3249);stroke-width:1;stroke-linecap:butt;stroke-linejoin:miter;stroke-miterlimit:4;stroke-opacity:1"
       d="M 8,44.09375 L 2.78125,38.5 L 3.53125,38.5 C 3.788557,38.501241 4.035684,38.399575 4.21763,38.21763 C 4.399575,38.035684 4.501241,37.788557 4.5,37.53125 L 4.5,29.5 L 11.5,29.5 L 11.5,37.53125 C 11.498759,37.788557 11.600425,38.035684 11.78237,38.21763 C 11.964316,38.399575 12.211443,38.501241 12.46875,38.5 L 13.21875,38.5 L 8,44.09375 z "
       id="path3238"
       sodipodi:nodetypes="cccsccccsccc" />
    <path
       style="fill:#ffffff;fill-opacity:1;stroke:#cc0000;stroke-width:1.00000012;stroke-linecap:round;stroke-linejoin:miter;stroke-miterlimit:4;stroke-dashoffset:0;stroke-opacity:1"
       d="M 6.5,30.5 L 9.5,30.5 L 9.5,32 L 9,37.5 L 7,37.5 L 6.5,32 L 6.5,30.5 z "
       id="path3209"
       sodipodi:nodetypes="ccccccc" />
    <rect
       style="fill:#ffffff;fill-opacity:1;stroke:#cc0000;stroke-width:1;stroke-linecap:round;stroke-linejoin:miter;stroke-miterlimit:4;stroke-dasharray:none;stroke-dashoffset:0;stroke-opacity:1"
       id="rect3211"
       width="2.9815557"
       height="2.9999993"
       x="6.5184441"
       y="37.5"
       rx="1.0016164"
       ry="1.0078123" />
    <path
       sodipodi:type="arc"
       style="opacity:0.3;fill:url(#radialGradient3438);fill-opacity:1;stroke:none;stroke-width:1;stroke-linecap:round;stroke-linejoin:miter;stroke-miterlimit:4;stroke-dasharray:none;stroke-dashoffset:0;stroke-opacity:1"
       id="path3428"
       sodipodi:cx="11.026446"
       sodipodi:cy="15.746525"
       sodipodi:rx="10.982252"
       sodipodi:ry="5.3695922"
       d="M 22.008698 15.746525 A 10.982252 5.3695922 0 1 1  0.044194221,15.746525 A 10.982252 5.3695922 0 1 1  22.008698 15.746525 z"
       transform="translate(-30.044194,0.928078)" />
    <path
       sodipodi:type="star"
       style="opacity:1;fill:url(#radialGradient3440);fill-opacity:1;stroke:#ce5c00;stroke-width:2.82279515;stroke-linecap:round;stroke-linejoin:round;stroke-miterlimit:4;stroke-dasharray:none;stroke-dashoffset:0;stroke-opacity:1"
       id="path3430"
       sodipodi:sides="9"
       sodipodi:cx="1.5"
       sodipodi:cy="0.56249994"
       sodipodi:r1="17.531784"
       sodipodi:r2="28.247856"
       sodipodi:arg1="0.8197281"
       sodipodi:arg2="1.168794"
       inkscape:flatsided="false"
       inkscape:rounded="0"
       inkscape:randomized="0"
       d="M 13.46404,13.377538 L 12.552308,26.55842 L 2.4276384,18.069725 L -6.7432965,27.580817 L -9.0428153,14.570087 L -22.181771,15.961042 L -15.580169,4.5161432 L -26.539281,-2.8638809 L -14.125521,-7.3877544 L -17.7769,-20.085563 L -5.3595186,-15.57164 L 0.0053563245,-27.645786 L 6.6161288,-16.206182 L 18.486973,-22.007039 L 16.197883,-8.9944711 L 29.020197,-5.8077543 L 18.902334,2.6890523 L 26.676414,13.372244 L 13.46404,13.377538 z "
       transform="matrix(0.3468006,7.7988137e-2,-7.7457868e-2,0.3444588,-20.043476,10.816075)" />
    <path
       sodipodi:type="inkscape:offset"
       inkscape:radius="-2.672791"
       inkscape:original="M 0 -27.65625 L -5.375 -15.5625 L -17.78125 -20.09375 L -14.125 -7.375 L -26.53125 -2.875 L -15.59375 4.53125 L -22.1875 15.96875 L -9.03125 14.5625 L -6.75 27.59375 L 2.4375 18.0625 L 12.5625 26.5625 L 13.46875 13.375 L 26.6875 13.375 L 18.90625 2.6875 L 29.03125 -5.8125 L 16.1875 -9 L 18.5 -22 L 6.625 -16.21875 L 0 -27.65625 z "
       style="opacity:0.8;fill:none;fill-opacity:1;stroke:url(#linearGradient3442);stroke-width:2.85082793;stroke-linecap:round;stroke-linejoin:miter;stroke-miterlimit:4;stroke-dasharray:none;stroke-dashoffset:0;stroke-opacity:1"
       id="path3432"
       d="M 0.3125,-21.78125 L -2.9375,-14.46875 C -3.5148171,-13.199745 -4.9704917,-12.587545 -6.28125,-13.0625 L -13.78125,-15.8125 L -11.5625,-8.125 C -11.174812,-6.7747587 -11.898436,-5.3548172 -13.21875,-4.875 L -20.6875,-2.15625 L -14.09375,2.3125 C -12.926866,3.100637 -12.571483,4.6588548 -13.28125,5.875 L -17.25,12.75 L -9.3125,11.90625 C -7.9204907,11.762236 -6.6530268,12.716241 -6.40625,14.09375 L -5.03125,21.96875 L 0.5,16.21875 C 1.4694457,15.191087 3.0711902,15.095256 4.15625,16 L 10.28125,21.125 L 10.8125,13.1875 C 10.903437,11.78565 12.063966,10.693387 13.46875,10.6875 L 21.4375,10.6875 L 16.75,4.25 C 15.919285,3.1147822 16.110554,1.5299828 17.1875,0.625 L 23.28125,-4.5 L 15.53125,-6.40625 C 14.17379,-6.7533383 13.314696,-8.0897067 13.5625,-9.46875 L 14.96875,-17.3125 L 7.78125,-13.8125 C 6.524855,-13.207744 5.0146554,-13.670327 4.3125,-14.875 L 0.3125,-21.78125 z "
       transform="matrix(0.343388,7.7221803e-2,-7.6695666e-2,0.341074,-19.994658,10.818832)" />
    <path
       style="opacity:1;fill:#f57900;fill-opacity:1;stroke:none;stroke-width:1;stroke-linecap:round;stroke-linejoin:miter;stroke-miterlimit:4;stroke-dasharray:none;stroke-dashoffset:0;stroke-opacity:1"
       d="M -19.5,16 L -24,9 L -21,9 L -21,6 L -18,6 L -18,9 L -15,9 L -19.5,16 z "
       id="path3434"
       sodipodi:nodetypes="cccccccc" />
    <path
       style="fill:#ffffff;fill-opacity:1;stroke:none;stroke-width:1;stroke-linecap:round;stroke-linejoin:miter;stroke-miterlimit:4;stroke-dashoffset:0;stroke-opacity:1"
       d="M -19.5,14.3125 L -22,10 L -20,10 L -20,7 L -19,7 L -19,10 L -17,10 L -19.5,14.3125 z "
       id="path3436"
       sodipodi:nodetypes="cccccccc" />
    <path
       style="fill:#ffffff;fill-opacity:1;stroke:none;stroke-width:1;stroke-linecap:round;stroke-linejoin:miter;stroke-miterlimit:4;stroke-dashoffset:0;stroke-opacity:1"
       d="M -19.5,14.3125 L -22,10 L -20,10 L -20,7 L -19,7 L -19,10 L -17,10 L -19.5,14.3125 z "
       id="path3254"
       sodipodi:nodetypes="cccccccc" />
    <path
       style="opacity:0.36398465;fill:url(#linearGradient3276);fill-opacity:1;fill-rule:evenodd;stroke:none;stroke-width:1px;stroke-linecap:butt;stroke-linejoin:round;stroke-opacity:1"
       d="M -18.5,50.75 L -27.4375,40 L -24.5,40 C -24.366996,40.0013 -24.250303,39.9378 -24.15625,39.84375 C -24.062198,39.74969 -23.998695,39.633 -24,39.5 L -24,36.84375 C -16.284086,34.3463 -18.268509,44.03335 -12.5625,43.59375 L -18.5,50.75 z "
       id="path3274"
       sodipodi:nodetypes="cccscccc" />
    <path
       style="opacity:1;fill:url(#linearGradient7087);fill-opacity:1;fill-rule:evenodd;stroke:#ce5c00;stroke-width:1;stroke-linecap:round;stroke-linejoin:miter;stroke-miterlimit:4;stroke-dasharray:none;stroke-opacity:1"
       d="M 7.5,0.5 L 5.5,3.5 L 2.5,2.5 L 3.5,5.5 L 0.5,7.5 L 3.5,9.5 L 2.5,12.5 L 5.5,11.5 L 7.5,14.5 L 9.5,11.5 L 12.5,12.5 L 11.5,9.5 L 14.5,7.5 L 11.5,5.5 L 12.5,2.5 L 9.5,3.5 L 7.5,0.5 z "
       id="rect7040"
       sodipodi:nodetypes="ccccccccccccccccc" />
    <path
       sodipodi:type="inkscape:offset"
       inkscape:radius="-0.95606613"
       inkscape:original="M 7.5 30.5 L 5.5 33.5 L 2.5 32.5 L 3.5 35.5 L 0.5 37.5 L 3.5 39.5 L 2.5 42.5 L 5.5 41.5 L 7.5 44.5 L 9.5 41.5 L 12.5 42.5 L 11.5 39.5 L 14.5 37.5 L 11.5 35.5 L 12.5 32.5 L 9.5 33.5 L 7.5 30.5 z "
       style="opacity:0.76492537;fill:none;fill-opacity:1;fill-rule:evenodd;stroke:url(#linearGradient7103);stroke-width:1;stroke-linecap:round;stroke-linejoin:miter;stroke-miterlimit:4;stroke-dasharray:none;stroke-opacity:1"
       id="path7093"
       d="M 7.5,32.1875 L 6.28125,34.03125 C 6.0421037,34.387499 5.594926,34.540817 5.1875,34.40625 L 4,34 L 4.40625,35.1875 C 4.540817,35.594926 4.3874989,36.042104 4.03125,36.28125 L 2.1875,37.5 L 4.03125,38.71875 C 4.3874989,38.957896 4.540817,39.405074 4.40625,39.8125 L 4,41 L 5.1875,40.59375 C 5.594926,40.459183 6.0421037,40.612501 6.28125,40.96875 L 7.5,42.8125 L 8.71875,40.96875 C 8.9578963,40.612501 9.405074,40.459183 9.8125,40.59375 L 11,41 L 10.59375,39.8125 C 10.459183,39.405074 10.612501,38.957896 10.96875,38.71875 L 12.8125,37.5 L 10.96875,36.28125 C 10.612501,36.042104 10.459183,35.594926 10.59375,35.1875 L 11,34 L 9.8125,34.40625 C 9.405074,34.540817 8.9578963,34.387499 8.71875,34.03125 L 7.5,32.1875 z "
       transform="translate(0,-30)" />
    <path
       style="opacity:1;fill:#f57900;fill-opacity:1;stroke:none;stroke-width:1;stroke-linecap:round;stroke-linejoin:miter;stroke-miterlimit:4;stroke-dasharray:none;stroke-dashoffset:0;stroke-opacity:1"
       d="M 7.5,11.5 L 3,6 L 6,6 L 6,4 L 9,4 L 9,6 L 12,6 L 7.5,11.5 z "
       id="path6055"
       sodipodi:nodetypes="cccccccc" />
    <path
       style="fill:#ffffff;fill-opacity:1;stroke:none;stroke-width:1;stroke-linecap:round;stroke-linejoin:miter;stroke-miterlimit:4;stroke-dashoffset:0;stroke-opacity:1"
       d="M 7.5,10 L 5,7 L 7,7 L 7,5 L 8,5 L 8,7 L 10,7 L 7.5,10 z "
       id="path6059"
       sodipodi:nodetypes="cccccccc" />
    <rect
       style="opacity:1;fill:#ffffff;fill-opacity:0.98473283;fill-rule:evenodd;stroke:none;stroke-width:1;stroke-linecap:round;stroke-linejoin:round;stroke-miterlimit:10.43299961;stroke-dasharray:none;stroke-opacity:1"
       id="rect6046"
       width="1"
       height="1"
       x="3"
       y="3" />
    <rect
       style="opacity:1;fill:#ffffff;fill-opacity:0.98473283;fill-rule:evenodd;stroke:none;stroke-width:1;stroke-linecap:round;stroke-linejoin:round;stroke-miterlimit:10.43299961;stroke-dasharray:none;stroke-opacity:1"
       id="rect7017"
       width="1"
       height="1"
       x="11"
       y="3" />
    <rect
       style="opacity:0.64179107;fill:#ffffff;fill-opacity:0.98473283;fill-rule:evenodd;stroke:none;stroke-width:1;stroke-linecap:round;stroke-linejoin:round;stroke-miterlimit:10.43299961;stroke-dasharray:none;stroke-opacity:1"
       id="rect7019"
       width="1"
       height="1"
       x="11"
       y="11" />
    <rect
       style="opacity:0.64179107;fill:#ffffff;fill-opacity:0.98473283;fill-rule:evenodd;stroke:none;stroke-width:1;stroke-linecap:round;stroke-linejoin:round;stroke-miterlimit:10.43299961;stroke-dasharray:none;stroke-opacity:1"
       id="rect7021"
       width="1"
       height="1"
       x="3"
       y="11" />
  </g>
</svg>
