<?xml version="1.0" encoding="UTF-8" standalone="no"?>
<!-- Created with Inkscape (http://www.inkscape.org/) -->
<svg
   xmlns:dc="http://purl.org/dc/elements/1.1/"
   xmlns:cc="http://web.resource.org/cc/"
   xmlns:rdf="http://www.w3.org/1999/02/22-rdf-syntax-ns#"
   xmlns:svg="http://www.w3.org/2000/svg"
   xmlns="http://www.w3.org/2000/svg"
   xmlns:xlink="http://www.w3.org/1999/xlink"
   xmlns:sodipodi="http://sodipodi.sourceforge.net/DTD/sodipodi-0.dtd"
   xmlns:inkscape="http://www.inkscape.org/namespaces/inkscape"
   width="16"
   height="16"
   id="svg1306"
   sodipodi:version="0.32"
   inkscape:version="0.45"
   sodipodi:docbase="/home/dobey/Projects/gnome-icon-theme/16x16/status"
   sodipodi:docname="weather-severe-alert.svg"
   version="1.0"
   inkscape:output_extension="org.inkscape.output.svg.inkscape">
  <defs
     id="defs1308">
    <linearGradient
       id="linearGradient2935">
      <stop
         style="stop-color:white;stop-opacity:1"
         offset="0"
         id="stop2937" />
      <stop
         style="stop-color:#f57900;stop-opacity:1;"
         offset="1"
         id="stop2939" />
    </linearGradient>
    <linearGradient
       id="linearGradient2851">
      <stop
         id="stop2853"
         offset="0"
         style="stop-color:#babdb6;stop-opacity:1" />
      <stop
         style="stop-color:#babdb6;stop-opacity:1;"
         offset="0.26506025"
         id="stop2855" />
      <stop
         id="stop2857"
         offset="1"
         style="stop-color:#555753;stop-opacity:1" />
    </linearGradient>
    <radialGradient
       inkscape:collect="always"
       xlink:href="#linearGradient2851"
       id="radialGradient3824"
       cx="41.961704"
       cy="42.568874"
       fx="41.961704"
       fy="42.568874"
       r="7.9545455"
       gradientTransform="matrix(2.357502,0,0,0.924109,-92.28592,-34.47529)"
       gradientUnits="userSpaceOnUse" />
    <linearGradient
       inkscape:collect="always"
       xlink:href="#linearGradient2935"
       id="linearGradient2941"
       x1="9.09375"
       y1="9.46875"
       x2="10.71875"
       y2="12.59375"
       gradientUnits="userSpaceOnUse" />
  </defs>
  <sodipodi:namedview
     id="base"
     pagecolor="#ffffff"
     bordercolor="#666"
     borderopacity="1"
     inkscape:pageopacity="0.0"
     inkscape:pageshadow="2"
     inkscape:zoom="1"
     inkscape:cx="15.610183"
     inkscape:cy="6.5756007"
     inkscape:current-layer="layer1"
     showgrid="false"
     inkscape:grid-bbox="true"
     inkscape:document-units="px"
     inkscape:window-width="1048"
     inkscape:window-height="828"
     inkscape:window-x="81"
     inkscape:window-y="88"
     inkscape:showpageshadow="false"
     showborder="false"
     showguides="false"
     inkscape:guide-bbox="true"
     width="16px"
     height="16px"
     gridspacingx="0.5px"
     gridspacingy="0.5px"
     gridempspacing="2"
     inkscape:grid-points="true">
    <sodipodi:guide
       orientation="vertical"
       position="44.017397"
       id="guide15540" />
    <sodipodi:guide
       orientation="vertical"
       position="12.904699"
       id="guide15542" />
    <sodipodi:guide
       orientation="horizontal"
       position="19.375"
       id="guide15561" />
  </sodipodi:namedview>
  <metadata
     id="metadata1311">
    <rdf:RDF>
      <cc:Work
         rdf:about="">
        <dc:format>image/svg+xml</dc:format>
        <dc:type
           rdf:resource="http://purl.org/dc/dcmitype/StillImage" />
        <cc:license
           rdf:resource="http://creativecommons.org/licenses/GPL/2.0/" />
        <dc:title>Weather - Severe Alert</dc:title>
        <dc:creator>
          <cc:Agent>
            <dc:title>Lapo Calamandrei</dc:title>
          </cc:Agent>
        </dc:creator>
        <dc:contributor>
          <cc:Agent>
            <dc:title>Jakub Steiner</dc:title>
          </cc:Agent>
        </dc:contributor>
      </cc:Work>
      <cc:License
         rdf:about="http://creativecommons.org/licenses/GPL/2.0/">
        <cc:permits
           rdf:resource="http://web.resource.org/cc/Reproduction" />
        <cc:permits
           rdf:resource="http://web.resource.org/cc/Distribution" />
        <cc:requires
           rdf:resource="http://web.resource.org/cc/Notice" />
        <cc:permits
           rdf:resource="http://web.resource.org/cc/DerivativeWorks" />
        <cc:requires
           rdf:resource="http://web.resource.org/cc/ShareAlike" />
        <cc:requires
           rdf:resource="http://web.resource.org/cc/SourceCode" />
      </cc:License>
    </rdf:RDF>
  </metadata>
  <g
     id="layer1"
     inkscape:label="Layer 1"
     inkscape:groupmode="layer">
    <path
       sodipodi:type="arc"
       style="opacity:0.6;fill:white;fill-opacity:1;stroke:black;stroke-width:0.90909094;stroke-linecap:round;stroke-linejoin:round;stroke-miterlimit:4;stroke-dasharray:none;stroke-opacity:1"
       id="path1881"
       sodipodi:cx="8.5"
       sodipodi:cy="11.5"
       sodipodi:rx="2.5"
       sodipodi:ry="2.5"
       d="M 11 11.5 A 2.5 2.5 0 1 1  6,11.5 A 2.5 2.5 0 1 1  11 11.5 z"
       transform="matrix(1.1,0,0,1.1,-1.1,18.1)" />
    <path
       sodipodi:type="arc"
       style="opacity:0.6;fill:white;fill-opacity:1;stroke:black;stroke-width:1.25;stroke-linecap:round;stroke-linejoin:round;stroke-miterlimit:4;stroke-dasharray:none;stroke-opacity:1"
       id="path2768"
       sodipodi:cx="8.5"
       sodipodi:cy="11.5"
       sodipodi:rx="2.5"
       sodipodi:ry="2.5"
       d="M 11 11.5 A 2.5 2.5 0 1 1  6,11.5 A 2.5 2.5 0 1 1  11 11.5 z"
       transform="matrix(0.8,0,0,0.8,4.7,21.3)" />
    <path
       sodipodi:type="arc"
       style="opacity:0.6;fill:white;fill-opacity:1;stroke:black;stroke-width:1.66666663;stroke-linecap:round;stroke-linejoin:round;stroke-miterlimit:4;stroke-dasharray:none;stroke-opacity:1"
       id="path2770"
       sodipodi:cx="8.5"
       sodipodi:cy="11.5"
       sodipodi:rx="2.5"
       sodipodi:ry="2.5"
       d="M 11 11.5 A 2.5 2.5 0 1 1  6,11.5 A 2.5 2.5 0 1 1  11 11.5 z"
       transform="matrix(0.6,0,0,0.6,8.9,23.1)" />
    <path
       sodipodi:type="arc"
       style="opacity:0.6;fill:white;fill-opacity:1;stroke:black;stroke-width:1.66666663;stroke-linecap:round;stroke-linejoin:round;stroke-miterlimit:4;stroke-dasharray:none;stroke-opacity:1"
       id="path2774"
       sodipodi:cx="8.5"
       sodipodi:cy="11.5"
       sodipodi:rx="2.5"
       sodipodi:ry="2.5"
       d="M 11 11.5 A 2.5 2.5 0 1 1  6,11.5 A 2.5 2.5 0 1 1  11 11.5 z"
       transform="matrix(0.6,0,0,0.6,-3.1,23.1)" />
    <path
       sodipodi:type="arc"
       style="opacity:0.6;fill:white;fill-opacity:1;stroke:black;stroke-width:1.25;stroke-linecap:round;stroke-linejoin:round;stroke-miterlimit:4;stroke-dasharray:none;stroke-opacity:1"
       id="path2776"
       sodipodi:cx="8.5"
       sodipodi:cy="11.5"
       sodipodi:rx="2.5"
       sodipodi:ry="2.5"
       d="M 11 11.5 A 2.5 2.5 0 1 1  6,11.5 A 2.5 2.5 0 1 1  11 11.5 z"
       transform="matrix(0.8,0,0,0.8,-1.8,21.3)" />
    <path
       sodipodi:type="arc"
       style="opacity:0.6;fill:white;fill-opacity:1;stroke:black;stroke-width:0.83333331;stroke-linecap:round;stroke-linejoin:round;stroke-miterlimit:4;stroke-dasharray:none;stroke-opacity:1"
       id="path2778"
       sodipodi:cx="8.5"
       sodipodi:cy="11.5"
       sodipodi:rx="2.5"
       sodipodi:ry="2.5"
       d="M 11 11.5 A 2.5 2.5 0 1 1  6,11.5 A 2.5 2.5 0 1 1  11 11.5 z"
       transform="matrix(1.2,0,0,1.2,-1.7,13.2)" />
    <path
       sodipodi:type="arc"
       style="opacity:0.6;fill:white;fill-opacity:1;stroke:black;stroke-width:1.66666663;stroke-linecap:round;stroke-linejoin:round;stroke-miterlimit:4;stroke-dasharray:none;stroke-opacity:1"
       id="path2780"
       sodipodi:cx="8.5"
       sodipodi:cy="11.5"
       sodipodi:rx="2.5"
       sodipodi:ry="2.5"
       d="M 11 11.5 A 2.5 2.5 0 1 1  6,11.5 A 2.5 2.5 0 1 1  11 11.5 z"
       transform="matrix(0.6,0,0,0.6,3.9,16.1)" />
    <path
       sodipodi:type="arc"
       style="opacity:0.6;fill:white;fill-opacity:1;stroke:black;stroke-width:1;stroke-linecap:round;stroke-linejoin:round;stroke-miterlimit:4;stroke-dasharray:none;stroke-opacity:1"
       id="path2782"
       sodipodi:cx="8.5"
       sodipodi:cy="11.5"
       sodipodi:rx="2.5"
       sodipodi:ry="2.5"
       d="M 11 11.5 A 2.5 2.5 0 1 1  6,11.5 A 2.5 2.5 0 1 1  11 11.5 z"
       transform="translate(2.5,16.5)" />
    <path
       sodipodi:type="arc"
       style="opacity:0.6;fill:white;fill-opacity:1;stroke:black;stroke-width:1.42857146;stroke-linecap:round;stroke-linejoin:round;stroke-miterlimit:4;stroke-dasharray:none;stroke-opacity:1"
       id="path2784"
       sodipodi:cx="8.5"
       sodipodi:cy="11.5"
       sodipodi:rx="2.5"
       sodipodi:ry="2.5"
       d="M 11 11.5 A 2.5 2.5 0 1 1  6,11.5 A 2.5 2.5 0 1 1  11 11.5 z"
       transform="matrix(0.7,0,0,0.7,-1.45,20.45)" />
    <path
       sodipodi:type="arc"
       style="opacity:0.6;fill:white;fill-opacity:1;stroke:black;stroke-width:1.66666663;stroke-linecap:round;stroke-linejoin:round;stroke-miterlimit:4;stroke-dasharray:none;stroke-opacity:1"
       id="path2786"
       sodipodi:cx="8.5"
       sodipodi:cy="11.5"
       sodipodi:rx="2.5"
       sodipodi:ry="2.5"
       d="M 11 11.5 A 2.5 2.5 0 1 1  6,11.5 A 2.5 2.5 0 1 1  11 11.5 z"
       transform="matrix(0.6,0,0,0.6,-0.1,19.1)" />
    <path
       style="opacity:1;fill:url(#radialGradient3824);fill-opacity:1;stroke:#555753;stroke-width:1;stroke-linecap:round;stroke-linejoin:round;stroke-miterlimit:4;stroke-dasharray:none;stroke-opacity:1"
       d="M 9,0.5 C 8.172,0.5 7.5,1.172 7.5,2 C 7.5,2.414 7.666,2.791 7.9375,3.0625 C 7.241488,3.197487 6.621947,3.567394 6.1875,4.09375 C 5.91332,3.735262 5.485841,3.5 5,3.5 C 4.172,3.5 3.5,4.172 3.5,5 C 3.5,5.326329 3.604077,5.628722 3.78125,5.875 C 3.166046,6.146352 2.75,6.784788 2.75,7.5 C 2.75,7.577201 2.771543,7.644181 2.78125,7.71875 C 2.554452,7.580897 2.284625,7.5 2,7.5 C 1.172,7.5 0.5,8.172 0.5,9 C 0.5,9.828 1.172,10.5 2,10.5 C 2.414,10.5 2.791,10.334 3.0625,10.0625 C 3.303837,10.895857 4.0892,11.5 5,11.5 C 5.340166,11.5 5.656955,11.400004 5.9375,11.25 C 6.428582,12.001222 7.286149,12.5 8.25,12.5 C 9.213851,12.5 10.071418,12.001222 10.5625,11.25 C 10.843045,11.400004 11.159834,11.5 11.5,11.5 C 12.303389,11.5 12.994537,11.027587 13.3125,10.34375 C 13.515724,10.446643 13.756775,10.5 14,10.5 C 14.828,10.5 15.5,9.828 15.5,9 C 15.5,8.172 14.828,7.5 14,7.5 C 13.793,7.5 13.585688,7.549062 13.40625,7.625 C 13.458903,7.423109 13.5,7.218309 13.5,7 C 13.5,5.651846 12.429733,4.550052 11.09375,4.5 C 10.784569,3.966826 10.312694,3.541389 9.75,3.28125 C 10.196746,3.021386 10.5,2.553725 10.5,2 C 10.5,1.172 9.828,0.5 9,0.5 z "
       id="path3797" />
    <path
       sodipodi:type="inkscape:offset"
       inkscape:radius="-0.99332315"
       inkscape:original="M 44 38.5 C 43.172 38.5 42.5 39.172 42.5 40 C 42.5 40.414 42.666 40.791 42.9375 41.0625 C 42.241488 41.197487 41.621947 41.567394 41.1875 42.09375 C 40.91332 41.735262 40.485841 41.5 40 41.5 C 39.172 41.5 38.5 42.172 38.5 43 C 38.5 43.326329 38.604077 43.628722 38.78125 43.875 C 38.166046 44.146352 37.75 44.784788 37.75 45.5 C 37.75 45.577201 37.771543 45.644181 37.78125 45.71875 C 37.554452 45.580897 37.284625 45.5 37 45.5 C 36.172 45.5 35.5 46.172 35.5 47 C 35.5 47.828 36.172 48.5 37 48.5 C 37.414 48.5 37.791 48.334 38.0625 48.0625 C 38.303837 48.895857 39.0892 49.5 40 49.5 C 40.340166 49.5 40.656955 49.400004 40.9375 49.25 C 41.428582 50.001222 42.286149 50.5 43.25 50.5 C 44.213851 50.5 45.071418 50.001222 45.5625 49.25 C 45.843045 49.400004 46.159834 49.5 46.5 49.5 C 47.303389 49.5 47.994537 49.027587 48.3125 48.34375 C 48.515724 48.446643 48.756775 48.5 49 48.5 C 49.828 48.5 50.5 47.828 50.5 47 C 50.5 46.172 49.828 45.5 49 45.5 C 48.793 45.5 48.585688 45.549062 48.40625 45.625 C 48.458903 45.423109 48.5 45.218309 48.5 45 C 48.5 43.651846 47.429733 42.550052 46.09375 42.5 C 45.784569 41.966826 45.312694 41.541389 44.75 41.28125 C 45.196746 41.021386 45.5 40.553725 45.5 40 C 45.5 39.172 44.828 38.5 44 38.5 z "
       style="opacity:1;fill:none;fill-opacity:1;stroke:#babdb6;stroke-width:1;stroke-linecap:round;stroke-linejoin:round;stroke-miterlimit:4;stroke-dasharray:none;stroke-opacity:1"
       id="path3828"
       d="M 44,39.5 C 43.70945,39.5 43.5,39.70945 43.5,40 C 43.5,40.148474 43.535456,40.285456 43.625,40.375 C 43.740091,40.488103 43.825897,40.627539 43.875,40.78125 C 43.968046,40.636061 44.097283,40.517594 44.25,40.4375 C 44.417897,40.339837 44.5,40.191055 44.5,40 C 44.5,39.70945 44.29055,39.5 44,39.5 z M 43.8125,41.5625 C 43.662964,41.811822 43.411717,41.983127 43.125,42.03125 C 42.653809,42.122635 42.253517,42.37374 41.96875,42.71875 C 41.775663,42.954835 41.484831,43.089143 41.179902,43.083045 C 40.874972,43.076946 40.589743,42.931117 40.40625,42.6875 C 40.307343,42.55818 40.165172,42.5 40,42.5 C 39.70945,42.5 39.5,42.70945 39.5,43 C 39.5,43.115127 39.533985,43.198174 39.59375,43.28125 C 39.772861,43.525035 39.831133,43.837147 39.752053,44.129137 C 39.672972,44.421126 39.465157,44.661173 39.1875,44.78125 C 38.94737,44.887166 38.75,45.170005 38.75,45.5 C 38.75,45.392409 38.757087,45.408132 38.78125,45.59375 C 38.836338,45.980822 38.659266,46.364213 38.328863,46.573243 C 37.99846,46.782274 37.576175,46.778069 37.25,46.5625 C 37.174626,46.516686 37.096408,46.5 37,46.5 C 36.70945,46.5 36.5,46.70945 36.5,47 C 36.5,47.29055 36.70945,47.5 37,47.5 C 37.148474,47.5 37.285456,47.464544 37.375,47.375 C 37.620649,47.12636 37.978889,47.025106 38.318348,47.10837 C 38.657807,47.191633 38.928534,47.447162 39.03125,47.78125 C 39.148102,48.184751 39.528454,48.5 40,48.5 C 40.1455,48.5 40.300528,48.464946 40.46875,48.375 C 40.928556,48.126463 41.502304,48.27673 41.78125,48.71875 C 42.092719,49.195213 42.628835,49.5 43.25,49.5 C 43.871165,49.5 44.407281,49.195213 44.71875,48.71875 C 44.997696,48.27673 45.571444,48.126463 46.03125,48.375 C 46.199472,48.464946 46.3545,48.5 46.5,48.5 C 46.91399,48.5 47.246571,48.280918 47.40625,47.9375 C 47.519587,47.694671 47.72622,47.507929 47.979243,47.419665 C 48.232267,47.331401 48.510217,47.349102 48.75,47.46875 C 48.794281,47.491169 48.902047,47.5 49,47.5 C 49.29055,47.5 49.5,47.29055 49.5,47 C 49.5,46.70945 49.29055,46.5 49,46.5 C 48.949955,46.5 48.849218,46.502486 48.78125,46.53125 C 48.435086,46.674244 48.037922,46.610392 47.75402,46.366105 C 47.470118,46.121817 47.34774,45.73862 47.4375,45.375 C 47.480609,45.209705 47.5,45.093646 47.5,45 C 47.5,44.177563 46.873331,43.530377 46.0625,43.5 C 45.724123,43.482793 45.417848,43.294316 45.25,43 C 45.045808,42.647876 44.724008,42.363297 44.34375,42.1875 C 44.084907,42.065415 43.89129,41.83763 43.8125,41.5625 z "
       transform="translate(-35,-38)" />
    <path
       inkscape:r_cy="true"
       inkscape:r_cx="true"
       id="path6485"
       d="M 15.423522,14.570398 L 11.087971,6.8465215 C 10.963354,6.6319693 10.737863,6.512773 10.486736,6.512773 C 10.235607,6.512773 10.00896,6.6558068 9.8824495,6.87036 L 5.5791847,14.594239 C 5.4778916,14.784951 5.4767345,15.047182 5.6014573,15.237895 C 5.7261796,15.428607 5.9266618,15.523963 6.1777903,15.523963 L 14.816605,15.523963 C 15.067734,15.523963 15.294276,15.404769 15.395569,15.214055 C 15.521973,15.023342 15.523027,14.784951 15.423522,14.570398 z "
       style="fill:url(#linearGradient2941);fill-opacity:1.0;fill-rule:nonzero;stroke:#ce5c00;stroke-width:1.00000167;stroke-miterlimit:4;stroke-dasharray:none;stroke-opacity:1" />
    <path
       style="fill:#fcaf3e;fill-rule:nonzero;stroke:none;stroke-miterlimit:4"
       d="M 7.7570112,13.839131 C 7.7002775,13.928502 7.7562927,14 7.8501842,14 L 13.145662,14 C 13.239555,14 13.296209,13.928502 13.240274,13.839131 L 10.57621,9.0845561 C 10.520274,8.9951848 10.445162,8.9951848 10.407206,9.0845561 L 7.7570112,13.839131 z "
       id="path6496"
       inkscape:r_cx="true"
       inkscape:r_cy="true" />
    <rect
       ry="0"
       rx="0"
       y="12.999998"
       x="9.9999981"
       height="1.0000019"
       width="0.99999976"
       id="rect1906"
       style="fill:black;fill-opacity:1;stroke:none;stroke-width:1;stroke-linecap:square;stroke-linejoin:round;stroke-miterlimit:4;stroke-dasharray:none;stroke-dashoffset:1.20000057;stroke-opacity:1" />
    <rect
       ry="0"
       rx="0"
       y="10"
       x="9.9999981"
       height="2"
       width="0.99999976"
       id="rect2925"
       style="fill:black;fill-opacity:1;stroke:none;stroke-width:1;stroke-linecap:square;stroke-linejoin:round;stroke-miterlimit:4;stroke-dasharray:none;stroke-dashoffset:1.20000057;stroke-opacity:1" />
  </g>
</svg>
