<?xml version="1.0" encoding="UTF-8" standalone="no"?>
<!-- Created with Inkscape (http://www.inkscape.org/) -->
<svg
   xmlns:dc="http://purl.org/dc/elements/1.1/"
   xmlns:cc="http://web.resource.org/cc/"
   xmlns:rdf="http://www.w3.org/1999/02/22-rdf-syntax-ns#"
   xmlns:svg="http://www.w3.org/2000/svg"
   xmlns="http://www.w3.org/2000/svg"
   xmlns:xlink="http://www.w3.org/1999/xlink"
   xmlns:sodipodi="http://inkscape.sourceforge.net/DTD/sodipodi-0.dtd"
   xmlns:inkscape="http://www.inkscape.org/namespaces/inkscape"
   sodipodi:docname="emblem-favorite.svg"
   sodipodi:docbase="/home/jimmac/src/cvs/gnome/gnome-icon-theme/scalable/emblems"
   inkscape:version="0.40+cvs"
   sodipodi:version="0.32"
   id="svg12"
   height="32px"
   width="32px">
  <defs
     id="defs3">
    <linearGradient
       id="linearGradient16">
      <stop
         id="stop17"
         offset="0.0000000"
         style="stop-color:#f5a108;stop-opacity:0.0000000;" />
      <stop
         id="stop18"
         offset="1.0000000"
         style="stop-color:#fefdc3;stop-opacity:0.74251497;" />
    </linearGradient>
    <linearGradient
       gradientUnits="userSpaceOnUse"
       gradientTransform="matrix(1.100105,0.000000,0.000000,0.590412,3.310422,2.233522)"
       y2="6.1003184"
       x2="6.3578372"
       y1="20.415981"
       x1="11.464835"
       id="linearGradient1697"
       xlink:href="#linearGradient6621"
       inkscape:collect="always" />
    <linearGradient
       id="linearGradient13">
      <stop
         id="stop14"
         offset="0.0000000"
         style="stop-color:#f5a108;stop-opacity:0.0000000;" />
      <stop
         id="stop15"
         offset="1.0000000"
         style="stop-color:#fefdc3;stop-opacity:0.74251497;" />
    </linearGradient>
    <linearGradient
       y2="31.452499"
       x2="11.413211"
       y1="34.807064"
       x1="18.711395"
       gradientTransform="matrix(1.182239,0.000000,0.000000,0.634492,2.387125,1.522379)"
       gradientUnits="userSpaceOnUse"
       id="linearGradient121"
       xlink:href="#linearGradient6621"
       inkscape:collect="always" />
    <linearGradient
       id="linearGradient6621">
      <stop
         id="stop6622"
         offset="0.0000000"
         style="stop-color:#f5a108;stop-opacity:0.0000000;" />
      <stop
         id="stop6623"
         offset="1.0000000"
         style="stop-color:#fefdc3;stop-opacity:0.74251497;" />
    </linearGradient>
    <linearGradient
       gradientUnits="userSpaceOnUse"
       gradientTransform="matrix(0.576073,0.000000,0.000000,0.296451,3.666098,4.430930)"
       y2="12.239423"
       x2="12.849945"
       y1="28.829223"
       x1="22.819514"
       id="linearGradient7881"
       xlink:href="#linearGradient6621"
       inkscape:collect="always" />
  </defs>
  <sodipodi:namedview
     inkscape:window-y="412"
     inkscape:window-x="9"
     inkscape:window-height="555"
     inkscape:window-width="677"
     inkscape:document-units="px"
     inkscape:grid-bbox="true"
     showgrid="true"
     inkscape:current-layer="layer1"
     inkscape:cy="16.250334"
     inkscape:cx="18.876985"
     inkscape:zoom="11.197802"
     inkscape:pageshadow="2"
     inkscape:pageopacity="0.0"
     borderopacity="1.0"
     bordercolor="#666666"
     pagecolor="#ffffff"
     id="base" />
  <metadata
     id="metadata4">
    <rdf:RDF
       id="RDF5">
      <cc:Work
         id="Work6"
         rdf:about="">
        <dc:format
           id="format7">image/svg+xml</dc:format>
        <dc:type
           rdf:resource="http://purl.org/dc/dcmitype/StillImage"
           id="type9" />
        <dc:title
           id="title29">Favorite Emblem</dc:title>
        <dc:date
           id="date30">2005-02-01</dc:date>
        <dc:creator
           id="creator31">
          <cc:Agent
             id="Agent32">
            <dc:title
               id="title33">Jakub Steiner</dc:title>
          </cc:Agent>
        </dc:creator>
        <dc:source
           id="source34">http://jimmac.musichall.cz/</dc:source>
        <dc:contributor
           id="contributor35">
          <cc:Agent
             id="Agent36">
            <dc:title
               id="title37">Andreas Nilsson &lt;nisses.mail@home.se&gt;</dc:title>
          </cc:Agent>
        </dc:contributor>
        <dc:subject
           id="subject38">
          <rdf:Bag
             id="Bag39">
            <rdf:li
               id="li126">heart</rdf:li>
            <rdf:li
               id="li127">favorite</rdf:li>
            <rdf:li
               id="li128">best</rdf:li>
          </rdf:Bag>
        </dc:subject>
      </cc:Work>
    </rdf:RDF>
  </metadata>
  <g
     inkscape:groupmode="layer"
     inkscape:label="Layer 1"
     id="layer1">
    <path
       sodipodi:nodetypes="cccccccccccccccc"
       id="path1541"
       d="M 21.343055,6.0004747 C 19.859646,5.9820872 18.243686,6.4968679 16.603575,7.7309664 C 12.808100,5.2531412 9.6069405,5.7796211 7.5636934,7.4726835 C 5.4778591,9.2010353 4.5098148,12.005109 5.0454413,13.968483 L 5.0583553,13.968483 C 5.6622588,16.113625 6.7324436,17.269927 8.4935096,18.914590 C 10.254577,20.559255 12.738423,22.750507 16.319464,27.127968 L 16.603575,27.463734 L 16.900599,27.140881 C 20.277660,23.561201 22.933755,21.397142 24.868609,19.560297 C 26.791444,17.734860 28.026059,16.188981 28.445818,13.968483 C 28.448443,13.954606 28.456172,13.943674 28.458733,13.929742 L 28.445818,13.929742 C 28.705409,12.951994 28.499005,11.783703 27.967996,10.636643 C 27.430495,9.4755589 26.554374,8.3399923 25.423916,7.4726835 C 24.293456,6.6053759 22.893620,6.0196933 21.343055,6.0004747 z "
       style="fill:#000000;fill-opacity:0.098039217;fill-rule:evenodd;stroke:none;stroke-width:1.8750000;stroke-linecap:butt;stroke-linejoin:miter;stroke-miterlimit:4.0000000;stroke-opacity:1.0000000" />
    <path
       sodipodi:nodetypes="cccccccccccccccc"
       id="path1540"
       d="M 21.012251,5.8223495 C 19.528843,5.8039634 17.912883,6.3187440 16.272771,7.5528413 C 12.477299,5.0750161 9.2761370,5.6014960 7.2328912,7.2945584 C 5.1470569,9.0229114 4.1790127,11.826984 4.7146379,13.790360 L 4.7275519,13.790360 C 5.3314565,15.935500 6.4016414,17.091803 8.1627062,18.736466 C 9.9237731,20.381131 12.407620,22.572382 15.988660,26.949844 L 16.272771,27.285610 L 16.569795,26.962758 C 19.946857,23.383075 22.602952,21.219019 24.537806,19.382171 C 26.460641,17.556735 27.695256,16.010856 28.115015,13.790360 C 28.117639,13.776480 28.125370,13.765550 28.127929,13.751618 L 28.115015,13.751618 C 28.374605,12.773869 28.168203,11.605579 27.637193,10.458518 C 27.099693,9.2974339 26.223571,8.1618672 25.093113,7.2945584 C 23.962653,6.4272509 22.562816,5.8415682 21.012251,5.8223495 z "
       style="fill:#000000;fill-opacity:0.098039217;fill-rule:evenodd;stroke:none;stroke-width:1.8750000;stroke-linecap:butt;stroke-linejoin:miter;stroke-miterlimit:4.0000000;stroke-opacity:1.0000000" />
    <path
       sodipodi:nodetypes="cccccccccccccccc"
       id="path1539"
       d="M 20.706895,5.6187789 C 19.223486,5.6003927 17.607526,6.1151734 15.967415,7.3492706 C 12.171942,4.8714454 8.9707804,5.3979253 6.9275346,7.0909877 C 4.8417002,8.8193395 3.8736548,11.623414 4.4092813,13.586789 L 4.4221953,13.586789 C 5.0260999,15.731929 6.0962835,16.888230 7.8573496,18.532896 C 9.6184165,20.177559 12.102263,22.368811 15.683303,26.746274 L 15.967415,27.082040 L 16.264440,26.759187 C 19.641500,23.179505 22.297596,21.015446 24.232449,19.178601 C 26.155284,17.353164 27.389899,15.807285 27.809658,13.586789 C 27.812282,13.572910 27.820013,13.561978 27.822573,13.548046 L 27.809658,13.548046 C 28.069249,12.570299 27.862846,11.402007 27.331836,10.254947 C 26.794336,9.0938636 25.918214,7.9582965 24.787756,7.0909877 C 23.657296,6.2236801 22.257460,5.6379975 20.706895,5.6187789 z "
       style="fill:#000000;fill-opacity:0.098039217;fill-rule:evenodd;stroke:none;stroke-width:1.8750000;stroke-linecap:butt;stroke-linejoin:miter;stroke-miterlimit:4.0000000;stroke-opacity:1.0000000" />
    <path
       sodipodi:nodetypes="cccccccccccccccc"
       id="path916"
       d="M 20.442971,5.4685013 C 18.959561,5.4501139 17.343601,5.9648946 15.703490,7.1989931 C 11.908016,4.7211679 8.7068560,5.2476477 6.6636089,6.9407102 C 4.5777746,8.6690618 3.6097304,11.473135 4.1453556,13.436510 L 4.1582709,13.436510 C 4.7621743,15.581650 5.8323591,16.737953 7.5934252,18.382617 C 9.3544908,20.027282 11.838338,22.218534 15.419379,26.595995 L 15.703490,26.931761 L 16.000515,26.608908 C 19.377576,23.029227 22.033670,20.865169 23.968524,19.028322 C 25.891360,17.202886 27.125975,15.657008 27.545734,13.436510 C 27.548356,13.422632 27.556088,13.411700 27.558648,13.397769 L 27.545734,13.397769 C 27.805324,12.420021 27.598921,11.251730 27.067912,10.104669 C 26.530410,8.9435847 25.654290,7.8080189 24.523830,6.9407102 C 23.393372,6.0734014 21.993535,5.4877200 20.442971,5.4685013 z "
       style="fill:#000000;fill-opacity:0.098039217;fill-rule:evenodd;stroke:none;stroke-width:1.8750000;stroke-linecap:butt;stroke-linejoin:miter;stroke-miterlimit:4.0000000;stroke-opacity:1.0000000" />
    <path
       sodipodi:nodetypes="cccc"
       id="path5378"
       d="M 14.936583,24.055092 C 14.971607,24.002597 15.542947,24.731424 15.542947,24.731424 C 18.048080,22.005704 24.442114,16.912828 26.186376,12.665365 C 22.658963,16.577587 16.895606,22.871514 14.936583,24.055092 z "
       style="fill:#d4572d;fill-opacity:1.0000000;fill-rule:evenodd;stroke:none;stroke-width:1.0000000pt;stroke-linecap:butt;stroke-linejoin:miter;stroke-opacity:1.0000000" />
    <path
       sodipodi:nodetypes="ccccccccc"
       id="path7876"
       d="M 10.619689,6.5203402 C 7.7007623,6.3766657 6.3409179,8.2517822 5.6053475,10.035561 C 4.8753861,12.384564 5.9072441,16.821278 10.963837,16.483752 C 13.848092,16.483752 14.994481,13.525911 16.512449,12.758072 C 17.891998,12.236456 18.000574,12.189771 19.458089,12.189771 C 21.483581,12.189771 25.146443,10.723910 25.146444,9.2694339 C 24.523855,8.1023057 22.870965,6.0238304 19.833674,6.3780823 C 17.900315,6.6030993 16.071242,7.9850797 15.593462,8.6727576 C 14.423061,7.6404509 12.928637,6.5203402 10.619689,6.5203402 z "
       style="fill:url(#linearGradient7881);fill-opacity:1.0000000;fill-rule:evenodd;stroke:none;stroke-width:1.0000000pt;stroke-linecap:butt;stroke-linejoin:miter;stroke-opacity:1.0000000" />
    <path
       sodipodi:nodetypes="cccccccccccccccc"
       id="path917"
       d="M 21.560653,5.9887279 C 20.079824,5.9703730 18.466676,6.4842586 16.829419,7.7162083 C 13.040549,5.2426945 9.8449579,5.7682591 7.8052675,7.4583754 C 5.7230626,9.1837210 4.7567020,11.982914 5.2913970,13.942874 L 5.3042884,13.942874 C 5.9071413,16.084282 6.9754633,17.238572 8.7334649,18.880374 C 10.491467,20.522176 12.970991,22.709615 16.545802,27.079460 L 16.829419,27.414642 L 17.125926,27.092351 C 20.497111,23.518900 23.148585,21.358606 25.080071,19.524957 C 26.999560,17.702696 28.232028,16.159507 28.651056,13.942874 C 28.653675,13.929020 28.661393,13.918107 28.663948,13.904198 L 28.651056,13.904198 C 28.910195,12.928152 28.704151,11.761894 28.174066,10.616828 C 27.637501,9.4577659 26.762905,8.3241748 25.634412,7.4583754 C 24.505921,6.5925761 23.108519,6.0079139 21.560653,5.9887279 z "
       style="fill:#000000;fill-opacity:0.098039217;fill-rule:evenodd;stroke:none;stroke-width:1.8750000;stroke-linecap:butt;stroke-linejoin:miter;stroke-miterlimit:4.0000000;stroke-opacity:1.0000000" />
    <path
       sodipodi:nodetypes="cccccccccccccccc"
       id="path918"
       d="M 21.255827,5.7855120 C 19.774999,5.7671572 18.161851,6.2810414 16.524594,7.5129924 C 12.735723,5.0394786 9.5401329,5.5650420 7.5004424,7.2551596 C 5.4182374,8.9805038 4.4518769,11.779699 4.9865720,13.739657 L 4.9994634,13.739657 C 5.6023162,15.881065 6.6706382,17.035354 8.4286402,18.677157 C 10.186642,20.318959 12.666166,22.506398 16.240977,26.876244 L 16.524594,27.211427 L 16.821101,26.889135 C 20.192286,23.315682 22.843758,21.155390 24.775245,19.321739 C 26.694735,17.499477 27.927203,15.956290 28.346231,13.739657 C 28.348850,13.725802 28.356568,13.714890 28.359123,13.700983 L 28.346231,13.700983 C 28.605370,12.724935 28.399326,11.558678 27.869240,10.413612 C 27.332674,9.2545503 26.458079,8.1209590 25.329587,7.2551596 C 24.201094,6.3893602 22.803693,5.8046968 21.255827,5.7855120 z "
       style="fill:#000000;fill-opacity:0.098039217;fill-rule:evenodd;stroke:none;stroke-width:1.8750000;stroke-linecap:butt;stroke-linejoin:miter;stroke-miterlimit:4.0000000;stroke-opacity:1.0000000" />
    <path
       sodipodi:nodetypes="cccccccccccccccc"
       id="path919"
       d="M 20.992361,5.6354952 C 19.511533,5.6171403 17.898385,6.1310247 16.261127,7.3629756 C 12.472257,4.8894618 9.2766660,5.4150252 7.2369756,7.1051428 C 5.1547719,8.8304870 4.1884114,11.629682 4.7231052,13.589640 L 4.7359965,13.589640 C 5.3388507,15.731049 6.4071726,16.885339 8.1651734,18.527141 C 9.9231751,20.168943 12.402700,22.356382 15.977512,26.726227 L 16.261127,27.061409 L 16.557635,26.739119 C 19.928819,23.165664 22.580293,21.005374 24.511780,19.171722 C 26.431270,17.349462 27.663736,15.806274 28.082766,13.589640 C 28.085385,13.575786 28.093103,13.564874 28.095658,13.550965 L 28.082766,13.550965 C 28.341905,12.574919 28.135860,11.408660 27.605774,10.263596 C 27.069209,9.1045322 26.194611,7.9709421 25.066121,7.1051428 C 23.937629,6.2393434 22.540227,5.6546813 20.992361,5.6354952 z "
       style="fill:#000000;fill-opacity:0.098039217;fill-rule:evenodd;stroke:none;stroke-width:1.8750000;stroke-linecap:butt;stroke-linejoin:miter;stroke-miterlimit:4.0000000;stroke-opacity:1.0000000" />
    <path
       sodipodi:nodetypes="czczc"
       id="path920"
       d="M 15.948208,7.4442748 C 20.999158,2.3933234 27.940348,7.0488064 27.894690,11.838996 C 27.852950,16.218062 24.515476,18.315251 16.130841,26.104300 C 7.3546526,18.858256 4.2624867,17.187291 4.3081450,11.991675 C 4.3538033,6.6134252 10.296047,2.5770235 15.948208,7.4442748 z "
       style="fill:#c71807;fill-opacity:1.0000000;fill-rule:evenodd;stroke:#640000;stroke-width:1.0000000;stroke-linecap:butt;stroke-linejoin:miter;stroke-miterlimit:4.0000000;stroke-opacity:1.0000000" />
    <path
       sodipodi:nodetypes="cccc"
       id="path921"
       d="M 15.301844,24.254317 C 15.336805,24.201912 16.100863,24.864899 16.100863,24.864899 C 24.412990,17.301130 26.534241,15.833067 26.725774,12.819837 C 25.399898,15.821264 23.714516,16.744880 15.301844,24.254317 z "
       style="color:#000000;fill:url(#linearGradient121);fill-opacity:1.0000000;fill-rule:evenodd;stroke:none;stroke-width:1.0000000pt;stroke-linecap:butt;stroke-linejoin:miter;stroke-miterlimit:4.0000000;stroke-dashoffset:0.0000000;stroke-opacity:1.0000000;marker:none;marker-start:none;marker-mid:none;marker-end:none;visibility:visible;display:inline;overflow:visible" />
    <path
       sodipodi:nodetypes="czzzczcz"
       id="path922"
       d="M 10.361979,6.5755183 C 7.2974087,6.6380183 5.6182795,9.8121589 5.6300664,11.816619 C 5.6411091,13.694373 5.6716097,14.421465 7.0647329,16.363461 C 8.4988108,18.362548 14.321678,15.175744 16.184765,13.187562 C 18.071571,11.174069 24.049778,11.593818 25.974296,9.5491189 C 24.936703,8.1820749 23.772286,6.4858607 20.900705,6.4858607 C 17.966624,6.4858607 16.776242,8.2711002 15.930616,9.0373481 C 14.972888,8.1077785 13.395299,6.5130183 10.361979,6.5755183 z "
       style="fill:url(#linearGradient1697);fill-opacity:1.0000000;fill-rule:evenodd;stroke:none;stroke-width:1.0000000pt;stroke-linecap:butt;stroke-linejoin:miter;stroke-opacity:1.0000000" />
  </g>
</svg>
