<?xml version="1.0" encoding="UTF-8" standalone="no"?>
<!-- Created with Inkscape (http://www.inkscape.org/) -->
<svg
   xmlns:dc="http://purl.org/dc/elements/1.1/"
   xmlns:cc="http://web.resource.org/cc/"
   xmlns:rdf="http://www.w3.org/1999/02/22-rdf-syntax-ns#"
   xmlns:svg="http://www.w3.org/2000/svg"
   xmlns="http://www.w3.org/2000/svg"
   xmlns:xlink="http://www.w3.org/1999/xlink"
   xmlns:sodipodi="http://inkscape.sourceforge.net/DTD/sodipodi-0.dtd"
   xmlns:inkscape="http://www.inkscape.org/namespaces/inkscape"
   width="32.000000px"
   height="32.000000px"
   id="svg53383"
   sodipodi:version="0.32"
   inkscape:version="0.41+cvs"
   sodipodi:docbase="/home/jimmac/src/cvs/gnome/gnome-icon-theme/scalable/emblems"
   sodipodi:docname="emblem-bin.svg">
  <defs
     id="defs3">
    <linearGradient
       id="linearGradient2300">
      <stop
         id="stop2302"
         offset="0.0000000"
         style="stop-color:#000000;stop-opacity:0.32673267;" />
      <stop
         id="stop2304"
         offset="1"
         style="stop-color:#000000;stop-opacity:0;" />
    </linearGradient>
    <linearGradient
       id="aigrd8"
       gradientUnits="userSpaceOnUse"
       x1="96.8467"
       y1="90.6968"
       x2="118.8869"
       y2="139.8039">
      <stop
         offset="0"
         style="stop-color:#184375"
         id="stop53353" />
      <stop
         offset="1"
         style="stop-color:#C8BDDC"
         id="stop53355" />
    </linearGradient>
    <linearGradient
       id="aigrd7"
       gradientUnits="userSpaceOnUse"
       x1="98.0522"
       y1="91.6992"
       x2="120.3076"
       y2="141.2859">
      <stop
         offset="0"
         style="stop-color:#184375"
         id="stop53346" />
      <stop
         offset="1"
         style="stop-color:#C8BDDC"
         id="stop53348" />
    </linearGradient>
    <linearGradient
       id="aigrd6"
       gradientUnits="userSpaceOnUse"
       x1="99.2588"
       y1="92.7021"
       x2="121.7294"
       y2="142.7683">
      <stop
         offset="0"
         style="stop-color:#184375"
         id="stop53339" />
      <stop
         offset="1"
         style="stop-color:#C8BDDC"
         id="stop53341" />
    </linearGradient>
    <linearGradient
       id="aigrd5"
       gradientUnits="userSpaceOnUse"
       x1="100.4648"
       y1="93.7056"
       x2="123.1506"
       y2="144.2512">
      <stop
         offset="0"
         style="stop-color:#184375"
         id="stop53332" />
      <stop
         offset="1"
         style="stop-color:#C8BDDC"
         id="stop53334" />
    </linearGradient>
    <linearGradient
       id="aigrd4"
       gradientUnits="userSpaceOnUse"
       x1="101.6704"
       y1="94.709"
       x2="124.5714"
       y2="145.7341">
      <stop
         offset="0"
         style="stop-color:#184375"
         id="stop53325" />
      <stop
         offset="1"
         style="stop-color:#C8BDDC"
         id="stop53327" />
    </linearGradient>
    <linearGradient
       id="aigrd3"
       gradientUnits="userSpaceOnUse"
       x1="102.8765"
       y1="95.7109"
       x2="125.9927"
       y2="147.2156">
      <stop
         offset="0"
         style="stop-color:#184375"
         id="stop53318" />
      <stop
         offset="1"
         style="stop-color:#C8BDDC"
         id="stop53320" />
    </linearGradient>
    <linearGradient
       id="aigrd2"
       gradientUnits="userSpaceOnUse"
       x1="104.083"
       y1="96.7153"
       x2="127.4143"
       y2="148.6991">
      <stop
         offset="0"
         style="stop-color:#184375"
         id="stop53311" />
      <stop
         offset="1"
         style="stop-color:#C8BDDC"
         id="stop53313" />
    </linearGradient>
    <linearGradient
       id="aigrd1"
       gradientUnits="userSpaceOnUse"
       x1="99.7773"
       y1="15.4238"
       x2="153.0005"
       y2="248.6311">
      <stop
         offset="0"
         style="stop-color:#184375"
         id="stop53300" />
      <stop
         offset="1"
         style="stop-color:#C8BDDC"
         id="stop53302" />
    </linearGradient>
    <linearGradient
       inkscape:collect="always"
       xlink:href="#aigrd1"
       id="linearGradient53497"
       gradientUnits="userSpaceOnUse"
       x1="99.7773"
       y1="15.4238"
       x2="153.0005"
       y2="248.6311" />
    <linearGradient
       inkscape:collect="always"
       xlink:href="#aigrd2"
       id="linearGradient53499"
       gradientUnits="userSpaceOnUse"
       x1="104.083"
       y1="96.7153"
       x2="127.4143"
       y2="148.6991" />
    <linearGradient
       inkscape:collect="always"
       xlink:href="#aigrd3"
       id="linearGradient53501"
       gradientUnits="userSpaceOnUse"
       x1="102.8765"
       y1="95.7109"
       x2="125.9927"
       y2="147.2156" />
    <linearGradient
       inkscape:collect="always"
       xlink:href="#aigrd4"
       id="linearGradient53503"
       gradientUnits="userSpaceOnUse"
       x1="101.6704"
       y1="94.709"
       x2="124.5714"
       y2="145.7341" />
    <linearGradient
       inkscape:collect="always"
       xlink:href="#aigrd5"
       id="linearGradient53505"
       gradientUnits="userSpaceOnUse"
       x1="100.4648"
       y1="93.7056"
       x2="123.1506"
       y2="144.2512" />
    <linearGradient
       inkscape:collect="always"
       xlink:href="#aigrd6"
       id="linearGradient53507"
       gradientUnits="userSpaceOnUse"
       x1="99.2588"
       y1="92.7021"
       x2="121.7294"
       y2="142.7683" />
    <linearGradient
       inkscape:collect="always"
       xlink:href="#aigrd7"
       id="linearGradient53509"
       gradientUnits="userSpaceOnUse"
       x1="98.0522"
       y1="91.6992"
       x2="120.3076"
       y2="141.2859" />
    <linearGradient
       inkscape:collect="always"
       xlink:href="#aigrd8"
       id="linearGradient53511"
       gradientUnits="userSpaceOnUse"
       x1="96.8467"
       y1="90.6968"
       x2="118.8869"
       y2="139.8039" />
    <linearGradient
       id="linearGradient53435"
       gradientUnits="userSpaceOnUse"
       x1="99.777298"
       y1="15.423800"
       x2="153.00050"
       y2="248.63110">
      <stop
         offset="0"
         style="stop-color:#184375"
         id="stop53437" />
      <stop
         offset="1"
         style="stop-color:#C8BDDC"
         id="stop53439" />
    </linearGradient>
    <linearGradient
       inkscape:collect="always"
       xlink:href="#aigrd1"
       id="linearGradient53551"
       gradientUnits="userSpaceOnUse"
       x1="99.7773"
       y1="15.4238"
       x2="153.0005"
       y2="248.6311"
       gradientTransform="matrix(0.145345,0.000000,0.000000,0.145345,-1.943964,-1.667737)" />
    <linearGradient
       inkscape:collect="always"
       xlink:href="#aigrd2"
       id="linearGradient53554"
       gradientUnits="userSpaceOnUse"
       x1="104.083"
       y1="96.7153"
       x2="127.4143"
       y2="148.6991" />
    <linearGradient
       inkscape:collect="always"
       xlink:href="#aigrd3"
       id="linearGradient53556"
       gradientUnits="userSpaceOnUse"
       x1="102.8765"
       y1="95.7109"
       x2="125.9927"
       y2="147.2156" />
    <linearGradient
       inkscape:collect="always"
       xlink:href="#aigrd4"
       id="linearGradient53558"
       gradientUnits="userSpaceOnUse"
       x1="101.6704"
       y1="94.709"
       x2="124.5714"
       y2="145.7341" />
    <linearGradient
       inkscape:collect="always"
       xlink:href="#aigrd5"
       id="linearGradient53560"
       gradientUnits="userSpaceOnUse"
       x1="100.4648"
       y1="93.7056"
       x2="123.1506"
       y2="144.2512" />
    <linearGradient
       inkscape:collect="always"
       xlink:href="#aigrd6"
       id="linearGradient53562"
       gradientUnits="userSpaceOnUse"
       x1="99.2588"
       y1="92.7021"
       x2="121.7294"
       y2="142.7683" />
    <linearGradient
       inkscape:collect="always"
       xlink:href="#aigrd7"
       id="linearGradient53564"
       gradientUnits="userSpaceOnUse"
       x1="98.0522"
       y1="91.6992"
       x2="120.3076"
       y2="141.2859" />
    <linearGradient
       inkscape:collect="always"
       xlink:href="#aigrd8"
       id="linearGradient53566"
       gradientUnits="userSpaceOnUse"
       x1="96.8467"
       y1="90.6968"
       x2="118.8869"
       y2="139.8039" />
  </defs>
  <sodipodi:namedview
     id="base"
     pagecolor="#ffffff"
     bordercolor="#666666"
     borderopacity="1.0"
     inkscape:pageopacity="0.0"
     inkscape:pageshadow="2"
     inkscape:zoom="5.6568542"
     inkscape:cx="29.985680"
     inkscape:cy="9.3777318"
     inkscape:current-layer="layer1"
     showgrid="false"
     inkscape:grid-bbox="true"
     inkscape:document-units="px"
     inkscape:window-width="716"
     inkscape:window-height="697"
     inkscape:window-x="414"
     inkscape:window-y="275" />
  <metadata
     id="metadata4">
    <rdf:RDF
       id="RDF5">
      <cc:Work
         rdf:about=""
         id="Work6">
        <dc:format
           id="format7">image/svg+xml</dc:format>
        <dc:type
           id="type9"
           rdf:resource="http://purl.org/dc/dcmitype/StillImage" />
        <dc:title
           id="title2310">Emblem Binary</dc:title>
        <dc:creator
           id="creator2312">
          <cc:Agent
             id="Agent2314">
            <dc:title
               id="title2316">Jakub Steiner</dc:title>
          </cc:Agent>
        </dc:creator>
        <dc:source
           id="source2318">http://jimmac.musichall.cz/</dc:source>
        <dc:subject
           id="subject2320">
          <rdf:Bag
             id="Bag2322">
            <rdf:li
               id="li2682">executable</rdf:li>
            <rdf:li
               id="li2684">program</rdf:li>
            <rdf:li
               id="li2686">binary</rdf:li>
            <rdf:li
               id="li2688">bin</rdf:li>
            <rdf:li
               id="li2690">script</rdf:li>
            <rdf:li
               id="li2692">shell</rdf:li>
          </rdf:Bag>
        </dc:subject>
        <cc:license
           rdf:resource="http://creativecommons.org/licenses/GPL/2.0/"
           id="license2694" />
      </cc:Work>
      <cc:License
         id="License2696"
         rdf:about="http://creativecommons.org/licenses/GPL/2.0/">
        <cc:permits
           id="permits2698"
           rdf:resource="http://web.resource.org/cc/Reproduction" />
        <cc:permits
           id="permits2700"
           rdf:resource="http://web.resource.org/cc/Distribution" />
        <cc:requires
           id="requires2702"
           rdf:resource="http://web.resource.org/cc/Notice" />
        <cc:permits
           id="permits2704"
           rdf:resource="http://web.resource.org/cc/DerivativeWorks" />
        <cc:requires
           id="requires2706"
           rdf:resource="http://web.resource.org/cc/ShareAlike" />
        <cc:requires
           id="requires2708"
           rdf:resource="http://web.resource.org/cc/SourceCode" />
      </cc:License>
    </rdf:RDF>
  </metadata>
  <g
     inkscape:label="shadow"
     id="layer2"
     inkscape:groupmode="layer" />
  <g
     id="layer1"
     inkscape:label="Layer 1"
     inkscape:groupmode="layer">
    <path
       id="path1800"
       d="M 16.256633,31.315514 L 1.8364788,16.895361 L 16.256633,2.4752047 L 30.676787,16.895361 L 16.256633,31.315514 L 16.256633,31.315514 z "
       style="opacity:0.28961745;fill:#000000;fill-opacity:1.0000000;fill-rule:nonzero;stroke:#000000;stroke-width:1.0000002;stroke-linecap:round;stroke-linejoin:round;stroke-miterlimit:4.0000000;stroke-opacity:1.0000000" />
    <path
       style="fill:url(#linearGradient53551);fill-rule:nonzero;stroke:#3f4561;stroke-width:1.0000002;stroke-linecap:round;stroke-linejoin:round;stroke-miterlimit:4.0000000;stroke-opacity:1.0000000"
       d="M 16.069133,30.378014 L 1.6489788,15.957861 L 16.069133,1.5377047 L 30.489287,15.957861 L 16.069133,30.378014 L 16.069133,30.378014 z "
       id="path53304" />
    <path
       sodipodi:nodetypes="ccccccc"
       style="opacity:0.72000003;fill:#ffffff;fill-rule:nonzero;stroke:none;stroke-miterlimit:4.0000000"
       d="M 29.988572,15.957863 L 16.069129,2.0384191 L 2.1496863,15.957863 L 2.7153699,16.410467 L 16.193292,3.0639931 L 29.988713,15.957863 L 29.988572,15.957863 z "
       id="path53359" />
    <path
       style="opacity:0.49999997;fill:#ffffff;fill-rule:nonzero;stroke:none;stroke-miterlimit:4.0000000"
       d="M 4.9447147,18.753033 L 5.4795329,18.011272 C 5.9406941,18.205726 6.4214978,18.362581 6.9180144,18.478327 L 6.9138058,19.620358 C 7.2235850,19.684334 7.5388355,19.733439 7.8582960,19.768373 L 8.2072184,18.680638 C 8.4563875,18.701262 8.7082239,18.712625 8.9628670,18.712625 C 9.2172272,18.712625 9.4692030,18.701401 9.7183730,18.680638 L 10.067297,19.768373 C 10.386897,19.733439 10.702007,19.684334 11.011786,19.620358 L 11.007438,18.478188 C 11.504094,18.362581 11.984757,18.205726 12.445918,18.011272 L 13.114020,18.937944 C 13.405420,18.806064 13.689244,18.660856 13.964931,18.503020 L 13.608011,17.418091 C 14.040553,17.155733 14.449383,16.858019 14.830153,16.528738 L 15.751494,17.203574 C 15.987335,16.988778 16.213076,16.763037 16.427732,16.527195 L 15.753037,15.605995 C 16.082458,15.225224 16.380172,14.816534 16.642528,14.383712 L 17.727458,14.740774 C 17.885294,14.464946 18.030643,14.180981 18.162243,13.889722 L 17.235712,13.221761 C 17.430166,12.760599 17.587019,12.279795 17.702906,11.783139 L 18.844796,11.787347 C 18.908772,11.477569 18.957878,11.162318 18.992670,10.842717 L 17.905076,10.493794 C 17.925981,10.244764 17.937065,9.9927880 17.937065,9.7382863 C 17.937065,9.4837852 17.925700,9.2319492 17.905076,8.9826381 L 18.992670,8.6337169 C 18.958017,8.3142565 18.908631,7.9991454 18.844937,7.6892268 L 17.702765,7.6935761 C 17.587019,7.1969188 17.430166,6.7161163 17.235852,6.2550944 L 18.162384,5.5871323 C 18.030784,5.2957318 17.885294,5.0119070 17.727740,4.7360798 L 16.642669,5.0931409 C 16.380312,4.6604593 16.082598,4.2517697 15.753317,3.8711402 L 16.428013,2.9497989 C 16.226404,2.7282676 16.014413,2.5166978 15.794004,2.3138253 L 2.1499665,15.958004 L 2.8792384,16.687276 L 3.0955799,16.528879 C 3.4763502,16.858158 3.8850397,17.155873 4.3177200,17.418231 L 4.1424868,17.950663 L 4.9449948,18.753172 L 4.9447147,18.753033 z "
       id="path53361" />
    <path
       style="opacity:0.49999997;fill:#ffffff;fill-rule:nonzero;stroke:none;stroke-miterlimit:4.0000000"
       d="M 19.084285,22.407529 C 19.084285,17.711034 22.150652,13.731466 26.389914,12.359346 L 24.777040,10.746332 C 24.764835,10.751383 24.752489,10.755732 24.740423,10.760923 L 24.608963,10.578534 L 23.586327,9.5558988 C 23.250873,9.7144370 22.922434,9.8850390 22.601852,10.068410 L 23.104542,11.595981 C 22.495225,11.965105 21.919860,12.384458 21.383920,12.848005 L 20.086718,11.898044 C 19.754493,12.200387 19.436857,12.518023 19.134653,12.850110 L 20.084475,14.147169 C 19.620928,14.683252 19.201716,15.258615 18.832450,15.867791 L 17.304739,15.365101 C 17.082647,15.753589 16.878091,16.153299 16.692756,16.563532 L 17.997253,17.503814 C 17.723530,18.152974 17.502701,18.829915 17.339813,19.529163 L 15.731992,19.522991 C 15.642060,19.959178 15.572753,20.403084 15.523789,20.852739 L 17.055148,21.344066 C 17.025966,21.694813 17.010251,22.049487 17.010251,22.407670 C 17.010251,22.765992 17.025966,23.120666 17.055148,23.471412 L 15.523789,23.962317 C 15.572753,24.412255 15.642060,24.856020 15.732133,25.292207 L 17.339813,25.286174 C 17.502701,25.985423 17.723530,26.662364 17.997253,27.311525 L 16.692756,28.251948 C 16.795876,28.479932 16.905589,28.704549 17.020213,28.925800 L 19.775256,26.171039 C 19.329106,25.001930 19.084146,23.733349 19.084146,22.407670 L 19.084285,22.407529 z "
       id="path53363" />
    <path
       sodipodi:nodetypes="ccccccc"
       style="opacity:0.34999999;fill:#000000;fill-rule:nonzero;stroke:none;stroke-miterlimit:4.0000000"
       d="M 2.2500000,16.058177 L 16.069129,29.877306 L 29.988572,15.957863 L 29.470665,15.463770 L 16.086883,28.817499 L 2.2500000,16.058036 L 2.2500000,16.058177 z "
       id="path53365" />
  </g>
</svg>
