<?xml version="1.0" encoding="UTF-8" standalone="no"?>
<!-- Created with Inkscape (http://www.inkscape.org/) -->
<svg
   xmlns:dc="http://purl.org/dc/elements/1.1/"
   xmlns:cc="http://web.resource.org/cc/"
   xmlns:rdf="http://www.w3.org/1999/02/22-rdf-syntax-ns#"
   xmlns:svg="http://www.w3.org/2000/svg"
   xmlns="http://www.w3.org/2000/svg"
   xmlns:xlink="http://www.w3.org/1999/xlink"
   xmlns:sodipodi="http://inkscape.sourceforge.net/DTD/sodipodi-0.dtd"
   xmlns:inkscape="http://www.inkscape.org/namespaces/inkscape"
   id="svg1"
   sodipodi:version="0.32"
   inkscape:version="0.41+cvs"
   width="32.000000px"
   height="32.000000px"
   sodipodi:docbase="/home/jimmac/src/cvs/gnome/gnome-icon-theme/scalable/emblems"
   sodipodi:docname="emblem-important.svg">
  <defs
     id="defs3">
    <linearGradient
       id="linearGradient2174">
      <stop
         style="stop-color:#69271d;stop-opacity:1.0000000;"
         offset="0.0000000"
         id="stop2175" />
      <stop
         style="stop-color:#c77961;stop-opacity:1.0000000;"
         offset="1.0000000"
         id="stop2176" />
    </linearGradient>
    <linearGradient
       inkscape:collect="always"
       xlink:href="#linearGradient2174"
       id="linearGradient2177"
       x1="37.374870"
       y1="42.637798"
       x2="17.322512"
       y2="19.050718"
       gradientUnits="userSpaceOnUse" />
  </defs>
  <sodipodi:namedview
     id="base"
     pagecolor="#ffffff"
     bordercolor="#666666"
     borderopacity="1.0"
     inkscape:pageopacity="0.0"
     inkscape:pageshadow="2"
     inkscape:zoom="11.313708"
     inkscape:cx="21.221881"
     inkscape:cy="15.261367"
     inkscape:window-width="826"
     inkscape:window-height="790"
     gridspacingx="0.50000000mm"
     gridspacingy="0.50000000mm"
     showgrid="false"
     inkscape:grid-bbox="false"
     inkscape:window-x="807"
     inkscape:window-y="179"
     inkscape:current-layer="svg1" />
  <metadata
     id="metadata4">
    <rdf:RDF
       id="RDF5">
      <cc:Work
         rdf:about=""
         id="Work6">
        <dc:format
           id="format7">image/svg+xml</dc:format>
        <dc:type
           id="type9"
           rdf:resource="http://purl.org/dc/dcmitype/StillImage" />
        <dc:title
           id="title2052">Emblem Urgent</dc:title>
        <dc:creator
           id="creator2054">
          <cc:Agent
             id="Agent2056">
            <dc:title
               id="title2058">Jakub Steiner</dc:title>
          </cc:Agent>
        </dc:creator>
        <dc:contributor
           id="contributor2060">
          <cc:Agent
             id="Agent2062">
            <dc:title
               id="title2064">Andreas Nilsson</dc:title>
          </cc:Agent>
        </dc:contributor>
        <cc:license
           id="license2066"
           rdf:resource="http://creativecommons.org/licenses/GPL/2.0/" />
      </cc:Work>
      <cc:License
         rdf:about="http://creativecommons.org/licenses/GPL/2.0/"
         id="License2068">
        <cc:permits
           rdf:resource="http://web.resource.org/cc/Reproduction"
           id="permits2070" />
        <cc:permits
           rdf:resource="http://web.resource.org/cc/Distribution"
           id="permits2072" />
        <cc:requires
           rdf:resource="http://web.resource.org/cc/Notice"
           id="requires2074" />
        <cc:permits
           rdf:resource="http://web.resource.org/cc/DerivativeWorks"
           id="permits2076" />
        <cc:requires
           rdf:resource="http://web.resource.org/cc/ShareAlike"
           id="requires2078" />
        <cc:requires
           rdf:resource="http://web.resource.org/cc/SourceCode"
           id="requires2080" />
      </cc:License>
    </rdf:RDF>
  </metadata>
  <path
     sodipodi:type="arc"
     style="fill:#000000;fill-opacity:0.098039217;fill-rule:evenodd;stroke:none;stroke-width:2.5000000;stroke-linecap:butt;stroke-linejoin:miter;stroke-miterlimit:4.0000000;stroke-opacity:1.0000000"
     id="path2157"
     sodipodi:cx="29.392656"
     sodipodi:cy="29.207693"
     sodipodi:rx="29.010935"
     sodipodi:ry="29.010935"
     d="M 58.403591 29.207693 A 29.010935 29.010935 0 1 1  0.38172150,29.207693 A 29.010935 29.010935 0 1 1  58.403591 29.207693 z"
     transform="matrix(0.474879,0.000000,0.000000,0.474879,3.122290,3.180454)" />
  <path
     sodipodi:type="arc"
     style="fill:#000000;fill-opacity:0.098039217;fill-rule:evenodd;stroke:none;stroke-width:2.5000000;stroke-linecap:butt;stroke-linejoin:miter;stroke-miterlimit:4.0000000;stroke-opacity:1.0000000"
     id="path2156"
     sodipodi:cx="29.392656"
     sodipodi:cy="29.207693"
     sodipodi:rx="29.010935"
     sodipodi:ry="29.010935"
     d="M 58.403591 29.207693 A 29.010935 29.010935 0 1 1  0.38172150,29.207693 A 29.010935 29.010935 0 1 1  58.403591 29.207693 z"
     transform="matrix(0.474879,0.000000,0.000000,0.474879,2.512690,2.745024)" />
  <path
     sodipodi:type="arc"
     style="fill:#000000;fill-opacity:0.098039217;fill-rule:evenodd;stroke:none;stroke-width:2.5000000;stroke-linecap:butt;stroke-linejoin:miter;stroke-miterlimit:4.0000000;stroke-opacity:1.0000000"
     id="path2155"
     sodipodi:cx="29.392656"
     sodipodi:cy="29.207693"
     sodipodi:rx="29.010935"
     sodipodi:ry="29.010935"
     d="M 58.403591 29.207693 A 29.010935 29.010935 0 1 1  0.38172150,29.207693 A 29.010935 29.010935 0 1 1  58.403591 29.207693 z"
     transform="matrix(0.474879,0.000000,0.000000,0.474879,1.990170,2.396674)" />
  <path
     sodipodi:type="arc"
     style="stroke-dasharray:none;stroke-opacity:1.0000000;stroke-miterlimit:4.0000000;stroke-linejoin:miter;stroke-linecap:butt;stroke-width:2.1745276;stroke:#5b2219;fill-rule:evenodd;fill-opacity:1.0000000;fill:#a63434"
     id="path907"
     sodipodi:cx="29.392656"
     sodipodi:cy="29.207693"
     sodipodi:rx="29.010935"
     sodipodi:ry="29.010935"
     d="M 58.403591 29.207693 A 29.010935 29.010935 0 1 1  0.38172150,29.207693 A 29.010935 29.010935 0 1 1  58.403591 29.207693 z"
     transform="matrix(0.459870,0.000000,0.000000,0.459870,1.891210,2.169424)" />
  <path
     sodipodi:type="arc"
     style="fill:#ffffff;fill-opacity:1.0000000;fill-rule:evenodd;stroke:none;stroke-width:1.0000000pt;stroke-linecap:butt;stroke-linejoin:miter;stroke-opacity:1.0000000"
     id="path2159"
     sodipodi:cx="31.760445"
     sodipodi:cy="29.319231"
     sodipodi:rx="18.624397"
     sodipodi:ry="18.624397"
     d="M 50.384842 29.319231 A 18.624397 18.624397 0 1 1  13.136047,29.319231 A 18.624397 18.624397 0 1 1  50.384842 29.319231 z"
     transform="matrix(0.479814,0.000000,0.000000,0.479814,0.184440,1.344164)" />
  <path
     sodipodi:type="arc"
     style="stroke-dasharray:none;stroke-opacity:1.0000000;stroke-dashoffset:0.0000000;stroke-miterlimit:4.0000000;stroke-linejoin:round;stroke-linecap:round;stroke-width:2.4093129;stroke:url(#linearGradient2177);fill-rule:evenodd;fill-opacity:1.0000000;fill:none"
     id="path1552"
     sodipodi:cx="29.774380"
     sodipodi:cy="30.352861"
     sodipodi:rx="24.175779"
     sodipodi:ry="24.175779"
     d="M 53.950159 30.352861 A 24.175779 24.175779 0 1 1  5.5986004,30.352861 A 24.175779 24.175779 0 1 1  53.950159 30.352861 z"
     transform="matrix(0.510519,0.000000,0.000000,0.510519,0.315780,0.161334)" />
  <path
     id="text1299"
     d="M 14.254953,21.504958 C 14.254951,21.159128 14.381035,20.856526 14.633207,20.597152 C 14.892577,20.330576 15.195179,20.197287 15.541013,20.197285 C 15.894045,20.197287 16.200249,20.326974 16.459626,20.586344 C 16.718995,20.845720 16.848681,21.151924 16.848687,21.504958 C 16.848681,21.850790 16.715392,22.153392 16.448819,22.412765 C 16.189442,22.664933 15.886840,22.791017 15.541013,22.791017 C 15.209589,22.791017 14.910589,22.661331 14.644014,22.401958 C 14.384638,22.135379 14.254951,21.836381 14.254953,21.504958"
     style="font-size:19.833714;font-style:normal;font-variant:normal;font-weight:normal;font-stretch:normal;line-height:100.00000%;writing-mode:lr-tb;text-anchor:start;fill:#a63434;fill-opacity:1.0000000;stroke:none;stroke-width:1.0000000px;stroke-linecap:butt;stroke-linejoin:miter;stroke-opacity:1.0000000;font-family:Dutch801 SWM" />
  <path
     id="path1591"
     d="M 14.063048,10.006078 C 14.026167,9.8331749 13.998509,9.6566570 13.980074,9.4765246 C 13.970850,9.2964168 13.966241,9.1162967 13.966244,8.9361634 C 13.966241,8.4606598 14.099922,8.1004195 14.367287,7.8554416 C 14.643864,7.6032880 15.040296,7.4772039 15.556584,7.4771890 C 16.091302,7.4772039 16.496953,7.5996855 16.773539,7.8446343 C 17.059333,8.0896123 17.202233,8.4534550 17.202240,8.9361634 C 17.202233,9.1162967 17.193014,9.2964168 17.174582,9.4765246 C 17.165356,9.6566570 17.146918,9.8295726 17.119265,9.9952704 L 15.777847,18.522166 L 15.210858,18.522166 L 14.063048,10.006078"
     style="font-size:19.833714;font-style:normal;font-variant:normal;font-weight:normal;font-stretch:normal;line-height:100.00000%;writing-mode:lr-tb;text-anchor:start;fill:#a63434;fill-opacity:1.0000000;stroke:none;stroke-width:1.0000000px;stroke-linecap:butt;stroke-linejoin:miter;stroke-opacity:1.0000000;font-family:Dutch801 SWM" />
</svg>
