<svg xmlns="http://www.w3.org/2000/svg" width="16" height="16">
    <path d="M3.785 2.031a1.74 1.74 0 0 0-.806.219C1.94 2.796.987 4.586.468 6.906c-.442 1.971-.605 4.666-.34 5.75C.356 13.588.753 14 1.46 14c1.046-.018 2.36-1.182 3.192-2.75.603-.868 2.001-1.262 3.348-1.219 1.347-.047 2.745.351 3.348 1.219.833 1.568 2.146 2.732 3.192 2.75.706 0 1.103-.412 1.333-1.344.264-1.084.101-3.779-.341-5.75-.519-2.32-1.473-4.11-2.51-4.656-.57-.305-1.04-.296-1.457 0-.528.376-1.626.78-3.565.781-1.939.002-3.037-.405-3.565-.781a1.062 1.062 0 0 0-.65-.219zm.248 3h.991v1h.992v1h-.992v1h-.991v-1H3.04v-1h.992zm7.439 0c.273 0 .495.224.495.5s-.222.5-.495.5a.498.498 0 0 1-.496-.5c0-.276.222-.5.496-.5zm-.992 1c.274 0 .496.224.496.5s-.222.5-.496.5a.498.498 0 0 1-.496-.5c0-.276.222-.5.496-.5zm1.983 0c.274 0 .496.224.496.5s-.222.5-.496.5a.498.498 0 0 1-.496-.5c0-.276.223-.5.496-.5zm-.991 1c.273 0 .495.224.495.5s-.222.5-.495.5a.498.498 0 0 1-.496-.5c0-.276.222-.5.496-.5z" fill="#474747"/>
</svg>
