<?xml version="1.0" encoding="UTF-8"?>
<svg xmlns="http://www.w3.org/2000/svg" xmlns:xlink="http://www.w3.org/1999/xlink" width="16pt" height="16pt" viewBox="0 0 16 16" version="1.1">
<g id="surface2">
<path style=" stroke:none;fill-rule:nonzero;fill:rgb(72.941176%,74.117647%,71.372549%);fill-opacity:1;" d="M 2.1875 4.09375 C 1.433594 5.210938 1 6.550781 1 8 C 1 11.867188 4.132812 15 8 15 C 11.867188 15 15 11.867188 15 8 C 15 6.550781 14.566406 5.210938 13.8125 4.09375 C 13.613281 4.230469 13.386719 4.34375 13.1875 4.4375 C 12.335938 4.832031 11.332031 5 10.25 5 L 5.75 5 C 4.667969 5 3.664062 4.832031 2.8125 4.4375 C 2.613281 4.34375 2.386719 4.230469 2.1875 4.09375 Z M 6 6 C 6.558594 6 7.03125 6.472656 7.03125 7.03125 L 7.03125 8 C 7.03125 8.558594 6.558594 9 6 9 C 5.441406 9 5 8.558594 5 8 L 5 7.03125 C 5 6.472656 5.441406 6 6 6 Z M 10 6 C 10.558594 6 11 6.472656 11 7.03125 L 11 8 C 11 8.558594 10.558594 9 10 9 C 9.441406 9 9 8.558594 9 8 L 9 7.03125 C 9 6.472656 9.441406 6 10 6 Z M 3 9.0625 C 3.714844 10.136719 5.234375 11 8 11 C 10.453125 11 12.210938 10.25 13 9.0625 L 13 9.5625 C 13 10.242188 12.160156 11.96875 8 11.96875 C 4.121094 11.96875 3 10.09375 3 9.5625 Z M 3 9.0625 "/>
<path style="fill:none;stroke-width:1;stroke-linecap:butt;stroke-linejoin:miter;stroke:rgb(72.941176%,74.117647%,71.372549%);stroke-opacity:1;stroke-miterlimit:4;" d="M 351.925075 963.6781 L 356.456325 963.6781 C 358.241481 963.6781 359.6907 964.349975 359.6907 965.1781 C 359.6907 966.006225 358.241481 966.6781 356.456325 966.6781 L 351.925075 966.6781 C 350.139919 966.6781 348.6907 966.006225 348.6907 965.1781 C 348.6907 964.349975 350.139919 963.6781 351.925075 963.6781 Z M 351.925075 963.6781 " transform="matrix(1,0,0,1,-346.1907,-963.1781)"/>
</g>
</svg>
