<?xml version="1.0" encoding="UTF-8"?>
<svg xmlns="http://www.w3.org/2000/svg" xmlns:xlink="http://www.w3.org/1999/xlink" width="16pt" height="16pt" viewBox="0 0 16 16" version="1.1">
<g id="surface2">
<path style=" stroke:none;fill-rule:nonzero;fill:rgb(72.941176%,74.117647%,71.372549%);fill-opacity:1;" d="M 9 1 C 5.132812 1 2 4.132812 2 8 C 2 11.867188 5.132812 15 9 15 C 12.867188 15 16 11.867188 16 8 C 16 4.132812 12.867188 1 9 1 Z M 7 5 C 7.558594 5 8.03125 5.472656 8.03125 6.03125 L 8.03125 7 C 8.03125 7.558594 7.558594 8 7 8 C 6.441406 8 6 7.558594 6 7 L 6 6.03125 C 6 5.472656 6.441406 5 7 5 Z M 11 5 C 11.558594 5 12 5.472656 12 6.03125 L 12 7 C 12 7.558594 11.558594 8 11 8 C 10.441406 8 10 7.558594 10 7 L 10 6.03125 C 10 5.472656 10.441406 5 11 5 Z M 4 9.0625 C 4.996094 9.699219 8.015625 10 9 10 C 9.492188 10 10.429688 10.015625 11.40625 9.90625 C 12.382812 9.796875 13.402344 9.546875 14 9.0625 L 14 9.5625 C 14 10.003906 13.246094 10.480469 11.84375 10.75 L 12.09375 11.28125 C 12.371094 11.882812 12.175781 12.558594 11.65625 12.8125 L 11.40625 12.9375 C 10.886719 13.191406 10.230469 12.910156 9.9375 12.3125 L 9.3125 11.03125 C 9.296875 10.996094 9.292969 10.996094 9.28125 10.96875 C 9.183594 10.96875 9.097656 10.96875 9 10.96875 C 5.746094 10.96875 4 10.09375 4 9.5625 Z M 4 9.0625 "/>
</g>
</svg>
