<?xml version="1.0" encoding="UTF-8"?>
<svg xmlns="http://www.w3.org/2000/svg" xmlns:xlink="http://www.w3.org/1999/xlink" width="16pt" height="16pt" viewBox="0 0 16 16" version="1.1">
<g id="surface2">
<path style=" stroke:none;fill-rule:nonzero;fill:rgb(72.941176%,74.117647%,71.372549%);fill-opacity:1;" d="M 8 1.96875 C 4.132812 1.96875 1 5.101562 1 8.96875 C 1 12.835938 4.132812 15.96875 8 15.96875 C 11.867188 15.96875 15 12.835938 15 8.96875 C 15 5.101562 11.867188 1.96875 8 1.96875 Z M 6 5.96875 C 6.558594 5.96875 7.03125 6.441406 7.03125 7 L 7.03125 7.96875 C 7.03125 8.527344 6.558594 8.96875 6 8.96875 C 5.441406 8.96875 5 8.527344 5 7.96875 L 5 7 C 5 6.441406 5.441406 5.96875 6 5.96875 Z M 10 5.96875 C 10.558594 5.96875 11 6.441406 11 7 L 11 7.96875 C 11 8.527344 10.558594 8.96875 10 8.96875 C 9.441406 8.96875 9 8.527344 9 7.96875 L 9 7 C 9 6.441406 9.441406 5.96875 10 5.96875 Z M 3 10 C 5 11.304688 10.988281 11.304688 13.03125 10 L 13 10.53125 C 12.964844 10.960938 12 13.90625 8 13.9375 C 4 13.96875 3 11.15625 3 10.625 Z M 3 10 "/>
</g>
</svg>
