<?xml version="1.0" encoding="UTF-8"?>
<svg xmlns="http://www.w3.org/2000/svg" xmlns:xlink="http://www.w3.org/1999/xlink" width="16pt" height="16pt" viewBox="0 0 16 16" version="1.1">
<g id="surface2">
<path style=" stroke:none;fill-rule:nonzero;fill:rgb(72.941176%,74.117647%,71.372549%);fill-opacity:1;" d="M 8 1 C 4.132812 1 1 4.132812 1 8 C 1 11.867188 4.132812 15 8 15 C 11.867188 15 15 11.867188 15 8 C 15 4.132812 11.867188 1 8 1 Z M 4 5.125 C 4 5.125 4.472656 5.964844 5.25 5.96875 L 7 5.96875 L 7 7 C 7 7.554688 6.332031 8 5.5 8 C 4.667969 8 4 7.554688 4 7 Z M 12 5.125 L 12 7 C 12 7.554688 11.332031 8 10.5 8 C 9.667969 8 9 7.554688 9 7 L 9 5.96875 L 10.71875 5.96875 C 11.496094 5.964844 12 5.125 12 5.125 Z M 8.03125 9 C 11.285156 9 11.03125 9.382812 11.03125 9.761719 L 11.03125 10.027344 L 5 10.027344 L 5 9.738281 C 5 9.390625 4.777344 9 8.03125 9 Z M 8.03125 9 "/>
</g>
</svg>
