<?xml version="1.0" encoding="UTF-8"?>
<svg xmlns="http://www.w3.org/2000/svg" xmlns:xlink="http://www.w3.org/1999/xlink" width="16pt" height="16pt" viewBox="0 0 16 16" version="1.1">
<g id="surface2">
<path style=" stroke:none;fill-rule:nonzero;fill:rgb(72.941176%,74.117647%,71.372549%);fill-opacity:1;" d="M 8 1.96875 C 4.132812 1.96875 1 5.101562 1 8.96875 C 1 12.835938 4.132812 15.96875 8 15.96875 C 11.867188 15.96875 15 12.835938 15 8.96875 C 15 5.101562 11.867188 1.96875 8 1.96875 Z M 6 5.96875 C 6.558594 5.96875 7.03125 6.441406 7.03125 7 L 7.03125 7.96875 C 7.03125 8.527344 6.558594 8.96875 6 8.96875 C 5.441406 8.96875 5 8.527344 5 7.96875 L 5 7 C 5 6.441406 5.441406 5.96875 6 5.96875 Z M 10 5.96875 C 10.558594 5.96875 11 6.441406 11 7 L 11 7.96875 C 11 8.527344 10.558594 8.96875 10 8.96875 C 9.441406 8.96875 9 8.527344 9 7.96875 L 9 7 C 9 6.441406 9.441406 5.96875 10 5.96875 Z M 4.59375 9.78125 C 4.65625 9.773438 4.316406 9.792969 4.382812 9.8125 C 8.863281 9.78125 5.832031 12.394531 10.96875 12.457031 C 11.234375 12.527344 11.386719 12.8125 11.3125 13.082031 C 11.238281 13.347656 10.984375 13.496094 10.71875 13.425781 C 5.769531 13.410156 7.8125 10.71875 4.53125 10.78125 C 4.265625 10.707031 4.113281 10.421875 4.1875 10.15625 C 4.242188 9.957031 4.402344 9.808594 4.59375 9.78125 Z M 4.59375 9.78125 "/>
</g>
</svg>
