<?xml version="1.0" encoding="UTF-8"?>
<svg xmlns="http://www.w3.org/2000/svg" xmlns:xlink="http://www.w3.org/1999/xlink" width="16pt" height="16pt" viewBox="0 0 16 16" version="1.1">
<g id="surface2">
<path style=" stroke:none;fill-rule:nonzero;fill:rgb(72.941176%,74.117647%,71.372549%);fill-opacity:1;" d="M 8 1 C 4.132812 1 1 4.132812 1 8 C 1 11.867188 4.132812 15 8 15 C 11.867188 15 15 11.867188 15 8 C 15 4.132812 11.867188 1 8 1 Z M 6 5 C 6.558594 5 7.03125 5.472656 7.03125 6.03125 L 7.03125 7 C 7.03125 7.558594 6.558594 8 6 8 C 5.441406 8 5 7.558594 5 7 L 5 6.03125 C 5 5.472656 5.441406 5 6 5 Z M 10 5 C 10.558594 5 11 5.472656 11 6.03125 L 11 7 C 11 7.558594 10.558594 8 10 8 C 9.441406 8 9 7.558594 9 7 L 9 6.03125 C 9 5.472656 9.441406 5 10 5 Z M 13 10.941406 C 12.234375 10.515625 11.386719 10.023438 10.523438 10.003906 C 9.871094 10.023438 9.285156 10.65625 9 10.699219 C 8.457031 11.011719 7.441406 10.894531 7 10.699219 C 6.082031 10.261719 6.078125 10.019531 5.457031 10 C 4.605469 10.019531 3.625 10.402344 3 10.941406 L 3 10.441406 C 3.421875 9.355469 5.378906 8.398438 7 9.570312 C 7.347656 9.792969 7.425781 9.839844 8.015625 9.910156 C 8.175781 9.964844 8.605469 9.875 9 9.570312 C 10.582031 8.417969 12.292969 9.453125 13 10.441406 Z M 13 10.941406 "/>
</g>
</svg>
