<?xml version="1.0" encoding="UTF-8"?>
<svg xmlns="http://www.w3.org/2000/svg" xmlns:xlink="http://www.w3.org/1999/xlink" width="16pt" height="16pt" viewBox="0 0 16 16" version="1.1">
<g id="surface2">
<path style=" stroke:none;fill-rule:nonzero;fill:rgb(72.941176%,74.117647%,71.372549%);fill-opacity:1;" d="M 8.0625 1.1875 C 4.195312 1.1875 1.0625 4.320312 1.0625 8.1875 C 1.0625 12.054688 4.195312 15.1875 8.0625 15.1875 C 11.929688 15.1875 15.0625 12.054688 15.0625 8.1875 C 15.0625 4.320312 11.929688 1.1875 8.0625 1.1875 Z M 6.0625 5.1875 C 6.621094 5.1875 7.09375 5.660156 7.09375 6.21875 L 7.09375 7.1875 C 7.09375 7.746094 6.621094 8.1875 6.0625 8.1875 C 5.503906 8.1875 5.0625 7.746094 5.0625 7.1875 L 5.0625 6.21875 C 5.0625 5.660156 5.503906 5.1875 6.0625 5.1875 Z M 10.0625 5.1875 C 10.621094 5.1875 11.0625 5.660156 11.0625 6.21875 L 11.0625 7.1875 C 11.0625 7.746094 10.621094 8.1875 10.0625 8.1875 C 9.503906 8.1875 9.0625 7.746094 9.0625 7.1875 L 9.0625 6.21875 C 9.0625 5.660156 9.503906 5.1875 10.0625 5.1875 Z M 3.648438 7.90625 C 4.429688 11.210938 8.34375 12.339844 11.355469 11.191406 C 11.363281 11.792969 11.160156 12.289062 10.199219 12.480469 C 8.035156 12.90625 5.039062 12.335938 3.519531 9.886719 C 2.855469 8.8125 3.394531 8.199219 3.648438 7.90625 Z M 3.648438 7.90625 "/>
</g>
</svg>
