<?xml version="1.0" encoding="UTF-8"?>
<svg xmlns="http://www.w3.org/2000/svg" xmlns:xlink="http://www.w3.org/1999/xlink" width="16pt" height="16pt" viewBox="0 0 16 16" version="1.1">
<g id="surface2">
<path style=" stroke:none;fill-rule:nonzero;fill:rgb(72.941176%,74.117647%,71.372549%);fill-opacity:1;" d="M 8 1 C 4.132812 1 1 4.132812 1 8 C 1 11.867188 4.132812 15 8 15 C 11.867188 15 15 11.867188 15 8 C 15 4.132812 11.867188 1 8 1 Z M 6 5 C 6.558594 5 7.03125 5.472656 7.03125 6.03125 L 7.03125 7 C 7.03125 7.558594 6.558594 8 6 8 C 5.441406 8 5 7.558594 5 7 L 5 6.03125 C 5 5.472656 5.441406 5 6 5 Z M 10 5 C 10.558594 5 11 5.472656 11 6.03125 L 11 7 C 11 7.558594 10.558594 8 10 8 C 9.441406 8 9 7.558594 9 7 L 9 6.03125 C 9 5.472656 9.441406 5 10 5 Z M 8 9.59375 C 9.058594 9.59375 9.929688 10.515625 9.9375 11.625 C 9.9375 12.742188 9.066406 13.65625 8 13.65625 C 6.933594 13.65625 6.0625 12.742188 6.0625 11.625 C 6.0625 10.507812 6.933594 9.59375 8 9.59375 Z M 8 9.59375 "/>
</g>
</svg>
