<?xml version="1.0" encoding="UTF-8"?>
<svg xmlns="http://www.w3.org/2000/svg" xmlns:xlink="http://www.w3.org/1999/xlink" width="16pt" height="16pt" viewBox="0 0 16 16" version="1.1">
<g id="surface2">
<path style=" stroke:none;fill-rule:nonzero;fill:rgb(72.941176%,74.117647%,71.372549%);fill-opacity:1;" d="M 8 1 C 4.132812 1 1 4.132812 1 8 C 1 11.867188 4.132812 15 8 15 C 11.867188 15 15 11.867188 15 8 C 15 4.132812 11.867188 1 8 1 Z M 5.53125 5 C 6.265625 5 7 5.226562 7 6.089844 C 4.4375 5.488281 4.582031 7.78125 4 6.3125 C 3.679688 5.503906 4.796875 5 5.53125 5 Z M 10.46875 5 C 11.203125 5 12.171875 5.460938 12 6.3125 C 11.683594 7.867188 11.472656 5.355469 9 6.089844 C 9 5.226562 9.734375 5 10.46875 5 Z M 7 8 C 7.410156 7.988281 7.75 8.132812 8.03125 8.34375 C 8.3125 8.132812 8.683594 7.988281 9.09375 8 C 9.726562 8.019531 10 8.761719 10 9.1875 C 10 9.960938 10.476562 9.953125 11 10.015625 C 10.367188 10.167969 10.011719 11.242188 10.015625 11.78125 C 10.019531 12.753906 9.085938 13.035156 8 13.03125 C 6.914062 13.027344 6.011719 12.78125 6.015625 11.796875 C 6.015625 11.390625 5.664062 10.207031 4.984375 10.03125 C 5.664062 9.9375 6 9.78125 6 9.171875 C 6 8.363281 6.527344 8.011719 7 8 Z M 7 8 "/>
<path style=" stroke:none;fill-rule:nonzero;fill:rgb(72.941176%,74.117647%,71.372549%);fill-opacity:1;" d="M 9 10.273438 C 8.832031 10.355469 8.679688 10.433594 8.679688 10.546875 C 8.660156 10.816406 8.304688 11.027344 8.007812 11.027344 C 7.707031 11.023438 7.410156 10.816406 7.410156 10.546875 C 7.414062 10.433594 7.300781 10.355469 7.140625 10.273438 C 7.667969 9.878906 8.394531 9.9375 9 10.273438 Z M 9 10.273438 "/>
</g>
</svg>
