<?xml version="1.0" encoding="UTF-8"?>
<svg xmlns="http://www.w3.org/2000/svg" xmlns:xlink="http://www.w3.org/1999/xlink" width="16pt" height="16pt" viewBox="0 0 16 16" version="1.1">
<g id="surface2">
<path style=" stroke:none;fill-rule:nonzero;fill:rgb(72.941176%,74.117647%,71.372549%);fill-opacity:1;" d="M 9 1 C 5.132812 1 2 4.132812 2 8 C 2 11.867188 5.132812 15 9 15 C 12.867188 15 16 11.867188 16 8 C 16 4.132812 12.867188 1 9 1 Z M 7.625 6.75 C 7.804688 6.695312 7.972656 6.8125 8 7 C 8.027344 7.1875 7.898438 7.382812 7.71875 7.4375 L 4.9375 8.25 C 4.757812 8.304688 4.589844 8.21875 4.5625 8.03125 C 4.535156 7.84375 4.664062 7.648438 4.84375 7.59375 Z M 10.25 6.75 C 10.292969 6.742188 10.328125 6.738281 10.375 6.75 L 13.15625 7.59375 C 13.335938 7.648438 13.464844 7.84375 13.4375 8.03125 C 13.410156 8.21875 13.242188 8.304688 13.0625 8.25 L 10.28125 7.4375 C 10.101562 7.382812 9.972656 7.1875 10 7 C 10.019531 6.859375 10.125 6.765625 10.25 6.75 Z M 5.40625 10 L 12.59375 10 C 12.816406 10 13 10.222656 13 10.5 C 13 10.777344 12.816406 11 12.59375 11 L 5.40625 11 C 5.183594 11 5 10.777344 5 10.5 C 5 10.222656 5.183594 10 5.40625 10 Z M 5.40625 10 "/>
</g>
</svg>
