<?xml version="1.0" encoding="UTF-8"?>
<svg xmlns="http://www.w3.org/2000/svg" xmlns:xlink="http://www.w3.org/1999/xlink" width="16pt" height="16pt" viewBox="0 0 16 16" version="1.1">
<g id="surface2">
<path style=" stroke:none;fill-rule:nonzero;fill:rgb(72.941176%,74.117647%,71.372549%);fill-opacity:1;" d="M 8 1 C 5.210938 1 2.8125 2.636719 1.6875 5 L 4.25 5 C 4.601562 4.414062 5.242188 4.03125 5.96875 4.03125 C 6.535156 4.03125 7.042969 4.273438 7.40625 4.65625 C 7.605469 4.523438 7.820312 4.5 7.96875 4.5 C 8.132812 4.5 8.363281 4.523438 8.5625 4.65625 C 8.925781 4.273438 9.433594 4.03125 10 4.03125 C 10.726562 4.03125 11.367188 4.414062 11.71875 5 L 14.3125 5 C 13.1875 2.636719 10.789062 1 8 1 Z M 5.96875 5.03125 C 5.40625 5.03125 4.96875 5.46875 4.96875 6.03125 L 4.96875 7 C 4.96875 7.5625 5.40625 8 5.96875 8 C 6.53125 8 6.96875 7.5625 6.96875 7 L 6.96875 6.03125 C 6.96875 5.46875 6.53125 5.03125 5.96875 5.03125 Z M 10 5.03125 C 9.4375 5.03125 9 5.46875 9 6.03125 L 9 7 C 9 7.5625 9.4375 8 10 8 C 10.5625 8 11 7.5625 11 7 L 11 6.03125 C 11 5.46875 10.5625 5.03125 10 5.03125 Z M 7.96875 5.8125 C 7.96875 5.820312 7.9375 5.835938 7.9375 5.84375 C 7.945312 5.90625 7.96875 5.96875 7.96875 6.03125 L 7.96875 7 C 7.96875 8.097656 7.066406 9 5.96875 9 C 4.871094 9 3.96875 8.097656 3.96875 7 L 3.96875 6.03125 C 3.96875 6.019531 3.96875 6.011719 3.96875 6 L 1.28125 6 C 1.09375 6.628906 1 7.308594 1 8 C 1 11.867188 4.132812 15 8 15 C 11.867188 15 15 11.867188 15 8 C 15 7.308594 14.90625 6.628906 14.71875 6 L 12 6 C 12 6.011719 12 6.019531 12 6.03125 L 12 7 C 12 8.097656 11.097656 9 10 9 C 8.902344 9 8 8.097656 8 7 L 8 6.03125 C 8 5.988281 7.996094 5.949219 8 5.90625 C 8 5.886719 8 5.863281 8 5.84375 C 7.988281 5.832031 7.980469 5.824219 7.96875 5.8125 Z M 3 10.0625 C 3.996094 10.699219 7.015625 11 8 11 C 8.984375 11 11.804688 11.03125 13 10.0625 L 13 10.5625 C 13 11.242188 11.253906 11.96875 8 11.96875 C 4.746094 11.96875 3 11.09375 3 10.5625 Z M 3 10.0625 "/>
</g>
</svg>
