<?xml version="1.0" encoding="UTF-8"?>
<svg xmlns="http://www.w3.org/2000/svg" xmlns:xlink="http://www.w3.org/1999/xlink" width="16pt" height="16pt" viewBox="0 0 16 16" version="1.1">
<g id="surface2">
<path style=" stroke:none;fill-rule:nonzero;fill:rgb(72.941176%,74.117647%,71.372549%);fill-opacity:1;" d="M 9 1 C 5.132812 1 2 4.132812 2 8 C 2 11.867188 5.132812 15 9 15 C 12.867188 15 16 11.867188 16 8 C 16 4.132812 12.867188 1 9 1 Z M 7 5 C 7.558594 5 8.03125 5.472656 8.03125 6.03125 L 8.03125 7 C 8.03125 7.558594 7.558594 8 7 8 C 6.441406 8 6 7.558594 6 7 L 6 6.03125 C 6 5.472656 6.441406 5 7 5 Z M 11 5 C 11.558594 5 12 5.472656 12 6.03125 L 12 7 C 12 7.558594 11.558594 8 11 8 C 10.441406 8 10 7.558594 10 7 L 10 6.03125 C 10 5.472656 10.441406 5 11 5 Z M 5 9 L 9 10 L 13 9 C 13.082031 9.589844 12.839844 10.054688 12.328125 10.167969 L 11 10.5 L 12.308594 10.828125 C 13.023438 11.019531 13 11.578125 13 12 L 9 11 L 5 12 C 4.933594 11.367188 5.039062 11.015625 5.519531 10.871094 L 7 10.5 L 5.496094 10.164062 C 5.019531 10.035156 4.917969 9.484375 5 9 Z M 5 9 "/>
</g>
</svg>
