<?xml version="1.0" encoding="UTF-8"?>
<svg xmlns="http://www.w3.org/2000/svg" xmlns:xlink="http://www.w3.org/1999/xlink" width="16pt" height="16pt" viewBox="0 0 16 16" version="1.1">
<g id="surface2">
<path style=" stroke:none;fill-rule:nonzero;fill:rgb(72.941176%,74.117647%,71.372549%);fill-opacity:1;" d="M 8 1 C 4.132812 1 1 4.132812 1 8 C 1 11.867188 4.132812 15 8 15 C 11.867188 15 15 11.867188 15 8 C 15 4.132812 11.867188 1 8 1 Z M 5.53125 6.175781 C 6.265625 6.175781 7 6.621094 7 7.488281 C 5.5 7.152344 3.875 9.222656 4 7.488281 C 4.0625 6.621094 4.796875 6.175781 5.53125 6.175781 Z M 10.46875 6.175781 C 11.203125 6.175781 11.9375 6.621094 12 7.488281 C 12.125 9.222656 10.5 7.152344 9 7.488281 C 9 6.621094 9.734375 6.175781 10.46875 6.175781 Z M 4.46875 8.734375 C 4.882812 8.734375 5.21875 9.070312 5.21875 9.484375 C 5.21875 9.898438 4.882812 10.234375 4.46875 10.234375 C 4.054688 10.234375 3.71875 9.898438 3.71875 9.484375 C 3.71875 9.070312 4.054688 8.734375 4.46875 8.734375 Z M 11.484375 8.734375 C 11.902344 8.734375 12.234375 9.070312 12.234375 9.484375 C 12.234375 9.898438 11.902344 10.234375 11.484375 10.234375 C 11.070312 10.234375 10.734375 9.898438 10.734375 9.484375 C 10.734375 9.070312 11.070312 8.734375 11.484375 8.734375 Z M 7.394531 10.996094 L 8.566406 10.996094 C 8.773438 10.996094 9.113281 11.21875 9.113281 11.496094 C 9.113281 11.773438 8.773438 12.011719 8.566406 12.011719 L 7.394531 12.011719 C 7.191406 12.011719 6.910156 11.773438 6.910156 11.496094 C 6.910156 11.21875 7.191406 10.996094 7.394531 10.996094 Z M 7.394531 10.996094 "/>
</g>
</svg>
