<?xml version="1.0" encoding="UTF-8"?>
<svg xmlns="http://www.w3.org/2000/svg" xmlns:xlink="http://www.w3.org/1999/xlink" width="16pt" height="16pt" viewBox="0 0 16 16" version="1.1">
<g id="surface2">
<path style=" stroke:none;fill-rule:nonzero;fill:rgb(74.509804%,74.509804%,74.509804%);fill-opacity:1;" d="M 8 1.03125 C 4.140625 1.03125 1 4.1875 1 8.03125 C 1 11.875 4.140625 15 8 15 C 11.859375 15 15 11.875 15 8.03125 C 15 4.1875 11.859375 1.03125 8 1.03125 Z M 8 3.03125 C 9.074219 3.03125 10.0625 3.402344 10.875 3.96875 L 3.9375 10.90625 C 3.351562 10.097656 3 9.113281 3 8.03125 C 3 5.265625 5.222656 3.03125 8 3.03125 Z M 12.25 5.40625 C 12.726562 6.171875 13.03125 7.058594 13.03125 8.03125 C 13.03125 10.796875 10.777344 13 8 13 C 7.042969 13 6.164062 12.703125 5.40625 12.25 Z M 12.25 5.40625 "/>
</g>
</svg>
