<?xml version="1.0" encoding="UTF-8"?>
<svg xmlns="http://www.w3.org/2000/svg" xmlns:xlink="http://www.w3.org/1999/xlink" width="138pt" height="414pt" viewBox="0 0 138 414" version="1.1">
<g id="surface2">
<path style=" stroke:none;fill-rule:nonzero;fill:rgb(74.509804%,74.509804%,74.509804%);fill-opacity:1;" d="M 125.1875 399 C 124.097656 399 123.1875 399.910156 123.1875 401 L 131 401 L 131 399 Z M 134 405 L 134 412 L 123.1875 412 C 123.1875 413.089844 124.097656 414 125.1875 414 L 134 414 C 135.089844 414 136 413.089844 136 412 L 136 405 Z M 134 405 "/>
<path style="fill:none;stroke-width:1;stroke-linecap:round;stroke-linejoin:miter;stroke:rgb(74.509804%,74.509804%,74.509804%);stroke-opacity:1;stroke-miterlimit:4;" d="M 122.6875 410.5 L 124.5 410.5 "/>
<path style="fill:none;stroke-width:1;stroke-linecap:round;stroke-linejoin:miter;stroke:rgb(74.509804%,74.509804%,74.509804%);stroke-opacity:1;stroke-miterlimit:4;" d="M 122.6875 408.5 L 124.5 408.5 "/>
<path style="fill:none;stroke-width:1;stroke-linecap:round;stroke-linejoin:miter;stroke:rgb(74.509804%,74.509804%,74.509804%);stroke-opacity:1;stroke-miterlimit:4;" d="M 122.6875 406.5 L 124.5 406.5 "/>
<path style="fill:none;stroke-width:1;stroke-linecap:round;stroke-linejoin:miter;stroke:rgb(74.509804%,74.509804%,74.509804%);stroke-opacity:1;stroke-miterlimit:4;" d="M 122.6875 404.5 L 124.5 404.5 "/>
<path style="fill:none;stroke-width:1;stroke-linecap:round;stroke-linejoin:miter;stroke:rgb(74.509804%,74.509804%,74.509804%);stroke-opacity:1;stroke-miterlimit:4;" d="M 122.6875 402.5 L 124.5 402.5 "/>
<path style=" stroke:none;fill-rule:nonzero;fill:rgb(74.509804%,74.509804%,74.509804%);fill-opacity:1;" d="M 129 408 C 129.328125 408.066406 129.664062 408.007812 130 408 C 130.332031 407.992188 130.667969 408.039062 131 408 C 131.625 407.925781 132.195312 407.539062 132.523438 407.003906 C 132.851562 406.464844 132.933594 405.792969 132.78125 405.183594 C 132.632812 404.574219 132.25 404.03125 131.75 403.652344 C 131.25 403.273438 130.636719 403.054688 130.007812 403 C 129.101562 402.921875 128.167969 403.191406 127.445312 403.746094 C 126.71875 404.300781 126.214844 405.132812 126.0625 406.03125 C 125.953125 406.664062 126.019531 407.324219 126.246094 407.925781 C 126.476562 408.527344 126.867188 409.0625 127.367188 409.464844 C 127.867188 409.867188 128.476562 410.132812 129.109375 410.226562 C 129.746094 410.320312 130.40625 410.242188 131 410 L 131 409 C 130.546875 409.296875 130 409.453125 129.457031 409.4375 C 128.914062 409.421875 128.378906 409.230469 127.945312 408.90625 C 127.511719 408.582031 127.179688 408.117188 127.011719 407.601562 C 126.84375 407.085938 126.839844 406.519531 127 406 C 127.191406 405.382812 127.613281 404.839844 128.152344 404.488281 C 128.695312 404.136719 129.355469 403.96875 130 404 C 130.539062 404.027344 131.082031 404.191406 131.484375 404.550781 C 131.683594 404.730469 131.84375 404.957031 131.9375 405.207031 C 132.035156 405.457031 132.058594 405.738281 132 406 C 131.945312 406.242188 131.820312 406.464844 131.644531 406.636719 C 131.46875 406.808594 131.242188 406.929688 131 406.976562 L 131 406 C 130.878906 405.703125 130.671875 405.441406 130.40625 405.261719 C 130.140625 405.085938 129.820312 404.984375 129.5 404.984375 C 129.179688 404.984375 128.859375 405.085938 128.59375 405.261719 C 128.328125 405.441406 128.121094 405.703125 128 406 C 127.839844 406.394531 127.847656 406.855469 128.035156 407.238281 C 128.21875 407.621094 128.582031 407.914062 129 408 Z M 130.035156 407.023438 C 129.933594 407.128906 129.796875 407.199219 129.652344 407.222656 C 129.503906 407.246094 129.351562 407.222656 129.222656 407.15625 C 129.089844 407.089844 128.980469 406.980469 128.914062 406.851562 C 128.847656 406.71875 128.820312 406.566406 128.84375 406.421875 C 128.863281 406.300781 128.914062 406.179688 128.996094 406.085938 C 129.074219 405.988281 129.179688 405.914062 129.296875 405.867188 C 129.414062 405.824219 129.542969 405.816406 129.667969 405.839844 C 129.789062 405.859375 129.90625 405.917969 130 406 "/>
<path style=" stroke:none;fill-rule:nonzero;fill:rgb(74.509804%,74.509804%,74.509804%);fill-opacity:1;" d="M 134 398.019531 L 134 400.015625 L 132 400.015625 L 132 402.011719 L 134 402.011719 L 134 404.011719 L 136 404.011719 L 136 402.011719 L 138 402.011719 L 138 400.015625 L 136 400.015625 L 136 398.019531 Z M 134 398.019531 "/>
</g>
</svg>
