<?xml version="1.0" encoding="UTF-8"?>
<svg xmlns="http://www.w3.org/2000/svg" xmlns:xlink="http://www.w3.org/1999/xlink" width="16pt" height="16pt" viewBox="0 0 16 16" version="1.1">
<g id="surface2">
<path style=" stroke:none;fill-rule:nonzero;fill:rgb(74.509804%,74.509804%,74.509804%);fill-opacity:1;" d="M 12.300781 2 C 11.53125 2.042969 10.96875 2.6875 10.484375 3.222656 C 10.019531 3.824219 9.542969 4.484375 9.410156 5.25 C 9.410156 5.476562 9.695312 5.589844 9.820312 5.769531 C 10.289062 6.191406 10.773438 6.835938 10.476562 7.492188 C 10.054688 8.332031 9.257812 8.886719 8.644531 9.574219 C 8.144531 10.074219 7.507812 10.75 6.730469 10.464844 C 6.15625 10.246094 5.816406 9.714844 5.367188 9.351562 C 4.746094 9.398438 4.195312 9.785156 3.675781 10.101562 C 3.011719 10.585938 2.320312 11.179688 2.078125 11.996094 C 1.9375 12.644531 2.617188 12.996094 3.039062 13.335938 C 4.09375 14.101562 5.511719 14.203125 6.714844 13.765625 C 8.65625 13.074219 10.21875 11.640625 11.597656 10.15625 C 12.773438 8.816406 13.898438 7.246094 14.046875 5.414062 C 14.152344 4.128906 13.496094 2.851562 12.503906 2.058594 L 12.402344 2.019531 Z M 12.300781 2 "/>
</g>
</svg>
