<?xml version="1.0" encoding="UTF-8"?>
<svg xmlns="http://www.w3.org/2000/svg" xmlns:xlink="http://www.w3.org/1999/xlink" width="16pt" height="16pt" viewBox="0 0 16 16" version="1.1">
<g id="surface2">
<path style=" stroke:none;fill-rule:nonzero;fill:rgb(74.509804%,74.509804%,74.509804%);fill-opacity:1;" d="M 3 1 C 2.367188 1.046875 1.972656 1.71875 2.0625 2.3125 C 2.066406 6.5625 2.082031 10.8125 2.09375 15.0625 C 2.152344 15.6875 2.785156 16.089844 3.375 16 C 6.628906 15.996094 9.871094 15.980469 13.125 15.96875 C 13.75 15.910156 14.152344 15.277344 14.0625 14.6875 C 14.058594 11.429688 14.046875 8.160156 14.03125 4.90625 C 13.9375 4.308594 13.367188 3.992188 13 3.5625 C 12.199219 2.773438 11.445312 1.957031 10.625 1.1875 C 10.132812 0.882812 9.515625 1.042969 8.96875 1 Z M 7.0625 4 L 8.0625 4 L 8.0625 5 C 8.0625 5.257812 7.933594 5.527344 7.75 5.71875 L 6.46875 7 L 9.59375 7 C 11.515625 7 13.09375 8.578125 13.09375 10.5 C 13.09375 11.601562 12.574219 12.578125 11.773438 13.214844 L 10.625 11.582031 C 10.898438 11.3125 11.0625 10.929688 11.0625 10.5 C 11.0625 9.660156 10.535156 9 9.59375 9 L 6.46875 9 L 7.75 10.28125 C 7.933594 10.472656 8.0625 10.742188 8.0625 11 L 8.0625 12 L 7.0625 12 C 6.753906 12 6.511719 11.910156 6.3125 11.71875 L 2.65625 8 L 6.3125 4.28125 C 6.511719 4.089844 6.753906 4 7.0625 4 Z M 7.0625 4 "/>
</g>
</svg>
