<?xml version="1.0" encoding="UTF-8"?>
<svg xmlns="http://www.w3.org/2000/svg" xmlns:xlink="http://www.w3.org/1999/xlink" width="16pt" height="16pt" viewBox="0 0 16 16" version="1.1">
<g id="surface2">
<path style=" stroke:none;fill-rule:nonzero;fill:rgb(74.509804%,74.509804%,74.509804%);fill-opacity:1;" d="M 0.53125 5 C 0.242188 5 0 5.242188 0 5.53125 L 0 15.46875 C 0 15.765625 0.234375 16 0.53125 16 L 14.34375 16 C 14.640625 16 14.875 15.765625 14.875 15.46875 L 16 10.554688 C 16 10.265625 15.757812 10.023438 15.46875 10.023438 L 3.875 10.023438 L 3 13.5 C 3 13.777344 2.777344 14 2.5 14 C 2.222656 14 2 13.777344 2 13.5 L 2 8.503906 C 2 8.226562 2.222656 8.003906 2.5 8.003906 L 2.964844 8.003906 L 2.964844 5 Z M 0.53125 5 "/>
<path style=" stroke:none;fill-rule:nonzero;fill:rgb(74.509804%,74.509804%,74.509804%);fill-opacity:1;" d="M 4.8125 1 C 4.355469 1.085938 3.992188 1.535156 4 2 L 4 9 L 6 9 L 6 3 L 10 3 L 10 6 L 13 6 L 13 9 L 15 9 L 15 5.5625 C 15.007812 5.296875 14.902344 5.035156 14.71875 4.84375 L 11.15625 1.28125 C 10.964844 1.097656 10.703125 0.992188 10.4375 1 L 5 1 C 4.96875 1 4.9375 1 4.90625 1 C 4.875 1 4.84375 1 4.8125 1 Z M 4.8125 1 "/>
</g>
</svg>
