<?xml version="1.0" encoding="UTF-8"?>
<svg xmlns="http://www.w3.org/2000/svg" xmlns:xlink="http://www.w3.org/1999/xlink" width="16pt" height="16pt" viewBox="0 0 16 16" version="1.1">
<g id="surface2">
<path style=" stroke:none;fill-rule:nonzero;fill:rgb(74.509804%,74.509804%,74.509804%);fill-opacity:1;" d="M 4 1 L 4 3 L 12 3 L 12 1 Z M 2 4 C 1.5 4 1 4.5 1 5 L 1 9 C 1 9.5 1.5 10 2 10 L 3 10 L 3 8 L 8.125 8 C 8.789062 7.367188 9.675781 6.96875 10.65625 6.96875 C 12.4375 6.96875 13.945312 8.25 14.28125 9.9375 C 14.675781 9.800781 15 9.40625 15 9 L 15 5 C 15 4.5 14.5 4 14 4 Z M 4 9 L 4 14 L 9.09375 14 C 7.839844 13.410156 6.96875 12.125 6.96875 10.65625 C 6.96875 10.0625 7.121094 9.5 7.375 9 Z M 4 9 "/>
<path style=" stroke:none;fill-rule:nonzero;fill:rgb(74.509804%,74.509804%,74.509804%);fill-opacity:1;" d="M 10.65625 7.9375 C 9.160156 7.9375 7.9375 9.160156 7.9375 10.65625 C 7.9375 12.152344 9.160156 13.375 10.65625 13.375 C 11.144531 13.375 11.605469 13.226562 12 13 C 12.039062 13.082031 12.089844 13.15625 12.15625 13.21875 L 14 15.03125 C 14.292969 15.324219 14.769531 15.324219 15.0625 15.03125 C 15.355469 14.738281 15.355469 14.261719 15.0625 13.96875 L 13.21875 12.15625 C 13.15625 12.089844 13.082031 12.039062 13 12 C 13.226562 11.605469 13.375 11.144531 13.375 10.65625 C 13.375 9.160156 12.152344 7.9375 10.65625 7.9375 Z M 10.65625 8.9375 C 11.613281 8.9375 12.375 9.699219 12.375 10.65625 C 12.375 11.613281 11.613281 12.375 10.65625 12.375 C 9.699219 12.375 8.9375 11.613281 8.9375 10.65625 C 8.9375 9.699219 9.699219 8.9375 10.65625 8.9375 Z M 10.65625 8.9375 "/>
</g>
</svg>
