<?xml version="1.0" encoding="UTF-8"?>
<svg xmlns="http://www.w3.org/2000/svg" xmlns:xlink="http://www.w3.org/1999/xlink" width="176pt" height="554pt" viewBox="0 0 176 554" version="1.1">
<g id="surface2">
<path style="fill:none;stroke-width:1;stroke-linecap:round;stroke-linejoin:round;stroke:rgb(74.509804%,74.509804%,74.509804%);stroke-opacity:1;stroke-miterlimit:4;" d="M 163.5 549 L 164.5 547.5 M 171.5 547.5 L 172.5 549 "/>
<path style=" stroke:none;fill-rule:nonzero;fill:rgb(74.509804%,74.509804%,74.509804%);fill-opacity:1;" d="M 167 539 L 167 544.5625 L 165.71875 543.28125 C 165.53125 543.09375 165.265625 543 165 543 L 164 543 L 164 544 C 164 544.265625 164.09375 544.53125 164.28125 544.71875 L 167.5625 548 L 168.4375 548 L 171.71875 544.71875 C 171.90625 544.53125 172 544.265625 172 544 L 172 543 L 171 543 C 170.734375 543 170.46875 543.09375 170.28125 543.28125 L 169 544.5625 L 169 539 Z M 167 539 "/>
<path style=" stroke:none;fill-rule:evenodd;fill:rgb(74.509804%,74.509804%,74.509804%);fill-opacity:1;" d="M 163 549 L 163 553 L 173 553 L 173 549 Z M 166.34375 550.4375 C 166.363281 550.4375 166.386719 550.4375 166.40625 550.4375 C 166.695312 550.382812 167.003906 550.640625 167 550.9375 L 167 551 L 169 551 L 169 550.9375 C 168.996094 550.671875 169.234375 550.429688 169.5 550.429688 C 169.765625 550.429688 170.003906 550.671875 170 550.9375 L 170 551 C 170 551.546875 169.546875 552 169 552 L 167 552 C 166.453125 552 166 551.546875 166 551 L 166 550.9375 C 165.988281 550.71875 166.136719 550.503906 166.34375 550.4375 Z M 166.34375 550.4375 "/>
</g>
</svg>
