<?xml version="1.0" encoding="UTF-8"?>
<svg xmlns="http://www.w3.org/2000/svg" xmlns:xlink="http://www.w3.org/1999/xlink" width="16pt" height="16pt" viewBox="0 0 16 16" version="1.1">
<g id="surface3">
<path style="fill:none;stroke-width:2;stroke-linecap:butt;stroke-linejoin:miter;stroke:rgb(74.509804%,74.509804%,74.509804%);stroke-opacity:1;stroke-miterlimit:4;" d="M 29.9997 300 L 30.4997 300 C 31.878606 300 32.9997 301.121094 32.9997 302.5 C 32.9997 303.878906 31.878606 305 30.4997 305 L 23.9997 305 " transform="matrix(-1,0,0,-1,35.9997,312)"/>
<path style=" stroke:none;fill-rule:nonzero;fill:rgb(74.509804%,74.509804%,74.509804%);fill-opacity:1;" d="M 9 3 L 9 4 C 9 4.257812 9.128906 4.527344 9.3125 4.71875 L 11.59375 7 L 9.3125 9.28125 C 9.128906 9.472656 9 9.742188 9 10 L 9 11 L 10 11 C 10.308594 11 10.550781 10.910156 10.75 10.71875 L 14.40625 7 L 10.75 3.28125 C 10.550781 3.089844 10.308594 3 10 3 Z M 9 3 "/>
</g>
</svg>
