<?xml version="1.0" encoding="UTF-8"?>
<svg xmlns="http://www.w3.org/2000/svg" xmlns:xlink="http://www.w3.org/1999/xlink" width="16pt" height="16pt" viewBox="0 0 16 16" version="1.1">
<g id="surface2">
<path style="fill:none;stroke-width:4.79974;stroke-linecap:butt;stroke-linejoin:round;stroke:rgb(74.509804%,74.509804%,74.509804%);stroke-opacity:1;stroke-miterlimit:4;" d="M 9.625 223.687497 C 9.625 226.9624 6.906347 229.624998 3.5625 229.624998 C 0.218652 229.624998 -2.5 226.9624 -2.5 223.687497 C -2.5 220.412594 0.218652 217.749997 3.5625 217.749997 C 6.906347 217.749997 9.625 220.412594 9.625 223.687497 Z M 9.625 223.687497 " transform="matrix(0.412371,0,0,0.421053,2.030928,-81.6842)"/>
<path style="fill:none;stroke-width:4.79974;stroke-linecap:butt;stroke-linejoin:round;stroke:rgb(74.509804%,74.509804%,74.509804%);stroke-opacity:1;stroke-miterlimit:4;" d="M 9.625 223.687492 C 9.625 226.962394 6.906349 229.624992 3.562501 229.624992 C 0.218654 229.624992 -2.499998 226.962394 -2.499998 223.687492 C -2.499998 220.412589 0.218654 217.749991 3.562501 217.749991 C 6.906349 217.749991 9.625 220.412589 9.625 223.687492 Z M 9.625 223.687492 " transform="matrix(0.412371,0,0,0.421053,11.030927,-81.6842)"/>
<path style=" stroke:none;fill-rule:nonzero;fill:rgb(74.509804%,74.509804%,74.509804%);fill-opacity:1;" d="M 3.097656 0 C 2.035156 0.554688 1.691406 1.757812 2.300781 2.71875 L 6.722656 10 L 4.976562 12.367188 L 6.390625 14.453125 L 8 11.96875 L 9.578125 14.453125 L 10.980469 12.457031 L 9.277344 10 L 13.699219 2.71875 C 14.308594 1.757812 13.964844 0.554688 12.902344 0 L 8 8 Z M 3.097656 0 "/>
</g>
</svg>
