<?xml version="1.0" encoding="UTF-8"?>
<svg xmlns="http://www.w3.org/2000/svg" xmlns:xlink="http://www.w3.org/1999/xlink" width="16pt" height="16pt" viewBox="0 0 16 16" version="1.1">
<g id="surface2">
<path style=" stroke:none;fill-rule:nonzero;fill:rgb(74.509804%,74.509804%,74.509804%);fill-opacity:1;" d="M 5.5 0 C 2.476562 0 0 2.476562 0 5.5 C 0 7.5 1.089844 9.25 2.699219 10.210938 L 4.0625 8.6875 C 2.839844 8.144531 2 6.929688 2 5.5 C 2 3.558594 3.554688 2 5.5 2 C 6.898438 2 8.09375 2.796875 8.65625 3.96875 L 10.125 2.5 C 9.140625 0.996094 7.421875 0 5.5 0 Z M 10.40625 8.96875 L 9 10.375 L 12.28125 13.6875 C 12.648438 14.0625 13.328125 14.070312 13.703125 13.703125 C 14.078125 13.335938 14.085938 12.65625 13.71875 12.28125 Z M 10.40625 8.96875 "/>
<path style=" stroke:none;fill-rule:evenodd;fill:rgb(74.509804%,74.509804%,74.509804%);fill-opacity:1;" d="M 3 11 L 12 2 C 13 2 14 3 14 4 L 5 13 L 3 13 Z M 3 11 "/>
<path style=" stroke:none;fill-rule:nonzero;fill:rgb(74.509804%,74.509804%,74.509804%);fill-opacity:1;" d="M 13 1 C 14 1 15 2 15 3 L 16 2 C 16 1 15.25 0 14 0 Z M 13 1 "/>
</g>
</svg>
