<?xml version="1.0" encoding="UTF-8"?>
<svg xmlns="http://www.w3.org/2000/svg" xmlns:xlink="http://www.w3.org/1999/xlink" width="16pt" height="16pt" viewBox="0 0 16 16" version="1.1">
<g id="surface3">
<path style="fill:none;stroke-width:2;stroke-linecap:butt;stroke-linejoin:miter;stroke:rgb(74.509804%,74.509804%,74.509804%);stroke-opacity:1;stroke-miterlimit:4;" d="M 29.9998 300 L 30.4998 300 C 31.878706 300 32.9998 301.121094 32.9998 302.5 C 32.9998 303.878906 31.878706 305 30.4998 305 L 23.9998 305 " transform="matrix(1,0,0,-1,-19.9998,312)"/>
<path style=" stroke:none;fill-rule:nonzero;fill:rgb(74.509804%,74.509804%,74.509804%);fill-opacity:1;" d="M 7 3.023438 L 7 4.023438 C 7 4.277344 6.871094 4.550781 6.6875 4.742188 L 4.40625 7.023438 L 6.6875 9.304688 C 6.871094 9.492188 7 9.765625 7 10.023438 L 7 11.023438 L 6 11.023438 C 5.691406 11.023438 5.449219 10.933594 5.25 10.742188 L 1.59375 7.023438 L 5.25 3.304688 C 5.449219 3.113281 5.691406 3.023438 6 3.023438 Z M 7 3.023438 "/>
</g>
</svg>
