<?xml version="1.0" encoding="UTF-8"?>
<svg xmlns="http://www.w3.org/2000/svg" xmlns:xlink="http://www.w3.org/1999/xlink" width="16pt" height="16pt" viewBox="0 0 16 16" version="1.1">
<g id="surface2">
<path style=" stroke:none;fill-rule:nonzero;fill:rgb(74.509804%,74.509804%,74.509804%);fill-opacity:1;" d="M 10 2 L 16 8 L 10 14 L 0.964844 14 C 0.433594 13.976562 0 13.507812 0 13 L 0 3 C 0 2.46875 0.34375 2 1.007812 2 Z M 9 5 L 8 5 C 7.988281 5 7.980469 5 7.96875 5 C 7.714844 5.011719 7.457031 5.128906 7.28125 5.3125 L 6 6.59375 L 4.6875 5.3125 C 4.421875 5.082031 4.242188 5.007812 4 5 L 3 5 L 3 6 C 3 6.285156 3.035156 6.550781 3.25 6.75 L 4.53125 8.03125 L 3.28125 9.28125 C 3.09375 9.46875 3 9.734375 3 10 L 3 11 L 4 11 C 4.265625 11 4.53125 10.90625 4.71875 10.71875 L 6 9.4375 L 7.28125 10.71875 C 7.46875 10.90625 7.734375 11 8 11 L 9 11 L 9 10 C 9 9.734375 8.90625 9.46875 8.71875 9.28125 L 7.4375 8.03125 L 8.71875 6.75 C 8.929688 6.554688 9.023438 6.28125 9 6 Z M 9 5 "/>
</g>
</svg>
