<?xml version="1.0" encoding="UTF-8"?>
<svg xmlns="http://www.w3.org/2000/svg" xmlns:xlink="http://www.w3.org/1999/xlink" width="534pt" height="136pt" viewBox="0 0 534 136" version="1.1">
<g id="surface2">
<path style="fill:none;stroke-width:2;stroke-linecap:round;stroke-linejoin:miter;stroke:rgb(74.509804%,74.509804%,74.509804%);stroke-opacity:1;stroke-miterlimit:4;" d="M 134.9375 529.0625 L 129.3125 525.75 " transform="matrix(0,-1,1,0,0,136)"/>
<path style=" stroke:none;fill-rule:nonzero;fill:rgb(74.509804%,74.509804%,74.509804%);fill-opacity:1;" d="M 523.21875 5.09375 L 528.167969 8.148438 C 528.769531 8.460938 528.984375 9.261719 528.332031 9.746094 L 527.707031 9.960938 L 521.691406 6.441406 L 521.707031 5.53125 C 521.996094 4.945312 522.460938 4.714844 523.21875 5.09375 Z M 523.21875 5.09375 "/>
<path style=" stroke:none;fill-rule:nonzero;fill:rgb(74.509804%,74.509804%,74.509804%);fill-opacity:1;" d="M 521.023438 7.203125 C 520.160156 7.550781 519.464844 8.292969 519.171875 9.175781 C 518.882812 10.058594 519 11.066406 519.484375 11.859375 C 519.796875 12.371094 520.25 12.785156 520.761719 13.09375 C 521.273438 13.402344 521.839844 13.609375 522.425781 13.742188 C 523.589844 14.011719 524.796875 14 525.992188 14 L 530 14 C 529.160156 14.117188 528.289062 13.992188 527.511719 13.648438 C 527.175781 13.5 526.851562 13.308594 526.597656 13.039062 C 526.34375 12.769531 526.164062 12.417969 526.148438 12.050781 C 526.132812 11.761719 526.222656 11.46875 526.394531 11.234375 C 526.566406 11 526.816406 10.828125 527.097656 10.753906 Z M 521.023438 7.203125 "/>
</g>
</svg>
