<?xml version="1.0" encoding="UTF-8"?>
<svg xmlns="http://www.w3.org/2000/svg" xmlns:xlink="http://www.w3.org/1999/xlink" width="16pt" height="16pt" viewBox="0 0 16 16" version="1.1">
<g id="surface2">
<path style=" stroke:none;fill-rule:nonzero;fill:rgb(74.509804%,74.509804%,74.509804%);fill-opacity:1;" d="M 7.933594 2 L 0 2.011719 L -0.00390625 13.980469 L 9.964844 13.980469 L 9.992188 4.0625 C 9.992188 2.9375 9.058594 2 7.933594 2 Z M 3.015625 5 L 4.015625 5 C 4.324219 5 4.566406 5.089844 4.765625 5.28125 L 7.421875 8 L 4.765625 10.71875 C 4.566406 10.910156 4.324219 11 4.015625 11 L 3.015625 11 L 3.015625 10 C 3.015625 9.742188 3.144531 9.472656 3.328125 9.28125 L 4.609375 8 L 3.328125 6.71875 C 3.144531 6.527344 3.015625 6.257812 3.015625 6 Z M 3.015625 5 "/>
<path style=" stroke:none;fill-rule:nonzero;fill:rgb(74.509804%,74.509804%,74.509804%);fill-opacity:1;" d="M 9.984375 2.03125 C 9.984375 2.03125 11.015625 2.515625 11.015625 4 L 11.015625 14 L 12 14 L 12 4 C 12 2.75 9.984375 2.03125 9.984375 2.03125 Z M 9.984375 2.03125 "/>
<path style=" stroke:none;fill-rule:nonzero;fill:rgb(74.509804%,74.509804%,74.509804%);fill-opacity:1;" d="M 11.96875 2.03125 C 11.96875 2.03125 13 2.515625 13 4 L 13 14 L 14 14 L 14 4 C 14 2.75 11.96875 2.03125 11.96875 2.03125 Z M 11.96875 2.03125 "/>
</g>
</svg>
