<?xml version="1.0" encoding="UTF-8"?>
<svg xmlns="http://www.w3.org/2000/svg" xmlns:xlink="http://www.w3.org/1999/xlink" width="16pt" height="16pt" viewBox="0 0 16 16" version="1.1">
<g id="surface2">
<path style=" stroke:none;fill-rule:nonzero;fill:rgb(74.509804%,74.509804%,74.509804%);fill-opacity:1;" d="M 0 5 L 0 6 C 0 6.257812 0.128906 6.527344 0.3125 6.71875 L 1.59375 8 L 0.3125 9.28125 C 0.128906 9.472656 0 9.742188 0 10 L 0 11 L 1 11 C 1.308594 11 1.550781 10.910156 1.75 10.71875 L 4.40625 8 L 1.75 5.28125 C 1.550781 5.089844 1.308594 5 1 5 Z M 0 5 "/>
<path style=" stroke:none;fill-rule:nonzero;fill:rgb(74.509804%,74.509804%,74.509804%);fill-opacity:1;" d="M 16 5 L 16 6 C 16 6.257812 15.871094 6.527344 15.6875 6.71875 L 14.40625 8 L 15.6875 9.28125 C 15.871094 9.472656 16 9.742188 16 10 L 16 11 L 15 11 C 14.691406 11 14.449219 10.910156 14.25 10.71875 L 11.59375 8 L 14.25 5.28125 C 14.449219 5.089844 14.691406 5 15 5 Z M 16 5 "/>
<path style="fill:none;stroke-width:2;stroke-linecap:butt;stroke-linejoin:miter;stroke:rgb(74.509804%,74.509804%,74.509804%);stroke-opacity:1;stroke-miterlimit:4;" d="M 128.0002 361.011719 L 129.922075 361.011719 C 130.492388 361.011719 131.004106 361.546875 131.004106 362.09375 L 131.004106 367.023438 L 129.0002 367.023438 C 126.207231 367.023438 126.3127 364.015625 129.0002 364.015625 L 131.004106 364.015625 " transform="matrix(1,0,0,1,-121.0002,-357)"/>
</g>
</svg>
