<?xml version="1.0" encoding="UTF-8"?>
<svg xmlns="http://www.w3.org/2000/svg" xmlns:xlink="http://www.w3.org/1999/xlink" width="16pt" height="16pt" viewBox="0 0 16 16" version="1.1">
<g id="surface2">
<path style=" stroke:none;fill-rule:nonzero;fill:rgb(74.509804%,74.509804%,74.509804%);fill-opacity:1;" d="M 8 3 L 13 3 L 13 5 L 8 5 Z M 8 3 "/>
<path style=" stroke:none;fill-rule:nonzero;fill:rgb(74.509804%,74.509804%,74.509804%);fill-opacity:1;" d="M 8 7 L 14 7 L 14 9 L 8 9 Z M 8 7 "/>
<path style=" stroke:none;fill-rule:nonzero;fill:rgb(74.509804%,74.509804%,74.509804%);fill-opacity:1;" d="M 2 11 L 9 11 L 9 13 L 2 13 Z M 2 11 "/>
<path style=" stroke:none;fill-rule:nonzero;fill:rgb(74.509804%,74.509804%,74.509804%);fill-opacity:1;" d="M 2 3 L 2 4 C 2 4.257812 2.128906 4.527344 2.3125 4.71875 L 3.59375 6 L 2.3125 7.28125 C 2.128906 7.472656 2 7.742188 2 8 L 2 9 L 3 9 C 3.308594 9 3.550781 8.910156 3.75 8.71875 L 6.40625 6 L 3.75 3.28125 C 3.550781 3.089844 3.308594 3 3 3 Z M 2 3 "/>
</g>
</svg>
