<?xml version="1.0" encoding="UTF-8"?>
<svg xmlns="http://www.w3.org/2000/svg" xmlns:xlink="http://www.w3.org/1999/xlink" width="16pt" height="16pt" viewBox="0 0 16 16" version="1.1">
<g id="surface2">
<path style=" stroke:none;fill-rule:nonzero;fill:rgb(74.509804%,74.509804%,74.509804%);fill-opacity:1;" d="M 7 3 L 2 3 L 2 5 L 7 5 Z M 7 3 "/>
<path style=" stroke:none;fill-rule:nonzero;fill:rgb(74.509804%,74.509804%,74.509804%);fill-opacity:1;" d="M 8 7 L 2 7 L 2 9 L 8 9 Z M 8 7 "/>
<path style=" stroke:none;fill-rule:nonzero;fill:rgb(74.509804%,74.509804%,74.509804%);fill-opacity:1;" d="M 14 11 L 7 11 L 7 13 L 14 13 Z M 14 11 "/>
<path style=" stroke:none;fill-rule:nonzero;fill:rgb(74.509804%,74.509804%,74.509804%);fill-opacity:1;" d="M 14 3 L 14 4 C 14 4.257812 13.871094 4.527344 13.6875 4.71875 L 12.40625 6 L 13.6875 7.28125 C 13.871094 7.472656 14 7.742188 14 8 L 14 9 L 13 9 C 12.691406 9 12.449219 8.910156 12.25 8.71875 L 9.59375 6 L 12.25 3.28125 C 12.449219 3.089844 12.691406 3 13 3 Z M 14 3 "/>
</g>
</svg>
