<?xml version="1.0" encoding="UTF-8"?>
<svg xmlns="http://www.w3.org/2000/svg" xmlns:xlink="http://www.w3.org/1999/xlink" width="156pt" height="373pt" viewBox="0 0 156 373" version="1.1">
<g id="surface2">
<path style=" stroke:none;fill-rule:nonzero;fill:rgb(74.509804%,74.509804%,74.509804%);fill-opacity:1;" d="M 144 360 L 144 362 L 150 362 C 150.429688 362 151 362.613281 151 363 L 153 363 C 153 361.367188 151.679688 360 150 360 Z M 143 367 C 143.007812 367.71875 143.269531 368.453125 143.78125 369.03125 C 144.292969 369.609375 145.089844 370 146 370 L 153 370 L 153 367 L 151 367 L 151 368 L 146 368 C 145.601562 368 145.433594 367.890625 145.28125 367.71875 C 145.128906 367.546875 145.003906 367.28125 145 367 Z M 143 367 "/>
<path style="fill:none;stroke-width:2;stroke-linecap:butt;stroke-linejoin:miter;stroke:rgb(74.509804%,74.509804%,74.509804%);stroke-opacity:1;stroke-miterlimit:4;" d="M 141.999998 365 L 155.999998 365 " transform="matrix(1,0,0,1,-0.999998,0)"/>
</g>
</svg>
