<?xml version="1.0" encoding="UTF-8"?>
<svg xmlns="http://www.w3.org/2000/svg" xmlns:xlink="http://www.w3.org/1999/xlink" width="16pt" height="16pt" viewBox="0 0 16 16" version="1.1">
<g id="surface3">
<path style="fill:none;stroke-width:2;stroke-linecap:butt;stroke-linejoin:miter;stroke:rgb(74.509804%,74.509804%,74.509804%);stroke-opacity:1;stroke-miterlimit:4;" d="M 29.99975 300.0001 L 30.49975 300.0001 C 31.878656 300.0001 32.99975 301.121194 32.99975 302.5001 C 32.99975 303.879006 31.878656 305.0001 30.49975 305.0001 L 23.99975 305.0001 " transform="matrix(0,-1,1,0,-296.0001,35.99975)"/>
<path style=" stroke:none;fill-rule:nonzero;fill:rgb(74.509804%,74.509804%,74.509804%);fill-opacity:1;" d="M 13 9 L 12 9 C 11.742188 9 11.472656 9.128906 11.28125 9.3125 L 9 11.59375 L 6.71875 9.3125 C 6.527344 9.128906 6.257812 9 6 9 L 5 9 L 5 10 C 5 10.308594 5.089844 10.550781 5.28125 10.75 L 9 14.40625 L 12.71875 10.75 C 12.910156 10.550781 13 10.308594 13 10 Z M 13 9 "/>
</g>
</svg>
