<?xml version="1.0" encoding="UTF-8"?>
<svg xmlns="http://www.w3.org/2000/svg" xmlns:xlink="http://www.w3.org/1999/xlink" width="16pt" height="16pt" viewBox="0 0 16 16" version="1.1">
<g id="surface3">
<path style="fill:none;stroke-width:2;stroke-linecap:butt;stroke-linejoin:miter;stroke:rgb(74.509804%,74.509804%,74.509804%);stroke-opacity:1;stroke-miterlimit:4;" d="M 29.99975 299.9999 L 30.49975 299.9999 C 31.878656 299.9999 32.99975 301.120994 32.99975 302.4999 C 32.99975 303.878806 31.878656 304.9999 30.49975 304.9999 L 23.99975 304.9999 " transform="matrix(0,-1,-1,0,311.9999,35.99975)"/>
<path style=" stroke:none;fill-rule:nonzero;fill:rgb(74.509804%,74.509804%,74.509804%);fill-opacity:1;" d="M 3 9 L 4 9 C 4.257812 9 4.527344 9.128906 4.71875 9.3125 L 7 11.59375 L 9.28125 9.3125 C 9.472656 9.128906 9.742188 9 10 9 L 11 9 L 11 10 C 11 10.308594 10.910156 10.550781 10.71875 10.75 L 7 14.40625 L 3.28125 10.75 C 3.089844 10.550781 3 10.308594 3 10 Z M 3 9 "/>
</g>
</svg>
