<?xml version="1.0" encoding="UTF-8"?>
<svg xmlns="http://www.w3.org/2000/svg" xmlns:xlink="http://www.w3.org/1999/xlink" width="16pt" height="16pt" viewBox="0 0 16 16" version="1.1">
<g id="surface2">
<path style=" stroke:none;fill-rule:nonzero;fill:rgb(74.509804%,74.509804%,74.509804%);fill-opacity:1;" d="M 2 0 L 2 9 L 14 9 L 14 0 Z M 4 2 L 12 2 L 12 7 L 4 7 Z M 4 2 "/>
<path style=" stroke:none;fill-rule:nonzero;fill:rgb(74.509804%,74.509804%,74.509804%);fill-opacity:0.34902;" d="M 5 5 C 7.320312 6 8.042969 3.339844 11 5 L 11 6 L 5 6 Z M 5 5 "/>
<path style=" stroke:none;fill-rule:nonzero;fill:rgb(74.509804%,74.509804%,74.509804%);fill-opacity:1;" d="M 11.003906 11.039062 L 10.003906 11.039062 C 9.746094 11.039062 9.472656 11.167969 9.28125 11.351562 L 8 12.632812 L 6.71875 11.351562 C 6.527344 11.167969 6.253906 11.039062 5.996094 11.039062 L 4.996094 11.039062 L 4.996094 12.039062 C 4.996094 12.351562 5.085938 12.59375 5.277344 12.789062 L 8 15.449219 L 10.722656 12.789062 C 10.914062 12.59375 11.003906 12.351562 11.003906 12.039062 Z M 11.003906 11.039062 "/>
</g>
</svg>
