<?xml version="1.0" encoding="UTF-8"?>
<svg xmlns="http://www.w3.org/2000/svg" xmlns:xlink="http://www.w3.org/1999/xlink" width="16pt" height="16pt" viewBox="0 0 16 16" version="1.1">
<g id="surface2">
<path style=" stroke:none;fill-rule:nonzero;fill:rgb(74.509804%,74.509804%,74.509804%);fill-opacity:1;" d="M 8 0 L 3 3.144531 L 3 7.855469 L 8 11 L 13 7.855469 L 13 3.144531 Z M 8 6 L 4.355469 3.824219 L 8 1.53125 L 11.644531 3.824219 Z M 8 6 "/>
<path style=" stroke:none;fill-rule:nonzero;fill:rgb(74.509804%,74.509804%,74.509804%);fill-opacity:1;" d="M 11 12 L 10 12 C 9.742188 12 9.472656 12.117188 9.28125 12.285156 L 8 13.445312 L 6.71875 12.285156 C 6.527344 12.117188 6.257812 12 6 12 L 5 12 L 5 12.90625 C 5 13.1875 5.089844 13.410156 5.28125 13.589844 L 8 16 L 10.71875 13.589844 C 10.910156 13.410156 11 13.1875 11 12.90625 Z M 11 12 "/>
</g>
</svg>
