<?xml version="1.0" encoding="UTF-8"?>
<svg xmlns="http://www.w3.org/2000/svg" xmlns:xlink="http://www.w3.org/1999/xlink" width="35pt" height="312pt" viewBox="0 0 35 312" version="1.1">
<g id="surface3">
<path style=" stroke:none;fill-rule:nonzero;fill:rgb(74.509804%,74.509804%,74.509804%);fill-opacity:1;" d="M 28 303 L 28 302 C 28 301.734375 27.90625 301.46875 27.71875 301.28125 L 24.4375 298 L 23.5625 298 L 20.28125 301.28125 C 20.09375 301.46875 20 301.734375 20 302 L 20 303 L 21 303 C 21.265625 303 21.53125 302.90625 21.71875 302.71875 L 24 300.4375 L 26.28125 302.71875 C 26.46875 302.90625 26.734375 303 27 303 Z M 28 303 "/>
<path style="fill:none;stroke-width:2;stroke-linecap:butt;stroke-linejoin:miter;stroke:rgb(74.509804%,74.509804%,74.509804%);stroke-opacity:1;stroke-miterlimit:4;" d="M 24.9998 307 L 24.9998 300 " transform="matrix(1,0,0,1,-0.9998,0)"/>
<path style=" stroke:none;fill-rule:nonzero;fill:rgb(74.509804%,74.509804%,74.509804%);fill-opacity:1;" d="M 34 304 L 34 305 C 34 305.265625 33.90625 305.53125 33.71875 305.71875 L 30.4375 309 L 29.5625 309 L 26.28125 305.71875 C 26.09375 305.53125 26 305.265625 26 305 L 26 304 L 27 304 C 27.265625 304 27.53125 304.09375 27.71875 304.28125 L 30 306.5625 L 32.28125 304.28125 C 32.46875 304.09375 32.734375 304 33 304 Z M 34 304 "/>
<path style="fill:none;stroke-width:2;stroke-linecap:butt;stroke-linejoin:miter;stroke:rgb(74.509804%,74.509804%,74.509804%);stroke-opacity:1;stroke-miterlimit:4;" d="M 30.9998 300 L 30.9998 307 " transform="matrix(1,0,0,1,-0.9998,0)"/>
</g>
</svg>
