<?xml version="1.0" encoding="UTF-8"?>
<svg xmlns="http://www.w3.org/2000/svg" xmlns:xlink="http://www.w3.org/1999/xlink" width="16pt" height="16pt" viewBox="0 0 16 16" version="1.1">
<g id="surface2">
<path style=" stroke:none;fill-rule:nonzero;fill:rgb(74.509804%,74.509804%,74.509804%);fill-opacity:1;" d="M 1.0625 4 C 1.238281 4.007812 1.414062 4.058594 1.5625 4.15625 L 6.5625 7.15625 C 6.84375 7.335938 7 7.667969 7 8 C 7 8.332031 6.84375 8.664062 6.5625 8.84375 L 1.5625 11.84375 C 1.414062 11.941406 1.238281 11.992188 1.0625 12 L 0.0625 12 L 0.0625 4 Z M 1.0625 4 "/>
<path style=" stroke:none;fill-rule:nonzero;fill:rgb(74.509804%,74.509804%,74.509804%);fill-opacity:1;" d="M 8.0625 4 C 8.238281 4.007812 8.414062 4.058594 8.5625 4.15625 L 13.5625 7.15625 C 13.84375 7.335938 14 7.667969 14 8 C 14 8.332031 13.84375 8.664062 13.5625 8.84375 L 8.5625 11.84375 C 8.414062 11.941406 8.238281 11.992188 8.0625 12 L 7.0625 12 L 7.0625 4 Z M 8.0625 4 "/>
</g>
</svg>
