<?xml version="1.0" encoding="UTF-8"?>
<svg xmlns="http://www.w3.org/2000/svg" xmlns:xlink="http://www.w3.org/1999/xlink" width="16pt" height="16pt" viewBox="0 0 16 16" version="1.1">
<g id="surface3">
<path style="fill:none;stroke-width:2;stroke-linecap:butt;stroke-linejoin:miter;stroke:rgb(74.509804%,74.509804%,74.509804%);stroke-opacity:1;stroke-miterlimit:4;" d="M 32.9998 298.0003 L 32.9998 302.5003 C 32.9998 303.879206 31.878706 305.0003 30.4998 305.0003 L 24.9998 305.0003 " transform="matrix(0,-1,1,0,-295.0003,36.9998)"/>
<path style=" stroke:none;fill-rule:nonzero;fill:rgb(74.509804%,74.509804%,74.509804%);fill-opacity:1;" d="M 6 9 L 7 9 C 7.257812 9 7.527344 9.128906 7.71875 9.3125 L 10 11.59375 L 12.28125 9.3125 C 12.472656 9.128906 12.742188 9 13 9 L 14 9 L 14 10 C 14 10.308594 13.910156 10.550781 13.71875 10.75 L 10 14.40625 L 6.28125 10.75 C 6.089844 10.550781 6 10.308594 6 10 Z M 6 9 "/>
</g>
</svg>
