<?xml version="1.0" encoding="UTF-8"?>
<svg xmlns="http://www.w3.org/2000/svg" xmlns:xlink="http://www.w3.org/1999/xlink" width="35pt" height="312pt" viewBox="0 0 35 312" version="1.1">
<g id="surface3">
<path style="fill:none;stroke-width:2;stroke-linecap:butt;stroke-linejoin:miter;stroke:rgb(74.509804%,74.509804%,74.509804%);stroke-opacity:1;stroke-miterlimit:4;" d="M 32.9997 304 L 22.9997 304 " transform="matrix(-1,0,0,-1,35.9997,312)"/>
<path style=" stroke:none;fill-rule:nonzero;fill:rgb(74.509804%,74.509804%,74.509804%);fill-opacity:1;" d="M 10 4 L 10 5 C 10 5.257812 10.128906 5.527344 10.3125 5.71875 L 12.59375 8 L 10.3125 10.28125 C 10.128906 10.472656 10 10.742188 10 11 L 10 12 L 11 12 C 11.308594 12 11.550781 11.910156 11.75 11.71875 L 15.40625 8 L 11.75 4.28125 C 11.550781 4.089844 11.308594 4 11 4 Z M 10 4 "/>
<path style=" stroke:none;fill-rule:nonzero;fill:rgb(74.509804%,74.509804%,74.509804%);fill-opacity:1;" d="M 6 4 L 6 5 C 6 5.257812 5.871094 5.527344 5.6875 5.71875 L 3.40625 8 L 5.6875 10.28125 C 5.871094 10.472656 6 10.742188 6 11 L 6 12 L 5 12 C 4.691406 12 4.449219 11.910156 4.25 11.71875 L 0.59375 8 L 4.25 4.28125 C 4.449219 4.089844 4.691406 4 5 4 Z M 6 4 "/>
</g>
</svg>
