<?xml version="1.0" encoding="UTF-8"?>
<svg xmlns="http://www.w3.org/2000/svg" xmlns:xlink="http://www.w3.org/1999/xlink" width="16pt" height="16pt" viewBox="0 0 16 16" version="1.1">
<g id="surface2">
<path style=" stroke:none;fill-rule:nonzero;fill:rgb(74.509804%,74.509804%,74.509804%);fill-opacity:1;" d="M 11.375 0.25 C 11.136719 0.683594 10.90625 1.253906 10.65625 1.6875 C 10.5625 1.679688 10.46875 1.65625 10.375 1.65625 C 10.042969 1.65625 9.714844 1.703125 9.40625 1.78125 C 9.101562 1.398438 8.777344 0.882812 8.46875 0.5 C 8.183594 0.605469 7.917969 0.726562 7.65625 0.875 C 7.753906 1.359375 7.933594 1.945312 8.03125 2.4375 C 7.6875 2.6875 7.40625 2.96875 7.15625 3.3125 C 6.664062 3.214844 6.078125 3.035156 5.59375 2.9375 C 5.445312 3.199219 5.324219 3.464844 5.21875 3.75 C 5.601562 4.058594 6.117188 4.382812 6.5 4.6875 C 6.421875 4.996094 6.375 5.324219 6.375 5.65625 C 6.375 5.75 6.398438 5.84375 6.40625 5.9375 C 5.972656 6.1875 5.402344 6.417969 4.96875 6.65625 C 5.019531 6.929688 5.097656 7.210938 5.1875 7.46875 C 5.679688 7.457031 6.285156 7.375 6.78125 7.375 C 6.96875 7.765625 7.203125 8.128906 7.5 8.4375 C 7.328125 8.90625 7.050781 9.445312 6.875 9.90625 C 7.089844 10.082031 7.324219 10.234375 7.5625 10.375 C 7.933594 10.054688 8.339844 9.605469 8.71875 9.28125 C 9.097656 9.453125 9.507812 9.546875 9.9375 9.59375 C 10.101562 10.070312 10.242188 10.683594 10.40625 11.15625 C 10.707031 11.152344 10.992188 11.140625 11.28125 11.09375 C 11.363281 10.601562 11.390625 9.976562 11.46875 9.46875 C 11.878906 9.351562 12.28125 9.203125 12.625 8.96875 C 13.050781 9.234375 13.523438 9.597656 13.9375 9.84375 C 14.160156 9.652344 14.371094 9.441406 14.5625 9.21875 C 14.316406 8.804688 13.953125 8.332031 13.6875 7.90625 C 13.921875 7.5625 14.070312 7.160156 14.1875 6.75 C 14.695312 6.671875 15.320312 6.644531 15.8125 6.5625 C 15.859375 6.273438 15.875 5.988281 15.875 5.6875 C 15.402344 5.523438 14.789062 5.382812 14.3125 5.21875 C 14.265625 4.789062 14.171875 4.378906 14 4 C 14.324219 3.621094 14.773438 3.214844 15.09375 2.84375 C 14.953125 2.605469 14.800781 2.371094 14.625 2.15625 C 14.164062 2.332031 13.625 2.609375 13.15625 2.78125 C 12.847656 2.484375 12.484375 2.25 12.09375 2.0625 C 12.09375 1.566406 12.175781 0.960938 12.1875 0.46875 C 11.929688 0.378906 11.648438 0.300781 11.375 0.25 Z M 10.375 3.65625 C 11.480469 3.65625 12.375 4.550781 12.375 5.65625 C 12.375 6.761719 11.480469 7.65625 10.375 7.65625 C 9.269531 7.65625 8.375 6.761719 8.375 5.65625 C 8.375 4.550781 9.269531 3.65625 10.375 3.65625 Z M 10.375 3.65625 "/>
<path style=" stroke:none;fill-rule:nonzero;fill:rgb(74.509804%,74.509804%,74.509804%);fill-opacity:1;" d="M 3.6875 7.75 C 3.457031 7.796875 3.242188 7.882812 3.03125 7.96875 C 3.015625 8.59375 3.117188 9.410156 2.875 9.625 C 2.636719 9.835938 1.835938 9.660156 1.21875 9.59375 C 1.085938 9.832031 0.984375 10.078125 0.90625 10.34375 C 1.382812 10.738281 2.046875 11.183594 2.0625 11.5 C 2.078125 11.820312 1.4375 12.304688 1 12.75 C 1.101562 13.007812 1.25 13.242188 1.40625 13.46875 C 2.015625 13.34375 2.773438 13.09375 3.03125 13.28125 C 3.292969 13.46875 3.296875 14.285156 3.375 14.90625 C 3.625 14.980469 3.886719 15.011719 4.15625 15.03125 C 4.4375 14.476562 4.722656 13.710938 5.03125 13.625 C 5.347656 13.535156 5.996094 14.082031 6.53125 14.40625 C 6.75 14.253906 6.945312 14.070312 7.125 13.875 C 6.871094 13.300781 6.402344 12.582031 6.53125 12.28125 C 6.660156 11.980469 7.507812 11.8125 8.09375 11.59375 C 8.097656 11.519531 8.125 11.449219 8.125 11.375 C 8.125 11.183594 8.089844 10.996094 8.0625 10.8125 C 7.457031 10.652344 6.59375 10.570312 6.4375 10.28125 C 6.28125 9.992188 6.679688 9.21875 6.875 8.625 C 6.675781 8.445312 6.457031 8.289062 6.21875 8.15625 C 5.71875 8.53125 5.132812 9.152344 4.8125 9.09375 C 4.496094 9.039062 4.148438 8.273438 3.8125 7.75 C 3.773438 7.757812 3.726562 7.742188 3.6875 7.75 Z M 4.3125 9.625 C 5.246094 9.625 6 10.378906 6 11.3125 C 6 12.246094 5.246094 13 4.3125 13 C 3.378906 13 2.625 12.246094 2.625 11.3125 C 2.625 10.378906 3.378906 9.625 4.3125 9.625 Z M 4.3125 9.625 "/>
</g>
</svg>
