<?xml version="1.0" encoding="UTF-8"?>
<svg xmlns="http://www.w3.org/2000/svg" xmlns:xlink="http://www.w3.org/1999/xlink" width="16pt" height="16pt" viewBox="0 0 16 16" version="1.1">
<g id="surface2">
<path style=" stroke:none;fill-rule:nonzero;fill:rgb(74.509804%,74.509804%,74.509804%);fill-opacity:1;" d="M 3 2 C 3 2 1 2 1 4 L 1 12 L 0 12 L 0 14 L 3 14 L 3 4 L 13 4 L 13 14 L 16 14 L 16 12 L 15 12 L 15 4 C 15 4 15 2 13 2 Z M 3 2 "/>
<path style=" stroke:none;fill-rule:nonzero;fill:rgb(74.509804%,74.509804%,74.509804%);fill-opacity:1;" d="M 5 8 L 11 8 L 11 10 L 5 10 Z M 5 8 "/>
<path style=" stroke:none;fill-rule:nonzero;fill:rgb(74.509804%,74.509804%,74.509804%);fill-opacity:1;" d="M 9 6 L 9 12 L 7 12 L 7 6 Z M 9 6 "/>
</g>
</svg>
