<?xml version="1.0" encoding="UTF-8"?>
<svg xmlns="http://www.w3.org/2000/svg" xmlns:xlink="http://www.w3.org/1999/xlink" width="16pt" height="16pt" viewBox="0 0 16 16" version="1.1">
<g id="surface2">
<path style=" stroke:none;fill-rule:nonzero;fill:rgb(74.509804%,74.509804%,74.509804%);fill-opacity:1;" d="M 6.382812 0 L 9.617188 0 C 9.828125 0 10 0.226562 10 0.503906 L 10 3.496094 C 10 3.773438 9.828125 4 9.617188 4 L 6.382812 4 C 6.171875 4 6 3.773438 6 3.496094 L 6 0.503906 C 6 0.226562 6.171875 0 6.382812 0 Z M 6.382812 0 "/>
<path style=" stroke:none;fill-rule:nonzero;fill:rgb(74.509804%,74.509804%,74.509804%);fill-opacity:1;" d="M 6.382812 6 L 9.617188 6 C 9.828125 6 10 6.226562 10 6.503906 L 10 9.496094 C 10 9.773438 9.828125 10 9.617188 10 L 6.382812 10 C 6.171875 10 6 9.773438 6 9.496094 L 6 6.503906 C 6 6.226562 6.171875 6 6.382812 6 Z M 6.382812 6 "/>
<path style=" stroke:none;fill-rule:nonzero;fill:rgb(74.509804%,74.509804%,74.509804%);fill-opacity:1;" d="M 6.382812 12 L 9.617188 12 C 9.828125 12 10 12.226562 10 12.503906 L 10 15.496094 C 10 15.773438 9.828125 16 9.617188 16 L 6.382812 16 C 6.171875 16 6 15.773438 6 15.496094 L 6 12.503906 C 6 12.226562 6.171875 12 6.382812 12 Z M 6.382812 12 "/>
</g>
</svg>
