<?xml version="1.0" encoding="UTF-8"?>
<svg xmlns="http://www.w3.org/2000/svg" xmlns:xlink="http://www.w3.org/1999/xlink" width="16pt" height="16pt" viewBox="0 0 16 16" version="1.1">
<g id="surface2">
<path style=" stroke:none;fill-rule:nonzero;fill:rgb(74.509804%,74.509804%,74.509804%);fill-opacity:1;" d="M 3.382812 3 L 4.617188 3 C 4.828125 3 5 3.167969 5 3.378906 L 5 4.621094 C 5 4.832031 4.828125 5 4.617188 5 L 3.382812 5 C 3.171875 5 3 4.832031 3 4.621094 L 3 3.378906 C 3 3.167969 3.171875 3 3.382812 3 Z M 3.382812 3 "/>
<path style=" stroke:none;fill-rule:nonzero;fill:rgb(74.509804%,74.509804%,74.509804%);fill-opacity:1;" d="M 7.382812 3 L 8.617188 3 C 8.828125 3 9 3.167969 9 3.378906 L 9 4.621094 C 9 4.832031 8.828125 5 8.617188 5 L 7.382812 5 C 7.171875 5 7 4.832031 7 4.621094 L 7 3.378906 C 7 3.167969 7.171875 3 7.382812 3 Z M 7.382812 3 "/>
<path style=" stroke:none;fill-rule:nonzero;fill:rgb(74.509804%,74.509804%,74.509804%);fill-opacity:1;" d="M 11.382812 3 L 12.617188 3 C 12.828125 3 13 3.167969 13 3.378906 L 13 4.621094 C 13 4.832031 12.828125 5 12.617188 5 L 11.382812 5 C 11.171875 5 11 4.832031 11 4.621094 L 11 3.378906 C 11 3.167969 11.171875 3 11.382812 3 Z M 11.382812 3 "/>
<path style=" stroke:none;fill-rule:nonzero;fill:rgb(74.509804%,74.509804%,74.509804%);fill-opacity:1;" d="M 3.382812 7.015625 L 4.617188 7.015625 C 4.828125 7.015625 5 7.183594 5 7.394531 L 5 8.636719 C 5 8.847656 4.828125 9.015625 4.617188 9.015625 L 3.382812 9.015625 C 3.171875 9.015625 3 8.847656 3 8.636719 L 3 7.394531 C 3 7.183594 3.171875 7.015625 3.382812 7.015625 Z M 3.382812 7.015625 "/>
<path style=" stroke:none;fill-rule:nonzero;fill:rgb(74.509804%,74.509804%,74.509804%);fill-opacity:1;" d="M 7.382812 7.015625 L 8.617188 7.015625 C 8.828125 7.015625 9 7.183594 9 7.394531 L 9 8.636719 C 9 8.847656 8.828125 9.015625 8.617188 9.015625 L 7.382812 9.015625 C 7.171875 9.015625 7 8.847656 7 8.636719 L 7 7.394531 C 7 7.183594 7.171875 7.015625 7.382812 7.015625 Z M 7.382812 7.015625 "/>
<path style=" stroke:none;fill-rule:nonzero;fill:rgb(74.509804%,74.509804%,74.509804%);fill-opacity:1;" d="M 11.382812 7.015625 L 12.617188 7.015625 C 12.828125 7.015625 13 7.183594 13 7.394531 L 13 8.636719 C 13 8.847656 12.828125 9.015625 12.617188 9.015625 L 11.382812 9.015625 C 11.171875 9.015625 11 8.847656 11 8.636719 L 11 7.394531 C 11 7.183594 11.171875 7.015625 11.382812 7.015625 Z M 11.382812 7.015625 "/>
<path style=" stroke:none;fill-rule:nonzero;fill:rgb(74.509804%,74.509804%,74.509804%);fill-opacity:1;" d="M 3.382812 11 L 4.617188 11 C 4.828125 11 5 11.167969 5 11.378906 L 5 12.621094 C 5 12.832031 4.828125 13 4.617188 13 L 3.382812 13 C 3.171875 13 3 12.832031 3 12.621094 L 3 11.378906 C 3 11.167969 3.171875 11 3.382812 11 Z M 3.382812 11 "/>
<path style=" stroke:none;fill-rule:nonzero;fill:rgb(74.509804%,74.509804%,74.509804%);fill-opacity:1;" d="M 7.382812 11 L 8.617188 11 C 8.828125 11 9 11.167969 9 11.378906 L 9 12.621094 C 9 12.832031 8.828125 13 8.617188 13 L 7.382812 13 C 7.171875 13 7 12.832031 7 12.621094 L 7 11.378906 C 7 11.167969 7.171875 11 7.382812 11 Z M 7.382812 11 "/>
<path style=" stroke:none;fill-rule:nonzero;fill:rgb(74.509804%,74.509804%,74.509804%);fill-opacity:1;" d="M 11.382812 11 L 12.617188 11 C 12.828125 11 13 11.167969 13 11.378906 L 13 12.621094 C 13 12.832031 12.828125 13 12.617188 13 L 11.382812 13 C 11.171875 13 11 12.832031 11 12.621094 L 11 11.378906 C 11 11.167969 11.171875 11 11.382812 11 Z M 11.382812 11 "/>
</g>
</svg>
