<?xml version="1.0" encoding="UTF-8"?>
<svg xmlns="http://www.w3.org/2000/svg" xmlns:xlink="http://www.w3.org/1999/xlink" width="16pt" height="16pt" viewBox="0 0 16 16" version="1.1">
<g id="surface2">
<path style=" stroke:none;fill-rule:nonzero;fill:rgb(74.509804%,74.509804%,74.509804%);fill-opacity:1;" d="M 16 6.382812 L 16 9.613281 C 16 9.828125 15.773438 10 15.496094 10 L 12.503906 10 C 12.226562 10 12 9.828125 12 9.613281 L 12 6.382812 C 12 6.171875 12.226562 6 12.503906 6 L 15.496094 6 C 15.773438 6 16 6.171875 16 6.382812 Z M 16 6.382812 "/>
<path style=" stroke:none;fill-rule:nonzero;fill:rgb(74.509804%,74.509804%,74.509804%);fill-opacity:1;" d="M 10 6.382812 L 10 9.613281 C 10 9.828125 9.773438 10 9.496094 10 L 6.503906 10 C 6.226562 10 6 9.828125 6 9.613281 L 6 6.382812 C 6 6.171875 6.226562 6 6.503906 6 L 9.496094 6 C 9.773438 6 10 6.171875 10 6.382812 Z M 10 6.382812 "/>
<path style=" stroke:none;fill-rule:nonzero;fill:rgb(74.509804%,74.509804%,74.509804%);fill-opacity:1;" d="M 4 6.382812 L 4 9.613281 C 4 9.828125 3.773438 10 3.496094 10 L 0.503906 10 C 0.226562 10 0 9.828125 0 9.613281 L 0 6.382812 C 0 6.171875 0.226562 6 0.503906 6 L 3.496094 6 C 3.773438 6 4 6.171875 4 6.382812 Z M 4 6.382812 "/>
</g>
</svg>
