<?xml version="1.0" encoding="UTF-8"?>
<svg xmlns="http://www.w3.org/2000/svg" xmlns:xlink="http://www.w3.org/1999/xlink" width="16pt" height="16pt" viewBox="0 0 16 16" version="1.1">
<g id="surface2">
<path style=" stroke:none;fill-rule:nonzero;fill:rgb(74.509804%,74.509804%,74.509804%);fill-opacity:1;" d="M 4 4 L 5 4 C 5.011719 4 5.019531 4 5.03125 4 C 5.285156 4.011719 5.542969 4.128906 5.71875 4.3125 L 8 6.59375 L 10.3125 4.3125 C 10.578125 4.082031 10.757812 4.007812 11 4 L 12 4 L 12 5 C 12 5.285156 11.964844 5.550781 11.75 5.75 L 9.46875 8.03125 L 11.71875 10.28125 C 11.90625 10.46875 12 10.734375 12 11 L 12 12 L 11 12 C 10.734375 12 10.46875 11.90625 10.28125 11.71875 L 8 9.4375 L 5.71875 11.71875 C 5.53125 11.90625 5.265625 12 5 12 L 4 12 L 4 11 C 4 10.734375 4.09375 10.46875 4.28125 10.28125 L 6.5625 8.03125 L 4.28125 5.75 C 4.070312 5.554688 3.976562 5.28125 4 5 Z M 4 4 "/>
</g>
</svg>
