<?xml version="1.0" encoding="UTF-8"?>
<svg xmlns="http://www.w3.org/2000/svg" xmlns:xlink="http://www.w3.org/1999/xlink" width="16pt" height="16pt" viewBox="0 0 16 16" version="1.1">
<g id="surface2">
<path style=" stroke:none;fill-rule:nonzero;fill:rgb(74.509804%,74.509804%,74.509804%);fill-opacity:1;" d="M 8 0.96875 C 7.746094 0.96875 7.476562 1.054688 7.28125 1.25 L 1.25 7.28125 C 0.859375 7.671875 0.859375 8.328125 1.25 8.71875 L 5.59375 13.0625 L 6.59375 12.53125 C 6.578125 12.363281 6.5625 12.203125 6.5625 12.03125 C 6.5625 11.859375 6.578125 11.699219 6.59375 11.53125 L 4.75 10.53125 C 4.847656 10.085938 4.980469 9.660156 5.15625 9.25 L 7.25 9.53125 C 7.417969 9.242188 7.621094 8.96875 7.84375 8.71875 L 6.9375 6.8125 C 7.273438 6.515625 7.613281 6.230469 8 6 L 9.53125 7.46875 C 9.835938 7.332031 10.164062 7.230469 10.5 7.15625 L 10.90625 5.0625 C 11.121094 5.042969 11.34375 5.03125 11.5625 5.03125 C 11.78125 5.03125 12.003906 5.042969 12.21875 5.0625 L 12.625 7.15625 C 12.960938 7.230469 13.289062 7.332031 13.59375 7.46875 L 14.28125 6.8125 L 8.71875 1.25 C 8.523438 1.054688 8.253906 0.96875 8 0.96875 Z M 11.5625 9.03125 C 9.90625 9.03125 8.5625 10.375 8.5625 12.03125 C 8.5625 12.828125 8.867188 13.554688 9.375 14.09375 L 13.625 9.84375 C 13.085938 9.335938 12.359375 9.03125 11.5625 9.03125 Z M 7.25 14.53125 L 7.09375 14.5625 L 7.28125 14.75 C 7.339844 14.808594 7.429688 14.832031 7.5 14.875 C 7.417969 14.757812 7.324219 14.65625 7.25 14.53125 Z M 7.25 14.53125 "/>
</g>
</svg>
