<?xml version="1.0" encoding="UTF-8"?>
<svg xmlns="http://www.w3.org/2000/svg" xmlns:xlink="http://www.w3.org/1999/xlink" width="16pt" height="16pt" viewBox="0 0 16 16" version="1.1">
<g id="surface2">
<path style=" stroke:none;fill-rule:nonzero;fill:rgb(74.509804%,74.509804%,74.509804%);fill-opacity:1;" d="M 6 12 C 6 13.105469 5.105469 14 4 14 C 2.894531 14 2 13.105469 2 12 C 2 10.894531 2.894531 10 4 10 C 5.105469 10 6 10.894531 6 12 Z M 6 12 "/>
<path style=" stroke:none;fill-rule:nonzero;fill:rgb(74.509804%,74.509804%,74.509804%);fill-opacity:1;" d="M 2 2 L 2 3 C 2 3.550781 2.453125 4 3 4 C 7.96875 4 12 8.03125 12 13 C 12 13.550781 12.453125 14 13 14 L 14 14 L 14 13 C 14 6.925781 9.074219 2 3 2 Z M 2 6 L 2 7 C 2 7.550781 2.453125 8 3 8 C 5.761719 8 8 10.238281 8 13 C 8 13.550781 8.453125 14 9 14 L 10 14 L 10 13 C 10 9.132812 6.867188 6 3 6 Z M 2 6 "/>
</g>
</svg>
