<?xml version="1.0" encoding="UTF-8"?>
<svg xmlns="http://www.w3.org/2000/svg" xmlns:xlink="http://www.w3.org/1999/xlink" width="16pt" height="16pt" viewBox="0 0 16 16" version="1.1">
<g id="surface2">
<path style=" stroke:none;fill-rule:nonzero;fill:rgb(74.509804%,74.509804%,74.509804%);fill-opacity:1;" d="M 2 2 C 1.476562 2 1 2.476562 1 3 L 1 13 C 1 13.523438 1.476562 14 2 14 L 5 14 L 5 12 C 5 12 3.007812 11.980469 3 12 L 3 4 L 14 4 L 14 12 L 13 12 L 13 14 L 15 14 C 15.519531 14 16 13.566406 16 13 L 16 3 C 16 2.535156 15.5625 2 15 2 Z M 2 2 "/>
<path style=" stroke:none;fill-rule:nonzero;fill:rgb(74.509804%,74.509804%,74.509804%);fill-opacity:1;" d="M 12 8.0625 C 11.964844 9.695312 10.632812 11 9 11 C 7.367188 11 6.035156 9.695312 6 8.0625 C 5.976562 6.976562 6.542969 5.960938 7.480469 5.414062 C 8.417969 4.863281 9.582031 4.863281 10.519531 5.414062 C 11.457031 5.960938 12.023438 6.976562 12 8.0625 Z M 12 8.0625 "/>
<path style=" stroke:none;fill-rule:evenodd;fill:rgb(74.509804%,74.509804%,74.509804%);fill-opacity:1;" d="M 8 9 L 6 16 L 7 16 L 9 14 L 11 16 L 12 16 L 10 9 "/>
</g>
</svg>
