<?xml version="1.0" encoding="UTF-8"?>
<svg xmlns="http://www.w3.org/2000/svg" xmlns:xlink="http://www.w3.org/1999/xlink" width="226pt" height="440pt" viewBox="0 0 226 440" version="1.1">
<g id="surface2">
<path style=" stroke:none;fill-rule:nonzero;fill:rgb(74.509804%,74.509804%,74.509804%);fill-opacity:1;" d="M 52.03125 399.046875 C 52.03125 400.160156 51.128906 401.0625 50.015625 401.0625 C 48.902344 401.0625 48 400.160156 48 399.046875 C 48 397.933594 48.902344 397.03125 50.015625 397.03125 C 51.128906 397.03125 52.03125 397.933594 52.03125 399.046875 Z M 52.03125 399.046875 "/>
<path style=" stroke:none;fill-rule:nonzero;fill:rgb(74.509804%,74.509804%,74.509804%);fill-opacity:1;" d="M 52.03125 410.984375 C 52.03125 412.097656 51.128906 413 50.015625 413 C 48.902344 413 48 412.097656 48 410.984375 C 48 409.871094 48.902344 408.96875 50.015625 408.96875 C 51.128906 408.96875 52.03125 409.871094 52.03125 410.984375 Z M 52.03125 410.984375 "/>
<path style=" stroke:none;fill-rule:nonzero;fill:rgb(74.509804%,74.509804%,74.509804%);fill-opacity:1;" d="M 64.03125 410.984375 C 64.03125 412.097656 63.128906 413 62.015625 413 C 60.902344 413 60 412.097656 60 410.984375 C 60 409.871094 60.902344 408.96875 62.015625 408.96875 C 63.128906 408.96875 64.03125 409.871094 64.03125 410.984375 Z M 64.03125 410.984375 "/>
<path style=" stroke:none;fill-rule:nonzero;fill:rgb(74.509804%,74.509804%,74.509804%);fill-opacity:1;" d="M 64.03125 399.015625 C 64.03125 400.128906 63.128906 401.03125 62.015625 401.03125 C 60.902344 401.03125 60 400.128906 60 399.015625 C 60 397.902344 60.902344 397 62.015625 397 C 63.128906 397 64.03125 397.902344 64.03125 399.015625 Z M 64.03125 399.015625 "/>
<path style="fill:none;stroke-width:2;stroke-linecap:butt;stroke-linejoin:miter;stroke:rgb(74.509804%,74.509804%,74.509804%);stroke-opacity:1;stroke-miterlimit:4;" d="M -175.96875 -39.96875 L -164 -39.96875 L -164 -28 L -175.96875 -28 Z M -175.96875 -39.96875 " transform="matrix(1,0,0,1,226.03125,439.03125)"/>
<path style="fill:none;stroke-width:1;stroke-linecap:butt;stroke-linejoin:miter;stroke:rgb(74.509804%,74.509804%,74.509804%);stroke-opacity:1;stroke-miterlimit:4;" d="M 53.4375 403.5 L 58.5 403.5 L 58.5 408.5 L 53.4375 408.5 Z M 53.4375 403.5 " transform="matrix(1,0,0,1,0.03125,-0.96875)"/>
<path style=" stroke:none;fill-rule:nonzero;fill:rgb(74.509804%,74.509804%,74.509804%);fill-opacity:1;" d="M 60.03125 407.515625 C 60.03125 408.351562 59.351562 409.03125 58.515625 409.03125 C 57.679688 409.03125 57 408.351562 57 407.515625 C 57 406.679688 57.679688 406 58.515625 406 C 59.351562 406 60.03125 406.679688 60.03125 407.515625 Z M 60.03125 407.515625 "/>
<path style=" stroke:none;fill-rule:nonzero;fill:rgb(74.509804%,74.509804%,74.509804%);fill-opacity:1;" d="M 55.03125 407.515625 C 55.03125 408.351562 54.351562 409.03125 53.515625 409.03125 C 52.679688 409.03125 52 408.351562 52 407.515625 C 52 406.679688 52.679688 406 53.515625 406 C 54.351562 406 55.03125 406.679688 55.03125 407.515625 Z M 55.03125 407.515625 "/>
<path style=" stroke:none;fill-rule:nonzero;fill:rgb(74.509804%,74.509804%,74.509804%);fill-opacity:1;" d="M 55.03125 402.546875 C 55.03125 403.382812 54.351562 404.0625 53.515625 404.0625 C 52.679688 404.0625 52 403.382812 52 402.546875 C 52 401.710938 52.679688 401.03125 53.515625 401.03125 C 54.351562 401.03125 55.03125 401.710938 55.03125 402.546875 Z M 55.03125 402.546875 "/>
<path style=" stroke:none;fill-rule:nonzero;fill:rgb(74.509804%,74.509804%,74.509804%);fill-opacity:1;" d="M 60.09375 402.546875 C 60.09375 403.382812 59.414062 404.0625 58.578125 404.0625 C 57.742188 404.0625 57.0625 403.382812 57.0625 402.546875 C 57.0625 401.710938 57.742188 401.03125 58.578125 401.03125 C 59.414062 401.03125 60.09375 401.710938 60.09375 402.546875 Z M 60.09375 402.546875 "/>
<path style="fill:none;stroke-width:1;stroke-linecap:butt;stroke-linejoin:miter;stroke:rgb(74.509804%,74.509804%,74.509804%);stroke-opacity:1;stroke-miterlimit:4;" d="M -167.496094 -31.464844 L -164.070312 -28.039062 " transform="matrix(1,0,0,1,226.03125,439.03125)"/>
<path style="fill:none;stroke-width:1;stroke-linecap:butt;stroke-linejoin:miter;stroke:rgb(74.509804%,74.509804%,74.509804%);stroke-opacity:1;stroke-miterlimit:4;" d="M 53.929688 408.535156 L 50.503906 411.960938 " transform="matrix(1,0,0,1,0.03125,-0.96875)"/>
<path style="fill:none;stroke-width:1;stroke-linecap:butt;stroke-linejoin:miter;stroke:rgb(74.509804%,74.509804%,74.509804%);stroke-opacity:1;stroke-miterlimit:4;" d="M 58.503906 403.960938 L 61.929688 400.535156 " transform="matrix(1,0,0,1,0.03125,-0.96875)"/>
<path style="fill:none;stroke-width:1;stroke-linecap:butt;stroke-linejoin:miter;stroke:rgb(74.509804%,74.509804%,74.509804%);stroke-opacity:1;stroke-miterlimit:4;" d="M 53.929688 403.960938 L 50.503906 400.535156 " transform="matrix(1,0,0,1,0.03125,-0.96875)"/>
</g>
</svg>
