<?xml version="1.0" encoding="UTF-8"?>
<svg xmlns="http://www.w3.org/2000/svg" xmlns:xlink="http://www.w3.org/1999/xlink" width="16pt" height="16pt" viewBox="0 0 16 16" version="1.1">
<g id="surface2">
<path style=" stroke:none;fill-rule:nonzero;fill:rgb(74.509804%,74.509804%,74.509804%);fill-opacity:1;" d="M 2.8125 1 C 2.335938 1.089844 1.992188 1.511719 2 2 L 2 15 C 2 15.550781 2.449219 16 3 16 L 13 16 C 13.550781 16 14 15.550781 14 15 L 14 5.5625 C 14.007812 5.296875 13.90625 5.035156 13.71875 4.84375 L 10.15625 1.28125 C 9.964844 1.09375 9.703125 0.992188 9.4375 1 L 3 1 C 2.96875 1 2.9375 1 2.90625 1 C 2.875 1 2.84375 1 2.8125 1 Z M 4 3 L 9 3 L 9 6 L 12 6 L 12 14 L 4 14 Z M 4 3 "/>
<path style="fill:none;stroke-width:1.184687;stroke-linecap:round;stroke-linejoin:miter;stroke:rgb(74.509804%,74.509804%,74.509804%);stroke-opacity:1;stroke-miterlimit:4;" d="M 386.84375 89.732103 C 386.84375 90.435511 386.279173 91.000088 385.580393 91.000088 C 384.876985 91.000088 384.312408 90.435511 384.312408 89.732103 C 384.312408 89.033323 384.876985 88.468746 385.580393 88.468746 C 386.279173 88.468746 386.84375 89.033323 386.84375 89.732103 Z M 386.84375 89.732103 " transform="matrix(0.844105,0,0,0.844105,-319.03674,-69.17691)"/>
<path style=" stroke:none;fill-rule:nonzero;fill:rgb(74.509804%,74.509804%,74.509804%);fill-opacity:1;" d="M 9 8 L 11 8 L 11 9 L 9 9 Z M 9 8 "/>
<path style=" stroke:none;fill-rule:nonzero;fill:rgb(74.509804%,74.509804%,74.509804%);fill-opacity:1;" d="M 5 10 L 11 10 L 11 11 L 5 11 Z M 5 10 "/>
<path style=" stroke:none;fill-rule:nonzero;fill:rgb(74.509804%,74.509804%,74.509804%);fill-opacity:1;" d="M 5 12 L 11 12 L 11 13 L 5 13 Z M 5 12 "/>
</g>
</svg>
