<?xml version="1.0" encoding="UTF-8"?>
<svg xmlns="http://www.w3.org/2000/svg" xmlns:xlink="http://www.w3.org/1999/xlink" width="64pt" height="413pt" viewBox="0 0 64 413" version="1.1">
<g id="surface2">
<path style=" stroke:none;fill-rule:nonzero;fill:rgb(74.509804%,74.509804%,74.509804%);fill-opacity:1;" d="M 51 400 L 51 408 L 63 408 L 63 400 Z M 57 401 C 58.105469 401 59 401.894531 59 403 L 57 403 Z M 56 402 L 56 404 L 58 404 C 58 405.105469 57.105469 406 56 406 C 54.894531 406 54 405.105469 54 404 C 54 402.894531 54.894531 402 56 402 Z M 56 402 "/>
<path style="fill:none;stroke-width:2;stroke-linecap:round;stroke-linejoin:miter;stroke:rgb(74.509804%,74.509804%,74.509804%);stroke-opacity:1;stroke-miterlimit:4;" d="M 50.09395 400.99988 L 61.726763 400.99988 " transform="matrix(1,0,0,1,0.9998,-0.99988)"/>
<path style="fill:none;stroke-width:1;stroke-linecap:round;stroke-linejoin:miter;stroke:rgb(74.509804%,74.509804%,74.509804%);stroke-opacity:1;stroke-miterlimit:4;" d="M 55.5002 408.99988 L 55.5002 410.99988 L 53.5002 412.53113 " transform="matrix(1,0,0,1,0.9998,-0.99988)"/>
<path style="fill:none;stroke-width:1;stroke-linecap:round;stroke-linejoin:miter;stroke:rgb(74.509804%,74.509804%,74.509804%);stroke-opacity:1;stroke-miterlimit:4;" d="M 57.5002 412.56238 L 55.5002 410.99988 " transform="matrix(1,0,0,1,0.9998,-0.99988)"/>
</g>
</svg>
