<?xml version="1.0" encoding="UTF-8"?>
<svg xmlns="http://www.w3.org/2000/svg" xmlns:xlink="http://www.w3.org/1999/xlink" width="16pt" height="16pt" viewBox="0 0 16 16" version="1.1">
<g id="surface2">
<path style=" stroke:none;fill-rule:nonzero;fill:rgb(74.509804%,74.509804%,74.509804%);fill-opacity:1;" d="M 2.8125 1 C 2.335938 1.089844 1.992188 1.511719 2 2 L 2 15 C 2 15.550781 2.449219 16 3 16 L 13 16 C 13.550781 16 14 15.550781 14 15 L 14 5.5625 C 14.007812 5.296875 13.90625 5.035156 13.71875 4.84375 L 10.15625 1.28125 C 9.964844 1.09375 9.703125 0.992188 9.4375 1 L 3 1 C 2.96875 1 2.9375 1 2.90625 1 C 2.875 1 2.84375 1 2.8125 1 Z M 4 3 L 9 3 L 9 6 L 12 6 L 12 14 L 4 14 Z M 4 3 "/>
<path style="fill:none;stroke-width:1;stroke-linecap:butt;stroke-linejoin:miter;stroke:rgb(74.509804%,74.509804%,74.509804%);stroke-opacity:1;stroke-miterlimit:4;" d="M 51.0002 410.56238 L 53.34395 410.56238 C 53.570513 410.56238 53.800981 410.554568 54.019731 410.488161 C 54.238481 410.425661 54.4377 410.300661 54.597856 410.136599 C 54.758013 409.976443 54.8752 409.777224 54.984575 409.578005 C 55.09395 409.378786 55.195513 409.171755 55.34395 408.99988 C 55.609575 408.683474 56.023638 408.495974 56.4377 408.49988 C 56.847856 408.503786 57.258013 408.691286 57.53145 408.99988 C 57.6877 409.175661 57.800981 409.382693 57.918169 409.585818 C 58.039263 409.788943 58.168169 409.988161 58.336138 410.152224 C 58.508013 410.316286 58.715044 410.441286 58.941606 410.503786 C 59.168169 410.570193 59.40645 410.578005 59.640825 410.578005 L 60.5002 410.578005 " transform="matrix(1,0,0,1,-48.0002,-397.99988)"/>
<path style="fill:none;stroke-width:1.184687;stroke-linecap:round;stroke-linejoin:miter;stroke:rgb(74.509804%,74.509804%,74.509804%);stroke-opacity:1;stroke-miterlimit:4;" d="M 386.84375 89.736638 C 386.84375 90.435418 386.279173 90.999995 385.580393 90.999995 C 384.876985 90.999995 384.312408 90.435418 384.312408 89.736638 C 384.312408 89.03323 384.876985 88.468653 385.580393 88.468653 C 386.279173 88.468653 386.84375 89.03323 386.84375 89.736638 Z M 386.84375 89.736638 " transform="matrix(0.844105,0,0,0.844105,-319.03674,-68.31355)"/>
</g>
</svg>
