<?xml version="1.0" encoding="UTF-8" standalone="no"?>
<!-- Created with Inkscape (http://www.inkscape.org/) -->
<svg
   xmlns:dc="http://purl.org/dc/elements/1.1/"
   xmlns:cc="http://web.resource.org/cc/"
   xmlns:rdf="http://www.w3.org/1999/02/22-rdf-syntax-ns#"
   xmlns:svg="http://www.w3.org/2000/svg"
   xmlns="http://www.w3.org/2000/svg"
   xmlns:xlink="http://www.w3.org/1999/xlink"
   xmlns:sodipodi="http://sodipodi.sourceforge.net/DTD/sodipodi-0.dtd"
   xmlns:inkscape="http://www.inkscape.org/namespaces/inkscape"
   inkscape:export-ydpi="90.000000"
   inkscape:export-xdpi="90.000000"
   inkscape:export-filename="/home/jimmac/Desktop/wi-fi.png"
   width="32"
   height="32"
   id="svg11300"
   sodipodi:version="0.32"
   inkscape:version="0.45"
   sodipodi:docbase="/home/dobey/Projects/gnome-icon-theme/32x32/emblems"
   sodipodi:docname="emblem-readonly.svg"
   inkscape:output_extension="org.inkscape.output.svg.inkscape"
   version="1.0">
  <defs
     id="defs3">
    <linearGradient
       inkscape:collect="always"
       id="linearGradient6963">
      <stop
         style="stop-color:#ffffff;stop-opacity:1;"
         offset="0"
         id="stop6965" />
      <stop
         style="stop-color:#ffffff;stop-opacity:0;"
         offset="1"
         id="stop6967" />
    </linearGradient>
    <linearGradient
       id="linearGradient7016">
      <stop
         id="stop7018"
         offset="0"
         style="stop-color:#000000;stop-opacity:0;" />
      <stop
         style="stop-color:#000000;stop-opacity:1;"
         offset="0.5"
         id="stop7026" />
      <stop
         id="stop7022"
         offset="1"
         style="stop-color:#000000;stop-opacity:0" />
    </linearGradient>
    <linearGradient
       id="linearGradient6992">
      <stop
         style="stop-color:#000000;stop-opacity:1;"
         offset="0"
         id="stop6994" />
      <stop
         style="stop-color:#000000;stop-opacity:0;"
         offset="1"
         id="stop6996" />
    </linearGradient>
    <linearGradient
       inkscape:collect="always"
       id="linearGradient6974">
      <stop
         style="stop-color:#ffffff;stop-opacity:1;"
         offset="0"
         id="stop6976" />
      <stop
         style="stop-color:#ffffff;stop-opacity:0;"
         offset="1"
         id="stop6978" />
    </linearGradient>
    <linearGradient
       id="linearGradient2790">
      <stop
         style="stop-color:white;stop-opacity:1;"
         offset="0"
         id="stop2792" />
      <stop
         id="stop2798"
         offset="0.8108108"
         style="stop-color:#d3d7cf;stop-opacity:1;" />
      <stop
         style="stop-color:#959e8b;stop-opacity:1;"
         offset="1"
         id="stop2794" />
    </linearGradient>
    <linearGradient
       inkscape:collect="always"
       xlink:href="#linearGradient2790"
       id="linearGradient5976"
       gradientUnits="userSpaceOnUse"
       gradientTransform="matrix(0.8943242,0,0,0.84375,-5.9314815,-0.453125)"
       x1="15.829086"
       y1="4.4628921"
       x2="33.645836"
       y2="44.254314" />
    <radialGradient
       inkscape:collect="always"
       xlink:href="#linearGradient6992"
       id="radialGradient5982"
       gradientUnits="userSpaceOnUse"
       gradientTransform="matrix(2,0,0,0.9069901,24,3.6533406)"
       cx="6"
       cy="39.27903"
       fx="6"
       fy="39.27903"
       r="3" />
    <radialGradient
       inkscape:collect="always"
       xlink:href="#linearGradient6992"
       id="radialGradient5984"
       gradientUnits="userSpaceOnUse"
       gradientTransform="matrix(2,0,0,0.9069901,-24,-74.904719)"
       cx="6"
       cy="39.27903"
       fx="6"
       fy="39.27903"
       r="3" />
    <linearGradient
       inkscape:collect="always"
       xlink:href="#linearGradient7016"
       id="linearGradient5986"
       gradientUnits="userSpaceOnUse"
       gradientTransform="matrix(4,0,0,1,-108,0)"
       x1="33.237865"
       y1="42.001678"
       x2="33.237865"
       y2="36.55806" />
    <linearGradient
       inkscape:collect="always"
       xlink:href="#linearGradient6974"
       id="linearGradient5988"
       gradientUnits="userSpaceOnUse"
       x1="11.75"
       y1="19.5"
       x2="19.414213"
       y2="57.480076" />
    <linearGradient
       inkscape:collect="always"
       xlink:href="#linearGradient6963"
       id="linearGradient6969"
       x1="4.8613591"
       y1="18.034641"
       x2="11.22532"
       y2="41.634331"
       gradientUnits="userSpaceOnUse" />
  </defs>
  <sodipodi:namedview
     stroke="#ef2929"
     fill="#888a85"
     id="base"
     pagecolor="#ffffff"
     bordercolor="#666666"
     borderopacity="0.25490196"
     inkscape:pageopacity="0.0"
     inkscape:pageshadow="2"
     inkscape:zoom="1"
     inkscape:cx="56.998168"
     inkscape:cy="-1.5411881"
     inkscape:current-layer="layer1"
     showgrid="false"
     inkscape:grid-bbox="true"
     inkscape:document-units="px"
     inkscape:showpageshadow="false"
     inkscape:window-width="908"
     inkscape:window-height="924"
     inkscape:window-x="573"
     inkscape:window-y="126"
     showborder="false"
     width="32px"
     height="32px" />
  <metadata
     id="metadata4">
    <rdf:RDF>
      <cc:Work
         rdf:about="">
        <dc:format>image/svg+xml</dc:format>
        <dc:type
           rdf:resource="http://purl.org/dc/dcmitype/StillImage" />
        <dc:creator>
          <cc:Agent>
            <dc:title>Lapo Calamandrei</dc:title>
          </cc:Agent>
        </dc:creator>
        <dc:source />
        <cc:license
           rdf:resource="http://creativecommons.org/licenses/GPL/2.0/" />
        <dc:title>Read-only</dc:title>
        <dc:subject>
          <rdf:Bag>
            <rdf:li>emblem</rdf:li>
            <rdf:li>read-only</rdf:li>
            <rdf:li>no-read</rdf:li>
            <rdf:li>locked</rdf:li>
            <rdf:li>lock</rdf:li>
          </rdf:Bag>
        </dc:subject>
      </cc:Work>
      <cc:License
         rdf:about="http://creativecommons.org/licenses/GPL/2.0/">
        <cc:permits
           rdf:resource="http://web.resource.org/cc/Reproduction" />
        <cc:permits
           rdf:resource="http://web.resource.org/cc/Distribution" />
        <cc:requires
           rdf:resource="http://web.resource.org/cc/Notice" />
        <cc:permits
           rdf:resource="http://web.resource.org/cc/DerivativeWorks" />
        <cc:requires
           rdf:resource="http://web.resource.org/cc/ShareAlike" />
        <cc:requires
           rdf:resource="http://web.resource.org/cc/SourceCode" />
      </cc:License>
    </rdf:RDF>
  </metadata>
  <g
     id="layer1"
     inkscape:label="Layer 1"
     inkscape:groupmode="layer">
    <g
       id="g7028"
       style="opacity:0.2"
       transform="matrix(0.8888889,0,0,0.7794755,-5.333333,-1.2060135)">
      <rect
         y="36.55806"
         x="36"
         height="5.4419403"
         width="6"
         id="rect6982"
         style="opacity:1;fill:url(#radialGradient5982);fill-opacity:1;fill-rule:evenodd;stroke:none;stroke-width:1;stroke-linecap:round;stroke-linejoin:miter;stroke-miterlimit:4;stroke-dasharray:none;stroke-opacity:1" />
      <rect
         transform="scale(-1,-1)"
         y="-42"
         x="-12"
         height="5.4419403"
         width="6"
         id="rect7000"
         style="opacity:1;fill:url(#radialGradient5984);fill-opacity:1;fill-rule:evenodd;stroke:none;stroke-width:1;stroke-linecap:round;stroke-linejoin:miter;stroke-miterlimit:4;stroke-dasharray:none;stroke-opacity:1" />
      <rect
         y="36.55806"
         x="12"
         height="5.4419403"
         width="24"
         id="rect7008"
         style="opacity:1;fill:url(#linearGradient5986);fill-opacity:1;fill-rule:evenodd;stroke:none;stroke-width:1;stroke-linecap:round;stroke-linejoin:miter;stroke-miterlimit:4;stroke-dasharray:none;stroke-opacity:1" />
    </g>
    <path
       style="fill:url(#linearGradient5976);fill-opacity:1;fill-rule:evenodd;stroke:#888a85;stroke-width:0.99999994;stroke-linecap:round;stroke-linejoin:miter;stroke-miterlimit:4;stroke-dasharray:none;stroke-opacity:1"
       d="M 13.208305,2.5 C 9.5055371,2.5 6.528821,5.3083822 6.528821,8.8017577 L 6.528821,14.5 L 5.4091421,14.5 C 4.3811736,14.5 3.5645984,15.270397 3.5645984,16.240234 L 3.5645984,27.759765 C 3.5645984,28.729602 4.3811736,29.499999 5.4091421,29.499999 L 26.655457,29.499999 C 27.683425,29.499999 28.500002,28.729603 28.5,27.759765 L 28.5,16.240234 C 28.5,15.270397 27.683424,14.5 26.655457,14.5 L 25.535778,14.5 L 25.535778,8.8017577 C 25.535778,5.3083822 22.559062,2.5 18.856294,2.5 L 13.208305,2.5 z M 12.708305,6.5312499 L 19.293794,6.5312499 C 20.602927,6.5312499 21.501657,7.379157 21.501657,8.6142577 L 21.501657,14.5 L 10.500442,14.5 L 10.500442,8.6142577 C 10.500442,7.3791579 11.399173,6.5312499 12.708305,6.5312499 z "
       id="rect6904"
       sodipodi:nodetypes="cccccccccccccccccccccc" />
    <path
       sodipodi:type="inkscape:offset"
       inkscape:radius="-0.98601711"
       inkscape:original="M 19.96875 3.5 C 15.828453 3.5 12.5 6.8284531 12.5 10.96875 L 12.5 17.5 L 11.5625 17.5 C 10.413064 17.5 9.5 18.413063 9.5 19.5625 L 9.5 33.4375 C 9.5 34.586936 10.413064 35.5 11.5625 35.5 L 36.4375 35.5 C 37.586936 35.5 38.500002 34.586937 38.5 33.4375 L 38.5 19.5625 C 38.5 18.413064 37.586935 17.5 36.4375 17.5 L 35.5 17.5 L 35.5 10.96875 C 35.5 6.8284531 32.171548 3.5 28.03125 3.5 L 19.96875 3.5 z M 19.96875 8.5 L 28.03125 8.5 C 29.495074 8.5 30.5 9.5049271 30.5 10.96875 L 30.5 17.5 L 17.5 17.5 L 17.5 10.96875 C 17.5 9.5049279 18.504928 8.5 19.96875 8.5 z "
       style="fill:none;fill-opacity:1;fill-rule:evenodd;stroke:url(#linearGradient5988);stroke-width:1.15591836;stroke-linecap:round;stroke-linejoin:miter;stroke-miterlimit:4;stroke-dasharray:none;stroke-opacity:1"
       id="path6970"
       d="M 19.96875,4.5 C 16.356903,4.5 13.5,7.3569034 13.5,10.96875 L 13.5,17.5 C 13.503777,17.766357 13.399634,18.022911 13.211273,18.211273 C 13.022911,18.399634 12.766357,18.503777 12.5,18.5 L 11.5625,18.5 C 10.935231,18.5 10.5,18.93523 10.5,19.5625 L 10.5,33.4375 C 10.5,34.064769 10.935231,34.5 11.5625,34.5 L 36.4375,34.5 C 37.064769,34.5 37.500001,34.064768 37.5,33.4375 L 37.5,19.5625 C 37.5,18.935232 37.064767,18.5 36.4375,18.5 L 35.5,18.5 C 35.233643,18.503777 34.977089,18.399634 34.788727,18.211273 C 34.600366,18.022911 34.496223,17.766357 34.5,17.5 L 34.5,10.96875 C 34.5,7.3569032 31.643098,4.5 28.03125,4.5 L 19.96875,4.5 z M 19.96875,7.5 L 28.03125,7.5 C 28.988798,7.5 29.869916,7.869916 30.5,8.5 C 31.130084,9.130084 31.5,10.011202 31.5,10.96875 L 31.5,17.5 C 31.503777,17.766357 31.399634,18.022911 31.211273,18.211273 C 31.022911,18.399634 30.766357,18.503777 30.5,18.5 L 17.5,18.5 C 17.233643,18.503777 16.977089,18.399634 16.788727,18.211273 C 16.600366,18.022911 16.496223,17.766357 16.5,17.5 L 16.5,10.96875 C 16.5,10.011202 16.869916,9.1300838 17.5,8.5 C 18.130084,7.8699162 19.011202,7.5 19.96875,7.5 z "
       transform="matrix(0.8943242,0,0,0.8368559,64.068519,-1.3715272)" />
    <path
       sodipodi:type="inkscape:offset"
       inkscape:radius="-1.016466"
       inkscape:original="M 13.21875 1.5 C 9.5159817 1.5 6.53125 4.3191245 6.53125 7.8125 L 6.53125 13.5 L 5.40625 13.5 C 4.3782816 13.5 3.5625 14.280163 3.5625 15.25 L 3.5625 26.75 C 3.5625001 27.719836 4.3782815 28.5 5.40625 28.5 L 26.65625 28.5 C 27.684218 28.500001 28.500002 27.719838 28.5 26.75 L 28.5 15.25 C 28.5 14.280163 27.684217 13.5 26.65625 13.5 L 25.53125 13.5 L 25.53125 7.8125 C 25.53125 4.3191244 22.546518 1.5 18.84375 1.5 L 13.21875 1.5 z M 12.71875 5.53125 L 19.28125 5.53125 C 20.590382 5.5312499 21.5 6.3898993 21.5 7.625 L 21.5 13.5 L 10.5 13.5 L 10.5 7.625 C 10.5 6.3899001 11.409618 5.53125 12.71875 5.53125 z "
       style="fill:none;fill-opacity:1;fill-rule:evenodd;stroke:url(#linearGradient6969);stroke-width:0.99999994;stroke-linecap:round;stroke-linejoin:miter;stroke-miterlimit:4;stroke-dasharray:none;stroke-opacity:1"
       id="path6961"
       d="M 13.21875,2.53125 C 10.03191,2.53125 7.5625,4.8981019 7.5625,7.8125 L 7.5625,13.5 C 7.5664971,13.77471 7.4591319,14.039342 7.2648618,14.233612 C 7.0705917,14.427882 6.8059604,14.535247 6.53125,14.53125 L 5.40625,14.53125 C 4.8925705,14.53125 4.59375,14.850166 4.59375,15.25 L 4.59375,26.75 C 4.59375,27.149833 4.8925711,27.46875 5.40625,27.46875 L 26.65625,27.46875 C 27.169928,27.46875 27.468751,27.149833 27.46875,26.75 L 27.46875,15.25 C 27.46875,14.850166 27.169927,14.53125 26.65625,14.53125 L 25.53125,14.53125 C 25.25654,14.535247 24.991908,14.427882 24.797638,14.233612 C 24.603368,14.039342 24.496003,13.77471 24.5,13.5 L 24.5,7.8125 C 24.5,4.8981019 22.03059,2.53125 18.84375,2.53125 L 13.21875,2.53125 z M 12.71875,4.5 L 19.28125,4.5 C 21.034843,4.4999999 22.53125,5.890833 22.53125,7.625 L 22.53125,13.5 C 22.535247,13.77471 22.427882,14.039342 22.233612,14.233612 C 22.039342,14.427882 21.77471,14.535247 21.5,14.53125 L 10.5,14.53125 C 10.22529,14.535247 9.9606583,14.427882 9.7663882,14.233612 C 9.5721181,14.039342 9.4647529,13.77471 9.46875,13.5 L 9.46875,7.625 C 9.46875,5.8908334 10.965156,4.5 12.71875,4.5 z "
       transform="translate(0,1)" />
  </g>
</svg>
