<svg xmlns="http://www.w3.org/2000/svg" width="16.031" height="16.031">
    <g color="#000" fill="#474747">
        <path d="M4.031 2.047a2.016 2.016 0 0 1-2.015 2.016A2.016 2.016 0 0 1 0 2.047 2.016 2.016 0 0 1 2.016.03 2.016 2.016 0 0 1 4.03 2.047zM4.031 13.984A2.016 2.016 0 0 1 2.016 16 2.016 2.016 0 0 1 0 13.984a2.016 2.016 0 0 1 2.016-2.015 2.016 2.016 0 0 1 2.015 2.015zM16.031 13.984A2.016 2.016 0 0 1 14.016 16 2.016 2.016 0 0 1 12 13.984a2.016 2.016 0 0 1 2.016-2.015 2.016 2.016 0 0 1 2.015 2.015zM16.031 2.016a2.016 2.016 0 0 1-2.015 2.015A2.016 2.016 0 0 1 12 2.016 2.016 2.016 0 0 1 14.016 0a2.016 2.016 0 0 1 2.015 2.016z" style="marker:none" overflow="visible"/>
        <path d="M1.063 1.063v13.969h13.969V1.063zm2 2h9.969v9.969H3.063z" style="line-height:normal;font-variant-ligatures:normal;font-variant-position:normal;font-variant-caps:normal;font-variant-numeric:normal;font-variant-alternates:normal;font-feature-settings:normal;text-indent:0;text-align:start;text-decoration-line:none;text-decoration-style:solid;text-decoration-color:#000;text-transform:none;text-orientation:mixed;shape-padding:0;isolation:auto;mix-blend-mode:normal;marker:none" font-weight="400" font-family="sans-serif" white-space="normal" overflow="visible"/>
        <path d="M4.97 5.032v6h6.062v-6zm1 1h4.062v4H5.969z" style="line-height:normal;font-variant-ligatures:normal;font-variant-position:normal;font-variant-caps:normal;font-variant-numeric:normal;font-variant-alternates:normal;font-feature-settings:normal;text-indent:0;text-align:start;text-decoration-line:none;text-decoration-style:solid;text-decoration-color:#000;text-transform:none;text-orientation:mixed;shape-padding:0;isolation:auto;mix-blend-mode:normal;marker:none" font-weight="400" font-family="sans-serif" white-space="normal" overflow="visible"/>
        <path d="M12.031 10.516a1.516 1.516 0 0 1-1.515 1.515A1.516 1.516 0 0 1 9 10.516 1.516 1.516 0 0 1 10.516 9a1.516 1.516 0 0 1 1.515 1.516zM7.031 10.516a1.516 1.516 0 0 1-1.515 1.515A1.516 1.516 0 0 1 4 10.516 1.516 1.516 0 0 1 5.516 9a1.516 1.516 0 0 1 1.515 1.516zM7.031 5.547a1.516 1.516 0 0 1-1.515 1.515A1.516 1.516 0 0 1 4 5.547 1.516 1.516 0 0 1 5.516 4.03 1.516 1.516 0 0 1 7.03 5.547zM12.094 5.547a1.516 1.516 0 0 1-1.516 1.515 1.516 1.516 0 0 1-1.515-1.515 1.516 1.516 0 0 1 1.515-1.516 1.516 1.516 0 0 1 1.516 1.516z" style="marker:none" overflow="visible"/>
        <path d="M10.89 10.213l-.708.707 3.424 3.426.707-.709zM5.606 10.213l-3.424 3.424.707.71 3.424-3.427zM13.606 2.213l-3.424 3.424.707.71 3.424-3.427zM2.89 2.213l-.708.707 3.424 3.426.707-.709z" style="line-height:normal;font-variant-ligatures:normal;font-variant-position:normal;font-variant-caps:normal;font-variant-numeric:normal;font-variant-alternates:normal;font-feature-settings:normal;text-indent:0;text-align:start;text-decoration-line:none;text-decoration-style:solid;text-decoration-color:#000;text-transform:none;text-orientation:mixed;shape-padding:0;isolation:auto;mix-blend-mode:normal;marker:none" font-weight="400" font-family="sans-serif" white-space="normal" overflow="visible"/>
    </g>
</svg>
