<?xml version="1.0" encoding="UTF-8"?>
<svg xmlns="http://www.w3.org/2000/svg" xmlns:xlink="http://www.w3.org/1999/xlink" width="16px" height="16px" viewBox="0 0 16 16" version="1.1">
<g id="surface7943">
<path style=" stroke:none;fill-rule:nonzero;fill:rgb(18.039216%,20.392157%,21.176471%);fill-opacity:1;" d="M 6 7 C 6.675781 7.023438 7.035156 7.695312 7.507812 8.09375 C 7.960938 8.578125 8.488281 9.003906 8.886719 9.535156 C 9.195312 10.074219 8.847656 10.652344 8.417969 10.996094 C 7.792969 11.601562 7.203125 12.25 6.554688 12.832031 C 6.082031 13.109375 5.523438 12.964844 5 13 C 5 11 5 9 5 7 C 5.332031 7 5.667969 7 6 7 Z M 6 7 "/>
<path style=" stroke:none;fill-rule:nonzero;fill:rgb(18.039216%,20.392157%,21.176471%);fill-opacity:1;" d="M 5.019531 4 L 5.019531 1 C 5.019531 0.449219 4.574219 0 4.019531 0 C 3.46875 0 3.019531 0.449219 3.019531 1 L 3.019531 4 C 3.019531 4.550781 3.46875 5 4.019531 5 C 4.574219 5 5.019531 4.550781 5.019531 4 Z M 3 7.003906 C 3.003906 6.121094 2.941406 5.65625 3.230469 5.371094 C 3.242188 5.359375 3.253906 5.347656 3.265625 5.335938 C 3.273438 5.324219 3.285156 5.308594 3.292969 5.296875 C 3.503906 5.042969 3.941406 4.964844 4.601562 5 C 4.609375 5 4.617188 5 4.625 5 C 4.632812 5 4.644531 5 4.652344 5 C 7.164062 5.007812 9.671875 4.984375 12.175781 5.011719 L 12.113281 5.007812 C 12.648438 5.046875 13.074219 5.621094 13.007812 6.167969 C 13.003906 6.183594 13.003906 6.199219 13 6.214844 C 13 6.238281 13 6.257812 13 6.28125 C 12.984375 7.625 13.027344 8.941406 12.976562 10.246094 L 12.984375 10.164062 C 12.921875 10.675781 12.363281 11.070312 11.824219 11.007812 C 11.808594 11.003906 11.792969 11.003906 11.777344 11 L 11 11 C 10.449219 11 10 11.449219 10 12 C 10 12.550781 10.449219 13 11 13 L 11.707031 13 L 11.589844 12.992188 C 13.164062 13.179688 14.765625 12.046875 14.96875 10.410156 C 14.972656 10.394531 14.972656 10.378906 14.972656 10.363281 C 14.976562 10.351562 14.976562 10.339844 14.976562 10.328125 C 15.027344 8.972656 14.984375 7.621094 15 6.304688 L 14.992188 6.414062 C 15.195312 4.78125 13.957031 3.136719 12.257812 3.011719 C 12.246094 3.011719 12.234375 3.011719 12.222656 3.011719 C 12.214844 3.011719 12.207031 3.011719 12.195312 3.011719 C 9.679688 2.988281 7.164062 3.007812 4.65625 3 L 4.707031 3 C 3.851562 2.957031 2.582031 3.019531 1.753906 4.023438 L 1.820312 3.953125 C 0.855469 4.910156 1.003906 6.273438 1 6.996094 C 1 7.355469 1.1875 7.6875 1.496094 7.867188 C 1.804688 8.046875 2.1875 8.046875 2.5 7.871094 C 2.808594 7.691406 3 7.359375 3 7.003906 Z M 9 4 L 9 1 C 9 0.449219 8.550781 0 8 0 C 7.449219 0 7 0.449219 7 1 L 7 4 C 7 4.550781 7.449219 5 8 5 C 8.550781 5 9 4.550781 9 4 Z M 13 4 L 13 1 C 13 0.449219 12.550781 0 12 0 C 11.449219 0 11 0.449219 11 1 L 11 4 C 11 4.550781 11.449219 5 12 5 C 12.550781 5 13 4.550781 13 4 Z M 6 9 L 5 9 C 2.785156 9 1 10.785156 1 13 L 1 15 C 1 15.550781 1.449219 16 2 16 C 2.550781 16 3 15.550781 3 15 L 3 13 C 3 11.902344 3.902344 11 5 11 L 6 11 C 6.550781 11 7 10.550781 7 10 C 7 9.449219 6.550781 9 6 9 Z M 6 9 "/>
</g>
</svg>
