<?xml version="1.0" encoding="UTF-8"?>
<svg height="128px" viewBox="0 0 128 128" width="128px" xmlns="http://www.w3.org/2000/svg" xmlns:xlink="http://www.w3.org/1999/xlink">
    <linearGradient id="a" gradientUnits="userSpaceOnUse">
        <stop offset="0" stop-color="#8ff0a4"/>
        <stop offset="1" stop-color="#8ff0a4" stop-opacity="0"/>
    </linearGradient>
    <radialGradient id="b" cx="312.657257" cy="2706.578613" gradientTransform="matrix(1.054787 0.0168857 -0.0144512 0.902714 -253.015722 -2359.468445)" r="14.806045" xlink:href="#a"/>
    <radialGradient id="c" cx="312.657257" cy="2706.578613" gradientTransform="matrix(1.054787 0.0168857 -0.0144512 0.902714 -198.515724 -2359.468445)" r="14.806045" xlink:href="#a"/>
    <path d="m 49 32 v 45.140625 c -3.304688 -2.042969 -7.113281 -3.132813 -11 -3.140625 c -11.597656 0 -21 9.402344 -21 21 s 9.402344 21 21 21 c 11.199219 -0.015625 20.417969 -8.8125 20.949219 -20 h 0.050781 v -52 h 46.972656 v 33.144531 c -3.304687 -2.046875 -7.113281 -3.136719 -11.003906 -3.144531 c -11.597656 0 -21 9.402344 -21 21 s 9.402344 21 21 21 c 11.199219 -0.015625 20.417969 -8.8125 20.949219 -20 h 0.082031 v -64 c 0 -3.996094 -4.148438 -8 -7.890625 -8 h -51.109375 c -4 0 -8 4 -8 8 z m 0 0" fill="#33d17a"/>
    <path d="m 59 44 v 2 c 0 -1.222656 1.007812 -2 2.0625 -2 h 42.925781 c 1.058594 0 1.984375 0.996094 1.984375 2 v -2 c 0 -0.964844 -1.972656 -2 -1.972656 -2 h -43 c -1.039062 0 -2 0.984375 -2 2 z m -41.976562 50 c -0.015626 0.332031 -0.023438 0.664062 -0.023438 1 c 0 11.597656 9.402344 21 21 21 c 11.199219 -0.015625 20.417969 -8.8125 20.949219 -20 h 0.050781 v -2 h -0.050781 c -0.53125 11.1875 -9.75 19.984375 -20.949219 20 c -11.261719 0 -20.453125 -8.867188 -20.976562 -20 z m 56.972656 0 c -0.015625 0.332031 -0.027344 0.664062 -0.027344 1 c 0 11.597656 9.402344 21 21 21 c 11.199219 -0.015625 20.417969 -8.8125 20.949219 -20 h 0.082031 v -2 h -0.082031 c -0.53125 11.1875 -9.75 19.984375 -20.949219 20 c -11.261719 0 -20.453125 -8.867188 -20.972656 -20 z m 0 0" fill="#26a269"/>
    <path d="m 53.839844 90.453125 c 0 8.175781 -6.628906 14.804687 -14.808594 14.804687 c -8.175781 0 -14.804688 -6.628906 -14.804688 -14.804687 s 6.628907 -14.804687 14.804688 -14.804687 c 8.179688 0 14.808594 6.628906 14.808594 14.804687 z m 0 0" fill="url(#b)"/>
    <path d="m 108.339844 90.453125 c 0 8.175781 -6.628906 14.804687 -14.808594 14.804687 c -8.175781 0 -14.804688 -6.628906 -14.804688 -14.804687 s 6.628907 -14.804687 14.804688 -14.804687 c 8.179688 0 14.808594 6.628906 14.808594 14.804687 z m 0 0" fill="url(#c)"/>
</svg>
