<?xml version="1.0" encoding="UTF-8"?>
<svg xmlns="http://www.w3.org/2000/svg" xmlns:xlink="http://www.w3.org/1999/xlink" width="16px" height="16px" viewBox="0 0 16 16" version="1.1">
<g id="surface7409">
<path style=" stroke:none;fill-rule:nonzero;fill:rgb(18.039216%,20.392157%,21.176471%);fill-opacity:1;" d="M 8 1 C 6.355469 1 5 2.355469 5 4 L 5 8.34375 C 4.542969 8.125 4.035156 8 3.5 8 C 1.578125 8 0 9.578125 0 11.5 C 0 13.421875 1.578125 15 3.5 15 C 5.414062 15 6.992188 13.429688 7 11.519531 C 7 11.511719 7 11.507812 7 11.5 L 7 4 C 7 3.4375 7.4375 3 8 3 L 12 3 C 12.5625 3 13 3.4375 13 4 L 13 8.34375 C 12.542969 8.125 12.035156 8 11.5 8 C 9.578125 8 8 9.578125 8 11.5 C 8 13.421875 9.578125 15 11.5 15 C 13.421875 15 15 13.421875 15 11.5 L 15 4 C 15 2.355469 13.644531 1 12 1 Z M 3.5 10 C 4.339844 10 5 10.660156 5 11.5 L 5 11.515625 C 4.992188 12.347656 4.335938 13 3.5 13 C 2.660156 13 2 12.339844 2 11.5 C 2 10.660156 2.660156 10 3.5 10 Z M 11.5 10 C 12.339844 10 13 10.660156 13 11.5 C 13 12.339844 12.339844 13 11.5 13 C 10.660156 13 10 12.339844 10 11.5 C 10 10.660156 10.660156 10 11.5 10 Z M 11.5 10 "/>
</g>
</svg>
