<svg xmlns="http://www.w3.org/2000/svg" width="128" version="1.0" height="128">
    <g transform="translate(-140 -2562)">
        <g transform="matrix(.25 0 0 .25 0 2285)">
            <path d="M656 1156h200l120 120.5V1572c0 17.728-14.272 32-32 32H656c-17.728 0-32-14.272-32-32v-384c0-17.728 14.272-32 32-32z" fill="#f6f5f4"/>
            <path d="M624 1564v8c0 17.728 14.272 32 32 32h288c17.728 0 32-14.272 32-32v-8c0 17.728-14.272 32-32 32H656c-17.728 0-32-14.272-32-32zM856 1156v88c0 17.728 14.272 32 32 32h87.5z" fill="#deddda"/>
            <rect y="680" x="-1508" width="8" transform="rotate(-90)" style="marker:none" height="240" fill="#2864b0"/>
            <path d="M790.873 1330.778c-27.701 0-55.724 7.408-74.728 20.936l18.038 35.11c12.562-9.986 31.566-16.106 49.925-16.106 27.057 0 39.941 12.562 39.941 34.143h-39.94c-52.825 0-74.406 21.259-74.406 51.859 0 29.955 24.158 52.502 64.742 52.502 25.446 0 43.484-8.374 52.825-24.157v21.58h47.027v-98.885c0-52.502-30.6-76.982-83.424-76.982zm-3.866 144.624c-17.715 0-28.345-8.375-28.345-20.937 0-11.596 7.409-20.292 30.922-20.292h34.465v17.715c-5.798 15.783-20.292 23.514-37.042 23.514z" aria-label="a" font-weight="700" font-size="322.102" font-family="Montserrat" letter-spacing="0" word-spacing="0" fill="#4a86cf"/>
            <rect y="1308" x="896" width="8" style="marker:none" height="224" fill="#2864b0"/>
            <path style="marker:none" d="M884.03 1308l15.97-15.97 15.97 15.97zM884.03 1524.03L900 1540l15.97-15.97z" fill="#2864b0"/>
        </g>
    </g>
</svg>
