<?xml version="1.0" encoding="UTF-8"?>
<svg xmlns="http://www.w3.org/2000/svg" xmlns:xlink="http://www.w3.org/1999/xlink" width="16px" height="16px" viewBox="0 0 16 16" version="1.1">
<g id="surface116959">
<path style=" stroke:none;fill-rule:nonzero;fill:rgb(18.039216%,20.392157%,20.392157%);fill-opacity:1;" d="M 10 2 C 9.449219 2 9 2.449219 9 3 L 9 14 C 9 14.550781 9.449219 15 10 15 L 13 15 C 14.636719 15 15.988281 13.652344 15.988281 12.015625 L 15.988281 9.972656 C 15.988281 8.335938 14.636719 6.988281 13 6.988281 L 11 6.988281 L 11 3 C 11 2.449219 10.550781 2 10 2 Z M 2 5 C 1.449219 5 1 5.449219 1 6 C 1 6.550781 1.449219 7 2 7 L 4 7 C 4.558594 7 4.992188 7.429688 5 7.988281 L 3.597656 7.988281 C 1.671875 7.945312 0.0546875 9.496094 0.015625 11.417969 C 0.015625 11.425781 0.015625 11.433594 0.015625 11.4375 C 0.015625 13.394531 1.621094 15 3.574219 15 L 6 15 C 6.550781 15 7 14.550781 7 14 L 7 8 C 7 6.355469 5.644531 5 4 5 Z M 11 8.988281 L 13 8.988281 C 13.554688 8.988281 13.988281 9.417969 13.988281 9.972656 L 13.988281 12.015625 C 13.988281 12.570312 13.554688 13 13 13 L 11 13 Z M 3.554688 9.988281 C 3.5625 9.988281 3.570312 9.988281 3.574219 9.988281 L 5 9.988281 L 5 13 L 3.574219 13 C 2.707031 13 2.027344 12.316406 2.019531 11.449219 C 2.042969 10.613281 2.714844 9.96875 3.554688 9.988281 Z M 3.554688 9.988281 "/>
</g>
</svg>
