<svg xmlns="http://www.w3.org/2000/svg" width="128" version="1.0" height="128">
    <defs>
        <clipPath id="a" clipPathUnits="userSpaceOnUse">
            <path d="M276.181-123.204L398.568-.5 395.6 294.002l-309.4.9L88-124z" fill="#e74747"/>
        </clipPath>
        <clipPath id="b" clipPathUnits="userSpaceOnUse">
            <path d="M282.546 116.999L398.25.818l-2.2-294.82-310.75-1.35L88 124z" fill="#e74747"/>
        </clipPath>
    </defs>
    <g transform="translate(0 -2242)">
        <g transform="matrix(.25 0 0 .25 0 2295)">
            <path d="M128-172.056c-17.728 0-32 14.272-32 32v384.112c0 17.728 14.272 32 32 32h256c17.728 0 32-14.272 32-32v-303.98L304.158-172.057z" opacity=".1"/>
            <rect y="-116" x="96" width="288.037" transform="matrix(1.11097 0 0 1.11097 -10.653 -51.24)" ry="28.804" rx="28.804" height="403.352" clip-path="url(#a)" fill="#f6f5f4"/>
            <rect y="15.086" x="283.224" width="131.876" transform="matrix(1.11097 0 0 -1.11097 -10.653 -51.24)" style="marker:none" ry="28.804" rx="28.804" height="115.812" clip-path="url(#b)" fill="#d5d3cf"/>
        </g>
    </g>
</svg>
