<svg xmlns="http://www.w3.org/2000/svg" xmlns:xlink="http://www.w3.org/1999/xlink" width="128" version="1.0" height="128">
    <defs>
        <linearGradient id="a">
            <stop offset="0" stop-color="#655034"/>
            <stop offset="1" stop-color="#655034" stop-opacity="0"/>
        </linearGradient>
        <clipPath id="d" clipPathUnits="userSpaceOnUse">
            <rect y="123.999" x="486.037" width="362.943" transform="rotate(45)" style="marker:none" ry="32" rx="32" height="362.943" fill="#4a86cf" stroke-width="26.067"/>
        </clipPath>
        <linearGradient y2="1401" y1="1272.5" x2="172.5" x1="172.5" id="c" xlink:href="#a" gradientUnits="userSpaceOnUse"/>
        <linearGradient y2="1401" y1="1272.5" x2="172.5" x1="172.5" id="b" xlink:href="#a" gradientUnits="userSpaceOnUse"/>
    </defs>
    <g transform="translate(-140 -2402)">
        <path d="M167.957 2410.082h50l30 30.125v73.875c0 4.432-3.568 8-8 8h-72c-4.432 0-8-3.568-8-8v-96c0-4.432 3.568-8 8-8z" fill="#f6f5f4"/>
        <path d="M159.957 2512.082v2c0 4.432 3.568 8 8 8h72c4.432 0 8-3.568 8-8v-2c0 4.432-3.568 8-8 8h-72c-4.432 0-8-3.568-8-8zM217.957 2410.082v22c0 4.432 3.568 8 8 8h21.875z" fill="#deddda"/>
        <g stroke-width="1.881">
            <g clip-path="url(#d)" transform="translate(167.287 2377.908) scale(.1374)" stroke-width="1.08">
                <rect y="90.642" x="458.337" width="424" transform="rotate(45 -102.872 89.904) scale(.856)" style="marker:none" ry="40.368" rx="40.368" height="424" fill="#4a86cf"/>
                <path style="marker:none" d="M408.92 561.918l-9.886 29.83a172.971 172.971 0 0 0-1.427-.072 172.971 172.971 0 0 0-23.929 1.852l-13.8-28.501a203.293 203.293 0 0 0-29.402 7.972l2.287 31.404a172.971 172.971 0 0 0-22.732 11.32l-23.718-21.103a203.293 203.293 0 0 0-24.06 18.674l14.1 28.073a172.971 172.971 0 0 0-16.637 19.21l-30.058-10.447a203.293 203.293 0 0 0-15.017 26.488l23.73 20.508a172.971 172.971 0 0 0-7.984 24.143l-31.73 1.848a203.293 203.293 0 0 0-3.779 30.217l29.83 9.886a172.971 172.971 0 0 0-.072 1.427 172.971 172.971 0 0 0 1.852 23.929l-28.502 13.8a203.293 203.293 0 0 0 7.973 29.402l31.404-2.287a172.971 172.971 0 0 0 11.32 22.732L227.58 875.94A203.293 203.293 0 0 0 246.254 900l28.073-14.099a172.971 172.971 0 0 0 19.21 16.636l-10.447 30.059a203.293 203.293 0 0 0 26.488 15.017l20.508-23.73a172.971 172.971 0 0 0 24.142 7.984l1.85 31.73a203.293 203.293 0 0 0 30.216 3.779l9.886-29.83a172.971 172.971 0 0 0 1.427.072 172.971 172.971 0 0 0 23.929-1.852l13.8 28.501a203.293 203.293 0 0 0 29.402-7.972l-2.287-31.404a172.971 172.971 0 0 0 22.732-11.32l23.718 21.103A203.293 203.293 0 0 0 532.96 916l-14.099-28.073a172.971 172.971 0 0 0 16.636-19.21l30.059 10.447a203.293 203.293 0 0 0 15.017-26.488l-23.73-20.508a172.971 172.971 0 0 0 7.984-24.143l31.73-1.848a203.293 203.293 0 0 0 3.779-30.217l-29.83-9.886a172.971 172.971 0 0 0 .072-1.427 172.971 172.971 0 0 0-1.852-23.929l28.501-13.8a203.293 203.293 0 0 0-7.972-29.402l-31.405 2.287a172.971 172.971 0 0 0-11.319-22.732l21.103-23.718a203.293 203.293 0 0 0-18.674-24.06l-28.073 14.1a172.971 172.971 0 0 0-19.21-16.637l10.447-30.058a203.293 203.293 0 0 0-26.488-15.017l-20.508 23.73a172.971 172.971 0 0 0-24.143-7.984l-1.848-31.73a203.293 203.293 0 0 0-30.217-3.779zm-11.313 75.804a126.926 126.926 0 0 1 126.925 126.925 126.926 126.926 0 0 1-126.925 126.925 126.926 126.926 0 0 1-126.925-126.925 126.926 126.926 0 0 1 126.925-126.925z" fill="#87bae1"/>
                <path style="marker:none" d="M51.748 401.284l-9.886 29.829c-.475-.026-.951-.05-1.427-.071a172.97 172.97 0 0 0-23.929 1.852l-13.8-28.502a203.292 203.292 0 0 0-29.401 7.972l2.286 31.405a172.972 172.972 0 0 0-22.732 11.32l-23.718-21.104a203.293 203.293 0 0 0-24.059 18.675l14.099 28.073a172.971 172.971 0 0 0-16.636 19.21l-30.059-10.447a203.293 203.293 0 0 0-15.016 26.488l23.73 20.507a172.971 172.971 0 0 0-7.985 24.143l-31.73 1.849a203.293 203.293 0 0 0-3.778 30.217l29.829 9.886c-.026.475-.05.951-.072 1.427a172.97 172.97 0 0 0 1.852 23.929l-28.501 13.8a203.293 203.293 0 0 0 7.972 29.401l31.405-2.286a172.97 172.97 0 0 0 11.319 22.732l-21.103 23.718a203.294 203.294 0 0 0 18.674 24.059l28.073-14.099a172.971 172.971 0 0 0 19.211 16.636l-10.448 30.059a203.293 203.293 0 0 0 26.489 15.016l20.507-23.73c7.84 3.25 15.91 5.92 24.143 7.985l1.849 31.73a203.292 203.292 0 0 0 30.216 3.778l9.886-29.829c.476.026.952.05 1.427.072a172.97 172.97 0 0 0 23.93-1.852l13.8 28.501a203.293 203.293 0 0 0 29.4-7.972l-2.285-31.405a172.97 172.97 0 0 0 22.731-11.319l23.718 21.103a203.293 203.293 0 0 0 24.06-18.674l-14.1-28.073a172.97 172.97 0 0 0 16.637-19.211l30.058 10.448a203.293 203.293 0 0 0 15.017-26.489l-23.73-20.507c3.25-7.84 5.919-15.91 7.984-24.143l31.73-1.849a203.294 203.294 0 0 0 3.779-30.216l-29.829-9.886c.026-.476.05-.952.071-1.427a172.97 172.97 0 0 0-1.851-23.93l28.5-13.8a203.293 203.293 0 0 0-7.971-29.4l-31.405 2.285a172.972 172.972 0 0 0-11.32-22.731l21.104-23.718a203.294 203.294 0 0 0-18.674-24.06l-28.074 14.1a172.972 172.972 0 0 0-19.21-16.637l10.447-30.058a203.292 203.292 0 0 0-26.488-15.017l-20.507 23.73a172.972 172.972 0 0 0-24.143-7.984l-1.849-31.73a203.292 203.292 0 0 0-30.217-3.779z" fill="#2864b0"/>
            </g>
            <path style="marker:none" d="M169.052 2471.89a4.383 4.383 0 0 0 1.256 3.659l29.044 29.044a4.387 4.387 0 0 0 6.218 0l29.044-29.044a4.383 4.383 0 0 0 1.257-3.659 4.382 4.382 0 0 1-1.257 2.56l-29.044 29.044a4.387 4.387 0 0 1-6.218 0l-29.044-29.044a4.382 4.382 0 0 1-1.256-2.56z" fill="#3278d1"/>
        </g>
    </g>
</svg>
