<svg xmlns="http://www.w3.org/2000/svg" width="128" version="1.0" height="128">
    <g transform="translate(-420 -2722)">
        <path d="M444 2734h50l30 30.125V2838c0 4.432-3.568 8-8 8h-72c-4.432 0-8-3.568-8-8v-96c0-4.432 3.568-8 8-8z" fill="#f6f5f4"/>
        <path d="M436 2836v2c0 4.432 3.568 8 8 8h72c4.432 0 8-3.568 8-8v-2c0 4.432-3.568 8-8 8h-72c-4.432 0-8-3.568-8-8zM494 2734v22c0 4.432 3.568 8 8 8h21.875z" fill="#deddda"/>
        <g transform="matrix(.25 0 0 .25 -4 2283)" opacity=".3" fill="#d5d3cf">
            <rect y="1852" x="1816" width="8" height="120"/>
            <rect y="1852" x="1856" width="8" height="120"/>
            <rect y="1852" x="1920" width="8" height="120"/>
            <rect y="1940" x="1984" width="8" height="32"/>
            <rect y="1940" x="2048" width="8" height="32"/>
            <rect y="1964" x="1816" width="240" height="8"/>
            <rect y="1940" x="1816" width="240" height="8"/>
            <rect y="1916" x="1816" width="112" height="8"/>
            <rect y="1892" x="1816" width="112" height="8"/>
            <rect y="1868" x="1816" width="112" height="8"/>
            <rect y="1844" x="1816" width="112" height="8"/>
            <rect y="2164" x="1816" width="240" height="8"/>
            <rect y="2188" x="1816" width="240" height="8"/>
            <rect y="2212" x="1816" width="240" height="8"/>
            <rect y="2164" x="1816" width="8" height="56"/>
            <rect y="2164" x="1856" width="8" height="56"/>
            <rect y="2164" x="1920" width="8" height="56"/>
            <rect y="2164" x="1984" width="8" height="56"/>
            <rect y="2164" x="2048" width="8" height="56"/>
        </g>
        <g transform="matrix(.25 0 0 .25 -4 2263)">
            <rect y="2068" x="1816" width="8" height="152" fill="#d5d3cf"/>
            <rect y="-2056" x="2212" width="8" transform="rotate(90)" height="240" fill="#d5d3cf"/>
            <rect y="2124" x="1832" width="24" height="80" fill="#50db81"/>
            <rect y="2156" x="1864" width="24" height="48" fill="#8f5aa0"/>
            <rect y="2092" x="1896" width="24" height="112" fill="#fb8c14"/>
            <rect y="2108" x="1928" width="24" height="96" fill="#e01b24"/>
            <rect y="2148" x="1960" width="24" height="56" fill="#8f5aa0"/>
            <rect y="2172" x="1992" width="24" height="32" fill="#4a86cf"/>
            <rect y="2132" x="2024" width="24" height="72" fill="#f6d32d"/>
        </g>
    </g>
</svg>
