<svg xmlns="http://www.w3.org/2000/svg" width="128" version="1.0" height="128">
    <defs>
        <clipPath id="a" clipPathUnits="userSpaceOnUse">
            <path d="M276.181-123.204L398.568-.5 395.6 294.002l-309.4.9L88-124z" fill="#e74747"/>
        </clipPath>
        <clipPath id="c" clipPathUnits="userSpaceOnUse">
            <path d="M282.546 116.999L398.25.818l-2.2-294.82-310.75-1.35L88 124z" fill="#e74747"/>
        </clipPath>
        <clipPath id="b" clipPathUnits="userSpaceOnUse">
            <path d="M672-180.056c-17.728 0-32 14.272-32 32v384.112c0 17.728 14.272 32 32 32h256c17.728 0 32-14.272 32-32v-303.98L848.158-180.057z" fill="#26a269" stroke-width="2" stroke-linejoin="round"/>
        </clipPath>
    </defs>
    <g transform="translate(-280 -2722)">
        <g transform="matrix(.25 0 0 .25 0 2275)">
            <g transform="translate(1120 2000)">
                <path d="M128-172.056c-17.728 0-32 14.272-32 32v384.112c0 17.728 14.272 32 32 32h256c17.728 0 32-14.272 32-32v-303.98L304.158-172.057z" opacity=".1"/>
                <rect y="-116" x="96" width="288.037" transform="matrix(1.11097 0 0 1.11097 -10.653 -51.24)" ry="28.804" rx="28.804" height="403.352" clip-path="url(#a)" fill="#f6f5f4"/>
            </g>
            <g transform="translate(576 2000)" clip-path="url(#b)">
                <rect y="-180" x="792" width="168" style="marker:none" ry="0" rx="0" height="448" fill="#f8f8f8"/>
                <path d="M791.96-180.125l168.998 463.862 3.536-471.64z" fill="#fcfcfc"/>
                <path d="M792.494-180.125L623.495 283.737l-3.535-471.64z" fill="#eceae8"/>
            </g>
            <rect y="15.086" x="283.224" width="131.876" transform="matrix(1.11097 0 0 -1.11097 1109.59 1948.76)" style="marker:none" ry="28.804" rx="28.804" height="115.812" clip-path="url(#c)" fill="#d5d3cf"/>
            <path style="marker:none" d="M1256 2220h168v-200.139h-168zm184-40h56v16h-56zm0-40h56v16h-56zm0-40h56v16h-56zm0-40h56v16h-56zm0-40h56v16h-56zm-184-40h240v16h-240zm0-40h152v16h-152zm0-40h152v16h-152z" fill="#d5d3cf"/>
            <path d="M1256 1900v16h77.473l5.83-16zm0 40v16h62.898l5.83-16zm0 40v16h48.326l5.83-16zm0 39.861v108.782l39.633-108.782z" fill="#c9c7c2"/>
        </g>
    </g>
</svg>
