<svg xmlns="http://www.w3.org/2000/svg" xmlns:xlink="http://www.w3.org/1999/xlink" width="128" version="1.0" height="128">
    <defs>
        <linearGradient id="b">
            <stop offset="0" stop-color="#f6f5f4"/>
            <stop offset="1" stop-color="#fff"/>
        </linearGradient>
        <linearGradient id="a">
            <stop offset="0" stop-color="#747471"/>
            <stop offset="1" stop-color="#949390"/>
        </linearGradient>
        <linearGradient id="c">
            <stop offset="0" stop-color="#655034"/>
            <stop offset="1" stop-color="#655034" stop-opacity="0"/>
        </linearGradient>
        <linearGradient y2="2964" y1="2948" x2="1368" x1="1368" id="f" xlink:href="#a" gradientUnits="userSpaceOnUse" gradientTransform="translate(0 24)"/>
        <linearGradient y2="2932" y1="2692" x2="1376" x1="1376" id="g" xlink:href="#b" gradientUnits="userSpaceOnUse" gradientTransform="matrix(1.15 0 0 1.08108 -206.4 -215.027)"/>
        <linearGradient y2="1401" y1="1272.5" x2="172.5" x1="172.5" id="e" xlink:href="#c" gradientUnits="userSpaceOnUse"/>
        <linearGradient y2="1401" y1="1272.5" x2="172.5" x1="172.5" id="d" xlink:href="#c" gradientUnits="userSpaceOnUse"/>
    </defs>
    <g transform="translate(-280 -2882)">
        <g transform="matrix(.25 0 0 .25 0 2247)">
            <path d="M1408 2948l64 64h-24l-40-40zm-64 0l-64 64h24l40-40z" fill="url(#f)"/>
            <rect y="2652" x="1192" width="368" style="marker:none" ry="0" rx="0" height="320" fill="url(#g)"/>
            <rect y="2596" x="1168" width="416" style="marker:none" ry="32" rx="32" height="64" fill="#d5d3cf"/>
            <rect y="2964" x="1192" width="368" style="marker:none" height="8" fill="#d5d3cf"/>
            <path style="marker:none" d="M1399.985 2820a71.985 71.985 0 0 1-44.437 66.506 71.985 71.985 0 0 1-78.45-15.605 71.985 71.985 0 0 1-15.604-78.449 71.985 71.985 0 0 1 66.506-44.437V2820z" fill="#4a86cf" stroke="#204a87" stroke-width=".029"/>
            <path style="marker:none" d="M1344 2732.015a71.985 71.985 0 0 1 71.985 71.985H1344z" fill="#50db81" stroke="#204a87" stroke-width=".029"/>
            <path style="marker:none" d="M1448 2868h56v16h-56zm0-40h56v16h-56zm0-40h56v16h-56zm0-40h56v16h-56zm0-40h56v16h-56z" fill="#d5d3cf"/>
            <path style="marker:none" d="M1168.256 2624a32.532 32.532 0 0 0-.256 4c0 17.728 14.272 32 32 32h352c17.728 0 32-14.272 32-32 0-1.356-.094-2.69-.256-4-1.958 15.825-15.372 28-31.744 28h-352c-16.372 0-29.786-12.175-31.744-28z" fill="#949390"/>
        </g>
    </g>
</svg>
