<?xml version="1.0" encoding="UTF-8" standalone="no"?>
<!-- Created with Inkscape (http://www.inkscape.org/) -->
<svg
   xmlns:dc="http://purl.org/dc/elements/1.1/"
   xmlns:cc="http://web.resource.org/cc/"
   xmlns:rdf="http://www.w3.org/1999/02/22-rdf-syntax-ns#"
   xmlns:svg="http://www.w3.org/2000/svg"
   xmlns="http://www.w3.org/2000/svg"
   xmlns:xlink="http://www.w3.org/1999/xlink"
   xmlns:sodipodi="http://sodipodi.sourceforge.net/DTD/sodipodi-0.dtd"
   xmlns:inkscape="http://www.inkscape.org/namespaces/inkscape"
   width="32"
   height="32"
   id="svg2"
   sodipodi:version="0.32"
   inkscape:version="0.45"
   version="1.0"
   sodipodi:docbase="/home/lapo/Icone/gnome-icon-theme/32x32/status"
   sodipodi:docname="battery-caution.svg"
   inkscape:export-filename="/home/lapo/Desktop/per jimmac/scalable/devices/battery.png"
   inkscape:export-xdpi="90"
   inkscape:export-ydpi="90"
   inkscape:output_extension="org.inkscape.output.svg.inkscape"
   sodipodi:modified="true">
  <defs
     id="defs4">
    <radialGradient
       inkscape:collect="always"
       xlink:href="#linearGradient3280"
       id="radialGradient3286"
       cx="21.34375"
       cy="14.125"
       fx="21.34375"
       fy="14.125"
       r="11.96875"
       gradientTransform="matrix(1,0,0,0.302872,0,9.846932)"
       gradientUnits="userSpaceOnUse" />
    <linearGradient
       inkscape:collect="always"
       xlink:href="#linearGradient4134"
       id="linearGradient6477"
       x1="11.492082"
       y1="24.875"
       x2="37.640503"
       y2="24.875"
       gradientUnits="userSpaceOnUse"
       gradientTransform="translate(-45.124998,-11.360207)" />
    <linearGradient
       inkscape:collect="always"
       xlink:href="#linearGradient7507"
       id="linearGradient3341"
       gradientUnits="userSpaceOnUse"
       x1="31.18708"
       y1="9.9904861"
       x2="25.531752"
       y2="18.613125" />
    <linearGradient
       inkscape:collect="always"
       id="linearGradient7477">
      <stop
         style="stop-color:#c4a000;stop-opacity:1"
         offset="0"
         id="stop7479" />
      <stop
         style="stop-color:#fff5a8;stop-opacity:1"
         offset="1"
         id="stop7481" />
    </linearGradient>
    <linearGradient
       inkscape:collect="always"
       xlink:href="#linearGradient7477"
       id="linearGradient7465"
       gradientUnits="userSpaceOnUse"
       x1="16.760378"
       y1="35.750408"
       x2="16.175068"
       y2="41.719719" />
    <linearGradient
       inkscape:collect="always"
       id="linearGradient7483">
      <stop
         style="stop-color:#edd400;stop-opacity:1"
         offset="0"
         id="stop7485" />
      <stop
         style="stop-color:#fce94f;stop-opacity:1"
         offset="1"
         id="stop7487" />
    </linearGradient>
    <linearGradient
       inkscape:collect="always"
       xlink:href="#linearGradient7483"
       id="linearGradient7463"
       gradientUnits="userSpaceOnUse"
       x1="15.191748"
       y1="42.98222"
       x2="15.191748"
       y2="35.085632" />
    <linearGradient
       id="linearGradient7489">
      <stop
         style="stop-color:#dcc500;stop-opacity:1"
         offset="0"
         id="stop7491" />
      <stop
         id="stop7493"
         offset="0.5"
         style="stop-color:#fdea50;stop-opacity:1;" />
      <stop
         style="stop-color:#dcc500;stop-opacity:1"
         offset="1"
         id="stop7495" />
    </linearGradient>
    <linearGradient
       inkscape:collect="always"
       xlink:href="#linearGradient7489"
       id="linearGradient7461"
       gradientUnits="userSpaceOnUse"
       gradientTransform="matrix(0.952381,0,0,0.6279555,-7.9285716,13.115091)"
       x1="16.375"
       y1="32.71875"
       x2="44"
       y2="32.71875" />
    <linearGradient
       inkscape:collect="always"
       xlink:href="#linearGradient3290"
       id="linearGradient3398"
       gradientUnits="userSpaceOnUse"
       x1="13.96536"
       y1="10.495919"
       x2="20.682875"
       y2="31.382992"
       gradientTransform="translate(-43.124998,-11.360207)" />
    <radialGradient
       inkscape:collect="always"
       xlink:href="#linearGradient3174"
       id="radialGradient3339"
       gradientUnits="userSpaceOnUse"
       gradientTransform="matrix(1.2532713,-0.3487142,0.1098099,0.4255197,-7.5807449,13.83398)"
       cx="18.370865"
       cy="23.649349"
       fx="18.370865"
       fy="23.649349"
       r="12.46875" />
    <radialGradient
       inkscape:collect="always"
       xlink:href="#linearGradient7451"
       id="radialGradient3337"
       gradientUnits="userSpaceOnUse"
       gradientTransform="matrix(0.690032,0,0,0.228281,6.615871,10.90053)"
       cx="19.717636"
       cy="16.677069"
       fx="19.717636"
       fy="16.677069"
       r="12.46875" />
    <linearGradient
       inkscape:collect="always"
       xlink:href="#linearGradient3254"
       id="linearGradient3401"
       gradientUnits="userSpaceOnUse"
       gradientTransform="translate(-43.124998,-11.360207)"
       x1="12.25"
       y1="20.230709"
       x2="17.125"
       y2="34.173542" />
    <linearGradient
       inkscape:collect="always"
       xlink:href="#linearGradient4134"
       id="linearGradient3384"
       gradientUnits="userSpaceOnUse"
       gradientTransform="translate(-43.124998,-11.360207)"
       x1="26.472569"
       y1="10.985043"
       x2="19.082977"
       y2="10.985043" />
    <radialGradient
       inkscape:collect="always"
       xlink:href="#linearGradient3227"
       id="radialGradient3347"
       gradientUnits="userSpaceOnUse"
       gradientTransform="matrix(2.1160948,0,1.0746735e-5,0.7873934,-21.867432,2.1771112)"
       cx="19.863604"
       cy="11.205179"
       fx="19.863604"
       fy="11.205179"
       r="4" />
    <linearGradient
       inkscape:collect="always"
       xlink:href="#linearGradient7499"
       id="linearGradient7505"
       x1="22"
       y1="11.375"
       x2="21.1875"
       y2="13.25"
       gradientUnits="userSpaceOnUse"
       gradientTransform="translate(-45.124998,-11.360207)" />
    <linearGradient
       id="linearGradient7507"
       inkscape:collect="always">
      <stop
         id="stop7509"
         offset="0"
         style="stop-color:#888a85;stop-opacity:1" />
      <stop
         id="stop7511"
         offset="1"
         style="stop-color:#888a85;stop-opacity:0" />
    </linearGradient>
    <linearGradient
       inkscape:collect="always"
       id="linearGradient7499">
      <stop
         style="stop-color:#888a85;stop-opacity:1;"
         offset="0"
         id="stop7501" />
      <stop
         style="stop-color:#babdb6;stop-opacity:1"
         offset="1"
         id="stop7503" />
    </linearGradient>
    <linearGradient
       id="linearGradient7451">
      <stop
         id="stop7453"
         offset="0"
         style="stop-color:#ffffff;stop-opacity:1;" />
      <stop
         id="stop7455"
         offset="1"
         style="stop-color:#ffffff;stop-opacity:0.18702289" />
    </linearGradient>
    <linearGradient
       inkscape:collect="always"
       id="linearGradient3290">
      <stop
         style="stop-color:#ffffff;stop-opacity:1;"
         offset="0"
         id="stop3292" />
      <stop
         style="stop-color:#ffffff;stop-opacity:0;"
         offset="1"
         id="stop3294" />
    </linearGradient>
    <linearGradient
       inkscape:collect="always"
       id="linearGradient3280">
      <stop
         style="stop-color:#000000;stop-opacity:1;"
         offset="0"
         id="stop3282" />
      <stop
         style="stop-color:#000000;stop-opacity:0;"
         offset="1"
         id="stop3284" />
    </linearGradient>
    <linearGradient
       inkscape:collect="always"
       id="linearGradient3254">
      <stop
         style="stop-color:#ffffff;stop-opacity:1;"
         offset="0"
         id="stop3256" />
      <stop
         style="stop-color:#ffffff;stop-opacity:0;"
         offset="1"
         id="stop3258" />
    </linearGradient>
    <linearGradient
       inkscape:collect="always"
       id="linearGradient3227">
      <stop
         style="stop-color:#ffffff;stop-opacity:1;"
         offset="0"
         id="stop3229" />
      <stop
         style="stop-color:#ffffff;stop-opacity:0;"
         offset="1"
         id="stop3231" />
    </linearGradient>
    <linearGradient
       inkscape:collect="always"
       id="linearGradient3174">
      <stop
         style="stop-color:#ffffff;stop-opacity:1;"
         offset="0"
         id="stop3176" />
      <stop
         style="stop-color:#ffffff;stop-opacity:0;"
         offset="1"
         id="stop3178" />
    </linearGradient>
    <linearGradient
       id="linearGradient4134">
      <stop
         id="stop4136"
         offset="0"
         style="stop-color:#d6d7d5;stop-opacity:1;" />
      <stop
         style="stop-color:#d1d2d0;stop-opacity:1;"
         offset="0.25"
         id="stop4148" />
      <stop
         style="stop-color:#a5a6a3;stop-opacity:1.0000000;"
         offset="0.50000000"
         id="stop4142" />
      <stop
         id="stop4138"
         offset="1"
         style="stop-color:#dddedc;stop-opacity:1;" />
    </linearGradient>
    <linearGradient
       inkscape:collect="always"
       id="linearGradient5060">
      <stop
         style="stop-color:black;stop-opacity:1;"
         offset="0"
         id="stop5062" />
      <stop
         style="stop-color:black;stop-opacity:0;"
         offset="1"
         id="stop5064" />
    </linearGradient>
    <linearGradient
       id="linearGradient5048">
      <stop
         style="stop-color:black;stop-opacity:0;"
         offset="0"
         id="stop5050" />
      <stop
         id="stop5056"
         offset="0.5"
         style="stop-color:black;stop-opacity:1;" />
      <stop
         style="stop-color:black;stop-opacity:0;"
         offset="1"
         id="stop5052" />
    </linearGradient>
    <linearGradient
       y2="56.052299"
       x2="47.319698"
       y1="11.1133"
       x1="4.1914001"
       gradientUnits="userSpaceOnUse"
       id="linearGradient6525">
      <stop
         id="stop6529"
         style="stop-color:#ffffff;stop-opacity:1;"
         offset="0" />
      <stop
         id="stop6531"
         style="stop-color:#ffffff;stop-opacity:0.34020618;"
         offset="1" />
    </linearGradient>
    <linearGradient
       inkscape:collect="always"
       xlink:href="#linearGradient7507"
       id="linearGradient5717"
       gradientUnits="userSpaceOnUse"
       x1="31.18708"
       y1="9.9904861"
       x2="25.531752"
       y2="18.613125" />
    <radialGradient
       inkscape:collect="always"
       xlink:href="#linearGradient7451"
       id="radialGradient5727"
       gradientUnits="userSpaceOnUse"
       gradientTransform="matrix(0.690032,0,0,0.228281,6.615871,10.90053)"
       cx="19.717636"
       cy="16.677069"
       fx="19.717636"
       fy="16.677069"
       r="12.46875" />
    <radialGradient
       inkscape:collect="always"
       xlink:href="#linearGradient3174"
       id="radialGradient5729"
       gradientUnits="userSpaceOnUse"
       gradientTransform="matrix(1.2532713,-0.3487142,0.1098099,0.4255197,-7.5807449,13.83398)"
       cx="18.370865"
       cy="23.649349"
       fx="18.370865"
       fy="23.649349"
       r="12.46875" />
    <linearGradient
       inkscape:collect="always"
       xlink:href="#linearGradient3254"
       id="linearGradient5734"
       gradientUnits="userSpaceOnUse"
       gradientTransform="matrix(0.9187127,0,0,0.9002939,-3.2523234,-7.9438346)"
       x1="12.25"
       y1="20.230709"
       x2="17.125"
       y2="34.173542" />
    <linearGradient
       inkscape:collect="always"
       xlink:href="#linearGradient3290"
       id="linearGradient5740"
       gradientUnits="userSpaceOnUse"
       gradientTransform="matrix(0.9187127,0,0,0.9002939,-3.252323,-7.9438346)"
       x1="13.96536"
       y1="10.495919"
       x2="20.682875"
       y2="31.382992" />
    <linearGradient
       inkscape:collect="always"
       xlink:href="#linearGradient7489"
       id="linearGradient5744"
       gradientUnits="userSpaceOnUse"
       gradientTransform="matrix(0.8581286,0,0,0.5482875,-11.818245,4.3765693)"
       x1="16.375"
       y1="32.71875"
       x2="44"
       y2="32.71875" />
    <linearGradient
       inkscape:collect="always"
       xlink:href="#linearGradient4134"
       id="linearGradient5748"
       gradientUnits="userSpaceOnUse"
       gradientTransform="matrix(0.9187127,0,0,0.9002939,-5.0897488,-7.9438346)"
       x1="11.492082"
       y1="24.875"
       x2="37.640503"
       y2="24.875" />
    <linearGradient
       inkscape:collect="always"
       xlink:href="#linearGradient7483"
       id="linearGradient5750"
       gradientUnits="userSpaceOnUse"
       x1="15.191748"
       y1="44.376076"
       x2="15.191748"
       y2="36.300972" />
    <linearGradient
       inkscape:collect="always"
       xlink:href="#linearGradient7477"
       id="linearGradient5752"
       gradientUnits="userSpaceOnUse"
       x1="16.760378"
       y1="35.750408"
       x2="16.175068"
       y2="41.719719" />
    <linearGradient
       inkscape:collect="always"
       xlink:href="#linearGradient4134"
       id="linearGradient5754"
       gradientUnits="userSpaceOnUse"
       gradientTransform="translate(-5,-19)"
       x1="26.472569"
       y1="10.985043"
       x2="19.082977"
       y2="10.985043" />
    <radialGradient
       inkscape:collect="always"
       xlink:href="#linearGradient3227"
       id="radialGradient5756"
       gradientUnits="userSpaceOnUse"
       gradientTransform="matrix(2.1160948,0,1.0746735e-5,0.7873934,-21.867432,2.1771112)"
       cx="19.863604"
       cy="11.205179"
       fx="19.863604"
       fy="11.205179"
       r="4" />
    <linearGradient
       inkscape:collect="always"
       xlink:href="#linearGradient7499"
       id="linearGradient5758"
       gradientUnits="userSpaceOnUse"
       gradientTransform="translate(-7,-19)"
       x1="22"
       y1="11.375"
       x2="21.1875"
       y2="13.25" />
    <radialGradient
       inkscape:collect="always"
       xlink:href="#linearGradient3280"
       id="radialGradient5762"
       gradientUnits="userSpaceOnUse"
       gradientTransform="matrix(1,0,0,0.302872,0,9.846932)"
       cx="21.34375"
       cy="14.125"
       fx="21.34375"
       fy="14.125"
       r="11.96875" />
    <linearGradient
       inkscape:collect="always"
       xlink:href="#linearGradient5048"
       id="linearGradient6745"
       gradientUnits="userSpaceOnUse"
       gradientTransform="matrix(2.774389,0,0,1.969706,-1892.179,-872.8854)"
       x1="302.85715"
       y1="366.64789"
       x2="302.85715"
       y2="609.50507" />
    <radialGradient
       inkscape:collect="always"
       xlink:href="#linearGradient5060"
       id="radialGradient6747"
       gradientUnits="userSpaceOnUse"
       gradientTransform="matrix(2.774389,0,0,1.969706,-1891.633,-872.8854)"
       cx="605.71429"
       cy="486.64789"
       fx="605.71429"
       fy="486.64789"
       r="117.14286" />
    <radialGradient
       inkscape:collect="always"
       xlink:href="#linearGradient5060"
       id="radialGradient6749"
       gradientUnits="userSpaceOnUse"
       gradientTransform="matrix(-2.774389,0,0,1.969706,112.7623,-872.8854)"
       cx="605.71429"
       cy="486.64789"
       fx="605.71429"
       fy="486.64789"
       r="117.14286" />
    <linearGradient
       inkscape:collect="always"
       xlink:href="#linearGradient6525"
       id="linearGradient6751"
       gradientUnits="userSpaceOnUse"
       gradientTransform="matrix(0.513828,0,-2.236678e-3,0.597575,22.990392,17.281525)"
       x1="8.5469341"
       y1="30.281681"
       x2="30.85088"
       y2="48.301884" />
  </defs>
  <sodipodi:namedview
     id="base"
     pagecolor="#ffffff"
     bordercolor="#666666"
     borderopacity="1.0"
     inkscape:pageopacity="0.0"
     inkscape:pageshadow="2"
     inkscape:zoom="1"
     inkscape:cx="1.2848147"
     inkscape:cy="26.760013"
     inkscape:document-units="px"
     inkscape:current-layer="layer5"
     showgrid="false"
     gridempspacing="2"
     gridspacingx="0.5px"
     gridspacingy="0.5px"
     inkscape:window-width="1100"
     inkscape:window-height="771"
     inkscape:window-x="164"
     inkscape:window-y="55"
     stroke="#c4a000"
     inkscape:grid-points="false"
     inkscape:grid-bbox="false"
     fill="#555753"
     showborder="false"
     inkscape:showpageshadow="false"
     showguides="true"
     inkscape:guide-bbox="true"
     width="32px"
     height="32px" />
  <metadata
     id="metadata7">
    <rdf:RDF>
      <cc:Work
         rdf:about="">
        <dc:format>image/svg+xml</dc:format>
        <dc:type
           rdf:resource="http://purl.org/dc/dcmitype/StillImage" />
        <dc:creator>
          <cc:Agent>
            <dc:title>Lapo Calamandrei</dc:title>
          </cc:Agent>
        </dc:creator>
        <dc:title>Battery Critical</dc:title>
        <dc:subject>
          <rdf:Bag>
            <rdf:li>battery</rdf:li>
            <rdf:li>power</rdf:li>
            <rdf:li>acpi</rdf:li>
            <rdf:li>apm</rdf:li>
            <rdf:li>warning</rdf:li>
            <rdf:li>critical</rdf:li>
          </rdf:Bag>
        </dc:subject>
        <cc:license
           rdf:resource="http://creativecommons.org/licenses/GPL/2.0/" />
      </cc:Work>
      <cc:License
         rdf:about="http://creativecommons.org/licenses/GPL/2.0/">
        <cc:permits
           rdf:resource="http://web.resource.org/cc/Reproduction" />
        <cc:permits
           rdf:resource="http://web.resource.org/cc/Distribution" />
        <cc:requires
           rdf:resource="http://web.resource.org/cc/Notice" />
        <cc:permits
           rdf:resource="http://web.resource.org/cc/DerivativeWorks" />
        <cc:requires
           rdf:resource="http://web.resource.org/cc/ShareAlike" />
        <cc:requires
           rdf:resource="http://web.resource.org/cc/SourceCode" />
      </cc:License>
    </rdf:RDF>
  </metadata>
  <g
     inkscape:groupmode="layer"
     id="layer6"
     inkscape:label="Shadow"
     style="display:inline" />
  <g
     inkscape:groupmode="layer"
     id="layer2"
     inkscape:label="Battery"
     style="display:inline" />
  <g
     inkscape:groupmode="layer"
     id="layer4"
     inkscape:label="inner stroke"
     style="display:inline" />
  <g
     inkscape:groupmode="layer"
     id="layer5"
     inkscape:label="tip"
     style="display:inline">
    <path
       transform="matrix(1.268956,0,0,1.222059,-9.95928,9.174113)"
       d="M 33.3125 14.125 A 11.96875 3.625 0 1 1  9.375,14.125 A 11.96875 3.625 0 1 1  33.3125 14.125 z"
       sodipodi:ry="3.625"
       sodipodi:rx="11.96875"
       sodipodi:cy="14.125"
       sodipodi:cx="21.34375"
       id="path5760"
       style="opacity:0.5;color:#000000;fill:url(#radialGradient5762);fill-opacity:1;fill-rule:nonzero;stroke:none;stroke-width:1;stroke-linecap:round;stroke-linejoin:round;marker:none;marker-start:none;marker-mid:none;marker-end:none;stroke-miterlimit:4;stroke-dasharray:none;stroke-dashoffset:0;stroke-opacity:1;visibility:visible;display:inline;overflow:visible"
       sodipodi:type="arc" />
    <path
       style="color:#000000;fill:url(#linearGradient5748);fill-opacity:1;fill-rule:nonzero;stroke:none;stroke-width:1;stroke-linecap:round;stroke-linejoin:round;marker:none;marker-start:none;marker-mid:none;marker-end:none;stroke-miterlimit:4;stroke-dasharray:none;stroke-dashoffset:0;stroke-opacity:1;visibility:visible;display:inline;overflow:visible"
       d="M 15.121931,1.5092513 C 9.6868456,1.704183 5.4754473,3.0545698 5.4754473,4.66028 L 5.4754473,25.36704 C 5.4754473,27.106408 10.414447,28.518068 16.5,28.518068 C 22.585553,28.518068 27.524552,27.106408 27.524552,25.36704 L 27.524552,4.66028 C 27.524552,2.9209122 22.585553,1.5092513 16.5,1.5092513 C 16.167196,1.5092513 15.849193,1.5009867 15.523867,1.5092513 C 15.392067,1.5126004 15.252372,1.5045698 15.121931,1.5092513 z "
       id="path2217"
       sodipodi:nodetypes="cccsccssc" />
    <path
       sodipodi:type="arc"
       style="opacity:0.63921569;color:#000000;fill:url(#linearGradient5717);fill-opacity:1;fill-rule:nonzero;stroke:none;stroke-width:1;stroke-linecap:round;stroke-linejoin:round;marker:none;marker-start:none;marker-mid:none;marker-end:none;stroke-miterlimit:4;stroke-dasharray:none;stroke-dashoffset:0;stroke-opacity:1;visibility:visible;display:inline;overflow:visible"
       id="path3263"
       sodipodi:cx="21.34375"
       sodipodi:cy="14.125"
       sodipodi:rx="11.96875"
       sodipodi:ry="3.625"
       d="M 33.3125 14.125 A 11.96875 3.625 0 1 1  9.375,14.125 A 11.96875 3.625 0 1 1  33.3125 14.125 z"
       transform="matrix(0.9211115,0,0,0.86925,-3.1599726,-7.6178733)" />
    <path
       sodipodi:nodetypes="ccsccc"
       id="path7457"
       d="M 7.4896489,18.865572 L 7.4896489,24.663206 C 7.4896489,25.700672 11.526286,26.547946 16.499999,26.547946 C 21.473712,26.547946 25.510349,25.700672 25.510349,24.663206 L 25.510349,18.865572 L 7.4896489,18.865572 z "
       style="color:#000000;fill:url(#linearGradient5744);fill-opacity:1;fill-rule:nonzero;stroke:#c4a000;stroke-width:0.99999994;stroke-linecap:round;stroke-linejoin:round;marker:none;marker-start:none;marker-mid:none;marker-end:none;stroke-miterlimit:4;stroke-dasharray:none;stroke-dashoffset:0;stroke-opacity:1;visibility:visible;display:inline;overflow:visible;enable-background:accumulate" />
    <path
       transform="matrix(1.1415469,0,0,0.412985,-1.9507041,2.6166658)"
       d="M 24.041631 38.542446 A 7.8665628 4.8613591 0 1 1  8.3085051,38.542446 A 7.8665628 4.8613591 0 1 1  24.041631 38.542446 z"
       sodipodi:ry="4.8613591"
       sodipodi:rx="7.8665628"
       sodipodi:cy="38.542446"
       sodipodi:cx="16.175068"
       id="path7459"
       style="color:#000000;fill:url(#linearGradient5750);fill-opacity:1;fill-rule:nonzero;stroke:url(#linearGradient5752);stroke-width:1.45641792;stroke-linecap:round;stroke-linejoin:round;marker:none;marker-start:none;marker-mid:none;marker-end:none;stroke-miterlimit:4;stroke-dasharray:none;stroke-dashoffset:0;stroke-opacity:1;visibility:visible;display:inline;overflow:visible;enable-background:accumulate"
       sodipodi:type="arc" />
    <path
       style="opacity:0.52238805;color:#000000;fill:url(#linearGradient5740);fill-opacity:1;fill-rule:nonzero;stroke:none;stroke-width:1;stroke-linecap:round;stroke-linejoin:round;marker:none;marker-start:none;marker-mid:none;marker-end:none;stroke-miterlimit:4;stroke-dasharray:none;stroke-dashoffset:0;stroke-opacity:1;visibility:visible;display:inline;overflow:visible"
       d="M 15.121931,1.5092513 C 9.686846,1.7041821 5.475447,3.0545698 5.475447,4.66028 L 5.475447,25.36704 C 5.475447,27.106409 10.414447,28.518069 16.5,28.518068 C 22.585553,28.518068 27.524552,27.10641 27.524552,25.36704 L 27.524552,4.66028 C 27.524552,2.9209104 22.585553,1.5092513 16.5,1.5092513 C 16.167196,1.5092513 15.849193,1.5009849 15.523867,1.5092513 C 15.392067,1.5126004 15.252372,1.5045734 15.121931,1.5092513 z "
       id="path3288"
       sodipodi:nodetypes="csssssssc" />
    <path
       style="opacity:0.49019608;color:#000000;fill:none;fill-opacity:1;fill-rule:nonzero;stroke:#ffffff;stroke-width:0.99999994;stroke-linecap:round;stroke-linejoin:round;marker:none;marker-start:none;marker-mid:none;marker-end:none;stroke-miterlimit:4;stroke-dasharray:none;stroke-dashoffset:0;stroke-opacity:1;visibility:visible;display:inline;overflow:visible"
       d="M 14.991691,2.4979034 C 10.169786,2.6593614 6.4825489,3.6104444 6.4825489,4.7289111 C 6.4825489,5.748761 6.4825489,24.232576 6.4825489,25.254182 C 6.4825489,26.485699 10.970362,27.48519 16.5,27.48519 C 22.029641,27.48519 26.517453,26.485699 26.517453,25.254182 C 26.517453,24.308935 26.517452,5.6741588 26.517453,4.7289111 C 26.517453,3.4973949 22.029642,2.4979034 16.5,2.4979034 C 16.154399,2.4979034 15.812112,2.4902822 15.475488,2.4979034 C 15.317696,2.5014756 15.147236,2.4926953 14.991691,2.4979034 z "
       id="path2206"
       sodipodi:nodetypes="csssssssc" />
    <path
       sodipodi:type="arc"
       style="color:#000000;fill:url(#radialGradient5727);fill-opacity:1;fill-rule:nonzero;stroke:url(#radialGradient5729);stroke-width:1.09955752;stroke-linecap:round;stroke-linejoin:round;marker:none;marker-start:none;marker-mid:none;marker-end:none;stroke-miterlimit:4;stroke-dasharray:none;stroke-dashoffset:0;stroke-opacity:1;visibility:visible;display:inline;overflow:visible"
       id="path3164"
       sodipodi:cx="21.34375"
       sodipodi:cy="14.125"
       sodipodi:rx="11.96875"
       sodipodi:ry="3.625"
       d="M 33.3125 14.125 A 11.96875 3.625 0 1 1  9.375,14.125 A 11.96875 3.625 0 1 1  33.3125 14.125 z"
       transform="matrix(0.9211115,0,0,0.86925,-3.1599726,-7.6178733)" />
    <path
       style="color:#000000;fill:none;fill-opacity:1;fill-rule:nonzero;stroke:#888a85;stroke-width:0.99999994;stroke-linecap:round;stroke-linejoin:round;marker:none;marker-start:none;marker-mid:none;marker-end:none;stroke-miterlimit:4;stroke-dasharray:none;stroke-dashoffset:0;stroke-opacity:1;visibility:visible;display:inline;overflow:visible"
       d="M 15.121931,1.5092513 C 9.6868456,1.704183 5.4754473,3.0545698 5.4754473,4.66028 L 5.4754473,25.36704 C 5.4754473,27.106408 10.414447,28.518068 16.5,28.518068 C 22.585553,28.518068 27.524552,27.106408 27.524552,25.36704 L 27.524552,4.66028 C 27.524552,2.9209122 22.585553,1.5092513 16.5,1.5092513 C 16.167196,1.5092513 15.849193,1.5009867 15.523867,1.5092513 C 15.392067,1.5126004 15.252372,1.5045698 15.121931,1.5092513 z "
       id="path7448"
       sodipodi:nodetypes="cccsccssc" />
    <path
       style="opacity:0.58208953;color:#000000;fill:url(#linearGradient5734);fill-opacity:1;fill-rule:nonzero;stroke:none;stroke-width:1;stroke-linecap:round;stroke-linejoin:round;marker:none;marker-start:none;marker-mid:none;marker-end:none;stroke-miterlimit:4;stroke-dashoffset:0;stroke-opacity:1;visibility:visible;display:inline;overflow:visible"
       d="M 8.6909417,6.798478 L 13.284505,7.6425035 L 13.284505,28.349263 L 8.6909417,27.617774 L 8.6909417,6.798478 z "
       id="rect3244"
       sodipodi:nodetypes="ccccc" />
    <g
       id="g5699"
       transform="matrix(0.8886036,0,0,0.898759,1.83804,9.056759)">
      <path
         sodipodi:nodetypes="cssssssssssssssssssssssssssssc"
         id="path3198"
         d="M 16,-9.5 C 14.315666,-9.4196335 12.950192,-8.925965 12.59375,-8.3125 C 12.587086,-8.300298 12.568368,-8.262308 12.5625,-8.25 C 12.559767,-8.24382 12.533781,-8.224955 12.53125,-8.21875 C 12.528923,-8.21252 12.533372,-8.193754 12.53125,-8.1875 C 12.521672,-8.156113 12.504323,-8.094443 12.5,-8.0625 C 12.49935,-8.056091 12.500435,-8.03768 12.5,-8.03125 C 12.499782,-8.024801 12.5,-6.006469 12.5,-6 C 12.5,-5.993531 12.499782,-5.975199 12.5,-5.96875 C 12.500435,-5.96232 12.49935,-5.943909 12.5,-5.9375 C 12.504323,-5.905557 12.521672,-5.843887 12.53125,-5.8125 C 12.533372,-5.806246 12.528923,-5.78748 12.53125,-5.78125 C 12.533781,-5.775045 12.559767,-5.75618 12.5625,-5.75 C 12.568368,-5.737692 12.587086,-5.699702 12.59375,-5.6875 C 12.985483,-5.013296 14.58525,-4.5 16.5,-4.5 C 18.41475,-4.5 20.014517,-5.013296 20.40625,-5.6875 C 20.412914,-5.699702 20.431632,-5.737692 20.4375,-5.75 C 20.440233,-5.75618 20.466219,-5.775045 20.46875,-5.78125 C 20.471077,-5.78748 20.466628,-5.806246 20.46875,-5.8125 C 20.478328,-5.843887 20.495677,-5.905557 20.5,-5.9375 C 20.50065,-5.943909 20.499565,-5.96232 20.5,-5.96875 C 20.500218,-5.975199 20.5,-5.993531 20.5,-6 C 20.5,-6.006469 20.500218,-8.024801 20.5,-8.03125 C 20.499565,-8.03768 20.50065,-8.056091 20.5,-8.0625 C 20.495677,-8.094443 20.478328,-8.156113 20.46875,-8.1875 C 20.466628,-8.193754 20.471077,-8.21252 20.46875,-8.21875 C 20.466219,-8.224955 20.440233,-8.24382 20.4375,-8.25 C 20.431632,-8.262308 20.412914,-8.300298 20.40625,-8.3125 C 20.014517,-8.986704 18.41475,-9.5 16.5,-9.5 C 16.3275,-9.5 16.166766,-9.5079571 16,-9.5 z "
         style="color:#000000;fill:url(#linearGradient5754);fill-opacity:1;fill-rule:nonzero;stroke:none;stroke-width:1;stroke-linecap:round;stroke-linejoin:round;marker:none;marker-start:none;marker-mid:none;marker-end:none;stroke-miterlimit:4;stroke-dasharray:none;stroke-dashoffset:0;stroke-opacity:1;visibility:visible;display:inline;overflow:visible" />
      <path
         transform="matrix(0.867417,0,0,0.666667,-2.179797,-15.333335)"
         d="M 25.5 11 A 4 1.5 0 1 1  17.5,11 A 4 1.5 0 1 1  25.5 11 z"
         sodipodi:ry="1.5"
         sodipodi:rx="4"
         sodipodi:cy="11"
         sodipodi:cx="21.5"
         id="path3225"
         style="color:#000000;fill:url(#radialGradient5756);fill-opacity:1;fill-rule:nonzero;stroke:none;stroke-width:1;stroke-linecap:round;stroke-linejoin:round;marker:none;marker-start:none;marker-mid:none;marker-end:none;stroke-miterlimit:4;stroke-dasharray:none;stroke-dashoffset:0;stroke-opacity:1;visibility:visible;display:inline;overflow:visible"
         sodipodi:type="arc" />
      <path
         sodipodi:nodetypes="cssssssssssssssssssssssssssssc"
         id="path3205"
         d="M 16,-9.5 C 14.315666,-9.4196335 12.950192,-8.925965 12.59375,-8.3125 C 12.587086,-8.300298 12.568368,-8.262308 12.5625,-8.25 C 12.559767,-8.24382 12.533781,-8.224955 12.53125,-8.21875 C 12.528923,-8.21252 12.533372,-8.193754 12.53125,-8.1875 C 12.521672,-8.156113 12.504323,-8.094443 12.5,-8.0625 C 12.49935,-8.056091 12.500435,-8.03768 12.5,-8.03125 C 12.499782,-8.024801 12.5,-6.006469 12.5,-6 C 12.5,-5.993531 12.499782,-5.975199 12.5,-5.96875 C 12.500435,-5.96232 12.49935,-5.943909 12.5,-5.9375 C 12.504323,-5.905557 12.521672,-5.843887 12.53125,-5.8125 C 12.533372,-5.806246 12.528923,-5.78748 12.53125,-5.78125 C 12.533781,-5.775045 12.559767,-5.75618 12.5625,-5.75 C 12.568368,-5.737692 12.587086,-5.699702 12.59375,-5.6875 C 12.985483,-5.013296 14.58525,-4.5 16.5,-4.5 C 18.41475,-4.5 20.014517,-5.013296 20.40625,-5.6875 C 20.412914,-5.699702 20.431632,-5.737692 20.4375,-5.75 C 20.440233,-5.75618 20.466219,-5.775045 20.46875,-5.78125 C 20.471077,-5.78748 20.466628,-5.806246 20.46875,-5.8125 C 20.478328,-5.843887 20.495677,-5.905557 20.5,-5.9375 C 20.50065,-5.943909 20.499565,-5.96232 20.5,-5.96875 C 20.500218,-5.975199 20.5,-5.993531 20.5,-6 C 20.5,-6.006469 20.500218,-8.024801 20.5,-8.03125 C 20.499565,-8.03768 20.50065,-8.056091 20.5,-8.0625 C 20.495677,-8.094443 20.478328,-8.156113 20.46875,-8.1875 C 20.466628,-8.193754 20.471077,-8.21252 20.46875,-8.21875 C 20.466219,-8.224955 20.440233,-8.24382 20.4375,-8.25 C 20.431632,-8.262308 20.412914,-8.300298 20.40625,-8.3125 C 20.014517,-8.986704 18.41475,-9.5 16.5,-9.5 C 16.3275,-9.5 16.166766,-9.5079571 16,-9.5 z "
         style="color:#000000;fill:none;fill-opacity:1;fill-rule:nonzero;stroke:url(#linearGradient5758);stroke-width:1.11898518;stroke-linecap:round;stroke-linejoin:round;marker:none;marker-start:none;marker-mid:none;marker-end:none;stroke-miterlimit:4;stroke-dasharray:none;stroke-dashoffset:0;stroke-opacity:1;visibility:visible;display:inline;overflow:visible" />
    </g>
  </g>
</svg>
