<?xml version="1.0" encoding="UTF-8" standalone="no"?>
<!-- Created with Inkscape (http://www.inkscape.org/) -->
<svg
   xmlns:dc="http://purl.org/dc/elements/1.1/"
   xmlns:cc="http://web.resource.org/cc/"
   xmlns:rdf="http://www.w3.org/1999/02/22-rdf-syntax-ns#"
   xmlns:svg="http://www.w3.org/2000/svg"
   xmlns="http://www.w3.org/2000/svg"
   xmlns:xlink="http://www.w3.org/1999/xlink"
   xmlns:sodipodi="http://sodipodi.sourceforge.net/DTD/sodipodi-0.dtd"
   xmlns:inkscape="http://www.inkscape.org/namespaces/inkscape"
   inkscape:export-ydpi="90.000000"
   inkscape:export-xdpi="90.000000"
   inkscape:export-filename="/home/jimmac/src/cvs/gnome/gnome-icon-theme/32x32/status/dialog-info.png"
   width="32"
   height="32"
   id="svg11300"
   sodipodi:version="0.32"
   inkscape:version="0.44"
   sodipodi:docbase="/home/lapo/Icone/cvs/gnome-icon-theme/32x32/status"
   sodipodi:docname="dialog-information.svg"
   version="1.0"
   inkscape:output_extension="org.inkscape.output.svg.inkscape">
  <defs
     id="defs3">
    <linearGradient
       id="linearGradient2990">
      <stop
         style="stop-color:#3465a4;stop-opacity:1;"
         offset="0"
         id="stop2992" />
      <stop
         style="stop-color:#3465a4;stop-opacity:0;"
         offset="1"
         id="stop2994" />
    </linearGradient>
    <linearGradient
       id="linearGradient4712">
      <stop
         style="stop-color:#5b8ccb;stop-opacity:1;"
         offset="0"
         id="stop4714" />
      <stop
         style="stop-color:#3465a4;stop-opacity:1;"
         offset="1"
         id="stop4716" />
    </linearGradient>
    <linearGradient
       id="linearGradient4694">
      <stop
         style="stop-color:#e9f1f8;stop-opacity:1;"
         offset="0"
         id="stop4696" />
      <stop
         style="stop-color:#376ba3;stop-opacity:0.8392157;"
         offset="1"
         id="stop4698" />
    </linearGradient>
    <linearGradient
       inkscape:collect="always"
       id="linearGradient4666">
      <stop
         style="stop-color:#ffffff;stop-opacity:1;"
         offset="0"
         id="stop4668" />
      <stop
         style="stop-color:#ffffff;stop-opacity:0;"
         offset="1"
         id="stop4670" />
    </linearGradient>
    <linearGradient
       id="linearGradient20210">
      <stop
         style="stop-color:#000000;stop-opacity:0.51546389;"
         offset="0.0000000"
         id="stop20212" />
      <stop
         id="stop20218"
         offset="0.55172414"
         style="stop-color:#000000;stop-opacity:0.14432989;" />
      <stop
         style="stop-color:#000000;stop-opacity:0;"
         offset="1"
         id="stop20214" />
    </linearGradient>
    <radialGradient
       inkscape:collect="always"
       xlink:href="#linearGradient20210"
       id="radialGradient4646"
       gradientUnits="userSpaceOnUse"
       gradientTransform="scale(1.764278,0.566804)"
       cx="14.772334"
       cy="74.20993"
       fx="14.772334"
       fy="74.20993"
       r="7.8289828" />
    <radialGradient
       inkscape:collect="always"
       xlink:href="#linearGradient4666"
       id="radialGradient4672"
       cx="25.755905"
       cy="9.9372978"
       fx="25.755905"
       fy="9.9372978"
       r="12.139711"
       gradientTransform="matrix(1.7023,0,0,2.018518,-27.56358,-15.038)"
       gradientUnits="userSpaceOnUse" />
    <radialGradient
       inkscape:collect="always"
       xlink:href="#linearGradient4694"
       id="radialGradient4700"
       cx="26.435322"
       cy="17.031229"
       fx="26.435322"
       fy="17.031229"
       r="13.244088"
       gradientTransform="matrix(1.4499,0,0,1.720187,-21.06282,-12.91377)"
       gradientUnits="userSpaceOnUse" />
    <linearGradient
       inkscape:collect="always"
       xlink:href="#linearGradient4712"
       id="linearGradient4718"
       x1="20.643551"
       y1="9.0398531"
       x2="25.755913"
       y2="26.8943"
       gradientUnits="userSpaceOnUse"
       gradientTransform="matrix(0.796062,0,0,0.79777,-4.222611,-1.911679)" />
    <linearGradient
       inkscape:collect="always"
       xlink:href="#linearGradient2990"
       id="linearGradient2996"
       x1="26"
       y1="22.116529"
       x2="27.550253"
       y2="28.126938"
       gradientUnits="userSpaceOnUse"
       gradientTransform="matrix(0.796062,0,0,0.79777,-4.222611,-1.911679)" />
  </defs>
  <sodipodi:namedview
     stroke="#3465a4"
     fill="#fce94f"
     id="base"
     pagecolor="#ffffff"
     bordercolor="#666666"
     borderopacity="0.25490196"
     inkscape:pageopacity="0.0"
     inkscape:pageshadow="2"
     inkscape:zoom="1"
     inkscape:cx="51.026013"
     inkscape:cy="-15.194803"
     inkscape:current-layer="layer1"
     showgrid="true"
     inkscape:grid-bbox="true"
     inkscape:document-units="px"
     inkscape:showpageshadow="false"
     inkscape:window-width="856"
     inkscape:window-height="630"
     inkscape:window-x="546"
     inkscape:window-y="315"
     width="32px"
     height="32px" />
  <metadata
     id="metadata4">
    <rdf:RDF>
      <cc:Work
         rdf:about="">
        <dc:format>image/svg+xml</dc:format>
        <dc:type
           rdf:resource="http://purl.org/dc/dcmitype/StillImage" />
        <dc:creator>
          <cc:Agent>
            <dc:title>Jakub Steiner</dc:title>
          </cc:Agent>
        </dc:creator>
        <dc:source>http://jimmac.musichall.cz</dc:source>
        <cc:license
           rdf:resource="http://creativecommons.org/licenses/GPL/2.0/" />
        <dc:title>Dialog INformation</dc:title>
        <dc:subject>
          <rdf:Bag>
            <rdf:li>info</rdf:li>
            <rdf:li>information</rdf:li>
            <rdf:li>dialog</rdf:li>
          </rdf:Bag>
        </dc:subject>
      </cc:Work>
      <cc:License
         rdf:about="http://creativecommons.org/licenses/GPL/2.0/">
        <cc:permits
           rdf:resource="http://web.resource.org/cc/Reproduction" />
        <cc:permits
           rdf:resource="http://web.resource.org/cc/Distribution" />
        <cc:requires
           rdf:resource="http://web.resource.org/cc/Notice" />
        <cc:permits
           rdf:resource="http://web.resource.org/cc/DerivativeWorks" />
        <cc:requires
           rdf:resource="http://web.resource.org/cc/ShareAlike" />
        <cc:requires
           rdf:resource="http://web.resource.org/cc/SourceCode" />
      </cc:License>
    </rdf:RDF>
  </metadata>
  <g
     id="layer1"
     inkscape:label="Layer 1"
     inkscape:groupmode="layer">
    <g
       id="g4634"
       transform="matrix(0.796062,0,0,0.79777,-52.35563,8.943301)">
      <path
         inkscape:r_cy="true"
         inkscape:r_cx="true"
         sodipodi:type="arc"
         style="opacity:0.8;color:black;fill:url(#radialGradient4646);fill-opacity:1;fill-rule:nonzero;stroke:none;stroke-width:2;stroke-linecap:round;stroke-linejoin:round;marker:none;marker-start:none;marker-mid:none;marker-end:none;stroke-miterlimit:4;stroke-dashoffset:0;stroke-opacity:1;visibility:visible;display:inline;overflow:visible"
         id="path20208"
         sodipodi:cx="26.0625"
         sodipodi:cy="42.0625"
         sodipodi:rx="13.8125"
         sodipodi:ry="4.4375"
         d="M 39.875 42.0625 A 13.8125 4.4375 0 1 1  12.25,42.0625 A 13.8125 4.4375 0 1 1  39.875 42.0625 z"
         transform="matrix(0.907796,0,0,0.833036,63.34056,-9.57936)" />
      <path
         inkscape:r_cy="true"
         inkscape:r_cx="true"
         id="path19509"
         d="M 83.002195,22.877541 L 83.002195,24.260545 C 83.002195,25.643549 84.412925,26.872887 85.999995,26.872887 C 87.587066,26.872887 88.997794,25.643549 88.997794,24.260545 L 88.997794,22.877541 L 83.002195,22.877541 z "
         style="fill:#555753;fill-rule:nonzero;stroke:#2e3436;stroke-width:1.25483823;stroke-miterlimit:4;stroke-opacity:1" />
      <path
         style="color:black;fill:#aeae57;fill-opacity:1;fill-rule:nonzero;stroke:#c4a000;stroke-width:2.50967765;stroke-linecap:round;stroke-linejoin:round;marker:none;marker-start:none;marker-mid:none;marker-end:none;stroke-miterlimit:4;stroke-dashoffset:0;stroke-opacity:1;visibility:visible;display:inline;overflow:visible"
         d="M 85.835145,11.623519 C 82.568355,11.6156 78.863714,12.580499 80.871174,14.404546 C 80.37345,14.606241 79.661991,15.056698 79.74586,16.11077 C 79.792165,16.661264 80.373008,16.99918 81.167349,17.247287 C 80.266845,17.881784 79.693849,18.55227 79.74586,19.170624 C 79.791625,19.714699 80.36024,20.087289 81.138339,20.336283 C 80.260526,20.963478 79.694561,21.649745 79.74586,22.259619 C 79.824263,23.191711 81.825461,24.235779 86.158773,24.115531 C 89.278706,24.030099 92.031874,23.468343 92.249159,22.259619 C 92.33448,21.784995 91.947797,21.34215 91.34985,20.948254 C 91.797476,20.495031 92.111066,20.035337 92.075099,19.607746 C 92.029119,19.061107 91.467192,18.690738 90.682621,18.442088 C 91.560434,17.814893 92.126398,17.128626 92.075099,16.518751 C 92.029119,15.972112 91.467192,15.630886 90.682621,15.382234 C 91.570901,14.751651 92.126729,14.072695 92.075099,13.458897 C 92.01771,12.776619 88.90549,11.630962 85.835145,11.623519 z "
         id="path3209"
         sodipodi:nodetypes="cccccccscccccccs"
         inkscape:r_cx="true"
         inkscape:r_cy="true" />
      <path
         inkscape:r_cy="true"
         inkscape:r_cx="true"
         transform="matrix(0.596154,-0.127796,6.358129e-2,0.755885,92.37142,-7.700825)"
         d="M -3.5355339 27.228739 A 10.341436 3.2703688 0 1 1  -24.218407,27.228739 A 10.341436 3.2703688 0 1 1  -3.5355339 27.228739 z"
         sodipodi:ry="3.2703688"
         sodipodi:rx="10.341436"
         sodipodi:cy="27.228739"
         sodipodi:cx="-13.87697"
         id="path4702"
         style="color:black;fill:#fce94f;fill-opacity:1;fill-rule:nonzero;stroke:none;stroke-width:0.13035245;stroke-linecap:round;stroke-linejoin:round;marker:none;marker-start:none;marker-mid:none;marker-end:none;stroke-miterlimit:4;stroke-dashoffset:0;stroke-opacity:1;visibility:visible;display:inline;overflow:visible"
         sodipodi:type="arc" />
      <path
         style="color:black;fill:#fce94f;fill-opacity:1;fill-rule:nonzero;stroke:none;stroke-width:0.08828904;stroke-linecap:round;stroke-linejoin:round;marker:none;marker-start:none;marker-mid:none;marker-end:none;stroke-miterlimit:4;stroke-dashoffset:0;stroke-opacity:1;visibility:visible;display:inline;overflow:visible"
         d="M 92.173603,22.21572 C 91.956317,23.424444 88.881191,24.10655 83.959276,23.858968 C 80.842089,23.702168 80.663716,22.82605 80.881,21.617325 C 81.098286,20.4086 83.804176,19.561647 86.920934,19.726804 C 90.037692,19.89196 92.390887,21.006996 92.173603,22.21572 z "
         id="path3183"
         sodipodi:nodetypes="csccc"
         inkscape:r_cx="true"
         inkscape:r_cy="true" />
      <path
         transform="matrix(0.596154,-0.127796,6.358129e-2,0.755885,92.37142,-1.469023)"
         d="M -3.5355339 27.228739 A 10.341436 3.2703688 0 1 1  -24.218407,27.228739 A 10.341436 3.2703688 0 1 1  -3.5355339 27.228739 z"
         sodipodi:ry="3.2703688"
         sodipodi:rx="10.341436"
         sodipodi:cy="27.228739"
         sodipodi:cx="-13.87697"
         id="path1603"
         style="color:black;fill:#fce94f;fill-opacity:1;fill-rule:nonzero;stroke:none;stroke-width:0.13035245;stroke-linecap:round;stroke-linejoin:round;marker:none;marker-start:none;marker-mid:none;marker-end:none;stroke-miterlimit:4;stroke-dashoffset:0;stroke-opacity:1;visibility:visible;display:inline;overflow:visible"
         sodipodi:type="arc"
         inkscape:r_cx="true"
         inkscape:r_cy="true" />
      <path
         sodipodi:type="arc"
         style="color:black;fill:#fce94f;fill-opacity:1;fill-rule:nonzero;stroke:none;stroke-width:0.13035245;stroke-linecap:round;stroke-linejoin:round;marker:none;marker-start:none;marker-mid:none;marker-end:none;stroke-miterlimit:4;stroke-dashoffset:0;stroke-opacity:1;visibility:visible;display:inline;overflow:visible"
         id="path2364"
         sodipodi:cx="-13.87697"
         sodipodi:cy="27.228739"
         sodipodi:rx="10.341436"
         sodipodi:ry="3.2703688"
         d="M -3.5355339 27.228739 A 10.341436 3.2703688 0 1 1  -24.218407,27.228739 A 10.341436 3.2703688 0 1 1  -3.5355339 27.228739 z"
         transform="matrix(0.596154,-0.127796,6.358129e-2,0.755885,92.37142,-4.544575)"
         inkscape:r_cx="true"
         inkscape:r_cy="true" />
      <path
         sodipodi:type="arc"
         style="color:black;fill:white;fill-opacity:1;fill-rule:nonzero;stroke:none;stroke-width:2;stroke-linecap:butt;stroke-linejoin:round;marker:none;marker-start:none;marker-mid:none;marker-end:none;stroke-miterlimit:4;stroke-dashoffset:0;stroke-opacity:1;visibility:visible;display:inline;overflow:visible"
         id="path20372"
         sodipodi:cx="27.75"
         sodipodi:cy="22.375"
         sodipodi:rx="3.25"
         sodipodi:ry="3.25"
         d="M 31 22.375 A 3.25 3.25 0 1 1  24.5,22.375 A 3.25 3.25 0 1 1  31 22.375 z"
         transform="matrix(0.331798,0,0,0.333302,73.20968,11.18361)"
         inkscape:r_cx="true"
         inkscape:r_cy="true" />
      <path
         transform="matrix(0.331798,0,0,0.333302,73.20968,14.17188)"
         d="M 31 22.375 A 3.25 3.25 0 1 1  24.5,22.375 A 3.25 3.25 0 1 1  31 22.375 z"
         sodipodi:ry="3.25"
         sodipodi:rx="3.25"
         sodipodi:cy="22.375"
         sodipodi:cx="27.75"
         id="path2435"
         style="color:black;fill:white;fill-opacity:1;fill-rule:nonzero;stroke:none;stroke-width:2;stroke-linecap:butt;stroke-linejoin:round;marker:none;marker-start:none;marker-mid:none;marker-end:none;stroke-miterlimit:4;stroke-dashoffset:0;stroke-opacity:1;visibility:visible;display:inline;overflow:visible"
         sodipodi:type="arc"
         inkscape:r_cx="true"
         inkscape:r_cy="true" />
      <path
         inkscape:r_cy="true"
         inkscape:r_cx="true"
         transform="matrix(0.331798,0,0,0.333302,73.20968,7.77736)"
         d="M 31 22.375 A 3.25 3.25 0 1 1  24.5,22.375 A 3.25 3.25 0 1 1  31 22.375 z"
         sodipodi:ry="3.25"
         sodipodi:rx="3.25"
         sodipodi:cy="22.375"
         sodipodi:cx="27.75"
         id="path4708"
         style="color:black;fill:white;fill-opacity:1;fill-rule:nonzero;stroke:none;stroke-width:2;stroke-linecap:butt;stroke-linejoin:round;marker:none;marker-start:none;marker-mid:none;marker-end:none;stroke-miterlimit:4;stroke-dashoffset:0;stroke-opacity:1;visibility:visible;display:inline;overflow:visible"
         sodipodi:type="arc" />
      <path
         sodipodi:type="arc"
         style="color:black;fill:#fce94f;fill-opacity:1;fill-rule:nonzero;stroke:none;stroke-width:0.13035245;stroke-linecap:round;stroke-linejoin:round;marker:none;marker-start:none;marker-mid:none;marker-end:none;stroke-miterlimit:4;stroke-dashoffset:0;stroke-opacity:1;visibility:visible;display:inline;overflow:visible"
         id="path4710"
         sodipodi:cx="-13.87697"
         sodipodi:cy="27.228739"
         sodipodi:rx="10.341436"
         sodipodi:ry="3.2703688"
         d="M -3.5355339 27.228739 A 10.341436 3.2703688 0 1 1  -24.218407,27.228739 A 10.341436 3.2703688 0 1 1  -3.5355339 27.228739 z"
         transform="matrix(0.609516,1.48834e-2,-0.114607,0.749847,97.72817,-6.66803)"
         inkscape:r_cx="true"
         inkscape:r_cy="true" />
    </g>
    <path
       style="opacity:1;color:black;fill:url(#radialGradient4700);fill-opacity:1;fill-rule:evenodd;stroke:url(#linearGradient4718);stroke-width:1.00000012;stroke-linecap:butt;stroke-linejoin:miter;marker:none;marker-start:none;marker-mid:none;marker-end:none;stroke-miterlimit:4;stroke-dasharray:none;stroke-dashoffset:0;stroke-opacity:1;visibility:visible;display:inline;overflow:visible"
       d="M 15.691914,0.59926095 C 10.362788,0.9041821 6.135608,5.3496254 6.135608,10.766114 C 6.135608,13.816396 8.539321,15.620636 9.556921,19.268159 C 10.401366,22.295016 13.361959,22.980263 15.999242,22.980263 C 19.183556,22.980263 22.601131,21.923051 23.368499,18.255533 C 24.001684,15.229319 26.425776,13.268884 26.425776,10.766114 C 26.425774,5.1522639 21.882521,0.59926095 16.280692,0.59926095 C 16.083752,0.59926095 15.886093,0.58815045 15.691914,0.59926095 z "
       id="path3885"
       sodipodi:nodetypes="csszsssc" />
    <path
       sodipodi:nodetypes="csszsssc"
       id="path4664"
       d="M 15.738313,1.5531632 C 10.829144,1.8340552 6.935083,5.929179 6.935083,10.918826 C 6.935083,13.449157 9.572385,15.673998 10.26893,18.419814 C 11.070353,21.579066 13.582722,21.884946 16.280693,21.884946 C 19.142006,21.884946 21.945866,21.440666 22.487493,18.123938 C 22.931222,15.406701 25.626302,13.294726 25.626302,10.918826 C 25.6263,5.7473704 21.441075,1.5531632 16.280693,1.5531632 C 16.099273,1.5531632 15.91719,1.5429283 15.738313,1.5531632 z "
       style="opacity:0.59340671;color:black;fill:none;fill-opacity:1;fill-rule:evenodd;stroke:url(#radialGradient4672);stroke-width:1;stroke-linecap:butt;stroke-linejoin:miter;marker:none;marker-start:none;marker-mid:none;marker-end:none;stroke-miterlimit:4;stroke-dasharray:none;stroke-dashoffset:0;stroke-opacity:1;visibility:visible;display:inline;overflow:visible" />
    <path
       style="opacity:1;color:black;fill:none;fill-opacity:1;fill-rule:evenodd;stroke:url(#linearGradient2996);stroke-width:1.00000012;stroke-linecap:round;stroke-linejoin:round;marker:none;marker-start:none;marker-mid:none;marker-end:none;stroke-miterlimit:4;stroke-dasharray:none;stroke-dashoffset:0;stroke-opacity:1;visibility:visible;display:inline;overflow:visible"
       d="M 18.163703,21.267892 L 21.251373,11.278449 C 18.067125,9.8700394 14.882877,9.6802878 11.698629,11.650411 L 12.494691,14.043721"
       id="path4674"
       sodipodi:nodetypes="cccc" />
    <path
       sodipodi:type="arc"
       style="opacity:0.7525773;color:black;fill:white;fill-opacity:1;fill-rule:nonzero;stroke:none;stroke-width:1.05887306;stroke-linecap:butt;stroke-linejoin:miter;marker:none;marker-start:none;marker-mid:none;marker-end:none;stroke-miterlimit:4;stroke-dasharray:none;stroke-dashoffset:0;stroke-opacity:1;visibility:visible;display:inline;overflow:visible"
       id="path2998"
       sodipodi:cx="25.5"
       sodipodi:cy="10.125"
       sodipodi:rx="9.25"
       sodipodi:ry="6.125"
       d="M 34.75 10.125 A 9.25 6.125 0 1 1  16.25,10.125 A 9.25 6.125 0 1 1  34.75 10.125 z"
       transform="matrix(0.560118,0,0,0.629359,1.98628,0.95807)" />
    <path
       transform="matrix(0.104811,-0.206064,0.137485,0.19748,5.390869,13.44583)"
       d="M 34.75 10.125 A 9.25 6.125 0 1 1  16.25,10.125 A 9.25 6.125 0 1 1  34.75 10.125 z"
       sodipodi:ry="6.125"
       sodipodi:rx="9.25"
       sodipodi:cy="10.125"
       sodipodi:cx="25.5"
       id="path3000"
       style="opacity:0.68556704;color:black;fill:white;fill-opacity:1;fill-rule:nonzero;stroke:none;stroke-width:1.05887306;stroke-linecap:butt;stroke-linejoin:miter;marker:none;marker-start:none;marker-mid:none;marker-end:none;stroke-miterlimit:4;stroke-dasharray:none;stroke-dashoffset:0;stroke-opacity:1;visibility:visible;display:inline;overflow:visible"
       sodipodi:type="arc"
       inkscape:transform-center-y="2.2574715"
       inkscape:transform-center-x="1.0383788e-05" />
  </g>
</svg>
