<?xml version="1.0" encoding="UTF-8" standalone="no"?>
<!-- Created with Inkscape (http://www.inkscape.org/) -->
<svg
   xmlns:dc="http://purl.org/dc/elements/1.1/"
   xmlns:cc="http://web.resource.org/cc/"
   xmlns:rdf="http://www.w3.org/1999/02/22-rdf-syntax-ns#"
   xmlns:svg="http://www.w3.org/2000/svg"
   xmlns="http://www.w3.org/2000/svg"
   xmlns:xlink="http://www.w3.org/1999/xlink"
   xmlns:sodipodi="http://sodipodi.sourceforge.net/DTD/sodipodi-0.dtd"
   xmlns:inkscape="http://www.inkscape.org/namespaces/inkscape"
   width="32"
   height="32"
   id="svg7854"
   sodipodi:version="0.32"
   inkscape:version="0.45"
   version="1.0"
   sodipodi:docbase="/home/lapo/Icone/gnome-icon-theme/32x32/status"
   sodipodi:docname="media-playlist-repeat.svg"
   inkscape:output_extension="org.inkscape.output.svg.inkscape"
   inkscape:export-filename="/home/lapo/Icone/gnome-icon-theme/32x32/status/media-playlist-shuffle.png"
   inkscape:export-xdpi="90"
   inkscape:export-ydpi="90">
  <defs
     id="defs7856">
    <linearGradient
       id="linearGradient7344"
       inkscape:collect="always">
      <stop
         id="stop7346"
         offset="0"
         style="stop-color:#eeeeec;stop-opacity:1" />
      <stop
         id="stop7348"
         offset="1"
         style="stop-color:#92948f;stop-opacity:1" />
    </linearGradient>
    <filter
       inkscape:collect="always"
       id="filter7319">
      <feGaussianBlur
         inkscape:collect="always"
         stdDeviation="0.7812031"
         id="feGaussianBlur7321" />
    </filter>
    <radialGradient
       inkscape:collect="always"
       xlink:href="#linearGradient7344"
       id="radialGradient7564"
       gradientUnits="userSpaceOnUse"
       gradientTransform="matrix(3.7501265,0,0,1.7574617,-92.582739,-27.71286)"
       cx="32.631359"
       cy="33.584618"
       fx="32.631359"
       fy="33.584618"
       r="16" />
  </defs>
  <sodipodi:namedview
     id="base"
     pagecolor="#ffffff"
     bordercolor="#afafaf"
     borderopacity="1"
     gridtolerance="15.1"
     guidetolerance="10"
     objecttolerance="10"
     inkscape:pageopacity="0"
     inkscape:pageshadow="2"
     inkscape:zoom="1"
     inkscape:cx="-75.373225"
     inkscape:cy="-85.31353"
     inkscape:document-units="px"
     inkscape:current-layer="layer1"
     width="32px"
     height="32px"
     inkscape:showpageshadow="false"
     inkscape:window-width="872"
     inkscape:window-height="971"
     inkscape:window-x="62"
     inkscape:window-y="21"
     showgrid="false"
     gridspacingx="0.5px"
     gridspacingy="0.5px"
     gridempspacing="2"
     inkscape:grid-points="false"
     showborder="true"
     showguides="false"
     inkscape:guide-bbox="false"
     inkscape:grid-bbox="true"
     inkscape:object-paths="false">
    <sodipodi:guide
       orientation="horizontal"
       position="8.6620581"
       id="guide7377" />
    <sodipodi:guide
       orientation="horizontal"
       position="6"
       id="guide7379" />
    <sodipodi:guide
       orientation="horizontal"
       position="36.062446"
       id="guide7492" />
    <sodipodi:guide
       orientation="horizontal"
       position="51"
       id="guide7046" />
    <sodipodi:guide
       orientation="horizontal"
       position="-17.5"
       id="guide7233" />
    <sodipodi:guide
       orientation="horizontal"
       position="-29"
       id="guide7235" />
    <sodipodi:guide
       orientation="horizontal"
       position="44.547727"
       id="guide6795" />
    <sodipodi:guide
       orientation="horizontal"
       position="16.970563"
       id="guide6797" />
    <sodipodi:guide
       orientation="horizontal"
       position="23.511301"
       id="guide6914" />
  </sodipodi:namedview>
  <metadata
     id="metadata7859">
    <rdf:RDF>
      <cc:Work
         rdf:about="">
        <dc:format>image/svg+xml</dc:format>
        <dc:type
           rdf:resource="http://purl.org/dc/dcmitype/StillImage" />
        <dc:creator>
          <cc:Agent>
            <dc:title>Lapo Calamandrei</dc:title>
          </cc:Agent>
        </dc:creator>
        <dc:source />
        <cc:license
           rdf:resource="http://creativecommons.org/licenses/GPL/2.0/" />
        <dc:title>Media statusses</dc:title>
        <dc:subject>
          <rdf:Bag />
        </dc:subject>
      </cc:Work>
      <cc:License
         rdf:about="http://creativecommons.org/licenses/GPL/2.0/">
        <cc:permits
           rdf:resource="http://web.resource.org/cc/Reproduction" />
        <cc:permits
           rdf:resource="http://web.resource.org/cc/Distribution" />
        <cc:requires
           rdf:resource="http://web.resource.org/cc/Notice" />
        <cc:permits
           rdf:resource="http://web.resource.org/cc/DerivativeWorks" />
        <cc:requires
           rdf:resource="http://web.resource.org/cc/ShareAlike" />
        <cc:requires
           rdf:resource="http://web.resource.org/cc/SourceCode" />
      </cc:License>
    </rdf:RDF>
  </metadata>
  <g
     inkscape:label="Layer 1"
     inkscape:groupmode="layer"
     id="layer1">
    <g
       id="g7422"
       transform="translate(-138,-50)" />
    <g
       id="g7431"
       transform="translate(50,0)">
      <g
         transform="translate(-49,-50)"
         id="g7325">
        <path
           sodipodi:nodetypes="cccccccccccccccccccccccc"
           id="path7317"
           d="M 8.1620976,58.520223 C 6.1748685,58.520223 4.5303298,60.164761 4.5303298,62.15199 L 4.5303298,67.828319 C 4.5303298,69.815548 6.1748685,71.460086 8.1620976,71.460086 L 11.513535,71.460086 L 11.513535,68.554672 L 8.1620976,68.554672 C 7.7342121,68.554672 7.4357441,68.256204 7.4357441,67.828319 L 7.4357441,62.15199 C 7.4357441,61.724106 7.7342121,61.425637 8.1620976,61.425637 L 22.885191,61.425637 C 23.313079,61.425637 23.611544,61.724105 23.611544,62.15199 L 23.611544,67.828319 C 23.611544,68.256203 23.313076,68.554672 22.885191,68.554672 L 19.503423,68.554672 L 19.503423,66.330215 L 14.418949,69.961982 L 19.503423,73.59375 L 19.503423,71.460086 L 22.885191,71.460086 C 24.87242,71.460086 26.516957,69.815548 26.516958,67.828319 L 26.516958,62.15199 C 26.516958,60.164761 24.872421,58.520223 22.885191,58.520223 L 8.1620976,58.520223 z "
           style="opacity:0.3;fill:#000000;fill-opacity:1;stroke:#000000;stroke-width:0.99999988;stroke-linecap:round;stroke-linejoin:round;stroke-miterlimit:4;stroke-dasharray:none;stroke-dashoffset:0.7;stroke-opacity:1;filter:url(#filter7319)" />
        <path
           sodipodi:nodetypes="cccccccccccccccccccccccc"
           id="path7323"
           d="M 8.1620976,60.520223 C 6.1748685,60.520223 4.5303298,62.164761 4.5303298,64.15199 L 4.5303298,69.828319 C 4.5303298,71.815548 6.1748685,73.460086 8.1620976,73.460086 L 11.513535,73.460086 L 11.513535,70.554672 L 8.1620976,70.554672 C 7.7342121,70.554672 7.4357441,70.256204 7.4357441,69.828319 L 7.4357441,64.15199 C 7.4357441,63.724106 7.7342121,63.425637 8.1620976,63.425637 L 22.885191,63.425637 C 23.313079,63.425637 23.611544,63.724105 23.611544,64.15199 L 23.611544,69.828319 C 23.611544,70.256203 23.313076,70.554672 22.885191,70.554672 L 19.503423,70.554672 L 19.503423,68.330215 L 14.418949,71.961982 L 19.503423,75.59375 L 19.503423,73.460086 L 22.885191,73.460086 C 24.87242,73.460086 26.516957,71.815548 26.516958,69.828319 L 26.516958,64.15199 C 26.516958,62.164761 24.872421,60.520223 22.885191,60.520223 L 8.1620976,60.520223 z "
           style="opacity:0.6;fill:#ffffff;fill-opacity:1;stroke:#ffffff;stroke-width:0.99999988;stroke-linecap:round;stroke-linejoin:round;stroke-miterlimit:4;stroke-dasharray:none;stroke-dashoffset:0.7;stroke-opacity:1;filter:url(#filter7319)" />
      </g>
      <g
         transform="matrix(0.7263535,0,0,0.7263535,-51.174005,-1.011903)"
         id="g7299">
        <path
           style="opacity:1;fill:url(#radialGradient7564);fill-opacity:1;stroke:#555753;stroke-width:1.37673998;stroke-linecap:round;stroke-linejoin:round;stroke-miterlimit:4;stroke-dasharray:none;stroke-dashoffset:0.7;stroke-opacity:1"
           d="M 14.230127,14.5 C 11.494229,14.5 9.2301267,16.764102 9.2301267,19.5 L 9.2301267,27.314829 C 9.2301267,30.050727 11.494229,32.314829 14.230127,32.314829 L 18.844185,32.314829 L 18.844185,28.314829 L 14.230127,28.314829 C 13.64104,28.314829 13.230127,27.903916 13.230127,27.314829 L 13.230127,19.5 C 13.230127,18.910914 13.64104,18.5 14.230127,18.5 L 34.5,18.5 C 35.089091,18.5 35.5,18.910913 35.5,19.5 L 35.5,27.314829 C 35.5,27.903915 35.089087,28.314829 34.5,28.314829 L 29.844185,28.314829 L 29.844185,25.252329 L 22.844185,30.252329 L 29.844185,35.252329 L 29.844185,32.314829 L 34.5,32.314829 C 37.235898,32.314829 39.499998,30.050727 39.5,27.314829 L 39.5,19.5 C 39.5,16.764102 37.235899,14.5 34.5,14.5 L 14.230127,14.5 z "
           id="path7293"
           sodipodi:nodetypes="cccccccccccccccccccccccc" />
      </g>
      <g
         style="fill:none;stroke:#ffffff;stroke-width:0.82604408;stroke-miterlimit:4;stroke-dasharray:none"
         transform="matrix(0.7263535,0,0,0.7263535,-51.174005,-1.011903)"
         id="g7308">
        <path
           d="M 14.21875,15.59375 C 12.087071,15.59375 10.3125,17.368321 10.3125,19.5 L 10.3125,27.3125 C 10.3125,29.444179 12.087071,31.21875 14.21875,31.21875 L 17.75,31.21875 L 17.75,29.40625 L 14.21875,29.40625 C 13.120369,29.40625 12.125,28.410881 12.125,27.3125 L 12.125,19.5 C 12.125,18.401619 13.120368,17.40625 14.21875,17.40625 L 34.5,17.40625 C 35.598382,17.40625 36.59375,18.401624 36.59375,19.5 L 36.59375,27.3125 C 36.59375,28.410881 35.598382,29.40625 34.5,29.40625 L 29.84375,29.40625 C 29.240042,29.405396 28.750854,28.916208 28.75,28.3125 L 28.75,27.375 L 24.75,30.25 L 28.75,33.125 L 28.75,32.3125 C 28.750854,31.708792 29.240042,31.219604 29.84375,31.21875 L 34.5,31.21875 C 36.63168,31.218748 38.406248,29.44418 38.40625,27.3125 L 38.40625,19.5 C 38.40625,17.368321 36.63168,15.59375 34.5,15.59375 L 14.21875,15.59375 z "
           id="path7312"
           style="opacity:0.5;fill:none;fill-opacity:1;stroke:#ffffff;stroke-width:0.82604408;stroke-linecap:round;stroke-linejoin:round;stroke-miterlimit:4;stroke-dasharray:none;stroke-dashoffset:0.7;stroke-opacity:1"
           inkscape:original="M 14.21875 14.5 C 11.482852 14.5 9.21875 16.764102 9.21875 19.5 L 9.21875 27.3125 C 9.2187503 30.048398 11.482852 32.3125 14.21875 32.3125 L 18.84375 32.3125 L 18.84375 28.3125 L 14.21875 28.3125 C 13.629663 28.3125 13.21875 27.901587 13.21875 27.3125 L 13.21875 19.5 C 13.21875 18.910914 13.629663 18.5 14.21875 18.5 L 34.5 18.5 C 35.089091 18.5 35.5 18.910913 35.5 19.5 L 35.5 27.3125 C 35.5 27.901586 35.089087 28.3125 34.5 28.3125 L 29.84375 28.3125 L 29.84375 25.25 L 22.84375 30.25 L 29.84375 35.25 L 29.84375 32.3125 L 34.5 32.3125 C 37.235898 32.312498 39.499998 30.048398 39.5 27.3125 L 39.5 19.5 C 39.5 16.764102 37.235899 14.5 34.5 14.5 L 14.21875 14.5 z "
           inkscape:radius="-1.09519"
           sodipodi:type="inkscape:offset" />
      </g>
      <path
         sodipodi:nodetypes="cccccccccccccccc"
         id="path7314"
         d="M -38.462819,20.529018 L -40.846166,20.529018 C -41.730361,20.529018 -42.548557,19.710821 -42.548557,18.826627 M -26.114809,10.49626 L -40.846166,10.49626 C -42.292037,10.49626 -43.501896,11.70612 -43.501896,13.15199 L -43.501896,18.826627 M -24.412418,13.15199 L -24.412418,18.826627 C -24.412418,19.710822 -25.230613,20.529018 -26.114809,20.529018 L -29.496893,20.529018 C -30.034736,20.526115 -30.470027,20.090824 -30.47293,19.55298 L -30.47293,19.235201 L -32.901675,20.96029 L -30.47293,22.68538 L -30.47293,22.458394"
         style="opacity:0.7;fill:none;fill-opacity:1;stroke:#ffffff;stroke-width:1;stroke-linecap:round;stroke-linejoin:miter;stroke-miterlimit:4;stroke-dashoffset:0.7;stroke-opacity:1" />
    </g>
  </g>
</svg>
