<?xml version="1.0" encoding="UTF-8" standalone="no"?>
<!-- Created with Inkscape (http://www.inkscape.org/) -->
<svg
   xmlns:dc="http://purl.org/dc/elements/1.1/"
   xmlns:cc="http://web.resource.org/cc/"
   xmlns:rdf="http://www.w3.org/1999/02/22-rdf-syntax-ns#"
   xmlns:svg="http://www.w3.org/2000/svg"
   xmlns="http://www.w3.org/2000/svg"
   xmlns:xlink="http://www.w3.org/1999/xlink"
   xmlns:sodipodi="http://sodipodi.sourceforge.net/DTD/sodipodi-0.dtd"
   xmlns:inkscape="http://www.inkscape.org/namespaces/inkscape"
   inkscape:export-ydpi="90.000000"
   inkscape:export-xdpi="90.000000"
   inkscape:export-filename="/home/jimmac/gfx/novell/pdes/branches/NLD10/network-manager/applet-icons/48x48/apps/nm-device-wireless-encrypted.png"
   width="32"
   height="32"
   id="svg11300"
   sodipodi:version="0.32"
   inkscape:version="0.45+devel"
   sodipodi:docbase="/home/garrett/Source/tango-icon-theme/scalable/status"
   sodipodi:docname="security-low.svg"
   inkscape:output_extension="org.inkscape.output.svg.inkscape"
   version="1.0">
  <defs
     id="defs3">
    <linearGradient
       inkscape:collect="always"
       id="linearGradient6215">
      <stop
         style="stop-color:#8f5902;stop-opacity:1;"
         offset="0"
         id="stop6217" />
      <stop
         style="stop-color:#754e11;stop-opacity:1"
         offset="1"
         id="stop6219" />
    </linearGradient>
    <linearGradient
       inkscape:collect="always"
       id="linearGradient6134">
      <stop
         style="stop-color:#ffffff;stop-opacity:1;"
         offset="0"
         id="stop6136" />
      <stop
         style="stop-color:#ffffff;stop-opacity:0.25490196"
         offset="1"
         id="stop6138" />
    </linearGradient>
    <linearGradient
       inkscape:collect="always"
       id="linearGradient6118">
      <stop
         style="stop-color:#8f5902;stop-opacity:1;"
         offset="0"
         id="stop6120" />
      <stop
         style="stop-color:#8f5902;stop-opacity:0.42745098"
         offset="1"
         id="stop6122" />
    </linearGradient>
    <linearGradient
       inkscape:collect="always"
       id="linearGradient6089">
      <stop
         style="stop-color:#e09929;stop-opacity:1"
         offset="0"
         id="stop6091" />
      <stop
         style="stop-color:#b67a1c;stop-opacity:1"
         offset="1"
         id="stop6093" />
    </linearGradient>
    <linearGradient
       inkscape:collect="always"
       id="linearGradient15679">
      <stop
         style="stop-color:#000000;stop-opacity:1;"
         offset="0"
         id="stop15681" />
      <stop
         style="stop-color:#000000;stop-opacity:0;"
         offset="1"
         id="stop15683" />
    </linearGradient>
    <radialGradient
       inkscape:collect="always"
       xlink:href="#linearGradient15679"
       id="radialGradient15685"
       cx="23.3125"
       cy="40.9375"
       fx="23.3125"
       fy="40.9375"
       r="17.1875"
       gradientTransform="matrix(1,0,0,0.316364,0,27.98636)"
       gradientUnits="userSpaceOnUse" />
    <linearGradient
       inkscape:collect="always"
       xlink:href="#linearGradient6089"
       id="linearGradient6095"
       x1="22.408667"
       y1="17.525267"
       x2="28"
       y2="31"
       gradientUnits="userSpaceOnUse"
       gradientTransform="matrix(0.692245,0,0,0.6955235,-0.628241,-1.4507906)" />
    <linearGradient
       inkscape:collect="always"
       xlink:href="#linearGradient6089"
       id="linearGradient6111"
       x1="36"
       y1="12"
       x2="39"
       y2="27"
       gradientUnits="userSpaceOnUse"
       gradientTransform="matrix(0.7479502,0,0,0.6964504,-3.0690257,-1.310641)" />
    <linearGradient
       inkscape:collect="always"
       xlink:href="#linearGradient6118"
       id="linearGradient6124"
       x1="21.768894"
       y1="16.065203"
       x2="21.768894"
       y2="4.7882247"
       gradientUnits="userSpaceOnUse"
       spreadMethod="reflect" />
    <linearGradient
       inkscape:collect="always"
       xlink:href="#linearGradient6134"
       id="linearGradient6140"
       x1="18.03125"
       y1="2.4583249"
       x2="29.398239"
       y2="40.668037"
       gradientUnits="userSpaceOnUse" />
    <linearGradient
       inkscape:collect="always"
       xlink:href="#linearGradient6134"
       id="linearGradient6162"
       x1="8.4586315"
       y1="11.074956"
       x2="13.490013"
       y2="33.65271"
       gradientUnits="userSpaceOnUse"
       gradientTransform="matrix(0.7001698,0,0,0.6519345,-0.3259401,-0.7018197)" />
    <linearGradient
       inkscape:collect="always"
       xlink:href="#linearGradient6134"
       id="linearGradient6178"
       x1="34.035664"
       y1="9.667614"
       x2="37.515675"
       y2="35.281033"
       gradientUnits="userSpaceOnUse"
       gradientTransform="matrix(0.6834259,0,0,0.643763,-0.5669567,-0.6151169)" />
    <linearGradient
       inkscape:collect="always"
       xlink:href="#linearGradient6118"
       id="linearGradient6198"
       gradientUnits="userSpaceOnUse"
       x1="26.514629"
       y1="19.39835"
       x2="26.562061"
       y2="5.6904283"
       spreadMethod="reflect"
       gradientTransform="matrix(1.2543058,0,0,0.6862695,-15.161362,-1.156487)" />
    <linearGradient
       inkscape:collect="always"
       xlink:href="#linearGradient6118"
       id="linearGradient6209"
       x1="35.303009"
       y1="18.770054"
       x2="35.408066"
       y2="6.9774346"
       gradientUnits="userSpaceOnUse"
       spreadMethod="reflect"
       gradientTransform="matrix(0.6856598,0,0,0.6862695,-0.4373234,-1.2731951)" />
    <linearGradient
       inkscape:collect="always"
       xlink:href="#linearGradient6118"
       id="linearGradient6213"
       gradientUnits="userSpaceOnUse"
       spreadMethod="reflect"
       x1="35.303009"
       y1="18.770054"
       x2="35.408066"
       y2="6.9774346"
       gradientTransform="matrix(-0.8239667,0,0,0.6950382,37.520517,-1.0869331)" />
    <linearGradient
       inkscape:collect="always"
       xlink:href="#linearGradient6215"
       id="linearGradient6221"
       x1="8.497467"
       y1="11.45237"
       x2="12.74407"
       y2="34.564865"
       gradientUnits="userSpaceOnUse"
       gradientTransform="matrix(0.7502952,0,0,0.6949333,-0.8786927,-1.3014567)" />
    <linearGradient
       inkscape:collect="always"
       xlink:href="#linearGradient6089"
       id="linearGradient6223"
       gradientUnits="userSpaceOnUse"
       x1="7.3230166"
       y1="16.488125"
       x2="14.609904"
       y2="26.591333"
       gradientTransform="matrix(0.7502952,0,0,0.6949333,-0.8786927,-1.3014567)" />
    <linearGradient
       inkscape:collect="always"
       xlink:href="#linearGradient6215"
       id="linearGradient6231"
       x1="17.536705"
       y1="15.516562"
       x2="25.051275"
       y2="35.506447"
       gradientUnits="userSpaceOnUse"
       gradientTransform="matrix(0.692245,0,0,0.6955235,-0.628241,-1.4507906)" />
    <linearGradient
       inkscape:collect="always"
       xlink:href="#linearGradient6215"
       id="linearGradient6239"
       x1="33.627586"
       y1="15.624545"
       x2="37.279495"
       y2="30.408791"
       gradientUnits="userSpaceOnUse"
       gradientTransform="matrix(0.7479502,0,0,0.6964504,-3.0690257,-1.310641)" />
  </defs>
  <sodipodi:namedview
     stroke="#888a85"
     fill="#babdb6"
     id="base"
     pagecolor="#ffffff"
     bordercolor="#666666"
     borderopacity="0.25490196"
     inkscape:pageopacity="0.0"
     inkscape:pageshadow="2"
     inkscape:zoom="1"
     inkscape:cx="15.030736"
     inkscape:cy="11.887139"
     inkscape:current-layer="layer1"
     showgrid="true"
     inkscape:grid-bbox="true"
     inkscape:document-units="px"
     inkscape:showpageshadow="false"
     inkscape:window-width="1011"
     inkscape:window-height="801"
     inkscape:window-x="84"
     inkscape:window-y="40"
     gridempspacing="4"
     showguides="true"
     inkscape:guide-bbox="true"
     inkscape:object-paths="true"
     inkscape:object-nodes="true"
     objecttolerance="6"
     gridtolerance="7"
     guidetolerance="6"
     width="32px"
     height="32px">
    <inkscape:grid
       type="xygrid"
       id="grid5482"
       spacingx="0.5px"
       spacingy="0.5px"
       empspacing="2" />
  </sodipodi:namedview>
  <metadata
     id="metadata4">
    <rdf:RDF>
      <cc:Work
         rdf:about="">
        <dc:format>image/svg+xml</dc:format>
        <dc:type
           rdf:resource="http://purl.org/dc/dcmitype/StillImage" />
        <dc:creator>
          <cc:Agent>
            <dc:title>Ulisse Perusin</dc:title>
          </cc:Agent>
        </dc:creator>
        <dc:source>uli.peru@gmail.com</dc:source>
        <cc:license
           rdf:resource="http://creativecommons.org/licenses/GPL/2.0/" />
        <dc:title>security low</dc:title>
        <dc:subject>
          <rdf:Bag>
            <rdf:li>security low</rdf:li>
          </rdf:Bag>
        </dc:subject>
        <dc:contributor>
          <cc:Agent>
            <dc:title />
          </cc:Agent>
        </dc:contributor>
      </cc:Work>
    </rdf:RDF>
  </metadata>
  <g
     id="layer1"
     inkscape:label="Layer 1"
     inkscape:groupmode="layer">
    <path
       sodipodi:type="arc"
       style="opacity:0.36931817;color:#000000;fill:url(#radialGradient15685);fill-opacity:1;fill-rule:nonzero;stroke:none;stroke-width:1.00000024;stroke-linecap:round;stroke-linejoin:round;marker:none;marker-start:none;marker-mid:none;marker-end:none;stroke-miterlimit:4;stroke-dasharray:none;stroke-dashoffset:0;stroke-opacity:1;visibility:visible;display:block;overflow:visible"
       id="path15677"
       sodipodi:cx="23.3125"
       sodipodi:cy="40.9375"
       sodipodi:rx="17.1875"
       sodipodi:ry="5.4375"
       d="M 40.5,40.9375 A 17.1875,5.4375 0 1 1 6.125,40.9375 A 17.1875,5.4375 0 1 1 40.5,40.9375 z"
       transform="matrix(0.6690909,0,0,0.6436782,-9.8181656e-2,1.1494254)" />
    <path
       inkscape:r_cy="true"
       inkscape:r_cx="true"
       style="color:#000000;fill:url(#linearGradient6223);fill-opacity:1;fill-rule:nonzero;stroke:url(#linearGradient6221);stroke-width:1;stroke-linecap:round;stroke-linejoin:round;marker:none;marker-start:none;marker-mid:none;marker-end:none;stroke-miterlimit:4;stroke-dasharray:none;stroke-dashoffset:0;stroke-opacity:1;visibility:visible;display:block;overflow:visible"
       d="M 2.5,4.6054767 C 2.5170381,9.983333 3.7619396,14.349358 5.5189266,17.837162 L 6.5,15 L 6.5,19.5 C 7.7363486,21.646818 8.8839402,23.075889 10.279137,24.514819 C 10.72016,24.969666 11.069952,25.110874 11.5,25.500001 L 11.433064,3.2465205 L 9.981762,2.451672 C 7.4582117,2.91898 4.9600484,3.6350554 2.5,4.6054767 z"
       id="path15651"
       sodipodi:nodetypes="ccccscccc" />
    <g
       inkscape:r_cy="true"
       inkscape:r_cx="true"
       id="g3168"
       transform="matrix(0.685672,0,0,0.6862695,1.4154664,15.274739)" />
    <path
       inkscape:r_cy="true"
       inkscape:r_cx="true"
       style="color:#000000;fill:url(#linearGradient6095);fill-opacity:1;fill-rule:nonzero;stroke:url(#linearGradient6231);stroke-width:0.99999994;stroke-linecap:round;stroke-linejoin:round;marker:none;marker-start:none;marker-mid:none;marker-end:none;stroke-miterlimit:4;stroke-dasharray:none;stroke-dashoffset:0;stroke-opacity:1;visibility:visible;display:block;overflow:visible"
       d="M 11.500001,26.370147 C 13.949287,28.611036 15.985638,29.500002 15.985638,29.500002 C 15.985638,29.500002 17.457506,29.211053 18.5,28.5 L 18.5,25 L 18.5,27.5 C 18.985284,27.116257 19.936032,26.578281 20.479228,26.073284 L 20.500001,1.697178 C 17.478496,1.3107465 14.497778,1.5446455 11.516428,1.9485384 L 11.500001,26.370147 z"
       id="path6085"
       sodipodi:nodetypes="ccccccccc" />
    <path
       inkscape:r_cy="true"
       inkscape:r_cx="true"
       style="color:#000000;fill:url(#linearGradient6111);fill-opacity:1;fill-rule:nonzero;stroke:url(#linearGradient6239);stroke-width:1;stroke-linecap:round;stroke-linejoin:round;marker:none;marker-start:none;marker-mid:none;marker-end:none;stroke-miterlimit:4;stroke-dasharray:none;stroke-dashoffset:0;stroke-opacity:1;visibility:visible;display:block;overflow:visible"
       d="M 20.5,25.5 C 24.628006,21.728275 29.521545,15.460866 29.499928,4.5627405 C 28.987269,4.3823637 28.014292,4.1549735 27.5,4 L 26.5,6.5 L 26.5,3.5 C 24.659716,3.043246 22.334998,2.6854959 20.499374,2.4337082 L 20.5,25.5 z"
       id="path6087"
       sodipodi:nodetypes="ccccccc" />
    <g
       id="g6180"
       transform="matrix(0.7795949,0,0,0.6862695,-2.5408845,-0.8822553)">
      <path
         sodipodi:nodetypes="ccccsscssc"
         id="path6115"
         d="M 23,16 C 22.971081,17.833722 22.216146,18.144142 22.063136,19.697469 L 21.123226,28.749266 L 21.123226,20.52036 C 21.183786,17.633271 20.473449,17.822702 20.49662,15.994461 C 20.507568,15.143313 20.661633,14.225771 21.123226,13.937234 C 21.260286,13.85156 21.041393,10.767133 21.123226,7.3541095 L 21.749833,7.3541095 C 21.551382,5.9669206 21.853663,12.815317 22.376439,13.937234 C 22.623186,14.466772 23,15.221051 23,16 z"
         style="opacity:0.56078384;fill:url(#linearGradient6124);fill-opacity:1;stroke:none;stroke-width:1;stroke-linecap:square;stroke-linejoin:miter;stroke-miterlimit:4;stroke-opacity:1"
         transform="matrix(2.0470866,0,0,1.7707742,-22.023792,-8.8225789)" />
      <path
         transform="matrix(1.2186038,0,0,1.25,-4.0278883,-0.5)"
         d="M 23,16 A 1.2309169,2 0 1 1 20.538166,16 A 1.2309169,2 0 1 1 23,16 z"
         sodipodi:ry="2"
         sodipodi:rx="1.2309169"
         sodipodi:cy="16"
         sodipodi:cx="21.769083"
         id="path6113"
         style="opacity:0.59215686;fill:#e9b96e;fill-opacity:1;stroke:none;stroke-width:1;stroke-linecap:square;stroke-linejoin:miter;stroke-miterlimit:4;stroke-dasharray:none;stroke-opacity:1"
         sodipodi:type="arc" />
    </g>
    <path
       style="opacity:0.37254902;fill:url(#linearGradient6198);fill-opacity:1;stroke:none;stroke-width:1;stroke-linecap:square;stroke-linejoin:miter;stroke-miterlimit:4;stroke-opacity:1"
       d="M 16.251761,2 L 17.560643,2.130205 C 17.560643,2.130205 16.994477,5.373811 18.172851,8.998688 C 19.351226,12.623565 18.442586,14.429617 18.098414,17.331581 C 17.754241,20.233544 18.11047,22.631017 18.130175,24.818468 L 18,28.268354 L 16.127223,28.952483 C 16.127223,28.952483 15.579423,17.937134 16.757249,15.280994 C 17.935075,12.624854 17.408381,11.826491 16.591565,9.324033 C 15.774749,6.821574 16.251761,2 16.251761,2 z"
       id="rect6186"
       sodipodi:nodetypes="cczzccczzc" />
    <path
       transform="matrix(0.6421184,0,0,0.6770614,0.6007446,-1.0406802)"
       style="opacity:0.38039216;color:#000000;fill:none;fill-opacity:1;fill-rule:nonzero;stroke:url(#linearGradient6140);stroke-width:1.51662576;stroke-linecap:round;stroke-linejoin:miter;stroke-miterlimit:4;stroke-dashoffset:0;stroke-opacity:1;marker:none;marker-start:none;marker-mid:none;marker-end:none;visibility:visible;display:block;overflow:visible"
       d="M 24.03125,5.28125 C 22.202509,5.3550723 20.367448,5.4994593 18.531248,5.728708 L 18.531248,39.76271 C 21.385873,42.284205 23.452117,43.199675 23.981956,43.448834 C 24.184676,43.343245 25.446552,43.28227 26.317974,42.718893 L 26.317974,38.026446 C 26.390586,37.535315 27.021568,36.923896 27.517977,36.91614 C 28.014385,36.908384 29.048622,37.141909 29.136542,37.630531 L 29.382262,39.311284 L 29.432664,39.257792 L 29.432664,5.3608368 C 27.60372,5.1772405 25.855413,5.2076125 24.03125,5.28125 z"
       id="path6130"
       sodipodi:nodetypes="ccccccsccccc" />
    <path
       style="opacity:0.25098039;fill:url(#linearGradient6213);fill-opacity:1;stroke:none;stroke-width:1;stroke-linecap:square;stroke-linejoin:miter;stroke-miterlimit:4;stroke-opacity:1"
       d="M 7.1924203,3 L 5.5095285,3.3296722 C 5.3793054,12.414266 6.632038,12.661358 6.3326043,18.560531 L 8.0172792,20.967138 C 8.1479497,11.408165 6.7243486,10.098834 7.1924203,3 z"
       id="path6211"
       sodipodi:nodetypes="ccccc" />
    <path
       style="opacity:0.37999998;color:#000000;fill:none;fill-opacity:1;fill-rule:nonzero;stroke:url(#linearGradient6162);stroke-width:1;stroke-linecap:round;stroke-linejoin:miter;marker:none;marker-start:none;marker-mid:none;marker-end:none;stroke-miterlimit:4;stroke-dashoffset:0;stroke-opacity:1;visibility:visible;display:block;overflow:visible"
       d="M 9.6952401,3.5153816 C 7.6257623,3.9151541 5.5716748,4.4948576 3.5468741,5.2674556 C 3.6124144,9.1333235 4.3063664,12.349514 5.4221554,15.101563 L 5.5,14.899386 C 5.5971133,14.336037 6.175282,13.954993 6.555933,14 C 6.9365837,14.045007 7.548337,14.457843 7.5,14.81227 L 7.5,19.170269 C 8.5779099,21.020734 9.2918477,21.98468 10.5,23.249738 L 10.5,3.8123553 L 9.6952401,3.5153816 z"
       id="path6152"
       sodipodi:nodetypes="ccccsccccc" />
    <path
       style="opacity:0.25098039;fill:url(#linearGradient6209);fill-opacity:1;stroke:none;stroke-width:1;stroke-linecap:square;stroke-linejoin:miter;stroke-miterlimit:4;stroke-opacity:1"
       d="M 23.564202,3.1527929 L 24.932089,3.2178959 C 24.650185,12.871454 25.754208,13.440942 25.613111,18.842524 L 23.56077,22 C 23.809779,15.45869 23.33578,12.375555 23.564202,3.1527929 z"
       id="rect6200"
       sodipodi:nodetypes="ccccc" />
    <path
       style="opacity:0.36470588;color:#000000;fill:none;fill-opacity:1;fill-rule:nonzero;stroke:url(#linearGradient6178);stroke-width:0.99999988;stroke-linecap:round;stroke-linejoin:miter;marker:none;marker-start:none;marker-mid:none;marker-end:none;stroke-miterlimit:4;stroke-dashoffset:0;stroke-opacity:1;visibility:visible;display:block;overflow:visible"
       d="M 21.5,3.5 L 21.5,22.808308 C 24.843115,19.375562 28.413106,13.858323 28.500001,5.1988677 L 28.099437,5.1325825 L 27.504256,6.6212653 C 27.410622,6.8858055 26.904928,7.6194548 26.5,7.5 C 26.038011,7.3637122 25.574724,6.9936068 25.5,6.72378 L 25.5,4.2809625 C 24.320745,4.0184381 22.709949,3.6398329 21.5,3.5 z"
       id="path6168"
       sodipodi:nodetypes="cccccsccc" />
  </g>
</svg>
