<?xml version="1.0" encoding="UTF-8" standalone="no"?>
<!-- Created with Inkscape (http://www.inkscape.org/) -->
<svg
   xmlns:dc="http://purl.org/dc/elements/1.1/"
   xmlns:cc="http://web.resource.org/cc/"
   xmlns:rdf="http://www.w3.org/1999/02/22-rdf-syntax-ns#"
   xmlns:svg="http://www.w3.org/2000/svg"
   xmlns="http://www.w3.org/2000/svg"
   xmlns:xlink="http://www.w3.org/1999/xlink"
   xmlns:sodipodi="http://sodipodi.sourceforge.net/DTD/sodipodi-0.dtd"
   xmlns:inkscape="http://www.inkscape.org/namespaces/inkscape"
   width="32"
   height="32"
   id="svg2"
   sodipodi:version="0.32"
   inkscape:version="0.45"
   version="1.0"
   sodipodi:docbase="/home/dobey/Projects/gnome-icon-theme/32x32/status"
   sodipodi:docname="software-update-available.svg"
   inkscape:output_extension="org.inkscape.output.svg.inkscape">
  <defs
     id="defs4">
    <linearGradient
       inkscape:collect="always"
       id="linearGradient6482">
      <stop
         style="stop-color:#fcaf3e;stop-opacity:1;"
         offset="0"
         id="stop6484" />
      <stop
         style="stop-color:#fcaf3e;stop-opacity:0;"
         offset="1"
         id="stop6486" />
    </linearGradient>
    <linearGradient
       inkscape:collect="always"
       id="linearGradient6472">
      <stop
         style="stop-color:#fcaf3e;stop-opacity:1"
         offset="0"
         id="stop6474" />
      <stop
         style="stop-color:#f57900;stop-opacity:1"
         offset="1"
         id="stop6476" />
    </linearGradient>
    <linearGradient
       id="linearGradient3444"
       inkscape:collect="always">
      <stop
         id="stop3446"
         offset="0"
         style="stop-color:#fcaf3e;stop-opacity:1" />
      <stop
         id="stop3448"
         offset="1"
         style="stop-color:#f57900;stop-opacity:1" />
    </linearGradient>
    <linearGradient
       inkscape:collect="always"
       id="linearGradient3383">
      <stop
         style="stop-color:#000000;stop-opacity:1;"
         offset="0"
         id="stop3385" />
      <stop
         style="stop-color:#000000;stop-opacity:0;"
         offset="1"
         id="stop3387" />
    </linearGradient>
    <linearGradient
       inkscape:collect="always"
       id="linearGradient3360">
      <stop
         style="stop-color:#ffffff;stop-opacity:1;"
         offset="0"
         id="stop3362" />
      <stop
         style="stop-color:#ffffff;stop-opacity:0;"
         offset="1"
         id="stop3364" />
    </linearGradient>
    <radialGradient
       inkscape:collect="always"
       xlink:href="#linearGradient3383"
       id="radialGradient6449"
       gradientUnits="userSpaceOnUse"
       gradientTransform="matrix(1,0,0,0.4889336,0,8.0475196)"
       cx="11.026446"
       cy="15.746525"
       fx="11.026446"
       fy="15.746525"
       r="10.982252" />
    <radialGradient
       inkscape:collect="always"
       xlink:href="#linearGradient3444"
       id="radialGradient6451"
       gradientUnits="userSpaceOnUse"
       gradientTransform="matrix(1.1446622,-0.2591603,0.2642989,1.1833169,6.5723702,9.6762876)"
       cx="-9.6242685"
       cy="-13.159472"
       fx="-9.6242685"
       fy="-13.159472"
       r="29.191137" />
    <linearGradient
       inkscape:collect="always"
       xlink:href="#linearGradient3360"
       id="linearGradient6453"
       gradientUnits="userSpaceOnUse"
       x1="-10.618274"
       y1="-9.0397129"
       x2="18.455231"
       y2="35.779209" />
    <radialGradient
       inkscape:collect="always"
       xlink:href="#linearGradient6472"
       id="radialGradient6478"
       cx="16.5"
       cy="20.005066"
       fx="16.5"
       fy="20.005066"
       r="5.4821647"
       gradientTransform="matrix(2.4650095,-0.3211123,0.1945452,1.4934199,-28.064544,-3.7442163)"
       gradientUnits="userSpaceOnUse" />
    <radialGradient
       inkscape:collect="always"
       xlink:href="#linearGradient6482"
       id="radialGradient6488"
       cx="18.5"
       cy="12"
       fx="18.5"
       fy="12"
       r="0.5"
       gradientTransform="matrix(12.482801,0,0,9.0784005,-212.43181,-96.940806)"
       gradientUnits="userSpaceOnUse" />
  </defs>
  <sodipodi:namedview
     id="base"
     pagecolor="#ffffff"
     bordercolor="#afafaf"
     borderopacity="1"
     inkscape:pageopacity="0"
     inkscape:pageshadow="2"
     inkscape:zoom="1"
     inkscape:cx="24.445329"
     inkscape:cy="18.322938"
     inkscape:document-units="px"
     inkscape:current-layer="layer1"
     width="32px"
     height="32px"
     gridspacingx="0.5px"
     gridspacingy="0.5px"
     inkscape:showpageshadow="false"
     borderlayer="true"
     gridempspacing="2"
     inkscape:window-width="1267"
     inkscape:window-height="957"
     inkscape:window-x="5"
     inkscape:window-y="24"
     showgrid="false"
     inkscape:grid-points="true"
     showborder="false" />
  <metadata
     id="metadata7">
    <rdf:RDF>
      <cc:Work
         rdf:about="">
        <dc:format>image/svg+xml</dc:format>
        <dc:type
           rdf:resource="http://purl.org/dc/dcmitype/StillImage" />
        <dc:creator>
          <cc:Agent>
            <dc:title>Lapo Calamandrei</dc:title>
          </cc:Agent>
        </dc:creator>
        <cc:license
           rdf:resource="http://creativecommons.org/licenses/GPL/2.0/" />
      </cc:Work>
      <cc:License
         rdf:about="http://creativecommons.org/licenses/GPL/2.0/">
        <cc:permits
           rdf:resource="http://web.resource.org/cc/Reproduction" />
        <cc:permits
           rdf:resource="http://web.resource.org/cc/Distribution" />
        <cc:requires
           rdf:resource="http://web.resource.org/cc/Notice" />
        <cc:permits
           rdf:resource="http://web.resource.org/cc/DerivativeWorks" />
        <cc:requires
           rdf:resource="http://web.resource.org/cc/ShareAlike" />
        <cc:requires
           rdf:resource="http://web.resource.org/cc/SourceCode" />
      </cc:License>
    </rdf:RDF>
  </metadata>
  <g
     inkscape:label="Livello 1"
     inkscape:groupmode="layer"
     id="layer1">
    <path
       sodipodi:type="arc"
       style="opacity:0.2;fill:url(#radialGradient6449);fill-opacity:1;stroke:none;stroke-width:1;stroke-linecap:round;stroke-linejoin:miter;stroke-miterlimit:4;stroke-dasharray:none;stroke-dashoffset:0;stroke-opacity:1"
       id="path3428"
       sodipodi:cx="11.026446"
       sodipodi:cy="15.746525"
       sodipodi:rx="10.982252"
       sodipodi:ry="5.3695922"
       d="M 22.008698 15.746525 A 10.982252 5.3695922 0 1 1  0.044194221,15.746525 A 10.982252 5.3695922 0 1 1  22.008698 15.746525 z"
       transform="matrix(1.2812948,0,0,1.2859128,1.9064036,4.0345517)" />
    <path
       sodipodi:type="star"
       style="fill:url(#radialGradient6451);fill-opacity:1;stroke:#ce5c00;stroke-width:2.1274848;stroke-linecap:round;stroke-linejoin:round;stroke-miterlimit:4;stroke-dasharray:none;stroke-dashoffset:0;stroke-opacity:1"
       id="path3430"
       sodipodi:sides="9"
       sodipodi:cx="1.5"
       sodipodi:cy="0.56249994"
       sodipodi:r1="17.531784"
       sodipodi:r2="28.247856"
       sodipodi:arg1="0.8197281"
       sodipodi:arg2="1.168794"
       inkscape:flatsided="false"
       inkscape:rounded="0"
       inkscape:randomized="0"
       d="M 13.46404,13.377538 L 12.552308,26.55842 L 2.4276384,18.069725 L -6.7432965,27.580817 L -9.0428153,14.570087 L -22.181771,15.961042 L -15.580169,4.5161432 L -26.539281,-2.8638809 L -14.125521,-7.3877544 L -17.7769,-20.085563 L -5.3595186,-15.57164 L 0.0053563245,-27.645786 L 6.6161288,-16.206182 L 18.486973,-22.007039 L 16.197883,-8.9944711 L 29.020197,-5.8077543 L 18.902334,2.6890523 L 26.676414,13.372244 L 13.46404,13.377538 z "
       transform="matrix(0.460143,0.1034764,-0.1027729,0.4570358,15.633998,15.116633)" />
    <path
       sodipodi:type="inkscape:offset"
       inkscape:radius="-1.95702"
       inkscape:original="M 0 -27.65625 L -5.375 -15.5625 L -17.78125 -20.09375 L -14.125 -7.375 L -26.53125 -2.875 L -15.59375 4.53125 L -22.1875 15.96875 L -9.03125 14.5625 L -6.75 27.59375 L 2.4375 18.0625 L 12.5625 26.5625 L 13.46875 13.375 L 26.6875 13.375 L 18.90625 2.6875 L 29.03125 -5.8125 L 16.1875 -9 L 18.5 -22 L 6.625 -16.21875 L 0 -27.65625 z "
       style="opacity:0.55603448;fill:none;fill-opacity:1;stroke:url(#linearGradient6453);stroke-width:2.1486125;stroke-linecap:round;stroke-linejoin:miter;stroke-miterlimit:4;stroke-dasharray:none;stroke-dashoffset:0;stroke-opacity:1"
       id="path3432"
       d="M 0.21875,-23.375 L -3.59375,-14.78125 C -4.0040392,-13.844814 -5.0659517,-13.381929 -6.03125,-13.71875 L -14.84375,-16.9375 L -12.25,-7.90625 C -11.969593,-6.9173774 -12.501891,-5.8800782 -13.46875,-5.53125 L -22.25,-2.34375 L -14.5,2.90625 C -13.654443,3.4826612 -13.395657,4.6131448 -13.90625,5.5 L -18.59375,13.625 L -9.25,12.625 C -8.2230767,12.503184 -7.2785925,13.201281 -7.09375,14.21875 L -5.46875,23.46875 L 1.03125,16.71875 C 1.739665,15.980261 2.8973892,15.91216 3.6875,16.5625 L 10.875,22.59375 L 11.53125,13.25 C 11.590958,12.221174 12.438229,11.4149 13.46875,11.40625 L 22.8125,11.40625 L 17.3125,3.84375 C 16.708456,3.006281 16.858919,1.8436146 17.65625,1.1875 L 24.8125,-4.84375 L 15.71875,-7.09375 C 14.710364,-7.3361545 14.06613,-8.323067 14.25,-9.34375 L 15.90625,-18.5625 L 7.46875,-14.46875 C 6.5501794,-14.031846 5.4500487,-14.371393 4.9375,-15.25 L 0.21875,-23.375 z "
       transform="matrix(0.455615,0.1024597,-0.1017615,0.4525448,15.698771,15.120291)" />
    <path
       sodipodi:type="inkscape:offset"
       inkscape:radius="0.99436891"
       inkscape:original="M 15 10 L 15 15 L 12 15 L 16.5 21 L 21 15 L 18 15 L 18 10 L 15 10 z "
       style="fill:url(#radialGradient6478);fill-opacity:1.0;stroke:none;stroke-width:1;stroke-linecap:round;stroke-linejoin:miter;stroke-miterlimit:4;stroke-dashoffset:0;stroke-opacity:1"
       id="path6470"
       d="M 14.90625,9 C 14.389606,9.0459888 13.995072,9.4813363 14,10 L 14,14 L 12,14 C 11.624965,14.004643 11.284443,14.219892 11.119356,14.55667 C 10.954269,14.893447 10.992702,15.294459 11.21875,15.59375 L 15.71875,21.59375 C 15.907315,21.833165 16.195244,21.972901 16.5,21.972901 C 16.804756,21.972901 17.092685,21.833165 17.28125,21.59375 L 21.78125,15.59375 C 22.007298,15.294459 22.045731,14.893447 21.880644,14.55667 C 21.715557,14.219892 21.375035,14.004643 21,14 L 19,14 L 19,10 C 19.001482,9.734332 18.896601,9.4791161 18.708742,9.2912576 C 18.520884,9.103399 18.265668,8.9985181 18,9 L 15,9 C 14.968767,8.9985262 14.937483,8.9985262 14.90625,9 z " />
    <path
       style="fill:#ffffff;fill-opacity:1;stroke:none;stroke-width:1;stroke-linecap:round;stroke-linejoin:miter;stroke-miterlimit:4;stroke-dashoffset:0;stroke-opacity:1"
       d="M 16.499999,21 L 12,15 L 15,15 L 15,10 L 18,10 L 18,15 L 21,15 L 16.499999,21 z "
       id="path3436"
       sodipodi:nodetypes="cccccccc" />
    <path
       style="fill:none;fill-rule:evenodd;stroke:url(#radialGradient6488);stroke-width:1px;stroke-linecap:round;stroke-linejoin:miter;stroke-opacity:1"
       d="M 18.5,10 L 18.5,14"
       id="path6480" />
  </g>
</svg>
