<?xml version="1.0" encoding="UTF-8" standalone="no"?>
<!-- Created with Inkscape (http://www.inkscape.org/) -->
<svg
   xmlns:dc="http://purl.org/dc/elements/1.1/"
   xmlns:cc="http://web.resource.org/cc/"
   xmlns:rdf="http://www.w3.org/1999/02/22-rdf-syntax-ns#"
   xmlns:svg="http://www.w3.org/2000/svg"
   xmlns="http://www.w3.org/2000/svg"
   xmlns:xlink="http://www.w3.org/1999/xlink"
   xmlns:sodipodi="http://sodipodi.sourceforge.net/DTD/sodipodi-0.dtd"
   xmlns:inkscape="http://www.inkscape.org/namespaces/inkscape"
   width="32"
   height="32"
   id="svg1306"
   sodipodi:version="0.32"
   inkscape:version="0.45"
   sodipodi:docbase="/home/dobey/Projects/gnome-icon-theme/32x32/status"
   sodipodi:docname="weather-few-clouds-night.svg"
   version="1.0"
   inkscape:output_extension="org.inkscape.output.svg.inkscape">
  <defs
     id="defs1308">
    <linearGradient
       id="linearGradient1994">
      <stop
         id="stop1997"
         offset="0"
         style="stop-color:white;stop-opacity:1" />
      <stop
         style="stop-color:white;stop-opacity:1;"
         offset="0.5"
         id="stop2001" />
      <stop
         id="stop1999"
         offset="1"
         style="stop-color:#d3d7cf;stop-opacity:1" />
    </linearGradient>
    <radialGradient
       inkscape:collect="always"
       xlink:href="#linearGradient1994"
       id="radialGradient2003"
       cx="19.160831"
       cy="10.574146"
       fx="19.160831"
       fy="10.574146"
       r="8.484375"
       gradientTransform="matrix(1.186004,-2.209896e-2,1.097582e-2,0.589216,-4.153381,5.817969)"
       gradientUnits="userSpaceOnUse" />
    <linearGradient
       id="linearGradient5138"
       inkscape:collect="always">
      <stop
         id="stop5140"
         offset="0"
         style="stop-color:white;stop-opacity:1;" />
      <stop
         id="stop5142"
         offset="1"
         style="stop-color:white;stop-opacity:0;" />
    </linearGradient>
    <linearGradient
       id="linearGradient5154">
      <stop
         id="stop5156"
         offset="0"
         style="stop-color:#d9d8d6;stop-opacity:1;" />
      <stop
         id="stop5158"
         offset="1"
         style="stop-color:#b5b4b0;stop-opacity:1;" />
    </linearGradient>
    <linearGradient
       id="linearGradient5164"
       inkscape:collect="always">
      <stop
         id="stop5166"
         offset="0"
         style="stop-color:white;stop-opacity:1;" />
      <stop
         id="stop5168"
         offset="1"
         style="stop-color:white;stop-opacity:0;" />
    </linearGradient>
    <linearGradient
       id="linearGradient5191"
       inkscape:collect="always">
      <stop
         id="stop5193"
         offset="0"
         style="stop-color:#dadad9;stop-opacity:1;" />
      <stop
         id="stop5195"
         offset="1"
         style="stop-color:#dadad9;stop-opacity:0;" />
    </linearGradient>
    <linearGradient
       id="linearGradient5199">
      <stop
         id="stop5201"
         offset="0"
         style="stop-color:#7e7878;stop-opacity:0.09708738;" />
      <stop
         id="stop5203"
         offset="1"
         style="stop-color:#7e7878;stop-opacity:1;" />
    </linearGradient>
    <radialGradient
       inkscape:collect="always"
       xlink:href="#linearGradient5164"
       id="radialGradient2198"
       gradientUnits="userSpaceOnUse"
       cx="23.688078"
       cy="23.42804"
       fx="23.688078"
       fy="23.42804"
       r="22.45064" />
    <radialGradient
       inkscape:collect="always"
       xlink:href="#linearGradient5154"
       id="radialGradient2200"
       gradientUnits="userSpaceOnUse"
       gradientTransform="matrix(1.440625,0,0,1.440625,-10.16586,-3.037035)"
       cx="23.071428"
       cy="6.8925552"
       fx="23.071428"
       fy="6.8925552"
       r="22.812966" />
    <radialGradient
       inkscape:collect="always"
       xlink:href="#linearGradient5199"
       id="radialGradient2202"
       gradientUnits="userSpaceOnUse"
       gradientTransform="matrix(1.652014,0,0,1.088231,-15.72984,3.156134)"
       cx="24.125"
       cy="9.7349367"
       fx="24.125"
       fy="9.7349367"
       r="15.75" />
    <radialGradient
       inkscape:collect="always"
       xlink:href="#linearGradient5138"
       id="radialGradient2204"
       gradientUnits="userSpaceOnUse"
       gradientTransform="matrix(3.373032,0,0,3.373032,-54.74925,-26.13148)"
       cx="23.071428"
       cy="11.011853"
       fx="23.071428"
       fy="11.011853"
       r="22.856438" />
    <radialGradient
       inkscape:collect="always"
       xlink:href="#linearGradient5191"
       id="radialGradient2206"
       gradientUnits="userSpaceOnUse"
       gradientTransform="matrix(1.498147,0,0,1.130677,-11.10293,-5.288817)"
       cx="22.288452"
       cy="34.537094"
       fx="22.288452"
       fy="34.537094"
       r="9.9375" />
  </defs>
  <sodipodi:namedview
     id="base"
     pagecolor="#ffffff"
     bordercolor="#666"
     borderopacity="0.19215686"
     inkscape:pageopacity="0.0"
     inkscape:pageshadow="2"
     inkscape:zoom="1"
     inkscape:cx="27.081995"
     inkscape:cy="-14.756197"
     inkscape:current-layer="layer1"
     showgrid="true"
     inkscape:grid-bbox="true"
     inkscape:document-units="px"
     inkscape:window-width="872"
     inkscape:window-height="623"
     inkscape:window-x="809"
     inkscape:window-y="232"
     inkscape:showpageshadow="false"
     showborder="true"
     width="32px"
     height="32px" />
  <metadata
     id="metadata1311">
    <rdf:RDF>
      <cc:Work
         rdf:about="">
        <dc:format>image/svg+xml</dc:format>
        <dc:type
           rdf:resource="http://purl.org/dc/dcmitype/StillImage" />
        <cc:license
           rdf:resource="http://creativecommons.org/licenses/GPL/2.0/" />
        <dc:title>Weather Few Clouds</dc:title>
        <dc:creator>
          <cc:Agent>
            <dc:title>Lapo Calamandrei</dc:title>
          </cc:Agent>
        </dc:creator>
      </cc:Work>
      <cc:License
         rdf:about="http://creativecommons.org/licenses/GPL/2.0/">
        <cc:permits
           rdf:resource="http://web.resource.org/cc/Reproduction" />
        <cc:permits
           rdf:resource="http://web.resource.org/cc/Distribution" />
        <cc:requires
           rdf:resource="http://web.resource.org/cc/Notice" />
        <cc:permits
           rdf:resource="http://web.resource.org/cc/DerivativeWorks" />
        <cc:requires
           rdf:resource="http://web.resource.org/cc/ShareAlike" />
        <cc:requires
           rdf:resource="http://web.resource.org/cc/SourceCode" />
      </cc:License>
    </rdf:RDF>
  </metadata>
  <g
     id="layer1"
     inkscape:label="Layer 1"
     inkscape:groupmode="layer">
    <g
       inkscape:label="Layer 1"
       id="g2181"
       transform="matrix(0.665934,0,0,0.665934,-1.489666,-1.48298)">
      <path
         transform="translate(-0.146446,0.103554)"
         d="M 46.138718 23.42804 A 22.45064 22.45064 0 1 1  1.2374382,23.42804 A 22.45064 22.45064 0 1 1  46.138718 23.42804 z"
         sodipodi:ry="22.45064"
         sodipodi:rx="22.45064"
         sodipodi:cy="23.42804"
         sodipodi:cx="23.688078"
         id="path5162"
         style="opacity:1;color:black;fill:url(#radialGradient2198);fill-opacity:1;fill-rule:evenodd;stroke:none;stroke-width:1;stroke-linecap:round;stroke-linejoin:round;marker:none;marker-start:none;marker-mid:none;marker-end:none;stroke-miterlimit:4;stroke-dasharray:none;stroke-dashoffset:0;stroke-opacity:1;visibility:visible;display:inline;overflow:visible"
         sodipodi:type="arc" />
      <path
         transform="matrix(0.746154,0,0,0.74614,6.850475,6.75386)"
         d="M 45.214285 23.142857 A 22.142857 22.142857 0 1 1  0.9285717,23.142857 A 22.142857 22.142857 0 1 1  45.214285 23.142857 z"
         sodipodi:ry="22.142857"
         sodipodi:rx="22.142857"
         sodipodi:cy="23.142857"
         sodipodi:cx="23.071428"
         id="path1314"
         style="opacity:1;color:black;fill:url(#radialGradient2200);fill-opacity:1;fill-rule:evenodd;stroke:#888a85;stroke-width:2.01253986;stroke-linecap:butt;stroke-linejoin:round;marker:none;marker-start:none;marker-mid:none;marker-end:none;stroke-miterlimit:4;stroke-dasharray:none;stroke-dashoffset:0;stroke-opacity:1;visibility:visible;display:inline;overflow:visible"
         sodipodi:type="arc" />
      <path
         sodipodi:nodetypes="cssssssszsscscsscccssssccc"
         id="path5152"
         d="M 10.875,25 C 10.875,25 13.46875,26.21875 13.5,27.125 C 13.53125,28.03125 11.1875,27.4375 11,28.625 C 10.8125,29.8125 11.28125,31.84375 12.75,31.875 C 14.21875,31.90625 14.59375,29.4375 16.875,28.75 C 19.15625,28.0625 20.875,30.21875 21.875,29.125 C 22.875,28.03125 20.71875,26.5 20.875,24.375 C 21.03125,22.25 21.40625,22.65625 22.5,21.9375 C 23.59375,21.21875 24.002992,23.659882 25.25,21.5 C 26.455084,19.412734 22.71875,20.15625 22.875,18.75 C 23.03125,17.34375 23.96875,15.78125 25.875,15.875 C 27.78125,15.96875 30.5,19.125 30.5,19.125 C 31.711141,20.290263 30.538624,22.551401 31.125,24.125 C 31.813739,25.973301 33.708333,25.867429 35,25.875 C 35,25.875 33.09375,23.71875 33.375,22.375 C 33.65625,21.03125 34.75,19.6875 36.125,20.5 C 37.5,21.3125 38.875,25.625 38.875,25.625 L 39.875,21.25 L 37.75,16 C 37.75,16 34.71875,17.0625 31.375,16.375 C 28.03125,15.6875 27.6875,13.09375 24.375,13.25 C 21.0625,13.40625 20.75,16.71875 18.125,17 C 15.5,17.28125 14.75,15.84375 13.875,14.375 C 13,12.90625 14.625,11.125 14.625,11.125 L 8.375,19.625 L 10.875,25 z "
         style="opacity:0.33146069;color:black;fill:url(#radialGradient2202);fill-opacity:1;fill-rule:evenodd;stroke:none;stroke-width:1;stroke-linecap:round;stroke-linejoin:round;marker:none;marker-start:none;marker-mid:none;marker-end:none;stroke-miterlimit:4;stroke-dasharray:none;stroke-dashoffset:0;stroke-opacity:1;visibility:visible;display:inline;overflow:visible" />
      <path
         transform="matrix(0.675266,0,0,0.675253,8.489949,8.398365)"
         d="M 45.214285 23.142857 A 22.142857 22.142857 0 1 1  0.9285717,23.142857 A 22.142857 22.142857 0 1 1  45.214285 23.142857 z"
         sodipodi:ry="22.142857"
         sodipodi:rx="22.142857"
         sodipodi:cy="23.142857"
         sodipodi:cx="23.071428"
         id="path2044"
         style="opacity:0.80898874;color:black;fill:none;fill-opacity:1;fill-rule:evenodd;stroke:url(#radialGradient2204);stroke-width:2.22381186;stroke-linecap:butt;stroke-linejoin:round;marker:none;marker-start:none;marker-mid:none;marker-end:none;stroke-miterlimit:4;stroke-dasharray:none;stroke-dashoffset:0;stroke-opacity:1;visibility:visible;display:inline;overflow:visible"
         sodipodi:type="arc" />
      <path
         sodipodi:nodetypes="ccccccccccccccccccc"
         id="path5150"
         d="M 22.625,27 C 23.007135,28.589327 23.502663,29.611683 24,30.625 C 25.554528,30.484056 26.793411,29.711822 28,28.875 C 27.277042,30.383785 26.42809,31.808575 25.352252,33.082107 C 27.618218,33.963392 29.71881,33.769756 31.75,33.125 C 30.324705,34.318408 28.943255,35.239638 26.036612,35.521447 C 28.13482,36.154537 30.460391,36.883084 33.375,36 C 30.698118,37.546397 27.887042,38.71705 24.625,38.625 L 27.853553,38.579505 L 21.375,38.875 L 18,38.25 L 18.125,36.75 C 16.713692,36.907149 15.144785,36.118708 13.625,35.625 C 14.9905,35.019375 16.457606,34.540757 17.375,33.375 C 15.599574,33.025426 14.752843,31.747157 13.5,30.875 C 15.166662,31.12503 16.709775,32.116351 18.5,31.625 C 17.564728,29.041667 17.676825,26.458333 17.375,23.875 C 18.395975,26.083333 19.060572,28.291667 20.5,30.5 C 21.460276,29.774233 22.135647,28.549883 22.625,27 z "
         style="opacity:0.64606742;color:black;fill:url(#radialGradient2206);fill-opacity:1;fill-rule:evenodd;stroke:none;stroke-width:1;stroke-linecap:round;stroke-linejoin:round;marker:none;marker-start:none;marker-mid:none;marker-end:none;stroke-miterlimit:4;stroke-dasharray:none;stroke-dashoffset:0;stroke-opacity:1;visibility:visible;display:inline;overflow:visible" />
      <path
         transform="matrix(1,0,0,0.75,0,8.769607)"
         d="M 23.875 34.5 A 2.25 2.25 0 1 1  19.375,34.5 A 2.25 2.25 0 1 1  23.875 34.5 z"
         sodipodi:ry="2.25"
         sodipodi:rx="2.25"
         sodipodi:cy="34.5"
         sodipodi:cx="21.625"
         id="path4263"
         style="opacity:0.33146069;color:black;fill:#bbbbb8;fill-opacity:1;fill-rule:evenodd;stroke:#888984;stroke-width:1.73395693;stroke-linecap:round;stroke-linejoin:round;marker:none;marker-start:none;marker-mid:none;marker-end:none;stroke-miterlimit:4;stroke-dasharray:none;stroke-dashoffset:0;stroke-opacity:1;visibility:visible;display:inline;overflow:visible"
         sodipodi:type="arc" />
      <path
         d="M 25 21.75 A 2.625 2.3125 0 1 1  19.75,21.75 A 2.625 2.3125 0 1 1  25 21.75 z"
         sodipodi:ry="2.3125"
         sodipodi:rx="2.625"
         sodipodi:cy="21.75"
         sodipodi:cx="22.375"
         id="path5207"
         style="opacity:0.71910113;color:black;fill:#b2afad;fill-opacity:1;fill-rule:evenodd;stroke:none;stroke-width:1;stroke-linecap:round;stroke-linejoin:round;marker:none;marker-start:none;marker-mid:none;marker-end:none;stroke-miterlimit:4;stroke-dasharray:none;stroke-dashoffset:0;stroke-opacity:1;visibility:visible;display:inline;overflow:visible"
         sodipodi:type="arc" />
      <path
         transform="matrix(1.22619,0,0,1.22619,-10.09226,-10.31771)"
         sodipodi:type="arc"
         style="opacity:0.71910113;color:black;fill:#b2afad;fill-opacity:1;fill-rule:evenodd;stroke:none;stroke-width:1;stroke-linecap:round;stroke-linejoin:round;marker:none;marker-start:none;marker-mid:none;marker-end:none;stroke-miterlimit:4;stroke-dasharray:none;stroke-dashoffset:0;stroke-opacity:1;visibility:visible;display:inline;overflow:visible"
         id="path5209"
         sodipodi:cx="22.375"
         sodipodi:cy="21.75"
         sodipodi:rx="2.625"
         sodipodi:ry="2.3125"
         d="M 25 21.75 A 2.625 2.3125 0 1 1  19.75,21.75 A 2.625 2.3125 0 1 1  25 21.75 z" />
      <path
         d="M 25 21.75 A 2.625 2.3125 0 1 1  19.75,21.75 A 2.625 2.3125 0 1 1  25 21.75 z"
         sodipodi:ry="2.3125"
         sodipodi:rx="2.625"
         sodipodi:cy="21.75"
         sodipodi:cx="22.375"
         id="path5211"
         style="opacity:0.71910113;color:black;fill:#b2afad;fill-opacity:1;fill-rule:evenodd;stroke:none;stroke-width:1;stroke-linecap:round;stroke-linejoin:round;marker:none;marker-start:none;marker-mid:none;marker-end:none;stroke-miterlimit:4;stroke-dasharray:none;stroke-dashoffset:0;stroke-opacity:1;visibility:visible;display:inline;overflow:visible"
         sodipodi:type="arc"
         transform="matrix(1.060177,0.61609,-0.61609,1.060177,4.459731,-11.05444)" />
      <path
         d="M 25 21.75 A 2.625 2.3125 0 1 1  19.75,21.75 A 2.625 2.3125 0 1 1  25 21.75 z"
         sodipodi:ry="2.3125"
         sodipodi:rx="2.625"
         sodipodi:cy="21.75"
         sodipodi:cx="22.375"
         id="path5213"
         style="opacity:0.71910113;color:black;fill:#dfdedc;fill-opacity:1;fill-rule:evenodd;stroke:none;stroke-width:1;stroke-linecap:round;stroke-linejoin:round;marker:none;marker-start:none;marker-mid:none;marker-end:none;stroke-miterlimit:4;stroke-dasharray:none;stroke-dashoffset:0;stroke-opacity:1;visibility:visible;display:inline;overflow:visible"
         sodipodi:type="arc"
         transform="matrix(0.398445,0.375367,-0.217478,0.387667,31.50244,6.347965)" />
      <path
         inkscape:transform-center-x="2.0330157"
         inkscape:transform-center-y="1.5541817"
         transform="matrix(-9.424576e-2,0.266814,-0.228734,-2.18427e-2,38.6609,29.47153)"
         sodipodi:type="arc"
         style="opacity:0.71910113;color:black;fill:#dfdedc;fill-opacity:1;fill-rule:evenodd;stroke:none;stroke-width:1;stroke-linecap:round;stroke-linejoin:round;marker:none;marker-start:none;marker-mid:none;marker-end:none;stroke-miterlimit:4;stroke-dasharray:none;stroke-dashoffset:0;stroke-opacity:1;visibility:visible;display:inline;overflow:visible"
         id="path5215"
         sodipodi:cx="22.375"
         sodipodi:cy="21.75"
         sodipodi:rx="2.625"
         sodipodi:ry="2.3125"
         d="M 25 21.75 A 2.625 2.3125 0 1 1  19.75,21.75 A 2.625 2.3125 0 1 1  25 21.75 z" />
      <path
         d="M 25 21.75 A 2.625 2.3125 0 1 1  19.75,21.75 A 2.625 2.3125 0 1 1  25 21.75 z"
         sodipodi:ry="2.3125"
         sodipodi:rx="2.625"
         sodipodi:cy="21.75"
         sodipodi:cx="22.375"
         id="path5217"
         style="opacity:0.71910113;color:black;fill:#dfdedc;fill-opacity:1;fill-rule:evenodd;stroke:none;stroke-width:1;stroke-linecap:round;stroke-linejoin:round;marker:none;marker-start:none;marker-mid:none;marker-end:none;stroke-miterlimit:4;stroke-dasharray:none;stroke-dashoffset:0;stroke-opacity:1;visibility:visible;display:inline;overflow:visible"
         sodipodi:type="arc"
         transform="matrix(0.211478,0.199229,-0.115428,0.205758,34.19839,11.49557)"
         inkscape:transform-center-y="2.5542712"
         inkscape:transform-center-x="-0.61605544" />
      <path
         transform="matrix(0.502196,-0.217849,0.270291,0.352881,2.662133,8.622118)"
         sodipodi:type="arc"
         style="opacity:0.71910113;color:black;fill:#f7f7f6;fill-opacity:1;fill-rule:evenodd;stroke:none;stroke-width:1;stroke-linecap:round;stroke-linejoin:round;marker:none;marker-start:none;marker-mid:none;marker-end:none;stroke-miterlimit:4;stroke-dasharray:none;stroke-dashoffset:0;stroke-opacity:1;visibility:visible;display:inline;overflow:visible"
         id="path5219"
         sodipodi:cx="22.375"
         sodipodi:cy="21.75"
         sodipodi:rx="2.625"
         sodipodi:ry="2.3125"
         d="M 25 21.75 A 2.625 2.3125 0 1 1  19.75,21.75 A 2.625 2.3125 0 1 1  25 21.75 z" />
      <path
         inkscape:transform-center-x="2.2304367"
         d="M 25 21.75 A 2.625 2.3125 0 1 1  19.75,21.75 A 2.625 2.3125 0 1 1  25 21.75 z"
         sodipodi:ry="2.3125"
         sodipodi:rx="2.625"
         sodipodi:cy="21.75"
         sodipodi:cx="22.375"
         id="path5221"
         style="opacity:0.71910113;color:black;fill:#f7f7f6;fill-opacity:1;fill-rule:evenodd;stroke:none;stroke-width:1;stroke-linecap:round;stroke-linejoin:round;marker:none;marker-start:none;marker-mid:none;marker-end:none;stroke-miterlimit:4;stroke-dasharray:none;stroke-dashoffset:0;stroke-opacity:1;visibility:visible;display:inline;overflow:visible"
         sodipodi:type="arc"
         transform="matrix(0.301729,-0.130888,0.162396,0.212018,12.27059,8.635285)" />
      <path
         transform="matrix(0.212633,-9.223866e-2,0.114443,0.149412,14.87145,10.98834)"
         sodipodi:type="arc"
         style="opacity:0.71910113;color:black;fill:#f7f7f6;fill-opacity:1;fill-rule:evenodd;stroke:none;stroke-width:1;stroke-linecap:round;stroke-linejoin:round;marker:none;marker-start:none;marker-mid:none;marker-end:none;stroke-miterlimit:4;stroke-dasharray:none;stroke-dashoffset:0;stroke-opacity:1;visibility:visible;display:inline;overflow:visible"
         id="path5223"
         sodipodi:cx="22.375"
         sodipodi:cy="21.75"
         sodipodi:rx="2.625"
         sodipodi:ry="2.3125"
         d="M 25 21.75 A 2.625 2.3125 0 1 1  19.75,21.75 A 2.625 2.3125 0 1 1  25 21.75 z"
         inkscape:transform-center-x="1.5718105" />
    </g>
    <g
       id="g3341"
       transform="matrix(1.234166,0,0,1.231434,-2.32672,6.274975)">
      <path
         id="path3252"
         d="M 21.5,8.5 C 20.402447,8.5 19.53125,9.3941846 19.53125,10.5 C 19.53125,10.627657 19.53981,10.753957 19.5625,10.875 C 19.095526,10.642848 18.556572,10.5 18,10.5 C 16.137671,10.5 14.6605,11.974462 14.5625,13.8125 C 14.256846,13.619442 13.887115,13.5 13.5,13.5 C 12.402447,13.5 11.53125,14.394185 11.53125,15.5 C 11.53125,16.605816 12.402447,17.5 13.5,17.5 C 14.323165,17.5 15.041774,17.00018 15.34375,16.28125 C 15.983645,17.025523 16.94222,17.46875 18,17.46875 C 18.738505,17.46875 19.435919,17.235802 20,16.84375 C 20.570218,17.250792 21.247148,17.5 22,17.5 C 22.971213,17.5 23.836098,17.080205 24.46875,16.4375 C 24.473276,16.432902 24.495499,16.442123 24.5,16.4375 C 24.654565,16.466937 24.805573,16.5 24.96875,16.5 C 26.359768,16.5 27.499999,15.379998 27.5,14 C 27.5,12.620002 26.359769,11.5 24.96875,11.5 C 24.805573,11.5 24.654565,11.533064 24.5,11.5625 C 24.495173,11.557538 24.473606,11.567434 24.46875,11.5625 C 24.17583,11.264886 23.851991,11.021342 23.46875,10.84375 C 23.487911,10.732153 23.5,10.617086 23.5,10.5 C 23.5,9.3941844 22.597553,8.4999999 21.5,8.5 z "
         style="fill:url(#radialGradient2003);fill-opacity:1;stroke:#729fcf;stroke-width:0.81116211;stroke-linecap:round;stroke-linejoin:miter;stroke-miterlimit:4;stroke-dasharray:none;stroke-dashoffset:1.20000057;stroke-opacity:1" />
      <path
         transform="translate(2,2)"
         d="M 19.5,7.53125 C 18.956951,7.53125 18.5625,7.930397 18.5625,8.5 C 18.5625,8.5820179 18.554938,8.6471583 18.5625,8.6875 C 18.63274,9.0697777 18.479844,9.45878 18.168108,9.6909236 C 17.856372,9.9230672 17.43987,9.9580845 17.09375,9.78125 C 16.757678,9.614175 16.381886,9.5312499 16,9.53125 C 14.676536,9.53125 13.664255,10.552641 13.59375,11.875 C 13.575204,12.236695 13.366439,12.561499 13.045116,12.728588 C 12.723792,12.895676 12.338,12.880042 12.03125,12.6875 C 11.879133,12.591419 11.677115,12.53125 11.5,12.53125 C 10.956951,12.53125 10.5625,12.930398 10.5625,13.5 C 10.5625,14.069604 10.956951,14.46875 11.5,14.46875 C 11.909899,14.46875 12.262795,14.216531 12.40625,13.875 C 12.547063,13.550447 12.845851,13.321917 13.195951,13.270993 C 13.546051,13.22007 13.897563,13.35401 14.125,13.625 C 14.566931,14.139018 15.22741,14.4375 16,14.4375 C 16.523817,14.4375 17.010372,14.275146 17.40625,14 C 17.761383,13.746146 18.238617,13.746146 18.59375,14 C 19.01337,14.29954 19.472445,14.46875 20,14.46875 C 20.677024,14.46875 21.287759,14.188336 21.75,13.71875 C 21.750084,13.718665 21.805851,13.68267 21.84375,13.65625 C 21.873826,13.633707 21.905123,13.612842 21.9375,13.59375 C 21.954512,13.581898 21.954101,13.572703 21.96875,13.5625 C 21.97894,13.551859 21.989359,13.54144 22,13.53125 C 22.018313,13.518346 22.062579,13.499964 22.0625,13.5 C 22.062294,13.500094 22.12952,13.487199 22.1875,13.46875 C 22.237108,13.453155 22.281022,13.437543 22.28125,13.4375 C 22.281379,13.437476 22.307157,13.438011 22.3125,13.4375 C 22.404345,13.414079 22.499004,13.403562 22.59375,13.40625 C 22.615895,13.409456 22.654547,13.437206 22.65625,13.4375 C 22.666666,13.437341 22.677084,13.437341 22.6875,13.4375 C 22.860029,13.470358 22.94348,13.46875 22.96875,13.46875 C 23.811757,13.46875 24.468749,12.817634 24.46875,12 C 24.46875,11.182366 23.811759,10.53125 22.96875,10.53125 C 22.943484,10.53125 22.860037,10.529641 22.6875,10.5625 C 22.684945,10.562979 22.626874,10.587871 22.5625,10.59375 C 22.527757,10.595663 22.438716,10.568591 22.375,10.5625 C 22.278767,10.555065 22.184075,10.534022 22.09375,10.5 C 22.073774,10.493433 22.03135,10.500047 22.03125,10.5 C 22.031063,10.499912 21.969911,10.451304 21.90625,10.40625 C 21.895609,10.39606 21.88519,10.385641 21.875,10.375 C 21.857132,10.362352 21.859423,10.354848 21.84375,10.34375 C 21.822024,10.323829 21.801171,10.302976 21.78125,10.28125 C 21.778604,10.279372 21.750021,10.281271 21.75,10.28125 C 21.525638,10.053293 21.290491,9.9013811 21.03125,9.78125 C 20.607611,9.5799595 20.375599,9.1159355 20.46875,8.65625 C 20.480224,8.5894236 20.46875,8.5468136 20.46875,8.5 C 20.46875,7.9496307 20.043049,7.53125 19.5,7.53125 z "
         id="path3299"
         style="fill:none;fill-opacity:1;stroke:white;stroke-width:0.81116211;stroke-linecap:round;stroke-linejoin:miter;stroke-miterlimit:4;stroke-dasharray:none;stroke-dashoffset:1.20000057;stroke-opacity:1"
         inkscape:original="M 19.5 6.5 C 18.402447 6.5 17.53125 7.3941846 17.53125 8.5 C 17.53125 8.6276566 17.53981 8.7539566 17.5625 8.875 C 17.095526 8.6428485 16.556572 8.4999999 16 8.5 C 14.137671 8.5 12.6605 9.974462 12.5625 11.8125 C 12.256846 11.619442 11.887115 11.5 11.5 11.5 C 10.402447 11.5 9.53125 12.394185 9.53125 13.5 C 9.53125 14.605816 10.402447 15.5 11.5 15.5 C 12.323165 15.5 13.041774 15.00018 13.34375 14.28125 C 13.983645 15.025523 14.94222 15.46875 16 15.46875 C 16.738505 15.46875 17.435919 15.235802 18 14.84375 C 18.570218 15.250792 19.247148 15.5 20 15.5 C 20.971213 15.5 21.836098 15.080205 22.46875 14.4375 C 22.473276 14.432902 22.495499 14.442123 22.5 14.4375 C 22.654565 14.466937 22.805573 14.5 22.96875 14.5 C 24.359768 14.5 25.499999 13.379998 25.5 12 C 25.5 10.620002 24.359769 9.5 22.96875 9.5 C 22.805573 9.5 22.654565 9.533064 22.5 9.5625 C 22.495173 9.557538 22.473606 9.567434 22.46875 9.5625 C 22.17583 9.264886 21.851991 9.021342 21.46875 8.84375 C 21.487911 8.7321531 21.5 8.6170864 21.5 8.5 C 21.5 7.3941844 20.597553 6.4999999 19.5 6.5 z "
         inkscape:radius="-1.0209262"
         sodipodi:type="inkscape:offset" />
    </g>
  </g>
</svg>
