<?xml version="1.0" encoding="UTF-8" standalone="no"?>
<!-- Created with Inkscape (http://www.inkscape.org/) -->
<svg
   xmlns:dc="http://purl.org/dc/elements/1.1/"
   xmlns:cc="http://web.resource.org/cc/"
   xmlns:rdf="http://www.w3.org/1999/02/22-rdf-syntax-ns#"
   xmlns:svg="http://www.w3.org/2000/svg"
   xmlns="http://www.w3.org/2000/svg"
   xmlns:xlink="http://www.w3.org/1999/xlink"
   xmlns:sodipodi="http://sodipodi.sourceforge.net/DTD/sodipodi-0.dtd"
   xmlns:inkscape="http://www.inkscape.org/namespaces/inkscape"
   width="32"
   height="32"
   id="svg1306"
   sodipodi:version="0.32"
   inkscape:version="0.44"
   sodipodi:docbase="/home/lapo/Icone/cvs/gnome-icon-theme/32x32/status"
   sodipodi:docname="weather-severe-alert.svg"
   version="1.0"
   inkscape:output_extension="org.inkscape.output.svg.inkscape">
  <defs
     id="defs1308">
    <linearGradient
       inkscape:collect="always"
       id="linearGradient3066">
      <stop
         style="stop-color:white;stop-opacity:1;"
         offset="0"
         id="stop3068" />
      <stop
         style="stop-color:white;stop-opacity:0;"
         offset="1"
         id="stop3070" />
    </linearGradient>
    <linearGradient
       id="linearGradient2851">
      <stop
         id="stop2853"
         offset="0"
         style="stop-color:#babdb6;stop-opacity:1" />
      <stop
         style="stop-color:#babdb6;stop-opacity:1;"
         offset="0.26506025"
         id="stop2855" />
      <stop
         id="stop2857"
         offset="1"
         style="stop-color:#555753;stop-opacity:1" />
    </linearGradient>
    <linearGradient
       inkscape:collect="always"
       id="linearGradient3123">
      <stop
         style="stop-color:black;stop-opacity:1;"
         offset="0"
         id="stop3125" />
      <stop
         style="stop-color:black;stop-opacity:0;"
         offset="1"
         id="stop3127" />
    </linearGradient>
    <radialGradient
       inkscape:collect="always"
       xlink:href="#linearGradient3123"
       id="radialGradient3129"
       cx="24.000002"
       cy="25.344858"
       fx="24.000002"
       fy="25.344858"
       r="24"
       gradientTransform="matrix(1.194997,0,0,0.484904,-4.679924,11.44763)"
       gradientUnits="userSpaceOnUse" />
    <linearGradient
       id="linearGradient6525"
       gradientUnits="userSpaceOnUse"
       x1="4.1914001"
       y1="11.1133"
       x2="47.319698"
       y2="56.052299">
      <stop
         offset="0"
         style="stop-color:#ffffff;stop-opacity:1;"
         id="stop6529" />
      <stop
         offset="1"
         style="stop-color:#ffffff;stop-opacity:0.34020618;"
         id="stop6531" />
    </linearGradient>
    <linearGradient
       id="linearGradient5048">
      <stop
         id="stop5050"
         offset="0"
         style="stop-color:black;stop-opacity:0;" />
      <stop
         style="stop-color:black;stop-opacity:1;"
         offset="0.5"
         id="stop5056" />
      <stop
         id="stop5052"
         offset="1"
         style="stop-color:black;stop-opacity:0;" />
    </linearGradient>
    <linearGradient
       id="linearGradient5060"
       inkscape:collect="always">
      <stop
         id="stop5062"
         offset="0"
         style="stop-color:black;stop-opacity:1;" />
      <stop
         id="stop5064"
         offset="1"
         style="stop-color:black;stop-opacity:0;" />
    </linearGradient>
    <linearGradient
       inkscape:collect="always"
       xlink:href="#linearGradient5048"
       id="linearGradient2161"
       gradientUnits="userSpaceOnUse"
       gradientTransform="matrix(2.774389,0,0,1.969706,-1892.179,-872.8854)"
       x1="302.85715"
       y1="366.64789"
       x2="302.85715"
       y2="609.50507" />
    <radialGradient
       inkscape:collect="always"
       xlink:href="#linearGradient5060"
       id="radialGradient2163"
       gradientUnits="userSpaceOnUse"
       gradientTransform="matrix(2.774389,0,0,1.969706,-1891.633,-872.8854)"
       cx="605.71429"
       cy="486.64789"
       fx="605.71429"
       fy="486.64789"
       r="117.14286" />
    <radialGradient
       inkscape:collect="always"
       xlink:href="#linearGradient5060"
       id="radialGradient2165"
       gradientUnits="userSpaceOnUse"
       gradientTransform="matrix(-2.774389,0,0,1.969706,112.7623,-872.8854)"
       cx="605.71429"
       cy="486.64789"
       fx="605.71429"
       fy="486.64789"
       r="117.14286" />
    <linearGradient
       inkscape:collect="always"
       xlink:href="#linearGradient5048"
       id="linearGradient2167"
       gradientUnits="userSpaceOnUse"
       gradientTransform="matrix(2.774389,0,0,1.969706,-1892.179,-872.8854)"
       x1="302.85715"
       y1="366.64789"
       x2="302.85715"
       y2="609.50507" />
    <radialGradient
       inkscape:collect="always"
       xlink:href="#linearGradient5060"
       id="radialGradient2169"
       gradientUnits="userSpaceOnUse"
       gradientTransform="matrix(2.774389,0,0,1.969706,-1891.633,-872.8854)"
       cx="605.71429"
       cy="486.64789"
       fx="605.71429"
       fy="486.64789"
       r="117.14286" />
    <radialGradient
       inkscape:collect="always"
       xlink:href="#linearGradient5060"
       id="radialGradient2171"
       gradientUnits="userSpaceOnUse"
       gradientTransform="matrix(-2.774389,0,0,1.969706,112.7623,-872.8854)"
       cx="605.71429"
       cy="486.64789"
       fx="605.71429"
       fy="486.64789"
       r="117.14286" />
    <linearGradient
       inkscape:collect="always"
       xlink:href="#linearGradient6525"
       id="linearGradient2173"
       gradientUnits="userSpaceOnUse"
       gradientTransform="matrix(0.513828,0,-2.236678e-3,0.597575,15.06491,14.34464)"
       x1="8.5469341"
       y1="30.281681"
       x2="30.85088"
       y2="48.301884" />
    <radialGradient
       inkscape:collect="always"
       xlink:href="#linearGradient2851"
       id="radialGradient2177"
       gradientUnits="userSpaceOnUse"
       gradientTransform="matrix(1.186931,0,0,0.487805,-10.2093,0.609272)"
       cx="20.387419"
       cy="17.105022"
       fx="20.387419"
       fy="17.105022"
       r="24" />
    <linearGradient
       inkscape:collect="always"
       xlink:href="#linearGradient3066"
       id="linearGradient3072"
       x1="13.921704"
       y1="12.136946"
       x2="13.588415"
       y2="23.62743"
       gradientUnits="userSpaceOnUse" />
  </defs>
  <sodipodi:namedview
     id="base"
     pagecolor="#ffffff"
     bordercolor="#666"
     borderopacity="1"
     inkscape:pageopacity="0.0"
     inkscape:pageshadow="2"
     inkscape:zoom="1"
     inkscape:cx="29.644137"
     inkscape:cy="37.866017"
     inkscape:current-layer="layer1"
     showgrid="false"
     inkscape:grid-bbox="true"
     inkscape:document-units="px"
     inkscape:window-width="810"
     inkscape:window-height="828"
     inkscape:window-x="947"
     inkscape:window-y="75"
     inkscape:showpageshadow="false"
     showborder="true"
     showguides="true"
     inkscape:guide-bbox="true"
     width="32px"
     height="32px" />
  <metadata
     id="metadata1311">
    <rdf:RDF>
      <cc:Work
         rdf:about="">
        <dc:format>image/svg+xml</dc:format>
        <dc:type
           rdf:resource="http://purl.org/dc/dcmitype/StillImage" />
        <cc:license
           rdf:resource="http://creativecommons.org/licenses/GPL/2.0/" />
        <dc:title>Weather - Severe Alert</dc:title>
        <dc:creator>
          <cc:Agent>
            <dc:title>Lapo Calamandrei</dc:title>
          </cc:Agent>
        </dc:creator>
        <dc:contributor>
          <cc:Agent>
            <dc:title>Jakub Steiner</dc:title>
          </cc:Agent>
        </dc:contributor>
      </cc:Work>
      <cc:License
         rdf:about="http://creativecommons.org/licenses/GPL/2.0/">
        <cc:permits
           rdf:resource="http://web.resource.org/cc/Reproduction" />
        <cc:permits
           rdf:resource="http://web.resource.org/cc/Distribution" />
        <cc:requires
           rdf:resource="http://web.resource.org/cc/Notice" />
        <cc:permits
           rdf:resource="http://web.resource.org/cc/DerivativeWorks" />
        <cc:requires
           rdf:resource="http://web.resource.org/cc/ShareAlike" />
        <cc:requires
           rdf:resource="http://web.resource.org/cc/SourceCode" />
      </cc:License>
    </rdf:RDF>
  </metadata>
  <g
     id="layer1"
     inkscape:label="Layer 1"
     inkscape:groupmode="layer">
    <g
       id="g3074">
      <path
         transform="matrix(0.611336,0,0,0.705372,1.99169,-4.44888)"
         d="M 27,11 C 25.352656,11 24,12.352656 24,14 C 24,14.046313 24.028848,14.079998 24.03125,14.125 C 20.934234,14.427317 18.268841,16.112104 16.65625,18.59375 C 16.006617,18.239183 15.282322,18 14.5,18 C 14.292036,18 14.124896,18.061474 13.9375,18.09375 C 13.736624,16.919945 12.728639,16 11.5,16 C 10.128657,16 8.9999998,17.128655 9,18.5 C 9,19.472692 9.5849886,20.304447 10.40625,20.71875 C 10.190761,21.210421 10.056183,21.746483 10.03125,22.3125 C 9.5500036,22.128963 9.0482675,22 8.5,22 C 6.8856991,22 5.5076389,22.873832 4.71875,24.15625 C 4.2220002,23.793149 3.658547,23.5 3,23.5 C 1.3526576,23.5 -2.3874559e-08,24.852661 0,26.5 C 0,28.147338 1.3526574,29.5 3,29.5 C 3.658547,29.5 4.2220002,29.206851 4.71875,28.84375 C 5.507639,30.126167 6.8856995,30.999999 8.5,31 C 9.2982101,31 10.012358,30.740585 10.65625,30.375 C 11.548154,32.189142 13.341338,33.5 15.5,33.5 C 16.907152,33.5 18.127882,32.900586 19.09375,32.03125 C 20.751175,33.254647 22.78471,34 25,34 C 27.92617,34 30.545933,32.696246 32.375,30.6875 C 33.385251,31.471869 34.620867,32 36,32 C 37.550792,32 38.908192,31.341916 39.96875,30.375 C 40.568608,30.741907 41.240931,31 42,31 C 43.038042,31 43.918439,30.525733 44.625,29.875 C 44.986081,30.24032 45.448989,30.5 46,30.5 C 47.09534,30.5 48.000003,29.595346 48,28.5 C 48,27.404654 47.095339,26.500001 46,26.5 C 45.963489,26.5 45.941612,26.529027 45.90625,26.53125 C 45.664459,24.560223 44.034388,23 42,23 C 41.730971,23 41.473144,23.073607 41.21875,23.125 C 40.484022,21.798621 39.279092,20.813255 37.8125,20.34375 C 37.889819,20.067532 38,19.809778 38,19.5 C 38,17.576656 36.423344,16 34.5,16 C 33.565899,16 32.757348,16.428943 32.125,17.03125 C 31.412251,16.308542 30.587282,15.728941 29.6875,15.25 C 29.863684,14.860731 30,14.445177 30,14 C 30,12.352656 28.647343,11 27,11 z "
         id="path3113"
         style="opacity:0.4;fill:url(#radialGradient3129);fill-opacity:1;stroke:none;stroke-width:1;stroke-linecap:round;stroke-linejoin:miter;stroke-miterlimit:4;stroke-dasharray:none;stroke-dashoffset:1.20000057;stroke-opacity:1"
         inkscape:original="M 27 11.5 C 25.619997 11.5 24.5 12.619997 24.5 14 C 24.5 14.183237 24.525021 14.359194 24.5625 14.53125 C 21.248692 14.683188 18.391149 16.518951 16.8125 19.21875 C 16.163117 18.76344 15.352746 18.5 14.5 18.5 C 14.154227 18.5 13.820085 18.573642 13.5 18.65625 C 13.504018 18.604511 13.5 18.552765 13.5 18.5 C 13.5 17.395997 12.604003 16.5 11.5 16.5 C 10.395997 16.5 9.4999998 17.395996 9.5 18.5 C 9.5 19.455653 10.165989 20.27106 11.0625 20.46875 C 10.712418 21.063082 10.5 21.760776 10.5 22.5 C 10.5 22.70146 10.533709 22.900261 10.5625 23.09375 C 9.9602283 22.730458 9.2541665 22.5 8.5 22.5 C 6.8835526 22.5 5.5056469 23.462793 4.875 24.84375 C 4.4167467 24.323207 3.7474993 24 3 24 C 1.6200014 24 0.49999998 25.120005 0.5 26.5 C 0.5 27.879994 1.6200014 29 3 29 C 3.7474993 29 4.4167467 28.676793 4.875 28.15625 C 5.505647 29.537206 6.8835529 30.499999 8.5 30.5 C 9.3765388 30.5 10.184417 30.197486 10.84375 29.71875 C 11.550079 31.623343 13.350649 33 15.5 33 C 16.919591 33 18.183331 32.388645 19.09375 31.4375 C 20.717472 32.732721 22.763047 33.5 25 33.5 C 27.934178 33.5 30.569428 32.154918 32.3125 30.0625 C 33.289388 30.950443 34.576875 31.5 36 31.5 C 37.549626 31.5 38.937507 30.844777 39.9375 29.8125 C 40.516678 30.236992 41.227414 30.5 42 30.5 C 43.086749 30.5 44.04538 29.996717 44.6875 29.21875 C 44.941606 29.686327 45.43075 30 46 30 C 46.827999 30 47.500002 29.328003 47.5 28.5 C 47.5 27.671996 46.827998 27.000001 46 27 C 45.8275 27 45.654292 27.040082 45.5 27.09375 C 45.500816 27.062682 45.5 27.031264 45.5 27 C 45.5 25.067993 43.931997 23.5 42 23.5 C 41.64465 23.5 41.29198 23.557651 40.96875 23.65625 C 40.261246 22.164952 38.891932 21.042815 37.25 20.65625 C 37.401875 20.297374 37.5 19.914001 37.5 19.5 C 37.5 17.843997 36.156003 16.5 34.5 16.5 C 33.52101 16.5 32.641436 16.961292 32.09375 17.6875 C 31.254049 16.746697 30.21396 15.985374 29.0625 15.4375 C 29.340986 15.034361 29.5 14.526701 29.5 14 C 29.5 12.619997 28.380002 11.5 27 11.5 z "
         inkscape:radius="0.49410588"
         sodipodi:type="inkscape:offset" />
      <path
         id="path2077"
         d="M 13.207272,6.5092436 C 10.677617,3.3287436 6.3918079,7.4280624 8.160715,9.198746 C 6.6584276,9.2145541 6.1496923,9.8805721 4.9719517,11.664462 C 4.6918052,11.297285 4.2826703,11.069304 3.8256972,11.069304 C 2.9820547,11.069304 2.2973579,11.859324 2.2973579,12.832734 C 2.2973579,13.806143 2.9820547,14.596164 3.8256972,14.596164 C 4.2826703,14.596164 4.6918052,14.368183 4.9719517,14.001006 C 5.3574889,14.975094 6.199852,15.654221 7.188044,15.654222 C 7.723903,15.654222 8.217788,15.440837 8.620862,15.10315 C 9.052666,16.446597 10.153419,17.417652 11.467394,17.417652 C 12.335241,17.417652 13.10781,16.986419 13.664382,16.315508 C 14.657021,17.229121 15.907554,17.770338 17.275083,17.770338 C 19.068851,17.770338 20.679874,16.821555 21.745476,15.345622 C 22.342683,15.971952 23.12977,16.359594 23.999777,16.359594 C 24.947119,16.359594 25.79558,15.897418 26.406911,15.169279 C 26.760984,15.468704 27.195482,15.654222 27.667791,15.654222 C 28.33216,15.654222 28.918205,15.29922 29.310756,14.750464 C 29.466101,15.08028 29.765132,15.301536 30.113134,15.301536 C 30.61932,15.301536 31.03014,14.827528 31.030138,14.243478 C 31.030138,13.659427 30.619319,13.185421 30.113134,13.18542 C 30.007679,13.18542 29.901791,13.213693 29.807467,13.251549 C 29.807965,13.229634 29.807467,13.207473 29.807467,13.18542 C 29.807467,11.822636 28.84889,10.716618 27.667791,10.716618 C 27.450554,10.716618 27.234954,10.757283 27.037351,10.826832 C 26.604829,9.7749126 25.767719,8.9833886 24.763947,8.7107156 C 24.856793,8.4575746 24.916781,8.1871546 24.916781,7.8951296 C 24.916781,6.7270316 24.095147,5.7790136 23.082773,5.7790136 C 22.484282,5.7790136 21.946567,6.1043956 21.611747,6.6166426 C 19.036929,4.3619425 15.668087,3.9146034 13.207272,6.5092436 z "
         style="fill:url(#radialGradient2177);fill-opacity:1;stroke:#555753;stroke-width:0.9999994;stroke-linecap:round;stroke-linejoin:miter;stroke-miterlimit:4;stroke-dasharray:none;stroke-dashoffset:1.20000057;stroke-opacity:1"
         sodipodi:nodetypes="cccssscscscscscscssssssccsscc" />
      <path
         sodipodi:nodetypes="ccscscscs"
         id="path2045"
         d="M 9.986137,13.101111 C 10.661975,13.32391 12.766729,12.655514 12.766729,12.655514 C 12.766729,12.655514 13.915654,14.070287 15.045269,14.259665 C 16.174885,14.449044 17.285191,13.41303 17.285191,13.41303 C 17.285191,13.41303 16.16523,14.215105 15.045269,13.814068 C 13.925309,13.41303 12.805348,11.808878 12.805348,11.808878 C 12.805348,11.808878 11.173681,12.755773 10.488188,12.744633 C 9.802694,12.733493 10.063375,11.764318 10.063375,11.764318 C 10.063375,11.764318 9.310297,12.878312 9.986137,13.101111 z "
         style="opacity:0.44221106;color:black;fill:black;fill-opacity:0.88020831;fill-rule:nonzero;stroke:none;stroke-width:1;stroke-linecap:butt;stroke-linejoin:miter;marker:none;marker-start:none;marker-mid:none;marker-end:none;stroke-miterlimit:4;stroke-dasharray:none;stroke-dashoffset:0;stroke-opacity:1;visibility:visible;display:inline;overflow:visible" />
      <path
         sodipodi:nodetypes="ccsc"
         id="path2047"
         d="M 18.383501,7.3899086 C 19.521947,7.1065876 20.558629,7.4690536 21.409462,9.0109226 C 21.409462,9.0109226 20.977182,7.4210816 20.220692,7.0158286 C 19.464202,6.6105756 18.383501,7.3899086 18.383501,7.3899086 z "
         style="opacity:1;color:black;fill:white;fill-opacity:0.36979167;fill-rule:nonzero;stroke:none;stroke-width:1;stroke-linecap:butt;stroke-linejoin:miter;marker:none;marker-start:none;marker-mid:none;marker-end:none;stroke-miterlimit:4;stroke-dasharray:none;stroke-dashoffset:0;stroke-opacity:1;visibility:visible;display:inline;overflow:visible" />
      <path
         style="opacity:1;color:black;fill:white;fill-opacity:0.453125;fill-rule:nonzero;stroke:none;stroke-width:1;stroke-linecap:butt;stroke-linejoin:miter;marker:none;marker-start:none;marker-mid:none;marker-end:none;stroke-miterlimit:4;stroke-dasharray:none;stroke-dashoffset:0;stroke-opacity:1;visibility:visible;display:inline;overflow:visible"
         d="M 13.011447,9.3106346 C 13.648958,8.4579966 14.403639,8.2333616 15.372309,9.1556516 C 15.372309,9.1556516 14.653795,7.9698596 14.063579,8.0086056 C 13.473364,8.0473516 13.011447,9.3106346 13.011447,9.3106346 z "
         id="path2934"
         sodipodi:nodetypes="ccsc" />
      <path
         style="opacity:1;color:black;fill:#535353;fill-opacity:1;fill-rule:nonzero;stroke:none;stroke-width:1;stroke-linecap:butt;stroke-linejoin:miter;marker:none;marker-start:none;marker-mid:none;marker-end:none;stroke-miterlimit:4;stroke-dasharray:none;stroke-dashoffset:0;stroke-opacity:1;visibility:visible;display:inline;overflow:visible"
         d="M 25.982409,11.793924 C 25.487323,13.010229 24.608893,13.741571 23.030361,13.587224 C 23.030361,13.587224 24.388148,14.154675 25.12616,13.70635 C 25.864172,13.258024 25.982409,11.793924 25.982409,11.793924 z "
         id="path2936"
         sodipodi:nodetypes="ccsc" />
      <path
         style="opacity:1;color:black;fill:black;fill-opacity:0.28125;fill-rule:nonzero;stroke:none;stroke-width:1;stroke-linecap:butt;stroke-linejoin:miter;marker:none;marker-start:none;marker-mid:none;marker-end:none;stroke-miterlimit:4;stroke-dasharray:none;stroke-dashoffset:0;stroke-opacity:1;visibility:visible;display:inline;overflow:visible"
         d="M 22.123713,11.456237 C 21.64396,11.614394 20.380019,11.272697 20.380019,11.272697 C 20.380019,11.272697 19.756227,12.188476 18.532424,12.278651 C 17.723779,12.338235 16.980744,10.792505 16.980744,10.792505 C 16.980744,10.792505 17.929192,12.114246 18.724211,11.829565 C 19.519229,11.544883 20.12246,10.538929 20.12246,10.538929 C 20.12246,10.538929 21.280719,11.211094 21.767326,11.203186 C 22.253932,11.195279 22.529173,10.463041 22.529173,10.463041 C 22.529173,10.463041 22.603465,11.29808 22.123713,11.456237 z "
         id="path2938"
         sodipodi:nodetypes="ccscscscs" />
      <path
         d="M 18.5,3.21875 C 18.252511,3.21875 17.9375,3.4840641 17.9375,4 C 17.9375,4.0874708 17.960314,4.1428159 17.96875,4.1875 C 18.022687,4.4642461 17.953739,4.7507735 17.779807,4.9726864 C 17.605875,5.1945993 17.344118,5.3300065 17.0625,5.34375 C 15.421712,5.4305521 13.990637,6.4785384 13.15625,8.125 C 13.024163,8.3936418 12.775607,8.5863914 12.482541,8.6474468 C 12.189475,8.7085022 11.884626,8.6310453 11.65625,8.4375 C 11.444151,8.2659131 11.142892,8.15625 10.84375,8.15625 C 10.836819,8.15625 10.759386,8.182066 10.53125,8.25 C 10.146571,8.3776556 9.7230617,8.2530941 9.46875,7.9375 C 9.743244,8.2341025 9.8054655,8.6696532 9.625,9.03125 C 9.4711368,9.3326418 9.375,9.6397041 9.375,10 C 9.3749999,10.079898 9.3927353,10.207704 9.40625,10.3125 C 9.4677189,10.700742 9.2891886,11.087769 8.9539515,11.293017 C 8.6187144,11.498264 8.192833,11.481284 7.875,11.25 C 7.6153521,11.069288 7.3939558,10.96875 7.1875,10.96875 C 6.6463782,10.96875 6.1388952,11.333249 5.875,12 C 5.7523496,12.333739 5.4571854,12.57382 5.1054614,12.625927 C 4.7537374,12.678034 4.4016442,12.533844 4.1875,12.25 C 4.0738858,12.10109 3.9483675,12.03125 3.8125,12.03125 C 3.5890081,12.03125 3.28125,12.307032 3.28125,12.84375 C 3.2812501,13.380467 3.5650194,13.625 3.8125,13.625 C 3.9483675,13.625 4.0738854,13.55516 4.1875,13.40625 C 4.4016442,13.122406 4.7537374,12.978216 5.1054614,13.030323 C 5.4571854,13.08243 5.7523496,13.322511 5.875,13.65625 C 6.1388954,14.323001 6.6463778,14.687499 7.1875,14.6875 C 7.4516516,14.6875 7.7365091,14.564497 8,14.34375 C 8.2466512,14.129496 8.5844745,14.053559 8.8990878,14.141651 C 9.2137011,14.229742 9.4629716,14.470066 9.5625,14.78125 C 9.8891487,15.797533 10.632404,16.4375 11.46875,16.4375 C 12.021051,16.4375 12.500202,16.176965 12.90625,15.6875 C 13.076428,15.482449 13.323358,15.356296 13.589238,15.338571 C 13.855118,15.320845 14.116609,15.413104 14.3125,15.59375 C 15.146863,16.361688 16.176623,16.8125 17.28125,16.8125 C 18.727846,16.8125 20.057665,16.043167 20.96875,14.78125 C 21.139296,14.555835 21.399557,14.41587 21.681646,14.397864 C 21.963734,14.379858 22.239678,14.485597 22.4375,14.6875 C 22.886442,15.158335 23.431416,15.40625 24,15.40625 C 24.611944,15.40625 25.191066,15.085318 25.65625,14.53125 C 25.821285,14.331231 26.059433,14.205487 26.317683,14.18201 C 26.575933,14.158533 26.832852,14.23927 27.03125,14.40625 C 27.256936,14.597104 27.458972,14.6875 27.65625,14.6875 C 27.972129,14.6875 28.294766,14.518087 28.53125,14.1875 C 28.656945,14.022476 28.832159,13.902016 29.03125,13.84375 C 29.031082,13.833334 29.031082,13.822916 29.03125,13.8125 C 28.905304,13.640513 28.839419,13.431877 28.84375,13.21875 C 28.843631,13.223976 28.84375,13.224178 28.84375,13.1875 C 28.84375,12.288136 28.230912,11.6875 27.65625,11.6875 C 27.511162,11.6875 27.404453,11.697385 27.34375,11.71875 C 26.860967,11.890869 26.327519,11.65834 26.125,11.1875 C 25.798359,10.393092 25.19087,9.8439237 24.5,9.65625 C 24.235251,9.5849382 24.01296,9.4050785 23.887966,9.161042 C 23.762971,8.9170054 23.746912,8.6315149 23.84375,8.375 C 23.909691,8.1952133 23.9375,8.0576615 23.9375,7.90625 C 23.937501,7.1817711 23.493976,6.75 23.09375,6.75 C 22.853983,6.75 22.617829,6.8803614 22.4375,7.15625 C 22.266243,7.4241899 21.974702,7.5913613 21.656951,7.6038221 C 21.3392,7.6162829 21.035464,7.4724558 20.84375,7.21875 C 20.419011,6.6696727 19.872028,6.1993361 19.28125,5.875 C 19.050261,5.7494804 18.879999,5.5357111 18.809334,5.2824968 C 18.73867,5.0292825 18.773636,4.7582401 18.90625,4.53125 C 18.978554,4.4104818 19.0625,4.1780209 19.0625,4 C 19.062501,3.4840655 18.747489,3.21875 18.5,3.21875 z M 9.03125,6.75 C 8.9584851,6.75 8.7812496,6.8610477 8.78125,7.1875 C 8.7812501,7.487444 8.9828594,7.6518889 9,7.65625 C 9.1764417,7.6944161 9.3387605,7.7809861 9.46875,7.90625 C 9.3289427,7.7173739 9.2623293,7.484227 9.28125,7.25 C 9.2766988,7.3176285 9.28125,7.267455 9.28125,7.1875 C 9.28125,6.8610474 9.1040143,6.75 9.03125,6.75 z "
         inkscape:href="#path2077"
         id="path2175"
         style="fill:none;fill-opacity:1;stroke:url(#linearGradient3072);stroke-width:0.9999994;stroke-linecap:round;stroke-linejoin:miter;stroke-miterlimit:4;stroke-dasharray:none;stroke-dashoffset:1.20000057;stroke-opacity:1;opacity:0.34673367"
         xlink:href="#path2077"
         inkscape:original="M 17.375 4.75 C 15.903335 4.6806577 14.449158 5.2026799 13.21875 6.5 C 10.689095 3.3195001 6.3873429 7.4168164 8.15625 9.1875 C 6.6539625 9.2033084 6.1464906 9.8723601 4.96875 11.65625 C 4.6886037 11.289073 4.2694731 11.0625 3.8125 11.0625 C 2.9688575 11.0625 2.3125 11.87034 2.3125 12.84375 C 2.3125001 13.817159 2.9688575 14.59375 3.8125 14.59375 C 4.2694731 14.59375 4.6886035 14.367177 4.96875 14 C 5.3542874 14.974088 6.199308 15.656249 7.1875 15.65625 C 7.7233589 15.65625 8.221926 15.431437 8.625 15.09375 C 9.056804 16.437197 10.154775 17.40625 11.46875 17.40625 C 12.336597 17.40625 13.099678 16.983411 13.65625 16.3125 C 14.648889 17.226113 15.913721 17.78125 17.28125 17.78125 C 19.075017 17.78125 20.684398 16.819683 21.75 15.34375 C 22.347207 15.97008 23.129993 16.375 24 16.375 C 24.947342 16.375 25.794919 15.884389 26.40625 15.15625 C 26.760322 15.455675 27.183941 15.65625 27.65625 15.65625 C 28.320619 15.65625 28.919949 15.298756 29.3125 14.75 C 29.467844 15.079816 29.776998 15.3125 30.125 15.3125 C 30.631186 15.3125 31.031252 14.83405 31.03125 14.25 C 31.03125 13.665949 30.631185 13.187501 30.125 13.1875 C 30.019545 13.1875 29.906824 13.212144 29.8125 13.25 C 29.812998 13.228085 29.8125 13.209553 29.8125 13.1875 C 29.8125 11.824716 28.837349 10.71875 27.65625 10.71875 C 27.439013 10.71875 27.228853 10.742951 27.03125 10.8125 C 26.598727 9.7605808 25.753772 8.991423 24.75 8.71875 C 24.842846 8.4656093 24.90625 8.198275 24.90625 7.90625 C 24.906251 6.7381519 24.106124 5.78125 23.09375 5.78125 C 22.495259 5.78125 21.95982 6.112753 21.625 6.625 C 20.337591 5.49765 18.846665 4.8193423 17.375 4.75 z "
         inkscape:radius="-0.97145247"
         sodipodi:type="inkscape:offset" />
    </g>
    <g
       id="g2146"
       transform="translate(-4.80062,-11)">
      <g
         style="display:inline"
         transform="matrix(1.071946e-2,0,0,9.024553e-3,35.41685,39.41802)"
         id="g6707">
        <rect
           style="opacity:0.40206185;color:black;fill:url(#linearGradient2161);fill-opacity:1;fill-rule:nonzero;stroke:none;stroke-width:1;stroke-linecap:round;stroke-linejoin:miter;marker:none;marker-start:none;marker-mid:none;marker-end:none;stroke-miterlimit:4;stroke-dasharray:none;stroke-dashoffset:0;stroke-opacity:1;visibility:visible;display:inline;overflow:visible"
           id="rect6709"
           width="1339.6335"
           height="478.35718"
           x="-1559.2523"
           y="-150.69685" />
        <path
           style="opacity:0.40206185;color:black;fill:url(#radialGradient2163);fill-opacity:1;fill-rule:nonzero;stroke:none;stroke-width:1;stroke-linecap:round;stroke-linejoin:miter;marker:none;marker-start:none;marker-mid:none;marker-end:none;stroke-miterlimit:4;stroke-dasharray:none;stroke-dashoffset:0;stroke-opacity:1;visibility:visible;display:inline;overflow:visible"
           d="M -219.61876,-150.68038 C -219.61876,-150.68038 -219.61876,327.65041 -219.61876,327.65041 C -76.744594,328.55086 125.78146,220.48075 125.78138,88.454235 C 125.78138,-43.572302 -33.655436,-150.68036 -219.61876,-150.68038 z "
           id="path6711"
           sodipodi:nodetypes="cccc" />
        <path
           sodipodi:nodetypes="cccc"
           id="path6713"
           d="M -1559.2523,-150.68038 C -1559.2523,-150.68038 -1559.2523,327.65041 -1559.2523,327.65041 C -1702.1265,328.55086 -1904.6525,220.48075 -1904.6525,88.454235 C -1904.6525,-43.572302 -1745.2157,-150.68036 -1559.2523,-150.68038 z "
           style="opacity:0.40206185;color:black;fill:url(#radialGradient2165);fill-opacity:1;fill-rule:nonzero;stroke:none;stroke-width:1;stroke-linecap:round;stroke-linejoin:miter;marker:none;marker-start:none;marker-mid:none;marker-end:none;stroke-miterlimit:4;stroke-dasharray:none;stroke-dashoffset:0;stroke-opacity:1;visibility:visible;display:inline;overflow:visible" />
      </g>
      <g
         id="g3952"
         transform="matrix(1.071946e-2,0,0,9.024553e-3,35.41685,39.41802)"
         style="display:inline">
        <rect
           y="-150.69685"
           x="-1559.2523"
           height="478.35718"
           width="1339.6335"
           id="rect3954"
           style="opacity:0.40206185;color:black;fill:url(#linearGradient2167);fill-opacity:1;fill-rule:nonzero;stroke:none;stroke-width:1;stroke-linecap:round;stroke-linejoin:miter;marker:none;marker-start:none;marker-mid:none;marker-end:none;stroke-miterlimit:4;stroke-dasharray:none;stroke-dashoffset:0;stroke-opacity:1;visibility:visible;display:inline;overflow:visible" />
        <path
           sodipodi:nodetypes="cccc"
           id="path3956"
           d="M -219.61876,-150.68038 C -219.61876,-150.68038 -219.61876,327.65041 -219.61876,327.65041 C -76.744594,328.55086 125.78146,220.48075 125.78138,88.454235 C 125.78138,-43.572302 -33.655436,-150.68036 -219.61876,-150.68038 z "
           style="opacity:0.40206185;color:black;fill:url(#radialGradient2169);fill-opacity:1;fill-rule:nonzero;stroke:none;stroke-width:1;stroke-linecap:round;stroke-linejoin:miter;marker:none;marker-start:none;marker-mid:none;marker-end:none;stroke-miterlimit:4;stroke-dasharray:none;stroke-dashoffset:0;stroke-opacity:1;visibility:visible;display:inline;overflow:visible" />
        <path
           style="opacity:0.40206185;color:black;fill:url(#radialGradient2171);fill-opacity:1;fill-rule:nonzero;stroke:none;stroke-width:1;stroke-linecap:round;stroke-linejoin:miter;marker:none;marker-start:none;marker-mid:none;marker-end:none;stroke-miterlimit:4;stroke-dasharray:none;stroke-dashoffset:0;stroke-opacity:1;visibility:visible;display:inline;overflow:visible"
           d="M -1559.2523,-150.68038 C -1559.2523,-150.68038 -1559.2523,327.65041 -1559.2523,327.65041 C -1702.1265,328.55086 -1904.6525,220.48075 -1904.6525,88.454235 C -1904.6525,-43.572302 -1745.2157,-150.68036 -1559.2523,-150.68038 z "
           id="path3958"
           sodipodi:nodetypes="cccc" />
      </g>
      <path
         style="fill:#f57900;fill-opacity:1;fill-rule:nonzero;stroke:#ce5c00;stroke-width:1.00000095;stroke-miterlimit:4;stroke-dasharray:none;stroke-opacity:1"
         d="M 34.129575,38.746844 L 26.907802,24.192027 C 26.700226,23.787726 26.324626,23.563115 25.906319,23.563115 C 25.488012,23.563115 25.110483,23.832648 24.899754,24.236948 L 17.73176,38.791768 C 17.563035,39.151146 17.561107,39.645291 17.768859,40.004669 C 17.976611,40.364047 18.310556,40.543736 18.728863,40.543736 L 33.118628,40.543736 C 33.536935,40.543736 33.914288,40.319125 34.083014,39.959746 C 34.293568,39.600368 34.29532,39.151146 34.129575,38.746844 z "
         id="path6485"
         inkscape:r_cx="true"
         inkscape:r_cy="true" />
      <path
         inkscape:r_cy="true"
         inkscape:r_cx="true"
         id="path6496"
         d="M 20.651604,37.942797 C 20.542454,38.13588 20.650222,38.290346 20.83086,38.290346 L 31.018845,38.290346 C 31.199484,38.290346 31.308481,38.13588 31.200866,37.942797 L 26.075469,27.670808 C 25.967853,27.477726 25.823344,27.477726 25.75032,27.670808 L 20.651604,37.942797 z "
         style="fill:#fcaf3e;fill-rule:nonzero;stroke:none;stroke-miterlimit:4" />
      <path
         style="opacity:0.5;fill:none;fill-opacity:1;fill-rule:nonzero;stroke:url(#linearGradient2173);stroke-width:1.00000095;stroke-miterlimit:4;stroke-dasharray:none;stroke-opacity:1"
         d="M 32.6289,38.067594 L 26.60991,25.529232 C 26.364213,25.00794 26.276088,24.528189 25.9027,24.528189 C 25.581556,24.528189 25.413525,25.084268 25.181451,25.576325 L 19.101492,38.042444 C 18.770216,38.72129 18.547223,39.085739 18.706677,39.384525 C 18.866129,39.683312 19.133358,39.47954 19.889813,39.49903 L 31.852565,39.561529 C 32.556811,39.571274 33.152948,39.761219 33.282525,39.462432 C 33.444214,39.163645 32.93794,38.676592 32.6289,38.067594 z "
         id="path1325"
         sodipodi:nodetypes="ccsccscccc"
         inkscape:r_cx="true"
         inkscape:r_cy="true" />
      <g
         style="fill:#121312;fill-opacity:1;fill-rule:nonzero;stroke:black;stroke-width:2.45324564;stroke-miterlimit:4"
         transform="matrix(0.339351,0,0,0.370268,17.78706,23.64564)"
         id="g6498"
         inkscape:r_cx="true"
         inkscape:r_cy="true">
        <path
           style="fill:#121312;fill-opacity:1;stroke:none"
           d="M 22.810356,35.833787 C 21.482134,35.130969 21.104052,33.568631 21.940765,32.24041 C 22.841841,30.810018 24.340642,30.377046 25.771035,31.133927 C 27.201427,31.890808 27.43953,33.242849 26.640625,34.727304 C 25.803912,36.055525 24.240748,36.590668 22.810356,35.833787 L 22.810356,35.833787 z M 23.428093,28.231254 L 21.248844,19.696786 L 27.332546,19.816143 L 25.023066,28.08366 L 23.428093,28.231254 z "
           id="path6500"
           inkscape:r_cx="true"
           inkscape:r_cy="true"
           sodipodi:nodetypes="csscccccccc" />
      </g>
    </g>
  </g>
</svg>
