<?xml version="1.0" encoding="UTF-8" standalone="no"?>
<!-- Created with Inkscape (http://www.inkscape.org/) -->
<svg
   xmlns:dc="http://purl.org/dc/elements/1.1/"
   xmlns:cc="http://web.resource.org/cc/"
   xmlns:rdf="http://www.w3.org/1999/02/22-rdf-syntax-ns#"
   xmlns:svg="http://www.w3.org/2000/svg"
   xmlns="http://www.w3.org/2000/svg"
   xmlns:xlink="http://www.w3.org/1999/xlink"
   xmlns:sodipodi="http://sodipodi.sourceforge.net/DTD/sodipodi-0.dtd"
   xmlns:inkscape="http://www.inkscape.org/namespaces/inkscape"
   width="32"
   height="32"
   id="svg1306"
   sodipodi:version="0.32"
   inkscape:version="0.45"
   sodipodi:docbase="/home/dobey/Projects/gnome-icon-theme/32x32/status"
   sodipodi:docname="weather-clear-night.svg"
   version="1.0"
   inkscape:export-filename="/home/jimmac/src/cvs/gnome/gnome-icon-theme/32x32/status/weather-clear-night.png"
   inkscape:export-xdpi="90"
   inkscape:export-ydpi="90"
   inkscape:output_extension="org.inkscape.output.svg.inkscape">
  <defs
     id="defs1308">
    <linearGradient
       id="linearGradient5199">
      <stop
         style="stop-color:#7e7878;stop-opacity:0.09708738;"
         offset="0"
         id="stop5201" />
      <stop
         style="stop-color:#7e7878;stop-opacity:1;"
         offset="1"
         id="stop5203" />
    </linearGradient>
    <linearGradient
       inkscape:collect="always"
       id="linearGradient5191">
      <stop
         style="stop-color:#dadad9;stop-opacity:1;"
         offset="0"
         id="stop5193" />
      <stop
         style="stop-color:#dadad9;stop-opacity:0;"
         offset="1"
         id="stop5195" />
    </linearGradient>
    <linearGradient
       inkscape:collect="always"
       id="linearGradient5164">
      <stop
         style="stop-color:white;stop-opacity:1;"
         offset="0"
         id="stop5166" />
      <stop
         style="stop-color:white;stop-opacity:0;"
         offset="1"
         id="stop5168" />
    </linearGradient>
    <linearGradient
       id="linearGradient5154">
      <stop
         style="stop-color:#d9d8d6;stop-opacity:1;"
         offset="0"
         id="stop5156" />
      <stop
         style="stop-color:#b5b4b0;stop-opacity:1;"
         offset="1"
         id="stop5158" />
    </linearGradient>
    <linearGradient
       inkscape:collect="always"
       id="linearGradient5138">
      <stop
         style="stop-color:white;stop-opacity:1;"
         offset="0"
         id="stop5140" />
      <stop
         style="stop-color:white;stop-opacity:0;"
         offset="1"
         id="stop5142" />
    </linearGradient>
    <radialGradient
       inkscape:collect="always"
       xlink:href="#linearGradient5138"
       id="radialGradient5144"
       cx="23.071428"
       cy="11.011853"
       fx="23.071428"
       fy="11.011853"
       r="22.856438"
       gradientUnits="userSpaceOnUse"
       gradientTransform="matrix(3.373032,0,0,3.373032,-54.74925,-26.13148)" />
    <radialGradient
       inkscape:collect="always"
       xlink:href="#linearGradient5154"
       id="radialGradient5160"
       cx="23.071428"
       cy="6.8925552"
       fx="23.071428"
       fy="6.8925552"
       r="22.812965"
       gradientUnits="userSpaceOnUse"
       gradientTransform="matrix(1.440625,0,0,1.440625,-10.16586,-3.037035)" />
    <radialGradient
       inkscape:collect="always"
       xlink:href="#linearGradient5164"
       id="radialGradient5170"
       cx="23.688078"
       cy="23.42804"
       fx="23.688078"
       fy="23.42804"
       r="22.45064"
       gradientUnits="userSpaceOnUse" />
    <radialGradient
       inkscape:collect="always"
       xlink:href="#linearGradient5191"
       id="radialGradient5197"
       cx="22.288452"
       cy="34.537094"
       fx="22.288452"
       fy="34.537094"
       r="9.9375"
       gradientTransform="matrix(1.020392,0,0,0.770107,-7.054872,-3.098066)"
       gradientUnits="userSpaceOnUse" />
    <radialGradient
       inkscape:collect="always"
       xlink:href="#linearGradient5199"
       id="radialGradient5205"
       cx="24.125"
       cy="9.7349367"
       fx="24.125"
       fy="9.7349367"
       r="15.75"
       gradientTransform="matrix(1.125191,0,0,0.741197,-10.20627,2.653813)"
       gradientUnits="userSpaceOnUse" />
  </defs>
  <sodipodi:namedview
     id="base"
     pagecolor="white"
     bordercolor="#666"
     borderopacity="0.34117647"
     inkscape:pageopacity="0"
     inkscape:pageshadow="2"
     inkscape:zoom="1"
     inkscape:cx="21.538932"
     inkscape:cy="14.87623"
     inkscape:current-layer="layer1"
     showgrid="false"
     inkscape:grid-bbox="true"
     inkscape:document-units="px"
     inkscape:window-width="911"
     inkscape:window-height="1020"
     inkscape:window-x="581"
     inkscape:window-y="130"
     inkscape:showpageshadow="false"
     width="32px"
     height="32px" />
  <metadata
     id="metadata1311">
    <rdf:RDF>
      <cc:Work
         rdf:about="">
        <dc:format>image/svg+xml</dc:format>
        <dc:type
           rdf:resource="http://purl.org/dc/dcmitype/StillImage" />
        <cc:license
           rdf:resource="http://creativecommons.org/licenses/GPL/2.0/" />
        <dc:title>Weather Clear (Night)</dc:title>
        <dc:creator>
          <cc:Agent>
            <dc:title>Jakub Steiner</dc:title>
          </cc:Agent>
        </dc:creator>
        <dc:subject>
          <rdf:Bag>
            <rdf:li>weather</rdf:li>
            <rdf:li>clear</rdf:li>
            <rdf:li>night</rdf:li>
            <rdf:li>moon</rdf:li>
          </rdf:Bag>
        </dc:subject>
      </cc:Work>
      <cc:License
         rdf:about="http://creativecommons.org/licenses/GPL/2.0/">
        <cc:permits
           rdf:resource="http://web.resource.org/cc/Reproduction" />
        <cc:permits
           rdf:resource="http://web.resource.org/cc/Distribution" />
        <cc:requires
           rdf:resource="http://web.resource.org/cc/Notice" />
        <cc:permits
           rdf:resource="http://web.resource.org/cc/DerivativeWorks" />
        <cc:requires
           rdf:resource="http://web.resource.org/cc/ShareAlike" />
        <cc:requires
           rdf:resource="http://web.resource.org/cc/SourceCode" />
      </cc:License>
    </rdf:RDF>
  </metadata>
  <g
     id="layer1"
     inkscape:label="Layer 1"
     inkscape:groupmode="layer">
    <path
       sodipodi:type="arc"
       style="opacity:1;color:black;fill:url(#radialGradient5170);fill-opacity:1;fill-rule:evenodd;stroke:none;stroke-width:1;stroke-linecap:round;stroke-linejoin:round;marker:none;marker-start:none;marker-mid:none;marker-end:none;stroke-miterlimit:4;stroke-dasharray:none;stroke-dashoffset:0;stroke-opacity:1;visibility:visible;display:inline;overflow:visible"
       id="path5162"
       sodipodi:cx="23.688078"
       sodipodi:cy="23.42804"
       sodipodi:rx="22.45064"
       sodipodi:ry="22.45064"
       d="M 46.138718 23.42804 A 22.45064 22.45064 0 1 1  1.2374382,23.42804 A 22.45064 22.45064 0 1 1  46.138718 23.42804 z"
       transform="matrix(0.681103,0,0,0.681103,0.407618,0.574693)" />
    <path
       sodipodi:type="arc"
       style="opacity:1;color:black;fill:url(#radialGradient5160);fill-opacity:1;fill-rule:evenodd;stroke:#888a85;stroke-width:1.92546499;stroke-linecap:butt;stroke-linejoin:round;marker:none;marker-start:none;marker-mid:none;marker-end:none;stroke-miterlimit:4;stroke-dasharray:none;stroke-dashoffset:0;stroke-opacity:1;visibility:visible;display:inline;overflow:visible"
       id="path1314"
       sodipodi:cx="23.071428"
       sodipodi:cy="23.142857"
       sodipodi:rx="22.142857"
       sodipodi:ry="22.142857"
       d="M 45.214285 23.142857 A 22.142857 22.142857 0 1 1  0.9285717,23.142857 A 22.142857 22.142857 0 1 1  45.214285 23.142857 z"
       transform="matrix(0.519355,0,0,0.519355,5.017742,4.980645)" />
    <path
       style="opacity:0.33146069;color:black;fill:url(#radialGradient5205);fill-opacity:1;fill-rule:evenodd;stroke:none;stroke-width:1;stroke-linecap:round;stroke-linejoin:round;marker:none;marker-start:none;marker-mid:none;marker-end:none;stroke-miterlimit:4;stroke-dasharray:none;stroke-dashoffset:0;stroke-opacity:1;visibility:visible;display:inline;overflow:visible"
       d="M 7.9143549,17.531729 C 7.9143549,17.531729 9.680965,18.361823 9.7022494,18.979072 C 9.7235339,19.596322 8.1271994,19.191917 7.9994927,20.000726 C 7.8717859,20.809536 8.1910528,22.193026 9.1914224,22.21431 C 10.191792,22.235595 10.447205,20.554122 12.000971,20.085864 C 13.554737,19.617606 14.725382,21.086234 15.406484,20.341278 C 16.087587,19.596322 14.618959,18.553383 14.725382,17.10604 C 14.831804,15.658697 15.087218,15.935395 15.832174,15.445852 C 16.57713,14.95631 16.855866,16.618971 17.705206,15.14787 C 18.525992,13.726227 15.981165,14.232638 16.087587,13.274837 C 16.194009,12.317037 16.832543,11.252814 18.130895,11.316667 C 19.429247,11.38052 21.280995,13.530251 21.280995,13.530251 C 22.105907,14.323915 21.307302,15.863982 21.706684,16.935764 C 22.175786,18.194647 23.466199,18.122537 24.345957,18.127694 C 24.345957,18.127694 23.047605,16.659066 23.239165,15.743835 C 23.430725,14.828603 24.175682,13.913371 25.112198,14.466767 C 26.048714,15.020163 26.98523,17.957418 26.98523,17.957418 L 27.666333,14.977594 L 26.21899,11.401805 C 26.21899,11.401805 24.154397,12.125477 21.87696,11.657218 C 19.599523,11.18896 19.365394,9.4223502 17.109241,9.5287725 C 14.853089,9.6351948 14.640244,11.891347 12.852349,12.082908 C 11.064455,12.274468 10.553628,11.295383 9.9576629,10.295013 C 9.3616981,9.2946435 10.46849,8.0814293 10.46849,8.0814293 L 6.2115981,13.870802 L 7.9143549,17.531729 z "
       id="path5152"
       sodipodi:nodetypes="cssssssszsscscsscccssssccc" />
    <path
       sodipodi:type="arc"
       style="opacity:0.80898874;color:black;fill:none;fill-opacity:1;fill-rule:evenodd;stroke:url(#radialGradient5144);stroke-width:2.10884404;stroke-linecap:butt;stroke-linejoin:round;marker:none;marker-start:none;marker-mid:none;marker-end:none;stroke-miterlimit:4;stroke-dasharray:none;stroke-dashoffset:0;stroke-opacity:1;visibility:visible;display:inline;overflow:visible"
       id="path2044"
       sodipodi:cx="23.071428"
       sodipodi:cy="23.142857"
       sodipodi:rx="22.142857"
       sodipodi:ry="22.142857"
       d="M 45.214285 23.142857 A 22.142857 22.142857 0 1 1  0.9285717,23.142857 A 22.142857 22.142857 0 1 1  45.214285 23.142857 z"
       transform="matrix(0.474193,0,0,0.474194,6.059678,6.025806)" />
    <path
       style="opacity:0.64606742;color:black;fill:url(#radialGradient5197);fill-opacity:1;fill-rule:evenodd;stroke:none;stroke-width:1;stroke-linecap:round;stroke-linejoin:round;marker:none;marker-start:none;marker-mid:none;marker-end:none;stroke-miterlimit:4;stroke-dasharray:none;stroke-dashoffset:0;stroke-opacity:1;visibility:visible;display:inline;overflow:visible"
       d="M 15.917311,18.893935 C 16.177585,19.976429 16.51509,20.672759 16.853828,21.362932 C 17.912621,21.266934 18.756427,20.740964 19.578238,20.171002 C 19.08583,21.19864 18.507606,22.169068 17.77485,23.036474 C 19.318206,23.63672 20.748925,23.504834 22.132373,23.065688 C 21.161601,23.878522 20.220692,24.505974 18.24097,24.697915 C 19.670065,25.129114 21.254017,25.62533 23.239165,25.023859 C 21.415934,26.077114 19.501302,26.874449 17.279517,26.811753 L 19.478493,26.780767 L 15.065933,26.982029 L 12.767212,26.55634 L 12.852349,25.534686 C 11.891104,25.64172 10.822517,25.104711 9.7873873,24.768445 C 10.717433,24.355952 11.716683,24.029964 12.341522,23.235964 C 11.132275,22.997868 10.555564,22.127236 9.7022494,21.533207 C 10.837417,21.703504 11.888436,22.378695 13.107763,22.044034 C 12.470747,20.284519 12.547096,18.525004 12.341522,16.765489 C 13.036911,18.26959 13.48957,19.773692 14.469968,21.277794 C 15.124015,20.783472 15.584012,19.949564 15.917311,18.893935 z "
       id="path5150"
       sodipodi:nodetypes="ccccccccccccccccccc" />
    <path
       sodipodi:type="arc"
       style="opacity:0.33146069;color:black;fill:#bbbbb8;fill-opacity:1;fill-rule:evenodd;stroke:#888984;stroke-width:1.6953398;stroke-linecap:round;stroke-linejoin:round;marker:none;marker-start:none;marker-mid:none;marker-end:none;stroke-miterlimit:4;stroke-dasharray:none;stroke-dashoffset:0;stroke-opacity:1;visibility:visible;display:inline;overflow:visible"
       id="path4263"
       sodipodi:cx="21.625"
       sodipodi:cy="34.5"
       sodipodi:rx="2.25"
       sodipodi:ry="2.25"
       d="M 23.875 34.5 A 2.25 2.25 0 1 1  19.375,34.5 A 2.25 2.25 0 1 1  23.875 34.5 z"
       transform="matrix(0.681103,0,0,0.510827,0.507363,6.477165)" />
    <path
       sodipodi:type="arc"
       style="opacity:0.71910113;color:black;fill:#b2afad;fill-opacity:1;fill-rule:evenodd;stroke:none;stroke-width:1;stroke-linecap:round;stroke-linejoin:round;marker:none;marker-start:none;marker-mid:none;marker-end:none;stroke-miterlimit:4;stroke-dasharray:none;stroke-dashoffset:0;stroke-opacity:1;visibility:visible;display:inline;overflow:visible"
       id="path5207"
       sodipodi:cx="22.375"
       sodipodi:cy="21.75"
       sodipodi:rx="2.625"
       sodipodi:ry="2.3125"
       d="M 25 21.75 A 2.625 2.3125 0 1 1  19.75,21.75 A 2.625 2.3125 0 1 1  25 21.75 z"
       transform="matrix(0.681103,0,0,0.681103,0.507363,0.504162)" />
    <path
       d="M 25 21.75 A 2.625 2.3125 0 1 1  19.75,21.75 A 2.625 2.3125 0 1 1  25 21.75 z"
       sodipodi:ry="2.3125"
       sodipodi:rx="2.625"
       sodipodi:cy="21.75"
       sodipodi:cx="22.375"
       id="path5209"
       style="opacity:0.71910113;color:black;fill:#b2afad;fill-opacity:1;fill-rule:evenodd;stroke:none;stroke-width:1;stroke-linecap:round;stroke-linejoin:round;marker:none;marker-start:none;marker-mid:none;marker-end:none;stroke-miterlimit:4;stroke-dasharray:none;stroke-dashoffset:0;stroke-opacity:1;visibility:visible;display:inline;overflow:visible"
       sodipodi:type="arc"
       transform="matrix(0.835161,0,0,0.835161,-6.366502,-6.523258)" />
    <path
       transform="matrix(0.722089,0.419621,-0.419621,0.722089,3.544898,-7.025047)"
       sodipodi:type="arc"
       style="opacity:0.71910113;color:black;fill:#b2afad;fill-opacity:1;fill-rule:evenodd;stroke:none;stroke-width:1;stroke-linecap:round;stroke-linejoin:round;marker:none;marker-start:none;marker-mid:none;marker-end:none;stroke-miterlimit:4;stroke-dasharray:none;stroke-dashoffset:0;stroke-opacity:1;visibility:visible;display:inline;overflow:visible"
       id="path5211"
       sodipodi:cx="22.375"
       sodipodi:cy="21.75"
       sodipodi:rx="2.625"
       sodipodi:ry="2.3125"
       d="M 25 21.75 A 2.625 2.3125 0 1 1  19.75,21.75 A 2.625 2.3125 0 1 1  25 21.75 z" />
    <path
       transform="matrix(0.271382,0.255663,-0.148125,0.264041,21.96376,4.827778)"
       sodipodi:type="arc"
       style="opacity:0.71910113;color:black;fill:#dfdedc;fill-opacity:1;fill-rule:evenodd;stroke:none;stroke-width:1;stroke-linecap:round;stroke-linejoin:round;marker:none;marker-start:none;marker-mid:none;marker-end:none;stroke-miterlimit:4;stroke-dasharray:none;stroke-dashoffset:0;stroke-opacity:1;visibility:visible;display:inline;overflow:visible"
       id="path5213"
       sodipodi:cx="22.375"
       sodipodi:cy="21.75"
       sodipodi:rx="2.625"
       sodipodi:ry="2.3125"
       d="M 25 21.75 A 2.625 2.3125 0 1 1  19.75,21.75 A 2.625 2.3125 0 1 1  25 21.75 z" />
    <path
       d="M 25 21.75 A 2.625 2.3125 0 1 1  19.75,21.75 A 2.625 2.3125 0 1 1  25 21.75 z"
       sodipodi:ry="2.3125"
       sodipodi:rx="2.625"
       sodipodi:cy="21.75"
       sodipodi:cx="22.375"
       id="path5215"
       style="opacity:0.71910113;color:black;fill:#dfdedc;fill-opacity:1;fill-rule:evenodd;stroke:none;stroke-width:1;stroke-linecap:round;stroke-linejoin:round;marker:none;marker-start:none;marker-mid:none;marker-end:none;stroke-miterlimit:4;stroke-dasharray:none;stroke-dashoffset:0;stroke-opacity:1;visibility:visible;display:inline;overflow:visible"
       sodipodi:type="arc"
       transform="matrix(-6.419104e-2,0.181728,-0.155791,-1.487712e-2,26.83941,20.5773)"
       inkscape:transform-center-y="1.0585631"
       inkscape:transform-center-x="1.3846811" />
    <path
       inkscape:transform-center-x="-0.41959329"
       inkscape:transform-center-y="1.7397052"
       transform="matrix(0.144038,0.135695,-7.861832e-2,0.140142,23.79998,8.333826)"
       sodipodi:type="arc"
       style="opacity:0.71910113;color:black;fill:#dfdedc;fill-opacity:1;fill-rule:evenodd;stroke:none;stroke-width:1;stroke-linecap:round;stroke-linejoin:round;marker:none;marker-start:none;marker-mid:none;marker-end:none;stroke-miterlimit:4;stroke-dasharray:none;stroke-dashoffset:0;stroke-opacity:1;visibility:visible;display:inline;overflow:visible"
       id="path5217"
       sodipodi:cx="22.375"
       sodipodi:cy="21.75"
       sodipodi:rx="2.625"
       sodipodi:ry="2.3125"
       d="M 25 21.75 A 2.625 2.3125 0 1 1  19.75,21.75 A 2.625 2.3125 0 1 1  25 21.75 z" />
    <path
       d="M 25 21.75 A 2.625 2.3125 0 1 1  19.75,21.75 A 2.625 2.3125 0 1 1  25 21.75 z"
       sodipodi:ry="2.3125"
       sodipodi:rx="2.625"
       sodipodi:cy="21.75"
       sodipodi:cx="22.375"
       id="path5219"
       style="opacity:0.71910113;color:black;fill:#f7f7f6;fill-opacity:1;fill-rule:evenodd;stroke:none;stroke-width:1;stroke-linecap:round;stroke-linejoin:round;marker:none;marker-start:none;marker-mid:none;marker-end:none;stroke-miterlimit:4;stroke-dasharray:none;stroke-dashoffset:0;stroke-opacity:1;visibility:visible;display:inline;overflow:visible"
       sodipodi:type="arc"
       transform="matrix(0.342047,-0.148378,0.184096,0.240348,2.320549,6.37671)" />
    <path
       transform="matrix(0.205508,-8.914817e-2,0.110608,0.144406,8.864895,6.385678)"
       sodipodi:type="arc"
       style="opacity:0.71910113;color:black;fill:#f7f7f6;fill-opacity:1;fill-rule:evenodd;stroke:none;stroke-width:1;stroke-linecap:round;stroke-linejoin:round;marker:none;marker-start:none;marker-mid:none;marker-end:none;stroke-miterlimit:4;stroke-dasharray:none;stroke-dashoffset:0;stroke-opacity:1;visibility:visible;display:inline;overflow:visible"
       id="path5221"
       sodipodi:cx="22.375"
       sodipodi:cy="21.75"
       sodipodi:rx="2.625"
       sodipodi:ry="2.3125"
       d="M 25 21.75 A 2.625 2.3125 0 1 1  19.75,21.75 A 2.625 2.3125 0 1 1  25 21.75 z"
       inkscape:transform-center-x="1.5191738" />
    <path
       inkscape:transform-center-x="1.0705599"
       d="M 25 21.75 A 2.625 2.3125 0 1 1  19.75,21.75 A 2.625 2.3125 0 1 1  25 21.75 z"
       sodipodi:ry="2.3125"
       sodipodi:rx="2.625"
       sodipodi:cy="21.75"
       sodipodi:cx="22.375"
       id="path5223"
       style="opacity:0.71910113;color:black;fill:#f7f7f6;fill-opacity:1;fill-rule:evenodd;stroke:none;stroke-width:1;stroke-linecap:round;stroke-linejoin:round;marker:none;marker-start:none;marker-mid:none;marker-end:none;stroke-miterlimit:4;stroke-dasharray:none;stroke-dashoffset:0;stroke-opacity:1;visibility:visible;display:inline;overflow:visible"
       sodipodi:type="arc"
       transform="matrix(0.144825,-6.2824e-2,7.794744e-2,0.101765,10.63635,7.98835)" />
  </g>
</svg>
