<?xml version="1.0" encoding="UTF-8" standalone="no"?>
<!-- Created with Inkscape (http://www.inkscape.org/) -->
<svg
   xmlns:dc="http://purl.org/dc/elements/1.1/"
   xmlns:cc="http://web.resource.org/cc/"
   xmlns:rdf="http://www.w3.org/1999/02/22-rdf-syntax-ns#"
   xmlns:svg="http://www.w3.org/2000/svg"
   xmlns="http://www.w3.org/2000/svg"
   xmlns:xlink="http://www.w3.org/1999/xlink"
   xmlns:sodipodi="http://sodipodi.sourceforge.net/DTD/sodipodi-0.dtd"
   xmlns:inkscape="http://www.inkscape.org/namespaces/inkscape"
   width="32"
   height="32"
   id="svg1306"
   sodipodi:version="0.32"
   inkscape:version="0.45"
   sodipodi:docbase="/home/dobey/Projects/gnome-icon-theme/32x32/status"
   sodipodi:docname="weather-few-clouds.svg"
   version="1.0"
   inkscape:output_extension="org.inkscape.output.svg.inkscape">
  <defs
     id="defs1308">
    <linearGradient
       id="linearGradient1994">
      <stop
         id="stop1997"
         offset="0"
         style="stop-color:white;stop-opacity:1" />
      <stop
         style="stop-color:white;stop-opacity:1;"
         offset="0.5"
         id="stop2001" />
      <stop
         id="stop1999"
         offset="1"
         style="stop-color:#d3d7cf;stop-opacity:1" />
    </linearGradient>
    <linearGradient
       inkscape:collect="always"
       id="linearGradient5150">
      <stop
         style="stop-color:white;stop-opacity:1;"
         offset="0"
         id="stop5152" />
      <stop
         style="stop-color:white;stop-opacity:0;"
         offset="1"
         id="stop5154" />
    </linearGradient>
    <linearGradient
       id="linearGradient5142">
      <stop
         style="stop-color:#f1ff74;stop-opacity:1;"
         offset="0"
         id="stop5144" />
      <stop
         style="stop-color:#ffc10f;stop-opacity:1;"
         offset="1"
         id="stop5146" />
    </linearGradient>
    <linearGradient
       id="linearGradient5134">
      <stop
         style="stop-color:#ffdf1a;stop-opacity:1;"
         offset="0"
         id="stop5136" />
      <stop
         style="stop-color:#fff9ce;stop-opacity:1;"
         offset="1"
         id="stop5138" />
    </linearGradient>
    <linearGradient
       inkscape:collect="always"
       id="linearGradient5125">
      <stop
         style="stop-color:#ffc10f;stop-opacity:1;"
         offset="0"
         id="stop5127" />
      <stop
         style="stop-color:#ffc10f;stop-opacity:0;"
         offset="1"
         id="stop5129" />
    </linearGradient>
    <linearGradient
       id="linearGradient5115">
      <stop
         style="stop-color:white;stop-opacity:0;"
         offset="0"
         id="stop5117" />
      <stop
         id="stop5123"
         offset="0.83783782"
         style="stop-color:#f6e97f;stop-opacity:0.35922331;" />
      <stop
         style="stop-color:#edd400;stop-opacity:1;"
         offset="1"
         id="stop5119" />
    </linearGradient>
    <linearGradient
       id="linearGradient5101">
      <stop
         style="stop-color:white;stop-opacity:1;"
         offset="0"
         id="stop5103" />
      <stop
         style="stop-color:#edd400;stop-opacity:0.1262136;"
         offset="1"
         id="stop5105" />
    </linearGradient>
    <radialGradient
       inkscape:collect="always"
       xlink:href="#linearGradient5101"
       id="radialGradient1906"
       gradientUnits="userSpaceOnUse"
       cx="23.142857"
       cy="24.285715"
       fx="23.142857"
       fy="24.285715"
       r="23.142857" />
    <radialGradient
       inkscape:collect="always"
       xlink:href="#linearGradient5115"
       id="radialGradient1908"
       gradientUnits="userSpaceOnUse"
       gradientTransform="matrix(1,0,0,1.01674,0,-0.39987)"
       cx="21.895287"
       cy="23.886944"
       fx="21.895287"
       fy="23.886944"
       r="23.398855" />
    <radialGradient
       inkscape:collect="always"
       xlink:href="#linearGradient5150"
       id="radialGradient1919"
       gradientUnits="userSpaceOnUse"
       gradientTransform="matrix(0,-0.888037,1.330147,-1.710941e-8,-19.55279,32.68571)"
       cx="25.245258"
       cy="25.618958"
       fx="25.245258"
       fy="25.618958"
       r="14.760339" />
    <radialGradient
       inkscape:collect="always"
       xlink:href="#linearGradient5142"
       id="radialGradient1925"
       gradientUnits="userSpaceOnUse"
       gradientTransform="matrix(1.421498,0,0,1.421498,-9.724552,-9.754659)"
       cx="23.071423"
       cy="30.798319"
       fx="23.071423"
       fy="30.798319"
       r="22.856438" />
    <linearGradient
       inkscape:collect="always"
       xlink:href="#linearGradient5134"
       id="linearGradient1927"
       gradientUnits="userSpaceOnUse"
       x1="20.908642"
       y1="52.221584"
       x2="15.422572"
       y2="-4.3302984" />
    <radialGradient
       inkscape:collect="always"
       xlink:href="#linearGradient5125"
       id="radialGradient1929"
       gradientUnits="userSpaceOnUse"
       cx="23.071428"
       cy="23.142857"
       fx="23.071428"
       fy="23.142857"
       r="22.825405" />
    <radialGradient
       inkscape:collect="always"
       xlink:href="#linearGradient1994"
       id="radialGradient2003"
       cx="19.160831"
       cy="10.574146"
       fx="19.160831"
       fy="10.574146"
       r="8.484375"
       gradientTransform="matrix(1.186004,-2.209896e-2,1.097582e-2,0.589216,-4.153381,5.817969)"
       gradientUnits="userSpaceOnUse" />
  </defs>
  <sodipodi:namedview
     id="base"
     pagecolor="#ffffff"
     bordercolor="#666"
     borderopacity="0.19215686"
     inkscape:pageopacity="0.0"
     inkscape:pageshadow="2"
     inkscape:zoom="1"
     inkscape:cx="38.140158"
     inkscape:cy="20.726207"
     inkscape:current-layer="layer1"
     showgrid="false"
     inkscape:grid-bbox="true"
     inkscape:document-units="px"
     inkscape:window-width="872"
     inkscape:window-height="622"
     inkscape:window-x="408"
     inkscape:window-y="204"
     inkscape:showpageshadow="false"
     showborder="true"
     width="32px"
     height="32px" />
  <metadata
     id="metadata1311">
    <rdf:RDF>
      <cc:Work
         rdf:about="">
        <dc:format>image/svg+xml</dc:format>
        <dc:type
           rdf:resource="http://purl.org/dc/dcmitype/StillImage" />
        <cc:license
           rdf:resource="http://creativecommons.org/licenses/GPL/2.0/" />
        <dc:title>Weather Few Clouds</dc:title>
        <dc:creator>
          <cc:Agent>
            <dc:title>Lapo Calamandrei</dc:title>
          </cc:Agent>
        </dc:creator>
      </cc:Work>
      <cc:License
         rdf:about="http://creativecommons.org/licenses/GPL/2.0/">
        <cc:permits
           rdf:resource="http://web.resource.org/cc/Reproduction" />
        <cc:permits
           rdf:resource="http://web.resource.org/cc/Distribution" />
        <cc:requires
           rdf:resource="http://web.resource.org/cc/Notice" />
        <cc:permits
           rdf:resource="http://web.resource.org/cc/DerivativeWorks" />
        <cc:requires
           rdf:resource="http://web.resource.org/cc/ShareAlike" />
        <cc:requires
           rdf:resource="http://web.resource.org/cc/SourceCode" />
      </cc:License>
    </rdf:RDF>
  </metadata>
  <g
     id="layer1"
     inkscape:label="Layer 1"
     inkscape:groupmode="layer">
    <path
       sodipodi:type="arc"
       style="color:black;fill:url(#radialGradient1906);fill-opacity:1;fill-rule:evenodd;stroke:none;stroke-width:1;stroke-linecap:round;stroke-linejoin:miter;marker:none;marker-start:none;marker-mid:none;marker-end:none;stroke-miterlimit:4;stroke-dasharray:none;stroke-dashoffset:0;stroke-opacity:1;visibility:visible;display:inline;overflow:visible"
       id="path4226"
       sodipodi:cx="23.142857"
       sodipodi:cy="24.285715"
       sodipodi:rx="23.142857"
       sodipodi:ry="23.142857"
       d="M 46.285713 24.285715 A 23.142857 23.142857 0 1 1  0,24.285715 A 23.142857 23.142857 0 1 1  46.285713 24.285715 z"
       transform="matrix(0.536293,0,0,0.536533,1.933947,2.620084)" />
    <path
       sodipodi:type="star"
       style="opacity:0.66292138;color:black;fill:url(#radialGradient1908);fill-opacity:1;fill-rule:evenodd;stroke:none;stroke-width:1;stroke-linecap:round;stroke-linejoin:miter;marker:none;marker-start:none;marker-mid:none;marker-end:none;stroke-miterlimit:4;stroke-dasharray:none;stroke-dashoffset:0;stroke-opacity:1;visibility:visible;display:inline;overflow:visible"
       id="path5113"
       sodipodi:sides="11"
       sodipodi:cx="23.511301"
       sodipodi:cy="23.074486"
       sodipodi:r1="25.152658"
       sodipodi:r2="12.137954"
       sodipodi:arg1="0.52359878"
       sodipodi:arg2="0.80919811"
       inkscape:flatsided="false"
       inkscape:rounded="0"
       inkscape:randomized="0"
       d="M 45.294142,35.650815 L 31.887448,31.859136 L 35.036916,45.43106 L 25.808424,34.993091 L 21.120389,48.113251 L 19.000079,34.342973 L 7.9629591,42.845811 L 13.624016,30.11519 L -0.25798184,31.301114 L 11.387095,23.652033 L -0.9323434,17.144522 L 12.999525,17.005509 L 6.1539794,4.8706506 L 17.949369,12.285842 L 18.751129,-1.6236314 L 24.665087,10.991494 L 32.8596,-0.27643573 L 31.014486,13.53341 L 44.000052,8.4845125 L 34.981677,19.10455 L 48.63547,21.877674 L 35.307105,25.936117 L 45.294142,35.650815 z "
       transform="matrix(0.530334,-0.180563,0.180481,0.530569,-2.135649,7.079087)" />
    <path
       sodipodi:type="arc"
       style="color:black;fill:url(#radialGradient1929);fill-opacity:1;fill-rule:evenodd;stroke:#ff9e1a;stroke-width:2.29648304;stroke-linecap:butt;stroke-linejoin:round;marker:none;marker-start:none;marker-mid:none;marker-end:none;stroke-miterlimit:4;stroke-dasharray:none;stroke-dashoffset:0;stroke-opacity:1;visibility:visible;display:inline;overflow:visible"
       id="path1314"
       sodipodi:cx="23.071428"
       sodipodi:cy="23.142857"
       sodipodi:rx="22.142857"
       sodipodi:ry="22.142857"
       d="M 45.214285 23.142857 A 22.142857 22.142857 0 1 1  0.9285717,23.142857 A 22.142857 22.142857 0 1 1  45.214285 23.142857 z"
       transform="matrix(0.435931,0,0,0.434965,4.466624,5.884783)" />
    <path
       sodipodi:type="arc"
       style="color:black;fill:url(#radialGradient1925);fill-opacity:1;fill-rule:evenodd;stroke:url(#linearGradient1927);stroke-width:2.59246516;stroke-linecap:butt;stroke-linejoin:round;marker:none;marker-start:none;marker-mid:none;marker-end:none;stroke-miterlimit:4;stroke-dasharray:none;stroke-dashoffset:0;stroke-opacity:1;visibility:visible;display:inline;overflow:visible"
       id="path2044"
       sodipodi:cx="23.071428"
       sodipodi:cy="23.142857"
       sodipodi:rx="22.142857"
       sodipodi:ry="22.142857"
       d="M 45.214285 23.142857 A 22.142857 22.142857 0 1 1  0.9285717,23.142857 A 22.142857 22.142857 0 1 1  45.214285 23.142857 z"
       transform="matrix(0.385641,0,0,0.385824,5.626885,7.025952)" />
    <path
       style="opacity:0.73033711;color:black;fill:url(#radialGradient1919);fill-opacity:1;fill-rule:evenodd;stroke:none;stroke-width:1;stroke-linecap:butt;stroke-linejoin:round;marker:none;marker-start:none;marker-mid:none;marker-end:none;stroke-miterlimit:4;stroke-dashoffset:0;stroke-opacity:1;visibility:visible;display:inline;overflow:visible"
       d="M 22.333319,13.98127 C 19.063235,11.44094 4.6569793,20.346917 6.9639233,13.309638 C 8.1524353,9.6841067 11.509409,7.7782428 14.321612,7.7127192 C 17.92481,7.6287656 21.243291,10.00119 22.333319,13.98127 z "
       id="path2046"
       sodipodi:nodetypes="cssc" />
    <g
       id="g3341"
       transform="matrix(1.234166,0,0,1.231434,-2.32672,6.274975)">
      <path
         id="path3252"
         d="M 21.5,8.5 C 20.402447,8.5 19.53125,9.3941846 19.53125,10.5 C 19.53125,10.627657 19.53981,10.753957 19.5625,10.875 C 19.095526,10.642848 18.556572,10.5 18,10.5 C 16.137671,10.5 14.6605,11.974462 14.5625,13.8125 C 14.256846,13.619442 13.887115,13.5 13.5,13.5 C 12.402447,13.5 11.53125,14.394185 11.53125,15.5 C 11.53125,16.605816 12.402447,17.5 13.5,17.5 C 14.323165,17.5 15.041774,17.00018 15.34375,16.28125 C 15.983645,17.025523 16.94222,17.46875 18,17.46875 C 18.738505,17.46875 19.435919,17.235802 20,16.84375 C 20.570218,17.250792 21.247148,17.5 22,17.5 C 22.971213,17.5 23.836098,17.080205 24.46875,16.4375 C 24.473276,16.432902 24.495499,16.442123 24.5,16.4375 C 24.654565,16.466937 24.805573,16.5 24.96875,16.5 C 26.359768,16.5 27.499999,15.379998 27.5,14 C 27.5,12.620002 26.359769,11.5 24.96875,11.5 C 24.805573,11.5 24.654565,11.533064 24.5,11.5625 C 24.495173,11.557538 24.473606,11.567434 24.46875,11.5625 C 24.17583,11.264886 23.851991,11.021342 23.46875,10.84375 C 23.487911,10.732153 23.5,10.617086 23.5,10.5 C 23.5,9.3941844 22.597553,8.4999999 21.5,8.5 z "
         style="fill:url(#radialGradient2003);fill-opacity:1;stroke:#729fcf;stroke-width:0.81116211;stroke-linecap:round;stroke-linejoin:miter;stroke-miterlimit:4;stroke-dasharray:none;stroke-dashoffset:1.20000057;stroke-opacity:1" />
      <path
         transform="translate(2,2)"
         d="M 19.5,7.53125 C 18.956951,7.53125 18.5625,7.930397 18.5625,8.5 C 18.5625,8.5820179 18.554938,8.6471583 18.5625,8.6875 C 18.63274,9.0697777 18.479844,9.45878 18.168108,9.6909236 C 17.856372,9.9230672 17.43987,9.9580845 17.09375,9.78125 C 16.757678,9.614175 16.381886,9.5312499 16,9.53125 C 14.676536,9.53125 13.664255,10.552641 13.59375,11.875 C 13.575204,12.236695 13.366439,12.561499 13.045116,12.728588 C 12.723792,12.895676 12.338,12.880042 12.03125,12.6875 C 11.879133,12.591419 11.677115,12.53125 11.5,12.53125 C 10.956951,12.53125 10.5625,12.930398 10.5625,13.5 C 10.5625,14.069604 10.956951,14.46875 11.5,14.46875 C 11.909899,14.46875 12.262795,14.216531 12.40625,13.875 C 12.547063,13.550447 12.845851,13.321917 13.195951,13.270993 C 13.546051,13.22007 13.897563,13.35401 14.125,13.625 C 14.566931,14.139018 15.22741,14.4375 16,14.4375 C 16.523817,14.4375 17.010372,14.275146 17.40625,14 C 17.761383,13.746146 18.238617,13.746146 18.59375,14 C 19.01337,14.29954 19.472445,14.46875 20,14.46875 C 20.677024,14.46875 21.287759,14.188336 21.75,13.71875 C 21.750084,13.718665 21.805851,13.68267 21.84375,13.65625 C 21.873826,13.633707 21.905123,13.612842 21.9375,13.59375 C 21.954512,13.581898 21.954101,13.572703 21.96875,13.5625 C 21.97894,13.551859 21.989359,13.54144 22,13.53125 C 22.018313,13.518346 22.062579,13.499964 22.0625,13.5 C 22.062294,13.500094 22.12952,13.487199 22.1875,13.46875 C 22.237108,13.453155 22.281022,13.437543 22.28125,13.4375 C 22.281379,13.437476 22.307157,13.438011 22.3125,13.4375 C 22.404345,13.414079 22.499004,13.403562 22.59375,13.40625 C 22.615895,13.409456 22.654547,13.437206 22.65625,13.4375 C 22.666666,13.437341 22.677084,13.437341 22.6875,13.4375 C 22.860029,13.470358 22.94348,13.46875 22.96875,13.46875 C 23.811757,13.46875 24.468749,12.817634 24.46875,12 C 24.46875,11.182366 23.811759,10.53125 22.96875,10.53125 C 22.943484,10.53125 22.860037,10.529641 22.6875,10.5625 C 22.684945,10.562979 22.626874,10.587871 22.5625,10.59375 C 22.527757,10.595663 22.438716,10.568591 22.375,10.5625 C 22.278767,10.555065 22.184075,10.534022 22.09375,10.5 C 22.073774,10.493433 22.03135,10.500047 22.03125,10.5 C 22.031063,10.499912 21.969911,10.451304 21.90625,10.40625 C 21.895609,10.39606 21.88519,10.385641 21.875,10.375 C 21.857132,10.362352 21.859423,10.354848 21.84375,10.34375 C 21.822024,10.323829 21.801171,10.302976 21.78125,10.28125 C 21.778604,10.279372 21.750021,10.281271 21.75,10.28125 C 21.525638,10.053293 21.290491,9.9013811 21.03125,9.78125 C 20.607611,9.5799595 20.375599,9.1159355 20.46875,8.65625 C 20.480224,8.5894236 20.46875,8.5468136 20.46875,8.5 C 20.46875,7.9496307 20.043049,7.53125 19.5,7.53125 z "
         id="path3299"
         style="fill:none;fill-opacity:1;stroke:white;stroke-width:0.81116211;stroke-linecap:round;stroke-linejoin:miter;stroke-miterlimit:4;stroke-dasharray:none;stroke-dashoffset:1.20000057;stroke-opacity:1"
         inkscape:original="M 19.5 6.5 C 18.402447 6.5 17.53125 7.3941846 17.53125 8.5 C 17.53125 8.6276566 17.53981 8.7539566 17.5625 8.875 C 17.095526 8.6428485 16.556572 8.4999999 16 8.5 C 14.137671 8.5 12.6605 9.974462 12.5625 11.8125 C 12.256846 11.619442 11.887115 11.5 11.5 11.5 C 10.402447 11.5 9.53125 12.394185 9.53125 13.5 C 9.53125 14.605816 10.402447 15.5 11.5 15.5 C 12.323165 15.5 13.041774 15.00018 13.34375 14.28125 C 13.983645 15.025523 14.94222 15.46875 16 15.46875 C 16.738505 15.46875 17.435919 15.235802 18 14.84375 C 18.570218 15.250792 19.247148 15.5 20 15.5 C 20.971213 15.5 21.836098 15.080205 22.46875 14.4375 C 22.473276 14.432902 22.495499 14.442123 22.5 14.4375 C 22.654565 14.466937 22.805573 14.5 22.96875 14.5 C 24.359768 14.5 25.499999 13.379998 25.5 12 C 25.5 10.620002 24.359769 9.5 22.96875 9.5 C 22.805573 9.5 22.654565 9.533064 22.5 9.5625 C 22.495173 9.557538 22.473606 9.567434 22.46875 9.5625 C 22.17583 9.264886 21.851991 9.021342 21.46875 8.84375 C 21.487911 8.7321531 21.5 8.6170864 21.5 8.5 C 21.5 7.3941844 20.597553 6.4999999 19.5 6.5 z "
         inkscape:radius="-1.0209262"
         sodipodi:type="inkscape:offset" />
    </g>
  </g>
</svg>
