<?xml version="1.0" encoding="UTF-8" standalone="no"?>
<!-- Created with Inkscape (http://www.inkscape.org/) -->
<svg
   xmlns:dc="http://purl.org/dc/elements/1.1/"
   xmlns:cc="http://web.resource.org/cc/"
   xmlns:rdf="http://www.w3.org/1999/02/22-rdf-syntax-ns#"
   xmlns:svg="http://www.w3.org/2000/svg"
   xmlns="http://www.w3.org/2000/svg"
   xmlns:xlink="http://www.w3.org/1999/xlink"
   xmlns:sodipodi="http://sodipodi.sourceforge.net/DTD/sodipodi-0.dtd"
   xmlns:inkscape="http://www.inkscape.org/namespaces/inkscape"
   width="48"
   height="48"
   id="svg2"
   sodipodi:version="0.32"
   inkscape:version="0.44+devel"
   version="1.0"
   sodipodi:docbase="/home/ulisse/icone/applications-graphics/scalable"
   sodipodi:docname="applications-graphics.svg"
   inkscape:export-filename="/home/lapo/Desktop/xubuntu/pngs/wksp.png"
   inkscape:export-xdpi="90"
   inkscape:export-ydpi="90"
   inkscape:output_extension="org.inkscape.output.svg.inkscape"
   sodipodi:modified="true">
  <sodipodi:namedview
     inkscape:window-height="808"
     inkscape:window-width="1051"
     inkscape:pageshadow="2"
     inkscape:pageopacity="0.0"
     guidetolerance="10.0"
     gridtolerance="10.0"
     objecttolerance="10.0"
     borderopacity="1"
     bordercolor="#c8c8c8"
     pagecolor="#ffffff"
     id="base"
     showgrid="false"
     gridspacingx="0.5px"
     gridspacingy="0.5px"
     gridempspacing="2"
     inkscape:showpageshadow="false"
     showborder="true"
     inkscape:zoom="1"
     inkscape:cx="37.373122"
     inkscape:cy="30.322935"
     inkscape:window-x="58"
     inkscape:window-y="62"
     inkscape:current-layer="layer1"
     inkscape:grid-points="true"
     showguides="true"
     inkscape:guide-bbox="true" />
  <defs
     id="defs4">
    <linearGradient
       inkscape:collect="always"
       id="linearGradient3836">
      <stop
         style="stop-color:#89660a;stop-opacity:1"
         offset="0"
         id="stop3838" />
      <stop
         style="stop-color:#634f1c;stop-opacity:1"
         offset="1"
         id="stop3840" />
    </linearGradient>
    <linearGradient
       inkscape:collect="always"
       id="linearGradient2911">
      <stop
         style="stop-color:#387004;stop-opacity:1;"
         offset="0"
         id="stop2913" />
      <stop
         style="stop-color:#2f5f03;stop-opacity:1"
         offset="1"
         id="stop2915" />
    </linearGradient>
    <linearGradient
       inkscape:collect="always"
       id="linearGradient2902">
      <stop
         style="stop-color:#4b2808;stop-opacity:1"
         offset="0"
         id="stop2904" />
      <stop
         style="stop-color:#6e410c;stop-opacity:1"
         offset="1"
         id="stop2906" />
    </linearGradient>
    <linearGradient
       inkscape:collect="always"
       id="linearGradient2892">
      <stop
         style="stop-color:black;stop-opacity:1;"
         offset="0"
         id="stop2894" />
      <stop
         style="stop-color:black;stop-opacity:0;"
         offset="1"
         id="stop2896" />
    </linearGradient>
    <linearGradient
       id="linearGradient2880"
       inkscape:collect="always">
      <stop
         id="stop2882"
         offset="0"
         style="stop-color:#265da3;stop-opacity:1" />
      <stop
         id="stop2884"
         offset="1"
         style="stop-color:#274168;stop-opacity:1" />
    </linearGradient>
    <linearGradient
       inkscape:collect="always"
       id="linearGradient2866">
      <stop
         style="stop-color:#a40000;stop-opacity:1;"
         offset="0"
         id="stop2868" />
      <stop
         style="stop-color:#7a0000;stop-opacity:1"
         offset="1"
         id="stop2870" />
    </linearGradient>
    <linearGradient
       id="linearGradient3243"
       inkscape:collect="always">
      <stop
         id="stop3245"
         offset="0"
         style="stop-color:#823c01;stop-opacity:1" />
      <stop
         id="stop3247"
         offset="1"
         style="stop-color:#dea962;stop-opacity:1" />
    </linearGradient>
    <linearGradient
       id="linearGradient3235"
       inkscape:collect="always">
      <stop
         id="stop3237"
         offset="0"
         style="stop-color:#eeeeec;stop-opacity:1" />
      <stop
         id="stop3239"
         offset="1"
         style="stop-color:#888a85;stop-opacity:1" />
    </linearGradient>
    <linearGradient
       inkscape:collect="always"
       id="linearGradient3201">
      <stop
         style="stop-color:#e7ce79;stop-opacity:1"
         offset="0"
         id="stop3203" />
      <stop
         style="stop-color:#d5b45c;stop-opacity:1"
         offset="1"
         id="stop3205" />
    </linearGradient>
    <linearGradient
       id="linearGradient3195"
       inkscape:collect="always">
      <stop
         id="stop3197"
         offset="0"
         style="stop-color:white;stop-opacity:1;" />
      <stop
         id="stop3199"
         offset="1"
         style="stop-color:white;stop-opacity:0.13307984" />
    </linearGradient>
    <linearGradient
       inkscape:collect="always"
       id="linearGradient3187">
      <stop
         style="stop-color:#555753;stop-opacity:1;"
         offset="0"
         id="stop3189" />
      <stop
         style="stop-color:#3a3c3a;stop-opacity:1"
         offset="1"
         id="stop3191" />
    </linearGradient>
    <linearGradient
       id="linearGradient3171"
       inkscape:collect="always">
      <stop
         id="stop3173"
         offset="0"
         style="stop-color:white;stop-opacity:1;" />
      <stop
         id="stop3175"
         offset="1"
         style="stop-color:white;stop-opacity:0.06844106" />
    </linearGradient>
    <linearGradient
       inkscape:collect="always"
       id="linearGradient3126">
      <stop
         style="stop-color:#2e3436;stop-opacity:1;"
         offset="0"
         id="stop3128" />
      <stop
         style="stop-color:#1f2324;stop-opacity:1"
         offset="1"
         id="stop3130" />
    </linearGradient>
    <linearGradient
       inkscape:collect="always"
       id="linearGradient3088">
      <stop
         style="stop-color:white;stop-opacity:1;"
         offset="0"
         id="stop3090" />
      <stop
         style="stop-color:white;stop-opacity:0.34600762"
         offset="1"
         id="stop3092" />
    </linearGradient>
    <linearGradient
       inkscape:collect="always"
       xlink:href="#linearGradient3088"
       id="linearGradient3094"
       x1="8.9359617"
       y1="6.6692243"
       x2="41.952717"
       y2="44.145351"
       gradientUnits="userSpaceOnUse" />
    <linearGradient
       inkscape:collect="always"
       xlink:href="#linearGradient3126"
       id="linearGradient3132"
       x1="12.365852"
       y1="43.021572"
       x2="11.757354"
       y2="40.193146"
       gradientUnits="userSpaceOnUse"
       gradientTransform="matrix(1,0,0,1.2675301,-3.307461e-3,-10.712714)" />
    <linearGradient
       inkscape:collect="always"
       xlink:href="#linearGradient3195"
       id="linearGradient3159"
       x1="28.058662"
       y1="18.046875"
       x2="25.171875"
       y2="30.99218"
       gradientUnits="userSpaceOnUse" />
    <linearGradient
       inkscape:collect="always"
       xlink:href="#linearGradient3171"
       id="linearGradient3169"
       x1="9.3437004"
       y1="38.811657"
       x2="10.730166"
       y2="45.596516"
       gradientUnits="userSpaceOnUse"
       gradientTransform="matrix(0.6424152,0,0,0.7146281,4.442492,10.928301)" />
    <linearGradient
       inkscape:collect="always"
       xlink:href="#linearGradient3171"
       id="linearGradient3185"
       x1="12.186543"
       y1="38.012455"
       x2="12.186543"
       y2="39.53223"
       gradientUnits="userSpaceOnUse" />
    <linearGradient
       inkscape:collect="always"
       xlink:href="#linearGradient3187"
       id="linearGradient3193"
       x1="19.112659"
       y1="30.327553"
       x2="20.710564"
       y2="34.702778"
       gradientUnits="userSpaceOnUse" />
    <linearGradient
       inkscape:collect="always"
       xlink:href="#linearGradient3201"
       id="linearGradient3207"
       x1="25.19816"
       y1="14.050618"
       x2="37.398602"
       y2="36.727089"
       gradientUnits="userSpaceOnUse"
       gradientTransform="matrix(1.001422,4.4388636e-3,-4.469115e-3,-0.9998159,5.626956e-2,49.80326)" />
    <linearGradient
       inkscape:collect="always"
       xlink:href="#linearGradient3235"
       id="linearGradient3233"
       gradientUnits="userSpaceOnUse"
       x1="19.385454"
       y1="29.341417"
       x2="21.658249"
       y2="31.464958" />
    <linearGradient
       inkscape:collect="always"
       xlink:href="#linearGradient3243"
       id="linearGradient3241"
       gradientUnits="userSpaceOnUse"
       x1="33.466816"
       y1="19.52313"
       x2="30.512564"
       y2="16.631281" />
    <radialGradient
       inkscape:collect="always"
       xlink:href="#linearGradient2866"
       id="radialGradient2872"
       cx="33.086685"
       cy="32.763634"
       fx="33.086685"
       fy="32.763634"
       r="5.0383151"
       gradientTransform="matrix(0.636942,0.6968413,0.5532571,-0.5101348,-6.0012019,25.28829)"
       gradientUnits="userSpaceOnUse" />
    <radialGradient
       inkscape:collect="always"
       xlink:href="#linearGradient2880"
       id="radialGradient2878"
       gradientUnits="userSpaceOnUse"
       gradientTransform="matrix(-0.6272497,0.6191702,-0.5448384,-0.4532755,77.437532,15.537651)"
       cx="33.194248"
       cy="35.942844"
       fx="33.194248"
       fy="35.942844"
       r="5.0383151" />
    <linearGradient
       inkscape:collect="always"
       xlink:href="#linearGradient2902"
       id="linearGradient2908"
       x1="30.512564"
       y1="23.61396"
       x2="27.297203"
       y2="16.100952"
       gradientUnits="userSpaceOnUse" />
    <radialGradient
       inkscape:collect="always"
       xlink:href="#linearGradient2911"
       id="radialGradient2917"
       cx="23.537704"
       cy="36.025131"
       fx="23.537704"
       fy="36.025131"
       r="4.2448119"
       gradientTransform="matrix(0.9411046,0,0,1.0601176,1.6779076,-2.6050744)"
       gradientUnits="userSpaceOnUse" />
    <radialGradient
       inkscape:collect="always"
       xlink:href="#linearGradient2892"
       id="radialGradient3832"
       gradientUnits="userSpaceOnUse"
       cx="6.5"
       cy="23.5"
       fx="6.5"
       fy="23.5"
       r="4.5" />
    <radialGradient
       inkscape:collect="always"
       xlink:href="#linearGradient2892"
       id="radialGradient3834"
       gradientUnits="userSpaceOnUse"
       cx="6.5"
       cy="23.5"
       fx="6.5"
       fy="23.5"
       r="4.5" />
    <linearGradient
       inkscape:collect="always"
       xlink:href="#linearGradient3836"
       id="linearGradient3842"
       x1="30.061739"
       y1="18.756514"
       x2="33.830387"
       y2="42.756512"
       gradientUnits="userSpaceOnUse"
       gradientTransform="matrix(1,0,0,-0.9939605,0,47.737281)" />
    <filter
       inkscape:collect="always"
       id="filter3249">
      <feGaussianBlur
         inkscape:collect="always"
         stdDeviation="0.255"
         id="feGaussianBlur3251" />
    </filter>
  </defs>
  <sodipodi:namedview
     id="namedview30"
     pagecolor="#ffffff"
     bordercolor="#666666"
     borderopacity="1.0"
     inkscape:pageopacity="0.0"
     inkscape:pageshadow="2"
     inkscape:zoom="1"
     inkscape:cx="10.097903"
     inkscape:cy="38.917761"
     inkscape:document-units="px"
     inkscape:current-layer="layer1"
     showgrid="false"
     gridempspacing="2"
     gridspacingx="0.5px"
     gridspacingy="0.5px"
     inkscape:window-width="965"
     inkscape:window-height="763"
     inkscape:window-x="176"
     inkscape:window-y="103"
     fill="#729fcf"
     stroke="#3465a4"
     inkscape:showpageshadow="false"
     showguides="false"
     inkscape:guide-bbox="true"
     inkscape:grid-points="true"
     inkscape:grid-bbox="false"
     showborder="true">
    <sodipodi:guide
       orientation="vertical"
       position="24.041631"
       id="guide2191" />
    <sodipodi:guide
       orientation="horizontal"
       position="25.986174"
       id="guide2203" />
  </sodipodi:namedview>
  <metadata
     id="metadata7">
    <rdf:RDF>
      <cc:Work
         rdf:about="">
        <dc:format>image/svg+xml</dc:format>
        <dc:type
           rdf:resource="http://purl.org/dc/dcmitype/StillImage" />
        <dc:creator>
          <cc:Agent>
            <dc:title>Ulisse Perusin</dc:title>
          </cc:Agent>
        </dc:creator>
        <dc:title>applications-graphics</dc:title>
        <dc:subject>
          <rdf:Bag />
        </dc:subject>
        <cc:license
           rdf:resource="http://creativecommons.org/licenses/GPL/2.0/" />
        <dc:contributor>
          <cc:Agent>
            <dc:title />
          </cc:Agent>
        </dc:contributor>
      </cc:Work>
      <cc:License
         rdf:about="http://creativecommons.org/licenses/GPL/2.0/">
        <cc:permits
           rdf:resource="http://web.resource.org/cc/Reproduction" />
        <cc:permits
           rdf:resource="http://web.resource.org/cc/Distribution" />
        <cc:requires
           rdf:resource="http://web.resource.org/cc/Notice" />
        <cc:permits
           rdf:resource="http://web.resource.org/cc/DerivativeWorks" />
        <cc:requires
           rdf:resource="http://web.resource.org/cc/ShareAlike" />
        <cc:requires
           rdf:resource="http://web.resource.org/cc/SourceCode" />
      </cc:License>
    </rdf:RDF>
  </metadata>
  <g
     inkscape:label="Livello 1"
     inkscape:groupmode="layer"
     id="layer1">
    <g
       id="g3828"
       transform="matrix(1,0,0,0.777778,-14,6.333305)"
       style="opacity:0.4">
      <path
         sodipodi:end="6.2831853"
         sodipodi:start="3.1415927"
         transform="matrix(0,-1,5.888889,0,-94.88889,53)"
         d="M 2,23.5 A 4.5,4.5 0 0 1 11,23.5 L 6.5,23.5 z"
         sodipodi:ry="4.5"
         sodipodi:rx="4.5"
         sodipodi:cy="23.5"
         sodipodi:cx="6.5"
         id="path3814"
         style="opacity:1;fill:url(#radialGradient3832);fill-opacity:1;fill-rule:evenodd;stroke:none;stroke-width:0.5;stroke-linecap:round;stroke-linejoin:round;stroke-miterlimit:4;stroke-dasharray:none;stroke-opacity:1"
         sodipodi:type="arc" />
      <path
         sodipodi:end="6.2831853"
         sodipodi:start="3.1415927"
         transform="matrix(0,-1,-3,0,114,53)"
         d="M 2,23.5 A 4.5,4.5 0 0 1 11,23.5 L 6.5,23.5 z"
         sodipodi:ry="4.5"
         sodipodi:rx="4.5"
         sodipodi:cy="23.5"
         sodipodi:cx="6.5"
         id="path3824"
         style="opacity:1;fill:url(#radialGradient3834);fill-opacity:1;fill-rule:evenodd;stroke:none;stroke-width:0.5;stroke-linecap:round;stroke-linejoin:round;stroke-miterlimit:4;stroke-dasharray:none;stroke-opacity:1"
         sodipodi:type="arc" />
    </g>
    <path
       style="opacity:1;fill:url(#linearGradient3207);fill-opacity:1;fill-rule:evenodd;stroke:url(#linearGradient3842);stroke-width:0.99999988;stroke-linecap:butt;stroke-linejoin:miter;stroke-miterlimit:4;stroke-dasharray:none;stroke-opacity:1"
       d="M 22.03125 4.5 C 16.164481 4.5769393 8.304703 6.5845978 8.4375 13.03125 C 8.5791607 19.90817 16.932526 17.194685 17.25 20.25 C 17.763103 25.188007 7.0762698 40.211023 23.3125 43.15625 C 34.151762 45.122476 45.655802 38.37184 44.5 24.75 C 43.460562 12.499581 33.3249 4.8118411 23.1875 4.5 C 22.81714 4.4886072 22.422368 4.4948707 22.03125 4.5 z M 19.5 8.5 C 22.26 8.5 24.5 10.068 24.5 12 C 24.500001 13.932 22.26 15.5 19.5 15.5 C 16.74 15.5 14.5 13.932 14.5 12 C 14.5 10.068 16.74 8.5 19.5 8.5 z "
       id="path2193" />
    <path
       sodipodi:type="inkscape:offset"
       inkscape:radius="-1.008471"
       inkscape:original="M 22.03125 4.5 C 16.164481 4.5769393 8.304703 6.5845978 8.4375 13.03125 C 8.5791607 19.90817 16.932526 17.194685 17.25 20.25 C 17.763103 25.188007 7.0762698 40.211023 23.3125 43.15625 C 34.151762 45.122476 45.655802 38.37184 44.5 24.75 C 43.460562 12.499581 33.3249 4.8118411 23.1875 4.5 C 22.81714 4.4886072 22.422368 4.4948707 22.03125 4.5 z M 19.5 8.5 C 22.26 8.5 24.5 10.068 24.5 12 C 24.500001 13.932 22.26 15.5 19.5 15.5 C 16.74 15.5 14.5 13.932 14.5 12 C 14.5 10.068 16.74 8.5 19.5 8.5 z "
       xlink:href="#path2193"
       style="opacity:0.78160915;fill:none;fill-opacity:1;fill-rule:evenodd;stroke:url(#linearGradient3094);stroke-width:1;stroke-linecap:butt;stroke-linejoin:miter;stroke-miterlimit:4;stroke-dasharray:none;stroke-opacity:1"
       id="path3086"
       inkscape:href="#path2193"
       d="M 22.03125,5.5 C 19.206967,5.5370388 15.908075,6.067596 13.4375,7.28125 C 10.966925,8.494904 9.379583,10.188412 9.4375,13 C 9.4686841,14.51383 9.9171658,15.328336 10.53125,15.90625 C 11.145334,16.484164 12.026923,16.830159 13.03125,17.09375 C 14.035577,17.357341 15.122804,17.513019 16.09375,17.84375 C 16.579223,18.009115 17.05483,18.223662 17.46875,18.59375 C 17.88267,18.963838 18.186029,19.540609 18.25,20.15625 C 18.420902,21.800979 17.771073,23.659601 17.09375,25.8125 C 16.416427,27.965399 15.64766,30.326114 15.375,32.5625 C 15.10234,34.798886 15.333788,36.842529 16.4375,38.46875 C 17.541212,40.094971 19.608207,41.450285 23.5,42.15625 C 28.658548,43.092003 33.948864,41.949108 37.78125,39 C 41.613636,36.050892 44.052884,31.35983 43.5,24.84375 C 42.50425,13.108216 32.805169,5.7968147 23.15625,5.5 C 22.819257,5.4896336 22.424235,5.4948462 22.03125,5.5 z M 19.5,7.5 C 21.070976,7.5 22.522716,7.9159014 23.625,8.6875 C 24.727284,9.4590986 25.5,10.644253 25.5,12 C 25.500001,13.355748 24.727284,14.540901 23.625,15.3125 C 22.522716,16.084099 21.070976,16.5 19.5,16.5 C 17.929024,16.5 16.477284,16.084099 15.375,15.3125 C 14.272716,14.540901 13.5,13.355747 13.5,12 C 13.5,10.644253 14.272716,9.4590986 15.375,8.6875 C 16.477284,7.9159014 17.929024,7.5 19.5,7.5 z "
       transform="translate(6.4033292e-2,2.46337e-2)" />
    <path
       style="opacity:0.64750959;fill:#000000;fill-opacity:1;fill-rule:evenodd;stroke:#000000;stroke-width:1px;stroke-linecap:butt;stroke-linejoin:miter;stroke-opacity:1;filter:url(#filter3249)"
       d="M 37.5,10 C 33.520409,22.433674 22.979241,33.399367 14.5,36"
       id="path3243"
       sodipodi:nodetypes="cc" />
    <g
       id="g3209"
       transform="translate(-0.996687,-3.140866)">
      <path
         sodipodi:nodetypes="cccc"
         id="path3096"
         d="M 26.496687,29.640866 C 29.899359,25.752098 35.71798,18.430918 41.496687,6.140866 C 41.763372,5.7526881 41.310956,5.4952441 40.996687,5.640866 C 29.07965,14.300341 23.432059,20.727036 20.496687,24.640866"
         style="fill:url(#linearGradient3241);fill-opacity:1;fill-rule:evenodd;stroke:url(#linearGradient2908);stroke-width:1px;stroke-linecap:butt;stroke-linejoin:round;stroke-opacity:1" />
      <path
         sodipodi:nodetypes="ccccc"
         id="path3098"
         d="M 20.496687,24.640866 L 26.496687,29.640866 C 25.138888,31.216122 19.452493,36.574575 15.496687,38.640866 L 13.496687,36.640866 C 14.996687,33.140866 18.036739,27.676987 20.496687,24.640866 z "
         style="fill:url(#linearGradient3233);fill-opacity:1;fill-rule:evenodd;stroke:url(#linearGradient3193);stroke-width:1px;stroke-linecap:butt;stroke-linejoin:miter;stroke-opacity:1" />
      <path
         sodipodi:nodetypes="cccc"
         id="path3150"
         d="M 39.641085,7.8260946 C 29.354517,15.9023 20.062458,23.767578 14.690199,36.472322 L 15.64252,37.43639 C 25.496351,31.091296 33.102652,20.80938 39.641085,7.8260946 z "
         style="opacity:0.348659;fill:none;fill-opacity:1;fill-rule:evenodd;stroke:url(#linearGradient3159);stroke-width:1;stroke-linecap:butt;stroke-linejoin:miter;stroke-miterlimit:4.80000019;stroke-opacity:1" />
      <path
         sodipodi:nodetypes="csssc"
         id="path3100"
         d="M 3.496687,43.674841 C 8.1901537,43.676654 7.7178356,38.782762 9.996687,37.282562 C 12.637456,35.544108 14.951669,37.698245 15.413697,39.471049 C 15.996687,41.707986 14.996687,44.166555 11.996687,45.149982 C 8.6330392,46.252617 3.8861599,45.625411 3.496687,43.674841 z "
         style="fill:url(#linearGradient3132);fill-opacity:1;fill-rule:evenodd;stroke:#000000;stroke-width:0.99999988;stroke-linecap:butt;stroke-linejoin:miter;stroke-miterlimit:4;stroke-opacity:1" />
      <path
         sodipodi:nodetypes="cscc"
         id="path3161"
         d="M 4.9966872,44.259746 C 7.0320451,44.234113 8.4325801,41.814821 8.962922,40.280698 C 10.562137,35.654639 15.377396,37.853762 14.496687,41.07358 C 13.448216,46.255097 8.0415149,44.267913 4.9966872,44.259746 z "
         style="opacity:0.2;fill:none;fill-opacity:1;fill-rule:evenodd;stroke:url(#linearGradient3169);stroke-width:1;stroke-linecap:butt;stroke-linejoin:miter;stroke-miterlimit:5;stroke-dasharray:none;stroke-opacity:1" />
      <path
         transform="matrix(2.6362041,0,0,2.180959,-20.129529,-45.280075)"
         d="M 13.324543 38.708176 A 1.138 0.91702908 0 1 1  11.048543,38.708176 A 1.138 0.91702908 0 1 1  13.324543 38.708176 z"
         sodipodi:ry="0.91702908"
         sodipodi:rx="1.138"
         sodipodi:cy="38.708176"
         sodipodi:cx="12.186543"
         id="path3177"
         style="opacity:0.5;fill:url(#linearGradient3185);fill-opacity:1;fill-rule:evenodd;stroke:none;stroke-width:1;stroke-linecap:butt;stroke-linejoin:miter;stroke-miterlimit:5;stroke-dasharray:none;stroke-opacity:0.06844105"
         sodipodi:type="arc" />
    </g>
    <path
       style="fill:url(#radialGradient2917);fill-opacity:1;fill-rule:evenodd;stroke:#283d14;stroke-width:0.99999982;stroke-linecap:butt;stroke-linejoin:round;stroke-miterlimit:5;stroke-opacity:1"
       d="M 27.824405,38.496498 C 26.843366,39.089334 27.895931,39.770346 28.369354,40.167078 C 28.744822,40.481722 28.180957,42.00241 27.508539,41.330386 C 26.733629,40.555928 26.2347,39.478498 25.930767,39.450885 C 24.183843,39.292163 25.528898,41.598656 24.123134,41.091388 C 23.281926,40.787838 24.328561,39.513549 23.205241,39.122462 C 22.312835,38.811766 22.401497,39.766519 21.885481,39.301308 C 19.456205,37.1112 20.733093,35.20872 21.857329,33.722957 C 22.981581,32.23717 25.202522,32.077841 26.849436,33.395339 C 28.496348,34.712837 28.933134,36.998157 27.824405,38.496498 z "
       id="path1937"
       sodipodi:nodetypes="cssssssssc" />
    <path
       style="opacity:0.6;fill:none;fill-rule:evenodd;stroke:#eeeeec;stroke-width:1;stroke-linecap:round;stroke-linejoin:miter;stroke-miterlimit:4;stroke-dasharray:none;stroke-opacity:1"
       d="M 21.5,36.5 C 21.835414,35.218555 22.55031,33.560138 24.5,33.5"
       id="path2836"
       sodipodi:nodetypes="cc" />
    <path
       style="fill:url(#radialGradient2872);fill-opacity:1;fill-rule:evenodd;stroke:#4a0c0c;stroke-width:1;stroke-linecap:butt;stroke-linejoin:round;stroke-miterlimit:5;stroke-opacity:1"
       d="M 35.474535,34.483528 C 36.369083,34.483528 37.870365,34.634524 38.265451,35.099165 C 39.189278,36.185632 40.008953,34.756527 39.30616,34.139572 C 38.496243,33.428577 37.419779,33.019366 37.366902,32.717334 C 37.062977,30.981339 39.391454,32.134717 38.782944,30.769593 C 38.418813,29.952703 37.28783,31.107681 36.815256,30.015639 C 36.439827,29.148081 37.363024,29.156758 36.87212,28.679069 C 34.561071,26.430225 32.847726,27.868477 31.520702,29.118906 C 30.193658,30.369351 30.233783,32.606693 31.64015,34.145318 C 32.217737,34.777222 32.501554,36.296156 33.238166,36.478821 C 34.295133,36.740926 33.221952,34.483528 35.474535,34.483528 z "
       id="path2852"
       sodipodi:nodetypes="cssssssssss" />
    <path
       style="opacity:0.6;fill:none;fill-rule:evenodd;stroke:#eeeeec;stroke-width:1;stroke-linecap:round;stroke-linejoin:miter;stroke-miterlimit:4;stroke-dasharray:none;stroke-opacity:1"
       d="M 34.5,28.5 C 33.212019,28.596452 32.137394,29.708922 31.700755,30.62414"
       id="path2854"
       sodipodi:nodetypes="cs"
       inkscape:transform-center-x="0.5204525"
       inkscape:transform-center-y="-1.9959469" />
    <path
       style="fill:url(#radialGradient2878);fill-opacity:1;fill-rule:evenodd;stroke:#132949;stroke-width:1;stroke-linecap:butt;stroke-linejoin:round;stroke-miterlimit:5;stroke-opacity:1"
       d="M 37.020609,23.500481 C 36.139674,23.500481 35.963242,24.108432 35.548119,24.500087 C 35.218887,24.810704 33.831149,24.195639 34.523247,23.647451 C 35.32084,23.015707 35.496046,22.269439 35.548119,22.001071 C 35.84742,20.458572 32.892058,21.208472 33.5,20 C 33.942679,19.120033 35.552495,19.957869 35.548119,19.502056 C 35.541371,18.799225 35.128019,17.737432 36.008764,17.56379 C 37.861929,17.198433 39.995178,18.475962 41,19.5 C 41.960731,20.479104 41.427845,22.191241 40.859805,23.407468 C 40.512739,24.150569 39.717463,25.66294 38.795277,25.480876 C 37.748856,25.274285 39.238914,23.500481 37.020609,23.500481 z "
       id="path2876"
       sodipodi:nodetypes="cssssssssss" />
    <path
       style="opacity:0.6;fill:none;fill-rule:evenodd;stroke:#eeeeec;stroke-width:1;stroke-linecap:round;stroke-linejoin:miter;stroke-miterlimit:4;stroke-dasharray:none;stroke-opacity:1"
       d="M 38.5,19 C 36.736543,18.177541 36.167257,18.536971 36.5,19.5"
       id="path2886"
       sodipodi:nodetypes="cc"
       inkscape:transform-center-x="0.5204525"
       inkscape:transform-center-y="-1.9959469" />
  </g>
</svg>
