<?xml version="1.0" encoding="UTF-8" standalone="no"?>
<!-- Created with Inkscape (http://www.inkscape.org/) -->
<svg
   xmlns:dc="http://purl.org/dc/elements/1.1/"
   xmlns:cc="http://web.resource.org/cc/"
   xmlns:rdf="http://www.w3.org/1999/02/22-rdf-syntax-ns#"
   xmlns:svg="http://www.w3.org/2000/svg"
   xmlns="http://www.w3.org/2000/svg"
   xmlns:xlink="http://www.w3.org/1999/xlink"
   xmlns:sodipodi="http://sodipodi.sourceforge.net/DTD/sodipodi-0.dtd"
   xmlns:inkscape="http://www.inkscape.org/namespaces/inkscape"
   width="48"
   height="48"
   id="svg2"
   sodipodi:version="0.32"
   inkscape:version="0.45"
   sodipodi:docbase="/home/dobey/Projects/gnome-icon-theme/scalable/categories"
   sodipodi:docname="preferences-desktop-peripherals.svg"
   version="1.0"
   inkscape:output_extension="org.inkscape.output.svg.inkscape"
   inkscape:export-filename="/home/needcoffee/Desktop/grafiktablet48.png"
   inkscape:export-xdpi="90"
   inkscape:export-ydpi="90">
  <defs
     id="defs4">
    <linearGradient
       inkscape:collect="always"
       id="linearGradient7148">
      <stop
         style="stop-color:#000000;stop-opacity:1;"
         offset="0"
         id="stop7150" />
      <stop
         style="stop-color:#000000;stop-opacity:0;"
         offset="1"
         id="stop7152" />
    </linearGradient>
    <radialGradient
       inkscape:collect="always"
       xlink:href="#linearGradient7148"
       id="radialGradient6062"
       gradientUnits="userSpaceOnUse"
       gradientTransform="matrix(1,0,0,0.414966,0,23.767007)"
       cx="24"
       cy="40.625"
       fx="24"
       fy="40.625"
       r="18.375" />
    <linearGradient
       id="linearGradient2303">
      <stop
         style="stop-color:#ffffff"
         offset="0"
         id="stop2305" />
      <stop
         id="stop4891"
         offset="0.67346936"
         style="stop-color:#dedfdc;stop-opacity:1;" />
      <stop
         style="stop-color:#babdb6"
         offset="1"
         id="stop2307" />
    </linearGradient>
    <radialGradient
       inkscape:collect="always"
       xlink:href="#linearGradient2303"
       id="radialGradient7167"
       gradientUnits="userSpaceOnUse"
       gradientTransform="matrix(0.7120638,0,0,0.4816147,-6.1534113,20.106428)"
       cx="21.82951"
       cy="28.964069"
       fx="21.82951"
       fy="28.964069"
       r="16.803993" />
    <linearGradient
       inkscape:collect="always"
       id="linearGradient6967">
      <stop
         style="stop-color:#ffffff;stop-opacity:1;"
         offset="0"
         id="stop6969" />
      <stop
         style="stop-color:#ffffff;stop-opacity:0;"
         offset="1"
         id="stop6971" />
    </linearGradient>
    <radialGradient
       inkscape:collect="always"
       xlink:href="#linearGradient6967"
       id="radialGradient7172"
       gradientUnits="userSpaceOnUse"
       gradientTransform="matrix(2.6078767,0,0,1.9794136,-20.682145,-42.26866)"
       cx="12.863017"
       cy="41.15139"
       fx="12.863017"
       fy="41.15139"
       r="15.727942" />
    <linearGradient
       id="linearGradient7246">
      <stop
         style="stop-color:#ffffff;stop-opacity:1;"
         offset="0"
         id="stop7248" />
      <stop
         style="stop-color:#729fcf;stop-opacity:1"
         offset="1"
         id="stop7250" />
    </linearGradient>
    <linearGradient
       inkscape:collect="always"
       xlink:href="#linearGradient7246"
       id="linearGradient7252"
       x1="23.549852"
       y1="11.71743"
       x2="23.549852"
       y2="13.085086"
       gradientUnits="userSpaceOnUse" />
    <linearGradient
       id="linearGradient5717">
      <stop
         style="stop-color:#ffffff;stop-opacity:1;"
         offset="0"
         id="stop5719" />
      <stop
         style="stop-color:#d3d7cf;stop-opacity:1;"
         offset="1"
         id="stop5721" />
    </linearGradient>
    <linearGradient
       id="linearGradient49731">
      <stop
         style="stop-color:#888a85;stop-opacity:0;"
         offset="0"
         id="stop49733" />
      <stop
         id="stop51687"
         offset="1"
         style="stop-color:#888a85;stop-opacity:1;" />
      <stop
         style="stop-color:#888a85;stop-opacity:1;"
         offset="1"
         id="stop49735" />
    </linearGradient>
    <linearGradient
       id="linearGradient23236">
      <stop
         style="stop-color:#ffffff;stop-opacity:1;"
         offset="0"
         id="stop23238" />
      <stop
         style="stop-color:#babdb6;stop-opacity:1;"
         offset="1"
         id="stop23240" />
    </linearGradient>
    <linearGradient
       id="linearGradient16397">
      <stop
         style="stop-color:#888a85;stop-opacity:1;"
         offset="0"
         id="stop16399" />
      <stop
         style="stop-color:#4a4b48;stop-opacity:1;"
         offset="1"
         id="stop16401" />
    </linearGradient>
    <linearGradient
       id="linearGradient9508">
      <stop
         style="stop-color:#2e3436;stop-opacity:0.58152175;"
         offset="0"
         id="stop9510" />
      <stop
         style="stop-color:#2e3436;stop-opacity:0;"
         offset="1"
         id="stop9512" />
    </linearGradient>
    <linearGradient
       id="linearGradient4625">
      <stop
         style="stop-color:#eeeeec;stop-opacity:1;"
         offset="0"
         id="stop4627" />
      <stop
         style="stop-color:#888a85;stop-opacity:1;"
         offset="1"
         id="stop4629" />
    </linearGradient>
    <linearGradient
       id="linearGradient3648">
      <stop
         style="stop-color:#eeeeec;stop-opacity:1;"
         offset="0"
         id="stop3650" />
      <stop
         id="stop26236"
         offset="0.79710144"
         style="stop-color:#abaca9;stop-opacity:1;" />
      <stop
         style="stop-color:#d3d7cf;stop-opacity:1;"
         offset="1"
         id="stop3652" />
    </linearGradient>
    <filter
       inkscape:collect="always"
       x="-0.066309785"
       width="1.1326196"
       y="-0.16209375"
       height="1.3241875"
       id="filter5658">
      <feGaussianBlur
         inkscape:collect="always"
         stdDeviation="1.3985314"
         id="feGaussianBlur5660" />
    </filter>
    <linearGradient
       inkscape:collect="always"
       xlink:href="#linearGradient23236"
       id="linearGradient6007"
       gradientUnits="userSpaceOnUse"
       gradientTransform="matrix(1.0206415,0,0,0.8416288,0.4990254,7.9398705)"
       x1="2.4415672"
       y1="37.205902"
       x2="2.4415672"
       y2="43" />
    <radialGradient
       inkscape:collect="always"
       xlink:href="#linearGradient5717"
       id="radialGradient6009"
       gradientUnits="userSpaceOnUse"
       gradientTransform="matrix(2.4615467,-1.0699271,0.7998114,1.8528198,-21.204988,5.9018902)"
       cx="7.6711912"
       cy="15.00725"
       fx="7.6711912"
       fy="15.00725"
       r="19.769346" />
    <linearGradient
       inkscape:collect="always"
       xlink:href="#linearGradient9508"
       id="linearGradient6011"
       gradientUnits="userSpaceOnUse"
       gradientTransform="matrix(0.9557953,0,0.3203373,-0.7915548,-8.926721,48.1877)"
       x1="26.32226"
       y1="19.01865"
       x2="49.73465"
       y2="3.5158892" />
    <linearGradient
       inkscape:collect="always"
       xlink:href="#linearGradient4625"
       id="linearGradient6013"
       gradientUnits="userSpaceOnUse"
       gradientTransform="matrix(0.4305409,-0.5319753,0.4931292,0.4644567,18.912037,27.929845)"
       x1="1.5"
       y1="4.2648559"
       x2="1.5"
       y2="8" />
    <linearGradient
       inkscape:collect="always"
       xlink:href="#linearGradient16397"
       id="linearGradient6015"
       gradientUnits="userSpaceOnUse"
       gradientTransform="matrix(0.4305409,-0.5319753,0.4931292,0.4644567,18.912037,27.929845)"
       x1="46.5"
       y1="4"
       x2="46.5"
       y2="8" />
    <linearGradient
       inkscape:collect="always"
       xlink:href="#linearGradient3648"
       id="linearGradient6017"
       gradientUnits="userSpaceOnUse"
       gradientTransform="matrix(0.4305409,-0.5319753,0.4931292,0.4644567,18.912037,27.929845)"
       x1="24"
       y1="3.5"
       x2="24"
       y2="8.5" />
    <linearGradient
       inkscape:collect="always"
       xlink:href="#linearGradient16397"
       id="linearGradient6019"
       gradientUnits="userSpaceOnUse"
       gradientTransform="matrix(0.4305409,-0.5319753,0.4931292,0.4644567,18.912037,27.929845)"
       x1="6.5"
       y1="3"
       x2="6.5"
       y2="9" />
    <radialGradient
       inkscape:collect="always"
       xlink:href="#linearGradient23236"
       id="radialGradient6021"
       gradientUnits="userSpaceOnUse"
       gradientTransform="matrix(9.0783702,-4.3797969,0.7439951,1.45288,-269.26407,125.68742)"
       cx="31.332088"
       cy="19.154226"
       fx="31.332088"
       fy="19.154226"
       r="4.7440769" />
    <radialGradient
       inkscape:collect="always"
       xlink:href="#linearGradient49731"
       id="radialGradient7217"
       gradientUnits="userSpaceOnUse"
       gradientTransform="matrix(0.113791,0.6773045,-0.4679608,4.7182104e-3,14.144529,6.6142105)"
       cx="6.5998492"
       cy="1.8850985"
       fx="6.5998492"
       fy="1.8850985"
       r="11.58128" />
  </defs>
  <sodipodi:namedview
     id="base"
     pagecolor="#ffffff"
     bordercolor="#666666"
     borderopacity="1.0"
     inkscape:pageopacity="0.0"
     inkscape:pageshadow="2"
     inkscape:zoom="1"
     inkscape:cx="23.805494"
     inkscape:cy="32.748685"
     inkscape:document-units="px"
     inkscape:current-layer="layer1"
     inkscape:window-width="872"
     inkscape:window-height="902"
     inkscape:window-x="400"
     inkscape:window-y="130"
     inkscape:showpageshadow="false"
     width="48px"
     height="48px"
     showgrid="false"
     inkscape:grid-points="true"
     gridtolerance="1.4"
     gridspacingx="0.5px"
     gridspacingy="0.5px"
     gridempspacing="2"
     showborder="false" />
  <metadata
     id="metadata7">
    <rdf:RDF>
      <cc:Work
         rdf:about="">
        <dc:format>image/svg+xml</dc:format>
        <dc:type
           rdf:resource="http://purl.org/dc/dcmitype/StillImage" />
        <dc:title>Graphic tablet</dc:title>
        <cc:license
           rdf:resource="http://creativecommons.org/licenses/GPL/2.0/" />
        <dc:creator>
          <cc:Agent>
            <dc:title>Sebastien Kraft</dc:title>
          </cc:Agent>
        </dc:creator>
        <dc:subject>
          <rdf:Bag>
            <rdf:li>tablet</rdf:li>
            <rdf:li>pen</rdf:li>
            <rdf:li>input</rdf:li>
            <rdf:li>stylus</rdf:li>
          </rdf:Bag>
        </dc:subject>
      </cc:Work>
      <cc:License
         rdf:about="http://creativecommons.org/licenses/GPL/2.0/">
        <cc:permits
           rdf:resource="http://web.resource.org/cc/Reproduction" />
        <cc:permits
           rdf:resource="http://web.resource.org/cc/Distribution" />
        <cc:requires
           rdf:resource="http://web.resource.org/cc/Notice" />
        <cc:permits
           rdf:resource="http://web.resource.org/cc/DerivativeWorks" />
        <cc:requires
           rdf:resource="http://web.resource.org/cc/ShareAlike" />
        <cc:requires
           rdf:resource="http://web.resource.org/cc/SourceCode" />
      </cc:License>
    </rdf:RDF>
  </metadata>
  <g
     inkscape:label="Ebene 1"
     inkscape:groupmode="layer"
     id="layer1">
    <g
       id="g5984"
       transform="matrix(0.8320229,0,0,0.7917613,7.8644417,-1.7276995)">
      <path
         sodipodi:nodetypes="cscc"
         id="path46799"
         d="M 13.91719,11.500001 C 11.738325,13.671032 28.288808,15.425275 29.441611,16.927577 C 32.396831,20.778743 13.808426,19.231703 10.240354,21.196732 C 5.5555129,23.067939 16.91313,22.897913 16.913132,26.522237"
         style="fill:none;fill-rule:evenodd;stroke:url(#radialGradient7217);stroke-width:1.23206937px;stroke-linecap:round;stroke-linejoin:round;stroke-opacity:1" />
      <path
         sodipodi:nodetypes="ccccccccc"
         id="path8537"
         d="M 12.19393,28.500083 L 38.34636,28.500083 C 38.34636,28.500083 39.190322,28.471214 39.657664,29.48902 C 39.657664,29.48902 45.712165,43.506932 46.067164,44.310111 C 46.403002,45.069941 45.212186,45.755834 44.150175,45.755834 L 5.9180739,45.755834 C 4.8560623,45.755834 3.6652479,45.069941 4.0010855,44.310111 C 4.3560832,43.506932 10.882627,29.48902 10.882627,29.48902 C 11.194189,28.588698 12.19393,28.500083 12.19393,28.500083 z "
         style="opacity:0.27058824;fill:#000000;fill-opacity:1;stroke:none;stroke-width:1;stroke-linecap:round;stroke-linejoin:round;stroke-miterlimit:4;stroke-dasharray:none;stroke-dashoffset:0;stroke-opacity:1;filter:url(#filter5658)" />
      <path
         sodipodi:nodetypes="ccccccccc"
         id="rect2676"
         d="M 12.448317,25.50009 L 37.030206,25.50009 C 37.030206,25.50009 37.823486,25.470418 38.262762,26.516464 C 38.262762,26.516464 44.055001,41.756232 44.386612,42.576578 C 44.700323,43.352646 43.587961,44.053197 42.595917,44.053197 L 6.8826065,44.053197 C 5.8905618,44.053197 4.7782002,43.352646 5.0919123,42.576578 C 5.4235223,41.756232 11.215761,26.516464 11.215761,26.516464 C 11.508612,25.591162 12.448317,25.50009 12.448317,25.50009 z "
         style="fill:url(#linearGradient6007);fill-opacity:1;stroke:none;stroke-width:1;stroke-linecap:round;stroke-linejoin:round;stroke-miterlimit:4;stroke-dasharray:none;stroke-dashoffset:0;stroke-opacity:1" />
      <path
         style="opacity:0.5;fill:url(#radialGradient6009);fill-opacity:1;stroke:none;stroke-width:1;stroke-linecap:round;stroke-linejoin:round;stroke-miterlimit:4;stroke-dasharray:none;stroke-dashoffset:0;stroke-opacity:1"
         d="M 12.448317,25.50009 L 37.030206,25.50009 C 37.030206,25.50009 37.823486,25.470418 38.262762,26.516464 C 38.262762,26.516464 44.055001,41.756232 44.386612,42.576578 C 44.700323,43.352646 43.587961,44.053197 42.595917,44.053197 L 6.8826065,44.053197 C 5.8905618,44.053197 4.7782002,43.352646 5.0919123,42.576578 C 5.4235223,41.756232 11.215761,26.516464 11.215761,26.516464 C 11.508612,25.591162 12.448317,25.50009 12.448317,25.50009 z "
         id="path4736"
         sodipodi:nodetypes="ccccccccc" />
      <path
         style="fill:none;fill-opacity:1;stroke:#ffffff;stroke-width:1.4784832;stroke-linecap:round;stroke-linejoin:round;stroke-miterlimit:4;stroke-dasharray:none;stroke-dashoffset:0;stroke-opacity:1"
         d="M 13.094744,26.000084 L 36.383778,26.000084 C 36.383778,26.000084 37.135337,25.972453 37.551509,26.94657 C 37.551509,26.94657 42.933566,41.674245 43.245923,42.433775 C 43.245923,42.433775 43.930498,43.500008 42.396914,43.500008 L 7.5172511,43.500008 C 5.3289587,43.500008 6.2325987,42.433775 6.2325987,42.433775 C 6.5449562,41.674245 11.927013,26.94657 11.927013,26.94657 C 12.204462,26.084894 13.094744,26.000084 13.094744,26.000084 z "
         id="path5604"
         sodipodi:nodetypes="ccccccccc" />
      <path
         style="fill:none;fill-opacity:1;stroke:#555753;stroke-width:1.28135204;stroke-linecap:round;stroke-linejoin:round;stroke-miterlimit:4;stroke-dasharray:none;stroke-dashoffset:0;stroke-opacity:1"
         d="M 12.50006,25.520005 L 36.915824,25.520005 C 36.915824,25.520005 37.823486,25.724022 38.262762,26.755792 C 38.262762,26.755792 44.055001,41.787582 44.386612,42.596733 C 44.700323,43.36221 43.887239,44.500008 42.895195,44.500008 L 6.5206893,44.500008 C 5.5286448,44.500008 4.7782001,43.36221 5.0919123,42.596733 C 5.4235223,41.787582 11.215761,26.755792 11.215761,26.755792 C 11.508612,25.843118 12.50006,25.520005 12.50006,25.520005 z "
         id="path7556"
         sodipodi:nodetypes="ccccccccc" />
      <path
         sodipodi:nodetypes="ccssccscc"
         id="path41909"
         d="M 14.493184,28.055419 L 34.42442,28.055419 C 34.42442,28.055419 35.033532,28.040596 35.367676,28.700253 C 35.367675,28.700252 38.979365,38.039641 39.223628,38.540596 C 39.454709,39.014516 38.630464,39.445655 37.899724,39.445655 L 11.587102,39.445655 C 10.856361,39.445655 10.032115,39.014516 10.263196,38.540596 C 10.50746,38.039641 13.549927,28.700253 13.549927,28.700253 C 13.772689,28.116739 14.493184,28.055419 14.493184,28.055419 z "
         style="fill:none;fill-opacity:1;stroke:#888a85;stroke-width:0.98565555;stroke-linecap:round;stroke-linejoin:round;stroke-miterlimit:4;stroke-dasharray:none;stroke-dashoffset:0;stroke-opacity:1" />
      <path
         id="path23244"
         d="M 22.324354,33.133396 L 23.625318,34.852059 L 24.049546,35.377207 L 31.176567,39.244199 L 32.505814,39.626124 L 38.642971,42.681525 L 42.772119,42.681525 C 42.969129,42.515043 43.098578,42.323054 43.139782,42.108637 L 36.210734,38.647441 L 35.645097,38.074553 L 27.697903,34.422394 L 26.425219,34.11208 L 22.324354,33.133396 z "
         style="opacity:0.2;fill:url(#linearGradient6011);fill-opacity:1;stroke:none;stroke-width:0.8599999;stroke-linecap:butt;stroke-linejoin:miter;stroke-miterlimit:1;stroke-dasharray:none;stroke-dashoffset:0;stroke-opacity:1" />
      <g
         transform="matrix(1.1396241,0,0,1.1157384,-2.2076279,-0.6365627)"
         id="g2764">
        <path
           style="fill:#888a85;fill-opacity:1;stroke:none;stroke-width:1;stroke-linecap:round;stroke-linejoin:round;stroke-miterlimit:4;stroke-dashoffset:0;stroke-opacity:1"
           d="M 40.070139,6.6188883 L 40.510236,6.0751053 C 40.746109,5.7836616 41.153494,5.7538826 41.423655,6.008336 L 41.92773,6.4831016 C 42.197891,6.7375551 42.225496,7.1770315 41.989624,7.4684754 L 41.549527,8.0122584 C 41.313654,8.3037022 40.906269,8.3334811 40.636107,8.0790276 L 40.132033,7.6042621 C 39.861871,7.3498086 39.834266,6.9103321 40.070139,6.6188883 z "
           id="rect10493" />
        <path
           style="fill:url(#linearGradient6013);fill-opacity:1;stroke:none;stroke-width:1;stroke-linecap:round;stroke-linejoin:round;stroke-miterlimit:4;stroke-dashoffset:0;stroke-opacity:1"
           d="M 22.270059,29.686394 L 23.89834,26.063844 L 25.870856,27.921671 L 22.763188,30.150849 L 22.270059,29.686394 z "
           id="rect10499"
           sodipodi:nodetypes="ccccc" />
        <path
           id="path12476"
           d="M 40.070139,6.6188883 L 40.510236,6.0751053 C 40.746109,5.7836616 41.153494,5.7538826 41.423655,6.008336 L 41.92773,6.4831016 C 42.197891,6.7375551 42.225496,7.1770315 41.989624,7.4684754 L 41.549527,8.0122584 C 41.313654,8.3037022 40.906269,8.3334811 40.636107,8.0790276 L 40.132033,7.6042621 C 39.861871,7.3498086 39.834266,6.9103321 40.070139,6.6188883 z "
           style="fill:url(#linearGradient6015);fill-opacity:1;stroke:#babdb6;stroke-width:1.09263015;stroke-linecap:round;stroke-linejoin:round;stroke-miterlimit:4;stroke-dashoffset:0;stroke-opacity:1" />
        <path
           style="fill:url(#linearGradient6017);fill-opacity:1;stroke:none;stroke-width:1;stroke-linecap:round;stroke-linejoin:round;stroke-miterlimit:4;stroke-dashoffset:0;stroke-opacity:1"
           d="M 33.436616,19.110318 L 40.984536,9.7841254 C 41.574218,9.0555166 41.809727,8.2469255 41.508074,7.9628117 L 40.121147,6.6565272 C 39.819494,6.3724136 39.108572,6.7332326 38.51889,7.4618419 L 30.97097,16.788034 L 33.436616,19.110318 z "
           id="rect10487"
           sodipodi:nodetypes="ccccccc" />
        <path
           sodipodi:nodetypes="ccccccc"
           id="path12478"
           d="M 33.436616,19.110318 L 40.984536,9.7841254 C 41.574218,9.0555166 41.504717,8.5083326 41.203064,8.2242188 L 39.816138,6.9179343 C 39.514485,6.6338207 39.108572,6.7332326 38.51889,7.4618419 L 30.97097,16.788034 L 33.436616,19.110318 z "
           style="fill:none;fill-opacity:1;stroke:#ffffff;stroke-width:1.09263015;stroke-linecap:round;stroke-linejoin:round;stroke-miterlimit:4;stroke-dashoffset:0;stroke-opacity:1" />
        <path
           sodipodi:nodetypes="cccc"
           id="path12484"
           d="M 22.516623,29.918622 L 23.89834,26.063844 L 25.870856,27.921671 L 22.516623,29.918622 z "
           style="fill:none;fill-opacity:1;stroke:#ffffff;stroke-width:1.09263015;stroke-linecap:round;stroke-linejoin:round;stroke-miterlimit:4;stroke-dashoffset:0;stroke-opacity:1" />
        <path
           sodipodi:nodetypes="ccccccccc"
           id="path10502"
           d="M 23.683069,26.329831 L 25.655586,28.187658 L 26.332691,27.887911 L 33.037369,20.14051 L 33.436616,19.110318 L 30.97097,16.788034 L 30.078594,17.353769 L 23.867045,25.565628 L 23.683069,26.329831 z "
           style="fill:url(#linearGradient6019);fill-opacity:1;stroke:none;stroke-width:1;stroke-linecap:round;stroke-linejoin:round;stroke-miterlimit:4;stroke-dashoffset:0;stroke-opacity:1" />
        <path
           style="fill:none;fill-opacity:1;stroke:url(#radialGradient6021);stroke-width:1.09263015;stroke-linecap:round;stroke-linejoin:round;stroke-miterlimit:4;stroke-dashoffset:0;stroke-opacity:1"
           d="M 23.683069,26.329831 L 25.655586,28.187658 L 26.332691,27.887911 L 33.037369,20.14051 L 33.436616,19.110318 L 30.97097,16.788034 L 30.078594,17.353769 L 23.867045,25.565628 L 23.683069,26.329831 z "
           id="path12482"
           sodipodi:nodetypes="ccccccccc" />
        <path
           style="color:#000000;fill:#eeeeec;fill-opacity:1;fill-rule:evenodd;stroke:none;stroke-width:1px;stroke-linecap:butt;stroke-linejoin:miter;marker:none;marker-start:none;marker-mid:none;marker-end:none;stroke-miterlimit:4;stroke-dashoffset:0;stroke-opacity:1;visibility:visible;display:inline;overflow:visible;enable-background:accumulate"
           d="M 22.054788,29.952381 C 21.935958,30.099207 21.949979,30.322407 22.086082,30.450597 C 22.222186,30.578787 22.429088,30.563663 22.547917,30.416838 L 22.978458,29.884862 L 22.485328,29.420406 L 22.054788,29.952381 z "
           id="path10496" />
        <path
           style="fill:none;fill-opacity:1;stroke:#2e3436;stroke-width:0.93966168;stroke-linecap:butt;stroke-linejoin:miter;stroke-miterlimit:1;stroke-dasharray:none;stroke-dashoffset:0;stroke-opacity:1"
           d="M 22.057089,30.486421 L 25.565424,28.679253 L 26.663823,28.164647 L 33.449284,20.454604 L 33.956087,19.154341 L 41.572446,9.7435849 C 42.150022,9.0299337 42.40517,8.1272222 42.10509,7.7373334 L 42.499999,7.2493837 C 42.744281,6.9475499 42.665953,6.4347834 42.326763,6.1153159 L 41.707637,5.5321883 C 41.368448,5.2127208 40.886904,5.1981668 40.642622,5.5000012 C 40.642622,5.5000012 40.400983,5.798569 40.247712,5.9879507 C 39.849116,5.7197876 39.054392,6.1142952 38.476817,6.8279471 L 30.860457,16.238703 L 29.734528,16.955839 L 23.568192,25.249009 L 23.243701,26.492524 L 22.057089,30.486421 z "
           id="path12486"
           sodipodi:nodetypes="cccccccccccccccccc" />
      </g>
    </g>
    <path
       sodipodi:type="arc"
       style="opacity:0.9;fill:url(#radialGradient6062);fill-opacity:1;fill-rule:evenodd;stroke:none;stroke-width:1.10000002;stroke-linecap:round;stroke-linejoin:round;stroke-miterlimit:4;stroke-dasharray:none;stroke-opacity:1;display:inline"
       id="path7146"
       sodipodi:cx="24"
       sodipodi:cy="40.625"
       sodipodi:rx="18.375"
       sodipodi:ry="7.625"
       d="M 42.375 40.625 A 18.375 7.625 0 1 1  5.625,40.625 A 18.375 7.625 0 1 1  42.375 40.625 z"
       transform="matrix(0.6207742,0,0,0.943122,-3.3684195,6.4474e-2)" />
    <path
       style="color:#000000;fill:url(#radialGradient7167);fill-opacity:1;fill-rule:nonzero;stroke:#888a85;stroke-width:1.00000012;stroke-linecap:round;stroke-linejoin:round;marker:none;marker-start:none;marker-mid:none;marker-end:none;stroke-miterlimit:4;stroke-dashoffset:0;stroke-opacity:1;visibility:visible;display:inline;overflow:visible"
       d="M 10.341788,28.529621 C 16.084657,28.521241 6.763949,28.521241 12.595342,28.529621 C 18.426735,28.538001 20.36263,34.23557 20.524506,37.690555 C 20.686384,41.145539 17.346143,43.523279 13.84581,43.523279 L 9.178698,43.523279 C 5.678363,43.523279 2.336975,41.113123 2.5,37.674347 C 2.663024,34.23557 4.598919,28.538001 10.341788,28.529621 z "
       id="rect1413"
       sodipodi:nodetypes="czzcczz" />
    <path
       sodipodi:type="inkscape:offset"
       inkscape:radius="-1.0606601"
       inkscape:original="M 21.875 20.5 C 11.49218 20.513973 8.0134902 29.985012 7.71875 35.71875 C 7.42401 41.452488 13.452822 45.500001 19.78125 45.5 L 28.21875 45.5 C 34.547179 45.5 40.573916 41.510763 40.28125 35.75 C 39.988585 29.989236 36.511618 20.513973 25.96875 20.5 C 15.425883 20.486027 32.25782 20.486027 21.875 20.5 z "
       style="color:#000000;fill:none;fill-opacity:1;fill-rule:nonzero;stroke:url(#radialGradient7172);stroke-width:1.82751977;stroke-linecap:round;stroke-linejoin:round;marker:none;marker-start:none;marker-mid:none;marker-end:none;stroke-miterlimit:4;stroke-dashoffset:0;stroke-opacity:1;visibility:visible;display:inline;overflow:visible"
       id="path6963"
       d="M 21.875,21.5625 C 17.005935,21.569053 13.923138,23.726255 11.875,26.59375 C 9.826862,29.461245 8.9191743,33.098135 8.78125,35.78125 C 8.6535709,38.265061 9.8564493,40.339409 11.90625,41.90625 C 13.956051,43.473091 16.84316,44.4375 19.78125,44.4375 L 28.21875,44.4375 C 31.160096,44.4375 34.045593,43.493128 36.09375,41.9375 C 38.141907,40.381872 39.345735,38.312042 39.21875,35.8125 C 39.081721,33.115256 38.159122,29.464373 36.09375,26.59375 C 34.028378,23.723127 30.922588,21.569066 25.96875,21.5625 C 25.746608,21.562206 25.698356,21.562782 25.5,21.5625 C 25.116512,21.561955 24.893949,21.562999 24.59375,21.5625 C 24.128317,21.563601 23.289161,21.561093 22.3125,21.5625 C 22.125195,21.56277 22.083881,21.562219 21.875,21.5625 z "
       transform="matrix(0.5282063,0,0,0.5668553,-1.1641244,17.277432)" />
    <path
       style="fill:#babdb6;fill-opacity:1;fill-rule:evenodd;stroke:#babdb6;stroke-width:0.99999982;stroke-linecap:round;stroke-linejoin:round;stroke-miterlimit:4;stroke-dasharray:none;stroke-opacity:1;display:inline"
       d="M 11.530161,29.5 L 11.530161,32.5"
       id="path7111"
       sodipodi:nodetypes="cc" />
    <path
       sodipodi:type="arc"
       style="fill:url(#linearGradient7252);fill-opacity:1;fill-rule:evenodd;stroke:#729fcf;stroke-width:1.19242465;stroke-linecap:round;stroke-linejoin:round;stroke-miterlimit:4;stroke-dasharray:none;stroke-opacity:1;display:inline"
       id="path7103"
       sodipodi:cx="23.75"
       sodipodi:cy="12.21875"
       sodipodi:rx="1.75"
       sodipodi:ry="1.21875"
       d="M 25.5 12.21875 A 1.75 1.21875 0 1 1  22,12.21875 A 1.75 1.21875 0 1 1  25.5 12.21875 z"
       transform="matrix(0.5714282,0,0,1.2307687,-2.0412581,13.961544)" />
    <path
       style="fill:#babdb6;fill-opacity:1;fill-rule:evenodd;stroke:none;stroke-width:1px;stroke-linecap:round;stroke-linejoin:round;stroke-opacity:1;display:inline"
       d="M 11.51526,32 C 8.664012,31.965514 6.044003,34.138037 4.420231,33 C 6.312239,35 8.95356,33.06448 11.51526,33 C 14.076963,33.06448 16.718282,35 18.61029,33 C 16.986519,34.138037 14.366512,31.965514 11.51526,32 z "
       id="path6957"
       sodipodi:nodetypes="ccccc" />
    <path
       style="fill:#ffffff;fill-opacity:1;fill-rule:evenodd;stroke:none;stroke-width:1px;stroke-linecap:round;stroke-linejoin:round;stroke-opacity:1;display:inline"
       d="M 4.420231,33 C 6.003471,36.1728 8.953559,34.053732 11.51526,34 C 14.076962,34.053732 17.02705,36.1728 18.61029,33 C 16.347965,35.088482 14.366511,32.971261 11.51526,33 C 8.664011,32.971261 6.682556,35.088482 4.420231,33 z "
       id="path7076"
       sodipodi:nodetypes="ccccc" />
  </g>
</svg>
