<?xml version="1.0" encoding="UTF-8" standalone="no"?>
<!-- Created with Inkscape (http://www.inkscape.org/) -->
<svg
   xmlns:dc="http://purl.org/dc/elements/1.1/"
   xmlns:cc="http://web.resource.org/cc/"
   xmlns:rdf="http://www.w3.org/1999/02/22-rdf-syntax-ns#"
   xmlns:svg="http://www.w3.org/2000/svg"
   xmlns="http://www.w3.org/2000/svg"
   xmlns:xlink="http://www.w3.org/1999/xlink"
   xmlns:sodipodi="http://inkscape.sourceforge.net/DTD/sodipodi-0.dtd"
   xmlns:inkscape="http://www.inkscape.org/namespaces/inkscape"
   width="48px"
   height="48px"
   id="svg1307"
   sodipodi:version="0.32"
   inkscape:version="0.43"
   sodipodi:docbase="/home/dobey/Projects/gnome-icon-theme/scalable/apps"
   sodipodi:docname="utilities-system-monitor.svg">
  <defs
     id="defs1309">
    <linearGradient
       id="linearGradient2420">
      <stop
         style="stop-color:#888a85;stop-opacity:1;"
         offset="0"
         id="stop2422" />
      <stop
         style="stop-color:#d3d7cf;stop-opacity:0;"
         offset="1"
         id="stop2424" />
    </linearGradient>
    <linearGradient
       inkscape:collect="always"
       id="linearGradient5225">
      <stop
         style="stop-color:black;stop-opacity:1;"
         offset="0"
         id="stop5227" />
      <stop
         style="stop-color:black;stop-opacity:0;"
         offset="1"
         id="stop5229" />
    </linearGradient>
    <radialGradient
       inkscape:collect="always"
       xlink:href="#linearGradient5225"
       id="radialGradient5231"
       cx="23.9375"
       cy="42.6875"
       fx="23.9375"
       fy="42.6875"
       r="23.75956"
       gradientTransform="matrix(1,0,0,0.24763,-4.965646e-16,32.1168)"
       gradientUnits="userSpaceOnUse" />
    <linearGradient
       id="linearGradient2234">
      <stop
         style="stop-color:#ffffff;stop-opacity:1;"
         offset="0"
         id="stop2236" />
      <stop
         style="stop-color:#eefbe5;stop-opacity:1;"
         offset="1"
         id="stop2238" />
    </linearGradient>
    <linearGradient
       inkscape:collect="always"
       xlink:href="#linearGradient2234"
       id="linearGradient2240"
       x1="7.0299435"
       y1="9.0138359"
       x2="31.586546"
       y2="25.800898"
       gradientUnits="userSpaceOnUse"
       gradientTransform="matrix(1.005476,0,0,0.701167,-6.910045e-2,4.817347)" />
    <linearGradient
       inkscape:collect="always"
       xlink:href="#linearGradient2420"
       id="linearGradient2434"
       x1="32.05986"
       y1="38.720276"
       x2="25.165596"
       y2="11.220275"
       gradientUnits="userSpaceOnUse" />
    <radialGradient
       inkscape:collect="always"
       xlink:href="#linearGradient2420"
       id="radialGradient2215"
       cx="10.20254"
       cy="37.090351"
       fx="10.20254"
       fy="37.090351"
       r="2.9117603"
       gradientUnits="userSpaceOnUse"
       gradientTransform="matrix(1.884767,-1.509235e-6,1.394346e-6,1.741291,-9.026919,-27.49472)" />
    <radialGradient
       inkscape:collect="always"
       xlink:href="#linearGradient2420"
       id="radialGradient2223"
       cx="10.20254"
       cy="37.090351"
       fx="10.20254"
       fy="37.090351"
       r="2.9117603"
       gradientUnits="userSpaceOnUse"
       gradientTransform="matrix(1.597815,7.492324e-7,-7.94084e-7,1.693466,-6.099205,-25.72089)" />
  </defs>
  <sodipodi:namedview
     id="base"
     pagecolor="#ffffff"
     bordercolor="#666666"
     borderopacity="1.0"
     inkscape:pageopacity="0.0"
     inkscape:pageshadow="2"
     inkscape:zoom="14"
     inkscape:cx="25.63604"
     inkscape:cy="24"
     inkscape:current-layer="layer1"
     showgrid="true"
     inkscape:grid-bbox="true"
     inkscape:document-units="px"
     inkscape:window-width="822"
     inkscape:window-height="918"
     inkscape:window-x="141"
     inkscape:window-y="18" />
  <metadata
     id="metadata1312">
    <rdf:RDF>
      <cc:Work
         rdf:about="">
        <dc:format>image/svg+xml</dc:format>
        <dc:type
           rdf:resource="http://purl.org/dc/dcmitype/StillImage" />
      </cc:Work>
    </rdf:RDF>
  </metadata>
  <g
     id="layer1"
     inkscape:label="Layer 1"
     inkscape:groupmode="layer">
    <path
       sodipodi:type="arc"
       style="opacity:0.4;fill:url(#radialGradient5231);fill-opacity:1;fill-rule:evenodd;stroke:none;stroke-width:1px;stroke-linecap:butt;stroke-linejoin:miter;stroke-opacity:1"
       id="path13582"
       sodipodi:cx="23.9375"
       sodipodi:cy="42.6875"
       sodipodi:rx="23.75956"
       sodipodi:ry="5.8835783"
       d="M 47.69706 42.6875 A 23.75956 5.8835783 0 1 1  0.17794037,42.6875 A 23.75956 5.8835783 0 1 1  47.69706 42.6875 z"
       transform="matrix(0.968031,0,0,0.849823,0.827748,3.723183)" />
    <rect
       style="fill:#d3d7cf;fill-opacity:1;stroke:#555753;stroke-width:1.00000024;stroke-linecap:round;stroke-linejoin:round;stroke-miterlimit:4;stroke-dasharray:none;stroke-opacity:1"
       id="rect1343"
       width="42.988838"
       height="37.988014"
       x="2.5055821"
       y="2.5060034"
       rx="0.99280089"
       ry="0.92979473" />
    <rect
       style="fill:url(#linearGradient2434);fill-opacity:1.0;stroke:#babdb6;stroke-width:1.00000012;stroke-linecap:round;stroke-linejoin:round;stroke-miterlimit:4;stroke-dasharray:none;stroke-opacity:1"
       id="rect2218"
       width="41.034309"
       height="36.039307"
       x="3.4884293"
       y="3.486336"
       rx="0.093000002"
       ry="0.029999999" />
    <rect
       style="opacity:1;fill:#71895b;fill-opacity:1;stroke:#3e4f30;stroke-width:1;stroke-linecap:round;stroke-linejoin:round;stroke-miterlimit:4;stroke-dasharray:none;stroke-opacity:1"
       id="rect2224"
       width="26.015625"
       height="23.01754"
       x="6.484375"
       y="6.5"
       rx="0.093000002"
       ry="0.029999996" />
    <path
       style="fill:url(#linearGradient2240);fill-opacity:1;fill-rule:evenodd;stroke:#d3e5c9;stroke-width:0.99999958px;stroke-linecap:butt;stroke-linejoin:miter;stroke-opacity:1"
       d="M 7.5792401,20.303344 C 7.7240455,17.652622 10.431256,11.421254 11.601145,11.488675 C 13.213187,11.581579 14.710078,17.97425 16.053964,18.049594 C 17.469653,18.128965 18.62152,11.488675 20.147689,11.488675 C 21.530217,11.488675 22.719591,18.457849 24.025952,18.400178 C 25.121363,18.351818 26.88678,11.567495 28.263316,11.488675 C 29.36016,11.425872 31.456009,19.151804 31.495201,20.203177 C 31.622084,23.606959 29.199749,15.822974 28.191255,15.842155 C 26.841624,15.867825 25.085264,21.463692 23.811691,21.41775 C 22.735679,21.378934 21.082063,15.842155 19.86113,15.892239 C 18.929084,15.930472 16.921001,21.470527 15.911286,21.46909 C 15.323762,21.468152 13.047046,15.521464 12.032062,15.595511 C 11.026321,15.668883 8.7283555,19.952761 8.081978,21.505345 C 7.4362211,23.056438 7.4356008,22.93272 7.5792401,20.303344 z "
       id="path2232"
       sodipodi:nodetypes="csssssssssssss" />
    <path
       sodipodi:type="arc"
       style="fill:url(#radialGradient2223);fill-opacity:1.0;stroke:#cc0000;stroke-width:0.97478873;stroke-linecap:round;stroke-linejoin:round;stroke-miterlimit:4;stroke-dasharray:none;stroke-opacity:1"
       id="path2242"
       sodipodi:cx="10.20254"
       sodipodi:cy="37.090351"
       sodipodi:rx="2.424366"
       sodipodi:ry="2.424366"
       d="M 12.626906 37.090351 A 2.424366 2.424366 0 1 1  7.7781744,37.090351 A 2.424366 2.424366 0 1 1  12.626906 37.090351 z"
       transform="matrix(1.025863,0,0,1.025863,-0.453476,-3.036686)" />
    <path
       sodipodi:type="arc"
       style="fill:url(#radialGradient2215);fill-opacity:1.0;stroke:#000003;stroke-width:0.97478873;stroke-linecap:round;stroke-linejoin:round;stroke-miterlimit:4;stroke-dasharray:none;stroke-opacity:1"
       id="path2244"
       sodipodi:cx="10.20254"
       sodipodi:cy="37.090351"
       sodipodi:rx="2.424366"
       sodipodi:ry="2.424366"
       d="M 12.626906 37.090351 A 2.424366 2.424366 0 1 1  7.7781744,37.090351 A 2.424366 2.424366 0 1 1  12.626906 37.090351 z"
       transform="matrix(1.025863,0,0,1.025863,6.520659,-3.036686)" />
    <g
       id="g2264"
       transform="matrix(1.007126,0,0,1.007126,-0.277912,-3.092637)">
      <path
         transform="matrix(1.056604,0,0,1.056604,-2.660374,-0.886793)"
         d="M 42.714284 13.142858 A 3.2857144 3.2857144 0 1 1  36.142855,13.142858 A 3.2857144 3.2857144 0 1 1  42.714284 13.142858 z"
         sodipodi:ry="3.2857144"
         sodipodi:rx="3.2857144"
         sodipodi:cy="13.142858"
         sodipodi:cx="39.42857"
         id="path2250"
         style="opacity:1;fill:#555753;fill-opacity:1;stroke:#2e3436;stroke-width:0.93973237;stroke-linecap:round;stroke-linejoin:round;stroke-miterlimit:4;stroke-dasharray:none;stroke-opacity:1"
         sodipodi:type="arc" />
      <path
         transform="matrix(0.767709,0,0,0.767709,8.730339,2.910112)"
         d="M 42.714284 13.142858 A 3.2857144 3.2857144 0 1 1  36.142855,13.142858 A 3.2857144 3.2857144 0 1 1  42.714284 13.142858 z"
         sodipodi:ry="3.2857144"
         sodipodi:rx="3.2857144"
         sodipodi:cy="13.142858"
         sodipodi:cx="39.42857"
         id="path2262"
         style="opacity:1;fill:none;fill-opacity:1;stroke:#888a85;stroke-width:1.29336071;stroke-linecap:round;stroke-linejoin:round;stroke-miterlimit:4;stroke-dasharray:none;stroke-opacity:1"
         sodipodi:type="arc" />
    </g>
    <g
       id="g2268"
       transform="matrix(1.007126,0,0,1.007126,-0.277912,6.907363)">
      <path
         transform="matrix(1.056604,0,0,1.056604,-2.660374,-0.886793)"
         d="M 42.714284 13.142858 A 3.2857144 3.2857144 0 1 1  36.142855,13.142858 A 3.2857144 3.2857144 0 1 1  42.714284 13.142858 z"
         sodipodi:ry="3.2857144"
         sodipodi:rx="3.2857144"
         sodipodi:cy="13.142858"
         sodipodi:cx="39.42857"
         id="path2270"
         style="opacity:1;fill:#555753;fill-opacity:1;stroke:#2e3436;stroke-width:0.93973237;stroke-linecap:round;stroke-linejoin:round;stroke-miterlimit:4;stroke-dasharray:none;stroke-opacity:1"
         sodipodi:type="arc" />
      <path
         transform="matrix(0.767709,0,0,0.767709,8.730339,2.910112)"
         d="M 42.714284 13.142858 A 3.2857144 3.2857144 0 1 1  36.142855,13.142858 A 3.2857144 3.2857144 0 1 1  42.714284 13.142858 z"
         sodipodi:ry="3.2857144"
         sodipodi:rx="3.2857144"
         sodipodi:cy="13.142858"
         sodipodi:cx="39.42857"
         id="path2272"
         style="opacity:1;fill:none;fill-opacity:1;stroke:#888a85;stroke-width:1.29336071;stroke-linecap:round;stroke-linejoin:round;stroke-miterlimit:4;stroke-dasharray:none;stroke-opacity:1"
         sodipodi:type="arc" />
    </g>
    <g
       id="g2274"
       transform="matrix(1.007126,0,0,1.007126,-0.277911,16.90737)">
      <path
         transform="matrix(1.056604,0,0,1.056604,-2.660374,-0.886793)"
         d="M 42.714284 13.142858 A 3.2857144 3.2857144 0 1 1  36.142855,13.142858 A 3.2857144 3.2857144 0 1 1  42.714284 13.142858 z"
         sodipodi:ry="3.2857144"
         sodipodi:rx="3.2857144"
         sodipodi:cy="13.142858"
         sodipodi:cx="39.42857"
         id="path2276"
         style="opacity:1;fill:#555753;fill-opacity:1;stroke:#2e3436;stroke-width:0.93973237;stroke-linecap:round;stroke-linejoin:round;stroke-miterlimit:4;stroke-dasharray:none;stroke-opacity:1"
         sodipodi:type="arc" />
      <path
         transform="matrix(0.767709,0,0,0.767709,8.730339,2.910112)"
         d="M 42.714284 13.142858 A 3.2857144 3.2857144 0 1 1  36.142855,13.142858 A 3.2857144 3.2857144 0 1 1  42.714284 13.142858 z"
         sodipodi:ry="3.2857144"
         sodipodi:rx="3.2857144"
         sodipodi:cy="13.142858"
         sodipodi:cx="39.42857"
         id="path2278"
         style="opacity:1;fill:none;fill-opacity:1;stroke:#888a85;stroke-width:1.29336071;stroke-linecap:round;stroke-linejoin:round;stroke-miterlimit:4;stroke-dasharray:none;stroke-opacity:1"
         sodipodi:type="arc" />
    </g>
  </g>
</svg>
