<?xml version="1.0" encoding="UTF-8" standalone="no"?>
<!-- Created with Inkscape (http://www.inkscape.org/) -->
<svg
   xmlns:dc="http://purl.org/dc/elements/1.1/"
   xmlns:cc="http://web.resource.org/cc/"
   xmlns:rdf="http://www.w3.org/1999/02/22-rdf-syntax-ns#"
   xmlns:svg="http://www.w3.org/2000/svg"
   xmlns="http://www.w3.org/2000/svg"
   xmlns:xlink="http://www.w3.org/1999/xlink"
   xmlns:sodipodi="http://sodipodi.sourceforge.net/DTD/sodipodi-0.dtd"
   xmlns:inkscape="http://www.inkscape.org/namespaces/inkscape"
   sodipodi:docname="emblem-mail.svg"
   sodipodi:docbase="/home/dobey/Projects/gnome-icon-theme/22x22/emblems"
   inkscape:version="0.45"
   sodipodi:version="0.32"
   id="svg2"
   height="22"
   width="22"
   inkscape:output_extension="org.inkscape.output.svg.inkscape"
   version="1.0">
  <defs
     id="defs3">
    <linearGradient
       inkscape:collect="always"
       id="linearGradient5060">
      <stop
         style="stop-color:black;stop-opacity:1;"
         offset="0"
         id="stop5062" />
      <stop
         style="stop-color:black;stop-opacity:0;"
         offset="1"
         id="stop5064" />
    </linearGradient>
    <linearGradient
       id="linearGradient5048">
      <stop
         style="stop-color:black;stop-opacity:0;"
         offset="0"
         id="stop5050" />
      <stop
         id="stop5056"
         offset="0.5"
         style="stop-color:black;stop-opacity:1;" />
      <stop
         style="stop-color:black;stop-opacity:0;"
         offset="1"
         id="stop5052" />
    </linearGradient>
    <linearGradient
       id="linearGradient6932"
       inkscape:collect="always">
      <stop
         id="stop6934"
         offset="0"
         style="stop-color:#000000;stop-opacity:1;" />
      <stop
         id="stop6936"
         offset="1"
         style="stop-color:#000000;stop-opacity:0;" />
    </linearGradient>
    <linearGradient
       id="linearGradient6945"
       inkscape:collect="always">
      <stop
         id="stop6947"
         offset="0"
         style="stop-color:#ffffff;stop-opacity:1" />
      <stop
         id="stop6949"
         offset="1"
         style="stop-color:#d3d7cf;stop-opacity:1" />
    </linearGradient>
    <linearGradient
       id="linearGradient6984"
       inkscape:collect="always">
      <stop
         id="stop6986"
         offset="0"
         style="stop-color:#babdb6;stop-opacity:1;" />
      <stop
         id="stop6988"
         offset="1"
         style="stop-color:#babdb6;stop-opacity:0;" />
    </linearGradient>
    <linearGradient
       inkscape:collect="always"
       xlink:href="#linearGradient6984"
       id="linearGradient4867"
       gradientUnits="userSpaceOnUse"
       gradientTransform="matrix(0.4293055,0,0,0.2976074,0.8339628,-5.5463555)"
       x1="14.125"
       y1="79.81311"
       x2="14.125"
       y2="76.624176" />
    <radialGradient
       inkscape:collect="always"
       xlink:href="#linearGradient6945"
       id="radialGradient4870"
       gradientUnits="userSpaceOnUse"
       gradientTransform="matrix(1.119768,0,0,1.0167544,-10.302815,-52.598026)"
       cx="13.107393"
       cy="61.48016"
       fx="13.107393"
       fy="61.48016"
       r="18.5" />
    <radialGradient
       inkscape:collect="always"
       xlink:href="#linearGradient6945"
       id="radialGradient4892"
       gradientUnits="userSpaceOnUse"
       gradientTransform="matrix(-1.119768,0,0,0.2981304,32.148101,0.2440038)"
       cx="19.371983"
       cy="41.331757"
       fx="19.371983"
       fy="41.331757"
       r="18.5" />
    <linearGradient
       inkscape:collect="always"
       xlink:href="#linearGradient6932"
       id="linearGradient5499"
       gradientUnits="userSpaceOnUse"
       x1="32.625"
       y1="68.4375"
       x2="32.625"
       y2="63.498707" />
    <linearGradient
       inkscape:collect="always"
       xlink:href="#linearGradient5048"
       id="linearGradient5533"
       gradientUnits="userSpaceOnUse"
       gradientTransform="matrix(4.3021909e-2,0,0,2.3675179e-2,0.9411662,37.789215)"
       x1="302.85715"
       y1="366.64789"
       x2="302.85715"
       y2="609.50507" />
    <radialGradient
       inkscape:collect="always"
       xlink:href="#linearGradient5060"
       id="radialGradient5535"
       gradientUnits="userSpaceOnUse"
       gradientTransform="matrix(4.3021909e-2,0,0,2.3675179e-2,0.9496329,37.789215)"
       cx="605.71429"
       cy="486.64789"
       fx="605.71429"
       fy="486.64789"
       r="117.14286" />
    <radialGradient
       inkscape:collect="always"
       xlink:href="#linearGradient5060"
       id="radialGradient5537"
       gradientUnits="userSpaceOnUse"
       gradientTransform="matrix(-4.3021909e-2,0,0,2.3675179e-2,32.0314,37.789215)"
       cx="605.71429"
       cy="486.64789"
       fx="605.71429"
       fy="486.64789"
       r="117.14286" />
  </defs>
  <sodipodi:namedview
     inkscape:window-y="163"
     inkscape:window-x="259"
     inkscape:window-height="706"
     inkscape:window-width="686"
     inkscape:guide-bbox="true"
     showguides="true"
     showgrid="false"
     inkscape:current-layer="layer1"
     inkscape:document-units="px"
     inkscape:cy="0.9791335"
     inkscape:cx="14.055622"
     inkscape:zoom="1"
     inkscape:pageshadow="2"
     inkscape:pageopacity="0.0"
     borderopacity="1"
     bordercolor="#dedede"
     pagecolor="#ffffff"
     id="base"
     width="22px"
     height="22px"
     borderlayer="true"
     inkscape:showpageshadow="false">
    <inkscape:grid
       type="xygrid"
       id="grid4899" />
  </sodipodi:namedview>
  <metadata
     id="metadata4">
    <rdf:RDF>
      <cc:Work
         rdf:about="">
        <dc:format>image/svg+xml</dc:format>
        <dc:type
           rdf:resource="http://purl.org/dc/dcmitype/StillImage" />
        <dc:title>Mail Emblem</dc:title>
        <dc:date>2005-02-19</dc:date>
        <dc:creator>
          <cc:Agent>
            <dc:title>Lapo Calamandrei</dc:title>
          </cc:Agent>
        </dc:creator>
        <dc:description>Mail emblem</dc:description>
        <dc:contributor>
          <cc:Agent>
            <dc:title>Jakub Steiner
Andreas Nilsson</dc:title>
          </cc:Agent>
        </dc:contributor>
        <cc:license
           rdf:resource="http://creativecommons.org/licenses/GPL/2.0/" />
        <dc:subject>
          <rdf:Bag>
            <rdf:li>mail</rdf:li>
            <rdf:li>message</rdf:li>
            <rdf:li>e-mail</rdf:li>
          </rdf:Bag>
        </dc:subject>
        <dc:rights>
          <cc:Agent>
            <dc:title>Lapo Calamandrei, Andreas Nilsson, Novell Inc.</dc:title>
          </cc:Agent>
        </dc:rights>
      </cc:Work>
      <cc:License
         rdf:about="http://creativecommons.org/licenses/GPL/2.0/">
        <cc:permits
           rdf:resource="http://web.resource.org/cc/Reproduction" />
        <cc:permits
           rdf:resource="http://web.resource.org/cc/Distribution" />
        <cc:requires
           rdf:resource="http://web.resource.org/cc/Notice" />
        <cc:permits
           rdf:resource="http://web.resource.org/cc/DerivativeWorks" />
        <cc:requires
           rdf:resource="http://web.resource.org/cc/ShareAlike" />
        <cc:requires
           rdf:resource="http://web.resource.org/cc/SourceCode" />
      </cc:License>
    </rdf:RDF>
  </metadata>
  <g
     id="layer1"
     inkscape:groupmode="layer"
     inkscape:label="Layer 1">
    <g
       id="g5528"
       transform="matrix(0.6773058,0,0,0.77569,-0.7158225,-19.224046)"
       style="opacity:0.3373494">
      <rect
         y="46.469669"
         x="6.1037955"
         height="5.7496862"
         width="20.773436"
         id="rect6057"
         style="opacity:1;color:#000000;fill:url(#linearGradient5533);fill-opacity:1;fill-rule:nonzero;stroke:none;stroke-width:1;stroke-linecap:round;stroke-linejoin:miter;marker:none;marker-start:none;marker-mid:none;marker-end:none;stroke-miterlimit:4;stroke-dasharray:none;stroke-dashoffset:0;stroke-opacity:1;visibility:visible;display:inline;overflow:visible" />
      <path
         sodipodi:nodetypes="cccc"
         id="path6059"
         d="M 26.877232,46.469867 C 26.877232,46.469867 26.877232,52.219237 26.877232,52.219237 C 29.092754,52.23006 32.233286,50.931095 32.233284,49.344182 C 32.233284,47.757269 29.760929,46.469868 26.877232,46.469867 z"
         style="opacity:1;color:#000000;fill:url(#radialGradient5535);fill-opacity:1;fill-rule:nonzero;stroke:none;stroke-width:1;stroke-linecap:round;stroke-linejoin:miter;marker:none;marker-start:none;marker-mid:none;marker-end:none;stroke-miterlimit:4;stroke-dasharray:none;stroke-dashoffset:0;stroke-opacity:1;visibility:visible;display:inline;overflow:visible" />
      <path
         style="opacity:1;color:#000000;fill:url(#radialGradient5537);fill-opacity:1;fill-rule:nonzero;stroke:none;stroke-width:1;stroke-linecap:round;stroke-linejoin:miter;marker:none;marker-start:none;marker-mid:none;marker-end:none;stroke-miterlimit:4;stroke-dasharray:none;stroke-dashoffset:0;stroke-opacity:1;visibility:visible;display:inline;overflow:visible"
         d="M 6.1037956,46.469867 C 6.1037956,46.469867 6.1037956,52.219237 6.1037956,52.219237 C 3.8882733,52.23006 0.74774209,50.931095 0.74774209,49.344182 C 0.74774209,47.757269 3.2200975,46.469868 6.1037956,46.469867 z"
         id="path6061"
         sodipodi:nodetypes="cccc" />
    </g>
    <path
       style="fill:url(#radialGradient4892);fill-opacity:1;fill-rule:evenodd;stroke:none;stroke-width:0.99999988;stroke-linecap:butt;stroke-linejoin:round;stroke-miterlimit:4;stroke-dashoffset:0.69999992;stroke-opacity:0.99236642"
       d="M 10.922642,1.7977377 C 8.5517154,1.7977377 8.3468094,2.245215 7.9175034,2.6926939 L 3.1951431,7.6149525 L 3.1951431,8.2442192 L 3.1951431,8.3281213 L 3.1951431,18.172638 C 3.1951431,18.523226 3.4625043,18.801905 3.7988541,18.801905 L 18.046431,18.801905 C 18.38278,18.801905 18.650141,18.523225 18.650141,18.172638 L 18.650141,8.3281213 L 18.650141,8.2442192 L 18.650141,7.6149525 L 13.927781,2.6926939 C 13.498476,2.2452159 13.283823,1.7977368 10.922642,1.7977377 z"
       id="rect5931" />
    <path
       style="opacity:1;color:#000000;fill:#f2f2f0;fill-opacity:1;fill-rule:evenodd;stroke:#aeaeae;stroke-width:1;stroke-linecap:butt;stroke-linejoin:miter;marker:none;marker-start:none;marker-mid:none;marker-end:none;stroke-miterlimit:4;stroke-dasharray:none;stroke-dashoffset:0;stroke-opacity:1;visibility:visible;display:inline;overflow:visible;enable-background:accumulate"
       d="M 4.7389475,11.276991 L 15.207673,6.8044809 L 17.761898,12.994435 L 6.1059976,15.17702 L 4.7389475,11.276991 z"
       id="path4909" />
    <path
       style="fill:none;fill-opacity:1;fill-rule:evenodd;stroke:#888a85;stroke-width:1.00000012;stroke-linecap:butt;stroke-linejoin:round;stroke-miterlimit:4;stroke-dashoffset:0.69999992;stroke-opacity:0.99236642"
       d="M 18.429172,8.7755994 L 18.429172,7.5727806 L 13.571775,2.4716691 C 13.130192,2.0079317 12.909401,1.5441934 10.480702,1.5441942 C 8.0419773,1.5441942 7.8312113,2.0079308 7.3896304,2.4716691 L 2.5322308,7.5727806 L 2.5322308,8.7755994"
       id="path7161"
       sodipodi:nodetypes="ccccccc" />
    <path
       style="fill:#ffffff;fill-opacity:1;fill-rule:evenodd;stroke:none;stroke-width:1px;stroke-linecap:butt;stroke-linejoin:round;stroke-opacity:1"
       d="M 3.4462837,9.5167342 L 7.7315798,14.704683 C 7.9313975,14.91464 8.1292488,15.190088 8.5700072,15.3759 C 9.0107657,15.561712 9.670224,15.669557 10.859047,15.669557 C 12.04309,15.669558 12.706417,15.561533 13.148088,15.3759 C 13.589758,15.190267 13.786128,14.915238 13.986515,14.704683 L 18.258503,9.5726689 L 13.986515,14.033465 C 13.786128,14.244021 13.589758,14.51905 13.148088,14.704683 C 12.706417,14.890316 12.04309,14.998341 10.859047,14.99834 C 9.670224,14.99834 9.0107657,14.890495 8.5700072,14.704683 C 8.1292488,14.518871 7.9313975,14.243423 7.7315798,14.033465 L 3.4462837,9.5167342 z"
       id="path7112"
       sodipodi:nodetypes="ccssscccssscc" />
    <path
       sodipodi:type="inkscape:offset"
       inkscape:radius="0.5"
       inkscape:original="M 6.90625 55.5 C 6.1227756 55.5 5.5 56.122774 5.5 56.90625 L 5.5 58.5 L 16.5 69.5 C 17.5 70.500002 17.977297 71.5 23.5 71.5 C 29 71.500002 29.5 70.5 30.5 69.5 L 41.5 58.5 L 41.5 56.90625 C 41.5 56.122776 40.877226 55.5 40.09375 55.5 L 6.90625 55.5 z "
       style="opacity:0.16791047;fill:url(#linearGradient5499);fill-opacity:1;fill-rule:evenodd;stroke:none;stroke-width:1px;stroke-linecap:butt;stroke-linejoin:round;stroke-opacity:1"
       id="path6930"
       d="M 6.90625,55 C 5.8578131,55 5,55.857811 5,56.90625 L 5,58.5 C 5.0051575,58.6306 5.0612439,58.75399 5.15625,58.84375 L 16.15625,69.84375 C 16.62545,70.312951 17.090035,70.928507 18.125,71.34375 C 19.159965,71.758993 20.70847,72 23.5,72 C 26.280303,72.000001 27.837893,71.758593 28.875,71.34375 C 29.912107,70.928907 30.373213,70.314287 30.84375,69.84375 L 41.84375,58.84375 C 41.938756,58.75399 41.994842,58.6306 42,58.5 L 42,56.90625 C 42,55.857813 41.142189,55 40.09375,55 L 6.90625,55 z"
       transform="matrix(0.4258679,0,0,0.4474781,0.8257126,-17.194781)" />
    <path
       style="opacity:1;color:#000000;fill:#ffffff;fill-opacity:1;fill-rule:evenodd;stroke:none;stroke-width:1;stroke-linecap:butt;stroke-linejoin:miter;marker:none;marker-start:none;marker-mid:none;marker-end:none;stroke-miterlimit:4;stroke-dasharray:none;stroke-dashoffset:0;stroke-opacity:1;visibility:visible;display:inline;overflow:visible;enable-background:accumulate"
       d="M 15.068469,7.0854333 L 5.2238986,11.259989 L 5.4274039,11.487692 L 14.890402,7.743242 L 16.518444,11.386491 L 16.747388,11.158787 L 15.068469,7.0854333 z"
       id="path5492" />
    <path
       style="opacity:1;fill:#abaca9;fill-opacity:1;fill-rule:evenodd;stroke:none;stroke-width:1px;stroke-linecap:butt;stroke-linejoin:round;stroke-opacity:1"
       d="M 3.4462837,9.5167342 L 7.7315798,13.093718 C 7.9313975,13.303674 8.1292488,13.579122 8.5700072,13.764935 C 9.0107657,13.950746 9.670224,14.058592 10.859047,14.058592 C 12.04309,14.058592 12.706417,13.950567 13.148088,13.764935 C 13.589758,13.579301 13.786128,13.304272 13.986515,13.093718 L 18.258503,9.5726689 L 13.986515,14.033465 C 13.786128,14.244021 13.589758,14.51905 13.148088,14.704683 C 12.706417,14.890316 12.04309,14.998341 10.859047,14.99834 C 9.670224,14.99834 9.0107657,14.890495 8.5700072,14.704683 C 8.1292488,14.518871 7.9313975,14.243423 7.7315798,14.033465 L 3.4462837,9.5167342 z"
       id="path7128"
       sodipodi:nodetypes="ccssscccssscc" />
    <path
       style="fill:url(#radialGradient4870);fill-opacity:1;fill-rule:evenodd;stroke:none;stroke-width:0.89999998;stroke-linecap:butt;stroke-linejoin:round;stroke-miterlimit:4;stroke-dasharray:none;stroke-opacity:1"
       d="M 10.922642,12.98469 C 8.7761142,12.98469 8.3468094,13.442931 7.9175034,13.901174 L 3.3695485,18.755679 C 3.4792872,18.872814 3.6306788,18.941839 3.7988541,18.94184 L 18.046431,18.94184 C 18.214605,18.94184 18.365997,18.872814 18.475736,18.755679 L 13.927781,13.901174 C 13.498476,13.442931 13.06917,12.98469 10.922642,12.98469 z"
       id="path6902" />
    <path
       style="opacity:0.55597014;fill:url(#linearGradient4867);fill-opacity:1;fill-rule:evenodd;stroke:none;stroke-width:0.99999988;stroke-linecap:butt;stroke-linejoin:round;stroke-miterlimit:4;stroke-dashoffset:0.69999992;stroke-opacity:0.99236642"
       d="M 3.4097959,16.746302 L 3.4097959,17.694926 C 3.4097959,17.849981 3.575182,17.964633 3.7988541,17.964633 L 18.046431,17.964633 C 18.270102,17.964633 18.435488,17.849981 18.435488,17.694926 L 18.435488,16.746302 L 3.4097959,16.746302 z"
       id="path6980"
       sodipodi:nodetypes="ccccccc" />
    <path
       style="fill:none;fill-opacity:1;fill-rule:evenodd;stroke:#888a85;stroke-width:0.99999988;stroke-linecap:butt;stroke-linejoin:round;stroke-miterlimit:4;stroke-dashoffset:0.69999992;stroke-opacity:0.99236642"
       d="M 2.5322307,8.3281218 L 2.5322307,18.593394 C 2.5322307,18.958966 2.8080018,19.249556 3.1549313,19.249555 L 17.850666,19.249555 C 18.197595,19.249555 18.473366,18.958966 18.473366,18.593394 L 18.473366,8.3281218"
       id="path7174"
       sodipodi:nodetypes="cccccc" />
    <path
       style="opacity:1;color:#000000;fill:#e8eae6;fill-opacity:1;fill-rule:evenodd;stroke:none;stroke-width:1;stroke-linecap:butt;stroke-linejoin:miter;marker:none;marker-start:none;marker-mid:none;marker-end:none;stroke-miterlimit:4;stroke-dasharray:none;stroke-dashoffset:0;stroke-opacity:1;visibility:visible;display:inline;overflow:visible;enable-background:accumulate"
       d="M 18.019919,9.5032439 L 14.420587,14.139834 L 18.019919,18.376704 L 18.019919,9.5032439 z"
       id="path5488"
       sodipodi:nodetypes="cccc" />
    <path
       id="path5490"
       d="M 3.4332572,9.5791445 L 7.4624574,14.266335 L 3.4332572,18.579107 L 3.4332572,9.5791445 z"
       style="opacity:1;color:#000000;fill:#e8eae6;fill-opacity:1;fill-rule:evenodd;stroke:none;stroke-width:1;stroke-linecap:butt;stroke-linejoin:miter;marker:none;marker-start:none;marker-mid:none;marker-end:none;stroke-miterlimit:4;stroke-dasharray:none;stroke-dashoffset:0;stroke-opacity:1;visibility:visible;display:inline;overflow:visible;enable-background:accumulate"
       sodipodi:nodetypes="cccc" />
    <g
       id="g6320"
       transform="matrix(0.4293054,0,0,0.470145,-23.743775,-1.1677525)">
      <path
         sodipodi:nodetypes="ccssscccccc"
         id="path7039"
         d="M 63.25,41.970971 L 73.40625,30.27716 C 73.875623,29.793301 74.3406,29.158694 75.375,28.730871 C 76.4094,28.303047 77.95864,28.054369 80.75,28.054369 C 83.530132,28.054368 85.088454,28.303457 86.125,28.730871 C 87.161546,29.158284 87.623047,29.791931 88.09375,30.27716 L 98.25,41.970971 L 88.103408,32.404575 C 86.059401,30.3742 83.585161,30.0623 80.759658,30.181784 C 78.088808,30.232853 75.295355,30.181444 73.415908,32.404575 L 63.25,41.970971 z"
         style="fill:#abaca9;fill-opacity:1;fill-rule:evenodd;stroke:none;stroke-width:0.89999998;stroke-linecap:butt;stroke-linejoin:round;stroke-miterlimit:4;stroke-dasharray:none;stroke-opacity:1" />
      <path
         sodipodi:nodetypes="ccccccccc"
         id="path7049"
         d="M 63.25,41.99247 L 73.415908,34.334062 C 75.295355,32.330554 78.088808,32.376884 80.759658,32.33086 C 83.585161,32.22318 86.059401,32.504268 88.103408,34.334062 L 98.25,41.99247 L 88.09375,32.38291 C 86.049743,30.553117 83.575503,30.27203 80.75,30.379709 C 78.07915,30.425733 75.285697,30.379403 73.40625,32.38291 L 63.25,41.99247 z"
         style="fill:#ffffff;fill-opacity:1;fill-rule:evenodd;stroke:none;stroke-width:0.89999998;stroke-linecap:butt;stroke-linejoin:round;stroke-miterlimit:4;stroke-dasharray:none;stroke-opacity:1" />
    </g>
    <path
       sodipodi:type="inkscape:offset"
       inkscape:radius="-0.98534405"
       inkscape:original="M 24.5 4.5 C 18.977297 4.5 18.5 5.499998 17.5 6.5 L 6.5 17.5 L 6.5 18.90625 L 6.5 19.09375 L 6.5 41.09375 C 6.5 41.877225 7.1227756 42.500002 7.90625 42.5 L 41.09375 42.5 C 41.877224 42.5 42.5 41.877224 42.5 41.09375 L 42.5 19.09375 L 42.5 18.90625 L 42.5 17.5 L 31.5 6.5 C 30.5 5.5 30 4.499998 24.5 4.5 z "
       style="fill:none;fill-opacity:1;fill-rule:evenodd;stroke:#ffffff;stroke-width:2.33928823;stroke-linecap:butt;stroke-linejoin:round;stroke-miterlimit:4;stroke-dashoffset:0.69999992;stroke-opacity:0.99236642"
       id="path6064"
       d="M 24.5,5.5 C 21.798121,5.5 20.393246,5.7355566 19.65625,6.03125 C 18.919254,6.3269434 18.748198,6.6268011 18.1875,7.1875 L 7.5,17.875 L 7.5,18.90625 L 7.5,19.09375 L 7.5,41.09375 C 7.5,41.355066 7.6449379,41.500001 7.90625,41.5 L 41.09375,41.5 C 41.355064,41.5 41.5,41.355064 41.5,41.09375 L 41.5,19.09375 L 41.5,18.90625 L 41.5,17.875 L 30.8125,7.1875 C 30.254438,6.6294378 30.053706,6.3277326 29.3125,6.03125 C 28.571294,5.7347674 27.190282,5.499999 24.5,5.5 z"
       transform="matrix(0.4106635,0,0,0.444986,0.5093547,5.9920417e-3)" />
  </g>
</svg>
