<?xml version="1.0" encoding="UTF-8" standalone="no"?>
<!-- Created with Inkscape (http://www.inkscape.org/) -->
<svg
   xmlns:dc="http://purl.org/dc/elements/1.1/"
   xmlns:cc="http://web.resource.org/cc/"
   xmlns:rdf="http://www.w3.org/1999/02/22-rdf-syntax-ns#"
   xmlns:svg="http://www.w3.org/2000/svg"
   xmlns="http://www.w3.org/2000/svg"
   xmlns:xlink="http://www.w3.org/1999/xlink"
   xmlns:sodipodi="http://sodipodi.sourceforge.net/DTD/sodipodi-0.dtd"
   xmlns:inkscape="http://www.inkscape.org/namespaces/inkscape"
   width="22"
   height="22"
   id="svg11055"
   sodipodi:version="0.32"
   inkscape:version="0.45"
   version="1.0"
   sodipodi:docbase="/home/lapo/Icone/svn/gnome-icon-theme/22x22/emblems"
   sodipodi:docname="emblem-default.svg"
   inkscape:export-filename="/home/andreas/project/gnome-icon-theme/22x22/emblems/emblem-default.png"
   inkscape:export-xdpi="90"
   inkscape:export-ydpi="90"
   inkscape:output_extension="org.inkscape.output.svg.inkscape"
   sodipodi:modified="true">
  <defs
     id="defs11057">
    <linearGradient
       inkscape:collect="always"
       id="linearGradient5891">
      <stop
         style="stop-color:#3a7302;stop-opacity:1"
         offset="0"
         id="stop5893" />
      <stop
         style="stop-color:#53a502;stop-opacity:1"
         offset="1"
         id="stop5895" />
    </linearGradient>
    <linearGradient
       inkscape:collect="always"
       id="linearGradient11380">
      <stop
         style="stop-color:#9de754;stop-opacity:1"
         offset="0"
         id="stop11382" />
      <stop
         style="stop-color:#6dc11b;stop-opacity:1"
         offset="1"
         id="stop11384" />
    </linearGradient>
    <radialGradient
       inkscape:collect="always"
       xlink:href="#linearGradient11380"
       id="radialGradient11386"
       cx="11.869292"
       cy="18.506054"
       fx="11.869292"
       fy="18.506054"
       r="8.8623191"
       gradientTransform="matrix(1.1924374,4.4229243e-2,-3.6356212e-2,1.1180917,-3.8551784,-3.8459553)"
       gradientUnits="userSpaceOnUse" />
    <linearGradient
       inkscape:collect="always"
       xlink:href="#linearGradient5891"
       id="linearGradient5897"
       x1="8.587862"
       y1="14.717"
       x2="8.7232141"
       y2="7.4402122"
       gradientUnits="userSpaceOnUse" />
  </defs>
  <sodipodi:namedview
     id="base"
     pagecolor="#ffffff"
     bordercolor="#666666"
     borderopacity="1.0"
     inkscape:pageopacity="0.0"
     inkscape:pageshadow="2"
     inkscape:zoom="1"
     inkscape:cx="14.255632"
     inkscape:cy="11.400999"
     inkscape:document-units="px"
     inkscape:current-layer="layer1"
     showgrid="false"
     inkscape:window-width="1674"
     inkscape:window-height="968"
     inkscape:window-x="5"
     inkscape:window-y="24"
     fill="#8ae234"
     showguides="true"
     inkscape:guide-bbox="true"
     showborder="false"
     inkscape:showpageshadow="false" />
  <metadata
     id="metadata11060">
    <rdf:RDF>
      <cc:Work
         rdf:about="">
        <dc:format>image/svg+xml</dc:format>
        <dc:type
           rdf:resource="http://purl.org/dc/dcmitype/StillImage" />
      </cc:Work>
    </rdf:RDF>
  </metadata>
  <g
     inkscape:label="Layer 1"
     inkscape:groupmode="layer"
     id="layer1">
    <path
       sodipodi:type="arc"
       style="opacity:1;fill:#cc0000;fill-opacity:1;stroke:none;stroke-width:1;stroke-linecap:butt;stroke-linejoin:miter;stroke-miterlimit:4;stroke-dasharray:1, 2;stroke-dashoffset:0;stroke-opacity:1"
       id="path11086"
       sodipodi:cx="3.0430846"
       sodipodi:cy="26.016556"
       sodipodi:rx="0.87125659"
       sodipodi:ry="0.87125659"
       d="M 3.9143412 26.016556 A 0.87125659 0.87125659 0 1 1  2.171828,26.016556 A 0.87125659 0.87125659 0 1 1  3.9143412 26.016556 z"
       transform="matrix(0.6670776,0,0,0.6681206,12.978134,-6.5418662)" />
    <path
       style="fill:url(#radialGradient11386);fill-opacity:1;fill-rule:evenodd;stroke:url(#linearGradient5897);stroke-width:1.00000036px;stroke-linecap:butt;stroke-linejoin:miter;stroke-opacity:1"
       d="M 1.0075048,11.563751 C 3.3342535,11.591277 7.7822447,19.57811 7.8763369,20.487568 L 11.502277,20.483717 C 11.526198,18.741732 17.879537,6.4791566 20.5,3.5067353 C 19.277167,3.5044903 18.000792,3.5022453 17.447657,3.5000003 C 11.959344,10.019498 9.4378203,15.525064 9.4253316,15.468618 C 9.4635592,15.492387 7.1308948,11.537806 4.8961794,11.524276 L 1.0075048,11.563751 z "
       id="path11090"
       sodipodi:nodetypes="cccccccc" />
    <path
       style="opacity:0.45;fill:none;fill-opacity:0.75;fill-rule:evenodd;stroke:#ffffff;stroke-width:0.99999988px;stroke-linecap:round;stroke-linejoin:round;stroke-opacity:1"
       d="M 4.4999998,12.885583 C 6.1980554,14.849134 7.4551974,17.065222 8.6689445,19.544642 L 10.696858,19.489176 C 12.743233,13.972008 14.195201,11.55518 17.750175,5.5"
       id="path12261"
       sodipodi:nodetypes="cccc" />
    <path
       style="opacity:0.84328362;fill:none;fill-opacity:1;fill-rule:evenodd;stroke:#ffffff;stroke-width:1;stroke-linecap:round;stroke-linejoin:miter;stroke-miterlimit:4;stroke-dasharray:none;stroke-opacity:1"
       d="M 19,4.4375 C 18.704099,4.4378017 18.09014,4.4376772 17.875,4.4375 C 15.327396,7.5091729 13.429834,10.369809 12.1875,12.4375 C 11.541476,13.512717 11.0654,14.370815 10.75,14.96875 C 10.5923,15.267717 10.455007,15.498855 10.375,15.65625 C 10.334997,15.734947 10.307142,15.794315 10.28125,15.84375 C 10.268304,15.868467 10.272477,15.899227 10.25,15.9375 C 10.238762,15.956637 10.213799,15.957173 10.15625,16.03125 C 10.141863,16.049769 10.094027,16.124714 10.09375,16.125 C 10.093473,16.125286 9.9064507,16.281132 9.90625,16.28125 C 9.9060493,16.281368 9.0938747,16.312551 9.09375,16.3125 C 9.0936287,16.31245 8.5599957,15.721773 8.53125,15.6875 C 8.5311834,15.687233 8.5556594,15.762193 8.5625,15.78125 C 8.5063237,15.68926 8.3973088,15.54644 8.28125,15.375 C 8.0491324,15.03212 7.7089211,14.580268 7.3125,14.125 C 6.5196577,13.214464 5.4811825,12.472231 4.90625,12.46875 L 3.5,12.46875"
       id="path5942"
       sodipodi:nodetypes="ccssssssssssssscc" />
  </g>
</svg>
