<?xml version="1.0" encoding="UTF-8" standalone="no"?>
<!-- Created with Inkscape (http://www.inkscape.org/) -->

<svg
   inkscape:export-ydpi="96"
   inkscape:export-xdpi="96"
   inkscape:export-filename="Template.png"
   width="680"
   height="560"
   id="svg11300"
   sodipodi:version="0.32"
   inkscape:version="1.1.1 (3bf5ae0d25, 2021-09-20)"
   sodipodi:docname="application-x-addon.svg"
   inkscape:output_extension="org.inkscape.output.svg.inkscape"
   version="1.0"
   style="display:inline;enable-background:new"
   viewBox="0 0 680 560"
   xmlns:inkscape="http://www.inkscape.org/namespaces/inkscape"
   xmlns:sodipodi="http://sodipodi.sourceforge.net/DTD/sodipodi-0.dtd"
   xmlns:xlink="http://www.w3.org/1999/xlink"
   xmlns="http://www.w3.org/2000/svg"
   xmlns:svg="http://www.w3.org/2000/svg"
   xmlns:rdf="http://www.w3.org/1999/02/22-rdf-syntax-ns#"
   xmlns:cc="http://creativecommons.org/ns#"
   xmlns:dc="http://purl.org/dc/elements/1.1/">
  <title
     id="title4162">Adwaita Icon Template</title>
  <defs
     id="defs3">
    <clipPath
       clipPathUnits="userSpaceOnUse"
       id="clipPath4501">
      <rect
         style="color:#000000;clip-rule:nonzero;display:inline;overflow:visible;visibility:visible;opacity:1;isolation:auto;mix-blend-mode:normal;color-interpolation:sRGB;color-interpolation-filters:linearRGB;solid-color:#000000;solid-opacity:1;fill:none;fill-opacity:1;fill-rule:evenodd;stroke:#000000;stroke-width:0.44161412;stroke-linecap:round;stroke-linejoin:miter;stroke-miterlimit:4;stroke-dasharray:none;stroke-dashoffset:0;stroke-opacity:1;marker:none;marker-start:none;marker-mid:none;marker-end:none;paint-order:normal;color-rendering:auto;image-rendering:auto;shape-rendering:auto;text-rendering:auto;enable-background:accumulate"
         id="rect4503"
         width="144.32666"
         height="144.32666"
         x="139.9687"
         y="-72.16333"
         transform="rotate(45)"
         rx="5.9330988"
         ry="5.9330988" />
    </clipPath>
    <linearGradient
       gradientUnits="userSpaceOnUse"
       id="linearGradient8946"
       x1="99.777298"
       x2="153.0005"
       y1="15.4238"
       y2="248.6311">
      <stop
         id="stop8948"
         offset="0"
         style="stop-color:#916398;stop-opacity:1" />
      <stop
         id="stop8952"
         offset="1"
         style="stop-color:#62a0ea;stop-opacity:1" />
    </linearGradient>
    <clipPath
       clipPathUnits="userSpaceOnUse"
       id="clipPath4102">
      <path
         d="M -140,48 -242,150 -140,252.00001 -38,150 Z"
         id="path4104"
         style="display:inline;fill:#f3ecf2;fill-opacity:1;fill-rule:nonzero;stroke:none;stroke-width:1;stroke-linecap:round;stroke-linejoin:round;stroke-miterlimit:4;stroke-opacity:1;enable-background:new"
         inkscape:connector-curvature="0" />
    </clipPath>
    <clipPath
       clipPathUnits="userSpaceOnUse"
       id="clipPath4501-7-9">
      <rect
         style="color:#000000;clip-rule:nonzero;display:inline;overflow:visible;visibility:visible;opacity:1;isolation:auto;mix-blend-mode:normal;color-interpolation:sRGB;color-interpolation-filters:linearRGB;solid-color:#000000;solid-opacity:1;fill:none;fill-opacity:1;fill-rule:evenodd;stroke:#000000;stroke-width:0.44161412;stroke-linecap:round;stroke-linejoin:miter;stroke-miterlimit:4;stroke-dasharray:none;stroke-dashoffset:0;stroke-opacity:1;marker:none;marker-start:none;marker-mid:none;marker-end:none;paint-order:normal;color-rendering:auto;image-rendering:auto;shape-rendering:auto;text-rendering:auto;enable-background:accumulate"
         id="rect4503-5-1"
         width="144.32666"
         height="144.32666"
         x="139.9687"
         y="-72.16333"
         transform="rotate(45)"
         rx="5.9330988"
         ry="5.9330988" />
    </clipPath>
    <clipPath
       clipPathUnits="userSpaceOnUse"
       id="clipPath4102-7-5">
      <path
         d="M -140,48 -242,150 -140,252.00001 -38,150 Z"
         id="path4104-3-9"
         style="display:inline;fill:#f3ecf2;fill-opacity:1;fill-rule:nonzero;stroke:none;stroke-width:1;stroke-linecap:round;stroke-linejoin:round;stroke-miterlimit:4;stroke-opacity:1;enable-background:new"
         inkscape:connector-curvature="0" />
    </clipPath>
    <clipPath
       clipPathUnits="userSpaceOnUse"
       id="clipPath4501-7-9-3">
      <rect
         style="color:#000000;clip-rule:nonzero;display:inline;overflow:visible;visibility:visible;opacity:1;isolation:auto;mix-blend-mode:normal;color-interpolation:sRGB;color-interpolation-filters:linearRGB;solid-color:#000000;solid-opacity:1;fill:none;fill-opacity:1;fill-rule:evenodd;stroke:#000000;stroke-width:0.44161412;stroke-linecap:round;stroke-linejoin:miter;stroke-miterlimit:4;stroke-dasharray:none;stroke-dashoffset:0;stroke-opacity:1;marker:none;marker-start:none;marker-mid:none;marker-end:none;paint-order:normal;color-rendering:auto;image-rendering:auto;shape-rendering:auto;text-rendering:auto;enable-background:accumulate"
         id="rect4503-5-1-6"
         width="144.32666"
         height="144.32666"
         x="139.9687"
         y="-72.16333"
         transform="rotate(45)"
         rx="5.9330988"
         ry="5.9330988" />
    </clipPath>
    <clipPath
       clipPathUnits="userSpaceOnUse"
       id="clipPath4102-7-5-1">
      <path
         d="M -140,48 -242,150 -140,252.00001 -38,150 Z"
         id="path4104-3-9-2"
         style="display:inline;fill:#f3ecf2;fill-opacity:1;fill-rule:nonzero;stroke:none;stroke-width:1;stroke-linecap:round;stroke-linejoin:round;stroke-miterlimit:4;stroke-opacity:1;enable-background:new"
         inkscape:connector-curvature="0" />
    </clipPath>
    <clipPath
       clipPathUnits="userSpaceOnUse"
       id="clipPath4501-7-9-3-4">
      <rect
         style="color:#000000;clip-rule:nonzero;display:inline;overflow:visible;visibility:visible;opacity:1;isolation:auto;mix-blend-mode:normal;color-interpolation:sRGB;color-interpolation-filters:linearRGB;solid-color:#000000;solid-opacity:1;fill:none;fill-opacity:1;fill-rule:evenodd;stroke:#000000;stroke-width:0.44161412;stroke-linecap:round;stroke-linejoin:miter;stroke-miterlimit:4;stroke-dasharray:none;stroke-dashoffset:0;stroke-opacity:1;marker:none;marker-start:none;marker-mid:none;marker-end:none;paint-order:normal;color-rendering:auto;image-rendering:auto;shape-rendering:auto;text-rendering:auto;enable-background:accumulate"
         id="rect4503-5-1-6-7"
         width="144.32666"
         height="144.32666"
         x="139.9687"
         y="-72.16333"
         transform="rotate(45)"
         rx="5.9330988"
         ry="5.9330988" />
    </clipPath>
    <clipPath
       clipPathUnits="userSpaceOnUse"
       id="clipPath4102-7-5-1-6">
      <path
         d="M -140,48 -242,150 -140,252.00001 -38,150 Z"
         id="path4104-3-9-2-2"
         style="display:inline;fill:#f3ecf2;fill-opacity:1;fill-rule:nonzero;stroke:none;stroke-width:1;stroke-linecap:round;stroke-linejoin:round;stroke-miterlimit:4;stroke-opacity:1;enable-background:new"
         inkscape:connector-curvature="0" />
    </clipPath>
    <clipPath
       clipPathUnits="userSpaceOnUse"
       id="clipPath4501-7-9-3-4-7">
      <rect
         style="color:#000000;clip-rule:nonzero;display:inline;overflow:visible;visibility:visible;opacity:1;isolation:auto;mix-blend-mode:normal;color-interpolation:sRGB;color-interpolation-filters:linearRGB;solid-color:#000000;solid-opacity:1;fill:none;fill-opacity:1;fill-rule:evenodd;stroke:#000000;stroke-width:0.44161412;stroke-linecap:round;stroke-linejoin:miter;stroke-miterlimit:4;stroke-dasharray:none;stroke-dashoffset:0;stroke-opacity:1;marker:none;marker-start:none;marker-mid:none;marker-end:none;paint-order:normal;color-rendering:auto;image-rendering:auto;shape-rendering:auto;text-rendering:auto;enable-background:accumulate"
         id="rect4503-5-1-6-7-7"
         width="144.32666"
         height="144.32666"
         x="139.9687"
         y="-72.16333"
         transform="rotate(45)"
         rx="5.9330988"
         ry="5.9330988" />
    </clipPath>
    <clipPath
       clipPathUnits="userSpaceOnUse"
       id="clipPath4102-7-5-1-6-9">
      <path
         d="M -140,48 -242,150 -140,252.00001 -38,150 Z"
         id="path4104-3-9-2-2-2"
         style="display:inline;fill:#f3ecf2;fill-opacity:1;fill-rule:nonzero;stroke:none;stroke-width:1;stroke-linecap:round;stroke-linejoin:round;stroke-miterlimit:4;stroke-opacity:1;enable-background:new"
         inkscape:connector-curvature="0" />
    </clipPath>
    <clipPath
       clipPathUnits="userSpaceOnUse"
       id="clipPath18689">
      <rect
         clip-path="none"
         transform="rotate(45)"
         ry="32.000008"
         rx="32.000008"
         y="123.9986"
         x="486.03726"
         height="362.94299"
         width="362.94299"
         id="rect18691"
         style="display:inline;opacity:1;vector-effect:none;fill:#4a86cf;fill-opacity:1;stroke:none;stroke-width:26.06693268;stroke-linecap:butt;stroke-linejoin:miter;stroke-miterlimit:4;stroke-dasharray:none;stroke-dashoffset:0;stroke-opacity:1;marker:none;marker-start:none;marker-mid:none;marker-end:none;paint-order:normal;enable-background:new" />
    </clipPath>
    <clipPath
       clipPathUnits="userSpaceOnUse"
       id="clipPath18689-3">
      <rect
         clip-path="none"
         transform="rotate(45)"
         ry="32.000008"
         rx="32.000008"
         y="123.9986"
         x="486.03726"
         height="362.94299"
         width="362.94299"
         id="rect18691-6"
         style="display:inline;opacity:1;vector-effect:none;fill:#4a86cf;fill-opacity:1;stroke:none;stroke-width:26.06693268;stroke-linecap:butt;stroke-linejoin:miter;stroke-miterlimit:4;stroke-dasharray:none;stroke-dashoffset:0;stroke-opacity:1;marker:none;marker-start:none;marker-mid:none;marker-end:none;paint-order:normal;enable-background:new" />
    </clipPath>
    <inkscape:path-effect
       effect="spiro"
       id="path-effect1364"
       is_visible="true" />
    <inkscape:path-effect
       is_visible="true"
       id="path-effect1370"
       effect="spiro" />
    <inkscape:path-effect
       effect="spiro"
       id="path-effect1364-8"
       is_visible="true" />
    <linearGradient
       inkscape:collect="always"
       xlink:href="#linearGradient1394"
       id="linearGradient1396"
       x1="29.198092"
       y1="17.015732"
       x2="120.08352"
       y2="90.356888"
       gradientUnits="userSpaceOnUse" />
    <linearGradient
       inkscape:collect="always"
       id="linearGradient1394">
      <stop
         style="stop-color:#1a5fb4;stop-opacity:1;"
         offset="0"
         id="stop1390" />
      <stop
         id="stop1398"
         offset="0.07734802"
         style="stop-color:#1a5fb4;stop-opacity:1;" />
      <stop
         style="stop-color:#1a5fb4;stop-opacity:1;"
         offset="0.13724978"
         id="stop1400" />
      <stop
         id="stop1402"
         offset="0.16721596"
         style="stop-color:#1a5fb4;stop-opacity:1;" />
      <stop
         style="stop-color:#1a5fb4;stop-opacity:1;"
         offset="0.36419758"
         id="stop1404" />
      <stop
         id="stop1406"
         offset="0.40697584"
         style="stop-color:#1a5fb4;stop-opacity:1;" />
      <stop
         style="stop-color:#1a5fb4;stop-opacity:1;"
         offset="0.49265456"
         id="stop1408" />
      <stop
         id="stop1410"
         offset="0.5761317"
         style="stop-color:#1a5fb4;stop-opacity:1;" />
      <stop
         style="stop-color:#1a5fb4;stop-opacity:1;"
         offset="0.60609788"
         id="stop1412" />
      <stop
         id="stop1414"
         offset="0.68104386"
         style="stop-color:#1a5fb4;stop-opacity:1;" />
      <stop
         style="stop-color:#1a5fb4;stop-opacity:1;"
         offset="0.78384614"
         id="stop1416" />
      <stop
         style="stop-color:#1a5fb4;stop-opacity:1"
         offset="1"
         id="stop1392" />
    </linearGradient>
    <inkscape:path-effect
       is_visible="true"
       id="path-effect1370-6"
       effect="spiro" />
    <linearGradient
       inkscape:collect="always"
       xlink:href="#linearGradient8946"
       id="linearGradient3205"
       x1="592"
       y1="-154"
       x2="592.98438"
       y2="-167.77032"
       gradientUnits="userSpaceOnUse"
       gradientTransform="matrix(1,0,0,0.9883529,0,-1.7852748)" />
    <filter
       inkscape:collect="always"
       style="color-interpolation-filters:sRGB"
       id="filter3253"
       x="-0.020977817"
       width="1.0419556"
       y="-0.024968855"
       height="1.0499377">
      <feGaussianBlur
         inkscape:collect="always"
         stdDeviation="1.0888581"
         id="feGaussianBlur3255" />
    </filter>
    <linearGradient
       inkscape:collect="always"
       xlink:href="#linearGradient8946"
       id="linearGradient22436"
       gradientUnits="userSpaceOnUse"
       gradientTransform="matrix(1,0,0,0.9883529,0,-1.7852748)"
       x1="585.85352"
       y1="-87.351753"
       x2="585.85352"
       y2="-100.87794" />
    <linearGradient
       inkscape:collect="always"
       xlink:href="#linearGradient8946"
       id="linearGradient22742"
       gradientUnits="userSpaceOnUse"
       gradientTransform="matrix(1,0,0,0.9883529,0,-1.7852748)"
       x1="579.8584"
       y1="-39.394257"
       x2="579.8584"
       y2="-48.589737" />
    <linearGradient
       inkscape:collect="always"
       xlink:href="#linearGradient8946"
       id="linearGradient22920"
       gradientUnits="userSpaceOnUse"
       gradientTransform="matrix(1,0,0,0.9883529,0,-1.7852748)"
       x1="582.73633"
       y1="3.6204112"
       x2="582.73633"
       y2="-3.2219779" />
  </defs>
  <sodipodi:namedview
     stroke="#ef2929"
     fill="#f57900"
     id="base"
     pagecolor="#ffffff"
     bordercolor="#666666"
     borderopacity="0.25490196"
     inkscape:pageopacity="0.0"
     inkscape:pageshadow="2"
     inkscape:zoom="1"
     inkscape:cx="374.29903"
     inkscape:cy="259.06707"
     inkscape:current-layer="layer9"
     showgrid="false"
     inkscape:grid-bbox="true"
     inkscape:document-units="px"
     inkscape:showpageshadow="false"
     inkscape:window-width="3440"
     inkscape:window-height="1376"
     inkscape:window-x="0"
     inkscape:window-y="27"
     width="400px"
     height="300px"
     inkscape:snap-nodes="true"
     inkscape:snap-bbox="true"
     objecttolerance="7"
     gridtolerance="12"
     guidetolerance="13"
     inkscape:window-maximized="1"
     inkscape:pagecheckerboard="false"
     showguides="false"
     inkscape:guide-bbox="true"
     inkscape:locked="false"
     inkscape:measure-start="0,0"
     inkscape:measure-end="0,0"
     inkscape:object-nodes="true"
     inkscape:bbox-nodes="true">
    <inkscape:grid
       type="xygrid"
       id="grid5883"
       spacingx="1px"
       spacingy="1px"
       enabled="true"
       visible="true"
       empspacing="4" />
  </sodipodi:namedview>
  <metadata
     id="metadata4">
    <rdf:RDF>
      <cc:Work
         rdf:about="">
        <dc:format>image/svg+xml</dc:format>
        <dc:type
           rdf:resource="http://purl.org/dc/dcmitype/StillImage" />
        <dc:creator>
          <cc:Agent>
            <dc:title>GNOME Design Team</dc:title>
          </cc:Agent>
        </dc:creator>
        <dc:source />
        <cc:license
           rdf:resource="http://creativecommons.org/licenses/by-sa/4.0/" />
        <dc:title>Adwaita Icon Template</dc:title>
        <dc:subject>
          <rdf:Bag />
        </dc:subject>
        <dc:date />
        <dc:rights>
          <cc:Agent>
            <dc:title />
          </cc:Agent>
        </dc:rights>
        <dc:publisher>
          <cc:Agent>
            <dc:title />
          </cc:Agent>
        </dc:publisher>
        <dc:identifier />
        <dc:relation />
        <dc:language />
        <dc:coverage />
        <dc:description />
        <dc:contributor>
          <cc:Agent>
            <dc:title />
          </cc:Agent>
        </dc:contributor>
      </cc:Work>
      <cc:License
         rdf:about="http://creativecommons.org/licenses/by-sa/4.0/">
        <cc:permits
           rdf:resource="http://creativecommons.org/ns#Reproduction" />
        <cc:permits
           rdf:resource="http://creativecommons.org/ns#Distribution" />
        <cc:requires
           rdf:resource="http://creativecommons.org/ns#Notice" />
        <cc:requires
           rdf:resource="http://creativecommons.org/ns#Attribution" />
        <cc:permits
           rdf:resource="http://creativecommons.org/ns#DerivativeWorks" />
        <cc:requires
           rdf:resource="http://creativecommons.org/ns#ShareAlike" />
      </cc:License>
    </rdf:RDF>
  </metadata>
  <g
     id="layer1"
     inkscape:label="artwork:application-x-executable"
     inkscape:groupmode="layer"
     style="display:inline"
     transform="translate(0,260)">
    <g
       inkscape:groupmode="layer"
       id="layer7"
       inkscape:label="baseplate"
       style="display:none"
       sodipodi:insensitive="true">
      <rect
         inkscape:label="48x48"
         y="-196"
         x="568"
         height="48"
         width="48"
         id="rect6284"
         style="display:inline;overflow:visible;visibility:visible;fill:#eeeeec;fill-opacity:1;fill-rule:nonzero;stroke:none;stroke-width:2;marker:none;enable-background:accumulate" />
      <rect
         style="display:inline;overflow:visible;visibility:visible;fill:#eeeeec;fill-opacity:1;fill-rule:nonzero;stroke:none;stroke-width:2;marker:none;enable-background:accumulate"
         id="rect6592"
         width="32"
         height="32"
         x="568"
         y="-116"
         inkscape:label="32x32" />
      <rect
         inkscape:label="22x22"
         y="-58.941162"
         x="569"
         height="22"
         width="22"
         id="rect6749"
         style="display:inline;overflow:visible;visibility:visible;fill:#eeeeec;fill-opacity:1;fill-rule:nonzero;stroke:none;stroke-width:2;marker:none;enable-background:accumulate" />
      <rect
         style="display:inline;overflow:visible;visibility:visible;fill:#eeeeec;fill-opacity:1;fill-rule:nonzero;stroke:none;stroke-width:2;marker:none;enable-background:accumulate"
         id="rect6833"
         width="16"
         height="16"
         x="568"
         y="-12"
         inkscape:label="16x16" />
      <rect
         style="display:inline;overflow:visible;visibility:visible;fill:#eeeeec;fill-opacity:1;fill-rule:nonzero;stroke:none;stroke-width:2;marker:none;enable-background:accumulate"
         id="rect8104"
         width="24"
         height="24"
         x="568"
         y="-60"
         inkscape:label="24x24" />
      <text
         xml:space="preserve"
         style="font-style:normal;font-variant:normal;font-weight:normal;font-stretch:normal;font-size:18.3013px;line-height:125%;font-family:Cantarell;-inkscape-font-specification:'Cantarell, Normal';text-align:start;writing-mode:lr-tb;text-anchor:start;display:inline;fill:#000000;fill-opacity:1;stroke:none;enable-background:new"
         x="31.855944"
         y="-303.69958"
         id="context"
         inkscape:label="context"><tspan
           sodipodi:role="line"
           id="tspan2716"
           x="31.855944"
           y="-303.69958">mimetypes</tspan></text>
      <text
         inkscape:label="icon-name"
         id="text3021"
         y="-277.90063"
         x="31.264769"
         style="font-style:normal;font-variant:normal;font-weight:bold;font-stretch:normal;font-size:18.3013px;line-height:22.8767px;font-family:Cantarell;-inkscape-font-specification:'Cantarell, Bold';text-align:start;writing-mode:lr-tb;text-anchor:start;display:inline;fill:#000000;fill-opacity:1;stroke:none;enable-background:new"
         xml:space="preserve"><tspan
           y="-277.90063"
           x="31.264769"
           id="tspan3023"
           sodipodi:role="line">application-x-addon</tspan></text>
      <rect
         style="display:inline;overflow:visible;visibility:visible;fill:#eeeeec;fill-opacity:1;fill-rule:nonzero;stroke:none;stroke-width:2;marker:none;enable-background:accumulate"
         id="rect13805"
         width="512"
         height="512"
         x="24"
         y="-236"
         inkscape:label="512x512" />
      <path
         inkscape:connector-curvature="0"
         id="path13807"
         d="m 24,-236 v 512 h 511.875 v -512 h -36 V 240 H 60 v -476 z"
         style="display:inline;overflow:visible;visibility:visible;opacity:0.4;fill:#729fcf;fill-opacity:1;fill-rule:nonzero;stroke:none;stroke-width:2;marker:none;enable-background:accumulate"
         sodipodi:nodetypes="ccccccccc" />
    </g>
    <g
       inkscape:groupmode="layer"
       id="layer9"
       inkscape:label="icons"
       style="display:inline">
      <g
         transform="matrix(3.0766962,-2.5561574,2.5561574,3.0766962,-71.99765,0.710693)"
         id="g1368"
         style="display:inline;fill:url(#linearGradient1396);fill-opacity:1;stroke-width:0.25;enable-background:new"
         inkscape:path-effect="#path-effect1370-6">
        <path
           sodipodi:nodetypes="ccsssssscssssscsscccscsccscscscsscsccccccssccccsccssssccsscccsscsssssssscssscc"
           inkscape:connector-curvature="0"
           inkscape:original-d="m 29.965104,34.36372 c 0,0 4.705612,0.24464 -2.6e-4,3.999561 l 2.039062,17.748047 c 0.417989,3.638188 1.04403,7.284617 0.844249,10.941283 -0.09989,1.828334 -0.456257,3.671187 -1.310434,5.290805 -0.854176,1.619618 -2.258992,3.006591 -4.008424,3.547209 -1.040937,0.321675 -2.159735,0.334099 -3.235951,0.164444 -1.076217,-0.169655 -2.116593,-0.516102 -3.13533,-0.902366 -2.037474,-0.772529 -0.07536,-1.724323 -2.253719,-1.777703 -1.452202,-0.03559 -2.906897,0.342365 -4.179079,1.043586 -1.272182,0.701222 -2.361715,1.720785 -3.1813,2.920135 -1.6391695,2.398698 -2.1563242,5.465979 -1.7118868,8.33706 0.3349448,2.163755 1.2123848,4.2726 2.6868048,5.891274 1.47442,1.618675 3.606625,3.166503 5.760461,2.772789 2.301577,-0.42072 3.989768,-3.543158 8.28217,-2.393533 1.455363,0.406991 3.243257,1.221682 4.104657,2.463339 0.861401,1.241658 1.343701,2.720767 1.533165,4.220042 0.378926,2.998548 -2.982041,27.342618 -2.982041,27.342618 0,0 -0.191577,-3.50162 -4.51e-4,4.00035 5.39092,2.4861 15.069896,4.34691 20.886719,5.5332 2.35099,0.47946 4.806199,0.84631 7.129867,0.24831 1.161835,-0.299 2.272101,-0.84453 3.151352,-1.66072 0.879251,-0.8162 1.721888,-3.89415 1.691437,-5.09345 L 62,126 c -0.265248,-0.85182 -0.851415,0.69848 -1.284676,-0.0814 -0.866522,-1.55979 -1.881092,-3.09162 -2.215324,-4.84436 -0.297433,-1.55976 -0.01885,-3.2067 0.683347,-4.63087 0.702194,-1.42417 1.813737,-2.6288 3.119384,-3.53247 2.611294,-1.80734 5.892736,-2.38799 9.068363,-2.41479 2.910084,-0.0246 5.919137,0.41223 8.38858,1.95205 1.234721,0.76991 2.311934,1.81187 3.040863,3.07122 0.728929,1.25934 1.097958,2.73997 0.951416,4.18767 -0.112708,1.11345 -0.520632,2.17763 -1.019002,3.17968 C 82.234582,123.88876 80.512608,125.00516 80,126 c 0,0 0.18085,1.88115 0.02062,2.98876 -0.160226,1.10761 -0.02465,2.28472 0.545782,3.24757 0.406225,0.68567 1.015021,1.23583 1.69136,1.65742 0.676339,0.42158 1.421151,0.72133 2.173875,0.9832 4.216271,1.4668 8.824663,1.78882 13.203956,0.92265 4.379297,-0.86616 12.518117,-2.91827 15.858547,-5.87968 l -7.6e-4,-4.00004 c -0.44771,-3.35161 -3.63377,-22.09098 -3.43337,-25.46641 0.1002,-1.687714 3.01472,-6.257523 3.89302,-7.702173 4.92574,-8.101938 7.96375,1.486232 10.32822,1.617847 1.49143,0.05636 2.99254,-0.276971 4.33262,-0.934034 1.34007,-0.657064 5.45569,-6.697046 5.43387,-9.00063 l 0.17296,-2.260649 c -0.31651,-2.410193 -1.3659,-4.742784 -3.0735,-6.472906 -1.7076,-1.730123 -4.08358,-2.822596 -6.51439,-2.841547 -2.31043,-0.01801 -0.51072,0.889631 -2.70454,1.614622 -1.0969,0.362495 -2.21391,0.683441 -3.36079,0.822263 -1.14688,0.138822 -2.33015,0.09028 -3.42686,-0.272822 -1.47213,-0.487396 -2.72874,-1.531283 -3.60043,-2.813815 -0.87169,-1.282532 -1.37367,-2.793264 -1.5907,-4.328722 -0.43406,-3.070915 -0.29002,-7.242276 0.2648,-10.293685 1.27677,-7.021953 1.28714,-12.83705 1.3404,-19.973935 -5.87261,-2.358838 -14.84666,-4.247356 -21.115241,-5.117187 -2.330132,-0.32333 -6.058697,-1.32783 -8.283582,-0.563668 -1.112443,0.382081 -2.930197,1.894514 -2.930197,1.894514 l 8.88e-4,3.999232 c -0.01259,0.82582 0.208796,1.643599 0.554492,2.393687 0.345697,0.750088 0.813292,1.437703 1.311687,2.096293 0.996789,1.31718 2.142405,2.561913 2.764681,4.092051 0.682434,1.678062 0.66693,3.606132 0.07149,5.316998 -0.595434,1.710867 -1.748271,3.20417 -3.17928,4.314945 -1.431008,1.110776 -3.131655,1.848918 -4.895624,2.261254 -1.763969,0.412335 -3.592151,0.506016 -5.400888,0.405631 -2.925073,-0.162341 -5.909527,-0.87226 -8.250188,-2.633995 -1.17033,-0.880868 -2.158977,-2.018258 -2.790824,-3.339762 -0.631847,-1.321503 -0.896623,-2.829412 -0.667972,-4.276243 0.310724,-1.966157 1.476482,-3.670033 2.446947,-5.407997 0.485233,-0.868982 1.373523,-3.513125 1.385784,-4.508329 L 62.632807,34 c 0,0 -0.945317,1.475066 -1.696638,0.777099 -0.751321,-0.697966 -1.670561,-1.200805 -2.638841,-1.538555 -1.93656,-0.675499 -4.030009,-0.698831 -6.080536,-0.742447 -0.511017,-0.01087 -13.928324,1.75781 -14.439453,1.75977 z"
           id="path3149"
           d="m 29.965104,34.36372 -2.6e-4,3.999561 2.039062,17.748047 c 0.418018,3.638441 1.053046,7.284864 0.844249,10.941283 -0.104364,1.827614 -0.465909,3.666662 -1.310434,5.290805 -0.423207,0.813887 -0.967455,1.5697 -1.642532,2.190818 -0.675078,0.621117 -1.483634,1.105121 -2.365892,1.356391 -1.044822,0.297568 -2.154075,0.263153 -3.235951,0.164444 -1.095369,-0.09994 -2.228617,-0.279715 -3.13533,-0.902366 -0.396092,-0.272001 -0.733679,-0.618831 -1.0852,-0.946407 C 19.721295,73.87872 19.346122,73.56385 18.904297,73.375 c -0.69043,-0.295111 -1.489834,-0.253389 -2.204309,-0.0225 -0.714475,0.230889 -1.358059,0.637773 -1.97477,1.066086 -1.187635,0.824825 -2.32102,1.757924 -3.1813,2.920135 -1.7346807,2.343498 -2.2033765,5.463118 -1.7118868,8.33706 0.3683488,2.153886 1.2580328,4.23794 2.6868048,5.891274 0.721846,0.835299 1.582004,1.560215 2.565305,2.062116 0.983301,0.501901 2.09305,0.775078 3.195156,0.710673 1.446947,-0.08456 2.791846,-0.731266 4.113455,-1.326374 1.321609,-0.595108 2.722314,-1.160582 4.168715,-1.067159 0.824156,0.05323 1.630098,0.324119 2.333553,0.756807 0.703454,0.432687 1.304887,1.024836 1.771104,1.706532 0.850795,1.24402 1.236436,2.742413 1.533165,4.220042 1.833712,9.131388 0.776924,18.821178 -2.982041,27.342618 l -4.51e-4,4.00035 c 6.815623,2.34812 13.802483,4.19904 20.886719,5.5332 2.356066,0.44371 4.803537,0.82806 7.129867,0.24831 1.165227,-0.29039 2.283689,-0.83051 3.151352,-1.66072 0.669093,-0.64021 1.17307,-1.45278 1.438718,-2.3399 0.265648,-0.88713 0.276224,-1.82781 0.252719,-2.75355 L 62,126 c -0.425112,0.089 -0.874197,0.0605 -1.284676,-0.0814 -0.448827,-0.1552 -0.846569,-0.44301 -1.159205,-0.80049 -0.312636,-0.35748 -0.542279,-0.78301 -0.700679,-1.23072 -0.3168,-0.89542 -0.350373,-1.86336 -0.35544,-2.81315 -0.0084,-1.57186 0.06161,-3.18717 0.683347,-4.63087 0.630083,-1.46308 1.793367,-2.64969 3.119384,-3.53247 2.640465,-1.75786 5.896531,-2.3747 9.068363,-2.41479 2.910403,-0.0368 5.917946,0.4133 8.38858,1.95205 1.235347,0.7694 2.316455,1.80897 3.040863,3.07122 0.723609,1.26086 1.077567,2.7394 0.951416,4.18767 -0.0973,1.11703 -0.474081,2.19974 -1.019002,3.17968 C 82.056756,124.10274 81.118151,125.17196 80,126 c 0.01141,0.99622 0.01829,1.99248 0.02062,2.98876 0.0013,0.55497 0.0013,1.11166 0.07019,1.66234 0.0689,0.55068 0.209048,1.09845 0.475595,1.58523 0.38348,0.70032 1.010241,1.24079 1.69136,1.65742 0.679755,0.4158 1.421205,0.72158 2.173875,0.9832 4.207918,1.46261 8.795772,1.56587 13.203956,0.92265 5.620007,-0.82004 11.062297,-2.83781 15.858547,-5.87968 l -7.6e-4,-4.00004 c -2.9618,-8.10871 -4.14202,-16.86285 -3.43337,-25.46641 0.12444,-1.510758 0.31198,-3.039509 0.89243,-4.439849 0.29023,-0.700169 0.67862,-1.363307 1.18093,-1.930892 0.50231,-0.567584 1.12079,-1.038096 1.81966,-1.331432 0.81882,-0.343681 1.72788,-0.436727 2.61322,-0.36779 0.88534,0.06894 1.75154,0.294637 2.59628,0.568471 1.6895,0.547667 3.34666,1.298286 5.11872,1.417166 1.49166,0.100069 2.99673,-0.262871 4.33262,-0.934034 1.65137,-0.829661 3.06092,-2.133895 4.01607,-3.715998 0.95515,-1.582104 1.45277,-3.436893 1.4178,-5.284632 l 0.17296,-2.260649 c -0.52769,-2.349795 -1.58608,-4.578816 -3.0735,-6.472906 -0.78344,-0.997637 -1.7039,-1.917597 -2.83285,-2.495992 -0.56447,-0.289197 -1.1774,-0.489425 -1.80784,-0.558831 -0.63043,-0.06941 -1.27853,-0.0059 -1.8737,0.213276 -0.98739,0.363597 -1.77332,1.124748 -2.70454,1.614622 -1.028,0.540788 -2.2025,0.734987 -3.36079,0.822263 -1.14968,0.08663 -2.32683,0.07246 -3.42686,-0.272822 -1.48175,-0.465094 -2.74144,-1.519968 -3.60043,-2.813815 -0.85655,-1.290169 -1.33238,-2.801804 -1.5907,-4.328722 -0.57458,-3.396224 -0.11653,-6.870373 0.2648,-10.293685 0.73898,-6.634069 1.18635,-13.300613 1.3404,-19.973935 -7.07458,-1.551607 -14.115233,-3.257879 -21.115241,-5.117187 -1.358053,-0.360719 -2.720385,-0.728335 -4.115832,-0.893117 -1.395448,-0.164782 -2.836462,-0.120104 -4.16775,0.329449 -1.113372,0.375967 -2.130411,1.033531 -2.930197,1.894514 l 8.88e-4,3.999232 c 9.2e-5,0.414547 0.01544,0.831948 0.109581,1.235664 0.09414,0.403716 0.258224,0.787892 0.444911,1.158023 0.371648,0.73684 0.82185,1.432128 1.311687,2.096293 0.980192,1.329032 2.137185,2.56452 2.764681,4.092051 0.688531,1.67611 0.668736,3.606233 0.07149,5.316998 -0.597046,1.710192 -1.748631,3.203882 -3.17928,4.314945 -1.430747,1.11114 -3.131633,1.848939 -4.895624,2.261254 -1.763982,0.412313 -3.592163,0.506364 -5.400888,0.405631 -2.924856,-0.162893 -5.90787,-0.874773 -8.250188,-2.633995 -1.171423,-0.879809 -2.162766,-2.016191 -2.790824,-3.339762 -0.627529,-1.322455 -0.881171,-2.828063 -0.667972,-4.276243 0.290351,-1.972237 1.398058,-3.712752 2.446947,-5.407997 0.421017,-0.680459 0.830902,-1.376827 1.076601,-2.138346 0.245699,-0.761519 0.299325,-1.569869 0.309183,-2.369983 L 62.632807,34 c -0.19011,0.264009 -0.449752,0.477476 -0.745537,0.612953 -0.295785,0.135476 -0.627017,0.192642 -0.951101,0.164146 -0.514263,-0.04522 -0.988027,-0.299003 -1.407482,-0.599948 -0.419456,-0.300946 -0.800924,-0.653586 -1.231359,-0.938607 -0.871375,-0.576998 -1.915429,-0.854928 -2.957642,-0.932472 -1.042213,-0.07754 -2.089173,0.03627 -3.122894,0.190025 -2.402529,0.357356 -4.77251,0.911933 -7.175826,1.263965 -2.403315,0.352032 -4.834898,0.462275 -7.263627,0.495805 z"
           style="opacity:0.4;vector-effect:none;fill:#000000;fill-opacity:1;fill-rule:nonzero;stroke:none;stroke-width:1.62918317;stroke-linecap:butt;stroke-linejoin:miter;stroke-miterlimit:4;stroke-dasharray:none;stroke-dashoffset:0;stroke-opacity:1;marker:none;marker-start:none;marker-mid:none;marker-end:none;paint-order:normal;filter:url(#filter3253)"
           transform="rotate(39.720222,96.882532,60.981748)" />
      </g>
      <path
         style="display:inline;fill:#1a5fb4;fill-opacity:1;fill-rule:nonzero;stroke:none;stroke-width:1;enable-background:new"
         d="m 111.89663,-163.83578 -0.006,15.9982 8.13508,70.994629 c 1.66775,14.554271 4.20349,29.140726 3.36432,43.766119 -0.41965,7.310337 -1.86803,14.666098 -5.24805,21.161658 -1.69378,3.2550446 -3.87167,6.2776448 -6.5727,8.7613073 -2.70115,2.4836613 -5.93591,4.4187142 -9.46529,5.4227534 C 97.92456,3.4579041 93.487615,3.3189106 89.160248,2.9227822 84.778883,2.5217227 80.246114,1.8012727 76.619974,-0.6904143 75.035965,-1.7788919 73.686006,-3.1665755 72.280312,-4.4773258 70.874624,-5.7880582 69.374287,-7.0479853 67.607214,-7.8039078 64.845826,-8.9851231 61.648168,-8.8191932 58.79,-7.8965348 c -2.858161,0.9226953 -5.432969,2.5494592 -7.90033,4.261977 -4.751528,3.2978932 -9.286174,7.0289369 -12.728678,11.6767444 -6.941508,9.3719204 -8.820026,21.8498454 -6.857488,33.3462114 1.470823,8.615986 5.027072,16.95325 10.740194,23.568285 2.886392,3.342059 6.326143,6.242765 10.258761,8.251532 3.932602,2.008785 8.371278,3.102806 12.779785,2.846503 5.787868,-0.336487 11.168234,-2.921737 16.455378,-5.30059 5.287165,-2.378859 10.890638,-4.639084 16.676138,-4.263668 3.29656,0.213902 6.51999,1.298408 9.3333,3.03001 2.81331,1.731587 5.21833,4.100905 7.08237,6.828243 3.40171,4.977083 4.9425,10.971124 6.12768,16.881972 7.32394,36.527755 3.08525,75.285675 -11.96084,109.366945 l -0.007,16.00137 c 27.25964,9.40064 55.2049,16.81266 83.54027,22.15775 9.42367,1.77764 19.21315,3.31795 28.51914,1.00171 4.66122,-1.16018 9.13578,-3.31933 12.60739,-6.63911 2.67711,-2.56004 4.69404,-5.80974 5.75767,-9.35788 1.06363,-3.54822 1.10704,-7.31094 1.01416,-11.0139 l -0.30101,-12.00007 c -1.70056,0.35544 -3.49686,0.24105 -5.13862,-0.32718 -1.79513,-0.62132 -3.38573,-1.77299 -4.63585,-3.20335 -1.25009,-1.43026 -2.16821,-3.13264 -2.80124,-4.92369 -1.26616,-3.58205 -1.39928,-7.45382 -1.41844,-11.25304 -0.0316,-6.28744 0.25026,-12.74859 2.73891,-18.52266 2.5221,-5.85154 7.17663,-10.59662 12.48176,-14.12612 10.56396,-7.02834 23.58896,-9.4918 36.27635,-9.64836 11.64163,-0.14385 23.67131,1.66024 33.55198,7.81822 4.9405,3.07901 9.2637,7.23859 12.15981,12.2885 2.89291,5.04428 4.30701,10.95888 3.80066,16.75178 -0.39056,4.46802 -1.89893,8.79842 -4.0798,12.71754 -2.70623,4.8632 -6.46198,9.13898 -10.93554,12.4498 0.0437,3.98491 0.0705,7.96994 0.0784,11.9551 0.005,2.21984 0.004,4.44662 0.2789,6.6494 0.27505,2.2028 0.83488,4.39406 1.90048,6.34151 1.5331,2.80173 4.03946,4.96434 6.76348,6.6317 2.71852,1.664 5.68393,2.888 8.69433,3.93532 16.82992,5.85545 35.18121,6.27396 52.81473,3.70633 22.48098,-3.27346 44.25255,-11.33801 63.44119,-23.49976 l 0.002,-16.00016 c -11.83762,-32.4383 -16.54807,-67.45629 -13.70321,-101.86971 0.49957,-6.042894 1.25151,-12.157649 3.57502,-17.758334 1.16177,-2.800331 2.71613,-5.452402 4.72601,-7.722147 2.00994,-2.269769 4.48441,-4.151054 7.2802,-5.323565 3.27571,-1.373751 6.91209,-1.744843 10.45339,-1.468037 3.54125,0.276809 7.0058,1.180641 10.3844,2.27697 6.75737,2.192681 13.38508,5.197109 20.47317,5.674778 5.96654,0.402057 11.98725,-1.047978 17.33163,-3.730971 6.60647,-3.316692 12.2462,-8.531947 16.0687,-14.859208 3.82249,-6.327268 5.81517,-13.745828 5.67751,-21.136834 l 0.69455,-9.042387 c -2.1079,-9.399807 -6.3388,-18.3171544 -12.2862,-25.8952868 -3.1326,-3.991478 -6.81335,-7.6724205 -11.32842,-9.9873457 -2.25757,-1.1574605 -4.70902,-1.9591015 -7.23077,-2.2374805 -2.5216,-0.278389 -5.11405,-0.02512 -7.49498,0.850872 -3.95002,1.45321 -7.09465,4.496876 -10.82008,6.4552593 -4.11269,2.1619292 -8.81089,2.9373236 -13.44414,3.2850437000002 C 461.65833,0.34518395 456.94975,0.28703693 452.55002,-1.0953852 c -5.9264,-1.862139 -10.96394,-6.0831301 -14.39835,-11.2595488 -3.42467,-5.161699 -5.32619,-11.208806 -6.35764,-17.31679 -2.29427,-13.585578 -0.45789,-27.481626 1.07144,-41.17442 2.96388,-26.535373 4.76129,-53.201016 5.38544,-79.894146 -28.29645,-6.21485 -56.45701,-13.0483 -84.45486,-20.49388 -5.43172,-1.44454 -10.88066,-2.91661 -16.46225,-3.5774 -5.58156,-0.66079 -11.34569,-0.48381 -16.67136,1.31266 -4.45397,1.50253 -8.52292,4.13161 -11.72307,7.57457 l -9.7e-4,15.99702 c -9e-5,1.6581 0.061,3.32768 0.43687,4.94271 0.37611,1.61496 1.03199,3.15185 1.77826,4.63265 1.48574,2.94778 3.28571,5.72946 5.24428,8.38669 3.9192,5.31733 8.54565,10.2606 11.05382,16.37152 2.75213,6.70526 2.67066,14.42572 0.27958,21.268077 -2.39017,6.840043 -6.99831,12.813438 -12.72225,17.255977 -5.72432,4.442853 -12.52873,7.392024 -19.58519,9.039181 -7.05644,1.64715 -14.36927,2.021164 -21.604,1.616084 -11.69924,-0.655059 -23.63045,-3.506123 -32.99766,-10.545808 -4.68464,-3.520637 -8.64864,-8.067347 -11.15927,-13.362387 -2.50856,-5.290565 -3.52134,-11.313284 -2.66679,-17.105764 1.16375,-7.88858 5.59664,-14.84929 9.79424,-21.62905 1.68482,-2.72135 3.32523,-5.50635 4.30892,-8.5521 0.98371,-3.04579 1.19922,-6.27913 1.23955,-9.47958 l 0.22922,-18.16274 c -0.7608,1.05579 -1.79961,1.90934 -2.98287,2.45091 -1.18333,0.54152 -2.5083,0.76984 -3.80464,0.65544 -2.057,-0.1815 -3.95174,-1.1972 -5.62921,-2.4015 -1.67744,-1.20424 -3.20289,-2.61526 -4.92432,-3.75588 -3.48481,-2.309 -7.66068,-3.42202 -11.82948,-3.73341 -4.16875,-0.31136 -8.3567,0.14278 -12.49177,0.75641 -9.61057,1.42652 -19.09113,3.64203 -28.70479,5.04729 -9.61372,1.40524 -19.34018,1.84327 -29.05512,1.97452 z"
         id="path1366"
         inkscape:original-d="m 29.965104,34.36372 c 0,0 4.705612,0.24464 -2.6e-4,3.999561 l 2.039062,17.748047 c 0.417989,3.638188 1.04403,7.284617 0.844249,10.941283 -0.09989,1.828334 -0.456257,3.671187 -1.310434,5.290805 -0.854176,1.619618 -2.258992,3.006591 -4.008424,3.547209 -1.040937,0.321675 -2.159735,0.334099 -3.235951,0.164444 -1.076217,-0.169655 -2.116593,-0.516102 -3.13533,-0.902366 -2.037474,-0.772529 -0.07536,-1.724323 -2.253719,-1.777703 -1.452202,-0.03559 -2.906897,0.342365 -4.179079,1.043586 -1.272182,0.701222 -2.361715,1.720785 -3.1813,2.920135 -1.6391695,2.398698 -2.1563242,5.465979 -1.7118868,8.33706 0.3349448,2.163755 1.2123848,4.2726 2.6868048,5.891274 1.47442,1.618675 3.606625,3.166503 5.760461,2.772789 2.301577,-0.42072 3.989768,-3.543158 8.28217,-2.393533 1.455363,0.406991 3.243257,1.221682 4.104657,2.463339 0.861401,1.241658 1.343701,2.720767 1.533165,4.220042 0.378926,2.998548 -2.982041,27.342618 -2.982041,27.342618 0,0 -0.191577,-3.50162 -4.51e-4,4.00035 5.39092,2.4861 15.069896,4.34691 20.886719,5.5332 2.35099,0.47946 4.806199,0.84631 7.129867,0.24831 1.161835,-0.299 2.272101,-0.84453 3.151352,-1.66072 0.879251,-0.8162 1.721888,-3.89415 1.691437,-5.09345 L 62,126 c -0.265248,-0.85182 -0.851415,0.69848 -1.284676,-0.0814 -0.866522,-1.55979 -1.881092,-3.09162 -2.215324,-4.84436 -0.297433,-1.55976 -0.01885,-3.2067 0.683347,-4.63087 0.702194,-1.42417 1.813737,-2.6288 3.119384,-3.53247 2.611294,-1.80734 5.892736,-2.38799 9.068363,-2.41479 2.910084,-0.0246 5.919137,0.41223 8.38858,1.95205 1.234721,0.76991 2.311934,1.81187 3.040863,3.07122 0.728929,1.25934 1.097958,2.73997 0.951416,4.18767 -0.112708,1.11345 -0.520632,2.17763 -1.019002,3.17968 C 82.234582,123.88876 80.512608,125.00516 80,126 c 0,0 0.18085,1.88115 0.02062,2.98876 -0.160226,1.10761 -0.02465,2.28472 0.545782,3.24757 0.406225,0.68567 1.015021,1.23583 1.69136,1.65742 0.676339,0.42158 1.421151,0.72133 2.173875,0.9832 4.216271,1.4668 8.824663,1.78882 13.203956,0.92265 4.379297,-0.86616 12.518117,-2.91827 15.858547,-5.87968 l -7.6e-4,-4.00004 c -0.44771,-3.35161 -3.63377,-22.09098 -3.43337,-25.46641 0.1002,-1.687714 3.01472,-6.257523 3.89302,-7.702173 4.92574,-8.101938 7.96375,1.486232 10.32822,1.617847 1.49143,0.05636 2.99254,-0.276971 4.33262,-0.934034 1.34007,-0.657064 5.45569,-6.697046 5.43387,-9.00063 l 0.17296,-2.260649 c -0.31651,-2.410193 -1.3659,-4.742784 -3.0735,-6.472906 -1.7076,-1.730123 -4.08358,-2.822596 -6.51439,-2.841547 -2.31043,-0.01801 -0.51072,0.889631 -2.70454,1.614622 -1.0969,0.362495 -2.21391,0.683441 -3.36079,0.822263 -1.14688,0.138822 -2.33015,0.09028 -3.42686,-0.272822 -1.47213,-0.487396 -2.72874,-1.531283 -3.60043,-2.813815 -0.87169,-1.282532 -1.37367,-2.793264 -1.5907,-4.328722 -0.43406,-3.070915 -0.29002,-7.242276 0.2648,-10.293685 1.27677,-7.021953 1.28714,-12.83705 1.3404,-19.973935 -5.87261,-2.358838 -14.84666,-4.247356 -21.115241,-5.117187 -2.330132,-0.32333 -6.058697,-1.32783 -8.283582,-0.563668 -1.112443,0.382081 -2.930197,1.894514 -2.930197,1.894514 l 8.88e-4,3.999232 c -0.01259,0.82582 0.208796,1.643599 0.554492,2.393687 0.345697,0.750088 0.813292,1.437703 1.311687,2.096293 0.996789,1.31718 2.142405,2.561913 2.764681,4.092051 0.682434,1.678062 0.66693,3.606132 0.07149,5.316998 -0.595434,1.710867 -1.748271,3.20417 -3.17928,4.314945 -1.431008,1.110776 -3.131655,1.848918 -4.895624,2.261254 -1.763969,0.412335 -3.592151,0.506016 -5.400888,0.405631 -2.925073,-0.162341 -5.909527,-0.87226 -8.250188,-2.633995 -1.17033,-0.880868 -2.158977,-2.018258 -2.790824,-3.339762 -0.631847,-1.321503 -0.896623,-2.829412 -0.667972,-4.276243 0.310724,-1.966157 1.476482,-3.670033 2.446947,-5.407997 0.485233,-0.868982 1.373523,-3.513125 1.385784,-4.508329 L 62.632807,34 c 0,0 -0.945317,1.475066 -1.696638,0.777099 -0.751321,-0.697966 -1.670561,-1.200805 -2.638841,-1.538555 -1.93656,-0.675499 -4.030009,-0.698831 -6.080536,-0.742447 -0.511017,-0.01087 -13.928324,1.75781 -14.439453,1.75977 z"
         inkscape:connector-curvature="0"
         sodipodi:nodetypes="ccsssssscssssscsscccscsccscscscsscsccccccssccccsccssssccsscccsscsssssssscssscc" />
      <g
         id="surface43907"
         transform="matrix(3.0766962,-2.5561574,2.5561574,3.0766962,-81.66337,-14.016794)"
         inkscape:path-effect="#path-effect1364-8"
         style="display:inline;fill:#62a0ea;stroke-width:0.25;enable-background:new">
        <path
           id="path1350"
           d="M 61.403541,2.0997581 51.630103,17.052883 c -2.04392,3.127149 -3.844167,6.441321 -6.28238,9.271831 -1.219107,1.415255 -2.671347,2.683693 -4.408612,3.370046 -0.868632,0.343176 -1.803138,0.533486 -2.736592,0.502569 -0.933454,-0.03092 -1.865638,-0.288204 -2.654215,-0.788642 -1.277853,-0.810937 -2.085178,-2.178304 -2.751378,-3.53724 -0.666201,-1.358935 -1.257608,-2.788673 -2.273488,-3.910509 -0.991737,-1.095175 -2.353079,-1.834025 -3.797883,-2.143041 -1.444804,-0.309017 -2.967274,-0.197223 -4.376449,0.246821 -2.818351,0.888089 -5.100012,3.054087 -6.665512,5.560282 -1.186919,1.900128 -2.026882,4.082755 -1.987806,6.322786 0.01954,1.120015 0.26216,2.241507 0.757619,3.246164 0.495459,1.004658 1.248058,1.889032 2.191124,2.49355 1.308611,0.838837 2.889707,1.101175 4.397852,1.477484 0.754072,0.188155 1.504217,0.410477 2.20222,0.752267 0.698002,0.34179 1.345539,0.808951 1.819326,1.42503 0.511051,0.664535 0.803069,1.484639 0.887973,2.318649 0.0849,0.834009 -0.03158,1.681535 -0.279463,2.482367 -0.495773,1.601665 -1.494301,2.993395 -2.503623,4.332196 -6.04506,8.018385 -13.075194,15.293374 -20.8819995,21.609309 3.6922517,6.193224 7.8872305,12.086638 12.5301015,17.603204 1.538969,1.828572 3.188573,3.663337 5.345279,4.693248 1.078354,0.514955 2.273334,0.81305 3.467054,0.757751 1.19372,-0.0553 2.384068,-0.47865 3.279249,-1.270279 0.668578,-0.591239 1.155841,-1.367163 1.497998,-2.191474 0.342156,-0.824312 0.54559,-1.699309 0.709737,-2.576587 0.328296,-1.754555 0.520494,-3.58281 1.380091,-5.147206 0.764981,-1.392201 2.031129,-2.483393 3.481541,-3.131256 1.450411,-0.647862 3.076087,-0.864111 4.658433,-0.724104 3.164691,0.280014 6.059316,1.934157 8.519447,3.94449 2.253768,1.841701 4.290281,4.099857 5.206648,6.862393 0.458184,1.381268 0.621254,2.871314 0.377008,4.305949 -0.244246,1.434634 -0.907287,2.809402 -1.946202,3.828465 -0.799265,0.783992 -1.794304,1.340724 -2.818994,1.791814 -1.02469,0.45108 -2.089465,0.80528 -3.12019,1.2424 -1.030724,0.43712 -2.038335,0.96516 -2.868885,1.71593 -0.83055,0.75077 -1.476739,1.74516 -1.648963,2.85142 -0.122476,0.7867 -0.0021,1.59737 0.249486,2.35275 0.2516,0.75538 0.630968,1.4616 1.035671,2.14725 2.610812,4.42326 6.378079,8.15711 10.824421,10.72841 4.446342,2.57131 9.561602,3.97419 14.697587,4.03087 l 10.390625,-16.55469 c 1.827097,-2.91099 3.475693,-5.96738 5.741233,-8.55185 1.132769,-1.292234 2.473271,-2.444313 4.060717,-3.102382 0.793723,-0.329035 1.644959,-0.529194 2.504043,-0.544497 0.859084,-0.0153 1.726157,0.15767 2.494556,0.542148 0.73288,0.366706 1.363072,0.917501 1.891445,1.543926 0.528372,0.626425 0.959453,1.328795 1.355706,2.046125 0.792505,1.43467 1.469566,2.9633 2.578497,4.1702 1.024648,1.11517 2.388724,1.90386 3.853464,2.28866 1.46473,0.3848 3.0253,0.37098 4.49703,0.0139 2.94345,-0.71425 5.45189,-2.78026 7.08701,-5.32986 1.33228,-2.07739 2.14193,-4.541713 1.9824,-7.00445 -0.0798,-1.231368 -0.40175,-2.450743 -0.9771,-3.54235 -0.57534,-1.091606 -1.4065,-2.052749 -2.42718,-2.746174 -1.35882,-0.923145 -2.98517,-1.342259 -4.54069,-1.870386 -0.77777,-0.264063 -1.54837,-0.560335 -2.26402,-0.963445 -0.71564,-0.40311 -1.37767,-0.917431 -1.88031,-1.567043 -0.7609,-0.983381 -1.12186,-2.245409 -1.11009,-3.488739 0.0118,-1.24333 0.38082,-2.467509 0.95637,-3.569668 1.15109,-2.204318 3.06966,-3.889155 4.91509,-5.556015 6.1872,-5.588512 12.02287,-11.566171 17.46105,-17.885913 -4.09227,-6.428838 -8.80224,-12.464281 -14.04392,-17.996143 -1.61295,-1.702245 -3.34561,-3.403237 -5.53563,-4.241703 -1.09502,-0.419233 -2.29219,-0.606509 -3.45181,-0.433034 -1.15962,0.173476 -2.2772,0.723607 -3.045305,1.609508 -0.541225,0.624225 -0.896569,1.394024 -1.111602,2.191735 -0.215033,0.797711 -0.295055,1.625793 -0.331935,2.451155 -0.07376,1.650723 0.01687,3.340604 -0.478366,4.917013 -0.543414,1.729754 -1.785692,3.20702 -3.336966,4.145581 -1.551274,0.938561 -3.393848,1.352523 -5.205967,1.292746 -1.812119,-0.05978 -3.593491,-0.580164 -5.21421,-1.392947 -1.620719,-0.812784 -3.08605,-1.912981 -4.410826,-3.150849 -2.137042,-1.996847 -3.966484,-4.451708 -4.637277,-7.298528 -0.335397,-1.42341 -0.369658,-2.926916 -0.01567,-4.345816 0.35399,-1.4189 1.105307,-2.748596 2.195915,-3.722844 1.482027,-1.323905 3.455798,-1.912902 5.306878,-2.635833 0.925541,-0.361465 1.840543,-0.767866 2.662391,-1.3263 0.821848,-0.558434 1.551425,-1.278195 2.011039,-2.159124 C 87.549702,21.21273 87.71681,20.144956 87.614444,19.1128 87.512078,18.080643 87.148002,17.083622 86.625215,16.187787 85.57964,14.396118 83.939665,13.035786 82.269286,11.80569 76.051424,7.226748 68.911395,3.9054846 61.403541,2.0997581 Z"
           style="fill:#62a0ea;fill-opacity:1;fill-rule:nonzero;stroke:none;stroke-width:0.25"
           inkscape:connector-curvature="0"
           sodipodi:nodetypes="cccccccccsccccccccccccccccccccccc"
           inkscape:original-d="M 61.403541,2.0997581 51.630103,17.052883 C 49.477759,20.259914 38.649866,30.764155 35.548304,29.408687 30.657679,27.271968 35.101562,24.808594 30.523438,21.960938 27.3125,19.957031 19.445312,19.160156 15.683594,25.625 c -1.953125,3.351562 -1.960938,8.449219 0.960937,12.0625 2.765625,3.417969 6.337367,-0.220219 8.419398,3.654781 1.449219,2.691406 -0.500582,6.410556 -1.895113,9.133212 -3.097656,6.050781 -20.8819995,21.609309 -20.8819995,21.609309 2.0588871,6.910932 6.8939623,13.024366 12.5301015,17.603204 2.234954,1.815693 9.435332,5.290095 12.091582,4.18072 3.289063,-1.378906 1.251888,-7.219955 3.587826,-9.915267 4.332031,-4.988281 11.370358,-4.297589 16.659421,0.08913 5.695312,4.71875 6.57886,9.789776 3.637454,14.996807 -2.765625,4.894534 -8.46875,3.769534 -10.457032,7.601564 -0.75,1.44922 0.09766,3.37891 1.285157,4.5 5.859375,5.55078 25.522008,14.75928 25.522008,14.75928 l 10.390625,-16.55469 c 2.152344,-3.21093 11.495862,-12.383143 14.800549,-11.656581 4.589844,1.007813 2.067836,4.920411 5.825648,7.760251 4.277344,3.23437 11.628904,2.98437 15.437504,-3.02734 2.77734,-4.386724 2.55468,-8.226568 -1.42188,-13.292974 -2.71484,-3.460937 -6.60299,-0.525874 -8.68502,-4.400874 -1.44531,-2.691406 2.89419,-10.196454 4.76137,-12.614422 4.47657,-5.792969 17.46105,-17.885913 17.46105,-17.885913 0,0 -8.4072,-13.418019 -14.04392,-17.996143 -2.23438,-1.8125 -9.3804,-4.17851 -12.032745,-3.065229 -3.289066,1.378906 0.414035,6.868496 -1.921903,9.559903 C 92.136487,49.152009 84.070081,48.07779 79.546643,43.620759 74.277112,38.429353 74.148205,33.460603 77.089612,28.253571 79.855237,23.355134 85.081638,25.964345 87.06992,22.132314 87.823826,20.683095 83.456786,12.926783 82.269286,11.80569 76.406005,6.2549086 61.403541,2.0997581 61.403541,2.0997581 Z" />
      </g>
      <path
         id="path1350-1"
         d="m 577.21577,-188.22801 0.73336,6.31127 c 0.15336,1.31987 0.41717,2.63554 0.39321,3.96388 -0.012,0.66417 -0.12225,1.34116 -0.44523,1.92371 -0.1615,0.29126 -0.37637,0.5557 -0.64182,0.75937 -0.26545,0.20368 -0.5826,0.34514 -0.91591,0.38746 -0.54012,0.0686 -1.07796,-0.12197 -1.5748,-0.34228 -0.49684,-0.22032 -0.98926,-0.477 -1.52836,-0.553 -0.52629,-0.0742 -1.07294,0.0331 -1.54386,0.2769 -0.47091,0.24381 -0.86656,0.62038 -1.15446,1.06208 -0.5758,0.88341 -0.70923,1.99441 -0.56624,3.03571 0.10842,0.78949 0.37781,1.57739 0.90369,2.18124 0.26293,0.30193 0.58795,0.55355 0.95608,0.71576 0.36812,0.16222 0.77976,0.23309 1.17976,0.18413 0.55504,-0.0679 1.05295,-0.35549 1.55686,-0.59529 0.25196,-0.1199 0.51069,-0.22957 0.78246,-0.2947 0.27176,-0.0651 0.55839,-0.0845 0.83117,-0.0236 0.29424,0.0656 0.56363,0.22359 0.77889,0.43242 0.21527,0.20884 0.3779,0.46714 0.49344,0.74253 0.23107,0.55078 0.27472,1.15838 0.30322,1.75397 0.17068,3.56708 -0.1022,7.15468 -0.81055,10.65645 2.4459,0.85498 4.96199,1.51369 7.51539,1.96755 0.84637,0.15043 1.72478,0.27742 2.55848,0.069 0.41685,-0.1042 0.81611,-0.29423 1.13377,-0.58064 0.31766,-0.2864 0.54975,-0.67272 0.61548,-1.09269 0.0491,-0.31366 0.006,-0.63664 -0.0893,-0.93987 -0.0948,-0.30324 -0.23974,-0.58881 -0.39602,-0.86608 -0.31258,-0.55454 -0.67976,-1.0983 -0.80157,-1.72157 -0.1084,-0.55466 -0.009,-1.14088 0.24356,-1.64771 0.25245,-0.50683 0.65264,-0.93543 1.12276,-1.25672 0.94024,-0.64261 2.1217,-0.84796 3.2648,-0.85714 1.04722,-0.009 2.13007,0.14645 3.01888,0.69385 0.44441,0.27371 0.83215,0.64423 1.09442,1.09215 0.26228,0.44793 0.39488,0.97466 0.34167,1.48951 -0.0409,0.39608 -0.18831,0.7745 -0.36818,1.13075 -0.17987,0.35626 -0.39311,0.69512 -0.57787,1.04892 -0.18475,0.35381 -0.3422,0.72723 -0.39943,1.12134 -0.0572,0.39411 -0.007,0.81296 0.19927,1.1547 0.147,0.24303 0.36671,0.43742 0.61003,0.58687 0.24332,0.14943 0.51069,0.25639 0.78035,0.35198 1.73962,0.61659 3.64078,0.78179 5.46257,0.47467 1.8218,-0.30711 3.56005,-1.08585 4.99451,-2.23753 l -0.93079,-6.88961 c -0.16368,-1.21147 -0.41018,-2.42215 -0.37743,-3.64396 0.0164,-0.61089 0.12246,-1.23066 0.41049,-1.77142 0.14401,-0.27039 0.33358,-0.51858 0.56781,-0.718 0.23425,-0.19942 0.51399,-0.34916 0.81505,-0.41861 0.28715,-0.0662 0.58821,-0.0588 0.87847,-0.008 0.29027,0.0513 0.57108,0.14543 0.84568,0.25159 0.54921,0.21233 1.08808,0.47659 1.67249,0.55471 0.53999,0.0722 1.09885,-0.022 1.59271,-0.24968 0.49385,-0.22761 0.92257,-0.58604 1.24778,-1.01818 0.6504,-0.86428 0.86958,-1.99946 0.73587,-3.06846 -0.10894,-0.871 -0.45149,-1.72908 -1.06191,-2.36647 -0.30522,-0.31868 -0.6747,-0.57906 -1.08493,-0.74691 -0.41023,-0.16784 -0.86126,-0.24186 -1.30318,-0.19957 -0.58833,0.0563 -1.1348,0.31124 -1.68674,0.52027 -0.27597,0.10453 -0.55736,0.19861 -0.84811,0.25099 -0.29075,0.0524 -0.59223,0.0622 -0.88071,-9.9e-4 -0.4367,-0.0961 -0.82678,-0.35925 -1.1094,-0.70202 -0.28262,-0.34278 -0.46197,-0.7615 -0.55611,-1.19377 -0.18827,-0.86454 -0.0447,-1.76141 0.0828,-2.63675 0.42737,-2.93472 0.66797,-5.89601 0.71991,-8.86053 -2.61078,-0.82852 -5.30205,-1.40906 -8.02469,-1.73101 -0.8378,-0.0991 -1.70845,-0.17059 -2.50734,0.0977 -0.39945,0.13417 -0.77384,0.35501 -1.05489,0.666 -0.28104,0.31098 -0.46385,0.71543 -0.47273,1.13231 -0.006,0.29375 0.0724,0.58507 0.19632,0.85213 0.12391,0.26707 0.29217,0.51177 0.47174,0.74591 0.35913,0.4683 0.7728,0.90993 0.9982,1.45369 0.24733,0.59664 0.24319,1.28304 0.0297,1.8923 -0.21352,0.60927 -0.62828,1.14123 -1.14354,1.5367 -0.51527,0.39546 -1.12793,0.65795 -1.76336,0.80394 -0.63544,0.146 -1.29395,0.17806 -1.94522,0.14052 -1.05059,-0.0606 -2.12136,-0.31629 -2.96158,-0.94255 -0.42012,-0.31313 -0.77531,-0.71661 -1.00359,-1.18518 -0.22829,-0.46855 -0.3261,-1.00302 -0.24827,-1.51735 0.10575,-0.69894 0.51658,-1.3086 0.86265,-1.92702 0.17304,-0.3092 0.33283,-0.62831 0.43188,-0.96783 0.099,-0.33952 0.13547,-0.7022 0.0601,-1.04761 -0.0787,-0.36059 -0.27794,-0.69064 -0.54359,-0.9497 -0.26566,-0.25907 -0.59567,-0.44905 -0.94634,-0.57528 -0.70134,-0.25248 -1.468,-0.25188 -2.21313,-0.20875 -2.7737,0.16054 -5.51343,0.87468 -8.00649,2.08695 z"
         style="display:inline;fill:#62a0ea;fill-opacity:1;fill-rule:nonzero;stroke:url(#linearGradient3205);stroke-width:0.99999994;enable-background:new"
         inkscape:connector-curvature="0"
         sodipodi:nodetypes="cccccccccsccccccccccccccccccccccccccccccccccccccccccccccccccccccccccccccccccccccscccc"
         inkscape:original-d="m 577.21577,-188.22801 0.73336,6.31127 c 0.15336,1.31987 0.41717,2.63554 0.39321,3.96388 -0.012,0.66417 -0.12225,1.34116 -0.44523,1.92371 -0.1615,0.29126 -0.37637,0.5557 -0.64182,0.75937 -0.26545,0.20368 -0.5826,0.34514 -0.91591,0.38746 -0.54012,0.0686 -1.07796,-0.12197 -1.5748,-0.34228 -0.49684,-0.22032 -0.98926,-0.477 -1.52836,-0.553 -0.52629,-0.0742 -1.07294,0.0331 -1.54386,0.2769 -0.47091,0.24381 -0.86656,0.62038 -1.15446,1.06208 -0.5758,0.88341 -0.70923,1.99441 -0.56624,3.03571 0.10842,0.78949 0.37781,1.57739 0.90369,2.18124 0.26293,0.30193 0.58795,0.55355 0.95608,0.71576 0.36812,0.16222 0.77976,0.23309 1.17976,0.18413 0.55504,-0.0679 1.05295,-0.35549 1.55686,-0.59529 0.25196,-0.1199 0.51069,-0.22957 0.78246,-0.2947 0.27176,-0.0651 0.55839,-0.0845 0.83117,-0.0236 0.29424,0.0656 0.56363,0.22359 0.77889,0.43242 0.21527,0.20884 0.3779,0.46714 0.49344,0.74253 0.23107,0.55078 0.27472,1.15838 0.30322,1.75397 0.17068,3.56708 -0.1022,7.15468 -0.81055,10.65645 2.4459,0.85498 4.96199,1.51369 7.51539,1.96755 0.84637,0.15043 1.72478,0.27742 2.55848,0.069 0.41685,-0.1042 0.81611,-0.29423 1.13377,-0.58064 0.31766,-0.2864 0.54975,-0.67272 0.61548,-1.09269 0.0491,-0.31366 0.006,-0.63664 -0.0893,-0.93987 -0.0948,-0.30324 -0.23974,-0.58881 -0.39602,-0.86608 -0.31258,-0.55454 -0.67976,-1.0983 -0.80157,-1.72157 -0.1084,-0.55466 -0.009,-1.14088 0.24356,-1.64771 0.25245,-0.50683 0.65264,-0.93543 1.12276,-1.25672 0.94024,-0.64261 2.1217,-0.84796 3.2648,-0.85714 1.04722,-0.009 2.13007,0.14645 3.01888,0.69385 0.44441,0.27371 0.83215,0.64423 1.09442,1.09215 0.26228,0.44793 0.39488,0.97466 0.34167,1.48951 -0.0409,0.39608 -0.18831,0.7745 -0.36818,1.13075 -0.17987,0.35626 -0.39311,0.69512 -0.57787,1.04892 -0.18475,0.35381 -0.3422,0.72723 -0.39943,1.12134 -0.0572,0.39411 -0.007,0.81296 0.19927,1.1547 0.147,0.24303 0.36671,0.43742 0.61003,0.58687 0.24332,0.14943 0.51069,0.25639 0.78035,0.35198 1.73962,0.61659 3.64078,0.78179 5.46257,0.47467 1.8218,-0.30711 3.56005,-1.08585 4.99451,-2.23753 l -0.93079,-6.88961 c -0.16368,-1.21147 -0.41018,-2.42215 -0.37743,-3.64396 0.0164,-0.61089 0.12246,-1.23066 0.41049,-1.77142 0.14401,-0.27039 0.33358,-0.51858 0.56781,-0.718 0.23425,-0.19942 0.51399,-0.34916 0.81505,-0.41861 0.28715,-0.0662 0.58821,-0.0588 0.87847,-0.008 0.29027,0.0513 0.57108,0.14543 0.84568,0.25159 0.54921,0.21233 1.08808,0.47659 1.67249,0.55471 0.53999,0.0722 1.09885,-0.022 1.59271,-0.24968 0.49385,-0.22761 0.92257,-0.58604 1.24778,-1.01818 0.6504,-0.86428 0.86958,-1.99946 0.73587,-3.06846 -0.10894,-0.871 -0.45149,-2.10408 -1.06191,-2.74147 -0.30522,-0.31868 -0.6747,-0.57906 -1.08493,-0.74691 -0.41023,-0.16784 -0.86126,-0.24186 -1.30318,-0.19957 -0.58833,0.0563 -1.1348,0.31124 -1.68674,0.52027 -0.27597,0.10453 -0.55736,0.19861 -0.84811,0.25099 -0.29075,0.0524 -0.59223,0.0622 -0.88071,-9.9e-4 -0.4367,-0.0961 -0.82678,0.0157 -1.1094,-0.32702 -0.28262,-0.34278 -0.46197,-0.7615 -0.55611,-1.19377 -0.18827,-0.86454 -0.0447,-1.76141 0.0828,-2.63675 0.42737,-2.93472 0.66797,-5.89601 0.71991,-8.86053 -2.61078,-0.82852 -5.30205,-1.40906 -8.02469,-1.73101 -0.8378,-0.0991 -1.70845,-0.17059 -2.50734,0.0977 -0.39945,0.13417 -0.77384,0.35501 -1.05489,0.666 -0.28104,0.31098 -0.46385,0.71543 -0.47273,1.13231 -0.006,0.29375 0.0724,0.58507 0.19632,0.85213 0.12391,0.26707 0.29217,0.51177 0.47174,0.74591 0.35913,0.4683 0.7728,0.90993 0.9982,1.45369 0.24733,0.59664 0.24319,1.28304 0.0297,1.8923 -0.21352,0.60927 -0.62828,1.14123 -1.14354,1.5367 -0.51527,0.39546 -1.12793,0.65795 -1.76336,0.80394 -0.63544,0.146 -1.29395,0.17806 -1.94522,0.14052 -1.05059,-0.0606 -2.12136,-0.31629 -2.96158,-0.94255 -0.42012,-0.31313 -0.77531,-0.71661 -1.00359,-1.18518 -0.22829,-0.46855 -0.3261,-1.00302 -0.24827,-1.51735 0.10575,-0.69894 0.51658,-1.3086 0.86265,-1.92702 0.17304,-0.3092 0.33283,-0.62831 0.43188,-0.96783 0.099,-0.33952 0.13547,-0.7022 0.0601,-1.04761 -0.0787,-0.36059 -0.27794,-0.69064 -0.54359,-0.9497 -0.26566,-0.25907 -0.59567,-0.44905 -0.94634,-0.57528 -0.70134,-0.25248 -1.468,-0.25188 -2.21313,-0.20875 -2.7737,0.16054 -5.51343,0.87468 -8.00649,2.08695 z" />
      <path
         inkscape:original-d="m 574,-112 0.14793,4.3094 c 0.10542,0.93286 0.28682,1.86274 0.2703,2.80157 -0.007,0.46943 -0.0835,0.94791 -0.30608,1.35966 -0.11095,0.20582 -0.25867,0.39272 -0.44118,0.53667 -0.18246,0.14397 -0.40052,0.24395 -0.62966,0.27389 -0.37128,0.0488 -0.74102,-0.0857 -1.08256,-0.24193 -0.34157,-0.15573 -0.68006,-0.33715 -1.05066,-0.39087 -0.36179,-0.0524 -0.73758,0.0236 -1.0613,0.19571 -0.32374,0.17234 -0.59573,0.43846 -0.79363,0.75066 -0.39583,0.62441 -0.48757,1.40959 -0.38926,2.14559 0.0747,0.557967 0.25972,1.114837 0.62123,1.54163 0.18073,0.21339 0.4042,0.391236 0.65721,0.505882 0.25311,0.114652 0.53608,0.16474 0.81105,0.130137 0.38155,-0.04794 0.72384,-0.251253 1.07025,-0.420741 0.1732,-0.08466 0.35108,-0.162257 0.5379,-0.208283 0.18681,-0.046 0.38386,-0.05982 0.5714,-0.01659 0.20227,0.04639 0.38745,0.158022 0.53542,0.305619 0.14797,0.147604 0.25981,0.330167 0.33924,0.524806 0.15882,0.389279 0.18885,0.818718 0.20843,1.23966 0.11734,2.52113 -0.0707,5.05676 -0.5572,7.531725 1.68144,0.604283 3.41112,1.069841 5.16639,1.390622 0.58185,0.106315 1.18572,0.19607 1.75879,0.04883 0.28661,-0.07363 0.56104,-0.207956 0.77946,-0.410383 0.21834,-0.202422 0.37791,-0.475466 0.42311,-0.772288 0.0334,-0.221688 0.005,-0.449962 -0.0606,-0.66428 -0.0659,-0.214319 -0.16479,-0.416156 -0.27224,-0.612123 -0.21486,-0.391938 -0.46728,-0.776249 -0.55103,-1.216763 -0.0747,-0.392019 -0.007,-0.806347 0.16743,-1.164565 0.17357,-0.358212 0.44866,-0.661136 0.77181,-0.888215 0.64639,-0.454186 1.4586,-0.599321 2.24437,-0.605809 0.71995,-0.0059 1.46433,0.103467 2.07531,0.490394 0.3055,0.193454 0.57208,0.45533 0.75238,0.771906 0.18031,0.316591 0.27145,0.688869 0.23487,1.052751 -0.0279,0.279943 -0.12945,0.547399 -0.25312,0.79919 -0.1236,0.251792 -0.27022,0.491296 -0.39723,0.741349 -0.127,0.250065 -0.23527,0.513991 -0.2746,0.79254 -0.0397,0.278545 -0.006,0.574578 0.13699,0.81611 0.10106,0.171766 0.25209,0.30916 0.41936,0.414788 0.16728,0.105583 0.35109,0.181209 0.53644,0.24877 1.19592,0.435793 2.50284,0.552551 3.75526,0.335488 1.25236,-0.217059 2.4473,-0.767455 3.43344,-1.581435 l -0.63986,-4.869409 c -0.11252,-0.856241 -0.28201,-1.711918 -0.25949,-2.575463 0.0109,-0.431762 0.0837,-0.869802 0.28221,-1.252 0.0992,-0.191106 0.22933,-0.366521 0.39035,-0.507466 0.16101,-0.140944 0.3533,-0.246774 0.56028,-0.295857 0.19737,-0.0468 0.40435,-0.04161 0.60388,-0.0051 0.19955,0.03632 0.39258,0.102767 0.58136,0.177811 0.37755,0.150072 0.74803,0.336844 1.14973,0.392058 0.37125,0.05098 0.75542,-0.01556 1.09491,-0.176468 0.33949,-0.160869 0.63425,-0.414191 0.85777,-0.719626 0.44715,-0.610839 0.59781,-1.413122 0.5059,-2.168672 -0.0751,-0.61556 -0.31039,-1.22206 -0.73004,-1.67258 -0.20983,-0.22523 -0.46377,-0.40927 -0.74582,-0.52789 -0.28199,-0.1186 -0.59205,-0.17094 -0.89587,-0.14106 -0.40439,0.0398 -0.7801,0.21998 -1.15952,0.36774 -0.18971,0.0742 -0.38316,0.14036 -0.583,0.17738 -0.19991,0.0363 -0.40715,0.0446 -0.60545,-6.8e-4 -0.3002,-0.0687 -0.56838,-0.25393 -0.76269,-0.49615 -0.19429,-0.24234 -0.31755,-0.53826 -0.38228,-0.84374 -0.1294,-0.61102 -0.0304,-1.24494 0.0565,-1.8636 0.29381,-2.07421 0.4592,-4.16715 0.49493,-6.2624 -1.79482,-0.58559 -3.6449,-0.99593 -5.51658,-1.22348 -0.57594,-0.0706 -1.17444,-0.12057 -1.72366,0.0697 -0.27458,0.0955 -0.53196,0.25091 -0.72518,0.47069 -0.19316,0.21979 -0.31884,0.50566 -0.32496,0.8003 -0.005,0.20761 0.0499,0.41351 0.13496,0.60225 0.0846,0.18875 0.20087,0.36171 0.32427,0.52719 0.24691,0.33097 0.5313,0.6431 0.68624,1.02746 0.17001,0.42168 0.16717,0.9068 0.0207,1.33742 -0.14678,0.43062 -0.43193,0.8066 -0.78614,1.08614 -0.35425,0.27945 -0.77536,0.465 -1.21218,0.56817 -0.43686,0.10334 -0.88953,0.12584 -1.33726,0.0998 -0.7222,-0.0434 -1.45832,-0.22357 -2.03589,-0.66622 -0.28882,-0.22128 -0.53299,-0.50645 -0.68994,-0.83763 -0.15694,-0.33119 -0.22414,-0.7089 -0.17067,-1.07241 0.0729,-0.494 0.35513,-0.92488 0.59304,-1.36199 0.11895,-0.21852 0.22881,-0.44406 0.29687,-0.68405 0.0687,-0.23996 0.0937,-0.49626 0.042,-0.74039 -0.054,-0.2549 -0.19104,-0.48813 -0.3737,-0.67123 -0.1826,-0.18313 -0.40947,-0.31739 -0.65056,-0.40661 -0.48215,-0.17844 -1.00917,-0.17804 -1.5214,-0.14753 -1.90675,0.11345 -2.43539,-0.2323 -4.14918,0.62452 z"
         sodipodi:nodetypes="cccccccccsccccccccccccccccccccccccccccccccccccccccccccccccccccccccccccccccccccccscccc"
         inkscape:connector-curvature="0"
         style="display:inline;fill:#62a0ea;fill-opacity:1;fill-rule:nonzero;stroke:url(#linearGradient22436);stroke-width:1;enable-background:new;font-variation-settings:normal;opacity:1;vector-effect:none;stroke-linecap:butt;stroke-linejoin:miter;stroke-miterlimit:4;stroke-dasharray:none;stroke-dashoffset:0;stroke-opacity:1;-inkscape-stroke:none;stop-color:#000000;stop-opacity:1"
         d="m 573.64381,-112.15125 0.50412,4.46065 c 0.10542,0.93286 0.28682,1.86274 0.2703,2.80157 -0.007,0.46943 -0.0835,0.94791 -0.30608,1.35966 -0.11095,0.20582 -0.25867,0.39272 -0.44118,0.53667 -0.18246,0.14397 -0.40052,0.24395 -0.62966,0.27389 -0.37128,0.0488 -0.74102,-0.0857 -1.08256,-0.24193 -0.34157,-0.15573 -0.68006,-0.33715 -1.05066,-0.39087 -0.36179,-0.0524 -0.73758,0.0236 -1.0613,0.19571 -0.32374,0.17234 -0.59573,0.43846 -0.79363,0.75066 -0.39583,0.62441 -0.48757,1.40959 -0.38926,2.14559 0.0747,0.557967 0.25972,1.114837 0.62123,1.54163 0.18073,0.21339 0.4042,0.391236 0.65721,0.505882 0.25311,0.114652 0.53608,0.16474 0.81105,0.130137 0.38155,-0.04794 0.72384,-0.251253 1.07025,-0.420741 0.1732,-0.08466 0.35108,-0.162257 0.5379,-0.208283 0.18681,-0.046 0.38386,-0.05982 0.5714,-0.01659 0.20227,0.04639 0.38745,0.158022 0.53542,0.305619 0.14797,0.147604 0.25981,0.330167 0.33924,0.524806 0.15882,0.389279 0.18885,0.818718 0.20843,1.23966 0.11734,2.52113 -0.0707,5.05676 -0.5572,7.531725 1.68144,0.604283 3.41112,1.069841 5.16639,1.390622 0.58185,0.106315 1.18572,0.19607 1.75879,0.04883 0.28661,-0.07363 0.56104,-0.207956 0.77946,-0.410383 0.21834,-0.202422 0.37791,-0.475466 0.42311,-0.772288 0.0334,-0.221688 0.005,-0.449962 -0.0606,-0.66428 -0.0659,-0.214319 -0.16479,-0.416156 -0.27224,-0.612123 -0.21486,-0.391938 -0.46728,-0.776249 -0.55103,-1.216763 -0.0747,-0.392019 -0.007,-0.806347 0.16743,-1.164565 0.17357,-0.358212 0.44866,-0.661136 0.77181,-0.888215 0.64639,-0.454186 1.4586,-0.599321 2.24437,-0.605809 0.71995,-0.0059 1.46433,0.103467 2.07531,0.490394 0.3055,0.193454 0.57208,0.45533 0.75238,0.771906 0.18031,0.316591 0.27145,0.688869 0.23487,1.052751 -0.0279,0.279943 -0.12945,0.547399 -0.25312,0.79919 -0.1236,0.251792 -0.27022,0.491296 -0.39723,0.741349 -0.127,0.250065 -0.23527,0.513991 -0.2746,0.79254 -0.0397,0.278545 -0.006,0.574578 0.13699,0.81611 0.10106,0.171766 0.25209,0.30916 0.41936,0.414788 0.16728,0.105583 0.35109,0.181209 0.53644,0.24877 1.19592,0.435793 2.50284,0.552551 3.75526,0.335488 1.25236,-0.217059 2.4473,-0.767455 3.43344,-1.581435 l -0.63986,-4.869409 c -0.11252,-0.856241 -0.28201,-1.711918 -0.25949,-2.575463 0.0109,-0.431762 0.0837,-0.869802 0.28221,-1.252 0.0992,-0.191106 0.22933,-0.366521 0.39035,-0.507466 0.16101,-0.140944 0.3533,-0.246774 0.56028,-0.295857 0.19737,-0.0468 0.40435,-0.04161 0.60388,-0.0051 0.19955,0.03632 0.39258,0.102767 0.58136,0.177811 0.37755,0.150072 0.74803,0.336844 1.14973,0.392058 0.37125,0.05098 0.75542,-0.01556 1.09491,-0.176468 0.33949,-0.160869 0.63425,-0.414191 0.85777,-0.719626 0.44715,-0.610839 0.59781,-1.413122 0.5059,-2.168672 -0.0751,-0.61556 -0.31039,-1.22206 -0.73004,-1.67258 -0.20983,-0.22523 -0.46377,-0.40927 -0.74582,-0.52789 -0.28199,-0.1186 -0.59205,-0.17094 -0.89587,-0.14106 -0.40439,0.0398 -0.7801,0.21998 -1.15952,0.36774 -0.18971,0.0742 -0.38316,0.14036 -0.583,0.17738 -0.19991,0.0363 -0.40715,0.0446 -0.60545,-6.8e-4 -0.3002,-0.0687 -0.56838,-0.25393 -0.76269,-0.49615 -0.19429,-0.24234 -0.31755,-0.53826 -0.38228,-0.84374 -0.1294,-0.61102 -0.0304,-1.24494 0.0565,-1.8636 0.29381,-2.07421 0.4592,-4.16715 0.49493,-6.2624 -1.79482,-0.58559 -3.6449,-0.99593 -5.51658,-1.22348 -0.57594,-0.0706 -1.17444,-0.12057 -1.72366,0.0697 -0.27458,0.0955 -0.53196,0.25091 -0.72518,0.47069 -0.19316,0.21979 -0.31884,0.50566 -0.32496,0.8003 -0.005,0.20761 0.0499,0.41351 0.13496,0.60225 0.0846,0.18875 0.20087,0.36171 0.32427,0.52719 0.24691,0.33097 0.5313,0.6431 0.68624,1.02746 0.17001,0.42168 0.16717,0.9068 0.0207,1.33742 -0.14678,0.43062 -0.43193,0.8066 -0.78614,1.08614 -0.35425,0.27945 -0.77536,0.465 -1.21218,0.56817 -0.43686,0.10334 -0.88953,0.12584 -1.33726,0.0998 -0.7222,-0.0434 -1.45832,-0.22357 -2.03589,-0.66622 -0.28882,-0.22128 -0.53299,-0.50645 -0.68994,-0.83763 -0.15694,-0.33119 -0.22414,-0.7089 -0.17067,-1.07241 0.0729,-0.494 0.35513,-0.92488 0.59304,-1.36199 0.11895,-0.21852 0.22881,-0.44406 0.29687,-0.68405 0.0687,-0.23996 0.0937,-0.49626 0.042,-0.74039 -0.054,-0.2549 -0.19104,-0.48813 -0.3737,-0.67123 -0.1826,-0.18313 -0.40947,-0.31739 -0.65056,-0.40661 -0.48215,-0.17844 -1.00917,-0.17804 -1.5214,-0.14753 -1.90675,0.11345 -3.79018,0.61819 -5.50397,1.47501 z"
         id="path3905" />
      <path
         id="path3913"
         d="m 572.67124,-55.544881 0.35168,3.056249 c 0.0735,0.639148 0.20002,1.276267 0.18853,1.919518 -0.008,0.321625 -0.0587,0.649458 -0.21351,0.93156 -0.0774,0.141046 -0.18042,0.2691 -0.30772,0.367727 -0.12744,0.09864 -0.27936,0.167134 -0.43919,0.187628 -0.25897,0.03324 -0.51686,-0.05904 -0.75509,-0.16575 -0.23825,-0.106698 -0.47433,-0.230988 -0.73283,-0.267791 -0.25236,-0.03593 -0.51444,0.01603 -0.74025,0.134074 -0.2258,0.118081 -0.41551,0.300425 -0.55355,0.514318 -0.27612,0.427794 -0.3401,0.965797 -0.27152,1.470051 0.0521,0.382313 0.18117,0.763853 0.4333,1.056268 0.12622,0.146211 0.28193,0.268057 0.45844,0.34661 0.17652,0.07855 0.37387,0.112879 0.56568,0.08916 0.26615,-0.03289 0.50487,-0.172145 0.74648,-0.288268 0.12083,-0.05806 0.24489,-0.111163 0.37521,-0.142712 0.1303,-0.03153 0.26774,-0.04094 0.39853,-0.0114 0.1411,0.03177 0.27026,0.108272 0.37349,0.2094 0.10323,0.101137 0.18118,0.226214 0.2366,0.359573 0.11075,0.266714 0.13166,0.560947 0.14541,0.849363 0.082,1.727367 -0.0491,3.464671 -0.38864,5.160408 1.17278,0.414027 2.37923,0.733013 3.60359,0.952793 0.40582,0.07285 0.82699,0.134336 1.22675,0.03341 0.19989,-0.05047 0.39132,-0.142478 0.54362,-0.281177 0.15235,-0.138682 0.26361,-0.325765 0.29513,-0.529137 0.0239,-0.151889 0.008,-0.308295 -0.0429,-0.455134 -0.0454,-0.14685 -0.11499,-0.285133 -0.18985,-0.4194 -0.14987,-0.268537 -0.32595,-0.531857 -0.38437,-0.833674 -0.052,-0.268597 -0.008,-0.552476 0.11671,-0.797908 0.12094,-0.245433 0.31295,-0.452984 0.53834,-0.608568 0.45085,-0.311186 1.01733,-0.41063 1.56545,-0.415072 0.50212,-0.0043 1.02135,0.07094 1.4475,0.335996 0.21311,0.132553 0.39904,0.311971 0.5248,0.528876 0.12567,0.216912 0.18933,0.471981 0.1638,0.721298 -0.0195,0.191803 -0.0902,0.375054 -0.17654,0.54757 -0.0865,0.172519 -0.18849,0.336612 -0.27706,0.50794 -0.0885,0.171335 -0.16412,0.352162 -0.19155,0.543013 -0.0273,0.190849 -0.008,0.393678 0.0956,0.559165 0.0705,0.117687 0.17585,0.211822 0.29252,0.284194 0.11658,0.07236 0.24486,0.124153 0.37415,0.170448 0.83414,0.298585 1.74573,0.378581 2.61925,0.229861 0.87354,-0.148715 1.70701,-0.525827 2.39485,-1.08353 l -0.44634,-3.336306 c -0.0786,-0.586657 -0.1967,-1.172931 -0.18097,-1.764594 0.008,-0.295826 0.0587,-0.595952 0.19681,-0.857817 0.069,-0.130931 0.15996,-0.251122 0.27226,-0.347691 0.11232,-0.09657 0.24644,-0.16908 0.39081,-0.202714 0.1377,-0.03205 0.28205,-0.02847 0.4212,-0.0038 0.13926,0.02484 0.27382,0.07041 0.40552,0.121833 0.26334,0.102831 0.5217,0.23079 0.80193,0.268621 0.25892,0.03495 0.52688,-0.01064 0.76371,-0.120912 0.23678,-0.110221 0.44234,-0.283792 0.59828,-0.493058 0.31187,-0.418528 0.41696,-0.968244 0.35284,-1.485908 -0.0522,-0.421783 -0.21648,-0.837311 -0.50915,-1.14597 -0.14633,-0.154315 -0.32352,-0.280409 -0.52025,-0.361691 -0.19667,-0.08129 -0.41295,-0.11711 -0.62485,-0.09665 -0.28209,0.02725 -0.54411,0.150722 -0.80878,0.251942 -0.13233,0.05061 -0.26725,0.0962 -0.40665,0.121538 -0.1394,0.02537 -0.28396,0.03013 -0.42229,-4.8e-4 -0.20939,-0.04655 -0.39644,-0.173967 -0.53194,-0.339954 -0.13547,-0.165992 -0.22153,-0.368759 -0.26663,-0.578087 -0.0905,-0.418654 -0.0217,-0.852966 0.0396,-1.276851 0.2049,-1.421142 0.32026,-2.855154 0.34519,-4.290733 -1.25186,-0.401212 -2.54232,-0.682338 -3.84778,-0.838246 -0.40171,-0.048 -0.81917,-0.0826 -1.20225,0.04734 -0.19152,0.06496 -0.37105,0.171915 -0.50581,0.322511 -0.13479,0.150599 -0.22241,0.346447 -0.22666,0.548325 -0.008,0.142244 0.0348,0.283319 0.0942,0.412645 0.0592,0.129327 0.14016,0.247825 0.22618,0.361209 0.1722,0.226776 0.3706,0.440634 0.47866,0.703952 0.11864,0.288925 0.11658,0.621316 0.0138,0.916352 -0.10224,0.29504 -0.30127,0.552642 -0.54831,0.744149 -0.24707,0.191503 -0.54083,0.318613 -0.8455,0.389309 -0.3047,0.07074 -0.62045,0.08622 -0.93273,0.06804 -0.50377,-0.02935 -1.01716,-0.153164 -1.42005,-0.45643 -0.20144,-0.151641 -0.37175,-0.34702 -0.48121,-0.573927 -0.10949,-0.226894 -0.15636,-0.485713 -0.11901,-0.734781 0.0507,-0.338462 0.2477,-0.63369 0.41363,-0.933163 0.0829,-0.149726 0.15959,-0.304259 0.20707,-0.468674 0.0474,-0.164411 0.065,-0.34004 0.0289,-0.507308 -0.0378,-0.174614 -0.1333,-0.334443 -0.26065,-0.459894 -0.12758,-0.125445 -0.28561,-0.217454 -0.45375,-0.27858 -0.3363,-0.122263 -0.7039,-0.121968 -1.06118,-0.101092 -1.32996,0.07773 -2.64362,0.423565 -3.83904,1.01061 z"
         style="display:inline;fill:#62a0ea;fill-opacity:1;fill-rule:nonzero;stroke:url(#linearGradient22742);stroke-width:1;enable-background:new;font-variation-settings:normal;opacity:1;vector-effect:none;stroke-linecap:butt;stroke-linejoin:miter;stroke-miterlimit:4;stroke-dasharray:none;stroke-dashoffset:0;stroke-opacity:1;-inkscape-stroke:none;stop-color:#000000;stop-opacity:1"
         inkscape:connector-curvature="0"
         sodipodi:nodetypes="cccccccccsccccccccccccccccccccccccccccccccccccccccccccccccccccccccccccccccccccccscccc"
         inkscape:original-d="m 577.21577,-188.22801 0.73336,6.31127 c 0.15336,1.31987 0.41717,2.63554 0.39321,3.96388 -0.012,0.66417 -0.12225,1.34116 -0.44523,1.92371 -0.1615,0.29126 -0.37637,0.5557 -0.64182,0.75937 -0.26545,0.20368 -0.5826,0.34514 -0.91591,0.38746 -0.54012,0.0686 -1.07796,-0.12197 -1.5748,-0.34228 -0.49684,-0.22032 -0.98926,-0.477 -1.52836,-0.553 -0.52629,-0.0742 -1.07294,0.0331 -1.54386,0.2769 -0.47091,0.24381 -0.86656,0.62038 -1.15446,1.06208 -0.5758,0.88341 -0.70923,1.99441 -0.56624,3.03571 0.10842,0.78949 0.37781,1.57739 0.90369,2.18124 0.26293,0.30193 0.58795,0.55355 0.95608,0.71576 0.36812,0.16222 0.77976,0.23309 1.17976,0.18413 0.55504,-0.0679 1.05295,-0.35549 1.55686,-0.59529 0.25196,-0.1199 0.51069,-0.22957 0.78246,-0.2947 0.27176,-0.0651 0.55839,-0.0845 0.83117,-0.0236 0.29424,0.0656 0.56363,0.22359 0.77889,0.43242 0.21527,0.20884 0.3779,0.46714 0.49344,0.74253 0.23107,0.55078 0.27472,1.15838 0.30322,1.75397 0.17068,3.56708 -0.1022,7.15468 -0.81055,10.65645 2.4459,0.85498 4.96199,1.51369 7.51539,1.96755 0.84637,0.15043 1.72478,0.27742 2.55848,0.069 0.41685,-0.1042 0.81611,-0.29423 1.13377,-0.58064 0.31766,-0.2864 0.54975,-0.67272 0.61548,-1.09269 0.0491,-0.31366 0.006,-0.63664 -0.0893,-0.93987 -0.0948,-0.30324 -0.23974,-0.58881 -0.39602,-0.86608 -0.31258,-0.55454 -0.67976,-1.0983 -0.80157,-1.72157 -0.1084,-0.55466 -0.009,-1.14088 0.24356,-1.64771 0.25245,-0.50683 0.65264,-0.93543 1.12276,-1.25672 0.94024,-0.64261 2.1217,-0.84796 3.2648,-0.85714 1.04722,-0.009 2.13007,0.14645 3.01888,0.69385 0.44441,0.27371 0.83215,0.64423 1.09442,1.09215 0.26228,0.44793 0.39488,0.97466 0.34167,1.48951 -0.0409,0.39608 -0.18831,0.7745 -0.36818,1.13075 -0.17987,0.35626 -0.39311,0.69512 -0.57787,1.04892 -0.18475,0.35381 -0.3422,0.72723 -0.39943,1.12134 -0.0572,0.39411 -0.007,0.81296 0.19927,1.1547 0.147,0.24303 0.36671,0.43742 0.61003,0.58687 0.24332,0.14943 0.51069,0.25639 0.78035,0.35198 1.73962,0.61659 3.64078,0.78179 5.46257,0.47467 1.8218,-0.30711 3.56005,-1.08585 4.99451,-2.23753 l -0.93079,-6.88961 c -0.16368,-1.21147 -0.41018,-2.42215 -0.37743,-3.64396 0.0164,-0.61089 0.12246,-1.23066 0.41049,-1.77142 0.14401,-0.27039 0.33358,-0.51858 0.56781,-0.718 0.23425,-0.19942 0.51399,-0.34916 0.81505,-0.41861 0.28715,-0.0662 0.58821,-0.0588 0.87847,-0.008 0.29027,0.0513 0.57108,0.14543 0.84568,0.25159 0.54921,0.21233 1.08808,0.47659 1.67249,0.55471 0.53999,0.0722 1.09885,-0.022 1.59271,-0.24968 0.49385,-0.22761 0.92257,-0.58604 1.24778,-1.01818 0.6504,-0.86428 0.86958,-1.99946 0.73587,-3.06846 -0.10894,-0.871 -0.45149,-2.10408 -1.06191,-2.74147 -0.30522,-0.31868 -0.6747,-0.57906 -1.08493,-0.74691 -0.41023,-0.16784 -0.86126,-0.24186 -1.30318,-0.19957 -0.58833,0.0563 -1.1348,0.31124 -1.68674,0.52027 -0.27597,0.10453 -0.55736,0.19861 -0.84811,0.25099 -0.29075,0.0524 -0.59223,0.0622 -0.88071,-9.9e-4 -0.4367,-0.0961 -0.82678,0.0157 -1.1094,-0.32702 -0.28262,-0.34278 -0.46197,-0.7615 -0.55611,-1.19377 -0.18827,-0.86454 -0.0447,-1.76141 0.0828,-2.63675 0.42737,-2.93472 0.66797,-5.89601 0.71991,-8.86053 -2.61078,-0.82852 -5.30205,-1.40906 -8.02469,-1.73101 -0.8378,-0.0991 -1.70845,-0.17059 -2.50734,0.0977 -0.39945,0.13417 -0.77384,0.35501 -1.05489,0.666 -0.28104,0.31098 -0.46385,0.71543 -0.47273,1.13231 -0.006,0.29375 0.0724,0.58507 0.19632,0.85213 0.12391,0.26707 0.29217,0.51177 0.47174,0.74591 0.35913,0.4683 0.7728,0.90993 0.9982,1.45369 0.24733,0.59664 0.24319,1.28304 0.0297,1.8923 -0.21352,0.60927 -0.62828,1.14123 -1.14354,1.5367 -0.51527,0.39546 -1.12793,0.65795 -1.76336,0.80394 -0.63544,0.146 -1.29395,0.17806 -1.94522,0.14052 -1.05059,-0.0606 -2.12136,-0.31629 -2.96158,-0.94255 -0.42012,-0.31313 -0.77531,-0.71661 -1.00359,-1.18518 -0.22829,-0.46855 -0.3261,-1.00302 -0.24827,-1.51735 0.10575,-0.69894 0.51658,-1.3086 0.86265,-1.92702 0.17304,-0.3092 0.33283,-0.62831 0.43188,-0.96783 0.099,-0.33952 0.13547,-0.7022 0.0601,-1.04761 -0.0787,-0.36059 -0.27794,-0.69064 -0.54359,-0.9497 -0.26566,-0.25907 -0.59567,-0.44905 -0.94634,-0.57528 -0.70134,-0.25248 -1.468,-0.25188 -2.21313,-0.20875 -2.7737,0.16054 -5.51343,0.87468 -8.00649,2.08695 z" />
      <path
         inkscape:original-d="m 577.21577,-188.22801 0.73336,6.31127 c 0.15336,1.31987 0.41717,2.63554 0.39321,3.96388 -0.012,0.66417 -0.12225,1.34116 -0.44523,1.92371 -0.1615,0.29126 -0.37637,0.5557 -0.64182,0.75937 -0.26545,0.20368 -0.5826,0.34514 -0.91591,0.38746 -0.54012,0.0686 -1.07796,-0.12197 -1.5748,-0.34228 -0.49684,-0.22032 -0.98926,-0.477 -1.52836,-0.553 -0.52629,-0.0742 -1.07294,0.0331 -1.54386,0.2769 -0.47091,0.24381 -0.86656,0.62038 -1.15446,1.06208 -0.5758,0.88341 -0.70923,1.99441 -0.56624,3.03571 0.10842,0.78949 0.37781,1.57739 0.90369,2.18124 0.26293,0.30193 0.58795,0.55355 0.95608,0.71576 0.36812,0.16222 0.77976,0.23309 1.17976,0.18413 0.55504,-0.0679 1.05295,-0.35549 1.55686,-0.59529 0.25196,-0.1199 0.51069,-0.22957 0.78246,-0.2947 0.27176,-0.0651 0.55839,-0.0845 0.83117,-0.0236 0.29424,0.0656 0.56363,0.22359 0.77889,0.43242 0.21527,0.20884 0.3779,0.46714 0.49344,0.74253 0.23107,0.55078 0.27472,1.15838 0.30322,1.75397 0.17068,3.56708 -0.1022,7.15468 -0.81055,10.65645 2.4459,0.85498 4.96199,1.51369 7.51539,1.96755 0.84637,0.15043 1.72478,0.27742 2.55848,0.069 0.41685,-0.1042 0.81611,-0.29423 1.13377,-0.58064 0.31766,-0.2864 0.54975,-0.67272 0.61548,-1.09269 0.0491,-0.31366 0.006,-0.63664 -0.0893,-0.93987 -0.0948,-0.30324 -0.23974,-0.58881 -0.39602,-0.86608 -0.31258,-0.55454 -0.67976,-1.0983 -0.80157,-1.72157 -0.1084,-0.55466 -0.009,-1.14088 0.24356,-1.64771 0.25245,-0.50683 0.65264,-0.93543 1.12276,-1.25672 0.94024,-0.64261 2.1217,-0.84796 3.2648,-0.85714 1.04722,-0.009 2.13007,0.14645 3.01888,0.69385 0.44441,0.27371 0.83215,0.64423 1.09442,1.09215 0.26228,0.44793 0.39488,0.97466 0.34167,1.48951 -0.0409,0.39608 -0.18831,0.7745 -0.36818,1.13075 -0.17987,0.35626 -0.39311,0.69512 -0.57787,1.04892 -0.18475,0.35381 -0.3422,0.72723 -0.39943,1.12134 -0.0572,0.39411 -0.007,0.81296 0.19927,1.1547 0.147,0.24303 0.36671,0.43742 0.61003,0.58687 0.24332,0.14943 0.51069,0.25639 0.78035,0.35198 1.73962,0.61659 3.64078,0.78179 5.46257,0.47467 1.8218,-0.30711 3.56005,-1.08585 4.99451,-2.23753 l -0.93079,-6.88961 c -0.16368,-1.21147 -0.41018,-2.42215 -0.37743,-3.64396 0.0164,-0.61089 0.12246,-1.23066 0.41049,-1.77142 0.14401,-0.27039 0.33358,-0.51858 0.56781,-0.718 0.23425,-0.19942 0.51399,-0.34916 0.81505,-0.41861 0.28715,-0.0662 0.58821,-0.0588 0.87847,-0.008 0.29027,0.0513 0.57108,0.14543 0.84568,0.25159 0.54921,0.21233 1.08808,0.47659 1.67249,0.55471 0.53999,0.0722 1.09885,-0.022 1.59271,-0.24968 0.49385,-0.22761 0.92257,-0.58604 1.24778,-1.01818 0.6504,-0.86428 0.86958,-1.99946 0.73587,-3.06846 -0.10894,-0.871 -0.45149,-2.10408 -1.06191,-2.74147 -0.30522,-0.31868 -0.6747,-0.57906 -1.08493,-0.74691 -0.41023,-0.16784 -0.86126,-0.24186 -1.30318,-0.19957 -0.58833,0.0563 -1.1348,0.31124 -1.68674,0.52027 -0.27597,0.10453 -0.55736,0.19861 -0.84811,0.25099 -0.29075,0.0524 -0.59223,0.0622 -0.88071,-9.9e-4 -0.4367,-0.0961 -0.82678,0.0157 -1.1094,-0.32702 -0.28262,-0.34278 -0.46197,-0.7615 -0.55611,-1.19377 -0.18827,-0.86454 -0.0447,-1.76141 0.0828,-2.63675 0.42737,-2.93472 0.66797,-5.89601 0.71991,-8.86053 -2.61078,-0.82852 -5.30205,-1.40906 -8.02469,-1.73101 -0.8378,-0.0991 -1.70845,-0.17059 -2.50734,0.0977 -0.39945,0.13417 -0.77384,0.35501 -1.05489,0.666 -0.28104,0.31098 -0.46385,0.71543 -0.47273,1.13231 -0.006,0.29375 0.0724,0.58507 0.19632,0.85213 0.12391,0.26707 0.29217,0.51177 0.47174,0.74591 0.35913,0.4683 0.7728,0.90993 0.9982,1.45369 0.24733,0.59664 0.24319,1.28304 0.0297,1.8923 -0.21352,0.60927 -0.62828,1.14123 -1.14354,1.5367 -0.51527,0.39546 -1.12793,0.65795 -1.76336,0.80394 -0.63544,0.146 -1.29395,0.17806 -1.94522,0.14052 -1.05059,-0.0606 -2.12136,-0.31629 -2.96158,-0.94255 -0.42012,-0.31313 -0.77531,-0.71661 -1.00359,-1.18518 -0.22829,-0.46855 -0.3261,-1.00302 -0.24827,-1.51735 0.10575,-0.69894 0.51658,-1.3086 0.86265,-1.92702 0.17304,-0.3092 0.33283,-0.62831 0.43188,-0.96783 0.099,-0.33952 0.13547,-0.7022 0.0601,-1.04761 -0.0787,-0.36059 -0.27794,-0.69064 -0.54359,-0.9497 -0.26566,-0.25907 -0.59567,-0.44905 -0.94634,-0.57528 -0.70134,-0.25248 -1.468,-0.25188 -2.21313,-0.20875 -2.7737,0.16054 -5.51343,0.87468 -8.00649,2.08695 z"
         sodipodi:nodetypes="cccccccccsccccccccccccccccccccccccccccccccccccccccccccccccccccccccccccccccccccccscccc"
         inkscape:connector-curvature="0"
         style="display:inline;fill:#62a0ea;fill-opacity:1;fill-rule:nonzero;stroke:url(#linearGradient22920);stroke-width:1;enable-background:new;font-variation-settings:normal;opacity:1;vector-effect:none;stroke-linecap:butt;stroke-linejoin:miter;stroke-miterlimit:4;stroke-dasharray:none;stroke-dashoffset:0;stroke-opacity:1;-inkscape-stroke:none;stop-color:#000000;stop-opacity:1"
         d="m 570.73848,-9.6743515 0.25636,2.2141419 c 0.0536,0.4630404 0.14582,0.9246104 0.13743,1.3906228 -0.004,0.2330054 -0.0428,0.470509 -0.15563,0.6748819 -0.0565,0.1021819 -0.13153,0.1949533 -0.22432,0.2664049 -0.0928,0.071461 -0.20365,0.1210823 -0.32015,0.1359297 -0.18878,0.02408 -0.37679,-0.042773 -0.55045,-0.1200796 -0.17367,-0.077299 -0.34576,-0.1673429 -0.5342,-0.1940053 -0.18397,-0.026033 -0.37502,0.011607 -0.53962,0.097132 -0.1646,0.085545 -0.30291,0.2176466 -0.40352,0.3726045 -0.20129,0.309922 -0.24792,0.6996852 -0.19793,1.0649995 0.038,0.2769723 0.13206,0.5533842 0.31584,0.7652287 0.092,0.1059238 0.20553,0.1941974 0.3342,0.2511067 0.12865,0.056909 0.27254,0.081777 0.41237,0.064591 0.19403,-0.02383 0.36803,-0.1247133 0.54416,-0.2088405 0.0881,-0.042063 0.17853,-0.080534 0.27352,-0.1033896 0.095,-0.022842 0.19516,-0.029662 0.29051,-0.00826 0.1029,0.023018 0.197,0.078439 0.27227,0.1517028 0.0752,0.07327 0.13207,0.1638837 0.17246,0.2604977 0.0808,0.1932245 0.096,0.4063859 0.10602,0.6153329 0.0597,1.25141584 -0.0358,2.51003034 -0.28331,3.7385313 0.85493,0.2999478 1.73439,0.5310414 2.6269,0.6902642 0.29584,0.052774 0.60287,0.097322 0.89427,0.024204 0.14572,-0.036559 0.28527,-0.1032199 0.39628,-0.2037026 0.1111,-0.1004689 0.19216,-0.2360051 0.21515,-0.3833409 0.0174,-0.1100379 0.004,-0.2233482 -0.0314,-0.3297277 -0.0332,-0.1063887 -0.0838,-0.2065692 -0.1384,-0.3038402 -0.10927,-0.194546 -0.2376,-0.38531206 -0.28018,-0.60396739 -0.0379,-0.19458903 -0.004,-0.40024867 0.0851,-0.57805567 0.0881,-0.1778078 0.22814,-0.3281711 0.39244,-0.4408858 0.32865,-0.225443 0.74161,-0.2974867 1.14117,-0.3007052 0.36603,-0.00315 0.74452,0.051392 1.05519,0.2434177 0.15535,0.09603 0.29088,0.2260115 0.38255,0.3831513 0.0916,0.157145 0.13802,0.3419334 0.11942,0.52255509 -0.0143,0.13895432 -0.0658,0.27171311 -0.12866,0.39669451 -0.063,0.1249836 -0.13739,0.24386296 -0.20198,0.36798456 -0.0645,0.1241258 -0.11967,0.2551287 -0.13962,0.393393 -0.0199,0.1382639 -0.004,0.2852057 0.0696,0.4050953 0.0514,0.085259 0.12826,0.1534575 0.21323,0.2058881 0.085,0.052423 0.1785,0.089945 0.27275,0.1234834 0.60806,0.216314 1.2726,0.2742687 1.90936,0.1665261 0.63677,-0.1077387 1.24435,-0.3809425 1.74576,-0.7849782 l -0.32526,-2.41703526 c -0.0572,-0.42501254 -0.14339,-0.84974704 -0.13192,-1.27838544 0.004,-0.2143154 0.0428,-0.4317457 0.14346,-0.6214577 0.0503,-0.094855 0.11669,-0.181929 0.19848,-0.2518896 0.082,-0.069961 0.17963,-0.1224924 0.28489,-0.1468593 0.10042,-0.023222 0.20561,-0.020625 0.30705,-0.00278 0.10146,0.017998 0.1996,0.051011 0.2956,0.088264 0.19195,0.074497 0.3803,0.1671987 0.5846,0.1946059 0.18872,0.025321 0.38404,-0.0077 0.5567,-0.087597 0.17261,-0.079851 0.32244,-0.2055967 0.43613,-0.3572023 0.22734,-0.3032087 0.30395,-0.7014586 0.25722,-1.0764871 -0.0381,-0.3055672 -0.15783,-0.6066022 -0.37116,-0.8302146 -0.10666,-0.1117954 -0.23584,-0.2031464 -0.37926,-0.2620317 -0.14336,-0.058892 -0.30102,-0.084843 -0.45548,-0.07002 -0.20564,0.01974 -0.39666,0.1091932 -0.58958,0.1825232 -0.0964,0.036664 -0.19482,0.06969 -0.29644,0.08805 -0.10159,0.018379 -0.20701,0.021825 -0.30784,-3.482e-4 -0.15263,-0.033723 -0.28898,-0.1260321 -0.38776,-0.2462843 -0.0987,-0.1202558 -0.1615,-0.2671528 -0.19437,-0.4188036 -0.066,-0.3032998 -0.0159,-0.6179429 0.0289,-0.9250325 0.14936,-1.0295667 0.23346,-2.0684564 0.25162,-3.1084814 -0.91255,-0.2906635 -1.85325,-0.4943305 -2.80489,-0.6072795 -0.29283,-0.03477 -0.59715,-0.05984 -0.8764,0.0343 -0.13962,0.04706 -0.27049,0.124545 -0.36874,0.233648 -0.0982,0.109099 -0.16212,0.2509875 -0.16521,0.3972415 -0.004,0.103054 0.0254,0.205254 0.0687,0.298945 0.0432,0.09369 0.10211,0.179541 0.16487,0.261683 0.12553,0.164293 0.27017,0.319225 0.34893,0.509989 0.0865,0.209315 0.0849,0.4501205 0.0104,0.6638638 -0.0747,0.2137461 -0.21962,0.4003695 -0.3997,0.5391095 -0.18011,0.1387371 -0.39425,0.2308237 -0.61633,0.2820405 -0.22212,0.051246 -0.45231,0.062462 -0.67994,0.049292 -0.36724,-0.021262 -0.74148,-0.1109624 -1.03518,-0.3306673 -0.14685,-0.1098591 -0.27099,-0.2514038 -0.35078,-0.4157899 -0.0799,-0.1643765 -0.11396,-0.351881 -0.0868,-0.5323216 0.0369,-0.245204 0.18057,-0.459086 0.30152,-0.676044 0.0604,-0.108473 0.1163,-0.220425 0.15095,-0.339537 0.0346,-0.119113 0.0474,-0.246348 0.0211,-0.367527 -0.0276,-0.126503 -0.0972,-0.2422905 -0.19002,-0.3331765 -0.0929,-0.09089 -0.20819,-0.157537 -0.33077,-0.201821 -0.24514,-0.08858 -0.5131,-0.08837 -0.77354,-0.07323 -0.96952,0.05631 -1.92713,0.306859 -2.79855,0.7321515 z"
         id="path3921" />
    </g>
  </g>
</svg>
