<?xml version="1.0" encoding="UTF-8" standalone="no"?>
<!-- Created with Inkscape (http://www.inkscape.org/) -->

<svg
   xmlns:dc="http://purl.org/dc/elements/1.1/"
   xmlns:cc="http://creativecommons.org/ns#"
   xmlns:rdf="http://www.w3.org/1999/02/22-rdf-syntax-ns#"
   xmlns:svg="http://www.w3.org/2000/svg"
   xmlns="http://www.w3.org/2000/svg"
   xmlns:xlink="http://www.w3.org/1999/xlink"
   xmlns:sodipodi="http://sodipodi.sourceforge.net/DTD/sodipodi-0.dtd"
   xmlns:inkscape="http://www.inkscape.org/namespaces/inkscape"
   inkscape:export-ydpi="96"
   inkscape:export-xdpi="96"
   inkscape:export-filename="Template.png"
   width="680"
   height="560"
   id="svg11300"
   sodipodi:version="0.32"
   inkscape:version="0.92.4 5da689c313, 2019-01-14"
   sodipodi:docname="avatar-default.svg"
   inkscape:output_extension="org.inkscape.output.svg.inkscape"
   version="1.0"
   style="display:inline;enable-background:new"
   viewBox="0 0 680 560"
   enable-background="new">
  <title
     id="title4162">Adwaita Icon Template</title>
  <defs
     id="defs3">
    <linearGradient
       inkscape:collect="always"
       id="linearGradient2374">
      <stop
         style="stop-color:#e6f0fc;stop-opacity:1"
         offset="0"
         id="stop2362" />
      <stop
         id="stop2364"
         offset="0.03835422"
         style="stop-color:#cadff8;stop-opacity:0.99607843" />
      <stop
         style="stop-color:#d4e5f9;stop-opacity:0.99215686"
         offset="0.12465519"
         id="stop2366" />
      <stop
         id="stop2368"
         offset="0.90136385"
         style="stop-color:#b2d0f4;stop-opacity:0.96470588" />
      <stop
         id="stop2370"
         offset="0.95889956"
         style="stop-color:#d0e3f9;stop-opacity:0.96470588" />
      <stop
         style="stop-color:#98c1f1;stop-opacity:0.96638656"
         offset="1"
         id="stop2372" />
    </linearGradient>
    <linearGradient
       id="linearGradient2327"
       inkscape:collect="always">
      <stop
         id="stop2315"
         offset="0"
         style="stop-color:#e6f0fc;stop-opacity:1" />
      <stop
         style="stop-color:#cadff8;stop-opacity:0.99607843"
         offset="0.23012532"
         id="stop2317" />
      <stop
         id="stop2319"
         offset="0.38354221"
         style="stop-color:#d4e5f9;stop-opacity:0.99215686" />
      <stop
         style="stop-color:#b2d0f4;stop-opacity:0.96470588"
         offset="0.58899558"
         id="stop2321" />
      <stop
         style="stop-color:#d0e3f9;stop-opacity:0.96470588"
         offset="0.75339735"
         id="stop2323" />
      <stop
         id="stop2325"
         offset="1"
         style="stop-color:#98c1f1;stop-opacity:0.96638656" />
    </linearGradient>
    <linearGradient
       inkscape:collect="always"
       id="linearGradient2270">
      <stop
         style="stop-color:#e6f0fc;stop-opacity:1"
         offset="0"
         id="stop2266" />
      <stop
         id="stop2278"
         offset="0.07536218"
         style="stop-color:#92bdf0;stop-opacity:0.99607843;" />
      <stop
         style="stop-color:#b6d3f5;stop-opacity:0.99215686"
         offset="0.22970521"
         id="stop2280" />
      <stop
         id="stop2276"
         offset="0.88756078"
         style="stop-color:#599ae8;stop-opacity:0.96470588" />
      <stop
         id="stop2274"
         offset="0.94828588"
         style="stop-color:#d0e3f9;stop-opacity:0.96470588" />
      <stop
         style="stop-color:#98c1f1;stop-opacity:0.96638656"
         offset="1"
         id="stop2268" />
    </linearGradient>
    <linearGradient
       id="linearGradient2171"
       inkscape:collect="always">
      <stop
         id="stop2159"
         offset="0"
         style="stop-color:#e7e6e4;stop-opacity:1" />
      <stop
         style="stop-color:#aaa69e;stop-opacity:0.96218485"
         offset="0.17273138"
         id="stop2161" />
      <stop
         id="stop2163"
         offset="0.5133909"
         style="stop-color:#d6d4d0;stop-opacity:0.90980392;" />
      <stop
         id="stop2165"
         offset="0.71445769"
         style="stop-color:#f0efee;stop-opacity:0.97254902" />
      <stop
         style="stop-color:#c6c3be;stop-opacity:1"
         offset="0.94139653"
         id="stop2167" />
      <stop
         id="stop2169"
         offset="1"
         style="stop-color:#e8e7e5;stop-opacity:1" />
    </linearGradient>
    <linearGradient
       gradientTransform="translate(-174.6956,186.87683)"
       inkscape:collect="always"
       xlink:href="#linearGradient2171"
       id="linearGradient2157-3"
       gradientUnits="userSpaceOnUse"
       x1="375"
       y1="-102"
       x2="175"
       y2="-102" />
    <linearGradient
       gradientTransform="translate(-84.215098,-48.057543)"
       inkscape:collect="always"
       xlink:href="#linearGradient2270"
       id="linearGradient2272-9"
       x1="84.215096"
       y1="144.02876"
       x2="479.43863"
       y2="144.02876"
       gradientUnits="userSpaceOnUse" />
    <linearGradient
       inkscape:collect="always"
       xlink:href="#linearGradient2327"
       id="linearGradient2313"
       gradientUnits="userSpaceOnUse"
       x1="164.21509"
       y1="144.02876"
       x2="374.43863"
       y2="144.02876" />
    <linearGradient
       gradientTransform="translate(-174.6956,186.87683)"
       inkscape:collect="always"
       xlink:href="#linearGradient2327"
       id="linearGradient2313-0"
       gradientUnits="userSpaceOnUse"
       x1="164.21509"
       y1="144.02876"
       x2="374.43863"
       y2="144.02876" />
    <linearGradient
       inkscape:collect="always"
       xlink:href="#linearGradient2374"
       id="linearGradient2360"
       gradientUnits="userSpaceOnUse"
       x1="93.215088"
       y1="144.02876"
       x2="472.43863"
       y2="144.02876" />
    <linearGradient
       inkscape:collect="always"
       xlink:href="#linearGradient2327"
       id="linearGradient2432"
       gradientUnits="userSpaceOnUse"
       x1="584.3125"
       y1="-174.875"
       x2="601.5625"
       y2="-174.875" />
  </defs>
  <sodipodi:namedview
     stroke="#ef2929"
     fill="#f57900"
     id="base"
     pagecolor="#ffffff"
     bordercolor="#666666"
     borderopacity="0.25490196"
     inkscape:pageopacity="0.0"
     inkscape:pageshadow="2"
     inkscape:zoom="1"
     inkscape:cx="11.710527"
     inkscape:cy="314.5066"
     inkscape:current-layer="layer9"
     showgrid="false"
     inkscape:grid-bbox="true"
     inkscape:document-units="px"
     inkscape:showpageshadow="false"
     inkscape:window-width="1920"
     inkscape:window-height="1016"
     inkscape:window-x="0"
     inkscape:window-y="27"
     width="400px"
     height="300px"
     inkscape:snap-nodes="true"
     inkscape:snap-bbox="true"
     objecttolerance="7"
     gridtolerance="12"
     guidetolerance="13"
     inkscape:window-maximized="1"
     inkscape:pagecheckerboard="false"
     showguides="false"
     inkscape:guide-bbox="true"
     inkscape:locked="false"
     inkscape:measure-start="0,0"
     inkscape:measure-end="0,0"
     inkscape:object-nodes="true"
     inkscape:bbox-nodes="true"
     inkscape:snap-global="false"
     inkscape:snap-bbox-midpoints="false"
     inkscape:snap-bbox-edge-midpoints="true">
    <inkscape:grid
       type="xygrid"
       id="grid5883"
       spacingx="1px"
       spacingy="1px"
       enabled="true"
       visible="true"
       empspacing="4" />
  </sodipodi:namedview>
  <metadata
     id="metadata4">
    <rdf:RDF>
      <cc:Work
         rdf:about="">
        <dc:format>image/svg+xml</dc:format>
        <dc:type
           rdf:resource="http://purl.org/dc/dcmitype/StillImage" />
        <dc:creator>
          <cc:Agent>
            <dc:title>GNOME Design Team</dc:title>
          </cc:Agent>
        </dc:creator>
        <dc:source />
        <cc:license
           rdf:resource="http://creativecommons.org/licenses/by-sa/4.0/" />
        <dc:title>Adwaita Icon Template</dc:title>
        <dc:subject>
          <rdf:Bag />
        </dc:subject>
        <dc:date />
        <dc:rights>
          <cc:Agent>
            <dc:title />
          </cc:Agent>
        </dc:rights>
        <dc:publisher>
          <cc:Agent>
            <dc:title />
          </cc:Agent>
        </dc:publisher>
        <dc:identifier />
        <dc:relation />
        <dc:language />
        <dc:coverage />
        <dc:description />
        <dc:contributor>
          <cc:Agent>
            <dc:title />
          </cc:Agent>
        </dc:contributor>
      </cc:Work>
      <cc:License
         rdf:about="http://creativecommons.org/licenses/by-sa/4.0/">
        <cc:permits
           rdf:resource="http://creativecommons.org/ns#Reproduction" />
        <cc:permits
           rdf:resource="http://creativecommons.org/ns#Distribution" />
        <cc:requires
           rdf:resource="http://creativecommons.org/ns#Notice" />
        <cc:requires
           rdf:resource="http://creativecommons.org/ns#Attribution" />
        <cc:permits
           rdf:resource="http://creativecommons.org/ns#DerivativeWorks" />
        <cc:requires
           rdf:resource="http://creativecommons.org/ns#ShareAlike" />
      </cc:License>
    </rdf:RDF>
  </metadata>
  <g
     id="layer1"
     inkscape:label="artwork:avatar-default"
     inkscape:groupmode="layer"
     style="display:inline"
     transform="translate(0,260)">
    <g
       inkscape:groupmode="layer"
       id="layer7"
       inkscape:label="baseplate"
       style="display:none"
       sodipodi:insensitive="true">
      <rect
         inkscape:label="48x48"
         y="-196"
         x="568"
         height="48"
         width="48"
         id="rect6284"
         style="display:inline;overflow:visible;visibility:visible;fill:#eeeeec;fill-opacity:1;fill-rule:nonzero;stroke:none;stroke-width:2;marker:none;enable-background:accumulate" />
      <rect
         style="display:inline;overflow:visible;visibility:visible;fill:#eeeeec;fill-opacity:1;fill-rule:nonzero;stroke:none;stroke-width:2;marker:none;enable-background:accumulate"
         id="rect6592"
         width="32"
         height="32"
         x="568"
         y="-116"
         inkscape:label="32x32" />
      <rect
         inkscape:label="22x22"
         y="-58.941162"
         x="569"
         height="22"
         width="22"
         id="rect6749"
         style="display:inline;overflow:visible;visibility:visible;fill:#eeeeec;fill-opacity:1;fill-rule:nonzero;stroke:none;stroke-width:2;marker:none;enable-background:accumulate" />
      <rect
         style="display:inline;overflow:visible;visibility:visible;fill:#eeeeec;fill-opacity:1;fill-rule:nonzero;stroke:none;stroke-width:2;marker:none;enable-background:accumulate"
         id="rect6833"
         width="16"
         height="16"
         x="568"
         y="-12"
         inkscape:label="16x16" />
      <rect
         style="display:inline;overflow:visible;visibility:visible;fill:#eeeeec;fill-opacity:1;fill-rule:nonzero;stroke:none;stroke-width:2;marker:none;enable-background:accumulate"
         id="rect8104"
         width="24"
         height="24"
         x="568"
         y="-60"
         inkscape:label="24x24" />
      <text
         xml:space="preserve"
         style="font-style:normal;font-variant:normal;font-weight:normal;font-stretch:normal;font-size:18.30133247px;line-height:125%;font-family:Cantarell;-inkscape-font-specification:'Cantarell, Normal';text-align:start;writing-mode:lr-tb;text-anchor:start;display:inline;fill:#000000;fill-opacity:1;stroke:none;enable-background:new"
         x="31.855944"
         y="-303.69958"
         id="context"
         inkscape:label="context"><tspan
           sodipodi:role="line"
           id="tspan2716"
           x="31.855944"
           y="-303.69958">status</tspan></text>
      <text
         inkscape:label="icon-name"
         id="text3021"
         y="-277.90063"
         x="31.264769"
         style="font-style:normal;font-variant:normal;font-weight:bold;font-stretch:normal;font-size:18.30133247px;line-height:125%;font-family:Cantarell;-inkscape-font-specification:'Cantarell, Bold';text-align:start;writing-mode:lr-tb;text-anchor:start;display:inline;fill:#000000;fill-opacity:1;stroke:none;enable-background:new"
         xml:space="preserve"><tspan
           y="-277.90063"
           x="31.264769"
           id="tspan3023"
           sodipodi:role="line">avatar-default</tspan></text>
      <rect
         style="display:inline;overflow:visible;visibility:visible;fill:#eeeeec;fill-opacity:1;fill-rule:nonzero;stroke:none;stroke-width:2;marker:none;enable-background:accumulate"
         id="rect13805"
         width="512"
         height="512"
         x="24"
         y="-236"
         inkscape:label="512x512" />
      <path
         inkscape:connector-curvature="0"
         id="path13807"
         d="m 24,-236 v 512 h 511.875 v -512 h -36 V 240 H 60 v -476 z"
         style="display:inline;overflow:visible;visibility:visible;opacity:0.4;fill:#729fcf;fill-opacity:1;fill-rule:nonzero;stroke:none;stroke-width:2;marker:none;enable-background:accumulate"
         sodipodi:nodetypes="ccccccccc" />
    </g>
    <g
       inkscape:groupmode="layer"
       id="layer9"
       inkscape:label="icons"
       style="display:inline">
      <path
         style="opacity:1;vector-effect:none;fill:url(#linearGradient2360);fill-opacity:1;stroke:none;stroke-width:0.24999996;stroke-linecap:butt;stroke-linejoin:miter;stroke-miterlimit:4;stroke-dasharray:none;stroke-dashoffset:0;stroke-opacity:1;marker:none;marker-start:none;marker-mid:none;marker-end:none;paint-order:normal;font-variant-east_asian:normal"
         d="M 281.8848,48.057543 C 186.57952,48.176654 106.26047,114.67544 85.857887,204.60835 c -6.285244,23.45685 6.507706,35.39164 20.691363,35.39164 h 347.30487 c 18.66024,0 29.22087,-16.46207 24.43674,-34.31669 C 458.27606,115.15713 377.62282,48.111395 281.8848,48.057543 Z"
         id="path2155" />
      <path
         style="opacity:1;vector-effect:none;fill:url(#linearGradient2313);fill-opacity:1;stroke:none;stroke-width:0.24999996;stroke-linecap:butt;stroke-linejoin:miter;stroke-miterlimit:4;stroke-dasharray:none;stroke-dashoffset:0;stroke-opacity:1;marker:none;marker-start:none;marker-mid:none;marker-end:none;paint-order:normal;font-variant-east_asian:normal"
         d="M 377.52486,-85.462204 A 101.41463,101.41463 0 0 1 276.11023,15.952423 101.41463,101.41463 0 0 1 174.6956,-85.462204 101.41463,101.41463 0 0 1 276.11023,-186.87683 101.41463,101.41463 0 0 1 377.52486,-85.462204 Z"
         id="path2125" />
      <path
         id="circle2112"
         style="opacity:1;vector-effect:none;fill:#f6f9fe;fill-opacity:0.99607843;stroke:none;stroke-width:0.24999996;stroke-linecap:butt;stroke-linejoin:miter;stroke-miterlimit:4;stroke-dasharray:none;stroke-dashoffset:0;stroke-opacity:1;marker:none;marker-start:none;marker-mid:none;marker-end:none;paint-order:normal"
         d="m 281.8848,35.17949 c -95.30528,0.119112 -175.62433,66.6179 -196.026913,156.5508 -6.285244,23.45685 6.507706,35.39165 20.691363,35.39165 h 347.30487 c 18.66024,0 29.22087,-16.46207 24.43674,-34.31669 C 458.27606,102.27908 377.62282,35.233342 281.8848,35.17949 Z M 377.52486,-98.585365 A 101.41463,101.41463 0 0 1 276.11023,2.8292618 101.41463,101.41463 0 0 1 174.6956,-98.585365 101.41463,101.41463 0 0 1 276.11023,-199.99999 101.41463,101.41463 0 0 1 377.52486,-98.585365 Z" />
      <path
         style="opacity:1;vector-effect:none;fill:#cbe0f8;fill-opacity:0.98431373;stroke:none;stroke-width:0.24999996;stroke-linecap:butt;stroke-linejoin:miter;stroke-miterlimit:4;stroke-dasharray:none;stroke-dashoffset:0;stroke-opacity:1;marker:none;marker-start:none;marker-mid:none;marker-end:none;paint-order:normal"
         d="m 592.51751,-168.97314 c -8.94847,0.0112 -16.48981,6.23384 -18.40546,14.64943 -0.59014,2.195 0.61103,3.31182 1.94276,3.31182 h 32.60932 c 1.75206,0 2.74362,-1.54046 2.29443,-3.21122 -1.87924,-8.4711 -9.45197,-14.74499 -18.44105,-14.75003 z"
         id="path2222"
         inkscape:connector-curvature="0" />
      <path
         style="opacity:1;vector-effect:none;fill:url(#linearGradient2432);fill-opacity:1;stroke:none;stroke-width:0.24999996;stroke-linecap:butt;stroke-linejoin:miter;stroke-miterlimit:4;stroke-dasharray:none;stroke-dashoffset:0;stroke-opacity:1;marker:none;marker-start:none;marker-mid:none;marker-end:none;paint-order:normal;font-variant-east_asian:normal"
         d="m 601.40462,-181.49035 a 9.4899982,9.4899982 0 0 1 -9.49001,9.49 9.4899982,9.4899982 0 0 1 -9.49,-9.49 9.4899982,9.4899982 0 0 1 9.49,-9.48999 9.4899982,9.4899982 0 0 1 9.49001,9.48999 z"
         id="path2179"
         inkscape:connector-curvature="0" />
      <path
         style="opacity:1;vector-effect:none;fill:#f6f9fe;fill-opacity:1;stroke:none;stroke-width:0.24999996;stroke-linecap:butt;stroke-linejoin:miter;stroke-miterlimit:4;stroke-dasharray:none;stroke-dashoffset:0;stroke-opacity:1;marker:none;marker-start:none;marker-mid:none;marker-end:none;paint-order:normal"
         d="m 592.54873,-169.41064 c -8.91832,0.0112 -16.52801,4.67134 -18.43721,13.08693 -0.58815,2.195 0.60897,3.31182 1.93622,3.31182 h 32.49947 c 1.74616,0 2.73438,-1.54046 2.2867,-3.21122 -1.87291,-8.4711 -9.32638,-13.18249 -18.28518,-13.18753 z"
         id="path2248"
         inkscape:connector-curvature="0"
         sodipodi:nodetypes="ccsscc" />
      <path
         style="opacity:1;vector-effect:none;fill:#f6f9fe;fill-opacity:1;stroke:none;stroke-width:0.24999996;stroke-linecap:butt;stroke-linejoin:miter;stroke-miterlimit:4;stroke-dasharray:none;stroke-dashoffset:0;stroke-opacity:1;marker:none;marker-start:none;marker-mid:none;marker-end:none;paint-order:normal"
         d="m 601.49301,-183.49035 a 9.4899982,9.4899982 0 0 1 -9.49001,9.49 9.4899982,9.4899982 0 0 1 -9.49,-9.49 9.4899982,9.4899982 0 0 1 9.49,-9.48999 9.4899982,9.4899982 0 0 1 9.49001,9.48999 z"
         id="path2175"
         inkscape:connector-curvature="0" />
      <path
         style="opacity:1;vector-effect:none;fill:none;fill-opacity:1;stroke:#98c1f1;stroke-width:1;stroke-linecap:butt;stroke-linejoin:miter;stroke-miterlimit:4;stroke-dasharray:none;stroke-dashoffset:0;stroke-opacity:1;marker:none;marker-start:none;marker-mid:none;marker-end:none;paint-order:normal"
         d="m 592.01367,-193.45565 c -5.25369,5.9e-4 -9.5122,4.25997 -9.51172,9.51367 v 1.9869 c -4.8e-4,5.2537 4.25803,9.51308 9.51172,9.51367 5.25446,4.9e-4 9.51415,-4.25921 9.51367,-9.51367 v -1.9869 c 4.8e-4,-5.25446 -4.25921,-9.51416 -9.51367,-9.51367 z"
         id="path2241"
         inkscape:connector-curvature="0"
         sodipodi:nodetypes="ccccccc" />
      <path
         d="m 592.61139,-169.47315 c -9.14439,0.0124 -16.91335,5.86839 -18.87095,15.26383 -0.60306,2.45057 0.90566,3.69742 2.26655,3.69742 h 32.6358 c 1.79043,0 3.20995,-1.71982 2.75092,-3.5851 -1.92038,-9.45741 -9.59642,-15.37052 -18.78232,-15.37615 z"
         style="opacity:1;vector-effect:none;fill:none;fill-opacity:1;stroke:#98c1f1;stroke-width:1;stroke-linecap:butt;stroke-linejoin:miter;stroke-miterlimit:4;stroke-dasharray:none;stroke-dashoffset:0;stroke-opacity:1;marker:none;marker-start:none;marker-mid:none;marker-end:none;paint-order:normal"
         id="path2218"
         inkscape:connector-curvature="0"
         sodipodi:nodetypes="ccsscc" />
      <path
         inkscape:connector-curvature="0"
         id="path2250"
         d="m 583.53032,-97.10627 c -6.11893,0.0073 -11.27567,4.067464 -12.58559,9.558479 -0.40352,1.432196 0.41782,2.160901 1.32845,2.160901 h 22.29814 c 1.19805,0 1.87608,-1.005122 1.56892,-2.095261 -1.28501,-5.527235 -6.46322,-9.620831 -12.60992,-9.624119 z"
         style="opacity:1;vector-effect:none;fill:#cbe1f9;fill-opacity:0.98431373;stroke:#98c1f1;stroke-width:1;stroke-linecap:butt;stroke-linejoin:miter;stroke-miterlimit:4;stroke-dasharray:none;stroke-dashoffset:0;stroke-opacity:1;marker:none;marker-start:none;marker-mid:none;marker-end:none;paint-order:normal;font-variant-east_asian:normal" />
      <path
         sodipodi:nodetypes="ccsscc"
         inkscape:connector-curvature="0"
         id="path2254"
         d="m 583.54677,-97.016731 c -5.65812,0.0068 -10.48602,2.846907 -11.6973,7.975713 -0.37313,1.337723 0.38637,2.018359 1.22843,2.018359 h 20.61893 c 1.10784,0 1.7348,-0.93882 1.45078,-1.95705 -1.18825,-5.162636 -5.91703,-8.033952 -11.60084,-8.037022 z"
         style="opacity:1;vector-effect:none;fill:#f6f9fe;fill-opacity:1;stroke:none;stroke-width:0.25;stroke-linecap:butt;stroke-linejoin:miter;stroke-miterlimit:4;stroke-dasharray:none;stroke-dashoffset:0;stroke-opacity:1;marker:none;marker-start:none;marker-mid:none;marker-end:none;paint-order:normal" />
      <path
         sodipodi:nodetypes="ccccccc"
         inkscape:connector-curvature="0"
         id="path2258"
         d="m 583.52736,-113.48153 c -3.31492,3.6e-4 -6.00192,2.63614 -6.00162,5.88723 v 1.22953 c -3e-4,3.25109 2.6867,5.88686 6.00162,5.88722 3.31541,3.1e-4 6.00316,-2.63567 6.00286,-5.88722 v -1.22953 c 3e-4,-3.25155 -2.68745,-5.88754 -6.00286,-5.88723 z"
         style="opacity:1;vector-effect:none;fill:#cbe2fa;fill-opacity:0.98431373;stroke:#98c1f1;stroke-width:1;stroke-linecap:butt;stroke-linejoin:miter;stroke-miterlimit:4;stroke-dasharray:none;stroke-dashoffset:0;stroke-opacity:1;marker:none;marker-start:none;marker-mid:none;marker-end:none;paint-order:normal;font-variant-east_asian:normal" />
      <path
         inkscape:connector-curvature="0"
         id="path2256"
         d="m 588.97822,-107.51142 a 5.4575825,5.4942502 0 0 1 -5.45758,5.49424 5.4575825,5.4942502 0 0 1 -5.4576,-5.49424 5.4575825,5.4942502 0 0 1 5.4576,-5.49426 5.4575825,5.4942502 0 0 1 5.45758,5.49426 z"
         style="opacity:1;vector-effect:none;fill:#f6f9fe;fill-opacity:1;stroke:none;stroke-width:0.24999999;stroke-linecap:butt;stroke-linejoin:miter;stroke-miterlimit:4;stroke-dasharray:none;stroke-dashoffset:0;stroke-opacity:1;marker:none;marker-start:none;marker-mid:none;marker-end:none;paint-order:normal" />
      <path
         sodipodi:nodetypes="ccsscc"
         inkscape:connector-curvature="0"
         id="path2260"
         style="opacity:1;vector-effect:none;fill:none;fill-opacity:1;stroke:#98c1f1;stroke-width:1;stroke-linecap:butt;stroke-linejoin:miter;stroke-miterlimit:4;stroke-dasharray:none;stroke-dashoffset:0;stroke-opacity:1;marker:none;marker-start:none;marker-mid:none;marker-end:none;paint-order:normal;font-variant-east_asian:normal"
         d="m 583.59452,-97.432511 c -6.25291,0.0079 -11.56529,3.707527 -12.90389,9.643376 -0.41237,1.54822 0.42697,2.335954 1.35755,2.335954 h 22.78634 c 1.22429,0 1.91716,-1.086547 1.60328,-2.264998 -1.31315,-5.974997 -6.56199,-9.710777 -12.84328,-9.714332 z" />
      <path
         style="opacity:1;vector-effect:none;fill:#cbe1f9;fill-opacity:0.98431373;stroke:#98c1f1;stroke-width:1;stroke-linecap:butt;stroke-linejoin:miter;stroke-miterlimit:4;stroke-dasharray:none;stroke-dashoffset:0;stroke-opacity:1;marker:none;marker-start:none;marker-mid:none;marker-end:none;paint-order:normal"
         d="m 580.10515,-46.803399 c -4.51985,0.0052 -8.32898,2.893584 -9.29657,6.799879 -0.29807,1.01886 0.30863,1.537259 0.98129,1.537259 h 16.47089 c 0.88497,0 1.38581,-0.715041 1.15892,-1.490563 -0.9492,-3.932061 -4.77416,-6.844236 -9.31453,-6.846575 z"
         id="path2472"
         inkscape:connector-curvature="0" />
      <path
         style="opacity:1;vector-effect:none;fill:#f6f9fe;fill-opacity:1;stroke:none;stroke-width:0.25;stroke-linecap:butt;stroke-linejoin:miter;stroke-miterlimit:4;stroke-dasharray:none;stroke-dashoffset:0;stroke-opacity:1;marker:none;marker-start:none;marker-mid:none;marker-end:none;paint-order:normal"
         d="m 580.1173,-46.960674 c -4.17948,0.0049 -7.74568,1.987515 -8.64041,5.568097 -0.27563,0.933905 0.28539,1.409079 0.90739,1.409079 h 15.23052 c 0.81833,0 1.28145,-0.655418 1.07165,-1.366277 -0.87772,-3.604199 -4.37071,-5.608755 -8.56915,-5.610899 z"
         id="path2474"
         inkscape:connector-curvature="0"
         sodipodi:nodetypes="ccsscc" />
      <path
         style="opacity:1;vector-effect:none;fill:#cbe2fa;fill-opacity:0.98431373;stroke:#98c1f1;stroke-width:1;stroke-linecap:butt;stroke-linejoin:miter;stroke-miterlimit:4;stroke-dasharray:none;stroke-dashoffset:0;stroke-opacity:1;marker:none;marker-start:none;marker-mid:none;marker-end:none;paint-order:normal"
         d="m 580.05878,-58.541108 c -2.47303,2.5e-4 -4.47762,1.830549 -4.4774,4.088123 v 0.853791 c -2.2e-4,2.257574 2.00437,4.087865 4.4774,4.088115 2.4734,2.16e-4 4.47854,-1.830222 4.4783,-4.088115 v -0.853791 c 2.4e-4,-2.257894 -2.0049,-4.088339 -4.4783,-4.088123 z"
         id="path2476"
         inkscape:connector-curvature="0"
         sodipodi:nodetypes="ccccccc" />
      <path
         style="opacity:1;vector-effect:none;fill:#f6f9fe;fill-opacity:1;stroke:none;stroke-width:0.25;stroke-linecap:butt;stroke-linejoin:miter;stroke-miterlimit:4;stroke-dasharray:none;stroke-dashoffset:0;stroke-opacity:1;marker:none;marker-start:none;marker-mid:none;marker-end:none;paint-order:normal"
         d="m 583.99675,-54.492861 a 3.9429487,3.535637 0 0 1 -3.94295,3.535629 3.9429487,3.535637 0 0 1 -3.94295,-3.535629 3.9429487,3.535637 0 0 1 3.94295,-3.535643 3.9429487,3.535637 0 0 1 3.94295,3.535643 z"
         id="path2478"
         inkscape:connector-curvature="0" />
      <path
         d="m 580.15256,-47.477427 c -4.61882,0.0059 -8.5429,2.774303 -9.53168,7.216038 -0.30459,1.158517 0.3154,1.74797 1.00278,1.74797 h 16.83152 c 0.90434,0 1.41614,-0.813052 1.1843,-1.694875 -0.96998,-4.471027 -4.84713,-7.266474 -9.48692,-7.269133 z"
         style="opacity:1;vector-effect:none;fill:none;fill-opacity:1;stroke:#98c1f1;stroke-width:0.99999994;stroke-linecap:butt;stroke-linejoin:miter;stroke-miterlimit:4;stroke-dasharray:none;stroke-dashoffset:0;stroke-opacity:1;marker:none;marker-start:none;marker-mid:none;marker-end:none;paint-order:normal"
         id="path2480"
         inkscape:connector-curvature="0"
         sodipodi:nodetypes="ccsscc" />
      <path
         inkscape:connector-curvature="0"
         id="path2482"
         d="m 575.95487,-2.9608587 c -3.55529,0.00404 -6.55155,2.24343545 -7.31264,5.2720396 -0.23446,0.7899362 0.24276,1.191858 0.77187,1.191858 h 12.95592 c 0.69611,0 1.09007,-0.5543811 0.91159,-1.1556539 -0.74662,-3.04858094 -3.7553,-5.3064302 -7.32674,-5.3082437 z"
         style="opacity:1;vector-effect:none;fill:#cbe1f9;fill-opacity:0.98431373;stroke:none;stroke-width:1;stroke-linecap:butt;stroke-linejoin:miter;stroke-miterlimit:4;stroke-dasharray:none;stroke-dashoffset:0;stroke-opacity:1;marker:none;marker-start:none;marker-mid:none;marker-end:none;paint-order:normal" />
      <path
         sodipodi:nodetypes="ccsscc"
         inkscape:connector-curvature="0"
         id="path2484"
         d="m 576.05944,-2.9212408 c -3.27274,0.00345 -6.06524,1.402685 -6.76587,3.9296737 -0.21583,0.6591018 0.22348,0.9944549 0.71054,0.9944549 h 11.92623 c 0.6408,0 1.00345,-0.4625599 0.83917,-0.9642474 -0.6873,-2.5436564 -3.42249,-3.958368 -6.71007,-3.9598812 z"
         style="opacity:1;vector-effect:none;fill:#f6f9fe;fill-opacity:1;stroke:none;stroke-width:0.25;stroke-linecap:butt;stroke-linejoin:miter;stroke-miterlimit:4;stroke-dasharray:none;stroke-dashoffset:0;stroke-opacity:1;marker:none;marker-start:none;marker-mid:none;marker-end:none;paint-order:normal" />
      <path
         sodipodi:nodetypes="ccccccc"
         inkscape:connector-curvature="0"
         id="path2486"
         d="m 575.91889,-11.50905 c -1.97986,1.95e-4 -3.5847,1.427182 -3.58453,3.1872916 v 0.6656553 c -1.7e-4,1.7601101 1.60467,3.1870902 3.58453,3.1872851 1.98017,1.684e-4 3.58545,-1.4269264 3.58525,-3.1872851 v -0.6656553 c 2e-4,-1.7603596 -1.60508,-3.1874596 -3.58525,-3.1872916 z"
         style="opacity:1;vector-effect:none;fill:#cbe2fa;fill-opacity:0.98431373;stroke:#98c1f1;stroke-width:1;stroke-linecap:butt;stroke-linejoin:miter;stroke-miterlimit:4;stroke-dasharray:none;stroke-dashoffset:0;stroke-opacity:1;marker:none;marker-start:none;marker-mid:none;marker-end:none;paint-order:normal" />
      <path
         inkscape:connector-curvature="0"
         id="path2488"
         d="m 579.07156,-8.5559729 a 3.1566576,2.5534223 0 0 1 -3.15666,2.5534166 3.1566576,2.5534223 0 0 1 -3.15666,-2.5534166 3.1566576,2.5534223 0 0 1 3.15666,-2.5534261 3.1566576,2.5534223 0 0 1 3.15666,2.5534261 z"
         style="opacity:1;vector-effect:none;fill:#f6f9fe;fill-opacity:1;stroke:none;stroke-width:0.24999999;stroke-linecap:butt;stroke-linejoin:miter;stroke-miterlimit:4;stroke-dasharray:none;stroke-dashoffset:0;stroke-opacity:1;marker:none;marker-start:none;marker-mid:none;marker-end:none;paint-order:normal" />
      <path
         sodipodi:nodetypes="ccsscc"
         inkscape:connector-curvature="0"
         id="path2490"
         style="opacity:1;vector-effect:none;fill:none;fill-opacity:1;stroke:#98c1f1;stroke-width:0.99999994;stroke-linecap:butt;stroke-linejoin:miter;stroke-miterlimit:4;stroke-dasharray:none;stroke-dashoffset:0;stroke-opacity:1;marker:none;marker-start:none;marker-mid:none;marker-end:none;paint-order:normal"
         d="m 576.06924,-3.4294541 c -3.59101,0.00457 -6.64188,2.1444105 -7.41062,5.5776703 -0.23681,0.8954811 0.24521,1.3511016 0.77964,1.3511016 h 13.08604 c 0.7031,0 1.10101,-0.6284523 0.92076,-1.3100615 -0.75413,-3.4559013 -3.76851,-5.6166551 -7.37582,-5.6187104 z" />
    </g>
  </g>
</svg>
