<?xml version="1.0" encoding="UTF-8" standalone="no"?>
<!-- Created with Inkscape (http://www.inkscape.org/) -->

<svg
   xmlns:dc="http://purl.org/dc/elements/1.1/"
   xmlns:cc="http://creativecommons.org/ns#"
   xmlns:rdf="http://www.w3.org/1999/02/22-rdf-syntax-ns#"
   xmlns:svg="http://www.w3.org/2000/svg"
   xmlns="http://www.w3.org/2000/svg"
   xmlns:xlink="http://www.w3.org/1999/xlink"
   xmlns:sodipodi="http://sodipodi.sourceforge.net/DTD/sodipodi-0.dtd"
   xmlns:inkscape="http://www.inkscape.org/namespaces/inkscape"
   height="300"
   id="svg11300"
   inkscape:export-filename="/home/jimmac/Desktop/wi-fi.png"
   inkscape:export-xdpi="90.000000"
   inkscape:export-ydpi="90.000000"
   inkscape:output_extension="org.inkscape.output.svg.inkscape"
   inkscape:version="0.48.4 r9939"
   sodipodi:docname="edit-clear.svg"
   sodipodi:version="0.32"
   style="display:inline;enable-background:new"
   version="1.0"
   width="400">
  <title
     id="title8836">Optical Drive</title>
  <metadata
     id="metadata154">
    <rdf:RDF>
      <cc:Work
         rdf:about="">
        <dc:format>image/svg+xml</dc:format>
        <dc:type
           rdf:resource="http://purl.org/dc/dcmitype/StillImage" />
        <dc:title>Optical Drive</dc:title>
        <dc:creator>
          <cc:Agent>
            <dc:title />
          </cc:Agent>
        </dc:creator>
        <dc:contributor>
          <cc:Agent>
            <dc:title />
          </cc:Agent>
        </dc:contributor>
        <dc:source />
        <cc:license
           rdf:resource="" />
        <dc:subject>
          <rdf:Bag />
        </dc:subject>
      </cc:Work>
    </rdf:RDF>
  </metadata>
  <sodipodi:namedview
     bordercolor="#666666"
     borderopacity="0.25490196"
     fill="#f57900"
     gridtolerance="12"
     guidetolerance="13"
     height="300px"
     id="base"
     inkscape:current-layer="g6396"
     inkscape:cx="9.86722"
     inkscape:cy="135.006"
     inkscape:document-units="px"
     inkscape:grid-bbox="true"
     inkscape:guide-bbox="true"
     inkscape:pageopacity="0.0"
     inkscape:pageshadow="2"
     inkscape:showpageshadow="false"
     inkscape:snap-bbox="true"
     inkscape:snap-nodes="false"
     inkscape:window-height="1374"
     inkscape:window-width="2560"
     inkscape:window-x="0"
     inkscape:window-y="27"
     inkscape:zoom="1"
     objecttolerance="7"
     pagecolor="#ffffff"
     showgrid="false"
     showguides="true"
     stroke="#ef2929"
     width="400px"
     inkscape:window-maximized="1">
    <inkscape:grid
       empspacing="2"
       enabled="true"
       id="grid5883"
       spacingx="0.5px"
       spacingy="0.5px"
       type="xygrid"
       visible="true" />
  </sodipodi:namedview>
  <defs
     id="defs3">
    <linearGradient
       inkscape:collect="always"
       id="linearGradient7077">
      <stop
         style="stop-color:#888a85;stop-opacity:1;"
         offset="0"
         id="stop7079" />
      <stop
         id="stop7085"
         offset="0.61538231"
         style="stop-color:#888a85;stop-opacity:0.89803922;" />
      <stop
         style="stop-color:#888a85;stop-opacity:0;"
         offset="1"
         id="stop7081" />
    </linearGradient>
    <radialGradient
       inkscape:collect="always"
       xlink:href="#linearGradient7077"
       id="radialGradient7083"
       cx="314"
       cy="232.05559"
       fx="314"
       fy="232.05559"
       r="5.261925"
       gradientTransform="matrix(2.470582,0,0,1.9004442,-461.76274,-208.50871)"
       gradientUnits="userSpaceOnUse" />
    <linearGradient
       inkscape:collect="always"
       id="linearGradient7077-4">
      <stop
         style="stop-color:#888a85;stop-opacity:1;"
         offset="0"
         id="stop7079-9" />
      <stop
         id="stop7085-4"
         offset="0.61538231"
         style="stop-color:#888a85;stop-opacity:0.89803922;" />
      <stop
         style="stop-color:#888a85;stop-opacity:0;"
         offset="1"
         id="stop7081-6" />
    </linearGradient>
    <radialGradient
       inkscape:collect="always"
       xlink:href="#linearGradient7077-4-5"
       id="radialGradient7083-0-3"
       cx="314"
       cy="232.05559"
       fx="314"
       fy="232.05559"
       r="5.2619252"
       gradientTransform="matrix(2.470582,0,0,1.9004442,-461.76274,-208.50871)"
       gradientUnits="userSpaceOnUse" />
    <linearGradient
       inkscape:collect="always"
       id="linearGradient7077-4-5">
      <stop
         style="stop-color:#888a85;stop-opacity:1;"
         offset="0"
         id="stop7079-9-0" />
      <stop
         id="stop7085-4-9"
         offset="0.61538231"
         style="stop-color:#888a85;stop-opacity:0.89803922;" />
      <stop
         style="stop-color:#888a85;stop-opacity:0;"
         offset="1"
         id="stop7081-6-3" />
    </linearGradient>
    <radialGradient
       inkscape:collect="always"
       xlink:href="#linearGradient7077-4-6"
       id="radialGradient7083-0-9"
       cx="314"
       cy="232.05559"
       fx="314"
       fy="232.05559"
       r="5.2619252"
       gradientTransform="matrix(2.470582,0,0,1.9004442,-461.76274,-208.50871)"
       gradientUnits="userSpaceOnUse" />
    <linearGradient
       inkscape:collect="always"
       id="linearGradient7077-4-6">
      <stop
         style="stop-color:#888a85;stop-opacity:1;"
         offset="0"
         id="stop7079-9-4" />
      <stop
         id="stop7085-4-0"
         offset="0.61538231"
         style="stop-color:#888a85;stop-opacity:0.89803922;" />
      <stop
         style="stop-color:#888a85;stop-opacity:0;"
         offset="1"
         id="stop7081-6-7" />
    </linearGradient>
    <radialGradient
       inkscape:collect="always"
       xlink:href="#linearGradient7077-4"
       id="radialGradient6258"
       gradientUnits="userSpaceOnUse"
       gradientTransform="matrix(2.470582,0,0,1.9004442,-481.76274,-208.50871)"
       cx="314"
       cy="232.05559"
       fx="314"
       fy="232.05559"
       r="5.2619252" />
  </defs>
  <g
     inkscape:groupmode="layer"
     id="layer1"
     inkscape:label="edit-clear"
     style="display:inline">
    <g
       inkscape:groupmode="layer"
       id="layer3"
       inkscape:label="baseplate#1"
       style="display:none">
      <rect
         height="48"
         id="rect6284"
         inkscape:label="48x48"
         style="fill:#eeeeec;fill-opacity:1;fill-rule:nonzero;stroke:none;stroke-width:2;marker:none;visibility:visible;display:inline;overflow:visible;enable-background:accumulate"
         width="48"
         x="316"
         y="50" />
      <rect
         height="32"
         id="rect6592"
         inkscape:label="32x32"
         style="fill:#eeeeec;fill-opacity:1;fill-rule:nonzero;stroke:none;stroke-width:2;marker:none;visibility:visible;display:inline;overflow:visible;enable-background:accumulate"
         width="32"
         x="323"
         y="126" />
      <rect
         height="22"
         id="rect6749"
         inkscape:label="22x22"
         style="fill:#eeeeec;fill-opacity:1;fill-rule:nonzero;stroke:none;stroke-width:2;marker:none;visibility:visible;display:inline;overflow:visible;enable-background:accumulate"
         width="22"
         x="323"
         y="177" />
      <rect
         height="16"
         id="rect6833"
         inkscape:label="16x16"
         style="fill:#eeeeec;fill-opacity:1;fill-rule:nonzero;stroke:none;stroke-width:2;marker:none;visibility:visible;display:inline;overflow:visible;enable-background:accumulate"
         width="16"
         x="323"
         y="219" />
      <text
         id="context"
         inkscape:label="context"
         style="font-size:18.30070686px;font-style:normal;font-weight:normal;fill:#000000;fill-opacity:1;stroke:none;display:inline;enable-background:new;font-family:Bitstream Vera Sans"
         x="40.970734"
         xml:space="preserve"
         y="21.513618"><tspan
           id="tspan2716"
           sodipodi:role="line"
           x="40.970734"
           y="21.513618">actions</tspan></text>
      <text
         id="icon-name"
         inkscape:label="icon-name"
         sodipodi:linespacing="125%"
         style="font-size:18.30070686px;font-style:normal;font-variant:normal;font-weight:bold;font-stretch:normal;text-align:start;line-height:125%;writing-mode:lr-tb;text-anchor:start;fill:#000000;fill-opacity:1;stroke:none;display:inline;enable-background:new;font-family:Droid Sans;-inkscape-font-specification:Droid Sans Bold"
         x="211.9707"
         xml:space="preserve"
         y="21.513618"><tspan
           id="tspan3023"
           sodipodi:role="line"
           x="211.9707"
           y="21.513618">edit-clear</tspan></text>
    </g>
    <g
       inkscape:groupmode="layer"
       id="layer4"
       inkscape:label="lowres">
      <g
         id="g6464"
         transform="translate(20,0)">
        <g
           transform="translate(303,219)"
           inkscape:label="edit-clear"
           id="g27033"
           style="display:inline;enable-background:new">
          <g
             transform="translate(-41,-760)"
             id="g27035"
             style="display:inline">
            <path
               inkscape:connector-curvature="0"
               sodipodi:nodetypes="ccccccccccsccccccccccccccccccccccc"
               id="path27041"
               transform="translate(-79,222)"
               d="m 126,540 -6,6 6,6 9.0353,0 C 135.56563,551.9779 136,551.50823 136,551 l 0,-10 c 0,-0.53079 -0.34561,-1 -1.0089,-1 L 126,540 z m 1,3 1,0 c 0.0104,-1.2e-4 0.0208,-4.6e-4 0.0313,0 0.25495,0.0112 0.50987,0.12858 0.6875,0.3125 l 1.2812,1.28125 1.3125,-1.28125 C 131.57812,543.082 131.75917,543.007 132,543 l 1,0 0,1 c 0,0.28647 -0.0343,0.55065 -0.25,0.75 l -1.28125,1.28125 1.25,1.25 C 132.90694,547.46942 132.99999,547.7347 133,548 l 0,1 -1,0 c -0.2653,-10e-6 -0.53059,-0.0931 -0.71875,-0.28125 L 130,547.4375 l -1.28125,1.28125 C 128.53059,548.90694 128.26529,549 128,549 l -1,0 0,-1 c 0,-0.26529 0.0931,-0.53058 0.28125,-0.71875 l 1.28125,-1.25 -1.28125,-1.28125 C 127.07051,544.55537 126.97809,544.28075 127,544 l 0,-1 z"
               style="color:#000000;fill:#babdb6;fill-opacity:1;fill-rule:nonzero;stroke:none;stroke-width:1;marker:none;visibility:visible;display:inline;overflow:visible;enable-background:accumulate" />
          </g>
        </g>
        <g
           id="g7044"
           style="display:inline;enable-background:new"
           transform="translate(0,-5.8005171e-6)">
          <g
             transform="translate(305.9337,180.0442)"
             inkscape:label="edit-clear"
             id="g6262"
             style="fill:#babdb6;fill-opacity:1;display:inline">
            <path
               inkscape:connector-curvature="0"
               sodipodi:nodetypes="cccccscc"
               id="path6268"
               d="m 5.854161,1.47408 -6.437512,6.52589 6.437512,6.43752 9.145839,0 c 0.990973,0 1.583348,-0.47235 1.583348,-1.43749 l 0,-10.08839 C 16.583348,1.98857 15.954726,1.47408 15,1.47408 z"
               style="color:#000000;fill:#babdb6;fill-opacity:1;fill-rule:nonzero;stroke:#888a85;stroke-width:0.99999994;marker:none;visibility:visible;display:inline;overflow:visible;enable-background:accumulate" />
            <path
               inkscape:connector-curvature="0"
               sodipodi:nodetypes="ccsccccccccccccccccccccccc"
               id="path7042"
               d="m 7.022097,4 1,0 c 0.0104,-1.2e-4 0.0208,-4.6e-4 0.0313,0 0.25495,0.0112 0.50987,0.12858 0.6875,0.3125 l 1.2812,1.28125 1.3125,-1.28125 C 11.600217,4.082 11.781267,4.007 12.022097,4 l 1,0 0,1 c 0,0.28647 -0.0343,0.55065 -0.25,0.75 l -1.28125,1.28125 1.25,1.25 C 12.929037,8.46942 13.022087,8.7347 13.022097,9 l 0,1 -1,0 c -0.2653,-10e-6 -0.53059,-0.0931 -0.71875,-0.28125 L 10.022097,8.4375 8.740847,9.71875 C 8.552687,9.90694 8.287387,10 8.022097,10 l -1,0 0,-1 c 0,-0.26529 0.0931,-0.53058 0.28125,-0.71875 l 1.28125,-1.25 L 7.303347,5.75 C 7.092607,5.55537 7.000187,5.28075 7.022097,5 z"
               style="color:#000000;fill:#888a85;fill-opacity:1;fill-rule:nonzero;stroke:none;stroke-width:1;marker:none;visibility:visible;display:inline;overflow:visible;enable-background:accumulate" />
            <path
               style="color:#000000;fill:#eeeeec;fill-opacity:1;fill-rule:nonzero;stroke:none;stroke-width:1;marker:none;visibility:visible;display:inline;overflow:visible;enable-background:accumulate"
               d="m 7.022097,5 1,0 c 0.0104,-1.2e-4 0.0208,-4.6e-4 0.0313,0 0.25495,0.0112 0.50987,0.12858 0.6875,0.3125 l 1.2812,1.28125 1.3125,-1.28125 C 11.600217,5.082 11.781267,5.007 12.022097,5 l 1,0 0,1 c 0,0.28647 -0.0343,0.55065 -0.25,0.75 l -1.28125,1.28125 1.25,1.25 c 0.18819,0.18817 0.28124,0.45345 0.28125,0.71875 l 0,1 -1,0 c -0.2653,-10e-6 -0.53059,-0.0931 -0.71875,-0.28125 L 10.022097,9.4375 8.740847,10.71875 C 8.552687,10.90694 8.287387,11 8.022097,11 l -1,0 0,-1 c 0,-0.26529 0.0931,-0.53058 0.28125,-0.71875 l 1.28125,-1.25 L 7.303347,6.75 C 7.092607,6.55537 7.000187,6.28075 7.022097,6 z"
               id="path6266"
               sodipodi:nodetypes="ccsccccccccccccccccccccccc"
               inkscape:connector-curvature="0" />
          </g>
          <path
             style="opacity:0.48979594;color:#bebebe;fill:#ffffff;fill-opacity:1;fill-rule:nonzero;stroke:none;stroke-width:1;marker:none;visibility:visible;display:inline;overflow:visible;enable-background:accumulate"
             d="m 306,188 6,-6 9,0 c 1,0 1,1 1,1 l -10,0 z"
             id="path6270"
             inkscape:connector-curvature="0"
             sodipodi:nodetypes="cccccc" />
        </g>
        <g
           transform="matrix(1.5456693,0,0,1.5456693,-167.02808,-148.04602)"
           id="g7051"
           style="display:inline;enable-background:new">
          <g
             style="fill:#babdb6;fill-opacity:1;display:inline"
             id="g7053"
             inkscape:label="edit-clear"
             transform="translate(305.9337,180.0442)">
            <path
               style="color:#000000;fill:#babdb6;fill-opacity:1;fill-rule:nonzero;stroke:#888a85;stroke-width:0.6469689;marker:none;visibility:visible;display:inline;overflow:visible;enable-background:accumulate"
               d="m 5.854161,1.47408 -6.437512,6.52589 6.437512,6.43752 9.145839,0 c 0.990973,0 1.583348,-0.47235 1.583348,-1.43749 l 0,-10.08839 C 16.583348,1.98857 15.954726,1.47408 15,1.47408 z"
               id="path7055"
               sodipodi:nodetypes="cccccscc"
               inkscape:connector-curvature="0" />
            <path
               style="color:#000000;fill:#888a85;fill-opacity:1;fill-rule:nonzero;stroke:none;stroke-width:1;marker:none;visibility:visible;display:inline;overflow:visible;enable-background:accumulate"
               d="m 7.022097,4.3719499 1,0 c 0.0104,-1.2e-4 0.0208,-4.6e-4 0.0313,0 0.25495,0.0112 0.50987,0.12858 0.6875,0.3125 l 1.2812,1.28125 1.3125,-1.28125 c 0.26562,-0.2305 0.44667,-0.3055 0.6875,-0.3125 l 1,0 0,1 c 0,0.28647 -0.0343,0.55065 -0.25,0.75 l -1.28125,1.28125 1.25,1.25 c 0.18819,0.18817 0.28124,0.45345 0.28125,0.71875 l 0,1.0000001 -1,0 c -0.2653,-10e-6 -0.53059,-0.0931 -0.71875,-0.28125 L 10.022097,8.8094499 8.740847,10.0907 c -0.18816,0.18819 -0.45346,0.28125 -0.71875,0.28125 l -1,0 0,-1.0000001 c 0,-0.26529 0.0931,-0.53058 0.28125,-0.71875 l 1.28125,-1.25 -1.28125,-1.28125 c -0.21074,-0.19463 -0.30316,-0.46925 -0.28125,-0.75 z"
               id="path7057"
               sodipodi:nodetypes="ccsccccccccccccccccccccccc"
               inkscape:connector-curvature="0" />
            <path
               inkscape:connector-curvature="0"
               sodipodi:nodetypes="ccsccccccccccccccccccccccc"
               id="path7059"
               d="m 7.022097,5.0285923 1,0 c 0.0104,-1.2e-4 0.0208,-4.6e-4 0.0313,0 0.25495,0.0112 0.50987,0.12858 0.6875,0.3125 l 1.2812,1.28125 1.3125,-1.28125 c 0.26562,-0.2305 0.44667,-0.3055 0.6875,-0.3125 l 1,0 0,1 c 0,0.28647 -0.0343,0.55065 -0.25,0.75 l -1.28125,1.28125 1.25,1.25 c 0.18819,0.18817 0.28124,0.45345 0.28125,0.7187497 l 0,1 -1,0 c -0.2653,-10e-6 -0.53059,-0.0931 -0.71875,-0.28125 l -1.28125,-1.2812497 -1.28125,1.2812497 c -0.18816,0.18819 -0.45346,0.28125 -0.71875,0.28125 l -1,0 0,-1 c 0,-0.2652897 0.0931,-0.5305797 0.28125,-0.7187497 l 1.28125,-1.25 -1.28125,-1.28125 c -0.21074,-0.19463 -0.30316,-0.46925 -0.28125,-0.75 z"
               style="color:#000000;fill:#eeeeec;fill-opacity:1;fill-rule:nonzero;stroke:none;stroke-width:1;marker:none;visibility:visible;display:inline;overflow:visible;enable-background:accumulate" />
          </g>
          <path
             sodipodi:nodetypes="cccccc"
             inkscape:connector-curvature="0"
             id="path7061"
             d="m 306,187.82804 6,-6 9,0 c 1,0 1.20869,0.64697 1.20869,0.64697 l -10.3515,0 z"
             style="opacity:0.48979594;color:#bebebe;fill:#ffffff;fill-opacity:1;fill-rule:nonzero;stroke:none;stroke-width:1;marker:none;visibility:visible;display:inline;overflow:visible;enable-background:accumulate" />
        </g>
        <g
           id="g7063"
           transform="matrix(1.5456693,0,0,1.5456693,-164.0047,-216.10438)"
           style="display:inline;enable-background:new">
          <g
             transform="translate(305.9337,180.0442)"
             inkscape:label="edit-clear"
             id="g7065"
             style="fill:#babdb6;fill-opacity:1;display:inline">
            <path
               inkscape:connector-curvature="0"
               sodipodi:nodetypes="cccccscc"
               id="path7067"
               d="m 5.854161,1.47408 -6.437512,6.52589 6.437512,6.43752 9.145839,0 c 0.990973,0 1.583348,-0.47235 1.583348,-1.43749 l 0,-10.08839 C 16.583348,1.98857 15.954726,1.47408 15,1.47408 z"
               style="color:#000000;fill:#babdb6;fill-opacity:1;fill-rule:nonzero;stroke:#888a85;stroke-width:0.6469689;marker:none;visibility:visible;display:inline;overflow:visible;enable-background:accumulate" />
            <path
               inkscape:connector-curvature="0"
               sodipodi:nodetypes="ccsccccccccccccccccccccccc"
               id="path7069"
               d="m 7.022097,4.3719499 1,0 c 0.0104,-1.2e-4 0.0208,-4.6e-4 0.0313,0 0.25495,0.0112 0.50987,0.12858 0.6875,0.3125 l 1.2812,1.28125 1.3125,-1.28125 c 0.26562,-0.2305 0.44667,-0.3055 0.6875,-0.3125 l 1,0 0,1 c 0,0.28647 -0.0343,0.55065 -0.25,0.75 l -1.28125,1.28125 1.25,1.25 c 0.18819,0.18817 0.28124,0.45345 0.28125,0.71875 l 0,1.0000001 -1,0 c -0.2653,-10e-6 -0.53059,-0.0931 -0.71875,-0.28125 L 10.022097,8.8094499 8.740847,10.0907 c -0.18816,0.18819 -0.45346,0.28125 -0.71875,0.28125 l -1,0 0,-1.0000001 c 0,-0.26529 0.0931,-0.53058 0.28125,-0.71875 l 1.28125,-1.25 -1.28125,-1.28125 c -0.21074,-0.19463 -0.30316,-0.46925 -0.28125,-0.75 z"
               style="color:#000000;fill:#888a85;fill-opacity:1;fill-rule:nonzero;stroke:none;stroke-width:1;marker:none;visibility:visible;display:inline;overflow:visible;enable-background:accumulate" />
            <path
               style="color:#000000;fill:#eeeeec;fill-opacity:1;fill-rule:nonzero;stroke:none;stroke-width:1;marker:none;visibility:visible;display:inline;overflow:visible;enable-background:accumulate"
               d="m 7.022097,5.0285923 1,0 c 0.0104,-1.2e-4 0.0208,-4.6e-4 0.0313,0 0.25495,0.0112 0.50987,0.12858 0.6875,0.3125 l 1.2812,1.28125 1.3125,-1.28125 c 0.26562,-0.2305 0.44667,-0.3055 0.6875,-0.3125 l 1,0 0,1 c 0,0.28647 -0.0343,0.55065 -0.25,0.75 l -1.28125,1.28125 1.25,1.25 c 0.18819,0.18817 0.28124,0.45345 0.28125,0.7187497 l 0,1 -1,0 c -0.2653,-10e-6 -0.53059,-0.0931 -0.71875,-0.28125 l -1.28125,-1.2812497 -1.28125,1.2812497 c -0.18816,0.18819 -0.45346,0.28125 -0.71875,0.28125 l -1,0 0,-1 c 0,-0.2652897 0.0931,-0.5305797 0.28125,-0.7187497 l 1.28125,-1.25 -1.28125,-1.28125 c -0.21074,-0.19463 -0.30316,-0.46925 -0.28125,-0.75 z"
               id="path7071"
               sodipodi:nodetypes="ccsccccccccccccccccccccccc"
               inkscape:connector-curvature="0" />
          </g>
          <path
             style="opacity:0.48979594;color:#bebebe;fill:#ffffff;fill-opacity:1;fill-rule:nonzero;stroke:none;stroke-width:1;marker:none;visibility:visible;display:inline;overflow:visible;enable-background:accumulate"
             d="m 306,187.82804 6,-6 9,0 c 1,0 1.20869,0.64697 1.20869,0.64697 l -10.3515,0 z"
             id="path7073"
             inkscape:connector-curvature="0"
             sodipodi:nodetypes="cccccc" />
        </g>
        <path
           sodipodi:nodetypes="cccccc"
           inkscape:connector-curvature="0"
           id="path7075"
           d="m 318.50741,221.99728 0.0221,9.50175 c 0,0.83969 2.5e-4,0.99437 -0.99437,0.99437 l -8.3748,0 -5.51322,-5.51322 4.83926,-4.99395"
           style="color:#bebebe;fill:none;stroke:url(#radialGradient6258);stroke-width:1;stroke-opacity:1;marker:none;visibility:visible;display:inline;overflow:visible;enable-background:accumulate" />
        <path
           inkscape:connector-curvature="0"
           sodipodi:nodetypes="ccsccccccccccccccccccccccc"
           id="path7105"
           d="m 310,223 1,0 c 0.0104,-1.2e-4 0.0208,-4.6e-4 0.0313,0 0.25495,0.0112 0.50987,0.12858 0.6875,0.3125 l 1.2812,1.28125 1.3125,-1.28125 C 314.57812,223.082 314.75917,223.007 315,223 l 1,0 0,1 c 0,0.28647 -0.0343,0.55065 -0.25,0.75 l -1.28125,1.28125 1.25,1.25 C 315.90694,227.46942 315.99999,227.7347 316,228 l 0,1 -1,0 c -0.2653,-1e-5 -0.53059,-0.0931 -0.71875,-0.28125 L 313,227.4375 l -1.28125,1.28125 C 311.53059,228.90694 311.26529,229 311,229 l -1,0 0,-1 c 0,-0.26529 0.0931,-0.53058 0.28125,-0.71875 l 1.28125,-1.25 -1.28125,-1.28125 C 310.07051,224.55537 309.97809,224.28075 310,224 z"
           style="color:#000000;fill:#888a85;fill-opacity:1;fill-rule:nonzero;stroke:none;stroke-width:1;marker:none;visibility:visible;display:inline;overflow:visible;enable-background:accumulate" />
        <path
           style="color:#000000;fill:#eeeeec;fill-opacity:1;fill-rule:nonzero;stroke:none;stroke-width:1;marker:none;visibility:visible;display:inline;overflow:visible;enable-background:accumulate"
           d="m 310,224 1,0 c 0.0104,-1.2e-4 0.0208,-4.6e-4 0.0313,0 0.25495,0.0112 0.50987,0.12858 0.6875,0.3125 l 1.2812,1.28125 1.3125,-1.28125 C 314.57812,224.082 314.75917,224.007 315,224 l 1,0 0,1 c 0,0.28647 -0.0343,0.55065 -0.25,0.75 l -1.28125,1.28125 1.25,1.25 C 315.90694,228.46942 315.99999,228.7347 316,229 l 0,1 -1,0 c -0.2653,-1e-5 -0.53059,-0.0931 -0.71875,-0.28125 L 313,228.4375 l -1.28125,1.28125 C 311.53059,229.90694 311.26529,230 311,230 l -1,0 0,-1 c 0,-0.26529 0.0931,-0.53058 0.28125,-0.71875 l 1.28125,-1.25 -1.28125,-1.28125 C 310.07051,225.55537 309.97809,225.28075 310,225 z"
           id="path6266-4"
           sodipodi:nodetypes="ccsccccccccccccccccccccccc"
           inkscape:connector-curvature="0" />
      </g>
    </g>
  </g>
  <g
     inkscape:groupmode="layer"
     id="g6394"
     inkscape:label="edit-clear-rtl"
     style="display:inline">
    <g
       inkscape:groupmode="layer"
       id="g6396"
       inkscape:label="baseplate#1"
       style="display:none">
      <rect
         height="48"
         id="rect6398"
         inkscape:label="48x48"
         style="fill:#eeeeec;fill-opacity:1;fill-rule:nonzero;stroke:none;stroke-width:2;marker:none;visibility:visible;display:inline;overflow:visible;enable-background:accumulate"
         width="48"
         x="36"
         y="50"
         transform="scale(-1,1)" />
      <rect
         height="32"
         id="rect6400"
         inkscape:label="32x32"
         style="fill:#eeeeec;fill-opacity:1;fill-rule:nonzero;stroke:none;stroke-width:2;marker:none;visibility:visible;display:inline;overflow:visible;enable-background:accumulate"
         width="32"
         x="43"
         y="126"
         transform="scale(-1,1)" />
      <rect
         height="22"
         id="rect6402"
         inkscape:label="22x22"
         style="fill:#eeeeec;fill-opacity:1;fill-rule:nonzero;stroke:none;stroke-width:2;marker:none;visibility:visible;display:inline;overflow:visible;enable-background:accumulate"
         width="22"
         x="43"
         y="177"
         transform="scale(-1,1)" />
      <rect
         height="16"
         id="rect6404"
         inkscape:label="16x16"
         style="fill:#eeeeec;fill-opacity:1;fill-rule:nonzero;stroke:none;stroke-width:2;marker:none;visibility:visible;display:inline;overflow:visible;enable-background:accumulate"
         width="16"
         x="43"
         y="219"
         transform="scale(-1,1)" />
      <text
         id="text6406"
         inkscape:label="context"
         style="font-size:18.30070686px;font-style:normal;font-weight:normal;fill:#000000;fill-opacity:1;stroke:none;display:inline;enable-background:new;font-family:Bitstream Vera Sans"
         x="-359.02927"
         xml:space="preserve"
         y="21.513618"><tspan
           id="tspan6408"
           sodipodi:role="line"
           x="-359.02927"
           y="21.513618">actions</tspan></text>
      <text
         id="text6410"
         inkscape:label="icon-name"
         sodipodi:linespacing="125%"
         style="font-size:18.30070686px;font-style:normal;font-variant:normal;font-weight:bold;font-stretch:normal;text-align:start;line-height:125%;writing-mode:lr-tb;text-anchor:start;fill:#000000;fill-opacity:1;stroke:none;display:inline;enable-background:new;font-family:Droid Sans;-inkscape-font-specification:Droid Sans Bold"
         x="-188.02927"
         xml:space="preserve"
         y="21.513618"><tspan
           id="tspan6412"
           sodipodi:role="line"
           x="-188.02927"
           y="21.513618">edit-clear-rtl</tspan></text>
    </g>
    <g
       inkscape:groupmode="layer"
       id="g6414"
       inkscape:label="lowres">
      <use
         style="display:inline;enable-background:new"
         x="0"
         y="0"
         xlink:href="#g6464"
         id="use6490-1"
         width="1"
         height="1"
         transform="matrix(-1,0,0,1,280,-2.8005171e-6)" />
    </g>
  </g>
</svg>
