<?xml version="1.0" encoding="UTF-8" standalone="no"?>
<svg
   inkscape:export-ydpi="96"
   inkscape:export-xdpi="96"
   inkscape:export-filename="Template.png"
   width="680"
   height="560"
   id="svg11300"
   sodipodi:version="0.32"
   inkscape:version="1.1.1 (3bf5ae0d25, 2021-09-20)"
   sodipodi:docname="input-tablet.svg"
   inkscape:output_extension="org.inkscape.output.svg.inkscape"
   version="1.0"
   style="display:inline;enable-background:new"
   viewBox="0 0 680 560"
   xmlns:inkscape="http://www.inkscape.org/namespaces/inkscape"
   xmlns:sodipodi="http://sodipodi.sourceforge.net/DTD/sodipodi-0.dtd"
   xmlns:xlink="http://www.w3.org/1999/xlink"
   xmlns="http://www.w3.org/2000/svg"
   xmlns:svg="http://www.w3.org/2000/svg"
   xmlns:rdf="http://www.w3.org/1999/02/22-rdf-syntax-ns#"
   xmlns:cc="http://creativecommons.org/ns#"
   xmlns:dc="http://purl.org/dc/elements/1.1/">
  <title
     id="title4162">Adwaita Icon Template</title>
  <defs
     id="defs3">
    <clipPath
       clipPathUnits="userSpaceOnUse"
       id="clipPath4501">
      <rect
         style="color:#000000;clip-rule:nonzero;display:inline;overflow:visible;visibility:visible;opacity:1;isolation:auto;mix-blend-mode:normal;color-interpolation:sRGB;color-interpolation-filters:linearRGB;solid-color:#000000;solid-opacity:1;fill:none;fill-opacity:1;fill-rule:evenodd;stroke:#000000;stroke-width:0.44161412;stroke-linecap:round;stroke-linejoin:miter;stroke-miterlimit:4;stroke-dasharray:none;stroke-dashoffset:0;stroke-opacity:1;marker:none;marker-start:none;marker-mid:none;marker-end:none;paint-order:normal;color-rendering:auto;image-rendering:auto;shape-rendering:auto;text-rendering:auto;enable-background:accumulate"
         id="rect4503"
         width="144.32666"
         height="144.32666"
         x="139.9687"
         y="-72.16333"
         transform="rotate(45)"
         rx="5.9330988"
         ry="5.9330988" />
    </clipPath>
    <linearGradient
       gradientUnits="userSpaceOnUse"
       id="linearGradient8946"
       x1="99.777298"
       x2="153.0005"
       y1="15.4238"
       y2="248.6311">
      <stop
         id="stop8948"
         offset="0"
         style="stop-color:#916398;stop-opacity:1" />
      <stop
         id="stop8952"
         offset="1"
         style="stop-color:#b0b8ef;stop-opacity:1" />
    </linearGradient>
    <clipPath
       clipPathUnits="userSpaceOnUse"
       id="clipPath4102">
      <path
         d="M -140,48 -242,150 -140,252.00001 -38,150 Z"
         id="path4104"
         style="display:inline;fill:#f3ecf2;fill-opacity:1;fill-rule:nonzero;stroke:none;stroke-width:1;stroke-linecap:round;stroke-linejoin:round;stroke-miterlimit:4;stroke-opacity:1;enable-background:new"
         inkscape:connector-curvature="0" />
    </clipPath>
    <clipPath
       clipPathUnits="userSpaceOnUse"
       id="clipPath4501-7-9">
      <rect
         style="color:#000000;clip-rule:nonzero;display:inline;overflow:visible;visibility:visible;opacity:1;isolation:auto;mix-blend-mode:normal;color-interpolation:sRGB;color-interpolation-filters:linearRGB;solid-color:#000000;solid-opacity:1;fill:none;fill-opacity:1;fill-rule:evenodd;stroke:#000000;stroke-width:0.44161412;stroke-linecap:round;stroke-linejoin:miter;stroke-miterlimit:4;stroke-dasharray:none;stroke-dashoffset:0;stroke-opacity:1;marker:none;marker-start:none;marker-mid:none;marker-end:none;paint-order:normal;color-rendering:auto;image-rendering:auto;shape-rendering:auto;text-rendering:auto;enable-background:accumulate"
         id="rect4503-5-1"
         width="144.32666"
         height="144.32666"
         x="139.9687"
         y="-72.16333"
         transform="rotate(45)"
         rx="5.9330988"
         ry="5.9330988" />
    </clipPath>
    <clipPath
       clipPathUnits="userSpaceOnUse"
       id="clipPath4102-7-5">
      <path
         d="M -140,48 -242,150 -140,252.00001 -38,150 Z"
         id="path4104-3-9"
         style="display:inline;fill:#f3ecf2;fill-opacity:1;fill-rule:nonzero;stroke:none;stroke-width:1;stroke-linecap:round;stroke-linejoin:round;stroke-miterlimit:4;stroke-opacity:1;enable-background:new"
         inkscape:connector-curvature="0" />
    </clipPath>
    <clipPath
       clipPathUnits="userSpaceOnUse"
       id="clipPath4501-7-9-3">
      <rect
         style="color:#000000;clip-rule:nonzero;display:inline;overflow:visible;visibility:visible;opacity:1;isolation:auto;mix-blend-mode:normal;color-interpolation:sRGB;color-interpolation-filters:linearRGB;solid-color:#000000;solid-opacity:1;fill:none;fill-opacity:1;fill-rule:evenodd;stroke:#000000;stroke-width:0.44161412;stroke-linecap:round;stroke-linejoin:miter;stroke-miterlimit:4;stroke-dasharray:none;stroke-dashoffset:0;stroke-opacity:1;marker:none;marker-start:none;marker-mid:none;marker-end:none;paint-order:normal;color-rendering:auto;image-rendering:auto;shape-rendering:auto;text-rendering:auto;enable-background:accumulate"
         id="rect4503-5-1-6"
         width="144.32666"
         height="144.32666"
         x="139.9687"
         y="-72.16333"
         transform="rotate(45)"
         rx="5.9330988"
         ry="5.9330988" />
    </clipPath>
    <clipPath
       clipPathUnits="userSpaceOnUse"
       id="clipPath4102-7-5-1">
      <path
         d="M -140,48 -242,150 -140,252.00001 -38,150 Z"
         id="path4104-3-9-2"
         style="display:inline;fill:#f3ecf2;fill-opacity:1;fill-rule:nonzero;stroke:none;stroke-width:1;stroke-linecap:round;stroke-linejoin:round;stroke-miterlimit:4;stroke-opacity:1;enable-background:new"
         inkscape:connector-curvature="0" />
    </clipPath>
    <clipPath
       clipPathUnits="userSpaceOnUse"
       id="clipPath4501-7-9-3-4">
      <rect
         style="color:#000000;clip-rule:nonzero;display:inline;overflow:visible;visibility:visible;opacity:1;isolation:auto;mix-blend-mode:normal;color-interpolation:sRGB;color-interpolation-filters:linearRGB;solid-color:#000000;solid-opacity:1;fill:none;fill-opacity:1;fill-rule:evenodd;stroke:#000000;stroke-width:0.44161412;stroke-linecap:round;stroke-linejoin:miter;stroke-miterlimit:4;stroke-dasharray:none;stroke-dashoffset:0;stroke-opacity:1;marker:none;marker-start:none;marker-mid:none;marker-end:none;paint-order:normal;color-rendering:auto;image-rendering:auto;shape-rendering:auto;text-rendering:auto;enable-background:accumulate"
         id="rect4503-5-1-6-7"
         width="144.32666"
         height="144.32666"
         x="139.9687"
         y="-72.16333"
         transform="rotate(45)"
         rx="5.9330988"
         ry="5.9330988" />
    </clipPath>
    <clipPath
       clipPathUnits="userSpaceOnUse"
       id="clipPath4102-7-5-1-6">
      <path
         d="M -140,48 -242,150 -140,252.00001 -38,150 Z"
         id="path4104-3-9-2-2"
         style="display:inline;fill:#f3ecf2;fill-opacity:1;fill-rule:nonzero;stroke:none;stroke-width:1;stroke-linecap:round;stroke-linejoin:round;stroke-miterlimit:4;stroke-opacity:1;enable-background:new"
         inkscape:connector-curvature="0" />
    </clipPath>
    <clipPath
       clipPathUnits="userSpaceOnUse"
       id="clipPath4501-7-9-3-4-7">
      <rect
         style="color:#000000;clip-rule:nonzero;display:inline;overflow:visible;visibility:visible;opacity:1;isolation:auto;mix-blend-mode:normal;color-interpolation:sRGB;color-interpolation-filters:linearRGB;solid-color:#000000;solid-opacity:1;fill:none;fill-opacity:1;fill-rule:evenodd;stroke:#000000;stroke-width:0.44161412;stroke-linecap:round;stroke-linejoin:miter;stroke-miterlimit:4;stroke-dasharray:none;stroke-dashoffset:0;stroke-opacity:1;marker:none;marker-start:none;marker-mid:none;marker-end:none;paint-order:normal;color-rendering:auto;image-rendering:auto;shape-rendering:auto;text-rendering:auto;enable-background:accumulate"
         id="rect4503-5-1-6-7-7"
         width="144.32666"
         height="144.32666"
         x="139.9687"
         y="-72.16333"
         transform="rotate(45)"
         rx="5.9330988"
         ry="5.9330988" />
    </clipPath>
    <clipPath
       clipPathUnits="userSpaceOnUse"
       id="clipPath4102-7-5-1-6-9">
      <path
         d="M -140,48 -242,150 -140,252.00001 -38,150 Z"
         id="path4104-3-9-2-2-2"
         style="display:inline;fill:#f3ecf2;fill-opacity:1;fill-rule:nonzero;stroke:none;stroke-width:1;stroke-linecap:round;stroke-linejoin:round;stroke-miterlimit:4;stroke-opacity:1;enable-background:new"
         inkscape:connector-curvature="0" />
    </clipPath>
    <clipPath
       clipPathUnits="userSpaceOnUse"
       id="clipPath18689">
      <rect
         clip-path="none"
         transform="rotate(45)"
         ry="32.000008"
         rx="32.000008"
         y="123.9986"
         x="486.03726"
         height="362.94299"
         width="362.94299"
         id="rect18691"
         style="display:inline;opacity:1;vector-effect:none;fill:#4a86cf;fill-opacity:1;stroke:none;stroke-width:26.06693268;stroke-linecap:butt;stroke-linejoin:miter;stroke-miterlimit:4;stroke-dasharray:none;stroke-dashoffset:0;stroke-opacity:1;marker:none;marker-start:none;marker-mid:none;marker-end:none;paint-order:normal;enable-background:new" />
    </clipPath>
    <clipPath
       clipPathUnits="userSpaceOnUse"
       id="clipPath18689-3">
      <rect
         clip-path="none"
         transform="rotate(45)"
         ry="32.000008"
         rx="32.000008"
         y="123.9986"
         x="486.03726"
         height="362.94299"
         width="362.94299"
         id="rect18691-6"
         style="display:inline;opacity:1;vector-effect:none;fill:#4a86cf;fill-opacity:1;stroke:none;stroke-width:26.06693268;stroke-linecap:butt;stroke-linejoin:miter;stroke-miterlimit:4;stroke-dasharray:none;stroke-dashoffset:0;stroke-opacity:1;marker:none;marker-start:none;marker-mid:none;marker-end:none;paint-order:normal;enable-background:new" />
    </clipPath>
    <linearGradient
       id="linearGradient1235"
       inkscape:collect="always">
      <stop
         id="stop1231"
         offset="0"
         style="stop-color:#949390;stop-opacity:1" />
      <stop
         id="stop1233"
         offset="1"
         style="stop-color:#424048;stop-opacity:1" />
    </linearGradient>
    <radialGradient
       inkscape:collect="always"
       xlink:href="#linearGradient1235"
       id="radialGradient27533-2"
       gradientUnits="userSpaceOnUse"
       gradientTransform="matrix(1.3756505,0,0,1.3756505,-167.99673,-271.47162)"
       cx="127.9371"
       cy="200.07188"
       fx="127.9371"
       fy="200.07188"
       r="8" />
    <radialGradient
       inkscape:collect="always"
       xlink:href="#linearGradient1235"
       id="radialGradient13021-7"
       gradientUnits="userSpaceOnUse"
       gradientTransform="matrix(1.3756505,0,0,1.3756505,-167.99673,-271.47162)"
       cx="127.9371"
       cy="200.07188"
       fx="127.9371"
       fy="200.07188"
       r="8" />
    <clipPath
       clipPathUnits="userSpaceOnUse"
       id="clipath_lpe_path-effect1303">
      <circle
         style="font-variation-settings:normal;display:none;opacity:1;vector-effect:none;fill:#77767b;fill-opacity:1;stroke:none;stroke-width:5.04302;stroke-linecap:round;stroke-linejoin:miter;stroke-miterlimit:4;stroke-dasharray:none;stroke-dashoffset:0;stroke-opacity:1;marker:none;marker-start:none;marker-mid:none;marker-end:none;paint-order:normal;stop-color:#000000;stop-opacity:1"
         id="circle1305"
         cx="541.88373"
         cy="647.72638"
         r="73.975525" />
      <path
         id="lpe_path-effect1303"
         style="font-variation-settings:normal;display:block;opacity:1;vector-effect:none;fill:#77767b;fill-opacity:1;stroke:none;stroke-width:5.04302;stroke-linecap:round;stroke-linejoin:miter;stroke-miterlimit:4;stroke-dasharray:none;stroke-dashoffset:0;stroke-opacity:1;marker:none;marker-start:none;marker-mid:none;marker-end:none;paint-order:normal;stop-color:#000000;stop-opacity:1"
         class="powerclip"
         d="m 399.30566,389.6405 h 285.1561 v 401.98026 h -285.1561 z m 216.55359,258.08588 a 73.975525,73.975525 0 0 0 -73.97552,-73.97553 73.975525,73.975525 0 0 0 -73.97553,73.97553 73.975525,73.975525 0 0 0 73.97553,73.97552 73.975525,73.975525 0 0 0 73.97552,-73.97552 z" />
    </clipPath>
    <inkscape:path-effect
       effect="powerclip"
       id="path-effect1303"
       is_visible="true"
       lpeversion="1"
       inverse="true"
       flatten="false"
       hide_clip="false"
       message="Use fill-rule evenodd on &lt;b&gt;fill and stroke&lt;/b&gt; dialog if no flatten result after convert clip to paths." />
    <linearGradient
       inkscape:collect="always"
       xlink:href="#linearGradient1402"
       id="linearGradient7249"
       gradientUnits="userSpaceOnUse"
       gradientTransform="matrix(0.25,0,0,0.27499943,232.46713,492.29993)"
       x1="-122.89439"
       y1="-292"
       x2="34.969994"
       y2="-292" />
    <linearGradient
       inkscape:collect="always"
       id="linearGradient1402">
      <stop
         style="stop-color:#d5d3cf;stop-opacity:1"
         offset="0"
         id="stop1398" />
      <stop
         style="stop-color:#f6f5f4;stop-opacity:1"
         offset="1"
         id="stop1400" />
    </linearGradient>
    <linearGradient
       inkscape:collect="always"
       xlink:href="#linearGradient1367"
       id="linearGradient7251"
       gradientUnits="userSpaceOnUse"
       gradientTransform="matrix(0.25,0,0,0.29687428,225,487.99991)"
       x1="-156"
       y1="-256"
       x2="220"
       y2="-256" />
    <linearGradient
       inkscape:collect="always"
       id="linearGradient1367">
      <stop
         style="stop-color:#000000;stop-opacity:1"
         offset="0"
         id="stop1363" />
      <stop
         style="stop-color:#424048;stop-opacity:1"
         offset="1"
         id="stop1365" />
    </linearGradient>
    <radialGradient
       inkscape:collect="always"
       xlink:href="#linearGradient1184"
       id="radialGradient7253"
       gradientUnits="userSpaceOnUse"
       gradientTransform="matrix(0.08386485,0,0,2.3749942,230.09124,202.89482)"
       cx="-72.631592"
       cy="88.04454"
       fx="-72.631592"
       fy="88.04454"
       r="200" />
    <linearGradient
       inkscape:collect="always"
       id="linearGradient1184">
      <stop
         style="stop-color:#d5d3cf;stop-opacity:1"
         offset="0"
         id="stop1180" />
      <stop
         style="stop-color:#d5d3cf;stop-opacity:0"
         offset="1"
         id="stop1182" />
    </linearGradient>
    <clipPath
       clipPathUnits="userSpaceOnUse"
       id="clipPath1176">
      <rect
         style="display:inline;opacity:1;vector-effect:none;fill:none;fill-opacity:1;stroke:#000000;stroke-width:4;stroke-linecap:butt;stroke-linejoin:miter;stroke-miterlimit:4;stroke-dasharray:none;stroke-dashoffset:0;stroke-opacity:1;marker:none;marker-start:none;marker-mid:none;marker-end:none;paint-order:normal;enable-background:new"
         id="rect1178"
         width="400"
         height="256"
         x="56"
         y="-92"
         rx="8"
         ry="8" />
    </clipPath>
    <filter
       inkscape:collect="always"
       style="color-interpolation-filters:sRGB"
       id="filter1164"
       x="-0.176"
       width="1.352"
       y="-0.013894737"
       height="1.0277895">
      <feGaussianBlur
         inkscape:collect="always"
         stdDeviation="1.76"
         id="feGaussianBlur1166" />
    </filter>
    <linearGradient
       inkscape:collect="always"
       xlink:href="#linearGradient1076"
       id="linearGradient7255"
       gradientUnits="userSpaceOnUse"
       gradientTransform="matrix(-0.25,0,0,0.25,-310.00009,125.00903)"
       x1="248"
       y1="619.96387"
       x2="568"
       y2="619.96387" />
    <linearGradient
       inkscape:collect="always"
       id="linearGradient1076">
      <stop
         style="stop-color:#d5d3cf;stop-opacity:1"
         offset="0"
         id="stop1064" />
      <stop
         id="stop1066"
         offset="0.05"
         style="stop-color:#e4e1de;stop-opacity:1" />
      <stop
         style="stop-color:#d5d3cf;stop-opacity:1"
         offset="0.09999999"
         id="stop1068" />
      <stop
         id="stop1070"
         offset="0.90000004"
         style="stop-color:#d5d3cf;stop-opacity:1" />
      <stop
         style="stop-color:#e4e1de;stop-opacity:1"
         offset="0.94999999"
         id="stop1072" />
      <stop
         style="stop-color:#d5d3cf;stop-opacity:1"
         offset="1"
         id="stop1074" />
    </linearGradient>
    <clipPath
       clipPathUnits="userSpaceOnUse"
       id="clipPath3835">
      <rect
         style="display:inline;fill:#3d3846;stroke:none;stroke-width:1;-inkscape-stroke:none;enable-background:new;stop-color:#000000"
         id="rect3837"
         width="112.0003"
         height="86.00029"
         x="7.9997025"
         y="199.99969"
         rx="8"
         ry="7.9999995" />
    </clipPath>
    <linearGradient
       inkscape:collect="always"
       xlink:href="#linearGradient1983"
       id="linearGradient1985"
       x1="68"
       y1="200"
       x2="68"
       y2="194"
       gradientUnits="userSpaceOnUse"
       gradientTransform="matrix(1.6,0,0,1.75,-48,-151.5)" />
    <linearGradient
       inkscape:collect="always"
       id="linearGradient1983">
      <stop
         style="stop-color:#241f31;stop-opacity:1;"
         offset="0"
         id="stop1979" />
      <stop
         style="stop-color:#2e2939;stop-opacity:1;"
         offset="0.42340085"
         id="stop3278" />
      <stop
         style="stop-color:#5e5c64;stop-opacity:1"
         offset="0.66666669"
         id="stop3344" />
      <stop
         style="stop-color:#383341;stop-opacity:1;"
         offset="0.83333331"
         id="stop3276" />
      <stop
         style="stop-color:#3d3846;stop-opacity:1"
         offset="1"
         id="stop1981" />
    </linearGradient>
    <clipPath
       clipPathUnits="userSpaceOnUse"
       id="clipPath3835-3">
      <rect
         style="display:inline;fill:#3d3846;stroke:none;stroke-width:1;-inkscape-stroke:none;enable-background:new;stop-color:#000000"
         id="rect3837-6"
         width="112.0003"
         height="86.00029"
         x="7.9997025"
         y="199.99969"
         rx="8"
         ry="7.9999995" />
    </clipPath>
    <linearGradient
       inkscape:collect="always"
       xlink:href="#linearGradient21272"
       id="linearGradient21274"
       x1="-112"
       y1="224"
       x2="-96"
       y2="224"
       gradientUnits="userSpaceOnUse" />
    <linearGradient
       inkscape:collect="always"
       id="linearGradient21272">
      <stop
         style="stop-color:#3d3846;stop-opacity:1;"
         offset="0"
         id="stop21268" />
      <stop
         style="stop-color:#5e5c64;stop-opacity:1"
         offset="0.35449219"
         id="stop23592" />
      <stop
         style="stop-color:#342f3b;stop-opacity:1"
         offset="1"
         id="stop21270" />
    </linearGradient>
  </defs>
  <sodipodi:namedview
     stroke="#ef2929"
     fill="#f57900"
     id="base"
     pagecolor="#ffffff"
     bordercolor="#666666"
     borderopacity="0.25490196"
     inkscape:pageopacity="0.0"
     inkscape:pageshadow="2"
     inkscape:zoom="1"
     inkscape:cx="-99.949399"
     inkscape:cy="101.9264"
     inkscape:current-layer="layer9"
     showgrid="false"
     inkscape:grid-bbox="true"
     inkscape:document-units="px"
     inkscape:showpageshadow="false"
     inkscape:window-width="2560"
     inkscape:window-height="1376"
     inkscape:window-x="26"
     inkscape:window-y="23"
     width="400px"
     height="300px"
     inkscape:snap-nodes="false"
     inkscape:snap-bbox="true"
     objecttolerance="7"
     gridtolerance="12"
     guidetolerance="13"
     inkscape:window-maximized="0"
     inkscape:pagecheckerboard="false"
     showguides="false"
     inkscape:guide-bbox="true"
     inkscape:locked="false"
     inkscape:measure-start="585,340"
     inkscape:measure-end="585.263,339.853"
     inkscape:object-nodes="true"
     inkscape:bbox-nodes="true"
     inkscape:document-rotation="0"
     inkscape:snap-global="true"
     inkscape:snap-bbox-edge-midpoints="false"
     inkscape:snap-bbox-midpoints="false"
     inkscape:snap-others="false">
    <inkscape:grid
       type="xygrid"
       id="grid5883"
       spacingx="1px"
       spacingy="1px"
       enabled="true"
       visible="true"
       empspacing="4" />
  </sodipodi:namedview>
  <metadata
     id="metadata4">
    <rdf:RDF>
      <cc:Work
         rdf:about="">
        <dc:format>image/svg+xml</dc:format>
        <dc:type
           rdf:resource="http://purl.org/dc/dcmitype/StillImage" />
        <dc:creator>
          <cc:Agent>
            <dc:title>GNOME Design Team</dc:title>
          </cc:Agent>
        </dc:creator>
        <dc:source />
        <cc:license
           rdf:resource="http://creativecommons.org/licenses/by-sa/4.0/" />
        <dc:title>Adwaita Icon Template</dc:title>
        <dc:subject>
          <rdf:Bag />
        </dc:subject>
        <dc:date />
        <dc:rights>
          <cc:Agent>
            <dc:title />
          </cc:Agent>
        </dc:rights>
        <dc:publisher>
          <cc:Agent>
            <dc:title />
          </cc:Agent>
        </dc:publisher>
        <dc:identifier />
        <dc:relation />
        <dc:language />
        <dc:coverage />
        <dc:description />
        <dc:contributor>
          <cc:Agent>
            <dc:title />
          </cc:Agent>
        </dc:contributor>
      </cc:Work>
      <cc:License
         rdf:about="http://creativecommons.org/licenses/by-sa/4.0/">
        <cc:permits
           rdf:resource="http://creativecommons.org/ns#Reproduction" />
        <cc:permits
           rdf:resource="http://creativecommons.org/ns#Distribution" />
        <cc:requires
           rdf:resource="http://creativecommons.org/ns#Notice" />
        <cc:requires
           rdf:resource="http://creativecommons.org/ns#Attribution" />
        <cc:permits
           rdf:resource="http://creativecommons.org/ns#DerivativeWorks" />
        <cc:requires
           rdf:resource="http://creativecommons.org/ns#ShareAlike" />
      </cc:License>
    </rdf:RDF>
  </metadata>
  <g
     id="layer1"
     inkscape:label="artwork"
     inkscape:groupmode="layer"
     style="display:inline"
     transform="translate(0,260)">
    <g
       inkscape:groupmode="layer"
       id="layer7"
       inkscape:label="baseplate"
       style="display:none">
      <text
         xml:space="preserve"
         style="font-style:normal;font-variant:normal;font-weight:normal;font-stretch:normal;font-size:18.3013px;line-height:125%;font-family:Cantarell;-inkscape-font-specification:'Cantarell, Normal';text-align:start;writing-mode:lr-tb;text-anchor:start;display:inline;fill:#000000;fill-opacity:1;stroke:none;enable-background:new"
         x="31.855944"
         y="-303.69958"
         id="context"
         inkscape:label="context"><tspan
           sodipodi:role="line"
           id="tspan2716"
           x="31.855944"
           y="-303.69958">devices</tspan></text>
      <text
         inkscape:label="icon-name"
         id="text3021"
         y="-277.90063"
         x="31.264769"
         style="font-style:normal;font-variant:normal;font-weight:bold;font-stretch:normal;font-size:18.3013px;line-height:22.8767px;font-family:Cantarell;-inkscape-font-specification:'Cantarell, Bold';text-align:start;writing-mode:lr-tb;text-anchor:start;display:inline;fill:#000000;fill-opacity:1;stroke:none;enable-background:new"
         xml:space="preserve"><tspan
           y="-277.90063"
           x="31.264769"
           id="tspan3023"
           sodipodi:role="line">input-tablet</tspan></text>
      <rect
         style="display:inline;overflow:visible;visibility:visible;fill:#eeeeec;fill-opacity:1;fill-rule:nonzero;stroke:none;stroke-width:2;marker:none;enable-background:accumulate"
         id="rect13805"
         width="512"
         height="512"
         x="24"
         y="-236"
         inkscape:label="512x512" />
      <path
         inkscape:connector-curvature="0"
         id="path13807"
         d="m 24,-236 v 512 h 511.875 v -512 h -36 V 240 H 60 v -476 z"
         style="display:inline;overflow:visible;visibility:visible;opacity:0.4;fill:#729fcf;fill-opacity:1;fill-rule:nonzero;stroke:none;stroke-width:2;marker:none;enable-background:accumulate"
         sodipodi:nodetypes="ccccccccc" />
    </g>
    <g
       inkscape:groupmode="layer"
       id="layer9"
       inkscape:label="icons"
       style="display:inline">
      <g
         id="g1159"
         transform="matrix(4,0,0,4,1270.0356,-927.85937)"
         style="display:inline;enable-background:new">
        <rect
           ry="8.7999821"
           rx="7.9999995"
           y="368.00018"
           x="180"
           height="87.999817"
           width="110"
           id="rect7225"
           style="display:inline;opacity:1;vector-effect:none;fill:url(#linearGradient7249);fill-opacity:1;stroke:none;stroke-width:0.0118497px;stroke-linecap:butt;stroke-linejoin:miter;stroke-miterlimit:4;stroke-dasharray:none;stroke-dashoffset:0;stroke-opacity:1;marker:none;marker-start:none;marker-mid:none;marker-end:none;paint-order:normal;enable-background:new"
           transform="rotate(90)" />
        <rect
           ry="0"
           rx="0"
           y="374.00018"
           x="186"
           height="75.999817"
           width="94"
           id="rect7227"
           style="display:inline;opacity:1;vector-effect:none;fill:url(#linearGradient7251);fill-opacity:1;stroke:none;stroke-width:0.0123119px;stroke-linecap:butt;stroke-linejoin:miter;stroke-miterlimit:4;stroke-dasharray:none;stroke-dashoffset:0;stroke-opacity:1;marker:none;marker-start:none;marker-mid:none;marker-end:none;paint-order:normal;enable-background:new"
           transform="rotate(90)" />
        <rect
           ry="0"
           rx="0"
           y="374.00018"
           x="186"
           height="75.999817"
           width="94"
           id="rect7229"
           style="display:inline;opacity:0.486;vector-effect:none;fill:url(#radialGradient7253);fill-opacity:1;stroke:none;stroke-width:0.0123119px;stroke-linecap:butt;stroke-linejoin:miter;stroke-miterlimit:4;stroke-dasharray:none;stroke-dashoffset:0;stroke-opacity:1;marker:none;marker-start:none;marker-mid:none;marker-end:none;paint-order:normal;enable-background:new"
           transform="rotate(90)" />
        <g
           transform="matrix(0,0.25,-0.29687428,0,-401.31262,132)"
           clip-path="url(#clipPath1176)"
           style="display:inline;fill:#ffffff;stroke:#ffffff;enable-background:new"
           id="g7235">
          <path
             transform="matrix(1.3333333,0,0,1,-144,0)"
             sodipodi:nodetypes="ccccc"
             inkscape:connector-curvature="0"
             id="path7231"
             d="m 372,-116 v 304 h 24 v -304 z"
             style="color:#000000;font-style:normal;font-variant:normal;font-weight:normal;font-stretch:normal;font-size:medium;line-height:normal;font-family:sans-serif;font-variant-ligatures:normal;font-variant-position:normal;font-variant-caps:normal;font-variant-numeric:normal;font-variant-alternates:normal;font-feature-settings:normal;text-indent:0;text-align:start;text-decoration:none;text-decoration-line:none;text-decoration-style:solid;text-decoration-color:#000000;letter-spacing:normal;word-spacing:normal;text-transform:none;writing-mode:lr-tb;direction:ltr;text-orientation:mixed;dominant-baseline:auto;baseline-shift:baseline;text-anchor:start;white-space:normal;shape-padding:0;clip-rule:nonzero;display:inline;overflow:visible;visibility:visible;opacity:1;isolation:auto;mix-blend-mode:normal;color-interpolation:sRGB;color-interpolation-filters:linearRGB;solid-color:#000000;solid-opacity:1;vector-effect:none;fill:#f9f06b;fill-opacity:1;fill-rule:nonzero;stroke:none;stroke-width:13.8564;stroke-linecap:butt;stroke-linejoin:miter;stroke-miterlimit:4;stroke-dasharray:none;stroke-dashoffset:0;stroke-opacity:1;filter:url(#filter1164);color-rendering:auto;image-rendering:auto;shape-rendering:auto;text-rendering:auto;enable-background:new" />
          <path
             sodipodi:nodetypes="ccccc"
             inkscape:connector-curvature="0"
             id="path7233"
             d="m 360,-116 v 304 h 16 v -304 z"
             style="color:#000000;font-style:normal;font-variant:normal;font-weight:normal;font-stretch:normal;font-size:medium;line-height:normal;font-family:sans-serif;font-variant-ligatures:normal;font-variant-position:normal;font-variant-caps:normal;font-variant-numeric:normal;font-variant-alternates:normal;font-feature-settings:normal;text-indent:0;text-align:start;text-decoration:none;text-decoration-line:none;text-decoration-style:solid;text-decoration-color:#000000;letter-spacing:normal;word-spacing:normal;text-transform:none;writing-mode:lr-tb;direction:ltr;text-orientation:mixed;dominant-baseline:auto;baseline-shift:baseline;text-anchor:start;white-space:normal;shape-padding:0;clip-rule:nonzero;display:inline;overflow:visible;visibility:visible;opacity:1;isolation:auto;mix-blend-mode:normal;color-interpolation:sRGB;color-interpolation-filters:linearRGB;solid-color:#000000;solid-opacity:1;vector-effect:none;fill:#ffffff;fill-opacity:1;fill-rule:nonzero;stroke:none;stroke-width:8;stroke-linecap:butt;stroke-linejoin:miter;stroke-miterlimit:4;stroke-dasharray:none;stroke-dashoffset:0;stroke-opacity:1;color-rendering:auto;image-rendering:auto;shape-rendering:auto;text-rendering:auto;enable-background:accumulate" />
        </g>
        <path
           inkscape:connector-curvature="0"
           style="display:inline;opacity:1;vector-effect:none;fill:url(#linearGradient7255);fill-opacity:1;stroke:none;stroke-width:0.0112982px;stroke-linecap:butt;stroke-linejoin:miter;stroke-miterlimit:4;stroke-dasharray:none;stroke-dashoffset:0;stroke-opacity:1;marker:none;marker-start:none;marker-mid:none;marker-end:none;paint-order:normal;enable-background:new"
           d="m -368.00009,280 v 4 c 0,4.432 -3.568,8 -8,8 h -72 c -4.432,0 -8,-3.568 -8,-8 v -4 c 0,4.432 3.568,8 8,8 h 72 c 4.432,0 8,-3.568 8,-8 z"
           id="path7237"
           sodipodi:nodetypes="csssscssc" />
        <g
           style="display:inline;stroke-width:1.37569;enable-background:new"
           id="g7247"
           transform="matrix(0.18172692,0,0,0.18172692,-458.50712,224.6365)">
          <g
             style="stroke-width:1.37569"
             id="g7243">
            <path
               sodipodi:nodetypes="cccssssssc"
               inkscape:connector-curvature="0"
               id="path7239"
               d="M 111.82842,-179.67158 H 310.45273 L 432,-60 l 0.005,300.3671 c 3e-4,17.728 -14.44878,32.08839 -32.17678,32.08839 h -288 c -17.727992,0 -31.999992,-14.272 -31.999992,-32 v -388.12707 c 0,-17.728 14.272,-32 31.999992,-32 z"
               clip-path="none"
               style="display:inline;opacity:1;fill:#f6f5f4;fill-opacity:1;stroke:none;stroke-width:2.75138;stroke-linejoin:round;stroke-miterlimit:4;stroke-dasharray:none;stroke-opacity:1;enable-background:new" />
            <path
               sodipodi:nodetypes="csccc"
               id="path7241"
               d="m 311.14057,-178.29588 v 87.999998 c 0,17.728 14.44211,31.693795 32.17011,31.693795 l 88.00147,-0.02222 z"
               style="display:inline;opacity:1;vector-effect:none;fill:#deddda;fill-opacity:1;stroke:none;stroke-width:2.75138;stroke-linecap:butt;stroke-linejoin:round;stroke-miterlimit:4;stroke-dasharray:none;stroke-dashoffset:0;stroke-opacity:1;enable-background:new"
               inkscape:connector-curvature="0" />
          </g>
          <g
             style="stroke-width:1.37569"
             transform="translate(-3,-2.5)"
             id="g7245" />
        </g>
      </g>
      <g
         id="g32012"
         style="display:inline;enable-background:new"
         transform="matrix(3.923572,0,0,3.923572,29.467146,-889.72107)">
        <rect
           style="font-variation-settings:normal;opacity:1;vector-effect:none;fill:url(#linearGradient1985);fill-opacity:1;stroke:none;stroke-width:1;stroke-linecap:butt;stroke-linejoin:miter;stroke-miterlimit:4;stroke-dasharray:none;stroke-dashoffset:0;stroke-opacity:1;-inkscape-stroke:none;stop-color:#000000;stop-opacity:1"
           id="rect1861"
           width="32"
           height="14"
           x="48"
           y="188"
           rx="2"
           ry="2" />
        <rect
           style="font-variation-settings:normal;opacity:1;vector-effect:none;fill:#342f3b;fill-opacity:1;stroke:none;stroke-width:1;stroke-linecap:butt;stroke-linejoin:miter;stroke-miterlimit:4;stroke-dasharray:none;stroke-dashoffset:0;stroke-opacity:1;-inkscape-stroke:none;stop-color:#000000;stop-opacity:1"
           id="rect190"
           width="111.50499"
           height="87.505035"
           x="8.4950066"
           y="200.49495"
           rx="8"
           ry="7.9999995" />
        <g
           id="g3794"
           clip-path="url(#clipPath3835-3)">
          <rect
             style="fill:#3d3846;stroke:none;stroke-width:1;-inkscape-stroke:none;stop-color:#000000"
             id="rect1311"
             width="112.0003"
             height="86.00029"
             x="7.999702"
             y="199.99969"
             rx="0"
             ry="0" />
          <rect
             style="fill:#5e5c64;stroke:none;stroke-width:1;-inkscape-stroke:none;stop-color:#000000"
             id="rect3938"
             width="112.0003"
             height="20.000305"
             x="7.999702"
             y="199.99969"
             rx="0"
             ry="0" />
        </g>
        <path
           id="circle2737"
           style="opacity:1;vector-effect:none;fill:#5e5c64;stop-color:#000000;stop-opacity:1"
           d="m 106,275 c 0,0.55228 -0.44772,1 -1,1 -0.55228,0 -1,-0.44772 -1,-1 0,-0.55228 0.44772,-1 1,-1 0.55228,0 1,0.44772 1,1 z m 0,-8 c 0,0.55228 -0.44772,1 -1,1 -0.55228,0 -1,-0.44772 -1,-1 0,-0.55228 0.44772,-1 1,-1 0.55228,0 1,0.44772 1,1 z m 0,-8 c 0,0.55228 -0.44772,1 -1,1 -0.55228,0 -1,-0.44772 -1,-1 0,-0.55228 0.44772,-1 1,-1 0.55228,0 1,0.44772 1,1 z m 0,-8 c 0,0.55228 -0.44772,1 -1,1 -0.55228,0 -1,-0.44772 -1,-1 0,-0.55228 0.44772,-1 1,-1 0.55228,0 1,0.44772 1,1 z m 0,-8 c 0,0.55228 -0.44772,1 -1,1 -0.55228,0 -1,-0.44772 -1,-1 0,-0.55228 0.44772,-1 1,-1 0.55228,0 1,0.44772 1,1 z m 0,-8 c 0,0.55228 -0.44772,1 -1,1 -0.55228,0 -1,-0.44772 -1,-1 0,-0.55228 0.44772,-1 1,-1 0.55228,0 1,0.44772 1,1 z m 0,-8 c 0,0.55228 -0.44772,1 -1,1 -0.55228,0 -1,-0.44772 -1,-1 0,-0.55228 0.44772,-1 1,-1 0.55228,0 1,0.44772 1,1 z m -8,48 c 0,0.55228 -0.447715,1 -1,1 -0.552285,0 -1,-0.44772 -1,-1 0,-0.55228 0.447715,-1 1,-1 0.552285,0 1,0.44772 1,1 z m -8,0 c 0,0.55228 -0.447715,1 -1,1 -0.552285,0 -1,-0.44772 -1,-1 0,-0.55228 0.447715,-1 1,-1 0.552285,0 1,0.44772 1,1 z m -8,0 c 0,0.55228 -0.447715,1 -1,1 -0.552285,0 -1,-0.44772 -1,-1 0,-0.55228 0.447715,-1 1,-1 0.552285,0 1,0.44772 1,1 z m -8,0 c 0,0.55228 -0.447715,1 -1,1 -0.552285,0 -1,-0.44772 -1,-1 0,-0.55228 0.447715,-1 1,-1 0.552285,0 1,0.44772 1,1 z m -8,0 c 0,0.55228 -0.447715,1 -1,1 -0.552285,0 -1,-0.44772 -1,-1 0,-0.55228 0.447715,-1 1,-1 0.552285,0 1,0.44772 1,1 z m -8,0 c 0,0.55228 -0.447715,1 -1,1 -0.552285,0 -1,-0.44772 -1,-1 0,-0.55228 0.447715,-1 1,-1 0.552285,0 1,0.44772 1,1 z m -8,0 c 0,0.55228 -0.447715,1 -1,1 -0.552285,0 -1,-0.44772 -1,-1 0,-0.55228 0.447715,-1 1,-1 0.552285,0 1,0.44772 1,1 z m -8,0 c 0,0.55228 -0.447715,1 -1,1 -0.552285,0 -1,-0.44772 -1,-1 0,-0.55228 0.447715,-1 1,-1 0.552285,0 1,0.44772 1,1 z m -8,0 c 0,0.55228 -0.447715,1 -1,1 -0.552285,0 -1,-0.44772 -1,-1 0,-0.55228 0.447715,-1 1,-1 0.552285,0 1,0.44772 1,1 z m -8,0 c 0,0.55228 -0.447715,1 -1,1 -0.552285,0 -1,-0.44772 -1,-1 0,-0.55228 0.447715,-1 1,-1 0.552285,0 1,0.44772 1,1 z m 72,-8 c 0,0.55228 -0.447715,1 -1,1 -0.552285,0 -1,-0.44772 -1,-1 0,-0.55228 0.447715,-1 1,-1 0.552285,0 1,0.44772 1,1 z m -8,0 c 0,0.55228 -0.447715,1 -1,1 -0.552285,0 -1,-0.44772 -1,-1 0,-0.55228 0.447715,-1 1,-1 0.552285,0 1,0.44772 1,1 z m -8,0 c 0,0.55228 -0.447715,1 -1,1 -0.552285,0 -1,-0.44772 -1,-1 0,-0.55228 0.447715,-1 1,-1 0.552285,0 1,0.44772 1,1 z m -8,0 c 0,0.55228 -0.447715,1 -1,1 -0.552285,0 -1,-0.44772 -1,-1 0,-0.55228 0.447715,-1 1,-1 0.552285,0 1,0.44772 1,1 z m -8,0 c 0,0.55228 -0.447715,1 -1,1 -0.552285,0 -1,-0.44772 -1,-1 0,-0.55228 0.447715,-1 1,-1 0.552285,0 1,0.44772 1,1 z m -8,0 c 0,0.55228 -0.447715,1 -1,1 -0.552285,0 -1,-0.44772 -1,-1 0,-0.55228 0.447715,-1 1,-1 0.552285,0 1,0.44772 1,1 z m -8,0 c 0,0.55228 -0.447715,1 -1,1 -0.552285,0 -1,-0.44772 -1,-1 0,-0.55228 0.447715,-1 1,-1 0.552285,0 1,0.44772 1,1 z m -8,0 c 0,0.55228 -0.447715,1 -1,1 -0.552285,0 -1,-0.44772 -1,-1 0,-0.55228 0.447715,-1 1,-1 0.552285,0 1,0.44772 1,1 z m -8,0 c 0,0.55228 -0.447715,1 -1,1 -0.552285,0 -1,-0.44772 -1,-1 0,-0.55228 0.447715,-1 1,-1 0.552285,0 1,0.44772 1,1 z m -8,0 c 0,0.55228 -0.447715,1 -1,1 -0.552285,0 -1,-0.44772 -1,-1 0,-0.55228 0.447715,-1 1,-1 0.552285,0 1,0.44772 1,1 z m 72,-8 c 0,0.55228 -0.447715,1 -1,1 -0.552285,0 -1,-0.44772 -1,-1 0,-0.55228 0.447715,-1 1,-1 0.552285,0 1,0.44772 1,1 z m -8,0 c 0,0.55228 -0.447715,1 -1,1 -0.552285,0 -1,-0.44772 -1,-1 0,-0.55228 0.447715,-1 1,-1 0.552285,0 1,0.44772 1,1 z m -8,0 c 0,0.55228 -0.447715,1 -1,1 -0.552285,0 -1,-0.44772 -1,-1 0,-0.55228 0.447715,-1 1,-1 0.552285,0 1,0.44772 1,1 z m -8,0 c 0,0.55228 -0.447715,1 -1,1 -0.552285,0 -1,-0.44772 -1,-1 0,-0.55228 0.447715,-1 1,-1 0.552285,0 1,0.44772 1,1 z m -8,0 c 0,0.55228 -0.447715,1 -1,1 -0.552285,0 -1,-0.44772 -1,-1 0,-0.55228 0.447715,-1 1,-1 0.552285,0 1,0.44772 1,1 z m -8,0 c 0,0.55228 -0.447715,1 -1,1 -0.552285,0 -1,-0.44772 -1,-1 0,-0.55228 0.447715,-1 1,-1 0.552285,0 1,0.44772 1,1 z m -8,0 c 0,0.55228 -0.447715,1 -1,1 -0.552285,0 -1,-0.44772 -1,-1 0,-0.55228 0.447715,-1 1,-1 0.552285,0 1,0.44772 1,1 z m -8,0 c 0,0.55228 -0.447715,1 -1,1 -0.552285,0 -1,-0.44772 -1,-1 0,-0.55228 0.447715,-1 1,-1 0.552285,0 1,0.44772 1,1 z m -8,0 c 0,0.55228 -0.447715,1 -1,1 -0.552285,0 -1,-0.44772 -1,-1 0,-0.55228 0.447715,-1 1,-1 0.552285,0 1,0.44772 1,1 z m -8,0 c 0,0.55228 -0.447715,1 -1,1 -0.552285,0 -1,-0.44772 -1,-1 0,-0.55228 0.447715,-1 1,-1 0.552285,0 1,0.44772 1,1 z m 72,-8 c 0,0.55228 -0.447715,1 -1,1 -0.552285,0 -1,-0.44772 -1,-1 0,-0.55228 0.447715,-1 1,-1 0.552285,0 1,0.44772 1,1 z m -8,0 c 0,0.55228 -0.447715,1 -1,1 -0.552285,0 -1,-0.44772 -1,-1 0,-0.55228 0.447715,-1 1,-1 0.552285,0 1,0.44772 1,1 z m -8,0 c 0,0.55228 -0.447715,1 -1,1 -0.552285,0 -1,-0.44772 -1,-1 0,-0.55228 0.447715,-1 1,-1 0.552285,0 1,0.44772 1,1 z m -8,0 c 0,0.55228 -0.447715,1 -1,1 -0.552285,0 -1,-0.44772 -1,-1 0,-0.55228 0.447715,-1 1,-1 0.552285,0 1,0.44772 1,1 z m -8,0 c 0,0.55228 -0.447715,1 -1,1 -0.552285,0 -1,-0.44772 -1,-1 0,-0.55228 0.447715,-1 1,-1 0.552285,0 1,0.44772 1,1 z m -8,0 c 0,0.55228 -0.447715,1 -1,1 -0.552285,0 -1,-0.44772 -1,-1 0,-0.55228 0.447715,-1 1,-1 0.552285,0 1,0.44772 1,1 z m -8,0 c 0,0.55228 -0.447715,1 -1,1 -0.552285,0 -1,-0.44772 -1,-1 0,-0.55228 0.447715,-1 1,-1 0.552285,0 1,0.44772 1,1 z m -8,0 c 0,0.55228 -0.447715,1 -1,1 -0.552285,0 -1,-0.44772 -1,-1 0,-0.55228 0.447715,-1 1,-1 0.552285,0 1,0.44772 1,1 z m -8,0 c 0,0.55228 -0.447715,1 -1,1 -0.552285,0 -1,-0.44772 -1,-1 0,-0.55228 0.447715,-1 1,-1 0.552285,0 1,0.44772 1,1 z m -8,0 c 0,0.55228 -0.447715,1 -1,1 -0.552285,0 -1,-0.44772 -1,-1 0,-0.55228 0.447715,-1 1,-1 0.552285,0 1,0.44772 1,1 z m 72,-8 c 0,0.55228 -0.447715,1 -1,1 -0.552285,0 -1,-0.44772 -1,-1 0,-0.55228 0.447715,-1 1,-1 0.552285,0 1,0.44772 1,1 z m -8,0 c 0,0.55228 -0.447715,1 -1,1 -0.552285,0 -1,-0.44772 -1,-1 0,-0.55228 0.447715,-1 1,-1 0.552285,0 1,0.44772 1,1 z m -8,0 c 0,0.55228 -0.447715,1 -1,1 -0.552285,0 -1,-0.44772 -1,-1 0,-0.55228 0.447715,-1 1,-1 0.552285,0 1,0.44772 1,1 z m -8,0 c 0,0.55228 -0.447715,1 -1,1 -0.552285,0 -1,-0.44772 -1,-1 0,-0.55228 0.447715,-1 1,-1 0.552285,0 1,0.44772 1,1 z m -8,0 c 0,0.55228 -0.447715,1 -1,1 -0.552285,0 -1,-0.44772 -1,-1 0,-0.55228 0.447715,-1 1,-1 0.552285,0 1,0.44772 1,1 z m -8,0 c 0,0.55228 -0.447715,1 -1,1 -0.552285,0 -1,-0.44772 -1,-1 0,-0.55228 0.447715,-1 1,-1 0.552285,0 1,0.44772 1,1 z m -8,0 c 0,0.55228 -0.447715,1 -1,1 -0.552285,0 -1,-0.44772 -1,-1 0,-0.55228 0.447715,-1 1,-1 0.552285,0 1,0.44772 1,1 z m -8,0 c 0,0.55228 -0.447715,1 -1,1 -0.552285,0 -1,-0.44772 -1,-1 0,-0.55228 0.447715,-1 1,-1 0.552285,0 1,0.44772 1,1 z m -8,0 c 0,0.55228 -0.447715,1 -1,1 -0.552285,0 -1,-0.44772 -1,-1 0,-0.55228 0.447715,-1 1,-1 0.552285,0 1,0.44772 1,1 z m -8,0 c 0,0.55228 -0.447715,1 -1,1 -0.552285,0 -1,-0.44772 -1,-1 0,-0.55228 0.447715,-1 1,-1 0.552285,0 1,0.44772 1,1 z m 72,-8 c 0,0.55228 -0.447715,1 -1,1 -0.552285,0 -1,-0.44772 -1,-1 0,-0.55228 0.447715,-1 1,-1 0.552285,0 1,0.44772 1,1 z m -8,0 c 0,0.55228 -0.447715,1 -1,1 -0.552285,0 -1,-0.44772 -1,-1 0,-0.55228 0.447715,-1 1,-1 0.552285,0 1,0.44772 1,1 z m -8,0 c 0,0.55228 -0.447715,1 -1,1 -0.552285,0 -1,-0.44772 -1,-1 0,-0.55228 0.447715,-1 1,-1 0.552285,0 1,0.44772 1,1 z m -8,0 c 0,0.55228 -0.447715,1 -1,1 -0.552285,0 -1,-0.44772 -1,-1 0,-0.55228 0.447715,-1 1,-1 0.552285,0 1,0.44772 1,1 z m -8,0 c 0,0.55228 -0.447715,1 -1,1 -0.552285,0 -1,-0.44772 -1,-1 0,-0.55228 0.447715,-1 1,-1 0.552285,0 1,0.44772 1,1 z m -8,0 c 0,0.55228 -0.447715,1 -1,1 -0.552285,0 -1,-0.44772 -1,-1 0,-0.55228 0.447715,-1 1,-1 0.552285,0 1,0.44772 1,1 z m -8,0 c 0,0.55228 -0.447715,1 -1,1 -0.552285,0 -1,-0.44772 -1,-1 0,-0.55228 0.447715,-1 1,-1 0.552285,0 1,0.44772 1,1 z m -8,0 c 0,0.55228 -0.447715,1 -1,1 -0.552285,0 -1,-0.44772 -1,-1 0,-0.55228 0.447715,-1 1,-1 0.552285,0 1,0.44772 1,1 z m -8,0 c 0,0.55228 -0.447715,1 -1,1 -0.552285,0 -1,-0.44772 -1,-1 0,-0.55228 0.447715,-1 1,-1 0.552285,0 1,0.44772 1,1 z m -8,0 c 0,0.55228 -0.447715,1 -1,1 -0.552285,0 -1,-0.44772 -1,-1 0,-0.55228 0.447715,-1 1,-1 0.552285,0 1,0.44772 1,1 z m 72,-8 c 0,0.55228 -0.447715,1 -1,1 -0.552285,0 -1,-0.44772 -1,-1 0,-0.55228 0.447715,-1 1,-1 0.552285,0 1,0.44772 1,1 z m -8,0 c 0,0.55228 -0.447715,1 -1,1 -0.552285,0 -1,-0.44772 -1,-1 0,-0.55228 0.447715,-1 1,-1 0.552285,0 1,0.44772 1,1 z m -8,0 c 0,0.55228 -0.447715,1 -1,1 -0.552285,0 -1,-0.44772 -1,-1 0,-0.55228 0.447715,-1 1,-1 0.552285,0 1,0.44772 1,1 z m -8,0 c 0,0.55228 -0.447715,1 -1,1 -0.552285,0 -1,-0.44772 -1,-1 0,-0.55228 0.447715,-1 1,-1 0.552285,0 1,0.44772 1,1 z m -8,0 c 0,0.55228 -0.447715,1 -1,1 -0.552285,0 -1,-0.44772 -1,-1 0,-0.55228 0.447715,-1 1,-1 0.552285,0 1,0.44772 1,1 z m -8,0 c 0,0.55228 -0.447715,1 -1,1 -0.552285,0 -1,-0.44772 -1,-1 0,-0.55228 0.447715,-1 1,-1 0.552285,0 1,0.44772 1,1 z m -8,0 c 0,0.55228 -0.447715,1 -1,1 -0.552285,0 -1,-0.44772 -1,-1 0,-0.55228 0.447715,-1 1,-1 0.552285,0 1,0.44772 1,1 z m -8,0 c 0,0.55228 -0.447715,1 -1,1 -0.552285,0 -1,-0.44772 -1,-1 0,-0.55228 0.447715,-1 1,-1 0.552285,0 1,0.44772 1,1 z m -8,0 c 0,0.55228 -0.447715,1 -1,1 -0.552285,0 -1,-0.44772 -1,-1 0,-0.55228 0.447715,-1 1,-1 0.552285,0 1,0.44772 1,1 z m -8,0 c 0,0.55228 -0.447715,1 -1,1 -0.552285,0 -1,-0.44772 -1,-1 0,-0.55228 0.447715,-1 1,-1 0.552285,0 1,0.44772 1,1 z"
           sodipodi:nodetypes="sssssssssssssssssssssssssssssssssssssssssssssssssssssssssssssssssssssssssssssssssssssssssssssssssssssssssssssssssssssssssssssssssssssssssssssssssssssssssssssssssssssssssssssssssssssssssssssssssssssssssssssssssssssssssssssssssssssssssssssssssssssssssssssssssssssssssssssssssssssssssssssssssssssssssssssssssssssssssssssssssssssssssssssssssssssssssssssssssssssssssssssssssssssssssssssssss" />
        <circle
           style="font-variation-settings:normal;opacity:1;vector-effect:none;fill:#5e5c64;fill-opacity:1;stroke:none;stroke-width:1;stroke-linecap:butt;stroke-linejoin:miter;stroke-miterlimit:4;stroke-dasharray:none;stroke-dashoffset:0;stroke-opacity:1;-inkscape-stroke:none;stop-color:#000000;stop-opacity:1"
           id="path4099"
           cx="20"
           cy="208"
           r="4" />
        <path
           id="path31471"
           style="font-variation-settings:normal;opacity:0.2;vector-effect:none;fill:#000000;fill-opacity:1;stroke:none;stroke-width:1;stroke-linecap:butt;stroke-linejoin:miter;stroke-miterlimit:4;stroke-dasharray:none;stroke-dashoffset:0;stroke-opacity:1;-inkscape-stroke:none;stop-color:#000000"
           d="m 104.87305,44 -46.470706,46.470703 -5.65625,5.65625 -2.123047,9.193357 4.244141,4.24219 9.191406,-2.12109 5.65625,-5.65625 55.685546,-55.685551 C 123.97862,44.79823 122.08824,44 120,44 Z m -54.250003,62.73438 -2.650391,4.41992 1.060547,1.06054 4.419922,-2.65234 z"
           transform="translate(-8,156)" />
        <g
           id="g24955"
           transform="rotate(45,148.71677,525.67872)">
          <path
             id="rect12774"
             style="font-variation-settings:normal;opacity:1;vector-effect:none;fill:url(#linearGradient21274);fill-opacity:1;stroke:none;stroke-width:1;stroke-linecap:butt;stroke-linejoin:miter;stroke-miterlimit:4;stroke-dasharray:none;stroke-dashoffset:0;stroke-opacity:1;-inkscape-stroke:none;stop-color:#000000;stop-opacity:1"
             d="m -104,152 c -4.432,0 -8,3.568 -8,8 v 80 8 l 5,8 h 6 l 5,-8 v -8 -80 c 0,-4.432 -3.568,-8 -8,-8 z"
             transform="translate(-8,156)"
             sodipodi:nodetypes="ssccccccss" />
          <path
             id="path13080"
             style="opacity:1;vector-effect:none;fill:#241f31;fill-opacity:1;stop-color:#000000;stop-opacity:1"
             d="m -114,413 h 4 l -1.25,5 h -1.5 z"
             sodipodi:nodetypes="ccccc" />
          <path
             id="path18240"
             style="font-variation-settings:normal;opacity:1;vector-effect:none;fill:#241f31;fill-opacity:1;stroke:none;stroke-width:1;stroke-linecap:butt;stroke-linejoin:miter;stroke-miterlimit:4;stroke-dasharray:none;stroke-dashoffset:0;stroke-opacity:1;-inkscape-stroke:none;stop-color:#000000;stop-opacity:1"
             d="m -112,248 5,8 h 6 l 5,-8 z"
             transform="translate(-8,156)"
             sodipodi:nodetypes="ccccc" />
        </g>
      </g>
    </g>
  </g>
</svg>
