<?xml version="1.0" encoding="UTF-8" standalone="no"?>
<svg
   xmlns:dc="http://purl.org/dc/elements/1.1/"
   xmlns:cc="http://creativecommons.org/ns#"
   xmlns:rdf="http://www.w3.org/1999/02/22-rdf-syntax-ns#"
   xmlns:svg="http://www.w3.org/2000/svg"
   xmlns="http://www.w3.org/2000/svg"
   xmlns:xlink="http://www.w3.org/1999/xlink"
   xmlns:sodipodi="http://sodipodi.sourceforge.net/DTD/sodipodi-0.dtd"
   xmlns:inkscape="http://www.inkscape.org/namespaces/inkscape"
   viewBox="0 0 680 560"
   style="display:inline;enable-background:new"
   version="1.0"
   inkscape:output_extension="org.inkscape.output.svg.inkscape"
   sodipodi:docname="input-gaming.svg"
   inkscape:version="1.0 (4035a4fb49, 2020-05-01)"
   sodipodi:version="0.32"
   id="svg11300"
   height="560"
   width="680"
   inkscape:export-filename="Template.png"
   inkscape:export-xdpi="96"
   inkscape:export-ydpi="96">
  <title
     id="title4162">Adwaita Icon Template</title>
  <defs
     id="defs3">
    <linearGradient
       id="linear0"
       gradientUnits="userSpaceOnUse"
       x1="26.000322"
       y1="242.000854"
       x2="38.000298"
       y2="241.942856"
       gradientTransform="matrix(0,-1.33333,-1.33333,0,406.66699,118.66702)">
      <stop
         offset="0"
         style="stop-color:rgb(60.392159%,60.000002%,58.823532%);stop-opacity:1;"
         id="stop26" />
      <stop
         offset="1"
         style="stop-color:rgb(60.392159%,60.000002%,58.823532%);stop-opacity:0;"
         id="stop28" />
    </linearGradient>
    <linearGradient
       id="linear1"
       gradientUnits="userSpaceOnUse"
       x1="26.000322"
       y1="242.000854"
       x2="38.000351"
       y2="242.000854"
       gradientTransform="matrix(0,-1.33333,-1.33333,0,366.78299,118.66702)">
      <stop
         offset="0"
         style="stop-color:rgb(60.392159%,60.000002%,58.823532%);stop-opacity:1;"
         id="stop31" />
      <stop
         offset="1"
         style="stop-color:rgb(60.392159%,60.000002%,58.823532%);stop-opacity:0;"
         id="stop33" />
    </linearGradient>
    <linearGradient
       y2="241.942856"
       x2="38.000298"
       y1="242.000854"
       x1="26.000322"
       gradientTransform="matrix(0,-1.33333,-1.33333,0,406.66699,118.66702)"
       gradientUnits="userSpaceOnUse"
       id="linearGradient179"
       xlink:href="#linear0"
       inkscape:collect="always" />
    <linearGradient
       y2="242.000854"
       x2="38.000351"
       y1="242.000854"
       x1="26.000322"
       gradientTransform="matrix(0,-1.33333,-1.33333,0,366.78299,118.66702)"
       gradientUnits="userSpaceOnUse"
       id="linearGradient181"
       xlink:href="#linear1"
       inkscape:collect="always" />
    <linearGradient
       y2="241.942856"
       x2="38.000298"
       y1="242.000854"
       x1="26.000322"
       gradientTransform="matrix(0,-1.33333,-1.33333,0,406.66699,118.66702)"
       gradientUnits="userSpaceOnUse"
       id="linearGradient235"
       xlink:href="#linear0"
       inkscape:collect="always" />
    <linearGradient
       y2="242.000854"
       x2="38.000351"
       y1="242.000854"
       x1="26.000322"
       gradientTransform="matrix(0,-1.33333,-1.33333,0,366.78299,118.66702)"
       gradientUnits="userSpaceOnUse"
       id="linearGradient237"
       xlink:href="#linear1"
       inkscape:collect="always" />
    <linearGradient
       y2="241.942856"
       x2="38.000298"
       y1="242.000854"
       x1="26.000322"
       gradientTransform="matrix(0,-1.33333,-1.33333,0,406.66699,118.66702)"
       gradientUnits="userSpaceOnUse"
       id="linearGradient291"
       xlink:href="#linear0"
       inkscape:collect="always" />
    <linearGradient
       y2="242.000854"
       x2="38.000351"
       y1="242.000854"
       x1="26.000322"
       gradientTransform="matrix(0,-1.33333,-1.33333,0,366.78299,118.66702)"
       gradientUnits="userSpaceOnUse"
       id="linearGradient293"
       xlink:href="#linear1"
       inkscape:collect="always" />
    <linearGradient
       y2="241.942856"
       x2="38.000298"
       y1="242.000854"
       x1="26.000322"
       gradientTransform="matrix(0,-1.33333,-1.33333,0,406.66699,118.66702)"
       gradientUnits="userSpaceOnUse"
       id="linearGradient347"
       xlink:href="#linear0"
       inkscape:collect="always" />
    <linearGradient
       y2="242.000854"
       x2="38.000351"
       y1="242.000854"
       x1="26.000322"
       gradientTransform="matrix(0,-1.33333,-1.33333,0,366.78299,118.66702)"
       gradientUnits="userSpaceOnUse"
       id="linearGradient349"
       xlink:href="#linear1"
       inkscape:collect="always" />
  </defs>
  <sodipodi:namedview
     inkscape:document-rotation="0"
     inkscape:bbox-nodes="true"
     inkscape:object-nodes="true"
     inkscape:measure-end="0,0"
     inkscape:measure-start="0,0"
     inkscape:locked="false"
     inkscape:guide-bbox="true"
     showguides="false"
     inkscape:pagecheckerboard="false"
     inkscape:window-maximized="1"
     guidetolerance="13"
     gridtolerance="12"
     objecttolerance="7"
     inkscape:snap-bbox="true"
     inkscape:snap-nodes="true"
     height="300px"
     width="400px"
     inkscape:window-y="27"
     inkscape:window-x="0"
     inkscape:window-height="1016"
     inkscape:window-width="1920"
     inkscape:showpageshadow="false"
     inkscape:document-units="px"
     inkscape:grid-bbox="true"
     showgrid="false"
     inkscape:current-layer="layer7"
     inkscape:cy="238.83183"
     inkscape:cx="249.46366"
     inkscape:zoom="1"
     inkscape:pageshadow="2"
     inkscape:pageopacity="0.0"
     borderopacity="0.25490196"
     bordercolor="#666666"
     pagecolor="#ffffff"
     id="base"
     fill="#f57900"
     stroke="#ef2929">
    <inkscape:grid
       empspacing="4"
       visible="true"
       enabled="true"
       spacingy="1px"
       spacingx="1px"
       id="grid5883"
       type="xygrid" />
  </sodipodi:namedview>
  <metadata
     id="metadata4">
    <rdf:RDF>
      <cc:Work
         rdf:about="">
        <dc:format>image/svg+xml</dc:format>
        <dc:type
           rdf:resource="http://purl.org/dc/dcmitype/StillImage" />
        <dc:creator>
          <cc:Agent>
            <dc:title>GNOME Design Team</dc:title>
          </cc:Agent>
        </dc:creator>
        <dc:source />
        <cc:license
           rdf:resource="http://creativecommons.org/licenses/by-sa/4.0/" />
        <dc:title>Adwaita Icon Template</dc:title>
        <dc:subject>
          <rdf:Bag />
        </dc:subject>
        <dc:date />
        <dc:rights>
          <cc:Agent>
            <dc:title />
          </cc:Agent>
        </dc:rights>
        <dc:publisher>
          <cc:Agent>
            <dc:title />
          </cc:Agent>
        </dc:publisher>
        <dc:identifier />
        <dc:relation />
        <dc:language />
        <dc:coverage />
        <dc:description />
        <dc:contributor>
          <cc:Agent>
            <dc:title />
          </cc:Agent>
        </dc:contributor>
      </cc:Work>
      <cc:License
         rdf:about="http://creativecommons.org/licenses/by-sa/4.0/">
        <cc:permits
           rdf:resource="http://creativecommons.org/ns#Reproduction" />
        <cc:permits
           rdf:resource="http://creativecommons.org/ns#Distribution" />
        <cc:requires
           rdf:resource="http://creativecommons.org/ns#Notice" />
        <cc:requires
           rdf:resource="http://creativecommons.org/ns#Attribution" />
        <cc:permits
           rdf:resource="http://creativecommons.org/ns#DerivativeWorks" />
        <cc:requires
           rdf:resource="http://creativecommons.org/ns#ShareAlike" />
      </cc:License>
    </rdf:RDF>
  </metadata>
  <g
     transform="translate(0,260)"
     style="display:inline"
     inkscape:groupmode="layer"
     inkscape:label="artwork:icon-name"
     id="layer1">
    <g
       style="display:none"
       inkscape:label="baseplate"
       id="layer7"
       inkscape:groupmode="layer">
      <rect
         style="display:inline;overflow:visible;visibility:visible;fill:#eeeeec;fill-opacity:1;fill-rule:nonzero;stroke:none;stroke-width:2;marker:none;enable-background:accumulate"
         id="rect6284"
         width="48"
         height="48"
         x="568"
         y="-196"
         inkscape:label="48x48" />
      <rect
         inkscape:label="32x32"
         y="-116"
         x="568"
         height="32"
         width="32"
         id="rect6592"
         style="display:inline;overflow:visible;visibility:visible;fill:#eeeeec;fill-opacity:1;fill-rule:nonzero;stroke:none;stroke-width:2;marker:none;enable-background:accumulate" />
      <rect
         style="display:inline;overflow:visible;visibility:visible;fill:#eeeeec;fill-opacity:1;fill-rule:nonzero;stroke:none;stroke-width:2;marker:none;enable-background:accumulate"
         id="rect6749"
         width="22"
         height="22"
         x="569"
         y="-58.941162"
         inkscape:label="22x22" />
      <rect
         inkscape:label="16x16"
         y="-12"
         x="568"
         height="16"
         width="16"
         id="rect6833"
         style="display:inline;overflow:visible;visibility:visible;fill:#eeeeec;fill-opacity:1;fill-rule:nonzero;stroke:none;stroke-width:2;marker:none;enable-background:accumulate" />
      <rect
         inkscape:label="24x24"
         y="-60"
         x="568"
         height="24"
         width="24"
         id="rect8104"
         style="display:inline;overflow:visible;visibility:visible;fill:#eeeeec;fill-opacity:1;fill-rule:nonzero;stroke:none;stroke-width:2;marker:none;enable-background:accumulate" />
      <text
         inkscape:label="context"
         id="context"
         y="-303.69958"
         x="31.855944"
         style="font-style:normal;font-variant:normal;font-weight:normal;font-stretch:normal;font-size:18.3013px;line-height:125%;font-family:Cantarell;-inkscape-font-specification:'Cantarell, Normal';text-align:start;writing-mode:lr-tb;text-anchor:start;display:inline;fill:#000000;fill-opacity:1;stroke:none;enable-background:new"
         xml:space="preserve"><tspan
           y="-303.69958"
           x="31.855944"
           id="tspan2716"
           sodipodi:role="line">devices</tspan></text>
      <text
         xml:space="preserve"
         style="font-style:normal;font-variant:normal;font-weight:bold;font-stretch:normal;font-size:18.3013px;line-height:125%;font-family:Cantarell;-inkscape-font-specification:'Cantarell, Bold';text-align:start;writing-mode:lr-tb;text-anchor:start;display:inline;fill:#000000;fill-opacity:1;stroke:none;enable-background:new"
         x="31.264769"
         y="-277.90063"
         id="text3021"
         inkscape:label="icon-name"><tspan
           sodipodi:role="line"
           id="tspan3023"
           x="31.264769"
           y="-277.90063">input-gaming</tspan></text>
      <rect
         inkscape:label="512x512"
         y="-236"
         x="24"
         height="512"
         width="512"
         id="rect13805"
         style="display:inline;overflow:visible;visibility:visible;fill:#eeeeec;fill-opacity:1;fill-rule:nonzero;stroke:none;stroke-width:2;marker:none;enable-background:accumulate" />
      <path
         sodipodi:nodetypes="ccccccccc"
         style="display:inline;overflow:visible;visibility:visible;opacity:0.4;fill:#729fcf;fill-opacity:1;fill-rule:nonzero;stroke:none;stroke-width:2;marker:none;enable-background:accumulate"
         d="m 24,-236 v 512 h 511.875 v -512 h -36 V 240 H 60 v -476 z"
         id="path13807"
         inkscape:connector-curvature="0" />
    </g>
    <g
       style="display:inline"
       inkscape:label="small sizes"
       id="layer8"
       inkscape:groupmode="layer" />
    <g
       style="display:inline"
       inkscape:label="hires"
       id="layer9"
       inkscape:groupmode="layer" />
    <g
       inkscape:label="icons"
       id="layer2"
       inkscape:groupmode="layer">
      <g
         transform="matrix(3.5437094,0,0,3.5437094,52.99922,-222.73159)"
         id="surface105889">
        <path
           style="fill:#75757a;fill-opacity:1;fill-rule:nonzero;stroke:none"
           d="m 89.179688,41.96875 6.082031,7.5625 22.648441,-4.667969 9.875,47.90625 c 1.48828,7.234379 -2.17188,14.546879 -8.85157,17.695309 -6.67968,3.14844 -14.64843,1.31641 -19.281246,-4.43359 l -35.40625,-44 z m -49.996094,0 -6.085938,7.5625 -22.648437,-4.667969 -9.875,47.90625 c -1.484375,7.234379 2.171875,14.546879 8.851562,17.695309 6.679688,3.14844 14.648438,1.31641 19.285157,-4.43359 l 35.402343,-44 z m 0,0"
           id="path38" />
        <path
           style="fill:#75757a;fill-opacity:1;fill-rule:nonzero;stroke:none"
           d="m 41.117188,28 h 46 v 32 h -46 z m 0,0"
           id="path40" />
        <path
           style="fill:#5c5c63;fill-opacity:0.235;fill-rule:nonzero;stroke:none"
           d="m 60.449219,59.28125 -31.984375,39.75 c -3.859375,4.78125 -10.117188,6.92969 -16.101563,5.52734 C 6.382812,103.15625 1.730469,98.453125 0.394531,92.453125 l -0.066406,0.316406 c -1.484375,7.234379 2.175781,14.546879 8.855469,17.695309 6.679687,3.14844 14.648437,1.31641 19.28125,-4.43359 l 35.402344,-44 z m 7.101562,0 -3.421875,2.75 35.40625,44 c 4.632814,5.75 12.601564,7.58203 19.281254,4.43359 6.67968,-3.14843 10.33984,-10.46093 8.85547,-17.695309 l -0.0664,-0.316406 c -1.33594,5.996094 -5.98828,10.703125 -11.96875,12.101565 -5.98438,1.40234 -12.24219,-0.7461 -16.101564,-5.527346 z m 0,0"
           id="path42" />
        <path
           style="fill:#bfbdba;fill-opacity:1;fill-rule:nonzero;stroke:none"
           d="m 54.117188,49 c 0,12.148438 -9.851563,22 -22,22 -12.152344,0 -22,-9.851562 -22,-22 0,-12.148438 9.847656,-22 22,-22 12.148437,0 22,9.851562 22,22 z m 0,0"
           id="path44" />
        <path
           style="fill:#bfbdba;fill-opacity:1;fill-rule:nonzero;stroke:none"
           d="m 46.117188,32 h 36 v 52 h -36 z m 0,0"
           id="path46" />
        <path
           style="fill:#bfbdba;fill-opacity:1;fill-rule:nonzero;stroke:none"
           d="m 118.11719,49 c 0,12.148438 -9.85156,22 -22.000002,22 -12.152344,0 -22,-9.851562 -22,-22 0,-12.148438 9.847656,-22 22,-22 12.148442,0 22.000002,9.851562 22.000002,22 z m 0,0"
           id="path48" />
        <path
           style="fill:#dedcd9;fill-opacity:1;fill-rule:nonzero;stroke:none"
           d="m 46.117188,32 h 36 v 48 h -36 z m 0,0"
           id="path50" />
        <path
           style="fill:#bfbdba;fill-opacity:1;fill-rule:nonzero;stroke:none"
           d="m 58,80 c 0,7.667969 -6.214844,13.882812 -13.882812,13.882812 -7.667969,0 -13.886719,-6.214843 -13.886719,-13.882812 0,-7.667969 6.21875,-13.882812 13.886719,-13.882812 C 51.785156,66.117188 58,72.332031 58,80 Z m 0,0"
           id="path52" />
        <path
           style="fill:#dedcd9;fill-opacity:1;fill-rule:nonzero;stroke:none"
           d="m 58,78 c 0,7.667969 -6.214844,13.882812 -13.882812,13.882812 -7.667969,0 -13.886719,-6.214843 -13.886719,-13.882812 0,-7.667969 6.21875,-13.882812 13.886719,-13.882812 C 51.785156,64.117188 58,70.332031 58,78 Z m 0,0"
           id="path54" />
        <path
           style="fill:#bfbdba;fill-opacity:1;fill-rule:nonzero;stroke:none"
           d="m 98,80 c 0,7.667969 -6.214844,13.882812 -13.882812,13.882812 -7.667969,0 -13.886719,-6.214843 -13.886719,-13.882812 0,-7.667969 6.21875,-13.882812 13.886719,-13.882812 C 91.785156,66.117188 98,72.332031 98,80 Z m 0,0"
           id="path56" />
        <path
           style="fill:#dedcd9;fill-opacity:1;fill-rule:nonzero;stroke:none"
           d="m 98,78 c 0,7.667969 -6.214844,13.882812 -13.882812,13.882812 -7.667969,0 -13.886719,-6.214843 -13.886719,-13.882812 0,-7.667969 6.21875,-13.882812 13.886719,-13.882812 C 91.785156,64.117188 98,70.332031 98,78 Z m 0,0"
           id="path58" />
        <path
           style="fill:#dedcd9;fill-opacity:1;fill-rule:nonzero;stroke:none"
           d="m 54.117188,47 c 0,12.148438 -9.851563,22 -22,22 -12.152344,0 -22,-9.851562 -22,-22 0,-12.148438 9.847656,-22 22,-22 12.148437,0 22,9.851562 22,22 z m 0,0"
           id="path60" />
        <path
           style="fill:#dedcd9;fill-opacity:1;fill-rule:nonzero;stroke:none"
           d="m 118.11719,47 c 0,12.148438 -9.85156,22 -22.000002,22 -12.152344,0 -22,-9.851562 -22,-22 0,-12.148438 9.847656,-22 22,-22 12.148442,0 22.000002,9.851562 22.000002,22 z m 0,0"
           id="path62" />
        <path
           style="fill:#3a3545;fill-opacity:1;fill-rule:nonzero;stroke:none"
           d="m 30,36 c -1.109375,0 -2,0.890625 -2,2 v 6 h -6 c -1.109375,0 -2,0.890625 -2,2 v 4 c 0,1.109375 0.890625,2 2,2 h 6 v 6 c 0,1.109375 0.890625,2 2,2 h 4 c 1.109375,0 2,-0.890625 2,-2 v -6 h 6 c 1.109375,0 2,-0.890625 2,-2 v -4 c 0,-1.109375 -0.890625,-2 -2,-2 h -6 v -6 c 0,-1.109375 -0.890625,-2 -2,-2 z m 0,0"
           id="path64" />
        <path
           style="fill:#5c5c63;fill-opacity:1;fill-rule:nonzero;stroke:none"
           d="m 30,34 c -1.109375,0 -2,0.890625 -2,2 v 6 h -6 c -1.109375,0 -2,0.890625 -2,2 v 4 c 0,1.109375 0.890625,2 2,2 h 6 v 6 c 0,1.109375 0.890625,2 2,2 h 4 c 1.109375,0 2,-0.890625 2,-2 v -6 h 6 c 1.109375,0 2,-0.890625 2,-2 v -4 c 0,-1.109375 -0.890625,-2 -2,-2 h -6 v -6 c 0,-1.109375 -0.890625,-2 -2,-2 z m 0,0"
           id="path66" />
        <path
           style="fill:#bf1926;fill-opacity:1;fill-rule:nonzero;stroke:none"
           d="m 110,50 v 2 c 0,3.324219 -2.67578,6 -6,6 -3.32422,0 -6,-2.675781 -6,-6 v -2 z m 0,0"
           id="path68" />
        <path
           style="fill:#eb333a;fill-opacity:1;fill-rule:nonzero;stroke:none"
           d="m 98,50 c 0,3.3125 2.6875,6 6,6 3.3125,0 6,-2.6875 6,-6 0,-3.3125 -2.6875,-6 -6,-6 -3.3125,0 -6,2.6875 -6,6 z m 0,0"
           id="path70" />
        <path
           style="fill:#195eb3;fill-opacity:1;fill-rule:nonzero;stroke:none"
           d="m 94,42 v 2 c 0,3.324219 -2.675781,6 -6,6 -3.324219,0 -6,-2.675781 -6,-6 v -2 z m 0,0"
           id="path72" />
        <path
           style="fill:#3382e3;fill-opacity:1;fill-rule:nonzero;stroke:none"
           d="m 82,42 c 0,3.3125 2.6875,6 6,6 3.3125,0 6,-2.6875 6,-6 0,-3.3125 -2.6875,-6 -6,-6 -3.3125,0 -6,2.6875 -6,6 z m 0,0"
           id="path74" />
        <path
           style="fill:#231e30;fill-opacity:1;fill-rule:nonzero;stroke:none"
           d="m 54.117188,78 c 0,5.523438 -4.476563,10 -10,10 -5.523438,0 -10,-4.476562 -10,-10 0,-5.523438 4.476562,-10 10,-10 5.523437,0 10,4.476562 10,10 z m 0,0"
           id="path76" />
        <path
           style="fill:#231e30;fill-opacity:1;fill-rule:nonzero;stroke:none"
           d="m 94.117188,78 c 0,5.523438 -4.476563,10 -10,10 -5.523438,0 -10,-4.476562 -10,-10 0,-5.523438 4.476562,-10 10,-10 5.523437,0 10,4.476562 10,10 z m 0,0"
           id="path78" />
        <path
           style="fill:#3a3545;fill-opacity:1;fill-rule:nonzero;stroke:none"
           d="m 54.117188,76 c 0,5.523438 -4.476563,10 -10,10 -5.523438,0 -10,-4.476562 -10,-10 0,-5.523438 4.476562,-10 10,-10 5.523437,0 10,4.476562 10,10 z m 0,0"
           id="path80" />
        <path
           style="fill:#3a3545;fill-opacity:1;fill-rule:nonzero;stroke:none"
           d="m 94.117188,76 c 0,5.523438 -4.476563,10 -10,10 -5.523438,0 -10,-4.476562 -10,-10 0,-5.523438 4.476562,-10 10,-10 5.523437,0 10,4.476562 10,10 z m 0,0"
           id="path82" />
        <path
           style="fill:url(#linear0);fill-rule:nonzero;stroke:none"
           d="m 84,68 c -4.417969,0 -8,3.582031 -8,8 0,4.417969 3.582031,8 8,8 4.417969,0 8,-3.582031 8,-8 0,-4.417969 -3.582031,-8 -8,-8 z m 0,0"
           id="path84" />
        <path
           style="fill:url(#linear1);fill-rule:nonzero;stroke:none"
           d="m 44.117188,68 c -4.417969,0 -8,3.582031 -8,8 0,4.417969 3.582031,8 8,8 4.417968,0 8,-3.582031 8,-8 0,-4.417969 -3.582032,-8 -8,-8 z m 0,0"
           id="path86" />
      </g>
      <g
         id="g177"
         transform="matrix(0.18733266,0,0,0.18733266,567.99996,-60.831626)">
        <path
           id="path127"
           d="m 89.179688,41.96875 6.082031,7.5625 22.648441,-4.667969 9.875,47.90625 c 1.48828,7.234379 -2.17188,14.546879 -8.85157,17.695309 -6.67968,3.14844 -14.64843,1.31641 -19.281246,-4.43359 l -35.40625,-44 z m -49.996094,0 -6.085938,7.5625 -22.648437,-4.667969 -9.875,47.90625 c -1.484375,7.234379 2.171875,14.546879 8.851562,17.695309 6.679688,3.14844 14.648438,1.31641 19.285157,-4.43359 l 35.402343,-44 z m 0,0"
           style="fill:#75757a;fill-opacity:1;fill-rule:nonzero;stroke:none" />
        <path
           id="path129"
           d="m 41.117188,28 h 46 v 32 h -46 z m 0,0"
           style="fill:#75757a;fill-opacity:1;fill-rule:nonzero;stroke:none" />
        <path
           id="path131"
           d="m 60.449219,59.28125 -31.984375,39.75 c -3.859375,4.78125 -10.117188,6.92969 -16.101563,5.52734 C 6.382812,103.15625 1.730469,98.453125 0.394531,92.453125 l -0.066406,0.316406 c -1.484375,7.234379 2.175781,14.546879 8.855469,17.695309 6.679687,3.14844 14.648437,1.31641 19.28125,-4.43359 l 35.402344,-44 z m 7.101562,0 -3.421875,2.75 35.40625,44 c 4.632814,5.75 12.601564,7.58203 19.281254,4.43359 6.67968,-3.14843 10.33984,-10.46093 8.85547,-17.695309 l -0.0664,-0.316406 c -1.33594,5.996094 -5.98828,10.703125 -11.96875,12.101565 -5.98438,1.40234 -12.24219,-0.7461 -16.101564,-5.527346 z m 0,0"
           style="fill:#5c5c63;fill-opacity:0.235;fill-rule:nonzero;stroke:none" />
        <path
           id="path133"
           d="m 54.117188,49 c 0,12.148438 -9.851563,22 -22,22 -12.152344,0 -22,-9.851562 -22,-22 0,-12.148438 9.847656,-22 22,-22 12.148437,0 22,9.851562 22,22 z m 0,0"
           style="fill:#bfbdba;fill-opacity:1;fill-rule:nonzero;stroke:none" />
        <path
           id="path135"
           d="m 46.117188,32 h 36 v 52 h -36 z m 0,0"
           style="fill:#bfbdba;fill-opacity:1;fill-rule:nonzero;stroke:none" />
        <path
           id="path137"
           d="m 118.11719,49 c 0,12.148438 -9.85156,22 -22.000002,22 -12.152344,0 -22,-9.851562 -22,-22 0,-12.148438 9.847656,-22 22,-22 12.148442,0 22.000002,9.851562 22.000002,22 z m 0,0"
           style="fill:#bfbdba;fill-opacity:1;fill-rule:nonzero;stroke:none" />
        <path
           id="path139"
           d="m 46.117188,32 h 36 v 48 h -36 z m 0,0"
           style="fill:#dedcd9;fill-opacity:1;fill-rule:nonzero;stroke:none" />
        <path
           id="path141"
           d="m 58,80 c 0,7.667969 -6.214844,13.882812 -13.882812,13.882812 -7.667969,0 -13.886719,-6.214843 -13.886719,-13.882812 0,-7.667969 6.21875,-13.882812 13.886719,-13.882812 C 51.785156,66.117188 58,72.332031 58,80 Z m 0,0"
           style="fill:#bfbdba;fill-opacity:1;fill-rule:nonzero;stroke:none" />
        <path
           id="path143"
           d="m 58,78 c 0,7.667969 -6.214844,13.882812 -13.882812,13.882812 -7.667969,0 -13.886719,-6.214843 -13.886719,-13.882812 0,-7.667969 6.21875,-13.882812 13.886719,-13.882812 C 51.785156,64.117188 58,70.332031 58,78 Z m 0,0"
           style="fill:#dedcd9;fill-opacity:1;fill-rule:nonzero;stroke:none" />
        <path
           id="path145"
           d="m 98,80 c 0,7.667969 -6.214844,13.882812 -13.882812,13.882812 -7.667969,0 -13.886719,-6.214843 -13.886719,-13.882812 0,-7.667969 6.21875,-13.882812 13.886719,-13.882812 C 91.785156,66.117188 98,72.332031 98,80 Z m 0,0"
           style="fill:#bfbdba;fill-opacity:1;fill-rule:nonzero;stroke:none" />
        <path
           id="path147"
           d="m 98,78 c 0,7.667969 -6.214844,13.882812 -13.882812,13.882812 -7.667969,0 -13.886719,-6.214843 -13.886719,-13.882812 0,-7.667969 6.21875,-13.882812 13.886719,-13.882812 C 91.785156,64.117188 98,70.332031 98,78 Z m 0,0"
           style="fill:#dedcd9;fill-opacity:1;fill-rule:nonzero;stroke:none" />
        <path
           id="path149"
           d="m 54.117188,47 c 0,12.148438 -9.851563,22 -22,22 -12.152344,0 -22,-9.851562 -22,-22 0,-12.148438 9.847656,-22 22,-22 12.148437,0 22,9.851562 22,22 z m 0,0"
           style="fill:#dedcd9;fill-opacity:1;fill-rule:nonzero;stroke:none" />
        <path
           id="path151"
           d="m 118.11719,47 c 0,12.148438 -9.85156,22 -22.000002,22 -12.152344,0 -22,-9.851562 -22,-22 0,-12.148438 9.847656,-22 22,-22 12.148442,0 22.000002,9.851562 22.000002,22 z m 0,0"
           style="fill:#dedcd9;fill-opacity:1;fill-rule:nonzero;stroke:none" />
        <path
           id="path153"
           d="m 30,36 c -1.109375,0 -2,0.890625 -2,2 v 6 h -6 c -1.109375,0 -2,0.890625 -2,2 v 4 c 0,1.109375 0.890625,2 2,2 h 6 v 6 c 0,1.109375 0.890625,2 2,2 h 4 c 1.109375,0 2,-0.890625 2,-2 v -6 h 6 c 1.109375,0 2,-0.890625 2,-2 v -4 c 0,-1.109375 -0.890625,-2 -2,-2 h -6 v -6 c 0,-1.109375 -0.890625,-2 -2,-2 z m 0,0"
           style="fill:#3a3545;fill-opacity:1;fill-rule:nonzero;stroke:none" />
        <path
           id="path155"
           d="m 30,34 c -1.109375,0 -2,0.890625 -2,2 v 6 h -6 c -1.109375,0 -2,0.890625 -2,2 v 4 c 0,1.109375 0.890625,2 2,2 h 6 v 6 c 0,1.109375 0.890625,2 2,2 h 4 c 1.109375,0 2,-0.890625 2,-2 v -6 h 6 c 1.109375,0 2,-0.890625 2,-2 v -4 c 0,-1.109375 -0.890625,-2 -2,-2 h -6 v -6 c 0,-1.109375 -0.890625,-2 -2,-2 z m 0,0"
           style="fill:#5c5c63;fill-opacity:1;fill-rule:nonzero;stroke:none" />
        <path
           id="path157"
           d="m 110,50 v 2 c 0,3.324219 -2.67578,6 -6,6 -3.32422,0 -6,-2.675781 -6,-6 v -2 z m 0,0"
           style="fill:#bf1926;fill-opacity:1;fill-rule:nonzero;stroke:none" />
        <path
           id="path159"
           d="m 98,50 c 0,3.3125 2.6875,6 6,6 3.3125,0 6,-2.6875 6,-6 0,-3.3125 -2.6875,-6 -6,-6 -3.3125,0 -6,2.6875 -6,6 z m 0,0"
           style="fill:#eb333a;fill-opacity:1;fill-rule:nonzero;stroke:none" />
        <path
           id="path161"
           d="m 94,42 v 2 c 0,3.324219 -2.675781,6 -6,6 -3.324219,0 -6,-2.675781 -6,-6 v -2 z m 0,0"
           style="fill:#195eb3;fill-opacity:1;fill-rule:nonzero;stroke:none" />
        <path
           id="path163"
           d="m 82,42 c 0,3.3125 2.6875,6 6,6 3.3125,0 6,-2.6875 6,-6 0,-3.3125 -2.6875,-6 -6,-6 -3.3125,0 -6,2.6875 -6,6 z m 0,0"
           style="fill:#3382e3;fill-opacity:1;fill-rule:nonzero;stroke:none" />
        <path
           id="path165"
           d="m 54.117188,78 c 0,5.523438 -4.476563,10 -10,10 -5.523438,0 -10,-4.476562 -10,-10 0,-5.523438 4.476562,-10 10,-10 5.523437,0 10,4.476562 10,10 z m 0,0"
           style="fill:#231e30;fill-opacity:1;fill-rule:nonzero;stroke:none" />
        <path
           id="path167"
           d="m 94.117188,78 c 0,5.523438 -4.476563,10 -10,10 -5.523438,0 -10,-4.476562 -10,-10 0,-5.523438 4.476562,-10 10,-10 5.523437,0 10,4.476562 10,10 z m 0,0"
           style="fill:#231e30;fill-opacity:1;fill-rule:nonzero;stroke:none" />
        <path
           id="path169"
           d="m 54.117188,76 c 0,5.523438 -4.476563,10 -10,10 -5.523438,0 -10,-4.476562 -10,-10 0,-5.523438 4.476562,-10 10,-10 5.523437,0 10,4.476562 10,10 z m 0,0"
           style="fill:#3a3545;fill-opacity:1;fill-rule:nonzero;stroke:none" />
        <path
           id="path171"
           d="m 94.117188,76 c 0,5.523438 -4.476563,10 -10,10 -5.523438,0 -10,-4.476562 -10,-10 0,-5.523438 4.476562,-10 10,-10 5.523437,0 10,4.476562 10,10 z m 0,0"
           style="fill:#3a3545;fill-opacity:1;fill-rule:nonzero;stroke:none" />
        <path
           id="path173"
           d="m 84,68 c -4.417969,0 -8,3.582031 -8,8 0,4.417969 3.582031,8 8,8 4.417969,0 8,-3.582031 8,-8 0,-4.417969 -3.582031,-8 -8,-8 z m 0,0"
           style="fill:url(#linearGradient179);fill-rule:nonzero;stroke:none" />
        <path
           id="path175"
           d="m 44.117188,68 c -4.417969,0 -8,3.582031 -8,8 0,4.417969 3.582031,8 8,8 4.417968,0 8,-3.582031 8,-8 0,-4.417969 -3.582032,-8 -8,-8 z m 0,0"
           style="fill:url(#linearGradient181);fill-rule:nonzero;stroke:none" />
      </g>
      <g
         transform="matrix(0.12488844,0,0,0.12488844,567.99997,-12.554418)"
         id="g233">
        <path
           style="fill:#75757a;fill-opacity:1;fill-rule:nonzero;stroke:none"
           d="m 89.179688,41.96875 6.082031,7.5625 22.648441,-4.667969 9.875,47.90625 c 1.48828,7.234379 -2.17188,14.546879 -8.85157,17.695309 -6.67968,3.14844 -14.64843,1.31641 -19.281246,-4.43359 l -35.40625,-44 z m -49.996094,0 -6.085938,7.5625 -22.648437,-4.667969 -9.875,47.90625 c -1.484375,7.234379 2.171875,14.546879 8.851562,17.695309 6.679688,3.14844 14.648438,1.31641 19.285157,-4.43359 l 35.402343,-44 z m 0,0"
           id="path183" />
        <path
           style="fill:#75757a;fill-opacity:1;fill-rule:nonzero;stroke:none"
           d="m 41.117188,28 h 46 v 32 h -46 z m 0,0"
           id="path185" />
        <path
           style="fill:#5c5c63;fill-opacity:0.235;fill-rule:nonzero;stroke:none"
           d="m 60.449219,59.28125 -31.984375,39.75 c -3.859375,4.78125 -10.117188,6.92969 -16.101563,5.52734 C 6.382812,103.15625 1.730469,98.453125 0.394531,92.453125 l -0.066406,0.316406 c -1.484375,7.234379 2.175781,14.546879 8.855469,17.695309 6.679687,3.14844 14.648437,1.31641 19.28125,-4.43359 l 35.402344,-44 z m 7.101562,0 -3.421875,2.75 35.40625,44 c 4.632814,5.75 12.601564,7.58203 19.281254,4.43359 6.67968,-3.14843 10.33984,-10.46093 8.85547,-17.695309 l -0.0664,-0.316406 c -1.33594,5.996094 -5.98828,10.703125 -11.96875,12.101565 -5.98438,1.40234 -12.24219,-0.7461 -16.101564,-5.527346 z m 0,0"
           id="path187" />
        <path
           style="fill:#bfbdba;fill-opacity:1;fill-rule:nonzero;stroke:none"
           d="m 54.117188,49 c 0,12.148438 -9.851563,22 -22,22 -12.152344,0 -22,-9.851562 -22,-22 0,-12.148438 9.847656,-22 22,-22 12.148437,0 22,9.851562 22,22 z m 0,0"
           id="path189" />
        <path
           style="fill:#bfbdba;fill-opacity:1;fill-rule:nonzero;stroke:none"
           d="m 46.117188,32 h 36 v 52 h -36 z m 0,0"
           id="path191" />
        <path
           style="fill:#bfbdba;fill-opacity:1;fill-rule:nonzero;stroke:none"
           d="m 118.11719,49 c 0,12.148438 -9.85156,22 -22.000002,22 -12.152344,0 -22,-9.851562 -22,-22 0,-12.148438 9.847656,-22 22,-22 12.148442,0 22.000002,9.851562 22.000002,22 z m 0,0"
           id="path193" />
        <path
           style="fill:#dedcd9;fill-opacity:1;fill-rule:nonzero;stroke:none"
           d="m 46.117188,32 h 36 v 48 h -36 z m 0,0"
           id="path195" />
        <path
           style="fill:#bfbdba;fill-opacity:1;fill-rule:nonzero;stroke:none"
           d="m 58,80 c 0,7.667969 -6.214844,13.882812 -13.882812,13.882812 -7.667969,0 -13.886719,-6.214843 -13.886719,-13.882812 0,-7.667969 6.21875,-13.882812 13.886719,-13.882812 C 51.785156,66.117188 58,72.332031 58,80 Z m 0,0"
           id="path197" />
        <path
           style="fill:#dedcd9;fill-opacity:1;fill-rule:nonzero;stroke:none"
           d="m 58,78 c 0,7.667969 -6.214844,13.882812 -13.882812,13.882812 -7.667969,0 -13.886719,-6.214843 -13.886719,-13.882812 0,-7.667969 6.21875,-13.882812 13.886719,-13.882812 C 51.785156,64.117188 58,70.332031 58,78 Z m 0,0"
           id="path199" />
        <path
           style="fill:#bfbdba;fill-opacity:1;fill-rule:nonzero;stroke:none"
           d="m 98,80 c 0,7.667969 -6.214844,13.882812 -13.882812,13.882812 -7.667969,0 -13.886719,-6.214843 -13.886719,-13.882812 0,-7.667969 6.21875,-13.882812 13.886719,-13.882812 C 91.785156,66.117188 98,72.332031 98,80 Z m 0,0"
           id="path201" />
        <path
           style="fill:#dedcd9;fill-opacity:1;fill-rule:nonzero;stroke:none"
           d="m 98,78 c 0,7.667969 -6.214844,13.882812 -13.882812,13.882812 -7.667969,0 -13.886719,-6.214843 -13.886719,-13.882812 0,-7.667969 6.21875,-13.882812 13.886719,-13.882812 C 91.785156,64.117188 98,70.332031 98,78 Z m 0,0"
           id="path203" />
        <path
           style="fill:#dedcd9;fill-opacity:1;fill-rule:nonzero;stroke:none"
           d="m 54.117188,47 c 0,12.148438 -9.851563,22 -22,22 -12.152344,0 -22,-9.851562 -22,-22 0,-12.148438 9.847656,-22 22,-22 12.148437,0 22,9.851562 22,22 z m 0,0"
           id="path205" />
        <path
           style="fill:#dedcd9;fill-opacity:1;fill-rule:nonzero;stroke:none"
           d="m 118.11719,47 c 0,12.148438 -9.85156,22 -22.000002,22 -12.152344,0 -22,-9.851562 -22,-22 0,-12.148438 9.847656,-22 22,-22 12.148442,0 22.000002,9.851562 22.000002,22 z m 0,0"
           id="path207" />
        <path
           style="fill:#3a3545;fill-opacity:1;fill-rule:nonzero;stroke:none"
           d="m 30,36 c -1.109375,0 -2,0.890625 -2,2 v 6 h -6 c -1.109375,0 -2,0.890625 -2,2 v 4 c 0,1.109375 0.890625,2 2,2 h 6 v 6 c 0,1.109375 0.890625,2 2,2 h 4 c 1.109375,0 2,-0.890625 2,-2 v -6 h 6 c 1.109375,0 2,-0.890625 2,-2 v -4 c 0,-1.109375 -0.890625,-2 -2,-2 h -6 v -6 c 0,-1.109375 -0.890625,-2 -2,-2 z m 0,0"
           id="path209" />
        <path
           style="fill:#5c5c63;fill-opacity:1;fill-rule:nonzero;stroke:none"
           d="m 30,34 c -1.109375,0 -2,0.890625 -2,2 v 6 h -6 c -1.109375,0 -2,0.890625 -2,2 v 4 c 0,1.109375 0.890625,2 2,2 h 6 v 6 c 0,1.109375 0.890625,2 2,2 h 4 c 1.109375,0 2,-0.890625 2,-2 v -6 h 6 c 1.109375,0 2,-0.890625 2,-2 v -4 c 0,-1.109375 -0.890625,-2 -2,-2 h -6 v -6 c 0,-1.109375 -0.890625,-2 -2,-2 z m 0,0"
           id="path211" />
        <path
           style="fill:#bf1926;fill-opacity:1;fill-rule:nonzero;stroke:none"
           d="m 110,50 v 2 c 0,3.324219 -2.67578,6 -6,6 -3.32422,0 -6,-2.675781 -6,-6 v -2 z m 0,0"
           id="path213" />
        <path
           style="fill:#eb333a;fill-opacity:1;fill-rule:nonzero;stroke:none"
           d="m 98,50 c 0,3.3125 2.6875,6 6,6 3.3125,0 6,-2.6875 6,-6 0,-3.3125 -2.6875,-6 -6,-6 -3.3125,0 -6,2.6875 -6,6 z m 0,0"
           id="path215" />
        <path
           style="fill:#195eb3;fill-opacity:1;fill-rule:nonzero;stroke:none"
           d="m 94,42 v 2 c 0,3.324219 -2.675781,6 -6,6 -3.324219,0 -6,-2.675781 -6,-6 v -2 z m 0,0"
           id="path217" />
        <path
           style="fill:#3382e3;fill-opacity:1;fill-rule:nonzero;stroke:none"
           d="m 82,42 c 0,3.3125 2.6875,6 6,6 3.3125,0 6,-2.6875 6,-6 0,-3.3125 -2.6875,-6 -6,-6 -3.3125,0 -6,2.6875 -6,6 z m 0,0"
           id="path219" />
        <path
           style="fill:#231e30;fill-opacity:1;fill-rule:nonzero;stroke:none"
           d="m 54.117188,78 c 0,5.523438 -4.476563,10 -10,10 -5.523438,0 -10,-4.476562 -10,-10 0,-5.523438 4.476562,-10 10,-10 5.523437,0 10,4.476562 10,10 z m 0,0"
           id="path221" />
        <path
           style="fill:#231e30;fill-opacity:1;fill-rule:nonzero;stroke:none"
           d="m 94.117188,78 c 0,5.523438 -4.476563,10 -10,10 -5.523438,0 -10,-4.476562 -10,-10 0,-5.523438 4.476562,-10 10,-10 5.523437,0 10,4.476562 10,10 z m 0,0"
           id="path223" />
        <path
           style="fill:#3a3545;fill-opacity:1;fill-rule:nonzero;stroke:none"
           d="m 54.117188,76 c 0,5.523438 -4.476563,10 -10,10 -5.523438,0 -10,-4.476562 -10,-10 0,-5.523438 4.476562,-10 10,-10 5.523437,0 10,4.476562 10,10 z m 0,0"
           id="path225" />
        <path
           style="fill:#3a3545;fill-opacity:1;fill-rule:nonzero;stroke:none"
           d="m 94.117188,76 c 0,5.523438 -4.476563,10 -10,10 -5.523438,0 -10,-4.476562 -10,-10 0,-5.523438 4.476562,-10 10,-10 5.523437,0 10,4.476562 10,10 z m 0,0"
           id="path227" />
        <path
           style="fill:url(#linearGradient235);fill-rule:nonzero;stroke:none"
           d="m 84,68 c -4.417969,0 -8,3.582031 -8,8 0,4.417969 3.582031,8 8,8 4.417969,0 8,-3.582031 8,-8 0,-4.417969 -3.582031,-8 -8,-8 z m 0,0"
           id="path229" />
        <path
           style="fill:url(#linearGradient237);fill-rule:nonzero;stroke:none"
           d="m 44.117188,68 c -4.417969,0 -8,3.582031 -8,8 0,4.417969 3.582031,8 8,8 4.417968,0 8,-3.582031 8,-8 0,-4.417969 -3.582032,-8 -8,-8 z m 0,0"
           id="path231" />
      </g>
      <g
         id="g289"
         transform="matrix(0.24977688,0,0,0.24977688,567.99994,-117.10884)">
        <path
           id="path239"
           d="m 89.179688,41.96875 6.082031,7.5625 22.648441,-4.667969 9.875,47.90625 c 1.48828,7.234379 -2.17188,14.546879 -8.85157,17.695309 -6.67968,3.14844 -14.64843,1.31641 -19.281246,-4.43359 l -35.40625,-44 z m -49.996094,0 -6.085938,7.5625 -22.648437,-4.667969 -9.875,47.90625 c -1.484375,7.234379 2.171875,14.546879 8.851562,17.695309 6.679688,3.14844 14.648438,1.31641 19.285157,-4.43359 l 35.402343,-44 z m 0,0"
           style="fill:#75757a;fill-opacity:1;fill-rule:nonzero;stroke:none" />
        <path
           id="path241"
           d="m 41.117188,28 h 46 v 32 h -46 z m 0,0"
           style="fill:#75757a;fill-opacity:1;fill-rule:nonzero;stroke:none" />
        <path
           id="path243"
           d="m 60.449219,59.28125 -31.984375,39.75 c -3.859375,4.78125 -10.117188,6.92969 -16.101563,5.52734 C 6.382812,103.15625 1.730469,98.453125 0.394531,92.453125 l -0.066406,0.316406 c -1.484375,7.234379 2.175781,14.546879 8.855469,17.695309 6.679687,3.14844 14.648437,1.31641 19.28125,-4.43359 l 35.402344,-44 z m 7.101562,0 -3.421875,2.75 35.40625,44 c 4.632814,5.75 12.601564,7.58203 19.281254,4.43359 6.67968,-3.14843 10.33984,-10.46093 8.85547,-17.695309 l -0.0664,-0.316406 c -1.33594,5.996094 -5.98828,10.703125 -11.96875,12.101565 -5.98438,1.40234 -12.24219,-0.7461 -16.101564,-5.527346 z m 0,0"
           style="fill:#5c5c63;fill-opacity:0.235;fill-rule:nonzero;stroke:none" />
        <path
           id="path245"
           d="m 54.117188,49 c 0,12.148438 -9.851563,22 -22,22 -12.152344,0 -22,-9.851562 -22,-22 0,-12.148438 9.847656,-22 22,-22 12.148437,0 22,9.851562 22,22 z m 0,0"
           style="fill:#bfbdba;fill-opacity:1;fill-rule:nonzero;stroke:none" />
        <path
           id="path247"
           d="m 46.117188,32 h 36 v 52 h -36 z m 0,0"
           style="fill:#bfbdba;fill-opacity:1;fill-rule:nonzero;stroke:none" />
        <path
           id="path249"
           d="m 118.11719,49 c 0,12.148438 -9.85156,22 -22.000002,22 -12.152344,0 -22,-9.851562 -22,-22 0,-12.148438 9.847656,-22 22,-22 12.148442,0 22.000002,9.851562 22.000002,22 z m 0,0"
           style="fill:#bfbdba;fill-opacity:1;fill-rule:nonzero;stroke:none" />
        <path
           id="path251"
           d="m 46.117188,32 h 36 v 48 h -36 z m 0,0"
           style="fill:#dedcd9;fill-opacity:1;fill-rule:nonzero;stroke:none" />
        <path
           id="path253"
           d="m 58,80 c 0,7.667969 -6.214844,13.882812 -13.882812,13.882812 -7.667969,0 -13.886719,-6.214843 -13.886719,-13.882812 0,-7.667969 6.21875,-13.882812 13.886719,-13.882812 C 51.785156,66.117188 58,72.332031 58,80 Z m 0,0"
           style="fill:#bfbdba;fill-opacity:1;fill-rule:nonzero;stroke:none" />
        <path
           id="path255"
           d="m 58,78 c 0,7.667969 -6.214844,13.882812 -13.882812,13.882812 -7.667969,0 -13.886719,-6.214843 -13.886719,-13.882812 0,-7.667969 6.21875,-13.882812 13.886719,-13.882812 C 51.785156,64.117188 58,70.332031 58,78 Z m 0,0"
           style="fill:#dedcd9;fill-opacity:1;fill-rule:nonzero;stroke:none" />
        <path
           id="path257"
           d="m 98,80 c 0,7.667969 -6.214844,13.882812 -13.882812,13.882812 -7.667969,0 -13.886719,-6.214843 -13.886719,-13.882812 0,-7.667969 6.21875,-13.882812 13.886719,-13.882812 C 91.785156,66.117188 98,72.332031 98,80 Z m 0,0"
           style="fill:#bfbdba;fill-opacity:1;fill-rule:nonzero;stroke:none" />
        <path
           id="path259"
           d="m 98,78 c 0,7.667969 -6.214844,13.882812 -13.882812,13.882812 -7.667969,0 -13.886719,-6.214843 -13.886719,-13.882812 0,-7.667969 6.21875,-13.882812 13.886719,-13.882812 C 91.785156,64.117188 98,70.332031 98,78 Z m 0,0"
           style="fill:#dedcd9;fill-opacity:1;fill-rule:nonzero;stroke:none" />
        <path
           id="path261"
           d="m 54.117188,47 c 0,12.148438 -9.851563,22 -22,22 -12.152344,0 -22,-9.851562 -22,-22 0,-12.148438 9.847656,-22 22,-22 12.148437,0 22,9.851562 22,22 z m 0,0"
           style="fill:#dedcd9;fill-opacity:1;fill-rule:nonzero;stroke:none" />
        <path
           id="path263"
           d="m 118.11719,47 c 0,12.148438 -9.85156,22 -22.000002,22 -12.152344,0 -22,-9.851562 -22,-22 0,-12.148438 9.847656,-22 22,-22 12.148442,0 22.000002,9.851562 22.000002,22 z m 0,0"
           style="fill:#dedcd9;fill-opacity:1;fill-rule:nonzero;stroke:none" />
        <path
           id="path265"
           d="m 30,36 c -1.109375,0 -2,0.890625 -2,2 v 6 h -6 c -1.109375,0 -2,0.890625 -2,2 v 4 c 0,1.109375 0.890625,2 2,2 h 6 v 6 c 0,1.109375 0.890625,2 2,2 h 4 c 1.109375,0 2,-0.890625 2,-2 v -6 h 6 c 1.109375,0 2,-0.890625 2,-2 v -4 c 0,-1.109375 -0.890625,-2 -2,-2 h -6 v -6 c 0,-1.109375 -0.890625,-2 -2,-2 z m 0,0"
           style="fill:#3a3545;fill-opacity:1;fill-rule:nonzero;stroke:none" />
        <path
           id="path267"
           d="m 30,34 c -1.109375,0 -2,0.890625 -2,2 v 6 h -6 c -1.109375,0 -2,0.890625 -2,2 v 4 c 0,1.109375 0.890625,2 2,2 h 6 v 6 c 0,1.109375 0.890625,2 2,2 h 4 c 1.109375,0 2,-0.890625 2,-2 v -6 h 6 c 1.109375,0 2,-0.890625 2,-2 v -4 c 0,-1.109375 -0.890625,-2 -2,-2 h -6 v -6 c 0,-1.109375 -0.890625,-2 -2,-2 z m 0,0"
           style="fill:#5c5c63;fill-opacity:1;fill-rule:nonzero;stroke:none" />
        <path
           id="path269"
           d="m 110,50 v 2 c 0,3.324219 -2.67578,6 -6,6 -3.32422,0 -6,-2.675781 -6,-6 v -2 z m 0,0"
           style="fill:#bf1926;fill-opacity:1;fill-rule:nonzero;stroke:none" />
        <path
           id="path271"
           d="m 98,50 c 0,3.3125 2.6875,6 6,6 3.3125,0 6,-2.6875 6,-6 0,-3.3125 -2.6875,-6 -6,-6 -3.3125,0 -6,2.6875 -6,6 z m 0,0"
           style="fill:#eb333a;fill-opacity:1;fill-rule:nonzero;stroke:none" />
        <path
           id="path273"
           d="m 94,42 v 2 c 0,3.324219 -2.675781,6 -6,6 -3.324219,0 -6,-2.675781 -6,-6 v -2 z m 0,0"
           style="fill:#195eb3;fill-opacity:1;fill-rule:nonzero;stroke:none" />
        <path
           id="path275"
           d="m 82,42 c 0,3.3125 2.6875,6 6,6 3.3125,0 6,-2.6875 6,-6 0,-3.3125 -2.6875,-6 -6,-6 -3.3125,0 -6,2.6875 -6,6 z m 0,0"
           style="fill:#3382e3;fill-opacity:1;fill-rule:nonzero;stroke:none" />
        <path
           id="path277"
           d="m 54.117188,78 c 0,5.523438 -4.476563,10 -10,10 -5.523438,0 -10,-4.476562 -10,-10 0,-5.523438 4.476562,-10 10,-10 5.523437,0 10,4.476562 10,10 z m 0,0"
           style="fill:#231e30;fill-opacity:1;fill-rule:nonzero;stroke:none" />
        <path
           id="path279"
           d="m 94.117188,78 c 0,5.523438 -4.476563,10 -10,10 -5.523438,0 -10,-4.476562 -10,-10 0,-5.523438 4.476562,-10 10,-10 5.523437,0 10,4.476562 10,10 z m 0,0"
           style="fill:#231e30;fill-opacity:1;fill-rule:nonzero;stroke:none" />
        <path
           id="path281"
           d="m 54.117188,76 c 0,5.523438 -4.476563,10 -10,10 -5.523438,0 -10,-4.476562 -10,-10 0,-5.523438 4.476562,-10 10,-10 5.523437,0 10,4.476562 10,10 z m 0,0"
           style="fill:#3a3545;fill-opacity:1;fill-rule:nonzero;stroke:none" />
        <path
           id="path283"
           d="m 94.117188,76 c 0,5.523438 -4.476563,10 -10,10 -5.523438,0 -10,-4.476562 -10,-10 0,-5.523438 4.476562,-10 10,-10 5.523437,0 10,4.476562 10,10 z m 0,0"
           style="fill:#3a3545;fill-opacity:1;fill-rule:nonzero;stroke:none" />
        <path
           id="path285"
           d="m 84,68 c -4.417969,0 -8,3.582031 -8,8 0,4.417969 3.582031,8 8,8 4.417969,0 8,-3.582031 8,-8 0,-4.417969 -3.582031,-8 -8,-8 z m 0,0"
           style="fill:url(#linearGradient291);fill-rule:nonzero;stroke:none" />
        <path
           id="path287"
           d="m 44.117188,68 c -4.417969,0 -8,3.582031 -8,8 0,4.417969 3.582031,8 8,8 4.417968,0 8,-3.582031 8,-8 0,-4.417969 -3.582032,-8 -8,-8 z m 0,0"
           style="fill:url(#linearGradient293);fill-rule:nonzero;stroke:none" />
      </g>
      <g
         transform="matrix(0.37466531,0,0,0.37466531,567.99992,-197.66325)"
         id="g345">
        <path
           style="fill:#75757a;fill-opacity:1;fill-rule:nonzero;stroke:none"
           d="m 89.179688,41.96875 6.082031,7.5625 22.648441,-4.667969 9.875,47.90625 c 1.48828,7.234379 -2.17188,14.546879 -8.85157,17.695309 -6.67968,3.14844 -14.64843,1.31641 -19.281246,-4.43359 l -35.40625,-44 z m -49.996094,0 -6.085938,7.5625 -22.648437,-4.667969 -9.875,47.90625 c -1.484375,7.234379 2.171875,14.546879 8.851562,17.695309 6.679688,3.14844 14.648438,1.31641 19.285157,-4.43359 l 35.402343,-44 z m 0,0"
           id="path295" />
        <path
           style="fill:#75757a;fill-opacity:1;fill-rule:nonzero;stroke:none"
           d="m 41.117188,28 h 46 v 32 h -46 z m 0,0"
           id="path297" />
        <path
           style="fill:#5c5c63;fill-opacity:0.235;fill-rule:nonzero;stroke:none"
           d="m 60.449219,59.28125 -31.984375,39.75 c -3.859375,4.78125 -10.117188,6.92969 -16.101563,5.52734 C 6.382812,103.15625 1.730469,98.453125 0.394531,92.453125 l -0.066406,0.316406 c -1.484375,7.234379 2.175781,14.546879 8.855469,17.695309 6.679687,3.14844 14.648437,1.31641 19.28125,-4.43359 l 35.402344,-44 z m 7.101562,0 -3.421875,2.75 35.40625,44 c 4.632814,5.75 12.601564,7.58203 19.281254,4.43359 6.67968,-3.14843 10.33984,-10.46093 8.85547,-17.695309 l -0.0664,-0.316406 c -1.33594,5.996094 -5.98828,10.703125 -11.96875,12.101565 -5.98438,1.40234 -12.24219,-0.7461 -16.101564,-5.527346 z m 0,0"
           id="path299" />
        <path
           style="fill:#bfbdba;fill-opacity:1;fill-rule:nonzero;stroke:none"
           d="m 54.117188,49 c 0,12.148438 -9.851563,22 -22,22 -12.152344,0 -22,-9.851562 -22,-22 0,-12.148438 9.847656,-22 22,-22 12.148437,0 22,9.851562 22,22 z m 0,0"
           id="path301" />
        <path
           style="fill:#bfbdba;fill-opacity:1;fill-rule:nonzero;stroke:none"
           d="m 46.117188,32 h 36 v 52 h -36 z m 0,0"
           id="path303" />
        <path
           style="fill:#bfbdba;fill-opacity:1;fill-rule:nonzero;stroke:none"
           d="m 118.11719,49 c 0,12.148438 -9.85156,22 -22.000002,22 -12.152344,0 -22,-9.851562 -22,-22 0,-12.148438 9.847656,-22 22,-22 12.148442,0 22.000002,9.851562 22.000002,22 z m 0,0"
           id="path305" />
        <path
           style="fill:#dedcd9;fill-opacity:1;fill-rule:nonzero;stroke:none"
           d="m 46.117188,32 h 36 v 48 h -36 z m 0,0"
           id="path307" />
        <path
           style="fill:#bfbdba;fill-opacity:1;fill-rule:nonzero;stroke:none"
           d="m 58,80 c 0,7.667969 -6.214844,13.882812 -13.882812,13.882812 -7.667969,0 -13.886719,-6.214843 -13.886719,-13.882812 0,-7.667969 6.21875,-13.882812 13.886719,-13.882812 C 51.785156,66.117188 58,72.332031 58,80 Z m 0,0"
           id="path309" />
        <path
           style="fill:#dedcd9;fill-opacity:1;fill-rule:nonzero;stroke:none"
           d="m 58,78 c 0,7.667969 -6.214844,13.882812 -13.882812,13.882812 -7.667969,0 -13.886719,-6.214843 -13.886719,-13.882812 0,-7.667969 6.21875,-13.882812 13.886719,-13.882812 C 51.785156,64.117188 58,70.332031 58,78 Z m 0,0"
           id="path311" />
        <path
           style="fill:#bfbdba;fill-opacity:1;fill-rule:nonzero;stroke:none"
           d="m 98,80 c 0,7.667969 -6.214844,13.882812 -13.882812,13.882812 -7.667969,0 -13.886719,-6.214843 -13.886719,-13.882812 0,-7.667969 6.21875,-13.882812 13.886719,-13.882812 C 91.785156,66.117188 98,72.332031 98,80 Z m 0,0"
           id="path313" />
        <path
           style="fill:#dedcd9;fill-opacity:1;fill-rule:nonzero;stroke:none"
           d="m 98,78 c 0,7.667969 -6.214844,13.882812 -13.882812,13.882812 -7.667969,0 -13.886719,-6.214843 -13.886719,-13.882812 0,-7.667969 6.21875,-13.882812 13.886719,-13.882812 C 91.785156,64.117188 98,70.332031 98,78 Z m 0,0"
           id="path315" />
        <path
           style="fill:#dedcd9;fill-opacity:1;fill-rule:nonzero;stroke:none"
           d="m 54.117188,47 c 0,12.148438 -9.851563,22 -22,22 -12.152344,0 -22,-9.851562 -22,-22 0,-12.148438 9.847656,-22 22,-22 12.148437,0 22,9.851562 22,22 z m 0,0"
           id="path317" />
        <path
           style="fill:#dedcd9;fill-opacity:1;fill-rule:nonzero;stroke:none"
           d="m 118.11719,47 c 0,12.148438 -9.85156,22 -22.000002,22 -12.152344,0 -22,-9.851562 -22,-22 0,-12.148438 9.847656,-22 22,-22 12.148442,0 22.000002,9.851562 22.000002,22 z m 0,0"
           id="path319" />
        <path
           style="fill:#3a3545;fill-opacity:1;fill-rule:nonzero;stroke:none"
           d="m 30,36 c -1.109375,0 -2,0.890625 -2,2 v 6 h -6 c -1.109375,0 -2,0.890625 -2,2 v 4 c 0,1.109375 0.890625,2 2,2 h 6 v 6 c 0,1.109375 0.890625,2 2,2 h 4 c 1.109375,0 2,-0.890625 2,-2 v -6 h 6 c 1.109375,0 2,-0.890625 2,-2 v -4 c 0,-1.109375 -0.890625,-2 -2,-2 h -6 v -6 c 0,-1.109375 -0.890625,-2 -2,-2 z m 0,0"
           id="path321" />
        <path
           style="fill:#5c5c63;fill-opacity:1;fill-rule:nonzero;stroke:none"
           d="m 30,34 c -1.109375,0 -2,0.890625 -2,2 v 6 h -6 c -1.109375,0 -2,0.890625 -2,2 v 4 c 0,1.109375 0.890625,2 2,2 h 6 v 6 c 0,1.109375 0.890625,2 2,2 h 4 c 1.109375,0 2,-0.890625 2,-2 v -6 h 6 c 1.109375,0 2,-0.890625 2,-2 v -4 c 0,-1.109375 -0.890625,-2 -2,-2 h -6 v -6 c 0,-1.109375 -0.890625,-2 -2,-2 z m 0,0"
           id="path323" />
        <path
           style="fill:#bf1926;fill-opacity:1;fill-rule:nonzero;stroke:none"
           d="m 110,50 v 2 c 0,3.324219 -2.67578,6 -6,6 -3.32422,0 -6,-2.675781 -6,-6 v -2 z m 0,0"
           id="path325" />
        <path
           style="fill:#eb333a;fill-opacity:1;fill-rule:nonzero;stroke:none"
           d="m 98,50 c 0,3.3125 2.6875,6 6,6 3.3125,0 6,-2.6875 6,-6 0,-3.3125 -2.6875,-6 -6,-6 -3.3125,0 -6,2.6875 -6,6 z m 0,0"
           id="path327" />
        <path
           style="fill:#195eb3;fill-opacity:1;fill-rule:nonzero;stroke:none"
           d="m 94,42 v 2 c 0,3.324219 -2.675781,6 -6,6 -3.324219,0 -6,-2.675781 -6,-6 v -2 z m 0,0"
           id="path329" />
        <path
           style="fill:#3382e3;fill-opacity:1;fill-rule:nonzero;stroke:none"
           d="m 82,42 c 0,3.3125 2.6875,6 6,6 3.3125,0 6,-2.6875 6,-6 0,-3.3125 -2.6875,-6 -6,-6 -3.3125,0 -6,2.6875 -6,6 z m 0,0"
           id="path331" />
        <path
           style="fill:#231e30;fill-opacity:1;fill-rule:nonzero;stroke:none"
           d="m 54.117188,78 c 0,5.523438 -4.476563,10 -10,10 -5.523438,0 -10,-4.476562 -10,-10 0,-5.523438 4.476562,-10 10,-10 5.523437,0 10,4.476562 10,10 z m 0,0"
           id="path333" />
        <path
           style="fill:#231e30;fill-opacity:1;fill-rule:nonzero;stroke:none"
           d="m 94.117188,78 c 0,5.523438 -4.476563,10 -10,10 -5.523438,0 -10,-4.476562 -10,-10 0,-5.523438 4.476562,-10 10,-10 5.523437,0 10,4.476562 10,10 z m 0,0"
           id="path335" />
        <path
           style="fill:#3a3545;fill-opacity:1;fill-rule:nonzero;stroke:none"
           d="m 54.117188,76 c 0,5.523438 -4.476563,10 -10,10 -5.523438,0 -10,-4.476562 -10,-10 0,-5.523438 4.476562,-10 10,-10 5.523437,0 10,4.476562 10,10 z m 0,0"
           id="path337" />
        <path
           style="fill:#3a3545;fill-opacity:1;fill-rule:nonzero;stroke:none"
           d="m 94.117188,76 c 0,5.523438 -4.476563,10 -10,10 -5.523438,0 -10,-4.476562 -10,-10 0,-5.523438 4.476562,-10 10,-10 5.523437,0 10,4.476562 10,10 z m 0,0"
           id="path339" />
        <path
           style="fill:url(#linearGradient347);fill-rule:nonzero;stroke:none"
           d="m 84,68 c -4.417969,0 -8,3.582031 -8,8 0,4.417969 3.582031,8 8,8 4.417969,0 8,-3.582031 8,-8 0,-4.417969 -3.582031,-8 -8,-8 z m 0,0"
           id="path341" />
        <path
           style="fill:url(#linearGradient349);fill-rule:nonzero;stroke:none"
           d="m 44.117188,68 c -4.417969,0 -8,3.582031 -8,8 0,4.417969 3.582031,8 8,8 4.417968,0 8,-3.582031 8,-8 0,-4.417969 -3.582032,-8 -8,-8 z m 0,0"
           id="path343" />
      </g>
    </g>
  </g>
</svg>
