<?xml version="1.0" encoding="UTF-8" standalone="no"?>
<!-- Created with Inkscape (http://www.inkscape.org/) -->

<svg
   xmlns:svg="http://www.w3.org/2000/svg"
   xmlns="http://www.w3.org/2000/svg"
   version="1.1"
   width="16.000002"
   height="16"
   id="svg7384">
  <title
     id="title9167">Gnome Symbolic Icon Theme</title>
  <defs
     id="defs7386" />
  <g
     transform="translate(-62,-576)"
     id="layer9" />
  <g
     transform="translate(-62,-576)"
     id="layer10" />
  <g
     transform="translate(-62,-576)"
     id="layer11" />
  <g
     transform="translate(-62,-576)"
     id="layer12" />
  <g
     transform="translate(-62,-576)"
     id="layer13">
    <g
       transform="translate(-165.9998,-420)"
       id="g14176">
      <path
         d="m 228.53105,996 c -0.28913,0 -0.53125,0.24212 -0.53125,0.53125 l 0,10.93755 c 0,0.2985 0.23264,0.5312 0.53125,0.5312 l 5.46875,0 0,2.125 -5.53125,0 c -0.26299,0 -0.46875,0.2057 -0.46875,0.4688 l 0,0.9374 c 0,0.263 0.20576,0.4688 0.46875,0.4688 l 6,0 0.9375,0 6.125,0 c 0.26299,0 0.46875,-0.2058 0.46875,-0.4688 l 0,-0.9374 c 0,-0.263 -0.20575,-0.4688 -0.46875,-0.4688 l -5.65625,0 0,-2.125 5.59375,0 c 0.2986,0 0.53125,-0.2326 0.53125,-0.5312 l 0,-5.9376 c 0,-0.2891 -0.24212,-0.5312 -0.53125,-0.5312 l -10.46875,0 0,4.5 c 0,0.277 -0.223,0.5 -0.5,0.5 -0.277,0 -0.5,-0.223 -0.5,-0.5 l 0,-5 c 0,-0.277 0.223,-0.5 0.5,-0.5 l 2.96875,0 6.53125,0 0,-1.40625 c 0,-0.32713 -0.26666,-0.59375 -0.59375,-0.59375 l -6.375,0 0,-1.46875 C 233.03105,996.2421 232.78893,996 232.4998,996 l -3.96875,0 z"
         id="rect3861"
         style="fill:#bebebe;fill-opacity:1;stroke:none;display:inline" />
      <rect
         width="16"
         height="16"
         x="227.9998"
         y="996"
         id="rect14152-5"
         style="color:#bebebe;fill:none;stroke:none;stroke-width:2;marker:none;visibility:visible;display:inline;overflow:visible;enable-background:accumulate" />
    </g>
  </g>
  <g
     transform="translate(-62,-576)"
     id="layer14" />
  <g
     transform="translate(-62,-576)"
     id="layer15" />
</svg>
