<?xml version="1.0" encoding="UTF-8"?>
<svg height="16px" viewBox="0 0 16 16" width="16px" xmlns="http://www.w3.org/2000/svg">
    <path d="m 3.992188 0 c -1.085938 0 -2 0.910156 -2 2 v 3 c -1.109376 0 -2.0000005 0.890625 -2.0000005 2 v 1.984375 c 0 1.109375 0.8906245 2 2.0000005 2 h 4.992187 v 1.285156 c -0.292969 0.171875 -0.535156 0.414063 -0.710937 0.703125 h -3.285157 c -0.550781 0 -1 0.449219 -1 1 c 0 0.550782 0.449219 1 1 1 h 3.246094 c 0.355469 0.640625 1.023437 1.035156 1.753906 1.039063 c 0.730469 -0.003907 1.398438 -0.398438 1.75 -1.039063 h 3.261719 c 0.550781 0 1 -0.449218 1 -1 c 0 -0.550781 -0.449219 -1 -1 -1 h -3.292969 c -0.175781 -0.289062 -0.417969 -0.53125 -0.714843 -0.703125 v -1.285156 h 5 c 1.109374 0 2 -0.890625 2 -2 v -1.984375 c 0 -1.109375 -0.890626 -2 -2 -2 v -0.722656 c 0 -0.570313 -0.207032 -1.121094 -0.585938 -1.550782 l -1.820312 -2.046874 c -0.382813 -0.429688 -0.933594 -0.679688 -1.511719 -0.679688 z m 0 2 h 6.070312 l 1.929688 1.996094 v 2.019531 h -8 z m 3.988281 11 h 0.011719 c 0.554687 0.003906 1.003906 0.453125 1 1.003906 c 0.003906 0.558594 -0.449219 1.007813 -1.003907 1.007813 c -0.554687 0 -1.007812 -0.449219 -1.007812 -1.007813 c 0 -0.550781 0.449219 -1 1 -1.003906 z m 0 0" fill="#2e3436"/>
</svg>
