<?xml version="1.0" encoding="UTF-8"?>
<svg height="16px" viewBox="0 0 16 16" width="16px" xmlns="http://www.w3.org/2000/svg">
    <path d="m 11.996094 12 c -0.703125 0.003906 -1.355469 0.371094 -1.714844 0.972656 h -3.285156 c -0.550782 0 -1 0.449219 -1 1 c 0 0.550782 0.449218 1 1 1 h 3.246094 c 0.351562 0.640625 1.023437 1.035156 1.753906 1.039063 c 0.730468 -0.003907 1.398437 -0.398438 1.75 -1.039063 h 1.28125 c 0.550781 0 1 -0.449218 1 -1 c 0 -0.550781 -0.449219 -1 -1 -1 h -1.3125 c -0.363282 -0.601562 -1.015625 -0.972656 -1.71875 -0.972656 z m 0 1 c 0.554687 0 1.003906 0.449219 1.003906 1.007812 c 0 0.554688 -0.449219 1.003907 -1.003906 1.003907 c -0.554688 0 -1.007813 -0.449219 -1.007813 -1.003907 c 0 -0.558593 0.453125 -1.007812 1.007813 -1.007812 z m 0 0" fill="#2e3436"/>
    <path d="m 10.992188 10 h 2.007812 v 3 h -2.007812 z m 0 0" fill="#2e3436"/>
    <path d="m 11.089844 2.996094 h 1.820312 c 1.152344 0 2.089844 0.9375 2.089844 2.089844 v 2.808593 c 0 1.15625 -0.9375 2.089844 -2.089844 2.089844 h -1.820312 c -1.152344 0 -2.089844 -0.933594 -2.089844 -2.089844 v -2.808593 c 0 -1.152344 0.9375 -2.089844 2.089844 -2.089844 z m 0 0" fill="none" stroke="#2e3436" stroke-linecap="round" stroke-width="2.00001"/>
    <path d="m 4.027344 12 c 0.703125 0.003906 1.351562 0.371094 1.714844 0.972656 h 3.285156 c 0.550781 0 1 0.449219 1 1 c 0 0.550782 -0.449219 1 -1 1 h -3.246094 c -0.351562 0.640625 -1.023438 1.035156 -1.753906 1.039063 c -0.730469 -0.003907 -1.398438 -0.398438 -1.75 -1.039063 h -1.28125 c -0.550782 0 -1.00000025 -0.449218 -1.00000025 -1 c 0 -0.550781 0.44921825 -1 1.00000025 -1 h 1.3125 c 0.363281 -0.601562 1.015625 -0.972656 1.71875 -0.972656 z m 0 1 c -0.554688 0 -1.007813 0.449219 -1.003906 1.007812 c -0.003907 0.554688 0.449218 1.003907 1.003906 1.003907 c 0.554687 0 1.007812 -0.449219 1.007812 -1.003907 c 0 -0.558593 -0.453125 -1.007812 -1.007812 -1.007812 z m 0 0" fill="#2e3436"/>
    <path d="m 5.03125 10 h -2.007812 v 3 h 2.007812 z m 0 0" fill="#2e3436"/>
    <path d="m -104.919373 690.981865 h 1.820313 c 1.15625 0 2.089844 0.9375 2.089844 2.089844 v 2.808593 c 0 1.15625 -0.933594 2.089844 -2.089844 2.089844 h -1.820313 c -1.152343 0 -2.089843 -0.933594 -2.089843 -2.089844 v -2.808593 c 0 -1.152344 0.9375 -2.089844 2.089843 -2.089844 z m 0 0" fill="none" stroke="#2e3436" stroke-linecap="round" stroke-width="2.00001" transform="matrix(-1 0 0 1 -99.985779 -687.985771)"/>
    <g fill="#222222">
        <path d="m 1 7 h 6 v 1.050781 h -6 z m 0 0"/>
        <path d="m 9 7 h 6 v 1.050781 h -6 z m 0 0"/>
    </g>
</svg>
