<?xml version="1.0" encoding="UTF-8"?>
<svg height="16px" viewBox="0 0 16 16" width="16px" xmlns="http://www.w3.org/2000/svg">
    <path d="m 7.972656 0.363281 c -0.5 0 -1 0.171875 -1.40625 0.511719 l -4.464844 3.71875 c -0.714843 0.597656 -1.128906 1.480469 -1.128906 2.410156 v 6 c 0 1.65625 1.34375 3 3 3 h 8 c 1.65625 0 3 -1.34375 3 -3 v -6 c 0 -0.929687 -0.414062 -1.8125 -1.128906 -2.410156 l -4.464844 -3.71875 c -0.40625 -0.339844 -0.90625 -0.511719 -1.40625 -0.511719 z m -0.015625 2 c 0.050781 -0.003906 0.101563 0.011719 0.144531 0.046875 l 4.464844 3.71875 c 0.257813 0.21875 0.40625 0.539063 0.40625 0.875 v 6 c 0 0.5625 -0.4375 1 -1 1 h -2 v -5 c 0 -0.554687 -0.445312 -1 -1 -1 h -2 c -0.554687 0 -1 0.445313 -1 1 v 5 h -2 c -0.5625 0 -1 -0.4375 -1 -1 v -6 c 0 -0.335937 0.148438 -0.65625 0.40625 -0.875 l 4.464844 -3.71875 c 0.035156 -0.027344 0.074219 -0.042968 0.113281 -0.046875 z m 0 0" fill="#2e3436"/>
</svg>
