<?xml version="1.0" encoding="UTF-8" standalone="no"?>
<!-- Created with Inkscape (http://www.inkscape.org/) -->
<svg
   xmlns:dc="http://purl.org/dc/elements/1.1/"
   xmlns:cc="http://web.resource.org/cc/"
   xmlns:rdf="http://www.w3.org/1999/02/22-rdf-syntax-ns#"
   xmlns:svg="http://www.w3.org/2000/svg"
   xmlns="http://www.w3.org/2000/svg"
   xmlns:xlink="http://www.w3.org/1999/xlink"
   xmlns:sodipodi="http://sodipodi.sourceforge.net/DTD/sodipodi-0.dtd"
   xmlns:inkscape="http://www.inkscape.org/namespaces/inkscape"
   width="32"
   height="32"
   id="svg4908"
   sodipodi:version="0.32"
   inkscape:version="0.45"
   sodipodi:docbase="/home/dobey/Projects/gnome-icon-theme/32x32/actions"
   sodipodi:docname="address-book-new.svg"
   inkscape:output_extension="org.inkscape.output.svg.inkscape"
   inkscape:export-filename="/home/andreas/project/misc icons/32x32/actions/bookmark-view.png"
   inkscape:export-xdpi="90"
   inkscape:export-ydpi="90"
   version="1.0">
  <defs
     id="defs4910">
    <linearGradient
       id="linearGradient2378">
      <stop
         id="stop2380"
         offset="0"
         style="stop-color:#ffffff;stop-opacity:1;" />
      <stop
         style="stop-color:#fefede;stop-opacity:0.91836733;"
         offset="0.25"
         id="stop4146" />
      <stop
         style="stop-color:#f5f328;stop-opacity:1;"
         offset="0.5"
         id="stop2386" />
      <stop
         id="stop2382"
         offset="1"
         style="stop-color:#f5f32d;stop-opacity:0.12234043;" />
    </linearGradient>
    <linearGradient
       inkscape:collect="always"
       id="linearGradient6881">
      <stop
         style="stop-color:#ffffff;stop-opacity:1;"
         offset="0"
         id="stop6883" />
      <stop
         style="stop-color:#ffffff;stop-opacity:0;"
         offset="1"
         id="stop6885" />
    </linearGradient>
    <linearGradient
       inkscape:collect="always"
       id="linearGradient6859">
      <stop
         style="stop-color:#9ee757;stop-opacity:1"
         offset="0"
         id="stop6861" />
      <stop
         style="stop-color:#8ae234;stop-opacity:1"
         offset="1"
         id="stop6863" />
    </linearGradient>
    <linearGradient
       inkscape:collect="always"
       id="linearGradient6851">
      <stop
         style="stop-color:#fdee77;stop-opacity:1"
         offset="0"
         id="stop6853" />
      <stop
         style="stop-color:#fce94f;stop-opacity:1"
         offset="1"
         id="stop6855" />
    </linearGradient>
    <linearGradient
       inkscape:collect="always"
       id="linearGradient6843">
      <stop
         style="stop-color:#fec065;stop-opacity:1"
         offset="0"
         id="stop6845" />
      <stop
         style="stop-color:#fcaf3e;stop-opacity:1"
         offset="1"
         id="stop6847" />
    </linearGradient>
    <linearGradient
       inkscape:collect="always"
       id="linearGradient6820">
      <stop
         style="stop-color:#729fcf;stop-opacity:1;"
         offset="0"
         id="stop6822" />
      <stop
         style="stop-color:#729fcf;stop-opacity:0;"
         offset="1"
         id="stop6824" />
    </linearGradient>
    <linearGradient
       inkscape:collect="always"
       id="linearGradient6794">
      <stop
         style="stop-color:#ffffff;stop-opacity:1;"
         offset="0"
         id="stop6796" />
      <stop
         style="stop-color:#ffffff;stop-opacity:0;"
         offset="1"
         id="stop6798" />
    </linearGradient>
    <linearGradient
       inkscape:collect="always"
       id="linearGradient6642">
      <stop
         style="stop-color:#d3d7cf;stop-opacity:1"
         offset="0"
         id="stop6644" />
      <stop
         style="stop-color:#888a85;stop-opacity:1"
         offset="1"
         id="stop6646" />
    </linearGradient>
    <linearGradient
       id="linearGradient6499"
       inkscape:collect="always">
      <stop
         id="stop6501"
         offset="0"
         style="stop-color:#729fcf;stop-opacity:1" />
      <stop
         id="stop6503"
         offset="1"
         style="stop-color:#3465a4;stop-opacity:1" />
    </linearGradient>
    <linearGradient
       inkscape:collect="always"
       id="linearGradient5060">
      <stop
         style="stop-color:black;stop-opacity:1;"
         offset="0"
         id="stop5062" />
      <stop
         style="stop-color:black;stop-opacity:0;"
         offset="1"
         id="stop5064" />
    </linearGradient>
    <linearGradient
       id="linearGradient5048">
      <stop
         style="stop-color:black;stop-opacity:0;"
         offset="0"
         id="stop5050" />
      <stop
         id="stop5056"
         offset="0.5"
         style="stop-color:black;stop-opacity:1;" />
      <stop
         style="stop-color:black;stop-opacity:0;"
         offset="1"
         id="stop5052" />
    </linearGradient>
    <radialGradient
       inkscape:collect="always"
       xlink:href="#linearGradient6843"
       id="radialGradient6304"
       gradientUnits="userSpaceOnUse"
       gradientTransform="matrix(0.7452385,0,0,0.9108471,-4.172637,-6.3612749)"
       cx="42.5"
       cy="36.307945"
       fx="42.5"
       fy="36.307945"
       r="4.5" />
    <radialGradient
       inkscape:collect="always"
       xlink:href="#linearGradient6851"
       id="radialGradient6307"
       gradientUnits="userSpaceOnUse"
       gradientTransform="matrix(0.8213255,0,0,1.0038423,-7.350499,-6.826125)"
       cx="42.8125"
       cy="25.727272"
       fx="42.8125"
       fy="25.727272"
       r="4.5" />
    <radialGradient
       inkscape:collect="always"
       xlink:href="#linearGradient6859"
       id="radialGradient6312"
       gradientUnits="userSpaceOnUse"
       gradientTransform="matrix(0.7867179,0,0,1.4423161,-6.042152,-9.899679)"
       cx="42"
       cy="15.814279"
       fx="42"
       fy="15.814279"
       r="3" />
    <linearGradient
       inkscape:collect="always"
       xlink:href="#linearGradient5048"
       id="linearGradient6340"
       gradientUnits="userSpaceOnUse"
       gradientTransform="matrix(2.774389,0,0,1.969706,-1892.179,-872.8854)"
       x1="302.85715"
       y1="366.64789"
       x2="302.85715"
       y2="609.50507" />
    <radialGradient
       inkscape:collect="always"
       xlink:href="#linearGradient5060"
       id="radialGradient6342"
       gradientUnits="userSpaceOnUse"
       gradientTransform="matrix(2.774389,0,0,1.969706,-1891.633,-872.8854)"
       cx="605.71429"
       cy="486.64789"
       fx="605.71429"
       fy="486.64789"
       r="117.14286" />
    <radialGradient
       inkscape:collect="always"
       xlink:href="#linearGradient5060"
       id="radialGradient6344"
       gradientUnits="userSpaceOnUse"
       gradientTransform="matrix(-2.774389,0,0,1.969706,112.7623,-872.8854)"
       cx="605.71429"
       cy="486.64789"
       fx="605.71429"
       fy="486.64789"
       r="117.14286" />
    <radialGradient
       inkscape:collect="always"
       xlink:href="#linearGradient6642"
       id="radialGradient6346"
       gradientUnits="userSpaceOnUse"
       gradientTransform="matrix(1.5261839,0,0,1.400538,-2.7953523,-3.4069917)"
       cx="5.312501"
       cy="8.1713457"
       fx="5.312501"
       fy="8.1713457"
       r="6" />
    <radialGradient
       inkscape:collect="always"
       xlink:href="#linearGradient6642"
       id="radialGradient6348"
       gradientUnits="userSpaceOnUse"
       gradientTransform="matrix(1.5261839,0,0,1.400538,-2.7953523,-3.4069917)"
       cx="5.312501"
       cy="8.1713457"
       fx="5.312501"
       fy="8.1713457"
       r="6" />
    <radialGradient
       inkscape:collect="always"
       xlink:href="#linearGradient6642"
       id="radialGradient6350"
       gradientUnits="userSpaceOnUse"
       gradientTransform="matrix(1.5261839,0,0,1.400538,-2.7953523,-3.4069917)"
       cx="5.312501"
       cy="8.1713457"
       fx="5.312501"
       fy="8.1713457"
       r="6" />
    <radialGradient
       inkscape:collect="always"
       xlink:href="#linearGradient6642"
       id="radialGradient6352"
       gradientUnits="userSpaceOnUse"
       gradientTransform="matrix(1.5261839,0,0,1.400538,-2.7953523,-3.4069917)"
       cx="5.312501"
       cy="8.1713457"
       fx="5.312501"
       fy="8.1713457"
       r="6" />
    <linearGradient
       inkscape:collect="always"
       xlink:href="#linearGradient6794"
       id="linearGradient6362"
       gradientUnits="userSpaceOnUse"
       x1="42.875"
       y1="30.9375"
       x2="39.919209"
       y2="51.062393" />
    <linearGradient
       inkscape:collect="always"
       xlink:href="#linearGradient6794"
       id="linearGradient6364"
       gradientUnits="userSpaceOnUse"
       x1="42.875"
       y1="30.9375"
       x2="39.919209"
       y2="51.062393" />
    <linearGradient
       inkscape:collect="always"
       xlink:href="#linearGradient6794"
       id="linearGradient6366"
       gradientUnits="userSpaceOnUse"
       x1="42.875"
       y1="30.9375"
       x2="39.919209"
       y2="51.062393" />
    <radialGradient
       inkscape:collect="always"
       xlink:href="#linearGradient6642"
       id="radialGradient6368"
       gradientUnits="userSpaceOnUse"
       gradientTransform="matrix(1.3279654,0,-0.4677714,1.6070078,3.489273,-5.7538092)"
       cx="4.4339509"
       cy="8.3226004"
       fx="4.4339509"
       fy="8.3226004"
       r="6" />
    <radialGradient
       inkscape:collect="always"
       xlink:href="#linearGradient6642"
       id="radialGradient6370"
       gradientUnits="userSpaceOnUse"
       gradientTransform="matrix(1.3279654,0,-0.4677714,1.6070078,3.489273,-5.7538092)"
       cx="4.4339509"
       cy="8.3226004"
       fx="4.4339509"
       fy="8.3226004"
       r="6" />
    <radialGradient
       inkscape:collect="always"
       xlink:href="#linearGradient6642"
       id="radialGradient6372"
       gradientUnits="userSpaceOnUse"
       gradientTransform="matrix(1.3279654,0,-0.4677714,1.6070078,3.489273,-5.7538092)"
       cx="4.4339509"
       cy="8.3226004"
       fx="4.4339509"
       fy="8.3226004"
       r="6" />
    <radialGradient
       inkscape:collect="always"
       xlink:href="#linearGradient6642"
       id="radialGradient6374"
       gradientUnits="userSpaceOnUse"
       gradientTransform="matrix(1.3279654,0,-0.4677714,1.6070078,3.489273,-5.7538092)"
       cx="4.4339509"
       cy="8.3226004"
       fx="4.4339509"
       fy="8.3226004"
       r="6" />
    <linearGradient
       inkscape:collect="always"
       xlink:href="#linearGradient6499"
       id="linearGradient6388"
       gradientUnits="userSpaceOnUse"
       gradientTransform="matrix(0.8795848,0,0,0.9942833,-0.2831848,-1.7265815)"
       x1="17.077137"
       y1="14.375"
       x2="41.06271"
       y2="56.9375" />
    <linearGradient
       inkscape:collect="always"
       xlink:href="#linearGradient6820"
       id="linearGradient6390"
       gradientUnits="userSpaceOnUse"
       x1="24.75"
       y1="43.927441"
       x2="24.75"
       y2="35.790096" />
    <linearGradient
       inkscape:collect="always"
       xlink:href="#linearGradient6881"
       id="linearGradient6392"
       gradientUnits="userSpaceOnUse"
       x1="17.353554"
       y1="7.9356604"
       x2="28.035534"
       y2="81.759773" />
    <radialGradient
       inkscape:collect="always"
       xlink:href="#linearGradient2378"
       id="radialGradient6283"
       gradientUnits="userSpaceOnUse"
       cx="38.658855"
       cy="9.3411446"
       fx="38.658855"
       fy="9.3411446"
       r="8.341651" />
  </defs>
  <sodipodi:namedview
     id="base"
     pagecolor="#ffffff"
     bordercolor="#666666"
     borderopacity="1.0"
     inkscape:pageopacity="0.0"
     inkscape:pageshadow="2"
     inkscape:zoom="1"
     inkscape:cx="25.31923"
     inkscape:cy="30.771694"
     inkscape:current-layer="layer1"
     showgrid="false"
     inkscape:grid-bbox="true"
     inkscape:document-units="px"
     inkscape:window-width="1280"
     inkscape:window-height="970"
     inkscape:window-x="5"
     inkscape:window-y="24"
     width="32px"
     height="32px"
     showguides="true"
     inkscape:guide-bbox="true"
     gridspacingx="0.5px"
     gridspacingy="0.5px"
     gridempspacing="2"
     showborder="false"
     inkscape:showpageshadow="false"
     inkscape:object-points="true"
     inkscape:grid-points="true"
     borderlayer="true" />
  <metadata
     id="metadata4913">
    <rdf:RDF>
      <cc:Work
         rdf:about="">
        <dc:format>image/svg+xml</dc:format>
        <dc:type
           rdf:resource="http://purl.org/dc/dcmitype/StillImage" />
        <dc:title>New Address Book</dc:title>
        <dc:date>2007-06-23</dc:date>
        <dc:creator>
          <cc:Agent>
            <dc:title>Lapo Calamandrei</dc:title>
          </cc:Agent>
        </dc:creator>
        <dc:subject>
          <rdf:Bag>
            <rdf:li>address</rdf:li>
            <rdf:li>book</rdf:li>
            <rdf:li>contact</rdf:li>
          </rdf:Bag>
        </dc:subject>
        <cc:license
           rdf:resource="http://creativecommons.org/licenses/GPL/2.0/" />
        <dc:source />
        <dc:contributor>
          <cc:Agent>
            <dc:title>Andreas Nilsson</dc:title>
          </cc:Agent>
        </dc:contributor>
      </cc:Work>
      <cc:License
         rdf:about="http://creativecommons.org/licenses/GPL/2.0/">
        <cc:permits
           rdf:resource="http://web.resource.org/cc/Reproduction" />
        <cc:permits
           rdf:resource="http://web.resource.org/cc/Distribution" />
        <cc:requires
           rdf:resource="http://web.resource.org/cc/Notice" />
        <cc:permits
           rdf:resource="http://web.resource.org/cc/DerivativeWorks" />
        <cc:requires
           rdf:resource="http://web.resource.org/cc/ShareAlike" />
        <cc:requires
           rdf:resource="http://web.resource.org/cc/SourceCode" />
      </cc:License>
    </rdf:RDF>
  </metadata>
  <g
     id="layer1"
     inkscape:label="Layer 1"
     inkscape:groupmode="layer">
    <g
       style="display:inline"
       id="g5022"
       transform="matrix(1.5513925e-2,0,0,1.2029593e-2,29.548637,28.812822)">
      <rect
         y="-150.69685"
         x="-1559.2523"
         height="478.35718"
         width="1339.6335"
         id="rect4173"
         style="opacity:0.39195981;color:#000000;fill:url(#linearGradient6340);fill-opacity:1;fill-rule:nonzero;stroke:none;stroke-width:1;stroke-linecap:round;stroke-linejoin:miter;marker:none;marker-start:none;marker-mid:none;marker-end:none;stroke-miterlimit:4;stroke-dasharray:none;stroke-dashoffset:0;stroke-opacity:1;visibility:visible;display:inline;overflow:visible" />
      <path
         sodipodi:nodetypes="cccc"
         id="path5058"
         d="M -219.61876,-150.68038 C -219.61876,-150.68038 -219.61876,327.65041 -219.61876,327.65041 C -76.744594,328.55086 125.78146,220.48075 125.78138,88.454235 C 125.78138,-43.572302 -33.655436,-150.68036 -219.61876,-150.68038 z "
         style="opacity:0.40206185;color:#000000;fill:url(#radialGradient6342);fill-opacity:1;fill-rule:nonzero;stroke:none;stroke-width:1;stroke-linecap:round;stroke-linejoin:miter;marker:none;marker-start:none;marker-mid:none;marker-end:none;stroke-miterlimit:4;stroke-dasharray:none;stroke-dashoffset:0;stroke-opacity:1;visibility:visible;display:inline;overflow:visible" />
      <path
         style="opacity:0.40206185;color:#000000;fill:url(#radialGradient6344);fill-opacity:1;fill-rule:nonzero;stroke:none;stroke-width:1;stroke-linecap:round;stroke-linejoin:miter;marker:none;marker-start:none;marker-mid:none;marker-end:none;stroke-miterlimit:4;stroke-dasharray:none;stroke-dashoffset:0;stroke-opacity:1;visibility:visible;display:inline;overflow:visible"
         d="M -1559.2523,-150.68038 C -1559.2523,-150.68038 -1559.2523,327.65041 -1559.2523,327.65041 C -1702.1265,328.55086 -1904.6525,220.48075 -1904.6525,88.454235 C -1904.6525,-43.572302 -1745.2157,-150.68036 -1559.2523,-150.68038 z "
         id="path5018"
         sodipodi:nodetypes="cccc" />
    </g>
    <g
       id="g6723"
       transform="translate(-4,15)">
      <path
         id="path6725"
         d="M 14.345337,8.5060394 C 13.701657,10.717373 11.23254,12.512078 8.8339139,12.512078 C 6.4352883,12.512078 5.0109846,10.717373 5.6546645,8.5060394 C 6.2983445,6.2947058 8.7674619,4.5000001 11.166088,4.5000001 C 13.564713,4.5000001 14.989017,6.2947058 14.345337,8.5060394 z "
         style="fill:none;fill-opacity:1;stroke:url(#radialGradient6374);stroke-width:3;stroke-linecap:round;stroke-linejoin:miter;stroke-miterlimit:4;stroke-dashoffset:0;stroke-opacity:1" />
      <path
         transform="matrix(0.8701215,0,-0.3339941,1.1474218,4.7836537,-1.8445527)"
         d="M 14.451495 9.0207386 A 4.9939418 3.4913397 0 1 1  4.4636111,9.0207386 A 4.9939418 3.4913397 0 1 1  14.451495 9.0207386 z"
         sodipodi:ry="3.4913397"
         sodipodi:rx="4.9939418"
         sodipodi:cy="9.0207386"
         sodipodi:cx="9.4575529"
         id="path6727"
         style="fill:none;fill-opacity:1;stroke:#eeeeec;stroke-width:1.00080287;stroke-linecap:round;stroke-linejoin:miter;stroke-miterlimit:4;stroke-dasharray:none;stroke-dashoffset:0;stroke-opacity:1"
         sodipodi:type="arc" />
    </g>
    <g
       id="g6703"
       transform="translate(-4,9)">
      <path
         id="path6705"
         d="M 14.345337,8.5060394 C 13.701657,10.717373 11.23254,12.512078 8.8339139,12.512078 C 6.4352883,12.512078 5.0109846,10.717373 5.6546645,8.5060394 C 6.2983445,6.2947058 8.7674619,4.5000001 11.166088,4.5000001 C 13.564713,4.5000001 14.989017,6.2947058 14.345337,8.5060394 z "
         style="fill:none;fill-opacity:1;stroke:url(#radialGradient6372);stroke-width:3;stroke-linecap:round;stroke-linejoin:miter;stroke-miterlimit:4;stroke-dashoffset:0;stroke-opacity:1" />
      <path
         transform="matrix(0.8701215,0,-0.3339941,1.1474218,4.7836537,-1.8445527)"
         d="M 14.451495 9.0207386 A 4.9939418 3.4913397 0 1 1  4.4636111,9.0207386 A 4.9939418 3.4913397 0 1 1  14.451495 9.0207386 z"
         sodipodi:ry="3.4913397"
         sodipodi:rx="4.9939418"
         sodipodi:cy="9.0207386"
         sodipodi:cx="9.4575529"
         id="path6707"
         style="fill:none;fill-opacity:1;stroke:#eeeeec;stroke-width:1.00080287;stroke-linecap:round;stroke-linejoin:miter;stroke-miterlimit:4;stroke-dasharray:none;stroke-dashoffset:0;stroke-opacity:1"
         sodipodi:type="arc" />
    </g>
    <g
       id="g6683"
       transform="translate(-4,3)">
      <path
         id="path6685"
         d="M 14.345337,8.5060394 C 13.701657,10.717373 11.23254,12.512078 8.8339139,12.512078 C 6.4352883,12.512078 5.0109846,10.717373 5.6546645,8.5060394 C 6.2983445,6.2947058 8.7674619,4.5000001 11.166088,4.5000001 C 13.564713,4.5000001 14.989017,6.2947058 14.345337,8.5060394 z "
         style="fill:none;fill-opacity:1;stroke:url(#radialGradient6370);stroke-width:3;stroke-linecap:round;stroke-linejoin:miter;stroke-miterlimit:4;stroke-dashoffset:0;stroke-opacity:1" />
      <path
         transform="matrix(0.8701215,0,-0.3339941,1.1474218,4.7836537,-1.8445527)"
         d="M 14.451495 9.0207386 A 4.9939418 3.4913397 0 1 1  4.4636111,9.0207386 A 4.9939418 3.4913397 0 1 1  14.451495 9.0207386 z"
         sodipodi:ry="3.4913397"
         sodipodi:rx="4.9939418"
         sodipodi:cy="9.0207386"
         sodipodi:cx="9.4575529"
         id="path6687"
         style="fill:none;fill-opacity:1;stroke:#eeeeec;stroke-width:1.00080287;stroke-linecap:round;stroke-linejoin:miter;stroke-miterlimit:4;stroke-dasharray:none;stroke-dashoffset:0;stroke-opacity:1"
         sodipodi:type="arc" />
    </g>
    <g
       id="g6679"
       transform="translate(-4,-2)">
      <path
         id="path6513"
         d="M 14.345337,8.5060394 C 13.701657,10.717373 11.23254,12.512078 8.8339139,12.512078 C 6.4352883,12.512078 5.0109846,10.717373 5.6546645,8.5060394 C 6.2983445,6.2947058 8.7674619,4.5000001 11.166088,4.5000001 C 13.564713,4.5000001 14.989017,6.2947058 14.345337,8.5060394 z "
         style="fill:none;fill-opacity:1;stroke:url(#radialGradient6368);stroke-width:3;stroke-linecap:round;stroke-linejoin:miter;stroke-miterlimit:4;stroke-dashoffset:0;stroke-opacity:1" />
      <path
         transform="matrix(0.8701215,0,-0.3339941,1.1474218,4.7836537,-1.8445527)"
         d="M 14.451495 9.0207386 A 4.9939418 3.4913397 0 1 1  4.4636111,9.0207386 A 4.9939418 3.4913397 0 1 1  14.451495 9.0207386 z"
         sodipodi:ry="3.4913397"
         sodipodi:rx="4.9939418"
         sodipodi:cy="9.0207386"
         sodipodi:cx="9.4575529"
         id="path6511"
         style="fill:none;fill-opacity:1;stroke:#eeeeec;stroke-width:1.00080287;stroke-linecap:round;stroke-linejoin:miter;stroke-miterlimit:4;stroke-dasharray:none;stroke-dashoffset:0;stroke-opacity:1"
         sodipodi:type="arc" />
    </g>
    <rect
       style="fill:#3465a4;fill-opacity:1;stroke:#204a87;stroke-width:1;stroke-linecap:round;stroke-linejoin:miter;stroke-miterlimit:0;stroke-dasharray:none;stroke-dashoffset:0;stroke-opacity:1"
       id="rect5426"
       width="22"
       height="27.000002"
       x="4.5"
       y="0.50000006"
       rx="1.7563622"
       ry="1.6705401" />
    <g
       id="g6786"
       transform="matrix(0.7141861,0,0,1,-3.5702329,-1)">
      <path
         sodipodi:nodetypes="cccccc"
         id="path5433"
         d="M 14,3 L 39.182408,3 L 40,3.6961651 L 40,25 L 14,25 L 14,3 z "
         style="fill:#d3d7cf;fill-opacity:1;stroke:none;stroke-width:1;stroke-linecap:butt;stroke-linejoin:miter;stroke-miterlimit:4;stroke-dashoffset:0;stroke-opacity:1" />
      <path
         sodipodi:nodetypes="ccccc"
         id="rect5430"
         d="M 14,3 L 39.65625,3 C 40.711932,4.0277742 39.16614,5.0151389 37.65625,5 L 12,5 C 13.501385,5 15.015732,3.4971845 14,3 z "
         style="fill:#ffffff;fill-opacity:1;stroke:none;stroke-width:1;stroke-linecap:butt;stroke-linejoin:miter;stroke-miterlimit:4;stroke-dashoffset:0;stroke-opacity:1" />
    </g>
    <rect
       style="fill:url(#radialGradient6312);fill-opacity:1;stroke:#4e9a06;stroke-width:1.00000012;stroke-linecap:butt;stroke-linejoin:miter;stroke-miterlimit:4;stroke-dasharray:none;stroke-dashoffset:0;stroke-opacity:1"
       id="rect6485"
       width="5"
       height="10"
       x="24.5"
       y="5.5"
       rx="1.2374369"
       ry="1.1136932" />
    <path
       style="opacity:0.2;fill:none;fill-opacity:1;stroke:#ffffff;stroke-width:0.99999994;stroke-linecap:round;stroke-linejoin:miter;stroke-miterlimit:0;stroke-dashoffset:0;stroke-opacity:1"
       d="M 6.5232188,1.5312499 C 5.9514545,1.5312499 5.5312502,1.9641246 5.5312502,2.55313 L 5.5312502,27.478118 C 5.5312502,28.067123 5.9514545,28.499998 6.5232188,28.499998 L 24.508033,28.499998 C 25.079797,28.499998 25.500001,28.067123 25.500001,27.478118 L 25.500001,2.55313 C 25.500001,1.9641247 25.079796,1.5312499 24.508033,1.5312499 L 6.5232188,1.5312499 z "
       id="path6783"
       sodipodi:nodetypes="ccccccccc" />
    <path
       sodipodi:type="inkscape:offset"
       inkscape:radius="-0.99302852"
       inkscape:original="M 39.75 29.5 C 39.06446 29.5 38.5 30.064461 38.5 30.75 L 38.5 38.25 C 38.5 38.93554 39.064459 39.5 39.75 39.5 L 45.25 39.5 C 45.93554 39.5 46.5 38.935541 46.5 38.25 L 46.5 30.75 C 46.5 30.06446 45.935541 29.5 45.25 29.5 L 39.75 29.5 z "
       style="opacity:0.5;fill:none;fill-opacity:1;stroke:url(#linearGradient6366);stroke-width:1.00000012;stroke-linecap:butt;stroke-linejoin:miter;stroke-miterlimit:4;stroke-dasharray:none;stroke-dashoffset:0;stroke-opacity:1"
       id="path6808"
       d="M 39.75,30.5 C 39.609554,30.5 39.5,30.609555 39.5,30.75 L 39.5,38.25 C 39.5,38.390448 39.609551,38.5 39.75,38.5 L 45.25,38.5 C 45.390448,38.5 45.5,38.390449 45.5,38.25 L 45.5,30.75 C 45.5,30.609552 45.390449,30.5 45.25,30.5 L 39.75,30.5 z "
       transform="translate(-17,-24)" />
    <rect
       style="fill:url(#radialGradient6307);fill-opacity:1;stroke:#c4a000;stroke-width:1.00000012;stroke-linecap:butt;stroke-linejoin:miter;stroke-miterlimit:4;stroke-dasharray:none;stroke-dashoffset:0;stroke-opacity:1"
       id="rect6487"
       width="8"
       height="10"
       x="22.5"
       y="12.5"
       rx="1.2374369"
       ry="1.2374369" />
    <path
       sodipodi:type="inkscape:offset"
       inkscape:radius="-0.99302852"
       inkscape:original="M 39.75 29.5 C 39.06446 29.5 38.5 30.064461 38.5 30.75 L 38.5 38.25 C 38.5 38.93554 39.064459 39.5 39.75 39.5 L 45.25 39.5 C 45.93554 39.5 46.5 38.935541 46.5 38.25 L 46.5 30.75 C 46.5 30.06446 45.935541 29.5 45.25 29.5 L 39.75 29.5 z "
       style="opacity:0.5;fill:none;fill-opacity:1;stroke:url(#linearGradient6364);stroke-width:1.00000012;stroke-linecap:butt;stroke-linejoin:miter;stroke-miterlimit:4;stroke-dasharray:none;stroke-dashoffset:0;stroke-opacity:1"
       id="path6804"
       d="M 39.75,30.5 C 39.609554,30.5 39.5,30.609555 39.5,30.75 L 39.5,38.25 C 39.5,38.390448 39.609551,38.5 39.75,38.5 L 45.25,38.5 C 45.390448,38.5 45.5,38.390449 45.5,38.25 L 45.5,30.75 C 45.5,30.609552 45.390449,30.5 45.25,30.5 L 39.75,30.5 z "
       transform="translate(-16,-17)" />
    <rect
       style="fill:url(#radialGradient6304);fill-opacity:1;stroke:#ce5c00;stroke-width:1.00000012;stroke-linecap:butt;stroke-linejoin:miter;stroke-miterlimit:4;stroke-dasharray:none;stroke-dashoffset:0;stroke-opacity:1"
       id="rect6489"
       width="8"
       height="9"
       x="23.5"
       y="19.5"
       rx="1.2374369"
       ry="1.2374369" />
    <path
       transform="translate(-15,-10)"
       style="opacity:0.5;fill:none;fill-opacity:1;stroke:url(#linearGradient6362);stroke-width:1.00000012;stroke-linecap:butt;stroke-linejoin:miter;stroke-miterlimit:4;stroke-dashoffset:0;stroke-opacity:1"
       d="M 39.75,30.5 C 39.609554,30.5 39.5,30.609555 39.5,30.75 L 39.5,37.25 C 39.5,37.390448 39.609551,37.5 39.75,37.5 L 45.25,37.5 C 45.390448,37.5 45.5,37.390449 45.5,37.25 L 45.5,30.75 C 45.5,30.609552 45.390449,30.5 45.25,30.5 L 39.75,30.5 z "
       id="path6792"
       sodipodi:nodetypes="ccccccccc" />
    <g
       id="g6383"
       transform="matrix(0.7575758,0,0,0.6788077,0.7272727,0.9628348)">
      <rect
         ry="2.4607255"
         rx="2.4498749"
         y="3.7419765"
         x="3.6632333"
         height="39.771324"
         width="31.676765"
         id="rect5422"
         style="fill:url(#linearGradient6388);fill-opacity:1;stroke:#204a87;stroke-width:1.3944844;stroke-linecap:round;stroke-linejoin:miter;stroke-miterlimit:0;stroke-dasharray:none;stroke-dashoffset:0;stroke-opacity:1" />
      <path
         transform="matrix(0.9793547,0,0,0.9821142,-4.4941905,-1.4184209)"
         d="M 10.96875,6 C 9.866556,6 9,6.8665563 9,7.96875 L 9,43.03125 C 9,44.133444 9.8665564,45 10.96875,45 L 38.03125,45 C 39.133444,45 40,44.133443 40,43.03125 L 40,7.96875 C 40,6.8665562 39.133443,6 38.03125,6 L 10.96875,6 z "
         id="path6816"
         style="fill:url(#linearGradient6390);fill-opacity:1;stroke:none;stroke-width:1;stroke-linecap:round;stroke-linejoin:miter;stroke-miterlimit:0;stroke-dasharray:none;stroke-dashoffset:0;stroke-opacity:1"
         inkscape:original="M 10.96875 5.5 C 9.5976699 5.5 8.5 6.5976702 8.5 7.96875 L 8.5 43.03125 C 8.5 44.40233 9.5976702 45.5 10.96875 45.5 L 38.03125 45.5 C 39.40233 45.5 40.5 44.402329 40.5 43.03125 L 40.5 7.96875 C 40.5 6.5976699 39.402329 5.5 38.03125 5.5 L 10.96875 5.5 z "
         inkscape:radius="-0.50379127"
         sodipodi:type="inkscape:offset" />
      <path
         transform="matrix(0.9694216,0,0,0.9709965,-4.2418593,-1.1309709)"
         d="M 10.96875,6.53125 C 10.140184,6.53125 9.53125,7.1401838 9.53125,7.96875 L 9.53125,43.03125 C 9.53125,43.859816 10.140184,44.46875 10.96875,44.46875 L 38.03125,44.46875 C 38.859816,44.46875 39.46875,43.859815 39.46875,43.03125 L 39.46875,7.96875 C 39.46875,7.1401839 38.859815,6.53125 38.03125,6.53125 L 10.96875,6.53125 z "
         id="path6479"
         style="opacity:0.46120689;fill:none;fill-opacity:1;stroke:url(#linearGradient6392);stroke-width:1.43730342;stroke-linecap:round;stroke-linejoin:miter;stroke-miterlimit:0;stroke-dasharray:none;stroke-dashoffset:0;stroke-opacity:1"
         inkscape:original="M 10.96875 5.5 C 9.5976699 5.5 8.5 6.5976702 8.5 7.96875 L 8.5 43.03125 C 8.5 44.40233 9.5976702 45.5 10.96875 45.5 L 38.03125 45.5 C 39.40233 45.5 40.5 44.402329 40.5 43.03125 L 40.5 7.96875 C 40.5 6.5976699 39.402329 5.5 38.03125 5.5 L 10.96875 5.5 z "
         inkscape:radius="-1.016466"
         sodipodi:type="inkscape:offset" />
    </g>
    <path
       sodipodi:type="arc"
       style="fill:none;fill-opacity:1;stroke:#204a87;stroke-width:1.03306484;stroke-linecap:round;stroke-linejoin:miter;stroke-miterlimit:4;stroke-dasharray:none;stroke-dashoffset:0;stroke-opacity:1"
       id="path6469"
       sodipodi:cx="11.91033"
       sodipodi:cy="11.959651"
       sodipodi:rx="1.524699"
       sodipodi:ry="1.6130873"
       d="M 13.435029 11.959651 A 1.524699 1.6130873 0 1 1  10.385631,11.959651 A 1.524699 1.6130873 0 1 1  13.435029 11.959651 z"
       transform="matrix(0.9838006,0,0,0.9524402,-4.717389,15.145517)" />
    <path
       sodipodi:type="arc"
       style="fill:none;fill-opacity:1;stroke:#204a87;stroke-width:1.03306484;stroke-linecap:round;stroke-linejoin:miter;stroke-miterlimit:4;stroke-dasharray:none;stroke-dashoffset:0;stroke-opacity:1"
       id="path6465"
       sodipodi:cx="11.91033"
       sodipodi:cy="11.959651"
       sodipodi:rx="1.524699"
       sodipodi:ry="1.6130873"
       d="M 13.435029 11.959651 A 1.524699 1.6130873 0 1 1  10.385631,11.959651 A 1.524699 1.6130873 0 1 1  13.435029 11.959651 z"
       transform="matrix(0.9838006,0,0,0.9524402,-4.717389,3.1455167)" />
    <path
       sodipodi:type="arc"
       style="fill:none;fill-opacity:1;stroke:#204a87;stroke-width:1.03306484;stroke-linecap:round;stroke-linejoin:miter;stroke-miterlimit:4;stroke-dasharray:none;stroke-dashoffset:0;stroke-opacity:1"
       id="path6467"
       sodipodi:cx="11.91033"
       sodipodi:cy="11.959651"
       sodipodi:rx="1.524699"
       sodipodi:ry="1.6130873"
       d="M 13.435029 11.959651 A 1.524699 1.6130873 0 1 1  10.385631,11.959651 A 1.524699 1.6130873 0 1 1  13.435029 11.959651 z"
       transform="matrix(0.9838006,0,0,0.9524402,-4.717389,9.145517)" />
    <path
       sodipodi:type="arc"
       style="fill:none;fill-opacity:1;stroke:#204a87;stroke-width:1.03306484;stroke-linecap:round;stroke-linejoin:miter;stroke-miterlimit:4;stroke-dasharray:none;stroke-dashoffset:0;stroke-opacity:1"
       id="path6463"
       sodipodi:cx="11.91033"
       sodipodi:cy="11.959651"
       sodipodi:rx="1.524699"
       sodipodi:ry="1.6130873"
       d="M 13.435029 11.959651 A 1.524699 1.6130873 0 1 1  10.385631,11.959651 A 1.524699 1.6130873 0 1 1  13.435029 11.959651 z"
       transform="matrix(0.9838006,0,0,0.9524402,-4.717389,-1.8544832)" />
    <g
       id="g6729"
       transform="translate(-4,15)">
      <path
         sodipodi:nodetypes="csc"
         id="path6731"
         d="M 5.65625,8.5 C 5.0125701,10.711334 6.4451242,12.5 8.84375,12.5 C 9.757344,12.5 10.672765,12.22474 11.5,11.78125"
         style="fill:none;fill-opacity:1;stroke:url(#radialGradient6352);stroke-width:3;stroke-linecap:round;stroke-linejoin:miter;stroke-miterlimit:4;stroke-dasharray:none;stroke-dashoffset:0;stroke-opacity:1" />
      <path
         sodipodi:nodetypes="cssc"
         id="path6733"
         d="M 6.84375,6.5 C 6.2961784,7.0922996 5.8701722,7.7650799 5.65625,8.5 C 5.0125701,10.711334 6.4451242,12.5 8.84375,12.5 C 9.757344,12.5 10.672765,12.22474 11.5,11.78125"
         style="fill:none;fill-opacity:1;stroke:#eeeeec;stroke-width:1;stroke-linecap:round;stroke-linejoin:miter;stroke-miterlimit:4;stroke-dasharray:none;stroke-dashoffset:0;stroke-opacity:1" />
      <path
         transform="matrix(1.3714287,0,0,0.9320388,-1.7365942,0.3133592)"
         d="M 5.8125 8.2578125 A 0.546875 0.8046875 0 1 1  4.71875,8.2578125 A 0.546875 0.8046875 0 1 1  5.8125 8.2578125 z"
         sodipodi:ry="0.8046875"
         sodipodi:rx="0.546875"
         sodipodi:cy="8.2578125"
         sodipodi:cx="5.265625"
         id="path6735"
         style="opacity:1;fill:#ffffff;fill-opacity:1;stroke:none;stroke-width:1;stroke-linecap:round;stroke-linejoin:miter;stroke-miterlimit:4;stroke-dasharray:none;stroke-dashoffset:0;stroke-opacity:1"
         sodipodi:type="arc" />
      <path
         transform="matrix(1.3714287,0,0,0.9320388,4.0970367,3.7163106)"
         d="M 5.8125 8.2578125 A 0.546875 0.8046875 0 1 1  4.71875,8.2578125 A 0.546875 0.8046875 0 1 1  5.8125 8.2578125 z"
         sodipodi:ry="0.8046875"
         sodipodi:rx="0.546875"
         sodipodi:cy="8.2578125"
         sodipodi:cx="5.265625"
         id="path6737"
         style="opacity:0.7;fill:#ffffff;fill-opacity:1;stroke:none;stroke-width:1;stroke-linecap:round;stroke-linejoin:miter;stroke-miterlimit:4;stroke-dasharray:none;stroke-dashoffset:0;stroke-opacity:1"
         sodipodi:type="arc" />
    </g>
    <g
       id="g6709"
       transform="translate(-4,9)">
      <path
         sodipodi:nodetypes="csc"
         id="path6711"
         d="M 5.65625,8.5 C 5.0125701,10.711334 6.4451242,12.5 8.84375,12.5 C 9.757344,12.5 10.672765,12.22474 11.5,11.78125"
         style="fill:none;fill-opacity:1;stroke:url(#radialGradient6350);stroke-width:3;stroke-linecap:round;stroke-linejoin:miter;stroke-miterlimit:4;stroke-dasharray:none;stroke-dashoffset:0;stroke-opacity:1" />
      <path
         sodipodi:nodetypes="cssc"
         id="path6713"
         d="M 6.84375,6.5 C 6.2961784,7.0922996 5.8701722,7.7650799 5.65625,8.5 C 5.0125701,10.711334 6.4451242,12.5 8.84375,12.5 C 9.757344,12.5 10.672765,12.22474 11.5,11.78125"
         style="fill:none;fill-opacity:1;stroke:#eeeeec;stroke-width:1;stroke-linecap:round;stroke-linejoin:miter;stroke-miterlimit:4;stroke-dasharray:none;stroke-dashoffset:0;stroke-opacity:1" />
      <path
         transform="matrix(1.3714287,0,0,0.9320388,-1.7365942,0.3133592)"
         d="M 5.8125 8.2578125 A 0.546875 0.8046875 0 1 1  4.71875,8.2578125 A 0.546875 0.8046875 0 1 1  5.8125 8.2578125 z"
         sodipodi:ry="0.8046875"
         sodipodi:rx="0.546875"
         sodipodi:cy="8.2578125"
         sodipodi:cx="5.265625"
         id="path6715"
         style="opacity:1;fill:#ffffff;fill-opacity:1;stroke:none;stroke-width:1;stroke-linecap:round;stroke-linejoin:miter;stroke-miterlimit:4;stroke-dasharray:none;stroke-dashoffset:0;stroke-opacity:1"
         sodipodi:type="arc" />
      <path
         transform="matrix(1.3714287,0,0,0.9320388,4.0970367,3.7163106)"
         d="M 5.8125 8.2578125 A 0.546875 0.8046875 0 1 1  4.71875,8.2578125 A 0.546875 0.8046875 0 1 1  5.8125 8.2578125 z"
         sodipodi:ry="0.8046875"
         sodipodi:rx="0.546875"
         sodipodi:cy="8.2578125"
         sodipodi:cx="5.265625"
         id="path6717"
         style="opacity:0.7;fill:#ffffff;fill-opacity:1;stroke:none;stroke-width:1;stroke-linecap:round;stroke-linejoin:miter;stroke-miterlimit:4;stroke-dasharray:none;stroke-dashoffset:0;stroke-opacity:1"
         sodipodi:type="arc" />
    </g>
    <g
       id="g6689"
       transform="translate(-4,3)">
      <path
         sodipodi:nodetypes="csc"
         id="path6691"
         d="M 5.65625,8.5 C 5.0125701,10.711334 6.4451242,12.5 8.84375,12.5 C 9.757344,12.5 10.672765,12.22474 11.5,11.78125"
         style="fill:none;fill-opacity:1;stroke:url(#radialGradient6348);stroke-width:3;stroke-linecap:round;stroke-linejoin:miter;stroke-miterlimit:4;stroke-dasharray:none;stroke-dashoffset:0;stroke-opacity:1" />
      <path
         sodipodi:nodetypes="cssc"
         id="path6693"
         d="M 6.84375,6.5 C 6.2961784,7.0922996 5.8701722,7.7650799 5.65625,8.5 C 5.0125701,10.711334 6.4451242,12.5 8.84375,12.5 C 9.757344,12.5 10.672765,12.22474 11.5,11.78125"
         style="fill:none;fill-opacity:1;stroke:#eeeeec;stroke-width:1;stroke-linecap:round;stroke-linejoin:miter;stroke-miterlimit:4;stroke-dasharray:none;stroke-dashoffset:0;stroke-opacity:1" />
      <path
         transform="matrix(1.3714287,0,0,0.9320388,-1.7365942,0.3133592)"
         d="M 5.8125 8.2578125 A 0.546875 0.8046875 0 1 1  4.71875,8.2578125 A 0.546875 0.8046875 0 1 1  5.8125 8.2578125 z"
         sodipodi:ry="0.8046875"
         sodipodi:rx="0.546875"
         sodipodi:cy="8.2578125"
         sodipodi:cx="5.265625"
         id="path6695"
         style="opacity:1;fill:#ffffff;fill-opacity:1;stroke:none;stroke-width:1;stroke-linecap:round;stroke-linejoin:miter;stroke-miterlimit:4;stroke-dasharray:none;stroke-dashoffset:0;stroke-opacity:1"
         sodipodi:type="arc" />
      <path
         transform="matrix(1.3714287,0,0,0.9320388,4.0970367,3.7163106)"
         d="M 5.8125 8.2578125 A 0.546875 0.8046875 0 1 1  4.71875,8.2578125 A 0.546875 0.8046875 0 1 1  5.8125 8.2578125 z"
         sodipodi:ry="0.8046875"
         sodipodi:rx="0.546875"
         sodipodi:cy="8.2578125"
         sodipodi:cx="5.265625"
         id="path6697"
         style="opacity:0.7;fill:#ffffff;fill-opacity:1;stroke:none;stroke-width:1;stroke-linecap:round;stroke-linejoin:miter;stroke-miterlimit:4;stroke-dasharray:none;stroke-dashoffset:0;stroke-opacity:1"
         sodipodi:type="arc" />
    </g>
    <g
       id="g6671"
       transform="translate(-4,-2)">
      <path
         sodipodi:nodetypes="csc"
         id="path6517"
         d="M 5.65625,8.5 C 5.0125701,10.711334 6.4451242,12.5 8.84375,12.5 C 9.757344,12.5 10.672765,12.22474 11.5,11.78125"
         style="fill:none;fill-opacity:1;stroke:url(#radialGradient6346);stroke-width:3;stroke-linecap:round;stroke-linejoin:miter;stroke-miterlimit:4;stroke-dasharray:none;stroke-dashoffset:0;stroke-opacity:1" />
      <path
         sodipodi:nodetypes="cssc"
         id="path6530"
         d="M 6.84375,6.5 C 6.2961784,7.0922996 5.8701722,7.7650799 5.65625,8.5 C 5.0125701,10.711334 6.4451242,12.5 8.84375,12.5 C 9.757344,12.5 10.672765,12.22474 11.5,11.78125"
         style="fill:none;fill-opacity:1;stroke:#eeeeec;stroke-width:1;stroke-linecap:round;stroke-linejoin:miter;stroke-miterlimit:4;stroke-dasharray:none;stroke-dashoffset:0;stroke-opacity:1" />
      <path
         transform="matrix(1.3714287,0,0,0.9320388,-1.7365942,0.3133592)"
         d="M 5.8125 8.2578125 A 0.546875 0.8046875 0 1 1  4.71875,8.2578125 A 0.546875 0.8046875 0 1 1  5.8125 8.2578125 z"
         sodipodi:ry="0.8046875"
         sodipodi:rx="0.546875"
         sodipodi:cy="8.2578125"
         sodipodi:cx="5.265625"
         id="path6667"
         style="opacity:1;fill:#ffffff;fill-opacity:1;stroke:none;stroke-width:1;stroke-linecap:round;stroke-linejoin:miter;stroke-miterlimit:4;stroke-dasharray:none;stroke-dashoffset:0;stroke-opacity:1"
         sodipodi:type="arc" />
      <path
         transform="matrix(1.3714287,0,0,0.9320388,4.0970367,3.7163106)"
         d="M 5.8125 8.2578125 A 0.546875 0.8046875 0 1 1  4.71875,8.2578125 A 0.546875 0.8046875 0 1 1  5.8125 8.2578125 z"
         sodipodi:ry="0.8046875"
         sodipodi:rx="0.546875"
         sodipodi:cy="8.2578125"
         sodipodi:cx="5.265625"
         id="path6669"
         style="opacity:0.7;fill:#ffffff;fill-opacity:1;stroke:none;stroke-width:1;stroke-linecap:round;stroke-linejoin:miter;stroke-miterlimit:4;stroke-dasharray:none;stroke-dashoffset:0;stroke-opacity:1"
         sodipodi:type="arc" />
    </g>
    <path
       style="font-size:23.55376053px;font-style:normal;font-weight:normal;fill:#ffffff;fill-opacity:1;stroke:none;stroke-width:1px;stroke-linecap:butt;stroke-linejoin:miter;stroke-opacity:1;font-family:Bitstream Vera Sans"
       d="M 15.670814,17.023381 C 15.670808,17.622633 15.793357,18.09521 16.038461,18.441115 C 16.288265,18.787025 16.625275,18.959978 17.04949,18.959976 C 17.468977,18.959978 17.80363,18.787025 18.053449,18.441115 C 18.303252,18.090339 18.428159,17.617761 18.428167,17.023381 C 18.428159,16.433882 18.300895,15.968612 18.046379,15.627571 C 17.79656,15.28167 17.45955,15.108716 17.03535,15.10871 C 16.620562,15.108716 16.288265,15.28167 16.038461,15.627571 C 15.793357,15.968612 15.670808,16.433882 15.670814,17.023381 M 18.56957,19.22306 C 18.428159,19.568969 18.199557,19.839362 17.883766,20.034239 C 17.572672,20.224244 17.207382,20.319247 16.787895,20.319247 C 15.97718,20.319247 15.317301,20.017187 14.808257,19.413067 C 14.303917,18.804076 14.051749,18.012387 14.051753,17.037997 C 14.051749,16.063615 14.306273,15.271926 14.815327,14.662928 C 15.324372,14.053943 15.981894,13.749447 16.787895,13.74944 C 17.207382,13.749447 17.572672,13.846886 17.883766,14.041756 C 18.199557,14.236641 18.428159,14.507032 18.56957,14.852934 L 18.56957,13.895599 L 20.047227,13.895599 L 20.047227,18.959976 C 20.631682,18.867412 21.09124,18.577532 21.425904,18.090335 C 21.760545,17.598273 21.927872,16.969794 21.927883,16.204896 C 21.927872,15.717707 21.859527,15.262182 21.72285,14.838317 C 21.586148,14.409594 21.378758,14.017403 21.100678,13.661745 C 20.652892,13.067377 20.091995,12.609415 19.417985,12.287859 C 18.74867,11.966321 18.022804,11.805546 17.240384,11.805538 C 16.69362,11.805546 16.17043,11.881061 15.670814,12.032083 C 15.171185,12.178249 14.709271,12.39505 14.285067,12.682486 C 13.587477,13.159944 13.043077,13.778679 12.651866,14.538694 C 12.265363,15.293849 12.072112,16.112334 12.072115,16.99415 C 12.072112,17.720072 12.197019,18.402142 12.446832,19.040364 C 12.701354,19.673716 13.066644,20.233989 13.542704,20.721181 C 14.014042,21.198631 14.553728,21.56159 15.161764,21.810059 C 15.774504,22.063398 16.427312,22.190068 17.120192,22.19007 C 17.714075,22.190068 18.307966,22.075578 18.901865,21.846598 C 19.495748,21.617617 20.00244,21.308249 20.421945,20.918495 L 21.178449,22.102375 C 20.589261,22.574952 19.945878,22.935475 19.248302,23.183945 C 18.55542,23.437283 17.850764,23.563953 17.134332,23.563957 C 16.262342,23.563953 15.43985,23.40318 14.666854,23.081635 C 13.893849,22.764957 13.20569,22.302123 12.602375,21.693133 C 11.999055,21.08414 11.539496,20.380147 11.223699,19.581148 C 10.907899,18.77728 10.749999,17.914949 10.75,16.99415 C 10.749999,16.107462 10.910255,15.262182 11.230769,14.458307 C 11.55128,13.654445 12.008481,12.948014 12.602375,12.339014 C 13.196263,11.734903 13.886779,11.267198 14.673925,10.935896 C 15.465774,10.604615 16.285909,10.43897 17.134332,10.438959 C 18.19013,10.43897 19.149311,10.648463 20.011877,11.067439 C 20.874422,11.481563 21.595576,12.080811 22.175338,12.865183 C 22.528833,13.342641 22.79514,13.861502 22.974263,14.421767 C 23.158074,14.977174 23.249985,15.561806 23.249999,16.175665 C 23.249985,17.495962 22.865842,18.521505 22.097567,19.252292 C 21.329267,19.983084 20.245181,20.348479 18.845304,20.348479 L 18.56957,20.348479 L 18.56957,19.22306"
       id="path6483" />
    <g
       style="display:inline"
       id="g5992"
       transform="translate(2.047998,-36.464016)">
      <path
         transform="matrix(1.14985,0,0,1.14985,-23.09153,35.3537)"
         d="M 47.000506 9.3411446 A 8.341651 8.341651 0 1 1  30.317204,9.3411446 A 8.341651 8.341651 0 1 1  47.000506 9.3411446 z"
         sodipodi:ry="8.341651"
         sodipodi:rx="8.341651"
         sodipodi:cy="9.3411446"
         sodipodi:cx="38.658855"
         id="path5988"
         style="fill:url(#radialGradient6283);fill-opacity:1;fill-rule:evenodd;stroke:none;stroke-width:1px;stroke-linecap:butt;stroke-linejoin:miter;stroke-opacity:1;display:inline"
         sodipodi:type="arc" />
      <path
         transform="matrix(0.674116,0.299577,-0.299577,0.674116,-3.207e-2,27.67034)"
         d="M 44.520054,15.50279 C 44.012883,16.381236 39.925351,15.341967 38.998703,15.754538 C 38.072055,16.167108 36.109289,19.900142 35.117113,19.689249 C 34.124936,19.478355 33.850222,15.26973 33.171495,14.515926 C 32.492767,13.762123 28.335913,13.048993 28.229885,12.040207 C 28.123857,11.031421 32.041607,9.4696164 32.548778,8.5911701 C 33.055949,7.7127238 32.449637,3.5389508 33.376285,3.1263806 C 34.302933,2.7138103 36.998949,5.957187 37.991126,6.1680807 C 38.983302,6.3789743 42.765436,4.5125708 43.444163,5.2663741 C 44.122891,6.0201775 41.871371,9.5864995 41.977399,10.595285 C 42.083426,11.604071 45.027225,14.624343 44.520054,15.50279 z "
         inkscape:randomized="0"
         inkscape:rounded="0.18352206"
         inkscape:flatsided="false"
         sodipodi:arg2="1.1519173"
         sodipodi:arg1="0.52359878"
         sodipodi:r2="5.0676599"
         sodipodi:r1="8.755579"
         sodipodi:cy="11.125"
         sodipodi:cx="36.9375"
         sodipodi:sides="5"
         id="path5990"
         style="opacity:1;color:#000000;fill:#ffffff;fill-opacity:1;fill-rule:evenodd;stroke:none;stroke-width:0.5;stroke-linecap:butt;stroke-linejoin:miter;marker:none;marker-start:none;marker-mid:none;marker-end:none;stroke-miterlimit:4;stroke-dasharray:none;stroke-dashoffset:0;stroke-opacity:1;visibility:visible;display:inline;overflow:visible"
         sodipodi:type="star" />
    </g>
  </g>
</svg>
