<?xml version="1.0" encoding="UTF-8" standalone="no"?>
<!-- Created with Inkscape (http://www.inkscape.org/) -->
<svg
   xmlns:dc="http://purl.org/dc/elements/1.1/"
   xmlns:cc="http://creativecommons.org/ns#"
   xmlns:rdf="http://www.w3.org/1999/02/22-rdf-syntax-ns#"
   xmlns:svg="http://www.w3.org/2000/svg"
   xmlns="http://www.w3.org/2000/svg"
   xmlns:xlink="http://www.w3.org/1999/xlink"
   xmlns:sodipodi="http://sodipodi.sourceforge.net/DTD/sodipodi-0.dtd"
   xmlns:inkscape="http://www.inkscape.org/namespaces/inkscape"
   width="32"
   height="32"
   id="svg2"
   sodipodi:version="0.32"
   inkscape:version="0.46"
   version="1.0"
   sodipodi:docbase="/home/lapo/Desktop/kenneth"
   sodipodi:docname="call-start.svg"
   inkscape:output_extension="org.inkscape.output.svg.inkscape">
  <defs
     id="defs4">
    <linearGradient
       id="linearGradient4801">
      <stop
         id="stop4803"
         offset="0"
         style="stop-color:#8ae234;stop-opacity:1" />
      <stop
         id="stop4805"
         offset="1"
         style="stop-color:#6dc714;stop-opacity:1" />
    </linearGradient>
    <linearGradient
       inkscape:collect="always"
       id="linearGradient2844">
      <stop
         style="stop-color:white;stop-opacity:1;"
         offset="0"
         id="stop2846" />
      <stop
         style="stop-color:white;stop-opacity:0;"
         offset="1"
         id="stop2848" />
    </linearGradient>
    <linearGradient
       inkscape:collect="always"
       id="linearGradient2964">
      <stop
         style="stop-color:black;stop-opacity:1;"
         offset="0"
         id="stop2966" />
      <stop
         style="stop-color:black;stop-opacity:0;"
         offset="1"
         id="stop2968" />
    </linearGradient>
    <linearGradient
       id="linearGradient2946">
      <stop
         style="stop-color:#8ae234;stop-opacity:1"
         offset="0"
         id="stop2948" />
      <stop
         style="stop-color:#73d216;stop-opacity:1"
         offset="1"
         id="stop2950" />
    </linearGradient>
    <linearGradient
       id="linearGradient2894">
      <stop
         style="stop-color:white;stop-opacity:1;"
         offset="0"
         id="stop2896" />
      <stop
         style="stop-color:white;stop-opacity:0.43629342"
         offset="1"
         id="stop2898" />
    </linearGradient>
    <radialGradient
       inkscape:collect="always"
       xlink:href="#linearGradient2946"
       id="radialGradient6193"
       gradientUnits="userSpaceOnUse"
       gradientTransform="matrix(0.7779357,-0.5099058,0.2249132,0.3431361,8.710057,35.620936)"
       cx="17.315821"
       cy="-18.43367"
       fx="17.315821"
       fy="-18.43367"
       r="20.988943" />
    <radialGradient
       inkscape:collect="always"
       xlink:href="#linearGradient4801"
       id="radialGradient6195"
       gradientUnits="userSpaceOnUse"
       gradientTransform="matrix(1.3852938,0,0,1.1828585,-2.1985396,-3.7252664)"
       cx="7.0907202"
       cy="22.561522"
       fx="7.0907202"
       fy="22.561522"
       r="5.4701443" />
    <radialGradient
       inkscape:collect="always"
       xlink:href="#linearGradient2946"
       id="radialGradient6197"
       gradientUnits="userSpaceOnUse"
       gradientTransform="matrix(1.065299,0,0,1.069873,-2.349853,-1.383156)"
       cx="35.407703"
       cy="21.517693"
       fx="35.407703"
       fy="21.517693"
       r="5.4555612" />
    <linearGradient
       inkscape:collect="always"
       xlink:href="#linearGradient2894"
       id="linearGradient6199"
       gradientUnits="userSpaceOnUse"
       x1="22.547333"
       y1="14.127917"
       x2="22.174427"
       y2="12.955575" />
    <linearGradient
       inkscape:collect="always"
       xlink:href="#linearGradient2844"
       id="linearGradient6201"
       gradientUnits="userSpaceOnUse"
       gradientTransform="translate(-118,2)"
       x1="92.586792"
       y1="6.5408134"
       x2="92.586792"
       y2="10.352213" />
    <linearGradient
       inkscape:collect="always"
       xlink:href="#linearGradient2844"
       id="linearGradient6203"
       gradientUnits="userSpaceOnUse"
       gradientTransform="translate(-118,2)"
       x1="72.375"
       y1="28.301006"
       x2="72.375"
       y2="31.375868" />
    <radialGradient
       inkscape:collect="always"
       xlink:href="#linearGradient2964"
       id="radialGradient6205"
       gradientUnits="userSpaceOnUse"
       gradientTransform="matrix(0.8106455,0,0,0.244745,-59.805832,30.548802)"
       cx="24.218407"
       cy="29"
       fx="24.218407"
       fy="29"
       r="24.218407" />
  </defs>
  <sodipodi:namedview
     id="base"
     pagecolor="#7d7d7d"
     bordercolor="#666666"
     borderopacity="1.0"
     inkscape:pageopacity="0"
     inkscape:pageshadow="2"
     inkscape:zoom="1"
     inkscape:cx="8.3000944"
     inkscape:cy="10.312445"
     inkscape:document-units="px"
     inkscape:current-layer="layer1"
     width="48px"
     height="48px"
     inkscape:showpageshadow="false"
     showgrid="false"
     inkscape:window-width="1043"
     inkscape:window-height="712"
     inkscape:window-x="50"
     inkscape:window-y="257"
     showguides="false"
     inkscape:guide-bbox="true"
     showborder="true"
     objecttolerance="10000"
     inkscape:object-nodes="false"
     inkscape:snap-nodes="false"
     gridtolerance="10000"
     guidetolerance="10000"
     inkscape:snap-bbox="true">
    <sodipodi:guide
       orientation="horizontal"
       position="26"
       id="guide2780" />
    <sodipodi:guide
       orientation="vertical"
       position="10.9375"
       id="guide2782" />
    <inkscape:grid
       id="GridFromPre046Settings"
       type="xygrid"
       originx="0px"
       originy="0px"
       spacingx="0.5px"
       spacingy="0.5px"
       color="#0000ff"
       empcolor="#0000ff"
       opacity="0.2"
       empopacity="0.4"
       empspacing="2"
       visible="true"
       enabled="true" />
  </sodipodi:namedview>
  <metadata
     id="metadata7">
    <rdf:RDF>
      <cc:Work
         rdf:about="">
        <dc:format>image/svg+xml</dc:format>
        <dc:type
           rdf:resource="http://purl.org/dc/dcmitype/StillImage" />
        <cc:license
           rdf:resource="http://www.gnu.org/licenses/lgpl.html" />
        <dc:creator>
          <cc:Agent>
            <dc:title>Lapo Calamandrei</dc:title>
          </cc:Agent>
        </dc:creator>
        <dc:title>Call Start</dc:title>
        <dc:subject>
          <rdf:Bag>
            <rdf:li>receiver</rdf:li>
            <rdf:li>phone</rdf:li>
            <rdf:li>call</rdf:li>
            <rdf:li>start</rdf:li>
            <rdf:li>answer</rdf:li>
          </rdf:Bag>
        </dc:subject>
      </cc:Work>
    </rdf:RDF>
  </metadata>
  <g
     inkscape:label="Livello 1"
     inkscape:groupmode="layer"
     id="layer1"
     style="display:inline">
    <g
       style="display:inline"
       id="g6165"
       transform="matrix(0.6671139,0,0,0.6671139,40.723871,-0.732604)">
      <rect
         y="31.719082"
         x="-59.805828"
         height="11.85473"
         width="39.265091"
         id="rect6167"
         style="opacity:0.2;fill:url(#radialGradient6205);fill-opacity:1;stroke:none;stroke-width:1;stroke-linecap:round;stroke-linejoin:miter;stroke-miterlimit:4;stroke-dasharray:none;stroke-dashoffset:0;stroke-opacity:1" />
      <g
         transform="matrix(-0.707107,0.707107,-0.707107,-0.707107,-0.7216,24.39662)"
         id="g6169">
        <rect
           style="fill:#8ae234;fill-opacity:1;stroke:#4e9a06;stroke-width:1.49899638;stroke-linecap:round;stroke-linejoin:miter;stroke-miterlimit:4;stroke-dasharray:none;stroke-dashoffset:0;stroke-opacity:1"
           id="rect6171"
           width="12.03427"
           height="4.000001"
           x="-3.9303646"
           y="28.78261"
           rx="2.0000005"
           ry="2.0000005"
           inkscape:transform-center-y="0.99612571"
           transform="matrix(0.9659258,-0.258819,0.258819,0.9659258,0,0)"
           inkscape:transform-center-x="-0.26691096" />
        <rect
           style="fill:#8ae234;fill-opacity:1;stroke:#4e9a06;stroke-width:1.49899614;stroke-linecap:round;stroke-linejoin:miter;stroke-miterlimit:4;stroke-dasharray:none;stroke-dashoffset:0;stroke-opacity:1"
           id="rect6173"
           width="12.03427"
           height="4.000001"
           x="-50.685425"
           y="16.252417"
           rx="2.0000005"
           ry="2.0000005"
           inkscape:transform-center-y="0.99612571"
           transform="matrix(-0.9659258,-0.258819,-0.258819,0.9659258,0,0)"
           inkscape:transform-center-x="-0.26691096" />
        <path
           style="opacity:1;fill:url(#radialGradient6193);fill-opacity:1;stroke:#4e9a06;stroke-width:1.49899435;stroke-linecap:round;stroke-linejoin:miter;stroke-miterlimit:4;stroke-dasharray:none;stroke-dashoffset:0;stroke-opacity:1"
           d="M 24,14.5 C 13.540342,14.5 4.9369948,19.115197 4.0625,25 C 3.4945247,26.229253 3.3411412,27.653245 3.71875,29.0625 C 3.8062083,29.388899 3.9270339,29.702183 4.0625,30 L 15.46875,26.9375 C 15.437158,26.61185 15.399959,26.263899 15.3125,25.9375 C 15.104309,25.160519 14.74048,24.477891 14.28125,23.875 C 15.658933,21.324703 19.487863,19.5 24,19.5 C 28.512138,19.5 32.341068,21.324703 33.71875,23.875 C 33.261083,24.476943 32.926458,25.162323 32.71875,25.9375 C 32.631291,26.263899 32.562841,26.611851 32.53125,26.9375 L 43.9375,30 C 44.072966,29.702183 44.193789,29.388898 44.28125,29.0625 C 44.666771,27.623715 44.503631,26.15269 43.90625,24.90625 C 42.954722,19.066284 34.403892,14.5 24,14.5 z"
           id="path6175" />
        <path
           sodipodi:type="inkscape:offset"
           inkscape:radius="-0.47406253"
           inkscape:original="M 10.34375 17.5625 C 9.5718404 17.454867 8.7685364 17.504448 7.96875 17.71875 C 4.769604 18.57596 2.8615416 21.863355 3.71875 25.0625 C 3.8062083 25.388899 3.9270339 25.702183 4.0625 26 L 15.46875 22.9375 C 15.437158 22.61185 15.399959 22.263899 15.3125 21.9375 C 14.669594 19.538141 12.659479 17.885398 10.34375 17.5625 z "
           style="fill:url(#radialGradient6195);fill-opacity:1;stroke:none;stroke-width:1.00000012;stroke-linecap:round;stroke-linejoin:miter;stroke-miterlimit:4;stroke-dasharray:none;stroke-dashoffset:0;stroke-opacity:1"
           id="path6177"
           d="M 10.28125,18.03125 C 9.5736169,17.93258 8.8345396,17.989006 8.09375,18.1875 C 5.1417658,18.978483 3.3968235,21.986655 4.1875,24.9375 C 4.2294144,25.093927 4.2860071,25.253209 4.34375,25.40625 L 14.9375,22.59375 C 14.913297,22.408905 14.887368,22.225284 14.84375,22.0625 C 14.250695,19.849188 12.415004,18.328774 10.28125,18.03125 z"
           transform="translate(0,4)" />
        <path
           sodipodi:type="inkscape:offset"
           inkscape:radius="-0.47841442"
           inkscape:original="M 37.6875 17.5625 C 35.371771 17.885399 33.361656 19.538141 32.71875 21.9375 C 32.631291 22.263899 32.562841 22.611851 32.53125 22.9375 L 43.9375 26 C 44.072966 25.702183 44.193789 25.388898 44.28125 25.0625 C 45.138458 21.863355 43.261646 18.575959 40.0625 17.71875 C 39.262714 17.504448 38.45941 17.454867 37.6875 17.5625 z "
           style="fill:url(#radialGradient6197);fill-opacity:1;stroke:none;stroke-width:1.00000012;stroke-linecap:round;stroke-linejoin:miter;stroke-miterlimit:4;stroke-dasharray:none;stroke-dashoffset:0;stroke-opacity:1"
           id="path6179"
           d="M 37.75,18.03125 C 35.617916,18.328542 33.780097,19.850896 33.1875,22.0625 C 33.139948,22.239965 33.125627,22.41277 33.09375,22.59375 L 43.65625,25.40625 C 43.713949,25.253325 43.770626,25.093772 43.8125,24.9375 C 44.603318,21.986127 42.886463,18.977673 39.9375,18.1875 C 39.197252,17.989151 38.457043,17.932662 37.75,18.03125 z"
           transform="translate(0,4)" />
        <path
           transform="translate(-1.7626838e-7,4.0000004)"
           style="opacity:0.61711713;fill:none;fill-opacity:1;stroke:url(#linearGradient6199);stroke-width:1.49899399;stroke-linecap:round;stroke-linejoin:round;stroke-miterlimit:4;stroke-dashoffset:0;stroke-opacity:1"
           d="M 24,11.96875 C 18.985528,11.96875 14.433876,13.091373 11.125,14.84375 C 7.8161239,16.596127 5.842811,18.911847 5.5,21.21875 C 5.4882861,21.357945 5.4567163,21.494748 5.40625,21.625 C 4.9767687,22.554514 4.8368692,23.612181 5.125,24.6875 C 5.0598845,24.444485 5.0898477,24.461033 5.1875,24.78125 C 5.1938418,24.802046 5.1820997,24.792797 5.1875,24.8125 C 5.2196399,24.914083 5.2405973,25.01887 5.25,25.125 C 5.2369949,24.963148 5.2158929,25.028961 5.25,25.15625 C 5.2501112,25.166666 5.2501112,25.177084 5.25,25.1875 L 5.6405307,26.796466 C 5.6483951,26.825816 5.6210321,26.778814 5.6717807,26.765216 L 14.453031,24.421466 C 14.482381,24.413602 14.466629,24.440966 14.453031,24.390216 C 14.45292,24.3798 14.312389,23.760416 14.3125,23.75 L 14.0625,22.75 C 14.10568,22.911153 14.105229,22.929577 14.03125,22.78125 C 13.97538,22.672341 13.933386,22.556857 13.90625,22.4375 C 13.856579,22.202065 13.862859,22.150565 13.90625,22.3125 C 13.752947,21.740363 13.487289,21.225624 13.125,20.75 C 12.784621,20.297186 12.735939,19.688669 13,19.1875 C 14.778079,15.89601 19.09311,14.03125 24,14.03125 C 28.906891,14.03125 33.221922,15.896009 35,19.1875 C 35.264061,19.688669 35.215379,20.297186 34.875,20.75 C 34.533316,21.199397 34.286797,21.708664 34.125,22.3125 C 34.122168,22.323071 34.107532,22.350846 34.09375,22.40625 C 34.069223,22.536325 34.027174,22.662474 33.96875,22.78125 C 33.9107,22.8851 33.905936,22.899048 33.9375,22.78125 L 33.781187,24.312123 C 33.781298,24.322539 33.781298,24.332957 33.781187,24.343373 C 33.767589,24.394122 33.751838,24.366759 33.781187,24.374623 L 42.562437,26.718373 C 42.562437,26.718373 42.492135,26.185602 42.5,26.15625 L 42.75,25.1875 C 42.749889,25.177084 42.749889,25.166666 42.75,25.15625 C 42.784106,25.028965 42.763005,24.963147 42.75,25.125 C 42.75704,25.008333 42.778023,24.892929 42.8125,24.78125 C 42.910149,24.461049 42.940112,24.444508 42.875,24.6875 C 43.169216,23.589469 43.04198,22.466484 42.59375,21.53125 C 42.535326,21.412474 42.493277,21.286325 42.46875,21.15625 C 42.095196,18.863576 40.112545,16.548801 36.8125,14.8125 C 33.512455,13.076199 28.987729,11.96875 24,11.96875 z"
           id="path6181"
           sodipodi:nodetypes="cssssssssccccsccsssssssssssccsccccsssssssc" />
      </g>
      <path
         id="path6183"
         d="M -25.40625,8.0625 L -27.78125,12.1875 C -27.323953,12.688682 -26.668901,13 -25.9375,13 C -24.557501,13 -23.437503,11.88 -23.4375,10.5 C -23.4375,9.303237 -24.282515,8.307286 -25.40625,8.0625 z"
         style="opacity:1;fill:url(#linearGradient6201);fill-opacity:1;stroke:none;stroke-width:1.29538584;stroke-linecap:round;stroke-linejoin:miter;stroke-miterlimit:4;stroke-dasharray:none;stroke-dashoffset:0;stroke-opacity:1;display:inline" />
      <path
         id="path6185"
         d="M -44.1875,29.6875 L -48.34375,32.125 C -48.063569,33.199325 -47.099192,34 -45.9375,34 C -44.557501,34 -43.437503,32.88 -43.4375,31.5 C -43.4375,30.7939 -43.716264,30.142261 -44.1875,29.6875 z"
         style="opacity:1;fill:url(#linearGradient6203);fill-opacity:1;stroke:none;stroke-width:1.29538584;stroke-linecap:round;stroke-linejoin:miter;stroke-miterlimit:4;stroke-dasharray:none;stroke-dashoffset:0;stroke-opacity:1;display:inline" />
      <path
         transform="translate(-118.5,1.1875)"
         d="M 91.96875,6.578125 A 0.734375,0.734375 0 1 1 90.5,6.578125 A 0.734375,0.734375 0 1 1 91.96875,6.578125 z"
         sodipodi:ry="0.734375"
         sodipodi:rx="0.734375"
         sodipodi:cy="6.578125"
         sodipodi:cx="91.234375"
         id="path6187"
         style="fill:#ecfbdd;fill-opacity:1;stroke:none;stroke-width:1;stroke-linecap:round;stroke-linejoin:miter;stroke-miterlimit:4;stroke-dasharray:none;stroke-dashoffset:0;stroke-opacity:1"
         sodipodi:type="arc" />
      <path
         transform="translate(-136.96875,22.15625)"
         d="M 91.96875,6.578125 A 0.734375,0.734375 0 1 1 90.5,6.578125 A 0.734375,0.734375 0 1 1 91.96875,6.578125 z"
         sodipodi:ry="0.734375"
         sodipodi:rx="0.734375"
         sodipodi:cy="6.578125"
         sodipodi:cx="91.234375"
         id="path6189"
         style="fill:#ecfbdd;fill-opacity:1;stroke:none;stroke-width:1;stroke-linecap:round;stroke-linejoin:miter;stroke-miterlimit:4;stroke-dasharray:none;stroke-dashoffset:0;stroke-opacity:1;display:inline"
         sodipodi:type="arc" />
    </g>
  </g>
  <g
     inkscape:groupmode="layer"
     id="layer2"
     inkscape:label="troiai"
     style="display:none">
    <path
       sodipodi:type="arc"
       style="opacity:0.9;fill:#ef2929;fill-opacity:1;stroke:#a40000;stroke-width:1.21590912;stroke-linecap:round;stroke-linejoin:miter;stroke-miterlimit:4;stroke-dasharray:none;stroke-dashoffset:0;stroke-opacity:1"
       id="path2763"
       sodipodi:cx="11.3125"
       sodipodi:cy="21.4375"
       sodipodi:rx="6.6875"
       sodipodi:ry="6.6875"
       d="M 18,21.4375 A 6.6875,6.6875 0 1 1 4.625,21.4375 A 6.6875,6.6875 0 1 1 18,21.4375 z"
       transform="matrix(0.82243,0,0,0.82243,-68.30374,4.369158)" />
    <path
       sodipodi:type="arc"
       style="opacity:0.9;fill:#ef2929;fill-opacity:1;stroke:#a40000;stroke-width:1.21590912;stroke-linecap:round;stroke-linejoin:miter;stroke-miterlimit:4;stroke-dasharray:none;stroke-dashoffset:0;stroke-opacity:1"
       id="path2765"
       sodipodi:cx="11.3125"
       sodipodi:cy="21.4375"
       sodipodi:rx="6.6875"
       sodipodi:ry="6.6875"
       d="M 18,21.4375 A 6.6875,6.6875 0 1 1 4.625,21.4375 A 6.6875,6.6875 0 1 1 18,21.4375 z"
       transform="matrix(0.82243,0,0,0.82243,-42.30374,4.369158)" />
    <path
       sodipodi:type="arc"
       style="opacity:0.6;fill:#ef2929;fill-opacity:1;stroke:#a40000;stroke-width:0.87122524;stroke-linecap:round;stroke-linejoin:miter;stroke-miterlimit:4;stroke-dasharray:none;stroke-dashoffset:0;stroke-opacity:1"
       id="path2767"
       sodipodi:cx="24.1875"
       sodipodi:cy="21.375"
       sodipodi:rx="16.5625"
       sodipodi:ry="9.75"
       d="M 40.75,21.375 A 16.5625,9.75 0 1 1 7.625,21.375 A 16.5625,9.75 0 1 1 40.75,21.375 z"
       transform="matrix(1.116981,0,0,1.179487,-73.01698,-3.211538)" />
    <path
       sodipodi:type="arc"
       style="opacity:0.6;fill:#ef2929;fill-opacity:1;stroke:#a40000;stroke-width:1.62041819;stroke-linecap:round;stroke-linejoin:miter;stroke-miterlimit:4;stroke-dasharray:none;stroke-dashoffset:0;stroke-opacity:1"
       id="path2769"
       sodipodi:cx="24.1875"
       sodipodi:cy="21.375"
       sodipodi:rx="16.5625"
       sodipodi:ry="9.75"
       d="M 40.75,21.375 A 16.5625,9.75 0 1 1 7.625,21.375 A 16.5625,9.75 0 1 1 40.75,21.375 z"
       transform="matrix(0.573586,0,0,0.663968,-59.87362,7.781372)" />
    <path
       style="opacity:0.6;fill:#ef2929;fill-opacity:1;stroke:#a40000;stroke-width:1;stroke-linecap:round;stroke-linejoin:miter;stroke-miterlimit:4;stroke-dasharray:none;stroke-dashoffset:0;stroke-opacity:1"
       d="M 23.99999,70.5 C 12.959975,70.5 3.9999611,75.652001 3.999961,82 L 13.729705,82 C 13.729624,81.989472 13.729705,81.97929 13.729705,81.96875 C 13.729705,78.395274 18.330782,75.5 23.99999,75.5 C 29.6692,75.5 34.270275,78.395274 34.270275,81.96875 C 34.270275,81.97929 34.270356,81.989472 34.270275,82 L 44.00002,82 C 44.00002,75.652001 35.040006,70.5 23.99999,70.5 z"
       id="path2805" />
    <path
       sodipodi:type="arc"
       style="opacity:0.9;fill:#ef2929;fill-opacity:1;stroke:#a40000;stroke-width:1.11458337;stroke-linecap:round;stroke-linejoin:miter;stroke-miterlimit:4;stroke-dasharray:none;stroke-dashoffset:0;stroke-opacity:1"
       id="path2807"
       sodipodi:cx="11.3125"
       sodipodi:cy="21.4375"
       sodipodi:rx="6.6875"
       sodipodi:ry="6.6875"
       d="M 18,21.4375 A 6.6875,6.6875 0 1 1 4.625,21.4375 A 6.6875,6.6875 0 1 1 18,21.4375 z"
       transform="matrix(0.897196,0,0,0.897196,-0.649528,64.26636)" />
    <path
       sodipodi:type="arc"
       style="opacity:0.9;fill:#ef2929;fill-opacity:1;stroke:#a40000;stroke-width:1.11458337;stroke-linecap:round;stroke-linejoin:miter;stroke-miterlimit:4;stroke-dasharray:none;stroke-dashoffset:0;stroke-opacity:1"
       id="path2809"
       sodipodi:cx="11.3125"
       sodipodi:cy="21.4375"
       sodipodi:rx="6.6875"
       sodipodi:ry="6.6875"
       d="M 18,21.4375 A 6.6875,6.6875 0 1 1 4.625,21.4375 A 6.6875,6.6875 0 1 1 18,21.4375 z"
       transform="matrix(0.897196,0,0,0.897196,28.35047,64.26636)" />
    <path
       style="fill:#ef2929;fill-opacity:1;stroke:#a40000;stroke-width:1.00000012;stroke-linecap:round;stroke-linejoin:miter;stroke-miterlimit:4;stroke-dasharray:none;stroke-dashoffset:0;stroke-opacity:1"
       d="M 7.9557575,-22.292184 C 4.7566116,-21.434975 2.8559071,-18.142859 3.7131155,-14.943714 C 3.8005738,-14.617315 3.927024,-14.299869 4.0624901,-14.002052 L 15.472491,-17.059351 C 15.440899,-17.385001 15.391686,-17.723143 15.304227,-18.049542 C 14.447019,-21.248687 11.154903,-23.149392 7.9557575,-22.292184 z"
       id="path2840"
       inkscape:transform-center-x="0.027159543"
       inkscape:transform-center-y="-1.7187079" />
    <path
       style="fill:#ef2929;fill-opacity:1;stroke:#a40000;stroke-width:1.00000012;stroke-linecap:round;stroke-linejoin:miter;stroke-miterlimit:4;stroke-dasharray:none;stroke-dashoffset:0;stroke-opacity:1"
       d="M 40.051683,-22.294327 C 43.250828,-21.437118 45.151533,-18.145002 44.294325,-14.945857 C 44.206866,-14.619458 44.080416,-14.302012 43.94495,-14.004195 L 32.534949,-17.061494 C 32.566541,-17.387144 32.615754,-17.725286 32.703213,-18.051685 C 33.560421,-21.25083 36.852537,-23.151535 40.051683,-22.294327 z"
       id="path2842"
       inkscape:transform-center-x="0.027159543"
       inkscape:transform-center-y="-1.7187079" />
  </g>
</svg>
