<?xml version="1.0" encoding="UTF-8" standalone="no"?>
<!-- Created with Inkscape (http://www.inkscape.org/) -->
<svg
   xmlns:dc="http://purl.org/dc/elements/1.1/"
   xmlns:cc="http://web.resource.org/cc/"
   xmlns:rdf="http://www.w3.org/1999/02/22-rdf-syntax-ns#"
   xmlns:svg="http://www.w3.org/2000/svg"
   xmlns="http://www.w3.org/2000/svg"
   xmlns:xlink="http://www.w3.org/1999/xlink"
   xmlns:sodipodi="http://sodipodi.sourceforge.net/DTD/sodipodi-0.dtd"
   xmlns:inkscape="http://www.inkscape.org/namespaces/inkscape"
   width="32"
   height="32"
   id="svg4289"
   sodipodi:version="0.32"
   inkscape:version="0.45"
   sodipodi:docbase="/home/lapo/Icone/gnome-icon-theme/32x32/actions"
   sodipodi:docname="edit-cut.svg"
   version="1.0"
   inkscape:output_extension="org.inkscape.output.svg.inkscape"
   sodipodi:modified="true">
  <defs
     id="defs4291">
    <linearGradient
       inkscape:collect="always"
       id="linearGradient4896">
      <stop
         style="stop-color:black;stop-opacity:1;"
         offset="0"
         id="stop4898" />
      <stop
         style="stop-color:black;stop-opacity:0;"
         offset="1"
         id="stop4900" />
    </linearGradient>
    <radialGradient
       inkscape:collect="always"
       xlink:href="#linearGradient4896"
       id="radialGradient4902"
       cx="10.734375"
       cy="26.921875"
       fx="10.734375"
       fy="26.921875"
       r="5.390625"
       gradientTransform="matrix(1,0,0,0.344928,0,17.63578)"
       gradientUnits="userSpaceOnUse" />
    <radialGradient
       inkscape:collect="always"
       xlink:href="#linearGradient4896"
       id="radialGradient4904"
       cx="10.734375"
       cy="26.921875"
       fx="10.734375"
       fy="26.921875"
       r="5.390625"
       gradientTransform="matrix(1,0,0,0.344928,0,17.63578)"
       gradientUnits="userSpaceOnUse" />
    <radialGradient
       inkscape:collect="always"
       xlink:href="#linearGradient4896"
       id="radialGradient4908"
       gradientUnits="userSpaceOnUse"
       gradientTransform="matrix(1,0,0,0.344928,0,17.63578)"
       cx="10.734375"
       cy="26.921875"
       fx="10.734375"
       fy="26.921875"
       r="5.390625" />
  </defs>
  <sodipodi:namedview
     id="base"
     pagecolor="#ffffff"
     bordercolor="#666"
     borderopacity="1"
     inkscape:pageopacity="0.0"
     inkscape:pageshadow="2"
     inkscape:zoom="1"
     inkscape:cx="35.228453"
     inkscape:cy="12.231717"
     inkscape:current-layer="layer1"
     showgrid="true"
     inkscape:grid-bbox="true"
     inkscape:document-units="px"
     showguides="true"
     inkscape:guide-bbox="true"
     inkscape:window-width="1085"
     inkscape:window-height="807"
     inkscape:window-x="195"
     inkscape:window-y="91"
     inkscape:showpageshadow="false"
     width="32px"
     height="32px"
     showborder="false" />
  <metadata
     id="metadata4294">
    <rdf:RDF>
      <cc:Work
         rdf:about="">
        <dc:format>image/svg+xml</dc:format>
        <dc:type
           rdf:resource="http://purl.org/dc/dcmitype/StillImage" />
        <cc:license
           rdf:resource="http://creativecommons.org/licenses/GPL/2.0/" />
        <dc:title>Edit Cut</dc:title>
        <dc:date>2006-09-29</dc:date>
        <dc:creator>
          <cc:Agent>
            <dc:title>Lapo Calamandrei</dc:title>
          </cc:Agent>
        </dc:creator>
        <dc:source>http://www.gnome.org</dc:source>
        <dc:subject>
          <rdf:Bag>
            <rdf:li>edit</rdf:li>
            <rdf:li>cut</rdf:li>
            <rdf:li>scissors</rdf:li>
          </rdf:Bag>
        </dc:subject>
        <dc:description />
        <dc:contributor>
          <cc:Agent>
            <dc:title />
          </cc:Agent>
        </dc:contributor>
      </cc:Work>
      <cc:License
         rdf:about="http://creativecommons.org/licenses/GPL/2.0/">
        <cc:permits
           rdf:resource="http://web.resource.org/cc/Reproduction" />
        <cc:permits
           rdf:resource="http://web.resource.org/cc/Distribution" />
        <cc:requires
           rdf:resource="http://web.resource.org/cc/Notice" />
        <cc:permits
           rdf:resource="http://web.resource.org/cc/DerivativeWorks" />
        <cc:requires
           rdf:resource="http://web.resource.org/cc/ShareAlike" />
        <cc:requires
           rdf:resource="http://web.resource.org/cc/SourceCode" />
      </cc:License>
    </rdf:RDF>
  </metadata>
  <g
     id="layer1"
     inkscape:label="Layer 1"
     inkscape:groupmode="layer">
    <path
       sodipodi:nodetypes="cccc"
       id="path10844"
       d="M 10.298114,6.0451525 L 18.436577,19.688854 L 10.898774,4.7443735 L 10.298114,6.0451525 z "
       style="opacity:0.6;fill:white;fill-opacity:1;fill-rule:evenodd;stroke:none;stroke-width:1px;stroke-linecap:butt;stroke-linejoin:miter;stroke-opacity:1" />
    <path
       sodipodi:type="arc"
       style="opacity:0.1;color:black;fill:url(#radialGradient4908);fill-opacity:1;fill-rule:nonzero;stroke:none;stroke-width:1;stroke-linecap:round;stroke-linejoin:round;marker:none;marker-start:none;marker-mid:none;marker-end:none;stroke-miterlimit:4;stroke-dasharray:none;stroke-dashoffset:1.4;stroke-opacity:0.47058824;visibility:visible;display:inline;overflow:visible"
       id="path4906"
       sodipodi:cx="10.734375"
       sodipodi:cy="26.921875"
       sodipodi:rx="5.390625"
       sodipodi:ry="1.859375"
       d="M 16.125 26.921875 A 5.390625 1.859375 0 1 1  5.34375,26.921875 A 5.390625 1.859375 0 1 1  16.125 26.921875 z"
       transform="matrix(1.02029,0,0,1.613449,5.54782,-19.43705)" />
    <path
       style="fill:#d9d6d0;fill-opacity:1;fill-rule:evenodd;stroke:#888a85;stroke-width:0.9999997px;stroke-linecap:butt;stroke-linejoin:miter;stroke-opacity:1"
       d="M 9.9537684,4.0999435 C 9.9537684,4.0999435 8.5282527,5.6838105 8.5000669,9.7003965 C 8.4718811,13.752329 17.255301,21.862998 17.255301,21.862998 L 18.624062,20.731594 L 9.9537684,4.0999435 z "
       id="path10784"
       sodipodi:nodetypes="czccc" />
    <path
       style="opacity:0.4;fill:none;fill-opacity:1;fill-rule:evenodd;stroke:white;stroke-width:1px;stroke-linecap:butt;stroke-linejoin:miter;stroke-opacity:1"
       d="M 10.207882,5.7941545 C 10.207882,5.7941545 9.5946029,6.9591025 9.5008538,9.7717675 C 9.4071046,12.609429 17.073161,21.02686 17.073161,21.02686 L 17.761241,20.655849 L 10.207882,5.7941545 z "
       id="path10848"
       sodipodi:nodetypes="czccc" />
    <path
       sodipodi:nodetypes="ccccc"
       id="path12233"
       d="M 9,7.2569025 L 17.280341,20.280161 L 17.792034,19.879926 L 9.9187202,4.9354425 L 9,7.2569025 z "
       style="opacity:0.8;fill:white;fill-opacity:1;fill-rule:evenodd;stroke:none;stroke-width:1px;stroke-linecap:butt;stroke-linejoin:miter;stroke-opacity:1" />
    <path
       sodipodi:type="arc"
       style="opacity:0.5;color:black;fill:url(#radialGradient4902);fill-opacity:1.0;fill-rule:nonzero;stroke:none;stroke-width:1;stroke-linecap:round;stroke-linejoin:round;marker:none;marker-start:none;marker-mid:none;marker-end:none;stroke-miterlimit:4;stroke-dasharray:none;stroke-dashoffset:1.4;stroke-opacity:0.47058824;visibility:visible;display:inline;overflow:visible"
       id="path3122"
       sodipodi:cx="10.734375"
       sodipodi:cy="26.921875"
       sodipodi:rx="5.390625"
       sodipodi:ry="1.859375"
       d="M 16.125 26.921875 A 5.390625 1.859375 0 1 1  5.34375,26.921875 A 5.390625 1.859375 0 1 1  16.125 26.921875 z"
       transform="matrix(1.02029,0,0,1.34454,-0.452176,-9.697532)" />
    <path
       sodipodi:type="arc"
       style="opacity:0.5;color:black;fill:url(#radialGradient4904);fill-opacity:1.0;fill-rule:nonzero;stroke:none;stroke-width:1;stroke-linecap:round;stroke-linejoin:round;marker:none;marker-start:none;marker-mid:none;marker-end:none;stroke-miterlimit:4;stroke-dasharray:none;stroke-dashoffset:1.4;stroke-opacity:0.47058824;visibility:visible;display:inline;overflow:visible"
       id="path4009"
       sodipodi:cx="10.734375"
       sodipodi:cy="26.921875"
       sodipodi:rx="5.390625"
       sodipodi:ry="1.859375"
       d="M 16.125 26.921875 A 5.390625 1.859375 0 1 1  5.34375,26.921875 A 5.390625 1.859375 0 1 1  16.125 26.921875 z"
       transform="matrix(0.927537,0,0,1.34454,12.04347,-9.697532)" />
    <path
       sodipodi:nodetypes="cscccsccsccss"
       style="fill:#ef2929;fill-opacity:1;stroke:#a40000;stroke-width:1.06796908;stroke-linecap:round;stroke-linejoin:miter;stroke-miterlimit:4;stroke-dasharray:none;stroke-opacity:1"
       d="M 21.166279,27.465654 C 23.518058,27.430754 24.466011,25.69435 24.466011,23.51185 C 24.466011,21.465756 23.159493,19.781233 21.496252,19.578638 L 18.402752,19.558047 L 16.546652,21.349613 C 16.992479,22.212965 17.809841,22.950835 17.825299,23.614814 C 17.856822,25.002124 18.815231,27.500542 21.166279,27.465654 z M 21.452067,25.427371 C 20.382676,25.486947 19.482372,24.559602 19.442234,23.635406 L 19.323002,20.889991 L 20.990214,20.910583 C 22.658094,21.003798 22.626569,23.444469 22.584977,24.013395 C 22.546019,24.546268 22.14252,25.388905 21.452067,25.427371 z "
       id="path10822" />
    <path
       style="fill:#d9d6d0;fill-opacity:1;fill-rule:evenodd;stroke:#888a85;stroke-width:0.99999958px;stroke-linecap:butt;stroke-linejoin:miter;stroke-opacity:1"
       d="M 22.008081,3.7052085 C 22.008081,3.7052085 23.508705,5.4973965 23.499956,9.2878805 C 23.491206,13.078277 14.740869,21.588609 14.740869,21.588609 L 13.110111,20.284055 L 22.008081,3.7052085 z "
       id="path10786"
       sodipodi:nodetypes="czccc" />
    <path
       style="opacity:0.4;fill:none;fill-opacity:1;fill-rule:evenodd;stroke:white;stroke-width:1.00000012px;stroke-linecap:butt;stroke-linejoin:miter;stroke-opacity:1"
       d="M 21.772821,5.2828465 C 21.772821,5.2828465 22.402823,6.4477955 22.499128,9.2604615 C 22.595433,12.098122 14.720352,20.515552 14.720352,20.515552 L 14.01351,20.144542 L 21.772821,5.2828465 z "
       id="path10846"
       sodipodi:nodetypes="czccc" />
    <path
       sodipodi:nodetypes="cscccsccsccsc"
       style="fill:#ef2929;fill-opacity:1;stroke:#a40000;stroke-width:1.06797016;stroke-linecap:round;stroke-linejoin:miter;stroke-miterlimit:4;stroke-dasharray:none;stroke-opacity:1"
       d="M 10.141439,27.465649 C 7.570342,27.430749 6.533985,25.694345 6.533985,23.511848 C 6.533985,21.465755 7.962345,19.781233 9.780694,19.578639 L 13.162682,19.558046 L 15.191875,21.349612 C 14.704472,22.212964 13.810886,22.950834 13.793986,23.614812 C 13.759523,25.002122 12.711737,27.500538 10.141439,27.465649 z M 10.118893,25.456657 C 11.01534,25.456657 11.555189,24.56037 11.539715,23.635404 L 11.494244,20.917165 L 9.893427,20.937758 C 8.843023,21.072823 8.34036,22.23079 8.34036,23.594883 C 8.34036,25.049917 9.270251,25.558943 10.118893,25.456657 z "
       id="path10805" />
    <path
       sodipodi:nodetypes="ccccc"
       id="path10842"
       d="M 23,6.7830475 L 14.466477,19.806304 L 13.939138,19.40607 L 22.05319,4.4615875 L 23,6.7830475 z "
       style="opacity:0.8;fill:white;fill-opacity:1;fill-rule:evenodd;stroke:none;stroke-width:1px;stroke-linecap:butt;stroke-linejoin:miter;stroke-opacity:1" />
    <path
       sodipodi:nodetypes="cscccsc"
       style="opacity:0.2;fill:none;fill-opacity:1;stroke:white;stroke-width:1.06796944;stroke-linecap:round;stroke-linejoin:miter;stroke-miterlimit:4;stroke-dasharray:none;stroke-opacity:1"
       d="M 10.4045,26.489852 C 8.442512,26.463673 7.872646,25.202097 7.872646,23.564919 C 7.872646,22.030064 8.741647,20.725467 10.129219,20.573493 L 12.709994,20.558047 L 13.873807,21.551447 C 13.481086,22.105758 12.838152,22.692489 12.825256,23.190565 C 12.798957,24.231242 12.365881,26.516023 10.4045,26.489852 z "
       id="path12235" />
    <path
       sodipodi:nodetypes="cscccsc"
       style="opacity:0.2;fill:none;fill-opacity:1;stroke:white;stroke-width:1.06797004;stroke-linecap:round;stroke-linejoin:miter;stroke-miterlimit:4;stroke-dasharray:none;stroke-opacity:1"
       d="M 21.102883,26.489849 C 22.934127,26.46367 23.466015,25.120153 23.466015,23.482973 C 23.466015,21.948117 22.654926,20.725459 21.359821,20.573486 L 18.951024,20.558039 L 17.864768,21.592407 C 18.231322,22.146718 18.83141,22.692482 18.843448,23.190559 C 18.867993,24.231237 19.272207,26.51602 21.102883,26.489849 z "
       id="path12237" />
    <path
       sodipodi:type="arc"
       style="color:black;fill:white;fill-opacity:1;fill-rule:nonzero;stroke:#888a85;stroke-width:1.4274683;stroke-linecap:butt;stroke-linejoin:miter;marker:none;marker-start:none;marker-mid:none;marker-end:none;stroke-miterlimit:4;stroke-dasharray:none;stroke-dashoffset:0;stroke-opacity:1;visibility:visible;display:inline;overflow:visible"
       id="path2797"
       sodipodi:cx="31.28125"
       sodipodi:cy="22.90625"
       sodipodi:rx="1.21875"
       sodipodi:ry="1.21875"
       d="M 32.5 22.90625 A 1.21875 1.21875 0 1 1  30.0625,22.90625 A 1.21875 1.21875 0 1 1  32.5 22.90625 z"
       transform="matrix(0.701223,0,0,0.699859,-6.219253,2.07617)" />
    <path
       style="opacity:0.15577889;color:black;fill:black;fill-opacity:1;fill-rule:nonzero;stroke:none;stroke-width:1;stroke-linecap:butt;stroke-linejoin:miter;marker:none;marker-start:none;marker-mid:none;marker-end:none;stroke-miterlimit:4;stroke-dasharray:none;stroke-dashoffset:0;stroke-opacity:1;visibility:visible;display:inline;overflow:visible"
       d="M 13.955228,17.834922 L 15.411757,15.051248 L 14.915917,14.123357 L 13.955228,17.834922 z "
       id="path2799" />
    <path
       sodipodi:type="arc"
       style="opacity:0.64824123;color:black;fill:white;fill-opacity:1;fill-rule:nonzero;stroke:none;stroke-width:1;stroke-linecap:butt;stroke-linejoin:miter;marker:none;marker-start:none;marker-mid:none;marker-end:none;stroke-miterlimit:4;stroke-dasharray:none;stroke-dashoffset:0;stroke-opacity:1;visibility:visible;display:inline;overflow:visible"
       id="path2801"
       sodipodi:cx="37.498756"
       sodipodi:cy="12.357399"
       sodipodi:rx="0.59662133"
       sodipodi:ry="0.59662133"
       d="M 38.095378 12.357399 A 0.59662133 0.59662133 0 1 1  36.902135,12.357399 A 0.59662133 0.59662133 0 1 1  38.095378 12.357399 z"
       transform="matrix(0.87527,0,0,-0.873567,-14.34374,32.29675)" />
    <path
       transform="matrix(0.838053,0,0,-0.838053,-22.92593,31.88021)"
       d="M 38.095378 12.357399 A 0.59662133 0.59662133 0 1 1  36.902135,12.357399 A 0.59662133 0.59662133 0 1 1  38.095378 12.357399 z"
       sodipodi:ry="0.59662133"
       sodipodi:rx="0.59662133"
       sodipodi:cy="12.357399"
       sodipodi:cx="37.498756"
       id="path2803"
       style="opacity:0.64824123;color:black;fill:white;fill-opacity:1;fill-rule:nonzero;stroke:none;stroke-width:1;stroke-linecap:butt;stroke-linejoin:miter;marker:none;marker-start:none;marker-mid:none;marker-end:none;stroke-miterlimit:4;stroke-dasharray:none;stroke-dashoffset:0;stroke-opacity:1;visibility:visible;display:inline;overflow:visible"
       sodipodi:type="arc" />
    <path
       transform="matrix(1.148272,0,0,1.146038,-27.55623,3.30526)"
       d="M 38.095378 12.357399 A 0.59662133 0.59662133 0 1 1  36.902135,12.357399 A 0.59662133 0.59662133 0 1 1  38.095378 12.357399 z"
       sodipodi:ry="0.59662133"
       sodipodi:rx="0.59662133"
       sodipodi:cy="12.357399"
       sodipodi:cx="37.498756"
       id="path2805"
       style="color:black;fill:white;fill-opacity:1;fill-rule:nonzero;stroke:none;stroke-width:1;stroke-linecap:butt;stroke-linejoin:miter;marker:none;marker-start:none;marker-mid:none;marker-end:none;stroke-miterlimit:4;stroke-dasharray:none;stroke-dashoffset:0;stroke-opacity:1;visibility:visible;display:inline;overflow:visible"
       sodipodi:type="arc" />
  </g>
</svg>
