<?xml version="1.0" encoding="UTF-8" standalone="no"?>
<!-- Created with Inkscape (http://www.inkscape.org/) -->
<svg
   xmlns:dc="http://purl.org/dc/elements/1.1/"
   xmlns:cc="http://web.resource.org/cc/"
   xmlns:rdf="http://www.w3.org/1999/02/22-rdf-syntax-ns#"
   xmlns:svg="http://www.w3.org/2000/svg"
   xmlns="http://www.w3.org/2000/svg"
   xmlns:xlink="http://www.w3.org/1999/xlink"
   xmlns:sodipodi="http://sodipodi.sourceforge.net/DTD/sodipodi-0.dtd"
   xmlns:inkscape="http://www.inkscape.org/namespaces/inkscape"
   width="32"
   height="32"
   id="svg2"
   sodipodi:version="0.32"
   inkscape:version="0.45"
   version="1.0"
   sodipodi:docname="edit-clear.svg"
   inkscape:output_extension="org.inkscape.output.svg.inkscape"
   sodipodi:docbase="/home/dobey/Projects/gnome-icon-theme/32x32/actions">
  <defs
     id="defs4">
    <linearGradient
       inkscape:collect="always"
       id="linearGradient6019">
      <stop
         style="stop-color:#000000;stop-opacity:1;"
         offset="0"
         id="stop6021" />
      <stop
         style="stop-color:#000000;stop-opacity:0;"
         offset="1"
         id="stop6023" />
    </linearGradient>
    <linearGradient
       inkscape:collect="always"
       id="linearGradient5999">
      <stop
         style="stop-color:#c4a000;stop-opacity:1;"
         offset="0"
         id="stop6001" />
      <stop
         style="stop-color:#c4a000;stop-opacity:0;"
         offset="1"
         id="stop6003" />
    </linearGradient>
    <linearGradient
       inkscape:collect="always"
       id="linearGradient5987">
      <stop
         style="stop-color:#d7c20f;stop-opacity:1"
         offset="0"
         id="stop5989" />
      <stop
         style="stop-color:#b6970d;stop-opacity:1"
         offset="1"
         id="stop5991" />
    </linearGradient>
    <linearGradient
       id="linearGradient5981"
       inkscape:collect="always">
      <stop
         id="stop5983"
         offset="0"
         style="stop-color:#ffffff;stop-opacity:1;" />
      <stop
         id="stop5985"
         offset="1"
         style="stop-color:#ffffff;stop-opacity:0.69411765" />
    </linearGradient>
    <linearGradient
       inkscape:collect="always"
       id="linearGradient5996">
      <stop
         style="stop-color:#8f5902;stop-opacity:1;"
         offset="0"
         id="stop5998" />
      <stop
         style="stop-color:#73521e;stop-opacity:1"
         offset="1"
         id="stop6000" />
    </linearGradient>
    <linearGradient
       inkscape:collect="always"
       id="linearGradient5984">
      <stop
         style="stop-color:#ffffff;stop-opacity:1;"
         offset="0"
         id="stop5986" />
      <stop
         style="stop-color:#ffffff;stop-opacity:0.13438736"
         offset="1"
         id="stop5988" />
    </linearGradient>
    <linearGradient
       inkscape:collect="always"
       id="linearGradient5974">
      <stop
         style="stop-color:#ad7fa8;stop-opacity:1;"
         offset="0"
         id="stop5976" />
      <stop
         style="stop-color:#dac6d8;stop-opacity:1"
         offset="1"
         id="stop5978" />
    </linearGradient>
    <linearGradient
       inkscape:collect="always"
       id="linearGradient5966">
      <stop
         style="stop-color:#fdef72;stop-opacity:1"
         offset="0"
         id="stop5968" />
      <stop
         style="stop-color:#e2cb0b;stop-opacity:1"
         offset="1"
         id="stop5970" />
    </linearGradient>
    <linearGradient
       inkscape:collect="always"
       id="linearGradient5958">
      <stop
         style="stop-color:#c17d11;stop-opacity:1;"
         offset="0"
         id="stop5960" />
      <stop
         style="stop-color:#e9b96e;stop-opacity:1"
         offset="1"
         id="stop5962" />
    </linearGradient>
    <linearGradient
       inkscape:collect="always"
       xlink:href="#linearGradient5958"
       id="linearGradient5964"
       x1="28"
       y1="16"
       x2="26"
       y2="8"
       gradientUnits="userSpaceOnUse"
       gradientTransform="matrix(0.680655,0,0,0.6797837,-1.4100242,-0.1775122)" />
    <linearGradient
       inkscape:collect="always"
       xlink:href="#linearGradient5966"
       id="linearGradient5972"
       x1="20.933708"
       y1="25.060659"
       x2="30.208115"
       y2="30.742676"
       gradientUnits="userSpaceOnUse"
       gradientTransform="matrix(0.7371212,0,0,0.7141045,-2.9306795,-1.2553357)" />
    <linearGradient
       inkscape:collect="always"
       xlink:href="#linearGradient5974"
       id="linearGradient5980"
       x1="27.651777"
       y1="23.145937"
       x2="21.59099"
       y2="20.618719"
       gradientUnits="userSpaceOnUse"
       gradientTransform="matrix(0.6708325,0,0,0.7034953,-1.2546478,-1.2181575)" />
    <linearGradient
       inkscape:collect="always"
       xlink:href="#linearGradient5981"
       id="linearGradient5973"
       gradientUnits="userSpaceOnUse"
       x1="22.319767"
       y1="41.955986"
       x2="18.985712"
       y2="37.029255"
       gradientTransform="matrix(0.7049306,0,0,0.6936664,-2.193952,-0.6391615)" />
    <linearGradient
       inkscape:collect="always"
       xlink:href="#linearGradient5987"
       id="linearGradient5993"
       x1="17.032078"
       y1="27.446827"
       x2="29.494455"
       y2="37.845814"
       gradientUnits="userSpaceOnUse"
       gradientTransform="matrix(0.7371212,0,0,0.7141045,-2.9306795,-1.2553357)" />
    <linearGradient
       inkscape:collect="always"
       xlink:href="#linearGradient5999"
       id="linearGradient6005"
       x1="27.091955"
       y1="36.076248"
       x2="23.489431"
       y2="34.728424"
       gradientUnits="userSpaceOnUse"
       gradientTransform="matrix(0.7031808,0,0,0.7040288,-2.2190858,-1.0893596)" />
    <radialGradient
       inkscape:collect="always"
       xlink:href="#linearGradient6019"
       id="radialGradient6025"
       cx="38"
       cy="69"
       fx="28.603323"
       fy="69"
       r="20"
       gradientTransform="matrix(1,0,0,0.45,0,37.95)"
       gradientUnits="userSpaceOnUse" />
    <linearGradient
       inkscape:collect="always"
       xlink:href="#linearGradient5984"
       id="linearGradient5447"
       gradientUnits="userSpaceOnUse"
       gradientTransform="matrix(0.6076684,0,0,0.5970213,1.0527902,0.4980868)"
       x1="28"
       y1="8"
       x2="33.447109"
       y2="16.685888" />
    <linearGradient
       inkscape:collect="always"
       xlink:href="#linearGradient5996"
       id="linearGradient6033"
       gradientUnits="userSpaceOnUse"
       gradientTransform="matrix(0.680655,0,0,0.6797837,-1.4100242,-0.1775122)"
       x1="30.324829"
       y1="9.2407961"
       x2="34"
       y2="18" />
    <linearGradient
       inkscape:collect="always"
       xlink:href="#linearGradient5996"
       id="linearGradient6036"
       gradientUnits="userSpaceOnUse"
       gradientTransform="matrix(0.680655,0,0,0.6797837,-1.4341746,-0.1822871)"
       x1="30.324829"
       y1="9.2407961"
       x2="34"
       y2="18" />
  </defs>
  <sodipodi:namedview
     id="base"
     pagecolor="#ffffff"
     bordercolor="#f6aaaa"
     borderopacity="1"
     inkscape:pageopacity="0.0"
     inkscape:pageshadow="2"
     inkscape:zoom="16"
     inkscape:cx="13.883661"
     inkscape:cy="16.181473"
     inkscape:document-units="px"
     inkscape:current-layer="layer1"
     width="32px"
     height="32px"
     inkscape:showpageshadow="false"
     showgrid="false"
     gridspacingx="0.5px"
     gridspacingy="0.5px"
     gridempspacing="2"
     inkscape:grid-points="true"
     inkscape:window-width="862"
     inkscape:window-height="875"
     inkscape:window-x="12"
     inkscape:window-y="50"
     inkscape:object-paths="true"
     inkscape:object-nodes="true"
     objecttolerance="6"
     gridtolerance="6"
     guidetolerance="6">
    <inkscape:grid
       type="xygrid"
       id="grid5333"
       spacingx="0.5px"
       spacingy="0.5px"
       empspacing="2" />
  </sodipodi:namedview>
  <metadata
     id="metadata7">
    <rdf:RDF>
      <cc:Work
         rdf:about="">
        <dc:format>image/svg+xml</dc:format>
        <dc:type
           rdf:resource="http://purl.org/dc/dcmitype/StillImage" />
        <dc:creator>
          <cc:Agent>
            <dc:title>Ulisse Perusin</dc:title>
          </cc:Agent>
        </dc:creator>
        <cc:license
           rdf:resource="http://creativecommons.org/licenses/GPL/2.0/" />
        <dc:source>uli.peru@gmail.com</dc:source>
        <dc:title>edit-clear</dc:title>
      </cc:Work>
    </rdf:RDF>
  </metadata>
  <g
     inkscape:label="Livello 1"
     inkscape:groupmode="layer"
     id="layer1">
    <path
       sodipodi:type="arc"
       style="opacity:0.25;fill:url(#radialGradient6025);fill-opacity:1;stroke:none;stroke-width:0.99999994;stroke-linecap:round;stroke-linejoin:round;stroke-miterlimit:20;stroke-dasharray:none;stroke-opacity:1"
       id="path6017"
       sodipodi:cx="38"
       sodipodi:cy="69"
       sodipodi:rx="20"
       sodipodi:ry="9"
       d="M 58,69 A 20,9 0 1 1 18,69 A 20,9 0 1 1 58,69 z"
       transform="matrix(0.7,0,0,0.5,-10.599999,-7)" />
    <path
       style="fill:url(#linearGradient5964);fill-opacity:1;fill-rule:evenodd;stroke:url(#linearGradient6033);stroke-width:1px;stroke-linecap:butt;stroke-linejoin:miter;stroke-opacity:1"
       d="M 23,1.5 C 17.956001,1.5732446 16.719413,12.233642 15.121599,14.216193 L 18.035033,15.461964 C 19.096049,13.701468 22.5,9.6928437 24.518491,6.4830495 C 25.863147,4.3447847 26.047026,1.9805074 24.050729,1.521947 C 23.860492,1.5008949 23.180115,1.4976836 23,1.5 z M 22.767835,2.4953784 C 22.899584,2.4826407 23.12879,2.4401582 23.239918,2.5 C 23.684423,2.7393677 23.760414,3.9235724 23.374207,4.6280814 C 22.988,5.3325905 22.198022,5.7762862 21.753519,5.5369195 C 21.309014,5.2975527 21.233021,4.113348 21.619229,3.408838 C 21.908885,2.8804561 22.372586,2.5335934 22.767835,2.4953784 z"
       id="path5371"
       sodipodi:nodetypes="cccscccssssc" />
    <path
       style="opacity:0.26666667;fill:none;fill-opacity:1;fill-rule:evenodd;stroke:url(#linearGradient5447);stroke-width:1px;stroke-linecap:round;stroke-linejoin:miter;stroke-opacity:1"
       d="M 23.5,2.5 C 21.971499,2.2957475 20.927073,3.3134597 20.20146,4.5 C 18.694161,6.8611641 18.128021,9.396071 17.201881,12 L 18.802129,12.527092 C 20.610761,10.079597 23,7.5 24.25,4.75 C 24.444434,4.1994597 24.743518,3.1272824 24.259033,2.673638 C 24.012418,2.4962306 23.797359,2.4886638 23.5,2.5 z"
       id="path5992"
       sodipodi:nodetypes="ccccccc" />
    <path
       style="fill:url(#linearGradient5972);fill-opacity:1;fill-rule:evenodd;stroke:url(#linearGradient5993);stroke-width:0.99999988;stroke-linecap:butt;stroke-linejoin:miter;stroke-miterlimit:20;stroke-dasharray:none;stroke-opacity:1"
       d="M 13.654546,10.527388 C 14.177539,11.957745 13.255479,13.19659 12.917426,14.097911 C 9.0906117,15.201683 6.4404887,21.027386 2.5,24.062229 C 2.9922407,24.560244 3.4984951,25.56994 4,26 L 7,23 L 4.5,26.5 C 6.1284754,27.778949 7.5,28.5 9,29 L 11.5,26 L 10,29.5 C 11.070296,29.920523 13.514911,29.987164 15,30 L 16.5,27.5 L 16.5,30.5 C 17.214983,30.509589 18.027506,30.474471 18.814396,30.499999 C 20.560031,26.572424 21,20.5 20.288637,17.311381 C 19.920078,15.883172 21.39432,14.097911 22.500002,13.383806 C 20.657198,11.955598 16.451488,10.310496 13.654546,10.527388 z"
       id="path5367"
       sodipodi:nodetypes="cccccccccccccccc" />
    <path
       style="opacity:0.26666667;fill:#c4a000;fill-rule:evenodd;stroke:none;stroke-width:1px;stroke-linecap:butt;stroke-linejoin:miter;stroke-opacity:1"
       d="M 5.1844465,26.325109 C 8.5713127,22.797294 9.026259,20.544081 13,17.5 C 10.902804,20.899355 10.33197,23.5 7.5,27.821555 L 5.1844465,26.325109 z"
       id="path5975"
       sodipodi:nodetypes="cccc" />
    <path
       style="opacity:0.41568627;fill:#c4a000;fill-rule:evenodd;stroke:none;stroke-width:1px;stroke-linecap:butt;stroke-linejoin:miter;stroke-opacity:1"
       d="M 10.69819,29.196907 L 14.5,20.280422 C 15.670454,18.179792 15.326179,18.173689 16.5,16.5 C 15.749186,20.5 13.856791,24.749698 12,29.328143 L 10.69819,29.196907 z"
       id="path5979"
       sodipodi:nodetypes="ccccc" />
    <path
       style="opacity:0.47843137;fill:none;fill-opacity:1;fill-rule:evenodd;stroke:url(#linearGradient5973);stroke-width:0.99999994px;stroke-linecap:butt;stroke-linejoin:miter;stroke-opacity:1"
       d="M 14.460035,11.5 C 14.528229,12.828473 13.809425,13.948397 13.600902,14.513114 C 13.527516,14.710606 13.364517,14.862981 13.160319,14.924978 C 9.5849413,16.743966 7.6634654,21.030342 3.8784662,24.157093 L 4.113301,24.5 L 11.5,17.5 L 5.8572887,26.243616 C 6.752574,26.956436 7.6882292,27.353145 8.7487658,27.772551 L 14.651572,20.5 L 11.350542,28.74518 C 12.549606,28.852243 13.144244,28.9891 14.5,29 L 17.593141,23.576383 L 17.5,29.5 L 18.20498,29.497392 C 19.411107,25.984859 20,21.5 19.350492,17.569581 C 19.105982,16.607167 19.469726,15.665033 19.967307,14.881624 C 20.268237,14.407829 20.123152,13.854462 20.5,13.5 C 18.716116,12.205367 16.617917,11.692643 14.460035,11.5 z"
       id="path6014"
       sodipodi:nodetypes="cscccccccccccccscc" />
    <path
       style="opacity:0.24705882000000001;fill:url(#linearGradient6005);fill-opacity:1;fill-rule:evenodd;stroke:none;stroke-width:1px;stroke-linecap:butt;stroke-linejoin:miter;stroke-opacity:1"
       d="M 12.5,29.360657 C 14.031223,25.311174 16.860146,22.130163 18,18 C 18.036244,20.578205 18.505956,25.414705 17,30 L 17.065409,25.620212 L 14.757932,29.530659 C 13.217397,29.420602 13.82185,29.730386 12.5,29.360657 z"
       id="path5977"
       sodipodi:nodetypes="cccccc" />
    <path
       style="opacity:0.48235294;fill:#c4a000;fill-rule:evenodd;stroke:none;stroke-width:1px;stroke-linecap:butt;stroke-linejoin:miter;stroke-opacity:1"
       d="M 14,14.5 C 13.119621,14.933949 12.147557,16.41065 11.5,17 C 12.362442,16.501095 13.860434,15.379995 15,15 L 14,14.5 z"
       id="path5995"
       sodipodi:nodetypes="cccc" />
    <path
       style="opacity:0.48235294;fill:#c4a000;fill-rule:evenodd;stroke:none;stroke-width:1px;stroke-linecap:butt;stroke-linejoin:miter;stroke-opacity:1"
       d="M 15.5,15 L 14,17.5 L 17,15.5 L 15.5,15 z"
       id="path5997"
       sodipodi:nodetypes="cccc" />
    <path
       style="opacity:0.48235294;fill:#c4a000;fill-rule:evenodd;stroke:none;stroke-width:1px;stroke-linecap:butt;stroke-linejoin:miter;stroke-opacity:1"
       d="M 15.5,11 L 14.5,12.5 L 16,13 L 15.5,11 z"
       id="path6007"
       sodipodi:nodetypes="cccc" />
    <path
       style="opacity:0.48235294;fill:#c4a000;fill-rule:evenodd;stroke:none;stroke-width:1px;stroke-linecap:butt;stroke-linejoin:miter;stroke-opacity:1"
       d="M 20.5,13 L 18.404984,14 L 19.5,14.5 L 20.5,13 z"
       id="path6009"
       sodipodi:nodetypes="cccc" />
    <path
       style="opacity:0.48235294;fill:#c4a000;fill-rule:evenodd;stroke:none;stroke-width:1px;stroke-linecap:butt;stroke-linejoin:miter;stroke-opacity:1"
       d="M 18,12 L 16.5,13 L 18,14 L 18,12 z"
       id="path6011"
       sodipodi:nodetypes="cccc" />
    <path
       style="opacity:0.2;fill:#000000;fill-opacity:1;fill-rule:evenodd;stroke:none;stroke-width:1px;stroke-linecap:butt;stroke-linejoin:round;stroke-opacity:1"
       d="M 12.525469,14.458688 C 12.115948,12.234711 19.268803,16.073267 20.5,16.704328 C 20.495317,17.513579 20.5,18.204237 19.794211,18.204237 C 17.939065,17.159565 15.072236,15.500544 12.525469,14.458688 z"
       id="path6013"
       sodipodi:nodetypes="cccc" />
    <path
       style="fill:url(#linearGradient5980);fill-opacity:1;fill-rule:evenodd;stroke:#5c3566;stroke-width:1.00000012px;stroke-linecap:butt;stroke-linejoin:round;stroke-opacity:1"
       d="M 12.497417,13.90699 C 12.162001,13.203494 12.497417,12.5 13.16825,12.5 C 15.909379,13.186201 18.198622,14.052073 20.547407,15.313981 C 20.882824,16.017476 20.547407,16.720972 19.876575,16.720972 C 17.449633,15.409361 15.160849,14.557854 12.497417,13.90699 z"
       id="path5373"
       sodipodi:nodetypes="ccccc" />
    <path
       style="fill:none;fill-opacity:1;fill-rule:evenodd;stroke:url(#linearGradient6036);stroke-width:1px;stroke-linecap:butt;stroke-linejoin:miter;stroke-opacity:1;opacity:0.24705882"
       d="M 22.770228,2.5040126 C 22.901977,2.4912749 23.020698,2.5079008 23.131826,2.5677426 C 23.576331,2.8071103 23.625779,3.9779059 23.239572,4.6824149 C 22.853365,5.386924 22.173872,5.7715113 21.729369,5.5321446 C 21.284864,5.2927778 21.235414,4.1219822 21.621622,3.4174722 C 21.911278,2.8890903 22.374979,2.5422276 22.770228,2.5040126 z"
       id="path5449"
       sodipodi:nodetypes="cssssc" />
  </g>
</svg>
