<?xml version="1.0" encoding="UTF-8" standalone="no"?>
<!-- Created with Inkscape (http://www.inkscape.org/) -->
<svg
   xmlns:dc="http://purl.org/dc/elements/1.1/"
   xmlns:cc="http://web.resource.org/cc/"
   xmlns:rdf="http://www.w3.org/1999/02/22-rdf-syntax-ns#"
   xmlns:svg="http://www.w3.org/2000/svg"
   xmlns="http://www.w3.org/2000/svg"
   xmlns:xlink="http://www.w3.org/1999/xlink"
   xmlns:sodipodi="http://sodipodi.sourceforge.net/DTD/sodipodi-0.dtd"
   xmlns:inkscape="http://www.inkscape.org/namespaces/inkscape"
   width="32"
   height="32"
   id="svg2"
   sodipodi:version="0.32"
   inkscape:version="0.45"
   version="1.0"
   sodipodi:docbase="/home/dobey/Projects/gnome-icon-theme/32x32/actions"
   sodipodi:docname="mail-send.svg"
   inkscape:output_extension="org.inkscape.output.svg.inkscape"
   inkscape:export-filename="/home/lapo/Icone/gnome-icon-theme/32x32/actions/mail-send.png"
   inkscape:export-xdpi="90"
   inkscape:export-ydpi="90">
  <defs
     id="defs4">
    <linearGradient
       inkscape:collect="always"
       id="linearGradient8758">
      <stop
         style="stop-color:#ffffff;stop-opacity:1;"
         offset="0"
         id="stop8760" />
      <stop
         style="stop-color:#ffffff;stop-opacity:0;"
         offset="1"
         id="stop8762" />
    </linearGradient>
    <linearGradient
       inkscape:collect="always"
       id="linearGradient8590">
      <stop
         style="stop-color:#eeeeec;stop-opacity:1;"
         offset="0"
         id="stop8592" />
      <stop
         style="stop-color:#ffffff;stop-opacity:1"
         offset="1"
         id="stop8594" />
    </linearGradient>
    <linearGradient
       id="linearGradient3702">
      <stop
         style="stop-color:black;stop-opacity:0;"
         offset="0"
         id="stop3704" />
      <stop
         id="stop3710"
         offset="0.5"
         style="stop-color:black;stop-opacity:1;" />
      <stop
         style="stop-color:black;stop-opacity:0;"
         offset="1"
         id="stop3706" />
    </linearGradient>
    <linearGradient
       inkscape:collect="always"
       id="linearGradient3688">
      <stop
         style="stop-color:black;stop-opacity:1;"
         offset="0"
         id="stop3690" />
      <stop
         style="stop-color:black;stop-opacity:0;"
         offset="1"
         id="stop3692" />
    </linearGradient>
    <linearGradient
       inkscape:collect="always"
       id="linearGradient6394">
      <stop
         style="stop-color:#729fcf;stop-opacity:1"
         offset="0"
         id="stop6396" />
      <stop
         style="stop-color:#ffffff;stop-opacity:1"
         offset="1"
         id="stop6398" />
    </linearGradient>
    <linearGradient
       inkscape:collect="always"
       id="linearGradient6754">
      <stop
         style="stop-color:#729fcf;stop-opacity:1"
         offset="0"
         id="stop6756" />
      <stop
         style="stop-color:#729fcf;stop-opacity:0"
         offset="1"
         id="stop6758" />
    </linearGradient>
    <radialGradient
       inkscape:collect="always"
       xlink:href="#linearGradient3688"
       id="radialGradient8803"
       gradientUnits="userSpaceOnUse"
       gradientTransform="matrix(2.003784,0,0,1.4,27.98813,-17.4)"
       cx="4.9929786"
       cy="43.5"
       fx="4.9929786"
       fy="43.5"
       r="2.5" />
    <radialGradient
       inkscape:collect="always"
       xlink:href="#linearGradient3688"
       id="radialGradient8805"
       gradientUnits="userSpaceOnUse"
       gradientTransform="matrix(2.003784,0,0,1.4,-20.01187,-104.4)"
       cx="4.9929786"
       cy="43.5"
       fx="4.9929786"
       fy="43.5"
       r="2.5" />
    <linearGradient
       inkscape:collect="always"
       xlink:href="#linearGradient3702"
       id="linearGradient8807"
       gradientUnits="userSpaceOnUse"
       x1="25.058096"
       y1="47.027729"
       x2="25.058096"
       y2="39.999443" />
    <linearGradient
       inkscape:collect="always"
       xlink:href="#linearGradient8590"
       id="linearGradient8809"
       gradientUnits="userSpaceOnUse"
       gradientTransform="translate(46,-4)"
       x1="-29.375"
       y1="9.25"
       x2="-19.532248"
       y2="61.616341" />
    <linearGradient
       inkscape:collect="always"
       xlink:href="#linearGradient6394"
       id="linearGradient8811"
       gradientUnits="userSpaceOnUse"
       gradientTransform="matrix(1.6157247,0,0,1.6197044,127.48592,-1.8429496)"
       x1="-21.478369"
       y1="-0.80551612"
       x2="-21.478369"
       y2="18.005089" />
    <linearGradient
       inkscape:collect="always"
       xlink:href="#linearGradient6754"
       id="linearGradient8813"
       gradientUnits="userSpaceOnUse"
       gradientTransform="matrix(1.6665145,0,0,3.5,130.99041,-33.499999)"
       x1="-21.03125"
       y1="16.187811"
       x2="-21.03125"
       y2="14.13769" />
    <radialGradient
       inkscape:collect="always"
       xlink:href="#linearGradient8758"
       id="radialGradient8815"
       gradientUnits="userSpaceOnUse"
       gradientTransform="matrix(3.0016277,0,0,1.3116125,-44.056643,-7.0790611)"
       cx="22.010408"
       cy="22.717514"
       fx="22.010408"
       fy="22.717514"
       r="14" />
  </defs>
  <sodipodi:namedview
     id="base"
     pagecolor="#ffffff"
     bordercolor="#666666"
     borderopacity="1.0"
     inkscape:pageopacity="0.0"
     inkscape:pageshadow="2"
     inkscape:zoom="1"
     inkscape:cx="44.397182"
     inkscape:cy="17.111643"
     inkscape:document-units="px"
     inkscape:current-layer="layer1"
     width="32px"
     height="32px"
     inkscape:showpageshadow="false"
     gridspacingx="0.5px"
     gridspacingy="0.5px"
     gridempspacing="2"
     showgrid="false"
     inkscape:window-width="1003"
     inkscape:window-height="622"
     inkscape:window-x="10"
     inkscape:window-y="65"
     showborder="false"
     borderlayer="true" />
  <metadata
     id="metadata7">
    <rdf:RDF>
      <cc:Work
         rdf:about="">
        <dc:format>image/svg+xml</dc:format>
        <dc:type
           rdf:resource="http://purl.org/dc/dcmitype/StillImage" />
        <cc:license
           rdf:resource="http://creativecommons.org/licenses/GPL/2.0/" />
        <dc:creator>
          <cc:Agent>
            <dc:title>Lapo Calamandrei</dc:title>
          </cc:Agent>
        </dc:creator>
        <dc:title>Stamp</dc:title>
        <dc:contributor>
          <cc:Agent>
            <dc:title>Hylke Bons, Andreas Nilsson</dc:title>
          </cc:Agent>
        </dc:contributor>
        <dc:subject>
          <rdf:Bag>
            <rdf:li>mail</rdf:li>
            <rdf:li>send</rdf:li>
            <rdf:li>stamp</rdf:li>
          </rdf:Bag>
        </dc:subject>
      </cc:Work>
      <cc:License
         rdf:about="http://creativecommons.org/licenses/GPL/2.0/">
        <cc:permits
           rdf:resource="http://web.resource.org/cc/Reproduction" />
        <cc:permits
           rdf:resource="http://web.resource.org/cc/Distribution" />
        <cc:requires
           rdf:resource="http://web.resource.org/cc/Notice" />
        <cc:permits
           rdf:resource="http://web.resource.org/cc/DerivativeWorks" />
        <cc:requires
           rdf:resource="http://web.resource.org/cc/ShareAlike" />
        <cc:requires
           rdf:resource="http://web.resource.org/cc/SourceCode" />
      </cc:License>
    </rdf:RDF>
  </metadata>
  <g
     inkscape:label="Livello 1"
     inkscape:groupmode="layer"
     id="layer1">
    <g
       id="g8817">
      <g
         transform="matrix(0.8947368,0,0,0.7857142,-5.473684,-5.4285679)"
         style="opacity:0.2"
         id="g8795">
        <rect
           style="opacity:1;fill:url(#radialGradient8803);fill-opacity:1;stroke:none;stroke-width:1;stroke-linecap:round;stroke-linejoin:miter;stroke-miterlimit:4;stroke-dasharray:none;stroke-opacity:1"
           id="rect8797"
           width="5"
           height="7"
           x="38"
           y="40" />
        <rect
           style="opacity:1;fill:url(#radialGradient8805);fill-opacity:1;stroke:none;stroke-width:1;stroke-linecap:round;stroke-linejoin:miter;stroke-miterlimit:4;stroke-dasharray:none;stroke-opacity:1"
           id="rect8799"
           width="5"
           height="7"
           x="-10"
           y="-47"
           transform="scale(-1,-1)" />
        <rect
           style="opacity:1;fill:url(#linearGradient8807);fill-opacity:1;stroke:none;stroke-width:1;stroke-linecap:round;stroke-linejoin:miter;stroke-miterlimit:4;stroke-dasharray:none;stroke-opacity:1"
           id="rect8801"
           width="28"
           height="7.0000005"
           x="10"
           y="40" />
      </g>
      <g
         transform="translate(0,-1)"
         id="g8783">
        <path
           style="opacity:1;fill:url(#linearGradient8809);fill-opacity:1;stroke:#979894;stroke-width:1;stroke-linecap:round;stroke-linejoin:miter;stroke-miterlimit:4;stroke-dasharray:none;stroke-dashoffset:0.7;stroke-opacity:1"
           d="M 1.5,30.5 L 1.5,27.5 L 2.03125,27.5 C 2.290937,27.5 2.5,27.290937 2.5,27.03125 L 2.5,25.96875 C 2.5,25.709063 2.290937,25.5 2.03125,25.5 L 1.5,25.5 L 1.5,23.5 L 2.03125,23.5 C 2.290937,23.5 2.5,23.290937 2.5,23.03125 L 2.5,21.96875 C 2.5,21.709063 2.290937,21.5 2.03125,21.5 L 1.5,21.5 L 1.5,19.5 L 2.03125,19.5 C 2.290937,19.5 2.5,19.290937 2.5,19.03125 L 2.5,17.96875 C 2.5,17.709063 2.290937,17.5 2.03125,17.5 L 1.5,17.5 L 1.5,15.5 L 2.03125,15.5 C 2.290937,15.5 2.5,15.290937 2.5,15.03125 L 2.5,13.96875 C 2.5,13.709063 2.290937,13.5 2.03125,13.5 L 1.5,13.5 L 1.5,11.5 L 2.03125,11.5 C 2.290937,11.5 2.5,11.290937 2.5,11.03125 L 2.5,9.96875 C 2.5,9.709062 2.290937,9.5 2.03125,9.5 L 1.5,9.5 L 1.5,7.5 L 2.03125,7.5 C 2.290937,7.5 2.5,7.290938 2.5,7.03125 L 2.5,5.96875 C 2.5,5.709062 2.290937,5.5 2.03125,5.5 L 1.5,5.5 L 1.5,1.5 L 5.5,1.5 L 5.5,2.03125 C 5.5,2.290938 5.709063,2.5 5.96875,2.5 L 7.03125,2.5 C 7.290937,2.5 7.5,2.290938 7.5,2.03125 L 7.5,1.5 L 9.5,1.5 L 9.5,2.03125 C 9.5,2.290938 9.709063,2.5 9.96875,2.5 L 11.03125,2.5 C 11.290937,2.5 11.5,2.290938 11.5,2.03125 L 11.5,1.5 L 13.5,1.5 L 13.5,2.03125 C 13.5,2.290938 13.709063,2.5 13.96875,2.5 L 15.03125,2.5 C 15.290937,2.5 15.5,2.290938 15.5,2.03125 L 15.5,1.5 L 17.5,1.5 L 17.5,2.03125 C 17.5,2.290938 17.709063,2.5 17.96875,2.5 L 19.03125,2.5 C 19.290937,2.5 19.5,2.290938 19.5,2.03125 L 19.5,1.5 L 21.5,1.5 L 21.5,2.03125 C 21.5,2.290938 21.709063,2.5 21.96875,2.5 L 23.03125,2.5 C 23.290937,2.5 23.5,2.290938 23.5,2.03125 L 23.5,1.5 L 25.5,1.5 L 25.5,2.03125 C 25.5,2.290938 25.709063,2.5 25.96875,2.5 L 27.03125,2.5 C 27.290937,2.5 27.5,2.290938 27.5,2.03125 L 27.5,1.5 L 30.5,1.5 L 30.5,4.5 L 29.96875,4.5 C 29.709063,4.5 29.5,4.709062 29.5,4.96875 L 29.5,6.03125 C 29.5,6.290938 29.709063,6.5 29.96875,6.5 L 30.5,6.5 L 30.5,8.5 L 29.96875,8.5 C 29.709063,8.5 29.5,8.709062 29.5,8.96875 L 29.5,10.03125 C 29.5,10.290937 29.709063,10.5 29.96875,10.5 L 30.5,10.5 L 30.5,12.5 L 29.96875,12.5 C 29.709063,12.5 29.5,12.709063 29.5,12.96875 L 29.5,14.03125 C 29.5,14.290937 29.709063,14.5 29.96875,14.5 L 30.5,14.5 L 30.5,16.5 L 29.96875,16.5 C 29.709063,16.5 29.5,16.709063 29.5,16.96875 L 29.5,18.03125 C 29.5,18.290937 29.709063,18.5 29.96875,18.5 L 30.5,18.5 L 30.5,20.5 L 29.96875,20.5 C 29.709063,20.5 29.5,20.709063 29.5,20.96875 L 29.5,22.03125 C 29.5,22.290937 29.709063,22.5 29.96875,22.5 L 30.5,22.5 L 30.5,24.5 L 29.96875,24.5 C 29.709063,24.5 29.5,24.709063 29.5,24.96875 L 29.5,26.03125 C 29.5,26.290937 29.709063,26.5 29.96875,26.5 L 30.5,26.5 L 30.5,30.5 L 26.5,30.5 L 26.5,29.96875 C 26.5,29.709063 26.290937,29.5 26.03125,29.5 L 24.96875,29.5 C 24.709063,29.5 24.5,29.709063 24.5,29.96875 L 24.5,30.5 L 22.5,30.5 L 22.5,29.96875 C 22.5,29.709063 22.290937,29.5 22.03125,29.5 L 20.96875,29.5 C 20.709063,29.5 20.5,29.709063 20.5,29.96875 L 20.5,30.5 L 18.5,30.5 L 18.5,29.96875 C 18.5,29.709063 18.290937,29.5 18.03125,29.5 L 16.96875,29.5 C 16.709063,29.5 16.5,29.709063 16.5,29.96875 L 16.5,30.5 L 14.5,30.5 L 14.5,29.96875 C 14.5,29.709063 14.290937,29.5 14.03125,29.5 L 12.96875,29.5 C 12.709063,29.5 12.5,29.709063 12.5,29.96875 L 12.5,30.5 L 10.5,30.5 L 10.5,29.96875 C 10.5,29.709063 10.290937,29.5 10.03125,29.5 L 8.96875,29.5 C 8.709063,29.5 8.5,29.709063 8.5,29.96875 L 8.5,30.5 L 6.5,30.5 L 6.5,29.96875 C 6.5,29.709063 6.290937,29.5 6.03125,29.5 L 4.96875,29.5 C 4.709063,29.5 4.5,29.709063 4.5,29.96875 L 4.5,30.5 L 1.5,30.5 z "
           id="path8746"
           sodipodi:nodetypes="ccccccccccccccccccccccccccccccccccccccccccccccccccccccccccccccccccccccccccccccccccccccccccccccccccccccccccccccccccccccccccccccccccccccccccccccccccccc" />
        <rect
           style="fill:url(#linearGradient8811);fill-opacity:1;stroke:#729fcf;stroke-width:0.99999976;stroke-linecap:round;stroke-linejoin:miter;stroke-miterlimit:4;stroke-dasharray:none;stroke-dashoffset:0.7;stroke-opacity:1"
           id="rect8651"
           width="21.004423"
           height="21.005543"
           x="5.4986987"
           y="5.496335"
           rx="0.57922524"
           ry="0.57859552" />
        <path
           style="fill:#ffffff;fill-opacity:1;stroke:none;stroke-width:1;stroke-linecap:round;stroke-linejoin:miter;stroke-miterlimit:4;stroke-dasharray:none;stroke-dashoffset:0.7;stroke-opacity:1"
           d="M 22.847174,10.850862 C 20.171534,10.850862 18,13.027745 18,15.709976 C 18,16.974174 18.472075,18.135338 19.262285,19 L 26.078624,19 L 26.078624,12.116256 C 25.219335,11.339437 24.094494,10.850862 22.847174,10.850862 z "
           id="path8653" />
        <rect
           style="opacity:0.78448277;fill:url(#linearGradient8813);fill-opacity:1;stroke:none;stroke-width:1;stroke-linecap:round;stroke-linejoin:miter;stroke-miterlimit:4;stroke-dasharray:none;stroke-dashoffset:0.7;stroke-opacity:1"
           id="rect8655"
           width="19.998175"
           height="7"
           x="6.0018253"
           y="19" />
        <rect
           style="opacity:0.2;fill:none;fill-opacity:1;stroke:#ffffff;stroke-width:0.99999976;stroke-linecap:round;stroke-linejoin:miter;stroke-miterlimit:4;stroke-dasharray:none;stroke-dashoffset:0.7;stroke-opacity:1"
           id="rect8657"
           width="18.992756"
           height="18.998215"
           x="6.5045333"
           y="6.5000005" />
        <path
           style="fill:#555753;fill-opacity:1;fill-rule:evenodd;stroke:none;stroke-width:0.1;stroke-linecap:butt;stroke-linejoin:miter;stroke-miterlimit:4;stroke-dasharray:none;stroke-opacity:1"
           d="M 7.9222871,9.3937502 C 9.7942629,9.921594 10.746782,9.8350988 12.118818,10.398631 C 14.00322,11.172605 14.205878,11.975565 15.546487,12.582542 C 15.520637,12.491526 15.620658,12.398502 16.00371,12.456003 C 16.179924,12.482455 16.202875,12.86093 16.202875,12.86093 C 17.579384,13.295073 18.82573,13.100302 19.609555,13.539342 C 21.253894,14.460384 21.846805,15.248462 23.549374,16.302802 C 21.747775,16.042151 20.703594,15.170585 19.208328,14.670541 C 17.900717,14.233249 16.552608,14.194692 16.202875,13.911206 L 15.64747,14.430018 L 15.899928,15.0121 C 14.937048,15.410395 14.046444,15.265502 13.476341,14.632481 L 14.334694,14.126323 L 14.518807,13.252302 C 13.334606,12.629561 13.015532,12.124827 11.988562,11.556659 C 10.830984,10.91623 9.4882254,10.786684 7.9222871,9.3937502 z "
           id="path8659"
           sodipodi:nodetypes="cscscscsccccccsc" />
        <text
           xml:space="preserve"
           style="font-size:3.80562854px;font-style:normal;font-weight:bold;fill:#ffffff;fill-opacity:1;stroke:none;stroke-width:1px;stroke-linecap:butt;stroke-linejoin:miter;stroke-opacity:1;font-family:Bitstream Vera Sans"
           x="18.82188"
           y="22.599041"
           id="text8661"
           transform="scale(0.9416453,1.061971)"><tspan
             sodipodi:role="line"
             id="tspan8663"
             x="18.82188"
             y="22.599041">50-</tspan></text>
        <path
           sodipodi:type="inkscape:offset"
           inkscape:radius="-0.4861359"
           inkscape:original="M 1.5 1.5 L 1.5 5.5 L 2.03125 5.5 C 2.290937 5.5 2.5 5.709062 2.5 5.96875 L 2.5 7.03125 C 2.5 7.290938 2.290937 7.5 2.03125 7.5 L 1.5 7.5 L 1.5 9.5 L 2.03125 9.5 C 2.290937 9.5 2.5 9.709062 2.5 9.96875 L 2.5 11.03125 C 2.5 11.290937 2.290937 11.5 2.03125 11.5 L 1.5 11.5 L 1.5 13.5 L 2.03125 13.5 C 2.290937 13.5 2.5 13.709063 2.5 13.96875 L 2.5 15.03125 C 2.5 15.290937 2.290937 15.5 2.03125 15.5 L 1.5 15.5 L 1.5 17.5 L 2.03125 17.5 C 2.290937 17.5 2.5 17.709063 2.5 17.96875 L 2.5 19.03125 C 2.5 19.290937 2.290937 19.5 2.03125 19.5 L 1.5 19.5 L 1.5 21.5 L 2.03125 21.5 C 2.290937 21.5 2.5 21.709063 2.5 21.96875 L 2.5 23.03125 C 2.5 23.290937 2.290937 23.5 2.03125 23.5 L 1.5 23.5 L 1.5 25.5 L 2.03125 25.5 C 2.290937 25.5 2.5 25.709063 2.5 25.96875 L 2.5 27.03125 C 2.5 27.290937 2.290937 27.5 2.03125 27.5 L 1.5 27.5 L 1.5 30.5 L 4.5 30.5 L 4.5 29.96875 C 4.5 29.709063 4.709063 29.5 4.96875 29.5 L 6.03125 29.5 C 6.290937 29.5 6.5 29.709063 6.5 29.96875 L 6.5 30.5 L 8.5 30.5 L 8.5 29.96875 C 8.5 29.709063 8.709063 29.5 8.96875 29.5 L 10.03125 29.5 C 10.290937 29.5 10.5 29.709063 10.5 29.96875 L 10.5 30.5 L 12.5 30.5 L 12.5 29.96875 C 12.5 29.709063 12.709063 29.5 12.96875 29.5 L 14.03125 29.5 C 14.290937 29.5 14.5 29.709063 14.5 29.96875 L 14.5 30.5 L 16.5 30.5 L 16.5 29.96875 C 16.5 29.709063 16.709063 29.5 16.96875 29.5 L 18.03125 29.5 C 18.290937 29.5 18.5 29.709063 18.5 29.96875 L 18.5 30.5 L 20.5 30.5 L 20.5 29.96875 C 20.5 29.709063 20.709063 29.5 20.96875 29.5 L 22.03125 29.5 C 22.290937 29.5 22.5 29.709063 22.5 29.96875 L 22.5 30.5 L 24.5 30.5 L 24.5 29.96875 C 24.5 29.709063 24.709063 29.5 24.96875 29.5 L 26.03125 29.5 C 26.290937 29.5 26.5 29.709063 26.5 29.96875 L 26.5 30.5 L 30.5 30.5 L 30.5 26.5 L 29.96875 26.5 C 29.709063 26.5 29.5 26.290937 29.5 26.03125 L 29.5 24.96875 C 29.5 24.709063 29.709063 24.5 29.96875 24.5 L 30.5 24.5 L 30.5 22.5 L 29.96875 22.5 C 29.709063 22.5 29.5 22.290937 29.5 22.03125 L 29.5 20.96875 C 29.5 20.709063 29.709063 20.5 29.96875 20.5 L 30.5 20.5 L 30.5 18.5 L 29.96875 18.5 C 29.709063 18.5 29.5 18.290937 29.5 18.03125 L 29.5 16.96875 C 29.5 16.709063 29.709063 16.5 29.96875 16.5 L 30.5 16.5 L 30.5 14.5 L 29.96875 14.5 C 29.709063 14.5 29.5 14.290937 29.5 14.03125 L 29.5 12.96875 C 29.5 12.709063 29.709063 12.5 29.96875 12.5 L 30.5 12.5 L 30.5 10.5 L 29.96875 10.5 C 29.709063 10.5 29.5 10.290937 29.5 10.03125 L 29.5 8.96875 C 29.5 8.709062 29.709063 8.5 29.96875 8.5 L 30.5 8.5 L 30.5 6.5 L 29.96875 6.5 C 29.709063 6.5 29.5 6.290938 29.5 6.03125 L 29.5 4.96875 C 29.5 4.709062 29.709063 4.5 29.96875 4.5 L 30.5 4.5 L 30.5 1.5 L 27.5 1.5 L 27.5 2.03125 C 27.5 2.290938 27.290937 2.5 27.03125 2.5 L 25.96875 2.5 C 25.709063 2.5 25.5 2.290938 25.5 2.03125 L 25.5 1.5 L 23.5 1.5 L 23.5 2.03125 C 23.5 2.290938 23.290937 2.5 23.03125 2.5 L 21.96875 2.5 C 21.709063 2.5 21.5 2.290938 21.5 2.03125 L 21.5 1.5 L 19.5 1.5 L 19.5 2.03125 C 19.5 2.290938 19.290937 2.5 19.03125 2.5 L 17.96875 2.5 C 17.709063 2.5 17.5 2.290938 17.5 2.03125 L 17.5 1.5 L 15.5 1.5 L 15.5 2.03125 C 15.5 2.290938 15.290937 2.5 15.03125 2.5 L 13.96875 2.5 C 13.709063 2.5 13.5 2.290938 13.5 2.03125 L 13.5 1.5 L 11.5 1.5 L 11.5 2.03125 C 11.5 2.290938 11.290937 2.5 11.03125 2.5 L 9.96875 2.5 C 9.709063 2.5 9.5 2.290938 9.5 2.03125 L 9.5 1.5 L 7.5 1.5 L 7.5 2.03125 C 7.5 2.290938 7.290937 2.5 7.03125 2.5 L 5.96875 2.5 C 5.709063 2.5 5.5 2.290938 5.5 2.03125 L 5.5 1.5 L 1.5 1.5 z "
           style="opacity:0.3;fill:url(#radialGradient8815);fill-opacity:1;stroke:none;stroke-width:1;stroke-linecap:round;stroke-linejoin:miter;stroke-miterlimit:4;stroke-dasharray:none;stroke-dashoffset:0.7;stroke-opacity:1"
           id="path8754"
           d="M 2,2 L 2,5 L 2.03125,5 C 2.5518474,5 3,5.4481514 3,5.96875 L 3,7.03125 C 3,7.5518486 2.5518474,8 2.03125,8 L 2,8 L 2,9 L 2.03125,9 C 2.5518474,9 3,9.4481514 3,9.96875 L 3,11.03125 C 3,11.551849 2.5518486,12 2.03125,12 L 2,12 L 2,13 L 2.03125,13 C 2.5518486,13 3,13.448151 3,13.96875 L 3,15.03125 C 3,15.551849 2.5518486,16 2.03125,16 L 2,16 L 2,17 L 2.03125,17 C 2.5518486,17 3,17.448151 3,17.96875 L 3,19.03125 C 3,19.551849 2.5518486,20 2.03125,20 L 2,20 L 2,21 L 2.03125,21 C 2.5518486,21 3,21.448151 3,21.96875 L 3,23.03125 C 3,23.551849 2.5518486,24 2.03125,24 L 2,24 L 2,25 L 2.03125,25 C 2.5518486,25 3,25.448151 3,25.96875 L 3,27.03125 C 3,27.551849 2.5518486,28 2.03125,28 L 2,28 L 2,30 L 4,30 L 4,29.96875 C 4,29.448151 4.4481514,29 4.96875,29 L 6.03125,29 C 6.5518486,29 7,29.448151 7,29.96875 L 7,30 L 8,30 L 8,29.96875 C 8,29.448151 8.4481514,29 8.96875,29 L 10.03125,29 C 10.551849,29 11,29.448151 11,29.96875 L 11,30 L 12,30 L 12,29.96875 C 12,29.448151 12.448151,29 12.96875,29 L 14.03125,29 C 14.551849,29 15,29.448151 15,29.96875 L 15,30 L 16,30 L 16,29.96875 C 16,29.448151 16.448151,29 16.96875,29 L 18.03125,29 C 18.551849,29 19,29.448151 19,29.96875 L 19,30 L 20,30 L 20,29.96875 C 20,29.448151 20.448151,29 20.96875,29 L 22.03125,29 C 22.551849,29 23,29.448151 23,29.96875 L 23,30 L 24,30 L 24,29.96875 C 24,29.448151 24.448151,29 24.96875,29 L 26.03125,29 C 26.551849,29 27,29.448151 27,29.96875 L 27,30 L 30,30 L 30,27 L 29.96875,27 C 29.448151,27 29,26.551849 29,26.03125 L 29,24.96875 C 29,24.448151 29.448151,24 29.96875,24 L 30,24 L 30,23 L 29.96875,23 C 29.448151,23 29,22.551849 29,22.03125 L 29,20.96875 C 29,20.448151 29.448151,20 29.96875,20 L 30,20 L 30,19 L 29.96875,19 C 29.448151,19 29,18.551849 29,18.03125 L 29,16.96875 C 29,16.448151 29.448151,16 29.96875,16 L 30,16 L 30,15 L 29.96875,15 C 29.448151,15 29,14.551849 29,14.03125 L 29,12.96875 C 29,12.448151 29.448151,12 29.96875,12 L 30,12 L 30,11 L 29.96875,11 C 29.448151,11 29,10.551849 29,10.03125 L 29,8.96875 C 29,8.4481514 29.448153,8 29.96875,8 L 30,8 L 30,7 L 29.96875,7 C 29.448153,7 29,6.5518486 29,6.03125 L 29,4.96875 C 29,4.4481514 29.448153,4 29.96875,4 L 30,4 L 30,2 L 28,2 L 28,2.03125 C 28,2.5518486 27.551847,3 27.03125,3 L 25.96875,3 C 25.448153,3 25,2.5518486 25,2.03125 L 25,2 L 24,2 L 24,2.03125 C 24,2.5518486 23.551847,3 23.03125,3 L 21.96875,3 C 21.448153,3 21,2.5518486 21,2.03125 L 21,2 L 20,2 L 20,2.03125 C 20,2.5518486 19.551847,3 19.03125,3 L 17.96875,3 C 17.448153,3 17,2.5518486 17,2.03125 L 17,2 L 16,2 L 16,2.03125 C 16,2.5518486 15.551847,3 15.03125,3 L 13.96875,3 C 13.448153,3 13,2.5518486 13,2.03125 L 13,2 L 12,2 L 12,2.03125 C 12,2.5518486 11.551847,3 11.03125,3 L 9.96875,3 C 9.4481526,3 9,2.5518486 9,2.03125 L 9,2 L 8,2 L 8,2.03125 C 8,2.5518486 7.5518474,3 7.03125,3 L 5.96875,3 C 5.4481526,3 5,2.5518486 5,2.03125 L 5,2 L 2,2 z " />
        <path
           sodipodi:type="inkscape:offset"
           inkscape:radius="-1"
           inkscape:original="M 1.5 1.5 L 1.5 5.5 L 2.03125 5.5 C 2.290937 5.5 2.5 5.709062 2.5 5.96875 L 2.5 7.03125 C 2.5 7.290938 2.290937 7.5 2.03125 7.5 L 1.5 7.5 L 1.5 9.5 L 2.03125 9.5 C 2.290937 9.5 2.5 9.709062 2.5 9.96875 L 2.5 11.03125 C 2.5 11.290937 2.290937 11.5 2.03125 11.5 L 1.5 11.5 L 1.5 13.5 L 2.03125 13.5 C 2.290937 13.5 2.5 13.709063 2.5 13.96875 L 2.5 15.03125 C 2.5 15.290937 2.290937 15.5 2.03125 15.5 L 1.5 15.5 L 1.5 17.5 L 2.03125 17.5 C 2.290937 17.5 2.5 17.709063 2.5 17.96875 L 2.5 19.03125 C 2.5 19.290937 2.290937 19.5 2.03125 19.5 L 1.5 19.5 L 1.5 21.5 L 2.03125 21.5 C 2.290937 21.5 2.5 21.709063 2.5 21.96875 L 2.5 23.03125 C 2.5 23.290937 2.290937 23.5 2.03125 23.5 L 1.5 23.5 L 1.5 25.5 L 2.03125 25.5 C 2.290937 25.5 2.5 25.709063 2.5 25.96875 L 2.5 27.03125 C 2.5 27.290937 2.290937 27.5 2.03125 27.5 L 1.5 27.5 L 1.5 30.5 L 4.5 30.5 L 4.5 29.96875 C 4.5 29.709063 4.709063 29.5 4.96875 29.5 L 6.03125 29.5 C 6.290937 29.5 6.5 29.709063 6.5 29.96875 L 6.5 30.5 L 8.5 30.5 L 8.5 29.96875 C 8.5 29.709063 8.709063 29.5 8.96875 29.5 L 10.03125 29.5 C 10.290937 29.5 10.5 29.709063 10.5 29.96875 L 10.5 30.5 L 12.5 30.5 L 12.5 29.96875 C 12.5 29.709063 12.709063 29.5 12.96875 29.5 L 14.03125 29.5 C 14.290937 29.5 14.5 29.709063 14.5 29.96875 L 14.5 30.5 L 16.5 30.5 L 16.5 29.96875 C 16.5 29.709063 16.709063 29.5 16.96875 29.5 L 18.03125 29.5 C 18.290937 29.5 18.5 29.709063 18.5 29.96875 L 18.5 30.5 L 20.5 30.5 L 20.5 29.96875 C 20.5 29.709063 20.709063 29.5 20.96875 29.5 L 22.03125 29.5 C 22.290937 29.5 22.5 29.709063 22.5 29.96875 L 22.5 30.5 L 24.5 30.5 L 24.5 29.96875 C 24.5 29.709063 24.709063 29.5 24.96875 29.5 L 26.03125 29.5 C 26.290937 29.5 26.5 29.709063 26.5 29.96875 L 26.5 30.5 L 30.5 30.5 L 30.5 26.5 L 29.96875 26.5 C 29.709063 26.5 29.5 26.290937 29.5 26.03125 L 29.5 24.96875 C 29.5 24.709063 29.709063 24.5 29.96875 24.5 L 30.5 24.5 L 30.5 22.5 L 29.96875 22.5 C 29.709063 22.5 29.5 22.290937 29.5 22.03125 L 29.5 20.96875 C 29.5 20.709063 29.709063 20.5 29.96875 20.5 L 30.5 20.5 L 30.5 18.5 L 29.96875 18.5 C 29.709063 18.5 29.5 18.290937 29.5 18.03125 L 29.5 16.96875 C 29.5 16.709063 29.709063 16.5 29.96875 16.5 L 30.5 16.5 L 30.5 14.5 L 29.96875 14.5 C 29.709063 14.5 29.5 14.290937 29.5 14.03125 L 29.5 12.96875 C 29.5 12.709063 29.709063 12.5 29.96875 12.5 L 30.5 12.5 L 30.5 10.5 L 29.96875 10.5 C 29.709063 10.5 29.5 10.290937 29.5 10.03125 L 29.5 8.96875 C 29.5 8.709062 29.709063 8.5 29.96875 8.5 L 30.5 8.5 L 30.5 6.5 L 29.96875 6.5 C 29.709063 6.5 29.5 6.290938 29.5 6.03125 L 29.5 4.96875 C 29.5 4.709062 29.709063 4.5 29.96875 4.5 L 30.5 4.5 L 30.5 1.5 L 27.5 1.5 L 27.5 2.03125 C 27.5 2.290938 27.290937 2.5 27.03125 2.5 L 25.96875 2.5 C 25.709063 2.5 25.5 2.290938 25.5 2.03125 L 25.5 1.5 L 23.5 1.5 L 23.5 2.03125 C 23.5 2.290938 23.290937 2.5 23.03125 2.5 L 21.96875 2.5 C 21.709063 2.5 21.5 2.290938 21.5 2.03125 L 21.5 1.5 L 19.5 1.5 L 19.5 2.03125 C 19.5 2.290938 19.290937 2.5 19.03125 2.5 L 17.96875 2.5 C 17.709063 2.5 17.5 2.290938 17.5 2.03125 L 17.5 1.5 L 15.5 1.5 L 15.5 2.03125 C 15.5 2.290938 15.290937 2.5 15.03125 2.5 L 13.96875 2.5 C 13.709063 2.5 13.5 2.290938 13.5 2.03125 L 13.5 1.5 L 11.5 1.5 L 11.5 2.03125 C 11.5 2.290938 11.290937 2.5 11.03125 2.5 L 9.96875 2.5 C 9.709063 2.5 9.5 2.290938 9.5 2.03125 L 9.5 1.5 L 7.5 1.5 L 7.5 2.03125 C 7.5 2.290938 7.290937 2.5 7.03125 2.5 L 5.96875 2.5 C 5.709063 2.5 5.5 2.290938 5.5 2.03125 L 5.5 1.5 L 1.5 1.5 z "
           style="opacity:1;fill:none;fill-opacity:1;stroke:#ffffff;stroke-width:1;stroke-linecap:round;stroke-linejoin:miter;stroke-miterlimit:4;stroke-dasharray:none;stroke-dashoffset:0.7;stroke-opacity:1"
           id="path8766"
           d="M 2.5,2.5 L 2.5,4.6875 C 3.0521134,4.9006399 3.5,5.3517794 3.5,5.96875 L 3.5,7.03125 C 3.5,7.6482206 3.0521134,8.0993601 2.5,8.3125 L 2.5,8.6875 C 3.0521134,8.9006399 3.5,9.3517794 3.5,9.96875 L 3.5,11.03125 C 3.5,11.648221 3.0521139,12.09936 2.5,12.3125 L 2.5,12.6875 C 3.0521139,12.90064 3.5,13.351779 3.5,13.96875 L 3.5,15.03125 C 3.5,15.648221 3.0521139,16.09936 2.5,16.3125 L 2.5,16.6875 C 3.0521139,16.90064 3.5,17.351779 3.5,17.96875 L 3.5,19.03125 C 3.5,19.648221 3.0521139,20.09936 2.5,20.3125 L 2.5,20.6875 C 3.0521139,20.90064 3.5,21.351779 3.5,21.96875 L 3.5,23.03125 C 3.5,23.648221 3.0521139,24.09936 2.5,24.3125 L 2.5,24.6875 C 3.0521139,24.90064 3.5,25.351779 3.5,25.96875 L 3.5,27.03125 C 3.5,27.648221 3.0521139,28.09936 2.5,28.3125 L 2.5,29.5 L 3.6875,29.5 C 3.9006397,28.947886 4.3517785,28.5 4.96875,28.5 L 6.03125,28.5 C 6.6482215,28.5 7.0993603,28.947886 7.3125,29.5 L 7.6875,29.5 C 7.9006397,28.947886 8.3517785,28.5 8.96875,28.5 L 10.03125,28.5 C 10.648221,28.5 11.09936,28.947886 11.3125,29.5 L 11.6875,29.5 C 11.90064,28.947886 12.351779,28.5 12.96875,28.5 L 14.03125,28.5 C 14.648221,28.5 15.09936,28.947886 15.3125,29.5 L 15.6875,29.5 C 15.90064,28.947886 16.351779,28.5 16.96875,28.5 L 18.03125,28.5 C 18.648221,28.5 19.09936,28.947886 19.3125,29.5 L 19.6875,29.5 C 19.90064,28.947886 20.351779,28.5 20.96875,28.5 L 22.03125,28.5 C 22.648221,28.5 23.09936,28.947886 23.3125,29.5 L 23.6875,29.5 C 23.90064,28.947886 24.351779,28.5 24.96875,28.5 L 26.03125,28.5 C 26.648221,28.5 27.09936,28.947886 27.3125,29.5 L 29.5,29.5 L 29.5,27.3125 C 28.947886,27.09936 28.5,26.648221 28.5,26.03125 L 28.5,24.96875 C 28.5,24.351779 28.947886,23.90064 29.5,23.6875 L 29.5,23.3125 C 28.947886,23.09936 28.5,22.648221 28.5,22.03125 L 28.5,20.96875 C 28.5,20.351779 28.947886,19.90064 29.5,19.6875 L 29.5,19.3125 C 28.947886,19.09936 28.5,18.648221 28.5,18.03125 L 28.5,16.96875 C 28.5,16.351779 28.947886,15.90064 29.5,15.6875 L 29.5,15.3125 C 28.947886,15.09936 28.5,14.648221 28.5,14.03125 L 28.5,12.96875 C 28.5,12.351779 28.947886,11.90064 29.5,11.6875 L 29.5,11.3125 C 28.947886,11.09936 28.5,10.648221 28.5,10.03125 L 28.5,8.96875 C 28.5,8.3517794 28.947887,7.9006399 29.5,7.6875 L 29.5,7.3125 C 28.947887,7.0993601 28.5,6.6482206 28.5,6.03125 L 28.5,4.96875 C 28.5,4.3517794 28.947887,3.9006399 29.5,3.6875 L 29.5,2.5 L 28.3125,2.5 C 28.09936,3.0521137 27.648219,3.5 27.03125,3.5 L 25.96875,3.5 C 25.351781,3.5 24.90064,3.0521137 24.6875,2.5 L 24.3125,2.5 C 24.09936,3.0521137 23.648219,3.5 23.03125,3.5 L 21.96875,3.5 C 21.351781,3.5 20.90064,3.0521137 20.6875,2.5 L 20.3125,2.5 C 20.09936,3.0521137 19.648219,3.5 19.03125,3.5 L 17.96875,3.5 C 17.351781,3.5 16.90064,3.0521137 16.6875,2.5 L 16.3125,2.5 C 16.09936,3.0521137 15.648219,3.5 15.03125,3.5 L 13.96875,3.5 C 13.351781,3.5 12.90064,3.0521137 12.6875,2.5 L 12.3125,2.5 C 12.09936,3.0521137 11.648219,3.5 11.03125,3.5 L 9.96875,3.5 C 9.3517805,3.5 8.9006403,3.0521137 8.6875,2.5 L 8.3125,2.5 C 8.0993597,3.0521137 7.6482195,3.5 7.03125,3.5 L 5.96875,3.5 C 5.3517805,3.5 4.9006403,3.0521137 4.6875,2.5 L 2.5,2.5 z " />
      </g>
    </g>
  </g>
</svg>
