<?xml version="1.0" encoding="UTF-8" standalone="no"?>
<!-- Created with Inkscape (http://www.inkscape.org/) -->
<svg
   xmlns:dc="http://purl.org/dc/elements/1.1/"
   xmlns:cc="http://web.resource.org/cc/"
   xmlns:rdf="http://www.w3.org/1999/02/22-rdf-syntax-ns#"
   xmlns:svg="http://www.w3.org/2000/svg"
   xmlns="http://www.w3.org/2000/svg"
   xmlns:xlink="http://www.w3.org/1999/xlink"
   xmlns:sodipodi="http://sodipodi.sourceforge.net/DTD/sodipodi-0.dtd"
   xmlns:inkscape="http://www.inkscape.org/namespaces/inkscape"
   width="32"
   height="32"
   id="svg2"
   sodipodi:version="0.32"
   inkscape:version="0.45"
   version="1.0"
   sodipodi:docname="mail-mark-unread.svg"
   sodipodi:docbase="/home/dobey/Projects/gnome-icon-theme/32x32/actions"
   inkscape:output_extension="org.inkscape.output.svg.inkscape">
  <defs
     id="defs4">
    <filter
       inkscape:collect="always"
       x="-0.10033944"
       width="1.2006789"
       y="-0.38725492"
       height="1.7745098"
       id="filter5672">
      <feGaussianBlur
         inkscape:collect="always"
         stdDeviation="77.342928"
         id="feGaussianBlur5674" />
    </filter>
    <linearGradient
       id="linearGradient2378">
      <stop
         id="stop2380"
         offset="0"
         style="stop-color:#ffffff;stop-opacity:1;" />
      <stop
         style="stop-color:#fefede;stop-opacity:0.91836733;"
         offset="0.25"
         id="stop4146" />
      <stop
         style="stop-color:#f5f328;stop-opacity:1;"
         offset="0.5"
         id="stop2386" />
      <stop
         id="stop2382"
         offset="1"
         style="stop-color:#f5f32d;stop-opacity:0.12234043;" />
    </linearGradient>
    <linearGradient
       id="linearGradient6945"
       inkscape:collect="always">
      <stop
         id="stop6947"
         offset="0"
         style="stop-color:#ffffff;stop-opacity:1" />
      <stop
         id="stop6949"
         offset="1"
         style="stop-color:#d3d7cf;stop-opacity:1" />
    </linearGradient>
    <linearGradient
       id="linearGradient7063"
       inkscape:collect="always">
      <stop
         id="stop7065"
         offset="0"
         style="stop-color:#000000;stop-opacity:1;" />
      <stop
         id="stop7067"
         offset="1"
         style="stop-color:#000000;stop-opacity:0;" />
    </linearGradient>
    <radialGradient
       inkscape:collect="always"
       xlink:href="#linearGradient6945"
       id="radialGradient14866"
       gradientUnits="userSpaceOnUse"
       gradientTransform="matrix(1.5078312,0,0,1.3940576,19.158186,-13.758711)"
       cx="12.5"
       cy="15.927882"
       fx="12.5"
       fy="15.927882"
       r="18.5" />
    <linearGradient
       inkscape:collect="always"
       xlink:href="#linearGradient7063"
       id="linearGradient14868"
       gradientUnits="userSpaceOnUse"
       gradientTransform="matrix(0.7488389,0,0,0.7459035,28.770589,-5.8308383)"
       x1="12.875"
       y1="35.314098"
       x2="12.875"
       y2="15.75" />
    <radialGradient
       inkscape:collect="always"
       xlink:href="#linearGradient6945"
       id="radialGradient14870"
       gradientUnits="userSpaceOnUse"
       gradientTransform="matrix(2.6083242,0,0,2.218814,-74.941381,-118.61799)"
       cx="13.107393"
       cy="61.48016"
       fx="13.107393"
       fy="61.48016"
       r="18.5" />
    <radialGradient
       inkscape:collect="always"
       xlink:href="#linearGradient2378"
       id="radialGradient14872"
       gradientUnits="userSpaceOnUse"
       cx="38.658855"
       cy="9.3411446"
       fx="38.658855"
       fy="9.3411446"
       r="8.341651" />
  </defs>
  <sodipodi:namedview
     id="base"
     pagecolor="#ffffff"
     bordercolor="#666666"
     borderopacity="0.37647059"
     inkscape:pageopacity="0"
     inkscape:pageshadow="2"
     inkscape:zoom="1"
     inkscape:cx="118.00152"
     inkscape:cy="16.07457"
     inkscape:document-units="px"
     inkscape:current-layer="layer1"
     width="32px"
     height="32px"
     inkscape:showpageshadow="false"
     gridempspacing="2"
     gridspacingx="0.5px"
     gridspacingy="0.5px"
     inkscape:window-width="872"
     inkscape:window-height="848"
     inkscape:window-x="209"
     inkscape:window-y="67"
     borderlayer="true"
     showgrid="false"
     inkscape:grid-points="true"
     showborder="true"
     showguides="true"
     inkscape:guide-bbox="false"
     inkscape:object-paths="false"
     inkscape:grid-bbox="true" />
  <metadata
     id="metadata7">
    <rdf:RDF>
      <cc:Work
         rdf:about="">
        <dc:format>image/svg+xml</dc:format>
        <dc:type
           rdf:resource="http://purl.org/dc/dcmitype/StillImage" />
        <dc:creator>
          <cc:Agent>
            <dc:title>Lapo Calamandrei</dc:title>
          </cc:Agent>
        </dc:creator>
        <cc:license
           rdf:resource="http://creativecommons.org/licenses/GPL/2.0/" />
        <dc:title>Mail stuff</dc:title>
      </cc:Work>
      <cc:License
         rdf:about="http://creativecommons.org/licenses/GPL/2.0/">
        <cc:permits
           rdf:resource="http://web.resource.org/cc/Reproduction" />
        <cc:permits
           rdf:resource="http://web.resource.org/cc/Distribution" />
        <cc:requires
           rdf:resource="http://web.resource.org/cc/Notice" />
        <cc:permits
           rdf:resource="http://web.resource.org/cc/DerivativeWorks" />
        <cc:requires
           rdf:resource="http://web.resource.org/cc/ShareAlike" />
        <cc:requires
           rdf:resource="http://web.resource.org/cc/SourceCode" />
      </cc:License>
    </rdf:RDF>
  </metadata>
  <g
     inkscape:label="Livello 1"
     inkscape:groupmode="layer"
     id="layer1">
    <g
       id="g12465"
       transform="translate(50,0)">
      <g
         transform="translate(-80.99908,2.94455)"
         id="g12429">
        <g
           style="opacity:0.7;display:inline"
           id="g12431"
           transform="matrix(1.702322e-2,0,0,1.0454988e-2,62.070098,22.174883)">
          <rect
             style="opacity:0.17934786;fill:#000000;fill-opacity:1;stroke:none;stroke-width:2;stroke-linecap:butt;stroke-linejoin:miter;stroke-miterlimit:4;stroke-dasharray:none;stroke-dashoffset:0;stroke-opacity:1;filter:url(#filter5672)"
             id="rect12433"
             width="1849.9508"
             height="479.33032"
             x="-1814.411"
             y="-197.04396"
             rx="113.12692"
             ry="198.34357"
             transform="matrix(0.9496952,0,0,1,-43.332912,0)" />
        </g>
        <rect
           style="opacity:1;fill:url(#radialGradient14866);fill-opacity:1;fill-rule:evenodd;stroke:#888a85;stroke-width:0.99999994;stroke-linecap:butt;stroke-linejoin:miter;stroke-miterlimit:4;stroke-dasharray:none;stroke-dashoffset:0.69999992;stroke-opacity:0.99236642"
           id="rect12435"
           width="26.9582"
           height="19.960087"
           x="33.513042"
           y="3.5554552"
           rx="0.59981811"
           ry="0.59981811" />
        <path
           style="opacity:0.23134329;fill:url(#linearGradient14868);fill-opacity:1;fill-rule:evenodd;stroke:none;stroke-width:0.89999998;stroke-linecap:butt;stroke-linejoin:round;stroke-miterlimit:4;stroke-opacity:1"
           d="M 34.691097,3.819289 C 34.279776,3.819289 33.965659,4.132173 33.965659,4.541883 L 33.965659,5.59081 L 40.642829,14.570085 L 41.617856,13.306249 C 41.969341,12.956142 42.317534,12.496956 43.092133,12.187394 C 43.866731,11.877832 45.026863,11.697895 47.117141,11.697895 C 49.199012,11.697894 50.365944,11.878128 51.14215,12.187394 C 51.918356,12.49666 52.263946,12.95515 52.616427,13.306249 L 53.76823,14.636377 L 60.268624,5.59081 L 60.268624,4.541883 C 60.268624,4.132174 59.954509,3.819289 59.543186,3.819289 L 34.691097,3.819289 z "
           id="path12437"
           sodipodi:nodetypes="cccccssscccccc" />
        <path
           style="fill:#888a85;fill-opacity:1;fill-rule:evenodd;stroke:none;stroke-width:0.89999998;stroke-linecap:butt;stroke-linejoin:round;stroke-miterlimit:4;stroke-dasharray:none;stroke-opacity:1"
           d="M 34.012461,21.767593 L 41.617856,13.306249 C 41.969341,12.956142 42.317534,12.496956 43.092133,12.187394 C 43.866731,11.877832 45.026863,11.697895 47.117141,11.697895 C 49.199012,11.697894 50.365944,11.878128 51.14215,12.187394 C 51.918356,12.49666 52.263946,12.95515 52.616427,13.306249 L 60.221822,21.767593 L 52.616427,14.052153 C 51.085795,12.583026 49.232988,12.357343 47.117141,12.443798 C 45.117105,12.48075 43.025259,12.443552 41.617856,14.052153 L 34.012461,21.767593 z "
           id="path12439"
           sodipodi:nodetypes="ccssscccccc" />
        <path
           style="fill:#ffffff;fill-opacity:1;fill-rule:evenodd;stroke:none;stroke-width:0.89999998;stroke-linecap:butt;stroke-linejoin:round;stroke-miterlimit:4;stroke-dasharray:none;stroke-opacity:1"
           d="M 34.012461,21.783629 L 42.170283,14.946676 C 43.577686,13.338075 45.117105,13.24269 47.117141,13.205738 C 49.232988,13.119283 50.555465,13.433353 52.086097,14.902481 L 60.221822,21.783629 L 52.616427,14.068189 C 51.085795,12.599062 49.232988,12.373379 47.117141,12.459835 C 45.117105,12.496787 43.025259,12.459588 41.617856,14.068189 L 34.012461,21.783629 z "
           id="path12441"
           sodipodi:nodetypes="ccccccccc" />
        <path
           sodipodi:type="inkscape:offset"
           inkscape:radius="-0.50587863"
           inkscape:original="M -42.09375 12.5 C -42.877224 12.5 -43.5 13.122774 -43.5 13.90625 L -43.5 15.5 L -32.5 26.5 C -31.5 27.500002 -31.022703 28.5 -25.5 28.5 C -20 28.500002 -19.5 27.5 -18.5 26.5 L -7.5 15.5 L -7.5 13.90625 C -7.5 13.122776 -8.122774 12.5 -8.90625 12.5 L -42.09375 12.5 z "
           style="fill:url(#radialGradient14870);fill-opacity:1;fill-rule:evenodd;stroke:none;stroke-width:0.89999998;stroke-linecap:butt;stroke-linejoin:round;stroke-miterlimit:4;stroke-dasharray:none;stroke-opacity:1"
           id="path12443"
           d="M -42.09375,13 C -42.609146,13 -43,13.390852 -43,13.90625 L -43,15.3125 L -32.15625,26.15625 C -31.625088,26.687413 -31.33318,27.071966 -30.5,27.40625 C -29.66682,27.740534 -28.230818,28 -25.5,28 C -22.780659,28.000001 -21.336722,27.740939 -20.5,27.40625 C -19.663278,27.071561 -19.373559,26.686059 -18.84375,26.15625 L -8,15.3125 L -8,13.90625 C -8,13.390854 -8.390852,13 -8.90625,13 L -42.09375,13 z "
           transform="matrix(0.7417215,0,0,0.7335068,65.906037,-5.4829561)" />
        <path
           style="fill:#888a85;fill-opacity:1;fill-rule:evenodd;stroke:none;stroke-width:0.89999998;stroke-linecap:butt;stroke-linejoin:round;stroke-miterlimit:4;stroke-dasharray:none;stroke-opacity:1"
           d="M 34.012461,5.730666 L 41.617856,14.390884 C 41.969341,14.740992 42.317534,15.200177 43.092133,15.509739 C 43.866731,15.819301 44.850086,15.999238 46.940364,15.999238 C 49.022235,15.999239 50.365944,15.819005 51.14215,15.509739 C 51.918356,15.200473 52.263946,14.741983 52.616427,14.390884 L 60.221822,5.730666 L 52.616427,13.446106 C 51.085795,14.915233 49.056211,15.140916 46.940364,15.054461 C 44.940328,15.017509 43.025259,15.054707 41.617856,13.446106 L 34.012461,5.730666 z "
           id="path12445"
           sodipodi:nodetypes="ccssscccccc" />
        <path
           style="fill:#ffffff;fill-opacity:1;fill-rule:evenodd;stroke:none;stroke-width:0.89999998;stroke-linecap:butt;stroke-linejoin:round;stroke-miterlimit:4;stroke-dasharray:none;stroke-opacity:1"
           d="M 34.012461,5.730666 L 41.617856,12.390844 C 43.025259,13.999444 45.117105,13.962246 47.117141,13.999198 C 49.232988,14.085654 51.085795,13.859971 52.616427,12.390844 L 60.221822,5.730666 L 52.616427,13.446106 C 51.085795,14.915233 49.232988,15.140916 47.117141,15.054461 C 45.117105,15.017509 43.025259,15.054707 41.617856,13.446106 L 34.012461,5.730666 z "
           id="path12447"
           sodipodi:nodetypes="ccccccccc" />
        <path
           sodipodi:type="inkscape:offset"
           inkscape:radius="-1.0797248"
           inkscape:original="M 6.90625 54.5 C 6.1227756 54.5 5.5 55.122774 5.5 55.90625 L 5.5 78.09375 C 5.5 78.877224 6.1227756 79.499998 6.90625 79.5 L 40.09375 79.5 C 40.877224 79.5 41.5 78.877224 41.5 78.09375 L 41.5 55.90625 C 41.5 55.122776 40.877226 54.5 40.09375 54.5 L 6.90625 54.5 z "
           style="opacity:0.7;fill:none;fill-opacity:1;fill-rule:evenodd;stroke:#ffffff;stroke-width:1.31651616;stroke-linecap:butt;stroke-linejoin:round;stroke-miterlimit:4;stroke-dasharray:none;stroke-dashoffset:0.69999992;stroke-opacity:0.99236642"
           id="path12449"
           d="M 6.90625,55.59375 C 6.6949488,55.59375 6.59375,55.694947 6.59375,55.90625 L 6.59375,78.09375 C 6.59375,78.305049 6.6949473,78.406249 6.90625,78.40625 L 40.09375,78.40625 C 40.305049,78.40625 40.40625,78.305049 40.40625,78.09375 L 40.40625,55.90625 C 40.40625,55.694949 40.305052,55.59375 40.09375,55.59375 L 6.90625,55.59375 z "
           transform="matrix(0.7359712,0,0,0.7839469,29.728068,-38.957701)" />
      </g>
      <g
         id="g12451"
         transform="matrix(0.9904451,0,0,0.9904451,-66.51131,-1.68767)"
         style="display:inline">
        <path
           sodipodi:type="arc"
           style="fill:url(#radialGradient14872);fill-opacity:1;fill-rule:evenodd;stroke:none;stroke-width:1px;stroke-linecap:butt;stroke-linejoin:miter;stroke-opacity:1;display:inline"
           id="path12453"
           sodipodi:cx="38.658855"
           sodipodi:cy="9.3411446"
           sodipodi:rx="8.341651"
           sodipodi:ry="8.341651"
           d="M 47.000506 9.3411446 A 8.341651 8.341651 0 1 1  30.317204,9.3411446 A 8.341651 8.341651 0 1 1  47.000506 9.3411446 z"
           transform="matrix(1.14985,0,0,1.14985,-6.073881,0.554685)" />
        <path
           sodipodi:type="star"
           style="opacity:1;color:#000000;fill:#ffffff;fill-opacity:1;fill-rule:evenodd;stroke:none;stroke-width:0.5;stroke-linecap:butt;stroke-linejoin:miter;marker:none;marker-start:none;marker-mid:none;marker-end:none;stroke-miterlimit:4;stroke-dasharray:none;stroke-dashoffset:0;stroke-opacity:1;visibility:visible;display:inline;overflow:visible"
           id="path12455"
           sodipodi:sides="5"
           sodipodi:cx="36.9375"
           sodipodi:cy="11.125"
           sodipodi:r1="8.755579"
           sodipodi:r2="5.0676599"
           sodipodi:arg1="0.52359878"
           sodipodi:arg2="1.1519173"
           inkscape:flatsided="false"
           inkscape:rounded="0.18352206"
           inkscape:randomized="0"
           d="M 44.520054,15.50279 C 44.012883,16.381236 39.925351,15.341967 38.998703,15.754538 C 38.072055,16.167108 36.109289,19.900142 35.117113,19.689249 C 34.124936,19.478355 33.850222,15.26973 33.171495,14.515926 C 32.492767,13.762123 28.335913,13.048993 28.229885,12.040207 C 28.123857,11.031421 32.041607,9.4696164 32.548778,8.5911701 C 33.055949,7.7127238 32.449637,3.5389508 33.376285,3.1263806 C 34.302933,2.7138103 36.998949,5.957187 37.991126,6.1680807 C 38.983302,6.3789743 42.765436,4.5125708 43.444163,5.2663741 C 44.122891,6.0201775 41.871371,9.5864995 41.977399,10.595285 C 42.083426,11.604071 45.027225,14.624343 44.520054,15.50279 z "
           transform="matrix(0.674116,0.299577,-0.299577,0.674116,16.98558,-7.128679)" />
      </g>
    </g>
  </g>
</svg>
