<?xml version="1.0" encoding="UTF-8" standalone="no"?>
<!-- Created with Inkscape (http://www.inkscape.org/) -->
<svg
   xmlns:dc="http://purl.org/dc/elements/1.1/"
   xmlns:cc="http://web.resource.org/cc/"
   xmlns:rdf="http://www.w3.org/1999/02/22-rdf-syntax-ns#"
   xmlns:svg="http://www.w3.org/2000/svg"
   xmlns="http://www.w3.org/2000/svg"
   xmlns:xlink="http://www.w3.org/1999/xlink"
   xmlns:sodipodi="http://sodipodi.sourceforge.net/DTD/sodipodi-0.dtd"
   xmlns:inkscape="http://www.inkscape.org/namespaces/inkscape"
   width="32"
   height="32"
   id="svg2"
   sodipodi:version="0.32"
   inkscape:version="0.45"
   version="1.0"
   sodipodi:docname="mail-mark-important.svg"
   sodipodi:docbase="/home/lapo/Desktop/mail-stuff/32x32"
   inkscape:output_extension="org.inkscape.output.svg.inkscape">
  <defs
     id="defs4">
    <linearGradient
       id="linearGradient12604">
      <stop
         style="stop-color:#cc0000;stop-opacity:1;"
         offset="0"
         id="stop12606" />
      <stop
         style="stop-color:#ef2929;stop-opacity:1"
         offset="1"
         id="stop12608" />
    </linearGradient>
    <filter
       inkscape:collect="always"
       x="-0.10033944"
       width="1.2006789"
       y="-0.38725492"
       height="1.7745098"
       id="filter5672">
      <feGaussianBlur
         inkscape:collect="always"
         stdDeviation="77.342928"
         id="feGaussianBlur5674" />
    </filter>
    <linearGradient
       id="linearGradient6945"
       inkscape:collect="always">
      <stop
         id="stop6947"
         offset="0"
         style="stop-color:#ffffff;stop-opacity:1" />
      <stop
         id="stop6949"
         offset="1"
         style="stop-color:#d3d7cf;stop-opacity:1" />
    </linearGradient>
    <linearGradient
       id="linearGradient7063"
       inkscape:collect="always">
      <stop
         id="stop7065"
         offset="0"
         style="stop-color:#000000;stop-opacity:1;" />
      <stop
         id="stop7067"
         offset="1"
         style="stop-color:#000000;stop-opacity:0;" />
    </linearGradient>
    <linearGradient
       id="linearGradient2810"
       inkscape:collect="always">
      <stop
         id="stop2812"
         offset="0"
         style="stop-color:#f56767;stop-opacity:1;" />
      <stop
         id="stop2814"
         offset="1"
         style="stop-color:#f56767;stop-opacity:0;" />
    </linearGradient>
    <radialGradient
       inkscape:collect="always"
       xlink:href="#linearGradient6945"
       id="radialGradient12550"
       gradientUnits="userSpaceOnUse"
       gradientTransform="matrix(1.5078312,0,0,1.3940576,19.158186,-13.758711)"
       cx="12.5"
       cy="15.927882"
       fx="12.5"
       fy="15.927882"
       r="18.5" />
    <linearGradient
       inkscape:collect="always"
       xlink:href="#linearGradient7063"
       id="linearGradient12552"
       gradientUnits="userSpaceOnUse"
       gradientTransform="matrix(0.7488389,0,0,0.7459035,28.770589,-5.8308383)"
       x1="12.875"
       y1="35.314098"
       x2="12.875"
       y2="15.75" />
    <radialGradient
       inkscape:collect="always"
       xlink:href="#linearGradient6945"
       id="radialGradient12554"
       gradientUnits="userSpaceOnUse"
       gradientTransform="matrix(2.6083242,0,0,2.218814,-74.941381,-118.61799)"
       cx="13.107393"
       cy="61.48016"
       fx="13.107393"
       fy="61.48016"
       r="18.5" />
    <linearGradient
       inkscape:collect="always"
       xlink:href="#linearGradient12604"
       id="linearGradient12641"
       gradientUnits="userSpaceOnUse"
       gradientTransform="matrix(0.87251,0,0,-0.87251,-8.2351259,-43.011954)"
       x1="41.9664"
       y1="26.875"
       x2="41.9664"
       y2="38.378162" />
    <linearGradient
       inkscape:collect="always"
       xlink:href="#linearGradient2810"
       id="linearGradient12643"
       gradientUnits="userSpaceOnUse"
       gradientTransform="matrix(0.7984957,0,0,0.8486014,-5.1265221,-10.290732)"
       x1="39.107632"
       y1="30.991781"
       x2="42.51741"
       y2="41.866783" />
  </defs>
  <sodipodi:namedview
     id="base"
     pagecolor="#ffffff"
     bordercolor="#666666"
     borderopacity="0.37647059"
     inkscape:pageopacity="0"
     inkscape:pageshadow="2"
     inkscape:zoom="1"
     inkscape:cx="118.00152"
     inkscape:cy="16.07457"
     inkscape:document-units="px"
     inkscape:current-layer="layer1"
     width="32px"
     height="32px"
     inkscape:showpageshadow="false"
     gridempspacing="2"
     gridspacingx="0.5px"
     gridspacingy="0.5px"
     inkscape:window-width="872"
     inkscape:window-height="848"
     inkscape:window-x="209"
     inkscape:window-y="67"
     borderlayer="true"
     showgrid="false"
     inkscape:grid-points="true"
     showborder="true"
     showguides="true"
     inkscape:guide-bbox="false"
     inkscape:object-paths="false"
     inkscape:grid-bbox="true" />
  <metadata
     id="metadata7">
    <rdf:RDF>
      <cc:Work
         rdf:about="">
        <dc:format>image/svg+xml</dc:format>
        <dc:type
           rdf:resource="http://purl.org/dc/dcmitype/StillImage" />
        <dc:creator>
          <cc:Agent>
            <dc:title>Lapo Calamandrei</dc:title>
          </cc:Agent>
        </dc:creator>
        <cc:license
           rdf:resource="http://creativecommons.org/licenses/GPL/2.0/" />
        <dc:title>Mail stuff</dc:title>
      </cc:Work>
      <cc:License
         rdf:about="http://creativecommons.org/licenses/GPL/2.0/">
        <cc:permits
           rdf:resource="http://web.resource.org/cc/Reproduction" />
        <cc:permits
           rdf:resource="http://web.resource.org/cc/Distribution" />
        <cc:requires
           rdf:resource="http://web.resource.org/cc/Notice" />
        <cc:permits
           rdf:resource="http://web.resource.org/cc/DerivativeWorks" />
        <cc:requires
           rdf:resource="http://web.resource.org/cc/ShareAlike" />
        <cc:requires
           rdf:resource="http://web.resource.org/cc/SourceCode" />
      </cc:License>
    </rdf:RDF>
  </metadata>
  <g
     inkscape:label="Livello 1"
     inkscape:groupmode="layer"
     id="layer1">
    <g
       id="g13009">
      <g
         transform="translate(-31.99908,2.94455)"
         id="g12522">
        <g
           style="opacity:0.7;display:inline"
           id="g12524"
           transform="matrix(1.702322e-2,0,0,1.0454988e-2,62.070098,22.174883)">
          <rect
             style="opacity:0.17934786;fill:#000000;fill-opacity:1;stroke:none;stroke-width:2;stroke-linecap:butt;stroke-linejoin:miter;stroke-miterlimit:4;stroke-dasharray:none;stroke-dashoffset:0;stroke-opacity:1;filter:url(#filter5672)"
             id="rect12526"
             width="1849.9508"
             height="479.33032"
             x="-1814.411"
             y="-197.04396"
             rx="113.12692"
             ry="198.34357"
             transform="matrix(0.9496952,0,0,1,-43.332912,0)" />
        </g>
        <rect
           style="opacity:1;fill:url(#radialGradient12550);fill-opacity:1;fill-rule:evenodd;stroke:#888a85;stroke-width:0.99999994;stroke-linecap:butt;stroke-linejoin:miter;stroke-miterlimit:4;stroke-dasharray:none;stroke-dashoffset:0.69999992;stroke-opacity:0.99236642"
           id="rect12528"
           width="26.9582"
           height="19.960087"
           x="33.513042"
           y="3.5554552"
           rx="0.59981811"
           ry="0.59981811" />
        <path
           style="opacity:0.23134329;fill:url(#linearGradient12552);fill-opacity:1;fill-rule:evenodd;stroke:none;stroke-width:0.89999998;stroke-linecap:butt;stroke-linejoin:round;stroke-miterlimit:4;stroke-opacity:1"
           d="M 34.691097,3.819289 C 34.279776,3.819289 33.965659,4.132173 33.965659,4.541883 L 33.965659,5.59081 L 40.642829,14.570085 L 41.617856,13.306249 C 41.969341,12.956142 42.317534,12.496956 43.092133,12.187394 C 43.866731,11.877832 45.026863,11.697895 47.117141,11.697895 C 49.199012,11.697894 50.365944,11.878128 51.14215,12.187394 C 51.918356,12.49666 52.263946,12.95515 52.616427,13.306249 L 53.76823,14.636377 L 60.268624,5.59081 L 60.268624,4.541883 C 60.268624,4.132174 59.954509,3.819289 59.543186,3.819289 L 34.691097,3.819289 z "
           id="path12530"
           sodipodi:nodetypes="cccccssscccccc" />
        <path
           style="fill:#888a85;fill-opacity:1;fill-rule:evenodd;stroke:none;stroke-width:0.89999998;stroke-linecap:butt;stroke-linejoin:round;stroke-miterlimit:4;stroke-dasharray:none;stroke-opacity:1"
           d="M 34.012461,21.767593 L 41.617856,13.306249 C 41.969341,12.956142 42.317534,12.496956 43.092133,12.187394 C 43.866731,11.877832 45.026863,11.697895 47.117141,11.697895 C 49.199012,11.697894 50.365944,11.878128 51.14215,12.187394 C 51.918356,12.49666 52.263946,12.95515 52.616427,13.306249 L 60.221822,21.767593 L 52.616427,14.052153 C 51.085795,12.583026 49.232988,12.357343 47.117141,12.443798 C 45.117105,12.48075 43.025259,12.443552 41.617856,14.052153 L 34.012461,21.767593 z "
           id="path12532"
           sodipodi:nodetypes="ccssscccccc" />
        <path
           style="fill:#ffffff;fill-opacity:1;fill-rule:evenodd;stroke:none;stroke-width:0.89999998;stroke-linecap:butt;stroke-linejoin:round;stroke-miterlimit:4;stroke-dasharray:none;stroke-opacity:1"
           d="M 34.012461,21.783629 L 42.170283,14.946676 C 43.577686,13.338075 45.117105,13.24269 47.117141,13.205738 C 49.232988,13.119283 50.555465,13.433353 52.086097,14.902481 L 60.221822,21.783629 L 52.616427,14.068189 C 51.085795,12.599062 49.232988,12.373379 47.117141,12.459835 C 45.117105,12.496787 43.025259,12.459588 41.617856,14.068189 L 34.012461,21.783629 z "
           id="path12534"
           sodipodi:nodetypes="ccccccccc" />
        <path
           sodipodi:type="inkscape:offset"
           inkscape:radius="-0.50587863"
           inkscape:original="M -42.09375 12.5 C -42.877224 12.5 -43.5 13.122774 -43.5 13.90625 L -43.5 15.5 L -32.5 26.5 C -31.5 27.500002 -31.022703 28.5 -25.5 28.5 C -20 28.500002 -19.5 27.5 -18.5 26.5 L -7.5 15.5 L -7.5 13.90625 C -7.5 13.122776 -8.122774 12.5 -8.90625 12.5 L -42.09375 12.5 z "
           style="fill:url(#radialGradient12554);fill-opacity:1;fill-rule:evenodd;stroke:none;stroke-width:0.89999998;stroke-linecap:butt;stroke-linejoin:round;stroke-miterlimit:4;stroke-dasharray:none;stroke-opacity:1"
           id="path12536"
           d="M -42.09375,13 C -42.609146,13 -43,13.390852 -43,13.90625 L -43,15.3125 L -32.15625,26.15625 C -31.625088,26.687413 -31.33318,27.071966 -30.5,27.40625 C -29.66682,27.740534 -28.230818,28 -25.5,28 C -22.780659,28.000001 -21.336722,27.740939 -20.5,27.40625 C -19.663278,27.071561 -19.373559,26.686059 -18.84375,26.15625 L -8,15.3125 L -8,13.90625 C -8,13.390854 -8.390852,13 -8.90625,13 L -42.09375,13 z "
           transform="matrix(0.7417215,0,0,0.7335068,65.906037,-5.4829561)" />
        <path
           style="fill:#888a85;fill-opacity:1;fill-rule:evenodd;stroke:none;stroke-width:0.89999998;stroke-linecap:butt;stroke-linejoin:round;stroke-miterlimit:4;stroke-dasharray:none;stroke-opacity:1"
           d="M 34.012461,5.730666 L 41.617856,14.390884 C 41.969341,14.740992 42.317534,15.200177 43.092133,15.509739 C 43.866731,15.819301 44.850086,15.999238 46.940364,15.999238 C 49.022235,15.999239 50.365944,15.819005 51.14215,15.509739 C 51.918356,15.200473 52.263946,14.741983 52.616427,14.390884 L 60.221822,5.730666 L 52.616427,13.446106 C 51.085795,14.915233 49.056211,15.140916 46.940364,15.054461 C 44.940328,15.017509 43.025259,15.054707 41.617856,13.446106 L 34.012461,5.730666 z "
           id="path12538"
           sodipodi:nodetypes="ccssscccccc" />
        <path
           style="fill:#ffffff;fill-opacity:1;fill-rule:evenodd;stroke:none;stroke-width:0.89999998;stroke-linecap:butt;stroke-linejoin:round;stroke-miterlimit:4;stroke-dasharray:none;stroke-opacity:1"
           d="M 34.012461,5.730666 L 41.617856,12.390844 C 43.025259,13.999444 45.117105,13.962246 47.117141,13.999198 C 49.232988,14.085654 51.085795,13.859971 52.616427,12.390844 L 60.221822,5.730666 L 52.616427,13.446106 C 51.085795,14.915233 49.232988,15.140916 47.117141,15.054461 C 45.117105,15.017509 43.025259,15.054707 41.617856,13.446106 L 34.012461,5.730666 z "
           id="path12540"
           sodipodi:nodetypes="ccccccccc" />
        <path
           sodipodi:type="inkscape:offset"
           inkscape:radius="-1.0797248"
           inkscape:original="M 6.90625 54.5 C 6.1227756 54.5 5.5 55.122774 5.5 55.90625 L 5.5 78.09375 C 5.5 78.877224 6.1227756 79.499998 6.90625 79.5 L 40.09375 79.5 C 40.877224 79.5 41.5 78.877224 41.5 78.09375 L 41.5 55.90625 C 41.5 55.122776 40.877226 54.5 40.09375 54.5 L 6.90625 54.5 z "
           style="opacity:0.7;fill:none;fill-opacity:1;fill-rule:evenodd;stroke:#ffffff;stroke-width:1.31651616;stroke-linecap:butt;stroke-linejoin:round;stroke-miterlimit:4;stroke-dasharray:none;stroke-dashoffset:0.69999992;stroke-opacity:0.99236642"
           id="path12542"
           d="M 6.90625,55.59375 C 6.6949488,55.59375 6.59375,55.694947 6.59375,55.90625 L 6.59375,78.09375 C 6.59375,78.305049 6.6949473,78.406249 6.90625,78.40625 L 40.09375,78.40625 C 40.305049,78.40625 40.40625,78.305049 40.40625,78.09375 L 40.40625,55.90625 C 40.40625,55.694949 40.305052,55.59375 40.09375,55.59375 L 6.90625,55.59375 z "
           transform="matrix(0.7359712,0,0,0.7839469,29.728068,-38.957701)" />
      </g>
      <g
         id="g12636">
        <path
           id="path12619"
           d="M 26.5,9.5 L 26.5,22.5 L 30.5,22.5 L 30.5,9.5 L 26.5,9.5 z M 26.5,24.5 L 26.5,28.5 L 30.5,28.5 L 30.5,24.5 L 26.5,24.5 z "
           style="fill:url(#linearGradient12641);fill-opacity:1;stroke:#a40000;stroke-width:1;stroke-linecap:round;stroke-linejoin:round;stroke-miterlimit:4;stroke-opacity:1"
           sodipodi:nodetypes="cccccccccc" />
        <path
           style="fill:none;fill-opacity:1;stroke:url(#linearGradient12643);stroke-width:1.00000024;stroke-linecap:round;stroke-linejoin:round;stroke-miterlimit:4;stroke-opacity:1"
           d="M 27.5,10.5 L 29.5,10.5 L 29.5,21.5 L 27.5,21.5 L 27.5,10.5 z "
           id="path12621"
           sodipodi:nodetypes="ccccc" />
        <rect
           style="fill:none;fill-opacity:1;stroke:#ef2929;stroke-width:0.99999851;stroke-linecap:round;stroke-linejoin:round;stroke-miterlimit:4;stroke-dasharray:none;stroke-opacity:1"
           id="rect12623"
           width="2.020308"
           height="2.0000007"
           x="27.479702"
           y="25.5" />
      </g>
    </g>
  </g>
</svg>
