<?xml version="1.0" encoding="UTF-8" standalone="no"?>
<!-- Created with Inkscape (http://www.inkscape.org/) -->
<svg
   xmlns:dc="http://purl.org/dc/elements/1.1/"
   xmlns:cc="http://web.resource.org/cc/"
   xmlns:rdf="http://www.w3.org/1999/02/22-rdf-syntax-ns#"
   xmlns:svg="http://www.w3.org/2000/svg"
   xmlns="http://www.w3.org/2000/svg"
   xmlns:xlink="http://www.w3.org/1999/xlink"
   xmlns:sodipodi="http://sodipodi.sourceforge.net/DTD/sodipodi-0.dtd"
   xmlns:inkscape="http://www.inkscape.org/namespaces/inkscape"
   width="32"
   height="32"
   id="svg2"
   sodipodi:version="0.32"
   inkscape:version="0.45"
   version="1.0"
   sodipodi:docname="mail-forward.svg"
   sodipodi:docbase="/home/dobey/Projects/gnome-icon-theme/32x32/actions"
   inkscape:output_extension="org.inkscape.output.svg.inkscape">
  <defs
     id="defs4">
    <linearGradient
       inkscape:collect="always"
       id="linearGradient12384">
      <stop
         style="stop-color:#ffffff;stop-opacity:1;"
         offset="0"
         id="stop12386" />
      <stop
         style="stop-color:#ffffff;stop-opacity:0;"
         offset="1"
         id="stop12388" />
    </linearGradient>
    <linearGradient
       inkscape:collect="always"
       id="linearGradient12352">
      <stop
         style="stop-color:#ffffff;stop-opacity:1;"
         offset="0"
         id="stop12354" />
      <stop
         style="stop-color:#ffffff;stop-opacity:0;"
         offset="1"
         id="stop12356" />
    </linearGradient>
    <linearGradient
       inkscape:collect="always"
       id="linearGradient12282">
      <stop
         style="stop-color:#3465a4;stop-opacity:1"
         offset="0"
         id="stop12284" />
      <stop
         style="stop-color:#3465a4;stop-opacity:0"
         offset="1"
         id="stop12286" />
    </linearGradient>
    <linearGradient
       inkscape:collect="always"
       id="linearGradient12276">
      <stop
         style="stop-color:#729fcf;stop-opacity:1"
         offset="0"
         id="stop12278" />
      <stop
         style="stop-color:#729fcf;stop-opacity:0"
         offset="1"
         id="stop12280" />
    </linearGradient>
    <filter
       inkscape:collect="always"
       x="-0.10033944"
       width="1.2006789"
       y="-0.38725492"
       height="1.7745098"
       id="filter5672">
      <feGaussianBlur
         inkscape:collect="always"
         stdDeviation="77.342928"
         id="feGaussianBlur5674" />
    </filter>
    <linearGradient
       inkscape:collect="always"
       id="linearGradient8291">
      <stop
         style="stop-color:#000000;stop-opacity:1;"
         offset="0"
         id="stop8293" />
      <stop
         style="stop-color:#000000;stop-opacity:0;"
         offset="1"
         id="stop8295" />
    </linearGradient>
    <linearGradient
       id="linearGradient6945"
       inkscape:collect="always">
      <stop
         id="stop6947"
         offset="0"
         style="stop-color:#ffffff;stop-opacity:1" />
      <stop
         id="stop6949"
         offset="1"
         style="stop-color:#d3d7cf;stop-opacity:1" />
    </linearGradient>
    <linearGradient
       id="linearGradient7063"
       inkscape:collect="always">
      <stop
         id="stop7065"
         offset="0"
         style="stop-color:#000000;stop-opacity:1;" />
      <stop
         id="stop7067"
         offset="1"
         style="stop-color:#000000;stop-opacity:0;" />
    </linearGradient>
    <radialGradient
       inkscape:collect="always"
       xlink:href="#linearGradient6945"
       id="radialGradient12312"
       gradientUnits="userSpaceOnUse"
       gradientTransform="matrix(1.5078312,0,0,1.3940576,19.158186,-13.758711)"
       cx="12.5"
       cy="15.927882"
       fx="12.5"
       fy="15.927882"
       r="18.5" />
    <linearGradient
       inkscape:collect="always"
       xlink:href="#linearGradient7063"
       id="linearGradient12314"
       gradientUnits="userSpaceOnUse"
       gradientTransform="matrix(0.7488389,0,0,0.7459035,28.770589,-5.8308383)"
       x1="12.875"
       y1="35.314098"
       x2="12.875"
       y2="15.75" />
    <radialGradient
       inkscape:collect="always"
       xlink:href="#linearGradient6945"
       id="radialGradient12316"
       gradientUnits="userSpaceOnUse"
       gradientTransform="matrix(2.6083242,0,0,2.218814,-74.941381,-118.61799)"
       cx="13.107393"
       cy="61.48016"
       fx="13.107393"
       fy="61.48016"
       r="18.5" />
    <radialGradient
       inkscape:collect="always"
       xlink:href="#linearGradient8291"
       id="radialGradient12398"
       gradientUnits="userSpaceOnUse"
       gradientTransform="matrix(1,0,0,0.2458842,0,31.065119)"
       cx="22.738329"
       cy="41.194096"
       fx="22.738329"
       fy="41.194096"
       r="14.73833" />
    <linearGradient
       inkscape:collect="always"
       xlink:href="#linearGradient12276"
       id="linearGradient12408"
       gradientUnits="userSpaceOnUse"
       gradientTransform="matrix(-0.7141287,0,0,0.7438483,107.99396,-3.480435)"
       x1="23.014259"
       y1="31.687447"
       x2="25.83486"
       y2="24.807325" />
    <linearGradient
       inkscape:collect="always"
       xlink:href="#linearGradient12282"
       id="linearGradient12410"
       gradientUnits="userSpaceOnUse"
       gradientTransform="matrix(-0.7141287,0,0,0.7438483,107.99396,-3.480435)"
       x1="25.285412"
       y1="28.925581"
       x2="27.392826"
       y2="24.727669" />
    <linearGradient
       inkscape:collect="always"
       xlink:href="#linearGradient12352"
       id="linearGradient12412"
       gradientUnits="userSpaceOnUse"
       x1="86.001862"
       y1="29.3125"
       x2="85.375"
       y2="22.962238" />
    <linearGradient
       inkscape:collect="always"
       xlink:href="#linearGradient12384"
       id="linearGradient12414"
       gradientUnits="userSpaceOnUse"
       x1="80.079842"
       y1="19.316273"
       x2="79.814674"
       y2="16.841398" />
  </defs>
  <sodipodi:namedview
     id="base"
     pagecolor="#ffffff"
     bordercolor="#666666"
     borderopacity="0.37647059"
     inkscape:pageopacity="0"
     inkscape:pageshadow="2"
     inkscape:zoom="11.313708"
     inkscape:cx="4.1667315"
     inkscape:cy="2.9376548"
     inkscape:document-units="px"
     inkscape:current-layer="layer1"
     width="32px"
     height="32px"
     inkscape:showpageshadow="false"
     gridempspacing="2"
     gridspacingx="0.5px"
     gridspacingy="0.5px"
     inkscape:window-width="872"
     inkscape:window-height="848"
     inkscape:window-x="209"
     inkscape:window-y="67"
     borderlayer="true"
     showgrid="false"
     inkscape:grid-points="true"
     showborder="true"
     showguides="true"
     inkscape:guide-bbox="true" />
  <metadata
     id="metadata7">
    <rdf:RDF>
      <cc:Work
         rdf:about="">
        <dc:format>image/svg+xml</dc:format>
        <dc:type
           rdf:resource="http://purl.org/dc/dcmitype/StillImage" />
        <dc:creator>
          <cc:Agent>
            <dc:title>Lapo Calamandrei</dc:title>
          </cc:Agent>
        </dc:creator>
        <cc:license
           rdf:resource="http://creativecommons.org/licenses/GPL/2.0/" />
      </cc:Work>
      <cc:License
         rdf:about="http://creativecommons.org/licenses/GPL/2.0/">
        <cc:permits
           rdf:resource="http://web.resource.org/cc/Reproduction" />
        <cc:permits
           rdf:resource="http://web.resource.org/cc/Distribution" />
        <cc:requires
           rdf:resource="http://web.resource.org/cc/Notice" />
        <cc:permits
           rdf:resource="http://web.resource.org/cc/DerivativeWorks" />
        <cc:requires
           rdf:resource="http://web.resource.org/cc/ShareAlike" />
        <cc:requires
           rdf:resource="http://web.resource.org/cc/SourceCode" />
      </cc:License>
    </rdf:RDF>
  </metadata>
  <g
     inkscape:label="Livello 1"
     inkscape:groupmode="layer"
     id="layer1">
    <g
       id="g9812"
       transform="matrix(-1,0,0,1,7,-8)" />
    <g
       id="g12392"
       style="opacity:0.3"
       transform="matrix(1.0208331,0,0,1.0999998,-14.20833,-19.499991)">
      <path
         transform="matrix(0.678503,0,0,1.3797206,22.571977,-16.836343)"
         d="M 37.476659 41.194096 A 14.73833 3.6239223 0 1 1  7.999999,41.194096 A 14.73833 3.6239223 0 1 1  37.476659 41.194096 z"
         sodipodi:ry="3.6239223"
         sodipodi:rx="14.73833"
         sodipodi:cy="41.194096"
         sodipodi:cx="22.738329"
         id="path12394"
         style="opacity:1;fill:url(#radialGradient12398);fill-opacity:1;fill-rule:evenodd;stroke:none;stroke-width:1;stroke-linecap:round;stroke-linejoin:round;stroke-miterlimit:4;stroke-dasharray:none;stroke-dashoffset:0.69999992;stroke-opacity:1"
         sodipodi:type="arc" />
    </g>
    <g
       id="g12288"
       transform="translate(-31.99908,-5.5455e-2)">
      <g
         transform="matrix(1.702322e-2,0,0,1.0454988e-2,62.070098,22.174883)"
         id="g12290"
         style="opacity:0.7;display:inline">
        <rect
           transform="matrix(0.9496952,0,0,1,15.410381,0)"
           ry="198.34357"
           rx="113.12692"
           y="-197.04396"
           x="-1814.411"
           height="479.33032"
           width="1849.9508"
           id="rect12292"
           style="opacity:0.17934786;fill:#000000;fill-opacity:1;stroke:none;stroke-width:2;stroke-linecap:butt;stroke-linejoin:miter;stroke-miterlimit:4;stroke-dasharray:none;stroke-dashoffset:0;stroke-opacity:1;filter:url(#filter5672)" />
      </g>
      <rect
         ry="0.59981811"
         rx="0.59981811"
         y="3.5554552"
         x="33.513042"
         height="19.960087"
         width="26.9582"
         id="rect12294"
         style="opacity:1;fill:url(#radialGradient12312);fill-opacity:1;fill-rule:evenodd;stroke:#888a85;stroke-width:0.99999994;stroke-linecap:butt;stroke-linejoin:miter;stroke-miterlimit:4;stroke-dasharray:none;stroke-dashoffset:0.69999992;stroke-opacity:0.99236642" />
      <path
         sodipodi:nodetypes="cccccssscccccc"
         id="path12296"
         d="M 34.691097,3.819289 C 34.279776,3.819289 33.965659,4.132173 33.965659,4.541883 L 33.965659,5.59081 L 40.642829,14.570085 L 41.617856,13.306249 C 41.969341,12.956142 42.317534,12.496956 43.092133,12.187394 C 43.866731,11.877832 45.026863,11.697895 47.117141,11.697895 C 49.199012,11.697894 50.365944,11.878128 51.14215,12.187394 C 51.918356,12.49666 52.263946,12.95515 52.616427,13.306249 L 53.76823,14.636377 L 60.268624,5.59081 L 60.268624,4.541883 C 60.268624,4.132174 59.954509,3.819289 59.543186,3.819289 L 34.691097,3.819289 z "
         style="opacity:0.23134329;fill:url(#linearGradient12314);fill-opacity:1;fill-rule:evenodd;stroke:none;stroke-width:0.89999998;stroke-linecap:butt;stroke-linejoin:round;stroke-miterlimit:4;stroke-opacity:1" />
      <path
         sodipodi:nodetypes="ccssscccccc"
         id="path12298"
         d="M 34.012461,21.767593 L 41.617856,13.306249 C 41.969341,12.956142 42.317534,12.496956 43.092133,12.187394 C 43.866731,11.877832 45.026863,11.697895 47.117141,11.697895 C 49.199012,11.697894 50.365944,11.878128 51.14215,12.187394 C 51.918356,12.49666 52.263946,12.95515 52.616427,13.306249 L 60.221822,21.767593 L 52.616427,14.052153 C 51.085795,12.583026 49.232988,12.357343 47.117141,12.443798 C 45.117105,12.48075 43.025259,12.443552 41.617856,14.052153 L 34.012461,21.767593 z "
         style="fill:#888a85;fill-opacity:1;fill-rule:evenodd;stroke:none;stroke-width:0.89999998;stroke-linecap:butt;stroke-linejoin:round;stroke-miterlimit:4;stroke-dasharray:none;stroke-opacity:1" />
      <path
         sodipodi:nodetypes="ccccccccc"
         id="path12300"
         d="M 34.012461,21.783629 L 42.170283,14.946676 C 43.577686,13.338075 45.117105,13.24269 47.117141,13.205738 C 49.232988,13.119283 50.555465,13.433353 52.086097,14.902481 L 60.221822,21.783629 L 52.616427,14.068189 C 51.085795,12.599062 49.232988,12.373379 47.117141,12.459835 C 45.117105,12.496787 43.025259,12.459588 41.617856,14.068189 L 34.012461,21.783629 z "
         style="fill:#ffffff;fill-opacity:1;fill-rule:evenodd;stroke:none;stroke-width:0.89999998;stroke-linecap:butt;stroke-linejoin:round;stroke-miterlimit:4;stroke-dasharray:none;stroke-opacity:1" />
      <path
         transform="matrix(0.7417215,0,0,0.7335068,65.906037,-5.4829561)"
         d="M -42.09375,13 C -42.609146,13 -43,13.390852 -43,13.90625 L -43,15.3125 L -32.15625,26.15625 C -31.625088,26.687413 -31.33318,27.071966 -30.5,27.40625 C -29.66682,27.740534 -28.230818,28 -25.5,28 C -22.780659,28.000001 -21.336722,27.740939 -20.5,27.40625 C -19.663278,27.071561 -19.373559,26.686059 -18.84375,26.15625 L -8,15.3125 L -8,13.90625 C -8,13.390854 -8.390852,13 -8.90625,13 L -42.09375,13 z "
         id="path12302"
         style="fill:url(#radialGradient12316);fill-opacity:1;fill-rule:evenodd;stroke:none;stroke-width:0.89999998;stroke-linecap:butt;stroke-linejoin:round;stroke-miterlimit:4;stroke-dasharray:none;stroke-opacity:1"
         inkscape:original="M -42.09375 12.5 C -42.877224 12.5 -43.5 13.122774 -43.5 13.90625 L -43.5 15.5 L -32.5 26.5 C -31.5 27.500002 -31.022703 28.5 -25.5 28.5 C -20 28.500002 -19.5 27.5 -18.5 26.5 L -7.5 15.5 L -7.5 13.90625 C -7.5 13.122776 -8.122774 12.5 -8.90625 12.5 L -42.09375 12.5 z "
         inkscape:radius="-0.50587863"
         sodipodi:type="inkscape:offset" />
      <path
         sodipodi:nodetypes="ccssscccccc"
         id="path12304"
         d="M 34.012461,5.730666 L 41.617856,14.390884 C 41.969341,14.740992 42.317534,15.200177 43.092133,15.509739 C 43.866731,15.819301 44.850086,15.999238 46.940364,15.999238 C 49.022235,15.999239 50.365944,15.819005 51.14215,15.509739 C 51.918356,15.200473 52.263946,14.741983 52.616427,14.390884 L 60.221822,5.730666 L 52.616427,13.446106 C 51.085795,14.915233 49.056211,15.140916 46.940364,15.054461 C 44.940328,15.017509 43.025259,15.054707 41.617856,13.446106 L 34.012461,5.730666 z "
         style="fill:#888a85;fill-opacity:1;fill-rule:evenodd;stroke:none;stroke-width:0.89999998;stroke-linecap:butt;stroke-linejoin:round;stroke-miterlimit:4;stroke-dasharray:none;stroke-opacity:1" />
      <path
         sodipodi:nodetypes="ccccccccc"
         id="path12306"
         d="M 34.012461,5.730666 L 41.617856,12.390844 C 43.025259,13.999444 45.117105,13.962246 47.117141,13.999198 C 49.232988,14.085654 51.085795,13.859971 52.616427,12.390844 L 60.221822,5.730666 L 52.616427,13.446106 C 51.085795,14.915233 49.232988,15.140916 47.117141,15.054461 C 45.117105,15.017509 43.025259,15.054707 41.617856,13.446106 L 34.012461,5.730666 z "
         style="fill:#ffffff;fill-opacity:1;fill-rule:evenodd;stroke:none;stroke-width:0.89999998;stroke-linecap:butt;stroke-linejoin:round;stroke-miterlimit:4;stroke-dasharray:none;stroke-opacity:1" />
      <path
         transform="matrix(0.7359712,0,0,0.7839469,29.728068,-38.957701)"
         d="M 6.90625,55.59375 C 6.6949488,55.59375 6.59375,55.694947 6.59375,55.90625 L 6.59375,78.09375 C 6.59375,78.305049 6.6949473,78.406249 6.90625,78.40625 L 40.09375,78.40625 C 40.305049,78.40625 40.40625,78.305049 40.40625,78.09375 L 40.40625,55.90625 C 40.40625,55.694949 40.305052,55.59375 40.09375,55.59375 L 6.90625,55.59375 z "
         id="path12308"
         style="opacity:0.7;fill:none;fill-opacity:1;fill-rule:evenodd;stroke:#ffffff;stroke-width:1.31651616;stroke-linecap:butt;stroke-linejoin:round;stroke-miterlimit:4;stroke-dasharray:none;stroke-dashoffset:0.69999992;stroke-opacity:0.99236642"
         inkscape:original="M 6.90625 54.5 C 6.1227756 54.5 5.5 55.122774 5.5 55.90625 L 5.5 78.09375 C 5.5 78.877224 6.1227756 79.499998 6.90625 79.5 L 40.09375 79.5 C 40.877224 79.5 41.5 78.877224 41.5 78.09375 L 41.5 55.90625 C 41.5 55.122776 40.877226 54.5 40.09375 54.5 L 6.90625 54.5 z "
         inkscape:radius="-1.0797248"
         sodipodi:type="inkscape:offset" />
    </g>
    <g
       id="g12403"
       transform="translate(-71,0)">
      <path
         sodipodi:nodetypes="cccccccccc"
         id="path12310"
         d="M 95.496703,30.480437 L 102.51059,24.5 L 95.510586,18.5 L 95.510586,21.5 L 94.510586,21.5 C 92.3682,21.5 90.642386,20.322711 90.642386,14.000002 L 88.5,14 C 88.5,27.017346 93,27.5 95.010586,27.5 L 95.510586,27.5 L 95.496703,30.480437 z "
         style="opacity:1;fill:url(#linearGradient12408);fill-opacity:1;fill-rule:evenodd;stroke:url(#linearGradient12410);stroke-width:1px;stroke-linecap:butt;stroke-linejoin:round;stroke-opacity:1" />
      <path
         transform="translate(10,0)"
         d="M 79.0625,14.53125 C 79.129846,20.585468 80.190262,23.765308 81.40625,25.3125 C 82.661489,26.909635 84.037217,26.96875 85,26.96875 L 85.5,26.96875 C 85.793389,26.968779 86.031221,27.206611 86.03125,27.5 L 86.03125,29.3125 L 91.6875,24.5 L 86.03125,19.65625 L 86.03125,21.5 C 86.031221,21.793389 85.793389,22.031221 85.5,22.03125 L 84.5,22.03125 C 83.331494,22.03125 82.102124,21.641897 81.3125,20.40625 C 80.576058,19.253825 80.207917,17.369718 80.15625,14.53125 L 79.0625,14.53125 z "
         id="path12338"
         style="opacity:0.3;fill:url(#linearGradient12412);fill-opacity:1;fill-rule:evenodd;stroke:none;stroke-width:1px;stroke-linecap:butt;stroke-linejoin:round;stroke-opacity:1"
         inkscape:original="M 78.5 14 C 78.5 27.017346 82.989414 27.5 85 27.5 L 85.5 27.5 L 85.5 30.46875 L 92.5 24.5 L 85.5 18.5 L 85.5 21.5 L 84.5 21.5 C 82.35761 21.5 80.65625 20.322709 80.65625 14 L 78.5 14 z "
         inkscape:radius="-0.53125"
         sodipodi:type="inkscape:offset" />
      <path
         transform="translate(10,0)"
         d="M 79.625,15.03125 C 79.656335,16.245904 79.827731,17.065079 79.9375,18.03125 C 79.781198,17.220394 79.757369,16.129619 79.71875,15.03125 L 79.625,15.03125 z M 79.9375,18.03125 C 80.32713,21.460711 80.982461,23.943879 81.8125,25 C 82.956664,26.455806 84.077084,26.46875 85,26.46875 L 85.5,26.46875 C 85.773641,26.468305 86.036201,26.576812 86.229695,26.770305 C 86.423188,26.963799 86.531695,27.226359 86.53125,27.5 L 86.53125,28.25 L 90.9375,24.5 L 86.53125,20.71875 L 86.53125,21.5 C 86.531695,21.773641 86.423188,22.036201 86.229695,22.229695 C 86.036201,22.423188 85.773641,22.531695 85.5,22.53125 L 84.5,22.53125 C 83.240232,22.53125 81.786362,22.064748 80.90625,20.6875 C 80.466194,19.998876 80.147605,19.121224 79.9375,18.03125 z "
         id="path12370"
         style="opacity:0.5;fill:none;fill-opacity:1;fill-rule:evenodd;stroke:url(#linearGradient12414);stroke-width:1px;stroke-linecap:butt;stroke-linejoin:miter;stroke-opacity:1"
         inkscape:original="M 78.5 14 C 78.5 27.017346 82.989414 27.5 85 27.5 L 85.5 27.5 L 85.5 30.46875 L 92.5 24.5 L 85.5 18.5 L 85.5 21.5 L 84.5 21.5 C 82.35761 21.5 80.65625 20.322709 80.65625 14 L 78.5 14 z "
         inkscape:radius="-1.0294756"
         sodipodi:type="inkscape:offset" />
    </g>
  </g>
</svg>
