<?xml version="1.0" encoding="UTF-8" standalone="no"?>
<!-- Created with Inkscape (http://www.inkscape.org/) -->
<svg
   xmlns:dc="http://purl.org/dc/elements/1.1/"
   xmlns:cc="http://web.resource.org/cc/"
   xmlns:rdf="http://www.w3.org/1999/02/22-rdf-syntax-ns#"
   xmlns:svg="http://www.w3.org/2000/svg"
   xmlns="http://www.w3.org/2000/svg"
   xmlns:xlink="http://www.w3.org/1999/xlink"
   xmlns:sodipodi="http://sodipodi.sourceforge.net/DTD/sodipodi-0.dtd"
   xmlns:inkscape="http://www.inkscape.org/namespaces/inkscape"
   width="32"
   height="32"
   id="svg2"
   sodipodi:version="0.32"
   inkscape:version="0.45"
   version="1.0"
   sodipodi:docname="mail-mark-read.svg"
   sodipodi:docbase="/home/dobey/Projects/gnome-icon-theme/32x32/actions"
   inkscape:output_extension="org.inkscape.output.svg.inkscape">
  <defs
     id="defs4">
    <filter
       inkscape:collect="always"
       x="-0.10033944"
       width="1.2006789"
       y="-0.38725492"
       height="1.7745098"
       id="filter5672">
      <feGaussianBlur
         inkscape:collect="always"
         stdDeviation="77.342928"
         id="feGaussianBlur5674" />
    </filter>
    <linearGradient
       inkscape:collect="always"
       id="linearGradient9007">
      <stop
         style="stop-color:#ffffff;stop-opacity:1;"
         offset="0"
         id="stop9009" />
      <stop
         style="stop-color:#eeeeec;stop-opacity:1"
         offset="1"
         id="stop9011" />
    </linearGradient>
    <linearGradient
       id="linearGradient8982">
      <stop
         style="stop-color:#999999;stop-opacity:1;"
         offset="0"
         id="stop8984" />
      <stop
         style="stop-color:#555753;stop-opacity:1"
         offset="1"
         id="stop8986" />
    </linearGradient>
    <linearGradient
       inkscape:collect="always"
       id="linearGradient10321">
      <stop
         style="stop-color:#000000;stop-opacity:1;"
         offset="0"
         id="stop10323" />
      <stop
         style="stop-color:#000000;stop-opacity:0;"
         offset="1"
         id="stop10325" />
    </linearGradient>
    <linearGradient
       inkscape:collect="always"
       id="linearGradient10176">
      <stop
         style="stop-color:#ffffff;stop-opacity:1;"
         offset="0"
         id="stop10178" />
      <stop
         style="stop-color:#ffffff;stop-opacity:0;"
         offset="1"
         id="stop10180" />
    </linearGradient>
    <linearGradient
       inkscape:collect="always"
       id="linearGradient8476">
      <stop
         style="stop-color:#ffffff;stop-opacity:1;"
         offset="0"
         id="stop8478" />
      <stop
         style="stop-color:#ffffff;stop-opacity:0;"
         offset="1"
         id="stop8480" />
    </linearGradient>
    <linearGradient
       id="linearGradient8451">
      <stop
         id="stop8453"
         offset="0"
         style="stop-color:#ffffff;stop-opacity:0.39215687;" />
      <stop
         id="stop8455"
         offset="1"
         style="stop-color:#729fcf;stop-opacity:1" />
    </linearGradient>
    <linearGradient
       id="linearGradient6945"
       inkscape:collect="always">
      <stop
         id="stop6947"
         offset="0"
         style="stop-color:#ffffff;stop-opacity:1" />
      <stop
         id="stop6949"
         offset="1"
         style="stop-color:#d3d7cf;stop-opacity:1" />
    </linearGradient>
    <linearGradient
       id="linearGradient6932"
       inkscape:collect="always">
      <stop
         id="stop6934"
         offset="0"
         style="stop-color:#000000;stop-opacity:1;" />
      <stop
         id="stop9565"
         offset="1"
         style="stop-color:#000000;stop-opacity:0;" />
    </linearGradient>
    <linearGradient
       id="linearGradient7002"
       inkscape:collect="always">
      <stop
         id="stop7004"
         offset="0"
         style="stop-color:#000000;stop-opacity:1;" />
      <stop
         id="stop7006"
         offset="1"
         style="stop-color:#000000;stop-opacity:0;" />
    </linearGradient>
    <linearGradient
       id="linearGradient7059"
       inkscape:collect="always">
      <stop
         id="stop7061"
         offset="0"
         style="stop-color:#babdb6;stop-opacity:1" />
      <stop
         id="stop7063"
         offset="1"
         style="stop-color:#babdb6;stop-opacity:0" />
    </linearGradient>
    <linearGradient
       id="linearGradient7067"
       inkscape:collect="always">
      <stop
         id="stop7069"
         offset="0"
         style="stop-color:#ffffff;stop-opacity:1" />
      <stop
         id="stop7071"
         offset="1"
         style="stop-color:#eeeeec;stop-opacity:1" />
    </linearGradient>
    <linearGradient
       id="linearGradient7088"
       inkscape:collect="always">
      <stop
         id="stop7090"
         offset="0"
         style="stop-color:#ffffff;stop-opacity:1;" />
      <stop
         id="stop7092"
         offset="1"
         style="stop-color:#ffffff;stop-opacity:0;" />
    </linearGradient>
    <radialGradient
       inkscape:collect="always"
       xlink:href="#linearGradient6945"
       id="radialGradient14818"
       gradientUnits="userSpaceOnUse"
       gradientTransform="matrix(1.9567181,0,0,-1.6630304,-21.093317,126.25714)"
       cx="13.107393"
       cy="61.48016"
       fx="13.107393"
       fy="61.48016"
       r="18.5" />
    <linearGradient
       inkscape:collect="always"
       xlink:href="#linearGradient7002"
       id="linearGradient14820"
       gradientUnits="userSpaceOnUse"
       gradientTransform="matrix(0.7501821,0,0,0.9009258,-2.382739,-5.1479639)"
       x1="15.75"
       y1="24.561808"
       x2="15.75"
       y2="35.853024" />
    <radialGradient
       inkscape:collect="always"
       xlink:href="#linearGradient7067"
       id="radialGradient14822"
       gradientUnits="userSpaceOnUse"
       gradientTransform="matrix(1.1430831,0,0,1.0616103,-11.58479,-11.575394)"
       cx="26.762928"
       cy="25.349953"
       fx="26.762928"
       fy="25.349953"
       r="15.5" />
    <linearGradient
       inkscape:collect="always"
       xlink:href="#linearGradient7059"
       id="linearGradient14824"
       gradientUnits="userSpaceOnUse"
       gradientTransform="matrix(0.7661746,0,0,0.8021287,-2.774554,-4.5141208)"
       x1="9.0107775"
       y1="19.584124"
       x2="9.0107775"
       y2="24.779999" />
    <linearGradient
       inkscape:collect="always"
       xlink:href="#linearGradient7088"
       id="linearGradient14826"
       gradientUnits="userSpaceOnUse"
       gradientTransform="matrix(0.7497661,0,0,0.7873342,-2.3725436,-4.1923409)"
       x1="9.9965248"
       y1="21.246521"
       x2="9.9965248"
       y2="25.371557" />
    <linearGradient
       inkscape:collect="always"
       xlink:href="#linearGradient6932"
       id="linearGradient14828"
       gradientUnits="userSpaceOnUse"
       x1="32.625"
       y1="68.4375"
       x2="32.625"
       y2="58.838387" />
    <radialGradient
       inkscape:collect="always"
       xlink:href="#linearGradient6945"
       id="radialGradient14830"
       gradientUnits="userSpaceOnUse"
       gradientTransform="matrix(1.9567181,0,0,1.749131,-21.093317,-93.589121)"
       cx="13.107393"
       cy="61.48016"
       fx="13.107393"
       fy="61.48016"
       r="18.5" />
    <radialGradient
       inkscape:collect="always"
       xlink:href="#linearGradient10321"
       id="radialGradient14832"
       gradientUnits="userSpaceOnUse"
       gradientTransform="matrix(1,0,0,0.326087,0,29.862772)"
       cx="10.125"
       cy="44.3125"
       fx="10.125"
       fy="44.3125"
       r="8.625" />
    <radialGradient
       inkscape:collect="always"
       xlink:href="#linearGradient10321"
       id="radialGradient14834"
       gradientUnits="userSpaceOnUse"
       gradientTransform="matrix(1,0,0,0.326087,0,29.862772)"
       cx="10.125"
       cy="44.3125"
       fx="10.125"
       fy="44.3125"
       r="8.625" />
    <radialGradient
       inkscape:collect="always"
       xlink:href="#linearGradient8451"
       id="radialGradient14836"
       gradientUnits="userSpaceOnUse"
       gradientTransform="matrix(4.6186209,0,0,2.6728548,-8.8301771,-89.972136)"
       cx="2.7631104"
       cy="28.521011"
       fx="2.7631104"
       fy="28.521011"
       r="4" />
    <linearGradient
       inkscape:collect="always"
       xlink:href="#linearGradient8476"
       id="linearGradient14838"
       gradientUnits="userSpaceOnUse"
       x1="1.8203087"
       y1="31.304846"
       x2="3.6746171"
       y2="25.077253" />
    <linearGradient
       inkscape:collect="always"
       xlink:href="#linearGradient10176"
       id="linearGradient14840"
       gradientUnits="userSpaceOnUse"
       gradientTransform="matrix(0.6596425,0,0,0.7339449,2.0210725,-43.357798)"
       x1="5.28125"
       y1="41.974228"
       x2="8.40625"
       y2="45.905655" />
    <linearGradient
       inkscape:collect="always"
       xlink:href="#linearGradient8982"
       id="linearGradient14842"
       gradientUnits="userSpaceOnUse"
       x1="0.63528514"
       y1="34.062977"
       x2="14.672917"
       y2="28.938154" />
    <radialGradient
       inkscape:collect="always"
       xlink:href="#linearGradient9007"
       id="radialGradient14844"
       gradientUnits="userSpaceOnUse"
       gradientTransform="matrix(1.037859,0,0,1.1147178,-0.1479911,-4.1962205)"
       cx="3.9090097"
       cy="34.603817"
       fx="3.9090097"
       fy="34.603817"
       r="4.5" />
    <radialGradient
       inkscape:collect="always"
       xlink:href="#linearGradient8451"
       id="radialGradient14846"
       gradientUnits="userSpaceOnUse"
       gradientTransform="matrix(4.6186209,0,0,2.6728548,-8.8301771,-89.972136)"
       cx="2.7631104"
       cy="28.521011"
       fx="2.7631104"
       fy="28.521011"
       r="4" />
    <linearGradient
       inkscape:collect="always"
       xlink:href="#linearGradient8476"
       id="linearGradient14848"
       gradientUnits="userSpaceOnUse"
       x1="1.8203087"
       y1="31.304846"
       x2="3.6746171"
       y2="25.077253" />
    <linearGradient
       inkscape:collect="always"
       xlink:href="#linearGradient10176"
       id="linearGradient14850"
       gradientUnits="userSpaceOnUse"
       gradientTransform="matrix(0.6596425,0,0,0.7339449,2.0210725,-43.357798)"
       x1="5.28125"
       y1="41.974228"
       x2="8.40625"
       y2="45.905655" />
    <radialGradient
       inkscape:collect="always"
       xlink:href="#linearGradient9007"
       id="radialGradient14852"
       gradientUnits="userSpaceOnUse"
       gradientTransform="matrix(0.6596425,0,0,0.3567539,-0.1491062,21.982842)"
       cx="19.262564"
       cy="36.011486"
       fx="19.262564"
       fy="36.011486"
       r="4.5" />
    <linearGradient
       inkscape:collect="always"
       xlink:href="#linearGradient8982"
       id="linearGradient14854"
       gradientUnits="userSpaceOnUse"
       x1="37.9375"
       y1="37.625"
       x2="51.884682"
       y2="32.999134" />
    <radialGradient
       inkscape:collect="always"
       xlink:href="#linearGradient9007"
       id="radialGradient14856"
       gradientUnits="userSpaceOnUse"
       gradientTransform="matrix(1.3753832,0,0,1.2968596,-14.118503,-13.988314)"
       cx="37.610912"
       cy="40.472309"
       fx="37.610912"
       fy="40.472309"
       r="5.5" />
  </defs>
  <sodipodi:namedview
     id="base"
     pagecolor="#ffffff"
     bordercolor="#666666"
     borderopacity="0.37647059"
     inkscape:pageopacity="0"
     inkscape:pageshadow="2"
     inkscape:zoom="1"
     inkscape:cx="118.00152"
     inkscape:cy="16.07457"
     inkscape:document-units="px"
     inkscape:current-layer="layer1"
     width="32px"
     height="32px"
     inkscape:showpageshadow="false"
     gridempspacing="2"
     gridspacingx="0.5px"
     gridspacingy="0.5px"
     inkscape:window-width="872"
     inkscape:window-height="848"
     inkscape:window-x="209"
     inkscape:window-y="67"
     borderlayer="true"
     showgrid="false"
     inkscape:grid-points="true"
     showborder="true"
     showguides="true"
     inkscape:guide-bbox="false"
     inkscape:object-paths="false"
     inkscape:grid-bbox="true" />
  <metadata
     id="metadata7">
    <rdf:RDF>
      <cc:Work
         rdf:about="">
        <dc:format>image/svg+xml</dc:format>
        <dc:type
           rdf:resource="http://purl.org/dc/dcmitype/StillImage" />
        <dc:creator>
          <cc:Agent>
            <dc:title>Lapo Calamandrei</dc:title>
          </cc:Agent>
        </dc:creator>
        <cc:license
           rdf:resource="http://creativecommons.org/licenses/GPL/2.0/" />
        <dc:title>Mail stuff</dc:title>
      </cc:Work>
      <cc:License
         rdf:about="http://creativecommons.org/licenses/GPL/2.0/">
        <cc:permits
           rdf:resource="http://web.resource.org/cc/Reproduction" />
        <cc:permits
           rdf:resource="http://web.resource.org/cc/Distribution" />
        <cc:requires
           rdf:resource="http://web.resource.org/cc/Notice" />
        <cc:permits
           rdf:resource="http://web.resource.org/cc/DerivativeWorks" />
        <cc:requires
           rdf:resource="http://web.resource.org/cc/ShareAlike" />
        <cc:requires
           rdf:resource="http://web.resource.org/cc/SourceCode" />
      </cc:License>
    </rdf:RDF>
  </metadata>
  <g
     inkscape:label="Livello 1"
     inkscape:groupmode="layer"
     id="layer1">
    <g
       id="g12265">
      <g
         transform="translate(1,0)"
         id="g11551">
        <g
           style="opacity:0.7;display:inline"
           id="g11553"
           transform="matrix(1.702322e-2,0,0,1.0454988e-2,31.071018,28.119433)">
          <rect
             style="opacity:0.17934786;fill:#000000;fill-opacity:1;stroke:none;stroke-width:2;stroke-linecap:butt;stroke-linejoin:miter;stroke-miterlimit:4;stroke-dasharray:none;stroke-dashoffset:0;stroke-opacity:1;filter:url(#filter5672)"
             id="rect11555"
             width="1849.9508"
             height="479.33032"
             x="-1814.411"
             y="-197.04396"
             rx="113.12692"
             ry="198.34357"
             transform="matrix(0.9496952,0,0,1,-43.332912,0)" />
        </g>
        <g
           id="g11557">
          <path
             id="path11559"
             d="M 15.996722,1 C 11.85369,1 11.49563,1.7495124 10.745448,2.4990264 L 2.4934446,10.743673 L 2.4934446,11.797676 L 2.4934446,11.938209 L 2.4934446,28.427499 C 2.4934446,29.014725 2.9606401,29.481504 3.5483882,29.481502 L 28.445057,29.481502 C 29.032805,29.481502 29.5,29.014723 29.5,28.427499 L 29.5,11.938209 L 29.5,11.797676 L 29.5,10.743673 L 21.247997,2.4990264 C 20.497815,1.7495132 20.122724,0.9999992 15.996722,1 z "
             style="fill:url(#radialGradient14818);fill-opacity:1;fill-rule:evenodd;stroke:none;stroke-width:0.99999988;stroke-linecap:butt;stroke-linejoin:round;stroke-miterlimit:4;stroke-dashoffset:0.69999992;stroke-opacity:0.99236642" />
          <path
             sodipodi:nodetypes="ccscscc"
             id="path11561"
             d="M 29.5,11.818252 L 29.5,9.773553 L 21.247997,2.1020538 C 20.452665,1.3626711 20.122724,0.525417 15.996722,0.5254178 C 11.85369,0.5254178 11.54078,1.3626707 10.745448,2.1020538 L 2.4934446,9.773553 L 2.4934446,11.818252"
             style="fill:none;fill-opacity:1;fill-rule:evenodd;stroke:#888a85;stroke-width:1;stroke-linecap:butt;stroke-linejoin:round;stroke-miterlimit:4;stroke-dashoffset:0.69999992;stroke-opacity:0.99236642" />
          <path
             sodipodi:nodetypes="csccccccsc"
             id="path11563"
             d="M 15.996722,16.474255 C 14.096072,16.474255 12.919969,16.698532 12.105153,17.065487 C 11.290337,17.432443 10.862664,17.966413 10.487573,18.416876 L 3.149854,28.805677 C 3.4120134,29.120517 3.1576319,29.087215 3.5483882,29.087217 L 28.445057,29.087217 C 28.835813,29.087217 28.628317,28.838975 28.890477,28.524138 L 21.505872,18.416876 C 21.130781,17.966413 20.703108,17.432443 19.888292,17.065487 C 19.073476,16.698532 17.897373,16.474255 15.996722,16.474255 z "
             style="opacity:0.07462685;fill:url(#linearGradient14820);fill-opacity:1;fill-rule:evenodd;stroke:none;stroke-width:1px;stroke-linecap:butt;stroke-linejoin:round;stroke-opacity:1" />
          <path
             transform="matrix(0.7501821,0,0,0.7618162,-2.382739,-2.9304717)"
             d="M 24.5,5.8125 C 21.817452,5.8125 20.453994,6.0738354 19.78125,6.34375 C 19.108506,6.6136646 19.017928,6.8570711 18.4375,7.4375 L 7.8125,18.0625 L 7.8125,18.90625 L 7.8125,19.09375 L 7.8125,41.09375 C 7.8125,41.185336 7.8146682,41.1875 7.90625,41.1875 L 41.09375,41.1875 C 41.185334,41.1875 41.1875,41.185334 41.1875,41.09375 L 41.1875,19.09375 L 41.1875,18.90625 L 41.1875,18.0625 L 30.5625,7.4375 C 29.985565,6.8605645 29.8649,6.6147103 29.1875,6.34375 C 28.5101,6.0727897 27.170871,5.812499 24.5,5.8125 z "
             id="path11565"
             style="fill:none;fill-opacity:1;fill-rule:evenodd;stroke:#ffffff;stroke-width:1.32279193;stroke-linecap:butt;stroke-linejoin:round;stroke-miterlimit:4;stroke-dashoffset:0.69999992;stroke-opacity:0.99236642"
             inkscape:original="M 24.5 4.5 C 18.977297 4.5 18.5 5.499998 17.5 6.5 L 6.5 17.5 L 6.5 18.90625 L 6.5 19.09375 L 6.5 41.09375 C 6.5 41.877225 7.1227756 42.500002 7.90625 42.5 L 41.09375 42.5 C 41.877224 42.5 42.5 41.877224 42.5 41.09375 L 42.5 19.09375 L 42.5 18.90625 L 42.5 17.5 L 31.5 6.5 C 30.5 5.5 30 4.499998 24.5 4.5 z "
             inkscape:radius="-1.3056328"
             sodipodi:type="inkscape:offset" />
          <path
             sodipodi:nodetypes="ccccsssccccc"
             id="path11567"
             d="M 5.4857659,2.5018445 C 4.9483573,2.5018445 4.5041047,2.908966 4.5041047,3.4293058 L 4.5041047,14.887367 L 10.370129,21.028665 C 10.729618,21.405025 11.085571,21.89878 11.878535,22.231858 C 12.671499,22.564936 13.857924,22.758255 15.996724,22.758255 C 18.126921,22.758256 19.320307,22.564616 20.114912,22.231858 C 20.909517,21.899101 21.262805,21.406096 21.623318,21.028665 L 27.489343,14.887367 L 27.489343,3.4293058 C 27.489343,2.9089659 27.045091,2.5018445 26.507681,2.5018445 L 5.4857659,2.5018445 z "
             style="fill:url(#radialGradient14822);fill-opacity:1;fill-rule:evenodd;stroke:url(#linearGradient14824);stroke-width:1.00000012;stroke-linecap:butt;stroke-linejoin:miter;stroke-miterlimit:4;stroke-dasharray:none;stroke-dashoffset:0.69999992;stroke-opacity:0.99236642" />
          <g
             id="g11569">
            <rect
               style="fill:#d3d7cf;fill-opacity:1;fill-rule:evenodd;stroke:none;stroke-width:1;stroke-linecap:butt;stroke-linejoin:miter;stroke-miterlimit:4;stroke-dasharray:none;stroke-dashoffset:0.69999992;stroke-opacity:0.99236642"
               id="rect11571"
               width="8"
               height="1"
               x="7"
               y="5"
               rx="0.5"
               ry="0.5" />
            <rect
               style="fill:#d3d7cf;fill-opacity:1;fill-rule:evenodd;stroke:none;stroke-width:1;stroke-linecap:butt;stroke-linejoin:miter;stroke-miterlimit:4;stroke-dasharray:none;stroke-dashoffset:0.69999992;stroke-opacity:0.99236642"
               id="rect11573"
               width="6"
               height="1"
               x="7"
               y="8"
               rx="0.5"
               ry="0.5" />
            <rect
               style="fill:#d3d7cf;fill-opacity:1;fill-rule:evenodd;stroke:none;stroke-width:1;stroke-linecap:butt;stroke-linejoin:miter;stroke-miterlimit:4;stroke-dasharray:none;stroke-dashoffset:0.69999992;stroke-opacity:0.99236642"
               id="rect11575"
               width="18"
               height="1"
               x="7"
               y="11"
               rx="0.5"
               ry="0.5" />
            <rect
               style="fill:#d3d7cf;fill-opacity:1;fill-rule:evenodd;stroke:none;stroke-width:1;stroke-linecap:butt;stroke-linejoin:miter;stroke-miterlimit:4;stroke-dasharray:none;stroke-dashoffset:0.69999992;stroke-opacity:0.99236642"
               id="rect11577"
               width="18"
               height="1"
               x="7"
               y="13"
               rx="0.5"
               ry="0.5" />
            <rect
               style="fill:#d3d7cf;fill-opacity:1;fill-rule:evenodd;stroke:none;stroke-width:1;stroke-linecap:butt;stroke-linejoin:miter;stroke-miterlimit:4;stroke-dasharray:none;stroke-dashoffset:0.69999992;stroke-opacity:0.99236642"
               id="rect11579"
               width="18"
               height="1"
               x="7"
               y="15"
               rx="0.5"
               ry="0.5" />
            <rect
               style="fill:#d3d7cf;fill-opacity:1;fill-rule:evenodd;stroke:none;stroke-width:1;stroke-linecap:butt;stroke-linejoin:miter;stroke-miterlimit:4;stroke-dasharray:none;stroke-dashoffset:0.69999992;stroke-opacity:0.99236642"
               id="rect11581"
               width="4"
               height="1"
               x="21"
               y="5"
               rx="0.5"
               ry="0.5" />
          </g>
          <path
             sodipodi:nodetypes="ccccsssccccc"
             id="path11583"
             d="M 5.7108711,3.5000002 C 5.546663,3.5000002 5.4999999,3.5814452 5.4999999,3.6230211 L 5.4999999,16.081516 L 11.029524,21.888106 C 11.438176,22.317235 11.637601,22.63975 12.247894,22.896878 C 12.877059,23.161957 13.946884,23.364358 15.996724,23.364358 C 18.0379,23.364359 19.115186,23.16166 19.745554,22.896878 C 20.357193,22.639963 20.553475,22.319121 20.963924,21.888106 L 26.493448,16.081516 L 26.493448,3.6230211 C 26.493448,3.5814441 26.446787,3.5000002 26.282577,3.5000002 L 5.7108711,3.5000002 z "
             style="fill:none;fill-opacity:1;fill-rule:evenodd;stroke:url(#linearGradient14826);stroke-width:1.00000024;stroke-linecap:butt;stroke-linejoin:miter;stroke-miterlimit:4;stroke-dashoffset:0.69999992;stroke-opacity:0.99236642" />
          <g
             transform="matrix(0.7501821,0,0,0.788318,-2.382739,-4.0220132)"
             id="g11585">
            <path
               style="opacity:1;fill:#ffffff;fill-opacity:1;fill-rule:evenodd;stroke:none;stroke-width:1px;stroke-linecap:butt;stroke-linejoin:round;stroke-opacity:1"
               d="M 7.09375,21.75 L 17.15625,33.34375 C 17.62545,33.812951 18.090035,34.428507 19.125,34.84375 C 20.159965,35.258993 21.70847,35.5 24.5,35.5 C 27.280303,35.500001 28.837893,35.258593 29.875,34.84375 C 30.912107,34.428907 31.373213,33.814287 31.84375,33.34375 L 41.875,21.875 L 31.84375,31.84375 C 31.373213,32.314287 30.912107,32.928907 29.875,33.34375 C 28.837893,33.758593 27.280303,34.000001 24.5,34 C 21.70847,34 20.159965,33.758993 19.125,33.34375 C 18.090035,32.928507 17.62545,32.312951 17.15625,31.84375 L 7.09375,21.75 z "
               id="path11587"
               sodipodi:nodetypes="ccssscccssscc" />
            <path
               style="opacity:0.3;fill:#000000;fill-opacity:1;fill-rule:evenodd;stroke:none;stroke-width:1px;stroke-linecap:butt;stroke-linejoin:round;stroke-opacity:1"
               d="M 7.09375,21.75 L 17.15625,31.34375 C 17.62545,31.812951 18.090035,32.428507 19.125,32.84375 C 20.159965,33.258993 21.70847,33.5 24.5,33.5 C 27.280303,33.500001 28.837893,33.258593 29.875,32.84375 C 30.912107,32.428907 31.373213,31.814287 31.84375,31.34375 L 41.875,21.875 L 31.84375,31.84375 C 31.373213,32.314287 30.912107,32.928907 29.875,33.34375 C 28.837893,33.758593 27.280303,34.000001 24.5,34 C 21.70847,34 20.159965,33.758993 19.125,33.34375 C 18.090035,32.928507 17.62545,32.312951 17.15625,31.84375 L 7.09375,21.75 z "
               id="path11589"
               sodipodi:nodetypes="ccssscccssscc" />
            <path
               sodipodi:type="inkscape:offset"
               inkscape:radius="0.5"
               inkscape:original="M 6.90625 55.5 C 6.1227756 55.5 5.5 56.122774 5.5 56.90625 L 5.5 58.5 L 16.5 69.5 C 17.5 70.500002 17.977297 71.5 23.5 71.5 C 29 71.500002 29.5 70.5 30.5 69.5 L 41.5 58.5 L 41.5 56.90625 C 41.5 56.122776 40.877226 55.5 40.09375 55.5 L 6.90625 55.5 z "
               style="opacity:0.16791047;fill:url(#linearGradient14828);fill-opacity:1;fill-rule:evenodd;stroke:none;stroke-width:1px;stroke-linecap:butt;stroke-linejoin:round;stroke-opacity:1"
               id="path11591"
               d="M 6.90625,55 C 5.8578131,55 5,55.857811 5,56.90625 L 5,58.5 C 5.0051575,58.6306 5.0612439,58.75399 5.15625,58.84375 L 16.15625,69.84375 C 16.62545,70.312951 17.090035,70.928507 18.125,71.34375 C 19.159965,71.758993 20.70847,72 23.5,72 C 26.280303,72.000001 27.837893,71.758593 28.875,71.34375 C 29.912107,70.928907 30.373213,70.314287 30.84375,69.84375 L 41.84375,58.84375 C 41.938756,58.75399 41.994842,58.6306 42,58.5 L 42,56.90625 C 42,55.857813 41.142189,55 40.09375,55 L 6.90625,55 z "
               transform="translate(1,-38)" />
          </g>
          <path
             id="path11593"
             d="M 15.996722,19.233368 C 12.245812,19.233368 11.49563,20.021686 10.745448,20.810004 L 2.7982061,29.161248 C 2.9899669,29.362757 3.2545134,29.481502 3.5483882,29.481502 L 28.445057,29.481502 C 28.738931,29.481502 29.003477,29.362757 29.195239,29.161248 L 21.247997,20.810004 C 20.497815,20.021686 19.747633,19.233368 15.996722,19.233368 z "
             style="fill:url(#radialGradient14830);fill-opacity:1;fill-rule:evenodd;stroke:none;stroke-width:0.89999998;stroke-linecap:butt;stroke-linejoin:round;stroke-miterlimit:4;stroke-dasharray:none;stroke-opacity:1" />
          <path
             sodipodi:nodetypes="cccccc"
             id="path11595"
             d="M 2.4934446,11.029934 L 2.4934446,28.37293 C 2.4934446,28.990558 2.9606401,29.481504 3.5483882,29.481502 L 28.445057,29.481502 C 29.032805,29.481502 29.5,28.990556 29.5,28.37293 L 29.5,11.029934"
             style="fill:none;fill-opacity:1;fill-rule:evenodd;stroke:#888a85;stroke-width:1;stroke-linecap:butt;stroke-linejoin:round;stroke-miterlimit:4;stroke-dashoffset:0.69999992;stroke-opacity:0.99236642" />
          <g
             transform="matrix(0.750182,0,0,0.8157761,-44.580475,-5.1750473)"
             id="g11597">
            <path
               style="fill:#888a85;fill-opacity:1;fill-rule:evenodd;stroke:none;stroke-width:0.89999998;stroke-linecap:butt;stroke-linejoin:round;stroke-miterlimit:4;stroke-dasharray:none;stroke-opacity:1"
               d="M 63.25,41.970971 L 73.40625,30.627221 C 73.875623,30.157847 74.3406,29.542237 75.375,29.127221 C 76.4094,28.712205 77.95864,28.470971 80.75,28.470971 C 83.530132,28.47097 85.088454,28.712602 86.125,29.127221 C 87.161546,29.54184 87.623047,30.156518 88.09375,30.627221 L 98.25,41.970971 L 88.09375,31.627221 C 86.049743,29.657627 83.575503,29.355064 80.75,29.470971 C 78.07915,29.520511 75.285697,29.470641 73.40625,31.627221 L 63.25,41.970971 z "
               id="path11599"
               sodipodi:nodetypes="ccssscccccc" />
            <path
               style="fill:#ffffff;fill-opacity:1;fill-rule:evenodd;stroke:none;stroke-width:0.89999998;stroke-linecap:butt;stroke-linejoin:round;stroke-miterlimit:4;stroke-dasharray:none;stroke-opacity:1"
               d="M 63.25,41.99247 L 73.40625,32.950702 C 75.285697,30.794122 78.07915,30.843992 80.75,30.794452 C 83.575503,30.678545 86.049743,30.981108 88.09375,32.950702 L 98.25,41.99247 L 88.09375,31.64872 C 86.049743,29.679126 83.575503,29.376563 80.75,29.49247 C 78.07915,29.54201 75.285697,29.49214 73.40625,31.64872 L 63.25,41.99247 z "
               id="path11601"
               sodipodi:nodetypes="ccccccccc" />
          </g>
          <path
             sodipodi:nodetypes="cccccc"
             id="path11603"
             d="M 3.4780587,11.029934 L 3.4780587,28.37293 C 3.4780587,28.445129 3.4796852,28.446834 3.5483882,28.446834 L 28.445057,28.446834 C 28.513761,28.446834 28.515386,28.445127 28.515386,28.37293 L 28.515386,11.029934"
             style="opacity:0.59774433;fill:none;fill-opacity:1;fill-rule:evenodd;stroke:#ffffff;stroke-width:1;stroke-linecap:butt;stroke-linejoin:round;stroke-miterlimit:4;stroke-dashoffset:0.69999992;stroke-opacity:0.99236642" />
        </g>
      </g>
      <g
         id="g12241">
        <path
           sodipodi:type="arc"
           style="opacity:0.42000002;fill:url(#radialGradient14832);fill-opacity:1;fill-rule:evenodd;stroke:none;stroke-width:1;stroke-linecap:round;stroke-linejoin:round;stroke-miterlimit:4;stroke-dasharray:none;stroke-dashoffset:0.69999992;stroke-opacity:1"
           id="path12052"
           sodipodi:cx="10.125"
           sodipodi:cy="44.3125"
           sodipodi:rx="8.625"
           sodipodi:ry="2.8125"
           d="M 18.75 44.3125 A 8.625 2.8125 0 1 1  1.5,44.3125 A 8.625 2.8125 0 1 1  18.75 44.3125 z"
           transform="matrix(0.8695654,0,0,0.8888894,12.695652,-9.8889123)" />
        <path
           sodipodi:type="arc"
           style="opacity:0.42000002;fill:url(#radialGradient14834);fill-opacity:1;fill-rule:evenodd;stroke:none;stroke-width:1;stroke-linecap:round;stroke-linejoin:round;stroke-miterlimit:4;stroke-dasharray:none;stroke-dashoffset:0.69999992;stroke-opacity:1"
           id="path12056"
           sodipodi:cx="10.125"
           sodipodi:cy="44.3125"
           sodipodi:rx="8.625"
           sodipodi:ry="2.8125"
           d="M 18.75 44.3125 A 8.625 2.8125 0 1 1  1.5,44.3125 A 8.625 2.8125 0 1 1  18.75 44.3125 z"
           transform="matrix(0.8695654,0,0,0.8888894,-1.304348,-9.8889123)" />
        <g
           id="g12194"
           transform="translate(0,-10)">
          <g
             transform="matrix(1.1039495,0,0,1,12.75403,50)"
             id="g12176">
            <rect
               style="fill:url(#radialGradient14836);fill-opacity:1;fill-rule:evenodd;stroke:#729fcf;stroke-width:0.95175546;stroke-linecap:round;stroke-linejoin:miter;stroke-miterlimit:4;stroke-dasharray:none;stroke-dashoffset:0.69999992;stroke-opacity:1"
               id="rect12178"
               width="8.9990072"
               height="6.9822407"
               x="2.4894638"
               y="-15.48224"
               rx="3.2438362"
               ry="2.6505005" />
            <path
               sodipodi:type="inkscape:offset"
               inkscape:radius="-1"
               inkscape:original="M 3.03125 26.5 C 1.633363 26.5 0.5 27.395916 0.5 28.5 L 0.5 29.5 C 0.5 30.604084 1.633363 31.5 3.03125 31.5 L 4.96875 31.5 C 6.366637 31.5 7.5 30.604084 7.5 29.5 L 7.5 28.5 C 7.5 27.395916 6.3666373 26.5 4.96875 26.5 L 3.03125 26.5 z "
               style="fill:none;fill-opacity:1;fill-rule:evenodd;stroke:url(#linearGradient14838);stroke-width:0.61405659;stroke-linecap:round;stroke-linejoin:miter;stroke-miterlimit:4;stroke-dasharray:none;stroke-dashoffset:0.69999992;stroke-opacity:1"
               id="path12180"
               d="M 3.03125,27.5 C 2.0606345,27.5 1.5,28.080262 1.5,28.5 L 1.5,29.5 C 1.5,29.919738 2.0606345,30.5 3.03125,30.5 L 4.96875,30.5 C 5.9393655,30.5 6.5,29.919738 6.5,29.5 L 6.5,28.5 C 6.5,28.080262 5.9393659,27.5 4.96875,27.5 L 3.03125,27.5 z "
               transform="matrix(1.4493417,0,0,1.657537,1.2192319,-60.083663)" />
            <path
               style="opacity:0.7;fill:url(#linearGradient14840);fill-opacity:1;fill-rule:evenodd;stroke:none;stroke-width:0.39469442;stroke-linecap:round;stroke-linejoin:miter;stroke-miterlimit:4;stroke-dasharray:none;stroke-dashoffset:0.69999992;stroke-opacity:1"
               d="M 5.4841956,-14 C 4.3704618,-14 4,-13.218167 4,-13.151376 L 4,-11.5 C 5.8506603,-10.734457 8.4047354,-11.022952 9.9161689,-12.80734 L 9.9161689,-13.151376 C 9.9161689,-13.218168 9.5457078,-14 8.4319733,-14 L 5.4841956,-14 z "
               id="path12182" />
          </g>
          <g
             transform="matrix(0.6596425,0,0,0.6649753,0.5105363,11.9086)"
             id="g11820">
            <path
               style="fill:none;fill-opacity:1;fill-rule:evenodd;stroke:url(#linearGradient14842);stroke-width:4.52964592;stroke-linecap:round;stroke-linejoin:round;stroke-miterlimit:4;stroke-dasharray:none;stroke-opacity:1"
               d="M 1.4999999,35.477107 C 1.4999999,35.477107 5.9,32.7 7.5,31.5 C 8.3205383,30.884596 8.8044351,31.279117 9.0898039,31.958466 C 9.5,32.934979 9.5,34.5 9.5,34.5"
               id="path11822"
               sodipodi:nodetypes="cssc" />
            <path
               style="fill:none;fill-rule:evenodd;stroke:url(#radialGradient14844);stroke-width:1.50988185px;stroke-linecap:round;stroke-linejoin:round;stroke-opacity:1"
               d="M 1.4999999,35.477107 C 1.4999999,35.477107 5.9,32.7 7.5,31.5 C 9.5,30 9.5,34.5 9.5,34.5"
               id="path11824"
               sodipodi:nodetypes="csc" />
          </g>
          <g
             transform="matrix(1.1039495,0,0,1,-1.2459704,50)"
             id="g11989">
            <rect
               style="fill:url(#radialGradient14846);fill-opacity:1;fill-rule:evenodd;stroke:#729fcf;stroke-width:0.95175546;stroke-linecap:round;stroke-linejoin:miter;stroke-miterlimit:4;stroke-dasharray:none;stroke-dashoffset:0.69999992;stroke-opacity:1"
               id="rect11828"
               width="8.9990072"
               height="6.9822407"
               x="2.4894638"
               y="-15.48224"
               rx="3.2438362"
               ry="2.6505005" />
            <path
               sodipodi:type="inkscape:offset"
               inkscape:radius="-1"
               inkscape:original="M 3.03125 26.5 C 1.633363 26.5 0.5 27.395916 0.5 28.5 L 0.5 29.5 C 0.5 30.604084 1.633363 31.5 3.03125 31.5 L 4.96875 31.5 C 6.366637 31.5 7.5 30.604084 7.5 29.5 L 7.5 28.5 C 7.5 27.395916 6.3666373 26.5 4.96875 26.5 L 3.03125 26.5 z "
               style="fill:none;fill-opacity:1;fill-rule:evenodd;stroke:url(#linearGradient14848);stroke-width:0.61405659;stroke-linecap:round;stroke-linejoin:miter;stroke-miterlimit:4;stroke-dasharray:none;stroke-dashoffset:0.69999992;stroke-opacity:1"
               id="path11830"
               d="M 3.03125,27.5 C 2.0606345,27.5 1.5,28.080262 1.5,28.5 L 1.5,29.5 C 1.5,29.919738 2.0606345,30.5 3.03125,30.5 L 4.96875,30.5 C 5.9393655,30.5 6.5,29.919738 6.5,29.5 L 6.5,28.5 C 6.5,28.080262 5.9393659,27.5 4.96875,27.5 L 3.03125,27.5 z "
               transform="matrix(1.4493417,0,0,1.657537,1.2192319,-60.083663)" />
            <path
               style="opacity:0.7;fill:url(#linearGradient14850);fill-opacity:1;fill-rule:evenodd;stroke:none;stroke-width:0.39469442;stroke-linecap:round;stroke-linejoin:miter;stroke-miterlimit:4;stroke-dasharray:none;stroke-dashoffset:0.69999992;stroke-opacity:1"
               d="M 5.4841956,-14 C 4.3704618,-14 4,-13.218167 4,-13.151376 L 4,-11.5 C 5.8506603,-10.734457 8.4047354,-11.022952 9.9161689,-12.80734 L 9.9161689,-13.151376 C 9.9161689,-13.218168 9.5457078,-14 8.4319733,-14 L 5.4841956,-14 z "
               id="path11832" />
          </g>
          <path
             sodipodi:nodetypes="csscc"
             id="path11842"
             d="M 10.734995,35.515223 L 11.642003,35.515223 C 12.136735,35.515223 12.26317,34.5 13.5,34.5 C 14.73683,34.5 14.610395,35.515223 15.105127,35.515223 L 16.012135,35.515223"
             style="fill:none;fill-rule:evenodd;stroke:#999999;stroke-width:3.00000048;stroke-linecap:round;stroke-linejoin:miter;stroke-miterlimit:4;stroke-dasharray:none;stroke-opacity:1" />
          <path
             sodipodi:nodetypes="csscc"
             id="path11844"
             d="M 10.734995,35.515223 L 11.642003,35.515223 C 12.136735,35.515223 12.26317,34.5 13.5,34.5 C 14.73683,34.5 14.610395,35.515223 15.105127,35.515223 L 16.012135,35.515223"
             style="fill:none;fill-rule:evenodd;stroke:url(#radialGradient14852);stroke-width:1.00000012px;stroke-linecap:round;stroke-linejoin:miter;stroke-opacity:1" />
          <g
             transform="matrix(0.6596425,0,0,0.6649753,-0.1491062,10.578649)"
             id="g11846">
            <path
               style="fill:none;fill-opacity:1;fill-rule:evenodd;stroke:url(#linearGradient14854);stroke-width:4.52964592;stroke-linecap:round;stroke-linejoin:round;stroke-miterlimit:4;stroke-dasharray:none;stroke-opacity:1"
               d="M 37.367372,37.477108 L 39.367372,37.477108 C 39.367372,37.477108 42.9,34.7 44.5,33.5 C 46.5,32 46.5,36.5 46.5,36.5"
               id="path11848"
               sodipodi:nodetypes="ccsc" />
            <path
               style="fill:none;fill-rule:evenodd;stroke:url(#radialGradient14856);stroke-width:1.50988185px;stroke-linecap:round;stroke-linejoin:round;stroke-opacity:1"
               d="M 37.367372,37.477108 L 39.367372,37.477108 C 39.367372,37.477108 42.9,34.7 44.5,33.5 C 46.5,32 46.5,36.5 46.5,36.5"
               id="path11850"
               sodipodi:nodetypes="ccsc" />
          </g>
          <g
             transform="matrix(0.6596425,0,0,0.6649753,0.5105363,11.9086)"
             id="g11852">
            <path
               style="fill:none;fill-rule:evenodd;stroke:#999999;stroke-width:4.52964592;stroke-linecap:round;stroke-linejoin:round;stroke-miterlimit:4;stroke-dasharray:none;stroke-opacity:1"
               d="M 3.7739589,35.477107 L 1.4999999,35.477107"
               id="path11854"
               sodipodi:nodetypes="cc" />
          </g>
          <path
             style="fill:none;fill-opacity:1;fill-rule:evenodd;stroke:#ffffff;stroke-width:1.00000012px;stroke-linecap:round;stroke-linejoin:round;stroke-opacity:1"
             d="M 1.5,35.5 L 3,35.5"
             id="path11856"
             sodipodi:nodetypes="cc" />
        </g>
      </g>
    </g>
  </g>
</svg>
