<?xml version="1.0" encoding="UTF-8" standalone="no"?>
<!-- Created with Inkscape (http://www.inkscape.org/) -->
<svg
   xmlns:dc="http://purl.org/dc/elements/1.1/"
   xmlns:cc="http://web.resource.org/cc/"
   xmlns:rdf="http://www.w3.org/1999/02/22-rdf-syntax-ns#"
   xmlns:svg="http://www.w3.org/2000/svg"
   xmlns="http://www.w3.org/2000/svg"
   xmlns:xlink="http://www.w3.org/1999/xlink"
   xmlns:sodipodi="http://sodipodi.sourceforge.net/DTD/sodipodi-0.dtd"
   xmlns:inkscape="http://www.inkscape.org/namespaces/inkscape"
   width="32"
   height="32"
   id="svg1306"
   sodipodi:version="0.32"
   inkscape:version="0.45"
   sodipodi:docbase="/home/lapo/Icone/gnome-icon-theme/32x32/actions"
   sodipodi:docname="tools-check-spelling.svg"
   inkscape:export-filename="/home/lapo/Icone/gnome-icon-theme/32x32/actions/tools-check-spelling.png"
   inkscape:export-xdpi="90.000031"
   inkscape:export-ydpi="90.000031"
   version="1.0"
   inkscape:output_extension="org.inkscape.output.svg.inkscape"
   sodipodi:modified="TRUE">
  <defs
     id="defs1308">
    <linearGradient
       id="linearGradient6394">
      <stop
         style="stop-color:#555753;stop-opacity:1;"
         offset="0"
         id="stop6396" />
      <stop
         style="stop-color:#888a85;stop-opacity:1"
         offset="1"
         id="stop6398" />
    </linearGradient>
    <linearGradient
       inkscape:collect="always"
       xlink:href="#linearGradient6394"
       id="linearGradient6400"
       x1="19.666407"
       y1="12.064661"
       x2="19.666407"
       y2="16.929987"
       gradientUnits="userSpaceOnUse" />
    <radialGradient
       r="117.14286"
       fy="486.64789"
       fx="605.71429"
       cy="486.64789"
       cx="605.71429"
       gradientTransform="matrix(-2.774389,0,0,1.969706,112.7623,-872.8854)"
       gradientUnits="userSpaceOnUse"
       id="radialGradient6344"
       xlink:href="#linearGradient5060"
       inkscape:collect="always" />
    <radialGradient
       r="117.14286"
       fy="486.64789"
       fx="605.71429"
       cy="486.64789"
       cx="605.71429"
       gradientTransform="matrix(2.774389,0,0,1.969706,-1891.633,-872.8854)"
       gradientUnits="userSpaceOnUse"
       id="radialGradient6342"
       xlink:href="#linearGradient5060"
       inkscape:collect="always" />
    <linearGradient
       y2="609.50507"
       x2="302.85715"
       y1="366.64789"
       x1="302.85715"
       gradientTransform="matrix(2.774389,0,0,1.969706,-1892.179,-872.8854)"
       gradientUnits="userSpaceOnUse"
       id="linearGradient6340"
       xlink:href="#linearGradient5048"
       inkscape:collect="always" />
    <linearGradient
       id="linearGradient5048">
      <stop
         id="stop5050"
         offset="0"
         style="stop-color:black;stop-opacity:0;" />
      <stop
         style="stop-color:black;stop-opacity:1;"
         offset="0.5"
         id="stop5056" />
      <stop
         id="stop5052"
         offset="1"
         style="stop-color:black;stop-opacity:0;" />
    </linearGradient>
    <linearGradient
       id="linearGradient5060"
       inkscape:collect="always">
      <stop
         id="stop5062"
         offset="0"
         style="stop-color:black;stop-opacity:1;" />
      <stop
         id="stop5064"
         offset="1"
         style="stop-color:black;stop-opacity:0;" />
    </linearGradient>
  </defs>
  <sodipodi:namedview
     id="base"
     pagecolor="#ffffff"
     bordercolor="#666"
     borderopacity="1"
     inkscape:pageopacity="0.0"
     inkscape:pageshadow="2"
     inkscape:zoom="8"
     inkscape:cx="35.801859"
     inkscape:cy="9.8538509"
     inkscape:current-layer="layer1"
     showgrid="false"
     inkscape:grid-bbox="true"
     inkscape:document-units="px"
     fill="#fcaf3e"
     stroke="#555753"
     showguides="true"
     inkscape:guide-bbox="true"
     inkscape:window-width="1024"
     inkscape:window-height="750"
     inkscape:window-x="15"
     inkscape:window-y="63"
     inkscape:showpageshadow="false"
     showborder="false"
     gridspacingx="0.5px"
     gridspacingy="0.5px"
     gridempspacing="2"
     inkscape:grid-points="true"
     width="32px"
     height="32px"
     borderlayer="true" />
  <metadata
     id="metadata1311">
    <rdf:RDF>
      <cc:Work
         rdf:about="">
        <dc:format>image/svg+xml</dc:format>
        <dc:type
           rdf:resource="http://purl.org/dc/dcmitype/StillImage" />
        <dc:title>Check spelling</dc:title>
        <dc:creator>
          <cc:Agent>
            <dc:title>Lapo Calamandrei</dc:title>
          </cc:Agent>
        </dc:creator>
        <dc:source>http://www.gnome.org</dc:source>
        <dc:contributor>
          <cc:Agent>
            <dc:title></dc:title>
          </cc:Agent>
        </dc:contributor>
        <cc:license
           rdf:resource="http://creativecommons.org/licenses/GPL/2.0/" />
        <dc:subject>
          <rdf:Bag />
        </dc:subject>
      </cc:Work>
      <cc:License
         rdf:about="http://creativecommons.org/licenses/GPL/2.0/">
        <cc:permits
           rdf:resource="http://web.resource.org/cc/Reproduction" />
        <cc:permits
           rdf:resource="http://web.resource.org/cc/Distribution" />
        <cc:requires
           rdf:resource="http://web.resource.org/cc/Notice" />
        <cc:permits
           rdf:resource="http://web.resource.org/cc/DerivativeWorks" />
        <cc:requires
           rdf:resource="http://web.resource.org/cc/ShareAlike" />
        <cc:requires
           rdf:resource="http://web.resource.org/cc/SourceCode" />
      </cc:License>
    </rdf:RDF>
  </metadata>
  <g
     id="layer1"
     inkscape:label="Layer 1"
     inkscape:groupmode="layer">
    <path
       sodipodi:type="inkscape:offset"
       inkscape:radius="1"
       inkscape:original="M 7.59375 8 L 4.59375 16.03125 L 6.71875 16.03125 L 7.0625 15 L 10.625 15 L 11 16.03125 L 13.125 16.03125 L 10.09375 8 L 7.59375 8 z M 13.96875 8 L 13.96875 16 L 16.03125 16 L 16.03125 15.125 C 16.314376 15.479429 16.749395 15.767518 17.09375 15.9375 C 17.438094 16.103864 17.83358 16.156249 18.28125 16.15625 C 19.073259 16.15625 19.741108 15.874375 20.25 15.28125 C 20.758868 14.68451 20.999993 13.905455 21 12.96875 C 20.999993 12.032053 20.758867 11.280628 20.25 10.6875 C 19.741109 10.090765 19.073258 9.7812554 18.28125 9.78125 C 17.833581 9.7812551 17.438094 9.8925246 17.09375 10.0625 C 16.749395 10.228868 16.314376 10.489328 16.03125 10.84375 L 16.03125 8 L 13.96875 8 z M 8.84375 9.875 L 9.9375 13 L 7.75 13 L 8.84375 9.875 z M 25.25 10 C 24.228766 10.000005 23.451342 10.266706 22.875 10.8125 C 22.298665 11.354806 22 12.124609 22 13.09375 C 22 14.062896 22.298665 14.797954 22.875 15.34375 C 23.451342 15.886053 24.228765 16.156249 25.25 16.15625 L 27 16 L 27 15 L 25.5 15 C 24.994435 15.000001 24.595614 14.679391 24.3125 14.375 C 24.032753 14.067117 23.875 13.643051 23.875 13.09375 C 23.875 12.544455 24.032753 11.773141 24.3125 11.46875 C 24.595614 11.160868 24.994434 11.000006 25.5 11 L 27 11 L 27 10 L 25.25 10 z M 17.53125 11.1875 C 17.971258 11.187505 18.301675 11.352459 18.53125 11.65625 C 18.76464 11.960049 18.874993 12.390096 18.875 12.96875 C 18.874993 13.54741 18.764639 14.008705 18.53125 14.3125 C 18.301676 14.616295 17.971257 14.750001 17.53125 14.75 C 17.091241 14.750001 16.612215 14.616295 16.375 14.3125 C 16.141598 14.005089 16.031243 13.543793 16.03125 12.96875 C 16.031243 12.393713 16.141598 11.96005 16.375 11.65625 C 16.612215 11.348841 17.09124 11.187505 17.53125 11.1875 z "
       style="font-size:17.50059891px;font-style:normal;font-weight:bold;fill:#2e3436;fill-opacity:1;stroke:none;stroke-width:1px;stroke-linecap:butt;stroke-linejoin:miter;stroke-opacity:1;font-family:Bitstream Vera Sans"
       id="path6387"
       d="M 7.5,7 C 7.1156341,7.0374944 6.7872038,7.2929402 6.65625,7.65625 L 3.65625,15.6875 C 3.5441289,15.993928 3.5885439,16.335786 3.7752448,16.60339 C 3.9619457,16.870995 4.2674539,17.030694 4.59375,17.03125 L 6.71875,17.03125 C 7.1460345,17.025902 7.5227172,16.749668 7.65625,16.34375 L 7.78125,16 L 9.9375,16 L 10.0625,16.375 C 10.206607,16.768591 10.580858,17.030566 11,17.03125 L 13.125,17.03125 C 13.276042,17.033442 13.425618,17.00139 13.5625,16.9375 C 13.572916,16.937663 13.583334,16.937663 13.59375,16.9375 C 13.713604,16.982119 13.840904,17.003335 13.96875,17 L 16.03125,17 C 16.233392,16.995796 16.429514,16.930422 16.59375,16.8125 C 16.611153,16.821301 16.639067,16.835268 16.65625,16.84375 C 17.196608,17.104815 17.75557,17.156249 18.28125,17.15625 C 19.310525,17.15625 20.311519,16.73994 21,15.9375 C 21.226826,15.671506 21.354063,15.343708 21.5,15.03125 C 21.689451,15.408759 21.882419,15.773585 22.1875,16.0625 C 22.969966,16.798754 24.05238,17.156249 25.25,17.15625 C 25.281233,17.157716 25.312517,17.157716 25.34375,17.15625 L 27.09375,17 C 27.609106,16.951429 28.002232,16.517635 28,16 L 28,15 C 27.999945,14.447738 27.552262,14.000055 27,14 L 25.5,14 C 25.417211,14 25.233891,13.90537 25.03125,13.6875 C 24.933011,13.579381 24.875,13.451592 24.875,13.09375 C 24.875,12.914833 24.915858,12.650427 24.96875,12.4375 C 25.021642,12.224573 25.144016,12.067553 25.0625,12.15625 C 25.146363,12.065051 25.206549,12.000003 25.5,12 L 27,12 C 27.552262,11.999945 27.999945,11.552262 28,11 L 28,10 C 27.999945,9.4477381 27.552262,9.0000552 27,9 L 25.25,9 C 24.054665,9.0000059 22.971738,9.351079 22.1875,10.09375 C 21.911266,10.353674 21.74198,10.700256 21.5625,11.03125 C 21.408526,10.67775 21.253117,10.326279 21,10.03125 C 20.321592,9.235736 19.333782,8.7812572 18.28125,8.78125 C 17.810028,8.7812554 17.417726,8.9163242 17.03125,9.0625 L 17.03125,8 C 17.031195,7.4477381 16.583512,7.0000552 16.03125,7 L 13.96875,7 C 13.416488,7.0000552 12.968805,7.4477381 12.96875,8 L 12.96875,12.78125 L 11.03125,7.65625 C 10.887143,7.2626591 10.512892,7.0006838 10.09375,7 L 7.59375,7 C 7.5625172,6.9985345 7.5312328,6.9985345 7.5,7 L 7.5,7 z M 17.53125,12.1875 C 17.721338,12.187502 17.662455,12.175506 17.71875,12.25 C 17.729166,12.250163 17.739584,12.250163 17.75,12.25 C 17.798413,12.313018 17.874995,12.517228 17.875,12.96875 C 17.874995,13.420279 17.778226,13.68201 17.75,13.71875 C 17.739584,13.718587 17.729166,13.718587 17.71875,13.71875 C 17.682343,13.766927 17.768674,13.750001 17.53125,13.75 C 17.293823,13.750001 17.079152,13.588762 17.15625,13.6875 C 17.122398,13.642914 17.031245,13.415848 17.03125,12.96875 C 17.031245,12.521659 17.110171,12.309978 17.15625,12.25 C 17.099063,12.324109 17.335675,12.187502 17.53125,12.1875 z " />
    <path
       style="font-size:17.50059891px;font-style:normal;font-weight:bold;fill:url(#linearGradient6400);fill-opacity:1.0;stroke:none;stroke-width:1px;stroke-linecap:butt;stroke-linejoin:miter;stroke-opacity:1;font-family:Bitstream Vera Sans"
       d="M 7.59375,8 L 4.59375,16.03125 L 6.71875,16.03125 L 7.0625,15 L 10.625,15 L 11,16.03125 L 13.125,16.03125 L 10.09375,8 L 7.59375,8 z M 13.96875,8 L 13.96875,16 L 16.03125,16 L 16.03125,15.125 C 16.314376,15.479429 16.749395,15.767518 17.09375,15.9375 C 17.438094,16.103864 17.83358,16.156249 18.28125,16.15625 C 19.073259,16.15625 19.741108,15.874375 20.25,15.28125 C 20.758868,14.68451 20.999993,13.905455 21,12.96875 C 20.999993,12.032053 20.758867,11.280628 20.25,10.6875 C 19.741109,10.090765 19.073258,9.7812554 18.28125,9.78125 C 17.833581,9.7812551 17.438094,9.8925246 17.09375,10.0625 C 16.749395,10.228868 16.314376,10.489328 16.03125,10.84375 L 16.03125,8 L 13.96875,8 z M 8.84375,9.875 L 9.9375,13 L 7.75,13 L 8.84375,9.875 z M 25.25,10 C 24.228766,10.000005 23.451342,10.266706 22.875,10.8125 C 22.298665,11.354806 22,12.124609 22,13.09375 C 22,14.062896 22.298665,14.797954 22.875,15.34375 C 23.451342,15.886053 24.228765,16.156249 25.25,16.15625 L 27,16 L 27,15 L 25.5,15 C 24.994435,15.000001 24.595614,14.679391 24.3125,14.375 C 24.032753,14.067117 23.875,13.643051 23.875,13.09375 C 23.875,12.544455 24.032753,11.773141 24.3125,11.46875 C 24.595614,11.160868 24.994434,11.000006 25.5,11 L 27,11 L 27,10 L 25.25,10 z M 17.53125,11.1875 C 17.971258,11.187505 18.301675,11.352459 18.53125,11.65625 C 18.76464,11.960049 18.874993,12.390096 18.875,12.96875 C 18.874993,13.54741 18.764639,14.008705 18.53125,14.3125 C 18.301676,14.616295 17.971257,14.750001 17.53125,14.75 C 17.091241,14.750001 16.612215,14.616295 16.375,14.3125 C 16.141598,14.005089 16.031243,13.543793 16.03125,12.96875 C 16.031243,12.393713 16.141598,11.96005 16.375,11.65625 C 16.612215,11.348841 17.09124,11.187505 17.53125,11.1875 z "
       id="text3378"
       sodipodi:nodetypes="cccccccccccccsssssssccccccccsssccccssscccccsssssssc" />
    <path
       style="font-size:17.50059891px;font-style:normal;font-weight:bold;fill:#babdb6;fill-opacity:1;stroke:none;stroke-width:1px;stroke-linecap:butt;stroke-linejoin:miter;stroke-opacity:1;font-family:Bitstream Vera Sans"
       d="M 7.59375 8 L 4.59375 16.03125 L 5.09375 16.03125 L 7.71875 9 L 10.21875 9 L 12.875 16.03125 L 13.125 16.03125 L 10.09375 8 L 7.59375 8 z M 13.96875 8 L 13.96875 16 L 14.09375 16 L 14.09375 9 L 16.03125 9 L 16.03125 8 L 13.96875 8 z M 18.28125 9.78125 C 17.833581 9.781255 17.438094 9.892525 17.09375 10.0625 C 16.792439 10.208072 16.433896 10.429187 16.15625 10.71875 L 16.15625 11.84375 C 16.21376 11.771758 16.306989 11.720487 16.375 11.65625 C 16.443494 11.591557 16.518743 11.525576 16.59375 11.46875 C 16.810926 11.304216 17.014786 11.161041 17.21875 11.0625 C 17.563094 10.892525 17.95858 10.781255 18.40625 10.78125 C 19.198258 10.781255 19.866108 11.090765 20.375 11.6875 C 20.68032 12.043377 20.881703 12.461823 21 12.9375 C 20.994329 12.016274 20.752823 11.273583 20.25 10.6875 C 19.741109 10.090765 19.073258 9.781255 18.28125 9.78125 z M 25.25 10 C 24.228766 10.000005 23.451342 10.266706 22.875 10.8125 C 22.298665 11.354806 22 12.124609 22 13.09375 C 22 13.437722 22.050693 13.74425 22.125 14.03125 C 22.13815 13.092752 22.436656 12.342582 23 11.8125 C 23.532278 11.308434 24.247293 11.068984 25.15625 11.03125 C 25.228437 11.018532 25.297281 11.004619 25.375 11 L 27 11 L 27 10 L 25.25 10 z M 8.21875 13 L 7.875 14 L 10.0625 14 L 9.71875 13 L 8.21875 13 z M 18.875 13.03125 C 18.866615 13.578141 18.755436 14.020684 18.53125 14.3125 C 18.301676 14.616295 17.971257 14.750001 17.53125 14.75 C 17.091241 14.750001 16.612215 14.616295 16.375 14.3125 C 16.281318 14.189113 16.211106 14.045375 16.15625 13.875 C 16.155412 13.909319 16.15625 13.933363 16.15625 13.96875 C 16.156243 14.543793 16.266597 15.005089 16.5 15.3125 C 16.737215 15.616295 17.21624 15.750001 17.65625 15.75 C 18.096257 15.750001 18.426675 15.616295 18.65625 15.3125 C 18.889639 15.008705 18.999992 14.54741 19 13.96875 C 18.999995 13.59462 18.97069 13.287179 18.875 13.03125 z M 24.03125 13.84375 C 24.024867 13.929619 24 14.014981 24 14.09375 C 24 14.643051 24.157752 15.067117 24.4375 15.375 C 24.720614 15.679391 25.119434 16.000001 25.625 16 L 27 16 L 27 15 L 25.5 15 C 24.994435 15.000001 24.595614 14.679391 24.3125 14.375 C 24.181067 14.230348 24.105117 14.040633 24.03125 13.84375 z "
       id="path6389" />
    <g
       style="opacity:0.4;display:inline"
       id="g5022"
       transform="matrix(1.6210433e-2,0,0,1.6094638e-2,30.16903,20.387842)">
      <rect
         y="-150.69685"
         x="-1559.2523"
         height="478.35718"
         width="1339.6335"
         id="rect4173"
         style="opacity:0.39195981;color:#000000;fill:url(#linearGradient6340);fill-opacity:1;fill-rule:nonzero;stroke:none;stroke-width:1;stroke-linecap:round;stroke-linejoin:miter;marker:none;marker-start:none;marker-mid:none;marker-end:none;stroke-miterlimit:4;stroke-dasharray:none;stroke-dashoffset:0;stroke-opacity:1;visibility:visible;display:inline;overflow:visible" />
      <path
         sodipodi:nodetypes="cccc"
         id="path5058"
         d="M -219.61876,-150.68038 C -219.61876,-150.68038 -219.61876,327.65041 -219.61876,327.65041 C -76.744594,328.55086 125.78146,220.48075 125.78138,88.454235 C 125.78138,-43.572302 -33.655436,-150.68036 -219.61876,-150.68038 z "
         style="opacity:0.40206185;color:#000000;fill:url(#radialGradient6342);fill-opacity:1;fill-rule:nonzero;stroke:none;stroke-width:1;stroke-linecap:round;stroke-linejoin:miter;marker:none;marker-start:none;marker-mid:none;marker-end:none;stroke-miterlimit:4;stroke-dasharray:none;stroke-dashoffset:0;stroke-opacity:1;visibility:visible;display:inline;overflow:visible" />
      <path
         style="opacity:0.40206185;color:#000000;fill:url(#radialGradient6344);fill-opacity:1;fill-rule:nonzero;stroke:none;stroke-width:1;stroke-linecap:round;stroke-linejoin:miter;marker:none;marker-start:none;marker-mid:none;marker-end:none;stroke-miterlimit:4;stroke-dasharray:none;stroke-dashoffset:0;stroke-opacity:1;visibility:visible;display:inline;overflow:visible"
         d="M -1559.2523,-150.68038 C -1559.2523,-150.68038 -1559.2523,327.65041 -1559.2523,327.65041 C -1702.1265,328.55086 -1904.6525,220.48075 -1904.6525,88.454235 C -1904.6525,-43.572302 -1745.2157,-150.68036 -1559.2523,-150.68038 z "
         id="path5018"
         sodipodi:nodetypes="cccc" />
    </g>
    <path
       style="fill:none;fill-rule:evenodd;stroke:#4e9a06;stroke-width:3;stroke-linecap:round;stroke-linejoin:round;stroke-miterlimit:4;stroke-dasharray:none;stroke-opacity:1"
       d="M 1.5,21.5 L 3.5,19.5 L 5.5,21.5 L 7.5,19.5 L 9.5,21.5 L 11.5,19.5 L 13.5,21.5 L 15.5,19.5 L 17.5,21.5 L 19.5,19.5 L 21.5,21.5 L 23.5,19.5 L 25.5,21.5 L 27.5,19.5 L 29.5,21.5"
       id="path6406"
       sodipodi:nodetypes="ccccccc" />
    <path
       style="fill:none;fill-rule:evenodd;stroke:#8ae234;stroke-width:1px;stroke-linecap:square;stroke-linejoin:miter;stroke-opacity:1"
       d="M 1.5,21.5 L 3.5,19.5 L 5.5,21.5 L 7.5,19.5 L 9.5,21.5 L 11.5,19.5 L 13.5,21.5 L 15.5,19.5 L 17.5,21.5 L 19.5,19.5 L 21.5,21.5 L 23.5,19.5 L 25.5,21.5 L 27.5,19.5 L 29.5,21.5"
       id="path6404"
       sodipodi:nodetypes="ccccccc" />
  </g>
</svg>
