<?xml version="1.0" encoding="UTF-8" standalone="no"?>
<!-- Created with Inkscape (http://www.inkscape.org/) -->
<svg
   xmlns:dc="http://purl.org/dc/elements/1.1/"
   xmlns:cc="http://web.resource.org/cc/"
   xmlns:rdf="http://www.w3.org/1999/02/22-rdf-syntax-ns#"
   xmlns:svg="http://www.w3.org/2000/svg"
   xmlns="http://www.w3.org/2000/svg"
   xmlns:xlink="http://www.w3.org/1999/xlink"
   xmlns:sodipodi="http://sodipodi.sourceforge.net/DTD/sodipodi-0.dtd"
   xmlns:inkscape="http://www.inkscape.org/namespaces/inkscape"
   width="32"
   height="32"
   id="svg2"
   sodipodi:version="0.32"
   inkscape:version="0.44"
   version="1.0"
   sodipodi:docbase="/home/lapo/Desktop/sort/32x32"
   sodipodi:docname="sort-ascending.svg"
   inkscape:export-filename="/home/lapo/Desktop/Icona 48x48.png"
   inkscape:export-xdpi="90"
   inkscape:export-ydpi="90">
  <defs
     id="defs4">
    <linearGradient
       inkscape:collect="always"
       id="linearGradient3421">
      <stop
         style="stop-color:black;stop-opacity:1;"
         offset="0"
         id="stop3423" />
      <stop
         style="stop-color:black;stop-opacity:0;"
         offset="1"
         id="stop3425" />
    </linearGradient>
    <linearGradient
       inkscape:collect="always"
       id="linearGradient3159">
      <stop
         style="stop-color:white;stop-opacity:1;"
         offset="0"
         id="stop3161" />
      <stop
         style="stop-color:white;stop-opacity:0;"
         offset="1"
         id="stop3163" />
    </linearGradient>
    <linearGradient
       id="linearGradient3151">
      <stop
         id="stop3153"
         offset="0"
         style="stop-color:white;stop-opacity:1" />
      <stop
         style="stop-color:#8ae234;stop-opacity:1;"
         offset="0.5"
         id="stop3155" />
      <stop
         id="stop3157"
         offset="1"
         style="stop-color:#73d216;stop-opacity:1" />
    </linearGradient>
    <linearGradient
       id="linearGradient3091">
      <stop
         style="stop-color:#eeeeec;stop-opacity:1"
         offset="0"
         id="stop3093" />
      <stop
         id="stop3099"
         offset="0.5"
         style="stop-color:#e0e2dd;stop-opacity:1;" />
      <stop
         style="stop-color:#eeeeec;stop-opacity:0;"
         offset="1"
         id="stop3095" />
    </linearGradient>
    <linearGradient
       inkscape:collect="always"
       id="linearGradient3083">
      <stop
         style="stop-color:white;stop-opacity:1;"
         offset="0"
         id="stop3085" />
      <stop
         style="stop-color:white;stop-opacity:0;"
         offset="1"
         id="stop3087" />
    </linearGradient>
    <linearGradient
       inkscape:collect="always"
       id="linearGradient3831">
      <stop
         style="stop-color:black;stop-opacity:1;"
         offset="0"
         id="stop3833" />
      <stop
         style="stop-color:black;stop-opacity:0;"
         offset="1"
         id="stop3835" />
    </linearGradient>
    <linearGradient
       inkscape:collect="always"
       id="linearGradient2851">
      <stop
         style="stop-color:#888a85;stop-opacity:1;"
         offset="0"
         id="stop2853" />
      <stop
         style="stop-color:#888a85;stop-opacity:0;"
         offset="1"
         id="stop2855" />
    </linearGradient>
    <radialGradient
       inkscape:collect="always"
       xlink:href="#linearGradient3151"
       id="radialGradient3347"
       gradientUnits="userSpaceOnUse"
       gradientTransform="matrix(0.700022,0,0,0.633863,0.819259,1.117278)"
       cx="2.1628973"
       cy="2.3786261"
       fx="2.1628973"
       fy="2.3786261"
       r="2.3145764" />
    <linearGradient
       inkscape:collect="always"
       xlink:href="#linearGradient3159"
       id="linearGradient3349"
       gradientUnits="userSpaceOnUse"
       x1="2.1291261"
       y1="1.5277346"
       x2="3.7071068"
       y2="7.7466836" />
    <linearGradient
       inkscape:collect="always"
       xlink:href="#linearGradient3421"
       id="linearGradient1923"
       gradientUnits="userSpaceOnUse"
       gradientTransform="translate(-53,0)"
       x1="14.125"
       y1="6.125"
       x2="28.250938"
       y2="6.125" />
    <linearGradient
       inkscape:collect="always"
       xlink:href="#linearGradient3091"
       id="linearGradient1974"
       gradientUnits="userSpaceOnUse"
       gradientTransform="matrix(1.295112,-1.292994,-1.295112,-1.292994,29.82837,35.77445)"
       x1="9.9106054"
       y1="9.2537603"
       x2="2.2502754"
       y2="1.5934311" />
    <linearGradient
       inkscape:collect="always"
       xlink:href="#linearGradient2851"
       id="linearGradient1976"
       gradientUnits="userSpaceOnUse"
       gradientTransform="matrix(1.295112,-1.292994,-1.295112,-1.292994,29.82837,35.77445)"
       x1="6.7207937"
       y1="7.385416"
       x2="0.55194509"
       y2="1.2165676" />
    <linearGradient
       inkscape:collect="always"
       xlink:href="#linearGradient3083"
       id="linearGradient1978"
       gradientUnits="userSpaceOnUse"
       x1="24.375"
       y1="24.25"
       x2="24.375"
       y2="7.6019897" />
    <radialGradient
       inkscape:collect="always"
       xlink:href="#linearGradient3831"
       id="radialGradient1980"
       gradientUnits="userSpaceOnUse"
       gradientTransform="matrix(1,0,0,0.3125,0,13.40625)"
       cx="12"
       cy="19.5"
       fx="12"
       fy="19.5"
       r="8" />
    <radialGradient
       inkscape:collect="always"
       xlink:href="#linearGradient3151"
       id="radialGradient1988"
       gradientUnits="userSpaceOnUse"
       gradientTransform="matrix(0.700022,0,0,0.633863,0.819259,1.117278)"
       cx="2.1628973"
       cy="2.3786261"
       fx="2.1628973"
       fy="2.3786261"
       r="2.3145764" />
    <linearGradient
       inkscape:collect="always"
       xlink:href="#linearGradient3159"
       id="linearGradient1990"
       gradientUnits="userSpaceOnUse"
       x1="2.1291261"
       y1="1.5277346"
       x2="3.7071068"
       y2="7.7466836" />
    <radialGradient
       inkscape:collect="always"
       xlink:href="#linearGradient3151"
       id="radialGradient1998"
       gradientUnits="userSpaceOnUse"
       gradientTransform="matrix(0.700022,0,0,0.633863,0.819259,1.117278)"
       cx="2.1628973"
       cy="2.3786261"
       fx="2.1628973"
       fy="2.3786261"
       r="2.3145764" />
    <linearGradient
       inkscape:collect="always"
       xlink:href="#linearGradient3159"
       id="linearGradient2000"
       gradientUnits="userSpaceOnUse"
       x1="2.1291261"
       y1="1.5277346"
       x2="3.7071068"
       y2="7.7466836" />
    <radialGradient
       inkscape:collect="always"
       xlink:href="#linearGradient3151"
       id="radialGradient2008"
       gradientUnits="userSpaceOnUse"
       gradientTransform="matrix(0.700022,0,0,0.633863,0.819259,1.117278)"
       cx="2.1628973"
       cy="2.3786261"
       fx="2.1628973"
       fy="2.3786261"
       r="2.3145764" />
    <linearGradient
       inkscape:collect="always"
       xlink:href="#linearGradient3159"
       id="linearGradient2010"
       gradientUnits="userSpaceOnUse"
       x1="2.1291261"
       y1="1.5277346"
       x2="3.7071068"
       y2="7.7466836" />
    <linearGradient
       inkscape:collect="always"
       xlink:href="#linearGradient3421"
       id="linearGradient2065"
       gradientUnits="userSpaceOnUse"
       gradientTransform="matrix(0.69291,0,0,0.696191,-2.00783,-0.543831)"
       x1="14.125"
       y1="6.125"
       x2="28.250938"
       y2="6.125" />
    <radialGradient
       inkscape:collect="always"
       xlink:href="#linearGradient3831"
       id="radialGradient2067"
       gradientUnits="userSpaceOnUse"
       gradientTransform="matrix(1,0,0,0.3125,0,13.40625)"
       cx="12"
       cy="19.5"
       fx="12"
       fy="19.5"
       r="8" />
    <linearGradient
       inkscape:collect="always"
       xlink:href="#linearGradient3091"
       id="linearGradient2069"
       gradientUnits="userSpaceOnUse"
       gradientTransform="matrix(0.897396,0.900171,-0.897396,0.900171,20.52678,3.201298)"
       x1="9.9106054"
       y1="9.2537603"
       x2="2.2502754"
       y2="1.5934311" />
    <linearGradient
       inkscape:collect="always"
       xlink:href="#linearGradient2851"
       id="linearGradient2071"
       gradientUnits="userSpaceOnUse"
       gradientTransform="matrix(0.897396,0.900171,-0.897396,0.900171,20.52678,3.201298)"
       x1="6.7207937"
       y1="7.385416"
       x2="0.55194509"
       y2="1.2165676" />
    <linearGradient
       inkscape:collect="always"
       xlink:href="#linearGradient3083"
       id="linearGradient2073"
       gradientUnits="userSpaceOnUse"
       x1="24.375"
       y1="24.25"
       x2="24.375"
       y2="7.6019897" />
    <radialGradient
       inkscape:collect="always"
       xlink:href="#linearGradient3151"
       id="radialGradient2075"
       gradientUnits="userSpaceOnUse"
       gradientTransform="matrix(0.700022,0,0,0.633863,0.819259,1.117278)"
       cx="2.1628973"
       cy="2.3786261"
       fx="2.1628973"
       fy="2.3786261"
       r="2.3145764" />
    <linearGradient
       inkscape:collect="always"
       xlink:href="#linearGradient3159"
       id="linearGradient2077"
       gradientUnits="userSpaceOnUse"
       x1="2.1291261"
       y1="1.5277346"
       x2="3.7071068"
       y2="7.7466836" />
    <radialGradient
       inkscape:collect="always"
       xlink:href="#linearGradient3151"
       id="radialGradient2079"
       gradientUnits="userSpaceOnUse"
       gradientTransform="matrix(0.700022,0,0,0.633863,0.819259,1.117278)"
       cx="2.1628973"
       cy="2.3786261"
       fx="2.1628973"
       fy="2.3786261"
       r="2.3145764" />
    <linearGradient
       inkscape:collect="always"
       xlink:href="#linearGradient3159"
       id="linearGradient2081"
       gradientUnits="userSpaceOnUse"
       x1="2.1291261"
       y1="1.5277346"
       x2="3.7071068"
       y2="7.7466836" />
    <radialGradient
       inkscape:collect="always"
       xlink:href="#linearGradient3151"
       id="radialGradient2083"
       gradientUnits="userSpaceOnUse"
       gradientTransform="matrix(0.700022,0,0,0.633863,0.819259,1.117278)"
       cx="2.1628973"
       cy="2.3786261"
       fx="2.1628973"
       fy="2.3786261"
       r="2.3145764" />
    <linearGradient
       inkscape:collect="always"
       xlink:href="#linearGradient3159"
       id="linearGradient2085"
       gradientUnits="userSpaceOnUse"
       x1="2.1291261"
       y1="1.5277346"
       x2="3.7071068"
       y2="7.7466836" />
    <radialGradient
       inkscape:collect="always"
       xlink:href="#linearGradient3151"
       id="radialGradient2087"
       gradientUnits="userSpaceOnUse"
       gradientTransform="matrix(0.700022,0,0,0.633863,0.819259,1.117278)"
       cx="2.1628973"
       cy="2.3786261"
       fx="2.1628973"
       fy="2.3786261"
       r="2.3145764" />
    <linearGradient
       inkscape:collect="always"
       xlink:href="#linearGradient3159"
       id="linearGradient2089"
       gradientUnits="userSpaceOnUse"
       x1="2.1291261"
       y1="1.5277346"
       x2="3.7071068"
       y2="7.7466836" />
    <radialGradient
       inkscape:collect="always"
       xlink:href="#linearGradient3831"
       id="radialGradient2093"
       gradientUnits="userSpaceOnUse"
       gradientTransform="matrix(1,0,0,0.3125,0,13.40625)"
       cx="12"
       cy="19.5"
       fx="12"
       fy="19.5"
       r="8" />
    <radialGradient
       inkscape:collect="always"
       xlink:href="#linearGradient3151"
       id="radialGradient2101"
       gradientUnits="userSpaceOnUse"
       gradientTransform="matrix(0.700022,0,0,0.633863,0.819259,1.117278)"
       cx="2.1628973"
       cy="2.3786261"
       fx="2.1628973"
       fy="2.3786261"
       r="2.3145764" />
    <linearGradient
       inkscape:collect="always"
       xlink:href="#linearGradient3159"
       id="linearGradient2103"
       gradientUnits="userSpaceOnUse"
       x1="2.1291261"
       y1="1.5277346"
       x2="3.7071068"
       y2="7.7466836" />
    <radialGradient
       inkscape:collect="always"
       xlink:href="#linearGradient3151"
       id="radialGradient2105"
       gradientUnits="userSpaceOnUse"
       gradientTransform="matrix(0.700022,0,0,0.633863,0.819259,1.117278)"
       cx="2.1628973"
       cy="2.3786261"
       fx="2.1628973"
       fy="2.3786261"
       r="2.3145764" />
    <linearGradient
       inkscape:collect="always"
       xlink:href="#linearGradient3159"
       id="linearGradient2107"
       gradientUnits="userSpaceOnUse"
       x1="2.1291261"
       y1="1.5277346"
       x2="3.7071068"
       y2="7.7466836" />
    <radialGradient
       inkscape:collect="always"
       xlink:href="#linearGradient3151"
       id="radialGradient2109"
       gradientUnits="userSpaceOnUse"
       gradientTransform="matrix(0.700022,0,0,0.633863,0.819259,1.117278)"
       cx="2.1628973"
       cy="2.3786261"
       fx="2.1628973"
       fy="2.3786261"
       r="2.3145764" />
    <linearGradient
       inkscape:collect="always"
       xlink:href="#linearGradient3159"
       id="linearGradient2111"
       gradientUnits="userSpaceOnUse"
       x1="2.1291261"
       y1="1.5277346"
       x2="3.7071068"
       y2="7.7466836" />
    <radialGradient
       inkscape:collect="always"
       xlink:href="#linearGradient3151"
       id="radialGradient2113"
       gradientUnits="userSpaceOnUse"
       gradientTransform="matrix(0.700022,0,0,0.633863,0.819259,1.117278)"
       cx="2.1628973"
       cy="2.3786261"
       fx="2.1628973"
       fy="2.3786261"
       r="2.3145764" />
    <linearGradient
       inkscape:collect="always"
       xlink:href="#linearGradient3159"
       id="linearGradient2115"
       gradientUnits="userSpaceOnUse"
       x1="2.1291261"
       y1="1.5277346"
       x2="3.7071068"
       y2="7.7466836" />
    <linearGradient
       inkscape:collect="always"
       xlink:href="#linearGradient3421"
       id="linearGradient2134"
       gradientUnits="userSpaceOnUse"
       gradientTransform="matrix(0.69291,0,0,0.696191,-2.00783,-0.543831)"
       x1="14.125"
       y1="6.125"
       x2="28.250938"
       y2="6.125" />
    <linearGradient
       inkscape:collect="always"
       xlink:href="#linearGradient3091"
       id="linearGradient2136"
       gradientUnits="userSpaceOnUse"
       gradientTransform="matrix(0.897396,0.900171,-0.897396,0.900171,20.52678,3.201298)"
       x1="9.9106054"
       y1="9.2537603"
       x2="2.2502754"
       y2="1.5934311" />
    <linearGradient
       inkscape:collect="always"
       xlink:href="#linearGradient2851"
       id="linearGradient2138"
       gradientUnits="userSpaceOnUse"
       gradientTransform="matrix(0.897396,0.900171,-0.897396,0.900171,20.52678,3.201298)"
       x1="6.7207937"
       y1="7.385416"
       x2="0.55194509"
       y2="1.2165676" />
    <linearGradient
       inkscape:collect="always"
       xlink:href="#linearGradient3083"
       id="linearGradient2140"
       gradientUnits="userSpaceOnUse"
       x1="24.375"
       y1="24.25"
       x2="24.375"
       y2="7.6019897" />
  </defs>
  <sodipodi:namedview
     id="base"
     pagecolor="white"
     bordercolor="#afafaf"
     borderopacity="1"
     inkscape:pageopacity="0"
     inkscape:pageshadow="2"
     inkscape:zoom="1"
     inkscape:cx="21.177974"
     inkscape:cy="19.091744"
     inkscape:document-units="px"
     inkscape:current-layer="layer1"
     width="32px"
     height="32px"
     gridspacingx="0.5px"
     gridspacingy="0.5px"
     inkscape:showpageshadow="false"
     borderlayer="false"
     gridempspacing="2"
     inkscape:window-width="1051"
     inkscape:window-height="797"
     inkscape:window-x="128"
     inkscape:window-y="0"
     showgrid="false"
     showborder="false"
     inkscape:grid-points="true"
     inkscape:guide-bbox="true"
     showguides="true" />
  <metadata
     id="metadata7">
    <rdf:RDF>
      <cc:Work
         rdf:about="">
        <dc:format>image/svg+xml</dc:format>
        <dc:type
           rdf:resource="http://purl.org/dc/dcmitype/StillImage" />
        <dc:creator>
          <cc:Agent>
            <dc:title>Lapo Calamandrei</dc:title>
          </cc:Agent>
        </dc:creator>
        <cc:license
           rdf:resource="http://creativecommons.org/licenses/GPL/2.0/" />
      </cc:Work>
      <cc:License
         rdf:about="http://creativecommons.org/licenses/GPL/2.0/">
        <cc:permits
           rdf:resource="http://web.resource.org/cc/Reproduction" />
        <cc:permits
           rdf:resource="http://web.resource.org/cc/Distribution" />
        <cc:requires
           rdf:resource="http://web.resource.org/cc/Notice" />
        <cc:permits
           rdf:resource="http://web.resource.org/cc/DerivativeWorks" />
        <cc:requires
           rdf:resource="http://web.resource.org/cc/ShareAlike" />
        <cc:requires
           rdf:resource="http://web.resource.org/cc/SourceCode" />
      </cc:License>
    </rdf:RDF>
  </metadata>
  <g
     inkscape:label="Livello 1"
     inkscape:groupmode="layer"
     id="layer1"
     style="display:inline">
    <path
       style="opacity:0.2;fill:url(#linearGradient2134);fill-opacity:1;stroke:none;stroke-width:1.20000005;stroke-linecap:round;stroke-linejoin:round;stroke-miterlimit:4;stroke-dasharray:none;stroke-dashoffset:0;stroke-opacity:1;display:inline"
       d="M 8.039365,2.937124 C 7.4635568,2.937124 7,3.4028758 7,3.9814105 C 7,4.5599452 7.4635568,5.025697 8.039365,5.025697 L 9.425185,5.025697 C 10.000993,5.025697 10.46455,4.5599452 10.46455,3.9814105 C 10.46455,3.4028758 10.000993,2.937124 9.425185,2.937124 L 8.039365,2.937124 z M 12.196825,2.937124 C 11.621017,2.937124 11.15746,3.4028758 11.15746,3.9814105 C 11.15746,4.5599452 11.621017,5.025697 12.196825,5.025697 L 12.889735,5.025697 C 13.465543,5.025697 13.9291,4.5599452 13.9291,3.9814105 C 13.9291,3.4028758 13.465543,2.937124 12.889735,2.937124 L 12.196825,2.937124 z M 15.661375,2.937124 C 15.085567,2.937124 14.62201,3.4028758 14.62201,3.9814105 C 14.62201,4.5599452 15.085567,5.025697 15.661375,5.025697 L 24.669205,5.025697 C 25.245013,5.025697 25.70857,4.5599452 25.70857,3.9814105 C 25.70857,3.4028758 25.245013,2.937124 24.669205,2.937124 L 15.661375,2.937124 z M 8.02762,10.911427 C 7.4518118,10.911427 6.988255,11.377179 6.988255,11.955713 C 6.988255,12.534248 7.4518118,13 8.02762,13 C 8.6034282,13 9.066985,12.534248 9.066985,11.955713 C 9.066985,11.377179 8.6034282,10.911427 8.02762,10.911427 z M 10.79926,10.911427 C 10.223452,10.911427 9.759895,11.377179 9.759895,11.955713 C 9.759895,12.534248 10.223452,13 10.79926,13 L 14.26381,13 C 14.839618,13 15.303175,12.534248 15.303175,11.955713 C 15.303175,11.377179 14.839618,10.911427 14.26381,10.911427 L 10.79926,10.911427 z M 17.03545,10.911427 C 16.459642,10.911427 15.996085,11.377179 15.996085,11.955713 C 15.996085,12.534248 16.459642,13 17.03545,13 L 20.5,13 C 21.075808,13 21.539365,12.534248 21.539365,11.955713 C 21.539365,11.377179 21.075808,10.911427 20.5,10.911427 L 17.03545,10.911427 z M 8.039365,18.955713 C 7.4635568,18.955713 7,19.421465 7,20 C 7,20.578534 7.4635568,21.044286 8.039365,21.044286 C 8.6151732,21.044286 9.07873,20.578534 9.07873,20 C 9.07873,19.421465 8.6151732,18.955713 8.039365,18.955713 z M 10.811005,18.955713 C 10.235197,18.955713 9.77164,19.421465 9.77164,20 C 9.77164,20.578534 10.235197,21.044286 10.811005,21.044286 C 11.386813,21.044286 11.85037,20.578534 11.85037,20 C 11.85037,19.421465 11.386813,18.955713 10.811005,18.955713 z M 13.582645,18.955713 C 13.006837,18.955713 12.54328,19.421465 12.54328,20 C 12.54328,20.578534 13.006837,21.044286 13.582645,21.044286 L 16.354285,21.044286 C 16.930093,21.044286 17.39365,20.578534 17.39365,20 C 17.39365,19.421465 16.930093,18.955713 16.354285,18.955713 L 13.582645,18.955713 z M 19.125925,18.955713 C 18.550117,18.955713 18.08656,19.421465 18.08656,20 C 18.08656,20.578534 18.550117,21.044286 19.125925,21.044286 L 22.590475,21.044286 C 23.166283,21.044286 23.62984,20.578534 23.62984,20 C 23.62984,19.421465 23.166283,18.955713 22.590475,18.955713 L 19.125925,18.955713 z M 8.039365,26.955714 C 7.4635568,26.955714 7,27.421466 7,28 C 7,28.578535 7.4635568,29.044287 8.039365,29.044287 C 8.6151732,29.044287 9.07873,28.578535 9.07873,28 C 9.07873,27.421466 8.6151732,26.955714 8.039365,26.955714 z M 10.811005,26.955714 C 10.235197,26.955714 9.77164,27.421466 9.77164,28 C 9.77164,28.578535 10.235197,29.044287 10.811005,29.044287 L 14.275555,29.044287 C 14.851363,29.044287 15.31492,28.578535 15.31492,28 C 15.31492,27.421466 14.851363,26.955714 14.275555,26.955714 L 10.811005,26.955714 z M 17.047195,26.955714 C 16.471387,26.955714 16.00783,27.421466 16.00783,28 C 16.00783,28.578535 16.471387,29.044287 17.047195,29.044287 L 20.511745,29.044287 C 21.087553,29.044287 21.55111,28.578535 21.55111,28 C 21.55111,27.421466 21.087553,26.955714 20.511745,26.955714 L 17.047195,26.955714 z "
       id="path1925"
       sodipodi:nodetypes="csccscccsccscccsccscccsssccsccscccsccscccsssccsssccsccscccsccscccsssccsccscccsccscc" />
    <path
       sodipodi:type="arc"
       style="opacity:0.03;fill:url(#radialGradient2093);fill-opacity:1;stroke:none;stroke-width:2;stroke-linecap:round;stroke-linejoin:round;stroke-miterlimit:4;stroke-dasharray:none;stroke-dashoffset:0;stroke-opacity:1;display:inline"
       id="path1929"
       sodipodi:cx="12"
       sodipodi:cy="19.5"
       sodipodi:rx="8"
       sodipodi:ry="2.5"
       d="M 20 19.5 A 8 2.5 0 1 1  4,19.5 A 8 2.5 0 1 1  20 19.5 z"
       transform="matrix(1.370119,0,0,1.572031,5.772212,-5.734915)" />
    <g
       id="g2000"
       transform="matrix(0.98587,0,0,-1.053663,0.430959,31.07782)">
      <path
         inkscape:transform-center-y="-5.1801177"
         inkscape:transform-center-x="-0.030763634"
         sodipodi:nodetypes="cccccccc"
         id="path1931"
         d="M 23.654451,1.9999998 L 21.116231,1.9999998 L 19.212567,16.639891 L 14.770683,16.639891 L 22.385341,24.278095 L 30,16.639891 L 25.558115,16.639891 L 23.654451,1.9999998 z "
         style="fill:url(#linearGradient2136);fill-opacity:1;fill-rule:evenodd;stroke:url(#linearGradient2138);stroke-width:0.98115897px;stroke-linecap:butt;stroke-linejoin:miter;stroke-opacity:1;display:inline" />
      <path
         transform="matrix(0.69291,0,0,0.696191,3.322953,-1.82905)"
         d="M 26.96875,6.9375 L 24.375,26.71875 C 24.279348,27.438158 23.663221,27.97392 22.9375,27.96875 L 20.03125,27.96875 L 27.5,35.4375 L 35,27.96875 L 32.09375,27.96875 C 31.368029,27.97392 30.751902,27.438158 30.65625,26.71875 L 28.0625,6.9375 L 26.96875,6.9375 z "
         id="path1933"
         style="fill:none;fill-opacity:1;fill-rule:evenodd;stroke:url(#linearGradient2140);stroke-width:1.41265714px;stroke-linecap:butt;stroke-linejoin:miter;stroke-opacity:1;display:inline"
         inkscape:original="M 25.6875 5.5 L 22.9375 26.53125 L 16.53125 26.53125 L 27.5 37.5 L 38.5 26.53125 L 32.09375 26.53125 L 29.34375 5.5 L 25.6875 5.5 z "
         inkscape:radius="-1.4396586"
         sodipodi:type="inkscape:offset" />
    </g>
    <g
       style="display:inline"
       id="g1935"
       transform="matrix(0.829216,0,0,0.83024,-3.215663,-10.52832)">
      <path
         transform="matrix(1.5,0,0,1.684211,3,12.07895)"
         d="M 5 3.21875 A 2 1.78125 0 1 1  1,3.21875 A 2 1.78125 0 1 1  5 3.21875 z"
         sodipodi:ry="1.78125"
         sodipodi:rx="2"
         sodipodi:cy="3.21875"
         sodipodi:cx="3"
         id="path1937"
         style="fill:url(#radialGradient2101);fill-opacity:1;stroke:#4e9a06;stroke-width:0.75826424;stroke-linecap:round;stroke-linejoin:round;stroke-miterlimit:4;stroke-dasharray:none;stroke-dashoffset:0;stroke-opacity:1"
         sodipodi:type="arc" />
      <path
         transform="matrix(0.902878,0,0,1.01489,4.791368,14.23333)"
         d="M 5 3.21875 A 2 1.78125 0 1 1  1,3.21875 A 2 1.78125 0 1 1  5 3.21875 z"
         sodipodi:ry="1.78125"
         sodipodi:rx="2"
         sodipodi:cy="3.21875"
         sodipodi:cx="3"
         id="path1939"
         style="opacity:0.8;fill:none;fill-opacity:1;stroke:url(#linearGradient2103);stroke-width:1.25904238;stroke-linecap:round;stroke-linejoin:round;stroke-miterlimit:4;stroke-dasharray:none;stroke-dashoffset:0;stroke-opacity:1;display:inline"
         sodipodi:type="arc" />
    </g>
    <g
       style="display:inline"
       id="g1962"
       transform="matrix(0.829216,0,0,0.83024,-3.215663,-2.52832)">
      <path
         transform="matrix(1.5,0,0,1.684211,3,12.07895)"
         d="M 5 3.21875 A 2 1.78125 0 1 1  1,3.21875 A 2 1.78125 0 1 1  5 3.21875 z"
         sodipodi:ry="1.78125"
         sodipodi:rx="2"
         sodipodi:cy="3.21875"
         sodipodi:cx="3"
         id="path1964"
         style="fill:url(#radialGradient2105);fill-opacity:1;stroke:#4e9a06;stroke-width:0.75826424;stroke-linecap:round;stroke-linejoin:round;stroke-miterlimit:4;stroke-dasharray:none;stroke-dashoffset:0;stroke-opacity:1"
         sodipodi:type="arc" />
      <path
         transform="matrix(0.902878,0,0,1.01489,4.791368,14.23333)"
         d="M 5 3.21875 A 2 1.78125 0 1 1  1,3.21875 A 2 1.78125 0 1 1  5 3.21875 z"
         sodipodi:ry="1.78125"
         sodipodi:rx="2"
         sodipodi:cy="3.21875"
         sodipodi:cx="3"
         id="path1966"
         style="opacity:0.8;fill:none;fill-opacity:1;stroke:url(#linearGradient2107);stroke-width:1.25904238;stroke-linecap:round;stroke-linejoin:round;stroke-miterlimit:4;stroke-dasharray:none;stroke-dashoffset:0;stroke-opacity:1;display:inline"
         sodipodi:type="arc" />
    </g>
    <g
       style="display:inline"
       id="g1972"
       transform="matrix(0.829216,0,0,0.83024,-3.215663,5.47168)">
      <path
         transform="matrix(1.5,0,0,1.684211,3,12.07895)"
         d="M 5 3.21875 A 2 1.78125 0 1 1  1,3.21875 A 2 1.78125 0 1 1  5 3.21875 z"
         sodipodi:ry="1.78125"
         sodipodi:rx="2"
         sodipodi:cy="3.21875"
         sodipodi:cx="3"
         id="path1974"
         style="fill:url(#radialGradient2109);fill-opacity:1;stroke:#4e9a06;stroke-width:0.75826424;stroke-linecap:round;stroke-linejoin:round;stroke-miterlimit:4;stroke-dasharray:none;stroke-dashoffset:0;stroke-opacity:1"
         sodipodi:type="arc" />
      <path
         transform="matrix(0.902878,0,0,1.01489,4.791368,14.23333)"
         d="M 5 3.21875 A 2 1.78125 0 1 1  1,3.21875 A 2 1.78125 0 1 1  5 3.21875 z"
         sodipodi:ry="1.78125"
         sodipodi:rx="2"
         sodipodi:cy="3.21875"
         sodipodi:cx="3"
         id="path1976"
         style="opacity:0.8;fill:none;fill-opacity:1;stroke:url(#linearGradient2111);stroke-width:1.25904238;stroke-linecap:round;stroke-linejoin:round;stroke-miterlimit:4;stroke-dasharray:none;stroke-dashoffset:0;stroke-opacity:1;display:inline"
         sodipodi:type="arc" />
    </g>
    <g
       style="display:inline"
       id="g1982"
       transform="matrix(0.829216,0,0,0.83024,-3.215663,13.47168)">
      <path
         transform="matrix(1.5,0,0,1.684211,3,12.07895)"
         d="M 5 3.21875 A 2 1.78125 0 1 1  1,3.21875 A 2 1.78125 0 1 1  5 3.21875 z"
         sodipodi:ry="1.78125"
         sodipodi:rx="2"
         sodipodi:cy="3.21875"
         sodipodi:cx="3"
         id="path1984"
         style="fill:url(#radialGradient2113);fill-opacity:1;stroke:#4e9a06;stroke-width:0.75826424;stroke-linecap:round;stroke-linejoin:round;stroke-miterlimit:4;stroke-dasharray:none;stroke-dashoffset:0;stroke-opacity:1"
         sodipodi:type="arc" />
      <path
         transform="matrix(0.902878,0,0,1.01489,4.791368,14.23333)"
         d="M 5 3.21875 A 2 1.78125 0 1 1  1,3.21875 A 2 1.78125 0 1 1  5 3.21875 z"
         sodipodi:ry="1.78125"
         sodipodi:rx="2"
         sodipodi:cy="3.21875"
         sodipodi:cx="3"
         id="path1986"
         style="opacity:0.8;fill:none;fill-opacity:1;stroke:url(#linearGradient2115);stroke-width:1.25904238;stroke-linecap:round;stroke-linejoin:round;stroke-miterlimit:4;stroke-dasharray:none;stroke-dashoffset:0;stroke-opacity:1;display:inline"
         sodipodi:type="arc" />
    </g>
  </g>
  <g
     inkscape:groupmode="layer"
     id="layer2"
     inkscape:label="frame"
     style="display:none">
    <rect
       style="opacity:0;fill:#eeeeec;fill-opacity:1;stroke:none;stroke-width:1;stroke-linecap:round;stroke-linejoin:round;stroke-miterlimit:4;stroke-dasharray:none;stroke-dashoffset:0;stroke-opacity:1"
       id="rect4038"
       width="200"
       height="72"
       x="-135"
       y="-11"
       inkscape:export-filename="/home/lapo/Desktop/order-stuff.png"
       inkscape:export-xdpi="90"
       inkscape:export-ydpi="90" />
  </g>
</svg>
