<?xml version="1.0" encoding="UTF-8" standalone="no"?>
<!-- Created with Inkscape (http://www.inkscape.org/) -->

<svg
   xmlns:svg="http://www.w3.org/2000/svg"
   xmlns="http://www.w3.org/2000/svg"
   version="1.1"
   width="16"
   height="16"
   id="svg7384">
  <title
     id="title9167">Moblin Icon Theme</title>
  <defs
     id="defs7386">
    <clipPath
       id="clipPath6279-2">
      <rect
         width="3.8250003"
         height="6.3750005"
         x="26.85"
         y="220.75"
         id="rect6281-5"
         style="color:#000000;fill:#000000;fill-opacity:1;fill-rule:nonzero;stroke:none;stroke-width:2;marker:none;visibility:visible;display:inline;overflow:visible;enable-background:accumulate" />
    </clipPath>
    <clipPath
       id="clipPath6265-3-5">
      <rect
         width="2.8977277"
         height="5.21591"
         x="26.96591"
         y="221.32954"
         id="rect6267-1-8"
         style="color:#000000;fill:#000000;fill-opacity:1;fill-rule:nonzero;stroke:none;stroke-width:2;marker:none;visibility:visible;display:inline;overflow:visible;enable-background:accumulate" />
    </clipPath>
    <clipPath
       id="clipPath6259-8-8">
      <rect
         width="1.8762827"
         height="4.8734746"
         x="26.998718"
         y="221.50153"
         id="rect6261-6-0"
         style="color:#000000;fill:#000000;fill-opacity:1;stroke:none;stroke-width:2;marker:none;visibility:visible;display:inline;overflow:visible;enable-background:accumulate" />
    </clipPath>
  </defs>
  <g
     transform="translate(-121,-469)"
     id="layer3"
     style="display:inline">
    <path
       d="m 121,474 2.48438,0 2.96875,-3 0.54687,0.0156 0,11 -0.4753,8.3e-4 L 123.48438,479 121,479 l 0,-5 z"
       id="path3268"
       style="color:#000000;fill:#bebebe;fill-opacity:1;fill-rule:nonzero;stroke:none;stroke-width:1;marker:none;visibility:visible;display:inline;overflow:visible;enable-background:accumulate" />
    <rect
       width="16"
       height="16"
       x="121"
       y="469"
       id="rect3270"
       style="color:#000000;fill:none;stroke:none;stroke-width:1;marker:none;visibility:visible;display:inline;overflow:visible;enable-background:accumulate" />
    <path
       d="m 26.9375,220.40625 a 1.2751276,1.2751276 0 0 0 -0.65625,2.1875 c 0.757556,0.75756 0.757556,1.92994 0,2.6875 a 1.281631,1.281631 0 1 0 1.8125,1.8125 c 1.732036,-1.73204 1.732036,-4.58046 0,-6.3125 a 1.2751276,1.2751276 0 0 0 -1.15625,-0.375 z"
       transform="matrix(0.78431365,0,0,0.78431365,106.94118,300.86276)"
       clip-path="url(#clipPath6279-2)"
       id="path3272"
       style="font-size:medium;font-style:normal;font-variant:normal;font-weight:normal;font-stretch:normal;text-indent:0;text-align:start;text-decoration:none;line-height:normal;letter-spacing:normal;word-spacing:normal;text-transform:none;direction:ltr;block-progression:tb;writing-mode:lr-tb;text-anchor:start;opacity:0.25;color:#000000;fill:#bebebe;fill-opacity:1;stroke:none;stroke-width:2.55000019;marker:none;visibility:visible;display:inline;overflow:visible;enable-background:accumulate;font-family:Andale Mono;-inkscape-font-specification:Andale Mono" />
    <path
       d="m 27.125,221.09375 a 0.57960351,0.57960351 0 0 0 -0.34375,1 c 1.023324,1.02332 1.023323,2.66418 0,3.6875 a 0.57960351,0.57960351 0 1 0 0.8125,0.8125 c 1.466269,-1.46627 1.466269,-3.84623 0,-5.3125 a 0.57960351,0.57960351 0 0 0 -0.46875,-0.1875 z"
       transform="matrix(1.7254899,0,0,1.7254899,83.470596,90.09811)"
       clip-path="url(#clipPath6265-3-5)"
       id="path3274"
       style="font-size:medium;font-style:normal;font-variant:normal;font-weight:normal;font-stretch:normal;text-indent:0;text-align:start;text-decoration:none;line-height:normal;letter-spacing:normal;word-spacing:normal;text-transform:none;direction:ltr;block-progression:tb;writing-mode:lr-tb;text-anchor:start;opacity:0.25;color:#000000;fill:#bebebe;fill-opacity:1;stroke:none;stroke-width:1.15909111;marker:none;visibility:visible;display:inline;overflow:visible;enable-background:accumulate;font-family:Andale Mono;-inkscape-font-specification:Andale Mono" />
    <path
       d="m 27.0625,221.3125 a 0.37503771,0.37503771 0 0 0 -0.125,0.625 c 1.10149,1.10149 1.10149,2.89851 0,4 a 0.37565048,0.37565048 0 1 0 0.53125,0.53125 c 1.388102,-1.3881 1.388102,-3.6744 0,-5.0625 a 0.37503771,0.37503771 0 0 0 -0.40625,-0.0937 z"
       transform="matrix(2.6666653,0,0,2.6666653,60.000031,-120.66635)"
       clip-path="url(#clipPath6259-8-8)"
       id="path3276"
       style="font-size:medium;font-style:normal;font-variant:normal;font-weight:normal;font-stretch:normal;text-indent:0;text-align:start;text-decoration:none;line-height:normal;letter-spacing:normal;word-spacing:normal;text-transform:none;direction:ltr;block-progression:tb;writing-mode:lr-tb;text-anchor:start;opacity:0.25;color:#000000;fill:#bebebe;fill-opacity:1;stroke:none;stroke-width:0.75000042;marker:none;visibility:visible;display:inline;overflow:visible;enable-background:accumulate;font-family:Andale Mono;-inkscape-font-specification:Andale Mono" />
  </g>
  <g
     transform="translate(-121,-469)"
     id="layer2"
     style="display:inline" />
  <g
     transform="translate(-101.00025,-440)"
     id="layer4" />
  <g
     transform="translate(-121,-469)"
     id="layer1"
     style="display:inline" />
</svg>
