<?xml version="1.0" encoding="UTF-8" standalone="no"?>
<!-- Created with Inkscape (http://www.inkscape.org/) -->

<svg
   xmlns:dc="http://purl.org/dc/elements/1.1/"
   xmlns:cc="http://creativecommons.org/ns#"
   xmlns:rdf="http://www.w3.org/1999/02/22-rdf-syntax-ns#"
   xmlns:svg="http://www.w3.org/2000/svg"
   xmlns="http://www.w3.org/2000/svg"
   xmlns:inkscape="http://www.inkscape.org/namespaces/inkscape"
   version="1.1"
   width="16"
   height="16"
   id="svg7384">
  <title
     id="title9167">Moblin Icon Theme</title>
  <defs
     id="defs7386">
    <clipPath
       id="clipPath3141-0">
      <path
         d="m 101,217 0,2 -2,0 0,1 4,0 0,7 -4,0 0,1 2,0 0,2 5,0 0,-13 -5,0 z"
         inkscape:connector-curvature="0"
         id="path3143-8"
         style="color:#000000;fill:#000000;fill-opacity:1;fill-rule:nonzero;stroke:none;stroke-width:2;marker:none;visibility:visible;display:inline;overflow:visible;enable-background:accumulate" />
    </clipPath>
  </defs>
  <metadata
     id="metadata7389">
    <rdf:RDF>
      <cc:Work
         rdf:about="">
        <dc:format>image/svg+xml</dc:format>
        <dc:type
           rdf:resource="http://purl.org/dc/dcmitype/StillImage" />
        <dc:title>Moblin Icon Theme</dc:title>
        <cc:license
           rdf:resource="http://creativecommons.org/licenses/by-sa/3.0/" />
        <dc:creator>
          <cc:Agent>
            <dc:title />
          </cc:Agent>
        </dc:creator>
        <dc:contributor>
          <cc:Agent>
            <dc:title>Jakub Steiner, 
Hylke Bons, 
Nick Richards, 
Darren Wilson, 
Claire Alexander</dc:title>
          </cc:Agent>
        </dc:contributor>
        <dc:source>http://www.moblin.org</dc:source>
      </cc:Work>
      <cc:License
         rdf:about="http://creativecommons.org/licenses/by-sa/3.0/">
        <cc:permits
           rdf:resource="http://creativecommons.org/ns#Reproduction" />
        <cc:permits
           rdf:resource="http://creativecommons.org/ns#Distribution" />
        <cc:requires
           rdf:resource="http://creativecommons.org/ns#Notice" />
        <cc:requires
           rdf:resource="http://creativecommons.org/ns#Attribution" />
        <cc:permits
           rdf:resource="http://creativecommons.org/ns#DerivativeWorks" />
        <cc:requires
           rdf:resource="http://creativecommons.org/ns#ShareAlike" />
      </cc:License>
    </rdf:RDF>
  </metadata>
  <g
     transform="translate(-121,-469)"
     id="layer3"
     style="display:inline">
    <path
       d="m 121,474 2.48438,0 2.96875,-3 0.54687,0.0156 0,11 -0.4753,8.3e-4 L 123.48438,479 121,479 l 0,-5 z"
       inkscape:connector-curvature="0"
       id="path5557"
       style="opacity:0.25;color:#000000;fill:#bebebe;fill-opacity:1;fill-rule:nonzero;stroke:none;stroke-width:1;marker:none;visibility:visible;display:inline;overflow:visible;enable-background:accumulate" />
    <rect
       width="16"
       height="16"
       x="121"
       y="469"
       id="rect5559"
       style="color:#000000;fill:none;stroke:none;stroke-width:1;marker:none;visibility:visible;display:inline;overflow:visible;enable-background:accumulate" />
    <path
       d="m 128,474 1.375,0 1.125,1.09375 L 131.59375,474 133,474 l 0,1.46875 -1.09375,1.0625 L 133,477.59375 133,479 131.5625,479 130.5,477.9375 129.4375,479 128,479 l 0,-1.40625 1.0625,-1.0625 L 128,475.46875 128,474 z"
       inkscape:connector-curvature="0"
       id="path3761-2"
       style="color:#000000;fill:#bebebe;fill-opacity:1;stroke:none;stroke-width:2;marker:none;visibility:visible;display:inline;overflow:visible;enable-background:accumulate" />
    <g
       transform="translate(31,253)"
       clip-path="url(#clipPath3141-0)"
       id="g3137"
       style="display:inline">
      <path
         d="m 27.191403,221.6836 a 3.1875,3.1875 0 0 1 0,4.5078"
         transform="matrix(1.7254899,0,0,1.7254899,52.470596,-162.90189)"
         id="path3726-1-5-7"
         style="opacity:0.25;fill:none;stroke:#bebebe;stroke-width:1.15909111;stroke-linecap:round;stroke-miterlimit:4;stroke-opacity:1;stroke-dasharray:none;display:inline" />
      <path
         d="m 27.191403,221.6836 a 3.1875,3.1875 0 0 1 0,4.5078"
         transform="matrix(2.6666653,0,0,2.6666653,29.000031,-373.66635)"
         id="path3728-0-1-0"
         style="opacity:0.25;fill:none;stroke:#bebebe;stroke-width:0.75000042;stroke-linecap:round;stroke-miterlimit:4;stroke-opacity:1;stroke-dasharray:none;display:inline" />
    </g>
  </g>
  <g
     transform="translate(-121,-469)"
     id="layer2"
     style="display:inline" />
  <g
     transform="translate(-101.00025,-440)"
     id="layer4" />
  <g
     transform="translate(-121,-469)"
     id="layer1"
     style="display:inline" />
</svg>
