<?xml version="1.0" encoding="UTF-8" standalone="no"?>
<!-- Created with Inkscape (http://www.inkscape.org/) -->

<svg
   xmlns:svg="http://www.w3.org/2000/svg"
   xmlns="http://www.w3.org/2000/svg"
   version="1.1"
   width="16"
   height="16"
   id="svg7384">
  <title
     id="title9167">Gnome Symbolic Icon Theme</title>
  <defs
     id="defs7386" />
  <g
     transform="translate(-201.0002,-217)"
     id="layer9">
    <path
       d="m 204.0002,225.99975 0,4 3.00025,0 0,-2 2,-2 -5.00025,0 z"
       id="path6282"
       style="fill:#bebebe;fill-opacity:1;stroke:none" />
    <path
       d="m 204.46875,217.03125 c -0.49033,0 -0.79607,0.22845 -1.03125,0.46875 -0.23518,0.2403 -0.4375,0.55851 -0.4375,1.03125 l 0,0.46875 -1,0 -1,0 0,1 0,12 0,1 1,0 7,0 0,-2 -6,0 0,-10 1,0 1,0 0,-1 0,-0.96875 3,0 0,0.96875 0,1 1,0 1,0 0,3 2,0 0,-4 0,-1 -1,0 -1,0 0,-0.34375 0,-0.0313 c -0.0239,-0.4306 -0.17024,-0.75229 -0.40625,-1.03125 -0.22373,-0.26444 -0.62669,-0.52931 -1.15625,-0.53125 l 0,-0.0313 -0.0625,0 -3.90625,0 z"
       id="path6284"
       style="font-size:medium;font-style:normal;font-variant:normal;font-weight:normal;font-stretch:normal;text-indent:0;text-align:start;text-decoration:none;line-height:normal;letter-spacing:normal;word-spacing:normal;text-transform:none;direction:ltr;block-progression:tb;writing-mode:lr-tb;text-anchor:start;color:#bebebe;fill:#bebebe;fill-opacity:1;stroke:none;stroke-width:2;marker:none;visibility:visible;display:inline;overflow:visible;enable-background:accumulate;font-family:Bitstream Vera Sans;-inkscape-font-specification:Bitstream Vera Sans" />
    <rect
       width="16"
       height="16"
       x="217"
       y="-217.0002"
       transform="matrix(0,1,-1,0,0,0)"
       id="rect6286"
       style="color:#bebebe;fill:none;stroke:none;stroke-width:1;marker:none;visibility:visible;display:inline;overflow:visible" />
    <path
       d="m 211.875,225 a 1.0001,1.0001 0 0 0 -0.59375,0.28125 l -3,3 A 1.0001,1.0001 0 0 0 209,230 l 2.5625,0 -1.28125,1.28125 a 1.016466,1.016466 0 1 0 1.4375,1.4375 l 3,-3 A 1.0001,1.0001 0 0 0 214,228 l -2.5625,0 1.28125,-1.28125 A 1.0001,1.0001 0 0 0 211.875,225 z"
       id="path6288"
       style="font-size:medium;font-style:normal;font-variant:normal;font-weight:normal;font-stretch:normal;text-indent:0;text-align:start;text-decoration:none;line-height:normal;letter-spacing:normal;word-spacing:normal;text-transform:none;direction:ltr;block-progression:tb;writing-mode:lr-tb;text-anchor:start;color:#bebebe;fill:#bebebe;fill-opacity:1;fill-rule:nonzero;stroke:none;stroke-width:2;marker:none;visibility:visible;display:inline;overflow:visible;enable-background:accumulate;font-family:Bitstream Vera Sans;-inkscape-font-specification:Bitstream Vera Sans" />
    <rect
       width="1"
       height="1"
       x="214.00044"
       y="227.99976"
       id="rect6290"
       style="color:#bebebe;fill:#bebebe;fill-opacity:1;fill-rule:nonzero;stroke:none;stroke-width:2;marker:none;visibility:visible;display:inline;overflow:visible" />
    <rect
       width="1"
       height="1"
       x="208.00044"
       y="228.99976"
       id="rect6292"
       style="color:#bebebe;fill:#bebebe;fill-opacity:1;fill-rule:nonzero;stroke:none;stroke-width:2;marker:none;visibility:visible;display:inline;overflow:visible" />
    <rect
       width="1"
       height="1"
       x="212.00044"
       y="224.99976"
       id="rect6294"
       style="color:#bebebe;fill:#bebebe;fill-opacity:1;fill-rule:nonzero;stroke:none;stroke-width:2;marker:none;visibility:visible;display:inline;overflow:visible" />
    <rect
       width="1"
       height="1"
       x="210.00044"
       y="231.99976"
       id="rect6296"
       style="color:#bebebe;fill:#bebebe;fill-opacity:1;fill-rule:nonzero;stroke:none;stroke-width:2;marker:none;visibility:visible;display:inline;overflow:visible" />
    <path
       d="m 211.15625,225.4375 -2,3 1.6875,1.125 2,-3 -1.6875,-1.125 z"
       id="path6298"
       style="font-size:medium;font-style:normal;font-variant:normal;font-weight:normal;font-stretch:normal;text-indent:0;text-align:start;text-decoration:none;line-height:normal;letter-spacing:normal;word-spacing:normal;text-transform:none;direction:ltr;block-progression:tb;writing-mode:lr-tb;text-anchor:start;color:#bebebe;fill:#bebebe;fill-opacity:1;fill-rule:nonzero;stroke:none;stroke-width:2;marker:none;visibility:visible;display:inline;overflow:visible;enable-background:accumulate;font-family:Bitstream Vera Sans;-inkscape-font-specification:Bitstream Vera Sans" />
    <path
       d="m 212.15625,228.4375 -2,3 1.6875,1.125 2,-3 -1.6875,-1.125 z"
       id="path6300"
       style="font-size:medium;font-style:normal;font-variant:normal;font-weight:normal;font-stretch:normal;text-indent:0;text-align:start;text-decoration:none;line-height:normal;letter-spacing:normal;word-spacing:normal;text-transform:none;direction:ltr;block-progression:tb;writing-mode:lr-tb;text-anchor:start;color:#bebebe;fill:#bebebe;fill-opacity:1;fill-rule:nonzero;stroke:none;stroke-width:2;marker:none;visibility:visible;display:inline;overflow:visible;enable-background:accumulate;font-family:Bitstream Vera Sans;-inkscape-font-specification:Bitstream Vera Sans" />
    <path
       d="m 210.0002,225 2,-2 -2,0 0,2 z"
       id="path6302"
       style="color:#bebebe;fill:#bebebe;fill-opacity:1;fill-rule:nonzero;stroke:none;stroke-width:2;marker:none;visibility:visible;display:inline;overflow:visible" />
  </g>
  <g
     transform="translate(-201.0002,-217)"
     id="layer10" />
  <g
     transform="translate(-201.0002,-217)"
     id="layer11" />
  <g
     transform="translate(-201.0002,-217)"
     id="layer12" />
  <g
     transform="translate(-201.0002,-217)"
     id="layer13" />
  <g
     transform="translate(-201.0002,-217)"
     id="layer14" />
  <g
     transform="translate(-201.0002,-217)"
     id="layer15" />
</svg>
