<?xml version="1.0" encoding="UTF-8" standalone="no"?>
<!-- Created with Inkscape (http://www.inkscape.org/) -->

<svg
   xmlns:dc="http://purl.org/dc/elements/1.1/"
   xmlns:cc="http://creativecommons.org/ns#"
   xmlns:rdf="http://www.w3.org/1999/02/22-rdf-syntax-ns#"
   xmlns:svg="http://www.w3.org/2000/svg"
   xmlns="http://www.w3.org/2000/svg"
   xmlns:inkscape="http://www.inkscape.org/namespaces/inkscape"
   version="1.1"
   width="16"
   height="16"
   id="svg7384">
  <title
     id="title9167">Moblin Icon Theme</title>
  <defs
     id="defs7386" />
  <metadata
     id="metadata7389">
    <rdf:RDF>
      <cc:Work
         rdf:about="">
        <dc:format>image/svg+xml</dc:format>
        <dc:type
           rdf:resource="http://purl.org/dc/dcmitype/StillImage" />
        <dc:title>Moblin Icon Theme</dc:title>
        <cc:license
           rdf:resource="http://creativecommons.org/licenses/by-sa/3.0/" />
        <dc:creator>
          <cc:Agent>
            <dc:title />
          </cc:Agent>
        </dc:creator>
        <dc:contributor>
          <cc:Agent>
            <dc:title>Jakub Steiner, 
Hylke Bons, 
Nick Richards, 
Darren Wilson, 
Claire Alexander</dc:title>
          </cc:Agent>
        </dc:contributor>
        <dc:source>http://www.moblin.org</dc:source>
      </cc:Work>
      <cc:License
         rdf:about="http://creativecommons.org/licenses/by-sa/3.0/">
        <cc:permits
           rdf:resource="http://creativecommons.org/ns#Reproduction" />
        <cc:permits
           rdf:resource="http://creativecommons.org/ns#Distribution" />
        <cc:requires
           rdf:resource="http://creativecommons.org/ns#Notice" />
        <cc:requires
           rdf:resource="http://creativecommons.org/ns#Attribution" />
        <cc:permits
           rdf:resource="http://creativecommons.org/ns#DerivativeWorks" />
        <cc:requires
           rdf:resource="http://creativecommons.org/ns#ShareAlike" />
      </cc:License>
    </rdf:RDF>
  </metadata>
  <g
     transform="translate(-60.99975,-489.00025)"
     id="layer3"
     style="display:inline">
    <rect
       width="8"
       height="5"
       x="494.00024"
       y="65.999748"
       transform="matrix(0,1,1,0,0,0)"
       id="rect2928"
       style="fill:#bebebe;fill-opacity:1;stroke:none" />
    <path
       d="m 66.46875,489.03125 c -0.490327,0 -0.796068,0.22845 -1.03125,0.46875 C 65.202318,489.7403 65,490.05851 65,490.53125 L 65,491 l -1,0 -1,0 0,1 0,12 0,1 1,0 9,0 1,0 0,-1 0,-12 0,-1 -1,0 -1,0 0,-0.34375 0,-0.0313 c -0.02393,-0.4306 -0.170236,-0.75229 -0.40625,-1.03125 -0.223734,-0.26444 -0.626687,-0.52931 -1.15625,-0.53125 l 0,-0.0313 -0.0625,0 -3.90625,0 z m 0.53125,2 3,0 0,0.96875 0,1 1,0 1,0 0,10 -7,0 0,-10 1,0 1,0 0,-1 0,-0.96875 z"
       inkscape:connector-curvature="0"
       id="path2930"
       style="font-size:medium;font-style:normal;font-variant:normal;font-weight:normal;font-stretch:normal;text-indent:0;text-align:start;text-decoration:none;line-height:normal;letter-spacing:normal;word-spacing:normal;text-transform:none;direction:ltr;block-progression:tb;writing-mode:lr-tb;text-anchor:start;color:#000000;fill:#bebebe;fill-opacity:1;stroke:none;stroke-width:2;marker:none;visibility:visible;display:inline;overflow:visible;enable-background:accumulate;font-family:Bitstream Vera Sans;-inkscape-font-specification:Bitstream Vera Sans" />
    <rect
       width="16"
       height="16"
       x="489.00024"
       y="-76.999748"
       transform="matrix(0,1,-1,0,0,0)"
       id="rect3704-3"
       style="color:#000000;fill:none;stroke:none;stroke-width:1;marker:none;visibility:visible;display:inline;overflow:visible;enable-background:accumulate" />
  </g>
  <g
     transform="translate(-60.99975,-489.00025)"
     id="layer2"
     style="display:inline" />
  <g
     transform="translate(-41,-460.00025)"
     id="layer4" />
  <g
     transform="translate(-60.99975,-489.00025)"
     id="layer1"
     style="display:inline" />
</svg>
