<?xml version="1.0" encoding="UTF-8" standalone="no"?>
<!-- Created with Inkscape (http://www.inkscape.org/) -->

<svg
   xmlns:svg="http://www.w3.org/2000/svg"
   xmlns="http://www.w3.org/2000/svg"
   version="1.1"
   width="16"
   height="16"
   id="svg7384">
  <title
     id="title9167">Gnome Symbolic Icon Theme</title>
  <defs
     id="defs7386" />
  <g
     transform="translate(-61.0002,-217)"
     id="layer9">
    <rect
       width="6"
       height="5"
       x="224"
       y="66.000198"
       transform="matrix(0,1,1,0,0,0)"
       id="rect3735"
       style="fill:#bebebe;fill-opacity:1;stroke:none" />
    <path
       d="m 66.46875,217.03125 c -0.490327,0 -0.796068,0.22845 -1.03125,0.46875 C 65.202318,217.7403 65,218.05851 65,218.53125 L 65,219 l -1,0 -1,0 0,1 0,12 0,1 1,0 9,0 1,0 0,-1 0,-12 0,-1 -1,0 -1,0 0,-0.34375 0,-0.0313 c -0.02393,-0.4306 -0.170236,-0.75229 -0.40625,-1.03125 -0.223734,-0.26444 -0.626687,-0.52931 -1.15625,-0.53125 l 0,-0.0313 -0.0625,0 -3.90625,0 z m 0.53125,2 3,0 0,0.96875 0,1 1,0 1,0 0,10 -7,0 0,-10 1,0 1,0 0,-1 0,-0.96875 z"
       id="path3737"
       style="font-size:medium;font-style:normal;font-variant:normal;font-weight:normal;font-stretch:normal;text-indent:0;text-align:start;text-decoration:none;line-height:normal;letter-spacing:normal;word-spacing:normal;text-transform:none;direction:ltr;block-progression:tb;writing-mode:lr-tb;text-anchor:start;color:#bebebe;fill:#bebebe;fill-opacity:1;stroke:none;stroke-width:2;marker:none;visibility:visible;display:inline;overflow:visible;enable-background:accumulate;font-family:Bitstream Vera Sans;-inkscape-font-specification:Bitstream Vera Sans" />
    <rect
       width="16"
       height="16"
       x="217"
       y="-77.000198"
       transform="matrix(0,1,-1,0,0,0)"
       id="rect3739"
       style="color:#bebebe;fill:none;stroke:none;stroke-width:1;marker:none;visibility:visible;display:inline;overflow:visible" />
    <rect
       width="6"
       height="5"
       x="224"
       y="66.000198"
       transform="matrix(0,1,1,0,0,0)"
       id="rect10870"
       style="fill:#bebebe;fill-opacity:1;stroke:none" />
  </g>
  <g
     transform="translate(-61.0002,-217)"
     id="layer10" />
  <g
     transform="translate(-61.0002,-217)"
     id="layer11" />
  <g
     transform="translate(-61.0002,-217)"
     id="layer12" />
  <g
     transform="translate(-61.0002,-217)"
     id="layer13" />
  <g
     transform="translate(-61.0002,-217)"
     id="layer14" />
  <g
     transform="translate(-61.0002,-217)"
     id="layer15" />
</svg>
