<?xml version="1.0" encoding="UTF-8" standalone="no"?>
<!-- Created with Inkscape (http://www.inkscape.org/) -->

<svg
   xmlns:dc="http://purl.org/dc/elements/1.1/"
   xmlns:cc="http://creativecommons.org/ns#"
   xmlns:rdf="http://www.w3.org/1999/02/22-rdf-syntax-ns#"
   xmlns:svg="http://www.w3.org/2000/svg"
   xmlns="http://www.w3.org/2000/svg"
   xmlns:inkscape="http://www.inkscape.org/namespaces/inkscape"
   version="1.1"
   width="16"
   height="16"
   id="svg7384">
  <title
     id="title9167">Moblin Icon Theme</title>
  <defs
     id="defs7386" />
  <metadata
     id="metadata7389">
    <rdf:RDF>
      <cc:Work
         rdf:about="">
        <dc:format>image/svg+xml</dc:format>
        <dc:type
           rdf:resource="http://purl.org/dc/dcmitype/StillImage" />
        <dc:title>Moblin Icon Theme</dc:title>
        <cc:license
           rdf:resource="http://creativecommons.org/licenses/by-sa/3.0/" />
        <dc:creator>
          <cc:Agent>
            <dc:title />
          </cc:Agent>
        </dc:creator>
        <dc:contributor>
          <cc:Agent>
            <dc:title>Jakub Steiner, 
Hylke Bons, 
Nick Richards, 
Darren Wilson, 
Claire Alexander</dc:title>
          </cc:Agent>
        </dc:contributor>
        <dc:source>http://www.moblin.org</dc:source>
      </cc:Work>
      <cc:License
         rdf:about="http://creativecommons.org/licenses/by-sa/3.0/">
        <cc:permits
           rdf:resource="http://creativecommons.org/ns#Reproduction" />
        <cc:permits
           rdf:resource="http://creativecommons.org/ns#Distribution" />
        <cc:requires
           rdf:resource="http://creativecommons.org/ns#Notice" />
        <cc:requires
           rdf:resource="http://creativecommons.org/ns#Attribution" />
        <cc:permits
           rdf:resource="http://creativecommons.org/ns#DerivativeWorks" />
        <cc:requires
           rdf:resource="http://creativecommons.org/ns#ShareAlike" />
      </cc:License>
    </rdf:RDF>
  </metadata>
  <g
     transform="translate(-181,-469)"
     id="layer3"
     style="display:inline">
    <rect
       width="16"
       height="16"
       x="181"
       y="469"
       id="rect12685-3"
       style="color:#000000;fill:none;stroke:none;stroke-width:1;marker:none;visibility:visible;display:inline;overflow:visible;enable-background:accumulate" />
    <rect
       width="16"
       height="16"
       x="181"
       y="469"
       id="rect12687-0"
       style="color:#000000;fill:none;stroke:none;stroke-width:1;marker:none;visibility:visible;display:inline;overflow:visible;enable-background:accumulate" />
    <path
       d="m 185.74975,469 c -0.9522,0 -1.75,0.7978 -1.75,1.75 l 0,4.5 c 0,0.26247 0.0485,0.52447 0.15625,0.75 l 10.6875,0 c 0.10776,-0.22553 0.15625,-0.48753 0.15625,-0.75 l 0,-4.5 c 0,-0.9522 -0.7978,-1.75 -1.75,-1.75 l -7.5,0 z m 0.25,2 7,0 0,4 -7,0 0,-4 z m 2,9.9375 0,1.0625 -5,0 0,2 13,0 0,-2 -5,0 0,-1.0625 -3,0 z"
       inkscape:connector-curvature="0"
       id="rect12689-2"
       style="font-size:medium;font-style:normal;font-variant:normal;font-weight:normal;font-stretch:normal;text-indent:0;text-align:start;text-decoration:none;line-height:normal;letter-spacing:normal;word-spacing:normal;text-transform:none;direction:ltr;block-progression:tb;writing-mode:lr-tb;text-anchor:start;opacity:0.25;color:#000000;fill:#bebebe;fill-opacity:1;fill-rule:nonzero;stroke:none;stroke-width:1.99999988;marker:none;visibility:visible;display:inline;overflow:visible;enable-background:accumulate;font-family:Bitstream Vera Sans;-inkscape-font-specification:Bitstream Vera Sans" />
    <path
       d="m 29,209 a 1,1 0 1 1 -2,0 1,1 0 1 1 2,0 z"
       transform="matrix(1.5,0,0,1.5,143.49975,165)"
       id="path4955-1"
       style="fill:#bebebe;fill-opacity:1;stroke:none;display:inline" />
    <path
       d="m 29,209 a 1,1 0 1 1 -2,0 1,1 0 1 1 2,0 z"
       transform="matrix(1.5,0,0,1.5,147.49975,165)"
       id="path4957-2"
       style="fill:#bebebe;fill-opacity:1;stroke:none;display:inline" />
    <path
       d="m 29,209 a 1,1 0 1 1 -2,0 1,1 0 1 1 2,0 z"
       transform="matrix(1.5,0,0,1.5,151.49975,165)"
       id="path4959-4"
       style="fill:#bebebe;fill-opacity:1;stroke:none;display:inline" />
  </g>
  <g
     transform="translate(-181,-469)"
     id="layer2"
     style="display:inline" />
  <g
     transform="translate(-161.00025,-440)"
     id="layer4" />
  <g
     transform="translate(-181,-469)"
     id="layer1"
     style="display:inline" />
</svg>
