<?xml version="1.0" encoding="UTF-8" standalone="no"?>
<!-- Created with Inkscape (http://www.inkscape.org/) -->

<svg
   xmlns:svg="http://www.w3.org/2000/svg"
   xmlns="http://www.w3.org/2000/svg"
   version="1.1"
   width="16"
   height="16"
   id="svg7384">
  <title
     id="title9167">Gnome Symbolic Icon Theme</title>
  <defs
     id="defs7386" />
  <g
     transform="translate(-201,-509)"
     id="layer3"
     style="display:inline">
    <g
       transform="translate(181,233)"
       id="g4053"
       style="fill:#bebebe;fill-opacity:1">
      <rect
         width="16"
         height="16"
         x="20"
         y="276"
         id="rect4055"
         style="color:#000000;fill:none;stroke:none;stroke-width:1;marker:none;visibility:visible;display:inline;overflow:visible;enable-background:accumulate" />
    </g>
    <path
       d="m 207.93725,509.0625 c -2.16176,0 -3.9375,1.77574 -3.9375,3.9375 l 0,3 -1,0 c -0.554,0 -1,0.446 -1,1 l 0,7 13,0 0,-7 c 0,-0.554 -0.446,-1 -1,-1 l -1,0 0,-3 c 0,-2.16176 -1.77574,-3.9375 -3.9375,-3.9375 l -1.125,0 z m 0,2 1.125,0 c 1.08836,0 1.9375,0.84914 1.9375,1.9375 l 0,3 -5,0 0,-3 c 0,-1.08836 0.84914,-1.9375 1.9375,-1.9375 z"
       id="rect4063"
       style="color:#000000;fill:#bebebe;fill-opacity:1;fill-rule:nonzero;stroke:none;stroke-width:2;marker:none;visibility:visible;display:inline;overflow:visible;enable-background:accumulate" />
  </g>
  <g
     transform="translate(-201,-509)"
     id="layer2"
     style="display:inline" />
  <g
     transform="translate(-181.00025,-480)"
     id="layer4"
     style="display:inline" />
  <g
     transform="translate(-181.00025,-237)"
     id="layer5" />
  <g
     transform="translate(-201,-509)"
     id="layer1"
     style="display:inline" />
</svg>
