<?xml version="1.0" encoding="UTF-8" standalone="no"?>
<!-- Created with Inkscape (http://www.inkscape.org/) -->

<svg
   xmlns:dc="http://purl.org/dc/elements/1.1/"
   xmlns:cc="http://creativecommons.org/ns#"
   xmlns:rdf="http://www.w3.org/1999/02/22-rdf-syntax-ns#"
   xmlns:svg="http://www.w3.org/2000/svg"
   xmlns="http://www.w3.org/2000/svg"
   xmlns:inkscape="http://www.inkscape.org/namespaces/inkscape"
   version="1.1"
   width="16.00025"
   height="16"
   id="svg7384">
  <title
     id="title9167">Moblin Icon Theme</title>
  <defs
     id="defs7386" />
  <metadata
     id="metadata7389">
    <rdf:RDF>
      <cc:Work
         rdf:about="">
        <dc:format>image/svg+xml</dc:format>
        <dc:type
           rdf:resource="http://purl.org/dc/dcmitype/StillImage" />
        <dc:title>Moblin Icon Theme</dc:title>
        <cc:license
           rdf:resource="http://creativecommons.org/licenses/by-sa/3.0/" />
        <dc:creator>
          <cc:Agent>
            <dc:title />
          </cc:Agent>
        </dc:creator>
        <dc:contributor>
          <cc:Agent>
            <dc:title>Jakub Steiner, 
Hylke Bons, 
Nick Richards, 
Darren Wilson, 
Claire Alexander</dc:title>
          </cc:Agent>
        </dc:contributor>
        <dc:source>http://www.moblin.org</dc:source>
      </cc:Work>
      <cc:License
         rdf:about="http://creativecommons.org/licenses/by-sa/3.0/">
        <cc:permits
           rdf:resource="http://creativecommons.org/ns#Reproduction" />
        <cc:permits
           rdf:resource="http://creativecommons.org/ns#Distribution" />
        <cc:requires
           rdf:resource="http://creativecommons.org/ns#Notice" />
        <cc:requires
           rdf:resource="http://creativecommons.org/ns#Attribution" />
        <cc:permits
           rdf:resource="http://creativecommons.org/ns#DerivativeWorks" />
        <cc:requires
           rdf:resource="http://creativecommons.org/ns#ShareAlike" />
      </cc:License>
    </rdf:RDF>
  </metadata>
  <g
     transform="translate(-220.99975,-469)"
     id="layer3"
     style="display:inline">
    <rect
       width="16"
       height="16"
       x="221"
       y="469"
       id="rect12671-7-0"
       style="color:#000000;fill:none;stroke:none;stroke-width:1;marker:none;visibility:visible;display:inline;overflow:visible;enable-background:accumulate" />
    <rect
       width="16"
       height="16"
       x="221"
       y="469"
       id="rect12673-9-7"
       style="color:#000000;fill:none;stroke:none;stroke-width:1;marker:none;visibility:visible;display:inline;overflow:visible;enable-background:accumulate" />
    <g
       transform="translate(201,252)"
       id="g4465">
      <path
         d="m 27.749746,218 c -0.9522,0 -1.75,0.7978 -1.75,1.75 l 0,0.25 2,0 0.25,0 5.75,0 0,4 -3,0 0,3.25 c 0,0.6591 -0.25164,1.26982 -0.65625,1.75 l 5.28125,0 -1.5,-3 0.125,0 c 0.9522,0 1.75,-0.7978 1.75,-1.75 l 0,-4.5 c 0,-0.9522 -0.7978,-1.75 -1.75,-1.75 l -6.5,0 z"
         inkscape:connector-curvature="0"
         id="rect12675-3-8-5-09"
         style="font-size:medium;font-style:normal;font-variant:normal;font-weight:normal;font-stretch:normal;text-indent:0;text-align:start;text-decoration:none;line-height:normal;letter-spacing:normal;word-spacing:normal;text-transform:none;direction:ltr;block-progression:tb;writing-mode:lr-tb;text-anchor:start;opacity:0.25;color:#000000;fill:#bebebe;fill-opacity:1;stroke:none;stroke-width:1.99999988;marker:none;visibility:visible;display:inline;overflow:visible;enable-background:accumulate;font-family:Andale Mono;-inkscape-font-specification:Andale Mono" />
      <path
         d="m 21.74975,221 c -0.9522,0 -1.75,0.7978 -1.75,1.75 l 0,4.5 c 0,0.9522 0.7978,1.75 1.75,1.75 l 0.125,0 -1.5,3 9.25,0 -1.5,-3 0.125,0 c 0.9522,0 1.75,-0.7978 1.75,-1.75 l 0,-4.5 c 0,-0.9522 -0.7978,-1.75 -1.75,-1.75 l -6.5,0 z m 0.25,2 6,0 0,4 -6,0 0,-4 z"
         inkscape:connector-curvature="0"
         id="rect12675-3-8-5-0"
         style="font-size:medium;font-style:normal;font-variant:normal;font-weight:normal;font-stretch:normal;text-indent:0;text-align:start;text-decoration:none;line-height:normal;letter-spacing:normal;word-spacing:normal;text-transform:none;direction:ltr;block-progression:tb;writing-mode:lr-tb;text-anchor:start;color:#000000;fill:#bebebe;fill-opacity:1;stroke:none;stroke-width:1.99999988;marker:none;visibility:visible;display:inline;overflow:visible;enable-background:accumulate;font-family:Andale Mono;-inkscape-font-specification:Andale Mono" />
    </g>
  </g>
  <g
     transform="translate(-220.99975,-469)"
     id="layer2"
     style="display:inline" />
  <g
     transform="translate(-201,-440)"
     id="layer4" />
  <g
     transform="translate(-220.99975,-469)"
     id="layer1"
     style="display:inline" />
</svg>
