<?xml version="1.0" encoding="UTF-8" standalone="no"?>
<!-- Created with Inkscape (http://www.inkscape.org/) -->

<svg
   xmlns:dc="http://purl.org/dc/elements/1.1/"
   xmlns:cc="http://creativecommons.org/ns#"
   xmlns:rdf="http://www.w3.org/1999/02/22-rdf-syntax-ns#"
   xmlns:svg="http://www.w3.org/2000/svg"
   xmlns="http://www.w3.org/2000/svg"
   xmlns:inkscape="http://www.inkscape.org/namespaces/inkscape"
   version="1.1"
   width="16.00025"
   height="16"
   id="svg7384">
  <title
     id="title9167">Moblin Icon Theme</title>
  <defs
     id="defs7386" />
  <metadata
     id="metadata7389">
    <rdf:RDF>
      <cc:Work
         rdf:about="">
        <dc:format>image/svg+xml</dc:format>
        <dc:type
           rdf:resource="http://purl.org/dc/dcmitype/StillImage" />
        <dc:title>Moblin Icon Theme</dc:title>
        <cc:license
           rdf:resource="http://creativecommons.org/licenses/by-sa/3.0/" />
        <dc:creator>
          <cc:Agent>
            <dc:title />
          </cc:Agent>
        </dc:creator>
        <dc:contributor>
          <cc:Agent>
            <dc:title>Jakub Steiner, 
Hylke Bons, 
Nick Richards, 
Darren Wilson, 
Claire Alexander</dc:title>
          </cc:Agent>
        </dc:contributor>
        <dc:source>http://www.moblin.org</dc:source>
      </cc:Work>
      <cc:License
         rdf:about="http://creativecommons.org/licenses/by-sa/3.0/">
        <cc:permits
           rdf:resource="http://creativecommons.org/ns#Reproduction" />
        <cc:permits
           rdf:resource="http://creativecommons.org/ns#Distribution" />
        <cc:requires
           rdf:resource="http://creativecommons.org/ns#Notice" />
        <cc:requires
           rdf:resource="http://creativecommons.org/ns#Attribution" />
        <cc:permits
           rdf:resource="http://creativecommons.org/ns#DerivativeWorks" />
        <cc:requires
           rdf:resource="http://creativecommons.org/ns#ShareAlike" />
      </cc:License>
    </rdf:RDF>
  </metadata>
  <g
     transform="translate(-80.99975,-509)"
     id="layer3"
     style="display:inline">
    <rect
       width="16"
       height="16"
       x="81"
       y="509"
       id="rect6109"
       style="color:#000000;fill:none;stroke:none;stroke-width:1;marker:none;visibility:visible;display:inline;overflow:visible;enable-background:accumulate" />
    <path
       d="m 83.06225,509 c -1.150728,0 -2.0625,0.91177 -2.0625,2.0625 l 0,11.875 c 0,1.15073 0.911772,2.0625 2.0625,2.0625 l 11.875,0 c 1.150728,0 2.0625,-0.91177 2.0625,-2.0625 l 0,-11.875 c 0,-1.15073 -0.911772,-2.0625 -2.0625,-2.0625 l -11.875,0 z m 4.0625,3.03125 3.78125,0 0.0625,0 c 0.0032,-10e-5 -0.0032,0.0314 0,0.0312 0.527306,-0.0204 1.072537,0.076 1.5,0.46875 0.414747,0.38112 0.59343,1.00751 0.5625,1.59375 l 0.03125,0 0,0.125 0,0.75 -2,0 0,-0.875 0,-0.0625 0,-0.0312 c -0.01759,-0.002 0.0033,-0.002 -0.03125,0 l -0.03125,0 -0.03125,0 -3.84375,0 c -0.02762,0 -0.02197,0.002 -0.03125,0 -0.0064,0.004 -0.02919,-0.003 -0.03125,0 -0.0073,0.0224 0.0068,0.0466 0,0.0625 l 0,0.0312 0,5.8125 c -0.02367,-0.0217 -0.0031,0.0605 0,0.0625 l 3.90625,0 c 0.0068,-0.0193 0.02945,-0.016 0.03125,0 8.77e-4,0.008 0,-0.0554 0,-0.0312 l 0,-1.9375 -2,0 0,-2 3,0 1,0 0,1 0,2.9375 c 0,0.56264 -0.227078,0.99952 -0.5625,1.375 -0.31592,0.35364 -0.851921,0.632 -1.46875,0.625 l 0,0.0312 -0.09375,0 -3.8125,0 c -0.624797,0 -0.994128,-0.24123 -1.34375,-0.5625 -0.331051,-0.30421 -0.64392,-0.78987 -0.625,-1.4375 6e-5,-0.002 -0.03131,0.002 -0.03125,0 l 0,-0.0937 0,-5.8125 0,-0.0937 0,-0.0625 c 0.06247,-0.43728 0.205355,-0.88912 0.5625,-1.28125 0.357145,-0.39213 0.946079,-0.625 1.5,-0.625 z"
       inkscape:connector-curvature="0"
       id="rect7011"
       style="color:#000000;fill:#bebebe;fill-opacity:1;stroke:none;stroke-width:2;marker:none;visibility:visible;display:inline;overflow:visible;enable-background:accumulate" />
  </g>
  <g
     transform="translate(-80.99975,-509)"
     id="layer2"
     style="display:inline" />
  <g
     transform="translate(-61,-480)"
     id="layer4" />
  <g
     transform="translate(-80.99975,-509)"
     id="layer1"
     style="display:inline" />
</svg>
