<?xml version="1.0" encoding="UTF-8" standalone="no"?>
<!-- Created with Inkscape (http://www.inkscape.org/) -->

<svg
   xmlns:svg="http://www.w3.org/2000/svg"
   xmlns="http://www.w3.org/2000/svg"
   version="1.1"
   width="16"
   height="16"
   id="svg7384">
  <title
     id="title9167">Gnome Symbolic Icon Theme</title>
  <defs
     id="defs7386" />
  <g
     transform="translate(-141.0002,-257)"
     id="layer9">
    <rect
       width="16"
       height="16"
       x="141.0002"
       y="257"
       id="rect4094-3"
       style="color:#bebebe;fill:none;stroke:none;stroke-width:1;marker:none;visibility:visible;display:inline;overflow:visible" />
    <g
       transform="translate(21.0002,-18.999999)"
       id="g4339"
       style="opacity:0.25;display:inline">
      <path
         d="m 120.99975,285 0,3 0,3 1,0 2,0 0,-3 -2,0 0,-3 -1,0 z"
         id="rect4162"
         style="color:#bebebe;fill:#bebebe;fill-opacity:1;fill-rule:nonzero;stroke:none;stroke-width:3;marker:none;visibility:visible;display:inline;overflow:visible" />
      <path
         d="m 132.99975,276 0,7 2,0 0,5 -2,0 0,3 3,0 0,-3 0,-5 0,-1 0,-6 -3,0 z"
         id="rect4162-9"
         style="color:#bebebe;fill:#bebebe;fill-opacity:1;fill-rule:nonzero;stroke:none;stroke-width:3;marker:none;visibility:visible;display:inline;overflow:visible" />
      <path
         d="m 124.99975,288 0,3 3,0 0,-3 -3,0 z"
         id="rect4162-92"
         style="color:#bebebe;fill:#bebebe;fill-opacity:1;fill-rule:nonzero;stroke:none;stroke-width:3;marker:none;visibility:visible;display:inline;overflow:visible" />
      <path
         d="m 128.99975,288 0,3 3,0 0,-3 -3,0 z"
         id="rect4162-92-3"
         style="color:#bebebe;fill:#bebebe;fill-opacity:1;fill-rule:nonzero;stroke:none;stroke-width:3;marker:none;visibility:visible;display:inline;overflow:visible" />
      <path
         d="m 124.99975,282 0,1 3,0 0,-1 -3,0 z"
         id="rect4162-92-5"
         style="color:#bebebe;fill:#bebebe;fill-opacity:1;fill-rule:nonzero;stroke:none;stroke-width:3;marker:none;visibility:visible;display:inline;overflow:visible" />
      <path
         d="m 128.99975,279 0,4 3,0 0,-4 -3,0 z"
         id="rect4162-92-3-0"
         style="color:#bebebe;fill:#bebebe;fill-opacity:1;fill-rule:nonzero;stroke:none;stroke-width:3;marker:none;visibility:visible;display:inline;overflow:visible" />
    </g>
    <path
       d="m 29,209 a 1,1 0 1 1 -2,0 1,1 0 1 1 2,0 z"
       transform="matrix(1.5,0,0,1.5,103.5,-46.999999)"
       id="path4955-3"
       style="fill:#bebebe;fill-opacity:1;stroke:none;display:inline" />
    <path
       d="m 29,209 a 1,1 0 1 1 -2,0 1,1 0 1 1 2,0 z"
       transform="matrix(1.5,0,0,1.5,107.5,-46.999999)"
       id="path4957-3"
       style="fill:#bebebe;fill-opacity:1;stroke:none;display:inline" />
    <path
       d="m 29,209 a 1,1 0 1 1 -2,0 1,1 0 1 1 2,0 z"
       transform="matrix(1.5,0,0,1.5,111.49995,-46.999999)"
       id="path4959-7"
       style="fill:#bebebe;fill-opacity:1;stroke:none;display:inline" />
  </g>
  <g
     transform="translate(-141.0002,-257)"
     id="layer10" />
  <g
     transform="translate(-141.0002,-257)"
     id="layer11" />
  <g
     transform="translate(-141.0002,-257)"
     id="layer12" />
  <g
     transform="translate(-141.0002,-257)"
     id="layer13" />
  <g
     transform="translate(-141.0002,-257)"
     id="layer14" />
  <g
     transform="translate(-141.0002,-257)"
     id="layer15" />
</svg>
