<?xml version="1.0" encoding="UTF-8" standalone="no"?>
<!-- Created with Inkscape (http://www.inkscape.org/) -->

<svg
   xmlns:svg="http://www.w3.org/2000/svg"
   xmlns="http://www.w3.org/2000/svg"
   version="1.1"
   width="16.000259"
   height="16"
   id="svg7384">
  <title
     id="title9167">Gnome Symbolic Icon Theme</title>
  <defs
     id="defs7386" />
  <g
     transform="translate(-280.99994,-197)"
     id="layer9">
    <rect
       width="16"
       height="16"
       x="281.00021"
       y="197"
       id="rect12671-7-9-8-0"
       style="color:#bebebe;fill:none;stroke:none;stroke-width:1;marker:none;visibility:visible;display:inline;overflow:visible" />
    <rect
       width="16"
       height="16"
       x="281.00021"
       y="197"
       id="rect12673-9-1-8-6"
       style="color:#bebebe;fill:none;stroke:none;stroke-width:1;marker:none;visibility:visible;display:inline;overflow:visible" />
    <g
       transform="translate(261.0002,-19.999999)"
       id="g4172-7-1"
       style="opacity:0.25;display:inline">
      <g
         id="g4166-5-5">
        <rect
           width="8.0000038"
           height="6"
           rx="0.75"
           ry="0.75"
           x="20.999744"
           y="222"
           id="rect12675-3-8-70-9"
           style="color:#bebebe;fill:none;stroke:#bebebe;stroke-width:2;stroke-linecap:butt;stroke-linejoin:miter;stroke-miterlimit:4;stroke-opacity:1;stroke-dasharray:none;stroke-dashoffset:0;marker:none;visibility:visible;display:inline;overflow:visible" />
        <path
           d="m 22.99975,229 -1,2 6,0 -1,-2 -4,0 z"
           id="path12677-2-5-2-4"
           style="color:#bebebe;fill:#bebebe;fill-opacity:1;fill-rule:nonzero;stroke:#bebebe;stroke-width:2;stroke-linecap:butt;stroke-linejoin:miter;stroke-miterlimit:4;stroke-opacity:1;stroke-dasharray:none;stroke-dashoffset:0;marker:none;visibility:visible;display:inline;overflow:visible" />
      </g>
      <path
         d="m 308.75,199 c -0.9522,0 -1.75,0.7978 -1.75,1.75 l 0,0.25 2,0 0.25,0 5.75,0 0,4 -3,0 0,3 3.625,0 -0.5,-1 0.125,0 c 0.9522,0 1.75,-0.7978 1.75,-1.75 l 0,-4.5 c 0,-0.9522 -0.7978,-1.75 -1.75,-1.75 l -6.5,0 z"
         transform="translate(-281.0002,18.999999)"
         id="rect12675-3-8-5-2-9"
         style="font-size:medium;font-style:normal;font-variant:normal;font-weight:normal;font-stretch:normal;text-indent:0pt;text-align:start;text-decoration:none;line-height:normal;letter-spacing:normal;word-spacing:normal;text-transform:none;direction:ltr;text-anchor:start;color:#bebebe;fill:#bebebe;fill-opacity:1;stroke:none;stroke-width:2;marker:none;visibility:visible;display:inline;overflow:visible;font-family:Andale Mono" />
    </g>
    <path
       d="m 291.99995,208 1.375,0 1.125,1.09375 1.09375,-1.09375 1.40625,0 0,1.46875 -1.09375,1.0625 1.09375,1.0625 0,1.40625 -1.4375,0 -1.0625,-1.0625 -1.0625,1.0625 -1.4375,0 0,-1.40625 1.0625,-1.0625 -1.0625,-1.0625 0,-1.46875 z"
       id="path3761-2-3-5-4-8-9-8-0"
       style="color:#bebebe;fill:#bebebe;fill-opacity:1;stroke:none;stroke-width:2;marker:none;visibility:visible;display:inline;overflow:visible" />
  </g>
  <g
     transform="translate(-280.99994,-197)"
     id="layer10" />
  <g
     transform="translate(-280.99994,-197)"
     id="layer11" />
  <g
     transform="translate(-280.99994,-197)"
     id="layer12" />
  <g
     transform="translate(-280.99994,-197)"
     id="layer13" />
  <g
     transform="translate(-280.99994,-197)"
     id="layer14" />
  <g
     transform="translate(-280.99994,-197)"
     id="layer15" />
</svg>
