<?xml version="1.0" encoding="UTF-8" standalone="no"?>
<!-- Created with Inkscape (http://www.inkscape.org/) -->

<svg
   xmlns:dc="http://purl.org/dc/elements/1.1/"
   xmlns:cc="http://creativecommons.org/ns#"
   xmlns:rdf="http://www.w3.org/1999/02/22-rdf-syntax-ns#"
   xmlns:svg="http://www.w3.org/2000/svg"
   xmlns="http://www.w3.org/2000/svg"
   xmlns:inkscape="http://www.inkscape.org/namespaces/inkscape"
   version="1.1"
   width="16.00025"
   height="16"
   id="svg7384">
  <title
     id="title9167">Moblin Icon Theme</title>
  <defs
     id="defs7386" />
  <metadata
     id="metadata7389">
    <rdf:RDF>
      <cc:Work
         rdf:about="">
        <dc:format>image/svg+xml</dc:format>
        <dc:type
           rdf:resource="http://purl.org/dc/dcmitype/StillImage" />
        <dc:title>Moblin Icon Theme</dc:title>
        <cc:license
           rdf:resource="http://creativecommons.org/licenses/by-sa/3.0/" />
        <dc:creator>
          <cc:Agent>
            <dc:title />
          </cc:Agent>
        </dc:creator>
        <dc:contributor>
          <cc:Agent>
            <dc:title>Jakub Steiner, 
Hylke Bons, 
Nick Richards, 
Darren Wilson, 
Claire Alexander</dc:title>
          </cc:Agent>
        </dc:contributor>
        <dc:source>http://www.moblin.org</dc:source>
      </cc:Work>
      <cc:License
         rdf:about="http://creativecommons.org/licenses/by-sa/3.0/">
        <cc:permits
           rdf:resource="http://creativecommons.org/ns#Reproduction" />
        <cc:permits
           rdf:resource="http://creativecommons.org/ns#Distribution" />
        <cc:requires
           rdf:resource="http://creativecommons.org/ns#Notice" />
        <cc:requires
           rdf:resource="http://creativecommons.org/ns#Attribution" />
        <cc:permits
           rdf:resource="http://creativecommons.org/ns#DerivativeWorks" />
        <cc:requires
           rdf:resource="http://creativecommons.org/ns#ShareAlike" />
      </cc:License>
    </rdf:RDF>
  </metadata>
  <g
     transform="translate(-180.99975,-509)"
     id="layer3"
     style="display:inline">
    <rect
       width="16"
       height="16"
       x="181"
       y="509"
       id="rect7115"
       style="color:#000000;fill:none;stroke:none;stroke-width:1;marker:none;visibility:visible;display:inline;overflow:visible;enable-background:accumulate" />
    <path
       d="m 183.06225,509 c -1.15073,0 -2.0625,0.91177 -2.0625,2.0625 l 0,11.875 c 0,1.15073 0.91177,2.0625 2.0625,2.0625 l 11.875,0 c 1.15073,0 2.0625,-0.91177 2.0625,-2.0625 l 0,-11.875 c 0,-1.15073 -0.91177,-2.0625 -2.0625,-2.0625 l -11.875,0 z m -0.0625,2 1,0 5,0 0,2 -4,0 0,1 1,0 c 0.75,0 1.0625,0.375 1.0625,1 l 1.9375,0 0,2 -5,0 -1,0 0,-1 0,-4 0,-1 z m 9.53125,0 c 1.35039,0 2.46875,1.11836 2.46875,2.46875 l 0,9.53125 -2,0 0,-4 -0.9375,0 0,4 -2,0 0,-9.53125 c 0,-1.35039 1.11836,-2.46875 2.46875,-2.46875 z m 0,2 c -0.27699,0 -0.46875,0.19176 -0.46875,0.46875 l 0,3.53125 0.9375,0 0,-3.53125 C 192.99975,513.19176 192.80799,513 192.531,513 z m -9.53125,5 2,0 0,1.5625 1,1 1,-1 0,-1.5625 2,0 0,2 0,0.40625 -0.28125,0.3125 -2,2 -0.71875,0.6875 -0.71875,-0.6875 -2,-2 -0.28125,-0.3125 0,-0.40625 0,-2 z"
       inkscape:connector-curvature="0"
       id="rect7117"
       style="color:#000000;fill:#bebebe;fill-opacity:1;stroke:none;stroke-width:2;marker:none;visibility:visible;display:inline;overflow:visible;enable-background:accumulate" />
  </g>
  <g
     transform="translate(-180.99975,-509)"
     id="layer2"
     style="display:inline" />
  <g
     transform="translate(-161,-480)"
     id="layer4" />
  <g
     transform="translate(-180.99975,-509)"
     id="layer1"
     style="display:inline" />
</svg>
