<?xml version="1.0" encoding="UTF-8" standalone="no"?>
<!-- Created with Inkscape (http://www.inkscape.org/) -->

<svg
   xmlns:dc="http://purl.org/dc/elements/1.1/"
   xmlns:cc="http://creativecommons.org/ns#"
   xmlns:rdf="http://www.w3.org/1999/02/22-rdf-syntax-ns#"
   xmlns:svg="http://www.w3.org/2000/svg"
   xmlns="http://www.w3.org/2000/svg"
   xmlns:inkscape="http://www.inkscape.org/namespaces/inkscape"
   version="1.1"
   width="16.00025"
   height="16"
   id="svg7384">
  <title
     id="title9167">Moblin Icon Theme</title>
  <defs
     id="defs7386" />
  <metadata
     id="metadata7389">
    <rdf:RDF>
      <cc:Work
         rdf:about="">
        <dc:format>image/svg+xml</dc:format>
        <dc:type
           rdf:resource="http://purl.org/dc/dcmitype/StillImage" />
        <dc:title>Moblin Icon Theme</dc:title>
        <cc:license
           rdf:resource="http://creativecommons.org/licenses/by-sa/3.0/" />
        <dc:creator>
          <cc:Agent>
            <dc:title />
          </cc:Agent>
        </dc:creator>
        <dc:contributor>
          <cc:Agent>
            <dc:title>Jakub Steiner, 
Hylke Bons, 
Nick Richards, 
Darren Wilson, 
Claire Alexander</dc:title>
          </cc:Agent>
        </dc:contributor>
        <dc:source>http://www.moblin.org</dc:source>
      </cc:Work>
      <cc:License
         rdf:about="http://creativecommons.org/licenses/by-sa/3.0/">
        <cc:permits
           rdf:resource="http://creativecommons.org/ns#Reproduction" />
        <cc:permits
           rdf:resource="http://creativecommons.org/ns#Distribution" />
        <cc:requires
           rdf:resource="http://creativecommons.org/ns#Notice" />
        <cc:requires
           rdf:resource="http://creativecommons.org/ns#Attribution" />
        <cc:permits
           rdf:resource="http://creativecommons.org/ns#DerivativeWorks" />
        <cc:requires
           rdf:resource="http://creativecommons.org/ns#ShareAlike" />
      </cc:License>
    </rdf:RDF>
  </metadata>
  <g
     transform="translate(-140.99975,-509)"
     id="layer3"
     style="display:inline">
    <rect
       width="16"
       height="16"
       x="141"
       y="509"
       id="rect7077"
       style="color:#000000;fill:none;stroke:none;stroke-width:1;marker:none;visibility:visible;display:inline;overflow:visible;enable-background:accumulate" />
    <path
       d="m 143.06225,509 c -1.15073,0 -2.0625,0.91177 -2.0625,2.0625 l 0,11.875 c 0,1.15073 0.91177,2.0625 2.0625,2.0625 l 11.875,0 c 1.15073,0 2.0625,-0.91177 2.0625,-2.0625 l 0,-11.875 c 0,-1.15073 -0.91177,-2.0625 -2.0625,-2.0625 l -11.875,0 z m 1.90625,3 c 0.56498,-0.0102 1.15556,0.21274 1.53125,0.625 0.35858,0.39349 0.48051,0.90181 0.46875,1.375 l 0.0313,0 0,0.0625 0,7.9375 -2,0 0,-8 c -0.0199,0.0239 -0.10103,0.12908 -0.28125,0.34375 l -1.53125,-1.28125 c 0.1228,-0.14627 0.27033,-0.37473 0.5625,-0.625 0.29217,-0.25027 0.75461,-0.4295 1.21875,-0.4375 z m 3.03125,0 2,0 0,2.46875 0,0.0312 c 7.1e-4,0.005 0.008,0.0208 0.0313,0.0625 0.0464,0.0834 0.13914,0.20375 0.15625,0.21875 l 0.0313,0.0312 0.0313,0 0.75,0.75 0.75,-0.75 0.0313,0 0.0313,-0.0312 c 0.0171,-0.015 0.10981,-0.13535 0.15625,-0.21875 0.0232,-0.0417 0.0305,-0.0574 0.0313,-0.0625 l 0,-0.0312 0,-2.46875 2,0 0,2.375 0,0.0937 -0.0313,0 c 0.009,0.43735 -0.0978,0.78916 -0.25,1.0625 -0.15411,0.27669 -0.35201,0.49394 -0.5625,0.6875 l 0.0313,0.0312 -0.0625,0.0312 -0.71875,0.71875 0.84375,0.84375 0.0625,0.0312 0.0313,0.0625 c 0.19333,0.24877 0.65625,0.77241 0.65625,1.5627 l 0,2.5 -2,0 0,-2.5 c 0,-0.017 -0.076,-0.14406 -0.15625,-0.25 l -0.0937,-0.0937 -0.75,-0.75 -0.75,0.75 -0.0937,0.0937 c -0.0803,0.10589 -0.15625,0.233 -0.15625,0.25 l 0,2.5 -2,0 0,-2.5 c 0,-0.79029 0.46292,-1.31408 0.65625,-1.5625 l 0.0313,-0.0625 0.0625,-0.0313 0.84375,-0.84375 -0.71875,-0.71875 c -0.0107,-0.009 -0.0207,-0.0223 -0.0313,-0.0312 -0.21839,-0.19726 -0.40413,-0.43442 -0.5625,-0.71875 -0.15225,-0.27334 -0.2588,-0.62515 -0.25,-1.0625 l -0.0313,0 0,-0.0937 0,-2.375 z"
       inkscape:connector-curvature="0"
       id="rect7079"
       style="color:#000000;fill:#bebebe;fill-opacity:1;stroke:none;stroke-width:2;marker:none;visibility:visible;display:inline;overflow:visible;enable-background:accumulate" />
  </g>
  <g
     transform="translate(-140.99975,-509)"
     id="layer2"
     style="display:inline" />
  <g
     transform="translate(-121,-480)"
     id="layer4" />
  <g
     transform="translate(-140.99975,-509)"
     id="layer1"
     style="display:inline" />
</svg>
