<?xml version="1.0" encoding="UTF-8" standalone="no"?>
<!-- Created with Inkscape (http://www.inkscape.org/) -->

<svg
   xmlns:dc="http://purl.org/dc/elements/1.1/"
   xmlns:cc="http://creativecommons.org/ns#"
   xmlns:rdf="http://www.w3.org/1999/02/22-rdf-syntax-ns#"
   xmlns:svg="http://www.w3.org/2000/svg"
   xmlns="http://www.w3.org/2000/svg"
   xmlns:inkscape="http://www.inkscape.org/namespaces/inkscape"
   version="1.1"
   width="18"
   height="18"
   id="svg7384">
  <title
     id="title9167">Gnome Symbolic Icon Theme</title>
  <defs
     id="defs7386" />
  <metadata
     id="metadata7389">
    <rdf:RDF>
      <cc:Work
         rdf:about="">
        <dc:format>image/svg+xml</dc:format>
        <dc:type
           rdf:resource="http://purl.org/dc/dcmitype/StillImage" />
        <dc:title>Gnome Symbolic Icon Theme</dc:title>
        <cc:license
           rdf:resource="http://creativecommons.org/licenses/by-sa/3.0/" />
        <dc:creator>
          <cc:Agent>
            <dc:title />
          </cc:Agent>
        </dc:creator>
        <dc:contributor>
          <cc:Agent>
            <dc:title>See the AUTHORS file here:

http://git.gnome.org/browse/gnome-icon-theme-symbolic/plain/AUTHORS</dc:title>
          </cc:Agent>
        </dc:contributor>
        <dc:source>http://www.gnome.org</dc:source>
      </cc:Work>
      <cc:License
         rdf:about="http://creativecommons.org/licenses/by-sa/3.0/">
        <cc:permits
           rdf:resource="http://creativecommons.org/ns#Reproduction" />
        <cc:permits
           rdf:resource="http://creativecommons.org/ns#Distribution" />
        <cc:requires
           rdf:resource="http://creativecommons.org/ns#Notice" />
        <cc:requires
           rdf:resource="http://creativecommons.org/ns#Attribution" />
        <cc:permits
           rdf:resource="http://creativecommons.org/ns#DerivativeWorks" />
        <cc:requires
           rdf:resource="http://creativecommons.org/ns#ShareAlike" />
      </cc:License>
    </rdf:RDF>
  </metadata>
  <g
     transform="translate(-219.99975,-508)"
     id="layer3"
     style="display:inline">
    <g
       transform="translate(201,233)"
       id="g11547"
       style="fill:#bebebe;fill-opacity:1">
      <rect
         width="16"
         height="16"
         x="20"
         y="276"
         id="rect11549"
         style="color:#000000;fill:none;stroke:none;stroke-width:1;marker:none;visibility:visible;display:inline;overflow:visible;enable-background:accumulate" />
    </g>
    <path
       d="m 228.99975,508 c -4.95872,0 -9,4.04128 -9,9 0,4.95872 4.04128,9 9,9 4.95872,0 9,-4.04128 9,-9 0,-4.95872 -4.04128,-9 -9,-9 z m 0,2 c 3.87784,0 7,3.12216 7,7 0,3.87784 -3.12216,7 -7,7 -3.87784,0 -7,-3.12216 -7,-7 0,-3.87784 3.12216,-7 7,-7 z"
       inkscape:connector-curvature="0"
       id="path12322"
       style="font-size:medium;font-style:normal;font-variant:normal;font-weight:normal;font-stretch:normal;text-indent:0;text-align:start;text-decoration:none;line-height:normal;letter-spacing:normal;word-spacing:normal;text-transform:none;direction:ltr;block-progression:tb;writing-mode:lr-tb;text-anchor:start;color:#000000;fill:#bdbdbd;fill-opacity:1;stroke:none;stroke-width:2;marker:none;visibility:visible;display:inline;overflow:visible;enable-background:accumulate;font-family:Bitstream Vera Sans;-inkscape-font-specification:Bitstream Vera Sans" />
    <path
       d="m 235.22503,513.9056 c -0.0814,0.0131 -0.15902,0.0454 -0.22528,0.0944 l -5.93768,0.0294 L 222.99975,514 c -0.15529,-0.11254 -0.37355,-0.14628 -0.54701,-0.0629 -0.17354,0.0839 -0.28728,0.28174 -0.28966,0.47036 -0.002,0.18858 0.11828,0.35118 0.28966,0.43899 l 4.54701,1.15355 0,3 -2,5 c -0.15995,0.23377 -0.11124,0.53399 0.12875,0.6898 0.23992,0.15584 0.58011,0.10837 0.74007,-0.12545 l 3.20263,-5.56571 3.0275,5.50304 c 0.14219,0.24242 0.45911,0.32665 0.70791,0.18815 0.24888,-0.13858 0.33533,-0.4474 0.19314,-0.68983 l -2,-5 0,-3 4.57905,-1.18492 c 0.19282,-0.13182 0.27664,-0.3812 0.19313,-0.59575 -0.0838,-0.21457 -0.31307,-0.33958 -0.54709,-0.31362 l 1e-5,0 z"
       inkscape:connector-curvature="0"
       id="path9895"
       style="fill:#bcbcbc;fill-opacity:1;fill-rule:evenodd;stroke:none;display:inline;enable-background:new" />
    <path
       d="m 228.99991,510.00019 c -1.09273,0 -2,0.90727 -2,2 0,1.09273 0.90727,2 2,2 1.09273,0 2,-0.90727 2,-2 0,-1.09273 -0.90727,-2 -2,-2 z"
       inkscape:connector-curvature="0"
       id="path13134"
       style="font-size:medium;font-style:normal;font-variant:normal;font-weight:normal;font-stretch:normal;text-indent:0;text-align:start;text-decoration:none;line-height:normal;letter-spacing:normal;word-spacing:normal;text-transform:none;direction:ltr;block-progression:tb;writing-mode:lr-tb;text-anchor:start;color:#000000;fill:#bdbdbd;fill-opacity:1;fill-rule:nonzero;stroke:none;stroke-width:2.00000167;marker:none;visibility:visible;display:inline;overflow:visible;enable-background:accumulate;font-family:Bitstream Vera Sans;-inkscape-font-specification:Bitstream Vera Sans" />
  </g>
  <g
     transform="translate(-219.99975,-508)"
     id="layer2"
     style="display:inline" />
  <g
     transform="translate(-200,-479)"
     id="layer4"
     style="display:inline" />
  <g
     transform="translate(-219.99975,-508)"
     id="layer1"
     style="display:inline" />
</svg>
