<?xml version="1.0" encoding="UTF-8" standalone="no"?>
<!-- Created with Inkscape (http://www.inkscape.org/) -->

<svg
   xmlns:svg="http://www.w3.org/2000/svg"
   xmlns="http://www.w3.org/2000/svg"
   version="1.1"
   width="16.0002"
   height="16"
   id="svg7384">
  <title
     id="title9167">Gnome Symbolic Icon Theme</title>
  <defs
     id="defs7386" />
  <g
     transform="translate(-181,-257)"
     id="layer9">
    <rect
       width="16"
       height="16"
       x="181.0002"
       y="257"
       id="rect16907"
       style="color:#bebebe;fill:none;stroke:none;stroke-width:1;marker:none;visibility:visible;display:inline;overflow:visible" />
    <path
       d="m 189,257 -2.28125,3.4375 -3.4375,-1.15625 1.15625,3.4375 L 181,265 l 3.4375,2.28125 -1.15625,3.4375 3.4375,-1.15625 L 189,273 l 2.28125,-3.4375 3.4375,1.15625 -1.15625,-3.4375 L 197,265 l -3.4375,-2.28125 1.15625,-3.4375 -3.4375,1.15625 z m -1,4.0625 2,0 0,4.96875 -2,0 z m 1.03125,5.6875 c 0.70761,0 1.28125,0.57364 1.28125,1.28125 0,0.70761 -0.57364,1.28125 -1.28125,1.28125 -0.70761,0 -1.28125,-0.57364 -1.28125,-1.28125 0,-0.70761 0.57364,-1.28125 1.28125,-1.28125 z"
       id="path16909"
       style="fill:#bebebe;fill-opacity:1;fill-rule:evenodd;stroke:none;display:inline;enable-background:new" />
  </g>
  <g
     transform="translate(-181,-257)"
     id="layer10" />
  <g
     transform="translate(-181,-257)"
     id="layer11" />
  <g
     transform="translate(-181,-257)"
     id="layer12" />
  <g
     transform="translate(-181,-257)"
     id="layer13" />
  <g
     transform="translate(-181,-257)"
     id="layer14" />
  <g
     transform="translate(-181,-257)"
     id="layer15" />
</svg>
