<?xml version="1.0" encoding="UTF-8" standalone="no"?>
<!-- Created with Inkscape (http://www.inkscape.org/) -->

<svg
   xmlns:svg="http://www.w3.org/2000/svg"
   xmlns="http://www.w3.org/2000/svg"
   version="1.1"
   width="16.0002"
   height="16"
   id="svg7384">
  <title
     id="title9167">Gnome Symbolic Icon Theme</title>
  <defs
     id="defs7386" />
  <g
     transform="translate(-161,-257)"
     id="layer9">
    <rect
       width="16"
       height="16"
       x="161.0002"
       y="257"
       id="rect16848"
       style="color:#bebebe;fill:none;stroke:none;stroke-width:1;marker:none;visibility:visible;display:inline;overflow:visible" />
    <path
       d="m 169,257 -2.28125,3.4375 -3.4375,-1.15625 1.15625,3.4375 L 161,265 l 3.4375,2.28125 -1.15625,3.4375 3.4375,-1.15625 L 169,273 l 2.28125,-3.4375 3.4375,1.15625 -1.15625,-3.4375 L 177,265 l -3.4375,-2.28125 1.15625,-3.4375 -3.4375,1.15625 L 169,257 z m 0,4 4.0625,4.03125 -2.03125,0 0,2.9375 -4.03125,0 0,-2.9375 -2.03125,0 L 169,261 z"
       id="rect7040"
       style="fill:#bebebe;fill-opacity:1;fill-rule:evenodd;stroke:none;display:inline;enable-background:new" />
  </g>
  <g
     transform="translate(-161,-257)"
     id="layer10" />
  <g
     transform="translate(-161,-257)"
     id="layer11" />
  <g
     transform="translate(-161,-257)"
     id="layer12" />
  <g
     transform="translate(-161,-257)"
     id="layer13" />
  <g
     transform="translate(-161,-257)"
     id="layer14" />
  <g
     transform="translate(-161,-257)"
     id="layer15" />
</svg>
