<?xml version="1.0" encoding="UTF-8" standalone="no"?>
<!-- Created with Inkscape (http://www.inkscape.org/) -->
<svg
   xmlns:dc="http://purl.org/dc/elements/1.1/"
   xmlns:cc="http://web.resource.org/cc/"
   xmlns:rdf="http://www.w3.org/1999/02/22-rdf-syntax-ns#"
   xmlns:svg="http://www.w3.org/2000/svg"
   xmlns="http://www.w3.org/2000/svg"
   xmlns:xlink="http://www.w3.org/1999/xlink"
   xmlns:sodipodi="http://sodipodi.sourceforge.net/DTD/sodipodi-0.dtd"
   xmlns:inkscape="http://www.inkscape.org/namespaces/inkscape"
   width="48px"
   height="48px"
   id="svg1306"
   sodipodi:version="0.32"
   inkscape:version="0.45+devel"
   sodipodi:docbase="/home/lapo/Icone/cvs/gnome-icon-theme/scalable/mimetypes"
   sodipodi:docname="image-missing.svg"
   inkscape:output_extension="org.inkscape.output.svg.inkscape">
  <defs
     id="defs1308">
    <linearGradient
       inkscape:collect="always"
       id="linearGradient5225">
      <stop
         style="stop-color:#ffffff;stop-opacity:1;"
         offset="0"
         id="stop5227" />
      <stop
         style="stop-color:#ffffff;stop-opacity:0;"
         offset="1"
         id="stop5229" />
    </linearGradient>
    <linearGradient
       inkscape:collect="always"
       id="linearGradient5203">
      <stop
         id="stop5207"
         offset="0"
         style="stop-color:#babdb6;stop-opacity:0;" />
      <stop
         id="stop5205"
         offset="1"
         style="stop-color:#babdb6;stop-opacity:1;" />
    </linearGradient>
    <linearGradient
       id="linearGradient4928">
      <stop
         id="stop4930"
         offset="0"
         style="stop-color:#fce94f;stop-opacity:1;" />
      <stop
         id="stop4932"
         offset="1"
         style="stop-color:#fce94f;stop-opacity:0;" />
    </linearGradient>
    <linearGradient
       inkscape:collect="always"
       id="linearGradient2807">
      <stop
         style="stop-color:#d3d7cf"
         offset="0"
         id="stop2809" />
      <stop
         style="stop-color:#eeeeec"
         offset="1"
         id="stop2811" />
    </linearGradient>
    <linearGradient
       inkscape:collect="always"
       xlink:href="#linearGradient2807"
       id="linearGradient2813"
       x1="34.197105"
       y1="33.725819"
       x2="17.160702"
       y2="17.396523"
       gradientUnits="userSpaceOnUse" />
    <radialGradient
       inkscape:collect="always"
       xlink:href="#linearGradient5203"
       id="radialGradient5209"
       cx="24.013514"
       cy="36.46973"
       fx="24.013514"
       fy="36.46973"
       r="18.013514"
       gradientTransform="matrix(1.569999,0,0,1.0894592,-13.687679,-7.2322827)"
       gradientUnits="userSpaceOnUse" />
    <linearGradient
       inkscape:collect="always"
       xlink:href="#linearGradient5225"
       id="linearGradient5231"
       x1="22.847242"
       y1="37"
       x2="22.847242"
       y2="18.874811"
       gradientUnits="userSpaceOnUse"
       gradientTransform="matrix(1.1208365,0,0,1.1553798,-2.923807,-3.7696769)" />
  </defs>
  <sodipodi:namedview
     id="base"
     pagecolor="#ffffff"
     bordercolor="#666666"
     borderopacity="0.21960784"
     inkscape:pageopacity="0.0"
     inkscape:pageshadow="2"
     inkscape:zoom="16"
     inkscape:cx="32.692176"
     inkscape:cy="22.021773"
     inkscape:current-layer="layer1"
     showgrid="false"
     inkscape:grid-bbox="true"
     inkscape:document-units="px"
     fill="#fcaf3e"
     stroke="#555753"
     showguides="true"
     inkscape:guide-bbox="true"
     inkscape:window-width="939"
     inkscape:window-height="985"
     inkscape:window-x="504"
     inkscape:window-y="101"
     inkscape:showpageshadow="false">
    <inkscape:grid
       type="xygrid"
       id="grid5233" />
  </sodipodi:namedview>
  <metadata
     id="metadata1311">
    <rdf:RDF>
      <cc:Work
         rdf:about="">
        <dc:format>image/svg+xml</dc:format>
        <dc:type
           rdf:resource="http://purl.org/dc/dcmitype/StillImage" />
        <dc:title>Missing Image</dc:title>
        <dc:creator>
          <cc:Agent>
            <dc:title>Jakub Steiner, Andreas Nilsson</dc:title>
          </cc:Agent>
        </dc:creator>
        <dc:source>http://www.gnome.org</dc:source>
        <dc:contributor>
          <cc:Agent>
            <dc:title />
          </cc:Agent>
        </dc:contributor>
        <cc:license
           rdf:resource="http://creativecommons.org/licenses/GPL/2.0/" />
      </cc:Work>
      <cc:License
         rdf:about="http://creativecommons.org/licenses/GPL/2.0/">
        <cc:permits
           rdf:resource="http://web.resource.org/cc/Reproduction" />
        <cc:permits
           rdf:resource="http://web.resource.org/cc/Distribution" />
        <cc:requires
           rdf:resource="http://web.resource.org/cc/Notice" />
        <cc:permits
           rdf:resource="http://web.resource.org/cc/DerivativeWorks" />
        <cc:requires
           rdf:resource="http://web.resource.org/cc/ShareAlike" />
        <cc:requires
           rdf:resource="http://web.resource.org/cc/SourceCode" />
      </cc:License>
    </rdf:RDF>
  </metadata>
  <g
     id="layer1"
     inkscape:label="Layer 1"
     inkscape:groupmode="layer">
    <g
       id="g3799"
       transform="matrix(1.055093,0,0,1,-167.2219,125.75)"
       inkscape:r_cx="true"
       inkscape:r_cy="true"
       style="opacity:0.58241763">
      <path
         inkscape:r_cy="true"
         inkscape:r_cx="true"
         id="path1196"
         style="opacity:0.04787233;fill-rule:evenodd;stroke-width:3pt"
         d="M 162.36286,-88.911137 C 160.1183,-88.911137 158.3113,-86.711005 158.3113,-83.978106 C 158.3113,-81.245207 160.1183,-79.045075 162.36286,-79.045075 L 199.63718,-79.045075 C 201.88174,-79.045075 203.68873,-81.245207 203.68873,-83.978106 C 203.68873,-86.711005 201.88174,-88.911137 199.63718,-88.911137 L 162.36286,-88.911137 z " />
      <path
         inkscape:r_cy="true"
         inkscape:r_cx="true"
         id="path1195"
         style="opacity:0.04787233;fill-rule:evenodd;stroke-width:3pt"
         d="M 162.36286,-88.582269 C 160.26794,-88.582269 158.58141,-86.528812 158.58141,-83.978106 C 158.58141,-81.4274 160.26794,-79.373944 162.36286,-79.373944 L 199.63718,-79.373944 C 201.7321,-79.373944 203.41863,-81.4274 203.41863,-83.978106 C 203.41863,-86.528812 201.7321,-88.582269 199.63718,-88.582269 L 162.36286,-88.582269 z " />
      <path
         inkscape:r_cy="true"
         inkscape:r_cx="true"
         id="path1194"
         style="opacity:0.04787233;fill-rule:evenodd;stroke-width:3pt"
         d="M 162.36286,-88.2534 C 160.41757,-88.2534 158.85151,-86.346619 158.85151,-83.978106 C 158.85151,-81.609593 160.41757,-79.702812 162.36286,-79.702812 L 199.63718,-79.702812 C 201.58246,-79.702812 203.14853,-81.609593 203.14853,-83.978106 C 203.14853,-86.346619 201.58246,-88.2534 199.63718,-88.2534 L 162.36286,-88.2534 z " />
      <path
         inkscape:r_cy="true"
         inkscape:r_cx="true"
         id="path1193"
         style="opacity:0.04787233;fill-rule:evenodd;stroke-width:3pt"
         d="M 162.36286,-87.924531 C 160.56721,-87.924531 159.12162,-86.164426 159.12162,-83.978106 C 159.12162,-81.791787 160.56721,-80.031681 162.36286,-80.031681 L 199.63718,-80.031681 C 201.43283,-80.031681 202.87842,-81.791787 202.87842,-83.978106 C 202.87842,-86.164426 201.43283,-87.924531 199.63718,-87.924531 L 162.36286,-87.924531 z " />
      <path
         inkscape:r_cy="true"
         inkscape:r_cx="true"
         id="path1192"
         style="opacity:0.04787233;fill-rule:evenodd;stroke-width:3pt"
         d="M 162.36309,-87.595662 C 160.71708,-87.595662 159.39195,-85.982232 159.39195,-83.978106 C 159.39195,-81.97398 160.71708,-80.36055 162.36309,-80.36055 L 199.63707,-80.36055 C 201.28308,-80.36055 202.60821,-81.97398 202.60821,-83.978106 C 202.60821,-85.982232 201.28308,-87.595662 199.63707,-87.595662 L 162.36309,-87.595662 z " />
      <path
         inkscape:r_cy="true"
         inkscape:r_cx="true"
         id="path1191"
         style="opacity:0.04787233;fill-rule:evenodd;stroke-width:3pt"
         d="M 162.36286,-87.266794 C 160.86649,-87.266794 159.66182,-85.800039 159.66182,-83.978106 C 159.66182,-82.156173 160.86649,-80.689419 162.36286,-80.689419 L 199.63718,-80.689419 C 201.13355,-80.689419 202.33821,-82.156173 202.33821,-83.978106 C 202.33821,-85.800039 201.13355,-87.266794 199.63718,-87.266794 L 162.36286,-87.266794 z " />
      <path
         inkscape:r_cy="true"
         inkscape:r_cx="true"
         id="path1190"
         style="opacity:0.04787233;fill-rule:evenodd;stroke-width:3pt"
         d="M 162.36286,-86.937925 C 161.01612,-86.937925 159.93193,-85.617846 159.93193,-83.978106 C 159.93193,-82.338367 161.01612,-81.018287 162.36286,-81.018287 L 199.63718,-81.018287 C 200.98391,-81.018287 202.06811,-82.338367 202.06811,-83.978106 C 202.06811,-85.617846 200.98391,-86.937925 199.63718,-86.937925 L 162.36286,-86.937925 z " />
      <path
         inkscape:r_cy="true"
         inkscape:r_cx="true"
         id="path1189"
         style="opacity:0.04787233;fill-rule:evenodd;stroke-width:3pt"
         d="M 162.36286,-86.609056 C 161.16576,-86.609056 160.20203,-85.435652 160.20203,-83.978106 C 160.20203,-82.52056 161.16576,-81.347156 162.36286,-81.347156 L 199.63718,-81.347156 C 200.83428,-81.347156 201.79801,-82.52056 201.79801,-83.978106 C 201.79801,-85.435652 200.83428,-86.609056 199.63718,-86.609056 L 162.36286,-86.609056 z " />
    </g>
    <rect
       style="opacity:1.0000000;fill:url(#linearGradient2813);fill-opacity:1.0;stroke:#8a8a8a;stroke-width:0.99999928;stroke-linecap:round;stroke-linejoin:round;stroke-miterlimit:4.0000000;stroke-dasharray:none;stroke-dashoffset:0.0000000;stroke-opacity:1"
       id="rect2073"
       width="42.997345"
       height="39.998409"
       x="2.5000000"
       y="3.4999995"
       rx="3.9374998"
       ry="3.9374998" />
    <rect
       style="opacity:1;fill:url(#radialGradient5209);fill-opacity:1;stroke:#888a85;stroke-width:0.99999994000000003;stroke-linecap:round;stroke-linejoin:round;stroke-miterlimit:4;stroke-dasharray:none;stroke-dashoffset:0;stroke-opacity:1"
       id="rect2063"
       width="35.027027"
       height="24.000000"
       x="6.5000000"
       y="11.500000"
       rx="0.43750024"
       ry="0.43750000" />
    <rect
       style="opacity:1.0000000;fill:none;fill-opacity:1.0000000;stroke:#ffffff;stroke-width:0.99999964;stroke-linecap:round;stroke-linejoin:round;stroke-miterlimit:4.0000000;stroke-dasharray:none;stroke-dashoffset:0.0000000;stroke-opacity:1.0000000"
       id="rect2077"
       width="41.042816"
       height="38.047207"
       x="3.4799283"
       y="4.4772015"
       rx="3.0803583"
       ry="3.0803583" />
    <path
       style="font-size:21.15750885px;font-style:normal;font-variant:normal;font-weight:normal;font-stretch:normal;text-align:start;line-height:125%;writing-mode:lr-tb;text-anchor:start;opacity:0.56024098;fill:#eeeeec;fill-opacity:1;stroke:none;stroke-width:1px;stroke-linecap:butt;stroke-linejoin:miter;stroke-opacity:1;font-family:Myriad"
       d="M 25.276448,27.464411 L 25.234133,26.914316 C 25.17066,25.835284 25.509181,24.904351 26.440111,23.804162 C 27.45567,22.619343 28.259656,21.561464 28.259656,20.143913 C 28.259656,18.535944 27.159463,17.012602 24.726352,17.012602 C 23.605006,17.012602 22.420183,17.351122 21.700829,17.880059 L 22.208609,19.212982 C 22.737546,18.789833 23.583848,18.5571 24.345517,18.5571 C 25.678439,18.5571 26.355481,19.297614 26.355481,20.376645 C 26.355481,21.307575 25.826542,22.13272 24.874455,23.254067 C 23.816581,24.523516 23.435744,25.771811 23.562689,26.914316 L 23.605004,27.464411 L 25.276448,27.464411 M 24.40899,31.738228 C 25.170659,31.738228 25.657283,31.166974 25.657283,30.426462 C 25.657283,29.643635 25.170659,29.093539 24.40899,29.093539 C 23.689635,29.093539 23.160697,29.643635 23.160697,30.426462 C 23.160697,31.166974 23.668478,31.738228 24.387832,31.738228 L 24.40899,31.738228"
       id="text5217" />
    <path
       style="font-size:21.15750885px;font-style:normal;font-variant:normal;font-weight:normal;font-stretch:normal;text-align:start;line-height:125%;writing-mode:lr-tb;text-anchor:start;fill:#888a85;fill-opacity:1;stroke:none;stroke-width:1px;stroke-linecap:butt;stroke-linejoin:miter;stroke-opacity:1;font-family:Myriad"
       d="M 25.276448,26.464411 L 25.234133,25.914316 C 25.17066,24.835284 25.509181,23.904351 26.440111,22.804162 C 27.45567,21.619343 28.259656,20.561464 28.259656,19.143913 C 28.259656,17.535944 27.159463,16.012602 24.726352,16.012602 C 23.605006,16.012602 22.420183,16.351122 21.700829,16.880059 L 22.208609,18.212982 C 22.737546,17.789833 23.583848,17.5571 24.345517,17.5571 C 25.678439,17.5571 26.355481,18.297614 26.355481,19.376645 C 26.355481,20.307575 25.826542,21.13272 24.874455,22.254067 C 23.816581,23.523516 23.435744,24.771811 23.562689,25.914316 L 23.605004,26.464411 L 25.276448,26.464411 M 24.40899,30.738228 C 25.170659,30.738228 25.657283,30.166974 25.657283,29.426462 C 25.657283,28.643635 25.170659,28.093539 24.40899,28.093539 C 23.689635,28.093539 23.160697,28.643635 23.160697,29.426462 C 23.160697,30.166974 23.668478,30.738228 24.387832,30.738228 L 24.40899,30.738228"
       id="text5213" />
    <rect
       ry="1.326663"
       rx="1.3408219"
       y="10.286867"
       x="5.4513559"
       height="26.189754"
       width="37.080128"
       id="rect5221"
       style="opacity:0.78313253;fill:none;fill-opacity:1;stroke:url(#linearGradient5231);stroke-width:1;stroke-linecap:butt;stroke-linejoin:miter;stroke-miterlimit:4;stroke-dasharray:none;stroke-dashoffset:0;stroke-opacity:1" />
  </g>
</svg>
