<?xml version="1.0" encoding="UTF-8"?>
<svg xmlns="http://www.w3.org/2000/svg" xmlns:xlink="http://www.w3.org/1999/xlink" width="16pt" height="16pt" viewBox="0 0 16 16" version="1.1">
<g id="surface2">
<path style=" stroke:none;fill-rule:nonzero;fill:rgb(74.509804%,74.509804%,74.509804%);fill-opacity:1;" d="M 2.8125 1 C 2.335938 1.089844 1.992188 1.511719 2 2 L 2 15 C 2 15.550781 2.449219 16 3 16 L 13 16 C 13.550781 16 14 15.550781 14 15 L 14 5.5625 C 14.007812 5.296875 13.90625 5.035156 13.71875 4.84375 L 10.15625 1.28125 C 9.964844 1.09375 9.703125 0.992188 9.4375 1 L 3 1 C 2.96875 1 2.9375 1 2.90625 1 C 2.875 1 2.84375 1 2.8125 1 Z M 4 3 L 9 3 L 9 6 L 12 6 L 12 14 L 4 14 Z M 4 3 "/>
</g>
</svg>
