<?xml version="1.0" encoding="UTF-8"?>
<svg xmlns="http://www.w3.org/2000/svg" xmlns:xlink="http://www.w3.org/1999/xlink" width="16pt" height="16pt" viewBox="0 0 16 16" version="1.1">
<g id="surface2">
<path style=" stroke:none;fill-rule:nonzero;fill:rgb(74.509804%,74.509804%,74.509804%);fill-opacity:1;" d="M 5.96875 7.96875 C 5.96875 9.609375 4.640625 10.9375 3 10.9375 C 1.359375 10.9375 0.03125 9.609375 0.03125 7.96875 C 0.03125 6.328125 1.359375 5 3 5 C 4.640625 5 5.96875 6.328125 5.96875 7.96875 Z M 5.96875 7.96875 "/>
<path style=" stroke:none;fill-rule:nonzero;fill:rgb(74.509804%,74.509804%,74.509804%);fill-opacity:1;" d="M 15.9375 12.96875 C 15.9375 14.609375 14.609375 15.9375 12.96875 15.9375 C 11.328125 15.9375 10 14.609375 10 12.96875 C 10 11.328125 11.328125 10 12.96875 10 C 14.609375 10 15.9375 11.328125 15.9375 12.96875 Z M 15.9375 12.96875 "/>
<path style=" stroke:none;fill-rule:nonzero;fill:rgb(74.509804%,74.509804%,74.509804%);fill-opacity:1;" d="M 15.9375 2.96875 C 15.9375 4.609375 14.609375 5.9375 12.96875 5.9375 C 11.328125 5.9375 10 4.609375 10 2.96875 C 10 1.328125 11.328125 0 12.96875 0 C 14.609375 0 15.9375 1.328125 15.9375 2.96875 Z M 15.9375 2.96875 "/>
<path style="fill:none;stroke-width:2;stroke-linecap:butt;stroke-linejoin:miter;stroke:rgb(74.509804%,74.509804%,74.509804%);stroke-opacity:1;stroke-miterlimit:4;" d="M 359.241485 966.221069 L 349.190704 971.1156 L 359.241485 976.1781 " transform="matrix(1,0,0,1,-346.190704,-963.1781)"/>
</g>
</svg>
