<?xml version="1.0" encoding="UTF-8"?>
<svg xmlns="http://www.w3.org/2000/svg" xmlns:xlink="http://www.w3.org/1999/xlink" width="16pt" height="16pt" viewBox="0 0 16 16" version="1.1">
<g id="surface2">
<path style=" stroke:none;fill-rule:nonzero;fill:rgb(74.509804%,74.509804%,74.509804%);fill-opacity:1;" d="M 0.53125 0 C 0.242188 0 0 0.242188 0 0.53125 L 0 11.46875 C 0 11.765625 0.234375 12 0.53125 12 L 6 12 L 6 14 L 0.46875 14 C 0.207031 14 0 14.207031 0 14.46875 L 0 15.53125 C 0 15.792969 0.207031 16 0.46875 16 C 4.824219 16 9.175781 16 13.53125 16 C 13.792969 16 14 15.792969 14 15.53125 L 14 14.46875 C 14 14.207031 13.792969 14 13.53125 14 L 8 14 L 8 12 L 13.46875 12 C 13.765625 12 14 11.765625 14 11.46875 L 14 5.53125 C 14 5.242188 13.757812 5 13.46875 5 L 3 5 L 3 9.5 C 3 9.777344 2.777344 10 2.5 10 C 2.222656 10 2 9.777344 2 9.5 L 2 4.5 C 2 4.222656 2.222656 4 2.5 4 L 12 4 L 12 2.59375 C 12 2.265625 11.734375 2 11.40625 2 L 5.03125 2 L 5.03125 0.53125 C 5.03125 0.242188 4.789062 0 4.5 0 Z M 0.53125 0 "/>
</g>
</svg>
