<?xml version="1.0" encoding="UTF-8"?>
<svg xmlns="http://www.w3.org/2000/svg" xmlns:xlink="http://www.w3.org/1999/xlink" width="16pt" height="16pt" viewBox="0 0 16 16" version="1.1">
<g id="surface2">
<path style=" stroke:none;fill-rule:nonzero;fill:rgb(74.509804%,74.509804%,74.509804%);fill-opacity:1;" d="M 13 5 L 13 14 L 4 14 L 4 5 L 2 5 L 2 14 C 2 16 4 16 4 16 L 13 16 C 15 16 15 14 15 14 L 15 5 Z M 9 6 L 8 6 L 8 12 L 9 12 Z M 7 6 L 6 6 L 6 12 L 7 12 Z M 11 6 L 10 6 L 10 12 L 11 12 Z M 12 0 C 14 0 14 2 14 2 L 16 2 L 16 4 L 1 4 L 1 2 L 3 2 C 3 0 5 0 5 0 Z M 12 1 L 5 1 L 5 2 L 12 2 Z M 12 1 "/>
</g>
</svg>
