<?xml version="1.0" encoding="UTF-8" standalone="no"?>
<!-- Created with Inkscape (http://www.inkscape.org/) -->
<svg
   xmlns:i="http://ns.adobe.com/AdobeIllustrator/10.0/"
   xmlns:dc="http://purl.org/dc/elements/1.1/"
   xmlns:cc="http://web.resource.org/cc/"
   xmlns:rdf="http://www.w3.org/1999/02/22-rdf-syntax-ns#"
   xmlns:svg="http://www.w3.org/2000/svg"
   xmlns="http://www.w3.org/2000/svg"
   xmlns:xlink="http://www.w3.org/1999/xlink"
   xmlns:sodipodi="http://sodipodi.sourceforge.net/DTD/sodipodi-0.dtd"
   xmlns:inkscape="http://www.inkscape.org/namespaces/inkscape"
   width="32"
   height="32"
   id="svg18269"
   sodipodi:version="0.32"
   inkscape:version="0.45"
   version="1.0"
   sodipodi:docbase="/home/dobey/Projects/gnome-icon-theme/32x32/mimetypes"
   sodipodi:docname="application-certificate.svg"
   inkscape:output_extension="org.inkscape.output.svg.inkscape">
  <sodipodi:namedview
     inkscape:window-height="809"
     inkscape:window-width="892"
     inkscape:pageshadow="2"
     inkscape:pageopacity="0.0"
     guidetolerance="10.0"
     gridtolerance="10.0"
     objecttolerance="10.0"
     borderopacity="1"
     bordercolor="#ebebeb"
     pagecolor="#ffffff"
     id="base"
     borderlayer="true"
     inkscape:showpageshadow="false"
     showgrid="false"
     width="32px"
     height="32px"
     inkscape:zoom="1"
     inkscape:cx="20.646103"
     inkscape:cy="10.537501"
     inkscape:window-x="2273"
     inkscape:window-y="284"
     inkscape:current-layer="layer1" />
  <defs
     id="defs18271">
    <linearGradient
       id="linearGradient5635">
      <stop
         style="stop-color:#ffffff;stop-opacity:1;"
         offset="0"
         id="stop5637" />
      <stop
         style="stop-color:#ededed;stop-opacity:1;"
         offset="1"
         id="stop5639" />
    </linearGradient>
    <linearGradient
       inkscape:collect="always"
       id="linearGradient5584">
      <stop
         style="stop-color:#ffffff;stop-opacity:1;"
         offset="0"
         id="stop5586" />
      <stop
         style="stop-color:#ffffff;stop-opacity:0;"
         offset="1"
         id="stop5588" />
    </linearGradient>
    <linearGradient
       id="linearGradient9590">
      <stop
         style="stop-color:#bfbfbf;stop-opacity:1;"
         offset="0"
         id="stop9592" />
      <stop
         style="stop-color:#f8f8f8;stop-opacity:1;"
         offset="1"
         id="stop9594" />
    </linearGradient>
    <linearGradient
       inkscape:collect="always"
       xlink:href="#linearGradient9590"
       id="linearGradient1356"
       gradientUnits="userSpaceOnUse"
       gradientTransform="matrix(5.7321156e-2,0,0,5.6306776e-2,44.698977,133.52568)"
       x1="-543.28723"
       y1="-2279.0508"
       x2="-500.66992"
       y2="-1917.6714" />
    <linearGradient
       inkscape:collect="always"
       xlink:href="#linearGradient5584"
       id="linearGradient5590"
       x1="25.980804"
       y1="2.4864533"
       x2="26.085234"
       y2="42.614761"
       gradientUnits="userSpaceOnUse"
       gradientTransform="matrix(0.6076817,0,0,0.5912564,1.3732148,2.5759896)" />
    <linearGradient
       inkscape:collect="always"
       xlink:href="#linearGradient5635"
       id="linearGradient5641"
       x1="22.5"
       y1="23"
       x2="20.75"
       y2="3.5"
       gradientUnits="userSpaceOnUse"
       gradientTransform="matrix(0.6091962,0,0,0.5714285,1.3448225,2.8571433)" />
  </defs>
  <sodipodi:namedview
     id="namedview9"
     pagecolor="#ffffff"
     bordercolor="#666666"
     borderopacity="1.0"
     inkscape:pageopacity="0.0"
     inkscape:pageshadow="2"
     inkscape:zoom="7.9999999"
     inkscape:cx="44.95067"
     inkscape:cy="11.390847"
     inkscape:document-units="px"
     inkscape:current-layer="layer1"
     inkscape:window-width="1264"
     inkscape:window-height="945"
     inkscape:window-x="6"
     inkscape:window-y="25"
     showgrid="false"
     stroke="#888a85"
     fill="#729fcf"
     showguides="true"
     inkscape:guide-bbox="true" />
  <metadata
     id="metadata18274">
    <rdf:RDF>
      <cc:Work
         rdf:about="">
        <dc:format>image/svg+xml</dc:format>
        <dc:type
           rdf:resource="http://purl.org/dc/dcmitype/StillImage" />
        <dc:title>Certificate</dc:title>
        <dc:date>May 2006</dc:date>
        <dc:creator>
          <cc:Agent>
            <dc:title>Máirín Duffy</dc:title>
          </cc:Agent>
        </dc:creator>
        <cc:license
           rdf:resource="http://creativecommons.org/licenses/GPL/2.0/" />
        <dc:contributor>
          <cc:Agent>
            <dc:title>Andreas Nilsson
Jakub Steiner</dc:title>
          </cc:Agent>
        </dc:contributor>
        <dc:subject>
          <rdf:Bag>
            <rdf:li>certificate</rdf:li>
          </rdf:Bag>
        </dc:subject>
        <dc:source>http://www.redhat.com</dc:source>
      </cc:Work>
      <cc:License
         rdf:about="http://creativecommons.org/licenses/GPL/2.0/">
        <cc:permits
           rdf:resource="http://web.resource.org/cc/Reproduction" />
        <cc:permits
           rdf:resource="http://web.resource.org/cc/Distribution" />
        <cc:requires
           rdf:resource="http://web.resource.org/cc/Notice" />
        <cc:permits
           rdf:resource="http://web.resource.org/cc/DerivativeWorks" />
        <cc:requires
           rdf:resource="http://web.resource.org/cc/ShareAlike" />
        <cc:requires
           rdf:resource="http://web.resource.org/cc/SourceCode" />
      </cc:License>
    </rdf:RDF>
  </metadata>
  <g
     inkscape:label="Layer 1"
     inkscape:groupmode="layer"
     id="layer1">
    <g
       id="g3799"
       transform="matrix(0.6719785,0,0,0.3595678,-105.38179,56.422061)"
       inkscape:r_cx="true"
       inkscape:r_cy="true"
       style="opacity:0.71428576">
      <path
         inkscape:r_cy="true"
         inkscape:r_cx="true"
         id="path1196"
         style="opacity:0.04787233;fill-rule:evenodd;stroke-width:3pt"
         d="M 162.36286,-88.911137 C 160.1183,-88.911137 158.3113,-86.711005 158.3113,-83.978106 C 158.3113,-81.245207 160.1183,-79.045075 162.36286,-79.045075 L 199.63718,-79.045075 C 201.88174,-79.045075 203.68873,-81.245207 203.68873,-83.978106 C 203.68873,-86.711005 201.88174,-88.911137 199.63718,-88.911137 L 162.36286,-88.911137 z " />
      <path
         inkscape:r_cy="true"
         inkscape:r_cx="true"
         id="path1195"
         style="opacity:0.04787233;fill-rule:evenodd;stroke-width:3pt"
         d="M 162.36286,-88.582269 C 160.26794,-88.582269 158.58141,-86.528812 158.58141,-83.978106 C 158.58141,-81.4274 160.26794,-79.373944 162.36286,-79.373944 L 199.63718,-79.373944 C 201.7321,-79.373944 203.41863,-81.4274 203.41863,-83.978106 C 203.41863,-86.528812 201.7321,-88.582269 199.63718,-88.582269 L 162.36286,-88.582269 z " />
      <path
         inkscape:r_cy="true"
         inkscape:r_cx="true"
         id="path1194"
         style="opacity:0.04787233;fill-rule:evenodd;stroke-width:3pt"
         d="M 162.36286,-88.2534 C 160.41757,-88.2534 158.85151,-86.346619 158.85151,-83.978106 C 158.85151,-81.609593 160.41757,-79.702812 162.36286,-79.702812 L 199.63718,-79.702812 C 201.58246,-79.702812 203.14853,-81.609593 203.14853,-83.978106 C 203.14853,-86.346619 201.58246,-88.2534 199.63718,-88.2534 L 162.36286,-88.2534 z " />
      <path
         inkscape:r_cy="true"
         inkscape:r_cx="true"
         id="path1193"
         style="opacity:0.04787233;fill-rule:evenodd;stroke-width:3pt"
         d="M 162.36286,-87.924531 C 160.56721,-87.924531 159.12162,-86.164426 159.12162,-83.978106 C 159.12162,-81.791787 160.56721,-80.031681 162.36286,-80.031681 L 199.63718,-80.031681 C 201.43283,-80.031681 202.87842,-81.791787 202.87842,-83.978106 C 202.87842,-86.164426 201.43283,-87.924531 199.63718,-87.924531 L 162.36286,-87.924531 z " />
      <path
         inkscape:r_cy="true"
         inkscape:r_cx="true"
         id="path1192"
         style="opacity:0.04787233;fill-rule:evenodd;stroke-width:3pt"
         d="M 162.36309,-87.595662 C 160.71708,-87.595662 159.39195,-85.982232 159.39195,-83.978106 C 159.39195,-81.97398 160.71708,-80.36055 162.36309,-80.36055 L 199.63707,-80.36055 C 201.28308,-80.36055 202.60821,-81.97398 202.60821,-83.978106 C 202.60821,-85.982232 201.28308,-87.595662 199.63707,-87.595662 L 162.36309,-87.595662 z " />
      <path
         inkscape:r_cy="true"
         inkscape:r_cx="true"
         id="path1191"
         style="opacity:0.04787233;fill-rule:evenodd;stroke-width:3pt"
         d="M 162.36286,-87.266794 C 160.86649,-87.266794 159.66182,-85.800039 159.66182,-83.978106 C 159.66182,-82.156173 160.86649,-80.689419 162.36286,-80.689419 L 199.63718,-80.689419 C 201.13355,-80.689419 202.33821,-82.156173 202.33821,-83.978106 C 202.33821,-85.800039 201.13355,-87.266794 199.63718,-87.266794 L 162.36286,-87.266794 z " />
      <path
         inkscape:r_cy="true"
         inkscape:r_cx="true"
         id="path1190"
         style="opacity:0.04787233;fill-rule:evenodd;stroke-width:3pt"
         d="M 162.36286,-86.937925 C 161.01612,-86.937925 159.93193,-85.617846 159.93193,-83.978106 C 159.93193,-82.338367 161.01612,-81.018287 162.36286,-81.018287 L 199.63718,-81.018287 C 200.98391,-81.018287 202.06811,-82.338367 202.06811,-83.978106 C 202.06811,-85.617846 200.98391,-86.937925 199.63718,-86.937925 L 162.36286,-86.937925 z " />
      <path
         inkscape:r_cy="true"
         inkscape:r_cx="true"
         id="path1189"
         style="opacity:0.04787233;fill-rule:evenodd;stroke-width:3pt"
         d="M 162.36286,-86.609056 C 161.16576,-86.609056 160.20203,-85.435652 160.20203,-83.978106 C 160.20203,-82.52056 161.16576,-81.347156 162.36286,-81.347156 L 199.63718,-81.347156 C 200.83428,-81.347156 201.79801,-82.52056 201.79801,-83.978106 C 201.79801,-85.435652 200.83428,-86.609056 199.63718,-86.609056 L 162.36286,-86.609056 z " />
    </g>
    <rect
       ry="0.46627071"
       y="5.5"
       x="2.4999998"
       height="21.025763"
       width="26.999998"
       id="rect1324"
       style="color:#000000;fill:url(#linearGradient1356);fill-opacity:1;fill-rule:nonzero;stroke:#888a85;stroke-width:0.9999997;stroke-linecap:square;stroke-linejoin:miter;marker:none;marker-start:none;marker-mid:none;marker-end:none;stroke-miterlimit:4;stroke-dasharray:none;stroke-dashoffset:0;stroke-opacity:1;visibility:visible;display:inline;overflow:visible"
       rx="0.48760113" />
    <rect
       ry="0"
       y="6.4192948"
       x="3.5000002"
       height="19.502375"
       width="24.915257"
       id="rect2231"
       style="opacity:0.69714284;color:#000000;fill:none;fill-opacity:1;fill-rule:nonzero;stroke:url(#linearGradient5590);stroke-width:1.00000036;stroke-linecap:butt;stroke-linejoin:miter;marker:none;marker-start:none;marker-mid:none;marker-end:none;stroke-miterlimit:4;stroke-dasharray:none;stroke-dashoffset:0;stroke-opacity:1;visibility:visible;display:inline;overflow:visible"
       rx="0" />
    <path
       style="opacity:0.3028571;color:#000000;fill:#555753;fill-opacity:1;fill-rule:evenodd;stroke:none;stroke-width:1;stroke-linecap:round;stroke-linejoin:round;marker:none;marker-start:none;marker-mid:none;marker-end:none;stroke-miterlimit:10;stroke-dasharray:none;stroke-dashoffset:0;stroke-opacity:1;visibility:visible;display:inline;overflow:visible;enable-background:accumulate"
       d="M 5.4789391,7 C 4.6605397,7 4,7.6220458 4,8.3927521 C 4,8.8483845 4.2412067,9.249522 4.599064,9.503428 C 4.2325199,9.760598 4,10.168507 4,10.631734 C 4,11.09496 4.2325199,11.502869 4.599064,11.760039 C 4.2325199,12.017209 4,12.425119 4,12.888345 C 4,13.351571 4.2325199,13.75948 4.599064,14.016651 C 4.2325199,14.27382 4,14.68173 4,15.144956 C 4,15.608182 4.2325199,16.016091 4.599064,16.273261 C 4.2325199,16.530432 4,16.938341 4,17.401567 C 4,17.864793 4.2325199,18.272702 4.599064,18.529873 C 4.2325199,18.787042 4,19.194952 4,19.658178 C 4,20.121403 4.2325199,20.529313 4.599064,20.786483 C 4.2325199,21.043654 4,21.451564 4,21.914789 C 4,22.230094 4.1136508,22.526061 4.299532,22.761019 C 4.1079716,22.995809 4,23.287436 4,23.607247 C 4,24.377954 4.6605399,25 5.4789391,25 C 5.9577363,25 6.3872278,24.785484 6.6583465,24.453477 C 6.9297723,24.780523 7.3444281,25 7.8190329,25 C 8.2936378,25 8.7082936,24.780522 8.9797193,24.453477 C 9.2508377,24.785485 9.6803295,25 10.159127,25 C 10.637924,25 11.067415,24.785484 11.338534,24.453477 C 11.609959,24.780523 12.024616,25 12.49922,25 C 12.976619,25 13.388678,24.783829 13.659906,24.453477 C 13.931025,24.785485 14.360516,25 14.839314,25 C 15.316713,25 15.728772,24.783829 16,24.453477 C 16.271228,24.783829 16.683287,25 17.160686,25 C 17.639484,25 18.068975,24.785484 18.340093,24.453477 C 18.611321,24.783829 19.02338,25 19.500779,25 C 19.979577,25 20.409068,24.785484 20.680187,24.453477 C 20.951415,24.783829 21.363474,25 21.840873,25 C 22.319671,25 22.749161,24.785484 23.02028,24.453477 C 23.291706,24.780523 23.706361,25 24.180967,25 C 24.655572,25 25.070227,24.780522 25.341653,24.453477 C 25.612772,24.785485 26.042263,25 26.521061,25 C 27.33946,25 28,24.377953 28,23.607247 C 28,23.27875 27.882825,22.981216 27.681747,22.743389 C 27.858003,22.512076 27.962558,22.221011 27.962558,21.914789 C 27.962558,21.451564 27.730038,21.043654 27.363493,20.786483 C 27.730038,20.529313 27.962558,20.121403 27.962558,19.658178 C 27.962558,19.194952 27.730038,18.787042 27.363493,18.529873 C 27.730038,18.272702 27.962558,17.864793 27.962558,17.401567 C 27.962558,16.938341 27.730038,16.530432 27.363493,16.273261 C 27.730038,16.016091 27.962558,15.608182 27.962558,15.144956 C 27.962558,14.68173 27.730038,14.27382 27.363493,14.016651 C 27.730038,13.75948 27.962558,13.351571 27.962558,12.888345 C 27.962558,12.425119 27.730038,12.017209 27.363493,11.760039 C 27.730038,11.502869 27.962558,11.09496 27.962558,10.631734 C 27.962558,10.17759 27.736571,9.779073 27.382214,9.521058 C 27.751791,9.268168 28,8.8570707 28,8.3927521 C 28,7.622046 27.33946,7 26.521061,7 C 26.042263,7 25.612772,7.2145151 25.341653,7.5465231 C 25.070227,7.2194767 24.655572,7 24.180967,7 C 23.706362,7 23.291706,7.2194767 23.02028,7.5465231 C 22.749161,7.2145151 22.319671,7 21.840873,7 C 21.363474,7 20.951415,7.2161714 20.680187,7.5465231 C 20.409069,7.2145151 19.979577,7 19.500779,7 C 19.02338,7 18.611321,7.2161714 18.340093,7.5465231 C 18.068975,7.2145151 17.639484,7 17.160686,7 C 16.683287,7 16.271228,7.2161714 16,7.5465231 C 15.728772,7.2161714 15.316713,7 14.839314,7 C 14.360516,7 13.931025,7.2145151 13.659906,7.5465231 C 13.388678,7.2161714 12.976619,7 12.49922,7 C 12.024616,7 11.609959,7.2194767 11.338534,7.5465231 C 11.067415,7.2145151 10.637924,7 10.159127,7 C 9.6803295,7 9.2508377,7.2145151 8.9797193,7.5465231 C 8.7082936,7.2194767 8.2936372,7 7.8190329,7 C 7.3444281,7 6.9297723,7.2194767 6.6583465,7.5465231 C 6.3872278,7.2145151 5.9577364,7 5.4789391,7 z M 6.6583465,9.238981 C 6.9297723,9.566028 7.3444281,9.785504 7.8190329,9.785504 C 8.2936378,9.785504 8.7082936,9.566028 8.9797193,9.238981 C 9.2508377,9.570989 9.6803295,9.785504 10.159127,9.785504 C 10.637924,9.785504 11.067415,9.570989 11.338534,9.238981 C 11.609959,9.566028 12.024616,9.785504 12.49922,9.785504 C 12.976619,9.785504 13.388678,9.569333 13.659906,9.238981 C 13.931025,9.570989 14.360516,9.785504 14.839314,9.785504 C 15.316713,9.785504 15.728772,9.569333 16,9.238981 C 16.271228,9.569333 16.683287,9.785504 17.160686,9.785504 C 17.639484,9.785504 18.068975,9.570989 18.340093,9.238981 C 18.611321,9.569333 19.02338,9.785504 19.500779,9.785504 C 19.979577,9.785504 20.409068,9.570989 20.680187,9.238981 C 20.951415,9.569333 21.363474,9.785504 21.840873,9.785504 C 22.319671,9.785504 22.749161,9.570989 23.02028,9.238981 C 23.291706,9.566028 23.706361,9.785504 24.180967,9.785504 C 24.655572,9.785504 25.070227,9.566028 25.341653,9.238981 C 25.417776,9.332199 25.505067,9.413252 25.603744,9.485798 C 25.217817,9.741002 24.967238,10.154234 24.967238,10.631734 C 24.967238,11.09496 25.199758,11.502869 25.566302,11.760039 C 25.199758,12.017209 24.967238,12.425119 24.967238,12.888345 C 24.967238,13.351571 25.199758,13.75948 25.566302,14.016651 C 25.199758,14.27382 24.967238,14.68173 24.967238,15.144956 C 24.967238,15.608182 25.199758,16.016091 25.566302,16.273261 C 25.199758,16.530432 24.967238,16.938341 24.967238,17.401567 C 24.967238,17.864793 25.199758,18.272702 25.566302,18.529873 C 25.199758,18.787042 24.967238,19.194952 24.967238,19.658178 C 24.967238,20.121403 25.199758,20.529313 25.566302,20.786483 C 25.199758,21.043654 24.967238,21.451564 24.967238,21.914789 C 24.967238,22.13637 25.02018,22.3452 25.117004,22.531832 C 24.863627,22.33213 24.53692,22.214496 24.180967,22.214496 C 23.706362,22.214497 23.291706,22.433972 23.02028,22.761019 C 22.749161,22.429011 22.319671,22.214496 21.840873,22.214496 C 21.363474,22.214497 20.951415,22.430667 20.680187,22.761019 C 20.409069,22.429011 19.979577,22.214496 19.500779,22.214496 C 19.02338,22.214497 18.611321,22.430667 18.340093,22.761019 C 18.068975,22.429011 17.639484,22.214496 17.160686,22.214496 C 16.683287,22.214497 16.271228,22.430667 16,22.761019 C 15.728772,22.430667 15.316713,22.214496 14.839314,22.214496 C 14.360516,22.214497 13.931025,22.42901 13.659906,22.761019 C 13.388678,22.430667 12.976619,22.214496 12.49922,22.214496 C 12.024616,22.214497 11.609959,22.433972 11.338534,22.761019 C 11.067415,22.429011 10.637924,22.214496 10.159127,22.214496 C 9.6803295,22.214497 9.2508377,22.42901 8.9797193,22.761019 C 8.7082936,22.433973 8.2936372,22.214496 7.8190329,22.214496 C 7.4012895,22.214497 7.0387336,22.391478 6.770671,22.65524 C 6.9108084,22.440638 6.99532,22.185029 6.99532,21.914789 C 6.99532,21.451564 6.7628,21.043654 6.3962558,20.786483 C 6.7628,20.529313 6.99532,20.121403 6.99532,19.658178 C 6.99532,19.194952 6.7628,18.787042 6.3962558,18.529873 C 6.7628,18.272702 6.99532,17.864793 6.99532,17.401567 C 6.99532,16.938341 6.7628,16.530432 6.3962558,16.273261 C 6.7628,16.016091 6.99532,15.608182 6.99532,15.144956 C 6.99532,14.68173 6.7628,14.27382 6.3962558,14.016651 C 6.7628,13.75948 6.99532,13.351571 6.99532,12.888345 C 6.99532,12.425119 6.7628,12.017209 6.3962558,11.760039 C 6.7628,11.502869 6.99532,11.09496 6.99532,10.631734 C 6.99532,10.163318 6.7510954,9.759975 6.3775351,9.503428 C 6.4844329,9.427594 6.5770105,9.338584 6.6583465,9.238981 z "
       id="path5613" />
    <rect
       style="opacity:1;color:#000000;fill:url(#linearGradient5641);fill-opacity:1;fill-rule:evenodd;stroke:none;stroke-width:0.2;stroke-linecap:round;stroke-linejoin:round;marker:none;marker-start:none;marker-mid:none;marker-end:none;stroke-miterlimit:4;stroke-dasharray:none;stroke-dashoffset:0;stroke-opacity:1;visibility:visible;display:inline;overflow:visible;enable-background:accumulate"
       id="rect5580"
       width="21.931065"
       height="16"
       x="5"
       y="8"
       rx="0.47290841"
       ry="0.44359034" />
    <g
       id="g1330"
       transform="matrix(0.2938529,4.2503652e-2,-5.3655362e-3,0.2888667,-130.90498,-24.960726)"
       style="stroke:#204a87;stroke-width:0.68554133;stroke-miterlimit:4;stroke-dasharray:none">
      <path
         style="fill:none;stroke:#204a87;stroke-width:0.68554133;stroke-linecap:round;stroke-linejoin:round;stroke-miterlimit:4;stroke-dasharray:none"
         id="path1332"
         d="M 474.25,81.922 C 474.28,82.283 474.334,82.875 474.334,82.875 C 474.334,82.875 474.403,81.798 473.923,81.718 C 472.88,81.553 472.334,83.058 471.98,84.151 C 471.486,85.66 471.888,87.31 473.359,87.539 C 475.113,87.817 477.832,85.159 477.832,85.159 C 477.832,85.159 477.489,85.437 477.43,85.66 C 477.337,85.947 477.147,86.369 477.171,86.418 C 477.193,86.455 477.452,86.458 477.627,86.489 C 478.122,86.565 478.687,86.224 478.847,85.714 C 478.985,85.297 479.19,84.681 479.19,84.681 C 479.19,84.681 478.976,84.98 478.915,85.167 C 478.779,85.576 479.205,85.793 479.602,85.857 C 480.273,85.966 481.204,84.836 481.255,84.84 C 481.324,84.847 481.538,85.409 481.888,85.463 C 482.399,85.548 483.032,84.888 483.244,84.901 C 483.306,84.905 483.366,85.174 483.534,85.204 C 484.113,85.296 485.02,84.547 485.072,84.585 C 485.232,84.71 485.333,86.061 485.316,87.117"
         stroke-miterlimit="3.8637"
         i:knockout="Off" />
      <path
         style="fill:none;stroke:#204a87;stroke-width:0.68554133;stroke-linecap:round;stroke-linejoin:round;stroke-miterlimit:4;stroke-dasharray:none"
         id="path1334"
         d="M 487.965,80.738 C 487.616,82.026 487.661,82.795 487.371,84.087"
         stroke-miterlimit="3.8637"
         i:knockout="Off" />
      <path
         style="fill:none;stroke:#204a87;stroke-width:0.68554133;stroke-linecap:round;stroke-linejoin:round;stroke-miterlimit:4;stroke-dasharray:none"
         id="path1336"
         d="M 487.707,81.308 C 487.556,81.515 487.472,81.62 487.311,81.826 C 488.401,81.436 490.032,80.784 490.093,80.843 C 490.099,80.857 490.177,81.052 490.13,81.2 C 489.857,82.038 488.987,83.221 488.987,83.221 C 489.055,83.304 492.049,82.234 492.316,82.456 C 492.37,82.503 492.416,82.885 492.333,83.153 C 492.18,83.625 491.937,83.843 491.639,84.256 C 491.746,84.233 491.799,84.232 491.907,84.212"
         stroke-miterlimit="3.8637"
         i:knockout="Off" />
      <path
         style="fill:none;stroke:#204a87;stroke-width:0.68554133;stroke-linecap:round;stroke-linejoin:round;stroke-miterlimit:4;stroke-dasharray:none"
         id="path1338"
         d="M 493.933,81.351 C 493.834,81.468 493.796,81.523 493.698,81.639 C 494.512,81.553 494.946,81.075 495.724,80.964 C 495.472,81.739 495.35,82.13 495.106,82.905 C 495.938,82.002 497.183,80.74 497.417,80.802 C 497.592,80.842 497.378,82.657 497.477,82.676 C 497.905,82.751 501.106,79.522 501.357,79.613 C 501.585,79.697 500.732,82.204 501.798,82.37 C 502.666,82.516 503.917,80.981 503.917,80.981 C 503.917,80.981 503.513,81.379 503.284,81.66 C 503.397,81.713 503.451,81.743 503.574,81.795 C 504.35,81.514 504.816,81.175 505.6,80.909 C 505.531,81.11 505.508,81.199 505.44,81.398 C 505.553,81.43 505.607,81.516 505.752,81.543 C 506.514,81.653 507.794,80.825 507.794,80.825 C 507.824,80.842 507.619,81.491 507.9,81.535 C 509.28,81.758 510.221,81.042 511.642,80.483"
         stroke-miterlimit="3.8637"
         i:knockout="Off" />
    </g>
    <path
       style="fill:#3465a4;fill-rule:evenodd;stroke:#204a87;stroke-width:1;stroke-linecap:butt;stroke-linejoin:miter;stroke-miterlimit:10;stroke-dasharray:none;stroke-opacity:1"
       d="M 23.037173,20.802678 C 23.078458,22.116322 23.486878,23.338544 24.086514,24.513151 L 24.558718,22.579524 L 26.5,22.997605 C 25.807089,22.566135 24.401799,21.265485 23.824179,20.332336 L 23.037173,20.802678 z "
       id="path5582"
       sodipodi:nodetypes="cccccc" />
    <g
       id="g1340"
       transform="matrix(4.8900062e-2,0,0,4.8981435e-2,66.65971,118.36697)">
      <path
         sodipodi:type="star"
         style="color:#000000;fill:#f7f999;fill-opacity:1;fill-rule:nonzero;stroke:#fdcd12;stroke-width:82.52974701;stroke-linecap:square;stroke-linejoin:miter;marker:none;marker-start:none;marker-mid:none;marker-end:none;stroke-miterlimit:4;stroke-dasharray:none;stroke-dashoffset:0;stroke-opacity:1;visibility:visible;display:inline;overflow:visible"
         id="path1342"
         sodipodi:sides="9"
         sodipodi:cx="-2073.0457"
         sodipodi:cy="-1596.6304"
         sodipodi:r1="209.7282"
         sodipodi:r2="180.36626"
         sodipodi:arg1="0.84055688"
         sodipodi:arg2="1.1896227"
         inkscape:flatsided="false"
         inkscape:rounded="0.38"
         inkscape:randomized="0"
         d="M -1933.1469,-1440.3798 C -1953.9984,-1421.7104 -1979.9683,-1439.6211 -2005.9476,-1429.2092 C -2031.9269,-1418.7974 -2038.3393,-1387.9088 -2066.3129,-1387.0103 C -2094.2865,-1386.1118 -2102.6679,-1416.5253 -2129.2618,-1425.2485 C -2155.8557,-1433.9718 -2180.6227,-1414.4315 -2202.6293,-1431.7243 C -2224.6358,-1449.0172 -2211.5069,-1477.7027 -2226.2718,-1501.4793 C -2241.0367,-1525.2559 -2272.5696,-1526.2072 -2278.312,-1553.5998 C -2284.0544,-1580.9924 -2255.5584,-1594.5277 -2251.5856,-1622.2323 C -2247.6129,-1649.937 -2271.1571,-1670.9346 -2257.9484,-1695.6097 C -2244.7397,-1720.2848 -2214.2101,-1712.3365 -2193.3586,-1731.0059 C -2172.5071,-1749.6752 -2177.046,-1780.8943 -2151.0667,-1791.3061 C -2125.0874,-1801.7179 -2106.8094,-1776.0052 -2078.8358,-1776.9037 C -2050.8622,-1777.8021 -2034.272,-1804.6348 -2007.6781,-1795.9116 C -1981.0842,-1787.1883 -1983.6103,-1755.7424 -1961.6037,-1738.4496 C -1939.5972,-1721.1568 -1909.6406,-1731.0478 -1894.8757,-1707.2711 C -1880.1108,-1683.4945 -1902.259,-1661.0293 -1896.5166,-1633.6367 C -1890.7742,-1606.2441 -1861.4683,-1594.5653 -1865.441,-1566.8607 C -1869.4138,-1539.156 -1900.8206,-1536.1833 -1914.0293,-1511.5082 C -1927.238,-1486.8331 -1912.2954,-1459.0492 -1933.1469,-1440.3798 z "
         transform="matrix(0.236918,0,0,0.236918,-411.8839,-1633.833)" />
      <g
         transform="matrix(0.89577,0,0,0.89577,-95.73024,-211.15)"
         id="g1344">
        <path
           transform="matrix(1.162924,0,0,1.162924,226.5602,-739.689)"
           d="M -941.13729 -1093.3582 A 29.97831 29.069878 0 1 1  -1001.0939,-1093.3582 A 29.97831 29.069878 0 1 1  -941.13729 -1093.3582 z"
           sodipodi:ry="29.069878"
           sodipodi:rx="29.97831"
           sodipodi:cy="-1093.3582"
           sodipodi:cx="-971.1156"
           id="path1346"
           style="color:#000000;fill:#fdce15;fill-opacity:1;fill-rule:nonzero;stroke:none;stroke-width:6.25;stroke-linecap:round;stroke-linejoin:round;marker:none;marker-start:none;marker-mid:none;marker-end:none;stroke-miterlimit:4;stroke-dasharray:none;stroke-dashoffset:0;stroke-opacity:1;visibility:visible;display:inline;overflow:visible"
           sodipodi:type="arc" />
        <path
           sodipodi:nodetypes="cccccc"
           id="path1348"
           d="M -888.9211,-2029.5723 C -890.083,-2030.3268 -891.3477,-2030.9553 -892.7095,-2031.4461 C -896.1994,-2033.0267 -900.0341,-2033.7844 -903.8503,-2033.666 C -903.9418,-2033.6632 -904.0234,-2033.6496 -904.1151,-2033.6457 C -919.8297,-2033.9934 -932.1829,-2013.9212 -923.3417,-2000.3862 C -922.4823,-1998.883 -921.4426,-1997.5276 -920.2662,-1996.3127"
           style="color:#000000;fill:none;fill-opacity:1;fill-rule:nonzero;stroke:#ffffff;stroke-width:12.72633553;stroke-linecap:round;stroke-linejoin:round;marker:none;marker-start:none;marker-mid:none;marker-end:none;stroke-miterlimit:4;stroke-dasharray:none;stroke-dashoffset:0;stroke-opacity:1;visibility:visible;display:inline;overflow:visible" />
      </g>
    </g>
    <path
       style="fill:none;fill-opacity:0.75;fill-rule:evenodd;stroke:#888a85;stroke-width:1.99999988;stroke-linecap:round;stroke-linejoin:miter;stroke-miterlimit:4;stroke-dasharray:none;stroke-opacity:1"
       d="M 7.9999999,10 L 25.03844,10"
       id="path2235" />
    <path
       style="fill:none;fill-opacity:0.75;fill-rule:evenodd;stroke:#888a85;stroke-width:1.00000024px;stroke-linecap:round;stroke-linejoin:miter;stroke-opacity:1"
       d="M 10.802821,12.5 L 21.5,12.5"
       id="path2237" />
    <path
       style="fill:none;fill-opacity:0.75;fill-rule:evenodd;stroke:#888a85;stroke-width:0.99999994px;stroke-linecap:round;stroke-linejoin:miter;stroke-opacity:1"
       d="M 9.5,14.5 L 16.811061,14.5"
       id="path2239" />
    <path
       style="fill:none;fill-opacity:0.75;fill-rule:evenodd;stroke:#888a85;stroke-width:0.99999994px;stroke-linecap:round;stroke-linejoin:miter;stroke-opacity:1"
       d="M 9.5,16.5 L 16.811061,16.5"
       id="path2241" />
    <path
       style="fill:#888a85;fill-rule:evenodd;stroke:#babdb6;stroke-width:1px;stroke-linecap:square;stroke-linejoin:miter;stroke-opacity:1"
       d="M 8.4543635,21.5 L 16.545636,21.5"
       id="path5578" />
  </g>
</svg>
