<?xml version="1.0" encoding="UTF-8" standalone="no"?>
<!-- Created with Inkscape (http://www.inkscape.org/) -->
<svg
   xmlns:dc="http://purl.org/dc/elements/1.1/"
   xmlns:cc="http://web.resource.org/cc/"
   xmlns:rdf="http://www.w3.org/1999/02/22-rdf-syntax-ns#"
   xmlns:svg="http://www.w3.org/2000/svg"
   xmlns="http://www.w3.org/2000/svg"
   xmlns:xlink="http://www.w3.org/1999/xlink"
   xmlns:sodipodi="http://sodipodi.sourceforge.net/DTD/sodipodi-0.dtd"
   xmlns:inkscape="http://www.inkscape.org/namespaces/inkscape"
   width="32"
   height="32"
   id="svg1306"
   sodipodi:version="0.32"
   inkscape:version="0.45"
   sodipodi:docbase="/home/lapo/Icone/svn/gnome-icon-theme/32x32/mimetypes"
   sodipodi:docname="image-x-generic-alt.svg"
   inkscape:output_extension="org.inkscape.output.svg.inkscape"
   version="1.0"
   sodipodi:modified="true">
  <defs
     id="defs1308">
    <linearGradient
       inkscape:collect="always"
       id="linearGradient5060">
      <stop
         style="stop-color:black;stop-opacity:1;"
         offset="0"
         id="stop5062" />
      <stop
         style="stop-color:black;stop-opacity:0;"
         offset="1"
         id="stop5064" />
    </linearGradient>
    <linearGradient
       id="linearGradient5048">
      <stop
         style="stop-color:black;stop-opacity:0;"
         offset="0"
         id="stop5050" />
      <stop
         id="stop5056"
         offset="0.5"
         style="stop-color:black;stop-opacity:1;" />
      <stop
         style="stop-color:black;stop-opacity:0;"
         offset="1"
         id="stop5052" />
    </linearGradient>
    <linearGradient
       inkscape:collect="always"
       id="linearGradient6431">
      <stop
         style="stop-color:#ffffff;stop-opacity:1;"
         offset="0"
         id="stop6433" />
      <stop
         style="stop-color:#ffffff;stop-opacity:0;"
         offset="1"
         id="stop6435" />
    </linearGradient>
    <linearGradient
       inkscape:collect="always"
       id="linearGradient6390">
      <stop
         style="stop-color:#ffffff;stop-opacity:1"
         offset="0"
         id="stop6392" />
      <stop
         style="stop-color:#ffffff;stop-opacity:0;"
         offset="1"
         id="stop6394" />
    </linearGradient>
    <linearGradient
       id="linearGradient6374">
      <stop
         style="stop-color:#555753;stop-opacity:1;"
         offset="0"
         id="stop6376" />
      <stop
         style="stop-color:#888a85;stop-opacity:1"
         offset="1"
         id="stop6378" />
    </linearGradient>
    <linearGradient
       inkscape:collect="always"
       id="linearGradient6366">
      <stop
         style="stop-color:#ffffff;stop-opacity:1;"
         offset="0"
         id="stop6368" />
      <stop
         style="stop-color:#ffffff;stop-opacity:0;"
         offset="1"
         id="stop6370" />
    </linearGradient>
    <linearGradient
       id="linearGradient6327">
      <stop
         style="stop-color:#888a85;stop-opacity:1"
         offset="0"
         id="stop6329" />
      <stop
         style="stop-color:#eeeeec;stop-opacity:1"
         offset="1"
         id="stop6331" />
    </linearGradient>
    <linearGradient
       inkscape:collect="always"
       id="linearGradient4616">
      <stop
         style="stop-color:#2e3436;stop-opacity:1;"
         offset="0"
         id="stop4618" />
      <stop
         style="stop-color:#2e3436;stop-opacity:0;"
         offset="1"
         id="stop4620" />
    </linearGradient>
    <linearGradient
       id="linearGradient4928">
      <stop
         id="stop4930"
         offset="0"
         style="stop-color:#fce94f;stop-opacity:1;" />
      <stop
         id="stop4932"
         offset="1"
         style="stop-color:#fce94f;stop-opacity:0;" />
    </linearGradient>
    <linearGradient
       inkscape:collect="always"
       id="linearGradient2065">
      <stop
         style="stop-color:#555753"
         offset="0"
         id="stop2067" />
      <stop
         style="stop-color:#fcaf3e"
         offset="1"
         id="stop2069" />
    </linearGradient>
    <radialGradient
       inkscape:collect="always"
       xlink:href="#linearGradient5060"
       id="radialGradient6909"
       gradientUnits="userSpaceOnUse"
       gradientTransform="matrix(-1.6064769e-2,0,0,7.4117646e-2,11.681601,-1.1750779)"
       cx="605.71429"
       cy="486.64789"
       fx="605.71429"
       fy="486.64789"
       r="117.14286" />
    <radialGradient
       inkscape:collect="always"
       xlink:href="#linearGradient5060"
       id="radialGradient6912"
       gradientUnits="userSpaceOnUse"
       gradientTransform="matrix(0.1044211,0,0,7.4117646e-2,-27.930451,-1.1750779)"
       cx="605.71429"
       cy="486.64789"
       fx="605.71429"
       fy="486.64789"
       r="117.14286" />
    <linearGradient
       inkscape:collect="always"
       xlink:href="#linearGradient5048"
       id="linearGradient6915"
       gradientUnits="userSpaceOnUse"
       gradientTransform="matrix(6.8343196e-2,0,0,7.4117646e-2,-6.2011835,-1.1750779)"
       x1="302.85715"
       y1="366.64789"
       x2="302.85715"
       y2="609.50507" />
    <radialGradient
       inkscape:collect="always"
       xlink:href="#linearGradient6390"
       id="radialGradient6016"
       gradientUnits="userSpaceOnUse"
       gradientTransform="matrix(0.606426,-0.1337214,7.0781029e-2,0.3235641,-0.4716296,9.8481406)"
       cx="20.236877"
       cy="25.043303"
       fx="20.236877"
       fy="25.043303"
       r="22" />
    <radialGradient
       inkscape:collect="always"
       xlink:href="#linearGradient6431"
       id="radialGradient6019"
       gradientUnits="userSpaceOnUse"
       gradientTransform="matrix(0.6445127,0,0,0.6054214,0.3067209,2.4883031)"
       cx="40.179535"
       cy="34.080399"
       fx="40.179535"
       fy="34.080399"
       r="4.125" />
    <linearGradient
       inkscape:collect="always"
       xlink:href="#linearGradient6327"
       id="linearGradient6022"
       gradientUnits="userSpaceOnUse"
       x1="42.999424"
       y1="36.811924"
       x2="40.621296"
       y2="34.433796"
       gradientTransform="matrix(0.6445127,0,0,0.64709,0.5302051,1.2938929)" />
    <radialGradient
       inkscape:collect="always"
       xlink:href="#linearGradient6374"
       id="radialGradient6024"
       gradientUnits="userSpaceOnUse"
       gradientTransform="matrix(0.1208461,-0.6816653,0.4628124,8.270522e-2,5.5720403,47.256972)"
       cx="39.437065"
       cy="34.33852"
       fx="39.437065"
       fy="34.33852"
       r="6" />
    <linearGradient
       inkscape:collect="always"
       xlink:href="#linearGradient6366"
       id="linearGradient6031"
       gradientUnits="userSpaceOnUse"
       x1="40.941582"
       y1="37.639805"
       x2="35.496311"
       y2="32.194534"
       gradientTransform="matrix(0.6374346,0,0,0.6369764,0.6348289,1.4332705)" />
    <linearGradient
       inkscape:collect="always"
       xlink:href="#linearGradient4616"
       id="linearGradient6034"
       gradientUnits="userSpaceOnUse"
       gradientTransform="matrix(0.7057947,0,0,1,-0.9405628,-9.9999979)"
       x1="25.355263"
       y1="33.654644"
       x2="25.355263"
       y2="32.409008" />
    <radialGradient
       inkscape:collect="always"
       xlink:href="#linearGradient4928"
       id="radialGradient6037"
       gradientUnits="userSpaceOnUse"
       gradientTransform="matrix(0.6445127,0,0,0.6202655,15.170827,2.9607793)"
       cx="-6.0070167"
       cy="32.837029"
       fx="-6.0070167"
       fy="32.837029"
       r="9.90625" />
    <linearGradient
       inkscape:collect="always"
       xlink:href="#linearGradient2065"
       id="linearGradient6040"
       gradientUnits="userSpaceOnUse"
       gradientTransform="matrix(0.7133224,0,0,0.7499577,24.557451,-1.1234971)"
       x1="-11.986486"
       y1="13.122552"
       x2="-11.986486"
       y2="29.726542" />
    <linearGradient
       inkscape:collect="always"
       xlink:href="#linearGradient6327"
       id="linearGradient6043"
       gradientUnits="userSpaceOnUse"
       x1="61.18124"
       y1="137.97644"
       x2="20.420683"
       y2="2.6749926"
       gradientTransform="matrix(0.6445127,0,0,0.64709,0.5302051,1.2938929)" />
  </defs>
  <sodipodi:namedview
     id="base"
     pagecolor="#ffffff"
     bordercolor="#666666"
     borderopacity="1"
     inkscape:pageopacity="0.0"
     inkscape:pageshadow="2"
     inkscape:zoom="1"
     inkscape:cx="14.448455"
     inkscape:cy="5.6812079"
     inkscape:current-layer="layer1"
     showgrid="false"
     inkscape:grid-bbox="false"
     inkscape:document-units="px"
     fill="#fcaf3e"
     stroke="#555753"
     showguides="true"
     inkscape:guide-bbox="false"
     inkscape:window-width="895"
     inkscape:window-height="760"
     inkscape:window-x="208"
     inkscape:window-y="229"
     inkscape:showpageshadow="false"
     showborder="false"
     gridspacingx="0.5px"
     gridspacingy="0.5px"
     gridempspacing="2"
     inkscape:grid-points="false"
     gridtolerance="50"
     inkscape:object-paths="false"
     width="32px"
     height="32px" />
  <metadata
     id="metadata1311">
    <rdf:RDF>
      <cc:Work
         rdf:about="">
        <dc:format>image/svg+xml</dc:format>
        <dc:type
           rdf:resource="http://purl.org/dc/dcmitype/StillImage" />
        <dc:title>Generic Image</dc:title>
        <dc:creator>
          <cc:Agent>
            <dc:title>Lapo Calamandrei</dc:title>
          </cc:Agent>
        </dc:creator>
        <dc:source>http://www.gnome.org</dc:source>
        <dc:contributor>
          <cc:Agent>
            <dc:title>Jakub Steiner, Andreas Nilsson</dc:title>
          </cc:Agent>
        </dc:contributor>
        <cc:license
           rdf:resource="http://creativecommons.org/licenses/GPL/2.0/" />
      </cc:Work>
      <cc:License
         rdf:about="http://creativecommons.org/licenses/GPL/2.0/">
        <cc:permits
           rdf:resource="http://web.resource.org/cc/Reproduction" />
        <cc:permits
           rdf:resource="http://web.resource.org/cc/Distribution" />
        <cc:requires
           rdf:resource="http://web.resource.org/cc/Notice" />
        <cc:permits
           rdf:resource="http://web.resource.org/cc/DerivativeWorks" />
        <cc:requires
           rdf:resource="http://web.resource.org/cc/ShareAlike" />
        <cc:requires
           rdf:resource="http://web.resource.org/cc/SourceCode" />
      </cc:License>
    </rdf:RDF>
  </metadata>
  <g
     id="layer1"
     inkscape:label="Layer 1"
     inkscape:groupmode="layer">
    <g
       id="g6917"
       transform="matrix(0.6666667,0,0,0.6666667,4.5259418e-7,0.666667)">
      <rect
         y="26"
         x="2"
         height="18"
         width="33"
         id="rect6057"
         style="opacity:0.39195981;color:#000000;fill:url(#linearGradient6915);fill-opacity:1;fill-rule:nonzero;stroke:none;stroke-width:1;stroke-linecap:round;stroke-linejoin:miter;marker:none;marker-start:none;marker-mid:none;marker-end:none;stroke-miterlimit:4;stroke-dasharray:none;stroke-dashoffset:0;stroke-opacity:1;visibility:visible;display:inline;overflow:visible" />
      <path
         sodipodi:nodetypes="ccscc"
         id="path6059"
         d="M 35,26.00062 C 35,26.00062 35,43.999627 35,43.999627 C 37.30962,44.01418 40.033409,43.272315 42.389531,42.027493 C 45.519106,40.37403 48.000002,37.833194 48,34.998965 C 48,30.030967 41.999197,26.000621 35,26.00062 z "
         style="opacity:0.40206185;color:#000000;fill:url(#radialGradient6912);fill-opacity:1;fill-rule:nonzero;stroke:none;stroke-width:1;stroke-linecap:round;stroke-linejoin:miter;marker:none;marker-start:none;marker-mid:none;marker-end:none;stroke-miterlimit:4;stroke-dasharray:none;stroke-dashoffset:0;stroke-opacity:1;visibility:visible;display:inline;overflow:visible" />
      <path
         style="opacity:0.40206185;color:#000000;fill:url(#radialGradient6909);fill-opacity:1;fill-rule:nonzero;stroke:none;stroke-width:1;stroke-linecap:round;stroke-linejoin:miter;marker:none;marker-start:none;marker-mid:none;marker-end:none;stroke-miterlimit:4;stroke-dasharray:none;stroke-dashoffset:0;stroke-opacity:1;visibility:visible;display:inline;overflow:visible"
         d="M 2,26.00062 C 2,26.00062 2,43.999627 2,43.999627 C 1.172704,44.03351 1.3577825e-06,39.966963 1.3577825e-06,34.998965 C 1.3577825e-06,30.030967 0.92320113,26.000621 2,26.00062 z "
         id="path6061"
         sodipodi:nodetypes="cccc" />
    </g>
    <path
       style="fill:url(#linearGradient6043);fill-opacity:1;stroke:#888a85;stroke-width:1.00000024;stroke-linecap:round;stroke-linejoin:round;stroke-miterlimit:4;stroke-dashoffset:0;stroke-opacity:1"
       d="M 2.3140661,5.4999779 L 29.682956,5.4999779 C 30.135625,5.4999779 30.500048,5.8658582 30.500048,6.3203372 L 30.500046,21.030138 C 30.500046,21.484617 23.863075,27.501038 23.410406,27.501038 L 2.3140661,27.501038 C 1.8613972,27.501038 1.4969742,27.135158 1.4969742,26.680679 L 1.4969742,6.3203372 C 1.4969742,5.8658582 1.8613972,5.4999779 2.3140661,5.4999779 z "
       id="rect5350"
       sodipodi:nodetypes="ccccccccc" />
    <path
       style="fill:url(#linearGradient6040);fill-opacity:1;stroke:#888a85;stroke-width:1.00000012;stroke-linecap:round;stroke-linejoin:round;stroke-miterlimit:4;stroke-dashoffset:0;stroke-opacity:1"
       d="M 3.8265182,7.5010158 L 28.187921,7.5010158 C 28.360814,7.5010158 28.5,7.6473512 28.5,7.8291224 L 28.5,23.24343 L 26.267286,25.499999 L 3.8265182,25.499999 C 3.6536265,25.499999 3.5144395,25.353663 3.5144395,25.171892 L 3.5144395,7.8291224 C 3.5144395,7.6473512 3.6536265,7.5010158 3.8265182,7.5010158 z "
       id="rect2063"
       sodipodi:nodetypes="ccccccccc" />
    <path
       style="color:#000000;fill:url(#radialGradient6037);fill-opacity:1;fill-rule:evenodd;stroke:none;stroke-width:1;stroke-linecap:round;stroke-linejoin:round;marker:none;marker-start:none;marker-mid:none;marker-end:none;stroke-miterlimit:4;stroke-dasharray:none;stroke-dashoffset:0;stroke-opacity:1;visibility:visible;display:inline;overflow:visible"
       d="M 10.896411,16.534012 C 7.5650677,16.746229 4.9145275,19.546338 4.9145275,22.944248 C 4.9145275,23.075468 4.9269086,23.199185 4.9346685,23.328457 L 17.663795,23.328457 C 17.671555,23.199185 17.683936,23.075468 17.683936,22.944248 C 17.683936,19.408211 14.821185,16.534012 11.299232,16.534012 C 11.161655,16.534012 11.031832,16.525386 10.896411,16.534012 z "
       id="path4898"
       inkscape:r_cx="true"
       inkscape:r_cy="true" />
    <rect
       style="fill:url(#linearGradient6034);fill-opacity:1;stroke:none;stroke-width:1;stroke-linecap:round;stroke-linejoin:round;stroke-miterlimit:4;stroke-dasharray:none;stroke-dashoffset:0;stroke-opacity:1"
       id="rect1324"
       width="23.997019"
       height="2"
       x="4"
       y="23"
       rx="0"
       ry="0" />
    <path
       style="opacity:0.81896548;fill:url(#linearGradient6031);fill-opacity:1;stroke:none;stroke-width:0.99999994;stroke-linecap:round;stroke-linejoin:round;stroke-miterlimit:4;stroke-dashoffset:0;stroke-opacity:1"
       d="M 10.056908,26.912328 L 23.203996,26.912328 C 23.210498,26.909473 23.214806,26.909794 23.243836,26.892422 C 23.301895,26.857679 23.396251,26.791294 23.502793,26.713272 C 23.715877,26.557231 24.003076,26.335161 24.339426,26.056391 C 25.012129,25.498849 25.884033,24.752016 26.729806,23.986217 C 27.57558,23.220418 28.403886,22.429014 29.020586,21.816516 C 29.328937,21.510268 29.585771,21.255199 29.75762,21.060107 C 29.843544,20.962561 29.89996,20.873331 29.936898,20.821241 C 29.946133,20.808219 29.951518,20.809798 29.956818,20.801335 L 29.956818,10.211602 L 10.056908,26.912328 z "
       id="path6364"
       sodipodi:nodetypes="ccsssssssccc" />
    <path
       style="fill:#000000;fill-opacity:1;fill-rule:evenodd;stroke:none;stroke-width:1px;stroke-linecap:butt;stroke-linejoin:miter;stroke-opacity:1"
       d="M 19.579154,23.9241 C 19.579154,23.9241 19.221073,21.827693 19.221073,20.543397 C 19.231005,19.957519 24.239705,15.393336 24.252627,14.713483 L 23.08815,15.784019 L 22.272735,13.443805 L 25.021688,13.744286 L 26.310713,12.384464 L 24.850785,13.515097 L 24.348691,13.394904 L 23.732662,11.024641 L 24.045983,13.334808 L 21.770641,13.214616 L 22.482733,15.126499 L 20.510099,13.064375 L 22.596668,15.934595 C 22.596723,16.57475 18.484114,20.482658 18.491109,19.80882 L 16.785441,17.395422 L 16.643023,14.132807 L 17.932048,13.744286 L 19.061334,10.806648 L 17.57269,13.521748 L 16.410526,13.466195 L 13.809022,11.148373 L 10.236992,9.7060629 L 13.288653,11.475364 L 10.842408,11.704553 L 14.064972,11.704553 L 15.99851,13.744286 L 16.226379,17.267573 L 12.775946,13.744286 L 14.226938,15.584878 L 12.131434,17.143842 L 14.433265,15.784019 L 18.074467,20.622346 L 17.932048,23.9241 L 19.579154,23.9241 z "
       id="path2079"
       sodipodi:nodetypes="cccccccccccccccccccccccccccccccccccc" />
    <path
       inkscape:r_cy="true"
       inkscape:r_cx="true"
       id="path4924"
       d="M 11.079418,19.563617 C 9.2615443,19.679421 7.8151773,21.207406 7.8151773,23.061604 C 7.8151773,23.133209 7.821933,23.20072 7.8261675,23.271262 L 14.772295,23.271262 C 14.776531,23.20072 14.783286,23.133209 14.783286,23.061604 C 14.783286,21.132032 13.221118,19.563617 11.299232,19.563617 C 11.224158,19.563617 11.153315,19.55891 11.079418,19.563617 z "
       style="color:#000000;fill:#fef39e;fill-opacity:1;fill-rule:evenodd;stroke:none;stroke-width:1;stroke-linecap:round;stroke-linejoin:round;marker:none;marker-start:none;marker-mid:none;marker-end:none;stroke-miterlimit:4;stroke-dasharray:none;stroke-dashoffset:0;stroke-opacity:1;visibility:visible;display:inline;overflow:visible" />
    <path
       style="color:#000000;fill:#fffbd7;fill-opacity:0.55681817;fill-rule:evenodd;stroke:none;stroke-width:1;stroke-linecap:round;stroke-linejoin:round;marker:none;marker-start:none;marker-mid:none;marker-end:none;stroke-miterlimit:4;stroke-dasharray:none;stroke-dashoffset:0;stroke-opacity:1;visibility:visible;display:inline;overflow:visible"
       d="M 11.13159,20.403737 C 9.745186,20.492056 8.6421122,21.657376 8.6421122,23.071483 C 8.6421122,23.126092 8.6472651,23.17758 8.6504941,23.231379 L 13.947969,23.231379 C 13.951199,23.17758 13.956351,23.126092 13.956351,23.071483 C 13.956351,21.599892 12.764962,20.403737 11.299232,20.403737 C 11.241977,20.403737 11.187948,20.400148 11.13159,20.403737 z "
       id="path4926"
       inkscape:r_cx="true"
       inkscape:r_cy="true" />
    <path
       style="fill:none;fill-opacity:1;stroke:#ffffff;stroke-width:1.00000012;stroke-linecap:round;stroke-linejoin:round;stroke-miterlimit:4;stroke-dashoffset:0;stroke-opacity:1"
       d="M 2.6736382,6.5010161 C 2.5757139,6.5010161 2.4970199,6.5793331 2.4970199,6.6767884 L 2.4970199,26.324228 C 2.4970199,26.421683 2.5757139,26.5 2.6736382,26.5 L 24.338818,26.5 C 26.624684,24.752986 27.531776,24.066832 29.499998,21.96898 L 29.499998,6.6767884 C 29.499998,6.5793343 29.421303,6.5010161 29.32338,6.5010161 L 2.6736382,6.5010161 z "
       id="path6351"
       sodipodi:nodetypes="ccccccccc" />
    <path
       style="fill:url(#linearGradient6022);fill-opacity:1;fill-rule:evenodd;stroke:url(#radialGradient6024);stroke-width:1.00000024px;stroke-linecap:butt;stroke-linejoin:round;stroke-opacity:1"
       d="M 30.500046,21.030138 C 30.500046,24.265588 26.632969,27.501038 23.410406,27.501038 C 23.410406,27.501038 25.780837,25.615492 25.502321,22.485272 C 28.325084,22.754549 30.500046,21.030138 30.500046,21.030138 z "
       id="path6322"
       sodipodi:nodetypes="cccc" />
    <path
       style="opacity:0.73275865;fill:url(#radialGradient6019);fill-opacity:1;fill-rule:evenodd;stroke:none;stroke-width:1px;stroke-linecap:butt;stroke-linejoin:round;stroke-opacity:1"
       d="M 29.773036,21.682051 C 29.037543,22.305704 27.81443,23.054264 26.10737,23.016674 C 26.125728,24.791768 25.248781,25.964985 24.455806,26.676777 C 25.412515,26.041821 26.619059,25.178314 26.751883,23.663764 C 28.144759,23.661659 29.064371,22.550385 29.752895,21.722494 C 29.756464,21.708473 29.769602,21.696078 29.773036,21.682051 z "
       id="path6339" />
    <path
       style="opacity:0.34482757;fill:url(#radialGradient6016);fill-opacity:1;stroke:none;stroke-width:0.99999994;stroke-linecap:round;stroke-linejoin:round;stroke-miterlimit:4;stroke-dashoffset:0;stroke-opacity:1"
       d="M 2.322756,5.8235229 C 2.0471673,5.8235229 1.8192305,6.0523712 1.8192305,6.329062 L 1.8192305,21.414348 C 10.014017,15.649377 22.479151,11.404822 30.177789,13.790819 L 30.177789,6.329062 C 30.177789,6.0523718 29.949851,5.8235229 29.674264,5.8235229 L 2.322756,5.8235229 z "
       id="path6384"
       sodipodi:nodetypes="ccccccc" />
    <path
       sodipodi:type="inkscape:offset"
       inkscape:radius="-1"
       inkscape:original="M 2.78125 6.5 C 2.0789071 6.5 1.5 7.0789071 1.5 7.78125 L 1.5 39.21875 C 1.5 39.921093 2.0789071 40.5 2.78125 40.5 L 35.5 40.5 C 40.5 40.5 46.5 35.5 46.5 30.5 L 46.5 7.78125 C 46.5 7.0789071 45.921091 6.5 45.21875 6.5 L 2.78125 6.5 z "
       style="opacity:0.41810345;fill:none;fill-opacity:1;stroke:#ffffff;stroke-width:1.596421;stroke-linecap:round;stroke-linejoin:round;stroke-miterlimit:4;stroke-dashoffset:0;stroke-opacity:1"
       id="path6427"
       d="M 2.78125,7.5 C 2.628408,7.5 2.5,7.628408 2.5,7.78125 L 2.5,39.21875 C 2.5,39.371592 2.6284079,39.5 2.78125,39.5 L 35.5,39.5 C 37.666667,39.5 40.249358,38.362698 42.21875,36.625 C 44.188142,34.887302 45.5,32.6 45.5,30.5 L 45.5,7.78125 C 45.5,7.6284098 45.371589,7.5 45.21875,7.5 L 2.78125,7.5 z "
       transform="matrix(0.6278377,0,0,0.6249683,0.930406,1.813754)" />
  </g>
</svg>
