<?xml version="1.0" encoding="UTF-8" standalone="no"?>
<!-- Created with Inkscape (http://www.inkscape.org/) -->
<svg
   xmlns:dc="http://purl.org/dc/elements/1.1/"
   xmlns:cc="http://web.resource.org/cc/"
   xmlns:rdf="http://www.w3.org/1999/02/22-rdf-syntax-ns#"
   xmlns:svg="http://www.w3.org/2000/svg"
   xmlns="http://www.w3.org/2000/svg"
   xmlns:xlink="http://www.w3.org/1999/xlink"
   xmlns:sodipodi="http://sodipodi.sourceforge.net/DTD/sodipodi-0.dtd"
   xmlns:inkscape="http://www.inkscape.org/namespaces/inkscape"
   inkscape:export-ydpi="240.00000"
   inkscape:export-xdpi="240.00000"
   inkscape:export-filename="/home/jimmac/gfx/novell/pdes/trunk/docs/BIGmime-text.png"
   sodipodi:docname="x-office-address-book.svg"
   sodipodi:docbase="/home/lapo/Icone/cvs/gnome-icon-theme/32x32/mimetypes"
   inkscape:version="0.44"
   sodipodi:version="0.32"
   id="svg249"
   height="32"
   width="32"
   version="1.0"
   inkscape:output_extension="org.inkscape.output.svg.inkscape">
  <defs
     id="defs3">
    <linearGradient
       id="linearGradient3702">
      <stop
         style="stop-color:black;stop-opacity:0;"
         offset="0"
         id="stop3704" />
      <stop
         id="stop3710"
         offset="0.5"
         style="stop-color:black;stop-opacity:1;" />
      <stop
         style="stop-color:black;stop-opacity:0;"
         offset="1"
         id="stop3706" />
    </linearGradient>
    <linearGradient
       inkscape:collect="always"
       id="linearGradient3688">
      <stop
         style="stop-color:black;stop-opacity:1;"
         offset="0"
         id="stop3690" />
      <stop
         style="stop-color:black;stop-opacity:0;"
         offset="1"
         id="stop3692" />
    </linearGradient>
    <linearGradient
       inkscape:collect="always"
       id="linearGradient4790">
      <stop
         style="stop-color:#000000;stop-opacity:1;"
         offset="0"
         id="stop4792" />
      <stop
         style="stop-color:#000000;stop-opacity:0;"
         offset="1"
         id="stop4794" />
    </linearGradient>
    <linearGradient
       inkscape:collect="always"
       id="linearGradient2251">
      <stop
         style="stop-color:#ffffff;stop-opacity:1;"
         offset="0"
         id="stop2253" />
      <stop
         style="stop-color:#ffffff;stop-opacity:0;"
         offset="1"
         id="stop2255" />
    </linearGradient>
    <linearGradient
       id="linearGradient15662">
      <stop
         id="stop15664"
         offset="0.0000000"
         style="stop-color:#ffffff;stop-opacity:1.0000000;" />
      <stop
         id="stop15666"
         offset="1.0000000"
         style="stop-color:#f8f8f8;stop-opacity:1.0000000;" />
    </linearGradient>
    <linearGradient
       id="linearGradient269">
      <stop
         id="stop270"
         offset="0.0000000"
         style="stop-color:#a3a3a3;stop-opacity:1.0000000;" />
      <stop
         id="stop271"
         offset="1"
         style="stop-color:#8a8a8a;stop-opacity:1;" />
    </linearGradient>
    <linearGradient
       id="linearGradient259">
      <stop
         id="stop260"
         offset="0.0000000"
         style="stop-color:#fafafa;stop-opacity:1.0000000;" />
      <stop
         id="stop261"
         offset="1.0000000"
         style="stop-color:#bbbbbb;stop-opacity:1.0000000;" />
    </linearGradient>
    <radialGradient
       inkscape:collect="always"
       xlink:href="#linearGradient3688"
       id="radialGradient1941"
       gradientUnits="userSpaceOnUse"
       gradientTransform="matrix(2.003784,0,0,1.4,27.98813,-17.4)"
       cx="4.9929786"
       cy="43.5"
       fx="4.9929786"
       fy="43.5"
       r="2.5" />
    <radialGradient
       inkscape:collect="always"
       xlink:href="#linearGradient3688"
       id="radialGradient1943"
       gradientUnits="userSpaceOnUse"
       gradientTransform="matrix(2.003784,0,0,1.4,-20.01187,-104.4)"
       cx="4.9929786"
       cy="43.5"
       fx="4.9929786"
       fy="43.5"
       r="2.5" />
    <linearGradient
       inkscape:collect="always"
       xlink:href="#linearGradient3702"
       id="linearGradient1945"
       gradientUnits="userSpaceOnUse"
       x1="25.058096"
       y1="47.027729"
       x2="25.058096"
       y2="39.999443" />
    <linearGradient
       inkscape:collect="always"
       xlink:href="#linearGradient2251"
       id="linearGradient1966"
       gradientUnits="userSpaceOnUse"
       gradientTransform="matrix(-1.92714e-2,-0.573924,0.587597,-1.882297e-2,2.420403,26.69984)"
       x1="33.396004"
       y1="36.921333"
       x2="34.170048"
       y2="38.070381" />
    <radialGradient
       inkscape:collect="always"
       xlink:href="#linearGradient259"
       id="radialGradient1969"
       gradientUnits="userSpaceOnUse"
       gradientTransform="matrix(9.897811e-2,6.749534e-3,-7.368489e-3,0.108596,16.59403,8.644111)"
       cx="30.653816"
       cy="14.9373"
       fx="30.653816"
       fy="14.9373"
       r="86.70845" />
    <radialGradient
       inkscape:collect="always"
       xlink:href="#linearGradient269"
       id="radialGradient1971"
       gradientUnits="userSpaceOnUse"
       gradientTransform="matrix(0.221324,0,0,0.236656,13.2883,6.480565)"
       cx="31.863327"
       cy="2.3667307"
       fx="31.863327"
       fy="2.3667307"
       r="37.751713" />
    <radialGradient
       inkscape:collect="always"
       xlink:href="#linearGradient4790"
       id="radialGradient1974"
       gradientUnits="userSpaceOnUse"
       gradientTransform="matrix(1.163103,0,0,0.855889,-17.72172,-2.318907)"
       cx="37.030354"
       cy="12.98915"
       fx="37.030354"
       fy="12.98915"
       r="4.2929163" />
    <radialGradient
       inkscape:collect="always"
       xlink:href="#linearGradient15662"
       id="radialGradient1977"
       gradientUnits="userSpaceOnUse"
       gradientTransform="matrix(0.61826,0,0,0.664962,2.818403,0.964783)"
       cx="8.1435566"
       cy="7.2678967"
       fx="8.1435566"
       fy="7.2678967"
       r="38.158695" />
    <radialGradient
       inkscape:collect="always"
       xlink:href="#linearGradient259"
       id="radialGradient1980"
       gradientUnits="userSpaceOnUse"
       gradientTransform="matrix(0.631936,0,0,0.686693,0.21009,0.105241)"
       cx="33.966679"
       cy="35.736916"
       fx="33.966679"
       fy="35.736916"
       r="86.70845" />
    <radialGradient
       inkscape:collect="always"
       xlink:href="#linearGradient269"
       id="radialGradient1982"
       gradientUnits="userSpaceOnUse"
       gradientTransform="matrix(0.637055,0,0,0.681177,2.416486,0.531615)"
       cx="8.824419"
       cy="3.7561285"
       fx="8.824419"
       fy="3.7561285"
       r="37.751713" />
    <linearGradient
       id="linearGradient6732">
      <stop
         id="stop6734"
         offset="0"
         style="stop-color:#ffffff;stop-opacity:1;" />
      <stop
         id="stop6736"
         offset="1"
         style="stop-color:#dddddd;stop-opacity:1;" />
    </linearGradient>
    <linearGradient
       id="linearGradient4585">
      <stop
         id="stop4587"
         offset="0"
         style="stop-color:#9e9e9e;stop-opacity:1;" />
      <stop
         id="stop4589"
         offset="1"
         style="stop-color:#dddddd;stop-opacity:0;" />
    </linearGradient>
    <linearGradient
       inkscape:collect="always"
       xlink:href="#linearGradient6732"
       id="linearGradient2465"
       gradientUnits="userSpaceOnUse"
       gradientTransform="matrix(0.530369,0,0,0.500153,0.370569,6.99634)"
       x1="11.511479"
       y1="0.75951481"
       x2="31.5"
       y2="36.625" />
    <linearGradient
       inkscape:collect="always"
       xlink:href="#linearGradient4585"
       id="linearGradient2503"
       gradientUnits="userSpaceOnUse"
       gradientTransform="matrix(0.618113,0,0,0.625191,0.946786,1.182064)"
       x1="9.117774"
       y1="18.345161"
       x2="8.4885712"
       y2="34.608616" />
  </defs>
  <sodipodi:namedview
     inkscape:window-y="101"
     inkscape:window-x="219"
     inkscape:window-height="872"
     inkscape:window-width="1051"
     inkscape:document-units="px"
     inkscape:grid-bbox="true"
     showgrid="false"
     inkscape:current-layer="layer5"
     inkscape:cy="15.974642"
     inkscape:cx="13.358205"
     inkscape:zoom="1"
     inkscape:pageshadow="2"
     inkscape:pageopacity="0.0"
     borderopacity="1"
     bordercolor="#666"
     pagecolor="#ffffff"
     id="base"
     inkscape:showpageshadow="false"
     width="32px"
     height="32px"
     showborder="false" />
  <metadata
     id="metadata4">
    <rdf:RDF>
      <cc:Work
         rdf:about="">
        <dc:format>image/svg+xml</dc:format>
        <dc:type
           rdf:resource="http://purl.org/dc/dcmitype/StillImage" />
        <dc:title>Contact</dc:title>
        <dc:subject>
          <rdf:Bag />
        </dc:subject>
        <cc:license
           rdf:resource="http://creativecommons.org/licenses/GPL/2.0/" />
        <dc:creator>
          <cc:Agent>
            <dc:title>Lapo Calamandrei</dc:title>
          </cc:Agent>
        </dc:creator>
        <dc:source />
        <dc:contributor>
          <cc:Agent>
            <dc:title>Jakub Steiner</dc:title>
          </cc:Agent>
        </dc:contributor>
      </cc:Work>
      <cc:License
         rdf:about="http://creativecommons.org/licenses/GPL/2.0/">
        <cc:permits
           rdf:resource="http://web.resource.org/cc/Reproduction" />
        <cc:permits
           rdf:resource="http://web.resource.org/cc/Distribution" />
        <cc:requires
           rdf:resource="http://web.resource.org/cc/Notice" />
        <cc:permits
           rdf:resource="http://web.resource.org/cc/DerivativeWorks" />
        <cc:requires
           rdf:resource="http://web.resource.org/cc/ShareAlike" />
        <cc:requires
           rdf:resource="http://web.resource.org/cc/SourceCode" />
      </cc:License>
    </rdf:RDF>
  </metadata>
  <g
     inkscape:groupmode="layer"
     id="layer6"
     inkscape:label="Shadow" />
  <g
     style="display:inline"
     inkscape:groupmode="layer"
     inkscape:label="Base"
     id="layer1" />
  <g
     inkscape:groupmode="layer"
     id="layer5"
     inkscape:label="Text"
     style="display:inline">
    <g
       id="g3712"
       style="opacity:0.4"
       transform="matrix(0.701755,0,0,0.857142,-0.842106,-8.952364)">
      <rect
         y="40"
         x="38"
         height="7"
         width="5"
         id="rect2801"
         style="opacity:1;fill:url(#radialGradient1941);fill-opacity:1;stroke:none;stroke-width:1;stroke-linecap:round;stroke-linejoin:miter;stroke-miterlimit:4;stroke-dasharray:none;stroke-opacity:1" />
      <rect
         transform="scale(-1,-1)"
         y="-47"
         x="-10"
         height="7"
         width="5"
         id="rect3696"
         style="opacity:1;fill:url(#radialGradient1943);fill-opacity:1;stroke:none;stroke-width:1;stroke-linecap:round;stroke-linejoin:miter;stroke-miterlimit:4;stroke-dasharray:none;stroke-opacity:1" />
      <rect
         y="40"
         x="10"
         height="7.0000005"
         width="28"
         id="rect3700"
         style="opacity:1;fill:url(#linearGradient1945);fill-opacity:1;stroke:none;stroke-width:1;stroke-linecap:round;stroke-linejoin:miter;stroke-miterlimit:4;stroke-dasharray:none;stroke-opacity:1" />
    </g>
    <path
       style="color:black;fill:url(#radialGradient1980);fill-opacity:1;fill-rule:nonzero;stroke:url(#radialGradient1982);stroke-width:1.00000072;stroke-linecap:round;stroke-linejoin:round;marker:none;marker-start:none;marker-mid:none;marker-end:none;stroke-miterlimit:4;stroke-dashoffset:0;stroke-opacity:1;visibility:visible;display:block;overflow:visible"
       d="M 5.310745,2.5103061 L 20.737197,2.5000005 C 20.737197,2.5000005 27.5,8.7946899 27.5,9.2145506 L 27.5,28.742123 C 27.5,29.161983 27.162828,29.499993 26.744008,29.499993 L 5.310745,29.499993 C 4.8919257,29.499993 4.5547534,29.161983 4.5547534,28.742123 L 4.5547534,3.2681773 C 4.5547534,2.8483168 4.8919257,2.5103061 5.310745,2.5103061 z "
       id="rect15391"
       sodipodi:nodetypes="ccccccccc" />
    <path
       style="color:black;fill:none;fill-opacity:1;fill-rule:nonzero;stroke:url(#radialGradient1977);stroke-width:1.00000012;stroke-linecap:round;stroke-linejoin:round;marker:none;marker-start:none;marker-mid:none;marker-end:none;stroke-miterlimit:4;stroke-dashoffset:0;stroke-opacity:1;visibility:visible;display:block;overflow:visible"
       d="M 5.6671808,3.4999984 L 21.551196,3.4999984 C 21.551196,3.4999984 26.499993,8.6647089 26.499993,8.7178748 L 26.499993,28.480219 C 26.499993,28.533385 26.457547,28.576186 26.404822,28.576186 L 5.6671808,28.576186 C 5.6144565,28.576186 5.5720107,28.533385 5.5720107,28.480219 L 5.5720107,3.5959654 C 5.5720107,3.5427997 5.6144565,3.4999984 5.6671808,3.4999984 z "
       id="rect15660"
       sodipodi:nodetypes="ccccccccc" />
    <path
       inkscape:r_cy="true"
       inkscape:r_cx="true"
       style="opacity:0.35714285;color:black;fill:url(#radialGradient1974);fill-opacity:1;fill-rule:evenodd;stroke:none;stroke-width:1.00000024;stroke-linecap:butt;stroke-linejoin:miter;marker:none;marker-start:none;marker-mid:none;marker-end:none;stroke-miterlimit:4;stroke-dasharray:none;stroke-dashoffset:0;stroke-opacity:1;visibility:visible;display:inline;overflow:visible"
       d="M 27.323473,9.240968 C 26.837898,8.3432155 23.254826,6.7539594 21.389767,6.220942 C 21.502773,7.269573 21.307915,10.432965 21.307915,10.432965 C 22.682915,9.5162974 26.803003,9.1328919 27.323473,9.240968 z "
       id="path5348"
       sodipodi:nodetypes="cccc" />
    <path
       style="color:black;fill:url(#radialGradient1969);fill-opacity:1;fill-rule:nonzero;stroke:url(#radialGradient1971);stroke-width:1.00000095;stroke-linecap:butt;stroke-linejoin:round;marker:none;marker-start:none;marker-mid:none;marker-end:none;stroke-miterlimit:4;stroke-dasharray:none;stroke-dashoffset:0;stroke-opacity:1;visibility:visible;display:block;overflow:visible"
       d="M 27.50257,9.260921 C 27.511353,8.3144143 23.264343,2.4338801 20.673998,2.5030914 C 21.32318,2.6589282 21.841783,6.6285296 20.914603,8.509648 C 22.749322,8.509648 26.859507,8.0180959 27.50257,9.260921 z "
       id="path2210"
       sodipodi:nodetypes="cccc"
       inkscape:r_cx="true"
       inkscape:r_cy="true" />
    <path
       sodipodi:nodetypes="cccc"
       id="path2247"
       d="M 25.837661,7.4765493 C 25.409447,6.7032728 23.392805,4.5654531 22.262495,3.8551134 C 22.40297,4.6738812 22.578236,5.9696806 22.216294,7.4410802 C 22.216294,7.4410802 25.378675,7.3834583 25.837661,7.4765493 z "
       style="color:black;fill:none;fill-opacity:1;fill-rule:evenodd;stroke:url(#linearGradient1966);stroke-width:1.00000107;stroke-linecap:butt;stroke-linejoin:miter;marker:none;marker-start:none;marker-mid:none;marker-end:none;stroke-miterlimit:4;stroke-dasharray:none;stroke-dashoffset:0;stroke-opacity:1;visibility:visible;display:inline;overflow:visible"
       inkscape:r_cx="true"
       inkscape:r_cy="true" />
    <rect
       inkscape:r_cy="true"
       inkscape:r_cx="true"
       ry="1.7192742"
       rx="1.6998115"
       y="11.497713"
       x="2.4920702"
       height="15.004584"
       width="21.015852"
       id="rect5857"
       style="color:black;fill:url(#linearGradient2465);fill-opacity:1;fill-rule:evenodd;stroke:#939393;stroke-width:1.0000006;stroke-linecap:butt;stroke-linejoin:miter;marker:none;marker-start:none;marker-mid:none;marker-end:none;stroke-miterlimit:4;stroke-dasharray:none;stroke-dashoffset:0;stroke-opacity:1;visibility:visible;display:inline;overflow:visible" />
    <path
       inkscape:r_cy="true"
       inkscape:r_cx="true"
       id="text6970"
       d="M 11.685698,15.250162 C 11.685698,15.492351 11.640665,15.678088 11.550607,15.807369 C 11.460543,15.93579 11.337735,16 11.182172,16 C 11.118719,16 11.057997,15.984917 11,15.954751 L 11,15.610859 C 11.051176,15.659988 11.107804,15.68455 11.169889,15.68455 C 11.246308,15.68455 11.303617,15.648783 11.341828,15.577246 C 11.380717,15.504848 11.400161,15.396683 11.400161,15.252747 L 11.400161,14.106012 L 11.685698,14.106012 L 11.685698,15.250162 M 12.482947,14.588235 C 12.642598,14.588236 12.769845,14.650291 12.864685,14.774401 C 12.959519,14.898514 13.006936,15.065289 13.006936,15.274726 C 13.006936,15.502263 12.956107,15.67981 12.854447,15.807369 C 12.752787,15.934066 12.616333,15.997415 12.44508,15.997415 C 12.287469,15.997415 12.159204,15.934927 12.06027,15.809954 C 11.962023,15.684982 11.912896,15.521224 11.912896,15.318681 C 11.912896,15.091145 11.964408,14.912735 12.067436,14.783452 C 12.170459,14.653309 12.308963,14.588236 12.482947,14.588235 M 12.459408,15.719458 C 12.542646,15.719458 12.610189,15.681965 12.662046,15.60698 C 12.714581,15.531136 12.74085,15.428141 12.74085,15.297996 C 12.74085,15.166129 12.714922,15.062272 12.663069,14.986425 C 12.611212,14.909719 12.54469,14.871365 12.463503,14.871363 C 12.38299,14.871365 12.314761,14.911442 12.258814,14.991597 C 12.202867,15.070891 12.174894,15.175609 12.174894,15.305753 C 12.174894,15.434174 12.202186,15.535447 12.25677,15.609567 C 12.312035,15.682828 12.379578,15.719458 12.459408,15.719458 M 14.198208,15.959922 L 13.923926,15.959922 L 13.923926,15.234647 C 13.923926,15.113122 13.909258,15.025211 13.879922,14.970912 C 13.850581,14.915752 13.800432,14.888171 13.729476,14.88817 C 13.667387,14.888171 13.615875,14.917907 13.574942,14.977376 C 13.534004,15.036847 13.513533,15.112691 13.513533,15.204912 L 13.513533,15.959922 L 13.236186,15.959922 L 13.236186,14 L 13.513533,14 L 13.513533,14.820943 C 13.551058,14.743376 13.597794,14.685198 13.653746,14.646413 C 13.710374,14.607628 13.776213,14.588236 13.851262,14.588235 C 13.966567,14.588236 14.053219,14.633485 14.111215,14.723982 C 14.169207,14.81448 14.198202,14.950228 14.198208,15.131222 L 14.198208,15.959922 M 15.454973,15.959922 L 15.180691,15.959922 L 15.180691,15.234647 C 15.180691,15.113122 15.166022,15.025211 15.136684,14.970912 C 15.107345,14.915752 15.057202,14.888171 14.986242,14.88817 C 14.924153,14.888171 14.872645,14.917907 14.831705,14.977376 C 14.790765,15.036847 14.770299,15.112691 14.770299,15.204912 L 14.770299,15.959922 L 14.49295,15.959922 L 14.49295,14.63607 L 14.770299,14.63607 L 14.770299,14.820943 C 14.807827,14.743376 14.854564,14.685198 14.91051,14.646413 C 14.967133,14.607628 15.032972,14.588236 15.108028,14.588235 C 15.223333,14.588236 15.309983,14.633485 15.367977,14.723982 C 15.425972,14.81448 15.454973,14.950228 15.454973,15.131222 L 15.454973,15.959922 M 16.352514,14.106012 L 16.866273,14.106012 C 17.114621,14.106013 17.300888,14.181427 17.425066,14.332256 C 17.549919,14.483087 17.612346,14.7089 17.612346,15.009697 C 17.612346,15.300151 17.542075,15.531136 17.401525,15.70265 C 17.261651,15.874165 17.071979,15.959922 16.832496,15.959922 L 16.352514,15.959922 L 16.352514,14.106012 M 16.638047,15.674208 L 16.82636,15.674208 C 16.980552,15.674208 17.101662,15.616032 17.189677,15.499678 C 17.278374,15.383323 17.322713,15.224306 17.32272,15.022624 C 17.322713,14.826977 17.279733,14.674856 17.193771,14.566256 C 17.107797,14.457661 16.988059,14.403362 16.834549,14.403361 L 16.638047,14.403361 L 16.638047,15.674208 M 18.345122,14.588235 C 18.504773,14.588236 18.632018,14.650291 18.726857,14.774401 C 18.82169,14.898514 18.869117,15.065289 18.869117,15.274726 C 18.869117,15.502263 18.818285,15.67981 18.716627,15.807369 C 18.614964,15.934066 18.478509,15.997415 18.307255,15.997415 C 18.149645,15.997415 18.021379,15.934927 17.922445,15.809954 C 17.824194,15.684982 17.775071,15.521224 17.775071,15.318681 C 17.775071,15.091145 17.826586,14.912735 17.929608,14.783452 C 18.03263,14.653309 18.171139,14.588236 18.345122,14.588235 M 18.32158,15.719458 C 18.404818,15.719458 18.472367,15.681965 18.524219,15.60698 C 18.576754,15.531136 18.603024,15.428141 18.603024,15.297996 C 18.603024,15.166129 18.577091,15.062272 18.525239,14.986425 C 18.473387,14.909719 18.406865,14.871365 18.325676,14.871363 C 18.245161,14.871365 18.176936,14.911442 18.120989,14.991597 C 18.065042,15.070891 18.03707,15.175609 18.03707,15.305753 C 18.03707,15.434174 18.06436,15.535447 18.118942,15.609567 C 18.174206,15.682828 18.241755,15.719458 18.32158,15.719458 M 20,15.374272 L 19.302022,15.374272 C 19.302022,15.482871 19.328286,15.567336 19.380827,15.627667 C 19.434044,15.687137 19.507729,15.716873 19.601885,15.716871 C 19.70559,15.716873 19.805551,15.677656 19.901749,15.599225 L 19.901749,15.886232 C 19.793949,15.956906 19.673184,15.992244 19.539458,15.992244 C 19.377754,15.992244 19.251197,15.932342 19.15977,15.812539 C 19.069025,15.692738 19.023646,15.528981 19.023646,15.321266 C 19.023646,15.097178 19.072092,14.918768 19.168979,14.786036 C 19.266542,14.652447 19.394814,14.585651 19.553783,14.585649 C 19.69365,14.585651 19.802815,14.64081 19.881281,14.75113 C 19.960425,14.860592 20,15.013575 20,15.210084 L 20,15.374272 M 19.744137,15.141564 C 19.744137,15.049343 19.725718,14.977377 19.688873,14.925663 C 19.652718,14.87395 19.601203,14.848094 19.534337,14.848093 C 19.473619,14.848094 19.421078,14.874811 19.376733,14.928248 C 19.332381,14.980824 19.307481,15.051929 19.302022,15.141564 L 19.744137,15.141564"
       style="font-size:4.12102222px;font-style:normal;font-variant:normal;font-weight:bold;font-stretch:normal;text-align:start;line-height:120.00000477%;writing-mode:lr-tb;text-anchor:start;fill:black;fill-opacity:1;stroke:none;stroke-width:1pt;stroke-linecap:butt;stroke-linejoin:miter;stroke-opacity:1;font-family:Segoe" />
    <rect
       inkscape:r_cy="true"
       inkscape:r_cx="true"
       ry="0.50000024"
       rx="0.59999996"
       y="17"
       x="11"
       height="1.0000005"
       width="9"
       id="rect6978"
       style="opacity:0.3976608;color:black;fill:#8d8d8d;fill-opacity:1;fill-rule:evenodd;stroke:none;stroke-width:1;stroke-linecap:butt;stroke-linejoin:miter;marker:none;marker-start:none;marker-mid:none;marker-end:none;stroke-miterlimit:4;stroke-dasharray:none;stroke-dashoffset:0;stroke-opacity:1;visibility:visible;display:inline;overflow:visible" />
    <rect
       inkscape:r_cy="true"
       inkscape:r_cx="true"
       style="opacity:0.3976608;color:black;fill:#8d8d8d;fill-opacity:1;fill-rule:evenodd;stroke:none;stroke-width:1;stroke-linecap:butt;stroke-linejoin:miter;marker:none;marker-start:none;marker-mid:none;marker-end:none;stroke-miterlimit:4;stroke-dasharray:none;stroke-dashoffset:0;stroke-opacity:1;visibility:visible;display:inline;overflow:visible"
       id="rect6980"
       width="7"
       height="1.0000005"
       x="11"
       y="19"
       rx="0.63894409"
       ry="0.50000024" />
    <g
       inkscape:r_cy="true"
       inkscape:r_cx="true"
       style="opacity:0.48538011"
       transform="matrix(0.483699,0,0,0.406529,1.200943,9.80413)"
       id="g7033">
      <rect
         inkscape:r_cy="true"
         inkscape:r_cx="true"
         style="opacity:1;color:black;fill:black;fill-opacity:1;fill-rule:evenodd;stroke:none;stroke-width:1;stroke-linecap:butt;stroke-linejoin:miter;marker:none;marker-start:none;marker-mid:none;marker-end:none;stroke-miterlimit:4;stroke-dasharray:none;stroke-dashoffset:0;stroke-opacity:1;visibility:visible;display:inline;overflow:visible"
         id="rect7003"
         width="1"
         height="6"
         x="6"
         y="30"
         rx="0"
         ry="0" />
      <rect
         inkscape:r_cy="true"
         inkscape:r_cx="true"
         ry="0"
         rx="0"
         y="30"
         x="8.0846453"
         height="2.9851687"
         width="1.9375"
         id="rect7005"
         style="opacity:1;color:black;fill:black;fill-opacity:1;fill-rule:evenodd;stroke:none;stroke-width:1;stroke-linecap:butt;stroke-linejoin:miter;marker:none;marker-start:none;marker-mid:none;marker-end:none;stroke-miterlimit:4;stroke-dasharray:none;stroke-dashoffset:0;stroke-opacity:1;visibility:visible;display:inline;overflow:visible" />
      <rect
         inkscape:r_cy="true"
         inkscape:r_cx="true"
         style="opacity:1;color:black;fill:black;fill-opacity:1;fill-rule:evenodd;stroke:none;stroke-width:1;stroke-linecap:butt;stroke-linejoin:miter;marker:none;marker-start:none;marker-mid:none;marker-end:none;stroke-miterlimit:4;stroke-dasharray:none;stroke-dashoffset:0;stroke-opacity:1;visibility:visible;display:inline;overflow:visible"
         id="rect7007"
         width="1"
         height="2.9851687"
         x="11"
         y="30" />
      <rect
         inkscape:r_cy="true"
         inkscape:r_cx="true"
         style="opacity:1;color:black;fill:black;fill-opacity:1;fill-rule:evenodd;stroke:none;stroke-width:1;stroke-linecap:butt;stroke-linejoin:miter;marker:none;marker-start:none;marker-mid:none;marker-end:none;stroke-miterlimit:4;stroke-dasharray:none;stroke-dashoffset:0;stroke-opacity:1;visibility:visible;display:inline;overflow:visible"
         id="rect7009"
         width="2"
         height="2.9851687"
         x="13"
         y="30" />
      <rect
         inkscape:r_cy="true"
         inkscape:r_cx="true"
         style="opacity:1;color:black;fill:black;fill-opacity:1;fill-rule:evenodd;stroke:none;stroke-width:1;stroke-linecap:butt;stroke-linejoin:miter;marker:none;marker-start:none;marker-mid:none;marker-end:none;stroke-miterlimit:4;stroke-dasharray:none;stroke-dashoffset:0;stroke-opacity:1;visibility:visible;display:inline;overflow:visible"
         id="rect7011"
         width="1"
         height="2.9851687"
         x="16"
         y="30" />
      <rect
         inkscape:r_cy="true"
         inkscape:r_cx="true"
         style="opacity:1;color:black;fill:black;fill-opacity:1;fill-rule:evenodd;stroke:none;stroke-width:1;stroke-linecap:butt;stroke-linejoin:miter;marker:none;marker-start:none;marker-mid:none;marker-end:none;stroke-miterlimit:4;stroke-dasharray:none;stroke-dashoffset:0;stroke-opacity:1;visibility:visible;display:inline;overflow:visible"
         id="rect7013"
         width="1"
         height="2.9851687"
         x="18"
         y="30" />
      <rect
         inkscape:r_cy="true"
         inkscape:r_cx="true"
         style="opacity:1;color:black;fill:black;fill-opacity:1;fill-rule:evenodd;stroke:none;stroke-width:1;stroke-linecap:butt;stroke-linejoin:miter;marker:none;marker-start:none;marker-mid:none;marker-end:none;stroke-miterlimit:4;stroke-dasharray:none;stroke-dashoffset:0;stroke-opacity:1;visibility:visible;display:inline;overflow:visible"
         id="rect7015"
         width="1"
         height="2.9851687"
         x="21"
         y="30" />
      <rect
         inkscape:r_cy="true"
         inkscape:r_cx="true"
         style="opacity:1;color:black;fill:black;fill-opacity:1;fill-rule:evenodd;stroke:none;stroke-width:1;stroke-linecap:butt;stroke-linejoin:miter;marker:none;marker-start:none;marker-mid:none;marker-end:none;stroke-miterlimit:4;stroke-dasharray:none;stroke-dashoffset:0;stroke-opacity:1;visibility:visible;display:inline;overflow:visible"
         id="rect7017"
         width="2"
         height="2.9851687"
         x="23"
         y="30" />
      <rect
         inkscape:r_cy="true"
         inkscape:r_cx="true"
         style="opacity:1;color:black;fill:black;fill-opacity:1;fill-rule:evenodd;stroke:none;stroke-width:1;stroke-linecap:butt;stroke-linejoin:miter;marker:none;marker-start:none;marker-mid:none;marker-end:none;stroke-miterlimit:4;stroke-dasharray:none;stroke-dashoffset:0;stroke-opacity:1;visibility:visible;display:inline;overflow:visible"
         id="rect7019"
         width="2"
         height="2.9851687"
         x="26"
         y="30" />
      <rect
         inkscape:r_cy="true"
         inkscape:r_cx="true"
         style="opacity:1;color:black;fill:black;fill-opacity:1;fill-rule:evenodd;stroke:none;stroke-width:1;stroke-linecap:butt;stroke-linejoin:miter;marker:none;marker-start:none;marker-mid:none;marker-end:none;stroke-miterlimit:4;stroke-dasharray:none;stroke-dashoffset:0;stroke-opacity:1;visibility:visible;display:inline;overflow:visible"
         id="rect7021"
         width="1"
         height="2.9851687"
         x="29"
         y="30" />
      <rect
         inkscape:r_cy="true"
         inkscape:r_cx="true"
         style="opacity:1;color:black;fill:black;fill-opacity:1;fill-rule:evenodd;stroke:none;stroke-width:1;stroke-linecap:butt;stroke-linejoin:miter;marker:none;marker-start:none;marker-mid:none;marker-end:none;stroke-miterlimit:4;stroke-dasharray:none;stroke-dashoffset:0;stroke-opacity:1;visibility:visible;display:inline;overflow:visible"
         id="rect7023"
         width="1"
         height="2.9851687"
         x="31"
         y="30" />
      <rect
         inkscape:r_cy="true"
         inkscape:r_cx="true"
         style="opacity:1;color:black;fill:black;fill-opacity:1;fill-rule:evenodd;stroke:none;stroke-width:1;stroke-linecap:butt;stroke-linejoin:miter;marker:none;marker-start:none;marker-mid:none;marker-end:none;stroke-miterlimit:4;stroke-dasharray:none;stroke-dashoffset:0;stroke-opacity:1;visibility:visible;display:inline;overflow:visible"
         id="rect7025"
         width="1"
         height="2.9851687"
         x="33"
         y="30" />
      <rect
         inkscape:r_cy="true"
         inkscape:r_cx="true"
         style="opacity:1;color:black;fill:black;fill-opacity:1;fill-rule:evenodd;stroke:none;stroke-width:1;stroke-linecap:butt;stroke-linejoin:miter;marker:none;marker-start:none;marker-mid:none;marker-end:none;stroke-miterlimit:4;stroke-dasharray:none;stroke-dashoffset:0;stroke-opacity:1;visibility:visible;display:inline;overflow:visible"
         id="rect7027"
         width="2"
         height="2.9851687"
         x="35"
         y="30" />
      <rect
         inkscape:r_cy="true"
         inkscape:r_cx="true"
         style="opacity:1;color:black;fill:black;fill-opacity:1;fill-rule:evenodd;stroke:none;stroke-width:1;stroke-linecap:butt;stroke-linejoin:miter;marker:none;marker-start:none;marker-mid:none;marker-end:none;stroke-miterlimit:4;stroke-dasharray:none;stroke-dashoffset:0;stroke-opacity:1;visibility:visible;display:inline;overflow:visible"
         id="rect7029"
         width="2"
         height="2.9851687"
         x="39"
         y="30" />
      <rect
         inkscape:r_cy="true"
         inkscape:r_cx="true"
         style="opacity:1;color:black;fill:black;fill-opacity:1;fill-rule:evenodd;stroke:none;stroke-width:1;stroke-linecap:butt;stroke-linejoin:miter;marker:none;marker-start:none;marker-mid:none;marker-end:none;stroke-miterlimit:4;stroke-dasharray:none;stroke-dashoffset:0;stroke-opacity:1;visibility:visible;display:inline;overflow:visible"
         id="rect7031"
         width="1"
         height="6"
         x="42"
         y="30" />
    </g>
    <path
       inkscape:r_cy="true"
       inkscape:r_cx="true"
       id="text7050"
       d="M 5.5786327,23.924544 C 5.6148906,23.932363 5.6431483,23.948629 5.6634007,23.973343 C 5.6839048,23.998059 5.6941593,24.028575 5.6941593,24.06489 C 5.6941593,24.120625 5.6751548,24.16375 5.6371458,24.194266 C 5.5991368,24.224781 5.5451267,24.240039 5.4751111,24.240039 C 5.4516037,24.240039 5.4273458,24.237643 5.4023438,24.232852 C 5.3775878,24.228312 5.3519571,24.221377 5.3254499,24.212046 L 5.3254499,24.138279 C 5.3464571,24.150636 5.369462,24.159968 5.3944641,24.166272 C 5.4194717,24.172577 5.4456012,24.175729 5.4728575,24.175729 C 5.5203712,24.175729 5.5565037,24.166272 5.5812591,24.147358 C 5.6062617,24.128443 5.6187649,24.100953 5.6187649,24.06489 C 5.6187649,24.031601 5.607137,24.005624 5.5838854,23.986962 C 5.5608762,23.968047 5.5287442,23.958591 5.4874895,23.958591 L 5.4222235,23.958591 L 5.4222235,23.895794 L 5.4904879,23.895794 C 5.5277478,23.895795 5.5562521,23.888354 5.5760064,23.873475 C 5.5957606,23.858343 5.6056375,23.836655 5.6056375,23.808408 C 5.6056375,23.779407 5.5953879,23.757213 5.5748839,23.741829 C 5.5546264,23.726193 5.5254935,23.718375 5.4874895,23.718375 C 5.4667339,23.718375 5.4444787,23.720645 5.420724,23.725184 C 5.396965,23.729724 5.3708355,23.736786 5.3423312,23.746368 L 5.3423312,23.678276 C 5.3710871,23.670206 5.3979663,23.664154 5.4229733,23.660118 C 5.4482276,23.656083 5.4719816,23.654066 5.4942368,23.654065 C 5.5517535,23.654066 5.5972602,23.667306 5.6307705,23.693787 C 5.6642766,23.720015 5.6810318,23.755574 5.6810318,23.800465 C 5.6810318,23.831737 5.6721507,23.858217 5.6543992,23.879905 C 5.6366476,23.901343 5.611389,23.916222 5.5786327,23.924544 M 5.9034554,24.164759 L 6.1678891,24.164759 L 6.1678891,24.229068 L 5.8123072,24.229068 L 5.8123072,24.164759 C 5.841068,24.134748 5.8801995,24.094523 5.929711,24.044084 C 5.979474,23.993393 6.0107302,23.960734 6.0234806,23.946107 C 6.0477384,23.918618 6.0646148,23.895416 6.0741189,23.876501 C 6.0838702,23.857335 6.0887465,23.838546 6.0887465,23.820136 C 6.0887465,23.790125 6.0782454,23.765662 6.0572382,23.746747 C 6.0364826,23.727833 6.0093518,23.718375 5.9758463,23.718375 C 5.9520916,23.718375 5.9269586,23.722537 5.900457,23.730859 C 5.874197,23.739182 5.8460698,23.751791 5.816061,23.768688 L 5.816061,23.691517 C 5.846568,23.67916 5.8750723,23.669828 5.9015788,23.663523 C 5.9280854,23.657219 5.9523432,23.654066 5.9743468,23.654065 C 6.0323567,23.654066 6.0786175,23.668693 6.1131292,23.697947 C 6.1476366,23.727202 6.16489,23.766292 6.16489,23.815217 C 6.16489,23.83842 6.1605125,23.860487 6.1517625,23.881419 C 6.1432592,23.902099 6.1276308,23.926561 6.1048774,23.954807 C 6.0986234,23.962121 6.0787436,23.983306 6.0452376,24.01836 C 6.0117315,24.053163 5.9644694,24.101963 5.9034554,24.164759 M 6.535471,23.730859 L 6.344178,24.032357 L 6.535471,24.032357 L 6.535471,23.730859 M 6.5155913,23.664279 L 6.6108654,23.664279 L 6.6108654,24.032357 L 6.6907577,24.032357 L 6.6907577,24.09591 L 6.6108654,24.09591 L 6.6108654,24.229068 L 6.535471,24.229068 L 6.535471,24.09591 L 6.2826659,24.09591 L 6.2826659,24.022143 L 6.5155913,23.664279 M 6.817163,23.664279 L 7.1146046,23.664279 L 7.1146046,23.728589 L 6.8865493,23.728589 L 6.8865493,23.867044 C 6.8975536,23.863261 6.9085578,23.860487 6.9195572,23.858721 C 6.9305614,23.856704 6.9415651,23.855695 6.9525644,23.855695 C 7.0150779,23.855695 7.0645893,23.872971 7.1010994,23.907521 C 7.1376089,23.942072 7.1558636,23.988854 7.1558636,24.047867 C 7.1558636,24.108646 7.1371057,24.155932 7.0995999,24.189726 C 7.0620885,24.223268 7.0092058,24.240039 6.9409365,24.240039 C 6.9174333,24.240039 6.8934277,24.238022 6.8689232,24.233987 C 6.844666,24.229952 6.8195378,24.223899 6.7935295,24.215828 L 6.7935295,24.139035 C 6.8160356,24.151393 6.8392921,24.160598 6.8632978,24.16665 C 6.8872991,24.172703 6.9126837,24.175729 6.9394369,24.175729 C 6.9826993,24.175729 7.0169545,24.164255 7.042213,24.141305 C 7.0674673,24.118355 7.0800966,24.087209 7.0800966,24.047867 C 7.0800966,24.008525 7.0674673,23.977379 7.042213,23.954429 C 7.0169545,23.931479 6.9826993,23.920004 6.9394369,23.920004 C 6.9191844,23.920004 6.898927,23.922275 6.8786746,23.926814 C 6.8586687,23.931354 6.8381653,23.938415 6.817163,23.947998 L 6.817163,23.664279 M 7.7121128,23.714592 C 7.6731024,23.714592 7.6437223,23.734012 7.623968,23.77285 C 7.6044604,23.811435 7.594709,23.869566 7.594709,23.947242 C 7.594709,24.024665 7.6044604,24.082796 7.623968,24.121634 C 7.6437223,24.16022 7.6731024,24.179512 7.7121128,24.179512 C 7.7513698,24.179512 7.7807542,24.16022 7.8002569,24.121634 C 7.8200112,24.082796 7.8298886,24.024665 7.8298886,23.947242 C 7.8298886,23.869566 7.8200112,23.811435 7.8002569,23.77285 C 7.7807542,23.734012 7.7513698,23.714592 7.7121128,23.714592 M 7.7121128,23.654065 C 7.7748772,23.654066 7.8227637,23.67916 7.8557709,23.729346 C 7.8890254,23.77928 7.9056551,23.851912 7.9056551,23.947242 C 7.9056551,24.042319 7.8890254,24.114951 7.8557709,24.165137 C 7.8227637,24.215072 7.7748772,24.240039 7.7121128,24.240039 C 7.6493477,24.240039 7.6013358,24.215072 7.5680819,24.165137 C 7.5350741,24.114951 7.5185705,24.042319 7.5185705,23.947242 C 7.5185705,23.851912 7.5350741,23.77928 7.5680819,23.729346 C 7.6013358,23.67916 7.6493477,23.654066 7.7121128,23.654065 M 8.0399346,23.664279 L 8.3373755,23.664279 L 8.3373755,23.728589 L 8.1093258,23.728589 L 8.1093258,23.867044 C 8.1203301,23.863261 8.1313294,23.860487 8.1423336,23.858721 C 8.1533379,23.856704 8.1643372,23.855695 8.1753415,23.855695 C 8.2378544,23.855695 8.2873658,23.872971 8.3238753,23.907521 C 8.3603804,23.942072 8.3786352,23.988854 8.3786352,24.047867 C 8.3786352,24.108646 8.3598822,24.155932 8.3223764,24.189726 C 8.2848649,24.223268 8.2319773,24.240039 8.1637129,24.240039 C 8.1402104,24.240039 8.1162042,24.238022 8.0916954,24.233987 C 8.0674425,24.229952 8.0423094,24.223899 8.016306,24.215828 L 8.016306,24.139035 C 8.0388127,24.151393 8.0620636,24.160598 8.0860699,24.16665 C 8.1100756,24.172703 8.1354553,24.175729 8.162214,24.175729 C 8.2054708,24.175729 8.2397316,24.164255 8.2649852,24.141305 C 8.2902394,24.118355 8.3028687,24.087209 8.3028687,24.047867 C 8.3028687,24.008525 8.2902394,23.977379 8.2649852,23.954429 C 8.2397316,23.931479 8.2054708,23.920004 8.162214,23.920004 C 8.1419566,23.920004 8.1217041,23.922275 8.1014517,23.926814 C 8.0814458,23.931354 8.0609418,23.938415 8.0399346,23.947998 L 8.0399346,23.664279 M 8.5290462,23.664279 L 8.8264871,23.664279 L 8.8264871,23.728589 L 8.5984374,23.728589 L 8.5984374,23.867044 C 8.6094367,23.863261 8.620441,23.860487 8.6314452,23.858721 C 8.6424445,23.856704 8.6534488,23.855695 8.6644525,23.855695 C 8.7269659,23.855695 8.7764774,23.872971 8.8129819,23.907521 C 8.849492,23.942072 8.8677467,23.988854 8.8677467,24.047867 C 8.8677467,24.108646 8.8489932,24.155932 8.8114824,24.189726 C 8.7739765,24.223268 8.7210889,24.240039 8.6528245,24.240039 C 8.6293171,24.240039 8.6053108,24.238022 8.5808069,24.233987 C 8.5565491,24.229952 8.5314209,24.223899 8.5054175,24.215828 L 8.5054175,24.139035 C 8.5279193,24.151393 8.5511752,24.160598 8.5751815,24.16665 C 8.5991871,24.172703 8.6245669,24.175729 8.651325,24.175729 C 8.6945824,24.175729 8.7288376,24.164255 8.7540968,24.141305 C 8.7793504,24.118355 8.7919797,24.087209 8.7919797,24.047867 C 8.7919797,24.008525 8.7793504,23.977379 8.7540968,23.954429 C 8.7288376,23.931479 8.6945824,23.920004 8.651325,23.920004 C 8.6310676,23.920004 8.6108151,23.922275 8.5905583,23.926814 C 8.5705524,23.931354 8.5500484,23.938415 8.5290462,23.947998 L 8.5290462,23.664279 M 8.9982774,23.664279 L 9.3583572,23.664279 L 9.3583572,23.696813 L 9.1550586,24.229068 L 9.0759161,24.229068 L 9.2672091,23.728589 L 8.9982774,23.728589 L 8.9982774,23.664279 M 9.751822,23.664279 L 10.049263,23.664279 L 10.049263,23.728589 L 9.8212089,23.728589 L 9.8212089,23.867044 C 9.8322132,23.863261 9.8432168,23.860487 9.8542161,23.858721 C 9.8652204,23.856704 9.8762247,23.855695 9.887224,23.855695 C 9.9497375,23.855695 9.9992483,23.872971 10.035758,23.907521 C 10.072268,23.942072 10.090523,23.988854 10.090523,24.047867 C 10.090523,24.108646 10.071765,24.155932 10.034259,24.189726 C 9.9967481,24.223268 9.9438605,24.240039 9.8755961,24.240039 C 9.8520929,24.240039 9.8280873,24.238022 9.8035828,24.233987 C 9.7793256,24.229952 9.7541974,24.223899 9.7281885,24.215828 L 9.7281885,24.139035 C 9.7506952,24.151393 9.7739517,24.160598 9.7979574,24.16665 C 9.8219587,24.172703 9.8473427,24.175729 9.8740965,24.175729 C 9.9173582,24.175729 9.9516141,24.164255 9.9768677,24.141305 C 10.002127,24.118355 10.014751,24.087209 10.014756,24.047867 C 10.014751,24.008525 10.002127,23.977379 9.9768677,23.954429 C 9.9516141,23.931479 9.9173582,23.920004 9.8740965,23.920004 C 9.853844,23.920004 9.8335866,23.922275 9.8133341,23.926814 C 9.7933283,23.931354 9.7728243,23.938415 9.751822,23.947998 L 9.751822,23.664279 M 10.253306,24.164759 L 10.377085,24.164759 L 10.377085,23.733885 L 10.242428,23.761122 L 10.242428,23.691517 L 10.376336,23.664279 L 10.452102,23.664279 L 10.452102,24.164759 L 10.57588,24.164759 L 10.57588,24.229068 L 10.253306,24.229068 L 10.253306,24.164759 M 10.891324,23.714592 C 10.852314,23.714592 10.822935,23.734012 10.80318,23.77285 C 10.783678,23.811435 10.773926,23.869566 10.773926,23.947242 C 10.773926,24.024665 10.783678,24.082796 10.80318,24.121634 C 10.822935,24.16022 10.852314,24.179512 10.891324,24.179512 C 10.930581,24.179512 10.959967,24.16022 10.979469,24.121634 C 10.999223,24.082796 11.0091,24.024665 11.0091,23.947242 C 11.0091,23.869566 10.999223,23.811435 10.979469,23.77285 C 10.959967,23.734012 10.930581,23.714592 10.891324,23.714592 M 10.891324,23.654065 C 10.95409,23.654066 11.001975,23.67916 11.034983,23.729346 C 11.068238,23.77928 11.084867,23.851912 11.084867,23.947242 C 11.084867,24.042319 11.068238,24.114951 11.034983,24.165137 C 11.001975,24.215072 10.95409,24.240039 10.891324,24.240039 C 10.82856,24.240039 10.780553,24.215072 10.747294,24.165137 C 10.714286,24.114951 10.697782,24.042319 10.697782,23.947242 C 10.697782,23.851912 10.714286,23.77928 10.747294,23.729346 C 10.780553,23.67916 10.82856,23.654066 10.891324,23.654065 M 11.38981,23.916221 C 11.355806,23.916222 11.328796,23.927949 11.308796,23.951403 C 11.289041,23.974857 11.279164,24.007012 11.279164,24.047867 C 11.279164,24.08847 11.289041,24.120625 11.308796,24.144331 C 11.328796,24.167785 11.355806,24.179512 11.38981,24.179512 C 11.423819,24.179512 11.450703,24.167785 11.470457,24.144331 C 11.490458,24.120625 11.500461,24.08847 11.500461,24.047867 C 11.500461,24.007012 11.490458,23.974857 11.470457,23.951403 C 11.450703,23.927949 11.423819,23.916222 11.38981,23.916221 M 11.540221,23.676763 L 11.540221,23.746368 C 11.521217,23.73729 11.501961,23.730355 11.482458,23.725563 C 11.463202,23.720771 11.444076,23.718375 11.425072,23.718375 C 11.375057,23.718375 11.336802,23.735399 11.310295,23.769445 C 11.284039,23.803491 11.269035,23.854939 11.265287,23.923787 C 11.28004,23.901847 11.298541,23.885076 11.320796,23.873475 C 11.343051,23.861622 11.367555,23.855695 11.394313,23.855695 C 11.450577,23.855695 11.494961,23.872971 11.527466,23.907521 C 11.560227,23.94182 11.576605,23.988602 11.576605,24.047867 C 11.576605,24.105872 11.559598,24.152402 11.525594,24.187457 C 11.491585,24.222511 11.446326,24.240039 11.38981,24.240039 C 11.325048,24.240039 11.275536,24.215072 11.241281,24.165137 C 11.20702,24.114951 11.189893,24.042319 11.189893,23.947242 C 11.189893,23.857965 11.210895,23.786846 11.252909,23.733885 C 11.294918,23.680673 11.351303,23.654066 11.422068,23.654065 C 11.441072,23.654066 11.460203,23.655958 11.479459,23.65974 C 11.498962,23.663524 11.519214,23.669198 11.540221,23.676763 M 11.952811,23.664279 L 12.250256,23.664279 L 12.250256,23.728589 L 12.022201,23.728589 L 12.022201,23.867044 C 12.033205,23.863261 12.04421,23.860487 12.055209,23.858721 C 12.066213,23.856704 12.077218,23.855695 12.088217,23.855695 C 12.15073,23.855695 12.200241,23.872971 12.236751,23.907521 C 12.273261,23.942072 12.291515,23.988854 12.291515,24.047867 C 12.291515,24.108646 12.272758,24.155932 12.235251,24.189726 C 12.19774,24.223268 12.144853,24.240039 12.076588,24.240039 C 12.053086,24.240039 12.029079,24.238022 12.004576,24.233987 C 11.980318,24.229952 11.95519,24.223899 11.929183,24.215828 L 11.929183,24.139035 C 11.951689,24.151393 11.974944,24.160598 11.99895,24.16665 C 12.022951,24.172703 12.048336,24.175729 12.075089,24.175729 C 12.118351,24.175729 12.152606,24.164255 12.177861,24.141305 C 12.203119,24.118355 12.215744,24.087209 12.215748,24.047867 C 12.215744,24.008525 12.203119,23.977379 12.177861,23.954429 C 12.152606,23.931479 12.118351,23.920004 12.075089,23.920004 C 12.054836,23.920004 12.034579,23.922275 12.014327,23.926814 C 11.994321,23.931354 11.973817,23.938415 11.952811,23.947998 L 11.952811,23.664279 M 12.649346,23.730859 L 12.458053,24.032357 L 12.649346,24.032357 L 12.649346,23.730859 M 12.629466,23.664279 L 12.724735,23.664279 L 12.724735,24.032357 L 12.804628,24.032357 L 12.804628,24.09591 L 12.724735,24.09591 L 12.724735,24.229068 L 12.649346,24.229068 L 12.649346,24.09591 L 12.396536,24.09591 L 12.396536,24.022143 L 12.629466,23.664279 M 13.092317,23.714592 C 13.053307,23.714592 13.023927,23.734012 13.004173,23.77285 C 12.98467,23.811435 12.974918,23.869566 12.974918,23.947242 C 12.974918,24.024665 12.98467,24.082796 13.004173,24.121634 C 13.023927,24.16022 13.053307,24.179512 13.092317,24.179512 C 13.131574,24.179512 13.160959,24.16022 13.180461,24.121634 C 13.200216,24.082796 13.210093,24.024665 13.210093,23.947242 C 13.210093,23.869566 13.200216,23.811435 13.180461,23.77285 C 13.160959,23.734012 13.131574,23.714592 13.092317,23.714592 M 13.092317,23.654065 C 13.155082,23.654066 13.202968,23.67916 13.235976,23.729346 C 13.26923,23.77928 13.28586,23.851912 13.28586,23.947242 C 13.28586,24.042319 13.26923,24.114951 13.235976,24.165137 C 13.202968,24.215072 13.155082,24.240039 13.092317,24.240039 C 13.029552,24.240039 12.98154,24.215072 12.948286,24.165137 C 12.915279,24.114951 12.898775,24.042319 12.898775,23.947242 C 12.898775,23.851912 12.915279,23.77928 12.948286,23.729346 C 12.98154,23.67916 13.029552,23.654066 13.092317,23.654065 M 13.590803,23.916221 C 13.556799,23.916222 13.529789,23.927949 13.509788,23.951403 C 13.490034,23.974857 13.480157,24.007012 13.480157,24.047867 C 13.480157,24.08847 13.490034,24.120625 13.509788,24.144331 C 13.529789,24.167785 13.556799,24.179512 13.590803,24.179512 C 13.624812,24.179512 13.651691,24.167785 13.671445,24.144331 C 13.691451,24.120625 13.701453,24.08847 13.701453,24.047867 C 13.701453,24.007012 13.691451,23.974857 13.671445,23.951403 C 13.651691,23.927949 13.624812,23.916222 13.590803,23.916221 M 13.741214,23.676763 L 13.741214,23.746368 C 13.722209,23.73729 13.702953,23.730355 13.68345,23.725563 C 13.664194,23.720771 13.645064,23.718375 13.626065,23.718375 C 13.57605,23.718375 13.537794,23.735399 13.511287,23.769445 C 13.485032,23.803491 13.470028,23.854939 13.466274,23.923787 C 13.481028,23.901847 13.499534,23.885076 13.521788,23.873475 C 13.544044,23.861622 13.568548,23.855695 13.595306,23.855695 C 13.65157,23.855695 13.695954,23.872971 13.728459,23.907521 C 13.761219,23.94182 13.777598,23.988602 13.777598,24.047867 C 13.777598,24.105872 13.760591,24.152402 13.726587,24.187457 C 13.692578,24.222511 13.647318,24.240039 13.590803,24.240039 C 13.52604,24.240039 13.476529,24.215072 13.442273,24.165137 C 13.408013,24.114951 13.390885,24.042319 13.390885,23.947242 C 13.390885,23.857965 13.411887,23.786846 13.453897,23.733885 C 13.495906,23.680673 13.552295,23.654066 13.623061,23.654065 C 13.642065,23.654066 13.661196,23.655958 13.680452,23.65974 C 13.699955,23.663524 13.720207,23.669198 13.741214,23.676763 M 14.153804,23.664279 L 14.45125,23.664279 L 14.45125,23.728589 L 14.223195,23.728589 L 14.223195,23.867044 C 14.234199,23.863261 14.245204,23.860487 14.256203,23.858721 C 14.267207,23.856704 14.278207,23.855695 14.289211,23.855695 C 14.351724,23.855695 14.401235,23.872971 14.437745,23.907521 C 14.474255,23.942072 14.492505,23.988854 14.49251,24.047867 C 14.492505,24.108646 14.473752,24.155932 14.436245,24.189726 C 14.398734,24.223268 14.345847,24.240039 14.277582,24.240039 C 14.25408,24.240039 14.230074,24.238022 14.20557,24.233987 C 14.181312,24.229952 14.156184,24.223899 14.130175,24.215828 L 14.130175,24.139035 C 14.152682,24.151393 14.175938,24.160598 14.199939,24.16665 C 14.223945,24.172703 14.24933,24.175729 14.276083,24.175729 C 14.319345,24.175729 14.3536,24.164255 14.378855,24.141305 C 14.404113,24.118355 14.416738,24.087209 14.416738,24.047867 C 14.416738,24.008525 14.404113,23.977379 14.378855,23.954429 C 14.3536,23.931479 14.319345,23.920004 14.276083,23.920004 C 14.25583,23.920004 14.235574,23.922275 14.215321,23.926814 C 14.195315,23.931354 14.174811,23.938415 14.153804,23.947998 L 14.153804,23.664279 M 14.850335,23.730859 L 14.659048,24.032357 L 14.850335,24.032357 L 14.850335,23.730859 M 14.830463,23.664279 L 14.925726,23.664279 L 14.925726,24.032357 L 15.005624,24.032357 L 15.005624,24.09591 L 14.925726,24.09591 L 14.925726,24.229068 L 14.850335,24.229068 L 14.850335,24.09591 L 14.597527,24.09591 L 14.597527,24.022143 L 14.830463,23.664279 M 15.302689,23.916221 C 15.26868,23.916222 15.241675,23.927949 15.221673,23.951403 C 15.201918,23.974857 15.19204,24.007012 15.19204,24.047867 C 15.19204,24.08847 15.201918,24.120625 15.221673,24.144331 C 15.241675,24.167785 15.26868,24.179512 15.302689,24.179512 C 15.336697,24.179512 15.363579,24.167785 15.383334,24.144331 C 15.403336,24.120625 15.413337,24.08847 15.413343,24.047867 C 15.413337,24.007012 15.403336,23.974857 15.383334,23.951403 C 15.363579,23.927949 15.336697,23.916222 15.302689,23.916221 M 15.453094,23.676763 L 15.453094,23.746368 C 15.434093,23.73729 15.414839,23.730355 15.395332,23.725563 C 15.376084,23.720771 15.356953,23.718375 15.337946,23.718375 C 15.287934,23.718375 15.249679,23.735399 15.223169,23.769445 C 15.196917,23.803491 15.181909,23.854939 15.178164,23.923787 C 15.192912,23.901847 15.211418,23.885076 15.23367,23.873475 C 15.255929,23.861622 15.280437,23.855695 15.307189,23.855695 C 15.363455,23.855695 15.407836,23.872971 15.440349,23.907521 C 15.473103,23.94182 15.489483,23.988602 15.489483,24.047867 C 15.489483,24.105872 15.472478,24.152402 15.43847,24.187457 C 15.404461,24.222511 15.359203,24.240039 15.302689,24.240039 C 15.237923,24.240039 15.188412,24.215072 15.154156,24.165137 C 15.119894,24.114951 15.102766,24.042319 15.102766,23.947242 C 15.102766,23.857965 15.123776,23.786846 15.165783,23.733885 C 15.207796,23.680673 15.26418,23.654066 15.334948,23.654065 C 15.353949,23.654066 15.373079,23.655958 15.392334,23.65974 C 15.411835,23.663524 15.432097,23.669198 15.453094,23.676763 M 15.621134,23.664279 L 15.918577,23.664279 L 15.918577,23.728589 L 15.690524,23.728589 L 15.690524,23.867044 C 15.701526,23.863261 15.712535,23.860487 15.723531,23.858721 C 15.73454,23.856704 15.745536,23.855695 15.756538,23.855695 C 15.819054,23.855695 15.868565,23.872971 15.905077,23.907521 C 15.941583,23.942072 15.959836,23.988854 15.959836,24.047867 C 15.959836,24.108646 15.941082,24.155932 15.903575,24.189726 C 15.866062,24.223268 15.813176,24.240039 15.744912,24.240039 C 15.721411,24.240039 15.697403,24.238022 15.672901,24.233987 C 15.64864,24.229952 15.623514,24.223899 15.597504,24.215828 L 15.597504,24.139035 C 15.620009,24.151393 15.643269,24.160598 15.66727,24.16665 C 15.691272,24.172703 15.716658,24.175729 15.74341,24.175729 C 15.786677,24.175729 15.820927,24.164255 15.846183,24.141305 C 15.871445,24.118355 15.884067,24.087209 15.884067,24.047867 C 15.884067,24.008525 15.871445,23.977379 15.846183,23.954429 C 15.820927,23.931479 15.786677,23.920004 15.74341,23.920004 C 15.72316,23.920004 15.702905,23.922275 15.682649,23.926814 C 15.662647,23.931354 15.642138,23.938415 15.621134,23.947998 L 15.621134,23.664279 M 16.334919,23.664279 L 16.695001,23.664279 L 16.695001,23.696813 L 16.491703,24.229068 L 16.41256,24.229068 L 16.603854,23.728589 L 16.334919,23.728589 L 16.334919,23.664279 M 17.005201,23.714592 C 16.966192,23.714592 16.936806,23.734012 16.917052,23.77285 C 16.897544,23.811435 16.887796,23.869566 16.887796,23.947242 C 16.887796,24.024665 16.897544,24.082796 16.917052,24.121634 C 16.936806,24.16022 16.966192,24.179512 17.005201,24.179512 C 17.044457,24.179512 17.073836,24.16022 17.093344,24.121634 C 17.113098,24.082796 17.122976,24.024665 17.122976,23.947242 C 17.122976,23.869566 17.113098,23.811435 17.093344,23.77285 C 17.073836,23.734012 17.044457,23.714592 17.005201,23.714592 M 17.005201,23.654065 C 17.067958,23.654066 17.115843,23.67916 17.14885,23.729346 C 17.182111,23.77928 17.198744,23.851912 17.198744,23.947242 C 17.198744,24.042319 17.182111,24.114951 17.14885,24.165137 C 17.115843,24.215072 17.067958,24.240039 17.005201,24.240039 C 16.942431,24.240039 16.894422,24.215072 16.861162,24.165137 C 16.828155,24.114951 16.811651,24.042319 16.811651,23.947242 C 16.811651,23.851912 16.828155,23.77928 16.861162,23.729346 C 16.894422,23.67916 16.942431,23.654066 17.005201,23.654065 M 17.503684,23.916221 C 17.469676,23.916222 17.44267,23.927949 17.422662,23.951403 C 17.402913,23.974857 17.393036,24.007012 17.393036,24.047867 C 17.393036,24.08847 17.402913,24.120625 17.422662,24.144331 C 17.44267,24.167785 17.469676,24.179512 17.503684,24.179512 C 17.537686,24.179512 17.564574,24.167785 17.584329,24.144331 C 17.604325,24.120625 17.614332,24.08847 17.614332,24.047867 C 17.614332,24.007012 17.604325,23.974857 17.584329,23.951403 C 17.564574,23.927949 17.537686,23.916222 17.503684,23.916221 M 17.65409,23.676763 L 17.65409,23.746368 C 17.635089,23.73729 17.615828,23.730355 17.596327,23.725563 C 17.577079,23.720771 17.557948,23.718375 17.538941,23.718375 C 17.48893,23.718375 17.450669,23.735399 17.424164,23.769445 C 17.397906,23.803491 17.382905,23.854939 17.379159,23.923787 C 17.393907,23.901847 17.412407,23.885076 17.434666,23.873475 C 17.456918,23.861622 17.481432,23.855695 17.508184,23.855695 C 17.564445,23.855695 17.608831,23.872971 17.641338,23.907521 C 17.674098,23.94182 17.690472,23.988602 17.690472,24.047867 C 17.690472,24.105872 17.673474,24.152402 17.639465,24.187457 C 17.605456,24.222511 17.560192,24.240039 17.503684,24.240039 C 17.438918,24.240039 17.389407,24.215072 17.355152,24.165137 C 17.32089,24.114951 17.303762,24.042319 17.303762,23.947242 C 17.303762,23.857965 17.324771,23.786846 17.366778,23.733885 C 17.408785,23.680673 17.465169,23.654066 17.535937,23.654065 C 17.554944,23.654066 17.574075,23.655958 17.593329,23.65974 C 17.61283,23.663524 17.633086,23.669198 17.65409,23.676763 M 17.82213,23.664279 L 18.119572,23.664279 L 18.119572,23.728589 L 17.891519,23.728589 L 17.891519,23.867044 C 17.902521,23.863261 17.91353,23.860487 17.924526,23.858721 C 17.935529,23.856704 17.946537,23.855695 17.957534,23.855695 C 18.02005,23.855695 18.06956,23.872971 18.106066,23.907521 C 18.142578,23.942072 18.160831,23.988854 18.160831,24.047867 C 18.160831,24.108646 18.142077,24.155932 18.10457,24.189726 C 18.067057,24.223268 18.014171,24.240039 17.945907,24.240039 C 17.9224,24.240039 17.898399,24.238022 17.873891,24.233987 C 17.849636,24.229952 17.824509,24.223899 17.798499,24.215828 L 17.798499,24.139035 C 17.821005,24.151393 17.844264,24.160598 17.868266,24.16665 C 17.892267,24.172703 17.917653,24.175729 17.944405,24.175729 C 17.987667,24.175729 18.021922,24.164255 18.047178,24.141305 C 18.072435,24.118355 18.085063,24.087209 18.085069,24.047867 C 18.085063,24.008525 18.072435,23.977379 18.047178,23.954429 C 18.021922,23.931479 17.987667,23.920004 17.944405,23.920004 C 17.924155,23.920004 17.903894,23.922275 17.883644,23.926814 C 17.863636,23.931354 17.843133,23.938415 17.82213,23.947998 L 17.82213,23.664279 M 18.535914,23.664279 L 18.895996,23.664279 L 18.895996,23.696813 L 18.692699,24.229068 L 18.613555,24.229068 L 18.804849,23.728589 L 18.535914,23.728589 L 18.535914,23.664279 M 19.215567,23.916221 C 19.181558,23.916222 19.154553,23.927949 19.134551,23.951403 C 19.114796,23.974857 19.104918,24.007012 19.104918,24.047867 C 19.104918,24.08847 19.114796,24.120625 19.134551,24.144331 C 19.154553,24.167785 19.181558,24.179512 19.215567,24.179512 C 19.249575,24.179512 19.276457,24.167785 19.296212,24.144331 C 19.316214,24.120625 19.326215,24.08847 19.326215,24.047867 C 19.326215,24.007012 19.316214,23.974857 19.296212,23.951403 C 19.276457,23.927949 19.249575,23.916222 19.215567,23.916221 M 19.365978,23.676763 L 19.365978,23.746368 C 19.346971,23.73729 19.327717,23.730355 19.308216,23.725563 C 19.288961,23.720771 19.269831,23.718375 19.250824,23.718375 C 19.200812,23.718375 19.162551,23.735399 19.136046,23.769445 C 19.109789,23.803491 19.094787,23.854939 19.091042,23.923787 C 19.10579,23.901847 19.124296,23.885076 19.146554,23.873475 C 19.168806,23.861622 19.193315,23.855695 19.220073,23.855695 C 19.276327,23.855695 19.320714,23.872971 19.35322,23.907521 C 19.38598,23.94182 19.402354,23.988602 19.402354,24.047867 C 19.402354,24.105872 19.385356,24.152402 19.351347,24.187457 C 19.317339,24.222511 19.272081,24.240039 19.215567,24.240039 C 19.150807,24.240039 19.101296,24.215072 19.067034,24.165137 C 19.032778,24.114951 19.01565,24.042319 19.01565,23.947242 C 19.01565,23.857965 19.036654,23.786846 19.078661,23.733885 C 19.120668,23.680673 19.177058,23.654066 19.247826,23.654065 C 19.266827,23.654066 19.285957,23.655958 19.305212,23.65974 C 19.324719,23.663524 19.344969,23.669198 19.365978,23.676763 M 19.514134,23.664279 L 19.874215,23.664279 L 19.874215,23.696813 L 19.670918,24.229068 L 19.591781,24.229068 L 19.783068,23.728589 L 19.514134,23.728589 L 19.514134,23.664279 M 20.024627,24.217342 L 20.024627,24.147736 C 20.043628,24.156815 20.062882,24.16375 20.082384,24.168542 C 20.101891,24.173334 20.121022,24.175729 20.139775,24.175729 C 20.189787,24.175729 20.227918,24.158832 20.254176,24.125039 C 20.28068,24.090992 20.295806,24.039419 20.299558,23.970317 C 20.285057,23.992006 20.26668,24.008651 20.244422,24.020252 C 20.22217,24.031853 20.197538,24.037654 20.170533,24.037654 C 20.114519,24.037654 20.070133,24.02063 20.037379,23.986584 C 20.004866,23.952286 19.988616,23.905504 19.988616,23.846238 C 19.988616,23.788234 20.00562,23.741703 20.039622,23.706648 C 20.073637,23.671594 20.118895,23.654066 20.17541,23.654065 C 20.240169,23.654066 20.289556,23.67916 20.323565,23.729346 C 20.357821,23.77928 20.374949,23.851912 20.374955,23.947242 C 20.374949,24.036266 20.353945,24.107385 20.311938,24.160598 C 20.270179,24.213559 20.213918,24.240039 20.14315,24.240039 C 20.124149,24.240039 20.104889,24.238147 20.085388,24.234365 C 20.06588,24.230582 20.045631,24.224907 20.024627,24.217342 M 20.17541,23.977883 C 20.209412,23.977883 20.2363,23.966156 20.256049,23.942702 C 20.276051,23.919248 20.286058,23.887093 20.286058,23.846238 C 20.286058,23.805635 20.276051,23.773607 20.256049,23.750152 C 20.2363,23.726446 20.209412,23.714592 20.17541,23.714592 C 20.141401,23.714592 20.114396,23.726446 20.094387,23.750152 C 20.074639,23.773607 20.064761,23.805635 20.064761,23.846238 C 20.064761,23.887093 20.074639,23.919248 20.094387,23.942702 C 20.114396,23.966156 20.141401,23.977883 20.17541,23.977883 M 20.513734,24.217342 L 20.513734,24.147736 C 20.532734,24.156815 20.551995,24.16375 20.571496,24.168542 C 20.590998,24.173334 20.610128,24.175729 20.628888,24.175729 C 20.678893,24.175729 20.717031,24.158832 20.743288,24.125039 C 20.769793,24.090992 20.784918,24.039419 20.78867,23.970317 C 20.774163,23.992006 20.755787,24.008651 20.733535,24.020252 C 20.711283,24.031853 20.686645,24.037654 20.659639,24.037654 C 20.603626,24.037654 20.559245,24.02063 20.526485,23.986584 C 20.493979,23.952286 20.477729,23.905504 20.477729,23.846238 C 20.477729,23.788234 20.494727,23.741703 20.528735,23.706648 C 20.562744,23.671594 20.608008,23.654066 20.664516,23.654065 C 20.729282,23.654066 20.778669,23.67916 20.812678,23.729346 C 20.846934,23.77928 20.864062,23.851912 20.864062,23.947242 C 20.864062,24.036266 20.843058,24.107385 20.801051,24.160598 C 20.759285,24.213559 20.703031,24.240039 20.632257,24.240039 C 20.613256,24.240039 20.594002,24.238147 20.574494,24.234365 C 20.554993,24.230582 20.534737,24.224907 20.513734,24.217342 M 20.664516,23.977883 C 20.698525,23.977883 20.725406,23.966156 20.745155,23.942702 C 20.765164,23.919248 20.775165,23.887093 20.775165,23.846238 C 20.775165,23.805635 20.765164,23.773607 20.745155,23.750152 C 20.725406,23.726446 20.698525,23.714592 20.664516,23.714592 C 20.630514,23.714592 20.603502,23.726446 20.5835,23.750152 C 20.563745,23.773607 20.553868,23.805635 20.553868,23.846238 C 20.553868,23.887093 20.563745,23.919248 20.5835,23.942702 C 20.603502,23.966156 20.630514,23.977883 20.664516,23.977883"
       style="font-size:1.58812129px;font-style:normal;font-variant:normal;font-weight:normal;font-stretch:normal;line-height:120.00000477%;writing-mode:lr-tb;text-anchor:start;fill:black;fill-opacity:1;stroke:none;stroke-width:1pt;stroke-linecap:butt;stroke-linejoin:miter;stroke-opacity:1;font-family:Bitstream Vera Sans" />
    <g
       id="g2497"
       transform="matrix(0.972895,0,0,0.954239,4.086434e-2,1.095048)">
      <rect
         style="color:black;fill:url(#linearGradient2503);fill-opacity:1;fill-rule:evenodd;stroke:none;stroke-width:1;stroke-linecap:butt;stroke-linejoin:miter;marker:none;marker-start:none;marker-mid:none;marker-end:none;stroke-miterlimit:4;stroke-dasharray:none;stroke-dashoffset:0;stroke-opacity:1;visibility:visible;display:inline;overflow:visible"
         id="rect6553"
         width="6.16716"
         height="7.317523"
         x="4.069437"
         y="13.523819"
         inkscape:r_cx="true"
         inkscape:r_cy="true"
         rx="0.19316009"
         ry="0.19537205" />
      <g
         id="g6935"
         transform="matrix(0.185698,0,0,0.187286,0.180734,13.22809)"
         inkscape:r_cx="true"
         inkscape:r_cy="true"
         style="fill:#939393;fill-opacity:1;stroke:none">
        <path
           sodipodi:nodetypes="ccccc"
           id="path2329"
           d="M 50.301157,40.747425 C 51.336796,37.764949 50.477934,31.855136 43.76042,27.258942 L 31.209274,27.258942 C 24.49176,31.501582 23.652283,37.303773 25.198867,40.69397 C 25.198867,40.69397 50.301157,40.747425 50.301157,40.747425 z "
           style="opacity:1;color:black;fill:#939393;fill-opacity:1;fill-rule:evenodd;stroke:none;stroke-width:2.29990602px;stroke-linecap:round;stroke-linejoin:round;marker:none;marker-start:none;marker-mid:none;marker-end:none;stroke-miterlimit:4;stroke-dasharray:none;stroke-dashoffset:0;stroke-opacity:1;visibility:visible;display:inline;overflow:visible"
           inkscape:r_cx="true"
           inkscape:r_cy="true" />
        <path
           transform="translate(6.407083,1.742408)"
           d="M 39.774755 19.008621 A 8.6620579 8.6620579 0 1 1  22.45064,19.008621 A 8.6620579 8.6620579 0 1 1  39.774755 19.008621 z"
           sodipodi:ry="8.6620579"
           sodipodi:rx="8.6620579"
           sodipodi:cy="19.008621"
           sodipodi:cx="31.112698"
           id="path2327"
           style="opacity:1;color:black;fill:#939393;fill-opacity:1;fill-rule:evenodd;stroke:none;stroke-width:2.29990602px;stroke-linecap:round;stroke-linejoin:round;marker:none;marker-start:none;marker-mid:none;marker-end:none;stroke-miterlimit:4;stroke-dasharray:none;stroke-dashoffset:0;stroke-opacity:1;visibility:visible;display:inline;overflow:visible"
           sodipodi:type="arc"
           inkscape:r_cx="true"
           inkscape:r_cy="true" />
      </g>
    </g>
    <rect
       style="color:black;fill:none;fill-opacity:1;fill-rule:evenodd;stroke:white;stroke-width:1.00000012;stroke-linecap:butt;stroke-linejoin:miter;marker:none;marker-start:none;marker-mid:none;marker-end:none;stroke-miterlimit:4;stroke-dasharray:none;stroke-dashoffset:0;stroke-opacity:1;visibility:visible;display:inline;overflow:visible"
       id="rect6555"
       width="19.000004"
       height="13.000009"
       x="3.5000002"
       y="12.499999"
       rx="1.0555249"
       ry="1.0504751"
       inkscape:r_cx="true"
       inkscape:r_cy="true" />
  </g>
</svg>
