<svg xmlns="http://www.w3.org/2000/svg" width="16" height="16">
    <g fill="#2e3436">
        <path d="M143.75 348.015c-.165.034-.323.136-.5.313l-3.25 3.25v1.406h1.407l3.25-3.25c.707-.707 0-1.406 0-1.406s-.41-.412-.907-.313zM140 354.984v2l6 .016c1 .003 1-1 1-1s0-.997-1-1zM140 358.984v1.406l3.25 3.25c.708.708 1.407 0 1.407 0s.707-.699 0-1.406l-3.25-3.25z" filter="url(#filter7554)" transform="translate(-132 -348)"/>
        <path d="M1 5h2.484l2.97-3L7 2.016v12h-.475L3.485 11H1z" style="marker:none" color="#bebebe" overflow="visible"/>
    </g>
</svg>
