<svg xmlns="http://www.w3.org/2000/svg" xmlns:xlink="http://www.w3.org/1999/xlink" width="128" version="1.0" height="128">
    <defs>
        <linearGradient y2="276" y1="282" x2="68" x1="68" id="f" xlink:href="#a" gradientUnits="userSpaceOnUse" gradientTransform="matrix(4 0 0 4 860 -840)"/>
        <linearGradient id="a">
            <stop offset="0" stop-color="#c0bfbc"/>
            <stop offset="1" stop-color="#acaba7"/>
        </linearGradient>
        <linearGradient y2="288" y1="284" x2="66" x1="66" id="g" xlink:href="#b" gradientUnits="userSpaceOnUse" gradientTransform="matrix(4 0 0 4 860 -840)"/>
        <linearGradient id="b">
            <stop offset="0" stop-color="#f6f5f4"/>
            <stop offset="1" stop-color="#d7d3ce"/>
        </linearGradient>
        <linearGradient y2="44" y1="44" x2="464" x1="48" id="h" xlink:href="#c" gradientUnits="userSpaceOnUse" gradientTransform="translate(860 -20)"/>
        <linearGradient id="c">
            <stop offset="0" stop-color="#babdb6"/>
            <stop offset=".042" stop-color="#f6f5f4"/>
            <stop offset=".083" stop-color="#d5d3cf"/>
            <stop offset=".917" stop-color="#deddda"/>
            <stop offset=".958" stop-color="#f6f5f4"/>
            <stop offset="1" stop-color="#babdb6"/>
        </linearGradient>
        <radialGradient r="44" id="i" xlink:href="#d" gradientUnits="userSpaceOnUse" gradientTransform="matrix(-18.04959 0 0 -5.03497 39.174 814.05)" fy="194.19" fx="64" cy="194.19" cx="64"/>
        <linearGradient id="d">
            <stop offset="0" stop-color="#fff"/>
            <stop offset="1" stop-color="#fff" stop-opacity=".094"/>
        </linearGradient>
        <linearGradient y2="269.137" y1="245.395" x2="70.347" x1="70.347" id="j" xlink:href="#e" gradientUnits="userSpaceOnUse" gradientTransform="matrix(4 0 0 4 868 -912)"/>
        <linearGradient id="e">
            <stop offset="0" stop-color="#2d2839"/>
            <stop offset="1" stop-color="#282433"/>
        </linearGradient>
    </defs>
    <g transform="translate(0 -2242)">
        <g transform="matrix(.25 0 0 .25 -215 2280)">
            <path d="M1084 104l-16 192h96l-16-192h-32z" fill="url(#f)"/>
            <path d="M1036 296h160.25c7.75 0 15.75 8 15.75 16h-192c0-8 8-16 16-16z" fill="url(#g)"/>
            <rect y="-104" x="908" width="416" style="marker:none" ry="32" rx="32" height="368" fill="url(#h)"/>
            <rect y="-104" x="908" width="416" style="marker:none" ry="32" rx="32" height="352" fill="#f6f5f4"/>
            <rect y="-88" x="924" width="384" style="marker:none" ry="15" rx="15" height="288" fill="#241f31"/>
            <rect y="-176" x="-1284" width="336" transform="scale(-1)" style="marker:none" height="240" opacity=".05" fill="url(#i)"/>
            <path style="marker:none" d="M1268 64h16v16h-16zm-32 0h16v16h-16zm-32 0h16v16h-16zm-32 0h16v16h-16zm-32 0h16v16h-16zm-32 0h16v16h-16zm-32 0h16v16h-16zm-32 0h16v16h-16zm-32 0h16v16h-16zm-32 0h16v16h-16zm-32 0h16v16h-16zm336 16v16zm-32 0h16v16h-16zm-32 0h16v16h-16zm-32 0h16v16h-16zm-32 0h16v16h-16zm-32 0h16v16h-16zm-32 0h16v16h-16zm-32 0h16v16h-16zm-32 0h16v16h-16zm-32 0h16v16h-16zm-32 0h16v16h-16zm304 16h16v16h-16zm-32 0h16v16h-16zm-32 0h16v16h-16zm-32 0h16v16h-16zm-32 0h16v16h-16zm-32 0h16v16h-16zm-32 0h16v16h-16zm-32 0h16v16h-16zm-32 0h16v16h-16zm-32 0h16v16h-16zm-32 0h16v16h-16zm336 16v16zm-32 0h16v16h-16zm-32 0h16v16h-16zm-32 0h16v16h-16zm-32 0h16v16h-16zm-32 0h16v16h-16zm-32 0h16v16h-16zm-32 0h16v16h-16zm-32 0h16v16h-16zm-32 0h16v16h-16zm-32 0h16v16h-16zm304 16h16v16h-16zm-32 0h16v16h-16zm-32 0h16v16h-16zm-32 0h16v16h-16zm-32 0h16v16h-16zm-32 0h16v16h-16zm-32 0h16v16h-16zm-32 0h16v16h-16zm-32 0h16v16h-16zm-32 0h16v16h-16zm-32 0h16v16h-16zm336 16v16zm-32 0h16v16h-16zm-32 0h16v16h-16zm-32 0h16v16h-16zm-32 0h16v16h-16zm-32 0h16v16h-16zm-32 0h16v16h-16zm-32 0h16v16h-16zm-32 0h16v16h-16zm-32 0h16v16h-16zm-32 0h16v16h-16zm304 16h16v16h-16zm-32 0h16v16h-16zm-32 0h16v16h-16zm-32 0h16v16h-16zm-32 0h16v16h-16zm-32 0h16v16h-16zm-32 0h16v16h-16zm-32 0h16v16h-16zm-32 0h16v16h-16zm-32 0h16v16h-16zm-32 0h16v16h-16z" fill="url(#j)"/>
        </g>
    </g>
</svg>
