<?xml version="1.0" encoding="UTF-8"?>
<svg height="16px" viewBox="0 0 16 16" width="16px" xmlns="http://www.w3.org/2000/svg" xmlns:xlink="http://www.w3.org/1999/xlink">
    <filter id="a" height="100%" width="100%" x="0%" y="0%">
        <feColorMatrix in="SourceGraphic" type="matrix" values="0 0 0 0 1 0 0 0 0 1 0 0 0 0 1 0 0 0 1 0"/>
    </filter>
    <mask id="b">
        <g filter="url(#a)">
            <path d="m 0 0 h 16 v 16 h -16 z" fill-opacity="0.5"/>
        </g>
    </mask>
    <clipPath id="c">
        <path d="m 0 0 h 720 v 1024 h -720 z"/>
    </clipPath>
    <mask id="d">
        <g filter="url(#a)">
            <path d="m 0 0 h 16 v 16 h -16 z" fill-opacity="0.35"/>
        </g>
    </mask>
    <clipPath id="e">
        <path d="m 0 0 h 720 v 1024 h -720 z"/>
    </clipPath>
    <mask id="f">
        <g filter="url(#a)">
            <path d="m 0 0 h 16 v 16 h -16 z" fill-opacity="0.35"/>
        </g>
    </mask>
    <clipPath id="g">
        <path d="m 0 0 h 720 v 1024 h -720 z"/>
    </clipPath>
    <mask id="h">
        <g filter="url(#a)">
            <path d="m 0 0 h 16 v 16 h -16 z" fill-opacity="0.35"/>
        </g>
    </mask>
    <clipPath id="i">
        <path d="m 0 0 h 720 v 1024 h -720 z"/>
    </clipPath>
    <mask id="j">
        <g filter="url(#a)">
            <path d="m 0 0 h 16 v 16 h -16 z" fill-opacity="0.35"/>
        </g>
    </mask>
    <clipPath id="k">
        <path d="m 0 0 h 720 v 1024 h -720 z"/>
    </clipPath>
    <mask id="l">
        <g filter="url(#a)">
            <path d="m 0 0 h 16 v 16 h -16 z" fill-opacity="0.35"/>
        </g>
    </mask>
    <clipPath id="m">
        <path d="m 0 0 h 720 v 1024 h -720 z"/>
    </clipPath>
    <mask id="n">
        <g filter="url(#a)">
            <path d="m 0 0 h 16 v 16 h -16 z" fill-opacity="0.35"/>
        </g>
    </mask>
    <clipPath id="o">
        <path d="m 0 0 h 720 v 1024 h -720 z"/>
    </clipPath>
    <mask id="p">
        <g filter="url(#a)">
            <path d="m 0 0 h 16 v 16 h -16 z" fill-opacity="0.35"/>
        </g>
    </mask>
    <clipPath id="q">
        <path d="m 0 0 h 720 v 1024 h -720 z"/>
    </clipPath>
    <mask id="r">
        <g filter="url(#a)">
            <path d="m 0 0 h 16 v 16 h -16 z" fill-opacity="0.35"/>
        </g>
    </mask>
    <clipPath id="s">
        <path d="m 0 0 h 720 v 1024 h -720 z"/>
    </clipPath>
    <mask id="t">
        <g filter="url(#a)">
            <path d="m 0 0 h 16 v 16 h -16 z" fill-opacity="0.35"/>
        </g>
    </mask>
    <clipPath id="u">
        <path d="m 0 0 h 720 v 1024 h -720 z"/>
    </clipPath>
    <mask id="v">
        <g filter="url(#a)">
            <path d="m 0 0 h 16 v 16 h -16 z" fill-opacity="0.35"/>
        </g>
    </mask>
    <clipPath id="w">
        <path d="m 0 0 h 720 v 1024 h -720 z"/>
    </clipPath>
    <mask id="x">
        <g filter="url(#a)">
            <path d="m 0 0 h 16 v 16 h -16 z" fill-opacity="0.35"/>
        </g>
    </mask>
    <clipPath id="y">
        <path d="m 0 0 h 720 v 1024 h -720 z"/>
    </clipPath>
    <mask id="z">
        <g filter="url(#a)">
            <path d="m 0 0 h 16 v 16 h -16 z" fill-opacity="0.35"/>
        </g>
    </mask>
    <clipPath id="A">
        <path d="m 0 0 h 720 v 1024 h -720 z"/>
    </clipPath>
    <mask id="B">
        <g filter="url(#a)">
            <path d="m 0 0 h 16 v 16 h -16 z" fill-opacity="0.32"/>
        </g>
    </mask>
    <clipPath id="C">
        <path d="m 0 0 h 720 v 1024 h -720 z"/>
    </clipPath>
    <mask id="D">
        <g filter="url(#a)">
            <path d="m 0 0 h 16 v 16 h -16 z" fill-opacity="0.32"/>
        </g>
    </mask>
    <clipPath id="E">
        <path d="m 0 0 h 720 v 1024 h -720 z"/>
    </clipPath>
    <mask id="F">
        <g filter="url(#a)">
            <path d="m 0 0 h 16 v 16 h -16 z" fill-opacity="0.32"/>
        </g>
    </mask>
    <clipPath id="G">
        <path d="m 0 0 h 720 v 1024 h -720 z"/>
    </clipPath>
    <mask id="H">
        <g filter="url(#a)">
            <path d="m 0 0 h 16 v 16 h -16 z" fill-opacity="0.35"/>
        </g>
    </mask>
    <clipPath id="I">
        <path d="m 0 0 h 720 v 1024 h -720 z"/>
    </clipPath>
    <mask id="J">
        <g filter="url(#a)">
            <path d="m 0 0 h 16 v 16 h -16 z" fill-opacity="0.35"/>
        </g>
    </mask>
    <clipPath id="K">
        <path d="m 0 0 h 720 v 1024 h -720 z"/>
    </clipPath>
    <mask id="L">
        <g filter="url(#a)">
            <path d="m 0 0 h 16 v 16 h -16 z" fill-opacity="0.35"/>
        </g>
    </mask>
    <clipPath id="M">
        <path d="m 0 0 h 720 v 1024 h -720 z"/>
    </clipPath>
    <mask id="N">
        <g filter="url(#a)">
            <path d="m 0 0 h 16 v 16 h -16 z" fill-opacity="0.35"/>
        </g>
    </mask>
    <clipPath id="O">
        <path d="m 0 0 h 720 v 1024 h -720 z"/>
    </clipPath>
    <mask id="P">
        <g filter="url(#a)">
            <path d="m 0 0 h 16 v 16 h -16 z" fill-opacity="0.35"/>
        </g>
    </mask>
    <clipPath id="Q">
        <path d="m 0 0 h 720 v 1024 h -720 z"/>
    </clipPath>
    <mask id="R">
        <g filter="url(#a)">
            <path d="m 0 0 h 16 v 16 h -16 z" fill-opacity="0.35"/>
        </g>
    </mask>
    <clipPath id="S">
        <path d="m 0 0 h 720 v 1024 h -720 z"/>
    </clipPath>
    <mask id="T">
        <g filter="url(#a)">
            <path d="m 0 0 h 16 v 16 h -16 z" fill-opacity="0.35"/>
        </g>
    </mask>
    <clipPath id="U">
        <path d="m 0 0 h 720 v 1024 h -720 z"/>
    </clipPath>
    <mask id="V">
        <g filter="url(#a)">
            <path d="m 0 0 h 16 v 16 h -16 z" fill-opacity="0.35"/>
        </g>
    </mask>
    <clipPath id="W">
        <path d="m 0 0 h 720 v 1024 h -720 z"/>
    </clipPath>
    <mask id="X">
        <g filter="url(#a)">
            <path d="m 0 0 h 16 v 16 h -16 z" fill-opacity="0.35"/>
        </g>
    </mask>
    <clipPath id="Y">
        <path d="m 0 0 h 720 v 1024 h -720 z"/>
    </clipPath>
    <mask id="Z">
        <g filter="url(#a)">
            <path d="m 0 0 h 16 v 16 h -16 z" fill-opacity="0.5"/>
        </g>
    </mask>
    <clipPath id="aa">
        <path d="m 0 0 h 720 v 1024 h -720 z"/>
    </clipPath>
    <mask id="ab">
        <g filter="url(#a)">
            <path d="m 0 0 h 16 v 16 h -16 z" fill-opacity="0.5"/>
        </g>
    </mask>
    <clipPath id="ac">
        <path d="m 0 0 h 720 v 1024 h -720 z"/>
    </clipPath>
    <mask id="ad">
        <g filter="url(#a)">
            <path d="m 0 0 h 16 v 16 h -16 z" fill-opacity="0.35"/>
        </g>
    </mask>
    <clipPath id="ae">
        <path d="m 0 0 h 720 v 1024 h -720 z"/>
    </clipPath>
    <mask id="af">
        <g filter="url(#a)">
            <path d="m 0 0 h 16 v 16 h -16 z" fill-opacity="0.35"/>
        </g>
    </mask>
    <clipPath id="ag">
        <path d="m 0 0 h 720 v 1024 h -720 z"/>
    </clipPath>
    <mask id="ah">
        <g filter="url(#a)">
            <path d="m 0 0 h 16 v 16 h -16 z" fill-opacity="0.35"/>
        </g>
    </mask>
    <clipPath id="ai">
        <path d="m 0 0 h 720 v 1024 h -720 z"/>
    </clipPath>
    <mask id="aj">
        <g filter="url(#a)">
            <path d="m 0 0 h 16 v 16 h -16 z" fill-opacity="0.35"/>
        </g>
    </mask>
    <clipPath id="ak">
        <path d="m 0 0 h 720 v 1024 h -720 z"/>
    </clipPath>
    <mask id="al">
        <g filter="url(#a)">
            <path d="m 0 0 h 16 v 16 h -16 z" fill-opacity="0.5"/>
        </g>
    </mask>
    <clipPath id="am">
        <path d="m 0 0 h 720 v 1024 h -720 z"/>
    </clipPath>
    <mask id="an">
        <g filter="url(#a)">
            <path d="m 0 0 h 16 v 16 h -16 z" fill-opacity="0.5"/>
        </g>
    </mask>
    <clipPath id="ao">
        <path d="m 0 0 h 720 v 1024 h -720 z"/>
    </clipPath>
    <mask id="ap">
        <g filter="url(#a)">
            <path d="m 0 0 h 16 v 16 h -16 z" fill-opacity="0.5"/>
        </g>
    </mask>
    <clipPath id="aq">
        <path d="m 0 0 h 720 v 1024 h -720 z"/>
    </clipPath>
    <mask id="ar">
        <g filter="url(#a)">
            <path d="m 0 0 h 16 v 16 h -16 z" fill-opacity="0.5"/>
        </g>
    </mask>
    <clipPath id="as">
        <path d="m 0 0 h 720 v 1024 h -720 z"/>
    </clipPath>
    <mask id="at">
        <g filter="url(#a)">
            <path d="m 0 0 h 16 v 16 h -16 z" fill-opacity="0.5"/>
        </g>
    </mask>
    <clipPath id="au">
        <path d="m 0 0 h 720 v 1024 h -720 z"/>
    </clipPath>
    <mask id="av">
        <g filter="url(#a)">
            <path d="m 0 0 h 16 v 16 h -16 z" fill-opacity="0.5"/>
        </g>
    </mask>
    <clipPath id="aw">
        <path d="m 0 0 h 720 v 1024 h -720 z"/>
    </clipPath>
    <mask id="ax">
        <g filter="url(#a)">
            <path d="m 0 0 h 16 v 16 h -16 z" fill-opacity="0.5"/>
        </g>
    </mask>
    <clipPath id="ay">
        <path d="m 0 0 h 720 v 1024 h -720 z"/>
    </clipPath>
    <mask id="az">
        <g filter="url(#a)">
            <path d="m 0 0 h 16 v 16 h -16 z" fill-opacity="0.5"/>
        </g>
    </mask>
    <clipPath id="aA">
        <path d="m 0 0 h 720 v 1024 h -720 z"/>
    </clipPath>
    <mask id="aB">
        <g filter="url(#a)">
            <path d="m 0 0 h 16 v 16 h -16 z" fill-opacity="0.5"/>
        </g>
    </mask>
    <clipPath id="aC">
        <path d="m 0 0 h 720 v 1024 h -720 z"/>
    </clipPath>
    <mask id="aD">
        <g filter="url(#a)">
            <path d="m 0 0 h 16 v 16 h -16 z" fill-opacity="0.5"/>
        </g>
    </mask>
    <clipPath id="aE">
        <path d="m 0 0 h 720 v 1024 h -720 z"/>
    </clipPath>
    <mask id="aF">
        <g filter="url(#a)">
            <path d="m 0 0 h 16 v 16 h -16 z" fill-opacity="0.5"/>
        </g>
    </mask>
    <clipPath id="aG">
        <path d="m 0 0 h 720 v 1024 h -720 z"/>
    </clipPath>
    <mask id="aH">
        <g filter="url(#a)">
            <path d="m 0 0 h 16 v 16 h -16 z" fill-opacity="0.5"/>
        </g>
    </mask>
    <clipPath id="aI">
        <path d="m 0 0 h 720 v 1024 h -720 z"/>
    </clipPath>
    <mask id="aJ">
        <g filter="url(#a)">
            <path d="m 0 0 h 16 v 16 h -16 z" fill-opacity="0.35"/>
        </g>
    </mask>
    <clipPath id="aK">
        <path d="m 0 0 h 720 v 1024 h -720 z"/>
    </clipPath>
    <mask id="aL">
        <g filter="url(#a)">
            <path d="m 0 0 h 16 v 16 h -16 z" fill-opacity="0.35"/>
        </g>
    </mask>
    <clipPath id="aM">
        <path d="m 0 0 h 720 v 1024 h -720 z"/>
    </clipPath>
    <mask id="aN">
        <g filter="url(#a)">
            <path d="m 0 0 h 16 v 16 h -16 z" fill-opacity="0.35"/>
        </g>
    </mask>
    <clipPath id="aO">
        <path d="m 0 0 h 720 v 1024 h -720 z"/>
    </clipPath>
    <mask id="aP">
        <g filter="url(#a)">
            <path d="m 0 0 h 16 v 16 h -16 z" fill-opacity="0.35"/>
        </g>
    </mask>
    <clipPath id="aQ">
        <path d="m 0 0 h 720 v 1024 h -720 z"/>
    </clipPath>
    <mask id="aR">
        <g filter="url(#a)">
            <path d="m 0 0 h 16 v 16 h -16 z" fill-opacity="0.35"/>
        </g>
    </mask>
    <clipPath id="aS">
        <path d="m 0 0 h 720 v 1024 h -720 z"/>
    </clipPath>
    <mask id="aT">
        <g filter="url(#a)">
            <path d="m 0 0 h 16 v 16 h -16 z" fill-opacity="0.35"/>
        </g>
    </mask>
    <clipPath id="aU">
        <path d="m 0 0 h 720 v 1024 h -720 z"/>
    </clipPath>
    <mask id="aV">
        <g filter="url(#a)">
            <path d="m 0 0 h 16 v 16 h -16 z" fill-opacity="0.35"/>
        </g>
    </mask>
    <clipPath id="aW">
        <path d="m 0 0 h 720 v 1024 h -720 z"/>
    </clipPath>
    <mask id="aX">
        <g filter="url(#a)">
            <path d="m 0 0 h 16 v 16 h -16 z" fill-opacity="0.32"/>
        </g>
    </mask>
    <clipPath id="aY">
        <path d="m 0 0 h 720 v 1024 h -720 z"/>
    </clipPath>
    <mask id="aZ">
        <g filter="url(#a)">
            <path d="m 0 0 h 16 v 16 h -16 z" fill-opacity="0.35"/>
        </g>
    </mask>
    <clipPath id="a0">
        <path d="m 0 0 h 720 v 1024 h -720 z"/>
    </clipPath>
    <mask id="a1">
        <g filter="url(#a)">
            <path d="m 0 0 h 16 v 16 h -16 z" fill-opacity="0.35"/>
        </g>
    </mask>
    <clipPath id="a2">
        <path d="m 0 0 h 720 v 1024 h -720 z"/>
    </clipPath>
    <mask id="a3">
        <g filter="url(#a)">
            <path d="m 0 0 h 16 v 16 h -16 z" fill-opacity="0.35"/>
        </g>
    </mask>
    <clipPath id="a4">
        <path d="m 0 0 h 720 v 1024 h -720 z"/>
    </clipPath>
    <mask id="a5">
        <g filter="url(#a)">
            <path d="m 0 0 h 16 v 16 h -16 z" fill-opacity="0.35"/>
        </g>
    </mask>
    <clipPath id="a6">
        <path d="m 0 0 h 720 v 1024 h -720 z"/>
    </clipPath>
    <mask id="a7">
        <g filter="url(#a)">
            <path d="m 0 0 h 16 v 16 h -16 z" fill-opacity="0.35"/>
        </g>
    </mask>
    <clipPath id="a8">
        <path d="m 0 0 h 720 v 1024 h -720 z"/>
    </clipPath>
    <mask id="a9">
        <g filter="url(#a)">
            <path d="m 0 0 h 16 v 16 h -16 z" fill-opacity="0.35"/>
        </g>
    </mask>
    <clipPath id="ba">
        <path d="m 0 0 h 720 v 1024 h -720 z"/>
    </clipPath>
    <mask id="bb">
        <g filter="url(#a)">
            <path d="m 0 0 h 16 v 16 h -16 z" fill-opacity="0.35"/>
        </g>
    </mask>
    <clipPath id="bc">
        <path d="m 0 0 h 720 v 1024 h -720 z"/>
    </clipPath>
    <mask id="bd">
        <g filter="url(#a)">
            <path d="m 0 0 h 16 v 16 h -16 z" fill-opacity="0.35"/>
        </g>
    </mask>
    <clipPath id="be">
        <path d="m 0 0 h 720 v 1024 h -720 z"/>
    </clipPath>
    <mask id="bf">
        <g filter="url(#a)">
            <path d="m 0 0 h 16 v 16 h -16 z" fill-opacity="0.35"/>
        </g>
    </mask>
    <clipPath id="bg">
        <path d="m 0 0 h 720 v 1024 h -720 z"/>
    </clipPath>
    <mask id="bh">
        <g filter="url(#a)">
            <path d="m 0 0 h 16 v 16 h -16 z" fill-opacity="0.35"/>
        </g>
    </mask>
    <clipPath id="bi">
        <path d="m 0 0 h 720 v 1024 h -720 z"/>
    </clipPath>
    <mask id="bj">
        <g filter="url(#a)">
            <path d="m 0 0 h 16 v 16 h -16 z" fill-opacity="0.35"/>
        </g>
    </mask>
    <clipPath id="bk">
        <path d="m 0 0 h 720 v 1024 h -720 z"/>
    </clipPath>
    <mask id="bl">
        <g filter="url(#a)">
            <path d="m 0 0 h 16 v 16 h -16 z" fill-opacity="0.35"/>
        </g>
    </mask>
    <clipPath id="bm">
        <path d="m 0 0 h 720 v 1024 h -720 z"/>
    </clipPath>
    <mask id="bn">
        <g filter="url(#a)">
            <path d="m 0 0 h 16 v 16 h -16 z" fill-opacity="0.35"/>
        </g>
    </mask>
    <clipPath id="bo">
        <path d="m 0 0 h 720 v 1024 h -720 z"/>
    </clipPath>
    <mask id="bp">
        <g filter="url(#a)">
            <path d="m 0 0 h 16 v 16 h -16 z" fill-opacity="0.35"/>
        </g>
    </mask>
    <clipPath id="bq">
        <path d="m 0 0 h 720 v 1024 h -720 z"/>
    </clipPath>
    <mask id="br">
        <g filter="url(#a)">
            <path d="m 0 0 h 16 v 16 h -16 z" fill-opacity="0.35"/>
        </g>
    </mask>
    <clipPath id="bs">
        <path d="m 0 0 h 720 v 1024 h -720 z"/>
    </clipPath>
    <mask id="bt">
        <g filter="url(#a)">
            <path d="m 0 0 h 16 v 16 h -16 z" fill-opacity="0.35"/>
        </g>
    </mask>
    <clipPath id="bu">
        <path d="m 0 0 h 720 v 1024 h -720 z"/>
    </clipPath>
    <mask id="bv">
        <g filter="url(#a)">
            <path d="m 0 0 h 16 v 16 h -16 z" fill-opacity="0.35"/>
        </g>
    </mask>
    <clipPath id="bw">
        <path d="m 0 0 h 720 v 1024 h -720 z"/>
    </clipPath>
    <mask id="bx">
        <g filter="url(#a)">
            <path d="m 0 0 h 16 v 16 h -16 z" fill-opacity="0.35"/>
        </g>
    </mask>
    <clipPath id="by">
        <path d="m 0 0 h 720 v 1024 h -720 z"/>
    </clipPath>
    <mask id="bz">
        <g filter="url(#a)">
            <path d="m 0 0 h 16 v 16 h -16 z" fill-opacity="0.35"/>
        </g>
    </mask>
    <clipPath id="bA">
        <path d="m 0 0 h 720 v 1024 h -720 z"/>
    </clipPath>
    <mask id="bB">
        <g filter="url(#a)">
            <path d="m 0 0 h 16 v 16 h -16 z" fill-opacity="0.5"/>
        </g>
    </mask>
    <clipPath id="bC">
        <path d="m 0 0 h 720 v 1024 h -720 z"/>
    </clipPath>
    <mask id="bD">
        <g filter="url(#a)">
            <path d="m 0 0 h 16 v 16 h -16 z" fill-opacity="0.5"/>
        </g>
    </mask>
    <clipPath id="bE">
        <path d="m 0 0 h 720 v 1024 h -720 z"/>
    </clipPath>
    <mask id="bF">
        <g filter="url(#a)">
            <path d="m 0 0 h 16 v 16 h -16 z" fill-opacity="0.35"/>
        </g>
    </mask>
    <clipPath id="bG">
        <path d="m 0 0 h 720 v 1024 h -720 z"/>
    </clipPath>
    <mask id="bH">
        <g filter="url(#a)">
            <path d="m 0 0 h 16 v 16 h -16 z" fill-opacity="0.35"/>
        </g>
    </mask>
    <clipPath id="bI">
        <path d="m 0 0 h 720 v 1024 h -720 z"/>
    </clipPath>
    <mask id="bJ">
        <g filter="url(#a)">
            <path d="m 0 0 h 16 v 16 h -16 z" fill-opacity="0.35"/>
        </g>
    </mask>
    <clipPath id="bK">
        <path d="m 0 0 h 720 v 1024 h -720 z"/>
    </clipPath>
    <mask id="bL">
        <g filter="url(#a)">
            <path d="m 0 0 h 16 v 16 h -16 z" fill-opacity="0.35"/>
        </g>
    </mask>
    <clipPath id="bM">
        <path d="m 0 0 h 720 v 1024 h -720 z"/>
    </clipPath>
    <mask id="bN">
        <g filter="url(#a)">
            <path d="m 0 0 h 16 v 16 h -16 z" fill-opacity="0.35"/>
        </g>
    </mask>
    <clipPath id="bO">
        <path d="m 0 0 h 720 v 1024 h -720 z"/>
    </clipPath>
    <mask id="bP">
        <g filter="url(#a)">
            <path d="m 0 0 h 16 v 16 h -16 z" fill-opacity="0.35"/>
        </g>
    </mask>
    <clipPath id="bQ">
        <path d="m 0 0 h 720 v 1024 h -720 z"/>
    </clipPath>
    <mask id="bR">
        <g filter="url(#a)">
            <path d="m 0 0 h 16 v 16 h -16 z" fill-opacity="0.35"/>
        </g>
    </mask>
    <clipPath id="bS">
        <path d="m 0 0 h 720 v 1024 h -720 z"/>
    </clipPath>
    <mask id="bT">
        <g filter="url(#a)">
            <path d="m 0 0 h 16 v 16 h -16 z" fill-opacity="0.35"/>
        </g>
    </mask>
    <clipPath id="bU">
        <path d="m 0 0 h 720 v 1024 h -720 z"/>
    </clipPath>
    <mask id="bV">
        <g filter="url(#a)">
            <path d="m 0 0 h 16 v 16 h -16 z" fill-opacity="0.02"/>
        </g>
    </mask>
    <clipPath id="bW">
        <path d="m 0 0 h 720 v 1024 h -720 z"/>
    </clipPath>
    <mask id="bX">
        <g filter="url(#a)">
            <path d="m 0 0 h 16 v 16 h -16 z" fill-opacity="0.5"/>
        </g>
    </mask>
    <clipPath id="bY">
        <path d="m 0 0 h 720 v 1024 h -720 z"/>
    </clipPath>
    <mask id="bZ">
        <g filter="url(#a)">
            <path d="m 0 0 h 16 v 16 h -16 z" fill-opacity="0.35"/>
        </g>
    </mask>
    <clipPath id="b0">
        <path d="m 0 0 h 720 v 1024 h -720 z"/>
    </clipPath>
    <mask id="b1">
        <g filter="url(#a)">
            <path d="m 0 0 h 16 v 16 h -16 z" fill-opacity="0.35"/>
        </g>
    </mask>
    <clipPath id="b2">
        <path d="m 0 0 h 720 v 1024 h -720 z"/>
    </clipPath>
    <mask id="b3">
        <g filter="url(#a)">
            <path d="m 0 0 h 16 v 16 h -16 z" fill-opacity="0.35"/>
        </g>
    </mask>
    <clipPath id="b4">
        <path d="m 0 0 h 720 v 1024 h -720 z"/>
    </clipPath>
    <mask id="b5">
        <g filter="url(#a)">
            <path d="m 0 0 h 16 v 16 h -16 z" fill-opacity="0.35"/>
        </g>
    </mask>
    <clipPath id="b6">
        <path d="m 0 0 h 720 v 1024 h -720 z"/>
    </clipPath>
    <mask id="b7">
        <g filter="url(#a)">
            <path d="m 0 0 h 16 v 16 h -16 z" fill-opacity="0.35"/>
        </g>
    </mask>
    <clipPath id="b8">
        <path d="m 0 0 h 720 v 1024 h -720 z"/>
    </clipPath>
    <mask id="b9">
        <g filter="url(#a)">
            <path d="m 0 0 h 16 v 16 h -16 z" fill-opacity="0.35"/>
        </g>
    </mask>
    <clipPath id="ca">
        <path d="m 0 0 h 720 v 1024 h -720 z"/>
    </clipPath>
    <mask id="cb">
        <g filter="url(#a)">
            <path d="m 0 0 h 16 v 16 h -16 z" fill-opacity="0.5"/>
        </g>
    </mask>
    <clipPath id="cc">
        <path d="m 0 0 h 720 v 1024 h -720 z"/>
    </clipPath>
    <mask id="cd">
        <g filter="url(#a)">
            <path d="m 0 0 h 16 v 16 h -16 z" fill-opacity="0.25"/>
        </g>
    </mask>
    <clipPath id="ce">
        <path d="m 0 0 h 720 v 1024 h -720 z"/>
    </clipPath>
    <mask id="cf">
        <g filter="url(#a)">
            <path d="m 0 0 h 16 v 16 h -16 z" fill-opacity="0.3"/>
        </g>
    </mask>
    <clipPath id="cg">
        <path d="m 0 0 h 720 v 1024 h -720 z"/>
    </clipPath>
    <mask id="ch">
        <g filter="url(#a)">
            <path d="m 0 0 h 16 v 16 h -16 z" fill-opacity="0.5"/>
        </g>
    </mask>
    <clipPath id="ci">
        <path d="m 0 0 h 720 v 1024 h -720 z"/>
    </clipPath>
    <mask id="cj">
        <g filter="url(#a)">
            <path d="m 0 0 h 16 v 16 h -16 z" fill-opacity="0.3"/>
        </g>
    </mask>
    <clipPath id="ck">
        <path d="m 0 0 h 720 v 1024 h -720 z"/>
    </clipPath>
    <mask id="cl">
        <g filter="url(#a)">
            <path d="m 0 0 h 16 v 16 h -16 z" fill-opacity="0.02"/>
        </g>
    </mask>
    <clipPath id="cm">
        <path d="m 0 0 h 720 v 1024 h -720 z"/>
    </clipPath>
    <mask id="cn">
        <g filter="url(#a)">
            <path d="m 0 0 h 16 v 16 h -16 z" fill-opacity="0.02"/>
        </g>
    </mask>
    <clipPath id="co">
        <path d="m 0 0 h 720 v 1024 h -720 z"/>
    </clipPath>
    <mask id="cp">
        <g filter="url(#a)">
            <path d="m 0 0 h 16 v 16 h -16 z" fill-opacity="0.35"/>
        </g>
    </mask>
    <clipPath id="cq">
        <path d="m 0 0 h 720 v 1024 h -720 z"/>
    </clipPath>
    <mask id="cr">
        <g filter="url(#a)">
            <path d="m 0 0 h 16 v 16 h -16 z" fill-opacity="0.02"/>
        </g>
    </mask>
    <clipPath id="cs">
        <path d="m 0 0 h 720 v 1024 h -720 z"/>
    </clipPath>
    <mask id="ct">
        <g filter="url(#a)">
            <path d="m 0 0 h 16 v 16 h -16 z" fill-opacity="0.35"/>
        </g>
    </mask>
    <clipPath id="cu">
        <path d="m 0 0 h 720 v 1024 h -720 z"/>
    </clipPath>
    <mask id="cv">
        <g filter="url(#a)">
            <path d="m 0 0 h 16 v 16 h -16 z" fill-opacity="0.35"/>
        </g>
    </mask>
    <clipPath id="cw">
        <path d="m 0 0 h 720 v 1024 h -720 z"/>
    </clipPath>
    <mask id="cx">
        <g filter="url(#a)">
            <path d="m 0 0 h 16 v 16 h -16 z" fill-opacity="0.35"/>
        </g>
    </mask>
    <clipPath id="cy">
        <path d="m 0 0 h 720 v 1024 h -720 z"/>
    </clipPath>
    <mask id="cz">
        <g filter="url(#a)">
            <path d="m 0 0 h 16 v 16 h -16 z" fill-opacity="0.35"/>
        </g>
    </mask>
    <clipPath id="cA">
        <path d="m 0 0 h 720 v 1024 h -720 z"/>
    </clipPath>
    <mask id="cB">
        <g filter="url(#a)">
            <path d="m 0 0 h 16 v 16 h -16 z" fill-opacity="0.35"/>
        </g>
    </mask>
    <clipPath id="cC">
        <path d="m 0 0 h 720 v 1024 h -720 z"/>
    </clipPath>
    <mask id="cD">
        <g filter="url(#a)">
            <path d="m 0 0 h 16 v 16 h -16 z" fill-opacity="0.35"/>
        </g>
    </mask>
    <clipPath id="cE">
        <path d="m 0 0 h 720 v 1024 h -720 z"/>
    </clipPath>
    <mask id="cF">
        <g filter="url(#a)">
            <path d="m 0 0 h 16 v 16 h -16 z" fill-opacity="0.35"/>
        </g>
    </mask>
    <clipPath id="cG">
        <path d="m 0 0 h 720 v 1024 h -720 z"/>
    </clipPath>
    <mask id="cH">
        <g filter="url(#a)">
            <path d="m 0 0 h 16 v 16 h -16 z" fill-opacity="0.35"/>
        </g>
    </mask>
    <clipPath id="cI">
        <path d="m 0 0 h 720 v 1024 h -720 z"/>
    </clipPath>
    <mask id="cJ">
        <g filter="url(#a)">
            <path d="m 0 0 h 16 v 16 h -16 z" fill-opacity="0.35"/>
        </g>
    </mask>
    <clipPath id="cK">
        <path d="m 0 0 h 720 v 1024 h -720 z"/>
    </clipPath>
    <mask id="cL">
        <g filter="url(#a)">
            <path d="m 0 0 h 16 v 16 h -16 z" fill-opacity="0.35"/>
        </g>
    </mask>
    <clipPath id="cM">
        <path d="m 0 0 h 720 v 1024 h -720 z"/>
    </clipPath>
    <mask id="cN">
        <g filter="url(#a)">
            <path d="m 0 0 h 16 v 16 h -16 z" fill-opacity="0.35"/>
        </g>
    </mask>
    <clipPath id="cO">
        <path d="m 0 0 h 720 v 1024 h -720 z"/>
    </clipPath>
    <mask id="cP">
        <g filter="url(#a)">
            <path d="m 0 0 h 16 v 16 h -16 z" fill-opacity="0.5"/>
        </g>
    </mask>
    <clipPath id="cQ">
        <path d="m 0 0 h 720 v 1024 h -720 z"/>
    </clipPath>
    <mask id="cR">
        <g filter="url(#a)">
            <path d="m 0 0 h 16 v 16 h -16 z" fill-opacity="0.5"/>
        </g>
    </mask>
    <clipPath id="cS">
        <path d="m 0 0 h 720 v 1024 h -720 z"/>
    </clipPath>
    <mask id="cT">
        <g filter="url(#a)">
            <path d="m 0 0 h 16 v 16 h -16 z" fill-opacity="0.35"/>
        </g>
    </mask>
    <clipPath id="cU">
        <path d="m 0 0 h 720 v 1024 h -720 z"/>
    </clipPath>
    <mask id="cV">
        <g filter="url(#a)">
            <path d="m 0 0 h 16 v 16 h -16 z" fill-opacity="0.35"/>
        </g>
    </mask>
    <clipPath id="cW">
        <path d="m 0 0 h 720 v 1024 h -720 z"/>
    </clipPath>
    <g clip-path="url(#c)" mask="url(#b)" transform="matrix(1 0 0 1 -72.03125 -412)">
        <path d="m 55.5 233 c -1.386719 0 -2.5 1.113281 -2.5 2.5 v 5 c 0 1.386719 1.113281 2.5 2.5 2.5 h 6.375 l 3.125 4 v -4.0625 c 1.140625 -0.230469 2 -1.226562 2 -2.4375 v -5 c 0 -1.386719 -1.113281 -2.5 -2.5 -2.5 z m 0 0" fill="#2e3436"/>
    </g>
    <g clip-path="url(#e)" mask="url(#d)" transform="matrix(1 0 0 1 -72.03125 -412)">
        <path d="m 80 54 c -2.8125 0 -5.171875 1 -7 2.585938 v 1.414062 h 1.480469 c 1.519531 -1.265625 3.21875 -2 5.519531 -2 s 4 0.78125 5.519531 2 h 1.480469 v -1.382812 c -1.640625 -1.464844 -4.1875 -2.617188 -7 -2.617188 z m 0 0" fill="#2e3436"/>
    </g>
    <g clip-path="url(#g)" mask="url(#f)" transform="matrix(1 0 0 1 -72.03125 -412)">
        <path d="m 80 57 c -2.167969 0 -4.019531 0.738281 -5 2 v 1 h 2 c 0.789062 -0.605469 1.757812 -1 3 -1 s 2.21875 0.394531 3 1 h 2 v -1 c -0.996094 -1.222656 -2.875 -2 -5 -2 z m 0 0" fill="#2e3436"/>
    </g>
    <g clip-path="url(#i)" mask="url(#h)" transform="matrix(1 0 0 1 -72.03125 -412)">
        <path d="m 80 60 c -1.257812 0 -2.214844 0.3125 -3 1 v 1 h 6 v -1 c -0.835938 -0.671875 -1.742188 -1 -3 -1 z m 0 0" fill="#2e3436"/>
    </g>
    <g clip-path="url(#k)" mask="url(#j)" transform="matrix(1 0 0 1 -72.03125 -412)">
        <path d="m 60 54 c -2.8125 0 -5.171875 1 -7 2.585938 v 1.414062 h 1.480469 c 1.519531 -1.265625 3.21875 -2 5.519531 -2 s 4 0.78125 5.519531 2 h 1.480469 v -1.382812 c -1.640625 -1.464844 -4.1875 -2.617188 -7 -2.617188 z m 0 0" fill="#2e3436"/>
    </g>
    <g clip-path="url(#m)" mask="url(#l)" transform="matrix(1 0 0 1 -72.03125 -412)">
        <path d="m 60 57 c -2.167969 0 -4.019531 0.738281 -5 2 v 1 h 2 c 0.789062 -0.605469 1.757812 -1 3 -1 s 2.21875 0.394531 3 1 h 2 v -1 c -0.996094 -1.222656 -2.875 -2 -5 -2 z m 0 0" fill="#2e3436"/>
    </g>
    <g clip-path="url(#o)" mask="url(#n)" transform="matrix(1 0 0 1 -72.03125 -412)">
        <path d="m 40 54 c -2.8125 0 -5.171875 1 -7 2.585938 v 1.414062 h 1.480469 c 1.519531 -1.265625 3.21875 -2 5.519531 -2 s 4 0.78125 5.519531 2 h 1.480469 v -1.382812 c -1.640625 -1.464844 -4.1875 -2.617188 -7 -2.617188 z m 0 0" fill="#2e3436"/>
    </g>
    <g clip-path="url(#q)" mask="url(#p)" transform="matrix(1 0 0 1 -72.03125 -412)">
        <path d="m 33.5 278.5 v 11" fill="none" stroke="#2e3436" stroke-linecap="square" stroke-width="3" transform="matrix(1 0 0 1 12 -144)"/>
    </g>
    <g clip-path="url(#s)" mask="url(#r)" transform="matrix(1 0 0 1 -72.03125 -412)">
        <path d="m 33.5 278.5 v 11" fill="none" stroke="#2e3436" stroke-linecap="square" stroke-width="3" transform="matrix(1 0 0 1 32 -144)"/>
    </g>
    <g clip-path="url(#u)" mask="url(#t)" transform="matrix(1 0 0 1 -72.03125 -412)">
        <path d="m 29.5 281.5 v 8" fill="none" stroke="#2e3436" stroke-linecap="square" stroke-width="3" transform="matrix(1 0 0 1 32 -144)"/>
    </g>
    <g clip-path="url(#w)" mask="url(#v)" transform="matrix(1 0 0 1 -72.03125 -412)">
        <path d="m 33.5 278.5 v 11" fill="none" stroke="#2e3436" stroke-linecap="square" stroke-width="3" transform="matrix(1 0 0 1 52 -144)"/>
    </g>
    <g clip-path="url(#y)" mask="url(#x)" transform="matrix(1 0 0 1 -72.03125 -412)">
        <path d="m 29.5 281.5 v 8" fill="none" stroke="#2e3436" stroke-linecap="square" stroke-width="3" transform="matrix(1 0 0 1 52 -144)"/>
    </g>
    <g clip-path="url(#A)" mask="url(#z)" transform="matrix(1 0 0 1 -72.03125 -412)">
        <path d="m 25.5 284.5 v 5" fill="none" stroke="#2e3436" stroke-linecap="square" stroke-width="3" transform="matrix(1 0 0 1 52 -144)"/>
    </g>
    <g clip-path="url(#C)" mask="url(#B)" transform="matrix(1 0 0 1 -72.03125 -412)">
        <path d="m 142 65 c 0 1.105469 -0.894531 2 -2 2 s -2 -0.894531 -2 -2 s 0.894531 -2 2 -2 s 2 0.894531 2 2 z m 0 0" fill="#2e3436"/>
    </g>
    <g clip-path="url(#E)" mask="url(#D)" transform="matrix(1 0 0 1 -72.03125 -412)">
        <path d="m 140 54 c -2.8125 0 -5.171875 1 -7 2.585938 v 1.414062 h 1.480469 c 1.519531 -1.265625 3.21875 -2 5.519531 -2 s 4 0.78125 5.519531 2 h 1.480469 v -1.382812 c -1.640625 -1.464844 -4.1875 -2.617188 -7 -2.617188 z m 0 0" fill="#2e3436"/>
    </g>
    <g clip-path="url(#G)" mask="url(#F)" transform="matrix(1 0 0 1 -72.03125 -412)">
        <path d="m 140 57 c -1.503906 0 -2.859375 0.359375 -3.875 1 h 7.6875 c -1.019531 -0.625 -2.351562 -1 -3.8125 -1 z m 0 0" fill="#2e3436"/>
    </g>
    <g clip-path="url(#I)" mask="url(#H)" transform="matrix(1 0 0 1 -72.03125 -412)">
        <path d="m 124 133.011719 v 6 h 2 v 5 h -2 v 3 h 3 v -14.023438 z m -4 2.976562 v 3 h 3 v -3 z m -4 2 v 1 h 3 v -1 z m -3.980469 4 l -0.019531 5 h 3.019531 v -3 h -2 v -2 z m 3.980469 2 v 3 h 3 v -3 z m 4 0 v 3 h 3 v -3 z m 0 0" fill="#2e3436"/>
    </g>
    <g clip-path="url(#K)" mask="url(#J)" transform="matrix(1 0 0 1 -72.03125 -412)">
        <path d="m 102 65 c 0 1.105469 -0.894531 2 -2 2 s -2 -0.894531 -2 -2 s 0.894531 -2 2 -2 s 2 0.894531 2 2 z m 0 0" fill="#2e3436"/>
    </g>
    <g clip-path="url(#M)" mask="url(#L)" transform="matrix(1 0 0 1 -72.03125 -412)">
        <path d="m 100 54 c -2.8125 0 -5.171875 1 -7 2.585938 v 1.414062 h 1.480469 c 1.519531 -1.265625 3.21875 -2 5.519531 -2 s 4 0.78125 5.519531 2 h 1.480469 v -1.382812 c -1.640625 -1.464844 -4.1875 -2.617188 -7 -2.617188 z m 0 0" fill="#2e3436"/>
    </g>
    <g clip-path="url(#O)" mask="url(#N)" transform="matrix(1 0 0 1 -72.03125 -412)">
        <path d="m 100 57 c -2.167969 0 -4.019531 0.738281 -5 2 v 1 h 2 c 0.789062 -0.605469 1.757812 -1 3 -1 s 2.21875 0.394531 3 1 h 2 v -1 c -0.996094 -1.222656 -2.875 -2 -5 -2 z m 0 0" fill="#2e3436"/>
    </g>
    <g clip-path="url(#Q)" mask="url(#P)" transform="matrix(1 0 0 1 -72.03125 -412)">
        <path d="m 100 60 c -1.257812 0 -2.214844 0.3125 -3 1 v 1 h 6 v -1 c -0.835938 -0.671875 -1.742188 -1 -3 -1 z m 0 0" fill="#2e3436"/>
    </g>
    <g clip-path="url(#S)" mask="url(#R)" transform="matrix(1 0 0 1 -72.03125 -412)">
        <path d="m 29.5 281.5 v 8" fill="none" stroke="#2e3436" stroke-linecap="square" stroke-width="3" transform="matrix(1 0 0 1 72 -144)"/>
    </g>
    <g clip-path="url(#U)" mask="url(#T)" transform="matrix(1 0 0 1 -72.03125 -412)">
        <path d="m 33.5 278.5 v 11" fill="none" stroke="#2e3436" stroke-linecap="square" stroke-width="3" transform="matrix(1 0 0 1 72 -144)"/>
    </g>
    <g clip-path="url(#W)" mask="url(#V)" transform="matrix(1 0 0 1 -72.03125 -412)">
        <path d="m 25.5 284.5 v 5" fill="none" stroke="#2e3436" stroke-linecap="square" stroke-width="3" transform="matrix(1 0 0 1 72 -144)"/>
    </g>
    <g clip-path="url(#Y)" mask="url(#X)" transform="matrix(1 0 0 1 -72.03125 -412)">
        <path d="m 21.5 287.5 v 2" fill="none" stroke="#2e3436" stroke-linecap="square" stroke-width="3" transform="matrix(1 0 0 1 72 -144)"/>
    </g>
    <g clip-path="url(#aa)" mask="url(#Z)" transform="matrix(1 0 0 1 -72.03125 -412)">
        <path d="m 39.875 172 c -0.1875 0.035156 -0.359375 0.121094 -0.5 0.25 l -4.90625 4 c -0.019531 0.007812 -0.042969 0.019531 -0.0625 0.03125 c 0 0 -0.324219 0.296875 -0.65625 0.75 c -0.222656 0.304688 -0.351562 0.832031 -0.5 1.3125 c -0.011719 0.011719 -0.019531 0.019531 -0.03125 0.03125 c -0.128906 0.160156 -0.207031 0.355469 -0.21875 0.5625 v 0.03125 v 0.03125 c -0.003906 0.050781 -0.003906 0.105469 0 0.15625 v 7.84375 c 0 0.550781 0.449219 1 1 1 h 12 c 0.550781 0 1 -0.449219 1 -1 v -7.84375 c 0.003906 -0.050781 0.003906 -0.105469 0 -0.15625 c 0.007812 -0.238281 -0.070312 -0.46875 -0.21875 -0.65625 c -0.011719 -0.011719 -0.019531 -0.019531 -0.03125 -0.03125 c -0.328125 -1.1875 -1.125 -2 -1.125 -2 c -0.011719 -0.011719 -0.019531 -0.019531 -0.03125 -0.03125 l -4.96875 -4.03125 c -0.179688 -0.160156 -0.414062 -0.25 -0.65625 -0.25 c -0.03125 0 -0.0625 0 -0.09375 0 z m 0.125 2.28125 l 4.3125 3.53125 l 0.03125 0.03125 c 0.019531 0.027344 0.179688 0.25 0.34375 0.5 l -4.6875 3.53125 l -4.6875 -3.53125 c 0.027344 -0.039062 0.035156 -0.085938 0.0625 -0.125 c 0.191406 -0.261719 0.320312 -0.414062 0.34375 -0.4375 l 0.03125 -0.03125 z m -5 5.09375 l 4.6875 3.53125 l 0.3125 0.21875 l 0.3125 -0.21875 l 4.6875 -3.53125 v 6.625 h -10 z m 0 0" fill="#2e3436"/>
    </g>
    <g clip-path="url(#ac)" mask="url(#ab)" transform="matrix(1 0 0 1 -72.03125 -412)">
        <path d="m 38 192 v 4.585938 l -1.292969 -1.292969 c -0.238281 -0.246094 -0.59375 -0.285157 -0.921875 -0.285157 h -0.761718 v 0.699219 c 0 0.367188 0 0.742188 0.269531 1 l 2.707031 2.707031 v 1.171876 l -2.707031 2.707031 c -0.238281 0.230469 -0.292969 0.5625 -0.292969 0.886719 v 0.8125 h 0.792969 c 0.339843 0 0.679687 -0.039063 0.914062 -0.285157 l 1.292969 -1.292969 v 4.585938 h 0.992188 c 0.269531 0.003906 0.527343 -0.105469 0.714843 -0.292969 l 2.292969 -2.292969 v -3.414062 h 1.414062 l -2 -2 l 2.292969 -2.292969 c 0.390625 -0.390625 0.390625 -1.023437 0 -1.414062 l -4 -4 c -0.1875 -0.1875 -0.445312 -0.292969 -0.714843 -0.292969 z m 2 3.414062 l 1.585938 1.585938 l -1.585938 1.585938 z m 0 6 l 1.585938 1.585938 l -1.585938 1.585938 z m 0 0" fill="#2e3436"/>
    </g>
    <g clip-path="url(#ae)" mask="url(#ad)" transform="matrix(1 0 0 1 -72.03125 -412)">
        <path d="m 288.0002 262.5 h 2" fill="none" stroke="#2e3436" transform="matrix(1 0 0 1 10.9998 -125)"/>
    </g>
    <g clip-path="url(#ag)" mask="url(#af)" transform="matrix(1 0 0 1 -72.03125 -412)">
        <path d="m 386.496094 140 h -5.496094 l -0.5625 2 h 5.5625 z m 0 0" fill="#2e3436"/>
    </g>
    <g clip-path="url(#ai)" mask="url(#ah)" transform="matrix(1 0 0 1 -72.03125 -412)">
        <path d="m 240 153 c -0.402344 0 -0.796875 0.042969 -1.179688 0.109375 c -0.523437 1.121094 -0.820312 2.363281 -0.820312 3.675781 c 0 1.726563 0.503906 3.332032 1.371094 4.6875 c 0.597656 -0.441406 1.328125 -0.710937 2.128906 -0.710937 c 0.996094 0 1.820312 0.484375 2.484375 1.125 c 0.179687 -0.035157 0.316406 -0.125 0.515625 -0.125 c 0.773438 0 1.472656 0.285156 2.019531 0.753906 c 0.304688 -0.78125 0.480469 -1.628906 0.480469 -2.515625 c 0 -3.855469 -3.144531 -7 -7 -7 z m 0 0" fill="#2e3436"/>
    </g>
    <g clip-path="url(#ak)" mask="url(#aj)" transform="matrix(1 0 0 1 -72.03125 -412)">
        <path d="m 199.996094 153 c -0.40625 0 -0.796875 0.042969 -1.183594 0.109375 c -0.519531 1.121094 -0.820312 2.363281 -0.820312 3.675781 c 0 4.074219 2.808593 7.511719 6.582031 8.492188 c 1.476562 -1.285156 2.417969 -3.171875 2.417969 -5.277344 c 0 -3.855469 -3.144532 -7 -6.996094 -7 z m 0 0" fill="#2e3436"/>
    </g>
    <g clip-path="url(#am)" mask="url(#al)" transform="matrix(1 0 0 1 -72.03125 -412)">
        <path d="m 281.996292 280.992188 c 0.773438 0 1.546875 -2 2.320313 -2 c 0.773437 0 1.546875 2 2.320312 2 c 0.773438 0 1.546875 -2 2.320313 -2 c 0.773437 0 1.546875 2.003906 2.316406 2.003906 c 0.773437 0 1.546875 -2 2.320312 -2 c 0.773438 0 1.546875 2 2.320313 2" fill="none" stroke="#2e3436" stroke-linecap="round" stroke-width="1.994697" transform="matrix(1 0 0 1 90.999802 -125)"/>
    </g>
    <g clip-path="url(#ao)" mask="url(#an)" transform="matrix(1 0 0 1 -72.03125 -412)">
        <path d="m 281.996292 285.992188 c 0.773438 0 1.546875 -2 2.320313 -2 c 0.773437 0 1.546875 2.003906 2.320312 2.003906 c 0.773438 0 1.546875 -2 2.320313 -2 c 0.773437 0 1.546875 2 2.316406 2 c 0.773437 0 1.546875 -2 2.320312 -2 c 0.773438 0 1.546875 2.003906 2.320313 2.003906" fill="none" stroke="#2e3436" stroke-linecap="round" stroke-width="1.994697" transform="matrix(1 0 0 1 90.999802 -125)"/>
    </g>
    <g clip-path="url(#aq)" mask="url(#ap)" transform="matrix(1 0 0 1 -72.03125 -412)">
        <path d="m 281.996292 290.996094 c 0.773438 0 1.546875 -2 2.320313 -2 c 0.773437 0 1.546875 2 2.320312 2 c 0.773438 0 1.546875 -2 2.320313 -2 c 0.773437 0 1.546875 2.003906 2.316406 2.003906 c 0.773437 0 1.546875 -2 2.320312 -2 c 0.773438 0 1.546875 2 2.320313 2" fill="none" stroke="#2e3436" stroke-linecap="round" stroke-width="1.994697" transform="matrix(1 0 0 1 90.999802 -125)"/>
    </g>
    <g clip-path="url(#as)" mask="url(#ar)" transform="matrix(1 0 0 1 -72.03125 -412)">
        <path d="m -186.062502 184.062505 c 0 1.069662 -0.867839 1.937501 -1.937502 1.937501 s -1.937502 -0.867839 -1.937502 -1.937501 c 0 -1.069661 0.867839 -1.9375 1.937502 -1.9375 s 1.937502 0.867839 1.937502 1.9375 z m 0 0" fill="none" stroke="#2e3436" stroke-width="1.291667" transform="matrix(0.774193 0 0 0.774194 250.548218 -67.5)"/>
    </g>
    <g clip-path="url(#au)" mask="url(#at)" transform="matrix(1 0 0 1 -72.03125 -412)">
        <path d="m -186.062504 184.062502 c 0 1.069662 -0.867838 1.9375 -1.9375 1.9375 c -1.069661 0 -1.9375 -0.867838 -1.9375 -1.9375 c 0 -1.069661 0.867839 -1.937499 1.9375 -1.937499 c 1.069662 0 1.9375 0.867838 1.9375 1.937499 z m 0 0" fill="none" stroke="#2e3436" stroke-width="1.291667" transform="matrix(0.774194 0 0 0.774194 250.548386 -62.500031)"/>
    </g>
    <g clip-path="url(#aw)" mask="url(#av)" transform="matrix(1 0 0 1 -72.03125 -412)">
        <path d="m 125 73 c -1.105469 0 -2 0.894531 -2 2 s 0.894531 2 2 2 s 2 -0.894531 2 -2 s -0.894531 -2 -2 -2 z m 0 1 c 0.550781 0 1 0.449219 1 1 s -0.449219 1 -1 1 s -1 -0.449219 -1 -1 s 0.449219 -1 1 -1 z m 0 0" fill="#2e3436"/>
    </g>
    <g clip-path="url(#ay)" mask="url(#ax)" transform="matrix(1 0 0 1 -72.03125 -412)">
        <path d="m 125 78 c -1.105469 0 -2 0.894531 -2 2 s 0.894531 2 2 2 s 2 -0.894531 2 -2 s -0.894531 -2 -2 -2 z m 0 1 c 0.550781 0 1 0.449219 1 1 s -0.449219 1 -1 1 s -1 -0.449219 -1 -1 s 0.449219 -1 1 -1 z m 0 0" fill="#2e3436"/>
    </g>
    <g clip-path="url(#aA)" mask="url(#az)" transform="matrix(1 0 0 1 -72.03125 -412)">
        <path d="m 145 73 c -1.105469 0 -2 0.894531 -2 2 s 0.894531 2 2 2 s 2 -0.894531 2 -2 s -0.894531 -2 -2 -2 z m 0 1 c 0.550781 0 1 0.449219 1 1 s -0.449219 1 -1 1 s -1 -0.449219 -1 -1 s 0.449219 -1 1 -1 z m 0 0" fill="#2e3436"/>
    </g>
    <g clip-path="url(#aC)" mask="url(#aB)" transform="matrix(1 0 0 1 -72.03125 -412)">
        <path d="m 220 113 c -1.644531 0 -3 1.355469 -3 3 v 1 h -1 v 1.011719 h 8 v -1.011719 h -1 v -1 c 0 -1.644531 -1.355469 -3 -3 -3 z m 0 2 c 0.5625 0 1 0.4375 1 1 v 1 h -2 v -1 c 0 -0.5625 0.4375 -1 1 -1 z m -4 8 v 1.011719 h 3 v 0.988281 h -5 v 2 h 12 v -2 h -5 v -0.988281 h 3 v -1.011719 z m 0 0" fill="#2e3436"/>
    </g>
    <g clip-path="url(#aE)" mask="url(#aD)" transform="matrix(1 0 0 1 -72.03125 -412)">
        <path d="m 95.03125 192 c -1.667969 0 -3.03125 1.363281 -3.03125 3.03125 v 7.9375 c 0 1.667969 1.363281 3.03125 3.03125 3.03125 h 6.96875 v -2 h -2 v -2 h 7 v -6.96875 c 0 -1.667969 -1.363281 -3.03125 -3.03125 -3.03125 z m 0 2 h 8.9375 c 0.597656 0 1.03125 0.433594 1.03125 1.03125 v 5.96875 h -11 v -5.96875 c 0 -0.597656 0.433594 -1.03125 1.03125 -1.03125 z m -1.03125 8 h 5 v 2 h -3.96875 c -0.597656 0 -1.03125 -0.433594 -1.03125 -1.03125 z m 0 0" fill="#2e3436"/>
    </g>
    <g clip-path="url(#aG)" mask="url(#aF)" transform="matrix(1 0 0 1 -72.03125 -412)">
        <path d="m 120.996094 192 v 0.78125 c -0.066406 0.304688 0.011718 0.625 0.214844 0.867188 c 0.199218 0.238281 0.503906 0.367187 0.816406 0.351562 h 0.59375 l -2.5625 2.5625 l -2.375 -2.28125 c -0.191406 -0.183594 -0.449219 -0.285156 -0.71875 -0.28125 h -0.96875 v 0.75 v 0.09375 c -0.050782 0.320312 0.054687 0.644531 0.28125 0.875 l 3.09375 2.96875 l 0.6875 0.6875 l 0.71875 -0.6875 l 3.21875 -3.25 v 0.5625 c 0 0.550781 0.449218 1 1 1 h 1 v -0.84375 c 0.003906 -0.050781 0.003906 -0.105469 0 -0.15625 v -4 h -3.96875 c -0.007813 0 -0.019532 0 -0.03125 0 z m 0 0" fill="#2e3436"/>
    </g>
    <g clip-path="url(#aI)" mask="url(#aH)" transform="matrix(1 0 0 1 -72.03125 -412)">
        <path d="m 135.5 233 c -1.386719 0 -2.5 1.113281 -2.5 2.5 v 0.5 h 14 v -0.5 c 0 -1.386719 -1.113281 -2.5 -2.5 -2.5 z m -2.4375 8 c 0.230469 1.140625 1.226562 2 2.4375 2 h 6.375 l 3.125 4 v -4.0625 c 0.972656 -0.203125 1.738281 -0.960938 1.9375 -1.9375 z m 0 0" fill="#2e3436"/>
    </g>
    <g clip-path="url(#aK)" mask="url(#aJ)" transform="matrix(1 0 0 1 -72.03125 -412)">
        <path d="m 303 61 c 0.308594 0 0.613281 -0.089844 0.8125 -0.28125 l 3.59375 -3.71875 l -3.65625 -3.71875 c -0.199219 -0.191406 -0.441406 -0.28125 -0.75 -0.28125 h -1 v 1 c 0 0.257812 0.128906 0.527344 0.3125 0.71875 l 1.28125 1.28125 h -4.59375 c -0.527344 -0.007812 -1 0.472656 -1 1 s 0.472656 1.007812 1 1 h 4.625 l -1.21875 1.28125 c -0.183594 0.191406 -0.40625 0.460938 -0.40625 0.71875 v 1 z m 0 0" fill="#2e3436"/>
    </g>
    <g clip-path="url(#aM)" mask="url(#aL)" transform="matrix(1 0 0 1 -72.03125 -412)">
        <path d="m 277 59 c -0.308594 0 -0.613281 0.089844 -0.8125 0.28125 l -3.59375 3.71875 l 3.65625 3.71875 c 0.199219 0.191406 0.441406 0.28125 0.75 0.28125 h 1 v -1 c 0 -0.257812 -0.128906 -0.527344 -0.3125 -0.71875 l -1.28125 -1.28125 h 4.59375 c 0.527344 0.007812 1 -0.472656 1 -1 s -0.472656 -1.007812 -1 -1 h -4.625 l 1.21875 -1.28125 c 0.183594 -0.191406 0.40625 -0.460938 0.40625 -0.71875 v -1 z m 0 0" fill="#2e3436"/>
    </g>
    <g clip-path="url(#aO)" mask="url(#aN)" transform="matrix(1 0 0 1 -72.03125 -412)">
        <path d="m 343 61 c 0.308594 0 0.613281 -0.089844 0.8125 -0.28125 l 3.59375 -3.71875 l -3.65625 -3.71875 c -0.199219 -0.191406 -0.441406 -0.28125 -0.75 -0.28125 h -1 v 1 c 0 0.257812 0.128906 0.527344 0.3125 0.71875 l 1.28125 1.28125 h -4.59375 c -0.527344 -0.007812 -1 0.472656 -1 1 s 0.472656 1.007812 1 1 h 4.625 l -1.21875 1.28125 c -0.183594 0.191406 -0.40625 0.460938 -0.40625 0.71875 v 1 z m 0 0" fill="#2e3436"/>
    </g>
    <g clip-path="url(#aQ)" mask="url(#aP)" transform="matrix(1 0 0 1 -72.03125 -412)">
        <path d="m 337 59 c -0.308594 0 -0.613281 0.089844 -0.8125 0.28125 l -3.59375 3.71875 l 3.65625 3.71875 c 0.199219 0.191406 0.441406 0.28125 0.75 0.28125 h 1 v -1 c 0 -0.257812 -0.128906 -0.527344 -0.3125 -0.71875 l -1.28125 -1.28125 h 4.59375 c 0.527344 0.007812 1 -0.472656 1 -1 s -0.472656 -1.007812 -1 -1 h -4.625 l 1.21875 -1.28125 c 0.183594 -0.191406 0.40625 -0.460938 0.40625 -0.71875 v -1 z m 0 0" fill="#2e3436"/>
    </g>
    <g clip-path="url(#aS)" mask="url(#aR)" transform="matrix(1 0 0 1 -72.03125 -412)">
        <path d="m 362 53 v 1 c 0 0.257812 0.128906 0.527344 0.3125 0.71875 l 1.28125 1.28125 h -4.59375 c -0.527344 -0.007812 -1 0.472656 -1 1 s 0.472656 1.007812 1 1 h 4.625 l -1.21875 1.28125 c -0.183594 0.191406 -0.40625 0.460938 -0.40625 0.71875 v 0.425781 c 0.621094 -0.378906 1.910156 -0.507812 2.480469 -0.394531 l 2.925781 -3.03125 l -3.65625 -3.71875 c -0.199219 -0.191406 -0.441406 -0.28125 -0.75 -0.28125 z m -5 6 c -0.308594 0 -0.613281 0.089844 -0.8125 0.28125 l -3.59375 3.71875 l 3.65625 3.71875 c 0.199219 0.191406 0.441406 0.28125 0.75 0.28125 h 1 v -1 c 0 -0.257812 -0.128906 -0.527344 -0.3125 -0.71875 l -1.28125 -1.28125 h 3.625 c 0.023438 -0.277344 0.113281 -1 0.722656 -2 h -4.378906 l 1.21875 -1.28125 c 0.183594 -0.191406 0.40625 -0.460938 0.40625 -0.71875 v -1 z m 0 0" fill="#2e3436"/>
    </g>
    <g clip-path="url(#aU)" mask="url(#aT)" transform="matrix(1 0 0 1 -72.03125 -412)">
        <path d="m 377 59 c -0.308594 0 -0.613281 0.089844 -0.8125 0.28125 l -3.59375 3.71875 l 3.65625 3.71875 c 0.199219 0.191406 0.441406 0.28125 0.75 0.28125 h 1 v -1 c 0 -0.257812 -0.128906 -0.527344 -0.3125 -0.71875 l -1.28125 -1.28125 h 4.59375 s 1 0 1 -1 c 0 0 0 -1 -1 -1 h -4.625 l 1.21875 -1.28125 c 0.183594 -0.191406 0.40625 -0.460938 0.40625 -0.71875 v -1 z m 0 0" fill="#2e3436"/>
    </g>
    <g clip-path="url(#aW)" mask="url(#aV)" transform="matrix(1 0 0 1 -72.03125 -412)">
        <path d="m 383 61 c 0.308594 0 0.613281 -0.089844 0.8125 -0.28125 l 3.59375 -3.71875 l -3.65625 -3.71875 c -0.199219 -0.191406 -0.441406 -0.28125 -0.75 -0.28125 h -1 v 1 c 0 0.257812 0.128906 0.527344 0.3125 0.71875 l 1.28125 1.28125 h -4.59375 c -0.527344 -0.007812 -1 0.472656 -1 1 s 0.472656 1.007812 1 1 h 4.625 l -1.21875 1.28125 c -0.183594 0.191406 -0.40625 0.460938 -0.40625 0.71875 v 1 z m 0 0" fill="#2e3436"/>
    </g>
    <g clip-path="url(#aY)" mask="url(#aX)" transform="matrix(1 0 0 1 -72.03125 -412)">
        <path d="m 180 54 c -2.8125 0 -5.171875 1 -7 2.585938 v 1.414062 h 1.480469 c 1.519531 -1.265625 3.21875 -2 5.519531 -2 s 4 0.78125 5.519531 2 h 1.480469 v -1.378906 c -1.640625 -1.46875 -4.1875 -2.621094 -7 -2.621094 z m -3.320312 3.820312 c -0.582032 0.179688 -1.246094 0.683594 -1.679688 1.179688 v 1 h 1.015625 c -0.015625 -0.679688 0.101563 -1.652344 0.664063 -2.179688 z m 6.640624 0 c 0.5625 0.527344 0.679688 1.5 0.664063 2.179688 h 1.015625 v -1 c -0.433594 -0.496094 -1.097656 -1 -1.679688 -1.179688 z m -6.320312 3.179688 v 1 h 1.015625 c 0.023437 -0.34375 0.136719 -0.71875 0.515625 -1 z m 0 0" fill="#2e3436"/>
    </g>
    <g clip-path="url(#a0)" mask="url(#aZ)" transform="matrix(1 0 0 1 -72.03125 -412)">
        <path d="m 97.46875 92 c -0.492188 0 -0.796875 0.226562 -1.03125 0.46875 s -0.4375 0.558594 -0.4375 1.03125 v 0.5 h -2 v 14 h 12 v -14 h -2 v -0.4375 c -0.023438 -0.429688 -0.171875 -0.71875 -0.40625 -1 c -0.222656 -0.265625 -0.625 -0.53125 -1.15625 -0.53125 v -0.03125 z m 0.53125 2 h 4 v 1.53125 c 0.230469 0.132812 0.425781 0.296875 0.625 0.46875 h 1.375 v 10 h -2.28125 c -0.089844 0.152344 -0.1875 0.28125 -0.3125 0.40625 s -0.253906 0.222656 -0.40625 0.3125 c -0.117188 0.070312 -0.242188 0.144531 -0.375 0.1875 c -0.03125 0.011719 -0.0625 0.023438 -0.09375 0.03125 c -0.039062 0.011719 -0.082031 0.023438 -0.125 0.03125 c -0.128906 0.027344 -0.269531 0.03125 -0.40625 0.03125 c -0.179688 0 -0.363281 -0.015625 -0.53125 -0.0625 c -0.03125 -0.007812 -0.0625 -0.019531 -0.09375 -0.03125 c -0.132812 -0.042969 -0.257812 -0.117188 -0.375 -0.1875 c -0.152344 -0.089844 -0.28125 -0.1875 -0.40625 -0.3125 s -0.222656 -0.253906 -0.3125 -0.40625 h -2.28125 v -10 h 1.3125 c 0.210938 -0.183594 0.441406 -0.332031 0.6875 -0.46875 z m 0 0" fill="#2e3436"/>
    </g>
    <g clip-path="url(#a2)" mask="url(#a1)" transform="matrix(1 0 0 1 -72.03125 -412)">
        <path d="m 21.5 287.5 v 2" fill="none" stroke="#2e3436" stroke-linecap="square" stroke-width="3" transform="matrix(1 0 0 1 132 -144)"/>
    </g>
    <g clip-path="url(#a4)" mask="url(#a3)" transform="matrix(1 0 0 1 -72.03125 -412)">
        <path d="m 33.5 278.5 v 11" fill="none" stroke="#2e3436" stroke-linecap="square" stroke-width="3" transform="matrix(1 0 0 1 132 -144)"/>
    </g>
    <g clip-path="url(#a6)" mask="url(#a5)" transform="matrix(1 0 0 1 -72.03125 -412)">
        <path d="m 160 136 v 0.03125 c 1.179688 0 2.261719 0.53125 3 1.375 v -1.40625 z m -4 3 v 8 h 2.40625 c -0.1875 -0.296875 -0.3125 -0.65625 -0.3125 -1.03125 c 0 -0.648438 0.375 -1.148438 0.875 -1.5 c -0.5 -0.347656 -0.882812 -0.824219 -0.875 -1.5 c 0 -0.78125 0.34375 -1.414062 0.6875 -1.84375 c 0.078125 -0.097656 0.140625 -0.136719 0.21875 -0.21875 h -1.96875 c -0.496094 0 -0.90625 -0.382812 -0.9375 -0.875 c -0.019531 -0.355469 0.011719 -0.703125 0.085938 -1.03125 z m 7 3.5 c -0.285156 0.308594 -0.613281 0.582031 -1 0.875 c -0.089844 0.066406 -0.167969 0.144531 -0.21875 0.1875 c 0 0.003906 -0.03125 -0.003906 -0.03125 0 c -0.007812 0.011719 -0.03125 0.027344 -0.03125 0.03125 c -0.011719 0.011719 -0.003906 0.039062 -0.03125 0.0625 c -0.140625 0.339844 -0.296875 0.605469 -0.59375 0.8125 c 0.5 0.351562 0.875 0.851562 0.875 1.5 c 0 0.375 -0.125 0.734375 -0.3125 1.03125 h 1.34375 z m 0 0" fill="#2e3436" fill-rule="evenodd"/>
    </g>
    <g clip-path="url(#a8)" mask="url(#a7)" transform="matrix(1 0 0 1 -72.03125 -412)">
        <path d="m 33.5 278.5 v 5.9375" fill="none" stroke="#2e3436" stroke-linecap="square" stroke-width="3" transform="matrix(1 0 0 1 152 -144)"/>
    </g>
    <g clip-path="url(#ba)" mask="url(#a9)" transform="matrix(1 0 0 1 -72.03125 -412)">
        <path d="m 180 136 v 11 h 2 l 0.015625 -5.0625 h 0.984375 v -5.9375 z m 0 0" fill="#2e3436" fill-rule="evenodd"/>
    </g>
    <g clip-path="url(#bc)" mask="url(#bb)" transform="matrix(1 0 0 1 -72.03125 -412)">
        <path d="m 25.5 284.5 v 5" fill="none" stroke="#2e3436" stroke-linecap="square" stroke-width="3" transform="matrix(1 0 0 1 152 -144)"/>
    </g>
    <g clip-path="url(#be)" mask="url(#bd)" transform="matrix(1 0 0 1 -72.03125 -412)">
        <path d="m 21.5 287.5 v 2" fill="none" stroke="#2e3436" stroke-linecap="square" stroke-width="3" transform="matrix(1 0 0 1 152 -144)"/>
    </g>
    <g clip-path="url(#bg)" mask="url(#bf)" transform="matrix(1 0 0 1 -72.03125 -412)">
        <path d="m 122 65 c 0 1.105469 -0.894531 2 -2 2 s -2 -0.894531 -2 -2 s 0.894531 -2 2 -2 s 2 0.894531 2 2 z m 0 0" fill="#2e3436"/>
    </g>
    <g clip-path="url(#bi)" mask="url(#bh)" transform="matrix(1 0 0 1 -72.03125 -412)">
        <path d="m 120 54 c -2.8125 0 -5.171875 1 -7 2.585938 v 1.414062 h 1.480469 c 1.519531 -1.265625 3.21875 -2 5.519531 -2 s 4 0.78125 5.519531 2 h 1.480469 v -1.382812 c -1.640625 -1.464844 -4.1875 -2.617188 -7 -2.617188 z m 0 0" fill="#2e3436"/>
    </g>
    <g clip-path="url(#bk)" mask="url(#bj)" transform="matrix(1 0 0 1 -72.03125 -412)">
        <path d="m 120 57 c -2.167969 0 -4.019531 0.738281 -5 2 v 1 h 2 c 0.789062 -0.605469 1.757812 -1 3 -1 s 2.21875 0.394531 3 1 h 2 v -1 c -0.996094 -1.222656 -2.875 -2 -5 -2 z m 0 0" fill="#2e3436"/>
    </g>
    <g clip-path="url(#bm)" mask="url(#bl)" transform="matrix(1 0 0 1 -72.03125 -412)">
        <path d="m 120 60 c -1.257812 0 -2.214844 0.3125 -3 1 v 1 h 6 v -1 c -0.835938 -0.671875 -1.742188 -1 -3 -1 z m 0 0" fill="#2e3436"/>
    </g>
    <g clip-path="url(#bo)" mask="url(#bn)" transform="matrix(1 0 0 1 -72.03125 -412)">
        <path d="m 197 53 v 5 h 2 v 2 h -4.96875 v 3 h -2.03125 v 4.9375 h 5 v -4.9375 h -1.96875 v -2 h 8.96875 v 0.984375 h 1 v -1.984375 h -5 v -2 h 2 v -5 z m 0 0" fill="#2e3436"/>
    </g>
    <g clip-path="url(#bq)" mask="url(#bp)" transform="matrix(1 0 0 1 -72.03125 -412)">
        <path d="m 211.976562 62.988281 h 5.015626 v 4.972657 h -5.015626 z m 0 0" fill="#2e3436"/>
    </g>
    <g clip-path="url(#bs)" mask="url(#br)" transform="matrix(1 0 0 1 -72.03125 -412)">
        <path d="m 217 53.027344 h 5.015625 v 4.972656 h -5.015625 z m 0 0" fill="#2e3436"/>
    </g>
    <g clip-path="url(#bu)" mask="url(#bt)" transform="matrix(1 0 0 1 -72.03125 -412)">
        <path d="m 223 63.027344 h 5.015625 v 4.972656 h -5.015625 z m 0 0" fill="#2e3436"/>
    </g>
    <g clip-path="url(#bw)" mask="url(#bv)" transform="matrix(1 0 0 1 -72.03125 -412)">
        <path d="m 231.976562 62.988281 h 5.015626 v 4.972657 h -5.015626 z m 0 0" fill="#2e3436"/>
    </g>
    <g clip-path="url(#by)" mask="url(#bx)" transform="matrix(1 0 0 1 -72.03125 -412)">
        <path d="m 237 53.027344 v 3.03125 c 0.777344 -0.597656 1.726562 -0.976563 2.738281 -1.035156 c 0.808594 -0.046876 1.578125 0.128906 2.277344 0.4375 v -2.433594 z m 0 0" fill="#2e3436"/>
    </g>
    <g clip-path="url(#bA)" mask="url(#bz)" transform="matrix(1 0 0 1 -72.03125 -412)">
        <path d="m 243 63.027344 h 5.015625 v 4.972656 h -5.015625 z m 0 0" fill="#2e3436"/>
    </g>
    <g clip-path="url(#bC)" mask="url(#bB)" transform="matrix(1 0 0 1 -72.03125 -412)">
        <path d="m 261 112.992188 c -1.011719 0 -2.007812 0.835937 -2.007812 2.007812 v 3 h 1 v -3 c 0 -0.554688 0.601562 -1.007812 1.007812 -1.007812 c 0.402344 0 1.007812 0.46875 1.007812 1.007812 v 3 h 1 v -3 c 0 -1.164062 -0.988281 -2.007812 -2.007812 -2.007812 z m 5.503906 1.925781 s -0.355468 -0.015625 -0.730468 0.167969 c -0.375 0.183593 -0.78125 0.660156 -0.78125 1.332031 v 1.582031 h 1 v -1.582031 c 0 -0.347657 0.09375 -0.371094 0.21875 -0.433594 c 0.128906 -0.0625 0.269531 -0.066406 0.269531 -0.066406 z m -11.511718 1.644531 v 1.4375 h 1 v -1.4375 z m 0 6.4375 v 2.460938 c 0 1.503906 1.273437 2.546874 2.519531 2.5 c 0.589843 -0.023438 1.191406 -0.257813 1.664062 -0.683594 c 0.476563 -0.421875 0.816407 -1.058594 0.816407 -1.816406 v -2.460938 h -1 v 2.460938 c 0 0.46875 -0.1875 0.8125 -0.480469 1.074218 c -0.292969 0.261719 -0.695313 0.410156 -1.039063 0.425782 c -0.636718 0.023437 -1.480468 -0.574219 -1.480468 -1.5 v -2.460938 z m 7.015624 0 v 2 c 0 0.636719 0.265626 1.167969 0.652344 1.503906 c 0.390625 0.335938 0.875 0.488282 1.339844 0.488282 c 0.984375 0 1.992188 -0.800782 1.992188 -1.992188 v -2 h -1 v 2 c 0 0.605469 -0.570313 0.992188 -0.992188 0.992188 c -0.238281 0 -0.5 -0.085938 -0.683594 -0.242188 c -0.183594 -0.160156 -0.308594 -0.371094 -0.308594 -0.75 v -2 z m -8.007812 -11 v 2 h -1 v 1 c 0 1.109375 0.890625 2 2 2 h 1 c 1.109375 0 2 -0.890625 2 -2 v -1 h -1 v -2 h -1 v 2 h -1 v -2 z m 0 0" fill="#2e3436"/>
    </g>
    <g clip-path="url(#bE)" mask="url(#bD)" transform="matrix(1 0 0 1 -72.03125 -412)">
        <path d="m 240 113 c -1.644531 0 -3 1.355469 -3 3 v 1 h -1 v 6 h 2.0625 c 0 -0.015625 -0.007812 -0.023438 -0.007812 -0.039062 c 0.003906 -0.789063 0.335937 -1.417969 0.679687 -1.851563 c 0.058594 -0.074219 0.109375 -0.097656 0.164063 -0.160156 h -1.863282 c -0.519531 0 -0.949218 -0.40625 -0.976562 -0.925781 c -0.109375 -1.890626 1.203125 -3.457032 2.941406 -3.90625 v -0.117188 c 0 -0.5625 0.4375 -1 1 -1 s 1 0.4375 1 1 v 0.125 c 1.605469 0.414062 2.863281 1.785156 3 3.515625 v -2.640625 h -1 v -1 c 0 -1.644531 -1.355469 -3 -3 -3 z m 4 7.164062 c -0.035156 0.632813 -0.164062 1.207032 -0.457031 1.714844 c -0.257813 0.4375 -0.617188 0.78125 -1.023438 1.121094 h 1.480469 z m -3.859375 2.398438 c -0.003906 0.011719 -0.019531 0.046875 -0.015625 0.046875 c 0 0 -0.03125 0.082031 -0.03125 0.082031 c 0 -0.003906 0.007812 -0.011718 0.011719 -0.023437 c 0.011719 -0.039063 0.03125 -0.09375 0.039062 -0.105469 z m -6.140625 2.4375 v 2 h 4.359375 c -0.191406 -0.300781 -0.304687 -0.652344 -0.304687 -1.03125 c 0 -0.371094 0.128906 -0.691406 0.320312 -0.96875 z m 7.691406 0 c 0.195313 0.277344 0.324219 0.597656 0.324219 0.96875 c 0 0.378906 -0.113281 0.730469 -0.300781 1.03125 h 4.285156 v -2 z m 0 0" fill="#2e3436"/>
    </g>
    <g clip-path="url(#bG)" mask="url(#bF)" transform="matrix(1 0 0 1 -72.03125 -412)">
        <path d="m 96.726562 292 c -1.511718 0 -2.726562 1.113281 -2.726562 2.5 v 11 c 0 1.386719 1.214844 2.5 2.726562 2.5 h 4.273438 l 0.027344 -5 l 0.949218 0.003906 c 0.023438 -2.003906 1.289063 -3.457031 4.023438 -2.984375 v -3.019531 l -5 -5 z m 0.765626 2.976562 c 0.28125 -0.003906 0.511718 0.226563 0.507812 0.507813 v 3.53125 h 1 v -4.03125 h 3 v 4.03125 h 0.511719 c 0.675781 -0.011719 0.675781 1.007813 0 1 h -1.511719 v -4.03125 h -1 v 4.03125 h -3 v -4.53125 c -0.003906 -0.277344 0.214844 -0.503906 0.492188 -0.507813 z m 0 0" fill="#2e3436"/>
    </g>
    <g clip-path="url(#bI)" mask="url(#bH)" transform="matrix(1 0 0 1 -72.03125 -412)">
        <path d="m 116.726562 292 c -1.511718 0 -2.726562 1.113281 -2.726562 2.5 v 11 c 0 1.386719 1.214844 2.5 2.726562 2.5 h 5.273438 l 0.015625 -5.96875 l 3.984375 -0.015625 v -5.015625 l -5 -5 z m 0.765626 2.976562 c 0.28125 -0.003906 0.511718 0.226563 0.507812 0.507813 v 3.53125 h 1 v -4.03125 h 3 v 4.03125 h 0.511719 c 0.675781 -0.011719 0.675781 1.007813 0 1 h -1.511719 v -4.03125 h -1 v 4.03125 h -3 v -4.53125 c -0.003906 -0.277344 0.214844 -0.503906 0.492188 -0.507813 z m 0 0" fill="#2e3436"/>
    </g>
    <g clip-path="url(#bK)" mask="url(#bJ)" transform="matrix(1 0 0 1 -72.03125 -412)">
        <path d="m 47 80 c 0 -2.8125 -1 -5.171875 -2.585938 -7 h -1.414062 v 1.480469 c 1.265625 1.519531 2 3.21875 2 5.519531 s -0.78125 4 -2 5.519531 v 1.480469 h 1.382812 c 1.464844 -1.640625 2.617188 -4.1875 2.617188 -7 z m 0 0" fill="#2e3436"/>
    </g>
    <g clip-path="url(#bM)" mask="url(#bL)" transform="matrix(1 0 0 1 -72.03125 -412)">
        <path d="m 67 80 c 0 -2.8125 -1 -5.171875 -2.585938 -7 h -1.414062 v 1.480469 c 1.265625 1.519531 2 3.21875 2 5.519531 s -0.78125 4 -2 5.519531 v 1.480469 h 1.382812 c 1.464844 -1.640625 2.617188 -4.1875 2.617188 -7 z m 0 0" fill="#2e3436"/>
    </g>
    <g clip-path="url(#bO)" mask="url(#bN)" transform="matrix(1 0 0 1 -72.03125 -412)">
        <path d="m 64 80 c 0 -2.167969 -0.738281 -4.019531 -2 -5 h -1 v 2 c 0.605469 0.789062 1 1.757812 1 3 s -0.394531 2.21875 -1 3 v 2 h 1 c 1.222656 -0.996094 2 -2.875 2 -5 z m 0 0" fill="#2e3436"/>
    </g>
    <g clip-path="url(#bQ)" mask="url(#bP)" transform="matrix(1 0 0 1 -72.03125 -412)">
        <path d="m 83 73 v 1.480469 c 1.265625 1.519531 2 3.21875 2 5.519531 c 0 0.722656 -0.085938 1.382812 -0.230469 2 h 2.035157 c 0.125 -0.644531 0.195312 -1.3125 0.195312 -2 c 0 -2.8125 -1 -5.171875 -2.585938 -7 z m 0 0" fill="#2e3436"/>
    </g>
    <g clip-path="url(#bS)" mask="url(#bR)" transform="matrix(1 0 0 1 -72.03125 -412)">
        <path d="m 81 75 v 2 c 0.605469 0.789062 1 1.757812 1 3 s -0.394531 2.21875 -1 3 v 2 h 1 v -3 h 1.75 c 0.15625 -0.625 0.25 -1.296875 0.25 -2 c 0 -2.167969 -0.738281 -4.019531 -2 -5 z m 0 0" fill="#2e3436"/>
    </g>
    <g clip-path="url(#bU)" mask="url(#bT)" transform="matrix(1 0 0 1 -72.03125 -412)">
        <path d="m 81 80 c 0 -1.257812 -0.3125 -2.214844 -1 -3 h -1 v 6 h 1 c 0.671875 -0.835938 1 -1.742188 1 -3 z m 0 0" fill="#2e3436"/>
    </g>
    <g clip-path="url(#bW)" mask="url(#bV)" transform="matrix(1 0 0 1 -72.03125 -412)">
        <path d="m 208 232 h -16 v 16 h 16 z m 0 0"/>
    </g>
    <g clip-path="url(#bY)" mask="url(#bX)" transform="matrix(1 0 0 1 -72.03125 -412)">
        <path d="m 165.003906 42.941406 l -10.003906 -0.003906 v -11.917969 h 2 v -1.5 c 0 -0.234375 0.25 -0.480469 0.46875 -0.480469 h 4.972656 c 0.28125 -0.015624 0.546875 0.339844 0.5625 0.621094 v 1.359375 h 2 z m 0 0" fill="none" stroke="#2e3436" stroke-linecap="round" stroke-width="1.996769" transform="matrix(1 0 0 1 0 64)"/>
    </g>
    <g clip-path="url(#b0)" mask="url(#bZ)" transform="matrix(1 0 0 1 -72.03125 -412)">
        <path d="m 322 53 v 1 c 0 0.257812 0.128906 0.527344 0.3125 0.71875 l 1.28125 1.28125 h -3.363281 c 1.378906 0.074219 2.605469 0.847656 3.269531 2 h 0.125 l -0.074219 0.078125 c 0.269531 0.496094 0.449219 1.046875 0.484375 1.648437 v 0.054688 c 0 0.265625 -0.019531 0.515625 -0.050781 0.761719 l 3.421875 -3.542969 l -3.65625 -3.71875 c -0.199219 -0.191406 -0.441406 -0.28125 -0.75 -0.28125 z m -3 3 c -0.292969 -0.003906 -0.558594 0.148438 -0.746094 0.371094 c 0.414063 -0.199219 0.871094 -0.320313 1.347656 -0.371094 z m -2.929688 3.40625 l -3.476562 3.59375 l 3.65625 3.71875 c 0.199219 0.191406 0.441406 0.28125 0.75 0.28125 h 1 v -1 c 0 -0.257812 -0.128906 -0.527344 -0.3125 -0.71875 l -1.28125 -1.28125 h 1.96875 c -0.207031 -0.292969 -0.34375 -0.632812 -0.335938 -1.039062 c 0 -0.355469 0.074219 -0.671876 0.179688 -0.960938 h -1.84375 l 0.980469 -1.03125 h -1.265625 l -0.050782 -0.941406 c -0.015624 -0.214844 0.007813 -0.417969 0.027344 -0.621094 z m 0 0" fill="#2e3436"/>
    </g>
    <g clip-path="url(#b2)" mask="url(#b1)" transform="matrix(1 0 0 1 -72.03125 -412)">
        <path d="m 601.984375 179.984375 h 3 v 2 h -3 z m 0 0" fill="#2e3436"/>
    </g>
    <g clip-path="url(#b4)" mask="url(#b3)" transform="matrix(1 0 0 1 -72.03125 -412)">
        <path d="m 655.996094 280 c 2.320312 1 3.046875 -1.660156 6 0 v 1 h -6 z m 0 0" fill="#2e3436"/>
    </g>
    <g clip-path="url(#b6)" mask="url(#b5)" transform="matrix(1 0 0 1 -72.03125 -412)">
        <path d="m 234 395 h 11 v 7 h -11 z m 0 0" fill="#2e3436"/>
    </g>
    <g clip-path="url(#b8)" mask="url(#b7)" transform="matrix(1 0 0 1 -72.03125 -412)">
        <path d="m 255 396 h 10 v -2 h -10 z m 0 0" fill="#2e3436"/>
    </g>
    <g clip-path="url(#ca)" mask="url(#b9)" transform="matrix(1 0 0 1 -72.03125 -412)">
        <path d="m 257 400.03125 h 6 v 0.96875 l -6 1 z m 0 0" fill="#2e3436"/>
    </g>
    <path d="m 1 5 c -0.554688 0 -1 0.523438 -1 1.15625 v 4.5625 c 0 0.632812 0.417969 1.28125 0.96875 1.28125 h 1 c 0 0.632812 0.476562 1 1.027344 1 h 0.996094 c 0.554687 0 0.976562 -0.367188 0.976562 -1 h 5.988281 c 0 0.632812 0.46875 1 1.019531 1 h 0.996094 c 0.550782 0 0.996094 -0.367188 0.996094 -1 h 1.003906 c 0.550782 0 0.996094 -0.648438 0.996094 -1.28125 v -4.5625 c 0 -0.632812 -0.445312 -1.15625 -0.996094 -1.15625 z m 0.496094 1.191406 c 0.277344 0 0.5 0.929688 0.5 2.308594 s -0.222656 2.238281 -0.5 2.238281 c -0.273438 0 -0.496094 -0.859375 -0.496094 -2.238281 s 0.222656 -2.308594 0.496094 -2.308594 z m 1.996094 0 c 0.277343 0 0.5 1.121094 0.5 2.5 c 0 1.382813 -0.257813 2.042969 -0.535157 2.042969 c -0.273437 0 -0.460937 -0.855469 -0.460937 -2.234375 s 0.222656 -2.308594 0.496094 -2.308594 z m 1.960937 0 c 0.277344 0 0.535156 0.929688 0.535156 2.308594 s -0.222656 2.234375 -0.5 2.234375 c -0.273437 0 -0.496093 -0.855469 -0.496093 -2.234375 s 0.1875 -2.308594 0.460937 -2.308594 z m 7.023437 -0.191406 c 1.378907 0 2.496094 1.121094 2.496094 2.5 s -1.117187 2.5 -2.496094 2.5 c -1.378906 0 -2.496093 -1.121094 -2.496093 -2.5 s 1.117187 -2.5 2.496093 -2.5 z m 0 0" fill="#2e3436"/>
    <path d="m 13.96875 8.5 c 0 0.828125 -0.671875 1.5 -1.5 1.5 s -1.5 -0.671875 -1.5 -1.5 s 0.671875 -1.5 1.5 -1.5 s 1.5 0.671875 1.5 1.5 z m 0 0" fill="#2e3436"/>
    <path d="m -11.015625 14.5 h 3.921875 c 0.863281 0 1.53125 -0.597656 1.542968 -1.839844 l 0.019532 -2.097656 l -1.78125 -0.65625" fill="none" stroke="#2e3436" stroke-linecap="round"/>
    <g clip-path="url(#cc)" mask="url(#cb)" transform="matrix(1 0 0 1 -72.03125 -412)">
        <path d="m 165.003708 102.941406 l -10.003906 -0.003906 v -11.917969 h 2 v -1.5 c 0 -0.234375 0.25 -0.480469 0.46875 -0.480469 h 4.972656 c 0.28125 -0.015624 0.546875 0.339844 0.5625 0.621094 v 1.359375 h 2 z m 0 0" fill="none" stroke="#2e3436" stroke-linecap="round" stroke-width="1.996769" transform="matrix(1 0 0 1 -139.999802 304)"/>
    </g>
    <g clip-path="url(#ce)" mask="url(#cd)" transform="matrix(1 0 0 1 -72.03125 -412)">
        <path d="m 557.21875 401 l -2.21875 4 h 8 l -2.21875 -4 z m 0 0" fill="#2e3436"/>
    </g>
    <g clip-path="url(#cg)" mask="url(#cf)" transform="matrix(1 0 0 1 -72.03125 -412)">
        <path d="m 156.113281 539.816406 v -0.207031 l -0.199219 0.019531 c 0.015626 -0.132812 0.035157 -0.261718 0.050782 -0.394531 h -0.117188 l -0.113281 0.152344 l -0.117187 0.054687 l -0.164063 -0.09375 l -0.019531 -0.207031 l 0.035156 -0.222656 l 0.246094 -0.1875 h 0.199218 l 0.035157 -0.113281 l 0.246093 0.058593 l 0.183594 0.222657 l 0.03125 -0.375 l 0.3125 -0.261719 l 0.117188 -0.28125 l 0.230468 -0.089844 l 0.132813 -0.1875 l 0.296875 -0.058594 l 0.148438 -0.222656 c -0.148438 0 -0.296876 0 -0.445313 0 l 0.28125 -0.132813 h 0.199219 l 0.28125 -0.09375 l 0.03125 -0.109374 l -0.097656 -0.09375 l -0.117188 -0.039063 l 0.035156 -0.113281 l -0.085937 -0.167969 l -0.195313 0.078125 l 0.03125 -0.152344 l -0.230468 -0.128906 l -0.183594 0.316406 l 0.019531 0.113282 l -0.183594 0.074218 l -0.117187 0.242188 l -0.046875 -0.222656 l -0.316407 -0.132813 l -0.046874 -0.167969 l 0.410156 -0.242187 l 0.183594 -0.167969 l 0.015624 -0.207031 l -0.097656 -0.054688 l -0.132812 -0.019531 l -0.082032 0.207031 s -0.136718 0.027344 -0.175781 0.035157 c -0.453125 0.417968 -1.367187 1.320312 -1.582031 3.023437 c 0.007812 0.039063 0.15625 0.269531 0.15625 0.269531 l 0.34375 0.203125 l 0.347656 0.09375 m 3.96875 -4.300781 l -0.433594 -0.167969 l -0.492187 0.058594 l -0.613281 0.167969 l -0.117188 0.113281 l 0.382813 0.261719 v 0.148437 l -0.148438 0.148438 l 0.195313 0.394531 l 0.132812 -0.074219 l 0.167969 -0.261719 c 0.253906 -0.082031 0.484375 -0.171874 0.726563 -0.28125 z m 2.527344 0.34375 l -0.375 0.09375 l -0.21875 0.15625 v 0.125 l -0.375 0.25 l 0.09375 0.34375 l 0.21875 -0.15625 l 0.125 0.15625 l 0.15625 0.09375 l 0.09375 -0.28125 l -0.0625 -0.15625 l 0.0625 -0.09375 l 0.21875 -0.1875 h 0.09375 l -0.09375 0.21875 v 0.1875 c 0.089844 -0.023438 0.160156 -0.050781 0.25 -0.0625 l -0.25 0.1875 v 0.125 l -0.3125 0.21875 l -0.28125 -0.0625 v -0.15625 l -0.125 0.0625 l 0.0625 0.15625 h -0.21875 l -0.125 0.21875 l -0.15625 0.15625 l -0.09375 0.03125 v 0.1875 l 0.03125 0.15625 h -0.03125 v 0.53125 l 0.0625 -0.03125 l 0.09375 -0.21875 l 0.1875 -0.125 l 0.03125 -0.09375 l 0.28125 -0.0625 l 0.15625 0.1875 l 0.1875 0.09375 l -0.09375 0.1875 l 0.15625 -0.03125 l 0.0625 -0.21875 l -0.1875 -0.21875 h 0.0625 l 0.21875 0.15625 l 0.03125 0.21875 l 0.15625 0.21875 l 0.0625 -0.3125 l 0.09375 -0.03125 c 0.09375 0.101562 0.167969 0.230469 0.25 0.34375 h 0.28125 l 0.1875 0.125 l -0.25 0.25 h -0.25 l -0.34375 -0.09375 h -0.1875 l -0.125 0.15625 l -0.34375 -0.375 l -0.25 -0.0625 l -0.375 0.0625 l -0.15625 0.09375 v 2.40625 l 0.03125 0.03125 l 0.25 -0.15625 l 0.09375 0.09375 h 0.28125 l 0.125 0.15625 l -0.09375 0.3125 l 0.1875 0.1875 v 0.375 l 0.125 0.25 l -0.09375 0.25 c -0.007812 0.160156 0 0.308594 0 0.46875 c 0.078125 0.21875 0.144531 0.4375 0.21875 0.65625 l 0.0625 0.34375 v 0.1875 h 0.125 l 0.21875 -0.125 h 0.25 l 0.375 -0.4375 l -0.03125 -0.15625 l 0.25 -0.21875 l -0.1875 -0.1875 l 0.21875 -0.1875 l 0.21875 -0.125 l 0.09375 -0.125 l -0.0625 -0.25 v -0.59375 l 0.1875 -0.375 l 0.1875 -0.25 l 0.25 -0.5625 v -0.15625 c -0.117188 0.015625 -0.230469 0.023438 -0.34375 0.03125 c -0.074219 0.003906 -0.144531 0 -0.21875 0 c -0.125 -0.257812 -0.21875 -0.511719 -0.3125 -0.78125 l -0.15625 -0.1875 l -0.09375 -0.3125 l 0.0625 -0.0625 l 0.21875 0.25 l 0.25 0.5625 l 0.15625 0.15625 l -0.0625 0.21875 l 0.15625 0.15625 l 0.25 -0.25 l 0.3125 -0.21875 l 0.15625 -0.1875 v -0.21875 c -0.039062 -0.074219 -0.054688 -0.144531 -0.09375 -0.21875 l -0.15625 0.1875 l -0.125 -0.15625 l -0.1875 -0.125 v -0.28125 l 0.21875 0.21875 l 0.21875 -0.03125 c 0.101562 0.09375 0.191406 0.207031 0.28125 0.3125 l 0.15625 -0.1875 c 0 -0.175781 -0.199219 -1.019531 -0.625 -1.75 s -1.15625 -1.40625 -1.15625 -1.40625 l -0.0625 0.09375 l -0.21875 0.21875 l -0.25 -0.25 h 0.25 l 0.125 -0.125 l -0.46875 -0.09375 z m 0 0" fill="#2e3436"/>
    </g>
    <g clip-path="url(#ci)" mask="url(#ch)" transform="matrix(1 0 0 1 -72.03125 -412)">
        <path d="m 259.464844 544 c 0 1.914062 -1.550782 3.464844 -3.464844 3.464844 s -3.464844 -1.550782 -3.464844 -3.464844 s 1.550782 -3.464844 3.464844 -3.464844 s 3.464844 1.550782 3.464844 3.464844 z m 0 0" fill="#2e3436"/>
    </g>
    <g clip-path="url(#ck)" mask="url(#cj)" transform="matrix(1 0 0 1 -72.03125 -412)">
        <path d="m 292.9375 526.75 v -2.1875 l 4.21875 -1.128906 l 2.34375 0.59375 l 2.386719 -0.667969 l 3.742187 1 v 2.453125 z m 0 0" fill="#2e3436"/>
    </g>
    <g clip-path="url(#cm)" mask="url(#cl)" transform="matrix(1 0 0 1 -72.03125 -412)">
        <path d="m 88 512 h -16 v 16 h 16 z m 0 0" fill="#2e3436"/>
    </g>
    <g clip-path="url(#co)" mask="url(#cn)" transform="matrix(1 0 0 1 -72.03125 -412)">
        <path d="m 48 532 h -16 v 16 h 16 z m 0 0"/>
    </g>
    <g clip-path="url(#cq)" mask="url(#cp)" transform="matrix(1 0 0 1 -72.03125 -412)">
        <path d="m 40 536 v 5 h -4 v 1 h 8 v -6 z m 0 0" fill="#2e3436"/>
    </g>
    <g clip-path="url(#cs)" mask="url(#cr)" transform="matrix(1 0 0 1 -72.03125 -412)">
        <path d="m 68 532 h -16 v 16 h 16 z m 0 0"/>
    </g>
    <g clip-path="url(#cu)" mask="url(#ct)" transform="matrix(1 0 0 1 -72.03125 -412)">
        <path d="m 17.007812 837 c 2.320313 1 3.042969 -1.660156 6 0 v 1 h -6 z m 0 0" fill="#2e3436"/>
    </g>
    <g clip-path="url(#cw)" mask="url(#cv)" transform="matrix(1 0 0 1 -72.03125 -412)">
        <path d="m 177.632812 777 h -2.25 c -0.210937 0 -0.375 0.167969 -0.375 0.375 v 1.25 c 0 0.207031 0.164063 0.375 0.375 0.375 h 2.25 c 0.207032 0 0.375 -0.167969 0.375 -0.375 v -1.25 c 0 -0.207031 -0.167968 -0.375 -0.375 -0.375 z m 0 0" fill="#2e3436"/>
    </g>
    <g clip-path="url(#cy)" mask="url(#cx)" transform="matrix(1 0 0 1 -72.03125 -412)">
        <path d="m 177.632812 780 h -2.25 c -0.210937 0 -0.375 0.167969 -0.375 0.375 v 1.25 c 0 0.207031 0.164063 0.375 0.375 0.375 h 2.25 c 0.207032 0 0.375 -0.167969 0.375 -0.375 v -1.25 c 0 -0.207031 -0.167968 -0.375 -0.375 -0.375 z m 0 0" fill="#2e3436"/>
    </g>
    <g clip-path="url(#cA)" mask="url(#cz)" transform="matrix(1 0 0 1 -72.03125 -412)">
        <path d="m 184.632812 777 h -2.25 c -0.210937 0 -0.375 0.167969 -0.375 0.375 v 1.25 c 0 0.207031 0.164063 0.375 0.375 0.375 h 2.25 c 0.207032 0 0.375 -0.167969 0.375 -0.375 v -1.25 c 0 -0.207031 -0.167968 -0.375 -0.375 -0.375 z m 0 0" fill="#2e3436"/>
    </g>
    <g clip-path="url(#cC)" mask="url(#cB)" transform="matrix(1 0 0 1 -72.03125 -412)">
        <path d="m 184.632812 780 h -2.25 c -0.210937 0 -0.375 0.167969 -0.375 0.375 v 1.25 c 0 0.207031 0.164063 0.375 0.375 0.375 h 2.25 c 0.207032 0 0.375 -0.167969 0.375 -0.375 v -1.25 c 0 -0.207031 -0.167968 -0.375 -0.375 -0.375 z m 0 0" fill="#2e3436"/>
    </g>
    <g clip-path="url(#cE)" mask="url(#cD)" transform="matrix(1 0 0 1 -72.03125 -412)">
        <path d="m 160.632812 776 h -3.25 c -0.210937 0 -0.375 0.167969 -0.375 0.375 v 1.25 c 0 0.207031 0.164063 0.375 0.375 0.375 h 3.25 c 0.207032 0 0.375 -0.167969 0.375 -0.375 v -1.25 c 0 -0.207031 -0.167968 -0.375 -0.375 -0.375 z m 0 0" fill="#2e3436"/>
    </g>
    <g clip-path="url(#cG)" mask="url(#cF)" transform="matrix(1 0 0 1 -72.03125 -412)">
        <path d="m 160.632812 779 h -3.25 c -0.210937 0 -0.375 0.167969 -0.375 0.375 v 1.25 c 0 0.207031 0.164063 0.375 0.375 0.375 h 3.25 c 0.207032 0 0.375 -0.167969 0.375 -0.375 v -1.25 c 0 -0.207031 -0.167968 -0.375 -0.375 -0.375 z m 0 0" fill="#2e3436"/>
    </g>
    <g clip-path="url(#cI)" mask="url(#cH)" transform="matrix(1 0 0 1 -72.03125 -412)">
        <path d="m 141.632812 783 h -3.253906 c -0.207031 0 -0.375 0.167969 -0.375 0.375 v 1.25 c 0 0.207031 0.167969 0.375 0.375 0.375 h 3.253906 c 0.207032 0 0.375 -0.167969 0.375 -0.375 v -1.25 c 0 -0.207031 -0.167968 -0.375 -0.375 -0.375 z m 0 0" fill="#2e3436"/>
    </g>
    <g clip-path="url(#cK)" mask="url(#cJ)" transform="matrix(1 0 0 1 -72.03125 -412)">
        <path d="m 141.632812 772 h -3.253906 c -0.207031 0 -0.375 0.167969 -0.375 0.375 v 1.25 c 0 0.207031 0.167969 0.375 0.375 0.375 h 3.253906 c 0.207032 0 0.375 -0.167969 0.375 -0.375 v -1.25 c 0 -0.207031 -0.167968 -0.375 -0.375 -0.375 z m 0 0" fill="#2e3436"/>
    </g>
    <g clip-path="url(#cM)" mask="url(#cL)" transform="matrix(1 0 0 1 -72.03125 -412)">
        <path d="m 141.632812 786 h -3.253906 c -0.207031 0 -0.375 0.167969 -0.375 0.375 v 1.25 c 0 0.207031 0.167969 0.375 0.375 0.375 h 3.253906 c 0.207032 0 0.375 -0.167969 0.375 -0.375 v -1.25 c 0 -0.207031 -0.167968 -0.375 -0.375 -0.375 z m 0 0" fill="#2e3436"/>
    </g>
    <g clip-path="url(#cO)" mask="url(#cN)" transform="matrix(1 0 0 1 -72.03125 -412)">
        <path d="m 141.632812 775 h -3.253906 c -0.207031 0 -0.375 0.167969 -0.375 0.375 v 1.25 c 0 0.207031 0.167969 0.375 0.375 0.375 h 3.253906 c 0.207032 0 0.375 -0.167969 0.375 -0.375 v -1.25 c 0 -0.207031 -0.167968 -0.375 -0.375 -0.375 z m 0 0" fill="#2e3436"/>
    </g>
    <g clip-path="url(#cQ)" mask="url(#cP)" transform="matrix(1 0 0 1 -72.03125 -412)">
        <path d="m 416.007812 633.996094 c -0.554687 0 -1 0.445312 -1 1 v 5.007812 c 0 0.550782 0.445313 1 1 1 h 0.996094 v -1.003906 c 0 -1.050781 0.953125 -2.007812 2.003906 -2.003906 h 3 v -3 c 0 -0.554688 -0.449218 -1 -1 -1 z m -4 1.007812 v 5.003906 h 0.476563 l 2.257813 -2.585937 l -2.125 -2.417969 z m 0 0" fill="#2e3436"/>
    </g>
    <g clip-path="url(#cS)" mask="url(#cR)" transform="matrix(1 0 0 1 -72.03125 -412)">
        <path d="m 25.988281 912 c -0.105469 0 -0.210937 0.035156 -0.296875 0.09375 l -5.496094 4 c -0.128906 0.097656 -0.207031 0.246094 -0.207031 0.40625 v 6.75 c 0 0.15625 0.070313 0.300781 0.195313 0.394531 l 5.496094 4.25 c 0.089843 0.070313 0.195312 0.105469 0.308593 0.105469 c 0.859375 0 1.425781 -0.320312 1.710938 -0.699219 c 0.285156 -0.378906 0.289062 -0.800781 0.289062 -0.800781 v -13 s -0.003906 -0.421875 -0.289062 -0.800781 c -0.285157 -0.378907 -0.851563 -0.699219 -1.710938 -0.699219 z m 0 1.117188 v 13.75 l -5 -3.863282 v -6.246094 z m 0 0" fill="#2e3436" fill-rule="evenodd"/>
    </g>
    <g clip-path="url(#cU)" mask="url(#cT)" transform="matrix(1 0 0 1 -72.03125 -412)">
        <path d="m 281.848628 780.820035 l -2.849306 1.180221 l -4.240876 -1.758996 l -1.756718 -4.241094 l 1.754954 -4.24255 l 4.243951 -1.757902 l 4.243735 1.757812 l 1.175689 2.854532" fill="none" stroke="#2e3436" stroke-linecap="round" stroke-linejoin="round" stroke-width="1.583794" transform="matrix(1.166667 0.483249 -0.483249 1.166667 349.507202 -200.159882)"/>
    </g>
    <g clip-path="url(#cW)" mask="url(#cV)" transform="matrix(1 0 0 1 -72.03125 -412)">
        <path d="m 299 836 h 2 v 3 l -0.25 2 h -1.46875 l -0.28125 -2 z m 1 5.75 c 0.691406 0 1.25 0.558594 1.25 1.25 s -0.558594 1.25 -1.25 1.25 s -1.25 -0.558594 -1.25 -1.25 s 0.558594 -1.25 1.25 -1.25 z m 0 0" fill="#2e3436"/>
    </g>
</svg>
