<svg xmlns="http://www.w3.org/2000/svg" width="16.531" height="16">
    <g color="#000" font-weight="400" fill="#474747">
        <path d="M8.252.004L7.25.03l.031.5c.047.466-.202.97-.594 1.219-.353.249-.904.198-1.593.219a2.01 2.01 0 0 0-1.032.281c-.328.197-.65.547-.718 1-.159.892.454 1.633 1.156 1.781.807.176 1.644.076 2.625 0 .256-.02.6.02.812.125.334.261.285.403.282.875H2.562l-.218.719-1.97 7L0 15.031H16.53l-.375-1.281-1.813-6.027-1.586 1.536 1.15 3.772H2.624l1.438-5h3.312l1.844-1.968v-.5c-.003-.612-.406-1.097-.844-1.313-.438-.216-.93-.25-1.344-.219-.996.077-1.74.125-2.312 0h-.031c-.2-.042-.418-.21-.344-.625.019-.124.078-.196.219-.28.14-.086.352-.156.53-.157h.032c.564-.017 1.377.118 2.094-.406.818-.599 1.153-1.396 1.062-2.125z" style="line-height:normal;-inkscape-font-specification:Sans;text-indent:0;text-align:start;text-decoration-line:none;text-transform:none;marker:none" font-family="Sans" overflow="visible"/>
        <path d="M14.262 4.354a1.047 1.047 0 0 0-1.577.113L7.732 9.419l-.45 1.898 1.87-.39 5-5a1.047 1.047 0 0 0 .11-1.574z" style="line-height:normal;text-indent:0;text-align:start;text-decoration-line:none;text-decoration-style:solid;text-decoration-color:#000;text-transform:none;isolation:auto;mix-blend-mode:normal;marker:none" font-family="sans-serif" white-space="normal" clip-rule="evenodd" overflow="visible" fill-rule="evenodd" image-rendering="optimizeQuality" shape-rendering="geometricPrecision" text-rendering="geometricPrecision"/>
    </g>
</svg>
