<svg xmlns="http://www.w3.org/2000/svg" width="16" height="16">
    <path d="M2.246 3c-.152 0-.256.073-.29.203L.261 11.824C.035 12.67 1.822 13.681 3 13l3-4h4l3 4c1.179.68 2.965-.33 2.738-1.176l-1.693-8.62C14.01 3.072 13.906 3 13.754 3zM10.5 4.89a.734.734 0 1 1 0 1.47.734.734 0 0 1 0-1.47zM4.094 4h.812c.052 0 .094.042.094.094V5h.906c.052 0 .094.042.094.094v.812A.094.094 0 0 1 5.906 6H5v.906A.094.094 0 0 1 4.906 7h-.812A.094.094 0 0 1 4 6.906V6h-.906A.094.094 0 0 1 3 5.906v-.812C3 5.042 3.042 5 3.094 5H4v-.906C4 4.042 4.043 4 4.094 4zm8.362 1.846a.734.734 0 1 1 0 1.468.734.734 0 0 1 0-1.468z" color="#000" overflow="visible" fill="#474747"/>
</svg>
