<?xml version="1.0" encoding="UTF-8"?>
<svg height="16px" viewBox="0 0 16 16" width="16px" xmlns="http://www.w3.org/2000/svg">
    <path d="m 6 2 c -1.644531 0 -3 1.355469 -3 3 v 6 c 0 1.644531 1.355469 3 3 3 h 5 c 1.644531 0 3 -1.355469 3 -3 v -6 c 0 -0.265625 -0.105469 -0.519531 -0.292969 -0.707031 l -2 -2 c -0.1875 -0.1875 -0.441406 -0.292969 -0.707031 -0.292969 z m 0 2 h 4.585938 l 1.414062 1.414062 v 5.585938 c 0 0.570312 -0.429688 1 -1 1 h -5 c -0.570312 0 -1 -0.429688 -1 -1 v -6 c 0 -0.570312 0.429688 -1 1 -1 z m 0.9375 1 c -0.515625 0 -0.9375 0.421875 -0.9375 0.9375 v 2.03125 c 0 0.515625 0.421875 0.9375 0.9375 0.9375 h 0.0625 v -2.90625 h 1 v 2.90625 h 2.0625 c 0.515625 0 0.9375 -0.421875 0.9375 -0.9375 v -2.03125 c 0 -0.515625 -0.421875 -0.9375 -0.9375 -0.9375 h -0.0625 v 3.03125 h -1 v -3.03125 z m 0 0" fill="#2e3434"/>
</svg>
