<?xml version="1.0" encoding="UTF-8"?>
<svg height="16px" viewBox="0 0 16 16" width="16px" xmlns="http://www.w3.org/2000/svg">
    <g fill="#2e3434">
        <path d="m 7.496094 0 c -3.898438 0.00390625 -7.160156 3.011719 -7.4726565 6.898438 l -0.078125 0.996093 l 1.0546875 0.085938 v 0.019531 h 0.238281 l 0.699219 0.054688 l 0.003906 -0.054688 h 11.117188 l 0.003906 0.050781 l 0.625 -0.050781 h 0.3125 v -0.023438 l 1.054688 -0.089843 l -0.078126 -0.996094 c -0.320312 -3.886719 -3.582031 -6.89453125 -7.480468 -6.890625 z m -0.496094 2.023438 v 2.933593 c -0.609375 -0.089843 -1.25 -0.347656 -1.929688 -0.808593 c 0.316407 -0.734376 0.804688 -1.449219 1.585938 -2.085938 c 0.113281 -0.015625 0.226562 -0.027344 0.34375 -0.039062 z m 1 0 c 0.132812 0.011718 0.261719 0.03125 0.394531 0.050781 c 0.773438 0.632812 1.257813 1.339843 1.570313 2.070312 c -0.660156 0.453125 -1.3125 0.730469 -1.964844 0.820313 z m -3.320312 0.75 c -0.160157 0.246093 -0.300782 0.496093 -0.421876 0.75 c -0.09375 -0.082032 -0.1875 -0.164063 -0.28125 -0.253907 c 0.21875 -0.183593 0.457032 -0.347656 0.703126 -0.496093 z m 5.695312 0.039062 c 0.230469 0.136719 0.449219 0.292969 0.652344 0.460938 c -0.085938 0.082031 -0.171875 0.160156 -0.257813 0.238281 c -0.113281 -0.238281 -0.242187 -0.472657 -0.394531 -0.699219 z m -7.105469 1.167969 c 0.203125 0.1875 0.410157 0.363281 0.613281 0.527343 c -0.265624 0.875 -0.34375 1.730469 -0.371093 2.492188 h -1.488281 c 0.105468 -1.152344 0.554687 -2.191406 1.246093 -3.019531 z m 8.464844 0.003906 c 0.6875 0.828125 1.136719 1.867187 1.242187 3.015625 h -1.457031 c -0.023437 -0.761719 -0.101562 -1.621094 -0.363281 -2.5 c 0.191406 -0.160156 0.386719 -0.332031 0.578125 -0.515625 z m -6.984375 1.140625 c 0.757812 0.472656 1.507812 0.753906 2.25 0.84375 v 1.03125 h -2.484375 c 0.023437 -0.601562 0.078125 -1.238281 0.234375 -1.875 z m 5.539062 0.007812 c 0.152344 0.632813 0.210938 1.269532 0.230469 1.867188 h -2.519531 v -1.027344 c 0.796875 -0.085937 1.558594 -0.378906 2.289062 -0.839844 z m 0 0"/>
        <path d="m 2.375 8.992188 c -1.21875 0.011718 -2.207031 1.175781 -1.957031 2.402343 l 0.011719 0.0625 l 0.019531 0.054688 c 2.050781 4.679687 12.050781 4.691406 14.097656 0 l 0.019531 -0.054688 l 0.011719 -0.0625 c 0.265625 -1.28125 -0.820313 -2.492187 -2.113281 -2.394531 h -1.464844 c -1.09375 0 -2 0.90625 -2 2 v 1.792969 l -0.078125 0.019531 c -0.929687 0.25 -1.914063 0.25 -2.847656 0 l -0.074219 -0.019531 v -1.792969 c 0 -1.09375 -0.90625 -2 -2 -2 h -1.480469 c -0.046875 -0.003906 -0.097656 -0.007812 -0.144531 -0.007812 z m 0.054688 2.007812 h 1.570312 v 1.308594 c -0.722656 -0.136719 -1.296875 -0.636719 -1.574219 -1.308594 z m 10.144531 0 c -0.277344 0.671875 -0.851563 1.171875 -1.574219 1.304688 v -1.304688 z m 0 0"/>
    </g>
</svg>
