<?xml version="1.0" encoding="UTF-8"?>
<svg height="16px" viewBox="0 0 16 16" width="16px" xmlns="http://www.w3.org/2000/svg">
    <path d="m 4.015625 0.015625 c -0.554687 0 -1 0.445313 -1 1 v 2 c 0 0.0625 0.007813 0.125 0.019531 0.1875 c -0.441406 0.148437 -0.867187 0.394531 -1.222656 0.808594 c -0.476562 0.496093 -0.691406 1.117187 -0.757812 1.640625 c -0.070313 0.535156 -0.039063 1.003906 -0.039063 1.359375 c -0.003906 0.550781 0.445313 1 0.996094 1.003906 s 1 -0.445313 1.003906 -0.996094 c 0.003906 -0.445312 -0.015625 -0.835937 0.019531 -1.113281 s 0.089844 -0.402344 0.210938 -0.523438 l 0.03125 -0.03125 l 0.03125 -0.035156 c 0.207031 -0.25 0.648437 -0.335937 1.308594 -0.300781 h 0.050781 c 2.5 0.007813 4.984375 -0.015625 7.464843 0.011719 c 0.492188 0.035156 0.953126 0.644531 0.890626 1.15625 l -0.007813 0.058594 v 0.054687 c -0.015625 1.332031 0.023437 2.632813 -0.019531 3.890625 c -0.066406 0.472656 -0.65625 0.894531 -1.15625 0.835938 l -0.054688 -0.007813 h -0.769531 c -0.550781 0 -1 0.449219 -1 1 s 0.449219 1 1 1 h 0.699219 c 1.570312 0.128906 3.066406 -0.953125 3.269531 -2.585937 l 0.007813 -0.046876 v -0.042968 c 0.054687 -1.375 0.011718 -2.71875 0.023437 -4.023438 c 0.117187 -1.382812 -0.71875 -2.695312 -2.011719 -3.136718 c 0.007813 -0.054688 0.011719 -0.109376 0.011719 -0.164063 v -2 c 0 -0.554687 -0.445313 -1 -1 -1 s -1 0.445313 -1 1 v 2 c -0.667969 0 -1.335937 0 -2 0 v -2 c 0 -0.554687 -0.445313 -1 -1 -1 s -1 0.445313 -1 1 v 2 c -0.667969 0 -1.335937 0 -2 0 v -2 c 0 -0.554687 -0.445313 -1 -1 -1 z m 1 7 v 2 c -2.199219 0 -4 1.800781 -4 4 v 2 c 0 0.550781 0.449219 1 1 1 s 1 -0.449219 1 -1 v -2 c 0 -1.117187 0.882813 -2 2 -2 v 2 c 0.523437 -0.035156 1.085937 0.109375 1.554687 -0.167969 c 0.648438 -0.582031 1.238282 -1.230468 1.863282 -1.839844 c 0.429687 -0.339843 0.777344 -0.917968 0.46875 -1.457031 c -0.398438 -0.53125 -0.925782 -0.957031 -1.378906 -1.441406 c -0.472657 -0.398437 -0.832032 -1.070313 -1.507813 -1.09375 c -0.332031 0 -0.667969 0 -1 0 z m 0 0" fill="#2e3436"/>
</svg>
