<?xml version="1.0" encoding="UTF-8"?>
<svg height="16px" viewBox="0 0 16 16" width="16px" xmlns="http://www.w3.org/2000/svg">
    <path d="m 8.015625 0.015625 c -0.769531 0 -1.539063 0.292969 -2.121094 0.875 l -5.003906 5.003906 c -1.164063 1.164063 -1.164063 3.078125 0 4.242188 l 5.003906 5.003906 c 1.164063 1.164063 3.078125 1.164063 4.242188 0 l 5.007812 -5.003906 c 1.164063 -1.164063 1.164063 -3.078125 0 -4.242188 l -5.007812 -5.003906 c -0.582031 -0.582031 -1.351563 -0.875 -2.121094 -0.875 z m 0.101563 1.988281 c 0.210937 0.023438 0.414062 0.117188 0.585937 0.28125 l -0.339844 0.113282 c -0.074219 -0.136719 -0.15625 -0.269532 -0.246093 -0.394532 z m -1.570313 1.058594 c 0.300781 0.421875 0.464844 0.929688 0.46875 1.453125 c 0 1.378906 -1.121094 2.5 -2.5 2.5 c -0.523437 -0.003906 -1.03125 -0.171875 -1.449219 -0.472656 z m 3.441406 0.503906 l 3.742188 3.742188 c 0.402343 0.402344 0.402343 1.011718 0 1.414062 l -0.253907 0.25 c -0.039062 -0.046875 -0.074218 -0.09375 -0.117187 -0.140625 l 0.621094 -0.855469 l -0.808594 -0.585937 l -0.621094 0.851563 c -0.167969 -0.078126 -0.347656 -0.136719 -0.535156 -0.175782 v -1.050781 h -1 v 1.050781 c -0.183594 0.039063 -0.363281 0.097656 -0.53125 0.175782 l -0.621094 -0.851563 l -0.804687 0.585937 l 0.617187 0.855469 c -0.125 0.136719 -0.238281 0.289063 -0.332031 0.453125 l -1 -0.324218 l -0.308594 0.949218 l 1 0.324219 c -0.011718 0.09375 -0.019531 0.1875 -0.019531 0.28125 s 0.007813 0.1875 0.019531 0.28125 l -1 0.324219 l 0.308594 0.949218 l 1 -0.324218 c 0.09375 0.164062 0.207031 0.316406 0.332031 0.453125 l -0.617187 0.855469 l 0.195312 0.140624 l -0.53125 0.53125 c -0.402344 0.40625 -1.011718 0.40625 -1.414062 0 l -4.902344 -4.902343 l 0.027344 -0.039063 l 0.210937 -0.289062 c 0.328125 0.152344 0.679688 0.269531 1.046875 0.339844 v 1.179687 h 1.648438 v -1.179687 c 0.363281 -0.070313 0.714844 -0.1875 1.046875 -0.339844 l 0.207031 0.289062 l 0.484375 0.667969 l 1.335937 -0.972656 l -0.484374 -0.667969 l -0.210938 -0.289062 c 0.25 -0.269532 0.46875 -0.566407 0.648438 -0.890626 l 0.339843 0.113282 l 0.785157 0.253906 l 0.507812 -1.566406 l -0.785156 -0.257813 l -0.335938 -0.109375 c 0.019532 -0.179687 0.035156 -0.363281 0.035156 -0.550781 s -0.015624 -0.371094 -0.035156 -0.550781 l 0.335938 -0.109375 l 0.785156 -0.257813 z m 1.527344 5.449219 c 0.527344 0 0.984375 0.265625 1.25 0.667969 l -2.078125 2.082031 c -0.40625 -0.269531 -0.671875 -0.722656 -0.671875 -1.25 c 0 -0.835937 0.667969 -1.5 1.5 -1.5 z m 0 0" fill="#2e3436"/>
    <path d="m 4.039062 -18.988281 c -1.449218 0 -2.679687 1.046875 -2.964843 2.421875 c -0.019531 0.097656 -0.035157 0.199218 -0.046875 0.300781 c -0.007813 0.101563 -0.015625 0.203125 -0.015625 0.304687 v 7.910157 c 0 1.660156 1.367187 3.027343 3.027343 3.027343 h 7.949219 c 1.660157 0 3.027344 -1.367187 3.027344 -3.027343 v -7.910157 c 0 -0.105468 -0.003906 -0.207031 -0.015625 -0.304687 c -0.011719 -0.101563 -0.027344 -0.203125 -0.046875 -0.300781 c -0.285156 -1.375 -1.511719 -2.421875 -2.964844 -2.421875 z m 0 2.003906 h 2.976563 v 3 h -2.976563 c -0.585937 0 -1.027343 -0.441406 -1.027343 -1.027344 v -0.949219 c 0.003906 -0.035156 0.003906 -0.070312 0.007812 -0.105468 c 0.003907 -0.035156 0.007813 -0.070313 0.011719 -0.105469 c 0.007812 -0.035156 0.019531 -0.066406 0.027344 -0.097656 c 0.125 -0.421875 0.503906 -0.714844 0.980468 -0.714844 z m 4.976563 0 h 2.972656 c 0.585938 0 1.023438 0.4375 1.027344 1.023437 v 0.949219 c 0 0.585938 -0.441406 1.027344 -1.027344 1.027344 h -2.972656 z m 4 3.71875 v 5.214844 c 0 0.585937 -0.441406 1.027343 -1.027344 1.027343 h -7.949219 c -0.585937 0 -1.027343 -0.441406 -1.027343 -1.027343 v -5.175781 c 0.324219 0.148437 0.671875 0.246093 1.027343 0.246093 h 2.976563 v 3.035157 l 2 0.992187 v -4.027344 h 2.972656 c 0.34375 0 0.695313 -0.113281 1.027344 -0.285156 z m -5 33.28125 c -0.851563 0 -1.699219 0.328125 -2.351563 0.976563 l -4.671874 4.671874 c -1.300782 1.300782 -1.300782 3.402344 0 4.703126 l 4.671874 4.671874 c 1.300782 1.300782 3.402344 1.300782 4.699219 0 l 4.675781 -4.671874 c 1.300782 -1.300782 1.300782 -3.402344 0 -4.703126 l -4.675781 -4.671874 c -0.648437 -0.648438 -1.496093 -0.976563 -2.347656 -0.976563 z m 0 1.984375 c 0.335937 0 0.675781 0.132812 0.941406 0.402344 l 3.03125 3.027344 c -0.066406 0.039062 -0.136719 0.070312 -0.210937 0.09375 c -0.019532 0.003906 -0.039063 0.011718 -0.0625 0.015624 c -0.441406 0.148438 -1.003906 0.019532 -1.277344 -0.359374 l -0.140625 -0.195313 c -0.15625 -0.210937 -0.390625 -0.355469 -0.652344 -0.398437 c -0.066406 -0.011719 -0.132812 -0.015626 -0.199219 -0.011719 c -0.195312 0.007812 -0.382812 0.074219 -0.542968 0.191406 c -0.449219 0.324219 -0.550782 0.949219 -0.226563 1.394531 l 0.144531 0.199219 c 0.273438 0.378906 0.226563 0.953125 -0.050781 1.332031 c -0.011719 0.015625 -0.023437 0.03125 -0.035156 0.050782 c -0.273437 0.378906 -0.808594 0.597656 -1.253906 0.453124 l -0.226563 -0.074218 c -0.523437 -0.167969 -1.089844 0.117187 -1.257812 0.644531 c -0.171875 0.523437 0.113281 1.089844 0.636718 1.261719 l 0.226563 0.070312 c 0.445313 0.144532 0.738281 0.640625 0.746094 1.105469 c 0.003906 0.023437 0.003906 0.042969 0.003906 0.066406 c 0.015625 0.464844 -0.304687 0.960938 -0.75 1.105469 l -0.226563 0.074219 c -0.179687 0.058593 -0.332031 0.164062 -0.445312 0.296875 l -3.785156 -3.785156 c -0.535156 -0.535157 -0.535156 -1.355469 0 -1.890626 l 4.667968 -4.667968 c 0.269532 -0.269532 0.609376 -0.402344 0.945313 -0.402344 z m 5.585937 5.234375 c 0.058594 0 0.117188 0.003906 0.175782 0.007813 c 0.382812 0.523437 0.335937 1.234374 -0.144532 1.71875 l -3.753906 3.75 c -0.027344 -0.066407 -0.050781 -0.136719 -0.070312 -0.203126 c -0.003906 -0.011718 -0.007813 -0.023437 -0.011719 -0.035156 c -0.003906 -0.007812 -0.007813 -0.011718 -0.011719 -0.019531 c -0.285156 -0.84375 -0.152344 -1.644531 0 -2.4375 c 0.003906 -0.003906 0.007813 -0.007813 0.011719 -0.015625 c 0.003906 -0.011719 0.007813 -0.027344 0.011719 -0.039062 c 0.261718 -0.789063 0.757812 -1.464844 1.410156 -1.945313 c 0.011719 -0.003906 0.023438 -0.011719 0.03125 -0.015625 c 0.019531 -0.015625 0.042969 -0.03125 0.058594 -0.046875 c 0.648437 -0.453125 1.4375 -0.71875 2.292968 -0.71875 z m 0 0" fill="#2e3434"/>
</svg>
