<?xml version="1.0" encoding="UTF-8"?>
<svg height="16px" viewBox="0 0 16 16" width="16px" xmlns="http://www.w3.org/2000/svg">
    <path d="m 4.023438 0.996094 c -1.449219 0 -2.679688 1.046875 -2.964844 2.421875 c -0.019532 0.097656 -0.035156 0.199219 -0.046875 0.300781 c -0.007813 0.101562 -0.015625 0.203125 -0.015625 0.304688 v 7.910156 c 0 1.660156 1.367187 3.027344 3.027344 3.027344 h 7.949218 c 1.660156 0 3.027344 -1.367188 3.027344 -3.027344 v -7.910156 c 0 -0.105469 -0.003906 -0.207032 -0.015625 -0.304688 c -0.011719 -0.101562 -0.027344 -0.203125 -0.046875 -0.300781 c -0.285156 -1.375 -1.511719 -2.421875 -2.964844 -2.421875 z m 0 2.003906 h 2.976562 v 3 h -2.976562 c -0.585938 0 -1.027344 -0.441406 -1.027344 -1.027344 v -0.949218 c 0.003906 -0.035157 0.003906 -0.070313 0.007812 -0.105469 c 0.003906 -0.035157 0.007813 -0.070313 0.011719 -0.105469 c 0.007813 -0.035156 0.019531 -0.066406 0.027344 -0.097656 c 0.125 -0.421875 0.503906 -0.714844 0.980469 -0.714844 z m 4.976562 0 h 2.972656 c 0.585938 0 1.023438 0.4375 1.027344 1.023438 v 0.949218 c 0 0.585938 -0.441406 1.027344 -1.027344 1.027344 h -2.972656 z m 4 3.71875 v 5.214844 c 0 0.585937 -0.441406 1.027344 -1.027344 1.027344 h -7.949218 c -0.585938 0 -1.027344 -0.441407 -1.027344 -1.027344 v -5.175782 c 0.324218 0.148438 0.671875 0.246094 1.027344 0.246094 h 2.976562 v 3.035156 l 2 0.992188 v -4.027344 h 2.972656 c 0.34375 0 0.695313 -0.113281 1.027344 -0.285156 z m -5 33.28125 c -0.851562 0 -1.699219 0.328125 -2.351562 0.976562 l -4.671876 4.671876 c -1.300781 1.300781 -1.300781 3.402343 0 4.703124 l 4.671876 4.671876 c 1.300781 1.300781 3.402343 1.300781 4.699218 0 l 4.675782 -4.671876 c 1.300781 -1.300781 1.300781 -3.402343 0 -4.703124 l -4.675782 -4.671876 c -0.648437 -0.648437 -1.496094 -0.976562 -2.347656 -0.976562 z m 0 1.984375 c 0.335938 0 0.675781 0.132813 0.941406 0.402344 l 3.03125 3.027343 c -0.066406 0.039063 -0.136718 0.070313 -0.210937 0.09375 c -0.019531 0.003907 -0.039063 0.011719 -0.0625 0.015626 c -0.441407 0.148437 -1.003907 0.019531 -1.277344 -0.359376 l -0.140625 -0.195312 c -0.15625 -0.210938 -0.390625 -0.355469 -0.652344 -0.398438 c -0.066406 -0.011718 -0.132812 -0.015624 -0.199218 -0.011718 c -0.195313 0.007812 -0.382813 0.074218 -0.542969 0.191406 c -0.449219 0.324219 -0.550781 0.949219 -0.226563 1.394531 l 0.144532 0.199219 c 0.273437 0.378906 0.226562 0.953125 -0.050782 1.332031 c -0.011718 0.015625 -0.023437 0.03125 -0.035156 0.050781 c -0.273438 0.378907 -0.808594 0.597657 -1.253906 0.453126 l -0.226563 -0.074219 c -0.523437 -0.167969 -1.089843 0.117187 -1.257812 0.644531 c -0.171875 0.523438 0.113281 1.089844 0.636719 1.261719 l 0.226562 0.070312 c 0.445312 0.144531 0.738281 0.640625 0.746094 1.105469 c 0.003906 0.023438 0.003906 0.042969 0.003906 0.066406 c 0.015625 0.464844 -0.304688 0.960938 -0.75 1.105469 l -0.226562 0.074219 c -0.179688 0.058594 -0.332032 0.164062 -0.445313 0.296875 l -3.785156 -3.785157 c -0.535157 -0.535156 -0.535157 -1.355468 0 -1.890624 l 4.667969 -4.667969 c 0.269531 -0.269531 0.609374 -0.402344 0.945312 -0.402344 z m 5.585938 5.234375 c 0.058593 0 0.117187 0.003906 0.175781 0.007812 c 0.382812 0.523438 0.335937 1.234376 -0.144531 1.71875 l -3.753907 3.75 c -0.027343 -0.066406 -0.050781 -0.136718 -0.070312 -0.203124 c -0.003907 -0.011719 -0.007813 -0.023438 -0.011719 -0.035157 c -0.003906 -0.007812 -0.007812 -0.011719 -0.011719 -0.019531 c -0.285156 -0.84375 -0.152343 -1.644531 0 -2.4375 c 0.003907 -0.003906 0.007813 -0.007812 0.011719 -0.015625 c 0.003906 -0.011719 0.007812 -0.027344 0.011719 -0.039063 c 0.261719 -0.789062 0.757812 -1.464843 1.410156 -1.945312 c 0.011719 -0.003906 0.023437 -0.011719 0.03125 -0.015625 c 0.019531 -0.015625 0.042969 -0.03125 0.058594 -0.046875 c 0.648437 -0.453125 1.4375 -0.71875 2.292969 -0.71875 z m 0 0" fill="#2e3434"/>
</svg>
