<?xml version="1.0" encoding="UTF-8" standalone="no"?>
<!-- Created with Inkscape (http://www.inkscape.org/) -->
<svg
   xmlns:dc="http://purl.org/dc/elements/1.1/"
   xmlns:cc="http://web.resource.org/cc/"
   xmlns:rdf="http://www.w3.org/1999/02/22-rdf-syntax-ns#"
   xmlns:svg="http://www.w3.org/2000/svg"
   xmlns="http://www.w3.org/2000/svg"
   xmlns:xlink="http://www.w3.org/1999/xlink"
   xmlns:sodipodi="http://sodipodi.sourceforge.net/DTD/sodipodi-0.dtd"
   xmlns:inkscape="http://www.inkscape.org/namespaces/inkscape"
   inkscape:export-ydpi="240.00000"
   inkscape:export-xdpi="240.00000"
   inkscape:export-filename="/home/lapo/Desktop/calendar.png"
   sodipodi:docname="x-office-calendar.svg"
   sodipodi:docbase="/home/lapo/Icone/svn/gnome-icon-theme/22x22/mimetypes"
   inkscape:version="0.45"
   sodipodi:version="0.32"
   id="svg249"
   height="48"
   width="48"
   inkscape:output_extension="org.inkscape.output.svg.inkscape"
   version="1.0"
   sodipodi:modified="true">
  <defs
     id="defs3">
    <linearGradient
       inkscape:collect="always"
       id="linearGradient8258">
      <stop
         style="stop-color:#eeeeec;stop-opacity:1;"
         offset="0"
         id="stop8260" />
      <stop
         style="stop-color:#eeeeec;stop-opacity:0;"
         offset="1"
         id="stop8262" />
    </linearGradient>
    <linearGradient
       inkscape:collect="always"
       id="linearGradient8241">
      <stop
         style="stop-color:#eeeeec;stop-opacity:1;"
         offset="0"
         id="stop8243" />
      <stop
         style="stop-color:#eeeeec;stop-opacity:0;"
         offset="1"
         id="stop8245" />
    </linearGradient>
    <linearGradient
       inkscape:collect="always"
       id="linearGradient7807">
      <stop
         style="stop-color:#ffffff;stop-opacity:1;"
         offset="0"
         id="stop7809" />
      <stop
         style="stop-color:#ffffff;stop-opacity:0;"
         offset="1"
         id="stop7811" />
    </linearGradient>
    <linearGradient
       id="linearGradient7497">
      <stop
         style="stop-color:#c17d11;stop-opacity:1;"
         offset="0"
         id="stop7499" />
      <stop
         style="stop-color:#e9b96e;stop-opacity:1"
         offset="1"
         id="stop7501" />
    </linearGradient>
    <linearGradient
       id="linearGradient3428">
      <stop
         style="stop-color:black;stop-opacity:0;"
         offset="0"
         id="stop3430" />
      <stop
         id="stop3436"
         offset="0.5"
         style="stop-color:black;stop-opacity:1;" />
      <stop
         style="stop-color:black;stop-opacity:0;"
         offset="1"
         id="stop3432" />
    </linearGradient>
    <linearGradient
       inkscape:collect="always"
       id="linearGradient3414">
      <stop
         style="stop-color:black;stop-opacity:1;"
         offset="0"
         id="stop3416" />
      <stop
         style="stop-color:black;stop-opacity:0;"
         offset="1"
         id="stop3418" />
    </linearGradient>
    <linearGradient
       id="linearGradient7218">
      <stop
         style="stop-color:#eeeeec;stop-opacity:1"
         offset="0"
         id="stop7220" />
      <stop
         style="stop-color:#ffffff;stop-opacity:1;"
         offset="1"
         id="stop7222" />
    </linearGradient>
    <linearGradient
       inkscape:collect="always"
       id="linearGradient7192">
      <stop
         style="stop-color:#d3d7cf;stop-opacity:1;"
         offset="0"
         id="stop7194" />
      <stop
         style="stop-color:#d3d7cf;stop-opacity:0;"
         offset="1"
         id="stop7196" />
    </linearGradient>
    <linearGradient
       id="linearGradient7179">
      <stop
         style="stop-color:#babdb6;stop-opacity:1"
         offset="0"
         id="stop7181" />
      <stop
         style="stop-color:#ffffff;stop-opacity:1"
         offset="1"
         id="stop7183" />
    </linearGradient>
    <linearGradient
       id="linearGradient7093">
      <stop
         id="stop7095"
         offset="0"
         style="stop-color:#ffffff;stop-opacity:1" />
      <stop
         id="stop7097"
         offset="1"
         style="stop-color:#babdb6;stop-opacity:1;" />
    </linearGradient>
    <linearGradient
       id="linearGradient7006">
      <stop
         style="stop-color:#babdb6;stop-opacity:1"
         offset="0"
         id="stop7008" />
      <stop
         style="stop-color:#eeeeec;stop-opacity:1"
         offset="1"
         id="stop7010" />
    </linearGradient>
    <linearGradient
       inkscape:collect="always"
       id="linearGradient6973">
      <stop
         style="stop-color:#ffffff;stop-opacity:1;"
         offset="0"
         id="stop6975" />
      <stop
         style="stop-color:#ffffff;stop-opacity:0;"
         offset="1"
         id="stop6977" />
    </linearGradient>
    <radialGradient
       inkscape:collect="always"
       xlink:href="#linearGradient3414"
       id="radialGradient7662"
       gradientUnits="userSpaceOnUse"
       gradientTransform="matrix(2,0,0,2,-13,-129)"
       cx="3"
       cy="43"
       fx="3"
       fy="43"
       r="2" />
    <radialGradient
       inkscape:collect="always"
       xlink:href="#linearGradient3414"
       id="radialGradient7664"
       gradientUnits="userSpaceOnUse"
       gradientTransform="matrix(2,0,0,2,35,-43)"
       cx="3"
       cy="43"
       fx="3"
       fy="43"
       r="2" />
    <linearGradient
       inkscape:collect="always"
       xlink:href="#linearGradient3428"
       id="linearGradient7666"
       gradientUnits="userSpaceOnUse"
       x1="11.507806"
       y1="39"
       x2="11.507806"
       y2="47.015659" />
    <linearGradient
       inkscape:collect="always"
       xlink:href="#linearGradient7497"
       id="linearGradient7668"
       gradientUnits="userSpaceOnUse"
       gradientTransform="translate(-30,0)"
       x1="42.75"
       y1="13.875"
       x2="80"
       y2="72" />
    <linearGradient
       inkscape:collect="always"
       xlink:href="#linearGradient6973"
       id="linearGradient7670"
       gradientUnits="userSpaceOnUse"
       x1="21.860727"
       y1="40.659435"
       x2="24"
       y2="-6.7934427" />
    <radialGradient
       inkscape:collect="always"
       xlink:href="#linearGradient3414"
       id="radialGradient7672"
       gradientUnits="userSpaceOnUse"
       gradientTransform="matrix(2,0,0,2,-13,-129)"
       cx="3"
       cy="43"
       fx="3"
       fy="43"
       r="2" />
    <radialGradient
       inkscape:collect="always"
       xlink:href="#linearGradient3414"
       id="radialGradient7674"
       gradientUnits="userSpaceOnUse"
       gradientTransform="matrix(2,0,0,2,35,-43)"
       cx="3"
       cy="43"
       fx="3"
       fy="43"
       r="2" />
    <linearGradient
       inkscape:collect="always"
       xlink:href="#linearGradient3428"
       id="linearGradient7676"
       gradientUnits="userSpaceOnUse"
       x1="11.507806"
       y1="39"
       x2="11.507806"
       y2="47.015659" />
    <linearGradient
       inkscape:collect="always"
       xlink:href="#linearGradient7006"
       id="linearGradient7678"
       gradientUnits="userSpaceOnUse"
       gradientTransform="translate(0,-2)"
       x1="6.53125"
       y1="27.03125"
       x2="41.40625"
       y2="27.03125" />
    <linearGradient
       inkscape:collect="always"
       xlink:href="#linearGradient7218"
       id="linearGradient7680"
       gradientUnits="userSpaceOnUse"
       x1="13.15533"
       y1="19.60754"
       x2="25.545048"
       y2="32.263321" />
    <linearGradient
       inkscape:collect="always"
       xlink:href="#linearGradient7093"
       id="linearGradient7682"
       gradientUnits="userSpaceOnUse"
       x1="17.765669"
       y1="20.0625"
       x2="17.765669"
       y2="16.156132" />
    <linearGradient
       inkscape:collect="always"
       xlink:href="#linearGradient7093"
       id="linearGradient7686"
       gradientUnits="userSpaceOnUse"
       x1="17.765669"
       y1="20.0625"
       x2="17.765669"
       y2="16.156132" />
    <linearGradient
       inkscape:collect="always"
       xlink:href="#linearGradient7192"
       id="linearGradient7694"
       gradientUnits="userSpaceOnUse"
       gradientTransform="matrix(1,0,0,0.9970326,0,-1.9554896)"
       x1="37.076309"
       y1="33.310486"
       x2="40.3125"
       y2="36.46143" />
    <linearGradient
       inkscape:collect="always"
       xlink:href="#linearGradient7179"
       id="linearGradient7696"
       gradientUnits="userSpaceOnUse"
       gradientTransform="matrix(0.8411669,0,0,0.8782343,5.631251,-5.04643)"
       x1="35.996582"
       y1="40.458221"
       x2="33.664921"
       y2="37.770721" />
    <radialGradient
       inkscape:collect="always"
       xlink:href="#linearGradient7807"
       id="radialGradient8069"
       gradientUnits="userSpaceOnUse"
       gradientTransform="matrix(1,0,0,0.9923077,0,5.0777806e-2)"
       cx="-42.4706"
       cy="6.6011076"
       fx="-42.4706"
       fy="6.6011076"
       r="1.4363106" />
    <radialGradient
       inkscape:collect="always"
       xlink:href="#linearGradient7807"
       id="radialGradient8073"
       gradientUnits="userSpaceOnUse"
       gradientTransform="matrix(1,0,0,0.9923077,0,5.0777806e-2)"
       cx="-42.4706"
       cy="6.6011076"
       fx="-42.4706"
       fy="6.6011076"
       r="1.4363106" />
    <radialGradient
       inkscape:collect="always"
       xlink:href="#linearGradient3414"
       id="radialGradient8171"
       gradientUnits="userSpaceOnUse"
       gradientTransform="matrix(2,0,0,2,-13,-129)"
       cx="3"
       cy="43"
       fx="3"
       fy="43"
       r="2" />
    <radialGradient
       inkscape:collect="always"
       xlink:href="#linearGradient3414"
       id="radialGradient8173"
       gradientUnits="userSpaceOnUse"
       gradientTransform="matrix(2,0,0,2,35,-43)"
       cx="3"
       cy="43"
       fx="3"
       fy="43"
       r="2" />
    <linearGradient
       inkscape:collect="always"
       xlink:href="#linearGradient3428"
       id="linearGradient8175"
       gradientUnits="userSpaceOnUse"
       x1="11.507806"
       y1="39"
       x2="11.507806"
       y2="47.015659" />
    <linearGradient
       inkscape:collect="always"
       xlink:href="#linearGradient6973"
       id="linearGradient8179"
       gradientUnits="userSpaceOnUse"
       x1="21.860727"
       y1="40.659435"
       x2="24"
       y2="-6.7934427" />
    <radialGradient
       inkscape:collect="always"
       xlink:href="#linearGradient3414"
       id="radialGradient8181"
       gradientUnits="userSpaceOnUse"
       gradientTransform="matrix(2,0,0,2,-13,-129)"
       cx="3"
       cy="43"
       fx="3"
       fy="43"
       r="2" />
    <radialGradient
       inkscape:collect="always"
       xlink:href="#linearGradient3414"
       id="radialGradient8183"
       gradientUnits="userSpaceOnUse"
       gradientTransform="matrix(2,0,0,2,35,-43)"
       cx="3"
       cy="43"
       fx="3"
       fy="43"
       r="2" />
    <linearGradient
       inkscape:collect="always"
       xlink:href="#linearGradient3428"
       id="linearGradient8185"
       gradientUnits="userSpaceOnUse"
       x1="11.507806"
       y1="39"
       x2="11.507806"
       y2="47.015659" />
    <linearGradient
       inkscape:collect="always"
       xlink:href="#linearGradient7218"
       id="linearGradient8189"
       gradientUnits="userSpaceOnUse"
       x1="13.15533"
       y1="19.60754"
       x2="25.545048"
       y2="32.263321" />
    <linearGradient
       inkscape:collect="always"
       xlink:href="#linearGradient7093"
       id="linearGradient8191"
       gradientUnits="userSpaceOnUse"
       x1="17.765669"
       y1="20.0625"
       x2="17.765669"
       y2="16.156132" />
    <linearGradient
       inkscape:collect="always"
       xlink:href="#linearGradient7093"
       id="linearGradient8193"
       gradientUnits="userSpaceOnUse"
       x1="17.765669"
       y1="20.0625"
       x2="17.765669"
       y2="16.156132" />
    <radialGradient
       inkscape:collect="always"
       xlink:href="#linearGradient7807"
       id="radialGradient8199"
       gradientUnits="userSpaceOnUse"
       gradientTransform="matrix(1,0,0,0.9923077,0,5.0777806e-2)"
       cx="-42.4706"
       cy="6.6011076"
       fx="-42.4706"
       fy="6.6011076"
       r="1.4363106" />
    <radialGradient
       inkscape:collect="always"
       xlink:href="#linearGradient7807"
       id="radialGradient8201"
       gradientUnits="userSpaceOnUse"
       gradientTransform="matrix(1,0,0,0.9923077,0,5.0777806e-2)"
       cx="-42.4706"
       cy="6.6011076"
       fx="-42.4706"
       fy="6.6011076"
       r="1.4363106" />
    <linearGradient
       inkscape:collect="always"
       xlink:href="#linearGradient7006"
       id="linearGradient8226"
       gradientUnits="userSpaceOnUse"
       gradientTransform="translate(60,-2)"
       x1="6.53125"
       y1="27.03125"
       x2="41.40625"
       y2="27.03125" />
    <linearGradient
       inkscape:collect="always"
       xlink:href="#linearGradient7497"
       id="linearGradient8235"
       gradientUnits="userSpaceOnUse"
       gradientTransform="translate(30,0)"
       x1="42.75"
       y1="13.875"
       x2="65.25"
       y2="40.25" />
    <linearGradient
       inkscape:collect="always"
       xlink:href="#linearGradient8241"
       id="linearGradient8247"
       x1="18.533974"
       y1="6.1039233"
       x2="22.318058"
       y2="7.4297485"
       gradientUnits="userSpaceOnUse" />
    <linearGradient
       inkscape:collect="always"
       xlink:href="#linearGradient8258"
       id="linearGradient8264"
       x1="29.565903"
       y1="7.0320005"
       x2="25.809397"
       y2="9.3742924"
       gradientUnits="userSpaceOnUse" />
  </defs>
  <sodipodi:namedview
     inkscape:window-y="42"
     inkscape:window-x="145"
     inkscape:window-height="973"
     inkscape:window-width="1481"
     inkscape:document-units="px"
     inkscape:grid-bbox="true"
     showgrid="false"
     inkscape:current-layer="layer5"
     inkscape:cy="7.3416464"
     inkscape:cx="66.239725"
     inkscape:zoom="1"
     inkscape:pageshadow="2"
     inkscape:pageopacity="0.0"
     borderopacity="1"
     bordercolor="#666666"
     pagecolor="#ffffff"
     id="base"
     inkscape:showpageshadow="false"
     width="22px"
     height="22px"
     showguides="true"
     inkscape:guide-bbox="true"
     showborder="false"
     gridspacingx="0.5px"
     gridspacingy="0.5px"
     inkscape:grid-points="true">
    <inkscape:grid
       type="xygrid"
       id="grid5026" />
  </sodipodi:namedview>
  <metadata
     id="metadata4">
    <rdf:RDF>
      <cc:Work
         rdf:about="">
        <dc:format>image/svg+xml</dc:format>
        <dc:type
           rdf:resource="http://purl.org/dc/dcmitype/StillImage" />
        <dc:title>Calendar</dc:title>
        <dc:subject>
          <rdf:Bag>
            <rdf:li>office</rdf:li>
            <rdf:li>calendar</rdf:li>
          </rdf:Bag>
        </dc:subject>
        <cc:license
           rdf:resource="http://creativecommons.org/licenses/GPL/2.0/" />
        <dc:creator>
          <cc:Agent>
            <dc:title>Lapo Calamandrei</dc:title>
          </cc:Agent>
        </dc:creator>
        <dc:source />
      </cc:Work>
      <cc:License
         rdf:about="http://creativecommons.org/licenses/GPL/2.0/">
        <cc:permits
           rdf:resource="http://web.resource.org/cc/Reproduction" />
        <cc:permits
           rdf:resource="http://web.resource.org/cc/Distribution" />
        <cc:requires
           rdf:resource="http://web.resource.org/cc/Notice" />
        <cc:permits
           rdf:resource="http://web.resource.org/cc/DerivativeWorks" />
        <cc:requires
           rdf:resource="http://web.resource.org/cc/ShareAlike" />
        <cc:requires
           rdf:resource="http://web.resource.org/cc/SourceCode" />
      </cc:License>
    </rdf:RDF>
  </metadata>
  <g
     inkscape:groupmode="layer"
     id="layer6"
     inkscape:label="Shadow"
     style="display:inline" />
  <g
     style="display:inline"
     inkscape:groupmode="layer"
     inkscape:label="Base"
     id="layer1" />
  <g
     inkscape:groupmode="layer"
     id="layer5"
     inkscape:label="Text"
     style="display:inline">
    <g
       id="g7610"
       transform="matrix(1.0714286,0,0,0.875,-1.714285,2.875)"
       style="opacity:0.56716416;display:inline">
      <rect
         transform="scale(-1,-1)"
         y="-47"
         x="-7"
         height="8"
         width="4"
         id="rect7612"
         style="opacity:1;color:#000000;fill:url(#radialGradient7662);fill-opacity:1;fill-rule:nonzero;stroke:none;stroke-width:1;stroke-linecap:square;stroke-linejoin:round;marker:none;marker-start:none;marker-mid:none;marker-end:none;stroke-miterlimit:6;stroke-dasharray:none;stroke-dashoffset:1.4;stroke-opacity:1;visibility:visible;display:inline;overflow:visible" />
      <rect
         y="39"
         x="41"
         height="8"
         width="4"
         id="rect7614"
         style="opacity:1;color:#000000;fill:url(#radialGradient7664);fill-opacity:1;fill-rule:nonzero;stroke:none;stroke-width:1;stroke-linecap:square;stroke-linejoin:round;marker:none;marker-start:none;marker-mid:none;marker-end:none;stroke-miterlimit:6;stroke-dasharray:none;stroke-dashoffset:1.4;stroke-opacity:1;visibility:visible;display:inline;overflow:visible" />
      <rect
         y="39"
         x="7"
         height="8"
         width="34"
         id="rect7616"
         style="opacity:1;color:#000000;fill:url(#linearGradient7666);fill-opacity:1;fill-rule:nonzero;stroke:none;stroke-width:1;stroke-linecap:square;stroke-linejoin:round;marker:none;marker-start:none;marker-mid:none;marker-end:none;stroke-miterlimit:6;stroke-dasharray:none;stroke-dashoffset:1.4;stroke-opacity:1;visibility:visible;display:inline;overflow:visible" />
    </g>
    <path
       style="fill:url(#linearGradient7668);fill-opacity:1;fill-rule:evenodd;stroke:#8f5902;stroke-width:0.99999994;stroke-linecap:round;stroke-linejoin:miter;stroke-miterlimit:4;stroke-opacity:1;display:inline"
       d="M 10.40625,10.5 C 9.182071,10.5 8.081133,11.380905 7.90625,12.465178 L 3.53125,39.534818 C 3.356367,40.619091 4.182071,41.499996 5.40625,41.499996 L 42.59375,41.499996 C 43.817929,41.499996 44.643633,40.619091 44.46875,39.534818 L 40.09375,12.465178 C 39.918868,11.380905 38.817929,10.5 37.59375,10.5 L 10.40625,10.5 z "
       id="path7618"
       sodipodi:nodetypes="ccccccccc" />
    <path
       style="opacity:0.2;fill:#ffffff;fill-opacity:1;fill-rule:evenodd;stroke:none;stroke-width:0.99999994;stroke-linecap:round;stroke-linejoin:miter;stroke-miterlimit:4;stroke-opacity:1;display:inline"
       d="M 4.09375,39.25 L 4.03125,39.59375 C 3.977649,39.926079 4.041615,40.340581 4.28125,40.59375 C 4.536418,40.863329 4.935852,41 5.40625,41 L 42.59375,41 C 43.064148,41 43.463582,40.863329 43.71875,40.59375 C 43.958387,40.34058 44.022352,39.926079 43.96875,39.59375 L 43.90625,39.25 C 43.862763,39.370922 43.808087,39.502623 43.71875,39.59375 C 43.461404,39.856255 43.065903,39.968749 42.59375,39.96875 L 5.40625,39.96875 C 4.934097,39.96875 4.538597,39.856256 4.28125,39.59375 C 4.191914,39.502624 4.137237,39.370922 4.09375,39.25 z "
       id="path7620" />
    <path
       sodipodi:type="inkscape:offset"
       inkscape:radius="-1"
       inkscape:original="M 10.40625 12.5 C 9.1820711 12.5 8.0811327 13.384477 7.90625 14.46875 L 3.53125 41.53125 C 3.3563673 42.615524 4.182071 43.5 5.40625 43.5 L 42.59375 43.5 C 43.817929 43.5 44.643633 42.615523 44.46875 41.53125 L 40.09375 14.46875 C 39.918868 13.384477 38.817929 12.5 37.59375 12.5 L 10.40625 12.5 z "
       style="opacity:0.5;fill:#c17d11;fill-opacity:1;fill-rule:evenodd;stroke:url(#linearGradient7670);stroke-width:1.01770043;stroke-linecap:round;stroke-linejoin:miter;stroke-miterlimit:4;stroke-opacity:1;display:inline"
       id="path7622"
       d="M 10.40625,13.5 C 9.663742,13.5 8.9896917,14.107661 8.90625,14.625 L 4.53125,41.6875 C 4.49001,41.943188 4.5241344,42.110423 4.65625,42.25 C 4.7883656,42.389577 5.0349957,42.5 5.40625,42.5 L 42.59375,42.5 C 42.965004,42.5 43.211634,42.389577 43.34375,42.25 C 43.475866,42.110423 43.50999,41.943187 43.46875,41.6875 L 39.09375,14.625 C 39.010309,14.107662 38.336258,13.5 37.59375,13.5 L 10.40625,13.5 z "
       transform="matrix(1,0,0,0.9655172,0,-1.5344828)" />
    <g
       id="g7624"
       transform="matrix(0.9047619,0,0,0.375,2.285714,21.375)"
       style="opacity:0.4;display:inline">
      <rect
         transform="scale(-1,-1)"
         y="-47"
         x="-7"
         height="8"
         width="4"
         id="rect7626"
         style="opacity:1;color:#000000;fill:url(#radialGradient7672);fill-opacity:1;fill-rule:nonzero;stroke:none;stroke-width:1;stroke-linecap:square;stroke-linejoin:round;marker:none;marker-start:none;marker-mid:none;marker-end:none;stroke-miterlimit:6;stroke-dasharray:none;stroke-dashoffset:1.4;stroke-opacity:1;visibility:visible;display:inline;overflow:visible" />
      <rect
         y="39"
         x="41"
         height="8"
         width="4"
         id="rect7628"
         style="opacity:1;color:#000000;fill:url(#radialGradient7674);fill-opacity:1;fill-rule:nonzero;stroke:none;stroke-width:1;stroke-linecap:square;stroke-linejoin:round;marker:none;marker-start:none;marker-mid:none;marker-end:none;stroke-miterlimit:6;stroke-dasharray:none;stroke-dashoffset:1.4;stroke-opacity:1;visibility:visible;display:inline;overflow:visible" />
      <rect
         y="39"
         x="7"
         height="8"
         width="34"
         id="rect7630"
         style="opacity:1;color:#000000;fill:url(#linearGradient7676);fill-opacity:1;fill-rule:nonzero;stroke:none;stroke-width:1;stroke-linecap:square;stroke-linejoin:round;marker:none;marker-start:none;marker-mid:none;marker-end:none;stroke-miterlimit:6;stroke-dasharray:none;stroke-dashoffset:1.4;stroke-opacity:1;visibility:visible;display:inline;overflow:visible" />
    </g>
    <path
       style="opacity:1;fill:url(#linearGradient7678);fill-opacity:1;fill-rule:evenodd;stroke:#555753;stroke-width:1;stroke-linecap:round;stroke-linejoin:miter;stroke-miterlimit:4;stroke-opacity:1;display:inline"
       d="M 10.53125,12.5 L 7.03125,34.5625 L 7.03125,37.5625 L 40.90625,37.5625 L 40.90625,34.5625 L 37.46875,12.5 L 10.53125,12.5 z "
       id="path7632"
       sodipodi:nodetypes="ccccccc" />
    <path
       sodipodi:type="inkscape:offset"
       inkscape:radius="-0.5"
       inkscape:original="M 10.53125 14.5 L 7.03125 36.5625 L 40.90625 36.5625 L 37.46875 14.5 L 10.53125 14.5 z "
       style="opacity:1;fill:url(#linearGradient7680);fill-opacity:1;fill-rule:evenodd;stroke:none;stroke-width:1;stroke-linecap:round;stroke-linejoin:miter;stroke-miterlimit:4;stroke-opacity:1;display:inline"
       id="path7634"
       d="M 10.96875,15 L 7.625,36.0625 L 40.3125,36.0625 L 37.03125,15 L 10.96875,15 z "
       transform="matrix(1,0,0,0.9970326,0,-1.9554896)" />
    <path
       sodipodi:type="inkscape:offset"
       inkscape:radius="-0.9722718"
       inkscape:original="M 10.53125 14.5 L 7.03125 36.5625 L 7.03125 39.5625 L 40.90625 39.5625 L 40.90625 36.5625 L 37.46875 14.5 L 10.53125 14.5 z "
       style="opacity:0.46641792;fill:none;fill-opacity:1;fill-rule:evenodd;stroke:#ffffff;stroke-width:1;stroke-linecap:round;stroke-linejoin:miter;stroke-miterlimit:4;stroke-opacity:1;display:inline"
       id="path7636"
       d="M 11.375,15.46875 L 8,36.71875 L 8,38.59375 L 39.9375,38.59375 L 39.9375,36.71875 L 36.625,15.46875 L 11.375,15.46875 z "
       transform="translate(0,-2)" />
    <path
       sodipodi:type="arc"
       style="opacity:1;fill:url(#linearGradient7682);fill-opacity:1;fill-rule:evenodd;stroke:none;stroke-width:1;stroke-linecap:round;stroke-linejoin:miter;stroke-miterlimit:4;stroke-dasharray:none;stroke-opacity:1;display:inline"
       id="path7638"
       sodipodi:cx="19.203125"
       sodipodi:cy="18.109375"
       sodipodi:rx="2.109375"
       sodipodi:ry="1.953125"
       d="M 21.3125 18.109375 A 2.109375 1.953125 0 1 1  17.09375,18.109375 A 2.109375 1.953125 0 1 1  21.3125 18.109375 z"
       transform="matrix(0.948148,0,0,-0.6445933,-0.207405,26.961049)" />
    <path
       sodipodi:type="arc"
       style="opacity:1;fill:url(#linearGradient7686);fill-opacity:1;fill-rule:evenodd;stroke:none;stroke-width:1;stroke-linecap:round;stroke-linejoin:miter;stroke-miterlimit:4;stroke-dasharray:none;stroke-opacity:1;display:inline"
       id="path7642"
       sodipodi:cx="19.203125"
       sodipodi:cy="18.109375"
       sodipodi:rx="2.109375"
       sodipodi:ry="1.953125"
       d="M 21.3125 18.109375 A 2.109375 1.953125 0 1 1  17.09375,18.109375 A 2.109375 1.953125 0 1 1  21.3125 18.109375 z"
       transform="matrix(0.948148,0,0,-0.6593882,12.792596,27.228976)" />
    <path
       style="fill:url(#linearGradient7694);fill-opacity:1;fill-rule:evenodd;stroke:none;stroke-width:1;stroke-linecap:round;stroke-linejoin:miter;stroke-miterlimit:4;stroke-opacity:1;display:inline"
       d="M 30.473388,33.999999 L 40.3125,33.999999 L 38.799017,24.181126 L 30.473388,33.999999 z "
       id="path7650"
       sodipodi:nodetypes="cccc" />
    <path
       sodipodi:nodetypes="cccc"
       id="path7652"
       d="M 30.561705,33.494718 C 33.23116,33.678236 39.375378,29.135147 38.395861,24.522096 C 37.080888,26.650133 35.071707,26.541899 31.505062,26.482661 C 31.505062,26.482661 31.700621,32.843196 30.561705,33.494718 z "
       style="color:#000000;fill:url(#linearGradient7696);fill-opacity:1;fill-rule:evenodd;stroke:#babdb6;stroke-width:1.00000095;stroke-linecap:butt;stroke-linejoin:miter;marker:none;marker-start:none;marker-mid:none;marker-end:none;stroke-miterlimit:4;stroke-dasharray:none;stroke-dashoffset:0;stroke-opacity:1;visibility:visible;display:inline;overflow:visible"
       inkscape:r_cx="true"
       inkscape:r_cy="true" />
    <path
       transform="scale(1.2011506,0.8325351)"
       style="font-size:12.7047596px;font-style:normal;font-weight:normal;fill:#2e3436;fill-opacity:1;stroke:none;stroke-width:1px;stroke-linecap:butt;stroke-linejoin:miter;stroke-opacity:1;display:inline;font-family:Bitstream Vera Sans"
       d="M 21.410197,30.648476 C 22.009863,30.776686 23.139471,31.09652 23.474466,31.50181 C 23.813583,31.907109 24.093525,32.566776 24.093532,33.162308 C 24.093525,34.076292 23.779215,34.78349 23.150601,35.283904 C 22.521974,35.784319 21.297533,36.034527 20.139552,36.034527 C 19.750796,36.034527 18.393014,35.942154 17.97945,35.863577 C 17.570018,35.789135 17.146113,35.675404 16.707734,35.522384 L 16.707734,34.312703 C 17.055128,34.515352 17.435609,34.668371 17.849177,34.771761 C 18.262741,34.875154 19.65154,34.979934 20.102331,34.979933 C 20.888103,34.979934 21.816844,34.824846 22.22628,34.514671 C 22.639841,34.204497 22.846624,33.753711 22.84663,33.162308 C 22.846624,32.616404 22.543936,32.031179 22.159324,31.725136 C 21.778838,31.414966 20.916267,31.206795 20.233887,31.20679 L 19.154479,31.20679 L 19.154479,30.17701 L 20.283515,30.17701 C 20.899725,30.177015 21.040051,30.055013 21.366773,29.811004 C 21.693485,29.56287 21.967224,29.366455 21.967229,28.903254 C 21.967224,28.42766 21.797662,28.063722 21.458543,27.811439 C 21.123549,27.555036 20.641745,27.426831 20.013128,27.426822 C 19.669865,27.426831 19.301791,27.464052 18.908906,27.538485 C 18.516015,27.612935 18.083839,27.728734 17.612375,27.885881 L 17.612375,26.769252 C 18.087975,26.63692 18.532558,26.537664 18.946127,26.471484 C 19.363826,26.405323 19.756713,26.372237 20.124791,26.372228 C 21.075989,26.372237 21.828679,26.58936 22.382863,27.023595 C 22.937036,27.453712 23.214125,28.03684 23.214132,28.772981 C 23.214125,29.28581 22.956929,29.560802 22.663304,29.916463 C 22.369665,30.268 21.951964,30.512004 21.410197,30.648476"
       id="text7654"
       sodipodi:nodetypes="csssssccsssssccccsssssccsssssc" />
    <g
       id="g7712"
       transform="matrix(1,0,0,0.9324156,-1,1.0675844)" />
    <path
       sodipodi:nodetypes="csc"
       id="path8061"
       d="M 18.050038,14.5 C 17.3102,6.0656246 17.443645,4.7854818 17.718235,3.8499005 C 18.229846,2.1067459 19.567948,1.3713901 19.567948,10.551319"
       style="fill:none;fill-rule:evenodd;stroke:#888a85;stroke-width:3;stroke-linecap:round;stroke-linejoin:round;stroke-miterlimit:4;stroke-dasharray:none;stroke-opacity:1;display:inline" />
    <path
       sodipodi:nodetypes="csc"
       id="path8059"
       d="M 18.050038,14.5 C 17.3102,6.0656246 17.443645,4.7854818 17.718235,3.8499005 C 18.229846,2.1067459 19.567948,1.3713901 19.567948,10.551319"
       style="fill:none;fill-rule:evenodd;stroke:url(#linearGradient8247);stroke-width:0.99999994;stroke-linecap:round;stroke-linejoin:round;stroke-miterlimit:4;stroke-dasharray:none;stroke-opacity:1;display:inline;fill-opacity:1.0" />
    <path
       sodipodi:nodetypes="csc"
       id="path8063"
       d="M 31.017909,14.5 C 31.757747,6.0656246 31.624302,4.7854818 31.349712,3.8499005 C 30.838101,2.1067459 29.499999,1.3713901 29.499999,10.551319"
       style="fill:none;fill-rule:evenodd;stroke:#888a85;stroke-width:3;stroke-linecap:round;stroke-linejoin:round;stroke-miterlimit:4;stroke-dasharray:none;stroke-opacity:1;display:inline" />
    <path
       sodipodi:nodetypes="csc"
       id="path8065"
       d="M 31.017909,14.5 C 31.757747,6.0656246 31.624302,4.7854818 31.349712,3.8499005 C 30.838101,2.1067459 29.499999,1.3713901 29.499999,10.551319"
       style="fill:none;fill-rule:evenodd;stroke:url(#linearGradient8264);stroke-width:0.99999994;stroke-linecap:round;stroke-linejoin:round;stroke-miterlimit:4;stroke-dasharray:none;stroke-opacity:1;display:inline;fill-opacity:1.0" />
    <path
       transform="matrix(1.0443428,0,0,1.7540633,61.853863,-5.078761)"
       d="M -41.034289 6.6011076 A 1.4363106 1.4252621 0 1 1  -43.906911,6.6011076 A 1.4363106 1.4252621 0 1 1  -41.034289 6.6011076 z"
       sodipodi:ry="1.4252621"
       sodipodi:rx="1.4363106"
       sodipodi:cy="6.6011076"
       sodipodi:cx="-42.4706"
       id="path8067"
       style="opacity:0.75373134;fill:url(#radialGradient8069);fill-opacity:1;fill-rule:evenodd;stroke:none;stroke-width:1;stroke-linecap:round;stroke-linejoin:round;stroke-miterlimit:4;stroke-dasharray:none;stroke-opacity:0.99236642;display:inline"
       sodipodi:type="arc" />
    <path
       transform="matrix(-1.0443428,0,0,1.7540633,-12.894295,-5.078761)"
       d="M -41.034289 6.6011076 A 1.4363106 1.4252621 0 1 1  -43.906911,6.6011076 A 1.4363106 1.4252621 0 1 1  -41.034289 6.6011076 z"
       sodipodi:ry="1.4252621"
       sodipodi:rx="1.4363106"
       sodipodi:cy="6.6011076"
       sodipodi:cx="-42.4706"
       id="path8071"
       style="opacity:0.75373134;fill:url(#radialGradient8073);fill-opacity:1;fill-rule:evenodd;stroke:none;stroke-width:1;stroke-linecap:round;stroke-linejoin:round;stroke-miterlimit:4;stroke-dasharray:none;stroke-opacity:0.99236642;display:inline"
       sodipodi:type="arc" />
    <path
       transform="matrix(0.4971234,0,0,0.5277156,37.862441,0.32844)"
       d="M -40.84375 6.078125 A 1.078125 1.015625 0 1 1  -43,6.078125 A 1.078125 1.015625 0 1 1  -40.84375 6.078125 z"
       sodipodi:ry="1.015625"
       sodipodi:rx="1.078125"
       sodipodi:cy="6.078125"
       sodipodi:cx="-41.921875"
       id="path8075"
       style="opacity:0.83582093;fill:#ffffff;fill-opacity:1;fill-rule:evenodd;stroke:none;stroke-width:1;stroke-linecap:round;stroke-linejoin:round;stroke-miterlimit:4;stroke-dasharray:none;stroke-opacity:0.99236642;display:inline"
       sodipodi:type="arc" />
    <path
       transform="matrix(-0.4971234,0,0,0.5277156,9.097127,0.32844)"
       d="M -40.84375 6.078125 A 1.078125 1.015625 0 1 1  -43,6.078125 A 1.078125 1.015625 0 1 1  -40.84375 6.078125 z"
       sodipodi:ry="1.015625"
       sodipodi:rx="1.078125"
       sodipodi:cy="6.078125"
       sodipodi:cx="-41.921875"
       id="path8077"
       style="opacity:0.83582093;fill:#ffffff;fill-opacity:1;fill-rule:evenodd;stroke:none;stroke-width:1;stroke-linecap:round;stroke-linejoin:round;stroke-miterlimit:4;stroke-dasharray:none;stroke-opacity:0.99236642;display:inline"
       sodipodi:type="arc" />
    <path
       transform="matrix(0.4971234,0,0,0.5277156,38.376306,11.256517)"
       d="M -40.84375 6.078125 A 1.078125 1.015625 0 1 1  -43,6.078125 A 1.078125 1.015625 0 1 1  -40.84375 6.078125 z"
       sodipodi:ry="1.015625"
       sodipodi:rx="1.078125"
       sodipodi:cy="6.078125"
       sodipodi:cx="-41.921875"
       id="path8266"
       style="opacity:0.83582093;fill:#ffffff;fill-opacity:1;fill-rule:evenodd;stroke:none;stroke-width:1;stroke-linecap:round;stroke-linejoin:round;stroke-miterlimit:4;stroke-dasharray:none;stroke-opacity:0.99236642;display:inline"
       sodipodi:type="arc" />
    <path
       transform="matrix(-0.4971234,0,0,0.5277156,9.6956161,11.256517)"
       d="M -40.84375 6.078125 A 1.078125 1.015625 0 1 1  -43,6.078125 A 1.078125 1.015625 0 1 1  -40.84375 6.078125 z"
       sodipodi:ry="1.015625"
       sodipodi:rx="1.078125"
       sodipodi:cy="6.078125"
       sodipodi:cx="-41.921875"
       id="path8268"
       style="opacity:0.83582093;fill:#ffffff;fill-opacity:1;fill-rule:evenodd;stroke:none;stroke-width:1;stroke-linecap:round;stroke-linejoin:round;stroke-miterlimit:4;stroke-dasharray:none;stroke-opacity:0.99236642;display:inline"
       sodipodi:type="arc" />
    <g
       id="g8291">
      <path
         sodipodi:nodetypes="cccsccccsccccccc"
         id="text7658"
         d="M 14.313417,17.957453 L 15.28495,17.957453 L 15.081595,19.071853 C 15.056144,19.211315 14.893389,19.312328 14.59333,19.374891 C 14.296789,19.437453 13.829954,19.468734 13.192826,19.468735 L 12.823221,19.468735 L 12.851049,19.316238 L 13.109772,19.316238 C 13.479377,19.316238 13.733974,19.300272 13.873564,19.268339 C 14.013033,19.237057 14.091865,19.171562 14.110061,19.071853 L 14.313417,17.957453 M 14.391191,17.531245 L 15.362725,17.531245 L 15.321162,17.759012 L 14.349628,17.759012 L 14.391191,17.531245"
         style="font-size:4.65283775px;font-style:normal;font-weight:normal;fill:#888a85;fill-opacity:1;stroke:none;stroke-width:1px;stroke-linecap:butt;stroke-linejoin:miter;stroke-opacity:1;display:inline;font-family:Bitstream Vera Sans" />
      <path
         sodipodi:nodetypes="cccsssccsssssssccssscc"
         id="text8279"
         d="M 35.994267,18.45991 L 36.008834,18.54789 L 31.541891,18.54789 C 31.604632,18.671712 31.82092,18.766208 32.190756,18.831377 C 32.564002,18.895895 33.072707,18.928154 33.716881,18.928154 C 34.090001,18.928154 34.449404,18.919682 34.795088,18.902738 C 35.144281,18.885794 35.488558,18.860378 35.827918,18.826489 L 35.85608,18.996582 C 35.512122,19.023953 35.158289,19.044807 34.794582,19.059144 C 34.430868,19.073482 34.060689,19.080651 33.684048,19.080651 C 32.740672,19.080651 31.984246,19.029818 31.414768,18.928154 C 30.848807,18.826489 30.551478,18.688982 30.522777,18.51563 C 30.493105,18.336415 30.730066,18.194346 31.233661,18.089422 C 31.740667,17.983848 32.437697,17.931061 33.324751,17.93106 C 34.120279,17.931061 34.756483,17.978635 35.233367,18.073781 C 35.713653,18.168278 35.967288,18.296987 35.994267,18.45991 M 35.013995,18.407123 C 34.990658,18.308718 34.828052,18.230189 34.526183,18.171535 C 34.227823,18.112884 33.839282,18.083558 33.36056,18.083556 C 32.81847,18.083558 32.388438,18.111906 32.070464,18.168603 C 31.756004,18.225301 31.582658,18.305134 31.550428,18.408101 L 35.013995,18.407123"
         style="font-size:4.65283775px;font-style:normal;font-weight:normal;fill:#888a85;fill-opacity:1;stroke:none;stroke-width:1px;stroke-linecap:butt;stroke-linejoin:miter;stroke-opacity:1;display:inline;font-family:Bitstream Vera Sans" />
      <path
         sodipodi:nodetypes="ccccsssccccccsssc"
         id="path8286"
         d="M 28.987451,18.391483 L 29.023191,19.052302 L 28.051657,19.052302 L 28.016235,18.397348 C 28.010626,18.293729 27.89731,18.216178 27.676288,18.164693 C 27.455256,18.11321 27.126499,18.087468 26.690017,18.087467 C 26.165527,18.087468 25.753595,18.118423 25.454222,18.180333 C 25.154844,18.242245 25.008046,18.326639 25.013829,18.433517 L 25.047295,19.052302 L 24.070481,19.052302 L 24.011269,17.957453 L 24.988082,17.957453 L 24.997281,18.127546 C 25.226043,18.061726 25.496185,18.012523 25.807709,17.979937 C 26.122749,17.947353 26.486192,17.931061 26.898041,17.93106 C 27.577407,17.931061 28.093448,17.970162 28.446167,18.048365 C 28.798841,18.125917 28.979269,18.24029 28.987451,18.391483"
         style="font-size:4.65283775px;font-style:normal;font-weight:normal;fill:#888a85;fill-opacity:1;stroke:none;stroke-width:1px;stroke-linecap:butt;stroke-linejoin:miter;stroke-opacity:1;display:inline;font-family:Bitstream Vera Sans" />
      <path
         sodipodi:nodetypes="ccccsssccccccsssc"
         id="path8289"
         d="M 17.102494,18.620228 L 17.149678,17.957453 L 18.121211,17.957453 L 18.074515,18.613385 C 18.067136,18.717005 18.170714,18.794882 18.385247,18.847018 C 18.599823,18.898502 18.925355,18.924244 19.361844,18.924244 C 19.886327,18.924244 20.302136,18.893288 20.609272,18.831377 C 20.919919,18.769466 21.079048,18.685072 21.086664,18.578193 L 21.130854,17.957453 L 22.102387,17.957453 L 22.024444,19.052302 L 21.052911,19.052302 L 21.064881,18.884164 C 20.824301,18.950637 20.54621,19.000166 20.23061,19.032751 C 19.918569,19.064684 19.556627,19.080651 19.144786,19.080651 C 18.465414,19.080651 17.95251,19.041549 17.606075,18.963345 C 17.259636,18.885142 17.091776,18.770769 17.102494,18.620228"
         style="font-size:4.65283775px;font-style:normal;font-weight:normal;fill:#888a85;fill-opacity:1;stroke:none;stroke-width:1px;stroke-linecap:butt;stroke-linejoin:miter;stroke-opacity:1;display:inline;font-family:Bitstream Vera Sans" />
    </g>
  </g>
</svg>
