<?xml version="1.0" encoding="UTF-8" standalone="no"?>
<!-- Created with Inkscape (http://www.inkscape.org/) -->
<svg
   xmlns:dc="http://purl.org/dc/elements/1.1/"
   xmlns:cc="http://web.resource.org/cc/"
   xmlns:rdf="http://www.w3.org/1999/02/22-rdf-syntax-ns#"
   xmlns:svg="http://www.w3.org/2000/svg"
   xmlns="http://www.w3.org/2000/svg"
   xmlns:xlink="http://www.w3.org/1999/xlink"
   xmlns:sodipodi="http://sodipodi.sourceforge.net/DTD/sodipodi-0.dtd"
   xmlns:inkscape="http://www.inkscape.org/namespaces/inkscape"
   width="32"
   height="32"
   id="svg2"
   sodipodi:version="0.32"
   inkscape:version="0.44"
   version="1.0"
   sodipodi:docbase="/home/lapo/Icone/cvs/gnome-icon-theme/32x32/devices"
   sodipodi:docname="input-mouse.svg"
   inkscape:export-filename="/home/jimmac/src/cvs/gnome/gnome-icon-theme/32x32/devices/input-mouse.png"
   inkscape:export-xdpi="90"
   inkscape:export-ydpi="90"
   inkscape:output_extension="org.inkscape.output.svg.inkscape">
  <defs
     id="defs4">
    <linearGradient
       inkscape:collect="always"
       id="linearGradient5052">
      <stop
         style="stop-color:#eeeeec;stop-opacity:1;"
         offset="0"
         id="stop5054" />
      <stop
         style="stop-color:#888a85"
         offset="1"
         id="stop5056" />
    </linearGradient>
    <linearGradient
       inkscape:collect="always"
       id="linearGradient5036">
      <stop
         style="stop-color:#888a85;stop-opacity:1;"
         offset="0"
         id="stop5038" />
      <stop
         style="stop-color:#888a85;stop-opacity:0;"
         offset="1"
         id="stop5040" />
    </linearGradient>
    <linearGradient
       id="linearGradient5024">
      <stop
         style="stop-color:#555753"
         offset="0"
         id="stop5026" />
      <stop
         style="stop-color:#555753;stop-opacity:0;"
         offset="1"
         id="stop5028" />
    </linearGradient>
    <linearGradient
       inkscape:collect="always"
       id="linearGradient4881">
      <stop
         style="stop-color:#ffffff;stop-opacity:1;"
         offset="0"
         id="stop4883" />
      <stop
         style="stop-color:#ffffff;stop-opacity:0;"
         offset="1"
         id="stop4885" />
    </linearGradient>
    <linearGradient
       inkscape:collect="always"
       id="linearGradient2329">
      <stop
         style="stop-color:#888a85;stop-opacity:1;"
         offset="0"
         id="stop2331" />
      <stop
         style="stop-color:#888a85;stop-opacity:0;"
         offset="1"
         id="stop2333" />
    </linearGradient>
    <linearGradient
       inkscape:collect="always"
       id="linearGradient2319">
      <stop
         style="stop-color:#ffffff;stop-opacity:1;"
         offset="0"
         id="stop2321" />
      <stop
         style="stop-color:#ffffff;stop-opacity:0;"
         offset="1"
         id="stop2323" />
    </linearGradient>
    <linearGradient
       id="linearGradient2303">
      <stop
         style="stop-color:#eeeeec"
         offset="0"
         id="stop2305" />
      <stop
         id="stop4891"
         offset="0.61904764"
         style="stop-color:#dedfdc;stop-opacity:1;" />
      <stop
         style="stop-color:#babdb6"
         offset="1"
         id="stop2307" />
    </linearGradient>
    <radialGradient
       inkscape:collect="always"
       xlink:href="#linearGradient2303"
       id="radialGradient2309"
       cx="14.875"
       cy="17.263519"
       fx="14.875"
       fy="17.263519"
       r="15"
       gradientTransform="matrix(0.324944,2.022202,-1.065865,0.174995,23.64005,-22.61972)"
       gradientUnits="userSpaceOnUse" />
    <linearGradient
       inkscape:collect="always"
       xlink:href="#linearGradient2319"
       id="linearGradient2325"
       x1="24.875"
       y1="17.250874"
       x2="24.875"
       y2="8.3119793"
       gradientUnits="userSpaceOnUse"
       gradientTransform="matrix(0.485381,0,0,0.662904,4.434322,0.670565)" />
    <linearGradient
       inkscape:collect="always"
       xlink:href="#linearGradient2329"
       id="linearGradient2335"
       x1="23.25"
       y1="16.209139"
       x2="23.25"
       y2="9.2955227"
       gradientUnits="userSpaceOnUse"
       gradientTransform="matrix(0.658878,0,0,0.662904,0.337753,0.317013)" />
    <linearGradient
       inkscape:collect="always"
       xlink:href="#linearGradient4881"
       id="linearGradient5004"
       gradientUnits="userSpaceOnUse"
       gradientTransform="matrix(0.658878,0,0,0.662904,1.655511,0.670565)"
       x1="8.867074"
       y1="25.9375"
       x2="12.813787"
       y2="25.9375" />
    <linearGradient
       inkscape:collect="always"
       xlink:href="#linearGradient5024"
       id="linearGradient5030"
       x1="30.616116"
       y1="3.3276651"
       x2="31.094669"
       y2="0.12944162"
       gradientUnits="userSpaceOnUse"
       gradientTransform="matrix(0.658878,0,0,0.662904,1.022839,0.670565)" />
    <linearGradient
       inkscape:collect="always"
       xlink:href="#linearGradient5036"
       id="linearGradient5042"
       x1="34.206291"
       y1="8.1061554"
       x2="35.885674"
       y2="4.9194174"
       gradientUnits="userSpaceOnUse"
       gradientTransform="matrix(0.658878,0,0,0.662904,0.337753,7.661237e-3)" />
    <linearGradient
       inkscape:collect="always"
       xlink:href="#linearGradient5052"
       id="linearGradient5058"
       x1="23.499411"
       y1="10.03125"
       x2="26.000536"
       y2="10.03125"
       gradientUnits="userSpaceOnUse"
       gradientTransform="matrix(0.658878,0,0,0.662904,0.337753,7.661237e-3)" />
  </defs>
  <sodipodi:namedview
     id="base"
     pagecolor="#ffffff"
     bordercolor="#666"
     borderopacity="0.42352941"
     inkscape:pageopacity="0.0"
     inkscape:pageshadow="2"
     inkscape:zoom="5.6568542"
     inkscape:cx="-0.99040569"
     inkscape:cy="18.198253"
     inkscape:document-units="px"
     inkscape:current-layer="layer3"
     showgrid="false"
     gridempspacing="10"
     gridspacingx="1px"
     gridspacingy="1px"
     inkscape:window-width="930"
     inkscape:window-height="738"
     inkscape:window-x="454"
     inkscape:window-y="115"
     showguides="false"
     inkscape:guide-bbox="true"
     stroke="#2e3436"
     inkscape:grid-points="true"
     fill="#2e3436"
     inkscape:showpageshadow="false"
     showborder="true"
     width="32px"
     height="32px">
    <sodipodi:guide
       orientation="vertical"
       position="8.9272231"
       id="guide1403" />
    <sodipodi:guide
       orientation="vertical"
       position="38.979261"
       id="guide1405" />
    <sodipodi:guide
       orientation="horizontal"
       position="2.032932"
       id="guide1407" />
    <sodipodi:guide
       orientation="horizontal"
       position="38.979261"
       id="guide1409" />
  </sodipodi:namedview>
  <metadata
     id="metadata7">
    <rdf:RDF>
      <cc:Work
         rdf:about="">
        <dc:format>image/svg+xml</dc:format>
        <dc:type
           rdf:resource="http://purl.org/dc/dcmitype/StillImage" />
        <dc:creator>
          <cc:Agent>
            <dc:title>Lapo Calamandrei</dc:title>
          </cc:Agent>
        </dc:creator>
        <dc:title>Input - Mouse</dc:title>
        <dc:subject>
          <rdf:Bag>
            <rdf:li>mouse</rdf:li>
            <rdf:li>pointer</rdf:li>
            <rdf:li>input</rdf:li>
            <rdf:li>device</rdf:li>
            <rdf:li>HID</rdf:li>
          </rdf:Bag>
        </dc:subject>
        <cc:license
           rdf:resource="http://creativecommons.org/licenses/GPL/2.0/" />
      </cc:Work>
      <cc:License
         rdf:about="http://creativecommons.org/licenses/GPL/2.0/">
        <cc:permits
           rdf:resource="http://web.resource.org/cc/Reproduction" />
        <cc:permits
           rdf:resource="http://web.resource.org/cc/Distribution" />
        <cc:requires
           rdf:resource="http://web.resource.org/cc/Notice" />
        <cc:permits
           rdf:resource="http://web.resource.org/cc/DerivativeWorks" />
        <cc:requires
           rdf:resource="http://web.resource.org/cc/ShareAlike" />
        <cc:requires
           rdf:resource="http://web.resource.org/cc/SourceCode" />
      </cc:License>
    </rdf:RDF>
  </metadata>
  <g
     inkscape:groupmode="layer"
     id="layer3"
     inkscape:label="Mouse"
     style="display:inline">
    <path
       style="opacity:0.30980392;fill:none;fill-opacity:1;fill-rule:evenodd;stroke:url(#linearGradient5042);stroke-width:0.99999899;stroke-linecap:butt;stroke-linejoin:miter;stroke-miterlimit:4;stroke-dasharray:none;stroke-opacity:1;display:inline"
       d="M 16.506472,7.6310572 C 16.506472,1.4487996 8.2704949,9.4301721 8.2704949,3.9850852 C 8.2704949,-1.5185643 22.436374,7.2996052 24.083569,5.3108932 C 25.730764,3.3221812 20.130301,3.9850852 20.130301,0.67056524"
       id="path5032"
       sodipodi:nodetypes="czzc" />
    <path
       style="opacity:1;color:black;fill:url(#radialGradient2309);fill-opacity:1;fill-rule:nonzero;stroke:#888a85;stroke-width:0.99999911;stroke-linecap:round;stroke-linejoin:round;marker:none;marker-start:none;marker-mid:none;marker-end:none;stroke-miterlimit:4;stroke-dashoffset:0;stroke-opacity:1;visibility:visible;display:inline;overflow:visible"
       d="M 12.0973,6.9681535 L 19.85081,6.9681535 C 22.897923,6.9681535 25.351014,8.8517551 25.351014,11.191476 L 25.351014,26.276679 C 25.351014,28.6164 22.440923,30.500002 18.560802,30.500002 L 13.387308,30.500002 C 9.507186,30.500002 6.5970954,28.590917 6.5970954,26.251196 L 6.5970954,11.191476 C 6.5970954,8.8517551 9.0501857,6.9681535 12.0973,6.9681535 z "
       id="rect1413"
       sodipodi:nodetypes="ccccccccc" />
    <path
       style="opacity:0.5;fill:none;fill-opacity:1;fill-rule:evenodd;stroke:url(#linearGradient2335);stroke-width:0.99999899;stroke-linecap:round;stroke-linejoin:round;stroke-miterlimit:4;stroke-dasharray:none;stroke-opacity:1;display:inline"
       d="M 7.25597,17.552517 C 7.25597,17.221065 7.5854089,16.558161 8.2442869,16.558161 L 15.162508,16.558161 C 15.491947,16.558161 15.821386,16.226709 15.821386,15.895257 L 15.821386,7.277504"
       id="path2293"
       sodipodi:nodetypes="czzzc" />
    <path
       style="opacity:0.5;fill:none;fill-opacity:0.75;fill-rule:evenodd;stroke:#888a85;stroke-width:0.99999917;stroke-linecap:round;stroke-linejoin:miter;stroke-miterlimit:4;stroke-dasharray:none;stroke-opacity:1;display:inline"
       d="M 16.480268,16.558161 L 23.588229,16.558161 C 24.206313,16.558161 24.515355,17.221065 24.515355,17.552517"
       id="path2295"
       sodipodi:nodetypes="czz" />
    <path
       style="opacity:0.5;color:black;fill:none;fill-opacity:1;fill-rule:nonzero;stroke:white;stroke-width:0.99999815;stroke-linecap:round;stroke-linejoin:round;marker:none;marker-start:none;marker-mid:none;marker-end:none;stroke-miterlimit:4;stroke-dashoffset:0;stroke-opacity:1;visibility:visible;display:inline;overflow:visible"
       d="M 12.245019,8.0080059 L 19.791451,8.0080059 C 22.408485,8.0080059 24.515337,9.5604533 24.515337,11.48883 L 24.515337,25.953411 C 24.515337,27.858776 21.997678,29.434234 18.535896,29.434234 L 13.500576,29.434234 C 10.038793,29.434234 7.5211316,27.881787 7.5211316,25.953411 L 7.5211316,11.48883 C 7.5211316,9.5604533 9.6279852,8.0080059 12.245019,8.0080059 z "
       id="rect2289"
       sodipodi:nodetypes="ccccccccc" />
    <path
       style="fill:none;fill-opacity:1;fill-rule:evenodd;stroke:url(#linearGradient2325);stroke-width:1.49999928;stroke-linecap:round;stroke-linejoin:miter;stroke-miterlimit:4;stroke-dasharray:none;stroke-opacity:1"
       d="M 16.447501,16.414535 L 16.447501,7.7967832"
       id="path2299" />
    <path
       style="opacity:0.6;fill:white;fill-opacity:1;fill-rule:evenodd;stroke:none;stroke-width:1;stroke-linecap:square;stroke-linejoin:miter;stroke-miterlimit:4;stroke-dasharray:none;stroke-opacity:1;display:inline"
       d="M 8.2857142,17.243159 C 7.8571408,17.243159 7.5278519,17.474261 7.321428,17.740337 C 7.1150044,18.006412 7,18.292756 7,18.568966 L 7,18.900418 C 7,18.900418 7.3055502,17.906063 8.2857142,17.906063 L 23.714286,17.906063 C 25,17.906063 25,18.900418 25,18.900418 L 25,18.568966 C 25,18.292756 24.884995,18.006412 24.678572,17.740337 C 24.472148,17.474261 24.142858,17.243159 23.714286,17.243159 L 8.2857142,17.243159 z "
       id="path2301"
       sodipodi:nodetypes="csccccccscc" />
    <path
       style="fill:none;fill-opacity:1;fill-rule:evenodd;stroke:url(#linearGradient5030);stroke-width:0.99999899;stroke-linecap:butt;stroke-linejoin:miter;stroke-miterlimit:4;stroke-dasharray:none;stroke-opacity:1"
       d="M 16.506472,6.9681532 C 16.506472,1.0757916 8.2704949,8.8240352 8.2704949,3.3221812 C 8.2704949,-2.2379535 22.436374,6.6367012 24.083569,4.6479892 C 25.730764,2.6592772 20.130301,3.3221812 20.130301,0.007661237"
       id="path5014"
       sodipodi:nodetypes="czzc" />
    <path
       style="opacity:0.77254902;color:black;fill:url(#linearGradient5004);fill-opacity:1;fill-rule:nonzero;stroke:none;stroke-width:0.99999958;stroke-linecap:round;stroke-linejoin:round;marker:none;marker-start:none;marker-mid:none;marker-end:none;stroke-miterlimit:4;stroke-dashoffset:0;stroke-opacity:1;visibility:visible;display:inline;overflow:visible"
       d="M 12.629974,7.2996026 C 10.685914,7.4225606 8.2443049,9.0474935 8.2443049,11.277025 L 8.2443049,16.580255 L 10.220946,16.580255 L 10.220946,11.277025 C 10.220946,8.2110953 12.47703,7.4019277 12.815283,7.2996026 C 12.753198,7.30041 12.693195,7.2956039 12.629974,7.2996026 z M 8.2443049,17.906063 L 8.2443049,26.523812 C 8.2443049,28.548351 10.870172,30.493643 14.483071,30.501234 C 14.23187,30.42518 10.220946,29.163394 10.220946,26.523812 L 10.220946,17.906063 L 8.2443049,17.906063 z "
       id="path3988" />
    <path
       style="color:black;fill:url(#linearGradient5058);fill-opacity:1;fill-rule:nonzero;stroke:#888a85;stroke-width:0.99999899;stroke-linecap:square;stroke-linejoin:round;marker:none;marker-start:none;marker-mid:none;marker-end:none;stroke-miterlimit:4;stroke-dashoffset:0;stroke-opacity:1;visibility:visible;display:inline;overflow:visible"
       d="M 15.162508,5.9737972 L 17.139142,5.9737972 L 17.139142,6.9681532 C 17.139142,7.5613622 15.162508,7.5613622 15.162508,6.9681532 L 15.162508,5.9737972 z "
       id="rect5006"
       sodipodi:nodetypes="cczzc" />
    <path
       style="font-size:4.08641815px;font-style:normal;font-weight:normal;line-height:125%;opacity:0.35;fill:#888a85;fill-opacity:1;stroke:none;stroke-width:1pt;stroke-linecap:butt;stroke-linejoin:miter;stroke-opacity:1;font-family:Bitstream Vera Sans"
       d="M 14.124332,19.980514 C 14.043153,20.026753 13.958918,20.061267 13.871627,20.084061 C 13.784332,20.106203 13.690921,20.117273 13.591397,20.117273 C 13.414587,20.117273 13.275584,20.06485 13.174392,19.960001 C 13.073198,19.854502 13.022603,19.710904 13.022603,19.52921 C 13.022603,19.411337 13.038449,19.300953 13.070141,19.198058 C 13.101833,19.094512 13.149093,19.000083 13.211922,18.914769 C 13.28865,18.810574 13.379002,18.732753 13.482976,18.681303 C 13.587504,18.629858 13.706767,18.604134 13.840768,18.604131 C 13.915271,18.604134 13.990333,18.613251 14.06595,18.631482 C 14.141567,18.649719 14.216071,18.676746 14.289465,18.712562 L 14.240259,19.014409 C 14.172425,18.968172 14.105983,18.933658 14.040929,18.910862 C 13.976433,18.888071 13.911379,18.876674 13.845771,18.876673 C 13.702319,18.876674 13.585558,18.93268 13.495486,19.044692 C 13.405412,19.156705 13.360376,19.300627 13.360376,19.47646 C 13.360376,19.593032 13.386509,19.683552 13.438773,19.748024 C 13.491594,19.812496 13.56582,19.844733 13.661454,19.844733 C 13.69259,19.844733 13.723726,19.842454 13.754864,19.837896 C 13.786001,19.832685 13.817414,19.824871 13.849108,19.81445 L 13.896647,19.531163 L 13.700652,19.531163 L 13.741519,19.279135 L 14.240259,19.279135 L 14.124332,19.980514 M 15.463752,19.422733 L 15.352829,20.088945 L 15.05342,20.088945 L 15.147662,19.518465 C 15.154335,19.481344 15.159338,19.450086 15.162674,19.424686 C 15.166566,19.398639 15.168512,19.378124 15.168513,19.363146 C 15.168512,19.321466 15.158504,19.289231 15.138489,19.266436 C 15.119027,19.243643 15.091228,19.232248 15.055087,19.232247 C 14.99337,19.232248 14.94027,19.260576 14.89579,19.317233 C 14.851865,19.37324 14.821284,19.451062 14.804049,19.5507 L 14.713976,20.088945 L 14.414566,20.088945 L 14.596381,18.994872 L 14.896624,18.994872 L 14.869103,19.155076 C 14.924145,19.091906 14.97947,19.045018 15.035071,19.014409 C 15.090672,18.983802 15.148773,18.968499 15.209379,18.968496 C 15.29556,18.968499 15.362002,18.994874 15.408708,19.047621 C 15.455412,19.100373 15.478764,19.174614 15.478765,19.270344 C 15.478764,19.291184 15.477373,19.314303 15.474595,19.339701 C 15.47237,19.365099 15.468756,19.392778 15.463752,19.422733 M 16.220201,19.218572 C 16.142914,19.218572 16.079252,19.2596 16.029211,19.341654 C 15.97917,19.423711 15.95415,19.528233 15.95415,19.655224 C 15.95415,19.724255 15.967494,19.777005 15.994183,19.813473 C 16.021426,19.849291 16.060903,19.8672 16.112612,19.8672 C 16.189899,19.8672 16.253562,19.826173 16.303603,19.744116 C 16.353643,19.66141 16.378663,19.556236 16.378663,19.428594 C 16.378663,19.360216 16.36504,19.308115 16.337797,19.272298 C 16.311108,19.236481 16.271909,19.218572 16.220201,19.218572 M 16.244388,18.968496 C 16.383389,18.968499 16.492644,19.009851 16.572153,19.092557 C 16.651661,19.175265 16.691417,19.287928 16.691417,19.430547 C 16.691417,19.513255 16.678906,19.593682 16.653887,19.67183 C 16.628865,19.749327 16.592448,19.820311 16.544632,19.884783 C 16.487918,19.96163 16.420918,20.019589 16.343635,20.058663 C 16.26635,20.097737 16.180168,20.117273 16.08509,20.117273 C 15.947756,20.117273 15.839335,20.07592 15.759826,19.993214 C 15.680872,19.910507 15.641397,19.797844 15.641397,19.655224 C 15.641397,19.573168 15.654185,19.493066 15.679762,19.414918 C 15.705337,19.336119 15.742033,19.264159 15.78985,19.199035 C 15.845451,19.123492 15.911616,19.066183 15.988345,19.027109 C 16.065629,18.988035 16.150978,18.968499 16.244388,18.968496 M 17.824838,19.176566 C 17.870986,19.10949 17.923251,19.058042 17.981632,19.022223 C 18.040568,18.986408 18.101727,18.968499 18.165115,18.968496 C 18.248513,18.968499 18.314123,18.995524 18.361941,19.049576 C 18.410312,19.102978 18.434498,19.176567 18.434499,19.270344 C 18.434498,19.289882 18.433107,19.31235 18.43033,19.337747 C 18.428104,19.362495 18.42449,19.390823 18.419487,19.422733 L 18.308564,20.088945 L 18.007485,20.088945 L 18.101731,19.518465 L 18.104232,19.503812 C 18.118685,19.423058 18.125915,19.371287 18.125916,19.348492 C 18.125915,19.312674 18.117018,19.284346 18.099227,19.263507 C 18.081991,19.242667 18.058359,19.232248 18.028336,19.232247 C 17.971066,19.232248 17.922417,19.259926 17.882385,19.315279 C 17.842908,19.369984 17.81455,19.448457 17.797316,19.5507 L 17.707243,20.088945 L 17.406165,20.088945 L 17.502077,19.518465 C 17.510416,19.469623 17.516254,19.432827 17.519591,19.408081 C 17.522927,19.382682 17.524594,19.36282 17.524594,19.348492 C 17.524594,19.312024 17.515976,19.283695 17.49874,19.263507 C 17.481503,19.242667 17.457596,19.232248 17.427015,19.232247 C 17.37197,19.232248 17.323596,19.260903 17.281896,19.31821 C 17.24075,19.374867 17.212118,19.452365 17.195992,19.5507 L 17.10592,20.088945 L 16.80651,20.088945 L 16.988325,18.994872 L 17.288568,18.994872 L 17.261046,19.155076 C 17.30775,19.093209 17.357514,19.046646 17.410336,19.015387 C 17.463156,18.984128 17.5182,18.968499 17.575469,18.968496 C 17.639965,18.968499 17.695288,18.988035 17.741437,19.027109 C 17.787585,19.065531 17.815385,19.115351 17.824838,19.176566 M 19.175936,19.218572 C 19.09865,19.218572 19.034988,19.2596 18.984948,19.341654 C 18.934907,19.423711 18.909887,19.528233 18.909887,19.655224 C 18.909887,19.724255 18.92323,19.777005 18.949918,19.813473 C 18.977164,19.849291 19.016639,19.8672 19.068349,19.8672 C 19.145633,19.8672 19.209296,19.826173 19.259337,19.744116 C 19.309377,19.66141 19.334396,19.556236 19.334396,19.428594 C 19.334396,19.360216 19.320774,19.308115 19.293531,19.272298 C 19.266842,19.236481 19.227644,19.218572 19.175936,19.218572 M 19.200122,18.968496 C 19.339123,18.968499 19.448378,19.009851 19.527888,19.092557 C 19.607395,19.175265 19.64715,19.287928 19.647151,19.430547 C 19.64715,19.513255 19.63464,19.593682 19.60962,19.67183 C 19.5846,19.749327 19.548181,19.820311 19.500366,19.884783 C 19.443652,19.96163 19.376654,20.019589 19.29937,20.058663 C 19.222083,20.097737 19.135902,20.117273 19.040827,20.117273 C 18.903493,20.117273 18.795071,20.07592 18.715562,19.993214 C 18.636609,19.910507 18.597133,19.797844 18.597133,19.655224 C 18.597133,19.573168 18.609921,19.493066 18.635498,19.414918 C 18.661073,19.336119 18.69777,19.264159 18.745587,19.199035 C 18.801187,19.123492 18.867351,19.066183 18.94408,19.027109 C 19.021365,18.988035 19.106713,18.968499 19.200122,18.968496 M 20.845626,18.676419 L 20.793917,18.985102 C 20.731086,18.948635 20.669093,18.921609 20.607932,18.904025 C 20.546771,18.885792 20.487,18.876674 20.42862,18.876673 C 20.348554,18.876674 20.286004,18.891327 20.240968,18.920631 C 20.196487,18.949937 20.174247,18.99064 20.174248,19.042739 C 20.174247,19.075952 20.183978,19.102001 20.203438,19.120886 C 20.223453,19.139121 20.26432,19.15703 20.326037,19.174613 L 20.457811,19.21271 C 20.567899,19.245273 20.64852,19.292487 20.699674,19.354354 C 20.751382,19.415569 20.777235,19.495019 20.777237,19.592705 C 20.777235,19.750955 20.725805,19.877946 20.622944,19.973677 C 20.520639,20.069407 20.383026,20.117273 20.21011,20.117273 C 20.129489,20.117273 20.049146,20.108482 19.969081,20.090898 C 19.889572,20.073315 19.811731,20.047266 19.735558,20.012752 L 19.786433,19.695274 C 19.860382,19.745419 19.932108,19.782866 20.001607,19.807612 C 20.071663,19.83236 20.140609,19.844733 20.208443,19.844733 C 20.281834,19.844733 20.341327,19.82715 20.38692,19.791983 C 20.433069,19.756816 20.456142,19.711881 20.456143,19.657177 C 20.456142,19.62136 20.445856,19.593682 20.425285,19.574146 C 20.404711,19.553957 20.359674,19.533442 20.290175,19.512603 L 20.159236,19.474506 C 20.062491,19.446503 19.990487,19.402219 19.943227,19.341654 C 19.895966,19.28109 19.872337,19.202617 19.872337,19.106232 C 19.872337,18.954497 19.921821,18.833041 20.02079,18.741868 C 20.120315,18.650044 20.254034,18.604134 20.421948,18.604131 C 20.489225,18.604134 20.558169,18.61032 20.628783,18.622692 C 20.699951,18.634416 20.772231,18.652324 20.845626,18.676419 M 21.581224,19.218572 C 21.503939,19.218572 21.440276,19.2596 21.390237,19.341654 C 21.340195,19.423711 21.315175,19.528233 21.315175,19.655224 C 21.315175,19.724255 21.328518,19.777005 21.355207,19.813473 C 21.382452,19.849291 21.421928,19.8672 21.473637,19.8672 C 21.550921,19.8672 21.614583,19.826173 21.664626,19.744116 C 21.714665,19.66141 21.739685,19.556236 21.739685,19.428594 C 21.739685,19.360216 21.726063,19.308115 21.698819,19.272298 C 21.67213,19.236481 21.632932,19.218572 21.581224,19.218572 M 21.60541,18.968496 C 21.744412,18.968499 21.853667,19.009851 21.933176,19.092557 C 22.012684,19.175265 22.052439,19.287928 22.05244,19.430547 C 22.052439,19.513255 22.039928,19.593682 22.014909,19.67183 C 21.989888,19.749327 21.95347,19.820311 21.905655,19.884783 C 21.848941,19.96163 21.781942,20.019589 21.704657,20.058663 C 21.627372,20.097737 21.541192,20.117273 21.446115,20.117273 C 21.308781,20.117273 21.20036,20.07592 21.120851,19.993214 C 21.041897,19.910507 21.002421,19.797844 21.002421,19.655224 C 21.002421,19.573168 21.015209,19.493066 21.040787,19.414918 C 21.066362,19.336119 21.103058,19.264159 21.150875,19.199035 C 21.206475,19.123492 21.27264,19.066183 21.349369,19.027109 C 21.426653,18.988035 21.512001,18.968499 21.60541,18.968496 M 23.037407,18.568966 L 22.998209,18.798525 L 22.833909,18.798525 C 22.792207,18.798527 22.761628,18.807643 22.742168,18.825877 C 22.723263,18.843462 22.710197,18.87407 22.702969,18.917702 L 22.688791,18.994872 L 22.941496,18.994872 L 22.900629,19.244947 L 22.647925,19.244947 L 22.507811,20.088945 L 22.207567,20.088945 L 22.34768,19.244947 L 22.200061,19.244947 L 22.241762,18.994872 L 22.388548,18.994872 L 22.401891,18.918677 C 22.422464,18.79755 22.465276,18.708982 22.530329,18.652975 C 22.595381,18.59697 22.687956,18.568966 22.808053,18.568966 L 23.037407,18.568966 M 23.473596,18.684232 L 23.422721,18.994872 L 23.727969,18.994872 L 23.685434,19.244947 L 23.380187,19.244947 L 23.303458,19.707972 C 23.301233,19.718393 23.299566,19.727185 23.298453,19.734349 C 23.297898,19.741513 23.29762,19.74835 23.29762,19.754864 C 23.29762,19.784819 23.30596,19.80631 23.32264,19.819334 C 23.339876,19.83236 23.36851,19.838871 23.408544,19.838871 L 23.562835,19.838871 L 23.520301,20.088945 L 23.269264,20.088945 C 23.179189,20.088945 23.110521,20.066803 23.063261,20.02252 C 23.016001,19.978236 22.99237,19.914414 22.99237,19.831057 C 22.99237,19.812823 22.993204,19.793286 22.994872,19.772445 C 22.996541,19.751607 22.999043,19.730441 23.002378,19.70895 L 23.079107,19.244947 L 22.932322,19.244947 L 22.973189,18.994872 L 23.121642,18.994872 L 23.17335,18.684232 L 23.473596,18.684232"
       id="text5068" />
  </g>
</svg>
