<?xml version="1.0" encoding="UTF-8" standalone="no"?>
<!-- Created with Inkscape (http://www.inkscape.org/) -->
<svg
   xmlns:dc="http://purl.org/dc/elements/1.1/"
   xmlns:cc="http://web.resource.org/cc/"
   xmlns:rdf="http://www.w3.org/1999/02/22-rdf-syntax-ns#"
   xmlns:svg="http://www.w3.org/2000/svg"
   xmlns="http://www.w3.org/2000/svg"
   xmlns:xlink="http://www.w3.org/1999/xlink"
   xmlns:sodipodi="http://sodipodi.sourceforge.net/DTD/sodipodi-0.dtd"
   xmlns:inkscape="http://www.inkscape.org/namespaces/inkscape"
   id="svg2"
   sodipodi:version="0.32"
   inkscape:version="0.45+devel"
   width="32"
   height="32"
   version="1.0"
   sodipodi:docbase="/home/lapo/Icone/svn/gnome-icon-theme/32x32/devices"
   sodipodi:docname="network-wired.svg"
   inkscape:output_extension="org.inkscape.output.svg.inkscape"
   inkscape:export-filename="/home/lapo/Icone/svn/gnome-icon-theme/32x32/devices/network-wired.png"
   inkscape:export-xdpi="90"
   inkscape:export-ydpi="90">
  <metadata
     id="metadata7">
    <rdf:RDF>
      <cc:Work
         rdf:about="">
        <dc:format>image/svg+xml</dc:format>
        <dc:type
           rdf:resource="http://purl.org/dc/dcmitype/StillImage" />
        <dc:creator>
          <cc:Agent>
            <dc:title>Lapo Calamandrei</dc:title>
          </cc:Agent>
        </dc:creator>
      </cc:Work>
    </rdf:RDF>
  </metadata>
  <defs
     id="defs5">
    <linearGradient
       inkscape:collect="always"
       id="linearGradient7031">
      <stop
         style="stop-color:#000000;stop-opacity:1;"
         offset="0"
         id="stop7033" />
      <stop
         style="stop-color:#000000;stop-opacity:0;"
         offset="1"
         id="stop7035" />
    </linearGradient>
    <linearGradient
       inkscape:collect="always"
       id="linearGradient7019">
      <stop
         style="stop-color:#9ebdde;stop-opacity:1"
         offset="0"
         id="stop7021" />
      <stop
         style="stop-color:#9ebdde;stop-opacity:0"
         offset="1"
         id="stop7023" />
    </linearGradient>
    <linearGradient
       inkscape:collect="always"
       id="linearGradient7011">
      <stop
         style="stop-color:#3465a4;stop-opacity:1;"
         offset="0"
         id="stop7013" />
      <stop
         style="stop-color:#3465a4;stop-opacity:0;"
         offset="1"
         id="stop7015" />
    </linearGradient>
    <linearGradient
       inkscape:collect="always"
       id="linearGradient4114">
      <stop
         style="stop-color:#ffffff;stop-opacity:1;"
         offset="0"
         id="stop4116" />
      <stop
         style="stop-color:#ffffff;stop-opacity:0;"
         offset="1"
         id="stop4118" />
    </linearGradient>
    <linearGradient
       inkscape:collect="always"
       id="linearGradient7822">
      <stop
         style="stop-color:#000000;stop-opacity:1;"
         offset="0"
         id="stop7824" />
      <stop
         style="stop-color:#000000;stop-opacity:0;"
         offset="1"
         id="stop7826" />
    </linearGradient>
    <linearGradient
       inkscape:collect="always"
       id="linearGradient7812">
      <stop
         style="stop-color:#000000;stop-opacity:1;"
         offset="0"
         id="stop7814" />
      <stop
         style="stop-color:#000000;stop-opacity:0;"
         offset="1"
         id="stop7816" />
    </linearGradient>
    <linearGradient
       inkscape:collect="always"
       id="linearGradient7422">
      <stop
         style="stop-color:#edd400;stop-opacity:1;"
         offset="0"
         id="stop7424" />
      <stop
         style="stop-color:#edd400;stop-opacity:0;"
         offset="1"
         id="stop7426" />
    </linearGradient>
    <linearGradient
       id="linearGradient7340">
      <stop
         style="stop-color:#2e3436;stop-opacity:1;"
         offset="0"
         id="stop7342" />
      <stop
         style="stop-color:#555753;stop-opacity:1"
         offset="1"
         id="stop7344" />
    </linearGradient>
    <linearGradient
       id="linearGradient7277">
      <stop
         style="stop-color:#555753;stop-opacity:1"
         offset="0"
         id="stop7279" />
      <stop
         style="stop-color:#d3d7cf;stop-opacity:1"
         offset="1"
         id="stop7281" />
    </linearGradient>
    <linearGradient
       id="linearGradient7269">
      <stop
         id="stop7271"
         offset="0"
         style="stop-color:#ffffff;stop-opacity:1;" />
      <stop
         id="stop7273"
         offset="1"
         style="stop-color:#d3d7cf;stop-opacity:1" />
    </linearGradient>
    <linearGradient
       id="linearGradient7263">
      <stop
         id="stop7265"
         offset="0"
         style="stop-color:#adb0a8;stop-opacity:1;" />
      <stop
         id="stop7267"
         offset="1"
         style="stop-color:#ffffff;stop-opacity:1" />
    </linearGradient>
    <linearGradient
       id="linearGradient7257">
      <stop
         id="stop7259"
         offset="0"
         style="stop-color:#000000;stop-opacity:1" />
      <stop
         id="stop7261"
         offset="1"
         style="stop-color:#000000;stop-opacity:0;" />
    </linearGradient>
    <linearGradient
       id="linearGradient7245">
      <stop
         style="stop-color:#eeeeec;stop-opacity:1;"
         offset="0"
         id="stop7247" />
      <stop
         style="stop-color:#ffffff;stop-opacity:1;"
         offset="1"
         id="stop7249" />
    </linearGradient>
    <linearGradient
       id="linearGradient7237">
      <stop
         style="stop-color:#eeeeec;stop-opacity:1"
         offset="0"
         id="stop7239" />
      <stop
         style="stop-color:#babdb6;stop-opacity:1;"
         offset="1"
         id="stop7241" />
    </linearGradient>
    <linearGradient
       id="linearGradient7186">
      <stop
         style="stop-color:#888a85;stop-opacity:1;"
         offset="0"
         id="stop7188" />
      <stop
         style="stop-color:#ffffff;stop-opacity:1;"
         offset="1"
         id="stop7190" />
    </linearGradient>
    <linearGradient
       id="linearGradient6991">
      <stop
         style="stop-color:#d3d7cf;stop-opacity:1"
         offset="0"
         id="stop6993" />
      <stop
         style="stop-color:#ffffff;stop-opacity:1"
         offset="1"
         id="stop6995" />
    </linearGradient>
    <linearGradient
       inkscape:collect="always"
       xlink:href="#linearGradient6991"
       id="linearGradient6047"
       gradientUnits="userSpaceOnUse"
       gradientTransform="matrix(1.1875,0,0,1.2,27.71875,0.9000001)"
       x1="-7.975069"
       y1="25.357235"
       x2="-11.005972"
       y2="-6.5683565" />
    <linearGradient
       inkscape:collect="always"
       xlink:href="#linearGradient7263"
       id="linearGradient7555"
       gradientUnits="userSpaceOnUse"
       x1="1.6256078"
       y1="55.219357"
       x2="0.82206726"
       y2="54.415817" />
    <linearGradient
       inkscape:collect="always"
       xlink:href="#linearGradient7269"
       id="linearGradient7557"
       gradientUnits="userSpaceOnUse"
       gradientTransform="matrix(0.9642856,0,0,0.9722222,-0.2500008,1.6944444)"
       x1="-4.2208939"
       y1="59.878922"
       x2="-4.2208939"
       y2="54.707691" />
    <linearGradient
       inkscape:collect="always"
       xlink:href="#linearGradient7269"
       id="linearGradient7574"
       gradientUnits="userSpaceOnUse"
       gradientTransform="matrix(0.6838349,0,0,0.7105806,10.343914,-20.059963)"
       x1="-4.1097827"
       y1="58.807774"
       x2="-4.1097827"
       y2="55.000004" />
    <filter
       inkscape:collect="always"
       x="-0.11546874"
       width="1.2309375"
       y="-0.12741379"
       height="1.2548276"
       id="filter7806">
      <feGaussianBlur
         inkscape:collect="always"
         stdDeviation="1.8475001"
         id="feGaussianBlur7808" />
    </filter>
    <linearGradient
       inkscape:collect="always"
       xlink:href="#linearGradient7812"
       id="linearGradient7818"
       x1="-7.25"
       y1="31.15625"
       x2="-8.40625"
       y2="34.71875"
       gradientUnits="userSpaceOnUse"
       gradientTransform="matrix(0.6490813,0,0,0.6201176,13.171124,0.1886489)" />
    <radialGradient
       inkscape:collect="always"
       xlink:href="#linearGradient7822"
       id="radialGradient7828"
       cx="14.363107"
       cy="34.785942"
       fx="14.363107"
       fy="34.785942"
       r="8.7946405"
       gradientTransform="matrix(1,0,0,0.6884422,0,10.837832)"
       gradientUnits="userSpaceOnUse" />
    <linearGradient
       inkscape:collect="always"
       xlink:href="#linearGradient7422"
       id="linearGradient2917"
       gradientUnits="userSpaceOnUse"
       x1="29.173611"
       y1="25.5"
       x2="29.173611"
       y2="23.621094"
       gradientTransform="matrix(0.7422681,0,0,0.5688888,-0.672947,-2.5755534)" />
    <linearGradient
       inkscape:collect="always"
       xlink:href="#linearGradient7277"
       id="linearGradient3307"
       gradientUnits="userSpaceOnUse"
       gradientTransform="matrix(0.6022312,0,0,0.759831,10.602232,-22.16773)"
       x1="-3.5355339"
       y1="55.866562"
       x2="-3.5355339"
       y2="59.444622" />
    <linearGradient
       inkscape:collect="always"
       xlink:href="#linearGradient7186"
       id="linearGradient3310"
       gradientUnits="userSpaceOnUse"
       gradientTransform="matrix(0.4913878,0,0,0.9883894,9.4567291,-33.384639)"
       x1="-5.96875"
       y1="52.875"
       x2="-5.96875"
       y2="51.812416" />
    <linearGradient
       inkscape:collect="always"
       xlink:href="#linearGradient7245"
       id="linearGradient3313"
       gradientUnits="userSpaceOnUse"
       gradientTransform="matrix(0.6767563,0,0,0.458676,10.969732,-6.475122)"
       x1="-5.0823302"
       y1="50.51907"
       x2="0.26516503"
       y2="49.458408" />
    <linearGradient
       inkscape:collect="always"
       xlink:href="#linearGradient7237"
       id="linearGradient3316"
       gradientUnits="userSpaceOnUse"
       gradientTransform="matrix(0.6339598,0,0,0.7451242,11.071679,-20.511084)"
       x1="-4.8937163"
       y1="53.055656"
       x2="-0.90175909"
       y2="51.097065" />
    <linearGradient
       inkscape:collect="always"
       xlink:href="#linearGradient7257"
       id="linearGradient3322"
       gradientUnits="userSpaceOnUse"
       gradientTransform="matrix(0.7748398,0,0,0.6043941,10.649039,-13.615312)"
       x1="-1.9887378"
       y1="51.137787"
       x2="-3.3587573"
       y2="54" />
    <linearGradient
       inkscape:collect="always"
       xlink:href="#linearGradient7422"
       id="linearGradient3329"
       gradientUnits="userSpaceOnUse"
       gradientTransform="matrix(0.7422681,0,0,0.5688888,-1.642019,-2.5755534)"
       x1="30.479166"
       y1="25.5"
       x2="30.479166"
       y2="23.621094" />
    <linearGradient
       inkscape:collect="always"
       xlink:href="#linearGradient4114"
       id="linearGradient4120"
       x1="20"
       y1="15"
       x2="19"
       y2="3"
       gradientUnits="userSpaceOnUse"
       gradientTransform="translate(0,-1)" />
    <linearGradient
       inkscape:collect="always"
       xlink:href="#linearGradient7340"
       id="linearGradient4516"
       gradientUnits="userSpaceOnUse"
       x1="17.549768"
       y1="7.1974592"
       x2="20"
       y2="12.997621"
       gradientTransform="matrix(1.1428571,0,0,1.1374457,-2.8571429,-2.4269451)" />
    <linearGradient
       inkscape:collect="always"
       xlink:href="#linearGradient7011"
       id="linearGradient7017"
       x1="23.157747"
       y1="26.166368"
       x2="24.925514"
       y2="31.734835"
       gradientUnits="userSpaceOnUse" />
    <linearGradient
       inkscape:collect="always"
       xlink:href="#linearGradient7019"
       id="linearGradient7025"
       x1="19.975767"
       y1="26.166368"
       x2="21.743534"
       y2="30.939341"
       gradientUnits="userSpaceOnUse" />
    <linearGradient
       inkscape:collect="always"
       xlink:href="#linearGradient7031"
       id="linearGradient7037"
       x1="15.202796"
       y1="28.392544"
       x2="19.136078"
       y2="31.795496"
       gradientUnits="userSpaceOnUse" />
    <linearGradient
       inkscape:collect="always"
       xlink:href="#linearGradient7422"
       id="linearGradient5307"
       gradientUnits="userSpaceOnUse"
       gradientTransform="matrix(0.7422681,0,0,0.5688888,-2.672947,-2.5755534)"
       x1="31.868055"
       y1="25.5"
       x2="31.868055"
       y2="23.621094" />
    <linearGradient
       inkscape:collect="always"
       xlink:href="#linearGradient7422"
       id="linearGradient4725"
       gradientUnits="userSpaceOnUse"
       gradientTransform="matrix(0.7422681,0,0,0.5688888,-0.672947,-2.5755534)"
       x1="29.173611"
       y1="25.5"
       x2="29.173611"
       y2="23.621094" />
    <linearGradient
       inkscape:collect="always"
       xlink:href="#linearGradient7422"
       id="linearGradient4727"
       gradientUnits="userSpaceOnUse"
       gradientTransform="matrix(0.7422681,0,0,0.5688888,-1.642019,-2.5755534)"
       x1="30.479166"
       y1="25.5"
       x2="30.479166"
       y2="23.621094" />
    <linearGradient
       inkscape:collect="always"
       xlink:href="#linearGradient7422"
       id="linearGradient4729"
       gradientUnits="userSpaceOnUse"
       gradientTransform="matrix(0.7422681,0,0,0.5688888,-2.672947,-2.5755534)"
       x1="31.868055"
       y1="25.5"
       x2="31.868055"
       y2="23.621094" />
  </defs>
  <sodipodi:namedview
     inkscape:window-height="822"
     inkscape:window-width="871"
     inkscape:pageshadow="2"
     inkscape:pageopacity="0.0"
     guidetolerance="10.0"
     gridtolerance="10000"
     objecttolerance="10.0"
     borderopacity="1.0"
     bordercolor="#666666"
     pagecolor="#ffffff"
     id="base"
     showgrid="true"
     inkscape:showpageshadow="false"
     gridspacingx="0.5px"
     gridspacingy="0.5px"
     gridempspacing="2"
     showborder="false"
     inkscape:grid-points="true"
     showguides="true"
     inkscape:guide-bbox="true"
     inkscape:zoom="1"
     inkscape:cx="12.780868"
     inkscape:cy="7.9037019"
     inkscape:window-x="337"
     inkscape:window-y="74"
     inkscape:current-layer="svg2"
     width="32px"
     height="32px"
     inkscape:guide-points="false"
     inkscape:object-nodes="false"
     inkscape:object-points="false"
     inkscape:object-paths="true"
     inkscape:grid-bbox="true"
     borderlayer="true">
    <inkscape:grid
       type="xygrid"
       id="grid2331" />
  </sodipodi:namedview>
  <path
     style="fill:#ffffff;fill-opacity:1;fill-rule:evenodd;stroke:none;stroke-width:1;stroke-linecap:round;stroke-linejoin:miter;stroke-miterlimit:4;stroke-dashoffset:0.69999992;stroke-opacity:0.99236642"
     d="M 5,12 L 8,12 L 10,12 L 7,12 L 5,12 z"
     id="path7013"
     sodipodi:nodetypes="ccccc" />
  <path
     sodipodi:type="inkscape:offset"
     inkscape:radius="0.559017"
     inkscape:original="M 9.375 19.875 C 6.4017018 21.887679 5.0995325 23.086958 2.90625 25.125 C 1.8096087 26.144021 0.98527422 27.008327 0.625 28.03125 C 0.44486289 28.542712 0.46108002 29.272448 0.90625 29.78125 C 1.35142 30.290052 1.9284417 30.446349 2.5625 30.5 C 5.8277154 30.776285 10.455585 29.72203 14.9375 28.65625 C 19.419415 27.59047 23.787873 26.5 25.78125 26.5 C 26.238055 26.5 26.29364 26.537844 26.375 26.5625 C 26.224688 26.92799 25.55321 27.864343 24.59375 28.78125 C 22.585897 30.700052 15.875 36.375 15.875 36.375 L 17 38 C 17 38 23.822214 32.299948 26 30.21875 C 27.088893 29.178151 28.043109 28.21117 28.40625 27.03125 C 28.587821 26.44129 28.478215 25.582811 27.90625 25.09375 C 27.334285 24.604689 26.632712 24.5 25.78125 24.5 C 23.140501 24.5 18.923078 25.65953 14.46875 26.71875 C 10.014422 27.77797 5.362671 28.723715 2.71875 28.5 C 2.6439552 28.493671 2.7073106 28.510213 2.65625 28.5 C 2.8295059 28.166503 3.3612523 27.44863 4.28125 26.59375 C 6.3005216 24.717403 7.5641618 23.487321 10.5 21.5 L 9.375 19.875 z "
     style="fill:url(#linearGradient7037);fill-opacity:1.0;fill-rule:evenodd;stroke:none;stroke-width:1;stroke-linecap:butt;stroke-linejoin:round;stroke-miterlimit:4;stroke-dasharray:none;stroke-opacity:1;opacity:0.2"
     id="path7029"
     d="M 9.3125,19.3125 C 9.2228181,19.3231 9.1370386,19.355268 9.0625,19.40625 C 6.0665794,21.434243 4.7252488,22.680042 2.53125,24.71875 C 1.4214738,25.749976 0.51000594,26.661879 0.09375,27.84375 C -0.14522589,28.522273 -0.1151602,29.45316 0.5,30.15625 C 1.065445,30.802519 1.8034456,31.003561 2.5,31.0625 C 5.9284811,31.3526 10.577045,30.254122 15.0625,29.1875 C 19.322738,28.174434 23.397378,27.225042 25.34375,27.125 C 25.054352,27.497271 24.676856,27.937211 24.21875,28.375 C 22.262679,30.244317 15.5,35.9375 15.5,35.9375 C 15.278894,36.125312 15.238178,36.451041 15.40625,36.6875 L 16.53125,38.3125 C 16.618409,38.442061 16.75578,38.529266 16.910114,38.55301 C 17.064448,38.576754 17.221678,38.534871 17.34375,38.4375 C 17.34375,38.4375 24.144217,32.756844 26.375,30.625 C 27.471017,29.577593 28.518633,28.548485 28.9375,27.1875 C 29.182522,26.391374 29.071991,25.332376 28.28125,24.65625 C 27.567624,24.046061 26.678534,23.9375 25.78125,23.9375 C 22.976861,23.9375 18.78601,25.13115 14.34375,26.1875 C 10.449098,27.113631 6.4758559,27.889345 3.875,27.9375 C 4.1310162,27.6193 4.1880573,27.435054 4.65625,27 C 6.6795761,25.119885 7.9036736,23.937786 10.8125,21.96875 C 10.937753,21.886636 11.024822,21.7577 11.054195,21.610839 C 11.083567,21.463977 11.052786,21.311472 10.96875,21.1875 L 9.84375,19.5625 C 9.7281962,19.385404 9.5226124,19.288659 9.3125,19.3125 z M 2.59375,27.9375 C 2.5788518,27.93954 2.5840348,27.963629 2.5625,27.96875 C 2.5445544,27.973018 2.5003019,27.96864 2.5,27.96875 C 2.5355387,27.959468 2.5939096,27.937478 2.59375,27.9375 z M 2.1875,28.25 C 2.1874295,28.250131 2.1250242,28.406118 2.125,28.40625 C 2.1276084,28.379535 2.125008,28.34372 2.125,28.34375 C 2.12499,28.343788 2.159249,28.299933 2.1875,28.25 z "
     transform="translate(0,1)" />
  <path
     sodipodi:type="arc"
     style="opacity:0.45895523;fill:url(#radialGradient7828);fill-opacity:1;fill-rule:evenodd;stroke:none;stroke-width:1;stroke-linecap:round;stroke-linejoin:round;stroke-miterlimit:4;stroke-dasharray:none;stroke-dashoffset:0.69999992;stroke-opacity:1"
     id="path7820"
     sodipodi:cx="14.363107"
     sodipodi:cy="34.785942"
     sodipodi:rx="8.7946405"
     sodipodi:ry="6.0546017"
     d="M 23.157747,34.785942 A 8.7946405,6.0546017 0 1 1 5.5684662,34.785942 A 8.7946405,6.0546017 0 1 1 23.157747,34.785942 z"
     transform="matrix(0.7026739,0,0,0.6802012,-0.4761603,-2.9538737)" />
  <rect
     style="opacity:0.24253732;fill:#000000;fill-opacity:1;fill-rule:evenodd;stroke:none;stroke-width:1.00000012;stroke-linecap:round;stroke-linejoin:round;stroke-miterlimit:4;stroke-dasharray:none;stroke-dashoffset:0.69999992;stroke-opacity:0.99236642;filter:url(#filter7806)"
     id="rect7696"
     width="32.000004"
     height="29"
     x="15.500001"
     y="2.5"
     rx="2.8766227"
     ry="2.780735"
     transform="matrix(0.5624999,0,0,0.5862069,3.2812512,1.5344826)" />
  <rect
     style="fill:url(#linearGradient6047);fill-opacity:1;fill-rule:evenodd;stroke:#888a85;stroke-width:1.00000012;stroke-linecap:round;stroke-linejoin:round;stroke-miterlimit:4;stroke-dasharray:none;stroke-dashoffset:0.69999992;stroke-opacity:0.99236642"
     id="rect5925"
     width="19.000002"
     height="18"
     x="10.5"
     y="1.5000001"
     ry="0.9722718" />
  <rect
     y="2.4999998"
     x="11.516238"
     height="16"
     width="17"
     id="rect4540"
     style="fill:none;fill-opacity:1;fill-rule:evenodd;stroke:#ffffff;stroke-width:1.00000024;stroke-linecap:round;stroke-linejoin:round;stroke-miterlimit:4;stroke-dasharray:none;stroke-dashoffset:0.69999992;stroke-opacity:0.99236642" />
  <path
     style="opacity:1;fill:none;fill-opacity:1;stroke:url(#linearGradient4120);stroke-width:0.99999988;stroke-linecap:square;stroke-linejoin:round;stroke-miterlimit:4;stroke-dasharray:none;stroke-dashoffset:0;stroke-opacity:1"
     d="M 19.4375,5.5 C 18.964139,5.5 18.570467,5.9462994 18.53125,6.5 L 17.125,6.5 C 16.228572,6.5 15.5,7.1616773 15.5,8 L 15.5,13.125 C 15.5,13.963323 16.228572,14.625 17.125,14.625 L 22.875,14.625 C 23.771428,14.625 24.500001,13.963323 24.5,13.125 L 24.5,8 C 24.5,7.1616773 23.771427,6.5 22.875,6.5 L 21.4375,6.5 C 21.396647,5.9483008 21.034672,5.5 20.5625,5.5 L 19.4375,5.5 z"
     id="rect3331"
     sodipodi:nodetypes="ccccccccccccc" />
  <path
     style="fill:url(#linearGradient4516);fill-opacity:1;stroke:none;stroke-width:0.99999988;stroke-linecap:square;stroke-linejoin:round;stroke-miterlimit:4;stroke-dashoffset:0;stroke-opacity:1"
     d="M 19,6 L 19.015625,7.0225935 C 19.015625,6.9288435 16.714286,7.0225935 16.714286,7.0225935 C 16.276786,7.0225935 16,7.2964504 16,7.5913163 L 16,13.422349 C 16,13.717216 16.251886,13.991072 16.714286,13.991072 L 23.285714,13.991072 C 23.748114,13.991072 24,13.717214 24,13.422349 L 24,7.6694413 C 24,7.3745762 23.738839,6.9913435 23.285714,7.0225935 L 21,7 L 21,6 C 21,6 19,6 19,6 z"
     id="path3729"
     sodipodi:nodetypes="ccccccccccccc" />
  <g
     id="g7162"
     transform="matrix(0.7298581,0,0,0.7722337,10.538133,-23.57959)">
    <path
       sodipodi:nodetypes="cccccccccccscc"
       id="rect6100"
       d="M -2.34375,51 C -2.5485199,51 -2.7249072,51.101237 -2.84375,51.25 L -6.859375,55.25 C -6.8943841,55.381797 -6.9584881,55.521336 -7,55.65625 L -7,61.177083 C -7,61.540646 -6.7034811,61.833333 -6.34375,61.833333 L 0.34375,61.833333 C 0.52361547,61.833333 0.6951329,61.76445 0.8125,61.645833 L 4.8125,57.645833 C 4.9298671,57.527216 5,57.358864 5,57.177083 L 5,51.65625 C 5,51.474469 4.9298671,51.306117 4.8125,51.1875 C 4.6934039,51.068883 4.5236156,51 4.34375,51 L -2.34375,51 z"
       style="fill:url(#linearGradient7555);fill-opacity:1;fill-rule:evenodd;stroke:none;stroke-width:1;stroke-linecap:round;stroke-linejoin:miter;stroke-miterlimit:4;stroke-dashoffset:0.69999992;stroke-opacity:0.99236642" />
    <path
       id="path6105"
       d="M -6.3738568,55.166667 L 0.088142442,55.166667 C 0.43502581,55.166667 0.71428575,55.451224 0.71428575,55.804688 L 0.71428575,61.195312 C 0.71428575,61.548776 0.43502581,61.833333 0.088142442,61.833333 L -6.3738568,61.833333 C -6.7207401,61.833333 -7,61.548776 -7,61.195312 L -7,55.804688 C -7,55.451224 -6.7207401,55.166667 -6.3738568,55.166667 z"
       style="fill:url(#linearGradient7557);fill-opacity:1;fill-rule:evenodd;stroke:none;stroke-width:1;stroke-linecap:round;stroke-linejoin:miter;stroke-miterlimit:4;stroke-dashoffset:0.69999992;stroke-opacity:0.99236642"
       sodipodi:nodetypes="ccccccccc" />
  </g>
  <path
     style="opacity:0.05223879;fill:url(#linearGradient3322);fill-opacity:1;fill-rule:evenodd;stroke:none;stroke-width:1px;stroke-linecap:butt;stroke-linejoin:miter;stroke-opacity:1"
     d="M 9.8741989,16 L 6,19.02197 L 9.0993591,19.02197 L 12.973558,16 L 9.8741989,16"
     id="path7253"
     sodipodi:nodetypes="ccccc" />
  <path
     style="fill:#babdb6;fill-rule:evenodd;stroke:none;stroke-width:1px;stroke-linecap:butt;stroke-linejoin:miter;stroke-opacity:1"
     d="M 12.310645,15.80433 L 6.3675157,18.378442 L 8.5570898,18.378442 L 11.685053,16.447858 L 12.310645,15.80433"
     id="path6126"
     sodipodi:nodetypes="ccccc" />
  <path
     style="opacity:0.53358208;fill:none;fill-opacity:1;fill-rule:evenodd;stroke:#ffffff;stroke-width:1;stroke-linecap:round;stroke-linejoin:round;stroke-miterlimit:4;stroke-dashoffset:0.69999992;stroke-opacity:1"
     d="M 9.0020809,16.437666 C 8.9887853,16.437666 8.9716127,16.44146 8.9149118,16.511232 C 8.8981693,16.524551 8.8807059,16.536833 8.8626105,16.548014 C 8.8515242,16.560829 8.8398896,16.573102 8.8277428,16.584797 C 8.8166566,16.597611 8.8050221,16.609886 8.7928752,16.62158 L 8.7754415,16.62158 C 8.7643552,16.634394 8.7527207,16.646669 8.7405738,16.658364 L 8.635971,16.768713 C 8.5763652,16.827767 8.5048343,16.871786 8.4267654,16.897453 L 6.055769,17.614722 C 5.8323397,17.737345 5.7578408,17.820305 5.7245269,17.890594 C 5.7240315,17.891639 5.7435044,17.969792 5.7245269,17.945769 C 5.7701878,18.003571 5.9255724,18.09422 6.1952394,18.148075 C 6.3848617,18.188607 6.5394847,18.33297 6.6006676,18.526601 C 6.6618499,18.72023 6.6202587,18.933591 6.491614,19.08604 L 6.2998422,19.306738 C 6.2887878,19.358272 6.2698042,19.406838 6.2475408,19.490654 C 6.2433818,19.506311 6.2520927,19.511385 6.2475408,19.527436 L 6.2475408,23.352867 C 6.2475408,23.384758 6.2477507,23.420865 6.2824084,23.463216 C 6.2999761,23.484684 6.3400115,23.5 6.3695774,23.5 L 10.745461,23.5 C 10.797105,23.5 10.83943,23.493997 10.867498,23.463216 C 10.867404,23.457086 10.867404,23.450955 10.867498,23.444825 L 13.465133,20.612535 C 13.494246,20.580608 13.5,20.565957 13.5,20.502186 L 13.5,16.603189 C 13.5,16.539422 13.494247,16.506376 13.465133,16.474448 C 13.444589,16.452246 13.378673,16.437666 13.36053,16.437666 L 9.0020809,16.437666 z"
     id="path7235"
     sodipodi:nodetypes="csssccccccssssccsccsccsccccscc" />
  <path
     style="fill:none;fill-opacity:1;fill-rule:evenodd;stroke:#555753;stroke-width:1;stroke-linecap:round;stroke-linejoin:round;stroke-miterlimit:4;stroke-dashoffset:0.69999992;stroke-opacity:1"
     d="M 8.8307866,15.502676 C 8.5882187,15.502676 8.3980692,15.643511 8.2638433,15.804836 L 8.2442935,15.784692 L 8.2247437,15.82498 L 8.0096963,16.026419 L 5.3509277,16.812036 C 5.3307436,16.816603 5.311085,16.823356 5.2922784,16.83218 C 4.9488819,17.009097 4.727977,17.189328 4.6080365,17.4365 C 4.488096,17.683672 4.5351418,17.995005 4.6862356,18.181829 C 4.8914781,18.435605 5.5886123,18.551001 5.9318399,18.617951 L 5.6776929,18.899967 C 5.642477,18.933104 5.6156354,18.974591 5.5994938,19.020831 C 5.579884,19.099074 5.555768,19.22439 5.5212947,19.343135 C 5.5112102,19.368939 5.5046315,19.396054 5.501745,19.423711 L 5.501745,23.714384 C 5.501745,23.907038 5.5725814,24.089336 5.6972427,24.238128 C 5.8219039,24.38692 6.0168366,24.5 6.2446362,24.5 L 10.785763,24.486901 C 10.988226,24.486901 11.196711,24.412264 11.352707,24.245173 L 14.265622,21.142997 C 14.406931,20.991639 14.48067,20.795136 14.48067,20.578965 L 14.48067,16.308436 C 14.48067,16.092265 14.406929,15.895762 14.265622,15.744404 C 14.125705,15.596713 13.920693,15.502676 13.718229,15.502676 L 8.8307866,15.502676 z"
     id="path7229"
     sodipodi:nodetypes="ccccccsssccssccsccccccscc" />
  <path
     style="fill:url(#linearGradient3316);fill-opacity:1;fill-rule:evenodd;stroke:none;stroke-width:1px;stroke-linecap:butt;stroke-linejoin:miter;stroke-opacity:1"
     d="M 12.973558,16 L 6,17.86281 L 7.2679197,18.980496 L 9.169799,18.980496 L 12.339599,16.745123 L 12.973558,16"
     id="path7184"
     sodipodi:nodetypes="cccccc" />
  <path
     style="fill:url(#linearGradient3313);fill-opacity:1;fill-rule:evenodd;stroke:none;stroke-width:1px;stroke-linecap:butt;stroke-linejoin:miter;stroke-opacity:1"
     d="M 9,16 L 5.496567,17.051653 L 8.9722461,17.06885 L 13,16"
     id="path7171"
     sodipodi:nodetypes="cccc" />
  <path
     id="path7275"
     d="M 7.2332496,20.045102 L 9.7555941,20.045102 C 9.890995,20.045102 10,20.189246 10,20.368295 L 10,22.676807 C 10,22.855856 9.890995,23 9.7555941,23 L 7.2332496,23 C 7.097849,23 6.9888439,22.855856 6.9888439,22.676807 L 6.9888439,20.368295 C 6.9888439,20.189246 7.097849,20.045102 7.2332496,20.045102 z"
     style="fill:url(#linearGradient3307);fill-opacity:1;fill-rule:evenodd;stroke:none;stroke-width:1;stroke-linecap:round;stroke-linejoin:miter;stroke-miterlimit:4;stroke-dashoffset:0.69999992;stroke-opacity:0.99236642" />
  <path
     style="fill:url(#linearGradient7025);fill-opacity:1.0;fill-rule:evenodd;stroke:url(#linearGradient7017);stroke-width:1;stroke-linecap:butt;stroke-linejoin:round;stroke-miterlimit:4;stroke-dasharray:none;stroke-opacity:1"
     d="M 9.375,19.875 C 6.4017018,21.887679 5.0995325,23.086958 2.90625,25.125 C 1.8096087,26.144021 0.98527422,27.008327 0.625,28.03125 C 0.44486289,28.542712 0.46108002,29.272448 0.90625,29.78125 C 1.35142,30.290052 1.9284417,30.446349 2.5625,30.5 C 5.8277154,30.776285 10.455585,29.72203 14.9375,28.65625 C 19.419415,27.59047 23.787873,26.5 25.78125,26.5 C 26.238055,26.5 26.29364,26.537844 26.375,26.5625 C 26.224688,26.92799 25.55321,27.864343 24.59375,28.78125 C 22.585897,30.700052 15.875,36.375 15.875,36.375 L 17,38 C 17,38 23.822214,32.299948 26,30.21875 C 27.088893,29.178151 28.043109,28.21117 28.40625,27.03125 C 28.587821,26.44129 28.478215,25.582811 27.90625,25.09375 C 27.334285,24.604689 26.632712,24.5 25.78125,24.5 C 23.140501,24.5 18.923078,25.65953 14.46875,26.71875 C 10.014422,27.77797 5.362671,28.723715 2.71875,28.5 C 2.6439552,28.493671 2.7073106,28.510213 2.65625,28.5 C 2.8295059,28.166503 3.3612523,27.44863 4.28125,26.59375 C 6.3005216,24.717403 7.5641618,23.487321 10.5,21.5 L 9.375,19.875 z "
     id="path6027"
     sodipodi:nodetypes="csssssscsccsssssscscc" />
  <path
     style="fill:url(#linearGradient7818);fill-opacity:1;fill-rule:evenodd;stroke:none;stroke-width:1;stroke-linecap:round;stroke-linejoin:miter;stroke-miterlimit:4;stroke-dashoffset:0.69999992;stroke-opacity:0.99236642"
     d="M 6.9437309,20.032413 L 9.662299,20.032413 C 9.8082333,20.032413 9.9257183,20.153414 9.9257183,20.303715 L 9.9257183,22.241582 C 9.9257183,22.391884 9.8082333,22.512884 9.662299,22.512884 L 6.9437309,22.512884 C 6.7977971,22.512884 6.680312,22.391884 6.680312,22.241582 L 6.680312,20.303715 C 6.680312,20.153414 6.7977971,20.032413 6.9437309,20.032413 z"
     id="path7810" />
  <path
     style="fill:url(#linearGradient3310);fill-opacity:1;fill-rule:evenodd;stroke:none;stroke-width:1;stroke-linecap:round;stroke-linejoin:round;stroke-miterlimit:4;stroke-dashoffset:0.69999992;stroke-opacity:1"
     d="M 5.5256268,17.023222 L 8.0651701,17.006842 C 7.0823947,17.995231 7.2454838,19 7.9825655,19 L 6.0170145,19 C 5,19 4.5677282,17.945147 5.5256268,17.023222 z"
     id="rect7173"
     sodipodi:nodetypes="ccccc" />
  <path
     style="fill:url(#linearGradient7574);fill-opacity:1;fill-rule:evenodd;stroke:none;stroke-width:1;stroke-linecap:round;stroke-linejoin:miter;stroke-miterlimit:4;stroke-dashoffset:0.69999992;stroke-opacity:0.99236642"
     d="M 6.0312399,19.02197 L 7,20 L 9,20 C 9,20 10,20 10,20.904323 L 10,23 L 11.027749,22.219583 L 11.027749,19.497806 C 11.027749,19.239465 10.836851,19.021971 10.590855,19.021971 L 6.0312399,19.02197 z"
     id="path7512"
     sodipodi:nodetypes="ccccccccc" />
  <g
     id="g4720"
     transform="translate(0,6.25e-2)">
    <path
       sodipodi:nodetypes="cc"
       id="path7362"
       d="M 20.481694,12.5 L 20.481694,11.362222"
       style="fill:none;fill-opacity:1;fill-rule:evenodd;stroke:url(#linearGradient4725);stroke-width:1px;stroke-linecap:round;stroke-linejoin:miter;stroke-opacity:1" />
    <path
       style="fill:none;fill-opacity:1;fill-rule:evenodd;stroke:url(#linearGradient4727);stroke-width:1px;stroke-linecap:round;stroke-linejoin:miter;stroke-opacity:1"
       d="M 22.481694,12.5 L 22.481694,11.362222"
       id="path3327"
       sodipodi:nodetypes="cc" />
    <path
       style="fill:none;fill-opacity:1;fill-rule:evenodd;stroke:url(#linearGradient4729);stroke-width:1px;stroke-linecap:round;stroke-linejoin:miter;stroke-opacity:1"
       d="M 18.481694,12.5 L 18.481694,11.362222"
       id="path5305"
       sodipodi:nodetypes="cc" />
  </g>
</svg>
