<?xml version="1.0" encoding="UTF-8" standalone="no"?>
<!-- Created with Inkscape (http://www.inkscape.org/) -->
<svg
   xmlns:dc="http://purl.org/dc/elements/1.1/"
   xmlns:cc="http://web.resource.org/cc/"
   xmlns:rdf="http://www.w3.org/1999/02/22-rdf-syntax-ns#"
   xmlns:svg="http://www.w3.org/2000/svg"
   xmlns="http://www.w3.org/2000/svg"
   xmlns:xlink="http://www.w3.org/1999/xlink"
   xmlns:sodipodi="http://sodipodi.sourceforge.net/DTD/sodipodi-0.dtd"
   xmlns:inkscape="http://www.inkscape.org/namespaces/inkscape"
   width="32"
   height="32"
   id="svg1325"
   sodipodi:version="0.32"
   inkscape:version="0.45"
   sodipodi:docbase="/home/dobey/Projects/gnome-icon-theme/32x32/places"
   sodipodi:docname="start-here.svg"
   version="1.0"
   inkscape:output_extension="org.inkscape.output.svg.inkscape">
  <sodipodi:namedview
     inkscape:window-height="622"
     inkscape:window-width="1051"
     inkscape:pageshadow="2"
     inkscape:pageopacity="1"
     guidetolerance="10.0"
     gridtolerance="10.0"
     objecttolerance="10.0"
     borderopacity="1.0"
     bordercolor="#666666"
     pagecolor="#828282"
     id="base"
     inkscape:zoom="1"
     inkscape:cx="13.002838"
     inkscape:cy="19.512575"
     inkscape:window-x="0"
     inkscape:window-y="25"
     inkscape:current-layer="layer1"
     showgrid="false"
     showborder="false"
     showguides="false"
     inkscape:guide-bbox="true"
     inkscape:showpageshadow="false"
     width="32px"
     height="32px"
     borderlayer="false">
    <sodipodi:guide
       orientation="vertical"
       position="0"
       id="guide2983" />
  </sodipodi:namedview>
  <defs
     id="defs1327">
    <linearGradient
       id="linearGradient3052">
      <stop
         id="stop3054"
         offset="0"
         style="stop-color:#555753;stop-opacity:1" />
      <stop
         id="stop3056"
         offset="1"
         style="stop-color:#2e3436;stop-opacity:1" />
    </linearGradient>
    <linearGradient
       id="linearGradient3013">
      <stop
         style="stop-color:#2d2d2d;stop-opacity:1;"
         offset="0"
         id="stop3015" />
      <stop
         style="stop-color:white;stop-opacity:1"
         offset="1"
         id="stop3017" />
    </linearGradient>
    <linearGradient
       inkscape:collect="always"
       id="linearGradient2985">
      <stop
         style="stop-color:#555753;stop-opacity:1"
         offset="0"
         id="stop2987" />
      <stop
         style="stop-color:#555753;stop-opacity:0"
         offset="1"
         id="stop2989" />
    </linearGradient>
    <radialGradient
       inkscape:collect="always"
       xlink:href="#linearGradient2985"
       id="radialGradient2951"
       gradientUnits="userSpaceOnUse"
       gradientTransform="matrix(0.551865,-7.423106e-2,5.764729e-2,0.428573,10.8571,24.32541)"
       cx="23.801941"
       cy="33.735012"
       fx="23.801941"
       fy="33.735012"
       r="12.990843" />
    <radialGradient
       inkscape:collect="always"
       xlink:href="#linearGradient3052"
       id="radialGradient2971"
       gradientUnits="userSpaceOnUse"
       gradientTransform="matrix(1.318521,-0.233206,8.232854e-2,0.502949,-15.75139,8.601354)"
       cx="19.450382"
       cy="21.81378"
       fx="19.450382"
       fy="21.81378"
       r="17.994564" />
    <radialGradient
       inkscape:collect="always"
       xlink:href="#linearGradient3052"
       id="radialGradient2977"
       gradientUnits="userSpaceOnUse"
       gradientTransform="matrix(1.212095,-0.157025,8.850433e-2,0.498913,-16.28552,6.214977)"
       cx="14.95366"
       cy="13.681828"
       fx="14.95366"
       fy="13.681828"
       r="17.994564" />
    <radialGradient
       inkscape:collect="always"
       xlink:href="#linearGradient3052"
       id="radialGradient2980"
       gradientUnits="userSpaceOnUse"
       gradientTransform="matrix(1.440352,-9.61553e-7,0,0.621471,-16.69871,0.991345)"
       cx="21.494347"
       cy="4.3500967"
       fx="21.494347"
       fy="4.3500967"
       r="17.994564" />
    <radialGradient
       inkscape:collect="always"
       xlink:href="#linearGradient3052"
       id="radialGradient2983"
       gradientUnits="userSpaceOnUse"
       gradientTransform="matrix(1.248594,-8.927783e-7,0,0.577021,-10.92829,1.297625)"
       cx="25.640675"
       cy="3.6835504"
       fx="25.640675"
       fy="3.6835504"
       r="17.994564" />
    <radialGradient
       inkscape:collect="always"
       xlink:href="#linearGradient3052"
       id="radialGradient3036"
       gradientUnits="userSpaceOnUse"
       gradientTransform="matrix(1.258218,-8.874887e-7,0,0.573602,-14.18757,2.346228)"
       cx="18.107206"
       cy="8.0827875"
       fx="18.107206"
       fy="8.0827875"
       r="17.994564" />
    <linearGradient
       inkscape:collect="always"
       xlink:href="#linearGradient3013"
       id="linearGradient3097"
       gradientUnits="userSpaceOnUse"
       x1="35.222755"
       y1="1.5140598"
       x2="35.222755"
       y2="14.403073" />
    <linearGradient
       inkscape:collect="always"
       xlink:href="#linearGradient3013"
       id="linearGradient3099"
       gradientUnits="userSpaceOnUse"
       x1="22.625"
       y1="15.6875"
       x2="23.625"
       y2="42.721909" />
    <linearGradient
       inkscape:collect="always"
       xlink:href="#linearGradient3013"
       id="linearGradient3101"
       gradientUnits="userSpaceOnUse"
       x1="23.113552"
       y1="3.2925007"
       x2="23.113552"
       y2="12.78336" />
    <linearGradient
       inkscape:collect="always"
       xlink:href="#linearGradient3013"
       id="linearGradient3112"
       gradientUnits="userSpaceOnUse"
       x1="8.3526993"
       y1="11.509477"
       x2="8.3526993"
       y2="19.071247" />
    <linearGradient
       inkscape:collect="always"
       xlink:href="#linearGradient3013"
       id="linearGradient3116"
       gradientUnits="userSpaceOnUse"
       x1="15.202796"
       y1="6.2158523"
       x2="15.202796"
       y2="14.586771" />
  </defs>
  <sodipodi:namedview
     pagecolor="#ffffff"
     bordercolor="#666666"
     borderopacity="1.0"
     inkscape:pageopacity="0"
     inkscape:pageshadow="2"
     inkscape:zoom="1"
     inkscape:cx="29.202731"
     inkscape:cy="14.650528"
     inkscape:current-layer="layer1"
     showgrid="false"
     inkscape:grid-bbox="true"
     inkscape:document-units="px"
     stroke="#eeeeec"
     fill="#2e3436"
     inkscape:window-width="1270"
     inkscape:window-height="943"
     inkscape:window-x="0"
     inkscape:window-y="25"
     showborder="false"
     gridspacingx="0.5px"
     gridspacingy="0.5px"
     gridempspacing="2"
     inkscape:grid-points="true"
     showguides="false"
     inkscape:guide-bbox="true"
     inkscape:showpageshadow="false"
     id="namedview26">
    <sodipodi:guide
       orientation="vertical"
       position="31.875"
       id="guide2260" />
  </sodipodi:namedview>
  <metadata
     id="metadata1330">
    <rdf:RDF>
      <cc:Work
         rdf:about="">
        <dc:format>image/svg+xml</dc:format>
        <dc:type
           rdf:resource="http://purl.org/dc/dcmitype/StillImage" />
        <dc:title>Piedone</dc:title>
        <dc:creator>
          <cc:Agent>
            <dc:title>Lapo Calamandrei</dc:title>
          </cc:Agent>
        </dc:creator>
        <dc:subject>
          <rdf:Bag />
        </dc:subject>
        <dc:contributor>
          <cc:Agent>
            <dc:title />
          </cc:Agent>
        </dc:contributor>
        <cc:license
           rdf:resource="http://creativecommons.org/licenses/GPL/2.0/" />
      </cc:Work>
      <cc:License
         rdf:about="http://creativecommons.org/licenses/GPL/2.0/">
        <cc:permits
           rdf:resource="http://web.resource.org/cc/Reproduction" />
        <cc:permits
           rdf:resource="http://web.resource.org/cc/Distribution" />
        <cc:requires
           rdf:resource="http://web.resource.org/cc/Notice" />
        <cc:permits
           rdf:resource="http://web.resource.org/cc/DerivativeWorks" />
        <cc:requires
           rdf:resource="http://web.resource.org/cc/ShareAlike" />
        <cc:requires
           rdf:resource="http://web.resource.org/cc/SourceCode" />
      </cc:License>
    </rdf:RDF>
  </metadata>
  <g
     inkscape:groupmode="layer"
     id="layer2"
     inkscape:label="incavo"
     style="display:inline" />
  <g
     id="layer1"
     inkscape:label="Layer 1"
     inkscape:groupmode="layer"
     style="display:inline">
    <g
       id="g2826"
       style="opacity:0.5">
      <path
         transform="matrix(0.646681,0,0,0.671681,1.035749,0.130928)"
         d="M 37.84375,0.5625 C 32.937667,0.5625 29.926498,4.1974996 28.9375,7.75 C 28.443001,9.5262502 28.416155,11.31354 28.90625,12.78125 C 29.396345,14.24896 30.61967,15.4375 32.28125,15.4375 C 33.942709,15.4375 35.582624,14.48396 37.125,13.1875 C 38.667376,11.89104 40.09201,10.203617 41.09375,8.46875 C 42.09549,6.7338829 42.728692,4.9559671 42.34375,3.3125 C 42.151279,2.4907665 41.629001,1.7294453 40.84375,1.25 C 40.058499,0.77055466 39.070311,0.5625 37.84375,0.5625 z "
         id="path2997"
         style="opacity:1;fill:none;fill-opacity:1;fill-rule:nonzero;stroke:url(#linearGradient3097);stroke-width:1.51730716;stroke-linejoin:round;stroke-miterlimit:4;stroke-dasharray:none;stroke-opacity:1"
         inkscape:original="M 37.84375 1.5 C 28.95865 1.5 27.282885 14.5 32.28125 14.5 C 37.278893 14.5 46.729211 1.5 37.84375 1.5 z "
         inkscape:radius="0.95043164"
         sodipodi:type="inkscape:offset" />
      <path
         transform="matrix(0.690717,0,0,0.700818,-0.361533,-0.382484)"
         d="M 27.5,15.53125 C 23.819995,15.47058 19.677609,16.333022 16.125,18.125 C 12.575638,19.91534 9.6229376,22.691517 8.75,26.5 C 7.7853218,30.705708 9.7015374,35.342237 12.96875,39.03125 C 16.227435,42.710634 20.862972,45.46875 25.8125,45.46875 C 28.382906,45.46875 30.92027,44.338258 33.03125,42.625 C 35.14223,40.911742 36.863141,38.554721 37.40625,35.75 C 37.506953,35.230764 37.385929,34.320108 37.125,33.875 C 36.710187,33.167389 36.230739,32.972714 35.8125,32.78125 C 34.667559,32.257114 33.611559,32.220831 32.34375,32.34375 C 31.123915,32.462018 29.972434,32.734345 28.9375,33.28125 C 28.377274,33.577298 27.999772,33.859812 27.65625,34.28125 C 27.591088,34.361192 27.542063,34.425289 27.46875,34.53125 C 27.432093,34.58423 27.416414,34.613815 27.3125,34.84375 C 27.208586,35.073685 27.156227,35.90608 27.15625,35.90625 C 27.312258,37.066982 26.855887,37.77254 26.3125,38.0625 C 25.738196,38.368957 24.856757,38.360283 23.78125,37.5625 C 22.826143,36.854054 22.433064,36.302635 22.3125,35.875 C 22.217663,35.53862 22.292508,35.128317 22.59375,34.6875 C 23.323696,33.619346 25.124686,32.442183 27.3125,31.125 C 29.481924,29.818889 31.855077,28.433407 33.71875,26.75 C 34.631518,25.925521 35.425376,25.05557 35.96875,24 C 36.512124,22.94443 36.747141,21.656052 36.53125,20.40625 C 36.248228,18.767843 34.958131,17.46276 33.375,16.71875 C 31.757017,15.958361 29.730697,15.568026 27.5,15.53125 z "
         id="path2995"
         style="opacity:1;fill:none;fill-opacity:1;fill-rule:nonzero;stroke:url(#linearGradient3099);stroke-width:1.43729961;stroke-miterlimit:4;stroke-dasharray:none;stroke-opacity:1"
         inkscape:original="M 27.46875 17.5 C 24.13271 17.445001 20.212818 18.254417 17 19.875 C 13.787182 21.495583 11.357566 23.877774 10.65625 26.9375 C 9.9082662 30.198485 11.481937 34.381621 14.4375 37.71875 C 17.393063 41.055879 21.630577 43.5 25.8125 43.5 C 29.711024 43.5 34.609468 39.812504 35.46875 35.375 C 35.524005 35.090099 35.493476 34.970487 35.4375 34.875 C 35.381524 34.779513 35.252848 34.67825 35 34.5625 C 34.494303 34.331 33.527631 34.215897 32.53125 34.3125 C 31.534869 34.409103 30.507193 34.680657 29.84375 35.03125 C 29.512029 35.206546 29.287309 35.408803 29.1875 35.53125 C 29.087691 35.653697 29.093659 35.65557 29.09375 35.65625 C 29.339341 37.483495 28.602819 39.090615 27.25 39.8125 C 25.897181 40.534385 24.140861 40.303857 22.59375 39.15625 C 21.444374 38.303706 20.691185 37.416899 20.40625 36.40625 C 20.121315 35.395601 20.414919 34.372938 20.96875 33.5625 C 22.076412 31.941623 24.103835 30.748422 26.28125 29.4375 C 28.458665 28.126578 30.780403 26.749835 32.40625 25.28125 C 34.032097 23.812665 34.885195 22.437189 34.59375 20.75 C 34.433192 19.820534 33.782311 19.08795 32.53125 18.5 C 31.280189 17.91205 29.470405 17.533 27.46875 17.5 z "
         inkscape:radius="1.9700731"
         sodipodi:type="inkscape:offset" />
      <path
         transform="matrix(0.738429,0,0,0.725615,-1.930358,-0.361311)"
         d="M 23.5625,2.59375 C 22.04759,2.7779966 20.907689,3.6091831 20.28125,4.6875 C 19.654811,5.7658169 19.475654,7.0365166 19.5625,8.25 C 19.649346,9.4634834 20.008218,10.642553 20.5625,11.59375 C 21.116782,12.544947 21.921418,13.372232 23.0625,13.4375 C 24.308222,13.508783 25.18784,12.604822 25.84375,11.59375 C 26.49966,10.582678 26.978531,9.2903666 27.21875,8 C 27.458969,6.7096334 27.470563,5.3998619 26.9375,4.28125 C 26.404437,3.1626381 25.106931,2.4059809 23.5625,2.59375 z "
         id="path2999"
         style="opacity:1;fill:none;fill-opacity:1;fill-rule:nonzero;stroke:url(#linearGradient3101);stroke-width:1.36613142;stroke-linejoin:round;stroke-miterlimit:4;stroke-dasharray:none;stroke-opacity:1"
         inkscape:original="M 23.6875 3.53125 C 18.652699 4.1435932 20.444137 12.346659 23.125 12.5 C 25.804774 12.653342 28.724119 2.9189068 23.6875 3.53125 z "
         inkscape:radius="0.93958104"
         sodipodi:type="inkscape:offset" />
      <path
         transform="matrix(0.670709,-9.294505e-2,0.103826,0.626081,-3.69788,2.464307)"
         d="M 8.84375,10.96875 C 8.2326827,10.94736 7.647776,11.187005 7.125,11.5625 C 6.0807177,12.313036 5.5564729,13.445414 5.53125,14.53125 C 5.5060271,15.617086 5.8804909,16.654222 6.40625,17.5625 C 6.9320091,18.470778 7.6368772,19.239284 8.40625,19.78125 C 9.1756228,20.323216 10.130388,20.72215 11.09375,20.28125 C 12.032054,19.851632 12.291902,18.942072 12.40625,18.0625 C 12.520598,17.182928 12.454069,16.191707 12.25,15.21875 C 12.045931,14.245793 11.705034,13.291412 11.1875,12.5 C 10.669966,11.708588 9.8932255,11.005487 8.84375,10.96875 z "
         id="path3001"
         style="opacity:1;fill:none;fill-opacity:1;fill-rule:nonzero;stroke:url(#linearGradient3112);stroke-width:1.52575243;stroke-linejoin:round;stroke-miterlimit:4;stroke-dasharray:none;stroke-opacity:1"
         inkscape:original="M 8.8125 11.9375 C 8.4606561 11.925184 8.0926115 12.05277 7.6875 12.34375 C 4.4480637 14.671966 8.7815845 20.278527 10.6875 19.40625 C 12.355175 18.642678 11.275407 12.023715 8.8125 11.9375 z "
         inkscape:radius="0.97573626"
         sodipodi:type="inkscape:offset" />
      <path
         transform="matrix(0.686999,0,0,0.704973,-1.432808,0.586176)"
         d="M 15.9375,5.625 C 15.319047,5.4756575 14.662873,5.5627442 14.03125,5.8125 C 12.761729,6.3145115 11.968151,7.3431338 11.6875,8.4375 C 11.406849,9.5318662 11.57594,10.656406 11.9375,11.6875 C 12.29906,12.718594 12.8628,13.66803 13.5625,14.375 C 14.2622,15.08197 15.157389,15.645352 16.21875,15.4375 C 17.244742,15.23705 17.764385,14.361298 18.09375,13.5 C 18.423115,12.638702 18.590593,11.65157 18.59375,10.625 C 18.596907,9.5984297 18.442591,8.5368008 18.0625,7.625 C 17.682409,6.7131992 16.99497,5.8803552 15.9375,5.625 z "
         id="path3003"
         style="opacity:1;fill:none;fill-opacity:1;fill-rule:nonzero;stroke:url(#linearGradient3116);stroke-width:1.43693066;stroke-linejoin:round;stroke-miterlimit:4;stroke-dasharray:none;stroke-opacity:1"
         inkscape:original="M 15.71875 6.5625 C 15.339365 6.4708871 14.912003 6.5187657 14.40625 6.71875 C 10.3595 8.3189717 13.764225 14.912713 16.03125 14.46875 C 18.016485 14.080891 18.374445 7.2037903 15.71875 6.5625 z "
         inkscape:radius="0.98042816"
         sodipodi:type="inkscape:offset" />
    </g>
    <path
       id="path4490"
       d="M 25.362812,1.5000001 C 20.179842,1.5000001 19.207586,9.4999982 22.123298,9.4999982 C 25.038586,9.4999982 30.545995,1.5000001 25.362812,1.5000001 z "
       style="fill:url(#radialGradient2983);fill-opacity:1;fill-rule:nonzero;stroke:#2e3436;stroke-width:1.00000048;stroke-miterlimit:4;stroke-dasharray:none" />
    <path
       id="path4492"
       d="M 15.262059,8.4988127 C 17.065333,8.6004463 19.04382,2.1474106 15.654575,2.5532657 C 12.266553,2.9591206 13.45805,8.3971798 15.262059,8.4988127 z "
       style="fill:url(#radialGradient2980);fill-opacity:1;fill-rule:nonzero;stroke:#2e3436;stroke-width:1.00000048;stroke-miterlimit:4;stroke-dasharray:none" />
    <path
       id="path4494"
       d="M 5.284619,13.347655 C 6.281533,12.743514 4.535598,8.3237128 2.920063,9.8000681 C 1.305389,11.276518 4.287668,13.951597 5.284619,13.347655 z "
       style="fill:url(#radialGradient2977);fill-opacity:1;fill-rule:nonzero;stroke:#2e3436;stroke-width:1.00000095;stroke-miterlimit:4;stroke-dasharray:none" />
    <path
       d="M 18.878404,24.805137 C 19.148376,26.893058 17.365872,27.924176 15.620193,26.578166 C 10.062942,22.293408 24.821468,20.156092 23.848639,14.302058 C 23.041157,9.4430839 8.319458,10.939009 6.6430409,18.54162 C 5.5082762,23.684121 11.314037,30.818222 17.371968,30.818222 C 20.352159,30.818222 23.78962,28.093108 24.432726,24.640898 C 24.923898,22.008401 18.65306,23.063227 18.878404,24.805137 L 18.878404,24.805137 z "
       id="path4498"
       style="fill:url(#radialGradient2971);fill-opacity:1;fill-rule:nonzero;stroke:#2e3436;stroke-width:1.00000072;stroke-miterlimit:4;stroke-dasharray:none" />
    <path
       sodipodi:type="inkscape:offset"
       inkscape:radius="-0.54594553"
       inkscape:original="M 27.5 16.5 C 20.481073 16.384283 11.235249 19.829834 9.65625 26.71875 C 7.946133 34.174347 16.683059 44.5 25.8125 44.5 C 30.303716 44.5 35.499575 40.567513 36.46875 35.5625 C 37.208955 31.745904 27.754153 33.255829 28.09375 35.78125 C 28.500604 38.808317 25.818279 40.295194 23.1875 38.34375 C 14.812595 32.131707 37.059827 29.049678 35.59375 20.5625 C 35.137417 17.920797 31.711356 16.56943 27.5 16.5 z "
       style="fill:url(#radialGradient2951);fill-opacity:1;fill-rule:nonzero;stroke:none;stroke-width:0.99999994;stroke-miterlimit:4;stroke-dasharray:none"
       id="path2981"
       d="M 27.5,17.03125 C 24.083784,16.974929 20.074223,17.807736 16.78125,19.46875 C 13.488277,21.129764 10.929584,23.606158 10.1875,26.84375 C 9.3900145,30.320547 11.066028,34.612646 14.09375,38.03125 C 17.121472,41.449854 21.453606,43.96875 25.8125,43.96875 C 29.985031,43.96875 35.027413,40.168619 35.9375,35.46875 C 36.009985,35.095006 35.960312,34.855088 35.84375,34.65625 C 35.727188,34.457412 35.503059,34.269458 35.1875,34.125 C 34.556382,33.836084 33.519675,33.741858 32.46875,33.84375 C 31.417825,33.945642 30.364087,34.234433 29.625,34.625 C 29.255456,34.820283 28.969993,35.056784 28.8125,35.25 C 28.655007,35.443216 28.605326,35.572444 28.625,35.71875 C 28.851098,37.400963 28.197182,38.784091 27.03125,39.40625 C 25.865318,40.028409 24.314984,39.849393 22.875,38.78125 C 21.773017,37.96386 21.08759,37.146139 20.84375,36.28125 C 20.59991,35.416361 20.841377,34.578888 21.34375,33.84375 C 22.348496,32.373473 24.359185,31.151451 26.53125,29.84375 C 28.703315,28.536049 31.036129,27.176118 32.71875,25.65625 C 34.401371,24.136382 35.388653,22.544361 35.0625,20.65625 C 34.870686,19.545843 34.057148,18.691496 32.71875,18.0625 C 31.380352,17.433504 29.549746,17.065043 27.5,17.03125 z "
       transform="matrix(0.676806,0,0,0.68975,-0.243289,0.120764)" />
    <path
       sodipodi:type="inkscape:offset"
       inkscape:radius="-1.3963798"
       inkscape:original="M 27.5 16.5 C 20.481073 16.384283 11.235249 19.829834 9.65625 26.71875 C 7.946133 34.174347 16.683059 44.5 25.8125 44.5 C 30.303716 44.5 35.499575 40.567513 36.46875 35.5625 C 37.208955 31.745904 27.754153 33.255829 28.09375 35.78125 C 28.500604 38.808317 25.818279 40.295194 23.1875 38.34375 C 14.812595 32.131707 37.059827 29.049678 35.59375 20.5625 C 35.137417 17.920797 31.711356 16.56943 27.5 16.5 z "
       style="opacity:0.2;fill:none;fill-opacity:1;fill-rule:nonzero;stroke:#2e3436;stroke-width:1.49644375;stroke-linejoin:round;stroke-miterlimit:4;stroke-dasharray:none;stroke-opacity:1"
       id="path2853"
       d="M 27.46875,17.90625 C 24.197789,17.852324 20.304005,18.630985 17.15625,20.21875 C 14.008495,21.806515 11.699473,24.1159 11.03125,27.03125 C 10.323448,30.117056 11.821759,34.197756 14.71875,37.46875 C 17.615741,40.739744 21.774228,43.09375 25.8125,43.09375 C 29.488607,43.09375 34.275707,39.537038 35.09375,35.3125 C 35.135018,35.099716 35.100547,35.105345 35.09375,35.09375 C 35.086953,35.082155 35.045695,34.998697 34.84375,34.90625 C 34.43986,34.721356 33.514607,34.595189 32.5625,34.6875 C 31.610393,34.779811 30.602041,35.056855 30,35.375 C 29.69898,35.534073 29.521735,35.716247 29.46875,35.78125 C 29.415765,35.846253 29.484554,35.711278 29.46875,35.59375 C 29.730164,37.53872 28.942019,39.353416 27.4375,40.15625 C 25.932981,40.959084 23.977819,40.68086 22.34375,39.46875 C 21.155905,38.587672 20.349542,37.660215 20.03125,36.53125 C 19.712958,35.402285 20.06065,34.215311 20.65625,33.34375 C 21.847451,31.600628 23.911992,30.438537 26.09375,29.125 C 28.275508,27.811463 30.576488,26.426958 32.15625,25 C 33.736012,23.573042 34.482023,22.336597 34.21875,20.8125 C 34.083563,20.029908 33.555167,19.398383 32.375,18.84375 C 31.194833,18.289117 29.431369,17.938606 27.46875,17.90625 z "
       transform="matrix(0.660525,0,0,0.676067,0.328382,0.36574)" />
    <path
       sodipodi:type="inkscape:offset"
       inkscape:radius="-1.3300062"
       inkscape:original="M 37.84375 1.5 C 28.95865 1.5 27.282885 14.5 32.28125 14.5 C 37.278893 14.5 46.729211 1.5 37.84375 1.5 z "
       style="opacity:0.2;fill:none;fill-opacity:1;fill-rule:nonzero;stroke:#2e3436;stroke-width:1.79024982;stroke-linejoin:round;stroke-miterlimit:4;stroke-dasharray:none;stroke-opacity:1"
       id="path2920"
       d="M 37.84375,2.84375 C 34.049855,2.84375 31.911936,5.5170603 31.125,8.34375 C 30.731532,9.7570949 30.77187,11.192137 31.0625,12.0625 C 31.35313,12.932863 31.608183,13.15625 32.28125,13.15625 C 32.954053,13.15625 34.335696,12.547505 35.65625,11.4375 C 36.976804,10.327495 38.275474,8.8150052 39.125,7.34375 C 39.974526,5.8724948 40.271254,4.4681633 40.125,3.84375 C 40.051873,3.5315433 39.954302,3.3694795 39.65625,3.1875 C 39.358198,3.0055205 38.792276,2.84375 37.84375,2.84375 z "
       transform="matrix(0.536273,0,0,0.581818,4.962887,0.845455)" />
    <path
       sodipodi:type="inkscape:offset"
       inkscape:radius="-1.0192616"
       inkscape:original="M 23.6875 3.53125 C 18.652699 4.1435932 20.444137 12.346659 23.125 12.5 C 25.804774 12.653342 28.724119 2.9189068 23.6875 3.53125 z "
       style="opacity:0.2;fill:none;fill-opacity:1;fill-rule:nonzero;stroke:#2e3436;stroke-width:1.84449363;stroke-linejoin:round;stroke-miterlimit:4;stroke-dasharray:none;stroke-opacity:1"
       id="path2922"
       d="M 23.8125,4.53125 C 22.831737,4.6505324 22.3278,5.0694512 21.96875,5.6875 C 21.6097,6.3055488 21.465329,7.2038998 21.53125,8.125 C 21.597171,9.0461002 21.879196,9.9574168 22.25,10.59375 C 22.620804,11.230083 23.028082,11.459632 23.1875,11.46875 C 23.232836,11.471344 23.70687,11.272131 24.1875,10.53125 C 24.66813,9.7903692 25.119405,8.6934849 25.3125,7.65625 C 25.505595,6.6190151 25.427964,5.6296051 25.1875,5.125 C 24.947036,4.6203949 24.762186,4.4157888 23.8125,4.53125 z "
       transform="matrix(0.512093,0,0,0.573981,3.481929,0.917149)" />
    <path
       sodipodi:type="inkscape:offset"
       inkscape:radius="-0.98627526"
       inkscape:original="M 8.8125 11.9375 C 8.4606561 11.925184 8.0926115 12.05277 7.6875 12.34375 C 4.4480637 14.671966 8.7815845 20.278527 10.6875 19.40625 C 12.355175 18.642678 11.275407 12.023715 8.8125 11.9375 z "
       style="opacity:0.2;fill:none;fill-opacity:1;fill-rule:nonzero;stroke:#2e3436;stroke-width:2.99075699;stroke-linejoin:round;stroke-miterlimit:4;stroke-dasharray:none;stroke-opacity:1"
       id="path2926"
       d="M 8.78125,12.9375 C 8.6914294,12.934356 8.5361761,12.950698 8.25,13.15625 C 7.6770962,13.568002 7.5137117,13.972216 7.5,14.5625 C 7.4862883,15.152784 7.7347971,15.919653 8.125,16.59375 C 8.5152029,17.267847 9.0548551,17.851915 9.53125,18.1875 C 10.007645,18.523085 10.296913,18.492831 10.28125,18.5 C 10.171152,18.55041 10.393698,18.389809 10.46875,17.8125 C 10.543802,17.235191 10.508818,16.412009 10.34375,15.625 C 10.178682,14.837991 9.8869629,14.058668 9.5625,13.5625 C 9.2380371,13.066332 8.9585431,12.943706 8.78125,12.9375 z "
       transform="matrix(0.309204,-3.309301e-2,7.589298e-2,0.353447,-8.95e-3,6.218141)" />
    <path
       id="path4496"
       d="M 9.573106,10.48693 C 10.906798,10.215766 10.979907,4.7600932 8.6015353,5.7387975 C 6.2227372,6.7177142 8.240483,10.758519 9.573106,10.48693 L 9.573106,10.48693 z "
       style="opacity:1;fill:url(#radialGradient3036);fill-opacity:1;fill-rule:nonzero;stroke:#2e3436;stroke-width:1.00000048;stroke-miterlimit:4;stroke-dasharray:none" />
    <path
       sodipodi:type="inkscape:offset"
       inkscape:radius="-0.9796893"
       inkscape:original="M 15.71875 6.5625 C 15.339365 6.4708871 14.912003 6.5187657 14.40625 6.71875 C 10.3595 8.3189717 13.764225 14.912713 16.03125 14.46875 C 18.016485 14.080891 18.374445 7.2037903 15.71875 6.5625 z "
       style="opacity:0.2;fill:none;fill-opacity:1;fill-rule:nonzero;stroke:#2e3436;stroke-width:2.49691343;stroke-linejoin:round;stroke-miterlimit:4;stroke-dasharray:none;stroke-opacity:1"
       id="path2924"
       d="M 15.5,7.5 C 15.359503,7.4660732 15.161228,7.4747497 14.78125,7.625 C 14.027202,7.9231762 13.742067,8.3279067 13.59375,8.90625 C 13.445433,9.4845933 13.514058,10.269275 13.78125,11.03125 C 14.048442,11.793225 14.48758,12.514156 14.9375,12.96875 C 15.38742,13.423344 15.771226,13.514203 15.84375,13.5 C 15.810775,13.506442 16.068097,13.369899 16.28125,12.8125 C 16.494403,12.255101 16.622474,11.415176 16.625,10.59375 C 16.627526,9.7723241 16.487721,8.9765178 16.25,8.40625 C 16.012279,7.8359822 15.770674,7.5653616 15.5,7.5 z "
       transform="matrix(0.321739,0,0,0.498527,4.151064,2.769207)" />
  </g>
</svg>
