<?xml version="1.0" encoding="UTF-8" standalone="no"?>
<!-- Created with Inkscape (http://www.inkscape.org/) -->
<svg
   xmlns:dc="http://purl.org/dc/elements/1.1/"
   xmlns:cc="http://web.resource.org/cc/"
   xmlns:rdf="http://www.w3.org/1999/02/22-rdf-syntax-ns#"
   xmlns:svg="http://www.w3.org/2000/svg"
   xmlns="http://www.w3.org/2000/svg"
   xmlns:xlink="http://www.w3.org/1999/xlink"
   xmlns:sodipodi="http://sodipodi.sourceforge.net/DTD/sodipodi-0.dtd"
   xmlns:inkscape="http://www.inkscape.org/namespaces/inkscape"
   version="1.0"
   x="0.0000000"
   y="0.0000000"
   width="32"
   height="32"
   id="svg1"
   sodipodi:version="0.32"
   inkscape:version="0.45"
   sodipodi:docname="user-home.svg"
   sodipodi:docbase="/home/dobey/Projects/gnome-icon-theme/32x32/places"
   inkscape:export-filename="/home/jimmac/src/cvs/gnome/gnome-icon-theme/32x32/places/user-home.png"
   inkscape:export-xdpi="90.000000"
   inkscape:export-ydpi="90.000000"
   inkscape:output_extension="org.inkscape.output.svg.inkscape">
  <metadata
     id="metadata162">
    <rdf:RDF>
      <cc:Work
         rdf:about="">
        <dc:format>image/svg+xml</dc:format>
        <dc:type
           rdf:resource="http://purl.org/dc/dcmitype/StillImage" />
        <dc:title>Home Folder</dc:title>
        <dc:creator>
          <cc:Agent>
            <dc:title>Jakub Steiner</dc:title>
          </cc:Agent>
        </dc:creator>
        <dc:date />
        <cc:license
           rdf:resource="http://creativecommons.org/licenses/GPL/2.0/" />
        <dc:identifier>http://jimmac.musichall.cz/</dc:identifier>
        <dc:subject>
          <rdf:Bag>
            <rdf:li>folder</rdf:li>
            <rdf:li>directory</rdf:li>
            <rdf:li>home</rdf:li>
            <rdf:li>user</rdf:li>
          </rdf:Bag>
        </dc:subject>
      </cc:Work>
      <cc:License
         rdf:about="http://creativecommons.org/licenses/GPL/2.0/">
        <cc:permits
           rdf:resource="http://web.resource.org/cc/Reproduction" />
        <cc:permits
           rdf:resource="http://web.resource.org/cc/Distribution" />
        <cc:requires
           rdf:resource="http://web.resource.org/cc/Notice" />
        <cc:permits
           rdf:resource="http://web.resource.org/cc/DerivativeWorks" />
        <cc:requires
           rdf:resource="http://web.resource.org/cc/ShareAlike" />
        <cc:requires
           rdf:resource="http://web.resource.org/cc/SourceCode" />
      </cc:License>
    </rdf:RDF>
  </metadata>
  <sodipodi:namedview
     id="base"
     pagecolor="#ffffff"
     bordercolor="#666666"
     borderopacity="0.15686275"
     inkscape:pageopacity="0.0"
     inkscape:pageshadow="2"
     inkscape:window-width="1201"
     inkscape:window-height="908"
     inkscape:cy="13.362924"
     inkscape:cx="28.718195"
     inkscape:zoom="1"
     inkscape:document-units="px"
     showgrid="false"
     inkscape:window-x="713"
     inkscape:window-y="189"
     inkscape:current-layer="layer3"
     inkscape:showpageshadow="false"
     width="32px"
     height="32px" />
  <defs
     id="defs3">
    <linearGradient
       id="linearGradient4734">
      <stop
         style="stop-color:#cccdbc;stop-opacity:1;"
         offset="0"
         id="stop4736" />
      <stop
         style="stop-color:#b9baa4;stop-opacity:1;"
         offset="1"
         id="stop4738" />
    </linearGradient>
    <linearGradient
       id="linearGradient356">
      <stop
         style="stop-color:#fffff3;stop-opacity:0.54455447;"
         offset="0.0000000"
         id="stop357" />
      <stop
         style="stop-color:#fffff3;stop-opacity:0.0000000;"
         offset="1.0000000"
         id="stop358" />
    </linearGradient>
    <linearGradient
       id="linearGradient311">
      <stop
         style="stop-color:#cfcfc4;stop-opacity:1.0000000;"
         offset="0.0000000"
         id="stop312" />
      <stop
         style="stop-color:#cfcfc4;stop-opacity:1.0000000;"
         offset="0.32673267"
         id="stop335" />
      <stop
         style="stop-color:#cfcfc4;stop-opacity:0;"
         offset="1"
         id="stop313" />
    </linearGradient>
    <linearGradient
       id="linearGradient235">
      <stop
         style="stop-color:#676756;stop-opacity:1;"
         offset="0"
         id="stop236" />
      <stop
         style="stop-color:#90937c;stop-opacity:1;"
         offset="1"
         id="stop237" />
    </linearGradient>
    <linearGradient
       id="linearGradient2339"
       inkscape:collect="always">
      <stop
         id="stop2341"
         offset="0"
         style="stop-color:#ffffff;stop-opacity:1;" />
      <stop
         id="stop2343"
         offset="1"
         style="stop-color:#ffffff;stop-opacity:0;" />
    </linearGradient>
    <linearGradient
       inkscape:collect="always"
       xlink:href="#linearGradient2339"
       id="linearGradient2250"
       gradientUnits="userSpaceOnUse"
       x1="25.850664"
       y1="37.625"
       x2="24.996323"
       y2="25.25"
       gradientTransform="matrix(0.650868,0,0,0.649311,0.7261,0.980826)" />
    <linearGradient
       inkscape:collect="always"
       xlink:href="#linearGradient356"
       id="linearGradient2254"
       gradientUnits="userSpaceOnUse"
       gradientTransform="matrix(0.525159,0,0,0.804738,0.61106,0.751261)"
       x1="18.513338"
       y1="15.211389"
       x2="22.805771"
       y2="25.895836" />
    <linearGradient
       inkscape:collect="always"
       xlink:href="#linearGradient4734"
       id="linearGradient2257"
       gradientUnits="userSpaceOnUse"
       gradientTransform="matrix(0.417084,0,0,0.24492,1.232983,8.86643)"
       x1="24.588383"
       y1="1.8991361"
       x2="24.588383"
       y2="40.858932" />
    <linearGradient
       inkscape:collect="always"
       xlink:href="#linearGradient311"
       id="linearGradient2260"
       gradientUnits="userSpaceOnUse"
       gradientTransform="matrix(0.315279,0,0,0.557093,1.2159,1.898126)"
       x1="32.827568"
       y1="7.9206076"
       x2="60.071049"
       y2="7.8678756" />
    <linearGradient
       inkscape:collect="always"
       xlink:href="#linearGradient235"
       id="linearGradient2264"
       gradientUnits="userSpaceOnUse"
       gradientTransform="matrix(0.448814,0,0,0.398745,1.21589,1.578515)"
       x1="24.866016"
       y1="31.315151"
       x2="24.866016"
       y2="14.650744" />
  </defs>
  <g
     inkscape:groupmode="layer"
     id="layer1"
     inkscape:label="pixmap"
     style="display:inline" />
  <g
     inkscape:groupmode="layer"
     id="layer2"
     inkscape:label="vectors"
     style="display:inline" />
  <g
     inkscape:groupmode="layer"
     id="layer3"
     inkscape:label="ss"
     style="display:inline">
    <g
       id="g2185"
       transform="matrix(0.140642,0,0,0.17083,0.14474,-5.419646)">
      <path
         id="path2187"
         style="opacity:0.04787233;fill-rule:evenodd;stroke-width:3pt"
         d="M 32.706693,164.36026 C 22.319193,164.36026 13.956693,172.72276 13.956693,183.11026 C 13.956693,193.49776 22.319193,201.86026 32.706693,201.86026 L 205.20669,201.86026 C 215.59419,201.86026 223.95669,193.49776 223.95669,183.11026 C 223.95669,172.72276 215.59419,164.36026 205.20669,164.36026 L 32.706693,164.36026 z " />
      <path
         id="path2189"
         style="opacity:0.04787233;fill-rule:evenodd;stroke-width:3pt"
         d="M 32.706693,165.61026 C 23.011693,165.61026 15.206693,173.41526 15.206693,183.11026 C 15.206693,192.80526 23.011693,200.61026 32.706693,200.61026 L 205.20669,200.61026 C 214.90169,200.61026 222.70669,192.80526 222.70669,183.11026 C 222.70669,173.41526 214.90169,165.61026 205.20669,165.61026 L 32.706693,165.61026 z " />
      <path
         id="path2191"
         style="opacity:0.04787233;fill-rule:evenodd;stroke-width:3pt"
         d="M 32.706694,166.86026 C 23.704194,166.86026 16.456694,174.10776 16.456694,183.11026 C 16.456694,192.11276 23.704194,199.36026 32.706694,199.36026 L 205.20669,199.36026 C 214.20919,199.36026 221.45669,192.11276 221.45669,183.11026 C 221.45669,174.10776 214.20919,166.86026 205.20669,166.86026 L 32.706694,166.86026 z " />
      <path
         id="path2193"
         style="opacity:0.04787233;fill-rule:evenodd;stroke-width:3pt"
         d="M 32.706694,168.11026 C 24.396694,168.11026 17.706694,174.80026 17.706694,183.11026 C 17.706694,191.42026 24.396694,198.11026 32.706694,198.11026 L 205.20669,198.11026 C 213.51669,198.11026 220.20669,191.42026 220.20669,183.11026 C 220.20669,174.80026 213.51669,168.11026 205.20669,168.11026 L 32.706694,168.11026 z " />
      <path
         id="path2195"
         style="opacity:0.04787233;fill-rule:evenodd;stroke-width:3pt"
         d="M 32.707764,169.36026 C 25.090264,169.36026 18.957764,175.49276 18.957764,183.11026 C 18.957764,190.72776 25.090264,196.86026 32.707764,196.86026 L 205.20618,196.86026 C 212.82368,196.86026 218.95618,190.72776 218.95618,183.11026 C 218.95618,175.49276 212.82368,169.36026 205.20618,169.36026 L 32.707764,169.36026 z " />
      <path
         id="path2197"
         style="opacity:0.04787233;fill-rule:evenodd;stroke-width:3pt"
         d="M 32.706694,170.61026 C 25.781694,170.61026 20.206694,176.18526 20.206694,183.11026 C 20.206694,190.03526 25.781694,195.61026 32.706694,195.61026 L 205.20669,195.61026 C 212.13169,195.61026 217.70669,190.03526 217.70669,183.11026 C 217.70669,176.18526 212.13169,170.61026 205.20669,170.61026 L 32.706694,170.61026 z " />
      <path
         id="path2199"
         style="opacity:0.04787233;fill-rule:evenodd;stroke-width:3pt"
         d="M 32.706694,171.86026 C 26.474194,171.86026 21.456694,176.87776 21.456694,183.11026 C 21.456694,189.34276 26.474194,194.36026 32.706694,194.36026 L 205.20669,194.36026 C 211.43919,194.36026 216.45669,189.34276 216.45669,183.11026 C 216.45669,176.87776 211.43919,171.86026 205.20669,171.86026 L 32.706694,171.86026 z " />
      <path
         id="path2201"
         style="opacity:0.04787233;fill-rule:evenodd;stroke-width:3pt"
         d="M 32.706694,173.11026 C 27.166694,173.11026 22.706694,177.57026 22.706694,183.11026 C 22.706694,188.65026 27.166694,193.11026 32.706694,193.11026 L 205.20669,193.11026 C 210.74669,193.11026 215.20669,188.65026 215.20669,183.11026 C 215.20669,177.57026 210.74669,173.11026 205.20669,173.11026 L 32.706694,173.11026 z " />
    </g>
    <path
       sodipodi:nodetypes="ccccccccccccc"
       id="path2203"
       style="fill:url(#linearGradient2264);fill-opacity:1;fill-rule:evenodd;stroke:#555753;stroke-width:0.9999997;stroke-miterlimit:4;stroke-opacity:1"
       d="M 4.065439,4.5235365 C 3.762801,4.5235365 3.534909,4.6762716 3.534909,4.9954049 L 3.534909,26.436262 C 3.534909,26.908405 3.851951,27.22294 4.282794,27.22294 L 29.032059,27.22294 C 29.465408,27.22294 29.637566,26.928955 29.637566,26.517426 L 29.637566,8.031731 C 29.637566,7.6791777 29.377032,7.4885447 29.052398,7.4885447 L 16.614756,7.4885447 C 16.395406,7.4885447 16.16131,7.3597045 16.032567,7.1825331 L 14.338859,4.8234841 C 14.197058,4.6283405 13.920953,4.5235457 13.679349,4.5235457 L 4.065439,4.5235365 z " />
    <g
       transform="matrix(0.186703,0,0,0.186703,12.20641,56.75693)"
       id="g2205" />
    <path
       sodipodi:nodetypes="ccccczscczzcc"
       id="path2207"
       d="M 4.021137,6.1144361 L 4.021137,24.457453 L 4.651666,21.61672 L 4.794044,6.9260739 C 4.794044,6.438817 5.126941,6.1955998 5.599141,6.1955998 L 13.153633,6.1955998 C 14.170027,6.1955998 15.115902,8.7027771 16.614734,8.7027771 C 20.501472,8.7027771 29.201483,8.759648 29.201605,8.7027771 L 29.201605,8.0331755 L 16.489333,7.9520118 C 15.281234,7.9442985 14.451838,5.4651257 13.519746,5.4651257 L 4.816065,5.4651257 C 4.285393,5.4651257 4.021137,5.6950899 4.021137,6.1144361 z "
       style="color:black;fill:url(#linearGradient2260);fill-opacity:1;fill-rule:evenodd;stroke:none;stroke-width:0.25pt;stroke-linecap:butt;stroke-linejoin:miter;marker:none;marker-start:none;marker-mid:none;marker-end:none;stroke-miterlimit:4;stroke-dasharray:none;stroke-dashoffset:0;stroke-opacity:1;visibility:visible;display:inline;overflow:visible" />
    <path
       inkscape:r_cy="true"
       inkscape:r_cx="true"
       sodipodi:nodetypes="czzszcccccccc"
       id="path2209"
       d="M 5.5273407,11.562173 L 10.839776,11.562173 C 11.319061,11.562173 11.723716,11.31491 11.929972,10.989479 C 12.018331,10.850066 12.749304,10.077972 12.807259,9.9932384 C 13.000327,9.7109668 13.306695,9.5004661 13.674408,9.5004661 L 28.563602,9.5004661 C 29.08237,9.5004661 29.500007,9.9184849 29.500007,10.437729 L 29.500007,26.561543 C 29.500007,27.080787 29.08237,27.498806 28.563602,27.498806 L 4.5202557,27.498806 C 4.0014874,27.498806 3.5838508,27.080787 3.5838508,26.561543 L 3.5838508,13.630631 C 3.5838508,12.348656 4.3206887,11.562173 5.5273407,11.562173 z "
       style="color:black;fill:url(#linearGradient2257);fill-opacity:1;fill-rule:evenodd;stroke:#555753;stroke-width:0.9999997;stroke-linecap:butt;stroke-linejoin:round;marker:none;marker-start:none;marker-mid:none;marker-end:none;stroke-miterlimit:4;stroke-dashoffset:0;stroke-opacity:1;visibility:visible;display:inline;overflow:visible" />
    <path
       sodipodi:nodetypes="ccccccccccccccccccccc"
       id="path349"
       d="M 14.068917,9.9088428 C 13.648183,9.9088428 13.412165,10.091752 13.173973,10.395826 C 12.935781,10.699899 12.66532,11.156698 12.482425,11.511828 C 12.29953,11.866959 12.112022,12.446311 11.933256,12.674921 C 11.754488,12.90353 11.614601,12.999576 11.465443,12.999576 C 10.651858,12.999576 5.505332,12.999576 5.179898,12.999576 C 4.881584,12.999576 4.636117,13.149255 4.427331,13.344521 C 4.218545,13.539789 4.040878,13.803097 4.040878,14.135869 C 4.040878,14.541686 4.040878,26.466256 4.040878,26.466256 L 4.691746,26.466256 C 4.691746,26.466256 4.691746,14.54169 4.691746,14.135869 C 4.691746,14.062822 4.758154,13.92031 4.874803,13.811213 C 4.991452,13.702118 5.152779,13.648886 5.179898,13.648886 C 5.505332,13.648886 10.651858,13.648886 11.465443,13.648886 C 11.885795,13.648886 12.204004,13.384768 12.441746,13.080739 C 12.679488,12.776712 12.86908,12.150954 13.051935,11.795902 C 13.234791,11.440848 13.462742,11.030209 13.641785,10.801645 C 13.820827,10.573081 13.918689,10.558153 14.068917,10.558153 C 14.860807,10.558153 29.201605,10.639317 29.201605,10.639317 L 29.201605,9.9900075 C 29.201605,9.9900075 14.904197,9.9088428 14.068917,9.9088428 z "
       style="color:black;fill:url(#linearGradient2254);fill-opacity:1;fill-rule:evenodd;stroke:none;stroke-width:0.25pt;stroke-linecap:butt;stroke-linejoin:miter;marker:none;marker-start:none;marker-mid:none;marker-end:none;stroke-miterlimit:4;stroke-dasharray:none;stroke-dashoffset:0;stroke-opacity:1;visibility:visible;display:inline;overflow:visible" />
    <rect
       ry="1.2499999"
       rx="1.4434735"
       y="5.7596421"
       x="4.3247833"
       height="0.81163788"
       width="0.8135854"
       id="rect2212"
       style="color:black;fill:#fffffd;fill-opacity:1;fill-rule:evenodd;stroke:none;stroke-width:0.25pt;stroke-linecap:butt;stroke-linejoin:miter;marker:none;marker-start:none;marker-mid:none;marker-end:none;stroke-miterlimit:4;stroke-dashoffset:0;stroke-opacity:1;visibility:visible;display:inline;overflow:visible" />
    <rect
       ry="0.43750015"
       rx="0.43749982"
       inkscape:r_cy="true"
       inkscape:r_cx="true"
       y="11"
       x="4.580719"
       height="15.5625"
       width="24.018242"
       id="rect2337"
       style="opacity:0.2857143;color:black;fill:none;fill-opacity:1;fill-rule:evenodd;stroke:url(#linearGradient2250);stroke-width:0.99999988;stroke-linecap:square;stroke-linejoin:round;marker:none;marker-start:none;marker-mid:none;marker-end:none;stroke-miterlimit:4;stroke-dasharray:none;stroke-dashoffset:0;stroke-opacity:1;visibility:visible;display:inline;overflow:visible" />
    <path
       d="M 11.92243,19.009836 L 11.92243,24 L 16.045516,24 L 16.045516,19.932634 L 19.027992,19.932634 L 19.027992,24 L 22.030545,24 L 22.030545,19.009836 L 23.67319,19.008421 L 17.007225,14.337115 L 10.341257,19.008421 L 11.92243,19.009836 z "
       style="opacity:0.65;fill:white;fill-rule:evenodd;stroke-width:3pt;display:inline;fill-opacity:1"
       id="path892"
       sodipodi:nodetypes="cccccccccccc" />
  </g>
</svg>
