<?xml version="1.0" encoding="UTF-8" standalone="no"?>
<!-- Created with Inkscape (http://www.inkscape.org/) -->

<svg
   xmlns:dc="http://purl.org/dc/elements/1.1/"
   xmlns:cc="http://creativecommons.org/ns#"
   xmlns:rdf="http://www.w3.org/1999/02/22-rdf-syntax-ns#"
   xmlns:svg="http://www.w3.org/2000/svg"
   xmlns="http://www.w3.org/2000/svg"
   xmlns:inkscape="http://www.inkscape.org/namespaces/inkscape"
   version="1.1"
   width="16"
   height="16"
   id="svg7384">
  <title
     id="title9167">Moblin Icon Theme</title>
  <defs
     id="defs7386">
    <clipPath
       id="clipPath6810">
      <rect
         width="14"
         height="11"
         x="21"
         y="281"
         id="rect6812"
         style="color:#000000;fill:none;stroke:#ffffff;stroke-width:2;stroke-linecap:round;stroke-linejoin:round;stroke-miterlimit:4;stroke-opacity:1;stroke-dasharray:none;stroke-dashoffset:0;marker:none;visibility:visible;display:inline;overflow:visible;enable-background:accumulate" />
    </clipPath>
  </defs>
  <metadata
     id="metadata7389">
    <rdf:RDF>
      <cc:Work
         rdf:about="">
        <dc:format>image/svg+xml</dc:format>
        <dc:type
           rdf:resource="http://purl.org/dc/dcmitype/StillImage" />
        <dc:title>Moblin Icon Theme</dc:title>
        <cc:license
           rdf:resource="http://creativecommons.org/licenses/by-sa/3.0/" />
        <dc:creator>
          <cc:Agent>
            <dc:title />
          </cc:Agent>
        </dc:creator>
        <dc:contributor>
          <cc:Agent>
            <dc:title>Jakub Steiner, 
Hylke Bons, 
Nick Richards, 
Darren Wilson, 
Claire Alexander</dc:title>
          </cc:Agent>
        </dc:contributor>
        <dc:source>http://www.moblin.org</dc:source>
      </cc:Work>
      <cc:License
         rdf:about="http://creativecommons.org/licenses/by-sa/3.0/">
        <cc:permits
           rdf:resource="http://creativecommons.org/ns#Reproduction" />
        <cc:permits
           rdf:resource="http://creativecommons.org/ns#Distribution" />
        <cc:requires
           rdf:resource="http://creativecommons.org/ns#Notice" />
        <cc:requires
           rdf:resource="http://creativecommons.org/ns#Attribution" />
        <cc:permits
           rdf:resource="http://creativecommons.org/ns#DerivativeWorks" />
        <cc:requires
           rdf:resource="http://creativecommons.org/ns#ShareAlike" />
      </cc:License>
    </rdf:RDF>
  </metadata>
  <g
     transform="translate(-61,-609)"
     id="layer3"
     style="display:inline" />
  <g
     transform="translate(-61,-609)"
     id="layer2"
     style="display:inline">
    <rect
       width="16"
       height="16"
       x="61"
       y="609"
       id="rect3825-9-5"
       style="color:#000000;fill:none;stroke:none;stroke-width:1;marker:none;visibility:visible;display:inline;overflow:visible;enable-background:accumulate" />
    <rect
       width="5"
       height="10.012877"
       rx="2.5"
       ry="2.5"
       x="66"
       y="609.98712"
       id="rect6796"
       style="color:#000000;fill:#cccccc;fill-opacity:1;fill-rule:nonzero;stroke:none;stroke-width:2;marker:none;visibility:visible;display:inline;overflow:visible;enable-background:accumulate" />
    <path
       d="m 27.96875,273.625 c -2.502477,0 -4.53125,2.02877 -4.53125,4.53125 l 0,5.8125 c 0,2.50248 2.028773,4.53125 4.53125,4.53125 2.502477,0 4.53125,-2.02877 4.53125,-4.53125 l 0,-5.8125 c 0,-2.50248 -2.028773,-4.53125 -4.53125,-4.53125 z m 0,1 c 1.964148,0 3.53125,1.5671 3.53125,3.53125 l 0,5.8125 c 0,1.96415 -1.567102,3.53125 -3.53125,3.53125 -1.964148,0 -3.53125,-1.5671 -3.53125,-3.53125 l 0,-5.8125 c 0,-1.96415 1.567102,-3.53125 3.53125,-3.53125 z"
       inkscape:connector-curvature="0"
       transform="matrix(0.99396765,0,0,1,40.706899,333.51387)"
       clip-path="url(#clipPath6810)"
       id="rect6806"
       style="font-size:medium;font-style:normal;font-variant:normal;font-weight:normal;font-stretch:normal;text-indent:0;text-align:start;text-decoration:none;line-height:normal;letter-spacing:normal;word-spacing:normal;text-transform:none;direction:ltr;block-progression:tb;writing-mode:lr-tb;text-anchor:start;color:#000000;fill:#cccccc;fill-opacity:1;stroke:none;stroke-width:1.00302994;marker:none;visibility:visible;display:inline;overflow:visible;enable-background:accumulate;font-family:Bitstream Vera Sans;-inkscape-font-specification:Bitstream Vera Sans" />
    <path
       d="m 24,361 a 1,1 0 1 1 -2,0 1,1 0 1 1 2,0 z"
       transform="matrix(0.5,0,0,0.5,53,434)"
       id="path6814"
       style="color:#000000;fill:#cccccc;fill-opacity:1;stroke:none;stroke-width:2;marker:none;visibility:visible;display:inline;overflow:visible;enable-background:accumulate" />
    <path
       d="m 24,361 a 1,1 0 1 1 -2,0 1,1 0 1 1 2,0 z"
       transform="matrix(0.5,0,0,0.5,61,434)"
       id="path6816"
       style="color:#000000;fill:#cccccc;fill-opacity:1;stroke:none;stroke-width:2;marker:none;visibility:visible;display:inline;overflow:visible;enable-background:accumulate" />
    <path
       d="M 64.875,623 A 1.0019512,1.0019512 0 1 0 65,625 l 7.03125,0 a 1.0000999,1.0000999 0 1 0 0,-2 L 65,623 a 1.0000999,1.0000999 0 0 0 -0.125,0 z"
       inkscape:connector-curvature="0"
       id="path6818"
       style="font-size:medium;font-style:normal;font-variant:normal;font-weight:normal;font-stretch:normal;text-indent:0;text-align:start;text-decoration:none;line-height:normal;letter-spacing:normal;word-spacing:normal;text-transform:none;direction:ltr;block-progression:tb;writing-mode:lr-tb;text-anchor:start;color:#000000;fill:#cccccc;fill-opacity:1;stroke:none;stroke-width:1.99999988;marker:none;visibility:visible;display:inline;overflow:visible;enable-background:accumulate;font-family:Bitstream Vera Sans;-inkscape-font-specification:Bitstream Vera Sans" />
    <rect
       width="9"
       height="1"
       x="64"
       y="624"
       id="rect6822"
       style="color:#000000;fill:#cccccc;fill-opacity:1;stroke:none;stroke-width:1;marker:none;visibility:visible;display:inline;overflow:visible;enable-background:accumulate" />
    <rect
       width="3"
       height="4"
       x="67"
       y="621"
       id="rect6824"
       style="color:#000000;fill:#cccccc;fill-opacity:1;stroke:none;stroke-width:1;marker:none;visibility:visible;display:inline;overflow:visible;enable-background:accumulate" />
  </g>
  <g
     transform="translate(-41.00025,-580)"
     id="layer4" />
  <g
     transform="translate(-61,-609)"
     id="layer1"
     style="display:inline" />
</svg>
