<?xml version="1.0" encoding="UTF-8" standalone="no"?>
<!-- Created with Inkscape (http://www.inkscape.org/) -->

<svg
   xmlns:dc="http://purl.org/dc/elements/1.1/"
   xmlns:cc="http://creativecommons.org/ns#"
   xmlns:rdf="http://www.w3.org/1999/02/22-rdf-syntax-ns#"
   xmlns:svg="http://www.w3.org/2000/svg"
   xmlns="http://www.w3.org/2000/svg"
   xmlns:inkscape="http://www.inkscape.org/namespaces/inkscape"
   version="1.1"
   width="16.03105"
   height="16"
   id="svg7384">
  <title
     id="title9167">Gnome Symbolic Icon Theme</title>
  <defs
     id="defs7386" />
  <metadata
     id="metadata7389">
    <rdf:RDF>
      <cc:Work
         rdf:about="">
        <dc:format>image/svg+xml</dc:format>
        <dc:type
           rdf:resource="http://purl.org/dc/dcmitype/StillImage" />
        <dc:title>Gnome Symbolic Icon Theme</dc:title>
        <cc:license
           rdf:resource="http://creativecommons.org/licenses/by-sa/3.0/" />
        <dc:creator>
          <cc:Agent>
            <dc:title />
          </cc:Agent>
        </dc:creator>
        <dc:contributor>
          <cc:Agent>
            <dc:title>See the AUTHORS file here:

http://git.gnome.org/browse/gnome-icon-theme-symbolic/plain/AUTHORS</dc:title>
          </cc:Agent>
        </dc:contributor>
        <dc:source>http://www.gnome.org</dc:source>
      </cc:Work>
      <cc:License
         rdf:about="http://creativecommons.org/licenses/by-sa/3.0/">
        <cc:permits
           rdf:resource="http://creativecommons.org/ns#Reproduction" />
        <cc:permits
           rdf:resource="http://creativecommons.org/ns#Distribution" />
        <cc:requires
           rdf:resource="http://creativecommons.org/ns#Notice" />
        <cc:requires
           rdf:resource="http://creativecommons.org/ns#Attribution" />
        <cc:permits
           rdf:resource="http://creativecommons.org/ns#DerivativeWorks" />
        <cc:requires
           rdf:resource="http://creativecommons.org/ns#ShareAlike" />
      </cc:License>
    </rdf:RDF>
  </metadata>
  <g
     transform="translate(-99.9998,-610)"
     id="layer3"
     style="display:inline" />
  <g
     transform="translate(-99.9998,-610)"
     id="layer2"
     style="display:inline">
    <rect
       width="16"
       height="16"
       x="99.999802"
       y="610"
       id="rect11539"
       style="color:#000000;fill:none;stroke:none;stroke-width:1;marker:none;visibility:visible;display:inline;overflow:visible" />
    <g
       transform="translate(-13.968952,-3)"
       id="g5170"
       style="display:inline">
      <path
         d="m 85.5625,338 c -0.298498,0 -0.53125,0.23275 -0.53125,0.53125 l 0,1.46875 -3.4375,0 c -0.306899,0 -0.5625,0.2556 -0.5625,0.5625 l 0,10.875 c 0,0.3069 0.255601,0.5625 0.5625,0.5625 l 14.875,0 c 0.306899,0 0.5625,-0.2556 0.5625,-0.5625 l 0,-10.875 c 0,-0.3069 -0.255601,-0.5625 -0.5625,-0.5625 l -3.4375,0 0,-1.46875 C 93.03125,338.23275 92.798498,338 92.5,338 l -6.9375,0 z m 2.96875,3 c 0.166655,-0.0171 0.32919,0 0.5,0 2.73296,0 5,2.23325 5,5 0,2.76676 -2.26704,5 -5,5 -2.73296,0 -5,-2.23324 -5,-5 0,-2.59383 2.000175,-4.74336 4.5,-5 z m 0.5,2 c -1.68534,0 -3,1.34845 -3,3 0,1.65156 1.31466,3 3,3 1.68534,0 3,-1.34844 3,-3 0,-1.65155 -1.31466,-3 -3,-3 z"
         inkscape:connector-curvature="0"
         transform="translate(32.968552,276)"
         id="rect3951"
         style="fill:#bebebe;fill-opacity:1;stroke:none;display:inline" />
    </g>
  </g>
  <g
     transform="translate(-80,-581)"
     id="layer4"
     style="display:inline" />
  <g
     transform="translate(-80,-338)"
     id="layer5" />
  <g
     transform="translate(-99.9998,-610)"
     id="layer1"
     style="display:inline" />
</svg>
