<?xml version="1.0" encoding="UTF-8" standalone="no"?>
<!-- Created with Inkscape (http://www.inkscape.org/) -->

<svg
   xmlns:svg="http://www.w3.org/2000/svg"
   xmlns="http://www.w3.org/2000/svg"
   version="1.1"
   width="16"
   height="16"
   id="svg7384">
  <title
     id="title9167">Gnome Symbolic Icon Theme</title>
  <defs
     id="defs7386" />
  <g
     transform="translate(-80,-338)"
     id="layer9" />
  <g
     transform="translate(-80,-338)"
     id="layer10">
    <rect
       width="16"
       height="16"
       x="80"
       y="338"
       id="rect11539"
       style="color:#bebebe;fill:none;stroke:none;stroke-width:1;marker:none;visibility:visible;display:inline;overflow:visible" />
    <path
       d="m 86,340 c -0.549959,0 -1,0.45004 -1,1 l 0,1 -3,0 c -0.552014,0 -1,0.45004 -1,1 l 0,8 c 0,0.54996 0.447986,1 1,1 l 12,0 c 0.552014,0 1,-0.45004 1,-1 l 0,-8 c 0,-0.54996 -0.447986,-1 -1,-1 l -3,0 0,-1 c 0,-0.54996 -0.450041,-1 -1,-1 l -4,0 z m 2,3 c 2.209139,0 4,1.79086 4,4 0,2.20914 -1.790861,4 -4,4 -2.209139,0 -4,-1.79086 -4,-4 0,-2.20914 1.790861,-4 4,-4 z m 0,2 c -1.10457,0 -2,0.89543 -2,2 0,1.10457 0.89543,2 2,2 1.10457,0 2,-0.89543 2,-2 0,-1.10457 -0.89543,-2 -2,-2 z"
       id="rect5238"
       style="color:#bebebe;fill:#bebebe;fill-opacity:1;fill-rule:nonzero;stroke:none;stroke-width:3;marker:none;visibility:visible;display:inline;overflow:visible;enable-background:accumulate" />
  </g>
  <g
     transform="translate(-80,-338)"
     id="layer11" />
  <g
     transform="translate(-80,-338)"
     id="layer12" />
  <g
     transform="translate(-80,-338)"
     id="layer13" />
  <g
     transform="translate(-80,-338)"
     id="layer14" />
  <g
     transform="translate(-80,-338)"
     id="layer15" />
</svg>
