<?xml version="1.0" encoding="UTF-8" standalone="no"?>
<svg
   version="1.1"
   width="16"
   height="16.020844"
   id="svg7384"
   viewBox="0 0 16 16.020844"
   xmlns="http://www.w3.org/2000/svg"
   xmlns:svg="http://www.w3.org/2000/svg"
   xmlns:rdf="http://www.w3.org/1999/02/22-rdf-syntax-ns#"
   xmlns:cc="http://creativecommons.org/ns#"
   xmlns:dc="http://purl.org/dc/elements/1.1/">
  <metadata
     id="metadata90">
    <rdf:RDF>
      <cc:Work
         rdf:about="">
        <dc:format>image/svg+xml</dc:format>
        <dc:type
           rdf:resource="http://purl.org/dc/dcmitype/StillImage" />
        <dc:title>Gnome Symbolic Icon Theme</dc:title>
      </cc:Work>
    </rdf:RDF>
  </metadata>
  <title
     id="title9167">Gnome Symbolic Icon Theme</title>
  <defs
     id="defs7386" />
  <g
     id="layer4"
     style="display:inline"
     transform="translate(-800,-179.99999)">
    <g
       id="battery-level-10-plugged-in"
       transform="translate(118)"
       style="display:inline">
      <title
         id="title86">battery-level-10-plugged-in</title>
      <path
         id="path87"
         style="fill:#33d17a;fill-opacity:1"
         d="m 687,192 v 1 l 4,2e-5 V 192 Z"
         class="success" />
      <path
         id="path88"
         style="fill:none"
         d="m 698,180 v 16 h -16 v -16 z" />
      <path
         id="path89"
         style="fill:#2e3434;fill-opacity:1"
         d="m 689,180 c -1,0 -1,1 -1,1 v 1 h -1 c 0,0 -0.7086,-0.0137 -1.44727,0.35547 C 684.81407,182.72465 684,183.6664 684,185 v 8 c 0,0 -0.0138,0.70891 0.35547,1.44727 C 684.72479,195.18562 685.6668,196 687,196 c 0,0 5.85937,0.0469 6,0 v -1 c -0.67772,0 -1.42284,-0.46632 -1.69922,-1 H 687 c -0.554,0 -1,-0.446 -1,-1 v -8 c 0,-0.554 0.446,-1 1,-1 h 4 2 c 0.554,0 1,0.446 1,1 v 3 h 2 v -3 c 0,-1.3336 -0.81407,-2.27535 -1.55273,-2.64453 C 693.7086,181.98628 693,182 693,182 h -1 v -1 c 0,-1 -1,-1 -1,-1 z m 4.5,9 c -0.277,0 -0.5,0.223 -0.5,0.5 v 1.5 h -1 v 1.5 c 0,0.83099 0.66901,1.5 1.5,1.5 h 0.5 v 1 c 0,0.55398 0.44602,1 1,1 0.55398,0 1,-0.44602 1,-1 v -1 h 0.5 c 0.83099,0 1.5,-0.66901 1.5,-1.5 V 191 h -1 v -1.5 c 0,-0.277 -0.223,-0.5 -0.5,-0.5 -0.277,0 -0.5,0.223 -0.5,0.5 v 1.5 h -2 v -1.5 c 0,-0.277 -0.223,-0.5 -0.5,-0.5 z" />
    </g>
  </g>
</svg>
