<?xml version="1.0" encoding="UTF-8"?>
<svg height="16px" viewBox="0 0 16 16" width="16px" xmlns="http://www.w3.org/2000/svg">
    <path d="m 8 -0.0585938 l -5.828125 1.1640628 l -0.640625 -0.636719 l -1.0625 1.0625 l 14 14 l 1.0625 -1.0625 l -3.964844 -3.964844 c 1.519532 -1.144531 2.433594 -2.945312 2.433594 -4.878906 v -4.484375 z m -0.003906 2.0390628 l 4 0.800781 v 2.84375 c 0 1.398438 -0.707032 2.6875 -1.867188 3.441406 l -6.132812 -6.128906 v -0.15625 z m -6 3.144531 v 0.5 c 0 2.214844 1.199218 4.253906 3.132812 5.335938 l 2.101563 1.175781 c -0.078125 0.035156 -0.15625 0.078125 -0.234375 0.125 c -0.292969 0.167969 -0.535156 0.410156 -0.710938 0.699219 h -3.285156 c -0.550781 0 -1 0.449218 -1 1 c 0 0.550781 0.449219 1 1 1 h 3.246094 c 0.351562 0.640624 1.023437 1.035156 1.753906 1.039062 c 0.730469 -0.003906 1.398438 -0.398438 1.75 -1.039062 h 2.085938 l -2 -2 h -0.117188 c -0.175781 -0.289063 -0.417969 -0.53125 -0.714844 -0.699219 c -0.078125 -0.050781 -0.15625 -0.089844 -0.238281 -0.125 l 0.15625 -0.085938 l -2.851563 -2.851562 c -0.648437 -0.375 -1.175781 -0.90625 -1.535156 -1.535157 z m 6.003906 7.863281 c 0.554688 0 1.007812 0.449219 1.003906 1.003907 c 0.003906 0.558593 -0.449218 1.007812 -1.003906 1.007812 s -1.007812 -0.449219 -1.007812 -1.007812 c 0 -0.554688 0.453124 -1.003907 1.007812 -1.003907 z m 0 0" fill="#2e3436"/>
</svg>
