<?xml version="1.0" encoding="UTF-8"?>
<svg height="16px" viewBox="0 0 16 16" width="16px" xmlns="http://www.w3.org/2000/svg">
    <g fill="#2e3436">
        <path d="m 6.054688 -0.0195312 c -1.671876 0 -3.113282 1.1640622 -3.460938 2.8007812 l -0.144531 0.667969 l 1.683593 1.683593 l 0.414063 -1.933593 c 0.152344 -0.71875 0.773437 -1.21875 1.507813 -1.21875 h 3.890624 c 0.730469 0 1.351563 0.5 1.503907 1.21875 l 0.644531 3 c 0.042969 0.21875 -0.011719 0.402343 -0.132812 0.554687 c -0.125 0.152344 -0.296876 0.246094 -0.515626 0.246094 h -5.445312 l 3 3 v -1 h 2.445312 c 1.695313 0 2.957032 -1.558594 2.601563 -3.21875 l -0.640625 -3 c -0.351562 -1.636719 -1.792969 -2.8007812 -3.460938 -2.8007812 z m -3.980469 5.2148432 l -0.125 0.585938 c -0.355469 1.660156 0.90625 3.21875 2.605469 3.21875 h 1.324218 z m 9.398437 4.285157 c -0.265625 0.011719 -0.472656 0.230469 -0.472656 0.5 c 0 0.273437 0.222656 0.5 0.5 0.5 c 0.273438 0 0.5 -0.226563 0.5 -0.5 c 0 -0.277344 -0.226562 -0.5 -0.5 -0.5 c -0.011719 0 -0.019531 -0.003907 -0.027344 0 z m -4.472656 0.640625 v 3.859375 h -1.53125 c -0.394531 -0.003907 -0.773438 0.152343 -1.050781 0.433593 c -0.28125 0.277344 -0.4375 0.65625 -0.433594 1.050782 c -0.003906 0.136718 0.050781 0.265625 0.148437 0.363281 c 0.097657 0.097656 0.226563 0.152344 0.367188 0.152344 h 6.96875 c 0.136719 0 0.265625 -0.054688 0.363281 -0.152344 c 0.097657 -0.097656 0.152344 -0.226563 0.152344 -0.363281 c -0.003906 -0.144532 -0.023437 -0.285156 -0.0625 -0.421875 l -1 -1 c -0.140625 -0.042969 -0.28125 -0.0625 -0.421875 -0.0625 h -1.5 v -1.859375 z m 4.472656 0.859375 c -0.265625 0.011719 -0.472656 0.230469 -0.472656 0.5 c 0 0.273437 0.222656 0.5 0.5 0.5 c 0.273438 0 0.5 -0.226563 0.5 -0.5 c 0 -0.277344 -0.226562 -0.5 -0.5 -0.5 c -0.011719 0 -0.019531 -0.003907 -0.027344 0 z m 0 0"/>
        <path d="m 1.0625 0 l -1.0625 1.0625 l 14 14 l 1.0625 -1.0625 z m 0 0"/>
    </g>
</svg>
