<?xml version="1.0" encoding="UTF-8"?>
<svg height="16px" viewBox="0 0 16 16" width="16px" xmlns="http://www.w3.org/2000/svg">
    <g fill="#2e3436">
        <path d="m 12.949219 11.949219 c -0.257813 0 -0.511719 0.097656 -0.707031 0.292969 c -0.390626 0.390624 -0.390626 1.023437 0 1.414062 c 0.390624 0.390625 1.023437 0.390625 1.414062 0 s 0.390625 -1.023438 0 -1.414062 c -0.195312 -0.195313 -0.449219 -0.292969 -0.707031 -0.292969 z m 0 0"/>
        <path d="m 15 7 c -0.550781 0 -1 0.449219 -1 1 s 0.449219 1 1 1 s 1 -0.449219 1 -1 s -0.449219 -1 -1 -1 z m 0 0"/>
        <path d="m 12.949219 2.050781 c -0.257813 0 -0.511719 0.097657 -0.707031 0.292969 c -0.390626 0.390625 -0.390626 1.023438 0 1.414062 c 0.390624 0.390626 1.023437 0.390626 1.414062 0 c 0.390625 -0.390624 0.390625 -1.023437 0 -1.414062 c -0.195312 -0.195312 -0.449219 -0.292969 -0.707031 -0.292969 z m 0 0"/>
        <path d="m 3.050781 2.050781 c -0.257812 0 -0.511719 0.097657 -0.707031 0.292969 c -0.21875 0.21875 -0.316406 0.511719 -0.289062 0.796875 l 0.90625 0.90625 c 0.285156 0.027344 0.578124 -0.070313 0.796874 -0.289063 c 0.390626 -0.390624 0.390626 -1.023437 0 -1.414062 c -0.195312 -0.195312 -0.449218 -0.292969 -0.707031 -0.292969 z m 4.949219 0.949219 c -1.65625 0 -3.128906 0.804688 -4.039062 2.046875 l 6.988281 6.988281 c 0.824219 -0.601562 1.453125 -1.449218 1.789062 -2.429687 c -0.527343 0.25 -1.117187 0.394531 -1.738281 0.394531 c -2.210938 0 -4 -1.789062 -4 -4 c 0 -1.1875 0.519531 -2.253906 1.34375 -2.988281 c -0.113281 -0.007813 -0.230469 -0.011719 -0.34375 -0.011719 z m -7 4 c -0.550781 0 -1 0.449219 -1 1 s 0.449219 1 1 1 s 1 -0.449219 1 -1 s -0.449219 -1 -1 -1 z m 2.097656 0.011719 c -0.0625 0.320312 -0.097656 0.648437 -0.097656 0.988281 c 0 2.761719 2.238281 5 5 5 c 0.339844 0 0.667969 -0.035156 0.988281 -0.097656 z m -0.046875 4.9375 c -0.257812 0 -0.511719 0.097656 -0.707031 0.292969 c -0.390625 0.390624 -0.390625 1.023437 0 1.414062 s 1.023438 0.390625 1.414062 0 c 0.390626 -0.390625 0.390626 -1.023438 0 -1.414062 c -0.195312 -0.195313 -0.449218 -0.292969 -0.707031 -0.292969 z m 4.949219 2.050781 c -0.550781 0 -1 0.449219 -1 1 s 0.449219 1 1 1 s 1 -0.449219 1 -1 s -0.449219 -1 -1 -1 z m 0 0"/>
        <path d="m 8 0 c -0.550781 0 -1 0.449219 -1 1 s 0.449219 1 1 1 s 1 -0.449219 1 -1 s -0.449219 -1 -1 -1 z m 0 0"/>
    </g>
    <path d="m 1 1 l 14 14" fill="none" stroke="#2e3436" stroke-linejoin="round" stroke-width="2"/>
    <path d="m 1 1 l 14 14"/>
</svg>
