<?xml version="1.0" encoding="UTF-8"?>
<svg height="16px" viewBox="0 0 16 16" width="16px" xmlns="http://www.w3.org/2000/svg">
    <g fill="#2e3436">
        <path d="m 6.5 0 c -1.378906 0 -2.5 1.121094 -2.5 2.5 v 0.5 h -3 c -0.550781 0 -1 0.449219 -1 1 s 0.449219 1 1 1 h 0.660156 c -0.765625 2.683594 -0.808594 5.523438 -0.132812 8.230469 l 0.019531 0.070312 c 0.394531 1.589844 1.816406 2.699219 3.453125 2.699219 h 6 c 1.636719 0 3.058594 -1.109375 3.457031 -2.699219 l 0.015625 -0.070312 c 0.675782 -2.707031 0.632813 -5.546875 -0.128906 -8.230469 h 0.65625 c 0.550781 0 1 -0.449219 1 -1 s -0.449219 -1 -1 -1 h -3.019531 v -0.5 c 0 -1.378906 -1.121094 -2.5 -2.5 -2.5 z m 0 2 h 2.980469 c 0.285156 0 0.5 0.210938 0.5 0.5 v 0.5 h -3.980469 v -0.5 c 0 -0.289062 0.210938 -0.5 0.5 -0.5 z m -2.753906 3 h 8.511718 l 0.105469 0.351562 c 0.71875 2.40625 0.777344 4.957032 0.171875 7.390626 l -0.019531 0.074218 c -0.175781 0.699219 -0.792969 1.183594 -1.515625 1.183594 h -6 c -0.722656 0 -1.339844 -0.484375 -1.515625 -1.183594 l -0.015625 -0.074218 c -0.609375 -2.433594 -0.550781 -4.984376 0.171875 -7.390626 z m 0 0"/>
        <path d="m 6.5 7.191406 c -0.355469 0.855469 -0.480469 1.644532 -0.460938 2.402344 c 0.023438 0.761719 0.195313 1.5 0.46875 2.234375 c 0.0625 0.167969 0.03125 0.355469 -0.082031 0.492187 c -0.117187 0.140626 -0.296875 0.207032 -0.472656 0.175782 s -0.324219 -0.152344 -0.382813 -0.324219 c -0.601562 -1.625 -0.808593 -3.390625 0.003907 -5.363281 c 0.105469 -0.253906 0.398437 -0.375 0.65625 -0.269532 c 0.253906 0.105469 0.375 0.398438 0.269531 0.652344 z m 0 0"/>
        <path d="m 10.429688 6.808594 c 0.796874 1.929687 0.632812 3.707031 0.007812 5.367187 c -0.097656 0.257813 -0.386719 0.390625 -0.644531 0.292969 c -0.257813 -0.097656 -0.390625 -0.386719 -0.292969 -0.644531 c 0.558594 -1.484375 0.695312 -2.960938 0.007812 -4.632813 c -0.105468 -0.257812 0.015626 -0.546875 0.269532 -0.652344 c 0.253906 -0.105468 0.546875 0.015626 0.652344 0.269532 z m 0 0"/>
    </g>
</svg>
