<?xml version="1.0" encoding="UTF-8"?>
<svg height="16px" viewBox="0 0 16 16" width="16px" xmlns="http://www.w3.org/2000/svg">
    <path d="m 9 1 c -2.027344 0.003906 -3.855469 1.234375 -4.617188 3.113281 c -0.289062 -0.074219 -0.585937 -0.113281 -0.882812 -0.113281 c -1.933594 0 -3.5 1.566406 -3.5 3.5 s 1.566406 3.5 3.5 3.5 h 1.34375 c 0.628906 -1.742188 2.234375 -2.996094 4.15625 -3 c 1.476562 0 2.730469 0.832031 3.5625 2.011719 c 0.769531 0.015625 1.480469 0.28125 2.050781 0.71875 c 0.847657 -0.421875 1.386719 -1.285157 1.386719 -2.230469 c 0 -1.1875 -0.839844 -2.214844 -2.003906 -2.449219 c 0 -0.015625 0.003906 -0.035156 0.003906 -0.050781 c 0 -2.761719 -2.238281 -5 -5 -5 z m 0 8 c -1.765625 0.003906 -3.253906 1.320312 -3.46875 3.074219 c -0.175781 -0.050781 -0.351562 -0.074219 -0.53125 -0.074219 c -1.105469 0 -2 0.894531 -2 2 s 0.894531 2 2 2 h 7.5 c 1.378906 0 2.5 -1.121094 2.5 -2.5 s -1.121094 -2.5 -2.5 -2.5 c -0.109375 0 -0.21875 0.007812 -0.328125 0.023438 c -0.574219 -1.234376 -1.8125 -2.023438 -3.171875 -2.023438 z m 0 0" fill="#2e3436"/>
</svg>
