<?xml version="1.0" encoding="UTF-8"?>
<svg height="16px" viewBox="0 0 16 16" width="16px" xmlns="http://www.w3.org/2000/svg">
    <path d="m 9 0 c -2.027344 0.00390625 -3.855469 1.234375 -4.617188 3.113281 c -0.289062 -0.074219 -0.585937 -0.113281 -0.882812 -0.113281 c -1.933594 0 -3.5 1.566406 -3.5 3.5 s 1.566406 3.5 3.5 3.5 h 1.058594 l 0.96875 -4.222656 c 0.101562 -0.453125 0.507812 -0.777344 0.972656 -0.777344 h 3.75 c 0.3125 0 0.609375 0.148438 0.796875 0.394531 c 0.191406 0.25 0.25 0.574219 0.167969 0.875 l -0.769532 2.730469 h 1.554688 c 0.550781 0.003906 0.996094 0.449219 0.996094 1 h 0.503906 c 1.378906 0 2.5 -1.121094 2.5 -2.5 c 0 -1.1875 -0.839844 -2.214844 -2.003906 -2.449219 c 0 -0.015625 0.003906 -0.035156 0.003906 -0.050781 c 0 -2.761719 -2.238281 -5 -5 -5 z m -2.5 6 l -1.375 6 h 2.875 l -1 4 l 5 -6 h -2.875 l 1.125 -4 z m 0 0" fill="#2e3436"/>
</svg>
