<?xml version="1.0" encoding="UTF-8" standalone="no"?>
<!-- Created with Inkscape (http://www.inkscape.org/) -->
<svg
   xmlns:dc="http://purl.org/dc/elements/1.1/"
   xmlns:cc="http://web.resource.org/cc/"
   xmlns:rdf="http://www.w3.org/1999/02/22-rdf-syntax-ns#"
   xmlns:svg="http://www.w3.org/2000/svg"
   xmlns="http://www.w3.org/2000/svg"
   xmlns:xlink="http://www.w3.org/1999/xlink"
   xmlns:sodipodi="http://sodipodi.sourceforge.net/DTD/sodipodi-0.dtd"
   xmlns:inkscape="http://www.inkscape.org/namespaces/inkscape"
   width="22"
   height="22"
   id="svg2"
   sodipodi:version="0.32"
   inkscape:version="0.45"
   version="1.0"
   sodipodi:docbase="/home/lapo/Desktop/per git/emotes/22x22"
   sodipodi:docname="face-angel.svg"
   inkscape:export-filename="/home/lapo/Desktop/smileys.png"
   inkscape:export-xdpi="90"
   inkscape:export-ydpi="90"
   inkscape:output_extension="org.inkscape.output.svg.inkscape">
  <defs
     id="defs4">
    <linearGradient
       inkscape:collect="always"
       id="linearGradient7768">
      <stop
         style="stop-color:#ffffff;stop-opacity:1;"
         offset="0"
         id="stop7770" />
      <stop
         style="stop-color:#ffffff;stop-opacity:0;"
         offset="1"
         id="stop7772" />
    </linearGradient>
    <linearGradient
       inkscape:collect="always"
       id="linearGradient2897">
      <stop
         style="stop-color:black;stop-opacity:1;"
         offset="0"
         id="stop2899" />
      <stop
         style="stop-color:black;stop-opacity:0;"
         offset="1"
         id="stop2901" />
    </linearGradient>
    <linearGradient
       id="linearGradient2784">
      <stop
         style="stop-color:white;stop-opacity:1;"
         offset="0"
         id="stop2786" />
      <stop
         style="stop-color:white;stop-opacity:0.70588237;"
         offset="1"
         id="stop2788" />
    </linearGradient>
    <linearGradient
       id="linearGradient2770">
      <stop
         style="stop-color:white;stop-opacity:1"
         offset="0"
         id="stop2772" />
      <stop
         id="stop2885"
         offset="0.64999998"
         style="stop-color:#fce94f;stop-opacity:1;" />
      <stop
         style="stop-color:#edd400;stop-opacity:1"
         offset="1"
         id="stop2774" />
    </linearGradient>
    <radialGradient
       inkscape:collect="always"
       xlink:href="#linearGradient2897"
       id="radialGradient7295"
       gradientUnits="userSpaceOnUse"
       gradientTransform="matrix(1,0,0,0.599119,0,6.170917)"
       cx="11.027217"
       cy="15.393386"
       fx="11.027217"
       fy="15.393386"
       r="11.027217" />
    <radialGradient
       inkscape:collect="always"
       xlink:href="#linearGradient2770"
       id="radialGradient7297"
       gradientUnits="userSpaceOnUse"
       gradientTransform="matrix(1.094627,0,0,1.094627,-0.925692,-0.73699)"
       cx="9.3747082"
       cy="7.8025141"
       fx="9.3747082"
       fy="7.8025141"
       r="10.049342" />
    <linearGradient
       inkscape:collect="always"
       xlink:href="#linearGradient7768"
       id="linearGradient7299"
       gradientUnits="userSpaceOnUse"
       x1="71.451195"
       y1="-124.88343"
       x2="71.451195"
       y2="-117.86372" />
    <radialGradient
       inkscape:collect="always"
       xlink:href="#linearGradient2784"
       id="radialGradient7301"
       gradientUnits="userSpaceOnUse"
       cx="5.2865944"
       cy="3.462945"
       fx="5.2865944"
       fy="3.462945"
       r="10.108456" />
  </defs>
  <sodipodi:namedview
     id="base"
     pagecolor="#ffffff"
     bordercolor="#666666"
     borderopacity="1.0"
     inkscape:pageopacity="0"
     inkscape:pageshadow="2"
     inkscape:zoom="1"
     inkscape:cx="120.48393"
     inkscape:cy="-150.72516"
     inkscape:document-units="px"
     inkscape:current-layer="layer1"
     width="22px"
     height="22px"
     inkscape:showpageshadow="false"
     showgrid="false"
     gridempspacing="2"
     gridspacingx="0.5px"
     gridspacingy="0.5px"
     borderlayer="false"
     showborder="true"
     showguides="false"
     inkscape:guide-bbox="true"
     inkscape:window-width="1112"
     inkscape:window-height="940"
     inkscape:window-x="132"
     inkscape:window-y="55"
     inkscape:grid-points="true"
     inkscape:grid-bbox="true"
     inkscape:object-points="false"
     inkscape:object-paths="false">
    <sodipodi:guide
       orientation="vertical"
       position="24"
       id="guide8441" />
    <sodipodi:guide
       orientation="horizontal"
       position="175"
       id="guide8443" />
    <sodipodi:guide
       orientation="horizontal"
       position="167.00978"
       id="guide7776" />
    <sodipodi:guide
       orientation="vertical"
       position="71.020038"
       id="guide7778" />
  </sodipodi:namedview>
  <metadata
     id="metadata7">
    <rdf:RDF>
      <cc:Work
         rdf:about="">
        <dc:format>image/svg+xml</dc:format>
        <dc:type
           rdf:resource="http://purl.org/dc/dcmitype/StillImage" />
      </cc:Work>
    </rdf:RDF>
  </metadata>
  <g
     inkscape:label="Livello 1"
     inkscape:groupmode="layer"
     id="layer1"
     style="display:inline">
    <g
       id="g6685"
       transform="translate(0,-60)">
      <path
         inkscape:export-ydpi="90"
         inkscape:export-xdpi="90"
         inkscape:export-filename="/home/lapo/Desktop/something-along-the-lines.png"
         transform="matrix(1,0,0,0.983863,0,60.35503)"
         d="M 22.054434 15.393386 A 11.027217 6.6066141 0 1 1  0,15.393386 A 11.027217 6.6066141 0 1 1  22.054434 15.393386 z"
         sodipodi:ry="6.6066141"
         sodipodi:rx="11.027217"
         sodipodi:cy="15.393386"
         sodipodi:cx="11.027217"
         id="path3082"
         style="opacity:0.8;fill:url(#radialGradient7295);fill-opacity:1;stroke:none;stroke-width:0.98932183;stroke-linecap:round;stroke-linejoin:miter;stroke-miterlimit:4;stroke-dasharray:none;stroke-dashoffset:0;stroke-opacity:1"
         sodipodi:type="arc" />
      <path
         inkscape:export-ydpi="90"
         inkscape:export-xdpi="90"
         inkscape:export-filename="/home/lapo/Desktop/something-along-the-lines.png"
         sodipodi:nodetypes="csc"
         id="path3136"
         d="M 1.5,64 C 1.5,62.62 5.756,61.5 11,61.5 C 16.244,61.5 20.5,62.62 20.5,64"
         style="fill:none;fill-opacity:1;stroke:#d3d7cf;stroke-width:3;stroke-linecap:round;stroke-linejoin:miter;stroke-miterlimit:4;stroke-dashoffset:0;stroke-opacity:1" />
      <path
         inkscape:export-ydpi="90"
         inkscape:export-xdpi="90"
         inkscape:export-filename="/home/lapo/Desktop/something-along-the-lines.png"
         transform="matrix(0.99509,0,0,0.99509,-0.9877,61.00245)"
         d="M 21.59375 10.046875 A 9.546875 9.546875 0 1 1  2.5,10.046875 A 9.546875 9.546875 0 1 1  21.59375 10.046875 z"
         sodipodi:ry="9.546875"
         sodipodi:rx="9.546875"
         sodipodi:cy="10.046875"
         sodipodi:cx="12.046875"
         id="path3084"
         style="opacity:1;fill:url(#radialGradient7297);fill-opacity:1;stroke:#c4a000;stroke-width:1.00493419;stroke-linecap:round;stroke-linejoin:miter;stroke-miterlimit:4;stroke-dasharray:none;stroke-dashoffset:0;stroke-opacity:1"
         sodipodi:type="arc" />
      <path
         inkscape:transform-center-x="0.97056829"
         inkscape:transform-center-y="-3.622222"
         transform="matrix(1.0966099,-0.2938357,0.2202716,0.8220649,-41.632111,188.08809)"
         d="M 76.8125 -121.28125 A 5.3125 4.40625 0 1 1  66.1875,-121.28125 A 5.3125 4.40625 0 1 1  76.8125 -121.28125 z"
         sodipodi:ry="4.40625"
         sodipodi:rx="5.3125"
         sodipodi:cy="-121.28125"
         sodipodi:cx="71.5"
         id="path7796"
         style="opacity:1;fill:url(#linearGradient7299);fill-opacity:1;fill-rule:evenodd;stroke:none;stroke-width:1;stroke-linecap:round;stroke-linejoin:round;stroke-miterlimit:4;stroke-dasharray:none;stroke-dashoffset:0.69999992;stroke-opacity:1;display:inline"
         sodipodi:type="arc" />
      <path
         inkscape:export-ydpi="90"
         inkscape:export-xdpi="90"
         inkscape:export-filename="/home/lapo/Desktop/something-along-the-lines.png"
         transform="matrix(0.890344,0,0,0.890344,0.2741,62.05483)"
         d="M 21.59375 10.046875 A 9.546875 9.546875 0 1 1  2.5,10.046875 A 9.546875 9.546875 0 1 1  21.59375 10.046875 z"
         sodipodi:ry="9.546875"
         sodipodi:rx="9.546875"
         sodipodi:cy="10.046875"
         sodipodi:cx="12.046875"
         id="path3090"
         style="opacity:1;fill:none;fill-opacity:1;stroke:url(#radialGradient7301);stroke-width:1.12316179;stroke-linecap:round;stroke-linejoin:miter;stroke-miterlimit:4;stroke-dasharray:none;stroke-dashoffset:0;stroke-opacity:1"
         sodipodi:type="arc" />
      <path
         inkscape:export-ydpi="90"
         inkscape:export-xdpi="90"
         inkscape:export-filename="/home/lapo/Desktop/something-along-the-lines.png"
         sodipodi:nodetypes="css"
         id="path3128"
         d="M 20.5,64 C 20.5,65.38 16.244,66.5 11,66.5 C 5.756,66.5 1.5,65.38 1.5,64"
         style="fill:none;fill-opacity:1;stroke:#d3d7cf;stroke-width:3;stroke-linecap:round;stroke-linejoin:miter;stroke-miterlimit:4;stroke-dashoffset:0;stroke-opacity:1" />
      <path
         inkscape:export-ydpi="90"
         inkscape:export-xdpi="90"
         inkscape:export-filename="/home/lapo/Desktop/something-along-the-lines.png"
         id="path3142"
         d="M 10.15625,61.03125 C 7.84079,61.08489 5.74242,61.33259 4.15625,61.75 C 3.26626,61.98421 2.51902,62.25158 1.96875,62.59375 C 1.41848,62.93592 1,63.39799 1,64 C 1,64.60201 1.41848,65.06408 1.96875,65.40625 C 2.51902,65.74842 3.26626,66.01579 4.15625,66.25 C 5.93624,66.71842 8.3424,67 11,67 C 13.6576,67 16.06376,66.71842 17.84375,66.25 C 18.73374,66.01579 19.48098,65.74842 20.03125,65.40625 C 20.58152,65.06408 21,64.60201 21,64 C 21,63.39799 20.58152,62.93592 20.03125,62.59375 C 19.48098,62.25158 18.73374,61.98421 17.84375,61.75 C 16.25758,61.33259 14.15921,61.08489 11.84375,61.03125 C 13.37631,61.16064 14.77411,61.65588 16.03125,62.40625 C 16.59403,62.50148 17.12918,62.59649 17.59375,62.71875 C 18.42326,62.93704 19.08839,63.18155 19.5,63.4375 C 19.91161,63.69345 20,63.912 20,64 C 20,64.088 19.91161,64.30655 19.5,64.5625 C 19.08839,64.81845 18.42326,65.06296 17.59375,65.28125 C 15.93474,65.71783 13.5864,66 11,66 C 8.4136,66 6.06526,65.71783 4.40625,65.28125 C 3.57674,65.06296 2.91161,64.81845 2.5,64.5625 C 2.08839,64.30655 2,64.088 2,64 C 2,63.912 2.08839,63.69345 2.5,63.4375 C 2.91161,63.18155 3.57674,62.93704 4.40625,62.71875 C 4.84656,62.60288 5.34601,62.49798 5.875,62.40625 C 7.1478,61.64534 8.60076,61.16011 10.15625,61.03125 z "
         style="fill:#ffffff;fill-opacity:1;stroke:none;stroke-width:1;stroke-linecap:round;stroke-linejoin:miter;stroke-miterlimit:4;stroke-dashoffset:0;stroke-opacity:1" />
      <path
         sodipodi:nodetypes="cc"
         inkscape:export-ydpi="90"
         inkscape:export-xdpi="90"
         inkscape:export-filename="/home/lapo/Desktop/something-along-the-lines.png"
         id="path2063"
         d="M 10.49999,76.5 L 12.49999,76.5"
         style="fill:none;fill-rule:evenodd;stroke:#c4a000;stroke-width:0.99999911px;stroke-linecap:round;stroke-linejoin:miter;stroke-opacity:1;display:inline" />
      <path
         sodipodi:nodetypes="cc"
         inkscape:export-ydpi="90"
         inkscape:export-xdpi="90"
         inkscape:export-filename="/home/lapo/Desktop/something-along-the-lines.png"
         id="path2066"
         d="M 10.49999,77.5 L 12.49999,77.5"
         style="opacity:0.6;fill:none;fill-rule:evenodd;stroke:#ffffff;stroke-width:0.99999976px;stroke-linecap:round;stroke-linejoin:miter;stroke-opacity:1;display:inline" />
      <g
         transform="translate(0,61)"
         inkscape:export-ydpi="90"
         inkscape:export-xdpi="90"
         inkscape:export-filename="/home/lapo/Desktop/something-along-the-lines.png"
         style="opacity:0.6;display:inline"
         id="g3626">
        <path
           style="fill:none;fill-rule:evenodd;stroke:#ffffff;stroke-width:1px;stroke-linecap:square;stroke-linejoin:miter;stroke-opacity:1"
           d="M 7.5,10.5 C 7.5,11 7.5,11.5 9,11.5 C 10.5,11.5 10.5,11 10.5,10.5"
           id="path3628"
           sodipodi:nodetypes="czc" />
        <path
           style="fill:none;fill-rule:evenodd;stroke:#ffffff;stroke-width:1px;stroke-linecap:square;stroke-linejoin:miter;stroke-opacity:1"
           d="M 12.5,10.5 C 12.5,11 12.5,11.5 14,11.5 C 15.5,11.5 15.5,11 15.5,10.5"
           id="path3630"
           sodipodi:nodetypes="czc" />
      </g>
      <g
         transform="translate(0,61)"
         inkscape:export-ydpi="90"
         inkscape:export-xdpi="90"
         inkscape:export-filename="/home/lapo/Desktop/something-along-the-lines.png"
         id="g3632"
         style="display:inline">
        <path
           style="fill:none;fill-rule:evenodd;stroke:#888a85;stroke-width:1px;stroke-linecap:square;stroke-linejoin:miter;stroke-opacity:1"
           d="M 7.5,9.5 C 7.5,10 7.5,10.5 9,10.5 C 10.5,10.5 10.5,10 10.5,9.5"
           id="path3634"
           sodipodi:nodetypes="czc" />
        <path
           style="fill:none;fill-rule:evenodd;stroke:#888a85;stroke-width:1px;stroke-linecap:square;stroke-linejoin:miter;stroke-opacity:1"
           d="M 12.5,9.5 C 12.5,10 12.5,10.5 14,10.5 C 15.5,10.5 15.5,10 15.5,9.5"
           id="path3636"
           sodipodi:nodetypes="czc" />
      </g>
    </g>
  </g>
</svg>
