<?xml version="1.0" encoding="UTF-8" standalone="no"?>
<!-- Created with Inkscape (http://www.inkscape.org/) -->
<svg
   xmlns:dc="http://purl.org/dc/elements/1.1/"
   xmlns:cc="http://web.resource.org/cc/"
   xmlns:rdf="http://www.w3.org/1999/02/22-rdf-syntax-ns#"
   xmlns:svg="http://www.w3.org/2000/svg"
   xmlns="http://www.w3.org/2000/svg"
   xmlns:xlink="http://www.w3.org/1999/xlink"
   xmlns:sodipodi="http://sodipodi.sourceforge.net/DTD/sodipodi-0.dtd"
   xmlns:inkscape="http://www.inkscape.org/namespaces/inkscape"
   width="22"
   height="22"
   id="svg2"
   sodipodi:version="0.32"
   inkscape:version="0.44+devel"
   version="1.0"
   sodipodi:docbase="/home/andreas/project/gnome-icon-theme/22x22/emotes"
   sodipodi:docname="face-glasses.svg"
   inkscape:export-filename="/home/andreas/project/gnome-icon-theme/22x22/emotes/face-glasses.png"
   inkscape:export-xdpi="90"
   inkscape:export-ydpi="90"
   inkscape:output_extension="org.inkscape.output.svg.inkscape"
   sodipodi:modified="true">
  <defs
     id="defs4">
    <linearGradient
       inkscape:collect="always"
       id="linearGradient3150">
      <stop
         style="stop-color:#2e3436;stop-opacity:1;"
         offset="0"
         id="stop3152" />
      <stop
         style="stop-color:#2e3436;stop-opacity:0;"
         offset="1"
         id="stop3154" />
    </linearGradient>
    <linearGradient
       inkscape:collect="always"
       id="linearGradient3104">
      <stop
         style="stop-color:#eeeeec;stop-opacity:1;"
         offset="0"
         id="stop3106" />
      <stop
         style="stop-color:#eeeeec;stop-opacity:0;"
         offset="1"
         id="stop3108" />
    </linearGradient>
    <radialGradient
       inkscape:collect="always"
       xlink:href="#linearGradient3104"
       id="radialGradient3114"
       cx="8.3343515"
       cy="14.186539"
       fx="8.3343515"
       fy="14.186539"
       r="9.975256"
       gradientUnits="userSpaceOnUse"
       gradientTransform="matrix(-0.9327,0.932656,-0.947494,-0.947449,33.02126,11.96667)" />
    <radialGradient
       inkscape:collect="always"
       xlink:href="#linearGradient3150"
       id="radialGradient3156"
       cx="10.748654"
       cy="10.457643"
       fx="10.748654"
       fy="10.457643"
       r="6.6449099"
       gradientTransform="matrix(-0.842757,0,0,-0.35721,19.80716,14.19321)"
       gradientUnits="userSpaceOnUse" />
  </defs>
  <sodipodi:namedview
     id="base"
     pagecolor="#ffffff"
     bordercolor="#666666"
     borderopacity="1.0"
     inkscape:pageopacity="0.0"
     inkscape:pageshadow="2"
     inkscape:zoom="31.678384"
     inkscape:cx="17.330735"
     inkscape:cy="9.5286515"
     inkscape:document-units="px"
     inkscape:current-layer="layer1"
     showgrid="false"
     fill="#eeeeec"
     inkscape:window-width="1680"
     inkscape:window-height="974"
     inkscape:window-x="0"
     inkscape:window-y="26"
     width="22px"
     height="22px" />
  <metadata
     id="metadata7">
    <rdf:RDF>
      <cc:Work
         rdf:about="">
        <dc:format>image/svg+xml</dc:format>
        <dc:type
           rdf:resource="http://purl.org/dc/dcmitype/StillImage" />
      </cc:Work>
    </rdf:RDF>
  </metadata>
  <g
     inkscape:label="Layer 1"
     inkscape:groupmode="layer"
     id="layer1">
    <path
       sodipodi:type="arc"
       style="opacity:0.6;fill:url(#radialGradient3156);fill-opacity:1;stroke:none;stroke-width:1;stroke-miterlimit:4;stroke-dasharray:none;stroke-opacity:1"
       id="path3140"
       sodipodi:cx="10.748654"
       sodipodi:cy="10.457643"
       sodipodi:rx="6.6449099"
       sodipodi:ry="2.3675451"
       d="M 17.393564 10.457643 A 6.6449099 2.3675451 0 1 1  4.1037445,10.457643 A 6.6449099 2.3675451 0 1 1  17.393564 10.457643 z"
       transform="matrix(1.504911,0,0,1.2671352,-5.1749624,5.7487526)" />
    <path
       sodipodi:type="arc"
       style="opacity:1;fill:#edd400;fill-opacity:1;stroke:#f57900;stroke-width:1.05276573;stroke-miterlimit:4;stroke-dasharray:none;stroke-opacity:1"
       id="path1307"
       sodipodi:cx="11.806158"
       sodipodi:cy="10.983024"
       sodipodi:rx="9.975256"
       sodipodi:ry="9.975256"
       d="M 21.781414 10.983024 A 9.975256 9.975256 0 1 1  1.8309021,10.983024 A 9.975256 9.975256 0 1 1  21.781414 10.983024 z"
       transform="matrix(0.952236,0,0,0.952236,-0.2414774,0.5416081)" />
    <path
       sodipodi:type="arc"
       style="opacity:0.79545456;fill:url(#radialGradient3114);fill-opacity:1;stroke:none;stroke-width:1.05274069;stroke-miterlimit:4;stroke-dasharray:none;stroke-opacity:1"
       id="path3102"
       sodipodi:cx="11.806158"
       sodipodi:cy="10.983024"
       sodipodi:rx="9.975256"
       sodipodi:ry="9.975256"
       d="M 21.781414 10.983024 A 9.975256 9.975256 0 1 1  1.8309021,10.983024 A 9.975256 9.975256 0 1 1  21.781414 10.983024 z"
       transform="matrix(0.8019,0,0,0.801938,1.5342936,2.1918331)" />
    <path
       sodipodi:type="arc"
       style="opacity:0.5;fill:none;fill-opacity:1;stroke:#ffffff;stroke-width:1.17343903;stroke-miterlimit:4;stroke-dasharray:none;stroke-opacity:1"
       id="path2184"
       sodipodi:cx="11.806158"
       sodipodi:cy="10.983024"
       sodipodi:rx="9.975256"
       sodipodi:ry="9.975256"
       d="M 21.781414 10.983024 A 9.975256 9.975256 0 1 1  1.8309021,10.983024 A 9.975256 9.975256 0 1 1  21.781414 10.983024 z"
       transform="matrix(0.852176,0,0,0.852216,0.9398996,1.6396261)" />
    <path
       style="opacity:1;fill:#2e3436;fill-opacity:1;stroke:none;stroke-width:1;stroke-miterlimit:4;stroke-dasharray:none;stroke-opacity:1"
       d="M 16.00081,12 C 15.414329,14.283765 13.404629,16 11.00081,16 C 8.5969916,16 6.5872906,14.283765 6.0008096,12 C 7.0545566,13.478811 8.9052526,15.044402 11.00081,15.044402 C 13.096366,15.044403 14.947063,13.478811 16.00081,12 z "
       id="path2186"
       sodipodi:nodetypes="cscsc" />
    <path
       sodipodi:type="arc"
       style="opacity:1;fill:#eeeeec;fill-opacity:0.41212122;stroke:#3465a4;stroke-width:1.31045115;stroke-miterlimit:4;stroke-dasharray:none;stroke-opacity:1"
       id="path2200"
       sodipodi:cx="5.8715115"
       sodipodi:cy="10.71018"
       sodipodi:rx="5.5558391"
       sodipodi:ry="5.5558391"
       d="M 11.427351 10.71018 A 5.5558391 5.5558391 0 1 1  0.3156724,10.71018 A 5.5558391 5.5558391 0 1 1  11.427351 10.71018 z"
       transform="matrix(0.809886,0,0,0.719007,0.2451506,0.7939921)" />
    <path
       sodipodi:type="arc"
       style="opacity:1;fill:#eeeeec;fill-opacity:0.4;stroke:#3465a4;stroke-width:1.31045115;stroke-miterlimit:4;stroke-dasharray:none;stroke-opacity:1"
       id="path2212"
       sodipodi:cx="5.8715115"
       sodipodi:cy="10.71018"
       sodipodi:rx="5.5558391"
       sodipodi:ry="5.5558391"
       d="M 11.427351 10.71018 A 5.5558391 5.5558391 0 1 1  0.3156724,10.71018 A 5.5558391 5.5558391 0 1 1  11.427351 10.71018 z"
       transform="matrix(0.809886,0,0,0.719007,12.24515,0.8046191)" />
    <path
       sodipodi:type="arc"
       style="opacity:1;fill:#555753;fill-opacity:1;stroke:none;stroke-width:1.39820731;stroke-miterlimit:4;stroke-dasharray:none;stroke-opacity:1"
       id="path2214"
       sodipodi:cx="5.8715115"
       sodipodi:cy="10.71018"
       sodipodi:rx="5.5558391"
       sodipodi:ry="5.5558391"
       d="M 11.427351 10.71018 A 5.5558391 5.5558391 0 1 1  0.3156724,10.71018 A 5.5558391 5.5558391 0 1 1  11.427351 10.71018 z"
       transform="matrix(0.36078,0,0,0.449977,14.87805,3.6806661)" />
    <rect
       style="opacity:1;fill:#888a85;fill-opacity:1;stroke:none;stroke-width:1;stroke-miterlimit:4;stroke-dasharray:none;stroke-opacity:1"
       id="rect2216"
       width="2"
       height="1"
       x="10.00081"
       y="8"
       rx="0.47350901"
       ry="0.47350901" />
    <path
       sodipodi:type="arc"
       style="opacity:1;fill:#555753;fill-opacity:1;stroke:none;stroke-width:1.39820731;stroke-miterlimit:4;stroke-dasharray:none;stroke-opacity:1"
       id="path2219"
       sodipodi:cx="5.8715115"
       sodipodi:cy="10.71018"
       sodipodi:rx="5.5558391"
       sodipodi:ry="5.5558391"
       d="M 11.427351 10.71018 A 5.5558391 5.5558391 0 1 1  0.3156724,10.71018 A 5.5558391 5.5558391 0 1 1  11.427351 10.71018 z"
       transform="matrix(0.36078,0,0,0.449977,2.8780496,3.6806651)" />
    <path
       sodipodi:type="arc"
       style="opacity:0.5;fill:#eeeeec;fill-opacity:1;stroke:none;stroke-width:1.19358861;stroke-miterlimit:4;stroke-dasharray:none;stroke-opacity:1"
       id="path2223"
       sodipodi:cx="5.9188623"
       sodipodi:cy="10.205105"
       sodipodi:rx="1.7519833"
       sodipodi:ry="1.9887378"
       d="M 7.6708456 10.205105 A 1.7519833 1.9887378 0 1 1  4.1668791,10.205105 A 1.7519833 1.9887378 0 1 1  7.6708456 10.205105 z"
       transform="matrix(1.141564,0,0,0.754247,9.2440496,-0.1971709)" />
    <path
       sodipodi:type="arc"
       style="opacity:0.5;fill:#eeeeec;fill-opacity:1;stroke:none;stroke-width:1.19358861;stroke-miterlimit:4;stroke-dasharray:none;stroke-opacity:1"
       id="path2225"
       sodipodi:cx="5.9188623"
       sodipodi:cy="10.205105"
       sodipodi:rx="1.7519833"
       sodipodi:ry="1.9887378"
       d="M 7.6708456 10.205105 A 1.7519833 1.9887378 0 1 1  4.1668791,10.205105 A 1.7519833 1.9887378 0 1 1  7.6708456 10.205105 z"
       transform="matrix(1.141564,0,0,0.754247,-2.7559514,-0.1971689)" />
  </g>
</svg>
