<?xml version="1.0" encoding="UTF-8" standalone="no"?>
<!-- Created with Inkscape (http://www.inkscape.org/) -->

<svg
   xmlns:dc="http://purl.org/dc/elements/1.1/"
   xmlns:cc="http://creativecommons.org/ns#"
   xmlns:rdf="http://www.w3.org/1999/02/22-rdf-syntax-ns#"
   xmlns:svg="http://www.w3.org/2000/svg"
   xmlns="http://www.w3.org/2000/svg"
   xmlns:xlink="http://www.w3.org/1999/xlink"
   xmlns:sodipodi="http://sodipodi.sourceforge.net/DTD/sodipodi-0.dtd"
   xmlns:inkscape="http://www.inkscape.org/namespaces/inkscape"
   height="300"
   id="svg11300"
   inkscape:export-filename="/home/jimmac/Desktop/wi-fi.png"
   inkscape:export-xdpi="90.000000"
   inkscape:export-ydpi="90.000000"
   inkscape:output_extension="org.inkscape.output.svg.inkscape"
   inkscape:version="0.91 r13725"
   sodipodi:docname="emblem-new.svg"
   sodipodi:version="0.32"
   style="display:inline;enable-background:new"
   version="1.0"
   width="400">
  <title
     id="title8836">Optical Drive</title>
  <metadata
     id="metadata154">
    <rdf:RDF>
      <cc:Work
         rdf:about="">
        <dc:format>image/svg+xml</dc:format>
        <dc:type
           rdf:resource="http://purl.org/dc/dcmitype/StillImage" />
        <dc:title />
        <dc:creator>
          <cc:Agent>
            <dc:title />
          </cc:Agent>
        </dc:creator>
        <dc:contributor>
          <cc:Agent>
            <dc:title />
          </cc:Agent>
        </dc:contributor>
        <dc:source />
        <cc:license
           rdf:resource="" />
        <dc:subject>
          <rdf:Bag />
        </dc:subject>
      </cc:Work>
    </rdf:RDF>
  </metadata>
  <sodipodi:namedview
     bordercolor="#666666"
     borderopacity="0.25490196"
     fill="#f57900"
     gridtolerance="12"
     guidetolerance="13"
     height="300px"
     id="base"
     inkscape:current-layer="layer2"
     inkscape:cx="161.32187"
     inkscape:cy="127.76389"
     inkscape:document-units="px"
     inkscape:grid-bbox="true"
     inkscape:guide-bbox="true"
     inkscape:pageopacity="0.0"
     inkscape:pageshadow="2"
     inkscape:showpageshadow="false"
     inkscape:snap-bbox="true"
     inkscape:snap-nodes="true"
     inkscape:window-height="1376"
     inkscape:window-width="2560"
     inkscape:window-x="0"
     inkscape:window-y="27"
     inkscape:zoom="1"
     objecttolerance="7"
     pagecolor="#ffffff"
     showgrid="false"
     showguides="true"
     stroke="#ef2929"
     width="400px"
     inkscape:window-maximized="1">
    <inkscape:grid
       empspacing="2"
       enabled="true"
       id="grid5883"
       spacingx="0.5px"
       spacingy="0.5px"
       type="xygrid"
       visible="true" />
  </sodipodi:namedview>
  <defs
     id="defs3">
    <linearGradient
       id="linearGradient1886">
      <stop
         id="stop1888"
         offset="0"
         style="stop-color:#fce94f;stop-opacity:1;" />
      <stop
         id="stop1890"
         offset="1"
         style="stop-color:white;stop-opacity:1" />
    </linearGradient>
    <linearGradient
       id="linearGradient2786">
      <stop
         id="stop2788"
         offset="0"
         style="stop-color:#fce94f;stop-opacity:1;" />
      <stop
         style="stop-color:#fce94f;stop-opacity:0.49803922;"
         offset="0.5"
         id="stop2860" />
      <stop
         id="stop2790"
         offset="1"
         style="stop-color:#fce94f;stop-opacity:0;" />
    </linearGradient>
    <linearGradient
       id="linearGradient2760">
      <stop
         id="stop2762"
         offset="0"
         style="stop-color:white;stop-opacity:1;" />
      <stop
         id="stop1884"
         offset="0.36585367"
         style="stop-color:white;stop-opacity:1;" />
      <stop
         id="stop2764"
         offset="1"
         style="stop-color:#fce94f;stop-opacity:1;" />
    </linearGradient>
    <radialGradient
       cx="4.8321624"
       cy="1.09216"
       fx="4.8321624"
       fy="1.09216"
       gradientTransform="matrix(1.6904284,0,0,1.6154841,-0.69085807,2.7254078)"
       gradientUnits="userSpaceOnUse"
       id="radialGradient2766"
       inkscape:collect="always"
       r="15.17675"
       xlink:href="#linearGradient2760" />
    <radialGradient
       cx="25"
       cy="22"
       fx="25"
       fy="22"
       gradientTransform="matrix(1.30147,0,0,1.224913,-7.536765,-3.448096)"
       gradientUnits="userSpaceOnUse"
       id="radialGradient2792"
       inkscape:collect="always"
       r="17"
       xlink:href="#linearGradient2786" />
    <linearGradient
       gradientUnits="userSpaceOnUse"
       id="linearGradient1892"
       inkscape:collect="always"
       x1="20.374401"
       x2="-4.173214"
       xlink:href="#linearGradient1886"
       y1="16.574726"
       y2="-23.197165" />
    <linearGradient
       id="linearGradient2378">
      <stop
         id="stop2380"
         offset="0"
         style="stop-color:#ffffff;stop-opacity:1;" />
      <stop
         id="stop4146"
         offset="0.25"
         style="stop-color:#fefede;stop-opacity:0.91836733;" />
      <stop
         id="stop2386"
         offset="0.5"
         style="stop-color:#f5f328;stop-opacity:1;" />
      <stop
         id="stop2382"
         offset="1"
         style="stop-color:#f5f32d;stop-opacity:0.12234043;" />
    </linearGradient>
    <radialGradient
       cx="38.658855"
       cy="9.3411446"
       fx="38.658855"
       fy="9.3411446"
       gradientUnits="userSpaceOnUse"
       id="radialGradient1996"
       inkscape:collect="always"
       r="8.341651"
       xlink:href="#linearGradient2378" />
    <radialGradient
       inkscape:collect="always"
       xlink:href="#linearGradient2786"
       id="radialGradient2858"
       gradientUnits="userSpaceOnUse"
       gradientTransform="matrix(0.93630909,0,0,0.86549418,-0.79637233,1.9509996)"
       cx="17.854244"
       cy="15.635843"
       fx="17.854244"
       fy="15.635843"
       r="17" />
    <radialGradient
       inkscape:collect="always"
       xlink:href="#linearGradient2760"
       id="radialGradient2860"
       gradientUnits="userSpaceOnUse"
       gradientTransform="matrix(1.691479,0,0,1.6164882,-0.69593487,2.7243112)"
       cx="4.8321624"
       cy="1.09216"
       fx="4.8321624"
       fy="1.09216"
       r="15.17675" />
    <radialGradient
       inkscape:collect="always"
       xlink:href="#linearGradient2378"
       id="radialGradient7347"
       gradientUnits="userSpaceOnUse"
       cx="38.658855"
       cy="9.3411446"
       fx="38.658855"
       fy="9.3411446"
       r="8.341651" />
    <linearGradient
       inkscape:collect="always"
       xlink:href="#linearGradient1886"
       id="linearGradient7349"
       gradientUnits="userSpaceOnUse"
       x1="20.374401"
       y1="16.574726"
       x2="-4.173214"
       y2="-23.197165" />
  </defs>
  <g
     id="layer6"
     inkscape:groupmode="layer"
     inkscape:label="baseplate"
     style="display:none">
    <rect
       height="48"
       id="rect6284"
       inkscape:label="48x48"
       style="display:inline;overflow:visible;visibility:visible;fill:#eeeeec;fill-opacity:1;fill-rule:nonzero;stroke:none;stroke-width:2;marker:none;enable-background:accumulate"
       width="48"
       x="296"
       y="50" />
    <rect
       height="32"
       id="rect6592"
       inkscape:label="32x32"
       style="display:inline;overflow:visible;visibility:visible;fill:#eeeeec;fill-opacity:1;fill-rule:nonzero;stroke:none;stroke-width:2;marker:none;enable-background:accumulate"
       width="32"
       x="303"
       y="126" />
    <rect
       height="24"
       id="rect6749-0"
       inkscape:label="24x24"
       style="display:inline;overflow:visible;visibility:visible;fill:#ffffff;fill-opacity:1;fill-rule:nonzero;stroke:none;stroke-width:2;marker:none;enable-background:accumulate"
       width="24"
       x="302"
       y="176" />
    <rect
       height="22"
       id="rect6749"
       inkscape:label="22x22"
       style="display:inline;overflow:visible;visibility:visible;fill:#eeeeec;fill-opacity:1;fill-rule:nonzero;stroke:none;stroke-width:2;marker:none;enable-background:accumulate"
       width="22"
       x="303"
       y="177" />
    <rect
       height="16"
       id="rect6833"
       inkscape:label="16x16"
       style="display:inline;overflow:visible;visibility:visible;fill:#eeeeec;fill-opacity:1;fill-rule:nonzero;stroke:none;stroke-width:2;marker:none;enable-background:accumulate"
       width="16"
       x="303"
       y="219" />
    <text
       id="context"
       inkscape:label="context"
       style="font-style:normal;font-weight:normal;font-size:18.30070686px;font-family:'Bitstream Vera Sans';display:inline;fill:#000000;fill-opacity:1;stroke:none;enable-background:new"
       x="20.970737"
       xml:space="preserve"
       y="21.513618"><tspan
         id="tspan2716"
         sodipodi:role="line"
         x="20.970737"
         y="21.513618">emblems</tspan></text>
    <text
       id="icon-name"
       inkscape:label="icon-name"
       sodipodi:linespacing="125%"
       style="font-style:normal;font-variant:normal;font-weight:bold;font-stretch:normal;font-size:18.30070686px;line-height:125%;font-family:'Droid Sans';-inkscape-font-specification:'Droid Sans Bold';text-align:start;writing-mode:lr-tb;text-anchor:start;display:inline;fill:#000000;fill-opacity:1;stroke:none;enable-background:new"
       x="191.97073"
       xml:space="preserve"
       y="21.513618"><tspan
         id="tspan3023"
         sodipodi:role="line"
         x="191.97073"
         y="21.513618">emblem-new</tspan></text>
    <rect
       y="247"
       x="303"
       width="8"
       style="display:inline;overflow:visible;visibility:visible;fill:#eeeeec;fill-opacity:1;fill-rule:nonzero;stroke:none;stroke-width:2;marker:none;enable-background:accumulate"
       inkscape:label="16x16"
       id="rect7351"
       height="8" />
  </g>
  <g
     id="layer2"
     inkscape:groupmode="layer"
     inkscape:label="small sizes"
     style="display:inline">
    <g
       id="g48"
       style="display:inline;enable-background:new"
       transform="translate(536,50)">
      <rect
         height="41.647057"
         id="rect2776"
         style="fill:url(#radialGradient2792);fill-opacity:1;stroke:none"
         width="44.25"
         x="2.875"
         y="2.6764705" />
      <path
         d="m 11,-7.2520323 c 1.781445,0 3.790132,7.12958977 5.23135,8.17669647 1.441219,1.04710673 8.84258,0.75431763 9.393077,2.44857193 0.550496,1.6942542 -5.609428,5.8077933 -6.159925,7.5020479 -0.550496,1.694254 2.015109,8.64289 0.57389,9.689997 C 18.597174,21.612387 12.781444,17.025105 11,17.025105 9.2185557,17.025104 3.4028256,21.612387 1.9616069,20.56528 0.52038819,19.518174 3.0859941,12.569538 2.5354976,10.875284 1.9850011,9.1810293 -4.1749232,5.0674896 -3.6244266,3.3732353 -3.0739301,1.6789811 4.3274311,1.9717708 5.7686498,0.92466421 7.2098686,-0.12244246 9.2185561,-7.2520323 11,-7.2520323 Z"
         id="path1869"
         inkscape:flatsided="false"
         inkscape:randomized="0"
         inkscape:rounded="0.18352206"
         sodipodi:arg1="-1.5707963"
         sodipodi:arg2="-0.9424778"
         sodipodi:cx="11"
         sodipodi:cy="8.125"
         sodipodi:r1="15.377032"
         sodipodi:r2="8.9001045"
         sodipodi:sides="5"
         sodipodi:type="star"
         style="fill:url(#radialGradient2860);fill-opacity:1;stroke:url(#linearGradient1892);stroke-width:1.03510201;stroke-linecap:butt;stroke-linejoin:miter;stroke-miterlimit:4;stroke-dasharray:none;stroke-dashoffset:0;stroke-opacity:1"
         transform="matrix(1.120396,0,0,1.105138,12.67565,14.55764)" />
      <path
         d="m 11,-6.2539062 c 0.110128,0 0.09653,-0.03915 -0.02539,0.066406 -0.121926,0.1055567 -0.311279,0.3262923 -0.511718,0.625 C 10.062013,-4.9650846 9.6086963,-4.0696228 9.1640625,-3.125 8.7194287,-2.1803772 8.2789163,-1.1848305 7.8417969,-0.33007812 7.4046775,0.52467428 7.0746622,1.2301303 6.3671875,1.7441406 5.6596712,2.2581813 4.888019,2.3538654 3.9394531,2.5058594 2.9908872,2.6578533 1.9057859,2.7708501 0.86914062,2.9023438 -0.16750465,3.0338374 -1.1607134,3.1877172 -1.8535156,3.3847656 c -0.3464011,0.098524 -0.6155634,0.2114139 -0.7539063,0.2949219 -0.1383428,0.083508 -0.1044182,0.1088728 -0.070312,0.00391 0.033816,-0.1040766 -0.00786,-0.1039835 0.054687,0.044922 0.062549,0.1489053 0.2141313,0.3984425 0.4355469,0.6816406 0.4428312,0.5663963 1.1533629,1.2746869 1.91210938,1.9902344 0.75874652,0.7155476 1.56617592,1.4426201 2.24218752,2.1230469 0.6760115,0.6804268 1.242035,1.2129678 1.5117187,2.0429685 0.2694319,0.829226 0.1245164,1.593159 -0.021484,2.541016 -0.1460007,0.947857 -0.3704389,2.012096 -0.5625,3.037109 -0.192061,1.025014 -0.3484909,2.015663 -0.3730468,2.734375 -0.012278,0.359356 0.013669,0.651129 0.050781,0.808594 0.037112,0.157465 0.070782,0.132556 -0.017578,0.06836 -0.088258,-0.06412 -0.1003063,-0.02373 0.060547,-0.03711 0.1608532,-0.01338 0.44371,-0.08033 0.78125,-0.203125 C 4.0715643,19.270027 4.9644403,18.814186 5.8789062,18.314453 6.7933722,17.81472 7.7361556,17.273872 8.5917969,16.841797 9.4474382,16.409722 10.127851,16.035156 11,16.035156 c 0.872149,0 1.552562,0.374566 2.408203,0.806641 0.855641,0.432075 1.798425,0.972923 2.712891,1.472656 0.914466,0.499733 1.807342,0.955574 2.482422,1.201172 0.33754,0.122799 0.620396,0.189743 0.78125,0.203125 0.160853,0.01338 0.148804,-0.02701 0.06055,0.03711 -0.08836,0.0642 -0.05469,0.08911 -0.01758,-0.06836 0.03711,-0.157465 0.06306,-0.449238 0.05078,-0.808594 -0.02456,-0.718712 -0.180986,-1.709361 -0.373047,-2.734375 -0.192061,-1.025013 -0.416499,-2.089252 -0.5625,-3.037109 -0.146001,-0.947858 -0.290917,-1.71179 -0.02148,-2.541016 0.269684,-0.8300005 0.835708,-1.3625416 1.511719,-2.0429685 0.676012,-0.6804269 1.483441,-1.4074993 2.242188,-2.1230469 0.758746,-0.7155475 1.469278,-1.4238381 1.912109,-1.9902344 0.221416,-0.2831981 0.372997,-0.5327353 0.435547,-0.6816406 0.06255,-0.1489053 0.02087,-0.1489984 0.05469,-0.044922 0.03411,0.1049664 0.06803,0.079602 -0.07031,-0.00391 C 24.469079,3.5961795 24.199917,3.4832898 23.853516,3.3847656 23.160713,3.1877172 22.167505,3.0338374 21.130859,2.9023438 20.094214,2.7708501 19.009113,2.6578533 18.060547,2.5058594 17.111981,2.3538654 16.340329,2.2581812 15.632812,1.7441406 14.925338,1.2301303 14.595322,0.52467428 14.158203,-0.33007812 13.721084,-1.1848305 13.280571,-2.1803772 12.835938,-3.125 12.391304,-4.0696228 11.937987,-4.9650847 11.537109,-5.5625 11.33667,-5.8612077 11.147317,-6.0819433 11.025391,-6.1875 10.903465,-6.2930567 10.889872,-6.2539062 11,-6.2539062 Z"
         id="path2758"
         inkscape:original="M 11 -7.25 C 9.2185557 -7.25 7.222469 -0.10960666 5.78125 0.9375 C 4.3400313 1.9846066 -3.0745035 1.6807459 -3.625 3.375 C -4.1754966 5.0692543 1.9807534 9.1807461 2.53125 10.875 C 3.0817465 12.569254 0.52753133 19.515393 1.96875 20.5625 C 3.4099688 21.609607 9.2185557 17.03125 11 17.03125 C 12.781444 17.03125 18.590031 21.609606 20.03125 20.5625 C 21.472469 19.515393 18.918253 12.569255 19.46875 10.875 C 20.019247 9.1807459 26.175496 5.0692541 25.625 3.375 C 25.074503 1.6807458 17.659969 1.9846068 16.21875 0.9375 C 14.777531 -0.1096067 12.781445 -7.25 11 -7.25 z "
         inkscape:radius="-0.99638325"
         sodipodi:type="inkscape:offset"
         style="fill:none;stroke:#ffffff;stroke-width:1.03528154;stroke-linecap:butt;stroke-linejoin:round;stroke-miterlimit:4;stroke-dasharray:none;stroke-dashoffset:0;stroke-opacity:1"
         transform="matrix(1.120396,0,0,1.105138,12.67565,14.55764)" />
    </g>
    <g
       id="g32"
       style="display:inline;enable-background:new"
       transform="translate(543,126)">
      <rect
         height="29.910681"
         id="rect42"
         style="fill:url(#radialGradient2858);fill-opacity:1;stroke:none"
         width="31.80093"
         x="0.037034865"
         y="0.54465866" />
      <path
         d="m 11,-7.2520323 c 1.781445,0 3.790132,7.12958977 5.23135,8.17669647 1.441219,1.04710673 8.84258,0.75431763 9.393077,2.44857193 0.550496,1.6942542 -5.609428,5.8077933 -6.159925,7.5020479 -0.550496,1.694254 2.015109,8.64289 0.57389,9.689997 C 18.597174,21.612387 12.781444,17.025105 11,17.025105 9.2185557,17.025104 3.4028256,21.612387 1.9616069,20.56528 0.52038819,19.518174 3.0859941,12.569538 2.5354976,10.875284 1.9850011,9.1810293 -4.1749232,5.0674896 -3.6244266,3.3732353 -3.0739301,1.6789811 4.3274311,1.9717708 5.7686498,0.92466421 7.2098686,-0.12244246 9.2185561,-7.2520323 11,-7.2520323 Z"
         id="path44"
         inkscape:flatsided="false"
         inkscape:randomized="0"
         inkscape:rounded="0.18352206"
         sodipodi:arg1="-1.5707963"
         sodipodi:arg2="-0.9424778"
         sodipodi:cx="11"
         sodipodi:cy="8.125"
         sodipodi:r1="15.377032"
         sodipodi:r2="8.9001045"
         sodipodi:sides="5"
         sodipodi:type="star"
         style="fill:url(#radialGradient2766);fill-opacity:1;stroke:url(#linearGradient7349);stroke-width:1.44078398;stroke-linecap:butt;stroke-linejoin:miter;stroke-miterlimit:4;stroke-dasharray:none;stroke-dashoffset:0;stroke-opacity:1"
         transform="matrix(0.805189,0,0,0.793704,7.08042,9.07765)" />
      <path
         d="m 11,-6.2539062 c 0.110128,0 0.09653,-0.03915 -0.02539,0.066406 -0.121926,0.1055567 -0.311279,0.3262923 -0.511718,0.625 C 10.062013,-4.9650846 9.6086963,-4.0696228 9.1640625,-3.125 8.7194287,-2.1803772 8.2789163,-1.1848305 7.8417969,-0.33007812 7.4046775,0.52467428 7.0746622,1.2301303 6.3671875,1.7441406 5.6596712,2.2581813 4.888019,2.3538654 3.9394531,2.5058594 2.9908872,2.6578533 1.9057859,2.7708501 0.86914062,2.9023438 -0.16750465,3.0338374 -1.1607134,3.1877172 -1.8535156,3.3847656 c -0.3464011,0.098524 -0.6155634,0.2114139 -0.7539063,0.2949219 -0.1383428,0.083508 -0.1044182,0.1088728 -0.070312,0.00391 0.033816,-0.1040766 -0.00786,-0.1039835 0.054687,0.044922 0.062549,0.1489053 0.2141313,0.3984425 0.4355469,0.6816406 0.4428312,0.5663963 1.1533629,1.2746869 1.91210938,1.9902344 0.75874652,0.7155476 1.56617592,1.4426201 2.24218752,2.1230469 0.6760115,0.6804268 1.242035,1.2129678 1.5117187,2.0429685 0.2694319,0.829226 0.1245164,1.593159 -0.021484,2.541016 -0.1460007,0.947857 -0.3704389,2.012096 -0.5625,3.037109 -0.192061,1.025014 -0.3484909,2.015663 -0.3730468,2.734375 -0.012278,0.359356 0.013669,0.651129 0.050781,0.808594 0.037112,0.157465 0.070782,0.132556 -0.017578,0.06836 -0.088258,-0.06412 -0.1003063,-0.02373 0.060547,-0.03711 0.1608532,-0.01338 0.44371,-0.08033 0.78125,-0.203125 C 4.0715643,19.270027 4.9644403,18.814186 5.8789062,18.314453 6.7933722,17.81472 7.7361556,17.273872 8.5917969,16.841797 9.4474382,16.409722 10.127851,16.035156 11,16.035156 c 0.872149,0 1.552562,0.374566 2.408203,0.806641 0.855641,0.432075 1.798425,0.972923 2.712891,1.472656 0.914466,0.499733 1.807342,0.955574 2.482422,1.201172 0.33754,0.122799 0.620396,0.189743 0.78125,0.203125 0.160853,0.01338 0.148804,-0.02701 0.06055,0.03711 -0.08836,0.0642 -0.05469,0.08911 -0.01758,-0.06836 0.03711,-0.157465 0.06306,-0.449238 0.05078,-0.808594 -0.02456,-0.718712 -0.180986,-1.709361 -0.373047,-2.734375 -0.192061,-1.025013 -0.416499,-2.089252 -0.5625,-3.037109 -0.146001,-0.947858 -0.290917,-1.71179 -0.02148,-2.541016 0.269684,-0.8300005 0.835708,-1.3625416 1.511719,-2.0429685 0.676012,-0.6804269 1.483441,-1.4074993 2.242188,-2.1230469 0.758746,-0.7155475 1.469278,-1.4238381 1.912109,-1.9902344 0.221416,-0.2831981 0.372997,-0.5327353 0.435547,-0.6816406 0.06255,-0.1489053 0.02087,-0.1489984 0.05469,-0.044922 0.03411,0.1049664 0.06803,0.079602 -0.07031,-0.00391 C 24.469079,3.5961795 24.199917,3.4832898 23.853516,3.3847656 23.160713,3.1877172 22.167505,3.0338374 21.130859,2.9023438 20.094214,2.7708501 19.009113,2.6578533 18.060547,2.5058594 17.111981,2.3538654 16.340329,2.2581812 15.632812,1.7441406 14.925338,1.2301303 14.595322,0.52467428 14.158203,-0.33007812 13.721084,-1.1848305 13.280571,-2.1803772 12.835938,-3.125 12.391304,-4.0696228 11.937987,-4.9650847 11.537109,-5.5625 11.33667,-5.8612077 11.147317,-6.0819433 11.025391,-6.1875 10.903465,-6.2930567 10.889872,-6.2539062 11,-6.2539062 Z"
         id="path46"
         inkscape:original="M 11 -7.25 C 9.2185557 -7.25 7.222469 -0.10960666 5.78125 0.9375 C 4.3400313 1.9846066 -3.0745035 1.6807459 -3.625 3.375 C -4.1754966 5.0692543 1.9807534 9.1807461 2.53125 10.875 C 3.0817465 12.569254 0.52753133 19.515393 1.96875 20.5625 C 3.4099688 21.609607 9.2185557 17.03125 11 17.03125 C 12.781444 17.03125 18.590031 21.609606 20.03125 20.5625 C 21.472469 19.515393 18.918253 12.569255 19.46875 10.875 C 20.019247 9.1807459 26.175496 5.0692541 25.625 3.375 C 25.074503 1.6807458 17.659969 1.9846068 16.21875 0.9375 C 14.777531 -0.1096067 12.781445 -7.25 11 -7.25 z "
         inkscape:radius="-0.99638325"
         sodipodi:type="inkscape:offset"
         style="fill:none;stroke:#ffffff;stroke-width:1.44103396;stroke-linecap:butt;stroke-linejoin:round;stroke-miterlimit:4;stroke-dasharray:none;stroke-dashoffset:0;stroke-opacity:1"
         transform="matrix(0.805189,0,0,0.793704,7.08042,9.07765)" />
    </g>
    <g
       id="g22"
       style="display:inline;enable-background:new"
       transform="translate(543,177)">
      <circle
         id="path2388"
         style="fill:url(#radialGradient1996);fill-opacity:1;fill-rule:evenodd;stroke:none"
         transform="matrix(1.14985,0,0,1.14985,-33.59608,0.67968)"
         cx="38.658855"
         cy="9.3411446"
         r="8.341651" />
      <path
         d="m 44.520054,15.50279 c -0.507171,0.878446 -4.594703,-0.160823 -5.521351,0.251748 -0.926648,0.41257 -2.889414,4.145604 -3.88159,3.934711 -0.992177,-0.210894 -1.266891,-4.419519 -1.945618,-5.173323 -0.678728,-0.753803 -4.835582,-1.466933 -4.94161,-2.475719 -0.106028,-1.008786 3.811722,-2.5705906 4.318893,-3.4490369 0.507171,-0.8784463 -0.09914,-5.0522193 0.827507,-5.4647895 0.926648,-0.4125703 3.622664,2.8308064 4.614841,3.0417001 0.992176,0.2108936 4.77431,-1.6555099 5.453037,-0.9017066 0.678728,0.7538034 -1.572792,4.3201254 -1.466764,5.3289109 0.106027,1.008786 3.049826,4.029058 2.542655,4.907505 z"
         id="path1345"
         inkscape:flatsided="false"
         inkscape:randomized="0"
         inkscape:rounded="0.18352206"
         sodipodi:arg1="0.52359878"
         sodipodi:arg2="1.1519173"
         sodipodi:cx="36.9375"
         sodipodi:cy="11.125"
         sodipodi:r1="8.755579"
         sodipodi:r2="5.0676599"
         sodipodi:sides="5"
         sodipodi:type="star"
         style="color:#000000;display:inline;overflow:visible;visibility:visible;fill:#ffffff;fill-opacity:1;fill-rule:evenodd;stroke:none;stroke-width:0.5;marker:none"
         transform="matrix(0.674116,0.299577,-0.299577,0.674116,-10.53662,-7.00368)" />
    </g>
    <g
       id="g16"
       style="display:inline;enable-background:new"
       transform="translate(543,219)">
      <circle
         id="path52"
         style="fill:url(#radialGradient7347);fill-opacity:1;fill-rule:evenodd;stroke:none"
         transform="matrix(0.970029,0,0,0.970029,-29.59185,-0.969538)"
         cx="38.658855"
         cy="9.3411446"
         r="8.341651" />
      <path
         d="m 44.520054,15.50279 c -0.507171,0.878446 -4.594703,-0.160823 -5.521351,0.251748 -0.926648,0.41257 -2.889414,4.145604 -3.88159,3.934711 -0.992177,-0.210894 -1.266891,-4.419519 -1.945618,-5.173323 -0.678728,-0.753803 -4.835582,-1.466933 -4.94161,-2.475719 -0.106028,-1.008786 3.811722,-2.5705906 4.318893,-3.4490369 0.507171,-0.8784463 -0.09914,-5.0522193 0.827507,-5.4647895 0.926648,-0.4125703 3.622664,2.8308064 4.614841,3.0417001 0.992176,0.2108936 4.77431,-1.6555099 5.453037,-0.9017066 0.678728,0.7538034 -1.572792,4.3201254 -1.466764,5.3289109 0.106027,1.008786 3.049826,4.029058 2.542655,4.907505 z"
         id="path54"
         inkscape:flatsided="false"
         inkscape:randomized="0"
         inkscape:rounded="0.18352206"
         sodipodi:arg1="0.52359878"
         sodipodi:arg2="1.1519173"
         sodipodi:cx="36.9375"
         sodipodi:cy="11.125"
         sodipodi:r1="8.755579"
         sodipodi:r2="5.0676599"
         sodipodi:sides="5"
         sodipodi:type="star"
         style="color:#000000;display:inline;overflow:visible;visibility:visible;fill:#ffffff;fill-opacity:1;fill-rule:evenodd;stroke:none;stroke-width:0.5;marker:none"
         transform="matrix(0.568694,0.252727,-0.252727,0.568694,-10.13857,-7.451327)" />
    </g>
    <circle
       style="color:#000000;clip-rule:nonzero;display:inline;overflow:visible;visibility:visible;opacity:1;isolation:auto;mix-blend-mode:normal;color-interpolation:sRGB;color-interpolation-filters:linearRGB;solid-color:#000000;solid-opacity:1;fill:#5e8ed5;fill-opacity:1;fill-rule:nonzero;stroke:none;stroke-width:2;stroke-linecap:butt;stroke-linejoin:miter;stroke-miterlimit:4;stroke-dasharray:none;stroke-dashoffset:0;stroke-opacity:1;marker:none;marker-start:none;marker-mid:none;marker-end:none;paint-order:normal;color-rendering:auto;image-rendering:auto;shape-rendering:auto;text-rendering:auto;enable-background:accumulate"
       id="path7353"
       cx="320.02902"
       cy="74.02903"
       r="8.0290289" />
    <circle
       r="6.0290289"
       cy="143.02902"
       cx="319.02902"
       id="circle7355"
       style="color:#000000;clip-rule:nonzero;display:inline;overflow:visible;visibility:visible;opacity:1;isolation:auto;mix-blend-mode:normal;color-interpolation:sRGB;color-interpolation-filters:linearRGB;solid-color:#000000;solid-opacity:1;fill:#5e8ed5;fill-opacity:1;fill-rule:nonzero;stroke:none;stroke-width:2;stroke-linecap:butt;stroke-linejoin:miter;stroke-miterlimit:4;stroke-dasharray:none;stroke-dashoffset:0;stroke-opacity:1;marker:none;marker-start:none;marker-mid:none;marker-end:none;paint-order:normal;color-rendering:auto;image-rendering:auto;shape-rendering:auto;text-rendering:auto;enable-background:accumulate" />
    <circle
       style="color:#000000;clip-rule:nonzero;display:inline;overflow:visible;visibility:visible;opacity:1;isolation:auto;mix-blend-mode:normal;color-interpolation:sRGB;color-interpolation-filters:linearRGB;solid-color:#000000;solid-opacity:1;fill:#5e8ed5;fill-opacity:1;fill-rule:nonzero;stroke:none;stroke-width:2;stroke-linecap:butt;stroke-linejoin:miter;stroke-miterlimit:4;stroke-dasharray:none;stroke-dashoffset:0;stroke-opacity:1;marker:none;marker-start:none;marker-mid:none;marker-end:none;paint-order:normal;color-rendering:auto;image-rendering:auto;shape-rendering:auto;text-rendering:auto;enable-background:accumulate"
       id="circle7357"
       cx="313.99936"
       cy="187.99176"
       r="4.0069318" />
    <circle
       r="4.0069318"
       cy="227.00627"
       cx="311.00629"
       id="circle7359"
       style="color:#000000;clip-rule:nonzero;display:inline;overflow:visible;visibility:visible;opacity:1;isolation:auto;mix-blend-mode:normal;color-interpolation:sRGB;color-interpolation-filters:linearRGB;solid-color:#000000;solid-opacity:1;fill:#5e8ed5;fill-opacity:1;fill-rule:nonzero;stroke:none;stroke-width:2;stroke-linecap:butt;stroke-linejoin:miter;stroke-miterlimit:4;stroke-dasharray:none;stroke-dashoffset:0;stroke-opacity:1;marker:none;marker-start:none;marker-mid:none;marker-end:none;paint-order:normal;color-rendering:auto;image-rendering:auto;shape-rendering:auto;text-rendering:auto;enable-background:accumulate" />
    <circle
       style="color:#000000;clip-rule:nonzero;display:inline;overflow:visible;visibility:visible;opacity:1;isolation:auto;mix-blend-mode:normal;color-interpolation:sRGB;color-interpolation-filters:linearRGB;solid-color:#000000;solid-opacity:1;fill:#5e8ed5;fill-opacity:1;fill-rule:nonzero;stroke:none;stroke-width:2;stroke-linecap:butt;stroke-linejoin:miter;stroke-miterlimit:4;stroke-dasharray:none;stroke-dashoffset:0;stroke-opacity:1;marker:none;marker-start:none;marker-mid:none;marker-end:none;paint-order:normal;color-rendering:auto;image-rendering:auto;shape-rendering:auto;text-rendering:auto;enable-background:accumulate"
       id="circle7361"
       cx="306.98459"
       cy="251.02582"
       r="3.9904659" />
  </g>
  <g
     id="layer4"
     inkscape:groupmode="layer"
     inkscape:label="hires"
     style="display:none" />
</svg>
