<?xml version="1.0" encoding="UTF-8" standalone="no"?>
<svg
   xmlns:dc="http://purl.org/dc/elements/1.1/"
   xmlns:cc="http://creativecommons.org/ns#"
   xmlns:rdf="http://www.w3.org/1999/02/22-rdf-syntax-ns#"
   xmlns:svg="http://www.w3.org/2000/svg"
   xmlns="http://www.w3.org/2000/svg"
   width="16"
   version="1.1"
   style="enable-background:new"
   id="svg7384"
   height="16">
  <metadata
     id="metadata90">
    <rdf:RDF>
      <cc:Work
         rdf:about="">
        <dc:format>image/svg+xml</dc:format>
        <dc:type
           rdf:resource="http://purl.org/dc/dcmitype/StillImage" />
        <dc:title>Gnome Symbolic Icons</dc:title>
        <cc:license
           rdf:resource="http://creativecommons.org/licenses/by-sa/4.0/" />
      </cc:Work>
      <cc:License
         rdf:about="http://creativecommons.org/licenses/by-sa/4.0/">
        <cc:permits
           rdf:resource="http://creativecommons.org/ns#Reproduction" />
        <cc:permits
           rdf:resource="http://creativecommons.org/ns#Distribution" />
        <cc:requires
           rdf:resource="http://creativecommons.org/ns#Notice" />
        <cc:requires
           rdf:resource="http://creativecommons.org/ns#Attribution" />
        <cc:permits
           rdf:resource="http://creativecommons.org/ns#DerivativeWorks" />
        <cc:requires
           rdf:resource="http://creativecommons.org/ns#ShareAlike" />
      </cc:License>
    </rdf:RDF>
  </metadata>
  <title
     id="title8473">Gnome Symbolic Icons</title>
  <defs
     id="defs7386" />
  <g
     transform="translate(-52.00586,-607.99999)"
     id="layer1" />
  <g
     transform="translate(-52.00586,-607.99999)"
     id="layer7" />
  <g
     transform="translate(-52.00586,-607.99999)"
     id="layer6" />
  <g
     transform="translate(-52.00586,-607.99999)"
     id="layer5" />
  <g
     transform="translate(-52.00586,-607.99999)"
     id="layer9" />
  <g
     transform="translate(-52.00586,-607.99999)"
     id="layer2" />
  <g
     transform="translate(-52.00586,-607.99999)"
     id="layer8" />
  <g
     transform="translate(-52.00586,-607.99999)"
     id="layer3" />
  <g
     transform="translate(-52.00586,-607.99999)"
     id="layer4">
    <path
       d="m 59.00586,608.99999 v 5.5625 l -1.28125,-1.28125 C 57.53645,613.09309 57.27116,613 57.00586,612.99999 h -1 v 1 c 1e-5,0.2653 0.0931,0.53058 0.28125,0.71875 l 3,3 0.28125,0.28125 h 0.875 l 0.28125,-0.28125 3,-3 c 0.18819,-0.18817 0.28124,-0.45345 0.28125,-0.71875 v -1 h -1 c -0.2653,10e-6 -0.53059,0.0931 -0.71875,0.28125 l -1.28125,1.28125 v -5.5625 z"
       id="path3613"
       style="color:#000000;font-style:normal;font-variant:normal;font-weight:normal;font-stretch:normal;font-size:medium;line-height:normal;font-family:'Bitstream Vera Sans';-inkscape-font-specification:'Bitstream Vera Sans';text-indent:0;text-align:start;text-decoration:none;text-decoration-line:none;letter-spacing:normal;word-spacing:normal;text-transform:none;writing-mode:lr-tb;direction:ltr;text-anchor:start;display:inline;overflow:visible;visibility:visible;fill:#2e3436;fill-opacity:1;stroke:none;stroke-width:2;marker:none;enable-background:accumulate" />
    <path
       d="m 55.005859,619 v 4 h 10 v -4 z M 58.5,620 h 3 c 0.277,0 0.5,0.223 0.5,0.5 0,0.277 -0.223,0.5 -0.5,0.5 h -3 c -0.277,0 -0.5,-0.223 -0.5,-0.5 0,-0.277 0.223,-0.5 0.5,-0.5 z"
       id="rect11668-7-5"
       style="color:#000000;display:inline;overflow:visible;visibility:visible;fill:#2e3436;fill-opacity:1;fill-rule:evenodd;stroke:none;stroke-width:1;marker:none;enable-background:accumulate" />
  </g>
</svg>
