<?xml version="1.0" encoding="UTF-8"?>
<svg height="16px" viewBox="0 0 15.976562 16" width="15.976562px" xmlns="http://www.w3.org/2000/svg">
    <path d="m 7.988281 0 c -0.554687 0 -1 0.445312 -1 1 v 1 c 0 0.03125 0 0.058594 0.003907 0.085938 c -2.507813 0.421874 -4.492188 2.410156 -4.914063 4.917968 c -0.03125 -0.003906 -0.058594 -0.003906 -0.089844 -0.003906 h -1 c -0.554687 0 -0.9999998 0.445312 -0.9999998 1 s 0.4453128 1 0.9999998 1 h 1 c 0.03125 0 0.058594 0 0.089844 -0.003906 c 0.421875 2.507812 2.40625 4.496094 4.914063 4.917968 c 0 0.027344 -0.003907 0.054688 -0.003907 0.085938 v 1 c 0 0.554688 0.445313 1 1 1 c 0.554688 0 1 -0.445312 1 -1 v -1 c 0 -0.03125 0 -0.058594 -0.003906 -0.085938 c 2.507813 -0.421874 4.496094 -2.410156 4.917969 -4.917968 c 0.03125 0 0.058594 0.003906 0.085937 0.003906 h 1 c 0.554688 0 1 -0.445312 1 -1 s -0.445312 -1 -1 -1 h -1 c -0.027343 0 -0.054687 0 -0.085937 0.003906 c -0.421875 -2.507812 -2.410156 -4.496094 -4.917969 -4.917968 c 0 -0.027344 0.003906 -0.058594 0.003906 -0.085938 v -1 c 0 -0.554688 -0.445312 -1 -1 -1 z m 0.003907 4 c 2.199218 0 4 1.796875 4 4 s -1.800782 4 -4 4 c -2.203126 0 -4 -1.796875 -4 -4 s 1.796874 -4 4 -4 z m -0.003907 2 c -1.105469 0 -2 0.894531 -2 2 s 0.894531 2 2 2 s 2 -0.894531 2 -2 s -0.894531 -2 -2 -2 z m 0 0" fill="#2e3436"/>
</svg>
