<?xml version="1.0" encoding="UTF-8" standalone="no"?>
<svg
   xmlns:dc="http://purl.org/dc/elements/1.1/"
   xmlns:cc="http://creativecommons.org/ns#"
   xmlns:rdf="http://www.w3.org/1999/02/22-rdf-syntax-ns#"
   xmlns:svg="http://www.w3.org/2000/svg"
   xmlns="http://www.w3.org/2000/svg"
   width="16"
   version="1.1"
   style="enable-background:new"
   id="svg7384"
   height="16">
  <metadata
     id="metadata90">
    <rdf:RDF>
      <cc:Work
         rdf:about="">
        <dc:format>image/svg+xml</dc:format>
        <dc:type
           rdf:resource="http://purl.org/dc/dcmitype/StillImage" />
        <dc:title>Gnome Symbolic Icons</dc:title>
        <cc:license
           rdf:resource="http://creativecommons.org/licenses/by-sa/4.0/" />
      </cc:Work>
      <cc:License
         rdf:about="http://creativecommons.org/licenses/by-sa/4.0/">
        <cc:permits
           rdf:resource="http://creativecommons.org/ns#Reproduction" />
        <cc:permits
           rdf:resource="http://creativecommons.org/ns#Distribution" />
        <cc:requires
           rdf:resource="http://creativecommons.org/ns#Notice" />
        <cc:requires
           rdf:resource="http://creativecommons.org/ns#Attribution" />
        <cc:permits
           rdf:resource="http://creativecommons.org/ns#DerivativeWorks" />
        <cc:requires
           rdf:resource="http://creativecommons.org/ns#ShareAlike" />
      </cc:License>
    </rdf:RDF>
  </metadata>
  <title
     id="title8473">Gnome Symbolic Icons</title>
  <defs
     id="defs7386" />
  <g
     transform="translate(-252.00605,-707.99999)"
     id="layer1" />
  <g
     transform="translate(-252.00605,-707.99999)"
     id="layer7" />
  <g
     transform="translate(-252.00605,-707.99999)"
     id="layer6" />
  <g
     transform="translate(-252.00605,-707.99999)"
     id="layer5" />
  <g
     transform="translate(-252.00605,-707.99999)"
     id="layer9" />
  <g
     transform="translate(-252.00605,-707.99999)"
     id="layer2" />
  <g
     transform="translate(-252.00605,-707.99999)"
     id="layer8" />
  <g
     transform="translate(-252.00605,-707.99999)"
     id="layer3" />
  <g
     transform="translate(-252.00605,-707.99999)"
     id="layer4">
    <path
       id="rect3559-9"
       d="m 259,712 h 7 c 0.554,0 1,0.446 1,1 0,0.554 -0.446,1 -1,1 h -7 c -0.554,0 -1,-0.446 -1,-1 0,-0.554 0.446,-1 1,-1 z"
       style="display:inline;opacity:1;vector-effect:none;fill:#2e3436;fill-opacity:1;stroke:none;stroke-width:1;stroke-linecap:round;stroke-linejoin:miter;stroke-miterlimit:4;stroke-dasharray:none;stroke-dashoffset:0;stroke-opacity:1;marker:none;marker-start:none;marker-mid:none;marker-end:none;paint-order:normal;enable-background:new" />
    <path
       id="rect3590"
       d="m 259,718 h 7 c 0.554,0 1,0.446 1,1 0,0.554 -0.446,1 -1,1 h -7 c -0.554,0 -1,-0.446 -1,-1 0,-0.554 0.446,-1 1,-1 z"
       style="display:inline;opacity:1;vector-effect:none;fill:#2e3436;fill-opacity:1;stroke:none;stroke-width:1;stroke-linecap:round;stroke-linejoin:miter;stroke-miterlimit:4;stroke-dasharray:none;stroke-dashoffset:0;stroke-opacity:1;marker:none;marker-start:none;marker-mid:none;marker-end:none;paint-order:normal;enable-background:new" />
    <path
       d="m 255.0019,711 h 1.2501 v 4 h -1.5 l -0.004,-2.5 -0.746,-0.0114 v -0.48857 z"
       id="path10505-9"
       style="color:#000000;display:inline;overflow:visible;visibility:visible;fill:#2e3436;fill-opacity:1;fill-rule:nonzero;stroke:none;stroke-width:0.36104703;marker:none;enable-background:accumulate" />
    <path
       style="font-style:normal;font-variant:normal;font-weight:800;font-stretch:normal;font-size:medium;line-height:1.25;font-family:Cantarell;-inkscape-font-specification:'Cantarell Ultra-Bold';font-variant-ligatures:normal;font-variant-caps:normal;font-variant-numeric:normal;font-feature-settings:normal;text-align:start;letter-spacing:0px;word-spacing:0px;writing-mode:lr-tb;text-anchor:start;fill:#2e3436;fill-opacity:1;stroke:none;stroke-width:0.99999994"
       id="path3669"
       d="M 253.98084,721.00005 H 257 V 720 h -1.44697 c 0.91711,-0.72994 1.37255,-0.93309 1.37255,-1.61936 0,-0.81105 -0.63636,-1.4187 -1.61586,-1.4187 -0.5615,0 -1.07309,0.17469 -1.49109,0.51783 l 0.27451,0.86967 c 0.34938,-0.24331 0.69251,-0.36809 1.00446,-0.36809 0.43048,0 0.70499,0.0651 0.70499,0.40201 0,0.53654 -0.69252,0.71187 -1.82175,1.6477 z" />
  </g>
</svg>
