<?xml version="1.0" encoding="UTF-8" standalone="no"?>
<svg
   width="16"
   height="15.999807"
   viewBox="0 0 16 15.999807"
   version="1.1"
   id="svg3"
   sodipodi:docname="view-sort-ascending-rtl-symbolic.svg"
   inkscape:version="1.4.2 (ebf0e940d0, 2025-05-08)"
   xmlns:inkscape="http://www.inkscape.org/namespaces/inkscape"
   xmlns:sodipodi="http://sodipodi.sourceforge.net/DTD/sodipodi-0.dtd"
   xmlns="http://www.w3.org/2000/svg"
   xmlns:svg="http://www.w3.org/2000/svg"
   xmlns:rdf="http://www.w3.org/1999/02/22-rdf-syntax-ns#"
   xmlns:cc="http://creativecommons.org/ns#"
   xmlns:dc="http://purl.org/dc/elements/1.1/">
  <defs
     id="defs3" />
  <sodipodi:namedview
     id="namedview3"
     pagecolor="#ffffff"
     bordercolor="#000000"
     borderopacity="0.25"
     inkscape:showpageshadow="2"
     inkscape:pageopacity="0.0"
     inkscape:pagecheckerboard="0"
     inkscape:deskcolor="#d1d1d1"
     inkscape:zoom="18.125"
     inkscape:cx="17.158621"
     inkscape:cy="17.489655"
     inkscape:window-width="2560"
     inkscape:window-height="1371"
     inkscape:window-x="0"
     inkscape:window-y="0"
     inkscape:window-maximized="1"
     inkscape:current-layer="svg3" />
  <title
     id="title1">Gnome Symbolic Icon Theme</title>
  <path
     id="path25389"
     style="fill:#2e3436;fill-opacity:1"
     d="m 3,15.999904 c -0.55228,0 -1,-0.44772 -1,-1 V 3.9999037 H 1 0 v -1 h 0.006 c -0.002,-0.26436 0.10186,-0.51856 0.28711,-0.70703 l 2,-2.00000002 c 0.39053,-0.39037 1.02353,-0.39037 1.41406,0 l 2,2.00000002 c 0.18539,0.18847 0.28911,0.44267 0.28711,0.70703 h 0.006 v 1 h -1 -1 V 14.999904 c 0,0.55228 -0.44772,1 -1,1 z m 3.5,-2 c -0.277,0 -0.5,-0.223 -0.5,-0.5 v -1 c 0,-0.277 0.223,-0.5 0.5,-0.5 h 5 c 0.277,0 0.5,0.223 0.5,0.5 v 1 c 0,0.277 -0.223,0.5 -0.5,0.5 z m 0,-3 c -0.277,0 -0.5,-0.223 -0.5,-0.5 V 9.4999037 c 0,-0.277 0.223,-0.5 0.5,-0.5 h 7 c 0.277,0 0.5,0.223 0.5,0.5 v 1.0000003 c 0,0.277 -0.223,0.5 -0.5,0.5 z m 0,-3.0000003 c -0.277,0 -0.5,-0.223 -0.5,-0.5 v -1 c 0,-0.277 0.223,-0.5 0.5,-0.5 h 9 c 0.277,0 0.5,0.223 0.5,0.5 v 1 c 0,0.277 -0.223,0.5 -0.5,0.5 z" />
  <metadata
     id="metadata3">
    <rdf:RDF>
      <cc:Work
         rdf:about="">
        <dc:title>Gnome Symbolic Icon Theme</dc:title>
      </cc:Work>
    </rdf:RDF>
  </metadata>
</svg>
