<?xml version="1.0" encoding="UTF-8" standalone="no"?>
<!-- Created with Inkscape (http://www.inkscape.org/) -->

<svg
   xmlns:dc="http://purl.org/dc/elements/1.1/"
   xmlns:cc="http://creativecommons.org/ns#"
   xmlns:rdf="http://www.w3.org/1999/02/22-rdf-syntax-ns#"
   xmlns:svg="http://www.w3.org/2000/svg"
   xmlns="http://www.w3.org/2000/svg"
   xmlns:inkscape="http://www.inkscape.org/namespaces/inkscape"
   version="1.1"
   width="16"
   height="16"
   id="svg7384">
  <title
     id="title9167">Gnome Symbolic Icon Theme</title>
  <defs
     id="defs7386" />
  <metadata
     id="metadata7389">
    <rdf:RDF>
      <cc:Work
         rdf:about="">
        <dc:format>image/svg+xml</dc:format>
        <dc:type
           rdf:resource="http://purl.org/dc/dcmitype/StillImage" />
        <dc:title>Gnome Symbolic Icon Theme</dc:title>
        <cc:license
           rdf:resource="http://creativecommons.org/licenses/by-sa/3.0/" />
        <dc:creator>
          <cc:Agent>
            <dc:title />
          </cc:Agent>
        </dc:creator>
        <dc:contributor>
          <cc:Agent>
            <dc:title>See the AUTHORS file here:

http://git.gnome.org/browse/gnome-icon-theme-symbolic/plain/AUTHORS</dc:title>
          </cc:Agent>
        </dc:contributor>
        <dc:source>http://www.gnome.org</dc:source>
      </cc:Work>
      <cc:License
         rdf:about="http://creativecommons.org/licenses/by-sa/3.0/">
        <cc:permits
           rdf:resource="http://creativecommons.org/ns#Reproduction" />
        <cc:permits
           rdf:resource="http://creativecommons.org/ns#Distribution" />
        <cc:requires
           rdf:resource="http://creativecommons.org/ns#Notice" />
        <cc:requires
           rdf:resource="http://creativecommons.org/ns#Attribution" />
        <cc:permits
           rdf:resource="http://creativecommons.org/ns#DerivativeWorks" />
        <cc:requires
           rdf:resource="http://creativecommons.org/ns#ShareAlike" />
      </cc:License>
    </rdf:RDF>
  </metadata>
  <g
     transform="translate(-81.9998,-670)"
     id="layer3"
     style="display:inline" />
  <g
     transform="translate(-81.9998,-670)"
     id="layer2"
     style="display:inline" />
  <g
     transform="translate(-62,-641)"
     id="layer4"
     style="display:inline" />
  <g
     transform="translate(-62,-398)"
     id="layer8" />
  <g
     transform="translate(-62,-398)"
     id="layer7" />
  <g
     transform="translate(-62,-398)"
     id="layer5">
    <g
       transform="translate(14,0)"
       id="g11525">
      <rect
         width="16"
         height="16"
         x="48"
         y="398"
         id="rect11505"
         style="opacity:0.51464431;color:#000000;fill:none;stroke:none;stroke-width:3;marker:none;visibility:visible;display:inline;overflow:visible;enable-background:accumulate" />
      <path
         d="m 50.027732,398 c -0.542165,0 -1,0.32904 -1,0.9375 l 0,14.125 c 0,0.58636 0.376673,0.9375 1,0.9375 L 62.0625,414 C 62.582568,414 63,413.64886 63,413.0625 l 0,-14.125 C 63,398.39533 62.604665,398 62.0625,398 z m 0.972272,2.01647 10.027724,0 0,3.98353 -10.027724,0 z m 0,6.04419 2,0 0,2 -2,0 z m 4.016466,0 2,0 0,2 -2,0 z m 4.016466,0 2,0 0,2 -2,0 z m -8.12132,3.97227 2,0 0,2 -2,0 z m 4.016466,0 2,0 0,2 -2,0 z m 4.016466,0 2,0 0,2 -2,0 z"
         inkscape:connector-curvature="0"
         id="rect5122"
         style="fill:#bebebe;fill-opacity:1;stroke:none;display:inline" />
    </g>
  </g>
  <g
     transform="translate(-62,-398)"
     id="layer6" />
  <g
     transform="translate(-81.9998,-670)"
     id="layer1"
     style="display:inline" />
</svg>
