<?xml version="1.0" encoding="UTF-8" standalone="no"?>
<!-- Created with Inkscape (http://www.inkscape.org/) -->

<svg
   xmlns:dc="http://purl.org/dc/elements/1.1/"
   xmlns:cc="http://creativecommons.org/ns#"
   xmlns:rdf="http://www.w3.org/1999/02/22-rdf-syntax-ns#"
   xmlns:svg="http://www.w3.org/2000/svg"
   xmlns="http://www.w3.org/2000/svg"
   xmlns:inkscape="http://www.inkscape.org/namespaces/inkscape"
   version="1.1"
   width="16"
   height="16"
   id="svg7384">
  <title
     id="title9167">Gnome Symbolic Icon Theme</title>
  <defs
     id="defs7386" />
  <metadata
     id="metadata7389">
    <rdf:RDF>
      <cc:Work
         rdf:about="">
        <dc:format>image/svg+xml</dc:format>
        <dc:type
           rdf:resource="http://purl.org/dc/dcmitype/StillImage" />
        <dc:title>Gnome Symbolic Icon Theme</dc:title>
        <cc:license
           rdf:resource="http://creativecommons.org/licenses/by-sa/3.0/" />
        <dc:creator>
          <cc:Agent>
            <dc:title />
          </cc:Agent>
        </dc:creator>
        <dc:contributor>
          <cc:Agent>
            <dc:title>See the AUTHORS file here:

http://git.gnome.org/browse/gnome-icon-theme-symbolic/plain/AUTHORS</dc:title>
          </cc:Agent>
        </dc:contributor>
        <dc:source>http://www.gnome.org</dc:source>
      </cc:Work>
      <cc:License
         rdf:about="http://creativecommons.org/licenses/by-sa/3.0/">
        <cc:permits
           rdf:resource="http://creativecommons.org/ns#Reproduction" />
        <cc:permits
           rdf:resource="http://creativecommons.org/ns#Distribution" />
        <cc:requires
           rdf:resource="http://creativecommons.org/ns#Notice" />
        <cc:requires
           rdf:resource="http://creativecommons.org/ns#Attribution" />
        <cc:permits
           rdf:resource="http://creativecommons.org/ns#DerivativeWorks" />
        <cc:requires
           rdf:resource="http://creativecommons.org/ns#ShareAlike" />
      </cc:License>
    </rdf:RDF>
  </metadata>
  <g
     transform="translate(-101.9998,-670)"
     id="layer3"
     style="display:inline" />
  <g
     transform="translate(-101.9998,-670)"
     id="layer2"
     style="display:inline" />
  <g
     transform="translate(-82,-641)"
     id="layer4"
     style="display:inline" />
  <g
     transform="translate(-82,-398)"
     id="layer5">
    <g
       transform="translate(-37.9998,-212)"
       id="use11693">
      <rect
         width="16"
         height="16"
         x="20"
         y="276"
         transform="translate(99.9998,334)"
         id="rect10745"
         style="color:#000000;fill:none;stroke:none;stroke-width:1;marker:none;visibility:visible;display:inline;overflow:visible" />
      <path
         d="m 100.59375,340.0625 c -0.33663,0 -0.59375,0.27307 -0.59375,0.625 l 0,10.6875 c 0,0.35193 0.25712,0.625 0.59375,0.625 l 14.8125,0 C 115.74288,352 116,351.72693 116,351.375 l 0,-10.6875 c 0,-0.35193 -0.25712,-0.625 -0.59375,-0.625 l -14.8125,0 z M 102,342 l 2,0 0,2.0625 -2,0 0,-2.0625 z m 3,0 2,0 0,2.0625 -2,0 0,-2.0625 z m 3,0 2,0 0,2.0625 -2,0 0,-2.0625 z m 3,0 2,0 0,2.0625 -2,0 0,-2.0625 z m -8,3 2,0 0,2.0625 -2,0 0,-2.0625 z m 3,0 2,0 0,2.0625 -2,0 0,-2.0625 z m 3,0 2,0 0,2.0625 -2,0 0,-2.0625 z m 3,0 2,0 0,2.0625 -2,0 0,-2.0625 z m 0,2.9375 3,0 0,2.0625 -3,0 0,-2.0625 z M 102,348 l 2,0 0,2.0625 -2,0 0,-2.0625 z m 3,0 6,0 0,2.0625 -6,0 0,-2.0625 z"
         inkscape:connector-curvature="0"
         transform="translate(19.9998,272)"
         id="path10747"
         style="color:#000000;fill:#bdbdbd;fill-opacity:1;fill-rule:nonzero;stroke:none;stroke-width:3;marker:none;visibility:visible;display:inline;overflow:visible;enable-background:accumulate" />
    </g>
  </g>
  <g
     transform="translate(-101.9998,-670)"
     id="layer1"
     style="display:inline" />
</svg>
