<?xml version="1.0" encoding="UTF-8" standalone="no"?>
<!-- Created with Inkscape (http://www.inkscape.org/) -->

<svg
   xmlns:dc="http://purl.org/dc/elements/1.1/"
   xmlns:cc="http://creativecommons.org/ns#"
   xmlns:rdf="http://www.w3.org/1999/02/22-rdf-syntax-ns#"
   xmlns:svg="http://www.w3.org/2000/svg"
   xmlns="http://www.w3.org/2000/svg"
   xmlns:inkscape="http://www.inkscape.org/namespaces/inkscape"
   version="1.1"
   width="18"
   height="18"
   id="svg7384">
  <title
     id="title9167">Gnome Symbolic Icon Theme</title>
  <defs
     id="defs7386" />
  <metadata
     id="metadata7389">
    <rdf:RDF>
      <cc:Work
         rdf:about="">
        <dc:format>image/svg+xml</dc:format>
        <dc:type
           rdf:resource="http://purl.org/dc/dcmitype/StillImage" />
        <dc:title>Gnome Symbolic Icon Theme</dc:title>
        <cc:license
           rdf:resource="http://creativecommons.org/licenses/by-sa/3.0/" />
        <dc:creator>
          <cc:Agent>
            <dc:title />
          </cc:Agent>
        </dc:creator>
        <dc:contributor>
          <cc:Agent>
            <dc:title>See the AUTHORS file here:

http://git.gnome.org/browse/gnome-icon-theme-symbolic/plain/AUTHORS</dc:title>
          </cc:Agent>
        </dc:contributor>
        <dc:source>http://www.gnome.org</dc:source>
      </cc:Work>
      <cc:License
         rdf:about="http://creativecommons.org/licenses/by-sa/3.0/">
        <cc:permits
           rdf:resource="http://creativecommons.org/ns#Reproduction" />
        <cc:permits
           rdf:resource="http://creativecommons.org/ns#Distribution" />
        <cc:requires
           rdf:resource="http://creativecommons.org/ns#Notice" />
        <cc:requires
           rdf:resource="http://creativecommons.org/ns#Attribution" />
        <cc:permits
           rdf:resource="http://creativecommons.org/ns#DerivativeWorks" />
        <cc:requires
           rdf:resource="http://creativecommons.org/ns#ShareAlike" />
      </cc:License>
    </rdf:RDF>
  </metadata>
  <g
     transform="translate(-59.99975,-668)"
     id="layer3"
     style="display:inline" />
  <g
     transform="translate(-59.99975,-668)"
     id="layer2"
     style="display:inline" />
  <g
     transform="translate(-40,-639)"
     id="layer4"
     style="display:inline" />
  <g
     transform="translate(-40,-396)"
     id="layer5">
    <g
       transform="translate(21.00025,121)"
       id="g13138"
       style="fill:#bebebe;fill-opacity:1">
      <rect
         width="16"
         height="16"
         x="20"
         y="276"
         id="rect13140"
         style="color:#000000;fill:none;stroke:none;stroke-width:1;marker:none;visibility:visible;display:inline;overflow:visible;enable-background:accumulate" />
    </g>
    <path
       d="m 49,396 c -4.97056,0 -9,4.02944 -9,9 0,4.97056 4.02944,9 9,9 4.97056,0 9,-4.02944 9,-9 0,-4.97056 -4.02944,-9 -9,-9 z m 0,2 c 1.10467,0 2,0.89533 2,2 0,1.10467 -0.89533,2 -2,2 -1.10467,0 -2,-0.89533 -2,-2 0,-1.10467 0.89533,-2 2,-2 z m -6,3.99995 6.0625,0.0313 L 55,402 l 0,1 -4,1 0,3 2,5 -1.17586,0.0108 L 49.0625,407 46.18718,412.01772 45,412 l 2,-5 0,-3 -4,-1 z"
       inkscape:connector-curvature="0"
       id="path13142"
       style="color:#000000;fill:#bdbdbd;fill-opacity:1;stroke:none;stroke-width:2;marker:none;visibility:visible;display:inline;overflow:visible;enable-background:accumulate" />
  </g>
  <g
     transform="translate(-59.99975,-668)"
     id="layer1"
     style="display:inline" />
</svg>
