<?xml version="1.0" encoding="UTF-8" standalone="no"?>
<!-- Created with Inkscape (http://www.inkscape.org/) -->

<svg
   xmlns:svg="http://www.w3.org/2000/svg"
   xmlns="http://www.w3.org/2000/svg"
   version="1.1"
   width="16"
   height="16"
   id="svg7384">
  <title
     id="title9167">Gnome Symbolic Icon Theme</title>
  <defs
     id="defs7386" />
  <g
     transform="translate(-142,-381)"
     id="layer9" />
  <g
     transform="translate(-142,-381)"
     id="layer10" />
  <g
     transform="translate(-142,-381)"
     id="layer11">
    <path
       d="M 144.1875,382 C 142.98238,382 142,383.01795 142,384.21875 l 0,9.5625 c 0,1.2008 0.98238,2.21875 2.1875,2.21875 l 11.625,0 c 1.20512,0 2.1875,-1.01795 2.1875,-2.21875 l 0,-9.5625 C 158,383.01795 157.01762,382 155.8125,382 l -11.625,0 z m 0,2 11.625,0 c 0.12027,0 0.1875,0.08 0.1875,0.21875 l 0,9.5625 C 156,393.91997 155.93277,394 155.8125,394 l -11.625,0 C 144.06723,394 144,393.92 144,393.78125 l 0,-9.5625 C 144,384.08003 144.06723,384 144.1875,384 z"
       id="rect11749-5-0"
       style="font-size:medium;font-style:normal;font-variant:normal;font-weight:normal;font-stretch:normal;text-indent:0;text-align:start;text-decoration:none;line-height:normal;letter-spacing:normal;word-spacing:normal;text-transform:none;direction:ltr;block-progression:tb;writing-mode:lr-tb;text-anchor:start;color:#bebebe;fill:#bebebe;fill-opacity:1;stroke:none;stroke-width:2;marker:none;visibility:visible;display:inline;overflow:visible;enable-background:accumulate;font-family:Bitstream Vera Sans;-inkscape-font-specification:Bitstream Vera Sans" />
    <rect
       width="15.981825"
       height="16"
       rx="0"
       ry="0"
       x="142"
       y="381"
       id="rect3620"
       style="fill:none;stroke:none" />
    <path
       d="m 151.28125,384.96875 a 1.0001,1.0001 0 0 0 -0.75,0.625 l -1.78125,4.375 -0.40625,-0.5625 A 1.0001,1.0001 0 0 0 147.53125,389 l -1.875,0 a 1.0001,1.0001 0 1 0 0,2 l 1.375,0 1.15625,1.59375 a 1.0001,1.0001 0 0 0 1.75,-0.21875 l 1.5,-3.6875 0.625,1.65625 A 1.0001,1.0001 0 0 0 153,391 l 1.5,0 a 1.0001,1.0001 0 1 0 0,-2 l -0.8125,0 -1.28125,-3.40625 a 1.0001,1.0001 0 0 0 -1.125,-0.625 z"
       id="path3643"
       style="font-size:medium;font-style:normal;font-variant:normal;font-weight:normal;font-stretch:normal;text-indent:0;text-align:start;text-decoration:none;line-height:normal;letter-spacing:normal;word-spacing:normal;text-transform:none;direction:ltr;block-progression:tb;writing-mode:lr-tb;text-anchor:start;color:#000000;fill:#bebebe;fill-opacity:1;stroke:none;stroke-width:2;marker:none;visibility:visible;display:inline;overflow:visible;enable-background:accumulate;font-family:Bitstream Vera Sans;-inkscape-font-specification:Bitstream Vera Sans" />
  </g>
  <g
     transform="translate(-142,-381)"
     id="layer12" />
  <g
     transform="translate(-142,-381)"
     id="layer13" />
  <g
     transform="translate(-142,-381)"
     id="layer14" />
  <g
     transform="translate(-142,-381)"
     id="layer15" />
</svg>
