<?xml version="1.0" encoding="UTF-8" standalone="no"?>
<!-- Created with Inkscape (http://www.inkscape.org/) -->

<svg
   xmlns:dc="http://purl.org/dc/elements/1.1/"
   xmlns:cc="http://creativecommons.org/ns#"
   xmlns:rdf="http://www.w3.org/1999/02/22-rdf-syntax-ns#"
   xmlns:svg="http://www.w3.org/2000/svg"
   xmlns="http://www.w3.org/2000/svg"
   xmlns:inkscape="http://www.inkscape.org/namespaces/inkscape"
   version="1.1"
   width="16"
   height="16"
   id="svg7384">
  <title
     id="title9167">Gnome Symbolic Icon Theme</title>
  <defs
     id="defs7386" />
  <metadata
     id="metadata7389">
    <rdf:RDF>
      <cc:Work
         rdf:about="">
        <dc:format>image/svg+xml</dc:format>
        <dc:type
           rdf:resource="http://purl.org/dc/dcmitype/StillImage" />
        <dc:title>Gnome Symbolic Icon Theme</dc:title>
        <cc:license
           rdf:resource="http://creativecommons.org/licenses/by-sa/3.0/" />
        <dc:creator>
          <cc:Agent>
            <dc:title />
          </cc:Agent>
        </dc:creator>
        <dc:contributor>
          <cc:Agent>
            <dc:title>See the AUTHORS file here:

http://git.gnome.org/browse/gnome-icon-theme-symbolic/plain/AUTHORS</dc:title>
          </cc:Agent>
        </dc:contributor>
        <dc:source>http://www.gnome.org</dc:source>
      </cc:Work>
      <cc:License
         rdf:about="http://creativecommons.org/licenses/by-sa/3.0/">
        <cc:permits
           rdf:resource="http://creativecommons.org/ns#Reproduction" />
        <cc:permits
           rdf:resource="http://creativecommons.org/ns#Distribution" />
        <cc:requires
           rdf:resource="http://creativecommons.org/ns#Notice" />
        <cc:requires
           rdf:resource="http://creativecommons.org/ns#Attribution" />
        <cc:permits
           rdf:resource="http://creativecommons.org/ns#DerivativeWorks" />
        <cc:requires
           rdf:resource="http://creativecommons.org/ns#ShareAlike" />
      </cc:License>
    </rdf:RDF>
  </metadata>
  <g
     transform="translate(-141.9998,-670)"
     id="layer3"
     style="display:inline" />
  <g
     transform="translate(-141.9998,-670)"
     id="layer2"
     style="display:inline" />
  <g
     transform="translate(-122,-641)"
     id="layer4"
     style="display:inline" />
  <g
     transform="translate(-122,-398)"
     id="layer8" />
  <g
     transform="translate(-122,-398)"
     id="layer7" />
  <g
     transform="translate(-122,-398)"
     id="layer5">
    <path
       d="M 130.90625,407 A 1.001098,1.001098 0 1 0 131,409 l 3,0 a 1.0001,1.0001 0 1 0 0,-2 l -3,0 a 1.0001,1.0001 0 0 0 -0.0937,0 z"
       inkscape:connector-curvature="0"
       id="path3601"
       style="font-size:medium;font-style:normal;font-variant:normal;font-weight:normal;font-stretch:normal;text-indent:0;text-align:start;text-decoration:none;line-height:normal;letter-spacing:normal;word-spacing:normal;text-transform:none;direction:ltr;block-progression:tb;writing-mode:lr-tb;text-anchor:start;color:#000000;fill:#bcbcbc;fill-opacity:1;fill-rule:nonzero;stroke:none;stroke-width:2;marker:none;visibility:visible;display:inline;overflow:visible;enable-background:accumulate;font-family:Bitstream Vera Sans;-inkscape-font-specification:Bitstream Vera Sans" />
    <path
       d="m 124.21875,398.03125 c -1.20512,0 -2.1875,1.01795 -2.1875,2.21875 l 0,9.5625 c 0,1.2008 0.98238,2.21875 2.1875,2.21875 l 11.59375,0 c 1.20512,0 2.1875,-1.01795 2.1875,-2.21875 l 0,-9.5625 c 0,-1.2008 -0.98238,-2.21875 -2.1875,-2.21875 l -11.59375,0 z m 0,2 11.59375,0 c 0.12027,0 0.1875,0.08 0.1875,0.21875 l 0,9.5625 c 0,0.13872 -0.0672,0.21875 -0.1875,0.21875 l -11.59375,0 c -0.12027,0 -0.1875,-0.08 -0.1875,-0.21875 l 0,-9.5625 c 0,-0.13872 0.0672,-0.21875 0.1875,-0.21875 z"
       inkscape:connector-curvature="0"
       id="rect11749-5-9"
       style="font-size:medium;font-style:normal;font-variant:normal;font-weight:normal;font-stretch:normal;text-indent:0;text-align:start;text-decoration:none;line-height:normal;letter-spacing:normal;word-spacing:normal;text-transform:none;direction:ltr;block-progression:tb;writing-mode:lr-tb;text-anchor:start;color:#000000;fill:#bcbcbc;fill-opacity:1;stroke:none;stroke-width:2;marker:none;visibility:visible;display:inline;overflow:visible;enable-background:accumulate;font-family:Bitstream Vera Sans;-inkscape-font-specification:Bitstream Vera Sans" />
    <path
       d="m 125.78125,402 a 1.0001,1.0001 0 0 0 -0.46875,1.71875 l 1.8125,1.78125 -1.8125,1.78125 a 1.0001,1.0001 0 1 0 1.375,1.4375 l 2.5625,-2.5 a 1.0001,1.0001 0 0 0 0,-1.4375 l -2.5625,-2.5 A 1.0001,1.0001 0 0 0 125.78125,402 z"
       inkscape:connector-curvature="0"
       id="path11751-2-3"
       style="font-size:medium;font-style:normal;font-variant:normal;font-weight:normal;font-stretch:normal;text-indent:0;text-align:start;text-decoration:none;line-height:normal;letter-spacing:normal;word-spacing:normal;text-transform:none;direction:ltr;block-progression:tb;writing-mode:lr-tb;text-anchor:start;color:#000000;fill:#bcbcbc;fill-opacity:1;stroke:none;stroke-width:2;marker:none;visibility:visible;display:inline;overflow:visible;enable-background:accumulate;font-family:Bitstream Vera Sans;-inkscape-font-specification:Bitstream Vera Sans" />
    <rect
       width="15.981825"
       height="16"
       rx="0"
       ry="0"
       x="122"
       y="398"
       id="rect3620-8"
       style="fill:none;stroke:none" />
  </g>
  <g
     transform="translate(-122,-398)"
     id="layer6" />
  <g
     transform="translate(-141.9998,-670)"
     id="layer1"
     style="display:inline" />
</svg>
