<?xml version="1.0" encoding="UTF-8" standalone="no"?>
<!-- Created with Inkscape (http://www.inkscape.org/) -->
<svg
   xmlns:dc="http://purl.org/dc/elements/1.1/"
   xmlns:cc="http://web.resource.org/cc/"
   xmlns:rdf="http://www.w3.org/1999/02/22-rdf-syntax-ns#"
   xmlns:svg="http://www.w3.org/2000/svg"
   xmlns="http://www.w3.org/2000/svg"
   xmlns:xlink="http://www.w3.org/1999/xlink"
   xmlns:sodipodi="http://sodipodi.sourceforge.net/DTD/sodipodi-0.dtd"
   xmlns:inkscape="http://www.inkscape.org/namespaces/inkscape"
   width="16"
   height="16"
   id="svg2"
   sodipodi:version="0.32"
   inkscape:version="0.45"
   version="1.0"
   sodipodi:docbase="/home/lapo/Icone/format-text/16x16"
   sodipodi:docname="format-text-underline.svg"
   inkscape:output_extension="org.inkscape.output.svg.inkscape"
   inkscape:export-filename="/home/lapo/Desktop/format-text.png"
   inkscape:export-xdpi="90"
   inkscape:export-ydpi="90">
  <defs
     id="defs4">
    <linearGradient
       inkscape:collect="always"
       id="linearGradient3185">
      <stop
         style="stop-color:#888a85;stop-opacity:1"
         offset="0"
         id="stop3187" />
      <stop
         style="stop-color:#555753;stop-opacity:1"
         offset="1"
         id="stop3189" />
    </linearGradient>
    <linearGradient
       id="linearGradient4256"
       inkscape:collect="always">
      <stop
         id="stop4258"
         offset="0"
         style="stop-color:#ffffff;stop-opacity:1;" />
      <stop
         id="stop4260"
         offset="1"
         style="stop-color:#ffffff;stop-opacity:0;" />
    </linearGradient>
    <radialGradient
       inkscape:collect="always"
       xlink:href="#linearGradient3185"
       id="radialGradient3640"
       gradientUnits="userSpaceOnUse"
       gradientTransform="matrix(1.1706733,6.11754e-6,0,0.4155624,59.41864,-51.378912)"
       cx="3.8879435"
       cy="14.134427"
       fx="3.8879435"
       fy="14.134427"
       r="7" />
    <linearGradient
       inkscape:collect="always"
       xlink:href="#linearGradient4256"
       id="linearGradient3648"
       gradientUnits="userSpaceOnUse"
       gradientTransform="translate(-59.984835,-4.0298118)"
       x1="7.2478447"
       y1="6.3656702"
       x2="12.993087"
       y2="16.751301" />
    <linearGradient
       inkscape:collect="always"
       xlink:href="#linearGradient4256"
       id="linearGradient3650"
       gradientUnits="userSpaceOnUse"
       gradientTransform="translate(-59.984835,-4.0298118)"
       x1="8.2643108"
       y1="14.541593"
       x2="4.7950678"
       y2="10.431535" />
  </defs>
  <sodipodi:namedview
     id="base"
     pagecolor="#8c86cb"
     bordercolor="#afafaf"
     borderopacity="1"
     inkscape:pageopacity="0"
     inkscape:pageshadow="2"
     inkscape:zoom="1"
     inkscape:cx="56.328429"
     inkscape:cy="78.890595"
     inkscape:document-units="px"
     inkscape:current-layer="layer1"
     width="16px"
     height="16px"
     gridspacingx="0.5px"
     gridspacingy="0.5px"
     inkscape:showpageshadow="false"
     borderlayer="true"
     gridempspacing="2"
     inkscape:window-width="1023"
     inkscape:window-height="797"
     inkscape:window-x="77"
     inkscape:window-y="53"
     showgrid="false"
     showborder="true"
     showguides="false"
     inkscape:guide-bbox="false"
     inkscape:grid-points="true"
     inkscape:grid-bbox="false">
    <sodipodi:guide
       orientation="vertical"
       position="10"
       id="guide3217" />
    <sodipodi:guide
       orientation="horizontal"
       position="39.125"
       id="guide3219" />
    <sodipodi:guide
       orientation="vertical"
       position="23.997436"
       id="guide3221" />
    <sodipodi:guide
       orientation="horizontal"
       position="4.125"
       id="guide3544" />
    <sodipodi:guide
       orientation="horizontal"
       position="5"
       id="guide4317" />
    <sodipodi:guide
       orientation="vertical"
       position="3"
       id="guide4887" />
    <sodipodi:guide
       orientation="vertical"
       position="44.989669"
       id="guide4889" />
    <sodipodi:guide
       orientation="horizontal"
       position="28"
       id="guide3281" />
    <sodipodi:guide
       orientation="horizontal"
       position="24.96875"
       id="guide3361" />
    <sodipodi:guide
       orientation="horizontal"
       position="20.948038"
       id="guide3363" />
    <sodipodi:guide
       orientation="horizontal"
       position="9"
       id="guide4351" />
  </sodipodi:namedview>
  <metadata
     id="metadata7">
    <rdf:RDF>
      <cc:Work
         rdf:about="">
        <dc:format>image/svg+xml</dc:format>
        <dc:type
           rdf:resource="http://purl.org/dc/dcmitype/StillImage" />
        <dc:creator>
          <cc:Agent>
            <dc:title>Lapo Calamandrei</dc:title>
          </cc:Agent>
        </dc:creator>
        <cc:license
           rdf:resource="http://creativecommons.org/licenses/GPL/2.0/" />
      </cc:Work>
      <cc:License
         rdf:about="http://creativecommons.org/licenses/GPL/2.0/">
        <cc:permits
           rdf:resource="http://web.resource.org/cc/Reproduction" />
        <cc:permits
           rdf:resource="http://web.resource.org/cc/Distribution" />
        <cc:requires
           rdf:resource="http://web.resource.org/cc/Notice" />
        <cc:permits
           rdf:resource="http://web.resource.org/cc/DerivativeWorks" />
        <cc:requires
           rdf:resource="http://web.resource.org/cc/ShareAlike" />
        <cc:requires
           rdf:resource="http://web.resource.org/cc/SourceCode" />
      </cc:License>
    </rdf:RDF>
  </metadata>
  <g
     inkscape:label="Livello 1"
     inkscape:groupmode="layer"
     id="layer1"
     style="display:inline">
    <g
       id="g5511"
       inkscape:export-filename="/home/lapo/Desktop/format-text.png"
       inkscape:export-xdpi="90"
       inkscape:export-ydpi="90"
       transform="translate(-60,60)">
      <rect
         inkscape:export-ydpi="90"
         inkscape:export-xdpi="90"
         inkscape:export-filename="/home/lapo/Desktop/format-text.png"
         ry="0.54054403"
         rx="0.54054403"
         y="-46.5"
         x="61.5"
         height="2"
         width="13"
         id="rect3610"
         style="opacity:1;color:#000000;fill:url(#radialGradient3640);fill-opacity:1;fill-rule:nonzero;stroke:#2e3436;stroke-width:1;stroke-linecap:round;stroke-linejoin:miter;marker:none;marker-start:none;marker-mid:none;marker-end:none;stroke-miterlimit:4;stroke-dasharray:none;stroke-dashoffset:0;stroke-opacity:1;visibility:visible;display:inline;overflow:visible;enable-background:accumulate" />
      <g
         inkscape:export-ydpi="90"
         inkscape:export-xdpi="90"
         inkscape:export-filename="/home/lapo/Desktop/format-text.png"
         transform="translate(119.98484,-59.971753)"
         id="g3622">
        <path
           sodipodi:nodetypes="csccscsscccssssscccsccsccscccssccccsssssc"
           id="path3624"
           d="M -54.984835,0.4701882 C -55.118589,0.4663302 -55.24802,0.5177688 -55.342637,0.6123862 C -55.437254,0.7070037 -55.488693,0.8364345 -55.484835,0.9701882 L -55.484835,1.9701882 C -55.488693,2.1039419 -55.437254,2.2333727 -55.342637,2.3279902 C -55.24802,2.4226076 -55.118589,2.4740462 -54.984835,2.4701882 C -51.984728,2.4701882 -52.213319,2.4736574 -51.359835,2.7201882 C -50.933093,2.8434536 -50.790299,2.9846292 -50.672335,3.1889382 C -50.554371,3.3932472 -50.486683,3.7382773 -50.484835,4.2826882 L -50.484835,4.4701882 L -52.984835,4.4701882 C -54.163296,4.4929826 -54.460229,4.4867787 -55.547335,4.9076882 C -56.090888,5.118143 -56.605949,5.4574139 -56.953585,5.9701882 C -57.301221,6.4829625 -57.484835,7.1491621 -57.484835,7.9701882 C -57.484835,8.733692 -57.447851,9.3185252 -57.328585,9.8139382 C -57.209319,10.309351 -56.970465,10.740185 -56.578585,11.001438 C -55.794826,11.523944 -55.734835,11.470188 -53.984835,11.470188 C -52.580373,11.489481 -51.492855,11.173204 -50.484835,10.345188 L -50.484835,10.970188 C -50.488693,11.103942 -50.437254,11.233373 -50.342637,11.32799 C -50.24802,11.422607 -50.118589,11.474046 -49.984835,11.470188 L -46.984835,11.470188 C -46.851081,11.474046 -46.72165,11.422607 -46.627033,11.32799 C -46.532416,11.233373 -46.480977,11.103942 -46.484835,10.970188 L -46.484835,9.9701882 C -46.480977,9.8364342 -46.532416,9.7070032 -46.627033,9.6123862 C -46.72165,9.5177692 -46.851081,9.4663302 -46.984835,9.4701882 L -48.484835,9.4701882 L -48.484835,5.0951882 C -48.484835,4.0349077 -48.59998,3.2247091 -48.828585,2.5639382 C -49.05719,1.9031673 -49.433757,1.379072 -49.953585,1.0639382 C -50.993241,0.4336705 -51.72087,0.4701882 -52.266085,0.4701882 C -53.988839,0.4817318 -53.482335,0.4701882 -54.984835,0.4701882 z M -50.484835,6.4701882 L -50.484835,7.6889382 C -51.188698,8.3502455 -52.536355,9.1424862 -53.641085,9.3451882 C -54.225677,9.4524522 -54.694092,9.3835712 -54.984835,9.1889382 C -55.275578,8.9943052 -55.487433,8.6479856 -55.484835,7.8451882 C -55.487356,7.4387505 -55.419449,7.2172653 -55.297335,7.0639382 C -55.175221,6.9106111 -54.957544,6.7595042 -54.547335,6.6576882 C -53.799835,6.4721546 -52.414773,6.4734936 -50.484835,6.4701882 z "
           style="font-size:21.15485954px;font-style:normal;font-weight:bold;fill:#555753;fill-opacity:1;stroke:#2e3436;stroke-width:1px;stroke-linecap:butt;stroke-linejoin:miter;stroke-opacity:1;font-family:Bitstream Vera Serif" />
        <path
           sodipodi:nodetypes="ccccccccccccccccccc"
           style="font-size:21.15485954px;font-style:normal;font-weight:bold;opacity:0.4;fill:url(#linearGradient3648);fill-opacity:1;stroke:none;stroke-width:1px;stroke-linecap:butt;stroke-linejoin:miter;stroke-opacity:1;font-family:Bitstream Vera Serif"
           d="M -54.984835,0.9701882 L -54.984835,1.9701882 C -53.794689,1.9697787 -55.626942,1.9793068 -54.266085,1.9701882 C -49.84905,1.9701882 -49.984835,2.4365554 -49.984835,6.0951882 L -49.984835,10.970188 L -47.984835,10.970188 L -46.984835,10.970188 L -46.984835,9.9701882 L -48.984835,9.9701882 L -48.984835,5.0951882 C -48.984835,0.9726202 -50.774491,0.9701882 -53.266085,0.9701882 C -54.992887,0.9817589 -53.484835,0.9701882 -54.984835,0.9701882 z M -51.984835,4.9701882 C -53.884153,5.0069254 -55.957684,4.9991253 -56.703585,6.5326882 C -55.72031,6.0065092 -54.318038,5.9959752 -52.984835,5.9701882 L -50.984835,5.9701882 L -50.984835,5.2826882 C -50.985245,5.1618733 -51.009709,5.0787295 -51.016085,4.9701882 L -51.984835,4.9701882 z "
           id="path3626" />
        <path
           id="path3628"
           d="M -55.891085,7.3139382 C -56.644744,7.5694912 -56.990134,7.9909392 -56.984835,8.8451882 C -56.996532,12.459632 -52.492698,10.469835 -50.984835,8.9076882 L -50.984835,8.6889382 C -52.900069,9.9669902 -55.994558,10.849613 -55.984835,7.8451882 C -55.986083,7.6440702 -55.92604,7.4744412 -55.891085,7.3139382 z "
           style="font-size:21.15485954px;font-style:normal;font-weight:bold;opacity:0.21072795;fill:url(#linearGradient3650);fill-opacity:1;stroke:none;stroke-width:1px;stroke-linecap:butt;stroke-linejoin:miter;stroke-opacity:1;font-family:Bitstream Vera Serif"
           sodipodi:nodetypes="ccccsc" />
      </g>
    </g>
    <g
       style="display:inline"
       id="g3532"
       transform="matrix(1.1234418,0,-0.7136519,1.2607334,166.69725,2.9002995)"
       inkscape:export-filename="/home/lapo/Desktop/format-text.png"
       inkscape:export-xdpi="90"
       inkscape:export-ydpi="90" />
    <g
       style="fill:#fce94f;stroke:none;display:inline"
       id="g3557"
       transform="matrix(1.1234418,0,-0.7136519,1.2607334,166.69725,2.9002995)"
       inkscape:export-filename="/home/lapo/Desktop/format-text.png"
       inkscape:export-xdpi="90"
       inkscape:export-ydpi="90" />
  </g>
</svg>
