<?xml version="1.0" encoding="UTF-8" standalone="no"?>
<!-- Created with Inkscape (http://www.inkscape.org/) -->
<svg
   xmlns:dc="http://purl.org/dc/elements/1.1/"
   xmlns:cc="http://web.resource.org/cc/"
   xmlns:rdf="http://www.w3.org/1999/02/22-rdf-syntax-ns#"
   xmlns:svg="http://www.w3.org/2000/svg"
   xmlns="http://www.w3.org/2000/svg"
   xmlns:xlink="http://www.w3.org/1999/xlink"
   xmlns:sodipodi="http://sodipodi.sourceforge.net/DTD/sodipodi-0.dtd"
   xmlns:inkscape="http://www.inkscape.org/namespaces/inkscape"
   width="16"
   height="16"
   id="svg2"
   sodipodi:version="0.32"
   inkscape:version="0.45"
   version="1.0"
   sodipodi:docbase="/home/lapo/Icone/format-text/16x16"
   sodipodi:docname="format-text-bold.svg"
   inkscape:output_extension="org.inkscape.output.svg.inkscape"
   inkscape:export-filename="/home/lapo/Desktop/format-text.png"
   inkscape:export-xdpi="90"
   inkscape:export-ydpi="90">
  <defs
     id="defs4">
    <linearGradient
       id="linearGradient4256"
       inkscape:collect="always">
      <stop
         id="stop4258"
         offset="0"
         style="stop-color:#ffffff;stop-opacity:1;" />
      <stop
         id="stop4260"
         offset="1"
         style="stop-color:#ffffff;stop-opacity:0;" />
    </linearGradient>
    <linearGradient
       inkscape:collect="always"
       xlink:href="#linearGradient4256"
       id="linearGradient3638"
       gradientUnits="userSpaceOnUse"
       x1="7.2478447"
       y1="6.3656702"
       x2="12.993087"
       y2="16.751301" />
  </defs>
  <sodipodi:namedview
     id="base"
     pagecolor="#8c86cb"
     bordercolor="#afafaf"
     borderopacity="1"
     inkscape:pageopacity="0"
     inkscape:pageshadow="2"
     inkscape:zoom="1"
     inkscape:cx="11.88182"
     inkscape:cy="72.510869"
     inkscape:document-units="px"
     inkscape:current-layer="layer1"
     width="16px"
     height="16px"
     gridspacingx="0.5px"
     gridspacingy="0.5px"
     inkscape:showpageshadow="false"
     borderlayer="true"
     gridempspacing="2"
     inkscape:window-width="1023"
     inkscape:window-height="797"
     inkscape:window-x="77"
     inkscape:window-y="53"
     showgrid="false"
     showborder="true"
     showguides="false"
     inkscape:guide-bbox="false"
     inkscape:grid-points="true"
     inkscape:grid-bbox="false">
    <sodipodi:guide
       orientation="vertical"
       position="10"
       id="guide3217" />
    <sodipodi:guide
       orientation="horizontal"
       position="39.125"
       id="guide3219" />
    <sodipodi:guide
       orientation="vertical"
       position="23.997436"
       id="guide3221" />
    <sodipodi:guide
       orientation="horizontal"
       position="4.125"
       id="guide3544" />
    <sodipodi:guide
       orientation="horizontal"
       position="5"
       id="guide4317" />
    <sodipodi:guide
       orientation="vertical"
       position="3"
       id="guide4887" />
    <sodipodi:guide
       orientation="vertical"
       position="44.989669"
       id="guide4889" />
    <sodipodi:guide
       orientation="horizontal"
       position="28"
       id="guide3281" />
    <sodipodi:guide
       orientation="horizontal"
       position="24.96875"
       id="guide3361" />
    <sodipodi:guide
       orientation="horizontal"
       position="20.948038"
       id="guide3363" />
    <sodipodi:guide
       orientation="horizontal"
       position="9"
       id="guide4351" />
  </sodipodi:namedview>
  <metadata
     id="metadata7">
    <rdf:RDF>
      <cc:Work
         rdf:about="">
        <dc:format>image/svg+xml</dc:format>
        <dc:type
           rdf:resource="http://purl.org/dc/dcmitype/StillImage" />
        <dc:creator>
          <cc:Agent>
            <dc:title>Lapo Calamandrei</dc:title>
          </cc:Agent>
        </dc:creator>
        <cc:license
           rdf:resource="http://creativecommons.org/licenses/GPL/2.0/" />
      </cc:Work>
      <cc:License
         rdf:about="http://creativecommons.org/licenses/GPL/2.0/">
        <cc:permits
           rdf:resource="http://web.resource.org/cc/Reproduction" />
        <cc:permits
           rdf:resource="http://web.resource.org/cc/Distribution" />
        <cc:requires
           rdf:resource="http://web.resource.org/cc/Notice" />
        <cc:permits
           rdf:resource="http://web.resource.org/cc/DerivativeWorks" />
        <cc:requires
           rdf:resource="http://web.resource.org/cc/ShareAlike" />
        <cc:requires
           rdf:resource="http://web.resource.org/cc/SourceCode" />
      </cc:License>
    </rdf:RDF>
  </metadata>
  <g
     inkscape:label="Livello 1"
     inkscape:groupmode="layer"
     id="layer1"
     style="display:inline">
    <g
       id="g3603"
       transform="translate(1.516e-2,-2.029812)"
       inkscape:export-filename="/home/lapo/Desktop/format-text.png"
       inkscape:export-xdpi="90"
       inkscape:export-ydpi="90">
      <path
         transform="translate(-40,3)"
         d="M 43,1.5 C 42.866246,1.496142 42.736815,1.5475806 42.642198,1.642198 C 42.547581,1.7368155 42.496142,1.8662463 42.5,2 L 42.5,3 C 42.496142,3.1337537 42.547581,3.2631845 42.642198,3.357802 C 42.736815,3.4524194 42.866246,3.503858 43,3.5 C 46.000107,3.5 47.771516,3.5034692 48.625,3.75 C 49.051742,3.8732654 49.194536,4.014441 49.3125,4.21875 C 49.430464,4.423059 49.498152,4.7680891 49.5,5.3125 L 49.5,5.5 L 46,5.5 C 44.821539,5.5227944 43.524606,5.5165905 42.4375,5.9375 C 41.893947,6.1479548 41.378886,6.4872257 41.03125,7 C 40.683614,7.5127743 40.5,8.1789739 40.5,9 C 40.5,9.7635038 40.536984,10.348337 40.65625,10.84375 C 40.775516,11.339163 41.01437,11.769997 41.40625,12.03125 C 42.190009,12.553756 43.25,12.5 45,12.5 C 45.581023,12.5 46.58801,12.352997 47.625,12.09375 C 48.30489,11.923777 48.928528,11.680176 49.5,11.375 L 49.5,12 C 49.496142,12.133754 49.547581,12.263185 49.642198,12.357802 C 49.736815,12.452419 49.866246,12.503858 50,12.5 L 55,12.5 C 55.133754,12.503858 55.263185,12.452419 55.357802,12.357802 C 55.452419,12.263185 55.503858,12.133754 55.5,12 L 55.5,11 C 55.503858,10.866246 55.452419,10.736815 55.357802,10.642198 C 55.263185,10.547581 55.133754,10.496142 55,10.5 L 53.5,10.5 L 53.5,6.125 C 53.5,5.0647195 53.384855,4.2545209 53.15625,3.59375 C 52.927645,2.9329791 52.551078,2.4088838 52.03125,2.09375 C 50.991594,1.4634823 49.604757,1.5057835 47.71875,1.5 C 45.995996,1.5115436 44.5025,1.5 43,1.5 z M 49.5,7.5 L 49.5,8.71875 C 48.796137,9.3800573 47.44848,10.172298 46.34375,10.375 C 45.759158,10.482264 45.290743,10.413383 45,10.21875 C 44.709257,10.024117 44.497402,9.6777974 44.5,8.875 C 44.497479,8.4685623 44.565386,8.2470771 44.6875,8.09375 C 44.809614,7.9404229 45.027291,7.789316 45.4375,7.6875 C 46.185,7.5019664 47.570062,7.5033054 49.5,7.5 z "
         id="path3605"
         style="font-size:21.15485954px;font-style:normal;font-weight:bold;fill:#555753;fill-opacity:1;stroke:#2e3436;stroke-width:1px;stroke-linecap:butt;stroke-linejoin:miter;stroke-opacity:1;font-family:Bitstream Vera Serif"
         inkscape:original="M 43 2 L 43 3 C 49 3 49.992138 2.9960485 50 5.3125 L 50 6 L 46 6 C 43.629862 6.0458444 41 6 41 9 C 41 12 41.5 12 45 12 C 46 12 49 11.5 50 10.5 L 50 12 L 55 12 L 55 11 L 53 11 L 53 6.125 C 53 2.0024319 51.491947 2.0115707 47.71875 2 C 45.991948 2.0115707 44.5 2 43 2 z M 50 7 L 50 8.9375 C 48.492137 10.499647 43.988304 12.489444 44 8.875 C 43.988303 6.989444 45.5 7 50 7 z "
         inkscape:radius="0.4861359"
         sodipodi:type="inkscape:offset" />
      <path
         id="path3607"
         d="M 3,5 L 3,6 C 4.1901464,5.9995905 5.3578928,6.0091186 6.71875,6 C 10.491948,6.0115709 12,6.002432 12,10.125 L 12,15 L 14,15 L 15,15 L 15,14 L 13,14 L 13,9.125 C 13,5.002432 11.491948,5.0115709 7.71875,5 C 5.991948,5.0115707 4.5,5 3,5 z M 6,9 C 4.1006816,9.0367372 2.027151,9.0289371 1.28125,10.5625 C 2.264525,10.036321 3.6667974,10.025787 5,10 L 9,10 L 9,9.3125 C 8.9995899,9.1916851 8.9751262,9.1085413 8.96875,9 L 6,9 z M 4.09375,11.34375 C 3.3400912,11.599303 2.9947007,12.020751 3,12.875 C 2.9883029,16.489444 7.492137,14.499647 9,12.9375 L 9,12.71875 C 7.0847658,13.996802 3.9902773,14.879425 4,11.875 C 3.9987524,11.673882 4.0587947,11.504253 4.09375,11.34375 z "
         style="font-size:21.15485954px;font-style:normal;font-weight:bold;opacity:0.4;fill:url(#linearGradient3638);fill-opacity:1;stroke:none;stroke-width:1px;stroke-linecap:butt;stroke-linejoin:miter;stroke-opacity:1;font-family:Bitstream Vera Serif" />
    </g>
    <g
       style="display:inline"
       id="g3532"
       transform="matrix(1.1234418,0,-0.7136519,1.2607334,166.69725,2.9002995)"
       inkscape:export-filename="/home/lapo/Desktop/format-text.png"
       inkscape:export-xdpi="90"
       inkscape:export-ydpi="90" />
    <g
       style="fill:#fce94f;stroke:none;display:inline"
       id="g3557"
       transform="matrix(1.1234418,0,-0.7136519,1.2607334,166.69725,2.9002995)"
       inkscape:export-filename="/home/lapo/Desktop/format-text.png"
       inkscape:export-xdpi="90"
       inkscape:export-ydpi="90" />
  </g>
</svg>
