<?xml version="1.0" encoding="UTF-8" standalone="no"?>
<!-- Created with Inkscape (http://www.inkscape.org/) -->
<svg
   xmlns:dc="http://purl.org/dc/elements/1.1/"
   xmlns:cc="http://web.resource.org/cc/"
   xmlns:rdf="http://www.w3.org/1999/02/22-rdf-syntax-ns#"
   xmlns:svg="http://www.w3.org/2000/svg"
   xmlns="http://www.w3.org/2000/svg"
   xmlns:xlink="http://www.w3.org/1999/xlink"
   xmlns:sodipodi="http://sodipodi.sourceforge.net/DTD/sodipodi-0.dtd"
   xmlns:inkscape="http://www.inkscape.org/namespaces/inkscape"
   width="16"
   height="16"
   id="svg2"
   sodipodi:version="0.32"
   inkscape:version="0.45+devel"
   version="1.0"
   sodipodi:docname="help-about.svg"
   inkscape:output_extension="org.inkscape.output.svg.inkscape">
  <defs
     id="defs4">
    <linearGradient
       inkscape:collect="always"
       id="linearGradient5211">
      <stop
         style="stop-color:#ffffff;stop-opacity:1;"
         offset="0"
         id="stop5213" />
      <stop
         style="stop-color:#ffffff;stop-opacity:0;"
         offset="1"
         id="stop5215" />
    </linearGradient>
    <linearGradient
       id="linearGradient5195">
      <stop
         id="stop5199"
         offset="0"
         style="stop-color:#fce94f;stop-opacity:1" />
      <stop
         style="stop-color:#f4de27;stop-opacity:1;"
         offset="0.58336526"
         id="stop5205" />
      <stop
         id="stop5197"
         offset="1"
         style="stop-color:#fff48f;stop-opacity:1;" />
    </linearGradient>
    <radialGradient
       inkscape:collect="always"
       xlink:href="#linearGradient5195"
       id="radialGradient5209"
       gradientUnits="userSpaceOnUse"
       gradientTransform="matrix(0.9754964,0,0,0.9751226,0.194925,0.6749098)"
       cx="7.9549513"
       cy="5.9379601"
       fx="7.9549513"
       fy="5.9379601"
       r="7.6684915" />
    <radialGradient
       inkscape:collect="always"
       xlink:href="#linearGradient5211"
       id="radialGradient5217"
       cx="7.953125"
       cy="4.8580775"
       fx="7.953125"
       fy="4.8580775"
       r="5.734375"
       gradientUnits="userSpaceOnUse"
       gradientTransform="matrix(1.7527565,0,0,1.7527565,-5.986766,-4.9056517)" />
  </defs>
  <sodipodi:namedview
     id="base"
     pagecolor="#ffffff"
     bordercolor="#e5e5e5"
     borderopacity="1"
     gridtolerance="10000"
     guidetolerance="10"
     objecttolerance="10"
     inkscape:pageopacity="0.0"
     inkscape:pageshadow="2"
     inkscape:zoom="1"
     inkscape:cx="15.594281"
     inkscape:cy="1.3102552"
     inkscape:document-units="px"
     inkscape:current-layer="layer1"
     width="16px"
     height="16px"
     borderlayer="true"
     inkscape:showpageshadow="false"
     inkscape:window-width="890"
     inkscape:window-height="692"
     inkscape:window-x="312"
     inkscape:window-y="198">
    <inkscape:grid
       type="xygrid"
       id="grid4598" />
  </sodipodi:namedview>
  <metadata
     id="metadata7">
    <rdf:RDF>
      <cc:Work
         rdf:about="">
        <dc:format>image/svg+xml</dc:format>
        <dc:type
           rdf:resource="http://purl.org/dc/dcmitype/StillImage" />
      </cc:Work>
    </rdf:RDF>
  </metadata>
  <g
     inkscape:label="Layer 1"
     inkscape:groupmode="layer"
     id="layer1">
    <path
       sodipodi:type="star"
       style="opacity:1;color:#000000;fill:url(#radialGradient5209);fill-opacity:1;fill-rule:nonzero;stroke:#c4a000;stroke-width:1.01697958px;stroke-linecap:butt;stroke-linejoin:miter;marker:none;marker-start:none;marker-mid:none;marker-end:none;stroke-miterlimit:4;stroke-dasharray:none;stroke-dashoffset:0;stroke-opacity:1;visibility:visible;display:inline;overflow:visible;enable-background:accumulate"
       id="path4596"
       sodipodi:sides="4"
       sodipodi:cx="7.9549513"
       sodipodi:cy="8.0450487"
       sodipodi:r1="7.1600018"
       sodipodi:r2="3.3845155"
       sodipodi:arg1="1.5707963"
       sodipodi:arg2="2.3561945"
       inkscape:flatsided="false"
       inkscape:rounded="0.13800197"
       inkscape:randomized="0"
       d="M 7.9549515,15.20505 C 7.2188725,15.20505 6.0822239,10.958749 5.5617374,10.438263 C 5.0412509,9.9177761 0.79494952,8.7811279 0.79494953,8.0450489 C 0.79494954,7.3089699 5.041251,6.1723213 5.5617374,5.6518348 C 6.0822239,5.1313484 7.2188721,0.88504695 7.9549511,0.88504696 C 8.6910301,0.88504697 9.8276787,5.1313484 10.348165,5.6518349 C 10.868652,6.1723213 15.114953,7.3089695 15.114953,8.0450485 C 15.114953,8.7811275 10.868652,9.9177761 10.348165,10.438263 C 9.8276787,10.958749 8.6910305,15.20505 7.9549515,15.20505 z"
       transform="matrix(0.9776534,0,0,0.988987,-0.2771851,-0.3753)" />
    <path
       sodipodi:type="inkscape:offset"
       inkscape:radius="-1.0608842"
       inkscape:original="M 7.96875 0.875 C 7.232671 0.87499999 6.0829863 5.1357634 5.5625 5.65625 C 5.0420135 6.1767365 0.78125001 7.2951712 0.78125 8.03125 C 0.78124999 8.767329 5.0420134 9.9170132 5.5625 10.4375 C 6.0829865 10.957986 7.2326712 15.21875 7.96875 15.21875 C 8.704829 15.21875 9.8232632 10.957986 10.34375 10.4375 C 10.864236 9.9170135 15.125 8.7673288 15.125 8.03125 C 15.125 7.295171 10.864236 6.1767363 10.34375 5.65625 C 9.8232635 5.1357635 8.7048288 0.87500001 7.96875 0.875 z "
       xlink:href="#path4596"
       style="opacity:1;color:#000000;fill:none;fill-opacity:1;fill-rule:nonzero;stroke:url(#radialGradient5217);stroke-width:0.99999994000000003px;stroke-linecap:butt;stroke-linejoin:miter;marker:none;marker-start:none;marker-mid:none;marker-end:none;stroke-miterlimit:4;stroke-dasharray:none;stroke-dashoffset:0;stroke-opacity:1;visibility:visible;display:inline;overflow:visible;enable-background:accumulate"
       id="path5207"
       inkscape:href="#path4596"
       d="M 7.96875,2.8125 C 7.8698401,3.0418361 7.7890139,3.2106209 7.6875,3.46875 C 7.470464,4.0206281 7.2340179,4.5958415 7.03125,5.09375 C 6.9298661,5.3427043 6.8531652,5.5737412 6.75,5.78125 C 6.6468348,5.9887588 6.5643892,6.1543606 6.3125,6.40625 C 6.058734,6.660016 5.8957111,6.7413053 5.6875,6.84375 C 5.4792889,6.9461947 5.2492171,7.0250538 5,7.125 C 4.5015658,7.3248924 3.895649,7.5367706 3.34375,7.75 C 3.0979558,7.844964 2.9391234,7.9383005 2.71875,8.03125 C 2.9480861,8.1301599 3.1168709,8.2109861 3.375,8.3125 C 3.9268781,8.529536 4.5020914,8.7659821 5,8.96875 C 5.2489543,9.070134 5.4799911,9.1468347 5.6875,9.25 C 5.8950089,9.3531653 6.0606106,9.4356105 6.3125,9.6875 C 6.5643898,9.9393895 6.6468347,10.104991 6.75,10.3125 C 6.8531653,10.520009 6.929866,10.751046 7.03125,11 C 7.2340179,11.497909 7.470464,12.073122 7.6875,12.625 C 7.7890139,12.883129 7.8698401,13.051914 7.96875,13.28125 C 8.0616995,13.060877 8.155036,12.902044 8.25,12.65625 C 8.4632294,12.104351 8.6751076,11.498434 8.875,11 C 8.9749462,10.750783 9.0538052,10.520711 9.15625,10.3125 C 9.2586948,10.104289 9.3399834,9.9412662 9.59375,9.6875 C 9.8456395,9.4356102 10.011241,9.3531653 10.21875,9.25 C 10.426259,9.1468347 10.657296,9.070134 10.90625,8.96875 C 11.404159,8.7659821 11.979372,8.529536 12.53125,8.3125 C 12.789379,8.2109861 12.958164,8.1301599 13.1875,8.03125 C 12.967127,7.9383005 12.808294,7.844964 12.5625,7.75 C 12.010601,7.5367706 11.404684,7.3248924 10.90625,7.125 C 10.657033,7.0250538 10.426961,6.9461947 10.21875,6.84375 C 10.010539,6.7413053 9.8475162,6.6600163 9.59375,6.40625 C 9.339984,6.152484 9.2586947,5.9894611 9.15625,5.78125 C 9.0538053,5.5730389 8.9749462,5.3429671 8.875,5.09375 C 8.6751076,4.5953158 8.4632294,3.989399 8.25,3.4375 C 8.155036,3.1917058 8.0616995,3.0328734 7.96875,2.8125 z"
       transform="translate(-0.5,-0.4375)" />
  </g>
</svg>
