<?xml version="1.0" encoding="UTF-8" standalone="no"?>
<!-- Created with Inkscape (http://www.inkscape.org/) -->
<svg
   xmlns:dc="http://purl.org/dc/elements/1.1/"
   xmlns:cc="http://web.resource.org/cc/"
   xmlns:rdf="http://www.w3.org/1999/02/22-rdf-syntax-ns#"
   xmlns:svg="http://www.w3.org/2000/svg"
   xmlns="http://www.w3.org/2000/svg"
   xmlns:xlink="http://www.w3.org/1999/xlink"
   xmlns:sodipodi="http://sodipodi.sourceforge.net/DTD/sodipodi-0.dtd"
   xmlns:inkscape="http://www.inkscape.org/namespaces/inkscape"
   width="16"
   height="16"
   id="svg2"
   sodipodi:version="0.32"
   inkscape:version="0.44"
   version="1.0"
   sodipodi:docbase="/home/lapo/Icone/cvs/gnome-icon-theme/16x16/actions"
   sodipodi:docname="help-faq.svg"
   inkscape:export-filename="/home/lapo/Desktop/shout.png"
   inkscape:export-xdpi="90"
   inkscape:export-ydpi="90"
   inkscape:output_extension="org.inkscape.output.svg.inkscape">
  <defs
     id="defs4">
    <linearGradient
       inkscape:collect="always"
       id="linearGradient3100">
      <stop
         style="stop-color:#eeeeec;stop-opacity:1"
         offset="0"
         id="stop3102" />
      <stop
         style="stop-color:white;stop-opacity:1"
         offset="1"
         id="stop3104" />
    </linearGradient>
    <linearGradient
       inkscape:collect="always"
       xlink:href="#linearGradient3100"
       id="linearGradient2031"
       gradientUnits="userSpaceOnUse"
       x1="6.2186141"
       y1="4.0344343"
       x2="6.2186141"
       y2="9.68291" />
    <linearGradient
       inkscape:collect="always"
       xlink:href="#linearGradient3100"
       id="linearGradient3011"
       gradientUnits="userSpaceOnUse"
       gradientTransform="translate(-1,0)"
       x1="6.2186141"
       y1="4.0344343"
       x2="6.2186141"
       y2="9.68291" />
    <linearGradient
       inkscape:collect="always"
       xlink:href="#linearGradient3100"
       id="linearGradient3013"
       gradientUnits="userSpaceOnUse"
       gradientTransform="translate(-1,0)"
       x1="6.2186141"
       y1="4.0344343"
       x2="6.2186141"
       y2="9.68291" />
  </defs>
  <sodipodi:namedview
     id="base"
     pagecolor="white"
     bordercolor="#afafaf"
     borderopacity="1"
     inkscape:pageopacity="1"
     inkscape:pageshadow="2"
     inkscape:zoom="1"
     inkscape:cx="9.3947638"
     inkscape:cy="3.0741959"
     inkscape:document-units="px"
     inkscape:current-layer="layer1"
     width="16px"
     height="16px"
     gridspacingx="0.5px"
     gridspacingy="0.5px"
     inkscape:showpageshadow="false"
     borderlayer="false"
     gridempspacing="2"
     inkscape:window-width="1084"
     inkscape:window-height="797"
     inkscape:window-x="153"
     inkscape:window-y="172"
     showgrid="false"
     showborder="false"
     inkscape:grid-points="true"
     inkscape:guide-bbox="true"
     showguides="true" />
  <metadata
     id="metadata7">
    <rdf:RDF>
      <cc:Work
         rdf:about="">
        <dc:format>image/svg+xml</dc:format>
        <dc:type
           rdf:resource="http://purl.org/dc/dcmitype/StillImage" />
        <dc:creator>
          <cc:Agent>
            <dc:title>Lapo Calamandrei</dc:title>
          </cc:Agent>
        </dc:creator>
        <cc:license
           rdf:resource="http://creativecommons.org/licenses/GPL/2.0/" />
        <dc:title>Message New</dc:title>
      </cc:Work>
      <cc:License
         rdf:about="http://creativecommons.org/licenses/GPL/2.0/">
        <cc:permits
           rdf:resource="http://web.resource.org/cc/Reproduction" />
        <cc:permits
           rdf:resource="http://web.resource.org/cc/Distribution" />
        <cc:requires
           rdf:resource="http://web.resource.org/cc/Notice" />
        <cc:permits
           rdf:resource="http://web.resource.org/cc/DerivativeWorks" />
        <cc:requires
           rdf:resource="http://web.resource.org/cc/ShareAlike" />
        <cc:requires
           rdf:resource="http://web.resource.org/cc/SourceCode" />
      </cc:License>
    </rdf:RDF>
  </metadata>
  <g
     inkscape:label="Livello 1"
     inkscape:groupmode="layer"
     id="layer1">
    <g
       id="g2996"
       style="opacity:0.7">
      <g
         style="opacity:0.7"
         transform="translate(-5,-1)"
         id="g2964">
        <g
           id="g2956"
           inkscape:label="Livello 1"
           transform="translate(3,-1)">
          <path
             id="path2958"
             d="M 6.0625,2.5 C 4.642453,2.5 3.5,3.64245 3.5,5.0625 L 3.5,8.9375 C 3.5,10.35755 4.642453,11.5 6.0625,11.5 L 7.5,11.5 L 11.5,11.5 C 12.517244,11.16049 12.5,10.07177 12.5,8.9375 L 12.5,5.0625 C 12.5,3.64245 11.326297,2.5 9.90625,2.5 L 6.0625,2.5 z "
             style="fill:url(#linearGradient3011);fill-opacity:1;fill-rule:evenodd;stroke:#888a85;stroke-width:1px;stroke-linecap:butt;stroke-linejoin:miter;stroke-opacity:1"
             sodipodi:nodetypes="cccccccccc" />
          <g
             transform="translate(30,150)"
             id="g2960" />
        </g>
        <path
           sodipodi:nodetypes="ccccccscccc"
           id="path2962"
           d="M 7.0625,3.46875 C 6.1545989,3.46875 5.46875,4.1545962 5.46875,5.0625 L 5.46875,8.9375 C 5.46875,9.8454038 6.1545989,10.53125 7.0625,10.53125 L 8.5,10.53125 C 8.7317714,10.535962 8.9539156,10.62482 9.125,10.78125 L 12.46875,10.28125 C 12.738247,10.240951 12.53125,9.5094739 12.53125,8.9375 L 12.53125,5.0625 C 12.53125,4.1686051 11.814151,3.46875 10.90625,3.46875 L 7.0625,3.46875 z "
           style="fill:none;fill-opacity:1;fill-rule:evenodd;stroke:white;stroke-width:1px;stroke-linecap:butt;stroke-linejoin:miter;stroke-opacity:1"
           transform="translate(2,-1)" />
      </g>
      <g
         id="g2987">
        <g
           id="g2047"
           inkscape:label="Livello 1"
           transform="translate(3,-1)">
          <path
             id="path2049"
             d="M 6.0625,2.5 C 4.642453,2.5 3.5,3.64245 3.5,5.0625 L 3.5,8.9375 C 3.5,10.35755 4.642453,11.5 6.0625,11.5 L 7.5,11.5 L 11.5,15 L 11.5,11.5 C 12.517244,11.16049 12.5,10.07177 12.5,8.9375 L 12.5,5.0625 C 12.5,3.64245 11.326297,2.5 9.90625,2.5 L 6.0625,2.5 z "
             style="fill:url(#linearGradient3013);fill-opacity:1;fill-rule:evenodd;stroke:#888a85;stroke-width:1px;stroke-linecap:butt;stroke-linejoin:miter;stroke-opacity:1"
             sodipodi:nodetypes="ccccccccccc" />
          <g
             transform="translate(30,150)"
             id="g2051" />
        </g>
        <path
           transform="translate(2,-1)"
           sodipodi:type="inkscape:offset"
           inkscape:radius="-0.95488375"
           inkscape:original="M 7.0625 2.5 C 5.642453 2.5 4.5 3.64245 4.5 5.0625 L 4.5 8.9375 C 4.5 10.35755 5.642453 11.5 7.0625 11.5 L 8.5 11.5 L 12.5 15 L 12.5 11.5 C 13.517244 11.16049 13.5 10.07177 13.5 8.9375 L 13.5 5.0625 C 13.5 3.64245 12.326297 2.5 10.90625 2.5 L 7.0625 2.5 z "
           style="fill:none;fill-opacity:1;fill-rule:evenodd;stroke:white;stroke-width:1px;stroke-linecap:butt;stroke-linejoin:miter;stroke-opacity:1"
           id="path2954"
           d="M 7.0625,3.46875 C 6.1545989,3.46875 5.46875,4.1545962 5.46875,5.0625 L 5.46875,8.9375 C 5.46875,9.8454038 6.1545989,10.53125 7.0625,10.53125 L 8.5,10.53125 C 8.7317714,10.535962 8.9539156,10.62482 9.125,10.78125 L 11.53125,12.875 L 11.53125,11.5 C 11.531597,11.087979 11.796156,10.722635 12.1875,10.59375 C 12.403835,10.521547 12.397927,10.544379 12.46875,10.28125 C 12.539573,10.018121 12.53125,9.5094739 12.53125,8.9375 L 12.53125,5.0625 C 12.53125,4.1686051 11.814151,3.46875 10.90625,3.46875 L 7.0625,3.46875 z " />
        <g
           id="g2055"
           transform="translate(3,-5)"
           style="fill:#729fcf">
          <path
             sodipodi:nodetypes="cccsccsssssccsssssccssscc"
             id="path2057"
             d="M 8.9366382,12 L 8.0978674,12 L 8.0978674,11.449509 C 8.0978657,11.208819 8.1388527,11.011025 8.2208286,10.856121 C 8.3028008,10.701223 8.4755317,10.521301 8.739022,10.316353 L 9.1342543,9.9982118 C 9.3011272,9.8719118 9.4211606,9.752758 9.4943548,9.6407492 C 9.5704703,9.5287487 9.6085298,9.4143608 9.608533,9.2975858 C 9.6085298,9.0854955 9.5119175,8.913914 9.318696,8.78284 C 9.1283962,8.6517753 8.875155,8.5862406 8.5589718,8.5862357 C 8.3276857,8.5862406 8.0802998,8.6279445 7.8168134,8.7113476 C 7.5562517,8.7947601 7.2839808,8.9162971 7,9.0759587 L 7,8.40393 C 7.2751978,8.2680994 7.553324,8.1668186 7.8343793,8.1000871 C 8.1183592,8.0333661 8.4111235,8.000003 8.7126731,7.9999976 C 9.2513572,8.000003 9.6831847,8.1155824 10.008157,8.346736 C 10.336049,8.5778998 10.499997,8.882934 10.500001,9.261839 C 10.499997,9.442958 10.4473,9.6157309 10.341908,9.7801595 C 10.236509,9.9422131 10.052068,10.12571 9.7885832,10.330652 L 9.402134,10.63807 C 9.2645317,10.750077 9.1664556,10.838251 9.1079055,10.902591 C 9.0522775,10.964554 9.0127543,11.025323 8.9893358,11.084897 C 8.9717672,11.134944 8.9585929,11.195713 8.9498125,11.267203 C 8.941027,11.338697 8.9366356,11.436404 8.9366382,11.560322 L 8.9366382,12"
             style="font-size:8.88391113px;font-style:normal;font-weight:normal;fill:#729fcf;fill-opacity:1;stroke:none;stroke-width:1px;stroke-linecap:butt;stroke-linejoin:miter;stroke-opacity:1;font-family:Bitstream Vera Sans" />
          <path
             sodipodi:nodetypes="ccccc"
             id="path2059"
             d="M 8,13 L 8.9676912,13 L 8.9676912,14 L 8,14 L 8,13"
             style="font-size:8.88391113px;font-style:normal;font-weight:normal;fill:#729fcf;fill-opacity:1;stroke:none;stroke-width:1px;stroke-linecap:butt;stroke-linejoin:miter;stroke-opacity:1;font-family:Bitstream Vera Sans" />
        </g>
      </g>
    </g>
    <g
       id="g2089"
       inkscape:label="Livello 1"
       transform="translate(-4,1)">
      <path
         id="path2091"
         d="M 7.0625,2.5 C 5.642453,2.5 4.5,3.64245 4.5,5.0625 L 4.5,8.9375 C 4.5,10.35755 5.642453,11.5 7.0625,11.5 L 8.5,11.5 L 12.5,15 L 12.5,11.5 C 13.517244,11.16049 13.5,10.07177 13.5,8.9375 L 13.5,5.0625 C 13.5,3.64245 12.326297,2.5 10.90625,2.5 L 7.0625,2.5 z "
         style="fill:url(#linearGradient2031);fill-opacity:1;fill-rule:evenodd;stroke:#888a85;stroke-width:1px;stroke-linecap:butt;stroke-linejoin:miter;stroke-opacity:1"
         sodipodi:nodetypes="ccccccccccc" />
      <g
         transform="translate(30,150)"
         id="g2097" />
    </g>
    <g
       id="g2133"
       transform="translate(-3,-3)"
       style="fill:#729fcf">
      <path
         sodipodi:nodetypes="cccsccsssssccsssssccssscc"
         id="text2126"
         d="M 8.9366382,12 L 8.0978674,12 L 8.0978674,11.449509 C 8.0978657,11.208819 8.1388527,11.011025 8.2208286,10.856121 C 8.3028008,10.701223 8.4755317,10.521301 8.739022,10.316353 L 9.1342543,9.9982118 C 9.3011272,9.8719118 9.4211606,9.752758 9.4943548,9.6407492 C 9.5704703,9.5287487 9.6085298,9.4143608 9.608533,9.2975858 C 9.6085298,9.0854955 9.5119175,8.913914 9.318696,8.78284 C 9.1283962,8.6517753 8.875155,8.5862406 8.5589718,8.5862357 C 8.3276857,8.5862406 8.0802998,8.6279445 7.8168134,8.7113476 C 7.5562517,8.7947601 7.2839808,8.9162971 7,9.0759587 L 7,8.40393 C 7.2751978,8.2680994 7.553324,8.1668186 7.8343793,8.1000871 C 8.1183592,8.0333661 8.4111235,8.000003 8.7126731,7.9999976 C 9.2513572,8.000003 9.6831847,8.1155824 10.008157,8.346736 C 10.336049,8.5778998 10.499997,8.882934 10.500001,9.261839 C 10.499997,9.442958 10.4473,9.6157309 10.341908,9.7801595 C 10.236509,9.9422131 10.052068,10.12571 9.7885832,10.330652 L 9.402134,10.63807 C 9.2645317,10.750077 9.1664556,10.838251 9.1079055,10.902591 C 9.0522775,10.964554 9.0127543,11.025323 8.9893358,11.084897 C 8.9717672,11.134944 8.9585929,11.195713 8.9498125,11.267203 C 8.941027,11.338697 8.9366356,11.436404 8.9366382,11.560322 L 8.9366382,12"
         style="font-size:8.88391113px;font-style:normal;font-weight:normal;fill:#729fcf;fill-opacity:1;stroke:none;stroke-width:1px;stroke-linecap:butt;stroke-linejoin:miter;stroke-opacity:1;font-family:Bitstream Vera Sans" />
      <path
         sodipodi:nodetypes="ccccc"
         id="path2131"
         d="M 8,13 L 8.9676912,13 L 8.9676912,14 L 8,14 L 8,13"
         style="font-size:8.88391113px;font-style:normal;font-weight:normal;fill:#729fcf;fill-opacity:1;stroke:none;stroke-width:1px;stroke-linecap:butt;stroke-linejoin:miter;stroke-opacity:1;font-family:Bitstream Vera Sans" />
    </g>
    <g
       id="g2061"
       inkscape:label="Livello 1"
       transform="translate(-4,1)"
       style="fill:none;stroke:white">
      <path
         sodipodi:type="inkscape:offset"
         inkscape:radius="-0.95488375"
         inkscape:original="M 7.0625 2.5 C 5.642453 2.5 4.5 3.64245 4.5 5.0625 L 4.5 8.9375 C 4.5 10.35755 5.642453 11.5 7.0625 11.5 L 8.5 11.5 L 12.5 15 L 12.5 11.5 C 13.517244 11.16049 13.5 10.07177 13.5 8.9375 L 13.5 5.0625 C 13.5 3.64245 12.326297 2.5 10.90625 2.5 L 7.0625 2.5 z "
         style="fill:none;fill-opacity:1;fill-rule:evenodd;stroke:white;stroke-width:1px;stroke-linecap:butt;stroke-linejoin:miter;stroke-opacity:1"
         id="path2952"
         d="M 7.0625,3.46875 C 6.1545989,3.46875 5.46875,4.1545962 5.46875,5.0625 L 5.46875,8.9375 C 5.46875,9.8454038 6.1545989,10.53125 7.0625,10.53125 L 8.5,10.53125 C 8.7317714,10.535962 8.9539156,10.62482 9.125,10.78125 L 11.53125,12.875 L 11.53125,11.5 C 11.531597,11.087979 11.796156,10.722635 12.1875,10.59375 C 12.403835,10.521547 12.397927,10.544379 12.46875,10.28125 C 12.539573,10.018121 12.53125,9.5094739 12.53125,8.9375 L 12.53125,5.0625 C 12.53125,4.1686051 11.814151,3.46875 10.90625,3.46875 L 7.0625,3.46875 z " />
      <g
         transform="translate(30,150)"
         id="g2065"
         style="fill:none;stroke:white" />
    </g>
  </g>
</svg>
