<?xml version="1.0" encoding="UTF-8" standalone="no"?>
<!-- Created with Inkscape (http://www.inkscape.org/) -->
<svg
   xmlns:dc="http://purl.org/dc/elements/1.1/"
   xmlns:cc="http://web.resource.org/cc/"
   xmlns:rdf="http://www.w3.org/1999/02/22-rdf-syntax-ns#"
   xmlns:svg="http://www.w3.org/2000/svg"
   xmlns="http://www.w3.org/2000/svg"
   xmlns:sodipodi="http://sodipodi.sourceforge.net/DTD/sodipodi-0.dtd"
   xmlns:inkscape="http://www.inkscape.org/namespaces/inkscape"
   width="16"
   height="16"
   id="svg2"
   sodipodi:version="0.32"
   inkscape:version="0.45"
   version="1.0"
   sodipodi:docname="mail-send-receive.svg"
   sodipodi:docbase="/home/dobey/Projects/gnome-icon-theme/16x16/actions"
   inkscape:output_extension="org.inkscape.output.svg.inkscape">
  <defs
     id="defs4" />
  <sodipodi:namedview
     id="base"
     pagecolor="#ffffff"
     bordercolor="#666666"
     borderopacity="0.37647059"
     inkscape:pageopacity="0"
     inkscape:pageshadow="2"
     inkscape:zoom="1"
     inkscape:cx="18.074705"
     inkscape:cy="10.783659"
     inkscape:document-units="px"
     inkscape:current-layer="layer1"
     width="16px"
     height="16px"
     inkscape:showpageshadow="false"
     gridempspacing="2"
     gridspacingx="0.5px"
     gridspacingy="0.5px"
     inkscape:window-width="872"
     inkscape:window-height="848"
     inkscape:window-x="209"
     inkscape:window-y="67"
     borderlayer="true"
     showgrid="false"
     inkscape:grid-points="true"
     showborder="true"
     showguides="true"
     inkscape:guide-bbox="true" />
  <metadata
     id="metadata7">
    <rdf:RDF>
      <cc:Work
         rdf:about="">
        <dc:format>image/svg+xml</dc:format>
        <dc:type
           rdf:resource="http://purl.org/dc/dcmitype/StillImage" />
        <dc:creator>
          <cc:Agent>
            <dc:title>Lapo Calamandrei</dc:title>
          </cc:Agent>
        </dc:creator>
        <cc:license
           rdf:resource="http://creativecommons.org/licenses/GPL/2.0/" />
      </cc:Work>
      <cc:License
         rdf:about="http://creativecommons.org/licenses/GPL/2.0/">
        <cc:permits
           rdf:resource="http://web.resource.org/cc/Reproduction" />
        <cc:permits
           rdf:resource="http://web.resource.org/cc/Distribution" />
        <cc:requires
           rdf:resource="http://web.resource.org/cc/Notice" />
        <cc:permits
           rdf:resource="http://web.resource.org/cc/DerivativeWorks" />
        <cc:requires
           rdf:resource="http://web.resource.org/cc/ShareAlike" />
        <cc:requires
           rdf:resource="http://web.resource.org/cc/SourceCode" />
      </cc:License>
    </rdf:RDF>
  </metadata>
  <g
     inkscape:label="Livello 1"
     inkscape:groupmode="layer"
     id="layer1">
    <g
       id="g10170"
       transform="matrix(-1,0,0,1,19,2)">
      <g
         transform="matrix(0,1,1,0,-3,2)"
         id="g10172">
        <path
           style="fill:#edd400;fill-opacity:1;fill-rule:evenodd;stroke:#c4a000;stroke-width:1px;stroke-linecap:butt;stroke-linejoin:miter;stroke-opacity:1"
           d="M 7.5,11.5 L 2.5,16.5 L 7.5,21.5 L 8.5,21.5 L 8.5,18.5 L 11.5,18.5 L 11.5,14.5 L 8.5,14.5 L 8.5,11.5 L 7.5,11.5 z "
           id="path10174"
           sodipodi:nodetypes="cccccccccc" />
        <path
           sodipodi:nodetypes="ccscccccsccc"
           id="path10176"
           d="M 10.5,15.53125 L 8.5,15.53125 C 8.22527,15.535314 7.9605998,15.42797 7.7663151,15.233685 C 7.5720303,15.0394 7.4646865,14.77473 7.46875,14.5 L 7.46875,12.96875 L 3.9375,16.5 L 7.46875,20.03125 L 7.46875,18.5 C 7.4646865,18.22527 7.5720303,17.9606 7.7663151,17.766315 C 7.9605998,17.57203 8.22527,17.464686 8.5,17.46875 L 10.5,17.46875 L 10.5,15.53125 z "
           style="opacity:0.8;fill:none;fill-opacity:1;fill-rule:evenodd;stroke:#ffffff;stroke-width:1px;stroke-linecap:butt;stroke-linejoin:miter;stroke-opacity:1" />
      </g>
      <g
         id="g10178">
        <rect
           style="opacity:1;fill:#ffffff;fill-opacity:1;fill-rule:evenodd;stroke:none;stroke-width:2;stroke-linecap:round;stroke-linejoin:miter;stroke-miterlimit:4;stroke-dasharray:none;stroke-dashoffset:0.69999992;stroke-opacity:1"
           id="rect10180"
           width="1"
           height="1"
           x="5"
           y="13"
           transform="matrix(0,1,1,0,0,0)" />
        <rect
           style="opacity:1;fill:#ffffff;fill-opacity:1;fill-rule:evenodd;stroke:none;stroke-width:2;stroke-linecap:round;stroke-linejoin:miter;stroke-miterlimit:4;stroke-dasharray:none;stroke-dashoffset:0.69999992;stroke-opacity:1"
           id="rect10182"
           width="1"
           height="1"
           x="6"
           y="14"
           transform="matrix(0,1,1,0,0,0)" />
        <rect
           style="opacity:1;fill:#ffffff;fill-opacity:1;fill-rule:evenodd;stroke:none;stroke-width:2;stroke-linecap:round;stroke-linejoin:miter;stroke-miterlimit:4;stroke-dasharray:none;stroke-dashoffset:0.69999992;stroke-opacity:1"
           id="rect10184"
           width="1"
           height="1"
           x="7"
           y="15"
           transform="matrix(0,1,1,0,0,0)" />
        <rect
           style="opacity:1;fill:#ffffff;fill-opacity:1;fill-rule:evenodd;stroke:none;stroke-width:2;stroke-linecap:round;stroke-linejoin:miter;stroke-miterlimit:4;stroke-dasharray:none;stroke-dashoffset:0.69999992;stroke-opacity:1"
           id="rect10186"
           width="1"
           height="1"
           x="8"
           y="16"
           transform="matrix(0,1,1,0,0,0)" />
        <rect
           style="opacity:1;fill:#ffffff;fill-opacity:1;fill-rule:evenodd;stroke:none;stroke-width:2;stroke-linecap:round;stroke-linejoin:miter;stroke-miterlimit:4;stroke-dasharray:none;stroke-dashoffset:0.69999992;stroke-opacity:1"
           id="rect10188"
           width="1"
           height="1"
           x="8"
           y="10"
           transform="matrix(0,1,1,0,0,0)" />
        <rect
           style="opacity:1;fill:#ffffff;fill-opacity:1;fill-rule:evenodd;stroke:none;stroke-width:2;stroke-linecap:round;stroke-linejoin:miter;stroke-miterlimit:4;stroke-dasharray:none;stroke-dashoffset:0.69999992;stroke-opacity:1"
           id="rect10190"
           width="1"
           height="1"
           x="7"
           y="11"
           transform="matrix(0,1,1,0,0,0)" />
        <rect
           style="opacity:1;fill:#ffffff;fill-opacity:1;fill-rule:evenodd;stroke:none;stroke-width:2;stroke-linecap:round;stroke-linejoin:miter;stroke-miterlimit:4;stroke-dasharray:none;stroke-dashoffset:0.69999992;stroke-opacity:1"
           id="rect10192"
           width="1"
           height="1"
           x="6"
           y="12"
           transform="matrix(0,1,1,0,0,0)" />
        <rect
           style="opacity:1;fill:#ffffff;fill-opacity:1;fill-rule:evenodd;stroke:none;stroke-width:2;stroke-linecap:round;stroke-linejoin:miter;stroke-miterlimit:4;stroke-dasharray:none;stroke-dashoffset:0.69999992;stroke-opacity:1"
           id="rect10194"
           width="1"
           height="1"
           x="9"
           y="17"
           transform="matrix(0,1,1,0,0,0)" />
        <rect
           style="opacity:1;fill:#ffffff;fill-opacity:1;fill-rule:evenodd;stroke:none;stroke-width:2;stroke-linecap:round;stroke-linejoin:miter;stroke-miterlimit:4;stroke-dasharray:none;stroke-dashoffset:0.69999992;stroke-opacity:1"
           id="rect10196"
           width="1"
           height="1"
           x="9"
           y="9"
           transform="matrix(0,1,1,0,0,0)" />
      </g>
      <g
         style="fill:#c4a000"
         transform="matrix(1,0,0,-1,5,25)"
         id="g10198">
        <rect
           style="fill:#c4a000;fill-opacity:1;fill-rule:evenodd;stroke:none;stroke-width:2;stroke-linecap:round;stroke-linejoin:miter;stroke-miterlimit:4;stroke-dasharray:none;stroke-dashoffset:0.69999992;stroke-opacity:1"
           id="rect10200"
           width="1"
           height="1"
           x="-21"
           y="8"
           transform="matrix(0,-1,1,0,0,0)" />
        <rect
           style="fill:#c4a000;fill-opacity:1;fill-rule:evenodd;stroke:none;stroke-width:2;stroke-linecap:round;stroke-linejoin:miter;stroke-miterlimit:4;stroke-dasharray:none;stroke-dashoffset:0.69999992;stroke-opacity:1"
           id="rect10202"
           width="1"
           height="1"
           x="-20"
           y="9"
           transform="matrix(0,-1,1,0,0,0)" />
        <rect
           style="fill:#c4a000;fill-opacity:1;fill-rule:evenodd;stroke:none;stroke-width:2;stroke-linecap:round;stroke-linejoin:miter;stroke-miterlimit:4;stroke-dasharray:none;stroke-dashoffset:0.69999992;stroke-opacity:1"
           id="rect10204"
           width="1"
           height="1"
           x="-19"
           y="10"
           transform="matrix(0,-1,1,0,0,0)" />
        <rect
           style="fill:#c4a000;fill-opacity:1;fill-rule:evenodd;stroke:none;stroke-width:2;stroke-linecap:round;stroke-linejoin:miter;stroke-miterlimit:4;stroke-dasharray:none;stroke-dashoffset:0.69999992;stroke-opacity:1"
           id="rect10206"
           width="1"
           height="1"
           x="-18"
           y="11"
           transform="matrix(0,-1,1,0,0,0)" />
        <rect
           style="fill:#c4a000;fill-opacity:1;fill-rule:evenodd;stroke:none;stroke-width:2;stroke-linecap:round;stroke-linejoin:miter;stroke-miterlimit:4;stroke-dasharray:none;stroke-dashoffset:0.69999992;stroke-opacity:1"
           id="rect10208"
           width="1"
           height="1"
           x="-17"
           y="12"
           transform="matrix(0,-1,1,0,0,0)" />
        <rect
           style="fill:#c4a000;fill-opacity:1;fill-rule:evenodd;stroke:none;stroke-width:2;stroke-linecap:round;stroke-linejoin:miter;stroke-miterlimit:4;stroke-dasharray:none;stroke-dashoffset:0.69999992;stroke-opacity:1"
           id="rect10210"
           width="1"
           height="1"
           x="-17"
           y="4"
           transform="matrix(0,-1,1,0,0,0)" />
        <rect
           style="fill:#c4a000;fill-opacity:1;fill-rule:evenodd;stroke:none;stroke-width:2;stroke-linecap:round;stroke-linejoin:miter;stroke-miterlimit:4;stroke-dasharray:none;stroke-dashoffset:0.69999992;stroke-opacity:1"
           id="rect10212"
           width="1"
           height="1"
           x="-18"
           y="5"
           transform="matrix(0,-1,1,0,0,0)" />
        <rect
           style="fill:#c4a000;fill-opacity:1;fill-rule:evenodd;stroke:none;stroke-width:2;stroke-linecap:round;stroke-linejoin:miter;stroke-miterlimit:4;stroke-dasharray:none;stroke-dashoffset:0.69999992;stroke-opacity:1"
           id="rect10214"
           width="1"
           height="1"
           x="-19"
           y="6"
           transform="matrix(0,-1,1,0,0,0)" />
        <rect
           style="fill:#c4a000;fill-opacity:1;fill-rule:evenodd;stroke:none;stroke-width:2;stroke-linecap:round;stroke-linejoin:miter;stroke-miterlimit:4;stroke-dasharray:none;stroke-dashoffset:0.69999992;stroke-opacity:1"
           id="rect10216"
           width="1"
           height="1"
           x="-20"
           y="7"
           transform="matrix(0,-1,1,0,0,0)" />
        <rect
           transform="matrix(0,-1,1,0,0,0)"
           y="3"
           x="-16"
           height="1"
           width="1"
           id="rect10218"
           style="opacity:1;fill:#c4a000;fill-opacity:1;fill-rule:evenodd;stroke:none;stroke-width:2;stroke-linecap:round;stroke-linejoin:miter;stroke-miterlimit:4;stroke-dasharray:none;stroke-dashoffset:0.69999992;stroke-opacity:1" />
        <rect
           transform="matrix(0,-1,1,0,0,0)"
           y="13"
           x="-16"
           height="1"
           width="1"
           id="rect10220"
           style="opacity:1;fill:#c4a000;fill-opacity:1;fill-rule:evenodd;stroke:none;stroke-width:2;stroke-linecap:round;stroke-linejoin:miter;stroke-miterlimit:4;stroke-dasharray:none;stroke-dashoffset:0.69999992;stroke-opacity:1" />
      </g>
    </g>
    <g
       id="g10118"
       transform="matrix(-1,0,0,1,19,-11)">
      <g
         transform="matrix(0,-1,1,0,-8,23)"
         id="g10120">
        <path
           style="fill:#8ae234;fill-opacity:1;fill-rule:evenodd;stroke:#4e9a06;stroke-width:1px;stroke-linecap:butt;stroke-linejoin:miter;stroke-opacity:1"
           d="M 7.5,11.5 L 2.5,16.5 L 7.5,21.5 L 8.5,21.5 L 8.5,18.5 L 11.5,18.5 L 11.5,14.5 L 8.5,14.5 L 8.5,11.5 L 7.5,11.5 z "
           id="path10122"
           sodipodi:nodetypes="cccccccccc" />
        <path
           sodipodi:nodetypes="ccscccccsccc"
           id="path10124"
           d="M 10.5,15.53125 L 8.5,15.53125 C 8.22527,15.535314 7.9605998,15.42797 7.7663151,15.233685 C 7.5720303,15.0394 7.4646865,14.77473 7.46875,14.5 L 7.46875,12.96875 L 3.9375,16.5 L 7.46875,20.03125 L 7.46875,18.5 C 7.4646865,18.22527 7.5720303,17.9606 7.7663151,17.766315 C 7.9605998,17.57203 8.22527,17.464686 8.5,17.46875 L 10.5,17.46875 L 10.5,15.53125 z "
           style="opacity:0.65;fill:none;fill-opacity:1;fill-rule:evenodd;stroke:#ffffff;stroke-width:1px;stroke-linecap:butt;stroke-linejoin:miter;stroke-opacity:1" />
      </g>
      <g
         id="g10126">
        <rect
           style="opacity:0.4;fill:#ffffff;fill-opacity:1;fill-rule:evenodd;stroke:none;stroke-width:2;stroke-linecap:round;stroke-linejoin:miter;stroke-miterlimit:4;stroke-dasharray:none;stroke-dashoffset:0.69999992;stroke-opacity:1"
           id="rect10128"
           width="1"
           height="1"
           x="-20"
           y="8"
           transform="matrix(0,-1,1,0,0,0)" />
        <rect
           style="opacity:0.4;fill:#ffffff;fill-opacity:1;fill-rule:evenodd;stroke:none;stroke-width:2;stroke-linecap:round;stroke-linejoin:miter;stroke-miterlimit:4;stroke-dasharray:none;stroke-dashoffset:0.69999992;stroke-opacity:1"
           id="rect10130"
           width="1"
           height="1"
           x="-19"
           y="9"
           transform="matrix(0,-1,1,0,0,0)" />
        <rect
           style="opacity:0.4;fill:#ffffff;fill-opacity:1;fill-rule:evenodd;stroke:none;stroke-width:2;stroke-linecap:round;stroke-linejoin:miter;stroke-miterlimit:4;stroke-dasharray:none;stroke-dashoffset:0.69999992;stroke-opacity:1"
           id="rect10132"
           width="1"
           height="1"
           x="-18"
           y="10"
           transform="matrix(0,-1,1,0,0,0)" />
        <rect
           style="opacity:0.4;fill:#ffffff;fill-opacity:1;fill-rule:evenodd;stroke:none;stroke-width:2;stroke-linecap:round;stroke-linejoin:miter;stroke-miterlimit:4;stroke-dasharray:none;stroke-dashoffset:0.69999992;stroke-opacity:1"
           id="rect10134"
           width="1"
           height="1"
           x="-17"
           y="11"
           transform="matrix(0,-1,1,0,0,0)" />
        <rect
           style="opacity:0.4;fill:#ffffff;fill-opacity:1;fill-rule:evenodd;stroke:none;stroke-width:2;stroke-linecap:round;stroke-linejoin:miter;stroke-miterlimit:4;stroke-dasharray:none;stroke-dashoffset:0.69999992;stroke-opacity:1"
           id="rect10136"
           width="1"
           height="1"
           x="-17"
           y="5"
           transform="matrix(0,-1,1,0,0,0)" />
        <rect
           style="opacity:0.4;fill:#ffffff;fill-opacity:1;fill-rule:evenodd;stroke:none;stroke-width:2;stroke-linecap:round;stroke-linejoin:miter;stroke-miterlimit:4;stroke-dasharray:none;stroke-dashoffset:0.69999992;stroke-opacity:1"
           id="rect10138"
           width="1"
           height="1"
           x="-18"
           y="6"
           transform="matrix(0,-1,1,0,0,0)" />
        <rect
           style="opacity:0.4;fill:#ffffff;fill-opacity:1;fill-rule:evenodd;stroke:none;stroke-width:2;stroke-linecap:round;stroke-linejoin:miter;stroke-miterlimit:4;stroke-dasharray:none;stroke-dashoffset:0.69999992;stroke-opacity:1"
           id="rect10140"
           width="1"
           height="1"
           x="-19"
           y="7"
           transform="matrix(0,-1,1,0,0,0)" />
        <rect
           style="opacity:0.4;fill:#ffffff;fill-opacity:1;fill-rule:evenodd;stroke:none;stroke-width:2;stroke-linecap:round;stroke-linejoin:miter;stroke-miterlimit:4;stroke-dasharray:none;stroke-dashoffset:0.69999992;stroke-opacity:1"
           id="rect10142"
           width="1"
           height="1"
           x="-16"
           y="12"
           transform="matrix(0,-1,1,0,0,0)" />
        <rect
           style="opacity:0.4;fill:#ffffff;fill-opacity:1;fill-rule:evenodd;stroke:none;stroke-width:2;stroke-linecap:round;stroke-linejoin:miter;stroke-miterlimit:4;stroke-dasharray:none;stroke-dashoffset:0.69999992;stroke-opacity:1"
           id="rect10144"
           width="1"
           height="1"
           x="-16"
           y="4"
           transform="matrix(0,-1,1,0,0,0)" />
      </g>
      <g
         id="g10146">
        <rect
           style="fill:#4e9a06;fill-opacity:1;fill-rule:evenodd;stroke:none;stroke-width:2;stroke-linecap:round;stroke-linejoin:miter;stroke-miterlimit:4;stroke-dasharray:none;stroke-dashoffset:0.69999992;stroke-opacity:1"
           id="rect10148"
           width="1"
           height="1"
           x="-21"
           y="8"
           transform="matrix(0,-1,1,0,0,0)" />
        <rect
           style="fill:#4e9a06;fill-opacity:1;fill-rule:evenodd;stroke:none;stroke-width:2;stroke-linecap:round;stroke-linejoin:miter;stroke-miterlimit:4;stroke-dasharray:none;stroke-dashoffset:0.69999992;stroke-opacity:1"
           id="rect10150"
           width="1"
           height="1"
           x="-20"
           y="9"
           transform="matrix(0,-1,1,0,0,0)" />
        <rect
           style="fill:#4e9a06;fill-opacity:1;fill-rule:evenodd;stroke:none;stroke-width:2;stroke-linecap:round;stroke-linejoin:miter;stroke-miterlimit:4;stroke-dasharray:none;stroke-dashoffset:0.69999992;stroke-opacity:1"
           id="rect10152"
           width="1"
           height="1"
           x="-19"
           y="10"
           transform="matrix(0,-1,1,0,0,0)" />
        <rect
           style="fill:#4e9a06;fill-opacity:1;fill-rule:evenodd;stroke:none;stroke-width:2;stroke-linecap:round;stroke-linejoin:miter;stroke-miterlimit:4;stroke-dasharray:none;stroke-dashoffset:0.69999992;stroke-opacity:1"
           id="rect10154"
           width="1"
           height="1"
           x="-18"
           y="11"
           transform="matrix(0,-1,1,0,0,0)" />
        <rect
           style="fill:#4e9a06;fill-opacity:1;fill-rule:evenodd;stroke:none;stroke-width:2;stroke-linecap:round;stroke-linejoin:miter;stroke-miterlimit:4;stroke-dasharray:none;stroke-dashoffset:0.69999992;stroke-opacity:1"
           id="rect10156"
           width="1"
           height="1"
           x="-17"
           y="12"
           transform="matrix(0,-1,1,0,0,0)" />
        <rect
           style="fill:#4e9a06;fill-opacity:1;fill-rule:evenodd;stroke:none;stroke-width:2;stroke-linecap:round;stroke-linejoin:miter;stroke-miterlimit:4;stroke-dasharray:none;stroke-dashoffset:0.69999992;stroke-opacity:1"
           id="rect10158"
           width="1"
           height="1"
           x="-17"
           y="4"
           transform="matrix(0,-1,1,0,0,0)" />
        <rect
           style="fill:#4e9a06;fill-opacity:1;fill-rule:evenodd;stroke:none;stroke-width:2;stroke-linecap:round;stroke-linejoin:miter;stroke-miterlimit:4;stroke-dasharray:none;stroke-dashoffset:0.69999992;stroke-opacity:1"
           id="rect10160"
           width="1"
           height="1"
           x="-18"
           y="5"
           transform="matrix(0,-1,1,0,0,0)" />
        <rect
           style="fill:#4e9a06;fill-opacity:1;fill-rule:evenodd;stroke:none;stroke-width:2;stroke-linecap:round;stroke-linejoin:miter;stroke-miterlimit:4;stroke-dasharray:none;stroke-dashoffset:0.69999992;stroke-opacity:1"
           id="rect10162"
           width="1"
           height="1"
           x="-19"
           y="6"
           transform="matrix(0,-1,1,0,0,0)" />
        <rect
           style="fill:#4e9a06;fill-opacity:1;fill-rule:evenodd;stroke:none;stroke-width:2;stroke-linecap:round;stroke-linejoin:miter;stroke-miterlimit:4;stroke-dasharray:none;stroke-dashoffset:0.69999992;stroke-opacity:1"
           id="rect10164"
           width="1"
           height="1"
           x="-20"
           y="7"
           transform="matrix(0,-1,1,0,0,0)" />
        <rect
           transform="matrix(0,-1,1,0,0,0)"
           y="3"
           x="-16"
           height="1"
           width="1"
           id="rect10166"
           style="opacity:1;fill:#4e9a06;fill-opacity:1;fill-rule:evenodd;stroke:none;stroke-width:2;stroke-linecap:round;stroke-linejoin:miter;stroke-miterlimit:4;stroke-dasharray:none;stroke-dashoffset:0.69999992;stroke-opacity:1" />
        <rect
           transform="matrix(0,-1,1,0,0,0)"
           y="13"
           x="-16"
           height="1"
           width="1"
           id="rect10168"
           style="opacity:1;fill:#4e9a06;fill-opacity:1;fill-rule:evenodd;stroke:none;stroke-width:2;stroke-linecap:round;stroke-linejoin:miter;stroke-miterlimit:4;stroke-dasharray:none;stroke-dashoffset:0.69999992;stroke-opacity:1" />
      </g>
    </g>
    <g
       id="g9812"
       transform="matrix(-1,0,0,1,7,-8)" />
  </g>
</svg>
