<?xml version="1.0" encoding="UTF-8" standalone="no"?>
<!-- Created with Inkscape (http://www.inkscape.org/) -->
<svg
   xmlns:dc="http://purl.org/dc/elements/1.1/"
   xmlns:cc="http://web.resource.org/cc/"
   xmlns:rdf="http://www.w3.org/1999/02/22-rdf-syntax-ns#"
   xmlns:svg="http://www.w3.org/2000/svg"
   xmlns="http://www.w3.org/2000/svg"
   xmlns:xlink="http://www.w3.org/1999/xlink"
   xmlns:sodipodi="http://sodipodi.sourceforge.net/DTD/sodipodi-0.dtd"
   xmlns:inkscape="http://www.inkscape.org/namespaces/inkscape"
   width="16px"
   height="16px"
   id="svg5182"
   sodipodi:version="0.32"
   inkscape:version="0.45+devel"
   sodipodi:docname="mail-send.svg"
   inkscape:output_extension="org.inkscape.output.svg.inkscape"
   inkscape:export-filename="/home/andreas/project/gnome-icon-theme/16x16/actions/mail-send.png"
   inkscape:export-xdpi="90"
   inkscape:export-ydpi="90">
  <defs
     id="defs5184">
    <linearGradient
       id="linearGradient10691"
       inkscape:collect="always">
  <stop
   id="stop10693"
   offset="0"
   style="stop-color:#000000;stop-opacity:1;" />

  <stop
   id="stop10695"
   offset="1"
   style="stop-color:#000000;stop-opacity:0;" />

</linearGradient>
    <radialGradient
       inkscape:collect="always"
       xlink:href="#linearGradient10691"
       id="radialGradient9487"
       gradientUnits="userSpaceOnUse"
       gradientTransform="scale(1.902215,0.525703)"
       cx="6.702713"
       cy="73.615715"
       fx="6.702713"
       fy="73.615715"
       r="7.228416" />
    <linearGradient
       inkscape:collect="always"
       id="linearGradient6650">
      <stop
         style="stop-color:#eeeeec;stop-opacity:1;"
         offset="0"
         id="stop6652" />
      <stop
         style="stop-color:#eeeeec;stop-opacity:0;"
         offset="1"
         id="stop6654" />
    </linearGradient>
    <linearGradient
       inkscape:collect="always"
       xlink:href="#linearGradient6650"
       id="linearGradient6656"
       x1="32.740593"
       y1="24.181112"
       x2="32.740593"
       y2="32.330791"
       gradientUnits="userSpaceOnUse"
       gradientTransform="matrix(0.708862,0,0,0.7088614,-15.773091,-13.577047)" />
    <linearGradient
       inkscape:collect="always"
       id="linearGradient8330">
      <stop
         style="stop-color:#eeeeec;stop-opacity:1;"
         offset="0"
         id="stop8332" />
      <stop
         style="stop-color:#eeeeec;stop-opacity:0;"
         offset="1"
         id="stop8334" />
    </linearGradient>
    <radialGradient
       inkscape:collect="always"
       xlink:href="#linearGradient8330"
       id="radialGradient8336"
       cx="23.28125"
       cy="18.5"
       fx="23.28125"
       fy="18.5"
       r="3.28125"
       gradientTransform="matrix(1.9989948,0,0,1.4996954,-39.654824,-21.848559)"
       gradientUnits="userSpaceOnUse" />
  </defs>
  <sodipodi:namedview
     id="base"
     pagecolor="#ffffff"
     bordercolor="#666666"
     borderopacity="1.0"
     inkscape:pageopacity="0.0"
     inkscape:pageshadow="2"
     inkscape:zoom="16"
     inkscape:cx="5.6776695"
     inkscape:cy="0.066634099"
     inkscape:current-layer="layer1"
     showgrid="true"
     inkscape:grid-bbox="true"
     inkscape:document-units="px"
     inkscape:window-width="1680"
     inkscape:window-height="1000"
     inkscape:window-x="0"
     inkscape:window-y="49">
    <inkscape:grid
       type="xygrid"
       id="grid5207" />
  </sodipodi:namedview>
  <metadata
     id="metadata5187">
    <rdf:RDF>
      <cc:Work
         rdf:about="">
        <dc:format>image/svg+xml</dc:format>
        <dc:type
           rdf:resource="http://purl.org/dc/dcmitype/StillImage" />
        <cc:license
           rdf:resource="gpl" />
        <dc:title>Mail send</dc:title>
        <dc:date>August 2007</dc:date>
        <dc:creator>
          <cc:Agent>
            <dc:title>Hylke Bons</dc:title>
          </cc:Agent>
        </dc:creator>
        <dc:rights>
          <cc:Agent>
            <dc:title>Hylke Bons</dc:title>
          </cc:Agent>
        </dc:rights>
        <dc:source>http://www.gnome.org</dc:source>
        <dc:contributor>
          <cc:Agent>
            <dc:title>Andreas Nilsson</dc:title>
          </cc:Agent>
        </dc:contributor>
      </cc:Work>
    </rdf:RDF>
  </metadata>
  <g
     id="layer1"
     inkscape:label="Layer 1"
     inkscape:groupmode="layer">
    <path
       transform="matrix(0.581818,0,0,0.7894733,0.555583,-17.509414)"
       d="M 26.5,38.700001 A 13.75,3.8 0 1 1 -1,38.700001 A 13.75,3.8 0 1 1 26.5,38.700001 z"
       sodipodi:ry="3.8"
       sodipodi:rx="13.75"
       sodipodi:cy="38.700001"
       sodipodi:cx="12.75"
       id="path9485"
       style="opacity:0.6;color:#000000;fill:url(#radialGradient9487);fill-opacity:1;fill-rule:nonzero;stroke:none;stroke-width:0.80000001;stroke-linecap:butt;stroke-linejoin:miter;marker:none;marker-start:none;marker-mid:none;marker-end:none;stroke-miterlimit:4;stroke-dashoffset:0;stroke-opacity:1;visibility:visible;display:inline;overflow:visible"
       sodipodi:type="arc" />
    <path
       style="opacity:1;fill:#eeeeec;fill-opacity:1;stroke:#888a85;stroke-width:1.00000024;stroke-miterlimit:4;stroke-dasharray:none;stroke-opacity:1"
       d="M 0.48065068,0.55398002 L 0.53514408,3.0432095 C 1.1336288,3.0432095 1.4876348,3.8294175 1.4876348,4.4280802 C 1.4876341,5.0267436 1.1336294,5.5460929 0.53514408,5.5460929 L 0.53514408,6.992145 C 1.1336288,6.9921443 1.4598255,7.444547 1.4598255,8.0432102 C 1.4598255,8.6418722 1.1336294,9.1612222 0.53514408,9.1612222 L 0.53514408,10.607274 C 1.1336288,10.607274 1.4876348,11.11531 1.4876348,11.713974 C 1.4876348,12.312636 1.1336294,13.08234 0.53514408,13.08234 L 0.48065068,15.600383 L 2.8820435,15.588594 C 2.8820435,14.989923 3.3752869,14.539942 3.9737709,14.539942 C 4.5722543,14.539942 5.3841737,14.989925 5.3841737,15.588594 L 6.8297904,15.588594 C 6.8297891,14.989926 7.3229247,14.567759 7.9214087,14.567759 C 8.5198927,14.567759 8.9982157,14.989925 8.9982157,15.588594 L 10.443833,15.588594 C 10.443832,14.989926 11.020394,14.512125 11.618877,14.512125 C 12.217362,14.512125 12.973772,14.989925 12.973772,15.588594 L 15.39155,15.600383 L 15.446044,13.110158 C 14.847558,13.110158 14.413986,12.312637 14.413986,11.713974 C 14.413986,11.115311 14.847558,10.607274 15.446044,10.607274 L 15.446044,9.1612222 C 14.847558,9.1612232 14.413986,8.6418732 14.413986,8.0432102 C 14.413986,7.4445477 14.847558,6.992145 15.446044,6.992145 L 15.446044,5.5460929 C 14.847559,5.5460929 14.413986,4.9989269 14.413986,4.4002629 C 14.413987,3.8016002 14.847558,3.0432095 15.446044,3.0432095 L 15.39155,0.55398002 L 12.973772,0.54219132 C 12.950543,1.1203734 12.199292,1.5292774 11.615622,1.5292774 C 11.031953,1.5292774 10.467061,1.1203727 10.443833,0.54219132 L 8.9982157,0.54219132 C 8.9749867,1.1203734 8.5574407,1.5570947 7.9737707,1.5570947 C 7.3901007,1.5570947 6.8252097,1.1203727 6.8019824,0.54219132 L 5.3841737,0.54219132 C 5.3609457,1.1203727 4.8599723,1.5292774 4.2763029,1.5292774 C 3.6926336,1.5292767 2.9052715,1.1203727 2.8820435,0.54219132 L 0.48065068,0.55398002 z"
       id="rect5243"
       sodipodi:nodetypes="ccsccsccscccsccsccscccsccsccscccsccsccscc" />
    <path
       style="fill:#729fcf;fill-opacity:1;stroke:#3465a4;stroke-width:1.00000048;stroke-miterlimit:4;stroke-dasharray:none;stroke-opacity:1"
       d="M 4.2100349,3.5432161 L 11.718595,3.5432161 C 12.136961,3.5432161 12.47377,3.8793188 12.47377,4.2968082 L 12.47377,11.789626 C 12.47377,12.207114 12.136961,12.543218 11.718595,12.543218 L 4.2100349,12.543218 C 3.7916682,12.543218 3.4548609,12.207114 3.4548609,11.789626 L 3.4548609,4.2968082 C 3.4548609,3.8793188 3.7916682,3.5432161 4.2100349,3.5432161 z"
       id="rect4356" />
    <path
       style="opacity:0.33300003;fill:url(#linearGradient6656);fill-opacity:1;stroke:#eeeeec;stroke-width:1.00000024;stroke-miterlimit:4;stroke-dasharray:none;stroke-opacity:1"
       d="M 4.4737663,4.5432029 L 4.4737663,11.5432 L 11.473773,11.5432 L 11.473773,4.5432029 L 4.4737663,4.5432029 z"
       id="path6375" />
    <path
       style="opacity:0.40340911;fill:url(#radialGradient8336);fill-opacity:1;stroke:none;stroke-width:1;stroke-miterlimit:4;stroke-opacity:1"
       d="M 11.221142,5.8958016 C 11.221142,7.6917972 9.2782297,9.1494182 6.8842844,9.1494182 C 4.4903389,9.1494182 2.5474268,7.6917972 2.5474268,5.8958016 C 2.5474268,4.9978036 2.5474408,4.0882422 2.5474408,2.6421914 C 3.4495736,2.6421914 5.6873117,2.6421861 6.8842844,2.6421861 C 9.2782297,2.6421861 11.221142,4.0998055 11.221142,5.8958016 z"
       id="path8327"
       sodipodi:nodetypes="csscsc" />
  </g>
</svg>
