<?xml version="1.0" encoding="UTF-8" standalone="no"?>
<!-- Created with Inkscape (http://www.inkscape.org/) -->
<svg
   xmlns:dc="http://purl.org/dc/elements/1.1/"
   xmlns:cc="http://web.resource.org/cc/"
   xmlns:rdf="http://www.w3.org/1999/02/22-rdf-syntax-ns#"
   xmlns:svg="http://www.w3.org/2000/svg"
   xmlns="http://www.w3.org/2000/svg"
   xmlns:xlink="http://www.w3.org/1999/xlink"
   xmlns:sodipodi="http://inkscape.sourceforge.net/DTD/sodipodi-0.dtd"
   xmlns:inkscape="http://www.inkscape.org/namespaces/inkscape"
   inkscape:export-ydpi="90.000000"
   inkscape:export-xdpi="90.000000"
   inkscape:export-filename="/home/jimmac/Desktop/inkscape.png"
   sodipodi:docbase="/home/jimmac/src/cvs/gnome/gnome-icon-theme/scalable/filesystems"
   sodipodi:docname="gnome-fs-directory-accept.svg"
   inkscape:version="0.41pre4"
   sodipodi:version="0.32"
   id="svg1"
   height="48.000000px"
   width="48.000000px"
   y="0.0000000"
   x="0.0000000"
   version="1.0">
  <metadata
     id="metadata162">
    <rdf:RDF
       id="RDF163">
      <cc:Work
         id="Work164"
         rdf:about="">
        <dc:format
           id="format165">image/svg+xml</dc:format>
        <dc:type
           rdf:resource="http://purl.org/dc/dcmitype/StillImage"
           id="type166" />
        <dc:title
           id="title254">Folder Active</dc:title>
        <dc:creator
           id="creator255">
          <cc:Agent
             id="Agent256">
            <dc:title
               id="title257">Jakub Steiner</dc:title>
          </cc:Agent>
        </dc:creator>
        <dc:date
           id="date258">2005-02-01</dc:date>
        <cc:license
           rdf:resource="http://creativecommons.org/licenses/GPL/2.0/"
           id="license259" />
        <dc:identifier
           id="identifier267">http://jimmac.musichall.cz/</dc:identifier>
        <dc:subject
           id="subject268">
          <rdf:Bag
             id="Bag269">
            <rdf:li
               id="li529">folder</rdf:li>
            <rdf:li
               id="li530">directory</rdf:li>
            <rdf:li
               id="li531">storage</rdf:li>
          </rdf:Bag>
        </dc:subject>
      </cc:Work>
      <cc:License
         id="License260"
         rdf:about="http://creativecommons.org/licenses/GPL/2.0/">
        <cc:permits
           id="permits261"
           rdf:resource="http://web.resource.org/cc/Reproduction" />
        <cc:permits
           id="permits262"
           rdf:resource="http://web.resource.org/cc/Distribution" />
        <cc:requires
           id="requires263"
           rdf:resource="http://web.resource.org/cc/Notice" />
        <cc:permits
           id="permits264"
           rdf:resource="http://web.resource.org/cc/DerivativeWorks" />
        <cc:requires
           id="requires265"
           rdf:resource="http://web.resource.org/cc/ShareAlike" />
        <cc:requires
           id="requires266"
           rdf:resource="http://web.resource.org/cc/SourceCode" />
      </cc:License>
    </rdf:RDF>
  </metadata>
  <sodipodi:namedview
     inkscape:current-layer="layer2"
     inkscape:window-y="65"
     inkscape:window-x="65"
     showgrid="true"
     inkscape:document-units="px"
     inkscape:zoom="4.0000000"
     inkscape:cx="31.983978"
     inkscape:cy="22.796852"
     inkscape:window-height="962"
     inkscape:window-width="1097"
     inkscape:pageshadow="2"
     inkscape:pageopacity="0.0"
     borderopacity="1.0"
     bordercolor="#666666"
     pagecolor="#ffffff"
     id="base" />
  <defs
     id="defs3">
    <linearGradient
       id="linearGradient2877">
      <stop
         id="stop2879"
         offset="0"
         style="stop-color:#ffffff;stop-opacity:1;" />
      <stop
         id="stop2881"
         offset="1.0000000"
         style="stop-color:#c3c3c3;stop-opacity:1.0000000;" />
    </linearGradient>
    <linearGradient
       id="linearGradient465">
      <stop
         id="stop466"
         offset="0.0000000"
         style="stop-color:#1d1d18;stop-opacity:1.0000000;" />
      <stop
         id="stop467"
         offset="1.0000000"
         style="stop-color:#434337;stop-opacity:1.0000000;" />
    </linearGradient>
    <linearGradient
       id="linearGradient356">
      <stop
         id="stop357"
         offset="0.0000000"
         style="stop-color:#fffff3;stop-opacity:1.0000000;" />
      <stop
         id="stop358"
         offset="1.0000000"
         style="stop-color:#fffff3;stop-opacity:0.0000000;" />
    </linearGradient>
    <linearGradient
       id="linearGradient330"
       inkscape:collect="always">
      <stop
         id="stop331"
         offset="0"
         style="stop-color:#efefe3;stop-opacity:1;" />
      <stop
         id="stop332"
         offset="1"
         style="stop-color:#efefe3;stop-opacity:0;" />
    </linearGradient>
    <linearGradient
       id="linearGradient311">
      <stop
         id="stop312"
         offset="0.0000000"
         style="stop-color:#cfcfc4;stop-opacity:1.0000000;" />
      <stop
         id="stop335"
         offset="0.32673267"
         style="stop-color:#cfcfc4;stop-opacity:1.0000000;" />
      <stop
         id="stop313"
         offset="1"
         style="stop-color:#cfcfc4;stop-opacity:0;" />
    </linearGradient>
    <linearGradient
       id="linearGradient235">
      <stop
         id="stop236"
         offset="0.0000000"
         style="stop-color:#59594a;stop-opacity:1.0000000;" />
      <stop
         id="stop237"
         offset="1.0000000"
         style="stop-color:#a2a491;stop-opacity:1.0000000;" />
    </linearGradient>
    <linearGradient
       id="linearGradient984">
      <stop
         id="stop985"
         offset="0.0000000"
         style="stop-color:#59594a;stop-opacity:1.0000000;" />
      <stop
         id="stop986"
         offset="1.0000000"
         style="stop-color:#c5c7b0;stop-opacity:1.0000000;" />
    </linearGradient>
    <linearGradient
       id="linearGradient874">
      <stop
         id="stop875"
         offset="0.0000000"
         style="stop-color:#8b8b7a;stop-opacity:1.0000000;" />
      <stop
         id="stop876"
         offset="1.0000000"
         style="stop-color:#c5c7b0;stop-opacity:1.0000000;" />
    </linearGradient>
    <linearGradient
       id="linearGradient869">
      <stop
         id="stop870"
         offset="0.0000000"
         style="stop-color:#686b57;stop-opacity:1.0000000;" />
      <stop
         id="stop871"
         offset="1.0000000"
         style="stop-color:#97997f;stop-opacity:1.0000000;" />
    </linearGradient>
    <linearGradient
       gradientUnits="userSpaceOnUse"
       gradientTransform="scale(1.114987,0.896872)"
       xlink:href="#linearGradient869"
       id="linearGradient872"
       y2="-140.48617"
       x2="26.242413"
       y1="-97.787549"
       x1="30.622636" />
    <linearGradient
       gradientUnits="userSpaceOnUse"
       gradientTransform="scale(1.240100,0.806386)"
       xlink:href="#linearGradient874"
       id="linearGradient873"
       y2="106.40125"
       x2="18.144176"
       y1="236.17801"
       x1="18.144176" />
    <linearGradient
       gradientUnits="userSpaceOnUse"
       gradientTransform="scale(1.118040,0.894423)"
       xlink:href="#linearGradient984"
       id="linearGradient877"
       y2="-149.87292"
       x2="196.78638"
       y1="-112.13977"
       x1="196.78638" />
    <linearGradient
       y2="106.40125"
       x2="18.144176"
       y1="236.17801"
       x1="18.144176"
       gradientTransform="scale(1.240100,0.806386)"
       gradientUnits="userSpaceOnUse"
       id="linearGradient242"
       xlink:href="#linearGradient874"
       inkscape:collect="always" />
    <linearGradient
       y2="-140.48617"
       x2="26.242413"
       y1="-97.787549"
       x1="30.622636"
       gradientTransform="scale(1.114987,0.896872)"
       gradientUnits="userSpaceOnUse"
       id="linearGradient244"
       xlink:href="#linearGradient869"
       inkscape:collect="always" />
    <linearGradient
       y2="-140.48617"
       x2="26.242413"
       y1="-97.787549"
       x1="30.622636"
       gradientTransform="matrix(1.114987,0.000000,0.000000,0.896872,283.1033,-22.72401)"
       gradientUnits="userSpaceOnUse"
       id="linearGradient245"
       xlink:href="#linearGradient869"
       inkscape:collect="always" />
    <linearGradient
       gradientUnits="userSpaceOnUse"
       y2="8.3744106"
       x2="24.983023"
       y1="14.548646"
       x1="24.983023"
       gradientTransform="scale(1.068312,0.936056)"
       id="linearGradient253"
       xlink:href="#linearGradient235"
       inkscape:collect="always" />
    <linearGradient
       gradientUnits="userSpaceOnUse"
       y2="29.715235"
       x2="18.483316"
       y1="5.7387457"
       x1="18.854733"
       gradientTransform="scale(0.750458,1.332520)"
       id="linearGradient314"
       xlink:href="#linearGradient311"
       inkscape:collect="always" />
    <linearGradient
       y2="7.8678756"
       x2="60.071049"
       y1="7.9206076"
       x1="32.827568"
       gradientTransform="scale(0.750458,1.332520)"
       gradientUnits="userSpaceOnUse"
       id="linearGradient320"
       xlink:href="#linearGradient311"
       inkscape:collect="always" />
    <linearGradient
       gradientUnits="userSpaceOnUse"
       y2="15.270107"
       x2="17.748898"
       y1="6.6517911"
       x1="17.748898"
       gradientTransform="scale(0.806859,1.239374)"
       id="linearGradient333"
       xlink:href="#linearGradient330"
       inkscape:collect="always" />
    <linearGradient
       y2="18.180256"
       x2="-26.692234"
       y1="48.765125"
       x1="-18.497044"
       gradientTransform="matrix(1.240100,0.000000,0.000000,0.806386,0.899932,27.85007)"
       gradientUnits="userSpaceOnUse"
       id="linearGradient342"
       xlink:href="#linearGradient874"
       inkscape:collect="always" />
    <linearGradient
       y2="18.180256"
       x2="-26.692234"
       y1="48.765125"
       x1="-18.497044"
       gradientTransform="matrix(1.240100,0.000000,0.000000,0.806386,48.00003,-0.499997)"
       gradientUnits="userSpaceOnUse"
       id="linearGradient344"
       xlink:href="#linearGradient874"
       inkscape:collect="always" />
    <linearGradient
       y2="18.180256"
       x2="-26.692234"
       y1="48.765125"
       x1="-18.497044"
       gradientTransform="matrix(1.240100,0.000000,0.000000,0.806386,-12.14990,44.64993)"
       gradientUnits="userSpaceOnUse"
       id="linearGradient346"
       xlink:href="#linearGradient874"
       inkscape:collect="always" />
    <linearGradient
       y2="18.180256"
       x2="-26.692234"
       y1="48.765125"
       x1="-18.497044"
       gradientTransform="matrix(1.240100,0.000000,0.000000,0.806386,48.03907,-0.350071)"
       gradientUnits="userSpaceOnUse"
       id="linearGradient347"
       xlink:href="#linearGradient874"
       inkscape:collect="always" />
    <linearGradient
       y2="-2.4651213"
       x2="8.5065508"
       y1="48.164986"
       x1="20.167782"
       gradientTransform="scale(1.240100,0.806386)"
       gradientUnits="userSpaceOnUse"
       id="linearGradient348"
       xlink:href="#linearGradient874"
       inkscape:collect="always" />
    <linearGradient
       y2="25.895836"
       x2="22.805771"
       y1="15.211389"
       x1="18.513338"
       gradientTransform="matrix(0.806859,0.000000,0.000000,1.239374,-0.176777,-0.353554)"
       gradientUnits="userSpaceOnUse"
       id="linearGradient355"
       xlink:href="#linearGradient356"
       inkscape:collect="always" />
    <linearGradient
       gradientUnits="userSpaceOnUse"
       y2="16.045696"
       x2="23.405350"
       y1="45.585804"
       x1="25.178135"
       gradientTransform="matrix(1.184955,0.000000,0.000000,0.843914,-5.178000e-2,1.607100e-2)"
       id="linearGradient468"
       xlink:href="#linearGradient465"
       inkscape:collect="always" />
    <linearGradient
       gradientUnits="userSpaceOnUse"
       y2="8.1535416"
       x2="24.632853"
       y1="39.440758"
       x1="26.612013"
       gradientTransform="scale(1.065397,0.938617)"
       id="linearGradient472"
       xlink:href="#linearGradient465"
       inkscape:collect="always" />
    <linearGradient
       gradientUnits="userSpaceOnUse"
       y2="48.028831"
       x2="29.680319"
       y1="17.296097"
       x1="20.210083"
       gradientTransform="scale(1.143544,0.874475)"
       id="linearGradient2883"
       xlink:href="#linearGradient2877"
       inkscape:collect="always" />
    <linearGradient
       y2="25.895836"
       x2="22.805771"
       y1="15.211389"
       x1="18.513338"
       gradientTransform="matrix(0.806859,0.000000,0.000000,1.239374,-0.176777,-0.353554)"
       gradientUnits="userSpaceOnUse"
       id="linearGradient2892"
       xlink:href="#linearGradient356"
       inkscape:collect="always" />
    <linearGradient
       y2="-2.4651213"
       x2="8.5065508"
       y1="48.164986"
       x1="20.167782"
       gradientTransform="scale(1.240100,0.806386)"
       gradientUnits="userSpaceOnUse"
       id="linearGradient2895"
       xlink:href="#linearGradient874"
       inkscape:collect="always" />
    <linearGradient
       y2="16.045696"
       x2="23.405350"
       y1="45.585804"
       x1="25.178135"
       gradientTransform="matrix(1.184955,0.000000,0.000000,0.843914,-5.178000e-2,1.607100e-2)"
       gradientUnits="userSpaceOnUse"
       id="linearGradient2897"
       xlink:href="#linearGradient465"
       inkscape:collect="always" />
  </defs>
  <g
     style="display:inline"
     inkscape:label="pixmap"
     id="layer1"
     inkscape:groupmode="layer" />
  <g
     style="display:inline"
     inkscape:label="vectors"
     id="layer2"
     inkscape:groupmode="layer">
    <g
       id="g1197"
       transform="matrix(0.216083,0.000000,0.000000,0.263095,-1.393233,-10.22980)">
      <path
         id="path1196"
         style="opacity:0.047872309;fill-rule:evenodd;stroke-width:3.0000000pt"
         d="M 32.706693,164.36026 C 22.319193,164.36026 13.956693,172.72276 13.956693,183.11026 C 13.956693,193.49776 22.319193,201.86026 32.706693,201.86026 L 205.20669,201.86026 C 215.59419,201.86026 223.95669,193.49776 223.95669,183.11026 C 223.95669,172.72276 215.59419,164.36026 205.20669,164.36026 L 32.706693,164.36026 z " />
      <path
         id="path1195"
         style="opacity:0.047872309;fill-rule:evenodd;stroke-width:3.0000000pt"
         d="M 32.706693,165.61026 C 23.011693,165.61026 15.206693,173.41526 15.206693,183.11026 C 15.206693,192.80526 23.011693,200.61026 32.706693,200.61026 L 205.20669,200.61026 C 214.90169,200.61026 222.70669,192.80526 222.70669,183.11026 C 222.70669,173.41526 214.90169,165.61026 205.20669,165.61026 L 32.706693,165.61026 z " />
      <path
         id="path1194"
         style="opacity:0.047872309;fill-rule:evenodd;stroke-width:3.0000000pt"
         d="M 32.706694,166.86026 C 23.704194,166.86026 16.456694,174.10776 16.456694,183.11026 C 16.456694,192.11276 23.704194,199.36026 32.706694,199.36026 L 205.20669,199.36026 C 214.20919,199.36026 221.45669,192.11276 221.45669,183.11026 C 221.45669,174.10776 214.20919,166.86026 205.20669,166.86026 L 32.706694,166.86026 z " />
      <path
         id="path1193"
         style="opacity:0.047872309;fill-rule:evenodd;stroke-width:3.0000000pt"
         d="M 32.706694,168.11026 C 24.396694,168.11026 17.706694,174.80026 17.706694,183.11026 C 17.706694,191.42026 24.396694,198.11026 32.706694,198.11026 L 205.20669,198.11026 C 213.51669,198.11026 220.20669,191.42026 220.20669,183.11026 C 220.20669,174.80026 213.51669,168.11026 205.20669,168.11026 L 32.706694,168.11026 z " />
      <path
         id="path1192"
         style="opacity:0.047872309;fill-rule:evenodd;stroke-width:3.0000000pt"
         d="M 32.707764,169.36026 C 25.090264,169.36026 18.957764,175.49276 18.957764,183.11026 C 18.957764,190.72776 25.090264,196.86026 32.707764,196.86026 L 205.20618,196.86026 C 212.82368,196.86026 218.95618,190.72776 218.95618,183.11026 C 218.95618,175.49276 212.82368,169.36026 205.20618,169.36026 L 32.707764,169.36026 z " />
      <path
         id="path1191"
         style="opacity:0.047872309;fill-rule:evenodd;stroke-width:3.0000000pt"
         d="M 32.706694,170.61026 C 25.781694,170.61026 20.206694,176.18526 20.206694,183.11026 C 20.206694,190.03526 25.781694,195.61026 32.706694,195.61026 L 205.20669,195.61026 C 212.13169,195.61026 217.70669,190.03526 217.70669,183.11026 C 217.70669,176.18526 212.13169,170.61026 205.20669,170.61026 L 32.706694,170.61026 z " />
      <path
         id="path1190"
         style="opacity:0.047872309;fill-rule:evenodd;stroke-width:3.0000000pt"
         d="M 32.706694,171.86026 C 26.474194,171.86026 21.456694,176.87776 21.456694,183.11026 C 21.456694,189.34276 26.474194,194.36026 32.706694,194.36026 L 205.20669,194.36026 C 211.43919,194.36026 216.45669,189.34276 216.45669,183.11026 C 216.45669,176.87776 211.43919,171.86026 205.20669,171.86026 L 32.706694,171.86026 z " />
      <path
         id="path1189"
         style="opacity:0.047872309;fill-rule:evenodd;stroke-width:3.0000000pt"
         d="M 32.706694,173.11026 C 27.166694,173.11026 22.706694,177.57026 22.706694,183.11026 C 22.706694,188.65026 27.166694,193.11026 32.706694,193.11026 L 205.20669,193.11026 C 210.74669,193.11026 215.20669,188.65026 215.20669,183.11026 C 215.20669,177.57026 210.74669,173.11026 205.20669,173.11026 L 32.706694,173.11026 z " />
    </g>
    <path
       sodipodi:nodetypes="ccccccccccccc"
       id="path895"
       style="fill:url(#linearGradient253);fill-opacity:1.0000000;fill-rule:evenodd;stroke:url(#linearGradient472);stroke-width:1.0000000;stroke-miterlimit:4.0000000;stroke-opacity:1.0000000"
       d="M 5.4186638,5.4561100 C 4.9536872,5.4561100 4.6035534,5.6913368 4.6035534,6.1828330 L 4.6035534,39.203794 C 4.6035534,39.930940 5.0906584,40.415354 5.7526104,40.415354 L 43.489564,40.415354 C 44.155366,40.415354 44.419872,39.962588 44.419872,39.328794 L 44.419872,10.425912 C 44.419872,9.8829469 44.019585,9.5893540 43.520814,9.5893540 L 24.411490,9.5893540 C 24.074477,9.5893540 23.714810,9.3909280 23.517009,9.1180670 L 20.914778,5.9180580 C 20.696913,5.6175190 20.272703,5.4561250 19.901500,5.4561250 L 5.4186638,5.4561100 z " />
    <g
       transform="matrix(0.186703,0.000000,0.000000,0.186703,-21.10730,57.62299)"
       id="g891" />
    <path
       sodipodi:nodetypes="ccccczscczzcc"
       id="path315"
       d="M 5.0625000,7.9062500 L 5.0625000,36.156250 L 6.0312500,31.781250 L 6.2500000,9.1562500 C 6.2500000,8.4058274 6.7614657,8.0312500 7.4869586,8.0312500 L 19.093750,8.0312500 C 20.655346,8.0312500 22.108598,11.218750 24.411417,11.218750 C 30.383036,11.218750 43.749813,11.306338 43.750000,11.218750 L 43.750000,10.187500 L 24.218750,10.062500 C 22.362615,10.050621 21.088324,6.9062500 19.656250,6.9062500 L 6.2838336,6.9062500 C 5.4685048,6.9062500 5.0625000,7.2604161 5.0625000,7.9062500 z "
       style="color:#000000;fill:url(#linearGradient320);fill-opacity:1.0000000;fill-rule:evenodd;stroke:none;stroke-width:0.25000000pt;stroke-linecap:butt;stroke-linejoin:miter;stroke-miterlimit:4.0000000;stroke-dashoffset:0.0000000;stroke-opacity:1.0000000;marker:none;marker-start:none;marker-mid:none;marker-end:none;visibility:visible;display:inline;overflow:visible" />
    <rect
       ry="0.62500000"
       rx="0.62500000"
       y="12.500000"
       x="8.5000000"
       height="25.000000"
       width="33.000000"
       id="rect2117"
       style="color:#000000;fill:url(#linearGradient2883);fill-opacity:1.0000000;fill-rule:evenodd;stroke:#3d3d3d;stroke-width:1.0000000;stroke-linecap:round;stroke-linejoin:miter;stroke-miterlimit:4.0000000;stroke-dashoffset:0.0000000;stroke-opacity:1.0000000;marker:none;marker-start:none;marker-mid:none;marker-end:none;visibility:visible;display:inline;overflow:visible" />
    <path
       sodipodi:nodetypes="czzszcccccccc"
       id="rect337"
       d="M 4.9959000,19.687350 L 14.898103,19.687350 C 15.636925,19.687350 16.260703,19.306539 16.578647,18.805346 C 16.714853,18.590637 17.841652,16.679618 17.930992,16.549120 C 18.228606,16.114396 18.700874,15.790204 19.267706,15.790204 L 44.969486,15.790204 C 45.769171,15.790204 46.412960,16.433993 46.412960,17.233678 L 44.662960,38.931527 C 44.662960,39.731211 44.019171,40.375000 43.219486,40.375000 L 5.4434730,40.375000 C 4.6437890,40.375000 4.0000000,39.731211 4.0000000,38.931527 L 2.3750000,22.122972 C 2.3750000,20.148607 3.1358390,19.687350 4.9959000,19.687350 z "
       style="color:#000000;fill:url(#linearGradient2895);fill-opacity:1.0000000;fill-rule:evenodd;stroke:url(#linearGradient2897);stroke-width:1.0000000;stroke-linecap:butt;stroke-linejoin:round;stroke-miterlimit:4.0000000;stroke-dashoffset:0.0000000;stroke-opacity:1.0000000;marker:none;marker-start:none;marker-mid:none;marker-end:none;visibility:visible;display:inline;overflow:visible" />
    <path
       sodipodi:nodetypes="csccccccccssccs"
       id="path349"
       d="M 19.355393,16.833946 C 18.452071,16.833946 17.216237,20.594669 16.042893,20.594669 C 14.792893,20.594669 5.4160533,20.594669 4.9160533,20.594669 C 4.4577203,20.594669 4.0805833,20.825188 3.7598033,21.125919 C 3.4390233,21.426650 3.1660533,21.832169 3.1660533,22.344669 C 3.1660533,22.969667 4.4589465,38.287689 4.4589465,38.287689 L 5.4589465,38.287689 C 5.4589465,38.287689 4.1660533,22.969671 4.1660533,22.344669 C 4.1660533,22.232169 4.2680833,22.012688 4.4473033,21.844669 C 4.6265233,21.676650 4.8743873,21.594669 4.9160533,21.594669 C 5.4160533,21.594669 14.792893,21.594669 16.042893,21.594669 C 17.751226,21.594669 18.934958,17.833946 19.855393,17.833946 C 21.072060,17.833946 43.823223,17.896446 43.823223,17.896446 L 43.823223,16.896446 C 43.823223,16.896446 20.638726,16.833946 19.355393,16.833946 z "
       style="color:#000000;fill:url(#linearGradient2892);fill-opacity:1.0000000;fill-rule:evenodd;stroke:none;stroke-width:0.25000000pt;stroke-linecap:butt;stroke-linejoin:miter;stroke-miterlimit:4.0000000;stroke-dashoffset:0.0000000;stroke-opacity:1.0000000;marker:none;marker-start:none;marker-mid:none;marker-end:none;visibility:visible;display:inline;overflow:visible" />
    <rect
       ry="1.2500000"
       rx="1.4434735"
       y="7.3598347"
       x="5.5290294"
       height="1.2500000"
       width="1.2500000"
       id="rect459"
       style="color:#000000;fill:#fffffd;fill-opacity:1.0000000;fill-rule:evenodd;stroke:none;stroke-width:0.25000000pt;stroke-linecap:butt;stroke-linejoin:miter;stroke-miterlimit:4.0000000;stroke-dashoffset:0.0000000;stroke-opacity:1.0000000;marker:none;marker-start:none;marker-mid:none;marker-end:none;visibility:visible;display:inline;overflow:visible" />
  </g>
</svg>
