<?xml version="1.0" encoding="UTF-8" standalone="no"?>
<!DOCTYPE svg PUBLIC "-//W3C//DTD SVG 20010904//EN"
"http://www.w3.org/TR/2001/REC-SVG-20010904/DTD/svg10.dtd">
<!-- Created with Inkscape (http://www.inkscape.org/) -->
<svg
   id="svg1"
   sodipodi:version="0.32"
   inkscape:version="0.38.1"
   width="192.00000pt"
   height="192.00000pt"
   sodipodi:docbase="/home/lapo"
   sodipodi:docname="dir-open2.svg"
   xmlns="http://www.w3.org/2000/svg"
   xmlns:inkscape="http://www.inkscape.org/namespaces/inkscape"
   xmlns:sodipodi="http://sodipodi.sourceforge.net/DTD/sodipodi-0.dtd"
   xmlns:xlink="http://www.w3.org/1999/xlink">
  <defs
     id="defs3">
    <linearGradient
       id="linearGradient1214">
      <stop
         style="stop-color:#f3f3f3;stop-opacity:1.0000000;"
         offset="0.0000000"
         id="stop1215" />
      <stop
         style="stop-color:#cccccc;stop-opacity:1.0000000;"
         offset="1.0000000"
         id="stop1216" />
    </linearGradient>
    <linearGradient
       id="linearGradient984">
      <stop
         style="stop-color:#59594a;stop-opacity:1.0000000;"
         offset="0.0000000"
         id="stop985" />
      <stop
         style="stop-color:#c5c7b0;stop-opacity:1.0000000;"
         offset="1.0000000"
         id="stop986" />
    </linearGradient>
    <linearGradient
       id="linearGradient914">
      <stop
         style="stop-color:#ffffff;stop-opacity:0.0000000;"
         offset="0.0000000"
         id="stop915" />
      <stop
         style="stop-color:#ffffff;stop-opacity:1.0000000;"
         offset="1.0000000"
         id="stop916" />
    </linearGradient>
    <linearGradient
       id="linearGradient874">
      <stop
         style="stop-color:#91917f;stop-opacity:1.0000000;"
         offset="0.0000000"
         id="stop875" />
      <stop
         style="stop-color:#c5c7b0;stop-opacity:1.0000000;"
         offset="1.0000000"
         id="stop876" />
    </linearGradient>
    <linearGradient
       id="linearGradient869">
      <stop
         style="stop-color:#686b57;stop-opacity:1.0000000;"
         offset="0.0000000"
         id="stop870" />
      <stop
         style="stop-color:#97997f;stop-opacity:1.0000000;"
         offset="1.0000000"
         id="stop871" />
    </linearGradient>
    <linearGradient
       xlink:href="#linearGradient869"
       id="linearGradient872"
       x1="0.049689442"
       y1="0.28125000"
       x2="0.024844721"
       y2="0.039062500" />
    <linearGradient
       xlink:href="#linearGradient984"
       id="linearGradient873"
       x1="-5.1072699e-17"
       y1="0.98437500"
       x2="-5.9895394e-17"
       y2="0.17968750" />
    <linearGradient
       xlink:href="#linearGradient984"
       id="linearGradient877"
       x1="0.60869563"
       y1="0.46093750"
       x2="0.50931674"
       y2="0.34375000" />
    <linearGradient
       xlink:href="#linearGradient1214"
       id="linearGradient988"
       x1="0.0052910051"
       y1="0.98437500"
       x2="0.99470901"
       y2="0.0078125000" />
    <linearGradient
       xlink:href="#linearGradient1214"
       id="linearGradient1237" />
    <defs
       id="defs903">
      <linearGradient
         id="linearGradient904">
        <stop
           style="stop-color:#59594a;stop-opacity:1.0000000;"
           offset="0.0000000"
           id="stop905" />
        <stop
           style="stop-color:#c5c7b0;stop-opacity:1.0000000;"
           offset="1.0000000"
           id="stop906" />
      </linearGradient>
      <linearGradient
         id="linearGradient907">
        <stop
           style="stop-color:#ffffff;stop-opacity:0.0000000;"
           offset="0.0000000"
           id="stop908" />
        <stop
           style="stop-color:#ffffff;stop-opacity:1.0000000;"
           offset="1.0000000"
           id="stop909" />
      </linearGradient>
      <linearGradient
         id="linearGradient910">
        <stop
           style="stop-color:#91917f;stop-opacity:1.0000000;"
           offset="0.0000000"
           id="stop911" />
        <stop
           style="stop-color:#c5c7b0;stop-opacity:1.0000000;"
           offset="1.0000000"
           id="stop912" />
      </linearGradient>
      <linearGradient
         id="linearGradient913">
        <stop
           style="stop-color:#686b57;stop-opacity:1.0000000;"
           offset="0.0000000"
           id="stop914" />
        <stop
           style="stop-color:#97997f;stop-opacity:1.0000000;"
           offset="1.0000000"
           id="stop917" />
      </linearGradient>
      <linearGradient
         xlink:href="#linearGradient869"
         id="linearGradient918"
         x1="0.049689442"
         y1="0.28125000"
         x2="0.024844721"
         y2="0.039062500" />
      <linearGradient
         xlink:href="#linearGradient874"
         id="linearGradient919"
         x1="-5.6771536e-17"
         y1="0.98437500"
         x2="-6.5594231e-17"
         y2="0.17968750" />
      <linearGradient
         xlink:href="#linearGradient984"
         id="linearGradient920"
         x1="0.98757762"
         y1="0.21093747"
         x2="0.98757762"
         y2="-6.1685005e-15" />
      <linearGradient
         xlink:href="#linearGradient984"
         id="linearGradient921" />
    </defs>
    <sodipodi:namedview
       id="namedview922"
       pagecolor="#ffffff"
       bordercolor="#666666"
       borderopacity="1.0"
       inkscape:pageopacity="0.0"
       inkscape:pageshadow="2"
       inkscape:zoom="2.7090465"
       inkscape:cx="114.50000"
       inkscape:cy="86.999989"
       inkscape:window-width="1199"
       inkscape:window-height="932"
       showguides="false"
       snaptoguides="false"
       inkscape:window-x="153"
       inkscape:window-y="39">
      <sodipodi:guide
         orientation="vertical"
         position="18.000854"
         id="guide923" />
      <sodipodi:guide
         orientation="horizontal"
         position="166.01139"
         id="guide924" />
      <sodipodi:guide
         orientation="vertical"
         position="177.99958"
         id="guide925" />
      <sodipodi:guide
         orientation="horizontal"
         position="38.013801"
         id="guide926" />
      <sodipodi:guide
         orientation="horizontal"
         position="154.01980"
         id="guide927" />
      <sodipodi:guide
         orientation="horizontal"
         position="142.05432"
         id="guide928" />
      <sodipodi:guide
         orientation="horizontal"
         position="126.07742"
         id="guide929" />
      <sodipodi:guide
         orientation="vertical"
         position="61.690169"
         id="guide930" />
      <sodipodi:guide
         orientation="vertical"
         position="75.738426"
         id="guide931" />
      <sodipodi:guide
         orientation="vertical"
         position="89.707097"
         id="guide932" />
      <sodipodi:guide
         orientation="horizontal"
         position="164.03206"
         id="guide933" />
      <sodipodi:guide
         orientation="horizontal"
         position="156.03921"
         id="guide934" />
      <sodipodi:guide
         orientation="vertical"
         position="23.750000"
         id="guide935" />
      <sodipodi:guide
         orientation="vertical"
         position="171.75000"
         id="guide936" />
    </sodipodi:namedview>
  </defs>
  <sodipodi:namedview
     id="base"
     pagecolor="#ffffff"
     bordercolor="#666666"
     borderopacity="1.0"
     inkscape:pageopacity="0.0"
     inkscape:pageshadow="2"
     inkscape:zoom="4.3363431"
     inkscape:cx="131.43682"
     inkscape:cy="100.58123"
     inkscape:window-width="1199"
     inkscape:window-height="911"
     showguides="false"
     snaptoguides="false"
     inkscape:window-x="118"
     inkscape:window-y="42">
    <sodipodi:guide
       orientation="vertical"
       position="18.000854"
       id="guide826" />
    <sodipodi:guide
       orientation="horizontal"
       position="166.01139"
       id="guide827" />
    <sodipodi:guide
       orientation="vertical"
       position="177.99958"
       id="guide828" />
    <sodipodi:guide
       orientation="horizontal"
       position="27.849974"
       id="guide829" />
    <sodipodi:guide
       orientation="horizontal"
       position="154.01980"
       id="guide830" />
    <sodipodi:guide
       orientation="horizontal"
       position="142.05432"
       id="guide831" />
    <sodipodi:guide
       orientation="horizontal"
       position="127.59771"
       id="guide832" />
    <sodipodi:guide
       orientation="vertical"
       position="61.690169"
       id="guide838" />
    <sodipodi:guide
       orientation="vertical"
       position="75.738426"
       id="guide844" />
    <sodipodi:guide
       orientation="vertical"
       position="89.707097"
       id="guide847" />
    <sodipodi:guide
       orientation="horizontal"
       position="164.03206"
       id="guide971" />
    <sodipodi:guide
       orientation="horizontal"
       position="156.03921"
       id="guide972" />
    <sodipodi:guide
       orientation="vertical"
       position="23.750000"
       id="guide1067" />
    <sodipodi:guide
       orientation="vertical"
       position="171.75000"
       id="guide1068" />
    <sodipodi:guide
       orientation="vertical"
       position="7.7500000"
       id="guide1207" />
    <sodipodi:guide
       orientation="vertical"
       position="184.00000"
       id="guide1208" />
    <sodipodi:guide
       orientation="horizontal"
       position="130.25000"
       id="guide1209" />
    <sodipodi:guide
       orientation="horizontal"
       position="115.50000"
       id="guide1210" />
  </sodipodi:namedview>
  <g
     id="g1197"
     transform="matrix(1.033310,0.000000,0.000000,1.353553,-1.348791,-66.94903)"
     style="">
    <path
       style="opacity:0.047872309;fill-rule:evenodd;stroke-width:3.0000000pt;"
       d="M 32.706693,164.36026 C 22.319193,164.36026 13.956693,172.72276 13.956693,183.11026 C 13.956693,193.49776 22.319193,201.86026 32.706693,201.86026 L 205.20669,201.86026 C 215.59419,201.86026 223.95669,193.49776 223.95669,183.11026 C 223.95669,172.72276 215.59419,164.36026 205.20669,164.36026 L 32.706693,164.36026 z "
       id="path1196" />
    <path
       style="opacity:0.047872309;fill-rule:evenodd;stroke-width:3.0000000pt;"
       d="M 32.706693,165.61026 C 23.011693,165.61026 15.206693,173.41526 15.206693,183.11026 C 15.206693,192.80526 23.011693,200.61026 32.706693,200.61026 L 205.20669,200.61026 C 214.90169,200.61026 222.70669,192.80526 222.70669,183.11026 C 222.70669,173.41526 214.90169,165.61026 205.20669,165.61026 L 32.706693,165.61026 z "
       id="path1195" />
    <path
       style="opacity:0.047872309;fill-rule:evenodd;stroke-width:3.0000000pt;"
       d="M 32.706694,166.86026 C 23.704194,166.86026 16.456694,174.10776 16.456694,183.11026 C 16.456694,192.11276 23.704194,199.36026 32.706694,199.36026 L 205.20669,199.36026 C 214.20919,199.36026 221.45669,192.11276 221.45669,183.11026 C 221.45669,174.10776 214.20919,166.86026 205.20669,166.86026 L 32.706694,166.86026 z "
       id="path1194" />
    <path
       style="opacity:0.047872309;fill-rule:evenodd;stroke-width:3.0000000pt;"
       d="M 32.706694,168.11026 C 24.396694,168.11026 17.706694,174.80026 17.706694,183.11026 C 17.706694,191.42026 24.396694,198.11026 32.706694,198.11026 L 205.20669,198.11026 C 213.51669,198.11026 220.20669,191.42026 220.20669,183.11026 C 220.20669,174.80026 213.51669,168.11026 205.20669,168.11026 L 32.706694,168.11026 z "
       id="path1193" />
    <path
       style="opacity:0.047872309;fill-rule:evenodd;stroke-width:3.0000000pt;"
       d="M 32.707764,169.36026 C 25.090264,169.36026 18.957764,175.49276 18.957764,183.11026 C 18.957764,190.72776 25.090264,196.86026 32.707764,196.86026 L 205.20618,196.86026 C 212.82368,196.86026 218.95618,190.72776 218.95618,183.11026 C 218.95618,175.49276 212.82368,169.36026 205.20618,169.36026 L 32.707764,169.36026 z "
       id="path1192" />
    <path
       style="opacity:0.047872309;fill-rule:evenodd;stroke-width:3.0000000pt;"
       d="M 32.706694,170.61026 C 25.781694,170.61026 20.206694,176.18526 20.206694,183.11026 C 20.206694,190.03526 25.781694,195.61026 32.706694,195.61026 L 205.20669,195.61026 C 212.13169,195.61026 217.70669,190.03526 217.70669,183.11026 C 217.70669,176.18526 212.13169,170.61026 205.20669,170.61026 L 32.706694,170.61026 z "
       id="path1191" />
    <path
       style="opacity:0.047872309;fill-rule:evenodd;stroke-width:3.0000000pt;"
       d="M 32.706694,171.86026 C 26.474194,171.86026 21.456694,176.87776 21.456694,183.11026 C 21.456694,189.34276 26.474194,194.36026 32.706694,194.36026 L 205.20669,194.36026 C 211.43919,194.36026 216.45669,189.34276 216.45669,183.11026 C 216.45669,176.87776 211.43919,171.86026 205.20669,171.86026 L 32.706694,171.86026 z "
       id="path1190" />
    <path
       style="opacity:0.047872309;fill-rule:evenodd;stroke-width:3.0000000pt;"
       d="M 32.706694,173.11026 C 27.166694,173.11026 22.706694,177.57026 22.706694,183.11026 C 22.706694,188.65026 27.166694,193.11026 32.706694,193.11026 L 205.20669,193.11026 C 210.74669,193.11026 215.20669,188.65026 215.20669,183.11026 C 215.20669,177.57026 210.74669,173.11026 205.20669,173.11026 L 32.706694,173.11026 z "
       id="path1189" />
  </g>
  <g
     id="g896"
     transform="translate(-1.887500e-5,166.5354)"
     style="">
    <path
       style="fill:none;fill-rule:evenodd;stroke:#000000;stroke-width:3.0000000pt;stroke-linecap:round;stroke-linejoin:round;"
       d="M 24.973216,32.485680 C 23.603646,32.485680 22.501066,33.588258 22.501066,34.957829 L 22.501066,190.01060 C 22.501066,191.38017 23.603646,192.48275 24.973216,192.48275 L 220.02733,192.48275 C 221.39690,192.48275 222.49948,191.38017 222.49948,190.01060 L 222.49948,49.947399 C 222.49948,48.577828 221.39690,47.475250 220.02733,47.475250 L 112.13387,47.475250 C 110.32879,47.475250 108.40238,46.412459 107.34294,44.950987 L 100.10026,34.959925 C 98.933343,33.350196 96.661233,32.485765 94.673036,32.485762 L 24.973216,32.485680 z "
       id="path947"
       sodipodi:nodetypes="cccccccczzzzc"
       transform="translate(-1.887500e-5,-166.5354)" />
    <path
       style="fill:url(#linearGradient877);fill-rule:evenodd;stroke-width:3.0000000pt;"
       d="M 24.973197,-134.04972 C 23.603627,-134.04972 22.501047,-132.94714 22.501047,-131.57757 L 22.501047,23.475196 C 22.501047,24.844773 23.603627,25.947353 24.973197,25.947353 L 220.02731,25.947353 C 221.39688,25.947353 222.49946,24.844773 222.49946,23.475196 L 222.49946,-116.58800 C 222.49946,-117.95757 221.39688,-119.06015 220.02731,-119.06015 L 112.13385,-119.06015 C 110.32877,-119.06015 108.40236,-120.12294 107.34292,-121.58441 L 100.10024,-131.57548 C 98.933324,-133.18520 96.661214,-134.04964 94.673017,-134.04964 L 24.973197,-134.04972 z "
       id="path895"
       sodipodi:nodetypes="cccccccczzzzc" />
    <path
       style="fill:#c5c7b0;fill-rule:evenodd;stroke-width:3.0000000pt;"
       d="M 24.953395,-134.04972 C 23.594795,-134.04972 22.501047,-132.94714 22.501047,-131.57757 L 22.501047,23.475200 C 22.501047,24.844770 23.594795,25.947350 24.953395,25.947350 L 218.44509,25.947350 C 219.80369,25.947350 220.89744,24.844770 220.89744,23.475200 L 220.89744,-116.58800 C 220.89744,-117.95757 219.80369,-119.06015 218.44509,-119.06015 L 111.41587,-119.06015 C 109.62525,-119.06015 107.71427,-120.12294 106.66332,-121.58441 L 99.478655,-131.57548 C 98.321085,-133.18520 96.067175,-134.04964 94.094907,-134.04964 L 24.953395,-134.04972 z "
       id="path949"
       sodipodi:nodetypes="cccccccczzzzc" />
    <g
       id="g891">
      <path
         style="fill:url(#linearGradient872);fill-rule:evenodd;stroke-width:3.0000000pt;"
         d="M 26.819228,-132.17472 C 25.465708,-132.17472 24.376049,-131.08507 24.376049,-129.73155 L 24.376049,23.504170 C 24.376049,24.857690 25.465708,25.947350 26.819228,25.947350 L 218.50947,25.947350 C 219.86299,25.947350 220.95265,24.857690 220.95265,23.504170 L 220.95265,-114.91764 C 220.95265,-116.27116 219.86299,-117.36082 218.50947,-117.36082 L 111.08345,-117.36081 C 109.29952,-117.36081 107.39569,-118.41115 106.34866,-119.85550 L 99.190863,-129.72947 C 98.037613,-131.32034 95.792137,-132.17464 93.827237,-132.17464 L 26.819228,-132.17472 z "
         id="path951"
         sodipodi:nodetypes="cccccccczzzzc" />
      <path
         style="opacity:0.053191487;fill:#ffffff;fill-rule:evenodd;stroke-width:3.0000000pt;"
         d="M 26.812481,-132.16040 C 25.458962,-132.16040 24.374981,-131.07642 24.374981,-129.72290 L 24.374981,23.495850 C 24.374981,24.849370 25.458961,25.933350 26.812481,25.933350 L 218.49998,25.933350 C 219.85350,25.933340 220.93748,24.849370 220.93748,23.495850 L 220.93748,-114.91040 C 220.93748,-116.26392 219.85350,-117.34790 218.49998,-117.34790 L 111.09373,-117.34790 C 109.30980,-117.34790 107.39076,-118.40356 106.34373,-119.84790 L 99.187483,-129.72290 C 98.034233,-131.31376 95.777381,-132.16040 93.812481,-132.16040 L 26.812481,-132.16040 z M 30.187481,-127.59790 L 94.843731,-127.59790 C 96.739813,-127.59790 98.887133,-126.79517 99.999983,-125.28540 L 106.90623,-115.91040 C 107.91658,-114.53968 109.77853,-113.53540 111.49998,-113.53540 L 215.15623,-113.53540 C 216.46234,-113.53540 217.49997,-112.50743 217.49998,-111.22290 L 217.49998,20.152100 C 217.49998,21.436630 216.46234,22.464600 215.15623,22.464600 L 30.187481,22.464600 C 28.881368,22.464600 27.812480,21.436630 27.812481,20.152100 L 27.812481,-125.28540 C 27.812481,-126.56993 28.881367,-127.59790 30.187481,-127.59790 z "
         id="path952" />
      <path
         style="opacity:0.17021276;fill:#ffffff;fill-rule:evenodd;stroke-width:3.0000000pt;"
         d="M 26.812481,-132.16040 C 25.458962,-132.16040 24.374981,-131.07642 24.374981,-129.72290 L 24.374981,23.495850 C 24.374981,24.849370 25.458961,25.933350 26.812481,25.933350 L 218.49998,25.933350 C 219.85350,25.933340 220.93748,24.849370 220.93748,23.495850 L 220.93748,-114.91040 C 220.93748,-116.26392 219.85350,-117.34790 218.49998,-117.34790 L 111.09373,-117.34790 C 109.30980,-117.34790 107.39076,-118.40356 106.34373,-119.84790 L 99.187483,-129.72290 C 98.034233,-131.31376 95.777381,-132.16040 93.812481,-132.16040 L 26.812481,-132.16040 z M 27.906231,-130.41040 L 94.156231,-130.41040 C 96.099164,-130.41040 98.328373,-129.57056 99.468733,-128.00415 L 106.53123,-118.28540 C 107.56655,-116.86326 109.45474,-115.81665 111.21873,-115.81665 L 217.43748,-115.81665 C 218.77587,-115.81665 219.84372,-114.74312 219.84373,-113.41040 L 219.84373,22.870850 C 219.84373,24.203570 218.77587,25.277100 217.43748,25.277100 L 27.906231,25.277100 C 26.567843,25.277100 25.468730,24.203560 25.468731,22.870850 L 25.468731,-128.00415 C 25.468731,-129.33687 26.567843,-130.41040 27.906231,-130.41040 z "
         id="path953" />
    </g>
  </g>
  <g
     id="g1229"
     transform="matrix(1.019467,0.000000,0.000000,1.019467,-269.7236,4.969575)"
     style="opacity:0.41489360;">
    <path
       style="fill-rule:evenodd;stroke-width:3.0000000pt;opacity:0.050000000;"
       d="M 309.00751,53.750008 C 307.47985,53.750008 306.25000,54.979858 306.25000,56.507520 L 306.25000,160.99249 C 306.25000,162.52015 307.47985,163.75000 309.00751,163.75000 L 463.49250,163.75000 C 465.02016,163.75000 466.25002,162.52015 466.25002,160.99249 L 466.25002,56.507520 C 466.25002,54.979858 465.02016,53.750008 463.49250,53.750008 L 309.00751,53.750008 z "
       id="path1222" />
    <path
       style="fill-rule:evenodd;stroke-width:3.0000000pt;opacity:0.050000000;"
       d="M 307.80060,52.500008 C 306.24907,52.500008 305.00000,53.757809 305.00000,55.320191 L 305.00000,162.17982 C 305.00000,163.74220 306.24907,165.00000 307.80060,165.00000 L 464.69938,165.00000 C 466.25091,165.00000 467.49998,163.74220 467.49998,162.17982 L 467.49998,55.320191 C 467.49998,53.757809 466.25091,52.500008 464.69938,52.500008 L 307.80060,52.500008 z "
       id="path1223" />
    <path
       style="fill-rule:evenodd;stroke-width:3.0000000pt;opacity:0.050000000;"
       d="M 306.59369,51.250008 C 305.01829,51.250008 303.75000,52.535760 303.75000,54.132862 L 303.75000,163.36715 C 303.75000,164.96425 305.01829,166.25000 306.59369,166.25000 L 465.90633,166.25000 C 467.48173,166.25000 468.75002,164.96425 468.75002,163.36715 L 468.75002,54.132862 C 468.75002,52.535760 467.48173,51.250008 465.90633,51.250008 L 306.59369,51.250008 z "
       id="path1224" />
    <path
       style="fill-rule:evenodd;stroke-width:3.0000000pt;opacity:0.050000000;"
       d="M 305.38678,50.000008 C 303.78751,50.000008 302.50000,51.313711 302.50000,52.945533 L 302.50000,164.55448 C 302.50000,166.18630 303.78751,167.50000 305.38678,167.50000 L 467.11321,167.50000 C 468.71248,167.50000 469.99998,166.18630 469.99998,164.55448 L 469.99998,52.945533 C 469.99998,51.313711 468.71248,50.000008 467.11321,50.000008 L 305.38678,50.000008 z "
       id="path1225" />
    <path
       style="fill-rule:evenodd;stroke-width:3.0000000pt;opacity:0.050000000;"
       d="M 304.17987,48.750008 C 302.55673,48.750008 301.25000,50.091662 301.25000,51.758204 L 301.25000,165.74181 C 301.25000,167.40835 302.55673,168.75000 304.17987,168.75000 L 468.32016,168.75000 C 469.94330,168.75000 471.25002,167.40835 471.25002,165.74181 L 471.25002,51.758204 C 471.25002,50.091662 469.94330,48.750008 468.32016,48.750008 L 304.17987,48.750008 z "
       id="path1226" />
  </g>
  <rect
     style="fill-rule:evenodd;stroke-width:3.0000000pt;"
     id="rect1235"
     width="160.00002"
     height="109.99999"
     x="306.25000"
     y="53.750008"
     ry="2.3120067"
     transform="translate(-262.2045,7.086614)" />
  <rect
     style="fill:#ffffff;fill-rule:evenodd;stroke-width:3.0000000pt;"
     id="rect1236"
     width="157.50002"
     height="107.49999"
     x="307.50000"
     y="55.000008"
     transform="translate(-262.2045,7.086614)" />
  <path
     style="fill:url(#linearGradient988);fill-rule:evenodd;stroke-width:3.0000000pt;"
     d="M 48.624602,64.932591 L 48.624602,169.84217 L 202.79552,169.84217 L 202.79552,64.932591 L 48.624602,64.932591 z "
     id="path1257" />
  <g
     id="g1026"
     transform="matrix(1.000000,0.000000,0.000000,0.857024,240.9447,27.34229)"
     style="opacity:0.60000002;">
    <path
       style="fill:#000000;fill-rule:evenodd;stroke-width:3.0000000pt;fill-opacity:1.0000000;opacity:0.040000000;"
       d="M -20.917886,61.186770 C -19.548329,61.186770 -18.445749,62.289348 -18.445749,63.658919 L -18.445739,188.76535 C -18.445739,190.13492 -19.548319,191.23750 -20.917876,191.23750 L -215.97198,191.23750 C -217.34155,191.23750 -218.44413,190.13492 -218.44413,188.76535 L -218.44414,83.630126 C -218.44414,82.260555 -217.34156,81.157977 -215.97199,81.157977 L -163.73292,81.157977 C -161.92783,81.157977 -159.72802,80.258668 -158.94198,78.633714 L -151.69930,63.661015 C -150.83352,61.871211 -148.26026,61.186853 -146.27205,61.186852 L -20.917886,61.186770 z "
       id="path1015"
       sodipodi:nodetypes="cccccccczzzzc" />
    <path
       style="fill:#000000;fill-rule:evenodd;stroke-width:3.0000000pt;fill-opacity:1.0000000;opacity:0.040000000;"
       d="M -20.917886,59.936768 C -19.548329,59.936768 -18.445749,61.039346 -18.445749,62.408917 L -18.445739,187.51535 C -18.445739,188.88492 -19.548319,189.98750 -20.917876,189.98750 L -215.97198,189.98750 C -217.34155,189.98750 -218.44413,188.88492 -218.44413,187.51535 L -218.44414,82.380124 C -218.44414,81.010553 -217.34156,79.907975 -215.97199,79.907975 L -163.73292,79.907975 C -161.92783,79.907975 -159.72802,79.008666 -158.94198,77.383712 L -151.69930,62.411013 C -150.83352,60.621209 -148.26026,59.936851 -146.27205,59.936850 L -20.917886,59.936768 z "
       id="path1020"
       sodipodi:nodetypes="cccccccczzzzc" />
    <path
       style="fill:#000000;fill-rule:evenodd;stroke-width:3.0000000pt;fill-opacity:1.0000000;opacity:0.040000000;"
       d="M -20.917886,58.686768 C -19.548329,58.686768 -18.445749,59.789346 -18.445749,61.158917 L -18.445739,186.26535 C -18.445739,187.63492 -19.548319,188.73750 -20.917876,188.73750 L -215.97198,188.73750 C -217.34155,188.73750 -218.44413,187.63492 -218.44413,186.26535 L -218.44414,81.130124 C -218.44414,79.760553 -217.34156,78.657975 -215.97199,78.657975 L -163.73292,78.657975 C -161.92783,78.657975 -159.72802,77.758666 -158.94198,76.133712 L -151.69930,61.161013 C -150.83352,59.371209 -148.26026,58.686851 -146.27205,58.686850 L -20.917886,58.686768 z "
       id="path1021"
       sodipodi:nodetypes="cccccccczzzzc" />
    <path
       style="fill:#000000;fill-rule:evenodd;stroke-width:3.0000000pt;fill-opacity:1.0000000;opacity:0.040000000;"
       d="M -20.917886,57.436766 C -19.548329,57.436766 -18.445749,58.539344 -18.445749,59.908915 L -18.445739,185.01535 C -18.445739,186.38492 -19.548319,187.48750 -20.917876,187.48750 L -215.97198,187.48750 C -217.34155,187.48750 -218.44413,186.38492 -218.44413,185.01535 L -218.44414,79.880122 C -218.44414,78.510551 -217.34156,77.407973 -215.97199,77.407973 L -163.73292,77.407973 C -161.92783,77.407973 -159.72802,76.508664 -158.94198,74.883710 L -151.69930,59.911011 C -150.83352,58.121207 -148.26026,57.436849 -146.27205,57.436848 L -20.917886,57.436766 z "
       id="path1022"
       sodipodi:nodetypes="cccccccczzzzc" />
    <path
       style="fill:#000000;fill-rule:evenodd;stroke-width:3.0000000pt;fill-opacity:1.0000000;opacity:0.040000000;"
       d="M -20.917886,56.186764 C -19.548329,56.186764 -18.445749,57.289342 -18.445749,58.658913 L -18.445739,183.76535 C -18.445739,185.13492 -19.548319,186.23750 -20.917876,186.23750 L -215.97198,186.23750 C -217.34155,186.23750 -218.44413,185.13492 -218.44413,183.76535 L -218.44414,78.630120 C -218.44414,77.260549 -217.34156,76.157971 -215.97199,76.157971 L -163.73292,76.157971 C -161.92783,76.157971 -159.72802,75.258662 -158.94198,73.633708 L -151.69930,58.661009 C -150.83352,56.871205 -148.26026,56.186847 -146.27205,56.186846 L -20.917886,56.186764 z "
       id="path1023"
       sodipodi:nodetypes="cccccccczzzzc" />
    <path
       style="fill:#000000;fill-rule:evenodd;stroke-width:3.0000000pt;fill-opacity:1.0000000;opacity:0.040000000;"
       d="M -20.917886,54.936764 C -19.548329,54.936764 -18.445749,56.039342 -18.445749,57.408913 L -18.445739,182.51535 C -18.445739,183.88492 -19.548319,184.98750 -20.917876,184.98750 L -215.97198,184.98750 C -217.34155,184.98750 -218.44413,183.88492 -218.44413,182.51535 L -218.44414,77.380120 C -218.44414,76.010549 -217.34156,74.907971 -215.97199,74.907971 L -163.73292,74.907971 C -161.92783,74.907971 -159.72802,74.008662 -158.94198,72.383708 L -151.69930,57.411009 C -150.83352,55.621205 -148.26026,54.936847 -146.27205,54.936846 L -20.917886,54.936764 z "
       id="path1024"
       sodipodi:nodetypes="cccccccczzzzc" />
    <path
       style="fill:#000000;fill-rule:evenodd;stroke-width:3.0000000pt;fill-opacity:1.0000000;opacity:0.040000000;"
       d="M -20.917886,53.686762 C -19.548329,53.686762 -18.445749,54.789340 -18.445749,56.158911 L -18.445739,181.26535 C -18.445739,182.63492 -19.548319,183.73750 -20.917876,183.73750 L -215.97198,183.73750 C -217.34155,183.73750 -218.44413,182.63492 -218.44413,181.26535 L -218.44414,76.130118 C -218.44414,74.760547 -217.34156,73.657969 -215.97199,73.657969 L -163.73292,73.657969 C -161.92783,73.657969 -159.72802,72.758660 -158.94198,71.133706 L -151.69930,56.161007 C -150.83352,54.371203 -148.26026,53.686845 -146.27205,53.686844 L -20.917886,53.686762 z "
       id="path1025"
       sodipodi:nodetypes="cccccccczzzzc" />
  </g>
  <path
     style="fill:none;fill-rule:evenodd;stroke:#000000;stroke-width:3.0000000pt;stroke-linecap:round;stroke-linejoin:round;"
     d="M -6.7446575,62.432018 C -5.3750905,62.432018 -4.2725105,63.534596 -4.2725105,64.904167 L -14.074574,190.01060 C -14.074574,191.38017 -15.177154,192.48275 -16.546721,192.48275 L -191.99584,192.48275 C -193.36542,192.48275 -194.46800,191.38017 -194.46800,190.01060 L -204.27090,84.875374 C -204.27090,83.505803 -203.16832,82.403225 -201.79874,82.403225 L -149.55968,82.403225 C -147.75459,82.403225 -145.55478,81.503916 -144.76874,79.878962 L -137.52606,64.906263 C -136.66028,63.116459 -134.08702,62.432101 -132.09881,62.432100 L -6.7446575,62.432018 z "
     id="path981"
     sodipodi:nodetypes="cccscccczzzzc"
     transform="matrix(1.108679,0.000000,0.000000,0.875707,238.1037,24.15729)" />
  <path
     style="fill:url(#linearGradient873);fill-rule:evenodd;stroke-width:3.0000000pt;"
     d="M 230.62601,78.829445 C 232.14441,78.829445 233.36681,79.794980 233.36681,80.994323 L 222.49948,190.55090 C 222.49948,191.75024 221.27707,192.71578 219.75867,192.71578 L 25.241900,192.71578 C 23.723475,192.71578 22.501068,191.75024 22.501068,190.55090 L 11.632803,98.483249 C 11.632803,97.283906 12.855210,96.318371 14.373635,96.318371 L 72.289984,96.318371 C 74.291249,96.318371 76.730132,95.530840 77.601598,94.107856 L 85.631405,80.996159 C 86.591277,79.428815 89.444197,78.829518 91.648479,78.829517 L 230.62601,78.829445 z "
     id="path980"
     sodipodi:nodetypes="cccccccczzzzc" />
  <path
     style="opacity:0.13297869;fill-rule:evenodd;stroke-width:3.0000000pt;"
     d="M 220.68750,62.687500 C 220.75807,62.917889 220.93750,63.089641 220.93750,63.343750 L 211.13443,188.43750 C 211.13444,189.80707 210.03524,190.90625 208.66568,190.90625 L 33.138606,190.90625 C 32.884496,190.90625 32.712747,190.72683 32.482356,190.65625 C 32.792159,191.66759 33.585636,192.46874 34.701106,192.46875 L 210.22818,192.46875 C 211.59774,192.46875 212.69694,191.36957 212.69693,190.00000 L 222.50000,64.906250 C 222.50000,63.790788 221.69883,62.997302 220.68750,62.687500 z "
     id="path1044"
     sodipodi:nodetypes="ccccccccccc"
     transform="matrix(1.108679,0.000000,0.000000,0.875707,-13.31314,24.15729)" />
  <path
     style="opacity:0.053191487;fill-rule:evenodd;stroke-width:3.0000000pt;"
     d="M 214.41057,181.51471 C 214.41058,182.71405 211.10116,185.62115 209.58276,185.62115 C 209.58276,185.62115 29.331602,192.70351 30.850028,192.70352 L 219.76243,192.70352 C 221.28083,192.70352 222.49949,191.74096 222.49948,190.54162 L 233.36793,80.996147 L 214.41057,181.51471 z "
     id="path1049"
     sodipodi:nodetypes="ccccccc" />
  <path
     style="fill:#ffffff;fill-rule:evenodd;stroke-width:3.0000000pt;"
     d="M 94.687500,62.437500 C 92.699290,62.437501 90.115782,63.116444 89.250000,64.906250 L 82.000000,79.875000 C 81.213960,81.499954 79.023837,82.406246 77.218750,82.406250 L 24.968750,82.406250 C 23.599170,82.406250 22.499999,83.505429 22.500000,84.875000 L 32.303496,189.77914 C 32.303496,191.10256 32.611860,192.14575 33.916985,192.21664 C 33.698070,191.84744 33.448235,191.49121 33.448235,191.02914 L 23.644739,86.917462 C 23.644738,85.547891 24.743909,84.448712 26.113489,84.448712 L 79.093750,84.448712 C 80.898837,84.448708 83.088960,83.542416 83.875000,81.917462 L 91.125000,66.948712 C 91.990782,65.158906 94.574290,64.479963 96.562500,64.479962 L 220.53104,64.342951 C 222.59851,64.340666 221.60817,62.526714 220.03125,62.437500 L 94.687500,62.437500 z "
     id="path1053"
     sodipodi:nodetypes="ccccccccccccccczcc"
     transform="matrix(1.108679,0.000000,0.000000,0.875707,-13.31314,24.15729)" />
  <path
     style="opacity:0.11170209;fill:#ffffff;fill-rule:evenodd;stroke-width:3.0000000pt;"
     d="M 96.364027,62.437500 C 94.375817,62.437501 91.792309,63.116444 90.926527,64.906250 L 83.676527,79.875000 C 82.890487,81.499954 80.700364,82.406246 78.895277,82.406250 L 26.645277,82.406250 C 25.275697,82.406250 23.341942,83.505429 23.341943,84.875000 L 32.303496,190.00000 L 30.582777,91.500000 C 30.582778,90.130428 31.681947,89.031250 33.051527,89.031250 L 85.301527,89.031250 C 87.106620,89.031252 89.296737,88.124954 90.082777,86.500000 L 97.332777,71.531250 C 98.198557,69.741442 100.78206,69.062501 102.77028,69.062500 L 215.33770,66.852791 C 226.52266,66.633230 220.10995,62.437500 219.27710,62.437500 L 96.364027,62.437500 z "
     id="path1056"
     sodipodi:nodetypes="ccccccccccccczzc"
     transform="matrix(1.108679,0.000000,0.000000,0.875707,-13.31314,24.15729)" />
</svg>
