<?xml version="1.0" encoding="UTF-8" standalone="no"?>
<!-- Created with Inkscape (http://www.inkscape.org/) -->
<svg
   xmlns:dc="http://purl.org/dc/elements/1.1/"
   xmlns:cc="http://creativecommons.org/ns#"
   xmlns:rdf="http://www.w3.org/1999/02/22-rdf-syntax-ns#"
   xmlns:svg="http://www.w3.org/2000/svg"
   xmlns="http://www.w3.org/2000/svg"
   xmlns:xlink="http://www.w3.org/1999/xlink"
   xmlns:sodipodi="http://sodipodi.sourceforge.net/DTD/sodipodi-0.dtd"
   xmlns:inkscape="http://www.inkscape.org/namespaces/inkscape"
   height="300"
   id="svg11300"
   inkscape:export-filename="/home/jimmac/Desktop/wi-fi.png"
   inkscape:export-xdpi="90.000000"
   inkscape:export-ydpi="90.000000"
   inkscape:output_extension="org.inkscape.output.svg.inkscape"
   inkscape:version="0.46"
   sodipodi:docname="accessories-dictionary.svg"
   sodipodi:version="0.32"
   style="display:inline;enable-background:new"
   version="1.0"
   width="400">
  <title
     id="title8836">Optical Drive</title>
  <metadata
     id="metadata154">
    <rdf:RDF>
      <cc:Work
         rdf:about="">
        <dc:format>image/svg+xml</dc:format>
        <dc:type
           rdf:resource="http://purl.org/dc/dcmitype/StillImage" />
        <dc:title />
        <dc:creator>
          <cc:Agent>
            <dc:title />
          </cc:Agent>
        </dc:creator>
        <dc:contributor>
          <cc:Agent>
            <dc:title />
          </cc:Agent>
        </dc:contributor>
        <dc:source />
        <cc:license
           rdf:resource="" />
        <dc:subject>
          <rdf:Bag />
        </dc:subject>
      </cc:Work>
    </rdf:RDF>
  </metadata>
  <sodipodi:namedview
     bordercolor="#666666"
     borderopacity="0.25490196"
     fill="#f57900"
     gridtolerance="12"
     guidetolerance="13"
     height="300px"
     id="base"
     inkscape:current-layer="layer6"
     inkscape:cx="144.68008"
     inkscape:cy="87.105301"
     inkscape:document-units="px"
     inkscape:grid-bbox="true"
     inkscape:guide-bbox="true"
     inkscape:pageopacity="0.0"
     inkscape:pageshadow="2"
     inkscape:showpageshadow="false"
     inkscape:snap-bbox="true"
     inkscape:snap-nodes="true"
     inkscape:window-height="876"
     inkscape:window-width="968"
     inkscape:window-x="132"
     inkscape:window-y="8"
     inkscape:zoom="1"
     objecttolerance="7"
     pagecolor="#ffffff"
     showgrid="false"
     showguides="true"
     stroke="#ef2929"
     width="400px">
    <inkscape:grid
       empspacing="2"
       enabled="true"
       id="grid5883"
       spacingx="0.5px"
       spacingy="0.5px"
       type="xygrid"
       visible="true" />
  </sodipodi:namedview>
  <defs
     id="defs3">
    <linearGradient
       id="linearGradient2309"
       inkscape:collect="always">
      <stop
         id="stop2311"
         offset="0"
         style="stop-color:#ffffff;stop-opacity:1;" />
      <stop
         id="stop2313"
         offset="1"
         style="stop-color:#ffffff;stop-opacity:0;" />
    </linearGradient>
    <linearGradient
       id="linearGradient2301"
       inkscape:collect="always">
      <stop
         id="stop2303"
         offset="0"
         style="stop-color:#790000;stop-opacity:1" />
      <stop
         id="stop2305"
         offset="1"
         style="stop-color:#b03636;stop-opacity:1" />
    </linearGradient>
    <linearGradient
       id="linearGradient2286"
       inkscape:collect="always">
      <stop
         id="stop2288"
         offset="0"
         style="stop-color:#555753" />
      <stop
         id="stop2290"
         offset="1"
         style="stop-color:#555753;stop-opacity:0" />
    </linearGradient>
    <linearGradient
       id="linearGradient2276"
       inkscape:collect="always">
      <stop
         id="stop2278"
         offset="0"
         style="stop-color:#babdb6;stop-opacity:1;" />
      <stop
         id="stop2280"
         offset="1"
         style="stop-color:#8f9488;stop-opacity:1" />
    </linearGradient>
    <linearGradient
       id="linearGradient2258"
       inkscape:collect="always">
      <stop
         id="stop2260"
         offset="0"
         style="stop-color:#ffa4a4;stop-opacity:1" />
      <stop
         id="stop2262"
         offset="1"
         style="stop-color:#a40000" />
    </linearGradient>
    <linearGradient
       id="linearGradient2235"
       inkscape:collect="always">
      <stop
         id="stop2237"
         offset="0"
         style="stop-color:#cccccc;stop-opacity:1" />
      <stop
         id="stop2239"
         offset="1"
         style="stop-color:#9b9b9b;stop-opacity:1" />
    </linearGradient>
    <linearGradient
       id="linearGradient2229"
       inkscape:collect="always">
      <stop
         id="stop2231"
         offset="0"
         style="stop-color:#888a85" />
      <stop
         id="stop2233"
         offset="1"
         style="stop-color:#d3d7cf;stop-opacity:0;" />
    </linearGradient>
    <linearGradient
       id="linearGradient2221"
       inkscape:collect="always">
      <stop
         id="stop2223"
         offset="0"
         style="stop-color:#babdb6" />
      <stop
         id="stop2225"
         offset="1"
         style="stop-color:#d3d7cf;stop-opacity:0;" />
    </linearGradient>
    <linearGradient
       id="linearGradient2184"
       inkscape:collect="always">
      <stop
         id="stop2186"
         offset="0"
         style="stop-color:#ffffff;stop-opacity:1;" />
      <stop
         id="stop2188"
         offset="1"
         style="stop-color:#e3e3e3;stop-opacity:1" />
    </linearGradient>
    <linearGradient
       gradientTransform="matrix(-1,0,0,1,48,0)"
       gradientUnits="userSpaceOnUse"
       id="linearGradient2211"
       inkscape:collect="always"
       x1="24"
       x2="19.982143"
       xlink:href="#linearGradient2229"
       y1="19.505583"
       y2="19.550226" />
    <linearGradient
       gradientTransform="matrix(-1,0,0,1,48,0)"
       gradientUnits="userSpaceOnUse"
       id="linearGradient2219"
       inkscape:collect="always"
       x1="24"
       x2="32"
       xlink:href="#linearGradient2221"
       y1="19.996655"
       y2="19.90625" />
    <linearGradient
       gradientUnits="userSpaceOnUse"
       id="linearGradient2245"
       inkscape:collect="always"
       x1="15.714286"
       x2="36.482143"
       xlink:href="#linearGradient2184"
       y1="16.82852"
       y2="20.667807" />
    <linearGradient
       gradientUnits="userSpaceOnUse"
       id="linearGradient2247"
       inkscape:collect="always"
       x1="19.940901"
       x2="24"
       xlink:href="#linearGradient2235"
       y1="10.918805"
       y2="22.750927" />
    <linearGradient
       gradientUnits="userSpaceOnUse"
       id="linearGradient2264"
       inkscape:collect="always"
       x1="32.794643"
       x2="34.79464"
       xlink:href="#linearGradient2258"
       y1="21.696428"
       y2="32.321426" />
    <linearGradient
       gradientUnits="userSpaceOnUse"
       id="linearGradient2282"
       inkscape:collect="always"
       x1="37.535713"
       x2="9.9285688"
       xlink:href="#linearGradient2276"
       y1="34.196426"
       y2="20.089285" />
    <radialGradient
       cx="24"
       cy="36.75"
       fx="24"
       fy="36.75"
       gradientTransform="matrix(1,0,0,0.3,-3.16587e-17,25.725)"
       gradientUnits="userSpaceOnUse"
       id="radialGradient2292"
       inkscape:collect="always"
       r="22.5"
       xlink:href="#linearGradient2286" />
    <linearGradient
       gradientUnits="userSpaceOnUse"
       id="linearGradient2307"
       inkscape:collect="always"
       x1="23.955357"
       x2="29.214285"
       xlink:href="#linearGradient2301"
       y1="10.008928"
       y2="30.276785" />
    <linearGradient
       gradientUnits="userSpaceOnUse"
       id="linearGradient2315"
       inkscape:collect="always"
       x1="6.7230334"
       x2="37.804565"
       xlink:href="#linearGradient2309"
       y1="37.683041"
       y2="29.096745" />
    <linearGradient
       gradientTransform="matrix(-1,0,0,1,48,-3.210789e-14)"
       gradientUnits="userSpaceOnUse"
       id="linearGradient1409"
       inkscape:collect="always"
       x1="24"
       x2="19.982143"
       xlink:href="#linearGradient2229"
       y1="19.505583"
       y2="19.550226" />
    <linearGradient
       gradientUnits="userSpaceOnUse"
       id="linearGradient1411"
       inkscape:collect="always"
       x1="35.828274"
       x2="30.688702"
       xlink:href="#linearGradient2258"
       y1="26.129816"
       y2="27.676926" />
    <linearGradient
       id="linearGradient2284"
       inkscape:collect="always">
      <stop
         id="stop2286"
         offset="0"
         style="stop-color:#d3d7cf;stop-opacity:1;" />
      <stop
         id="stop48"
         offset="1"
         style="stop-color:#aeb0ab;stop-opacity:1" />
    </linearGradient>
    <linearGradient
       gradientUnits="userSpaceOnUse"
       id="linearGradient2290"
       inkscape:collect="always"
       x1="17.423727"
       x2="18.851906"
       xlink:href="#linearGradient2284"
       y1="36.458565"
       y2="29.070097" />
  </defs>
  <g
     id="layer6"
     inkscape:groupmode="layer"
     inkscape:label="baseplate"
     style="display:none">
    <rect
       height="48"
       id="rect6284"
       inkscape:label="48x48"
       style="fill:#eeeeec;fill-opacity:1;fill-rule:nonzero;stroke:none;stroke-width:2;marker:none;visibility:visible;display:inline;overflow:visible;enable-background:accumulate"
       width="48"
       x="296"
       y="50" />
    <rect
       height="32"
       id="rect6592"
       inkscape:label="32x32"
       style="fill:#eeeeec;fill-opacity:1;fill-rule:nonzero;stroke:none;stroke-width:2;marker:none;visibility:visible;display:inline;overflow:visible;enable-background:accumulate"
       width="32"
       x="303"
       y="126" />
    <rect
       height="22"
       id="rect6749"
       inkscape:label="22x22"
       style="fill:#eeeeec;fill-opacity:1;fill-rule:nonzero;stroke:none;stroke-width:2;marker:none;visibility:visible;display:inline;overflow:visible;enable-background:accumulate"
       width="22"
       x="303"
       y="177" />
    <rect
       height="16"
       id="rect6833"
       inkscape:label="16x16"
       style="fill:#eeeeec;fill-opacity:1;fill-rule:nonzero;stroke:none;stroke-width:2;marker:none;visibility:visible;display:inline;overflow:visible;enable-background:accumulate"
       width="16"
       x="303"
       y="219" />
    <text
       id="context"
       inkscape:label="context"
       style="font-size:18.30070686px;font-style:normal;font-weight:normal;fill:#000000;fill-opacity:1;stroke:none;display:inline;enable-background:new;font-family:Bitstream Vera Sans"
       x="20.970737"
       xml:space="preserve"
       y="21.513618"><tspan
         id="tspan2716"
         sodipodi:role="line"
         x="20.970737"
         y="21.513618">apps</tspan></text>
    <text
       id="icon-name"
       inkscape:label="icon-name"
       sodipodi:linespacing="125%"
       style="font-size:18.30070686px;font-style:normal;font-variant:normal;font-weight:bold;font-stretch:normal;text-align:start;line-height:125%;writing-mode:lr-tb;text-anchor:start;fill:#000000;fill-opacity:1;stroke:none;display:inline;enable-background:new;font-family:Droid Sans;-inkscape-font-specification:Droid Sans Bold"
       x="191.97073"
       xml:space="preserve"
       y="21.513618"><tspan
         id="tspan3023"
         sodipodi:role="line"
         x="191.97073"
         y="21.513618">accessories-dictionary</tspan></text>
  </g>
  <g
     id="layer2"
     inkscape:groupmode="layer"
     inkscape:label="small sizes"
     style="display:inline">
    <g
       id="g48"
       style="display:inline;enable-background:new"
       transform="translate(296,50) scale(1.000000,1.000000)">
      <path
         d="M 46.5 36.75 A 22.5 6.75 0 1 1  1.5,36.75 A 22.5 6.75 0 1 1  46.5 36.75 z"
         id="path2284"
         sodipodi:cx="24"
         sodipodi:cy="36.75"
         sodipodi:rx="22.5"
         sodipodi:ry="6.75"
         sodipodi:type="arc"
         style="opacity:0.50196078;color:#000000;fill:url(#radialGradient2292);fill-opacity:1;fill-rule:nonzero;stroke:none;stroke-width:1;stroke-linecap:round;stroke-linejoin:miter;marker:none;marker-start:none;marker-mid:none;marker-end:none;stroke-miterlimit:4;stroke-dasharray:none;stroke-dashoffset:17.85;stroke-opacity:1;visibility:visible;display:block;overflow:visible"
         transform="matrix(1.066667,0,0,0.962963,-1.600001,1.111111)" />
      <path
         d="M 4.5,11.5 L 43.5,11.5 L 47.5,38.5 L 29,38.5 L 28,37.5 C 26,39 22,39 20,37.5 L 19,38.5 L 0.5,38.5 L 4.5,11.5 z "
         id="rect1304"
         sodipodi:nodetypes="ccccccccc"
         style="color:#000000;fill:#523856;fill-opacity:1;fill-rule:nonzero;stroke:#3e263b;stroke-width:1;stroke-linecap:round;stroke-linejoin:round;marker:none;marker-start:none;marker-mid:none;marker-end:none;stroke-miterlimit:4;stroke-dasharray:none;stroke-dashoffset:17.85;stroke-opacity:1;visibility:visible;display:block;overflow:visible" />
      <path
         d="M 5.28125,12.40625 L 1.5625,37.59375 L 18.59375,37.59375 L 19.34375,36.84375 C 19.667151,36.507336 20.191452,36.467006 20.5625,36.75 C 21.327469,37.323727 22.653015,37.71875 24,37.71875 C 25.346985,37.71875 26.672531,37.323727 27.4375,36.75 C 27.808548,36.467006 28.332849,36.507336 28.65625,36.84375 L 29.40625,37.59375 L 46.4375,37.59375 L 42.71875,12.40625 L 5.28125,12.40625 z "
         id="path2274"
         inkscape:href="#rect1304"
         inkscape:original="M 4.5 11.5 L 0.5 38.5 L 19 38.5 L 20 37.5 C 22 39 26 39 28 37.5 L 29 38.5 L 47.5 38.5 L 43.5 11.5 L 4.5 11.5 z "
         inkscape:radius="-0.91809106"
         sodipodi:type="inkscape:offset"
         style="opacity:0.13333333;color:#000000;fill:none;fill-opacity:1;fill-rule:nonzero;stroke:#ffffff;stroke-width:1;stroke-linecap:round;stroke-linejoin:round;marker:none;marker-start:none;marker-mid:none;marker-end:none;stroke-miterlimit:4;stroke-dasharray:none;stroke-dashoffset:17.85;stroke-opacity:1;visibility:visible;display:block;overflow:visible"
         xlink:href="#rect1304" />
      <path
         d="M 2,36.5 C 7.6666667,36.5 16,35 19,36.5 C 22,34 26,34 29,36.5 C 32,35 41,36.5 46,36.5 L 45.5,34 C 38.5,31.5 29,28.5 24,33 C 19,28.5 9.5,31.5 2.5,34 L 2,36.5 z "
         id="path2180"
         sodipodi:nodetypes="cccccccc"
         style="fill:url(#linearGradient2282);fill-opacity:1.0;fill-rule:evenodd;stroke:#888a85;stroke-width:1;stroke-linecap:butt;stroke-linejoin:miter;stroke-miterlimit:4;stroke-dasharray:none;stroke-opacity:1" />
      <path
         d="M 14.375,31.9375 C 10.963293,32.392394 7.260823,33.622273 3.90625,34.8125 L 3.8125,35.34375 C 6.2979599,35.262594 9.0476285,35.037732 11.6875,34.875 C 14.462294,34.703951 16.881256,34.711661 18.78125,35.40625 C 20.133116,34.409774 21.661646,33.894157 23.21875,33.75 C 21.042747,31.830616 17.941674,31.461944 14.375,31.9375 z M 28.625,31.9375 C 27.145571,32.213473 25.86037,32.798142 24.78125,33.75 C 26.338354,33.894157 27.866884,34.409774 29.21875,35.40625 C 31.163554,34.697135 33.704549,34.703523 36.5625,34.875 C 39.261382,35.036933 41.920385,35.260963 44.1875,35.34375 L 44.09375,34.8125 C 40.739177,33.622273 37.036707,32.392394 33.625,31.9375 C 31.827105,31.697781 30.128781,31.656984 28.625,31.9375 z "
         id="path2266"
         inkscape:href="#path2180"
         inkscape:original="M 14 30.875 C 10.125 31.375 6 32.75 2.5 34 L 2 36.5 C 7.6666667 36.5 16 35 19 36.5 C 22 34 26 34 29 36.5 C 32 35 41 36.5 46 36.5 L 45.5 34 C 38.5 31.5 29 28.5 24 33 C 21.5 30.75 17.875 30.375 14 30.875 z "
         inkscape:radius="-1.0582203"
         sodipodi:type="inkscape:offset"
         style="opacity:0.30196078;fill:none;fill-opacity:1;fill-rule:evenodd;stroke:url(#linearGradient2315);stroke-width:1;stroke-linecap:butt;stroke-linejoin:miter;stroke-miterlimit:4;stroke-dasharray:none;stroke-opacity:1"
         xlink:href="#path2180" />
      <path
         d="M 2.5,34 C 9,31.5 20,29 24,33 C 28,29 39,31.5 45.5,34 L 42.5,10.5 C 37,8 27.5,6 24,9 C 20,6 12,8 5.5,10.5 L 2.5,34 z "
         id="path2182"
         sodipodi:nodetypes="ccccccc"
         style="fill:url(#linearGradient2245);fill-opacity:1;fill-rule:evenodd;stroke:url(#linearGradient2247);stroke-width:1;stroke-linecap:butt;stroke-linejoin:miter;stroke-miterlimit:4;stroke-dasharray:none;stroke-opacity:1" />
      <path
         d="M 24,9.5 C 22,8 19.5,7.5 16,8 L 16,30.5 C 18,29.5 22,30.5 24,32.5 L 24,9.5 z "
         id="rect2192"
         sodipodi:nodetypes="ccccc"
         style="color:#000000;fill:url(#linearGradient2219);fill-opacity:1.0;fill-rule:nonzero;stroke:none;stroke-width:1;stroke-linecap:round;stroke-linejoin:miter;marker:none;marker-start:none;marker-mid:none;marker-end:none;stroke-miterlimit:4;stroke-dashoffset:17.85;stroke-opacity:1;visibility:visible;display:block;overflow:visible" />
      <path
         d="M 24,9.5 C 25.221264,8.803878 26.327771,7.9069322 28,8 L 29,30.5 C 27.5,30 25.5,31.5 24,32.5 L 24,9.5 z "
         id="path2195"
         sodipodi:nodetypes="ccccc"
         style="color:#000000;fill:url(#linearGradient2211);fill-opacity:1;fill-rule:nonzero;stroke:none;stroke-width:1;stroke-linecap:round;stroke-linejoin:miter;marker:none;marker-start:none;marker-mid:none;marker-end:none;stroke-miterlimit:4;stroke-dashoffset:17.85;stroke-opacity:1;visibility:visible;display:block;overflow:visible" />
      <path
         d="M 17.03125,8.375 C 14.611845,8.6563261 11.827815,9.5624782 8.78125,10.71875 L 4.25,32.59375 C 7.5567067,31.338728 11.345145,30.271354 14.90625,29.9375 C 16.969491,29.744071 18.927893,29.768608 20.625,30.125 C 21.963283,30.406039 23.09173,31.003906 24,31.8125 C 24.90827,31.003906 26.036717,30.406039 27.375,30.125 C 29.072107,29.768608 31.030509,29.744071 33.09375,29.9375 C 36.654855,30.271354 40.443293,31.338728 43.75,32.59375 L 39.1875,10.6875 C 36.612085,9.5579242 33.750698,8.6570052 31.15625,8.375 C 28.420939,8.0776836 26.053467,8.4675643 24.59375,9.71875 C 24.262671,9.9972426 23.783138,10.010203 23.4375,9.75 C 21.660341,8.417131 19.571761,8.0795918 17.03125,8.375 z "
         id="path2243"
         inkscape:href="#path2182"
         inkscape:original="M 20.34375 7.625 C 16.101562 7.0390625 10.375 8.625 5.5 10.5 L 2.5 34 C 9 31.5 20 29 24 33 C 28 29 39 31.5 45.5 34 L 42.5 10.5 C 37 8 27.5 6 24 9 C 23 8.25 21.757812 7.8203125 20.34375 7.625 z "
         inkscape:radius="-0.92850536"
         sodipodi:type="inkscape:offset"
         style="opacity:0.65098039;fill:none;fill-opacity:1;fill-rule:evenodd;stroke:#ffffff;stroke-width:1;stroke-linecap:butt;stroke-linejoin:miter;stroke-miterlimit:4;stroke-dasharray:none;stroke-opacity:1"
         xlink:href="#path2182" />
      <path
         d="M 24.455357,8.7321429 C 24.5,20.5 34,20 33.5,30.5 L 32.5,34.5 L 34,34 L 35,35 L 35.5,31 C 36,20 24.544643,19.089286 24.5,8.5 L 24.455357,8.7321429 z "
         id="path2227"
         sodipodi:nodetypes="cccccccc"
         style="fill:url(#linearGradient2264);fill-opacity:1.0;fill-rule:evenodd;stroke:url(#linearGradient2307);stroke-width:1;stroke-linecap:square;stroke-linejoin:miter;stroke-opacity:1;stroke-miterlimit:4;stroke-dasharray:none" />
    </g>
    <g
       id="g32"
       style="display:inline;enable-background:new"
       transform="translate(303,126) scale(1.000000,1.000000)">
      <path
         d="M 46.5 36.75 A 22.5 6.75 0 1 1  1.5,36.75 A 22.5 6.75 0 1 1  46.5 36.75 z"
         id="path73"
         sodipodi:cx="24"
         sodipodi:cy="36.75"
         sodipodi:rx="22.5"
         sodipodi:ry="6.75"
         sodipodi:type="arc"
         style="opacity:0.50196078;color:#000000;fill:url(#radialGradient2292);fill-opacity:1;fill-rule:nonzero;stroke:none;stroke-width:1;stroke-linecap:round;stroke-linejoin:miter;marker:none;marker-start:none;marker-mid:none;marker-end:none;stroke-miterlimit:4;stroke-dasharray:none;stroke-dashoffset:17.85;stroke-opacity:1;visibility:visible;display:block;overflow:visible"
         transform="matrix(0.711112,0,0,0.666668,-1.066685,0.999956)" />
      <path
         d="M 3,8.5 L 29,8.5 L 31.5,26.5 L 19.5,26.5 L 18.5,26 C 17.5,26.730499 14.5,26.764914 13.5,26 L 12.5,26.5 L 0.5,26.5 L 3,8.5 z "
         id="path75"
         sodipodi:nodetypes="ccccccccc"
         style="color:#000000;fill:#523856;fill-opacity:1;fill-rule:nonzero;stroke:#3e263b;stroke-width:0.99999946;stroke-linecap:round;stroke-linejoin:round;marker:none;marker-start:none;marker-mid:none;marker-end:none;stroke-miterlimit:4;stroke-dasharray:none;stroke-dashoffset:17.85;stroke-opacity:1;visibility:visible;display:block;overflow:visible" />
      <path
         d="M 3.8125,9.40625 L 1.5625,25.59375 L 12.28125,25.59375 L 13.09375,25.1875 C 13.444626,25.005438 13.872643,25.068382 14.15625,25.34375 C 14.331656,25.519156 15.153015,25.84375 16,25.84375 C 16.846985,25.84375 17.668344,25.519156 17.84375,25.34375 C 18.127357,25.068382 18.555374,25.005438 18.90625,25.1875 L 19.71875,25.59375 L 30.4375,25.59375 L 28.1875,9.40625 L 3.8125,9.40625 z "
         id="path77"
         inkscape:href="#rect1304"
         inkscape:original="M 3 8.5 L 0.5 26.5 L 12.5 26.5 L 13.5 26 C 14.5 26.764914 17.5 26.730499 18.5 26 L 19.5 26.5 L 31.5 26.5 L 29 8.5 L 3 8.5 z "
         inkscape:radius="-0.91809106"
         sodipodi:type="inkscape:offset"
         style="opacity:0.13333333;color:#000000;fill:none;fill-opacity:1;fill-rule:nonzero;stroke:#ffffff;stroke-width:1;stroke-linecap:round;stroke-linejoin:round;marker:none;marker-start:none;marker-mid:none;marker-end:none;stroke-miterlimit:4;stroke-dasharray:none;stroke-dashoffset:17.85;stroke-opacity:1;visibility:visible;display:block;overflow:visible"
         transform="translate(6.345337e-4,-0.122779)"
         xlink:href="#rect1304" />
      <path
         d="M 1.5,25.5 C 5.237586,25.5 10.521278,24.514284 12.5,25.5 C 14.478722,24.150519 17.521278,24.153014 19.5,25.5 C 21.478722,24.514284 27.20213,25.5 30.5,25.5 L 30,23.5 C 25.382982,21.85714 19.29787,20.042852 16,23 C 12.70213,20.042852 6.617018,21.85714 2,23.5 L 1.5,25.5 z "
         id="path79"
         sodipodi:nodetypes="cccccccc"
         style="fill:url(#linearGradient2282);fill-opacity:1;fill-rule:evenodd;stroke:#888a85;stroke-width:0.99999958;stroke-linecap:butt;stroke-linejoin:miter;stroke-miterlimit:4;stroke-dasharray:none;stroke-opacity:1" />
      <path
         d="M 22.375,22.5625 C 20.231203,22.315483 18.471144,22.625222 17.15625,23.5625 C 18.044911,23.698378 18.879669,23.987364 19.65625,24.4375 C 21.048169,23.966815 22.695515,23.952456 24.5625,24.0625 C 26.197951,24.158897 27.718854,24.272291 29.125,24.34375 L 29.125,24.3125 C 26.965657,23.559173 24.558021,22.814037 22.375,22.5625 z M 9.625,22.59375 C 7.4402277,22.845488 5.033399,23.560487 2.875,24.3125 L 2.875,24.34375 C 4.3890667,24.273247 5.9884266,24.159677 7.59375,24.0625 C 9.4001622,23.953151 10.991817,23.952995 12.34375,24.40625 C 13.117599,23.9591 13.959431,23.697396 14.84375,23.5625 C 13.53008,22.62627 11.770517,22.346535 9.625,22.59375 z "
         id="path81"
         inkscape:href="#path2180"
         inkscape:original="M 9.5 21.53125 C 6.989361 21.820536 4.308509 22.67857 2 23.5 L 1.5 25.5 C 5.237586 25.5 10.521278 24.514284 12.5 25.5 C 14.478722 24.150519 17.521278 24.153014 19.5 25.5 C 21.478722 24.514284 27.20213 25.5 30.5 25.5 L 30 23.5 C 25.382982 21.85714 19.29787 20.042852 16 23 C 14.351065 21.521426 12.010639 21.241964 9.5 21.53125 z "
         inkscape:radius="-1.0582203"
         sodipodi:type="inkscape:offset"
         style="opacity:0.30196078;fill:none;fill-opacity:1;fill-rule:evenodd;stroke:url(#linearGradient2315);stroke-width:1;stroke-linecap:butt;stroke-linejoin:miter;stroke-miterlimit:4;stroke-dasharray:none;stroke-opacity:1"
         transform="translate(-0.125,-6.25e-2)"
         xlink:href="#path2180" />
      <path
         d="M 2,23.5 C 6.287231,21.85714 13,20 16,23 C 19,20 25.712769,21.85714 30,23.5 L 28,7.5 C 24.372343,5.85714 19,4.5 15.999989,6.8571401 C 13,4.5 8.287231,5.85714 4,7.5 L 2,23.5 z "
         id="path83"
         sodipodi:nodetypes="ccccccc"
         style="fill:url(#linearGradient2245);fill-opacity:1;fill-rule:evenodd;stroke:url(#linearGradient2247);stroke-width:0.99999958;stroke-linecap:butt;stroke-linejoin:miter;stroke-miterlimit:4;stroke-dasharray:none;stroke-opacity:1" />
      <path
         d="M 16,8 C 14.680851,7.014284 13.031911,6.3714251 10.723401,6.6999971 L 11,21 C 12.319148,20.342856 14.680851,21.185711 16,22.5 L 16,8 z "
         id="path85"
         sodipodi:nodetypes="ccccc"
         style="color:#000000;fill:url(#linearGradient2219);fill-opacity:1;fill-rule:nonzero;stroke:none;stroke-width:1;stroke-linecap:round;stroke-linejoin:miter;marker:none;marker-start:none;marker-mid:none;marker-end:none;stroke-miterlimit:4;stroke-dashoffset:17.85;stroke-opacity:1;visibility:visible;display:block;overflow:visible" />
      <path
         d="M 16,8 C 16.805514,7.542548 17.897041,6.938841 19,7 L 19.5,21 C 18.510639,20.671428 16.989361,21.842855 16,22.5 L 16,8 z "
         id="path87"
         sodipodi:nodetypes="ccccc"
         style="color:#000000;fill:url(#linearGradient2211);fill-opacity:1;fill-rule:nonzero;stroke:none;stroke-width:1;stroke-linecap:round;stroke-linejoin:miter;marker:none;marker-start:none;marker-mid:none;marker-end:none;stroke-miterlimit:4;stroke-dashoffset:17.85;stroke-opacity:1;visibility:visible;display:block;overflow:visible" />
      <path
         d="M 10.71875,7.28125 C 8.8816437,7.4549379 6.8150945,8.0742678 4.875,8.78125 L 3.15625,22.125 C 5.1258363,21.484287 7.3248753,20.931719 9.53125,20.75 C 11.962313,20.549775 14.316871,20.779984 16,21.96875 C 17.683129,20.779985 20.037687,20.549775 22.46875,20.75 C 24.675125,20.931719 26.874164,21.484287 28.84375,22.125 L 27.09375,8.6875 C 25.446411,8.0083176 23.356928,7.4584661 21.40625,7.28125 C 19.270702,7.0872387 17.403136,7.3979834 16.625,8.0625 C 16.291097,8.3550656 15.80027,8.3808986 15.4375,8.125 C 14.415103,7.3610272 12.725977,7.0914781 10.71875,7.28125 z "
         id="path89"
         inkscape:href="#path2182"
         inkscape:original="M 10.46875 5.6875 C 8.3796552 5.9375 6.1436155 6.67857 4 7.5 L 2 23.5 C 6.287231 21.85714 13 20 16 23 C 19 20 25.712769 21.85714 30 23.5 L 28 7.5 C 24.372343 5.85714 19.000011 4.4866099 16 6.84375 C 14.500006 5.66518 12.557845 5.4375 10.46875 5.6875 z "
         inkscape:radius="-0.96110266"
         sodipodi:type="inkscape:offset"
         style="opacity:0.65098039;fill:none;fill-opacity:1;fill-rule:evenodd;stroke:#ffffff;stroke-width:1;stroke-linecap:butt;stroke-linejoin:miter;stroke-miterlimit:4;stroke-dasharray:none;stroke-opacity:1"
         transform="translate(3.125e-2,3.125e-2)"
         xlink:href="#path2182" />
      <path
         d="M 16.5,6.5 C 16.529445,14.233177 22.595729,14.585724 22.265942,21.485736 L 21.606368,24.114312 L 22.595729,23.78574 L 23.255303,24.442884 L 23.58509,21.814308 C 23.914877,14.585724 16.529445,13.958686 16.5,7 L 16.5,6.5 z "
         id="path91"
         sodipodi:nodetypes="cccccccc"
         style="fill:url(#linearGradient2264);fill-opacity:1;fill-rule:evenodd;stroke:url(#linearGradient2307);stroke-width:0.99999958;stroke-linecap:square;stroke-linejoin:miter;stroke-miterlimit:4;stroke-dasharray:none;stroke-opacity:1" />
    </g>
    <g
       id="g22"
       style="display:inline;enable-background:new"
       transform="translate(303,177) scale(1.000000,1.000000)">
      <g
         id="g1397"
         transform="matrix(0.448582,0,0,0.448582,0.233601,0.718352)">
        <path
           d="M 46.5 36.75 A 22.5 6.75 0 1 1  1.5,36.75 A 22.5 6.75 0 1 1  46.5 36.75 z"
           id="path95"
           sodipodi:cx="24"
           sodipodi:cy="36.75"
           sodipodi:rx="22.5"
           sodipodi:ry="6.75"
           sodipodi:type="arc"
           style="opacity:0.51764706;color:#000000;fill:url(#radialGradient2292);fill-opacity:1;fill-rule:nonzero;stroke:none;stroke-width:1;stroke-linecap:round;stroke-linejoin:miter;marker:none;marker-start:none;marker-mid:none;marker-end:none;stroke-miterlimit:4;stroke-dasharray:none;stroke-dashoffset:17.85;stroke-opacity:1;visibility:visible;display:block;overflow:visible"
           transform="matrix(1.089854,0,0,0.825648,-2.155535,9.297111)" />
        <path
           d="M 2.823116,8.4466675 L 45.178806,8.4466675 L 47.408052,39.656123 L 30.688701,39.656123 L 28.459454,38.5415 C 26.230208,40.770746 21.771714,40.770746 19.542467,38.5415 L 17.31322,39.656123 L 0.59386913,39.656123 L 2.823116,8.4466675 z "
           id="path97"
           sodipodi:nodetypes="ccccccccc"
           style="color:#000000;fill:#523856;fill-opacity:1;fill-rule:nonzero;stroke:#3e263b;stroke-width:2.22924781;stroke-linecap:round;stroke-linejoin:round;marker:none;marker-start:none;marker-mid:none;marker-end:none;stroke-miterlimit:4;stroke-dasharray:none;stroke-dashoffset:17.85;stroke-opacity:1;visibility:visible;display:block;overflow:visible" />
        <path
           d="M 2.823116,36.312253 C 9.5108564,35.197629 13.96935,34.083006 18.427844,36.312253 C 21.427844,33.812253 26.574078,33.812253 29.574078,36.312253 C 34.032572,34.083006 39.605689,35.197629 45.178806,36.312253 L 44.064182,30.739136 C 37.064182,28.239136 10.937739,28.239136 3.9377394,30.739136 L 2.823116,36.312253 z "
           id="path99"
           sodipodi:nodetypes="ccccccc"
           style="fill:#d3d7cf;fill-opacity:1;fill-rule:evenodd;stroke:#757672;stroke-width:2.22924781;stroke-linecap:butt;stroke-linejoin:miter;stroke-miterlimit:4;stroke-dasharray:none;stroke-opacity:1" />
        <path
           d="M 2.823116,35.197629 C 9.323116,32.697629 18.427844,26.280643 24.000961,32.968383 C 29.574078,26.280643 38.678806,32.697629 45.178806,35.197629 L 42.949559,8.4466675 C 37.376442,3.9881742 28.459454,2.1811543 24.000961,6.2174207 C 19.472096,2.2515256 11.740103,3.9881742 5.0523628,8.4466675 L 2.823116,35.197629 z "
           id="path101"
           sodipodi:nodetypes="ccccccc"
           style="fill:url(#linearGradient2245);fill-opacity:1;fill-rule:evenodd;stroke:#939490;stroke-width:2.22924685;stroke-linecap:butt;stroke-linejoin:miter;stroke-miterlimit:4;stroke-dasharray:none;stroke-opacity:1" />
        <path
           d="M 23.929629,7.6839002 C 21.929629,6.1839002 18.583973,4.6027973 15.083973,5.1027973 L 15.083973,28.509889 C 17.083973,27.509889 22.000961,28.739136 24.000961,30.739136 L 23.929629,7.6839002 z "
           id="path103"
           sodipodi:nodetypes="ccccc"
           style="color:#000000;fill:url(#linearGradient2219);fill-opacity:1;fill-rule:nonzero;stroke:none;stroke-width:1;stroke-linecap:round;stroke-linejoin:miter;marker:none;marker-start:none;marker-mid:none;marker-end:none;stroke-miterlimit:4;stroke-dashoffset:17.85;stroke-opacity:1;visibility:visible;display:block;overflow:visible" />
        <path
           d="M 24,9.5 C 25.221264,8.803878 26.787225,7.2389763 28.459454,7.3320441 L 28.459454,28.509889 C 26.959454,28.009889 25.500961,29.978271 24.000961,30.978271 L 24,9.5 z "
           id="path105"
           sodipodi:nodetypes="ccccc"
           style="color:#000000;fill:url(#linearGradient1409);fill-opacity:1;fill-rule:nonzero;stroke:none;stroke-width:1;stroke-linecap:round;stroke-linejoin:miter;marker:none;marker-start:none;marker-mid:none;marker-end:none;stroke-miterlimit:4;stroke-dashoffset:17.85;stroke-opacity:1;visibility:visible;display:block;overflow:visible" />
        <path
           d="M 32.75,6.34375 C 29.692457,5.9008718 27.057812,6.4647161 25.5,7.875 C 24.656159,8.6345382 23.375091,8.6345382 22.53125,7.875 C 20.856929,6.4088091 18.553255,5.9463021 15.65625,6.375 C 13.034861,6.7629124 10.049009,8.0145472 7.1875,9.78125 L 5.34375,31.625 C 7.7351637,30.511569 10.33799,29.3022 13.15625,28.5 C 15.243886,27.905767 17.418036,27.58718 19.625,27.96875 C 21.170087,28.235886 22.640842,29.025875 24,30.09375 C 25.359158,29.025874 26.829912,28.235886 28.375,27.96875 C 30.581964,27.58718 32.756114,27.905767 34.84375,28.5 C 37.66201,29.3022 40.264836,30.511569 42.65625,31.625 L 40.8125,9.71875 C 38.452323,8.0262192 35.53781,6.747558 32.75,6.34375 z "
           id="path107"
           inkscape:href="#path2182"
           inkscape:original="M 33.0625 4.15625 C 29.579302 3.6517166 26.229247 4.2006168 24 6.21875 C 19.471135 2.252855 11.75024 3.9790067 5.0625 8.4375 L 2.8125 35.1875 C 9.3124999 32.687501 18.426883 26.28101 24 32.96875 C 29.573117 26.281009 38.6875 32.6875 45.1875 35.1875 L 42.9375 8.4375 C 40.150942 6.2082533 36.545698 4.6607834 33.0625 4.15625 z "
           inkscape:radius="-2.21856"
           sodipodi:type="inkscape:offset"
           style="opacity:0.87843137;fill:none;fill-opacity:1;fill-rule:evenodd;stroke:#ffffff;stroke-width:2.22924781;stroke-linecap:butt;stroke-linejoin:miter;stroke-miterlimit:4;stroke-dasharray:none;stroke-opacity:1"
           xlink:href="#path2182" />
        <path
           d="M 32.917948,30.739136 L 32.917948,37.426876 L 35.147195,36.312253 L 37.376442,37.426876 L 37.376442,30.739136 C 37.376442,18.478278 26.230208,19.592902 26.230208,6.2174207 L 24.000961,7.3320441 C 24.000961,19.592902 32.917948,20.707525 32.917948,30.739136 z "
           id="path109"
           sodipodi:nodetypes="cccccccc"
           style="fill:url(#linearGradient1411);fill-opacity:1;fill-rule:evenodd;stroke:none;stroke-width:2.22924781;stroke-linecap:square;stroke-linejoin:miter;stroke-miterlimit:4;stroke-dasharray:none;stroke-opacity:1" />
      </g>
    </g>
    <g
       id="g16"
       style="display:inline;enable-background:new"
       transform="translate(303,219) scale(1.000000,1.000000)">
      <g
         id="g112"
         transform="matrix(0.320438,0,0,0.320438,0.309702,1.614087)">
        <path
           d="M 0.59386839,6.0098851 L 47.404796,6.0098851 L 47.404796,43.324907 L 34.921882,43.334164 L 30.240789,40.213436 L 27.120061,43.334164 L 20.878604,43.334164 L 17.757875,40.213436 L 13.076782,43.334164 L 0.59386839,43.324907 L 0.59386839,6.0098851 z "
           id="path114"
           sodipodi:nodetypes="ccccccccccc"
           style="color:#000000;fill:#65456a;fill-opacity:1;fill-rule:nonzero;stroke:#3e263b;stroke-width:3.1207273;stroke-linecap:round;stroke-linejoin:round;marker:none;marker-start:none;marker-mid:none;marker-end:none;stroke-miterlimit:4;stroke-dasharray:none;stroke-dashoffset:17.85;stroke-opacity:1;visibility:visible;display:block;overflow:visible" />
        <path
           d="M 2.1542326,38.653072 L 45.844432,38.653072 L 44.284067,24.609793 L 3.7145969,24.609793 L 2.1542326,38.653072 z "
           id="path116"
           sodipodi:nodetypes="ccccc"
           style="fill:url(#linearGradient2290);fill-opacity:1.0;fill-rule:evenodd;stroke:none;stroke-width:3.12072754;stroke-linecap:butt;stroke-linejoin:miter;stroke-miterlimit:4;stroke-dasharray:none;stroke-opacity:1" />
        <path
           d="M 3.7145969,35.532343 C 8.3956896,32.411615 16.197511,27.155286 23.999332,33.971979 C 31.899666,27.155286 39.602975,32.411615 44.284067,35.532343 L 44.284067,4.3250582 C 36.482246,-0.35603455 30.339302,-2.3104503 23.999332,2.764694 C 17.659362,-2.4089631 11.516418,-0.35603455 3.7145969,4.3250582 L 3.7145969,35.532343 z "
           id="path118"
           sodipodi:nodetypes="ccccccc"
           style="fill:url(#linearGradient2245);fill-opacity:1;fill-rule:evenodd;stroke:url(#linearGradient2282);stroke-width:3.12072611;stroke-linecap:butt;stroke-linejoin:miter;stroke-miterlimit:4;stroke-dasharray:none;stroke-opacity:1" />
        <path
           d="M 23.999332,4.3250582 C 21.999332,2.8250582 18.137147,0.7043297 14.637147,1.2043297 L 14.637147,27.730522 C 16.637147,26.730522 22.000961,28.739136 24.000961,30.739136 L 23.999332,4.3250582 z "
           id="path120"
           sodipodi:nodetypes="ccccc"
           style="color:#000000;fill:url(#linearGradient2219);fill-opacity:1;fill-rule:nonzero;stroke:none;stroke-width:1;stroke-linecap:round;stroke-linejoin:miter;marker:none;marker-start:none;marker-mid:none;marker-end:none;stroke-miterlimit:4;stroke-dashoffset:17.85;stroke-opacity:1;visibility:visible;display:block;overflow:visible" />
        <path
           d="M 23.999332,4.3250582 C 25.220596,3.6289362 28.56856,1.1112619 30.240789,1.2043297 L 30.240789,27.730522 C 28.740789,27.230522 25.499332,29.85125 23.999332,30.85125 L 23.999332,4.3250582 z "
           id="path122"
           sodipodi:nodetypes="ccccc"
           style="color:#000000;fill:url(#linearGradient1409);fill-opacity:1;fill-rule:nonzero;stroke:none;stroke-width:1;stroke-linecap:round;stroke-linejoin:miter;marker:none;marker-start:none;marker-mid:none;marker-end:none;stroke-miterlimit:4;stroke-dashoffset:17.85;stroke-opacity:1;visibility:visible;display:block;overflow:visible" />
        <path
           d="M 14.78125,3 C 12.509945,3.2672123 9.7796952,4.4284671 6.71875,6.125 L 6.71875,29.78125 C 8.179368,28.806529 9.762,27.806831 11.59375,27.09375 C 15.183309,25.696372 19.844722,25.837074 24,28.71875 C 28.155278,25.837075 32.816691,25.696372 36.40625,27.09375 C 38.238,27.806831 39.820632,28.806529 41.28125,29.78125 L 41.28125,6.125 C 38.216797,4.4257009 35.484805,3.2670298 33.21875,3 C 30.579243,2.688963 28.392006,3.1981833 25.78125,5.15625 C 24.723513,5.9413453 23.276487,5.9413453 22.21875,5.15625 C 19.61321,3.2020951 17.42837,2.6885742 14.78125,3 z "
           id="path124"
           inkscape:href="#path2182"
           inkscape:original="M 16.84375 -0.25 C 12.810508 -0.5002318 8.5948882 1.386817 3.71875 4.3125 L 3.71875 35.53125 C 8.3998426 32.41052 16.198179 27.152057 24 33.96875 C 31.900334 27.152059 39.600158 32.410522 44.28125 35.53125 L 44.28125 4.3125 C 36.479431 -0.36859253 30.33997 -2.3251443 24 2.75 C 21.622511 0.8098786 19.263695 -0.09986092 16.84375 -0.25 z "
           inkscape:radius="-2.9883509"
           sodipodi:type="inkscape:offset"
           style="opacity:1;fill:none;fill-opacity:1;fill-rule:evenodd;stroke:#ffffff;stroke-width:3.12072754;stroke-linecap:butt;stroke-linejoin:miter;stroke-miterlimit:4;stroke-dasharray:none;stroke-opacity:1"
           xlink:href="#path2182" />
        <path
           d="M 33.361518,29.290886 L 33.361518,37.092707 L 36.482246,33.971979 L 39.602975,37.092707 L 39.602975,30.85125 C 39.602975,9.006151 27.120061,15.247608 25.559696,2.764694 L 23.999332,4.3250582 C 27.120061,18.368336 33.361518,10.566515 33.361518,29.290886 z "
           id="path126"
           sodipodi:nodetypes="cccccccc"
           style="fill:url(#linearGradient1411);fill-opacity:1;fill-rule:evenodd;stroke:none;stroke-width:2.22924781;stroke-linecap:square;stroke-linejoin:miter;stroke-miterlimit:4;stroke-dasharray:none;stroke-opacity:1" />
      </g>
    </g>
  </g>
  <g
     id="layer4"
     inkscape:groupmode="layer"
     inkscape:label="hires"
     style="display:inline" />
</svg>
