<?xml version="1.0" encoding="UTF-8" standalone="no"?>
<!-- Created with Inkscape (http://www.inkscape.org/) -->

<svg
   xmlns:dc="http://purl.org/dc/elements/1.1/"
   xmlns:cc="http://creativecommons.org/ns#"
   xmlns:rdf="http://www.w3.org/1999/02/22-rdf-syntax-ns#"
   xmlns:svg="http://www.w3.org/2000/svg"
   xmlns="http://www.w3.org/2000/svg"
   xmlns:xlink="http://www.w3.org/1999/xlink"
   xmlns:sodipodi="http://sodipodi.sourceforge.net/DTD/sodipodi-0.dtd"
   xmlns:inkscape="http://www.inkscape.org/namespaces/inkscape"
   height="300"
   id="svg11300"
   inkscape:export-filename="/home/jimmac/Desktop/wi-fi.png"
   inkscape:export-xdpi="90.000000"
   inkscape:export-ydpi="90.000000"
   inkscape:output_extension="org.inkscape.output.svg.inkscape"
   inkscape:version="0.47pre4 r22446"
   sodipodi:docname="accessories-dictionary.svg"
   sodipodi:version="0.32"
   style="display:inline;enable-background:new"
   version="1.0"
   width="400">
  <title
     id="title8836">Optical Drive</title>
  <metadata
     id="metadata154">
    <rdf:RDF>
      <cc:Work
         rdf:about="">
        <dc:format>image/svg+xml</dc:format>
        <dc:type
           rdf:resource="http://purl.org/dc/dcmitype/StillImage" />
        <dc:title />
        <dc:creator>
          <cc:Agent>
            <dc:title />
          </cc:Agent>
        </dc:creator>
        <dc:contributor>
          <cc:Agent>
            <dc:title />
          </cc:Agent>
        </dc:contributor>
        <dc:source />
        <cc:license
           rdf:resource="" />
        <dc:subject>
          <rdf:Bag />
        </dc:subject>
      </cc:Work>
    </rdf:RDF>
  </metadata>
  <sodipodi:namedview
     bordercolor="#666666"
     borderopacity="0.25490196"
     fill="#f57900"
     gridtolerance="12"
     guidetolerance="13"
     height="300px"
     id="base"
     inkscape:current-layer="layer2"
     inkscape:cx="285.61851"
     inkscape:cy="78.406645"
     inkscape:document-units="px"
     inkscape:grid-bbox="true"
     inkscape:guide-bbox="true"
     inkscape:pageopacity="0.0"
     inkscape:pageshadow="2"
     inkscape:showpageshadow="false"
     inkscape:snap-bbox="true"
     inkscape:snap-nodes="true"
     inkscape:window-height="876"
     inkscape:window-width="968"
     inkscape:window-x="132"
     inkscape:window-y="25"
     inkscape:zoom="1"
     objecttolerance="7"
     pagecolor="#ffffff"
     showgrid="false"
     showguides="true"
     stroke="#ef2929"
     width="400px"
     inkscape:window-maximized="0">
    <inkscape:grid
       empspacing="2"
       enabled="true"
       id="grid5883"
       spacingx="0.5px"
       spacingy="0.5px"
       type="xygrid"
       visible="true" />
  </sodipodi:namedview>
  <defs
     id="defs3">
    <linearGradient
       id="linearGradient2309"
       inkscape:collect="always">
      <stop
         id="stop2311"
         offset="0"
         style="stop-color:#ffffff;stop-opacity:1;" />
      <stop
         id="stop2313"
         offset="1"
         style="stop-color:#ffffff;stop-opacity:0;" />
    </linearGradient>
    <linearGradient
       id="linearGradient2301"
       inkscape:collect="always">
      <stop
         id="stop2303"
         offset="0"
         style="stop-color:#790000;stop-opacity:1" />
      <stop
         id="stop2305"
         offset="1"
         style="stop-color:#b03636;stop-opacity:1" />
    </linearGradient>
    <linearGradient
       id="linearGradient2286"
       inkscape:collect="always">
      <stop
         id="stop2288"
         offset="0"
         style="stop-color:#555753" />
      <stop
         id="stop2290"
         offset="1"
         style="stop-color:#555753;stop-opacity:0" />
    </linearGradient>
    <linearGradient
       id="linearGradient2276"
       inkscape:collect="always">
      <stop
         id="stop2278"
         offset="0"
         style="stop-color:#babdb6;stop-opacity:1;" />
      <stop
         id="stop2280"
         offset="1"
         style="stop-color:#8f9488;stop-opacity:1" />
    </linearGradient>
    <linearGradient
       id="linearGradient2258"
       inkscape:collect="always">
      <stop
         id="stop2260"
         offset="0"
         style="stop-color:#ffa4a4;stop-opacity:1" />
      <stop
         id="stop2262"
         offset="1"
         style="stop-color:#a40000" />
    </linearGradient>
    <linearGradient
       id="linearGradient2235"
       inkscape:collect="always">
      <stop
         id="stop2237"
         offset="0"
         style="stop-color:#cccccc;stop-opacity:1" />
      <stop
         id="stop2239"
         offset="1"
         style="stop-color:#9b9b9b;stop-opacity:1" />
    </linearGradient>
    <linearGradient
       id="linearGradient2229"
       inkscape:collect="always">
      <stop
         id="stop2231"
         offset="0"
         style="stop-color:#888a85" />
      <stop
         id="stop2233"
         offset="1"
         style="stop-color:#d3d7cf;stop-opacity:0;" />
    </linearGradient>
    <linearGradient
       id="linearGradient2221"
       inkscape:collect="always">
      <stop
         id="stop2223"
         offset="0"
         style="stop-color:#babdb6" />
      <stop
         id="stop2225"
         offset="1"
         style="stop-color:#d3d7cf;stop-opacity:0;" />
    </linearGradient>
    <linearGradient
       id="linearGradient2184"
       inkscape:collect="always">
      <stop
         id="stop2186"
         offset="0"
         style="stop-color:#ffffff;stop-opacity:1;" />
      <stop
         id="stop2188"
         offset="1"
         style="stop-color:#e3e3e3;stop-opacity:1" />
    </linearGradient>
    <linearGradient
       gradientTransform="matrix(-1,0,0,1,48,0)"
       gradientUnits="userSpaceOnUse"
       id="linearGradient2211"
       inkscape:collect="always"
       x1="24"
       x2="19.982143"
       xlink:href="#linearGradient2229"
       y1="19.505583"
       y2="19.550226" />
    <linearGradient
       gradientTransform="matrix(-1,0,0,1,48,0)"
       gradientUnits="userSpaceOnUse"
       id="linearGradient2219"
       inkscape:collect="always"
       x1="24"
       x2="32"
       xlink:href="#linearGradient2221"
       y1="19.996655"
       y2="19.90625" />
    <linearGradient
       gradientUnits="userSpaceOnUse"
       id="linearGradient2245"
       inkscape:collect="always"
       x1="15.714286"
       x2="36.482143"
       xlink:href="#linearGradient2184"
       y1="16.82852"
       y2="20.667807" />
    <linearGradient
       gradientUnits="userSpaceOnUse"
       id="linearGradient2247"
       inkscape:collect="always"
       x1="19.940901"
       x2="24"
       xlink:href="#linearGradient2235"
       y1="10.918805"
       y2="22.750927" />
    <linearGradient
       gradientUnits="userSpaceOnUse"
       id="linearGradient2264"
       inkscape:collect="always"
       x1="32.794643"
       x2="34.79464"
       xlink:href="#linearGradient2258"
       y1="21.696428"
       y2="32.321426" />
    <linearGradient
       gradientUnits="userSpaceOnUse"
       id="linearGradient2282"
       inkscape:collect="always"
       x1="37.535713"
       x2="9.9285688"
       xlink:href="#linearGradient2276"
       y1="34.196426"
       y2="20.089285" />
    <radialGradient
       cx="24"
       cy="36.75"
       fx="24"
       fy="36.75"
       gradientTransform="matrix(1,0,0,0.3,-3.16587e-17,25.725)"
       gradientUnits="userSpaceOnUse"
       id="radialGradient2292"
       inkscape:collect="always"
       r="22.5"
       xlink:href="#linearGradient2286" />
    <linearGradient
       gradientUnits="userSpaceOnUse"
       id="linearGradient2307"
       inkscape:collect="always"
       x1="23.955357"
       x2="29.214285"
       xlink:href="#linearGradient2301"
       y1="10.008928"
       y2="30.276785" />
    <linearGradient
       gradientUnits="userSpaceOnUse"
       id="linearGradient2315"
       inkscape:collect="always"
       x1="6.7230334"
       x2="37.804565"
       xlink:href="#linearGradient2309"
       y1="37.683041"
       y2="29.096745" />
    <linearGradient
       gradientTransform="matrix(-1,0,0,1,48,-3.210789e-14)"
       gradientUnits="userSpaceOnUse"
       id="linearGradient1409"
       inkscape:collect="always"
       x1="24"
       x2="19.982143"
       xlink:href="#linearGradient2229"
       y1="19.505583"
       y2="19.550226" />
    <linearGradient
       gradientUnits="userSpaceOnUse"
       id="linearGradient1411"
       inkscape:collect="always"
       x1="35.828274"
       x2="30.688702"
       xlink:href="#linearGradient2258"
       y1="26.129816"
       y2="27.676926" />
    <linearGradient
       id="linearGradient2284"
       inkscape:collect="always">
      <stop
         id="stop2286"
         offset="0"
         style="stop-color:#d3d7cf;stop-opacity:1;" />
      <stop
         id="stop48"
         offset="1"
         style="stop-color:#aeb0ab;stop-opacity:1" />
    </linearGradient>
    <linearGradient
       gradientUnits="userSpaceOnUse"
       id="linearGradient2290"
       inkscape:collect="always"
       x1="17.423727"
       x2="18.851906"
       xlink:href="#linearGradient2284"
       y1="36.458565"
       y2="29.070097" />
    <linearGradient
       inkscape:collect="always"
       xlink:href="#linearGradient2221"
       id="linearGradient2908"
       gradientUnits="userSpaceOnUse"
       gradientTransform="matrix(-1,0,0,1,48,0)"
       x1="31.999264"
       y1="19.996655"
       x2="37.306122"
       y2="19.996655" />
    <linearGradient
       inkscape:collect="always"
       xlink:href="#linearGradient2229"
       id="linearGradient2910"
       gradientUnits="userSpaceOnUse"
       gradientTransform="matrix(-1,0,0,1,48,0)"
       x1="32.001114"
       y1="19.550226"
       x2="28.498884"
       y2="19.550226" />
    <linearGradient
       inkscape:collect="always"
       xlink:href="#linearGradient2276"
       id="linearGradient2912"
       gradientUnits="userSpaceOnUse"
       x1="22.863247"
       y1="24.473707"
       x2="11.43117"
       y2="20.924095" />
    <linearGradient
       inkscape:collect="always"
       xlink:href="#linearGradient2309"
       id="linearGradient2914"
       gradientUnits="userSpaceOnUse"
       x1="6.7230334"
       y1="37.683041"
       x2="37.804565"
       y2="29.096745" />
  </defs>
  <g
     id="layer6"
     inkscape:groupmode="layer"
     inkscape:label="baseplate"
     style="display:none">
    <rect
       height="48"
       id="rect6284"
       inkscape:label="48x48"
       style="fill:#eeeeec;fill-opacity:1;fill-rule:nonzero;stroke:none;stroke-width:2;marker:none;visibility:visible;display:inline;overflow:visible;enable-background:accumulate"
       width="48"
       x="296"
       y="50" />
    <rect
       height="32"
       id="rect6592"
       inkscape:label="32x32"
       style="fill:#eeeeec;fill-opacity:1;fill-rule:nonzero;stroke:none;stroke-width:2;marker:none;visibility:visible;display:inline;overflow:visible;enable-background:accumulate"
       width="32"
       x="303"
       y="126" />
    <rect
       height="22"
       id="rect6749"
       inkscape:label="22x22"
       style="fill:#eeeeec;fill-opacity:1;fill-rule:nonzero;stroke:none;stroke-width:2;marker:none;visibility:visible;display:inline;overflow:visible;enable-background:accumulate"
       width="22"
       x="303"
       y="177" />
    <rect
       height="16"
       id="rect6833"
       inkscape:label="16x16"
       style="fill:#eeeeec;fill-opacity:1;fill-rule:nonzero;stroke:none;stroke-width:2;marker:none;visibility:visible;display:inline;overflow:visible;enable-background:accumulate"
       width="16"
       x="303"
       y="219" />
    <text
       id="context"
       inkscape:label="context"
       style="font-size:18.30070686px;font-style:normal;font-weight:normal;fill:#000000;fill-opacity:1;stroke:none;display:inline;enable-background:new;font-family:Bitstream Vera Sans"
       x="20.970737"
       xml:space="preserve"
       y="21.513618"><tspan
         id="tspan2716"
         sodipodi:role="line"
         x="20.970737"
         y="21.513618">apps</tspan></text>
    <text
       id="icon-name"
       inkscape:label="icon-name"
       sodipodi:linespacing="125%"
       style="font-size:18.30070686px;font-style:normal;font-variant:normal;font-weight:bold;font-stretch:normal;text-align:start;line-height:125%;writing-mode:lr-tb;text-anchor:start;fill:#000000;fill-opacity:1;stroke:none;display:inline;enable-background:new;font-family:Droid Sans;-inkscape-font-specification:Droid Sans Bold"
       x="191.97073"
       xml:space="preserve"
       y="21.513618"><tspan
         id="tspan3023"
         sodipodi:role="line"
         x="191.97073"
         y="21.513618">accessories-dictionary</tspan></text>
  </g>
  <g
     id="layer2"
     inkscape:groupmode="layer"
     inkscape:label="small sizes"
     style="display:inline">
    <g
       id="g48"
       style="display:inline;enable-background:new"
       transform="translate(296,50)">
      <path
         d="m 46.5,36.75 a 22.5,6.75 0 1 1 -45,0 22.5,6.75 0 1 1 45,0 z"
         id="path2284"
         sodipodi:cx="24"
         sodipodi:cy="36.75"
         sodipodi:rx="22.5"
         sodipodi:ry="6.75"
         sodipodi:type="arc"
         style="opacity:0.50196078;color:#000000;fill:url(#radialGradient2292);fill-opacity:1;fill-rule:nonzero;stroke:none;stroke-width:1;marker:none;visibility:visible;display:block;overflow:visible"
         transform="matrix(1.066667,0,0,0.962963,-1.600001,1.111111)" />
      <path
         d="m 4.5,11.5 39,0 4,27 -18.5,0 -1,-1 c -2,1.5 -6,1.5 -8,0 l -1,1 -18.5,0 4,-27 z"
         id="rect1304"
         sodipodi:nodetypes="ccccccccc"
         style="color:#000000;fill:#523856;fill-opacity:1;fill-rule:nonzero;stroke:#3e263b;stroke-width:1;stroke-linecap:round;stroke-linejoin:round;stroke-miterlimit:4;stroke-opacity:1;stroke-dasharray:none;stroke-dashoffset:17.85;marker:none;visibility:visible;display:block;overflow:visible" />
      <path
         d="m 5.28125,12.40625 -3.71875,25.1875 17.03125,0 0.75,-0.75 A 0.91818287,0.91818287 0 0 1 20.5625,36.75 c 0.764969,0.573727 2.090515,0.96875 3.4375,0.96875 1.346985,0 2.672531,-0.395023 3.4375,-0.96875 a 0.91818287,0.91818287 0 0 1 1.21875,0.09375 l 0.75,0.75 17.03125,0 -3.71875,-25.1875 -37.4375,0 z"
         id="path2274"
         inkscape:href="#rect1304"
         inkscape:original="M 4.5 11.5 L 0.5 38.5 L 19 38.5 L 20 37.5 C 22 39 26 39 28 37.5 L 29 38.5 L 47.5 38.5 L 43.5 11.5 L 4.5 11.5 z "
         inkscape:radius="-0.91809106"
         sodipodi:type="inkscape:offset"
         style="opacity:0.13333333;color:#000000;fill:none;stroke:#ffffff;stroke-width:1;stroke-linecap:round;stroke-linejoin:round;stroke-miterlimit:4;stroke-opacity:1;stroke-dasharray:none;stroke-dashoffset:17.85;marker:none;visibility:visible;display:block;overflow:visible"
         xlink:href="#rect1304" />
      <path
         d="m 2,36.5 c 5.6666667,0 14,-1.5 17,0 3,-2.5 7,-2.5 10,0 3,-1.5 12,0 17,0 L 45.5,34 C 38.5,31.5 29,28.5 24,33 19,28.5 9.5,31.5 2.5,34 L 2,36.5 z"
         id="path2180"
         sodipodi:nodetypes="cccccccc"
         style="fill:url(#linearGradient2282);fill-opacity:1;fill-rule:evenodd;stroke:#888a85;stroke-width:1;stroke-linecap:butt;stroke-linejoin:miter;stroke-miterlimit:4;stroke-opacity:1;stroke-dasharray:none" />
      <path
         d="m 14.125,31.9375 c -3.53655,0.456329 -7.3575769,1.686385 -10.71875,2.875 L 3.3125,35.375 c 2.5221971,-0.07959 5.366405,-0.336662 8.125,-0.5 2.894187,-0.171366 5.409128,-0.175823 7.34375,0.53125 1.351866,-0.996476 2.880396,-1.512093 4.4375,-1.65625 -2.165487,-1.908579 -5.398256,-2.289338 -9.09375,-1.8125 z m 14.5625,0 c -1.52796,0.277477 -2.832247,0.865914 -3.90625,1.8125 1.557104,0.144157 3.085634,0.659774 4.4375,1.65625 1.978818,-0.72155 4.616296,-0.703026 7.59375,-0.53125 2.817465,0.162546 5.573623,0.387501 7.875,0.46875 L 44.59375,34.8125 c -3.361173,-1.188615 -7.1822,-2.418671 -10.71875,-2.875 -1.862662,-0.240344 -3.634672,-0.281993 -5.1875,0 z"
         id="path2266"
         inkscape:href="#path2180"
         inkscape:original="M 14 30.875 C 10.125 31.375 6 32.75 2.5 34 L 2 36.5 C 7.6666667 36.5 16 35 19 36.5 C 22 34 26 34 29 36.5 C 32 35 41 36.5 46 36.5 L 45.5 34 C 38.5 31.5 29 28.5 24 33 C 21.5 30.75 17.875 30.375 14 30.875 z "
         inkscape:radius="-1.0582203"
         sodipodi:type="inkscape:offset"
         style="opacity:0.30196078;fill:none;stroke:url(#linearGradient2315);stroke-width:1;stroke-linecap:butt;stroke-linejoin:miter;stroke-miterlimit:4;stroke-opacity:1;stroke-dasharray:none"
         xlink:href="#path2180" />
      <path
         d="M 2.5,34 C 9,31.5 20,29 24,33 c 4,-4 15,-1.5 21.5,1 l -3,-23.5 C 37,8 27.5,6 24,9 20,6 12,8 5.5,10.5 L 2.5,34 z"
         id="path2182"
         sodipodi:nodetypes="ccccccc"
         style="fill:url(#linearGradient2245);fill-opacity:1;fill-rule:evenodd;stroke:url(#linearGradient2247);stroke-width:1;stroke-linecap:butt;stroke-linejoin:miter;stroke-miterlimit:4;stroke-opacity:1;stroke-dasharray:none" />
      <path
         d="M 24,9.5 C 22,8 19.5,7.5 16,8 l 0,22.5 c 2,-1 6,0 8,2 l 0,-23 z"
         id="rect2192"
         sodipodi:nodetypes="ccccc"
         style="color:#000000;fill:url(#linearGradient2219);fill-opacity:1;fill-rule:nonzero;stroke:none;stroke-width:1;marker:none;visibility:visible;display:block;overflow:visible" />
      <path
         d="M 24,9.5 C 25.221264,8.803878 26.327771,7.9069322 28,8 l 1,22.5 c -1.5,-0.5 -3.5,1 -5,2 l 0,-23 z"
         id="path2195"
         sodipodi:nodetypes="ccccc"
         style="color:#000000;fill:url(#linearGradient2211);fill-opacity:1;fill-rule:nonzero;stroke:none;stroke-width:1;marker:none;visibility:visible;display:block;overflow:visible" />
      <path
         d="M 17,8.5 C 13.686857,8.7714867 9.8310063,9.9099341 6.34375,11.21875 l -2.75,21.4375 c 3.1218764,-1.100253 6.852784,-2.138473 10.5,-2.53125 3.849051,-0.414513 7.492483,-0.105406 9.90625,1.78125 2.413767,-1.886656 6.057199,-2.195763 9.90625,-1.78125 3.647216,0.392777 7.378124,1.430997 10.5,2.53125 l -2.75,-21.46875 C 39.042061,10.053977 35.590319,8.9956649 32.375,8.59375 28.988395,8.1704244 25.951176,8.5552417 24.59375,9.71875 A 0.92859821,0.92859821 0 0 1 23.4375,9.75 C 22.596584,9.119313 21.522981,8.7113924 20.21875,8.53125 19.242487,8.396407 18.155606,8.4053069 17,8.5 z"
         id="path2243"
         inkscape:href="#path2182"
         inkscape:original="M 20.34375 7.625 C 16.101562 7.0390625 10.375 8.625 5.5 10.5 L 2.5 34 C 9 31.5 20 29 24 33 C 28 29 39 31.5 45.5 34 L 42.5 10.5 C 37 8 27.5 6 24 9 C 23 8.25 21.757812 7.8203125 20.34375 7.625 z "
         inkscape:radius="-0.92850536"
         sodipodi:type="inkscape:offset"
         style="opacity:0.65098039;fill:none;stroke:#ffffff;stroke-width:1;stroke-linecap:butt;stroke-linejoin:miter;stroke-miterlimit:4;stroke-opacity:1;stroke-dasharray:none"
         xlink:href="#path2182" />
      <path
         d="M 24.455357,8.7321429 C 24.5,20.5 34,20 33.5,30.5 l -1,4 1.5,-0.5 1,1 0.5,-4 C 36,20 24.544643,19.089286 24.5,8.5 l -0.04464,0.2321429 z"
         id="path2227"
         sodipodi:nodetypes="cccccccc"
         style="fill:url(#linearGradient2264);fill-opacity:1;fill-rule:evenodd;stroke:url(#linearGradient2307);stroke-width:1;stroke-linecap:square;stroke-linejoin:miter;stroke-miterlimit:4;stroke-opacity:1;stroke-dasharray:none" />
    </g>
    <g
       id="g32"
       style="display:inline;enable-background:new"
       transform="translate(303,126)">
      <path
         d="M 46.5,36.75 C 46.5,40.477922 36.426407,43.5 24,43.5 11.573593,43.5 1.5,40.477922 1.5,36.75 1.5,33.022078 11.573593,30 24,30 c 12.426407,0 22.5,3.022078 22.5,6.75 z"
         id="path73"
         sodipodi:cx="24"
         sodipodi:cy="36.75"
         sodipodi:rx="22.5"
         sodipodi:ry="6.75"
         sodipodi:type="arc"
         style="opacity:0.50196078;color:#000000;fill:url(#radialGradient2292);fill-opacity:1;fill-rule:nonzero;stroke:none;stroke-width:1;marker:none;visibility:visible;display:block;overflow:visible"
         transform="matrix(0.711112,0,0,0.666668,-1.066685,0.999956)" />
      <path
         d="m 3,8.5 26,0 2.5,18 -12,0 -1,-0.5 c -1,0.730499 -4,0.764914 -5,0 l -1,0.5 -12,0 2.5,-18 z"
         id="path75"
         sodipodi:nodetypes="ccccccccc"
         style="color:#000000;fill:#523856;fill-opacity:1;fill-rule:nonzero;stroke:#3e263b;stroke-width:0.99999946;stroke-linecap:round;stroke-linejoin:round;stroke-miterlimit:4;stroke-opacity:1;stroke-dasharray:none;stroke-dashoffset:17.85;marker:none;visibility:visible;display:block;overflow:visible" />
      <path
         d="m 1.5,25.5 c 3.737586,0 9.021278,-0.985716 11,0 1.978722,-1.349481 5.021278,-1.346986 7,0 1.978722,-0.985716 7.70213,0 11,0 L 30,23.5 C 25.382982,21.85714 19.29787,20.042852 16,23 12.70213,20.042852 6.617018,21.85714 2,23.5 l -0.5,2 z"
         id="path79"
         sodipodi:nodetypes="cccccccc"
         style="fill:url(#linearGradient2912);fill-opacity:1;fill-rule:evenodd;stroke:#888a85;stroke-width:0.99999958000000000;stroke-linecap:butt;stroke-linejoin:miter;stroke-miterlimit:4;stroke-opacity:1;stroke-dasharray:none" />
      <path
         d="m 14.125,31.9375 c -3.53655,0.456329 -7.3575769,1.686385 -10.71875,2.875 L 3.3125,35.375 c 2.5221971,-0.07959 5.366405,-0.336662 8.125,-0.5 2.894187,-0.171366 5.409128,-0.175823 7.34375,0.53125 1.351866,-0.996476 2.880396,-1.512093 4.4375,-1.65625 -2.165487,-1.908579 -5.398256,-2.289338 -9.09375,-1.8125 z m 14.5625,0 c -1.52796,0.277477 -2.832247,0.865914 -3.90625,1.8125 1.557104,0.144157 3.085634,0.659774 4.4375,1.65625 1.978818,-0.72155 4.616296,-0.703026 7.59375,-0.53125 2.817465,0.162546 5.573623,0.387501 7.875,0.46875 L 44.59375,34.8125 c -3.361173,-1.188615 -7.1822,-2.418671 -10.71875,-2.875 -1.862662,-0.240344 -3.634672,-0.281993 -5.1875,0 z"
         id="path81"
         inkscape:href="#path2180"
         inkscape:original="M 14 30.875 C 10.125 31.375 6 32.75 2.5 34 L 2 36.5 C 7.6666667 36.5 16 35 19 36.5 C 22 34 26 34 29 36.5 C 32 35 41 36.5 46 36.5 L 45.5 34 C 38.5 31.5 29 28.5 24 33 C 21.5 30.75 17.875 30.375 14 30.875 z "
         inkscape:radius="-1.0582203"
         sodipodi:type="inkscape:offset"
         style="opacity:0.30196078;fill:none;stroke:url(#linearGradient2914);stroke-width:1;stroke-linecap:butt;stroke-linejoin:miter;stroke-miterlimit:4;stroke-opacity:1;stroke-dasharray:none"
         transform="matrix(0.63731594,0,0,0.61582964,0.57941757,2.7913576)"
         xlink:href="#path2180" />
      <path
         d="M 2,23.5 C 6.287231,21.85714 13,20 16,23 c 3,-3 9.712769,-1.14286 14,0.5 L 28,7.5 C 24.372343,5.85714 19,4.5 15.999989,6.8571401 13,4.5 8.287231,5.85714 4,7.5 l -2,16 z"
         id="path83"
         sodipodi:nodetypes="ccccccc"
         style="fill:url(#linearGradient2245);fill-opacity:1;fill-rule:evenodd;stroke:url(#linearGradient2247);stroke-width:0.99999958;stroke-linecap:butt;stroke-linejoin:miter;stroke-miterlimit:4;stroke-opacity:1;stroke-dasharray:none" />
      <path
         d="M 16,8 C 14.680851,7.014284 13.031911,6.3714251 10.723401,6.6999971 L 11,21 c 1.319148,-0.657144 3.680851,0.185711 5,1.5 L 16,8 z"
         id="path85"
         sodipodi:nodetypes="ccccc"
         style="color:#000000;fill:url(#linearGradient2908);fill-opacity:1;fill-rule:nonzero;stroke:none;stroke-width:1;marker:none;visibility:visible;display:block;overflow:visible" />
      <path
         d="m 16,8 c 0.805514,-0.457452 1.897041,-1.061159 3,-1 l 0.5,14 C 18.510639,20.671428 16.989361,21.842855 16,22.5 L 16,8 z"
         id="path87"
         sodipodi:nodetypes="ccccc"
         style="color:#000000;fill:url(#linearGradient2910);fill-opacity:1;fill-rule:nonzero;stroke:none;stroke-width:1;marker:none;visibility:visible;display:block;overflow:visible" />
      <path
         d="M 17,8.53125 C 13.70104,8.8019295 9.8535096,9.9464244 6.375,11.25 L 3.65625,32.59375 c 3.1110891,-1.091526 6.813841,-2.10976 10.4375,-2.5 3.838216,-0.413346 7.480472,-0.126418 9.90625,1.75 2.425778,-1.876418 6.068034,-2.163346 9.90625,-1.75 3.623659,0.39024 7.326411,1.408474 10.4375,2.5 l -2.75,-21.40625 C 38.986759,10.061724 35.571562,9.0558203 32.375,8.65625 28.992376,8.233422 25.968644,8.567055 24.625,9.71875 a 0.96119877,0.96119877 0 0 1 -1.1875,0.0625 C 22.602169,9.1547518 21.519125,8.7421098 20.21875,8.5625 19.245446,8.4280657 18.153711,8.4365881 17,8.53125 z"
         id="path89"
         inkscape:href="#path2182"
         inkscape:original="M 20.34375 7.625 C 16.101562 7.0390625 10.375 8.625 5.5 10.5 L 2.5 34 C 9 31.5 20 29 24 33 C 28 29 39 31.5 45.5 34 L 42.5 10.5 C 37 8 27.5 6 24 9 C 23 8.25 21.757812 7.8203125 20.34375 7.625 z "
         inkscape:radius="-0.96110266"
         sodipodi:type="inkscape:offset"
         style="opacity:0.65098039;fill:none;stroke:#ffffff;stroke-width:1;stroke-linecap:butt;stroke-linejoin:miter;stroke-miterlimit:4;stroke-opacity:1;stroke-dasharray:none"
         transform="matrix(0.62635768,0,0,0.66671708,0.95532585,0.64125294)"
         xlink:href="#path2182" />
      <path
         d="m 16.5,6.5 c 0.02944,7.733177 6.095729,8.085724 5.765942,14.985736 l -0.659574,2.628576 0.989361,-0.328572 0.659574,0.657144 0.329787,-2.628576 C 23.914877,14.585724 16.529445,13.958686 16.5,7 l 0,-0.5 z"
         id="path91"
         sodipodi:nodetypes="cccccccc"
         style="fill:url(#linearGradient2264);fill-opacity:1;fill-rule:evenodd;stroke:url(#linearGradient2307);stroke-width:0.99999958;stroke-linecap:square;stroke-linejoin:miter;stroke-miterlimit:4;stroke-opacity:1;stroke-dasharray:none" />
    </g>
    <g
       id="g22"
       style="display:inline;enable-background:new"
       transform="translate(303,177)">
      <g
         id="g1397"
         transform="matrix(0.448582,0,0,0.448582,0.233601,0.718352)">
        <path
           d="m 46.5,36.75 a 22.5,6.75 0 1 1 -45,0 22.5,6.75 0 1 1 45,0 z"
           id="path95"
           sodipodi:cx="24"
           sodipodi:cy="36.75"
           sodipodi:rx="22.5"
           sodipodi:ry="6.75"
           sodipodi:type="arc"
           style="opacity:0.51764706;color:#000000;fill:url(#radialGradient2292);fill-opacity:1;fill-rule:nonzero;stroke:none;stroke-width:1;marker:none;visibility:visible;display:block;overflow:visible"
           transform="matrix(1.089854,0,0,0.825648,-2.155535,9.297111)" />
        <path
           d="m 2.823116,8.4466675 42.35569,0 2.229246,31.2094555 -16.719351,0 -2.229247,-1.114623 c -2.229246,2.229246 -6.68774,2.229246 -8.916987,0 l -2.229247,1.114623 -16.71935087,0 L 2.823116,8.4466675 z"
           id="path97"
           sodipodi:nodetypes="ccccccccc"
           style="color:#000000;fill:#523856;fill-opacity:1;fill-rule:nonzero;stroke:#3e263b;stroke-width:2.22924781;stroke-linecap:round;stroke-linejoin:round;stroke-miterlimit:4;stroke-opacity:1;stroke-dasharray:none;stroke-dashoffset:17.85;marker:none;visibility:visible;display:block;overflow:visible" />
        <path
           d="m 2.823116,36.312253 c 6.6877404,-1.114624 11.146234,-2.229247 15.604728,0 3,-2.5 8.146234,-2.5 11.146234,0 4.458494,-2.229247 10.031611,-1.114624 15.604728,0 l -1.114624,-5.573117 c -7,-2.5 -33.126443,-2.5 -40.1264426,0 L 2.823116,36.312253 z"
           id="path99"
           sodipodi:nodetypes="ccccccc"
           style="fill:#d3d7cf;fill-opacity:1;fill-rule:evenodd;stroke:#757672;stroke-width:2.22924781;stroke-linecap:butt;stroke-linejoin:miter;stroke-miterlimit:4;stroke-opacity:1;stroke-dasharray:none" />
        <path
           d="m 2.823116,35.197629 c 6.5,-2.5 15.604728,-8.916986 21.177845,-2.229246 5.573117,-6.68774 14.677845,-0.270754 21.177845,2.229246 L 42.949559,8.4466675 C 37.376442,3.9881742 28.459454,2.1811543 24.000961,6.2174207 19.472096,2.2515256 11.740103,3.9881742 5.0523628,8.4466675 L 2.823116,35.197629 z"
           id="path101"
           sodipodi:nodetypes="ccccccc"
           style="fill:url(#linearGradient2245);fill-opacity:1;fill-rule:evenodd;stroke:#939490;stroke-width:2.22924685;stroke-linecap:butt;stroke-linejoin:miter;stroke-miterlimit:4;stroke-opacity:1;stroke-dasharray:none" />
        <path
           d="m 23.929629,7.6839002 c -2,-1.5 -5.345656,-3.0811029 -8.845656,-2.5811029 l 0,23.4070917 c 2,-1 6.916988,0.229247 8.916988,2.229247 L 23.929629,7.6839002 z"
           id="path103"
           sodipodi:nodetypes="ccccc"
           style="color:#000000;fill:url(#linearGradient2219);fill-opacity:1;fill-rule:nonzero;stroke:none;stroke-width:1;marker:none;visibility:visible;display:block;overflow:visible" />
        <path
           d="m 24,9.5 c 1.221264,-0.696122 2.787225,-2.2610237 4.459454,-2.1679559 l 0,21.1778449 c -1.5,-0.5 -2.958493,1.468382 -4.458493,2.468382 L 24,9.5 z"
           id="path105"
           sodipodi:nodetypes="ccccc"
           style="color:#000000;fill:url(#linearGradient1409);fill-opacity:1;fill-rule:nonzero;stroke:none;stroke-width:1;marker:none;visibility:visible;display:block;overflow:visible" />
        <path
           d="M 17.09375,9.78125 C 14.209783,10.030681 10.732592,11.027554 7.5,12.1875 l -2.375,18.625 c 2.774832,-0.865099 5.758737,-1.639883 8.8125,-1.96875 3.636884,-0.391664 7.271042,-0.220848 10.0625,1.5 2.791458,-1.720848 6.425616,-1.891664 10.0625,-1.5 3.053763,0.328867 6.037668,1.103651 8.8125,1.96875 L 40.5,12.125 C 38.078026,11.144463 35.048304,10.228694 32.21875,9.875 28.989695,9.4713681 26.249489,9.9915094 25.4375,10.6875 a 2.2187818,2.2187818 0 0 1 -2.78125,0.09375 C 22.036364,10.316335 21.182882,9.9715653 20.03125,9.8125 19.172089,9.6938314 18.174346,9.6877906 17.09375,9.78125 z"
           id="path107"
           inkscape:href="#path2182"
           inkscape:original="M 20.34375 7.625 C 16.101562 7.0390625 10.375 8.625 5.5 10.5 L 2.5 34 C 9 31.5 20 29 24 33 C 28 29 39 31.5 45.5 34 L 42.5 10.5 C 37 8 27.5 6 24 9 C 23 8.25 21.757812 7.8203125 20.34375 7.625 z "
           inkscape:radius="-2.21856"
           sodipodi:type="inkscape:offset"
           style="opacity:0.87843137;fill:none;stroke:#ffffff;stroke-width:2.22924781;stroke-linecap:butt;stroke-linejoin:miter;stroke-miterlimit:4;stroke-opacity:1;stroke-dasharray:none"
           xlink:href="#path2182"
           transform="matrix(0.99562256,0,0,1.1588223,0.10505855,-4.9763375)" />
        <path
           d="m 32.917948,30.739136 0,6.68774 2.229247,-1.114623 2.229247,1.114623 0,-6.68774 c 0,-12.260858 -11.146234,-11.146234 -11.146234,-24.5217153 l -2.229247,1.1146234 c 0,12.2608579 8.916987,13.3754809 8.916987,23.4070919 z"
           id="path109"
           sodipodi:nodetypes="cccccccc"
           style="fill:url(#linearGradient1411);fill-opacity:1;fill-rule:evenodd;stroke:none" />
      </g>
    </g>
    <g
       id="g16"
       style="display:inline;enable-background:new"
       transform="translate(303,219)">
      <g
         id="g112"
         transform="matrix(0.320438,0,0,0.320438,0.309702,1.614087)">
        <path
           d="m 0.59386839,6.0098851 46.81092761,0 0,37.3150219 -12.482914,0.0093 -4.681093,-3.120728 -3.120728,3.120728 -6.241457,0 -3.120729,-3.120728 -4.681093,3.120728 -12.48291361,-0.0093 0,-37.3150219 z"
           id="path114"
           sodipodi:nodetypes="ccccccccccc"
           style="color:#000000;fill:#65456a;fill-opacity:1;fill-rule:nonzero;stroke:#3e263b;stroke-width:3.1207273;stroke-linecap:round;stroke-linejoin:round;stroke-miterlimit:4;stroke-opacity:1;stroke-dasharray:none;stroke-dashoffset:17.85;marker:none;visibility:visible;display:block;overflow:visible" />
        <path
           d="m 2.1542326,38.653072 43.6901994,0 -1.560365,-14.043279 -40.5694701,0 -1.5603643,14.043279 z"
           id="path116"
           sodipodi:nodetypes="ccccc"
           style="fill:url(#linearGradient2290);fill-opacity:1;fill-rule:evenodd;stroke:none" />
        <path
           d="m 3.7145969,35.532343 c 4.6810927,-3.120728 12.4829141,-8.377057 20.2847351,-1.560364 7.900334,-6.816693 15.603643,-1.560364 20.284735,1.560364 l 0,-31.2072848 C 36.482246,-0.35603455 30.339302,-2.3104503 23.999332,2.764694 17.659362,-2.4089631 11.516418,-0.35603455 3.7145969,4.3250582 l 0,31.2072848 z"
           id="path118"
           sodipodi:nodetypes="ccccccc"
           style="fill:url(#linearGradient2245);fill-opacity:1;fill-rule:evenodd;stroke:url(#linearGradient2282);stroke-width:3.12072611;stroke-linecap:butt;stroke-linejoin:miter;stroke-miterlimit:4;stroke-opacity:1;stroke-dasharray:none" />
        <path
           d="m 23.999332,4.3250582 c -2,-1.5 -5.862185,-3.6207285 -9.362185,-3.1207285 l 0,26.5261923 c 2,-1 7.363814,1.008614 9.363814,3.008614 l -0.0016,-26.4140778 z"
           id="path120"
           sodipodi:nodetypes="ccccc"
           style="color:#000000;fill:url(#linearGradient2219);fill-opacity:1;fill-rule:nonzero;stroke:none;stroke-width:1;marker:none;visibility:visible;display:block;overflow:visible" />
        <path
           d="m 23.999332,4.3250582 c 1.221264,-0.696122 4.569228,-3.2137963 6.241457,-3.1207285 l 0,26.5261923 c -1.5,-0.5 -4.741457,2.120728 -6.241457,3.120728 l 0,-26.5261918 z"
           id="path122"
           sodipodi:nodetypes="ccccc"
           style="color:#000000;fill:url(#linearGradient1409);fill-opacity:1;fill-rule:nonzero;stroke:none;stroke-width:1;marker:none;visibility:visible;display:block;overflow:visible" />
        <path
           d="m 17.15625,10.5625 c -2.634217,0.235803 -5.869669,1.153502 -8.9375,2.21875 L 6.0625,29.75 c 2.4970436,-0.718142 5.129098,-1.367268 7.8125,-1.65625 3.551538,-0.382473 7.167412,-0.32822 10.125,1.3125 2.957588,-1.64072 6.573462,-1.694973 10.125,-1.3125 2.683402,0.288982 5.315456,0.938108 7.8125,1.65625 L 39.75,12.6875 c -2.295527,-0.88636 -5.037252,-1.707781 -7.625,-2.03125 -3.135043,-0.39188 -5.70098,0.207983 -6.1875,0.625 a 2.9886497,2.9886497 0 0 1 -3.71875,0.125 C 21.730754,11.040253 20.998075,10.740238 19.9375,10.59375 19.148216,10.484733 18.192086,10.469777 17.15625,10.5625 z"
           id="path124"
           inkscape:href="#path2182"
           inkscape:original="M 20.34375 7.625 C 16.101562 7.0390625 10.375 8.625 5.5 10.5 L 2.5 34 C 9 31.5 20 29 24 33 C 28 29 39 31.5 45.5 34 L 42.5 10.5 C 37 8 27.5 6 24 9 C 23 8.25 21.757812 7.8203125 20.34375 7.625 z "
           inkscape:radius="-2.9883509"
           sodipodi:type="inkscape:offset"
           style="fill:none;stroke:#ffffff;stroke-width:3.12072754;stroke-linecap:butt;stroke-linejoin:miter;stroke-miterlimit:4;stroke-opacity:1;stroke-dasharray:none"
           xlink:href="#path2182"
           transform="matrix(0.98592826,0,0,1.368961,0.33772178,-11.229001)" />
        <path
           d="m 33.361518,29.290886 0,7.801821 3.120728,-3.120728 3.120729,3.120728 0,-6.241457 c 0,-21.845099 -12.482914,-15.603642 -14.043279,-28.086556 l -1.560364,1.5603642 c 3.120729,14.0432778 9.362186,6.2414568 9.362186,24.9658278 z"
           id="path126"
           sodipodi:nodetypes="cccccccc"
           style="fill:url(#linearGradient1411);fill-opacity:1;fill-rule:evenodd;stroke:none" />
      </g>
    </g>
  </g>
  <g
     id="layer4"
     inkscape:groupmode="layer"
     inkscape:label="hires"
     style="display:inline" />
</svg>
