<?xml version="1.0" encoding="UTF-8" standalone="no"?>
<!-- Created with Inkscape (http://www.inkscape.org/) -->
<svg
   xmlns:dc="http://purl.org/dc/elements/1.1/"
   xmlns:cc="http://creativecommons.org/ns#"
   xmlns:rdf="http://www.w3.org/1999/02/22-rdf-syntax-ns#"
   xmlns:svg="http://www.w3.org/2000/svg"
   xmlns="http://www.w3.org/2000/svg"
   xmlns:xlink="http://www.w3.org/1999/xlink"
   xmlns:sodipodi="http://sodipodi.sourceforge.net/DTD/sodipodi-0.dtd"
   xmlns:inkscape="http://www.inkscape.org/namespaces/inkscape"
   height="300"
   id="svg11300"
   inkscape:export-filename="/home/jimmac/Desktop/wi-fi.png"
   inkscape:export-xdpi="90.000000"
   inkscape:export-ydpi="90.000000"
   inkscape:output_extension="org.inkscape.output.svg.inkscape"
   inkscape:version="0.46"
   sodipodi:docname="dialog-question.svg"
   sodipodi:version="0.32"
   style="display:inline;enable-background:new"
   version="1.0"
   width="400">
  <title
     id="title8836">Optical Drive</title>
  <metadata
     id="metadata154">
    <rdf:RDF>
      <cc:Work
         rdf:about="">
        <dc:format>image/svg+xml</dc:format>
        <dc:type
           rdf:resource="http://purl.org/dc/dcmitype/StillImage" />
        <dc:title />
        <dc:creator>
          <cc:Agent>
            <dc:title />
          </cc:Agent>
        </dc:creator>
        <dc:contributor>
          <cc:Agent>
            <dc:title />
          </cc:Agent>
        </dc:contributor>
        <dc:source />
        <cc:license
           rdf:resource="" />
        <dc:subject>
          <rdf:Bag />
        </dc:subject>
      </cc:Work>
    </rdf:RDF>
  </metadata>
  <sodipodi:namedview
     bordercolor="#666666"
     borderopacity="0.25490196"
     fill="#f57900"
     gridtolerance="12"
     guidetolerance="13"
     height="300px"
     id="base"
     inkscape:current-layer="layer6"
     inkscape:cx="144.68008"
     inkscape:cy="87.105301"
     inkscape:document-units="px"
     inkscape:grid-bbox="true"
     inkscape:guide-bbox="true"
     inkscape:pageopacity="0.0"
     inkscape:pageshadow="2"
     inkscape:showpageshadow="false"
     inkscape:snap-bbox="true"
     inkscape:snap-nodes="true"
     inkscape:window-height="876"
     inkscape:window-width="968"
     inkscape:window-x="132"
     inkscape:window-y="8"
     inkscape:zoom="1"
     objecttolerance="7"
     pagecolor="#ffffff"
     showgrid="false"
     showguides="true"
     stroke="#ef2929"
     width="400px">
    <inkscape:grid
       empspacing="2"
       enabled="true"
       id="grid5883"
       spacingx="0.5px"
       spacingy="0.5px"
       type="xygrid"
       visible="true" />
  </sodipodi:namedview>
  <defs
     id="defs3">
    <linearGradient
       id="linearGradient6565"
       inkscape:collect="always">
      <stop
         id="stop6567"
         offset="0"
         style="stop-color:#000000;stop-opacity:1;" />
      <stop
         id="stop6569"
         offset="1"
         style="stop-color:#000000;stop-opacity:0;" />
    </linearGradient>
    <linearGradient
       id="linearGradient6548"
       inkscape:collect="always">
      <stop
         id="stop6550"
         offset="0"
         style="stop-color:#729fcf;stop-opacity:1;" />
      <stop
         id="stop6552"
         offset="1"
         style="stop-color:#3465a4;stop-opacity:1" />
    </linearGradient>
    <linearGradient
       id="linearGradient6516"
       inkscape:collect="always">
      <stop
         id="stop6518"
         offset="0"
         style="stop-color:#cc0000;stop-opacity:1" />
      <stop
         id="stop6520"
         offset="1"
         style="stop-color:#ef2929;stop-opacity:1" />
    </linearGradient>
    <linearGradient
       gradientTransform="matrix(2.1466396,0,0,2.0983681,-62.708523,-14.532865)"
       gradientUnits="userSpaceOnUse"
       id="linearGradient6690"
       inkscape:collect="always"
       x1="8.3140812"
       x2="8.3140812"
       xlink:href="#linearGradient6516"
       y1="12.284181"
       y2="-8.0501661" />
    <linearGradient
       gradientTransform="matrix(2.1466396,0,0,2.0983681,-62.708523,-14.532865)"
       gradientUnits="userSpaceOnUse"
       id="linearGradient6707"
       inkscape:collect="always"
       x1="8.3140812"
       x2="8.3140812"
       xlink:href="#linearGradient6516"
       y1="12.284181"
       y2="-8.0501661" />
    <linearGradient
       gradientTransform="matrix(2.1466396,0,0,-2.0983681,-172.70852,46.532865)"
       gradientUnits="userSpaceOnUse"
       id="linearGradient6716"
       inkscape:collect="always"
       x1="8.3140812"
       x2="8.3140812"
       xlink:href="#linearGradient6516"
       y1="12.284181"
       y2="-8.0501661" />
    <linearGradient
       gradientTransform="matrix(1.53347,0,0,1.5010009,-3.0898627,2.4172e-2)"
       gradientUnits="userSpaceOnUse"
       id="linearGradient6999"
       inkscape:collect="always"
       x1="8.3140812"
       x2="8.3140812"
       xlink:href="#linearGradient6516"
       y1="12.284181"
       y2="-8.0501661" />
    <linearGradient
       gradientTransform="matrix(1.53347,0,0,-1.5010009,-283.08986,31.975828)"
       gradientUnits="userSpaceOnUse"
       id="linearGradient7001"
       inkscape:collect="always"
       x1="8.3140812"
       x2="8.3140812"
       xlink:href="#linearGradient6516"
       y1="12.284181"
       y2="-8.0501661" />
    <radialGradient
       cx="10.84375"
       cy="17.4375"
       fx="10.84375"
       fy="17.4375"
       gradientTransform="matrix(1,0,0,0.3381924,0,11.54027)"
       gradientUnits="userSpaceOnUse"
       id="radialGradient6748"
       inkscape:collect="always"
       r="10.71875"
       xlink:href="#linearGradient6565" />
    <radialGradient
       cx="10.84375"
       cy="17.4375"
       fx="10.84375"
       fy="17.4375"
       gradientTransform="matrix(1,0,0,0.3381924,0,11.54027)"
       gradientUnits="userSpaceOnUse"
       id="radialGradient6750"
       inkscape:collect="always"
       r="10.71875"
       xlink:href="#linearGradient6565" />
    <linearGradient
       gradientUnits="userSpaceOnUse"
       id="linearGradient6752"
       inkscape:collect="always"
       x1="-3.8747485"
       x2="-23.864857"
       xlink:href="#linearGradient6548"
       y1="20.506098"
       y2="67.351921" />
    <linearGradient
       gradientTransform="matrix(0.7314012,0,0,0.7314012,0.1842049,-1.7184569)"
       gradientUnits="userSpaceOnUse"
       id="linearGradient6686"
       inkscape:collect="always"
       x1="-1.3998747"
       x2="-18.91511"
       xlink:href="#linearGradient6548"
       y1="21.78253"
       y2="60.634407" />
    <radialGradient
       cx="10.84375"
       cy="17.4375"
       fx="10.84375"
       fy="17.4375"
       gradientTransform="matrix(1,0,0,0.3381924,0,11.54027)"
       gradientUnits="userSpaceOnUse"
       id="radialGradient6690"
       inkscape:collect="always"
       r="10.71875"
       xlink:href="#linearGradient6565" />
    <radialGradient
       cx="10.84375"
       cy="17.4375"
       fx="10.84375"
       fy="17.4375"
       gradientTransform="matrix(1,0,0,0.3381924,0,11.54027)"
       gradientUnits="userSpaceOnUse"
       id="radialGradient6692"
       inkscape:collect="always"
       r="10.71875"
       xlink:href="#linearGradient6565" />
    <radialGradient
       cx="10.84375"
       cy="17.4375"
       fx="10.84375"
       fy="17.4375"
       gradientTransform="matrix(1,0,0,0.3381924,0,11.54027)"
       gradientUnits="userSpaceOnUse"
       id="radialGradient6782"
       inkscape:collect="always"
       r="10.71875"
       xlink:href="#linearGradient6565" />
    <radialGradient
       cx="-4.2860622"
       cy="18.287205"
       fx="-4.2860622"
       fy="18.287205"
       gradientTransform="matrix(2.420873,2.420873,-2.442301,2.442301,26.454059,-52.190377)"
       gradientUnits="userSpaceOnUse"
       id="radialGradient6784"
       inkscape:collect="always"
       r="7.6345282"
       xlink:href="#linearGradient6548" />
    <radialGradient
       cx="-4.5057797"
       cy="17.573692"
       fx="-4.5057797"
       fy="17.573692"
       gradientTransform="matrix(1.7019421,1.7019421,-1.7170066,1.7170066,-11.120138,-66.375871)"
       gradientUnits="userSpaceOnUse"
       id="radialGradient6816"
       inkscape:collect="always"
       r="7.6345282"
       xlink:href="#linearGradient6548" />
  </defs>
  <g
     id="layer6"
     inkscape:groupmode="layer"
     inkscape:label="baseplate"
     style="display:none">
    <rect
       height="48"
       id="rect6284"
       inkscape:label="48x48"
       style="fill:#eeeeec;fill-opacity:1;fill-rule:nonzero;stroke:none;stroke-width:2;marker:none;visibility:visible;display:inline;overflow:visible;enable-background:accumulate"
       width="48"
       x="296"
       y="50" />
    <rect
       height="32"
       id="rect6592"
       inkscape:label="32x32"
       style="fill:#eeeeec;fill-opacity:1;fill-rule:nonzero;stroke:none;stroke-width:2;marker:none;visibility:visible;display:inline;overflow:visible;enable-background:accumulate"
       width="32"
       x="303"
       y="126" />
    <rect
       height="22"
       id="rect6749"
       inkscape:label="22x22"
       style="fill:#eeeeec;fill-opacity:1;fill-rule:nonzero;stroke:none;stroke-width:2;marker:none;visibility:visible;display:inline;overflow:visible;enable-background:accumulate"
       width="22"
       x="303"
       y="177" />
    <rect
       height="16"
       id="rect6833"
       inkscape:label="16x16"
       style="fill:#eeeeec;fill-opacity:1;fill-rule:nonzero;stroke:none;stroke-width:2;marker:none;visibility:visible;display:inline;overflow:visible;enable-background:accumulate"
       width="16"
       x="303"
       y="219" />
    <text
       id="context"
       inkscape:label="context"
       style="font-size:18.30070686px;font-style:normal;font-weight:normal;fill:#000000;fill-opacity:1;stroke:none;display:inline;enable-background:new;font-family:Bitstream Vera Sans"
       x="20.970737"
       xml:space="preserve"
       y="21.513618"><tspan
         id="tspan2716"
         sodipodi:role="line"
         x="20.970737"
         y="21.513618">status</tspan></text>
    <text
       id="icon-name"
       inkscape:label="icon-name"
       sodipodi:linespacing="125%"
       style="font-size:18.30070686px;font-style:normal;font-variant:normal;font-weight:bold;font-stretch:normal;text-align:start;line-height:125%;writing-mode:lr-tb;text-anchor:start;fill:#000000;fill-opacity:1;stroke:none;display:inline;enable-background:new;font-family:Droid Sans;-inkscape-font-specification:Droid Sans Bold"
       x="191.97073"
       xml:space="preserve"
       y="21.513618"><tspan
         id="tspan3023"
         sodipodi:role="line"
         x="191.97073"
         y="21.513618">dialog-question</tspan></text>
  </g>
  <g
     id="layer2"
     inkscape:groupmode="layer"
     inkscape:label="small sizes"
     style="display:inline">
    <g
       id="g48"
       style="display:inline;enable-background:new"
       transform="translate(296,50) scale(1.000000,1.000000)">
      <g
         id="g6649">
        <path
           d="M 21.5625 17.4375 A 10.71875 3.625 0 1 1  0.125,17.4375 A 10.71875 3.625 0 1 1  21.5625 17.4375 z"
           id="path6607"
           sodipodi:cx="10.84375"
           sodipodi:cy="17.4375"
           sodipodi:rx="10.71875"
           sodipodi:ry="3.625"
           sodipodi:type="arc"
           style="opacity:0.2;fill:url(#radialGradient6748);fill-opacity:1;stroke:none;stroke-width:1;stroke-linecap:round;stroke-linejoin:miter;stroke-miterlimit:4;stroke-dasharray:none;stroke-dashoffset:0.7;stroke-opacity:1;display:inline"
           transform="matrix(1.7259475,0,0,1.9999999,5.2842566,2.8750011)" />
        <path
           d="M 21.5625 17.4375 A 10.71875 3.625 0 1 1  0.125,17.4375 A 10.71875 3.625 0 1 1  21.5625 17.4375 z"
           id="path6611"
           sodipodi:cx="10.84375"
           sodipodi:cy="17.4375"
           sodipodi:rx="10.71875"
           sodipodi:ry="3.625"
           sodipodi:type="arc"
           style="opacity:0.25;fill:url(#radialGradient6750);fill-opacity:1;stroke:none;stroke-width:1;stroke-linecap:round;stroke-linejoin:miter;stroke-miterlimit:4;stroke-dasharray:none;stroke-dashoffset:0.7;stroke-opacity:1;display:inline"
           transform="matrix(0.4664723,0,0,0.5715648,18.941691,33.03334)" />
        <rect
           height="30.791121"
           id="rect6591"
           rx="3.0791118"
           ry="3.0791118"
           style="opacity:1;fill:url(#linearGradient6752);fill-opacity:1;stroke:#3465a4;stroke-width:1.00000036;stroke-linecap:round;stroke-linejoin:miter;stroke-miterlimit:4;stroke-dasharray:none;stroke-dashoffset:0.7;stroke-opacity:1;display:inline"
           transform="matrix(0.7071068,-0.7071068,0.7071068,0.7071068,0,0)"
           width="30.791121"
           x="-14.688457"
           y="17.838459" />
        <path
           d="M -11.59375,19.3125 C -12.527424,19.3125 -13.21875,19.990363 -13.21875,20.90625 L -13.21875,45.5625 C -13.21875,46.478389 -12.527423,47.156251 -11.59375,47.15625 L 13.03125,47.15625 C 13.964924,47.15625 14.624999,46.496175 14.625,45.5625 L 14.625,20.90625 C 14.625,19.972575 13.964925,19.3125 13.03125,19.3125 L -11.59375,19.3125 z "
           id="path6599"
           inkscape:original="M -11.59375 17.84375 C -13.299578 17.84375 -14.6875 19.200423 -14.6875 20.90625 L -14.6875 45.5625 C -14.6875 47.268328 -13.299578 48.625002 -11.59375 48.625 L 13.03125 48.625 C 14.737078 48.625 16.093749 47.268327 16.09375 45.5625 L 16.09375 20.90625 C 16.09375 19.200422 14.737078 17.84375 13.03125 17.84375 L -11.59375 17.84375 z "
           inkscape:radius="-1.456314"
           sodipodi:type="inkscape:offset"
           style="opacity:1;fill:none;fill-opacity:1;stroke:#ffffff;stroke-width:2;stroke-linecap:round;stroke-linejoin:miter;stroke-miterlimit:4;stroke-dasharray:none;stroke-dashoffset:0.7;stroke-opacity:1;display:inline"
           transform="matrix(0.7071068,-0.7071068,0.7071068,0.7071068,0,0)" />
        <path
           d="M 26.089442,26.048277 L 22.13977,26.048277 L 22.13977,25.512172 C 22.139767,24.914075 22.260117,24.385265 22.500821,23.925739 C 22.741517,23.458934 23.248445,22.868125 24.021608,22.15331 L 24.721827,21.518737 C 25.137575,21.139462 25.440274,20.782059 25.629923,20.446527 C 25.826853,20.111017 25.925321,19.775495 25.925328,19.439962 C 25.925321,18.929399 25.750266,18.531879 25.400164,18.247402 C 25.050048,17.955658 24.561354,17.809779 23.934081,17.809765 C 23.343266,17.809779 22.705047,17.933776 22.01942,18.181756 C 21.333786,18.42247 20.61898,18.78352 19.875,19.264907 L 19.875,15.829459 C 20.757565,15.523129 21.563545,15.297017 22.292943,15.151122 C 23.022333,15.00526 23.726198,14.93232 24.404541,14.932304 C 26.184256,14.93232 27.540928,15.297017 28.474562,16.026395 C 29.408176,16.748511 29.874988,17.806132 29.875,19.199262 C 29.874988,19.91408 29.732757,20.555947 29.448304,21.124864 C 29.163829,21.686507 28.678782,22.291904 27.993162,22.941056 L 27.292943,23.564688 C 26.796946,24.016921 26.472366,24.381618 26.319201,24.65878 C 26.166021,24.928663 26.089434,25.227714 26.089442,25.555936 L 26.089442,26.048277 M 22.07727,28.042533 L 26.026942,28.042533 L 26.026942,31.9375 L 22.07727,31.9375 L 22.07727,28.042533"
           id="text6603"
           sodipodi:nodetypes="cccsccsssssccsssssccsccccccc"
           style="font-size:22.4070015px;font-style:normal;font-weight:bold;fill:#ffffff;fill-opacity:1;stroke:none;stroke-width:1px;stroke-linecap:butt;stroke-linejoin:miter;stroke-opacity:1;font-family:Bitstream Vera Sans" />
      </g>
      <path
         d="M -40.3125,2.5 C -41.117011,2.495964 -41.844721,2.9769928 -42.15625,3.71875 L -52.3125,27.46875 C -52.37838,27.639248 -52.420442,27.818014 -52.4375,28 L -54.25,42.25 C -54.325145,42.817543 -54.15209,43.389943 -53.775099,43.82079 C -53.398108,44.251636 -52.853745,44.499143 -52.28125,44.5 L -30.71875,44.5 C -29.914239,44.504036 -29.186529,44.023007 -28.875,43.28125 L -18.71875,19.53125 C -18.65287,19.360752 -18.610808,19.181986 -18.59375,19 L -16.8125,4.75 C -16.737355,4.1824575 -16.91041,3.6100574 -17.287401,3.1792105 C -17.664392,2.7483636 -18.208755,2.5008574 -18.78125,2.5 L -40.3125,2.5 z "
         id="path6688"
         inkscape:original="M -40.3125 4.5 L -50.46875 28.25 L -52.28125 42.5 L -30.71875 42.5 L -20.5625 18.75 L -18.78125 4.5 L -40.3125 4.5 z "
         inkscape:radius="1.9887378"
         sodipodi:type="inkscape:offset"
         style="fill:url(#linearGradient6690);fill-opacity:1;stroke:#a40000;stroke-width:0.99999988;stroke-linecap:round;stroke-linejoin:round;stroke-miterlimit:4;stroke-dashoffset:0.7;stroke-opacity:1"
         transform="translate(-50,0)" />
      <path
         d="M -40.3125,2.5 C -41.117011,2.495964 -41.844721,2.9769928 -42.15625,3.71875 L -52.3125,27.46875 C -52.37838,27.639248 -52.420442,27.818014 -52.4375,28 L -54.25,42.25 C -54.325145,42.817543 -54.15209,43.389943 -53.775099,43.82079 C -53.398108,44.251636 -52.853745,44.499143 -52.28125,44.5 L -30.71875,44.5 C -29.914239,44.504036 -29.186529,44.023007 -28.875,43.28125 L -18.71875,19.53125 C -18.65287,19.360752 -18.610808,19.181986 -18.59375,19 L -16.8125,4.75 C -16.737355,4.1824575 -16.91041,3.6100574 -17.287401,3.1792105 C -17.664392,2.7483636 -18.208755,2.5008574 -18.78125,2.5 L -40.3125,2.5 z "
         id="path6700"
         inkscape:original="M -40.3125 4.5 L -50.46875 28.25 L -52.28125 42.5 L -30.71875 42.5 L -20.5625 18.75 L -18.78125 4.5 L -40.3125 4.5 z "
         inkscape:radius="1.9887378"
         sodipodi:type="inkscape:offset"
         style="opacity:0.46982757;fill:url(#linearGradient6707);fill-opacity:1;stroke:#280b0b;stroke-width:0.99999988;stroke-linecap:round;stroke-linejoin:round;stroke-miterlimit:4;stroke-dashoffset:0.7;stroke-opacity:1"
         transform="translate(-105.15625,12)" />
      <path
         d="M -128.78125,2.5 C -128.495,2.500429 -128.22506,2.569588 -127.96875,2.6875 C -128.22353,2.57166 -128.495,2.500429 -128.78125,2.5 z M -155.46875,14.5 C -156.20251,14.496319 -156.87043,14.897931 -157.21875,15.53125 L -157.25,15.59375 L -162.3125,27.46875 C -162.37838,27.639248 -162.42044,27.818014 -162.4375,28 L -164.25,42.25 C -164.32515,42.817543 -164.15824,43.381653 -163.78125,43.8125 C -163.40426,44.243347 -162.85375,44.499143 -162.28125,44.5 L -140.71875,44.5 C -139.91424,44.504036 -139.18653,44.023007 -138.875,43.28125 L -128.71875,19.53125 L -133.875,31.53125 C -133.80912,31.360752 -133.76706,31.181986 -133.75,31 L -131.96875,16.75 C -131.8936,16.182457 -132.06051,15.618347 -132.4375,15.1875 C -132.81449,14.756653 -133.365,14.500857 -133.9375,14.5 L -155.46875,14.5 z "
         id="path6709"
         style="fill:url(#linearGradient6716);fill-opacity:1;stroke:#a40000;stroke-width:0.99999988;stroke-linecap:round;stroke-linejoin:round;stroke-miterlimit:4;stroke-dashoffset:0.7;stroke-opacity:1" />
      <path
         d="M -90.3125,2.5 C -91.11701,2.495964 -91.84472,2.976993 -92.15625,3.71875 L -97.25,15.59375 C -96.91175,14.925428 -96.2258,14.496202 -95.46875,14.5 L -73.9375,14.5 C -73.365,14.500857 -72.81449,14.756653 -72.4375,15.1875 C -72.06051,15.618347 -71.8936,16.182457 -71.96875,16.75 L -73.75,31 C -73.76706,31.181986 -73.80912,31.360752 -73.875,31.53125 L -68.71875,19.53125 C -68.65287,19.360752 -68.61081,19.181986 -68.59375,19 L -66.8125,4.75 C -66.73735,4.182457 -66.90426,3.618347 -67.28125,3.1875 C -67.65824,2.756653 -68.20875,2.500857 -68.78125,2.5 L -90.3125,2.5 z "
         id="path6702"
         sodipodi:nodetypes="cccccsccccccscc"
         style="fill:#3465a4;fill-opacity:1;stroke:#204a87;stroke-width:0.99999988;stroke-linecap:round;stroke-linejoin:round;stroke-miterlimit:4;stroke-dashoffset:0.7;stroke-opacity:1" />
      <path
         d="M -40.3125,2.96875 C -40.928752,2.9656584 -41.48012,3.3380673 -41.71875,3.90625 L -51.875,27.65625 C -51.925353,27.786565 -51.955712,27.892152 -51.96875,28.03125 C -51.968403,28.041664 -51.968403,28.052086 -51.96875,28.0625 L -53.78125,42.3125 C -53.839235,42.750439 -53.726117,43.170152 -53.4375,43.5 C -53.148886,43.829846 -52.714567,44.030601 -52.28125,44.03125 L -30.71875,44.03125 C -30.102498,44.034342 -29.55113,43.661933 -29.3125,43.09375 L -19.15625,19.34375 C -19.105897,19.213435 -19.075538,19.107848 -19.0625,18.96875 C -19.062847,18.958336 -19.062847,18.947914 -19.0625,18.9375 L -17.28125,4.6875 C -17.223265,4.2495612 -17.336383,3.8298475 -17.625,3.5 C -17.913617,3.1701526 -18.347932,2.969399 -18.78125,2.96875 L -40.3125,2.96875 z "
         id="path6748"
         inkscape:original="M -40.3125 2.5 C -41.117011 2.495964 -41.844721 2.9769928 -42.15625 3.71875 L -52.3125 27.46875 C -52.37838 27.639248 -52.420442 27.818014 -52.4375 28 L -54.25 42.25 C -54.325145 42.817543 -54.158241 43.381653 -53.78125 43.8125 C -53.404261 44.243347 -52.853745 44.499143 -52.28125 44.5 L -30.71875 44.5 C -29.914239 44.504036 -29.186529 44.023007 -28.875 43.28125 L -18.71875 19.53125 C -18.65287 19.360752 -18.610808 19.181986 -18.59375 19 L -16.8125 4.75 C -16.737355 4.1824575 -16.904259 3.6183469 -17.28125 3.1875 C -17.658241 2.7566532 -18.208755 2.5008574 -18.78125 2.5 L -40.3125 2.5 z "
         inkscape:radius="-0.46875"
         sodipodi:type="inkscape:offset"
         style="fill:#fce94f;fill-opacity:1;stroke:none;stroke-width:0.99999988;stroke-linecap:round;stroke-linejoin:round;stroke-miterlimit:4;stroke-dashoffset:0.7;stroke-opacity:1"
         transform="translate(-150,-90)" />
      <path
         d="M 12.875,0.5 C 12.334549,0.55892959 11.868276,0.9056458 11.65625,1.40625 L 4.40625,18.375 C 4.3455131,18.503798 4.3034241,18.640587 4.28125,18.78125 L 3,28.8125 C 2.9459675,29.241658 3.0798058,29.673252 3.3671735,29.99654 C 3.6545411,30.319829 4.0674674,30.503345 4.5,30.5 L 19.65625,30.5 C 20.254243,30.49897 20.794509,30.142886 21.03125,29.59375 L 28.25,12.65625 C 28.310737,12.527452 28.352826,12.390663 28.375,12.25 L 29.65625,2.1875 C 29.710282,1.7583425 29.576444,1.3267483 29.289077,1.0034597 C 29.001709,0.68017114 28.588783,0.49665518 28.15625,0.5 L 13.03125,0.5 C 12.979202,0.49728576 12.927048,0.49728576 12.875,0.5 L 12.875,0.5 z "
         id="path6892"
         inkscape:original="M 13.03125 2 L 5.78125 18.96875 L 4.5 29 L 19.65625 29 L 26.875 12.0625 L 28.15625 2 L 13.03125 2 z "
         inkscape:radius="1.5"
         sodipodi:type="inkscape:offset"
         style="fill:url(#linearGradient6999);fill-opacity:1;stroke:#a40000;stroke-width:0.99999982;stroke-linecap:round;stroke-linejoin:round;stroke-miterlimit:4;stroke-dashoffset:0.7;stroke-opacity:1;display:inline"
         transform="translate(-210,0)" />
      <path
         d="M -270.96875,9.5 C -271.5092,9.55893 -271.97547,9.905646 -272.1875,10.40625 L -275.59375,18.375 C -275.65449,18.503798 -275.69658,18.640587 -275.71875,18.78125 L -277,28.8125 C -277.05403,29.241658 -276.91237,29.676711 -276.625,30 C -276.33763,30.323289 -275.93253,30.503345 -275.5,30.5 L -260.34375,30.5 C -259.74576,30.49897 -259.20549,30.142886 -258.96875,29.59375 L -255.59375,21.65625 C -255.53301,21.527452 -255.49092,21.390663 -255.46875,21.25 L -254.1875,11.1875 C -254.13347,10.758342 -254.27513,10.323289 -254.5625,10 C -254.84987,9.676711 -255.25497,9.496655 -255.6875,9.5 L -270.8125,9.5 C -270.86455,9.497286 -270.9167,9.497286 -270.96875,9.5 z "
         id="path6905"
         style="fill:url(#linearGradient7001);fill-opacity:1;stroke:#a40000;stroke-width:0.99999982;stroke-linecap:round;stroke-linejoin:round;stroke-miterlimit:4;stroke-dashoffset:0.7;stroke-opacity:1;display:inline" />
      <path
         d="M -267.125,0.5 C -267.66545,0.55893 -268.13172,0.905646 -268.34375,1.40625 L -272.1875,10.40625 C -271.97547,9.905646 -271.5092,9.55893 -270.96875,9.5 C -270.9167,9.497286 -270.86455,9.497286 -270.8125,9.5 L -255.6875,9.5 C -255.25497,9.496655 -254.84987,9.676711 -254.5625,10 C -254.27513,10.323289 -254.13347,10.758342 -254.1875,11.1875 L -255.46875,21.25 C -255.49092,21.390663 -255.53301,21.527452 -255.59375,21.65625 L -251.75,12.65625 C -251.68926,12.527452 -251.64717,12.390663 -251.625,12.25 L -250.34375,2.1875 C -250.28972,1.758342 -250.43138,1.323289 -250.71875,1 C -251.00612,0.676711 -251.41122,0.496655 -251.84375,0.5 L -266.96875,0.5 C -267.0208,0.497286 -267.07295,0.497286 -267.125,0.5 z "
         id="path6900"
         style="fill:#3465a4;fill-opacity:1;stroke:#204a87;stroke-width:0.99999982;stroke-linecap:round;stroke-linejoin:round;stroke-miterlimit:4;stroke-dashoffset:0.7;stroke-opacity:1;display:inline" />
    </g>
    <g
       id="g32"
       style="display:inline;enable-background:new"
       transform="translate(303,126) scale(1.000000,1.000000)">
      <g
         id="g6713">
        <path
           d="M 21.5625 17.4375 A 10.71875 3.625 0 1 1  0.125,17.4375 A 10.71875 3.625 0 1 1  21.5625 17.4375 z"
           id="path6664"
           sodipodi:cx="10.84375"
           sodipodi:cy="17.4375"
           sodipodi:rx="10.71875"
           sodipodi:ry="3.625"
           sodipodi:type="arc"
           style="opacity:0.2;fill:url(#radialGradient6690);fill-opacity:1;stroke:none;stroke-width:1;stroke-linecap:round;stroke-linejoin:miter;stroke-miterlimit:4;stroke-dasharray:none;stroke-dashoffset:0.7;stroke-opacity:1;display:inline"
           transform="matrix(1.2228949,0,0,1.4170707,3.3017332,2.2386051)" />
        <path
           d="M 21.5625 17.4375 A 10.71875 3.625 0 1 1  0.125,17.4375 A 10.71875 3.625 0 1 1  21.5625 17.4375 z"
           id="path6666"
           sodipodi:cx="10.84375"
           sodipodi:cy="17.4375"
           sodipodi:rx="10.71875"
           sodipodi:ry="3.625"
           sodipodi:type="arc"
           style="opacity:0.2;fill:url(#radialGradient6692);fill-opacity:1;stroke:none;stroke-width:1;stroke-linecap:round;stroke-linejoin:miter;stroke-miterlimit:4;stroke-dasharray:none;stroke-dashoffset:0.7;stroke-opacity:1;display:inline"
           transform="matrix(0.3305121,0,0,0.5863741,12.978509,19.735153)" />
        <rect
           height="22.520662"
           id="rect6668"
           rx="2.2520661"
           ry="2.2520661"
           style="fill:url(#linearGradient6686);fill-opacity:1;stroke:#3465a4;stroke-width:1.00000024;stroke-linecap:round;stroke-linejoin:miter;stroke-miterlimit:4;stroke-dasharray:none;stroke-dashoffset:0.7;stroke-opacity:1;display:inline"
           transform="matrix(0.7071068,-0.7071068,0.7071068,0.7071068,0,0)"
           width="22.520662"
           x="-10.55895"
           y="11.328615" />
        <path
           d="M -11.59375,19.3125 C -12.527424,19.3125 -13.21875,19.990363 -13.21875,20.90625 L -13.21875,45.5625 C -13.21875,46.478389 -12.527423,47.156251 -11.59375,47.15625 L 13.03125,47.15625 C 13.964924,47.15625 14.624999,46.496175 14.625,45.5625 L 14.625,20.90625 C 14.625,19.972575 13.964925,19.3125 13.03125,19.3125 L -11.59375,19.3125 z "
           id="path6670"
           inkscape:original="M -11.59375 17.84375 C -13.299578 17.84375 -14.6875 19.200423 -14.6875 20.90625 L -14.6875 45.5625 C -14.6875 47.268328 -13.299578 48.625002 -11.59375 48.625 L 13.03125 48.625 C 14.737078 48.625 16.093749 47.268327 16.09375 45.5625 L 16.09375 20.90625 C 16.09375 19.200422 14.737078 17.84375 13.03125 17.84375 L -11.59375 17.84375 z "
           inkscape:radius="-1.456314"
           sodipodi:type="inkscape:offset"
           style="fill:none;fill-opacity:1;stroke:#ffffff;stroke-width:1.36094475;stroke-linecap:round;stroke-linejoin:miter;stroke-miterlimit:4;stroke-dasharray:none;stroke-dashoffset:0.7;stroke-opacity:1;display:inline"
           transform="matrix(0.5195705,-0.5195705,0.5195705,0.5195705,-1.1349473,-1.4230556)" />
        <path
           d="M 15.123814,19.098293 L 17.922296,19.098293 L 17.922296,21.858015 L 15.123814,21.858015 L 15.123814,19.098293"
           id="path6672"
           sodipodi:nodetypes="ccccc"
           style="font-size:22.4070015px;font-style:normal;font-weight:bold;fill:#ffffff;fill-opacity:1;stroke:none;stroke-width:1px;stroke-linecap:butt;stroke-linejoin:miter;stroke-opacity:1;font-family:Bitstream Vera Sans" />
        <path
           d="M 17.959673,17.966542 L 14.827937,17.966542 L 14.827937,17.558215 C 14.827935,17.102671 14.923361,16.6999 15.114219,16.3499 C 15.305069,15.994354 15.707017,15.544361 16.320067,14.999918 L 16.875277,14.516593 C 17.204927,14.227716 17.444941,13.955497 17.595315,13.699938 C 17.751463,13.444395 17.82954,13.188843 17.829546,12.933282 C 17.82954,12.544409 17.690737,12.241636 17.413137,12.024962 C 17.135526,11.802754 16.748037,11.691645 16.250665,11.691635 C 15.782202,11.691645 15.276151,11.786088 14.73251,11.974962 C 14.188864,12.158305 13.622087,12.433301 13.032177,12.79995 L 13.032177,10.183323 C 13.731972,9.9500047 14.371042,9.777786 14.94939,9.6666633 C 15.52773,9.5555672 16.085833,9.5000117 16.623698,9.5 C 18.034852,9.5000117 19.110571,9.777786 19.85086,10.333321 C 20.591132,10.883324 20.961272,11.688867 20.961281,12.749951 C 20.961272,13.294396 20.848495,13.783279 20.62295,14.216598 C 20.397387,14.644376 20.012788,15.10548 19.469153,15.599911 L 18.913942,16.074902 C 18.52066,16.419348 18.263298,16.697122 18.141851,16.908223 C 18.020394,17.113782 17.959667,17.341555 17.959673,17.591548 L 17.959673,17.966542"
           id="path6694"
           sodipodi:nodetypes="cccsccsssssccsssssccscc"
           style="font-size:22.4070015px;font-style:normal;font-weight:bold;fill:#ffffff;fill-opacity:1;stroke:none;stroke-width:1px;stroke-linecap:butt;stroke-linejoin:miter;stroke-opacity:1;display:inline;font-family:Bitstream Vera Sans" />
      </g>
      <path
         d="M -40.3125,2.5 C -41.117011,2.495964 -41.844721,2.9769928 -42.15625,3.71875 L -52.3125,27.46875 C -52.37838,27.639248 -52.420442,27.818014 -52.4375,28 L -54.25,42.25 C -54.325145,42.817543 -54.15209,43.389943 -53.775099,43.82079 C -53.398108,44.251636 -52.853745,44.499143 -52.28125,44.5 L -30.71875,44.5 C -29.914239,44.504036 -29.186529,44.023007 -28.875,43.28125 L -18.71875,19.53125 C -18.65287,19.360752 -18.610808,19.181986 -18.59375,19 L -16.8125,4.75 C -16.737355,4.1824575 -16.91041,3.6100574 -17.287401,3.1792105 C -17.664392,2.7483636 -18.208755,2.5008574 -18.78125,2.5 L -40.3125,2.5 z "
         id="path64"
         inkscape:original="M -40.3125 4.5 L -50.46875 28.25 L -52.28125 42.5 L -30.71875 42.5 L -20.5625 18.75 L -18.78125 4.5 L -40.3125 4.5 z "
         inkscape:radius="1.9887378"
         sodipodi:type="inkscape:offset"
         style="fill:url(#linearGradient6690);fill-opacity:1;stroke:#a40000;stroke-width:0.99999988;stroke-linecap:round;stroke-linejoin:round;stroke-miterlimit:4;stroke-dashoffset:0.7;stroke-opacity:1"
         transform="translate(-50,0)" />
      <path
         d="M -40.3125,2.5 C -41.117011,2.495964 -41.844721,2.9769928 -42.15625,3.71875 L -52.3125,27.46875 C -52.37838,27.639248 -52.420442,27.818014 -52.4375,28 L -54.25,42.25 C -54.325145,42.817543 -54.15209,43.389943 -53.775099,43.82079 C -53.398108,44.251636 -52.853745,44.499143 -52.28125,44.5 L -30.71875,44.5 C -29.914239,44.504036 -29.186529,44.023007 -28.875,43.28125 L -18.71875,19.53125 C -18.65287,19.360752 -18.610808,19.181986 -18.59375,19 L -16.8125,4.75 C -16.737355,4.1824575 -16.91041,3.6100574 -17.287401,3.1792105 C -17.664392,2.7483636 -18.208755,2.5008574 -18.78125,2.5 L -40.3125,2.5 z "
         id="path66"
         inkscape:original="M -40.3125 4.5 L -50.46875 28.25 L -52.28125 42.5 L -30.71875 42.5 L -20.5625 18.75 L -18.78125 4.5 L -40.3125 4.5 z "
         inkscape:radius="1.9887378"
         sodipodi:type="inkscape:offset"
         style="opacity:0.46982757;fill:url(#linearGradient6707);fill-opacity:1;stroke:#280b0b;stroke-width:0.99999988;stroke-linecap:round;stroke-linejoin:round;stroke-miterlimit:4;stroke-dashoffset:0.7;stroke-opacity:1"
         transform="translate(-105.15625,12)" />
      <path
         d="M -128.78125,2.5 C -128.495,2.500429 -128.22506,2.569588 -127.96875,2.6875 C -128.22353,2.57166 -128.495,2.500429 -128.78125,2.5 z M -155.46875,14.5 C -156.20251,14.496319 -156.87043,14.897931 -157.21875,15.53125 L -157.25,15.59375 L -162.3125,27.46875 C -162.37838,27.639248 -162.42044,27.818014 -162.4375,28 L -164.25,42.25 C -164.32515,42.817543 -164.15824,43.381653 -163.78125,43.8125 C -163.40426,44.243347 -162.85375,44.499143 -162.28125,44.5 L -140.71875,44.5 C -139.91424,44.504036 -139.18653,44.023007 -138.875,43.28125 L -128.71875,19.53125 L -133.875,31.53125 C -133.80912,31.360752 -133.76706,31.181986 -133.75,31 L -131.96875,16.75 C -131.8936,16.182457 -132.06051,15.618347 -132.4375,15.1875 C -132.81449,14.756653 -133.365,14.500857 -133.9375,14.5 L -155.46875,14.5 z "
         id="path68"
         style="fill:url(#linearGradient6716);fill-opacity:1;stroke:#a40000;stroke-width:0.99999988;stroke-linecap:round;stroke-linejoin:round;stroke-miterlimit:4;stroke-dashoffset:0.7;stroke-opacity:1" />
      <path
         d="M -90.3125,2.5 C -91.11701,2.495964 -91.84472,2.976993 -92.15625,3.71875 L -97.25,15.59375 C -96.91175,14.925428 -96.2258,14.496202 -95.46875,14.5 L -73.9375,14.5 C -73.365,14.500857 -72.81449,14.756653 -72.4375,15.1875 C -72.06051,15.618347 -71.8936,16.182457 -71.96875,16.75 L -73.75,31 C -73.76706,31.181986 -73.80912,31.360752 -73.875,31.53125 L -68.71875,19.53125 C -68.65287,19.360752 -68.61081,19.181986 -68.59375,19 L -66.8125,4.75 C -66.73735,4.182457 -66.90426,3.618347 -67.28125,3.1875 C -67.65824,2.756653 -68.20875,2.500857 -68.78125,2.5 L -90.3125,2.5 z "
         id="path70"
         sodipodi:nodetypes="cccccsccccccscc"
         style="fill:#3465a4;fill-opacity:1;stroke:#204a87;stroke-width:0.99999988;stroke-linecap:round;stroke-linejoin:round;stroke-miterlimit:4;stroke-dashoffset:0.7;stroke-opacity:1" />
      <path
         d="M -40.3125,2.96875 C -40.928752,2.9656584 -41.48012,3.3380673 -41.71875,3.90625 L -51.875,27.65625 C -51.925353,27.786565 -51.955712,27.892152 -51.96875,28.03125 C -51.968403,28.041664 -51.968403,28.052086 -51.96875,28.0625 L -53.78125,42.3125 C -53.839235,42.750439 -53.726117,43.170152 -53.4375,43.5 C -53.148886,43.829846 -52.714567,44.030601 -52.28125,44.03125 L -30.71875,44.03125 C -30.102498,44.034342 -29.55113,43.661933 -29.3125,43.09375 L -19.15625,19.34375 C -19.105897,19.213435 -19.075538,19.107848 -19.0625,18.96875 C -19.062847,18.958336 -19.062847,18.947914 -19.0625,18.9375 L -17.28125,4.6875 C -17.223265,4.2495612 -17.336383,3.8298475 -17.625,3.5 C -17.913617,3.1701526 -18.347932,2.969399 -18.78125,2.96875 L -40.3125,2.96875 z "
         id="path72"
         inkscape:original="M -40.3125 2.5 C -41.117011 2.495964 -41.844721 2.9769928 -42.15625 3.71875 L -52.3125 27.46875 C -52.37838 27.639248 -52.420442 27.818014 -52.4375 28 L -54.25 42.25 C -54.325145 42.817543 -54.158241 43.381653 -53.78125 43.8125 C -53.404261 44.243347 -52.853745 44.499143 -52.28125 44.5 L -30.71875 44.5 C -29.914239 44.504036 -29.186529 44.023007 -28.875 43.28125 L -18.71875 19.53125 C -18.65287 19.360752 -18.610808 19.181986 -18.59375 19 L -16.8125 4.75 C -16.737355 4.1824575 -16.904259 3.6183469 -17.28125 3.1875 C -17.658241 2.7566532 -18.208755 2.5008574 -18.78125 2.5 L -40.3125 2.5 z "
         inkscape:radius="-0.46875"
         sodipodi:type="inkscape:offset"
         style="fill:#fce94f;fill-opacity:1;stroke:none;stroke-width:0.99999988;stroke-linecap:round;stroke-linejoin:round;stroke-miterlimit:4;stroke-dashoffset:0.7;stroke-opacity:1"
         transform="translate(-150,-90)" />
      <path
         d="M 12.875,0.5 C 12.334549,0.55892959 11.868276,0.9056458 11.65625,1.40625 L 4.40625,18.375 C 4.3455131,18.503798 4.3034241,18.640587 4.28125,18.78125 L 3,28.8125 C 2.9459675,29.241658 3.0798058,29.673252 3.3671735,29.99654 C 3.6545411,30.319829 4.0674674,30.503345 4.5,30.5 L 19.65625,30.5 C 20.254243,30.49897 20.794509,30.142886 21.03125,29.59375 L 28.25,12.65625 C 28.310737,12.527452 28.352826,12.390663 28.375,12.25 L 29.65625,2.1875 C 29.710282,1.7583425 29.576444,1.3267483 29.289077,1.0034597 C 29.001709,0.68017114 28.588783,0.49665518 28.15625,0.5 L 13.03125,0.5 C 12.979202,0.49728576 12.927048,0.49728576 12.875,0.5 L 12.875,0.5 z "
         id="path74"
         inkscape:original="M 13.03125 2 L 5.78125 18.96875 L 4.5 29 L 19.65625 29 L 26.875 12.0625 L 28.15625 2 L 13.03125 2 z "
         inkscape:radius="1.5"
         sodipodi:type="inkscape:offset"
         style="fill:url(#linearGradient6999);fill-opacity:1;stroke:#a40000;stroke-width:0.99999982;stroke-linecap:round;stroke-linejoin:round;stroke-miterlimit:4;stroke-dashoffset:0.7;stroke-opacity:1;display:inline"
         transform="translate(-210,0)" />
      <path
         d="M -270.96875,9.5 C -271.5092,9.55893 -271.97547,9.905646 -272.1875,10.40625 L -275.59375,18.375 C -275.65449,18.503798 -275.69658,18.640587 -275.71875,18.78125 L -277,28.8125 C -277.05403,29.241658 -276.91237,29.676711 -276.625,30 C -276.33763,30.323289 -275.93253,30.503345 -275.5,30.5 L -260.34375,30.5 C -259.74576,30.49897 -259.20549,30.142886 -258.96875,29.59375 L -255.59375,21.65625 C -255.53301,21.527452 -255.49092,21.390663 -255.46875,21.25 L -254.1875,11.1875 C -254.13347,10.758342 -254.27513,10.323289 -254.5625,10 C -254.84987,9.676711 -255.25497,9.496655 -255.6875,9.5 L -270.8125,9.5 C -270.86455,9.497286 -270.9167,9.497286 -270.96875,9.5 z "
         id="path76"
         style="fill:url(#linearGradient7001);fill-opacity:1;stroke:#a40000;stroke-width:0.99999982;stroke-linecap:round;stroke-linejoin:round;stroke-miterlimit:4;stroke-dashoffset:0.7;stroke-opacity:1;display:inline" />
      <path
         d="M -267.125,0.5 C -267.66545,0.55893 -268.13172,0.905646 -268.34375,1.40625 L -272.1875,10.40625 C -271.97547,9.905646 -271.5092,9.55893 -270.96875,9.5 C -270.9167,9.497286 -270.86455,9.497286 -270.8125,9.5 L -255.6875,9.5 C -255.25497,9.496655 -254.84987,9.676711 -254.5625,10 C -254.27513,10.323289 -254.13347,10.758342 -254.1875,11.1875 L -255.46875,21.25 C -255.49092,21.390663 -255.53301,21.527452 -255.59375,21.65625 L -251.75,12.65625 C -251.68926,12.527452 -251.64717,12.390663 -251.625,12.25 L -250.34375,2.1875 C -250.28972,1.758342 -250.43138,1.323289 -250.71875,1 C -251.00612,0.676711 -251.41122,0.496655 -251.84375,0.5 L -266.96875,0.5 C -267.0208,0.497286 -267.07295,0.497286 -267.125,0.5 z "
         id="path78"
         style="fill:#3465a4;fill-opacity:1;stroke:#204a87;stroke-width:0.99999982;stroke-linecap:round;stroke-linejoin:round;stroke-miterlimit:4;stroke-dashoffset:0.7;stroke-opacity:1;display:inline" />
    </g>
    <g
       id="g22"
       style="display:inline;enable-background:new"
       transform="translate(303,177) scale(1.000000,1.000000)">
      <g
         id="g6706"
         transform="translate(40,0)">
        <path
           d="M 21.5625 17.4375 A 10.71875 3.625 0 1 1  0.125,17.4375 A 10.71875 3.625 0 1 1  21.5625 17.4375 z"
           id="path6563"
           sodipodi:cx="10.84375"
           sodipodi:cy="17.4375"
           sodipodi:rx="10.71875"
           sodipodi:ry="3.625"
           sodipodi:type="arc"
           style="opacity:0.3;fill:url(#radialGradient6782);fill-opacity:1;stroke:none;stroke-width:1;stroke-linecap:round;stroke-linejoin:miter;stroke-miterlimit:4;stroke-dasharray:none;stroke-dashoffset:0.7;stroke-opacity:1"
           transform="matrix(0.8396501,0,0,1.1034482,-38.104956,-1.2413776)" />
        <rect
           height="14.269056"
           id="rect6542"
           rx="1.4269056"
           ry="1.4269056"
           style="opacity:1;fill:url(#radialGradient6784);fill-opacity:1;stroke:#3465a4;stroke-width:1.00000012;stroke-linecap:round;stroke-linejoin:miter;stroke-miterlimit:4;stroke-dasharray:none;stroke-dashoffset:0.7;stroke-opacity:1"
           transform="matrix(0.7071068,-0.7071068,0.7071068,0.7071068,0,0)"
           width="14.269056"
           x="-35.4188"
           y="-19.862448" />
        <path
           d="M -5.71875,9.40625 C -5.9610926,9.40625 -6.125,9.574931 -6.125,9.84375 L -6.125,21.25 C -6.125,21.51882 -5.9610944,21.6875 -5.71875,21.6875 L 5.71875,21.6875 C 5.9610928,21.6875 6.125,21.51882 6.125,21.25 L 6.125,9.84375 C 6.125,9.574931 5.9610926,9.40625 5.71875,9.40625 L -5.71875,9.40625 z "
           id="path6546"
           inkscape:original="M -5.71875 8.40625 C -6.5092557 8.40625 -7.125 9.0532443 -7.125 9.84375 L -7.125 21.25 C -7.125 22.040506 -6.5092557 22.687499 -5.71875 22.6875 L 5.71875 22.6875 C 6.5092557 22.6875 7.125 22.040506 7.125 21.25 L 7.125 9.84375 C 7.125 9.0532443 6.5092557 8.40625 5.71875 8.40625 L -5.71875 8.40625 z "
           inkscape:radius="-1.0046288"
           sodipodi:type="inkscape:offset"
           style="opacity:1;fill:none;fill-opacity:1;stroke:#ffffff;stroke-width:1.00000012;stroke-linecap:round;stroke-linejoin:miter;stroke-miterlimit:4;stroke-dasharray:none;stroke-dashoffset:0.7;stroke-opacity:1;display:inline"
           transform="matrix(0.7071068,-0.7071068,0.7071068,0.7071068,-40,0)" />
        <path
           d="M -28,14 L -28,15 L -30,15 L -30,14"
           id="path6557"
           sodipodi:nodetypes="cccc"
           style="font-size:12px;font-style:normal;font-weight:bold;fill:#ffffff;fill-opacity:1;stroke:none;stroke-width:1px;stroke-linecap:butt;stroke-linejoin:miter;stroke-opacity:1;display:inline;font-family:Bitstream Vera Sans" />
        <path
           d="M -30,12.994369 C -30.145254,11.334317 -27.995191,11.130216 -27.974836,10.028129 C -28.062888,9.4011735 -28.475894,9.287678 -28.992557,9.287678 C -29.752129,9.287678 -29.487163,9.3776498 -31,9.7129611 L -31,8.063118 L -28.73523,8.0312489 C -26.920177,8.005708 -26.007784,8.6250746 -26.007784,9.9602739 C -26.007784,11.609952 -28.107221,11.792363 -28,12.994369"
           id="path6559"
           sodipodi:nodetypes="ccsccssc"
           style="font-size:12px;font-style:normal;font-weight:bold;opacity:1;fill:#ffffff;fill-opacity:1;stroke:none;stroke-width:1px;stroke-linecap:butt;stroke-linejoin:miter;stroke-opacity:1;display:inline;font-family:Bitstream Vera Sans" />
      </g>
      <path
         d="M -40.3125,2.5 C -41.117011,2.495964 -41.844721,2.9769928 -42.15625,3.71875 L -52.3125,27.46875 C -52.37838,27.639248 -52.420442,27.818014 -52.4375,28 L -54.25,42.25 C -54.325145,42.817543 -54.15209,43.389943 -53.775099,43.82079 C -53.398108,44.251636 -52.853745,44.499143 -52.28125,44.5 L -30.71875,44.5 C -29.914239,44.504036 -29.186529,44.023007 -28.875,43.28125 L -18.71875,19.53125 C -18.65287,19.360752 -18.610808,19.181986 -18.59375,19 L -16.8125,4.75 C -16.737355,4.1824575 -16.91041,3.6100574 -17.287401,3.1792105 C -17.664392,2.7483636 -18.208755,2.5008574 -18.78125,2.5 L -40.3125,2.5 z "
         id="path87"
         inkscape:original="M -40.3125 4.5 L -50.46875 28.25 L -52.28125 42.5 L -30.71875 42.5 L -20.5625 18.75 L -18.78125 4.5 L -40.3125 4.5 z "
         inkscape:radius="1.9887378"
         sodipodi:type="inkscape:offset"
         style="fill:url(#linearGradient6690);fill-opacity:1;stroke:#a40000;stroke-width:0.99999988;stroke-linecap:round;stroke-linejoin:round;stroke-miterlimit:4;stroke-dashoffset:0.7;stroke-opacity:1"
         transform="translate(-50,0)" />
      <path
         d="M -40.3125,2.5 C -41.117011,2.495964 -41.844721,2.9769928 -42.15625,3.71875 L -52.3125,27.46875 C -52.37838,27.639248 -52.420442,27.818014 -52.4375,28 L -54.25,42.25 C -54.325145,42.817543 -54.15209,43.389943 -53.775099,43.82079 C -53.398108,44.251636 -52.853745,44.499143 -52.28125,44.5 L -30.71875,44.5 C -29.914239,44.504036 -29.186529,44.023007 -28.875,43.28125 L -18.71875,19.53125 C -18.65287,19.360752 -18.610808,19.181986 -18.59375,19 L -16.8125,4.75 C -16.737355,4.1824575 -16.91041,3.6100574 -17.287401,3.1792105 C -17.664392,2.7483636 -18.208755,2.5008574 -18.78125,2.5 L -40.3125,2.5 z "
         id="path89"
         inkscape:original="M -40.3125 4.5 L -50.46875 28.25 L -52.28125 42.5 L -30.71875 42.5 L -20.5625 18.75 L -18.78125 4.5 L -40.3125 4.5 z "
         inkscape:radius="1.9887378"
         sodipodi:type="inkscape:offset"
         style="opacity:0.46982757;fill:url(#linearGradient6707);fill-opacity:1;stroke:#280b0b;stroke-width:0.99999988;stroke-linecap:round;stroke-linejoin:round;stroke-miterlimit:4;stroke-dashoffset:0.7;stroke-opacity:1"
         transform="translate(-105.15625,12)" />
      <path
         d="M -128.78125,2.5 C -128.495,2.500429 -128.22506,2.569588 -127.96875,2.6875 C -128.22353,2.57166 -128.495,2.500429 -128.78125,2.5 z M -155.46875,14.5 C -156.20251,14.496319 -156.87043,14.897931 -157.21875,15.53125 L -157.25,15.59375 L -162.3125,27.46875 C -162.37838,27.639248 -162.42044,27.818014 -162.4375,28 L -164.25,42.25 C -164.32515,42.817543 -164.15824,43.381653 -163.78125,43.8125 C -163.40426,44.243347 -162.85375,44.499143 -162.28125,44.5 L -140.71875,44.5 C -139.91424,44.504036 -139.18653,44.023007 -138.875,43.28125 L -128.71875,19.53125 L -133.875,31.53125 C -133.80912,31.360752 -133.76706,31.181986 -133.75,31 L -131.96875,16.75 C -131.8936,16.182457 -132.06051,15.618347 -132.4375,15.1875 C -132.81449,14.756653 -133.365,14.500857 -133.9375,14.5 L -155.46875,14.5 z "
         id="path91"
         style="fill:url(#linearGradient6716);fill-opacity:1;stroke:#a40000;stroke-width:0.99999988;stroke-linecap:round;stroke-linejoin:round;stroke-miterlimit:4;stroke-dashoffset:0.7;stroke-opacity:1" />
      <path
         d="M -90.3125,2.5 C -91.11701,2.495964 -91.84472,2.976993 -92.15625,3.71875 L -97.25,15.59375 C -96.91175,14.925428 -96.2258,14.496202 -95.46875,14.5 L -73.9375,14.5 C -73.365,14.500857 -72.81449,14.756653 -72.4375,15.1875 C -72.06051,15.618347 -71.8936,16.182457 -71.96875,16.75 L -73.75,31 C -73.76706,31.181986 -73.80912,31.360752 -73.875,31.53125 L -68.71875,19.53125 C -68.65287,19.360752 -68.61081,19.181986 -68.59375,19 L -66.8125,4.75 C -66.73735,4.182457 -66.90426,3.618347 -67.28125,3.1875 C -67.65824,2.756653 -68.20875,2.500857 -68.78125,2.5 L -90.3125,2.5 z "
         id="path93"
         sodipodi:nodetypes="cccccsccccccscc"
         style="fill:#3465a4;fill-opacity:1;stroke:#204a87;stroke-width:0.99999988;stroke-linecap:round;stroke-linejoin:round;stroke-miterlimit:4;stroke-dashoffset:0.7;stroke-opacity:1" />
      <path
         d="M -40.3125,2.96875 C -40.928752,2.9656584 -41.48012,3.3380673 -41.71875,3.90625 L -51.875,27.65625 C -51.925353,27.786565 -51.955712,27.892152 -51.96875,28.03125 C -51.968403,28.041664 -51.968403,28.052086 -51.96875,28.0625 L -53.78125,42.3125 C -53.839235,42.750439 -53.726117,43.170152 -53.4375,43.5 C -53.148886,43.829846 -52.714567,44.030601 -52.28125,44.03125 L -30.71875,44.03125 C -30.102498,44.034342 -29.55113,43.661933 -29.3125,43.09375 L -19.15625,19.34375 C -19.105897,19.213435 -19.075538,19.107848 -19.0625,18.96875 C -19.062847,18.958336 -19.062847,18.947914 -19.0625,18.9375 L -17.28125,4.6875 C -17.223265,4.2495612 -17.336383,3.8298475 -17.625,3.5 C -17.913617,3.1701526 -18.347932,2.969399 -18.78125,2.96875 L -40.3125,2.96875 z "
         id="path95"
         inkscape:original="M -40.3125 2.5 C -41.117011 2.495964 -41.844721 2.9769928 -42.15625 3.71875 L -52.3125 27.46875 C -52.37838 27.639248 -52.420442 27.818014 -52.4375 28 L -54.25 42.25 C -54.325145 42.817543 -54.158241 43.381653 -53.78125 43.8125 C -53.404261 44.243347 -52.853745 44.499143 -52.28125 44.5 L -30.71875 44.5 C -29.914239 44.504036 -29.186529 44.023007 -28.875 43.28125 L -18.71875 19.53125 C -18.65287 19.360752 -18.610808 19.181986 -18.59375 19 L -16.8125 4.75 C -16.737355 4.1824575 -16.904259 3.6183469 -17.28125 3.1875 C -17.658241 2.7566532 -18.208755 2.5008574 -18.78125 2.5 L -40.3125 2.5 z "
         inkscape:radius="-0.46875"
         sodipodi:type="inkscape:offset"
         style="fill:#fce94f;fill-opacity:1;stroke:none;stroke-width:0.99999988;stroke-linecap:round;stroke-linejoin:round;stroke-miterlimit:4;stroke-dashoffset:0.7;stroke-opacity:1"
         transform="translate(-150,-90)" />
      <path
         d="M 12.875,0.5 C 12.334549,0.55892959 11.868276,0.9056458 11.65625,1.40625 L 4.40625,18.375 C 4.3455131,18.503798 4.3034241,18.640587 4.28125,18.78125 L 3,28.8125 C 2.9459675,29.241658 3.0798058,29.673252 3.3671735,29.99654 C 3.6545411,30.319829 4.0674674,30.503345 4.5,30.5 L 19.65625,30.5 C 20.254243,30.49897 20.794509,30.142886 21.03125,29.59375 L 28.25,12.65625 C 28.310737,12.527452 28.352826,12.390663 28.375,12.25 L 29.65625,2.1875 C 29.710282,1.7583425 29.576444,1.3267483 29.289077,1.0034597 C 29.001709,0.68017114 28.588783,0.49665518 28.15625,0.5 L 13.03125,0.5 C 12.979202,0.49728576 12.927048,0.49728576 12.875,0.5 L 12.875,0.5 z "
         id="path97"
         inkscape:original="M 13.03125 2 L 5.78125 18.96875 L 4.5 29 L 19.65625 29 L 26.875 12.0625 L 28.15625 2 L 13.03125 2 z "
         inkscape:radius="1.5"
         sodipodi:type="inkscape:offset"
         style="fill:url(#linearGradient6999);fill-opacity:1;stroke:#a40000;stroke-width:0.99999982;stroke-linecap:round;stroke-linejoin:round;stroke-miterlimit:4;stroke-dashoffset:0.7;stroke-opacity:1;display:inline"
         transform="translate(-210,0)" />
      <path
         d="M -270.96875,9.5 C -271.5092,9.55893 -271.97547,9.905646 -272.1875,10.40625 L -275.59375,18.375 C -275.65449,18.503798 -275.69658,18.640587 -275.71875,18.78125 L -277,28.8125 C -277.05403,29.241658 -276.91237,29.676711 -276.625,30 C -276.33763,30.323289 -275.93253,30.503345 -275.5,30.5 L -260.34375,30.5 C -259.74576,30.49897 -259.20549,30.142886 -258.96875,29.59375 L -255.59375,21.65625 C -255.53301,21.527452 -255.49092,21.390663 -255.46875,21.25 L -254.1875,11.1875 C -254.13347,10.758342 -254.27513,10.323289 -254.5625,10 C -254.84987,9.676711 -255.25497,9.496655 -255.6875,9.5 L -270.8125,9.5 C -270.86455,9.497286 -270.9167,9.497286 -270.96875,9.5 z "
         id="path99"
         style="fill:url(#linearGradient7001);fill-opacity:1;stroke:#a40000;stroke-width:0.99999982;stroke-linecap:round;stroke-linejoin:round;stroke-miterlimit:4;stroke-dashoffset:0.7;stroke-opacity:1;display:inline" />
      <path
         d="M -267.125,0.5 C -267.66545,0.55893 -268.13172,0.905646 -268.34375,1.40625 L -272.1875,10.40625 C -271.97547,9.905646 -271.5092,9.55893 -270.96875,9.5 C -270.9167,9.497286 -270.86455,9.497286 -270.8125,9.5 L -255.6875,9.5 C -255.25497,9.496655 -254.84987,9.676711 -254.5625,10 C -254.27513,10.323289 -254.13347,10.758342 -254.1875,11.1875 L -255.46875,21.25 C -255.49092,21.390663 -255.53301,21.527452 -255.59375,21.65625 L -251.75,12.65625 C -251.68926,12.527452 -251.64717,12.390663 -251.625,12.25 L -250.34375,2.1875 C -250.28972,1.758342 -250.43138,1.323289 -250.71875,1 C -251.00612,0.676711 -251.41122,0.496655 -251.84375,0.5 L -266.96875,0.5 C -267.0208,0.497286 -267.07295,0.497286 -267.125,0.5 z "
         id="path101"
         style="fill:#3465a4;fill-opacity:1;stroke:#204a87;stroke-width:0.99999982;stroke-linecap:round;stroke-linejoin:round;stroke-miterlimit:4;stroke-dashoffset:0.7;stroke-opacity:1;display:inline" />
    </g>
    <g
       id="g16"
       style="display:inline;enable-background:new"
       transform="translate(303,219) scale(1.000000,1.000000)">
      <g
         id="g6696"
         transform="translate(70,0)">
        <rect
           height="10.514037"
           id="rect6573"
           rx="1.0514038"
           ry="1.0514038"
           style="opacity:1;fill:url(#radialGradient6816);fill-opacity:1;stroke:#3465a4;stroke-width:0.89999998;stroke-linecap:round;stroke-linejoin:miter;stroke-miterlimit:4;stroke-dasharray:none;stroke-dashoffset:0.7;stroke-opacity:1;display:inline"
           transform="matrix(0.7071068,-0.7071068,0.7071068,0.7071068,0,0)"
           width="10.514037"
           x="-54.754494"
           y="-44.147892" />
        <path
           d="M -5.71875,9.40625 C -5.9610926,9.40625 -6.125,9.574931 -6.125,9.84375 L -6.125,21.25 C -6.125,21.51882 -5.9610944,21.6875 -5.71875,21.6875 L 5.71875,21.6875 C 5.9610928,21.6875 6.125,21.51882 6.125,21.25 L 6.125,9.84375 C 6.125,9.574931 5.9610926,9.40625 5.71875,9.40625 L -5.71875,9.40625 z "
           id="path6575"
           inkscape:original="M -5.71875 8.40625 C -6.5092557 8.40625 -7.125 9.0532443 -7.125 9.84375 L -7.125 21.25 C -7.125 22.040506 -6.5092557 22.687499 -5.71875 22.6875 L 5.71875 22.6875 C 6.5092557 22.6875 7.125 22.040506 7.125 21.25 L 7.125 9.84375 C 7.125 9.0532443 6.5092557 8.40625 5.71875 8.40625 L -5.71875 8.40625 z "
           inkscape:radius="-1.0046288"
           sodipodi:type="inkscape:offset"
           style="opacity:1;fill:none;fill-opacity:1;stroke:#ffffff;stroke-width:1.41661155;stroke-linecap:round;stroke-linejoin:miter;stroke-miterlimit:4;stroke-dasharray:none;stroke-dashoffset:0.7;stroke-opacity:1;display:inline"
           transform="matrix(0.4991537,-0.4991537,0.4991537,0.4991537,-70.267931,-0.2688877)" />
        <path
           d="M -62,9 L -62,10 L -63,10 L -63,9"
           id="path6577"
           sodipodi:nodetypes="cccc"
           style="font-size:12px;font-style:normal;font-weight:bold;fill:#ffffff;fill-opacity:1;stroke:none;stroke-width:1px;stroke-linecap:butt;stroke-linejoin:miter;stroke-opacity:1;display:inline;font-family:Bitstream Vera Sans" />
        <path
           d="M -62.977189,8 C -63.064478,6.9967208 -62.006804,6.873369 -61.994571,6.2073049 C -62.047485,5.8283943 -62.483175,5.8535514 -62.793656,5.8535514 C -63.25011,5.8535514 -63.090882,5.8141773 -64,6.0168281 L -64,5.0197188 L -62.639019,5.0004582 C -61.548289,4.9850221 -61,5.3593464 -61,6.1662956 C -61,7.1633052 -62.042876,7.2735482 -61.978443,8"
           id="path6579"
           sodipodi:nodetypes="ccsccssc"
           style="font-size:12px;font-style:normal;font-weight:bold;opacity:1;fill:#ffffff;fill-opacity:1;stroke:none;stroke-width:1px;stroke-linecap:butt;stroke-linejoin:miter;stroke-opacity:1;display:inline;font-family:Bitstream Vera Sans" />
        <path
           d="M -62,7 L -62,8 L -63,8 L -63,7"
           id="path6583"
           sodipodi:nodetypes="cccc"
           style="font-size:12px;font-style:normal;font-weight:bold;fill:#ffffff;fill-opacity:1;stroke:none;stroke-width:1px;stroke-linecap:butt;stroke-linejoin:miter;stroke-opacity:1;display:inline;font-family:Bitstream Vera Sans" />
        <path
           d="M -61,6 L -61,7 L -62,7 L -62,6"
           id="path6585"
           sodipodi:nodetypes="cccc"
           style="font-size:12px;font-style:normal;font-weight:bold;fill:#ffffff;fill-opacity:1;stroke:none;stroke-width:1px;stroke-linecap:butt;stroke-linejoin:miter;stroke-opacity:1;display:inline;font-family:Bitstream Vera Sans" />
        <path
           d="M -62,5 L -62,6 L -63,6 L -63,5"
           id="path6587"
           sodipodi:nodetypes="cccc"
           style="font-size:12px;font-style:normal;font-weight:bold;fill:#ffffff;fill-opacity:1;stroke:none;stroke-width:1px;stroke-linecap:butt;stroke-linejoin:miter;stroke-opacity:1;display:inline;font-family:Bitstream Vera Sans" />
        <path
           d="M -63,5 L -63,6 L -64,6 L -64,5"
           id="path6589"
           sodipodi:nodetypes="cccc"
           style="font-size:12px;font-style:normal;font-weight:bold;fill:#ffffff;fill-opacity:1;stroke:none;stroke-width:1px;stroke-linecap:butt;stroke-linejoin:miter;stroke-opacity:1;display:inline;font-family:Bitstream Vera Sans" />
      </g>
      <path
         d="M -40.3125,2.5 C -41.117011,2.495964 -41.844721,2.9769928 -42.15625,3.71875 L -52.3125,27.46875 C -52.37838,27.639248 -52.420442,27.818014 -52.4375,28 L -54.25,42.25 C -54.325145,42.817543 -54.15209,43.389943 -53.775099,43.82079 C -53.398108,44.251636 -52.853745,44.499143 -52.28125,44.5 L -30.71875,44.5 C -29.914239,44.504036 -29.186529,44.023007 -28.875,43.28125 L -18.71875,19.53125 C -18.65287,19.360752 -18.610808,19.181986 -18.59375,19 L -16.8125,4.75 C -16.737355,4.1824575 -16.91041,3.6100574 -17.287401,3.1792105 C -17.664392,2.7483636 -18.208755,2.5008574 -18.78125,2.5 L -40.3125,2.5 z "
         id="path113"
         inkscape:original="M -40.3125 4.5 L -50.46875 28.25 L -52.28125 42.5 L -30.71875 42.5 L -20.5625 18.75 L -18.78125 4.5 L -40.3125 4.5 z "
         inkscape:radius="1.9887378"
         sodipodi:type="inkscape:offset"
         style="fill:url(#linearGradient6690);fill-opacity:1;stroke:#a40000;stroke-width:0.99999988;stroke-linecap:round;stroke-linejoin:round;stroke-miterlimit:4;stroke-dashoffset:0.7;stroke-opacity:1"
         transform="translate(-50,0)" />
      <path
         d="M -40.3125,2.5 C -41.117011,2.495964 -41.844721,2.9769928 -42.15625,3.71875 L -52.3125,27.46875 C -52.37838,27.639248 -52.420442,27.818014 -52.4375,28 L -54.25,42.25 C -54.325145,42.817543 -54.15209,43.389943 -53.775099,43.82079 C -53.398108,44.251636 -52.853745,44.499143 -52.28125,44.5 L -30.71875,44.5 C -29.914239,44.504036 -29.186529,44.023007 -28.875,43.28125 L -18.71875,19.53125 C -18.65287,19.360752 -18.610808,19.181986 -18.59375,19 L -16.8125,4.75 C -16.737355,4.1824575 -16.91041,3.6100574 -17.287401,3.1792105 C -17.664392,2.7483636 -18.208755,2.5008574 -18.78125,2.5 L -40.3125,2.5 z "
         id="path115"
         inkscape:original="M -40.3125 4.5 L -50.46875 28.25 L -52.28125 42.5 L -30.71875 42.5 L -20.5625 18.75 L -18.78125 4.5 L -40.3125 4.5 z "
         inkscape:radius="1.9887378"
         sodipodi:type="inkscape:offset"
         style="opacity:0.46982757;fill:url(#linearGradient6707);fill-opacity:1;stroke:#280b0b;stroke-width:0.99999988;stroke-linecap:round;stroke-linejoin:round;stroke-miterlimit:4;stroke-dashoffset:0.7;stroke-opacity:1"
         transform="translate(-105.15625,12)" />
      <path
         d="M -128.78125,2.5 C -128.495,2.500429 -128.22506,2.569588 -127.96875,2.6875 C -128.22353,2.57166 -128.495,2.500429 -128.78125,2.5 z M -155.46875,14.5 C -156.20251,14.496319 -156.87043,14.897931 -157.21875,15.53125 L -157.25,15.59375 L -162.3125,27.46875 C -162.37838,27.639248 -162.42044,27.818014 -162.4375,28 L -164.25,42.25 C -164.32515,42.817543 -164.15824,43.381653 -163.78125,43.8125 C -163.40426,44.243347 -162.85375,44.499143 -162.28125,44.5 L -140.71875,44.5 C -139.91424,44.504036 -139.18653,44.023007 -138.875,43.28125 L -128.71875,19.53125 L -133.875,31.53125 C -133.80912,31.360752 -133.76706,31.181986 -133.75,31 L -131.96875,16.75 C -131.8936,16.182457 -132.06051,15.618347 -132.4375,15.1875 C -132.81449,14.756653 -133.365,14.500857 -133.9375,14.5 L -155.46875,14.5 z "
         id="path117"
         style="fill:url(#linearGradient6716);fill-opacity:1;stroke:#a40000;stroke-width:0.99999988;stroke-linecap:round;stroke-linejoin:round;stroke-miterlimit:4;stroke-dashoffset:0.7;stroke-opacity:1" />
      <path
         d="M -90.3125,2.5 C -91.11701,2.495964 -91.84472,2.976993 -92.15625,3.71875 L -97.25,15.59375 C -96.91175,14.925428 -96.2258,14.496202 -95.46875,14.5 L -73.9375,14.5 C -73.365,14.500857 -72.81449,14.756653 -72.4375,15.1875 C -72.06051,15.618347 -71.8936,16.182457 -71.96875,16.75 L -73.75,31 C -73.76706,31.181986 -73.80912,31.360752 -73.875,31.53125 L -68.71875,19.53125 C -68.65287,19.360752 -68.61081,19.181986 -68.59375,19 L -66.8125,4.75 C -66.73735,4.182457 -66.90426,3.618347 -67.28125,3.1875 C -67.65824,2.756653 -68.20875,2.500857 -68.78125,2.5 L -90.3125,2.5 z "
         id="path119"
         sodipodi:nodetypes="cccccsccccccscc"
         style="fill:#3465a4;fill-opacity:1;stroke:#204a87;stroke-width:0.99999988;stroke-linecap:round;stroke-linejoin:round;stroke-miterlimit:4;stroke-dashoffset:0.7;stroke-opacity:1" />
      <path
         d="M -40.3125,2.96875 C -40.928752,2.9656584 -41.48012,3.3380673 -41.71875,3.90625 L -51.875,27.65625 C -51.925353,27.786565 -51.955712,27.892152 -51.96875,28.03125 C -51.968403,28.041664 -51.968403,28.052086 -51.96875,28.0625 L -53.78125,42.3125 C -53.839235,42.750439 -53.726117,43.170152 -53.4375,43.5 C -53.148886,43.829846 -52.714567,44.030601 -52.28125,44.03125 L -30.71875,44.03125 C -30.102498,44.034342 -29.55113,43.661933 -29.3125,43.09375 L -19.15625,19.34375 C -19.105897,19.213435 -19.075538,19.107848 -19.0625,18.96875 C -19.062847,18.958336 -19.062847,18.947914 -19.0625,18.9375 L -17.28125,4.6875 C -17.223265,4.2495612 -17.336383,3.8298475 -17.625,3.5 C -17.913617,3.1701526 -18.347932,2.969399 -18.78125,2.96875 L -40.3125,2.96875 z "
         id="path121"
         inkscape:original="M -40.3125 2.5 C -41.117011 2.495964 -41.844721 2.9769928 -42.15625 3.71875 L -52.3125 27.46875 C -52.37838 27.639248 -52.420442 27.818014 -52.4375 28 L -54.25 42.25 C -54.325145 42.817543 -54.158241 43.381653 -53.78125 43.8125 C -53.404261 44.243347 -52.853745 44.499143 -52.28125 44.5 L -30.71875 44.5 C -29.914239 44.504036 -29.186529 44.023007 -28.875 43.28125 L -18.71875 19.53125 C -18.65287 19.360752 -18.610808 19.181986 -18.59375 19 L -16.8125 4.75 C -16.737355 4.1824575 -16.904259 3.6183469 -17.28125 3.1875 C -17.658241 2.7566532 -18.208755 2.5008574 -18.78125 2.5 L -40.3125 2.5 z "
         inkscape:radius="-0.46875"
         sodipodi:type="inkscape:offset"
         style="fill:#fce94f;fill-opacity:1;stroke:none;stroke-width:0.99999988;stroke-linecap:round;stroke-linejoin:round;stroke-miterlimit:4;stroke-dashoffset:0.7;stroke-opacity:1"
         transform="translate(-150,-90)" />
      <path
         d="M 12.875,0.5 C 12.334549,0.55892959 11.868276,0.9056458 11.65625,1.40625 L 4.40625,18.375 C 4.3455131,18.503798 4.3034241,18.640587 4.28125,18.78125 L 3,28.8125 C 2.9459675,29.241658 3.0798058,29.673252 3.3671735,29.99654 C 3.6545411,30.319829 4.0674674,30.503345 4.5,30.5 L 19.65625,30.5 C 20.254243,30.49897 20.794509,30.142886 21.03125,29.59375 L 28.25,12.65625 C 28.310737,12.527452 28.352826,12.390663 28.375,12.25 L 29.65625,2.1875 C 29.710282,1.7583425 29.576444,1.3267483 29.289077,1.0034597 C 29.001709,0.68017114 28.588783,0.49665518 28.15625,0.5 L 13.03125,0.5 C 12.979202,0.49728576 12.927048,0.49728576 12.875,0.5 L 12.875,0.5 z "
         id="path123"
         inkscape:original="M 13.03125 2 L 5.78125 18.96875 L 4.5 29 L 19.65625 29 L 26.875 12.0625 L 28.15625 2 L 13.03125 2 z "
         inkscape:radius="1.5"
         sodipodi:type="inkscape:offset"
         style="fill:url(#linearGradient6999);fill-opacity:1;stroke:#a40000;stroke-width:0.99999982;stroke-linecap:round;stroke-linejoin:round;stroke-miterlimit:4;stroke-dashoffset:0.7;stroke-opacity:1;display:inline"
         transform="translate(-210,0)" />
      <path
         d="M -270.96875,9.5 C -271.5092,9.55893 -271.97547,9.905646 -272.1875,10.40625 L -275.59375,18.375 C -275.65449,18.503798 -275.69658,18.640587 -275.71875,18.78125 L -277,28.8125 C -277.05403,29.241658 -276.91237,29.676711 -276.625,30 C -276.33763,30.323289 -275.93253,30.503345 -275.5,30.5 L -260.34375,30.5 C -259.74576,30.49897 -259.20549,30.142886 -258.96875,29.59375 L -255.59375,21.65625 C -255.53301,21.527452 -255.49092,21.390663 -255.46875,21.25 L -254.1875,11.1875 C -254.13347,10.758342 -254.27513,10.323289 -254.5625,10 C -254.84987,9.676711 -255.25497,9.496655 -255.6875,9.5 L -270.8125,9.5 C -270.86455,9.497286 -270.9167,9.497286 -270.96875,9.5 z "
         id="path125"
         style="fill:url(#linearGradient7001);fill-opacity:1;stroke:#a40000;stroke-width:0.99999982;stroke-linecap:round;stroke-linejoin:round;stroke-miterlimit:4;stroke-dashoffset:0.7;stroke-opacity:1;display:inline" />
      <path
         d="M -267.125,0.5 C -267.66545,0.55893 -268.13172,0.905646 -268.34375,1.40625 L -272.1875,10.40625 C -271.97547,9.905646 -271.5092,9.55893 -270.96875,9.5 C -270.9167,9.497286 -270.86455,9.497286 -270.8125,9.5 L -255.6875,9.5 C -255.25497,9.496655 -254.84987,9.676711 -254.5625,10 C -254.27513,10.323289 -254.13347,10.758342 -254.1875,11.1875 L -255.46875,21.25 C -255.49092,21.390663 -255.53301,21.527452 -255.59375,21.65625 L -251.75,12.65625 C -251.68926,12.527452 -251.64717,12.390663 -251.625,12.25 L -250.34375,2.1875 C -250.28972,1.758342 -250.43138,1.323289 -250.71875,1 C -251.00612,0.676711 -251.41122,0.496655 -251.84375,0.5 L -266.96875,0.5 C -267.0208,0.497286 -267.07295,0.497286 -267.125,0.5 z "
         id="path127"
         style="fill:#3465a4;fill-opacity:1;stroke:#204a87;stroke-width:0.99999982;stroke-linecap:round;stroke-linejoin:round;stroke-miterlimit:4;stroke-dashoffset:0.7;stroke-opacity:1;display:inline" />
    </g>
  </g>
  <g
     id="layer4"
     inkscape:groupmode="layer"
     inkscape:label="hires"
     style="display:inline" />
</svg>
