<?xml version="1.0" encoding="UTF-8" standalone="no"?>
<!-- Created with Inkscape (http://www.inkscape.org/) -->
<svg
   xmlns:dc="http://purl.org/dc/elements/1.1/"
   xmlns:cc="http://creativecommons.org/ns#"
   xmlns:rdf="http://www.w3.org/1999/02/22-rdf-syntax-ns#"
   xmlns:svg="http://www.w3.org/2000/svg"
   xmlns="http://www.w3.org/2000/svg"
   xmlns:xlink="http://www.w3.org/1999/xlink"
   xmlns:sodipodi="http://sodipodi.sourceforge.net/DTD/sodipodi-0.dtd"
   xmlns:inkscape="http://www.inkscape.org/namespaces/inkscape"
   height="300"
   id="svg11300"
   inkscape:export-filename="/home/jimmac/Desktop/wi-fi.png"
   inkscape:export-xdpi="90.000000"
   inkscape:export-ydpi="90.000000"
   inkscape:output_extension="org.inkscape.output.svg.inkscape"
   inkscape:version="0.46"
   sodipodi:docname="dialog-warning.svg"
   sodipodi:version="0.32"
   style="display:inline;enable-background:new"
   version="1.0"
   width="400">
  <title
     id="title8836">Optical Drive</title>
  <metadata
     id="metadata154">
    <rdf:RDF>
      <cc:Work
         rdf:about="">
        <dc:format>image/svg+xml</dc:format>
        <dc:type
           rdf:resource="http://purl.org/dc/dcmitype/StillImage" />
        <dc:title>Warning</dc:title>
        <dc:creator>
          <cc:Agent>
            <dc:title>Jakub Steiner</dc:title>
          </cc:Agent>
        </dc:creator>
        <dc:contributor>
          <cc:Agent>
            <dc:title>Lapo Calamandrei</dc:title>
          </cc:Agent>
        </dc:contributor>
        <dc:source />
        <cc:license
           rdf:resource="" />
        <dc:subject>
          <rdf:Bag />
        </dc:subject>
      </cc:Work>
    </rdf:RDF>
  </metadata>
  <sodipodi:namedview
     bordercolor="#666666"
     borderopacity="0.25490196"
     fill="#f57900"
     gridtolerance="12"
     guidetolerance="13"
     height="300px"
     id="base"
     inkscape:current-layer="layer2"
     inkscape:cx="327.18008"
     inkscape:cy="87.105301"
     inkscape:document-units="px"
     inkscape:grid-bbox="true"
     inkscape:pageopacity="0.0"
     inkscape:pageshadow="2"
     inkscape:showpageshadow="false"
     inkscape:snap-bbox="true"
     inkscape:snap-nodes="true"
     inkscape:window-height="935"
     inkscape:window-width="968"
     inkscape:window-x="213"
     inkscape:window-y="37"
     inkscape:zoom="1"
     objecttolerance="7"
     pagecolor="#ffffff"
     showgrid="false"
     stroke="#ef2929"
     width="400px"
     showguides="true"
     inkscape:guide-bbox="true">
    <inkscape:grid
       enabled="true"
       id="grid5883"
       spacingx="0.5px"
       spacingy="0.5px"
       type="xygrid"
       visible="true"
       empspacing="2" />
  </sodipodi:namedview>
  <defs
     id="defs3">
    <linearGradient
       inkscape:collect="always"
       id="linearGradient8751">
      <stop
         style="stop-color:#ce5c00;stop-opacity:1;"
         offset="0"
         id="stop8753" />
      <stop
         style="stop-color:#f57900;stop-opacity:1"
         offset="1"
         id="stop8755" />
    </linearGradient>
    <linearGradient
       y2="56.052299"
       x2="47.319698"
       y1="11.1133"
       x1="4.1914001"
       gradientUnits="userSpaceOnUse"
       id="linearGradient11223">
      <stop
         id="stop11225"
         style="stop-color:#ffffff;stop-opacity:1;"
         offset="0" />
      <stop
         id="stop11227"
         style="stop-color:#ffffff;stop-opacity:0"
         offset="1" />
    </linearGradient>
    <filter
       inkscape:collect="always"
       id="filter5468">
      <feGaussianBlur
         inkscape:collect="always"
         stdDeviation="2.3481713"
         id="feGaussianBlur5470" />
    </filter>
    <linearGradient
       inkscape:collect="always"
       xlink:href="#linearGradient5343"
       id="linearGradient5551"
       gradientUnits="userSpaceOnUse"
       x1="85.687943"
       y1="52.708382"
       x2="89.831696"
       y2="154.19772" />
    <linearGradient
       inkscape:collect="always"
       id="linearGradient5402">
      <stop
         style="stop-color:#ffffff;stop-opacity:1;"
         offset="0"
         id="stop5404" />
      <stop
         style="stop-color:#ffffff;stop-opacity:0;"
         offset="1"
         id="stop5406" />
    </linearGradient>
    <radialGradient
       inkscape:collect="always"
       xlink:href="#linearGradient5402"
       id="radialGradient5408"
       cx="79.377068"
       cy="44.534161"
       fx="79.377068"
       fy="44.534161"
       r="50.66839"
       gradientTransform="matrix(1.6739663,0,0,1.6098814,-53.178311,-27.61411)"
       gradientUnits="userSpaceOnUse" />
    <filter
       inkscape:collect="always"
       x="-0.036648342"
       width="1.0732967"
       y="-0.58355438"
       height="2.1671088"
       id="filter5393">
      <feGaussianBlur
         inkscape:collect="always"
         stdDeviation="3.1609195"
         id="feGaussianBlur5395" />
    </filter>
    <filter
       inkscape:collect="always"
       id="filter5339">
      <feGaussianBlur
         inkscape:collect="always"
         stdDeviation="0.78272377"
         id="feGaussianBlur5341" />
    </filter>
    <linearGradient
       inkscape:collect="always"
       id="linearGradient5343">
      <stop
         style="stop-color:#ffffff;stop-opacity:1;"
         offset="0"
         id="stop5345" />
      <stop
         style="stop-color:#ffffff;stop-opacity:0;"
         offset="1"
         id="stop5347" />
    </linearGradient>
    <linearGradient
       inkscape:collect="always"
       xlink:href="#linearGradient5343"
       id="linearGradient5349"
       x1="85.687943"
       y1="52.708382"
       x2="89.831696"
       y2="154.19772"
       gradientUnits="userSpaceOnUse" />
    <linearGradient
       id="linearGradient5252">
      <stop
         id="stop5256"
         offset="0"
         style="stop-color:#fed496;stop-opacity:1;" />
      <stop
         id="stop5254"
         offset="1"
         style="stop-color:#fcaf3e;stop-opacity:1;" />
    </linearGradient>
    <radialGradient
       inkscape:collect="always"
       xlink:href="#linearGradient5252"
       id="radialGradient5258"
       cx="85.837212"
       cy="52.854641"
       fx="85.837212"
       fy="52.854641"
       r="53.630906"
       gradientTransform="matrix(2.9649475,0,0,2.798458,-168.66561,-93.568577)"
       gradientUnits="userSpaceOnUse" />
    <linearGradient
       id="linearGradient5244">
      <stop
         style="stop-color:#f57900;stop-opacity:1;"
         offset="0"
         id="stop5246" />
      <stop
         style="stop-color:#be5d00;stop-opacity:1;"
         offset="1"
         id="stop5248" />
    </linearGradient>
    <linearGradient
       inkscape:collect="always"
       xlink:href="#linearGradient5244"
       id="linearGradient5250"
       x1="94.644783"
       y1="37.143745"
       x2="103.88659"
       y2="184.59053"
       gradientUnits="userSpaceOnUse" />
    <filter
       inkscape:collect="always"
       x="-0.095058498"
       width="1.190117"
       y="-0.92578711"
       height="2.8515742"
       id="filter5232">
      <feGaussianBlur
         inkscape:collect="always"
         stdDeviation="8.8721264"
         id="feGaussianBlur5234" />
    </filter>
    <filter
       inkscape:collect="always"
       id="filter5760"
       x="-0.027927256"
       width="1.0558545"
       y="-0.27198719"
       height="1.5439744">
      <feGaussianBlur
         inkscape:collect="always"
         stdDeviation="2.6065439"
         id="feGaussianBlur5762" />
    </filter>
    <radialGradient
       inkscape:collect="always"
       xlink:href="#linearGradient5402"
       id="radialGradient10039"
       gradientUnits="userSpaceOnUse"
       gradientTransform="matrix(0.1980196,0,0,0.1904388,294.50053,214.06736)"
       cx="79.377068"
       cy="44.534161"
       fx="79.377068"
       fy="44.534161"
       r="50.66839" />
    <radialGradient
       inkscape:collect="always"
       xlink:href="#linearGradient5402"
       id="radialGradient10120"
       gradientUnits="userSpaceOnUse"
       gradientTransform="matrix(0.2527298,0,0,0.2430545,293.06756,169.79774)"
       cx="79.377068"
       cy="44.534161"
       fx="79.377068"
       fy="44.534161"
       r="50.66839" />
    <linearGradient
       inkscape:collect="always"
       xlink:href="#linearGradient11223"
       id="linearGradient10153"
       gradientUnits="userSpaceOnUse"
       gradientTransform="matrix(0.7131359,0,-3.1042582e-3,0.7398444,299.06585,164.5109)"
       x1="30.7416"
       y1="23.197418"
       x2="30.840555"
       y2="45.930267" />
    <linearGradient
       y2="47.924393"
       x2="29.404421"
       y1="23.050772"
       x1="29.296146"
       gradientTransform="matrix(0.646153,0,-2.812685e-3,0.671002,2.320937,4.636421)"
       gradientUnits="userSpaceOnUse"
       id="linearGradient3948"
       xlink:href="#linearGradient11223"
       inkscape:collect="always" />
    <radialGradient
       inkscape:collect="always"
       xlink:href="#linearGradient5402"
       id="radialGradient11069"
       gradientUnits="userSpaceOnUse"
       gradientTransform="matrix(0.3446429,0,0,0.3314489,290.64326,116.83586)"
       cx="79.377068"
       cy="44.534161"
       fx="79.377068"
       fy="44.534161"
       r="50.66839" />
    <linearGradient
       inkscape:collect="always"
       xlink:href="#linearGradient11223"
       id="linearGradient11177"
       gradientUnits="userSpaceOnUse"
       gradientTransform="matrix(0.646153,0,-2.812685e-3,0.671002,2.320937,4.636421)"
       x1="22.858202"
       y1="27.42046"
       x2="23.020128"
       y2="64.619339" />
    <radialGradient
       inkscape:collect="always"
       xlink:href="#linearGradient5402"
       id="radialGradient11181"
       gradientUnits="userSpaceOnUse"
       gradientTransform="matrix(0.5111798,0,0,0.4916103,277.55424,38.311797)"
       cx="79.377068"
       cy="44.534161"
       fx="79.377068"
       fy="44.534161"
       r="50.66839" />
    <radialGradient
       inkscape:collect="always"
       xlink:href="#linearGradient5252"
       id="radialGradient11189"
       cx="10.789291"
       cy="18.438032"
       fx="10.789291"
       fy="18.438032"
       r="3.1744459"
       gradientTransform="matrix(3.1664345,0,0,2.9768053,-23.374294,-36.321335)"
       gradientUnits="userSpaceOnUse" />
    <radialGradient
       inkscape:collect="always"
       xlink:href="#linearGradient5252"
       id="radialGradient11197"
       cx="314.13974"
       cy="181.81029"
       fx="314.13974"
       fy="181.81029"
       r="6.6103396"
       gradientTransform="matrix(2.4941586,0,0,2.3469628,-469.37458,-243.64069)"
       gradientUnits="userSpaceOnUse" />
    <radialGradient
       inkscape:collect="always"
       xlink:href="#linearGradient5252"
       id="radialGradient11205"
       cx="15.979075"
       cy="22.667664"
       fx="15.979075"
       fy="22.667664"
       r="5.8246169"
       gradientTransform="matrix(2.8946843,0,0,2.7262632,-30.275303,-38.952907)"
       gradientUnits="userSpaceOnUse" />
    <radialGradient
       inkscape:collect="always"
       xlink:href="#linearGradient5252"
       id="radialGradient11221"
       cx="21.080828"
       cy="27.925562"
       fx="21.080828"
       fy="27.925562"
       r="8.803154"
       gradientTransform="matrix(2.794628,0,0,2.6342217,-37.832243,-46.946604)"
       gradientUnits="userSpaceOnUse" />
    <filter
       inkscape:collect="always"
       id="filter11267"
       x="-0.08502795"
       width="1.1700559"
       y="-1.2470766"
       height="3.4941532">
      <feGaussianBlur
         inkscape:collect="always"
         stdDeviation="1.5588457"
         id="feGaussianBlur11269" />
    </filter>
    <filter
       inkscape:collect="always"
       id="filter11277"
       x="-0.02834265"
       width="1.0566853"
       y="-0.4156922"
       height="1.8313844">
      <feGaussianBlur
         inkscape:collect="always"
         stdDeviation="0.51961525"
         id="feGaussianBlur11279" />
    </filter>
    <linearGradient
       inkscape:collect="always"
       xlink:href="#linearGradient8751"
       id="linearGradient8757"
       x1="21.898489"
       y1="43.972942"
       x2="21.898489"
       y2="24.250439"
       gradientUnits="userSpaceOnUse" />
    <linearGradient
       inkscape:collect="always"
       xlink:href="#linearGradient8751"
       id="linearGradient8765"
       x1="15.982101"
       y1="33.830662"
       x2="15.982101"
       y2="20.377439"
       gradientUnits="userSpaceOnUse" />
    <linearGradient
       inkscape:collect="always"
       xlink:href="#linearGradient8751"
       id="linearGradient8773"
       x1="324.875"
       y1="197.10638"
       x2="324.875"
       y2="181.60797"
       gradientUnits="userSpaceOnUse" />
    <linearGradient
       inkscape:collect="always"
       xlink:href="#linearGradient8751"
       id="linearGradient8781"
       x1="10.790868"
       y1="24.860193"
       x2="10.790868"
       y2="17.912388"
       gradientUnits="userSpaceOnUse" />
  </defs>
  <g
     id="layer1"
     inkscape:groupmode="layer"
     inkscape:label="dialog-warning"
     style="display:inline">
    <g
       id="layer6"
       inkscape:groupmode="layer"
       inkscape:label="baseplate"
       style="display:none">
      <rect
         height="48"
         id="rect6284"
         inkscape:label="48x48"
         style="fill:#eeeeec;fill-opacity:1;fill-rule:nonzero;stroke:none;stroke-width:2;marker:none;visibility:visible;display:inline;overflow:visible;enable-background:accumulate"
         width="48"
         x="296"
         y="50" />
      <rect
         height="32"
         id="rect6592"
         inkscape:label="32x32"
         style="fill:#eeeeec;fill-opacity:1;fill-rule:nonzero;stroke:none;stroke-width:2;marker:none;visibility:visible;display:inline;overflow:visible;enable-background:accumulate"
         width="32"
         x="303"
         y="126" />
      <rect
         height="22"
         id="rect6749"
         inkscape:label="22x22"
         style="fill:#eeeeec;fill-opacity:1;fill-rule:nonzero;stroke:none;stroke-width:2;marker:none;visibility:visible;display:inline;overflow:visible;enable-background:accumulate"
         width="22"
         x="303"
         y="177" />
      <rect
         height="16"
         id="rect6833"
         inkscape:label="16x16"
         style="fill:#eeeeec;fill-opacity:1;fill-rule:nonzero;stroke:none;stroke-width:2;marker:none;visibility:visible;display:inline;overflow:visible;enable-background:accumulate"
         width="16"
         x="303"
         y="219" />
      <rect
         height="24"
         id="rect8104"
         inkscape:label="24x24"
         style="fill:#eeeeec;fill-opacity:1;fill-rule:nonzero;stroke:none;stroke-width:2;marker:none;visibility:visible;display:inline;overflow:visible;enable-background:accumulate"
         width="24"
         x="302"
         y="176" />
      <rect
         height="256"
         id="rect6282"
         inkscape:label="256x256"
         style="fill:#eeeeec;fill-opacity:1;fill-rule:nonzero;stroke:none;stroke-width:2;marker:none;visibility:visible;display:inline;overflow:visible;enable-background:accumulate"
         width="256"
         x="16"
         y="28" />
      <text
         id="context"
         inkscape:label="context"
         style="font-size:18.30070686px;font-style:normal;font-weight:normal;fill:#000000;fill-opacity:1;stroke:none;display:inline;enable-background:new;font-family:Bitstream Vera Sans"
         x="20.970737"
         xml:space="preserve"
         y="21.513618"><tspan
           id="tspan2716"
           sodipodi:role="line"
           x="20.970737"
           y="21.513618">status</tspan></text>
      <text
         id="icon-name"
         inkscape:label="icon-name"
         sodipodi:linespacing="125%"
         style="font-size:18.30070686px;font-style:normal;font-variant:normal;font-weight:bold;font-stretch:normal;text-align:start;line-height:125%;writing-mode:lr-tb;text-anchor:start;fill:#000000;fill-opacity:1;stroke:none;display:inline;enable-background:new;font-family:Droid Sans;-inkscape-font-specification:Droid Sans Bold"
         x="191.97073"
         xml:space="preserve"
         y="21.513618"><tspan
           id="tspan3023"
           sodipodi:role="line"
           x="191.97073"
           y="21.513618">dialog-warning</tspan></text>
    </g>
    <g
       inkscape:groupmode="layer"
       id="layer2"
       inkscape:label="small sizes"
       style="display:inline">
      <g
         style="display:inline;enable-background:new"
         inkscape:label="Layer 1"
         id="g10021"
         transform="translate(303,219)">
        <g
           id="g7435"
           transform="matrix(1.566667,0,0,1.566667,-8.925566,-23.94764)">
          <path
             inkscape:r_cy="true"
             inkscape:r_cx="true"
             id="path10024"
             d="M 15.471133,23.595538 L 11.349793,15.936936 C 11.231333,15.724197 11.016983,15.606008 10.778264,15.606008 C 10.539543,15.606008 10.324094,15.747833 10.203834,15.960573 L 6.1131848,23.619178 C 6.0168964,23.808278 6.0157965,24.068293 6.134357,24.257394 C 6.252917,24.446495 6.4434938,24.541045 6.6822145,24.541045 L 14.894203,24.541045 C 15.132924,24.541045 15.348273,24.422858 15.444561,24.233756 C 15.56472,24.044654 15.565722,23.808278 15.471133,23.595538 z"
             style="fill:#f57900;fill-opacity:1;fill-rule:nonzero;stroke:url(#linearGradient8781);stroke-width:0.63829826999999995;stroke-miterlimit:4;stroke-dasharray:none;stroke-opacity:1" />
          <path
             style="fill:url(#radialGradient11189);fill-opacity:1;fill-rule:nonzero;stroke:none;stroke-miterlimit:4"
             d="M 7.6410107,23.351404 C 7.5758548,23.458465 7.6401856,23.544115 7.7480155,23.544115 L 13.829618,23.544115 C 13.937449,23.544115 14.002513,23.458465 13.938275,23.351404 L 10.878725,17.655737 C 10.814485,17.548676 10.728223,17.548676 10.684632,17.655737 L 7.6410107,23.351404 z"
             id="path10026"
             inkscape:r_cx="true"
             inkscape:r_cy="true" />
          <path
             style="fill:#121312;fill-opacity:1;fill-rule:nonzero;stroke:none;stroke-width:2.46129537;stroke-miterlimit:4"
             d="M 10.643864,21.654268 L 10.166337,19.112304 L 11.440026,19.117291 L 10.952526,21.656668 L 10.643864,21.654268 z"
             id="path10028"
             inkscape:r_cx="true"
             inkscape:r_cy="true"
             sodipodi:nodetypes="ccccc" />
          <rect
             ry="0"
             rx="0"
             y="22.306999"
             x="10.165255"
             height="0.69300079"
             width="1.276596"
             id="rect1906"
             style="opacity:1;fill:#000000;fill-opacity:1;stroke:none;stroke-width:1;stroke-linecap:square;stroke-linejoin:round;stroke-miterlimit:4;stroke-dasharray:none;stroke-dashoffset:1.20000057;stroke-opacity:1" />
        </g>
      </g>
      <path
         id="path10037"
         d="M 310.93619,219.78214 C 310.54948,219.78214 310.20106,220.01425 310.00625,220.36281 L 304.33826,231.09286 L 316.09924,228.28622 L 311.86192,220.32284 C 311.67002,219.97428 311.32291,219.78214 310.93619,219.78214 z"
         style="opacity:0.47126435;fill:url(#radialGradient10039);fill-opacity:1;fill-rule:nonzero;stroke:none;stroke-width:0.63829809;stroke-miterlimit:4;stroke-dasharray:none;stroke-opacity:1;display:inline;enable-background:new" />
      <g
         id="g10953"
         style="opacity:0.4"
         transform="translate(0,0.1325825)" />
      <path
         inkscape:r_cy="true"
         inkscape:r_cx="true"
         id="path11291"
         d="M 324.33756,196.52932 L 315.3606,179.70818 C 315.10257,179.24093 314.63568,178.98134 314.11571,178.98134 C 313.59574,178.98134 313.12645,179.29285 312.86451,179.7601 L 303.9544,196.58124 C 303.74466,196.99657 303.74227,197.56766 304.00051,197.983 C 304.25876,198.39834 304.67386,198.606 305.19384,198.606 L 323.08091,198.606 C 323.60088,198.606 324.06995,198.34642 324.27968,197.93108 C 324.54141,197.51574 324.54359,196.99657 324.33756,196.52932 z"
         style="opacity:0.1;fill:#000000;fill-opacity:1;fill-rule:nonzero;stroke:#000000;stroke-width:1.00000024000000010;stroke-miterlimit:4;stroke-dasharray:none;stroke-opacity:1;display:inline;enable-background:new" />
      <path
         inkscape:r_cy="true"
         inkscape:r_cx="true"
         id="path11289"
         d="M 324.33756,195.52932 L 315.3606,178.70818 C 315.10257,178.24093 314.63568,177.98134 314.11571,177.98134 C 313.59574,177.98134 313.12645,178.29285 312.86451,178.7601 L 303.9544,195.58124 C 303.74466,195.99657 303.74227,196.56766 304.00051,196.983 C 304.25876,197.39834 304.67386,197.606 305.19384,197.606 L 323.08091,197.606 C 323.60088,197.606 324.06995,197.34642 324.27968,196.93108 C 324.54141,196.51574 324.54359,195.99657 324.33756,195.52932 z"
         style="fill:#000000;fill-opacity:1;fill-rule:nonzero;stroke:#000000;stroke-width:1.00000024000000010;stroke-miterlimit:4;stroke-dasharray:none;stroke-opacity:1;display:inline;enable-background:new;opacity:0.15" />
      <path
         inkscape:r_cy="true"
         inkscape:r_cx="true"
         id="path10109"
         d="M 324.33756,194.52932 L 315.3606,177.70818 C 315.10257,177.24093 314.63568,176.98134 314.11571,176.98134 C 313.59574,176.98134 313.12645,177.29285 312.86451,177.7601 L 303.9544,194.58124 C 303.74466,194.99657 303.74227,195.56766 304.00051,195.983 C 304.25876,196.39834 304.67386,196.606 305.19384,196.606 L 323.08091,196.606 C 323.60088,196.606 324.06995,196.34642 324.27968,195.93108 C 324.54141,195.51574 324.54359,194.99657 324.33756,194.52932 z"
         style="fill:#f57900;fill-opacity:1;fill-rule:nonzero;stroke:url(#linearGradient8773);stroke-width:1.00000024000000010;stroke-miterlimit:4;stroke-dasharray:none;stroke-opacity:1" />
      <path
         style="fill:url(#radialGradient11197);fill-opacity:1;fill-rule:nonzero;stroke:none;stroke-miterlimit:4"
         d="M 307.58389,193.60007 C 307.44821,193.82321 307.58217,194.00173 307.80671,194.00173 L 320.4708,194.00173 C 320.69534,194.00173 320.83083,193.82321 320.69706,193.60007 L 314.32597,181.72864 C 314.19221,181.50549 314.01257,181.50549 313.9218,181.72864 L 307.58389,193.60007 z"
         id="path10111"
         inkscape:r_cx="true"
         inkscape:r_cy="true" />
      <path
         inkscape:r_cy="true"
         inkscape:r_cx="true"
         sodipodi:nodetypes="ccsccscccc"
         id="path1325"
         d="M 322.91893,193.8044 L 314.91222,178.86677 C 314.57123,178.22137 314.6257,178.0143 314.10748,178.0143 C 313.66176,178.0143 313.60533,178.31587 313.28324,178.92508 L 305.3654,193.85064 C 304.90563,194.6911 304.6354,194.99857 304.8567,195.36849 C 305.078,195.73841 305.40634,195.62988 306.45621,195.65401 L 322.01824,195.65401 C 322.99566,195.66607 323.21583,195.68011 323.39567,195.31019 C 323.62007,194.94026 323.34785,194.55839 322.91893,193.8044 z"
         style="opacity:0.69999999999999996;fill:none;fill-opacity:1;fill-rule:nonzero;stroke:url(#linearGradient10153);stroke-width:1.00000024000000010;stroke-miterlimit:4;stroke-dasharray:none;stroke-opacity:1" />
      <g
         inkscape:r_cy="true"
         inkscape:r_cx="true"
         id="g10114"
         transform="matrix(0.5034939,0,0,0.4796868,302.07132,175.63768)"
         style="fill:#121312;fill-opacity:1;fill-rule:nonzero;stroke:#000000;stroke-width:1.76948965;stroke-miterlimit:4">
        <path
           sodipodi:nodetypes="csscccccccc"
           inkscape:r_cy="true"
           inkscape:r_cx="true"
           id="path10116"
           d="M 23.9,36.5 C 22.6,36.5 21.6,35.5 21.6,34.2 C 21.6,32.8 22.5,31.9 23.9,31.9 C 25.3,31.9 26.1,32.8 26.2,34.2 C 26.2,35.5 25.3,36.5 23.9,36.5 L 23.9,36.5 z M 23.167629,29.066754 L 21.9,19.1 L 25.9,19.1 L 24.632371,30.709518 L 23.167629,29.066754 z"
           style="fill:#121312;fill-opacity:1;stroke:none" />
      </g>
      <path
         id="path10118"
         d="M 314.04417,177.09144 C 313.55062,177.09144 313.10593,177.38768 312.8573,177.83254 L 305.62332,191.52716 L 320.6337,187.94508 L 315.22567,177.78153 C 314.98075,177.33667 314.53773,177.09144 314.04417,177.09144 z"
         style="opacity:0.47126435;fill:url(#radialGradient10120);fill-opacity:1;fill-rule:nonzero;stroke:none;stroke-width:0.63829809;stroke-miterlimit:4;stroke-dasharray:none;stroke-opacity:1;display:inline;enable-background:new" />
      <g
         id="g11285"
         transform="matrix(0.6705525,0,0,0.6705525,104.45092,90.827444)">
        <rect
           transform="matrix(1,0,0,1.3333333,0,-30.833333)"
           ry="1.5"
           rx="3.25"
           y="91"
           x="298"
           height="3"
           width="44"
           id="rect11281"
           style="opacity:0.3;fill:#000000;fill-opacity:1;stroke:none;stroke-width:1;stroke-linecap:round;stroke-linejoin:miter;stroke-miterlimit:4;stroke-dasharray:none;stroke-opacity:1;display:inline;filter:url(#filter11277);enable-background:new" />
        <rect
           transform="matrix(1,0,0,1.5833333,0,-53.958333)"
           ry="1.5"
           rx="3.25"
           y="91"
           x="298"
           height="3"
           width="44"
           id="rect11283"
           style="opacity:0.5;fill:#000000;fill-opacity:1;stroke:none;stroke-width:1;stroke-linecap:round;stroke-linejoin:miter;stroke-miterlimit:4;stroke-dasharray:none;stroke-opacity:1;display:inline;filter:url(#filter11267);enable-background:new" />
      </g>
      <g
         inkscape:label="Layer 1"
         id="g11039"
         transform="translate(302.917,124.9919)">
        <g
           id="g11041"
           transform="matrix(1.566667,0,0,1.566667,-8.925566,-23.94764)">
          <g
             id="g6707"
             transform="matrix(9.979578e-3,0,0,9.198178e-3,24.80809,31.71552)"
             style="display:inline" />
          <g
             style="display:inline"
             transform="matrix(9.979578e-3,0,0,9.198178e-3,24.80809,31.71552)"
             id="g3952" />
          <path
             inkscape:r_cy="true"
             inkscape:r_cx="true"
             id="path11057"
             d="M 24.964759,31.668454 L 17.054822,16.833614 C 16.827466,16.421535 16.416074,16.192603 15.957907,16.192603 C 15.499739,16.192603 15.086236,16.467321 14.855426,16.8794 L 7.0043917,31.714242 C 6.819589,32.080534 6.8174779,32.584186 7.0450267,32.950478 C 7.2725746,33.31677 7.6383416,33.499916 8.0965096,33.499916 L 23.857479,33.499916 C 24.315646,33.499916 24.728957,33.270984 24.913761,32.904691 C 25.144379,32.538399 25.146298,32.080534 24.964759,31.668454 z"
             style="fill:#f57900;fill-opacity:1;fill-rule:nonzero;stroke:url(#linearGradient8765);stroke-width:0.63829791999999996;stroke-miterlimit:4;stroke-dasharray:none;stroke-opacity:1" />
          <path
             style="fill:url(#radialGradient11205);fill-opacity:1;fill-rule:nonzero;stroke:none;stroke-miterlimit:4"
             d="M 10.202469,30.848938 C 10.082918,31.045735 10.200955,31.203173 10.398806,31.203173 L 21.557607,31.203173 C 21.755459,31.203173 21.874842,31.045735 21.756973,30.848938 L 16.143175,20.379324 C 16.025305,20.182527 15.867025,20.182527 15.787043,20.379324 L 10.202469,30.848938 z"
             id="path11059"
             inkscape:r_cx="true"
             inkscape:r_cy="true" />
          <path
             inkscape:r_cy="true"
             inkscape:r_cx="true"
             sodipodi:nodetypes="ccsccscccc"
             id="path11061"
             d="M 24.093759,31.20417 L 16.839094,17.616404 C 16.530124,17.031058 16.419304,16.843256 15.949758,16.843256 C 15.545911,16.843256 15.334607,17.116765 15.042767,17.669284 L 7.8686237,31.246108 C 7.4520355,32.008367 7.4074018,32.20706 7.6079187,32.54256 C 7.8084343,32.878061 8.065887,32.859788 9.0171502,32.881673 L 23.117497,32.881673 C 24.003106,32.892614 24.202596,32.825181 24.365542,32.48968 C 24.568871,32.154179 24.482386,31.887999 24.093759,31.20417 z"
             style="opacity:0.7;fill:none;fill-opacity:1;fill-rule:nonzero;stroke:url(#linearGradient3948);stroke-width:0.63829798000000004;stroke-miterlimit:4;stroke-dasharray:none;stroke-opacity:1" />
          <g
             inkscape:r_cy="true"
             inkscape:r_cx="true"
             id="g11063"
             transform="matrix(0.371688,0,0,0.377392,7.064967,16.27672)"
             style="fill:#121312;fill-opacity:1;fill-rule:nonzero;stroke:#000000;stroke-width:1.48204494;stroke-miterlimit:4">
            <path
               sodipodi:nodetypes="csscccccccc"
               inkscape:r_cy="true"
               inkscape:r_cx="true"
               id="path11065"
               d="M 23.9,36.5 C 22.6,36.5 21.6,35.5 21.6,34.2 C 21.6,32.8 22.5,31.9 23.9,31.9 C 25.3,31.9 26.1,32.8 26.2,34.2 C 26.2,35.5 25.3,36.5 23.9,36.5 L 23.9,36.5 z M 23.167629,29.066754 L 21.9,19.1 L 25.9,19.1 L 24.632371,30.709518 L 23.167629,29.066754 z"
               style="fill:#121312;fill-opacity:1;stroke:none" />
          </g>
        </g>
      </g>
      <path
         id="path11067"
         d="M 319.24867,126.78214 C 318.57562,126.78214 317.96921,127.18612 317.63016,127.79276 L 307.76531,146.46786 L 328.23469,141.58304 L 320.85986,127.7232 C 320.52586,127.11656 319.92173,126.78214 319.24867,126.78214 z"
         style="opacity:0.47126435;fill:url(#radialGradient11069);fill-opacity:1;fill-rule:nonzero;stroke:none;stroke-width:0.63829809;stroke-miterlimit:4;stroke-dasharray:none;stroke-opacity:1;display:inline;enable-background:new" />
      <rect
         style="display:inline;enable-background:new;opacity:0.3;fill:#000000;fill-opacity:1;stroke:none;stroke-width:1;stroke-linecap:round;stroke-linejoin:miter;stroke-miterlimit:4;stroke-dasharray:none;stroke-opacity:1;filter:url(#filter11277)"
         id="rect11271"
         width="44"
         height="3"
         x="298"
         y="91"
         rx="3.25"
         ry="1.5"
         transform="matrix(1,0,0,1.3333333,0,-30.833333)" />
      <rect
         style="opacity:0.5;fill:#000000;fill-opacity:1;stroke:none;stroke-width:1;stroke-linecap:round;stroke-linejoin:miter;stroke-miterlimit:4;stroke-dasharray:none;stroke-opacity:1;filter:url(#filter11267)"
         id="rect11249"
         width="44"
         height="3"
         x="298"
         y="91"
         rx="3.25"
         ry="1.5"
         transform="matrix(1,0,0,1.5833333,0,-53.958333)" />
      <g
         transform="matrix(1.566667,0,0,1.566667,287.08507,25.16008)"
         id="g11137">
        <g
           style="display:inline"
           transform="matrix(1.508284e-2,0,0,1.391344e-2,34.42474,40.95434)"
           id="g11139" />
        <g
           id="g11147"
           transform="matrix(1.508284e-2,0,0,1.391344e-2,34.42474,40.95434)"
           style="display:inline" />
        <path
           style="fill:#f57900;fill-opacity:1;fill-rule:nonzero;stroke:url(#linearGradient8757);stroke-width:0.63829809000000004;stroke-miterlimit:4;stroke-dasharray:none;stroke-opacity:1"
           d="M 34.661531,40.883147 L 22.706683,18.443515 C 22.363065,17.820192 21.741298,17.473902 21.048838,17.473902 C 20.356376,17.473902 19.731421,17.889449 19.382581,18.512773 L 7.5167568,40.952406 C 7.2374515,41.506471 7.2342608,42.26831 7.5781714,42.822375 C 7.9220807,43.37644 8.4748902,43.653472 9.167352,43.653472 L 32.988021,43.653472 C 33.680481,43.653472 34.305147,43.307182 34.584454,42.753116 C 34.933004,42.199051 34.935904,41.506471 34.661531,40.883147 z"
           id="path11155"
           inkscape:r_cx="true"
           inkscape:r_cy="true" />
        <path
           inkscape:r_cy="true"
           inkscape:r_cx="true"
           id="path11157"
           d="M 12.350235,39.643509 C 12.169549,39.94119 12.347947,40.179336 12.646973,40.179336 L 29.512056,40.179336 C 29.811084,40.179336 29.991516,39.94119 29.813372,39.643509 L 21.328843,23.806857 C 21.150698,23.509176 20.911478,23.509176 20.790595,23.806857 L 12.350235,39.643509 z"
           style="fill:url(#radialGradient11221);fill-opacity:1;fill-rule:nonzero;stroke:none;stroke-miterlimit:4" />
        <path
           style="opacity:0.69999999999999996;fill:none;fill-opacity:1;fill-rule:nonzero;stroke:url(#linearGradient11177);stroke-width:0.63829820999999998;stroke-miterlimit:4;stroke-dasharray:none;stroke-opacity:1"
           d="M 33.589554,40.372476 L 22.40647,19.408588 C 21.930192,18.505487 21.759362,18.215736 21.035555,18.215736 C 20.413025,18.215736 20.087298,18.63772 19.637426,19.490174 L 8.5784665,40.437181 C 7.9362948,41.613232 7.8674918,41.919785 8.176589,42.437412 C 8.4856845,42.95504 8.8825484,42.926847 10.348923,42.960612 L 32.084644,42.960612 C 33.449812,42.977494 33.757327,42.873453 34.008507,42.355827 C 34.32194,41.838198 34.188623,41.427523 33.589554,40.372476 z"
           id="path11159"
           sodipodi:nodetypes="ccsccscccc"
           inkscape:r_cx="true"
           inkscape:r_cy="true" />
        <g
           style="fill:#121312;fill-opacity:1;fill-rule:nonzero;stroke:#000000;stroke-width:0.98018837;stroke-miterlimit:4"
           transform="matrix(0.561759,0,0,0.570854,7.608308,17.60115)"
           id="g11161"
           inkscape:r_cx="true"
           inkscape:r_cy="true">
          <path
             style="fill:#121312;fill-opacity:1;stroke:none"
             d="M 23.9,36.5 C 22.6,36.5 21.6,35.5 21.6,34.2 C 21.6,32.8 22.5,31.9 23.9,31.9 C 25.3,31.9 26.1,32.8 26.2,34.2 C 26.2,35.5 25.3,36.5 23.9,36.5 L 23.9,36.5 z M 23.167629,29.066754 L 21.9,19.1 L 25.9,19.1 L 24.632371,30.709518 L 23.167629,29.066754 z"
             id="path11163"
             inkscape:r_cx="true"
             inkscape:r_cy="true"
             sodipodi:nodetypes="csscccccccc" />
        </g>
      </g>
      <path
         id="path11179"
         d="M 319.98224,53.06428 C 318.98396,53.06428 318.08452,53.663465 317.58163,54.563254 L 302.94994,82.262453 L 333.31044,75.017218 L 322.37197,54.460079 C 321.8766,53.560291 320.98053,53.06428 319.98224,53.06428 z"
         style="opacity:0.47126435;fill:url(#radialGradient11181);fill-opacity:1;fill-rule:nonzero;stroke:none;stroke-width:0.63829809;stroke-miterlimit:4;stroke-dasharray:none;stroke-opacity:1;display:inline;enable-background:new" />
    </g>
    <g
       inkscape:groupmode="layer"
       id="layer4"
       inkscape:label="hires"
       style="display:inline">
      <g
         transform="matrix(1.566667,0,0,1.566667,9.244317,10.530731)"
         id="g9958">
        <rect
           style="opacity:0.65517243;fill:#000000;fill-opacity:1;fill-rule:nonzero;stroke:none;stroke-width:2;stroke-linecap:butt;stroke-linejoin:miter;marker:none;marker-start:none;marker-mid:none;marker-end:none;stroke-miterlimit:10;stroke-dasharray:none;stroke-dashoffset:0;stroke-opacity:1;visibility:visible;display:block;overflow:visible;filter:url(#filter5760);enable-background:accumulate"
           id="rect5125"
           width="224"
           height="23"
           x="15"
           y="209"
           transform="matrix(0.6098021,0,0,0.5739318,9.3160883,25.010383)"
           rx="12.037382"
           ry="12.78972" />
        <rect
           ry="12.21875"
           rx="11.5"
           transform="matrix(0.6382976,0,0,0.6007511,5.6971683,21.011632)"
           y="209"
           x="15"
           height="23"
           width="224"
           id="rect4573"
           style="opacity:0.65517243;fill:#000000;fill-opacity:1;fill-rule:nonzero;stroke:none;stroke-width:2;stroke-linecap:butt;stroke-linejoin:miter;marker:none;marker-start:none;marker-mid:none;marker-end:none;stroke-miterlimit:10;stroke-dasharray:none;stroke-dashoffset:0;stroke-opacity:1;visibility:visible;display:block;overflow:visible;filter:url(#filter5232);enable-background:accumulate" />
        <path
           inkscape:r_cy="true"
           inkscape:r_cx="true"
           id="path6485"
           d="M 157.74232,141.64108 L 94.445558,22.674116 C 92.62622,19.369479 89.33418,17.533572 85.667845,17.533572 C 82.0015,17.533572 78.692581,19.736655 76.845594,23.041297 L 14.020183,142.00827 C 12.541359,144.94572 12.524465,148.98472 14.345352,151.92218 C 16.166232,154.85963 19.093166,156.32836 22.759511,156.32836 L 148.88167,156.32836 C 152.548,156.32836 155.85539,154.49245 157.33422,151.55499 C 159.17967,148.61753 159.19503,144.94572 157.74232,141.64108 z"
           style="fill:url(#linearGradient5250);fill-opacity:1;fill-rule:nonzero;stroke:none;stroke-width:0.63829809;stroke-miterlimit:4;stroke-dasharray:none;stroke-opacity:1" />
        <path
           style="fill:url(#radialGradient5258);fill-opacity:1;fill-rule:nonzero;stroke:none;stroke-miterlimit:4"
           d="M 32.648373,137.43821 C 31.547582,139.25423 32.634433,140.70698 34.456163,140.70698 L 137.20227,140.70698 C 139.024,140.70698 140.12321,139.25423 139.03798,137.43821 L 87.348188,40.830157 C 86.262885,39.014216 84.805504,39.014216 84.069055,40.830157 L 32.648373,137.43821 z"
           id="path6496"
           inkscape:r_cx="true"
           inkscape:r_cy="true" />
        <g
           inkscape:r_cy="true"
           inkscape:r_cx="true"
           id="g6498"
           transform="matrix(2.9743185,0,0,3.0264653,14.504915,17.569898)"
           style="fill:#121312;fill-opacity:1;fill-rule:nonzero;stroke:#000000;stroke-width:0.18500587;stroke-miterlimit:4">
          <path
             sodipodi:nodetypes="csscccccccc"
             inkscape:r_cy="true"
             inkscape:r_cx="true"
             id="path6500"
             d="M 23.9,36.5 C 22.6,36.5 21.6,35.5 21.6,34.2 C 21.6,32.8 22.5,31.9 23.9,31.9 C 25.3,31.9 26.1,32.8 26.2,34.2 C 26.2,35.5 25.3,36.5 23.9,36.5 L 23.9,36.5 z M 23.167629,29.066754 L 21.9,19.1 L 25.9,19.1 L 24.632371,30.709518 L 23.167629,29.066754 z"
             style="fill:#121312;fill-opacity:1;stroke:none" />
        </g>
        <path
           transform="matrix(0.955552,0,0,0.955552,3.808628,3.0378953)"
           id="path5262"
           d="M 85.500504,18.317748 C 81.889951,18.317748 78.637056,20.484944 76.818173,23.739293 L 14.941842,140.89172 C 14.026098,142.71072 13.684172,144.96158 13.998976,147.099 C 14.156824,146.01385 14.472393,144.96716 14.941842,144.03466 L 76.818173,26.882219 C 78.637056,23.627872 81.889951,21.460675 85.500504,21.460675 C 89.111049,21.460675 92.351892,23.254651 94.143548,26.509004 L 156.49131,143.68113 C 156.92746,144.67319 157.21795,145.69728 157.37529,146.7259 C 157.68234,144.69142 157.3769,142.55281 156.49131,140.53819 L 94.143548,23.366075 C 92.351892,20.111728 89.111049,18.317748 85.500504,18.317748 z"
           style="fill:url(#linearGradient5349);fill-opacity:1;fill-rule:nonzero;stroke:none;stroke-width:0.63829809;stroke-miterlimit:4;stroke-dasharray:none;stroke-opacity:1;filter:url(#filter5339)" />
        <path
           sodipodi:nodetypes="cccccc"
           transform="matrix(0.6382977,0,0,0.6382977,5.6971686,15.285724)"
           id="path5351"
           d="M 30,218 L 226,218 L 237,205 L 224,213 L 17.372582,214 L 30,218 z"
           style="opacity:0.28160921;fill:#ffffff;fill-opacity:1;fill-rule:nonzero;stroke:none;stroke-width:2;stroke-linecap:butt;stroke-linejoin:miter;marker:none;marker-start:none;marker-mid:none;marker-end:none;stroke-miterlimit:10;stroke-dasharray:none;stroke-dashoffset:0;stroke-opacity:1;visibility:visible;display:block;overflow:visible;filter:url(#filter5393);enable-background:accumulate" />
        <path
           id="path5397"
           d="M 85.761126,20.695974 C 82.49201,20.695974 79.546735,22.658222 77.899863,25.604823 L 29.985275,116.31167 L 129.40716,92.585631 L 93.586819,25.266891 C 91.964594,22.320301 89.03024,20.695974 85.761126,20.695974 z"
           style="opacity:0.47126435;fill:url(#radialGradient5408);fill-opacity:1;fill-rule:nonzero;stroke:none;stroke-width:0.63829809;stroke-miterlimit:4;stroke-dasharray:none;stroke-opacity:1" />
        <path
           transform="matrix(0.955552,0,0,0.955552,3.808628,3.0378953)"
           style="fill:url(#linearGradient5551);fill-opacity:1;fill-rule:nonzero;stroke:none;stroke-width:0.63829809;stroke-miterlimit:4;stroke-dasharray:none;stroke-opacity:1;filter:url(#filter5468)"
           d="M 85.500504,18.317748 C 81.889951,18.317748 78.637056,20.484944 76.818173,23.739293 L 14.941842,140.89172 C 14.026098,142.71072 13.684172,144.96158 13.998976,147.099 C 14.156824,146.01385 14.472393,144.96716 14.941842,144.03466 L 76.818173,26.882219 C 78.637056,23.627872 81.889951,21.460675 85.500504,21.460675 C 89.111049,21.460675 92.351892,23.254651 94.143548,26.509004 L 156.49131,143.68113 C 156.92746,144.67319 157.21795,145.69728 157.37529,146.7259 C 157.68234,144.69142 157.3769,142.55281 156.49131,140.53819 L 94.143548,23.366075 C 92.351892,20.111728 89.111049,18.317748 85.500504,18.317748 z"
           id="path5410" />
      </g>
    </g>
    <g
       id="g256"
       style="display:inline;enable-background:new"
       transform="translate(20,30)" />
    <g
       id="g4021"
       style="display:inline;enable-background:new"
       transform="translate(-577.97771,370.7754)" />
    <g
       transform="translate(-457.73144,-1.374928)"
       id="g10306"
       style="enable-background:new">
      <g
         id="layer3"
         inkscape:label="plate"
         style="display:none">
        <rect
           style="fill:#eeeeec;fill-opacity:1;fill-rule:nonzero;stroke:none;stroke-width:2;marker:none;visibility:visible;display:inline;overflow:visible;enable-background:accumulate"
           id="rect6282-8"
           width="256"
           height="256"
           x="20"
           y="20"
           inkscape:label="256x256" />
        <rect
           inkscape:label="48x48"
           y="39.99633"
           x="296.0625"
           height="48"
           width="48"
           id="rect6284-8"
           style="fill:#eeeeec;fill-opacity:1;fill-rule:nonzero;stroke:none;stroke-width:2;marker:none;visibility:visible;display:inline;overflow:visible;enable-background:accumulate" />
        <rect
           style="fill:#eeeeec;fill-opacity:1;fill-rule:nonzero;stroke:none;stroke-width:2;marker:none;visibility:visible;display:inline;overflow:visible;enable-background:accumulate"
           id="rect6592-5"
           width="32"
           height="32"
           x="303"
           y="115.99633"
           inkscape:label="32x32" />
        <rect
           inkscape:label="22x22"
           y="167.05884"
           x="303"
           height="22"
           width="22"
           id="rect6749-0"
           style="fill:#eeeeec;fill-opacity:1;fill-rule:nonzero;stroke:none;stroke-width:2;marker:none;visibility:visible;display:inline;overflow:visible;enable-background:accumulate" />
        <rect
           style="fill:#eeeeec;fill-opacity:1;fill-rule:nonzero;stroke:none;stroke-width:2;marker:none;visibility:visible;display:inline;overflow:visible;enable-background:accumulate"
           id="rect6833-9"
           width="16"
           height="16"
           x="303"
           y="209"
           inkscape:label="16x16" />
        <rect
           style="fill:#eeeeec;fill-opacity:1;fill-rule:nonzero;stroke:none;stroke-width:2;marker:none;visibility:visible;display:inline;overflow:visible;enable-background:accumulate"
           id="rect5028"
           width="24"
           height="24"
           x="301.95709"
           y="165.95343"
           inkscape:label="24x24" />
      </g>
      <g
         id="layer1-6"
         inkscape:label="artwork"
         style="display:inline">
        <rect
           style="fill:#eeeeec;fill-opacity:1;fill-rule:nonzero;stroke:none;stroke-width:5;marker:none;visibility:visible;display:none;overflow:visible;enable-background:accumulate"
           id="256x256"
           width="256"
           height="256"
           x="23.5"
           y="171.59863"
           inkscape:label="256x256" />
        <rect
           y="171.59863"
           x="-38.5"
           height="48"
           width="48"
           id="48x48"
           style="fill:#eeeeec;fill-opacity:1;fill-rule:nonzero;stroke:none;stroke-width:5;marker:none;visibility:visible;display:none;overflow:visible;enable-background:accumulate"
           inkscape:label="48x48" />
        <rect
           style="fill:#eeeeec;fill-opacity:1;fill-rule:nonzero;stroke:none;stroke-width:5;marker:none;visibility:visible;display:none;overflow:visible;enable-background:accumulate"
           id="24x24"
           width="24"
           height="24"
           x="-123.5"
           y="171.59863"
           inkscape:label="24x24" />
        <rect
           y="171.59863"
           x="-155.5"
           height="16"
           width="16"
           id="16x16"
           style="fill:#eeeeec;fill-opacity:1;fill-rule:nonzero;stroke:none;stroke-width:5;marker:none;visibility:visible;display:none;overflow:visible;enable-background:accumulate"
           inkscape:label="16x16" />
        <rect
           inkscape:label="32x32"
           y="171.59863"
           x="-87.5"
           height="32"
           width="32"
           id="32x32"
           style="fill:#eeeeec;fill-opacity:1;fill-rule:nonzero;stroke:none;stroke-width:5;marker:none;visibility:visible;display:none;overflow:visible;enable-background:accumulate" />
      </g>
    </g>
    <g
       id="g4445"
       style="display:inline;enable-background:new"
       transform="translate(-393,-62.246031)" />
    <g
       id="g5542"
       style="display:inline;enable-background:new"
       transform="translate(-364.39697,166.26869)" />
  </g>
</svg>
