<?xml version="1.0" encoding="UTF-8" standalone="no"?>
<!-- Created with Inkscape (http://www.inkscape.org/) -->
<svg
   xmlns:dc="http://purl.org/dc/elements/1.1/"
   xmlns:cc="http://creativecommons.org/ns#"
   xmlns:rdf="http://www.w3.org/1999/02/22-rdf-syntax-ns#"
   xmlns:svg="http://www.w3.org/2000/svg"
   xmlns="http://www.w3.org/2000/svg"
   xmlns:xlink="http://www.w3.org/1999/xlink"
   xmlns:sodipodi="http://sodipodi.sourceforge.net/DTD/sodipodi-0.dtd"
   xmlns:inkscape="http://www.inkscape.org/namespaces/inkscape"
   height="300"
   id="svg11300"
   inkscape:export-filename="/home/jimmac/Desktop/wi-fi.png"
   inkscape:export-xdpi="90.000000"
   inkscape:export-ydpi="90.000000"
   inkscape:output_extension="org.inkscape.output.svg.inkscape"
   inkscape:version="0.46"
   sodipodi:docname="emblem-favorite.svg"
   sodipodi:version="0.32"
   style="display:inline;enable-background:new"
   version="1.0"
   width="400">
  <title
     id="title8836">Optical Drive</title>
  <metadata
     id="metadata154">
    <rdf:RDF>
      <cc:Work
         rdf:about="">
        <dc:format>image/svg+xml</dc:format>
        <dc:type
           rdf:resource="http://purl.org/dc/dcmitype/StillImage" />
        <dc:title />
        <dc:creator>
          <cc:Agent>
            <dc:title />
          </cc:Agent>
        </dc:creator>
        <dc:contributor>
          <cc:Agent>
            <dc:title />
          </cc:Agent>
        </dc:contributor>
        <dc:source />
        <cc:license
           rdf:resource="" />
        <dc:subject>
          <rdf:Bag />
        </dc:subject>
      </cc:Work>
    </rdf:RDF>
  </metadata>
  <sodipodi:namedview
     bordercolor="#666666"
     borderopacity="0.25490196"
     fill="#f57900"
     gridtolerance="12"
     guidetolerance="13"
     height="300px"
     id="base"
     inkscape:current-layer="layer6"
     inkscape:cx="144.68008"
     inkscape:cy="87.105301"
     inkscape:document-units="px"
     inkscape:grid-bbox="true"
     inkscape:guide-bbox="true"
     inkscape:pageopacity="0.0"
     inkscape:pageshadow="2"
     inkscape:showpageshadow="false"
     inkscape:snap-bbox="true"
     inkscape:snap-nodes="true"
     inkscape:window-height="876"
     inkscape:window-width="968"
     inkscape:window-x="132"
     inkscape:window-y="8"
     inkscape:zoom="1"
     objecttolerance="7"
     pagecolor="#ffffff"
     showgrid="false"
     showguides="true"
     stroke="#ef2929"
     width="400px">
    <inkscape:grid
       empspacing="2"
       enabled="true"
       id="grid5883"
       spacingx="0.5px"
       spacingy="0.5px"
       type="xygrid"
       visible="true" />
  </sodipodi:namedview>
  <defs
     id="defs3">
    <linearGradient
       id="linearGradient2790"
       inkscape:collect="always">
      <stop
         id="stop2792"
         offset="0"
         style="stop-color:black;stop-opacity:1;" />
      <stop
         id="stop2794"
         offset="1"
         style="stop-color:black;stop-opacity:0;" />
    </linearGradient>
    <linearGradient
       id="linearGradient2780"
       inkscape:collect="always">
      <stop
         id="stop2782"
         offset="0"
         style="stop-color:white;stop-opacity:1;" />
      <stop
         id="stop2784"
         offset="1"
         style="stop-color:white;stop-opacity:0;" />
    </linearGradient>
    <linearGradient
       id="linearGradient6621">
      <stop
         id="stop6622"
         offset="0.0000000"
         style="stop-color:#f5a108;stop-opacity:0.0000000;" />
      <stop
         id="stop6623"
         offset="1.0000000"
         style="stop-color:#fefdc3;stop-opacity:0.74251497;" />
    </linearGradient>
    <linearGradient
       gradientTransform="matrix(1.059395,0,0,0.544945,1.249822,2.738696)"
       gradientUnits="userSpaceOnUse"
       id="linearGradient7881"
       inkscape:collect="always"
       x1="22.819513"
       x2="12.849945"
       xlink:href="#linearGradient6621"
       y1="28.829224"
       y2="12.239423" />
    <linearGradient
       gradientTransform="matrix(1.996051,0,0,1.070808,0.902744,-1.06494)"
       gradientUnits="userSpaceOnUse"
       id="linearGradient1697"
       inkscape:collect="always"
       x1="11.464835"
       x2="6.3578372"
       xlink:href="#linearGradient6621"
       y1="20.415981"
       y2="6.1003184" />
    <linearGradient
       gradientTransform="matrix(2.174132,0,0,1.166342,-1.102204,-2.607882)"
       gradientUnits="userSpaceOnUse"
       id="linearGradient121"
       inkscape:collect="always"
       x1="18.711395"
       x2="11.413211"
       xlink:href="#linearGradient6621"
       y1="34.807064"
       y2="31.452499" />
    <linearGradient
       gradientUnits="userSpaceOnUse"
       id="linearGradient2786"
       inkscape:collect="always"
       x1="22.686586"
       x2="42.437912"
       xlink:href="#linearGradient2780"
       y1="16.672918"
       y2="52.172916" />
    <radialGradient
       cx="24.375"
       cy="37.75"
       fx="24.375"
       fy="37.75"
       gradientTransform="matrix(1,0,0,0.352518,0,24.44245)"
       gradientUnits="userSpaceOnUse"
       id="radialGradient2796"
       inkscape:collect="always"
       r="17.375"
       xlink:href="#linearGradient2790" />
  </defs>
  <g
     id="layer6"
     inkscape:groupmode="layer"
     inkscape:label="baseplate"
     style="display:none">
    <rect
       height="48"
       id="rect6284"
       inkscape:label="48x48"
       style="fill:#eeeeec;fill-opacity:1;fill-rule:nonzero;stroke:none;stroke-width:2;marker:none;visibility:visible;display:inline;overflow:visible;enable-background:accumulate"
       width="48"
       x="296"
       y="50" />
    <rect
       height="32"
       id="rect6592"
       inkscape:label="32x32"
       style="fill:#eeeeec;fill-opacity:1;fill-rule:nonzero;stroke:none;stroke-width:2;marker:none;visibility:visible;display:inline;overflow:visible;enable-background:accumulate"
       width="32"
       x="303"
       y="126" />
    <rect
       height="22"
       id="rect6749"
       inkscape:label="22x22"
       style="fill:#eeeeec;fill-opacity:1;fill-rule:nonzero;stroke:none;stroke-width:2;marker:none;visibility:visible;display:inline;overflow:visible;enable-background:accumulate"
       width="22"
       x="303"
       y="177" />
    <rect
       height="16"
       id="rect6833"
       inkscape:label="16x16"
       style="fill:#eeeeec;fill-opacity:1;fill-rule:nonzero;stroke:none;stroke-width:2;marker:none;visibility:visible;display:inline;overflow:visible;enable-background:accumulate"
       width="16"
       x="303"
       y="219" />
    <text
       id="context"
       inkscape:label="context"
       style="font-size:18.30070686px;font-style:normal;font-weight:normal;fill:#000000;fill-opacity:1;stroke:none;display:inline;enable-background:new;font-family:Bitstream Vera Sans"
       x="20.970737"
       xml:space="preserve"
       y="21.513618"><tspan
         id="tspan2716"
         sodipodi:role="line"
         x="20.970737"
         y="21.513618">emblems</tspan></text>
    <text
       id="icon-name"
       inkscape:label="icon-name"
       sodipodi:linespacing="125%"
       style="font-size:18.30070686px;font-style:normal;font-variant:normal;font-weight:bold;font-stretch:normal;text-align:start;line-height:125%;writing-mode:lr-tb;text-anchor:start;fill:#000000;fill-opacity:1;stroke:none;display:inline;enable-background:new;font-family:Droid Sans;-inkscape-font-specification:Droid Sans Bold"
       x="191.97073"
       xml:space="preserve"
       y="21.513618"><tspan
         id="tspan3023"
         sodipodi:role="line"
         x="191.97073"
         y="21.513618">emblem-favorite</tspan></text>
  </g>
  <g
     id="layer2"
     inkscape:groupmode="layer"
     inkscape:label="small sizes"
     style="display:inline">
    <g
       id="g48"
       style="display:inline;enable-background:new"
       transform="translate(296,50) scale(1.000000,1.000000)">
      <path
         d="M 41.75 37.75 A 17.375 6.125 0 1 1  7,37.75 A 17.375 6.125 0 1 1  41.75 37.75 z"
         id="path2788"
         sodipodi:cx="24.375"
         sodipodi:cy="37.75"
         sodipodi:rx="17.375"
         sodipodi:ry="6.125"
         sodipodi:type="arc"
         style="opacity:0.42783502;color:black;fill:url(#radialGradient2796);fill-opacity:1;fill-rule:nonzero;stroke:none;stroke-width:1;stroke-linecap:butt;stroke-linejoin:miter;marker:none;marker-start:none;marker-mid:none;marker-end:none;stroke-miterlimit:4;stroke-dasharray:none;stroke-dashoffset:0;stroke-opacity:1;visibility:visible;display:inline;overflow:visible"
         transform="matrix(1,0,0,1.255102,0,-11.1926)" />
      <path
         d="M 21.976188,38.81239 C 22.040597,38.715893 23.091289,40.055644 23.091289,40.055644 C 27.698215,35.045148 39.456811,25.683277 42.664501,17.875469 C 36.177606,25.067028 25.578821,36.636704 21.976188,38.81239 z "
         id="path5378"
         sodipodi:nodetypes="cccc"
         style="fill:#d4572d;fill-opacity:1;fill-rule:evenodd;stroke:none;stroke-width:1pt;stroke-linecap:butt;stroke-linejoin:miter;stroke-opacity:1" />
      <path
         d="M 14.037441,6.57951 C 8.6695505,6.3154034 6.1688035,9.762296 4.8160932,13.041288 C 3.4736979,17.359293 5.3712796,25.514988 14.670328,24.894537 C 19.974458,24.894537 22.082661,19.457349 24.874197,18.045886 C 27.411181,17.087036 27.610852,17.001219 30.291215,17.001219 C 34.016085,17.001219 40.752069,14.306632 40.752071,11.632973 C 39.607133,9.487524 36.567476,5.6668116 30.981913,6.3180075 C 27.426476,6.7316401 24.06282,9.272036 23.184185,10.536145 C 21.031824,8.638529 18.283585,6.57951 14.037441,6.57951 z "
         id="path7876"
         sodipodi:nodetypes="ccccccccc"
         style="fill:url(#linearGradient7881);fill-opacity:1;fill-rule:evenodd;stroke:none;stroke-width:1pt;stroke-linecap:butt;stroke-linejoin:miter;stroke-opacity:1" />
      <path
         d="M 23.836561,8.277913 C 33.125234,-1.0068895 45.890047,7.5509517 45.806082,16.356414 C 45.729323,24.406138 39.591726,28.261251 24.172423,42.579301 C 8.0330559,29.259417 2.346578,26.187802 2.4305434,16.637074 C 2.5145087,6.7506217 13.442265,-0.6692067 23.836561,8.277913 z "
         id="path920"
         sodipodi:nodetypes="czczc"
         style="fill:#c71807;fill-opacity:1;fill-rule:evenodd;stroke:#a40000;stroke-width:0.99999988;stroke-linecap:butt;stroke-linejoin:miter;stroke-miterlimit:4;stroke-dasharray:none;stroke-opacity:1" />
      <path
         d="M 22.6479,39.178611 C 22.712194,39.082279 24.117293,40.301 24.117293,40.301 C 39.403252,26.397065 43.304223,23.69843 43.656451,18.159425 C 41.218171,23.676733 38.118762,25.374551 22.6479,39.178611 z "
         id="path921"
         sodipodi:nodetypes="cccc"
         style="color:black;fill:url(#linearGradient121);fill-opacity:1;fill-rule:evenodd;stroke:none;stroke-width:1pt;stroke-linecap:butt;stroke-linejoin:miter;marker:none;marker-start:none;marker-mid:none;marker-end:none;stroke-miterlimit:4;stroke-dashoffset:0;stroke-opacity:1;visibility:visible;display:inline;overflow:visible;opacity:0.42783505" />
      <path
         d="M 13.895669,6.9800034 C 8.1626319,6.9800034 5.0901634,12.680144 5.1115497,16.315556 C 5.1315858,19.721168 5.1869266,21.039867 7.7146345,24.56199 C 10.316652,28.187658 20.881766,22.407873 24.262186,18.801984 C 27.68564,15.150188 38.532606,15.911472 42.024487,12.203078 C 40.056808,9.7237229 37.887368,6.9590872 32.875572,6.9590872 C 27.892126,6.9590872 25.363722,10.3386 23.829402,11.728314 C 22.091684,10.042389 19.57203,6.9800034 13.895669,6.9800034 z "
         id="path922"
         sodipodi:nodetypes="czzzczcz"
         style="fill:url(#linearGradient1697);fill-opacity:1;fill-rule:evenodd;stroke:none;stroke-width:1pt;stroke-linecap:butt;stroke-linejoin:miter;stroke-opacity:1" />
      <path
         d="M 15.125,5.40625 C 14.292459,5.3349802 13.4625,5.3529898 12.6875,5.46875 C 7.5162907,6.2411629 3.6106111,10.960183 3.5625,16.625 C 3.5224859,21.176443 4.7189028,23.929355 8.03125,27.4375 C 11.223523,30.818473 16.545751,34.868899 24.15625,41.125 C 31.439147,34.391508 36.678272,29.882267 39.9375,26.34375 C 43.319722,22.671698 44.651817,20.085759 44.6875,16.34375 C 44.724283,12.486256 41.828568,8.43623 37.84375,6.53125 C 33.858932,4.62627 28.96608,4.7232287 24.625,9.0625 C 24.214729,9.4642636 23.567271,9.491241 23.125,9.125 C 20.348667,6.7352099 17.622622,5.6200595 15.125,5.40625 z "
         id="path2778"
         inkscape:href="#path920"
         inkscape:original="M 12.53125 4.375 C 6.7847092 5.233349 2.4899783 10.445968 2.4375 16.625 C 2.3535346 26.175728 8.0481335 29.273867 24.1875 42.59375 C 39.606803 28.2757 45.735739 24.393473 45.8125 16.34375 C 45.896465 7.5382877 33.132423 -1.0035526 23.84375 8.28125 C 19.945889 4.9260801 15.979174 3.8599906 12.53125 4.375 z "
         inkscape:radius="-1.1214175"
         sodipodi:type="inkscape:offset"
         style="fill:none;fill-opacity:1;fill-rule:evenodd;stroke:url(#linearGradient2786);stroke-width:1;stroke-linecap:butt;stroke-linejoin:miter;stroke-miterlimit:4;stroke-dasharray:none;stroke-opacity:1;opacity:0.25257732"
         xlink:href="#path920" />
    </g>
    <g
       id="g32"
       style="display:inline;enable-background:new"
       transform="translate(303,126) scale(1.000000,1.000000)">
      <path
         d="M 41.75 37.75 A 17.375 6.125 0 1 1  7,37.75 A 17.375 6.125 0 1 1  41.75 37.75 z"
         id="path41"
         sodipodi:cx="24.375"
         sodipodi:cy="37.75"
         sodipodi:rx="17.375"
         sodipodi:ry="6.125"
         sodipodi:type="arc"
         style="opacity:0.42783502;color:black;fill:url(#radialGradient2796);fill-opacity:1;fill-rule:nonzero;stroke:none;stroke-width:1;stroke-linecap:butt;stroke-linejoin:miter;marker:none;marker-start:none;marker-mid:none;marker-end:none;stroke-miterlimit:4;stroke-dasharray:none;stroke-dashoffset:0;stroke-opacity:1;visibility:visible;display:inline;overflow:visible"
         transform="matrix(0.63114,0,0,0.791008,0.896193,-5.478593)" />
      <path
         d="M 14.76624,26.036253 C 14.806891,25.975437 15.470025,26.819794 15.470025,26.819794 C 18.377639,23.662009 25.798956,17.761839 27.823457,12.841093 C 23.72932,17.373458 17.040005,24.665061 14.76624,26.036253 z "
         id="path43"
         sodipodi:nodetypes="cccc"
         style="fill:#d4572d;fill-opacity:1;fill-rule:evenodd;stroke:none;stroke-width:1pt;stroke-linecap:butt;stroke-linejoin:miter;stroke-opacity:1" />
      <path
         d="M 9.7557809,5.7219949 C 6.3678916,5.555546 4.7895707,7.727895 3.9358215,9.7944273 C 3.0885824,12.515781 4.2862217,17.655777 10.155221,17.264748 C 13.502868,17.264748 14.833439,13.838047 16.595289,12.948495 C 18.19648,12.344195 18.322501,12.290111 20.014184,12.290111 C 22.365098,12.290111 26.616445,10.59189 26.616447,8.9068593 C 25.893831,7.5547243 23.975382,5.1467814 20.450111,5.5571872 C 18.206133,5.8178725 16.083196,7.4189164 15.528655,8.215601 C 14.170214,7.0196588 12.435691,5.7219949 9.7557809,5.7219949 z "
         id="path45"
         sodipodi:nodetypes="ccccccccc"
         style="fill:url(#linearGradient7881);fill-opacity:1;fill-rule:evenodd;stroke:none;stroke-width:1pt;stroke-linecap:butt;stroke-linejoin:miter;stroke-opacity:1" />
      <path
         d="M 15.9404,6.7923862 C 21.802853,0.940788 29.859237,6.3342305 29.806244,11.883732 C 29.757798,16.956942 25.884115,19.386565 16.152376,28.410287 C 5.9661759,20.015643 2.3772122,18.079807 2.4302062,12.060614 C 2.4832,5.8298353 9.3801441,1.1536072 15.9404,6.7923862 z "
         id="path47"
         sodipodi:nodetypes="czczc"
         style="fill:#c71807;fill-opacity:1;fill-rule:evenodd;stroke:#a40000;stroke-width:1.00000012;stroke-linecap:butt;stroke-linejoin:miter;stroke-miterlimit:4;stroke-dasharray:none;stroke-opacity:1" />
      <path
         d="M 15.065184,25.642058 C 15.105763,25.581346 15.992576,26.349425 15.992576,26.349425 C 25.640153,17.586692 28.102211,15.885921 28.324516,12.395051 C 26.785621,15.872247 24.829461,16.942269 15.065184,25.642058 z "
         id="path49"
         sodipodi:nodetypes="cccc"
         style="opacity:0.42783502;color:black;fill:url(#linearGradient121);fill-opacity:1;fill-rule:evenodd;stroke:none;stroke-width:1pt;stroke-linecap:butt;stroke-linejoin:miter;marker:none;marker-start:none;marker-mid:none;marker-end:none;stroke-miterlimit:4;stroke-dashoffset:0;stroke-opacity:1;visibility:visible;display:inline;overflow:visible" />
      <path
         d="M 9.6663029,5.9743995 C 6.0479552,5.9743995 4.1087981,9.5668221 4.1222958,11.857982 C 4.1349414,14.004315 4.1698692,14.835404 5.7652062,17.055166 C 7.4074429,19.340185 14.075507,15.697568 16.209024,13.425014 C 18.369702,11.123528 25.215654,11.603315 27.419519,9.2661588 C 26.177638,7.7035849 24.808419,5.9612174 21.645275,5.9612174 C 18.500024,5.9612174 16.904247,8.0911014 15.935877,8.9669464 C 14.839134,7.9044191 13.24888,5.9743995 9.6663029,5.9743995 z "
         id="path51"
         sodipodi:nodetypes="czzzczcz"
         style="fill:url(#linearGradient1697);fill-opacity:1;fill-rule:evenodd;stroke:none;stroke-width:1pt;stroke-linecap:butt;stroke-linejoin:miter;stroke-opacity:1" />
      <path
         d="M 20.75,5.40625 C 19.406756,5.5986979 18.032377,6.2513058 16.71875,7.5625 C 16.308479,7.9642636 15.661021,7.991241 15.21875,7.625 C 12.95992,5.6834533 10.773444,5.1636623 8.9375,5.4375 C 5.8856632,5.8926923 3.5912851,8.6780718 3.5625,12.0625 C 3.5379725,14.848397 4.2367103,16.403427 6.28125,18.5625 C 8.181991,20.569719 11.590844,23.196539 16.125,26.90625 C 20.475092,22.905212 23.824185,20.023303 25.78125,17.90625 C 27.885767,15.629691 28.665988,14.127759 28.6875,11.875 C 28.708776,9.6469275 27.011519,7.2034756 24.625,6.0625 C 23.431741,5.4920122 22.093244,5.2138021 20.75,5.40625 z "
         id="path53"
         inkscape:href="#path920"
         inkscape:original="M 8.78125 4.34375 C 5.1543783 4.8847108 2.4706211 8.1682635 2.4375 12.0625 C 2.384506 18.081693 5.9700497 20.011605 16.15625 28.40625 C 25.887989 19.382528 29.764054 16.94821 29.8125 11.875 C 29.865493 6.3254985 21.799953 0.92965195 15.9375 6.78125 C 13.477404 4.6667079 10.957373 4.0191735 8.78125 4.34375 z "
         inkscape:radius="-1.1214175"
         sodipodi:type="inkscape:offset"
         style="opacity:0.25257736;fill:none;fill-opacity:1;fill-rule:evenodd;stroke:url(#linearGradient2786);stroke-width:0.99011725;stroke-linecap:butt;stroke-linejoin:miter;stroke-miterlimit:4;stroke-dasharray:none;stroke-opacity:1"
         transform="matrix(1.00995,0,0,1.010013,-0.16044,-0.161467)"
         xlink:href="#path920" />
    </g>
    <g
       id="g22"
       style="display:inline;enable-background:new"
       transform="translate(303,177) scale(1.000000,1.000000)">
      <path
         d="M 41.75 37.75 A 17.375 6.125 0 1 1  7,37.75 A 17.375 6.125 0 1 1  41.75 37.75 z"
         id="path56"
         sodipodi:cx="24.375"
         sodipodi:cy="37.75"
         sodipodi:rx="17.375"
         sodipodi:ry="6.125"
         sodipodi:type="arc"
         style="opacity:0.42783502;color:black;fill:url(#radialGradient2796);fill-opacity:1;fill-rule:nonzero;stroke:none;stroke-width:1;stroke-linecap:butt;stroke-linejoin:miter;marker:none;marker-start:none;marker-mid:none;marker-end:none;stroke-miterlimit:4;stroke-dasharray:none;stroke-dashoffset:0;stroke-opacity:1;visibility:visible;display:inline;overflow:visible"
         transform="matrix(0.403597,0,0,0.504601,1.449036,-1.952303)" />
      <path
         d="M 10.318573,18.151705 C 10.344568,18.112909 10.768625,18.651543 10.768625,18.651543 C 12.627969,16.637122 17.373709,12.873275 18.668325,9.7342239 C 16.05023,12.625519 11.772587,17.276991 10.318573,18.151705 z "
         id="path58"
         sodipodi:nodetypes="cccc"
         style="fill:#d4572d;fill-opacity:1;fill-rule:evenodd;stroke:none;stroke-width:1pt;stroke-linecap:butt;stroke-linejoin:miter;stroke-opacity:1" />
      <path
         d="M 7.1145138,5.1927963 C 4.9480462,5.0866149 3.9387508,6.4724037 3.3928003,7.7906897 C 2.8510128,9.5267008 3.6168722,12.805616 7.3699454,12.55617 C 9.5106788,12.55617 10.361545,10.370203 11.488202,9.8027382 C 12.512123,9.417242 12.59271,9.3827407 13.674497,9.3827407 C 15.177845,9.3827407 17.896472,8.2994085 17.896473,7.2244907 C 17.434379,6.3619343 16.207581,4.825855 13.953261,5.0876619 C 12.518295,5.2539587 11.160732,6.2752995 10.806118,6.783522 C 9.9374296,6.0206043 8.8282467,5.1927963 7.1145138,5.1927963 z "
         id="path60"
         sodipodi:nodetypes="ccccccccc"
         style="fill:url(#linearGradient7881);fill-opacity:1;fill-rule:evenodd;stroke:none;stroke-width:1pt;stroke-linecap:butt;stroke-linejoin:miter;stroke-opacity:1" />
      <path
         d="M 11.069419,5.875627 C 14.818306,2.1427611 19.970157,5.5833591 19.936269,9.1235107 C 19.905289,12.359825 17.428169,13.909736 11.204972,19.666171 C 4.6911598,14.311039 2.39611,13.076126 2.4299983,9.2363473 C 2.4638865,5.2615941 6.8743045,2.2785233 11.069419,5.875627 z "
         id="path62"
         sodipodi:nodetypes="czczc"
         style="fill:#c71807;fill-opacity:1;fill-rule:evenodd;stroke:#a40000;stroke-width:1.00000072;stroke-linecap:butt;stroke-linejoin:miter;stroke-miterlimit:4;stroke-dasharray:none;stroke-opacity:1" />
      <path
         d="M 10.509739,17.900239 C 10.535689,17.861509 11.102783,18.351483 11.102783,18.351483 C 17.272159,12.761545 18.846581,11.676586 18.988739,9.449684 C 18.004656,11.667863 16.753742,12.350454 10.509739,17.900239 z "
         id="path64"
         sodipodi:nodetypes="cccc"
         style="opacity:0.42783502;color:black;fill:url(#linearGradient121);fill-opacity:1;fill-rule:evenodd;stroke:none;stroke-width:1pt;stroke-linecap:butt;stroke-linejoin:miter;marker:none;marker-start:none;marker-mid:none;marker-end:none;stroke-miterlimit:4;stroke-dashoffset:0;stroke-opacity:1;visibility:visible;display:inline;overflow:visible" />
      <path
         d="M 6.9478274,5.7903347 C 4.0873749,5.7937602 2.7694365,10.080109 5.1176853,12.351167 C 7.4338506,14.591196 9.940183,11.273132 11.14618,9.991661 C 12.367529,8.6938764 16.237286,8.9644235 17.483047,7.6465247 C 16.78106,6.765405 16.574295,5.7829015 14.594087,5.7829015 C 12.676347,5.7829015 12.326974,7.4778018 10.991781,7.4778018 C 9.5316332,7.4778018 9.8088877,5.7869085 6.9478274,5.7903347 z "
         id="path66"
         sodipodi:nodetypes="czzczzz"
         style="fill:url(#linearGradient1697);fill-opacity:1;fill-rule:evenodd;stroke:none;stroke-width:1pt;stroke-linecap:butt;stroke-linejoin:miter;stroke-opacity:1" />
      <path
         d="M 7.78125,5.40625 C 5.4509249,5.0254057 3.5826287,6.8890945 3.5625,9.25 C 3.5475421,10.944839 3.9208316,11.797183 5.1875,13.125 C 6.3137482,14.305618 8.4850902,15.958395 11.1875,18.15625 C 13.786465,15.780815 15.896442,13.945984 17.0625,12.6875 C 18.373043,11.273079 18.799718,10.460231 18.8125,9.125 C 18.824196,7.9031749 17.836307,6.4482832 16.4375,5.78125 C 15.038693,5.1142168 13.413752,5.0929573 11.84375,6.65625 C 11.433479,7.0580136 10.786021,7.084991 10.34375,6.71875 C 9.4176814,5.9246922 8.5496832,5.5318348 7.78125,5.40625 z "
         id="path68"
         inkscape:href="#path920"
         inkscape:original="M 7.96875 4.3125 C 4.9569175 3.8202771 2.4629161 6.2689352 2.4375 9.25 C 2.4036117 13.089779 4.7049375 14.301119 11.21875 19.65625 C 17.441947 13.899815 19.906519 12.361315 19.9375 9.125 C 19.971388 5.5848484 14.811387 2.1421341 11.0625 5.875 C 10.013721 4.9757241 8.9726942 4.4765743 7.96875 4.3125 z "
         inkscape:radius="-1.1214175"
         sodipodi:type="inkscape:offset"
         style="opacity:0.25257736;fill:none;fill-opacity:1;fill-rule:evenodd;stroke:url(#linearGradient2786);stroke-width:0.99011725;stroke-linecap:butt;stroke-linejoin:miter;stroke-miterlimit:4;stroke-dasharray:none;stroke-opacity:1"
         transform="matrix(1.00995,0,0,1.010013,-0.16044,-0.161467)"
         xlink:href="#path920" />
    </g>
    <g
       id="g16"
       style="display:inline;enable-background:new"
       transform="translate(303,219) scale(1.000000,1.000000)">
      <path
         d="M 7.2950276,12.816018 C 7.3170321,12.783221 7.6759914,13.238559 7.6759914,13.238559 C 9.2499043,11.535654 13.267118,8.3538601 14.362995,5.7002413 C 12.146808,8.1444178 8.5258334,12.076572 7.2950276,12.816018 z "
         id="path71"
         sodipodi:nodetypes="cccc"
         style="fill:#d4572d;fill-opacity:1;fill-rule:evenodd;stroke:none;stroke-width:1pt;stroke-linecap:butt;stroke-linejoin:miter;stroke-opacity:1" />
      <path
         d="M 4.5828291,1.8611137 C 2.7489397,1.7713525 1.8945829,2.9428387 1.4324422,4.057261 C 0.97382548,5.5248102 1.6221165,8.2966641 4.7990489,8.0857932 C 6.6111547,8.0857932 7.3314029,6.2378707 8.2851049,5.7581603 C 9.151842,5.4322784 9.2200579,5.4031125 10.135778,5.4031125 C 11.408344,5.4031125 13.70963,4.48731 13.709631,3.5786208 C 13.318474,2.8494527 12.280004,1.5509173 10.371748,1.7722376 C 9.1570665,1.9128177 8.0079053,2.7762153 7.7077288,3.2058448 C 6.9723942,2.560907 6.0334839,1.8611137 4.5828291,1.8611137 z "
         id="path73"
         sodipodi:nodetypes="ccccccccc"
         style="fill:url(#linearGradient7881);fill-opacity:1;fill-rule:evenodd;stroke:none;stroke-width:1pt;stroke-linecap:butt;stroke-linejoin:miter;stroke-opacity:1" />
      <path
         d="M 7.9306074,2.4383494 C 11.103995,-0.7172549 15.464975,2.1912787 15.43629,5.1839706 C 15.410065,7.9198116 13.313213,9.2300397 8.0453514,14.096282 C 2.5314875,9.569284 0.58875543,8.5253416 0.61744147,5.2793578 C 0.64612743,1.9192724 4.3794933,-0.6024874 7.9306074,2.4383494 z "
         id="path75"
         sodipodi:nodetypes="czczc"
         style="fill:#c71807;fill-opacity:1;fill-rule:evenodd;stroke:#a40000;stroke-width:1.00000048;stroke-linecap:butt;stroke-linejoin:miter;stroke-miterlimit:4;stroke-dasharray:none;stroke-opacity:1" />
      <path
         d="M 7.4880974,13.009689 C 7.5100638,12.976949 7.9901022,13.391152 7.9901022,13.391152 C 13.212407,8.6656584 14.545136,7.7484807 14.665471,5.8659535 C 13.832457,7.7411066 12.773573,8.3181397 7.4880974,13.009689 z "
         id="path77"
         sodipodi:nodetypes="cccc"
         style="opacity:0.42783502;color:black;fill:url(#linearGradient121);fill-opacity:1;fill-rule:evenodd;stroke:none;stroke-width:1pt;stroke-linecap:butt;stroke-linejoin:miter;marker:none;marker-start:none;marker-mid:none;marker-end:none;stroke-miterlimit:4;stroke-dashoffset:0;stroke-opacity:1;visibility:visible;display:inline;overflow:visible" />
      <path
         d="M 4.347981,1.6787469 C 1.9266415,1.6816427 0.4985221,5.5238877 2.4862872,7.4437424 C 4.4468939,9.337367 7.0997249,6.376168 8.1205873,5.2928675 C 9.1544449,4.1957762 12.930149,4.5182351 13.984671,3.4041402 C 13.390447,2.6592794 12.715423,1.7349632 11.0392,1.7349632 C 9.4158557,1.7349632 8.5888655,2.6365091 7.9898903,3.1677591 C 7.3476423,2.7302591 6.769835,1.6758506 4.347981,1.6787469 z "
         id="path79"
         sodipodi:nodetypes="czzczcz"
         style="fill:url(#linearGradient1697);fill-opacity:1;fill-rule:evenodd;stroke:none;stroke-width:1pt;stroke-linecap:butt;stroke-linejoin:miter;stroke-opacity:1" />
    </g>
  </g>
  <g
     id="layer4"
     inkscape:groupmode="layer"
     inkscape:label="hires"
     style="display:inline" />
</svg>
