<?xml version="1.0" encoding="UTF-8" standalone="no"?>
<!-- Created with Inkscape (http://www.inkscape.org/) -->
<svg
   xmlns:dc="http://purl.org/dc/elements/1.1/"
   xmlns:cc="http://creativecommons.org/ns#"
   xmlns:rdf="http://www.w3.org/1999/02/22-rdf-syntax-ns#"
   xmlns:svg="http://www.w3.org/2000/svg"
   xmlns="http://www.w3.org/2000/svg"
   xmlns:xlink="http://www.w3.org/1999/xlink"
   xmlns:sodipodi="http://sodipodi.sourceforge.net/DTD/sodipodi-0.dtd"
   xmlns:inkscape="http://www.inkscape.org/namespaces/inkscape"
   height="300"
   id="svg11300"
   inkscape:export-filename="/home/jimmac/Desktop/wi-fi.png"
   inkscape:export-xdpi="90.000000"
   inkscape:export-ydpi="90.000000"
   inkscape:output_extension="org.inkscape.output.svg.inkscape"
   inkscape:version="0.46"
   sodipodi:docname="emblem-new.svg"
   sodipodi:version="0.32"
   style="display:inline;enable-background:new"
   version="1.0"
   width="400">
  <title
     id="title8836">Optical Drive</title>
  <metadata
     id="metadata154">
    <rdf:RDF>
      <cc:Work
         rdf:about="">
        <dc:format>image/svg+xml</dc:format>
        <dc:type
           rdf:resource="http://purl.org/dc/dcmitype/StillImage" />
        <dc:title />
        <dc:creator>
          <cc:Agent>
            <dc:title />
          </cc:Agent>
        </dc:creator>
        <dc:contributor>
          <cc:Agent>
            <dc:title />
          </cc:Agent>
        </dc:contributor>
        <dc:source />
        <cc:license
           rdf:resource="" />
        <dc:subject>
          <rdf:Bag />
        </dc:subject>
      </cc:Work>
    </rdf:RDF>
  </metadata>
  <sodipodi:namedview
     bordercolor="#666666"
     borderopacity="0.25490196"
     fill="#f57900"
     gridtolerance="12"
     guidetolerance="13"
     height="300px"
     id="base"
     inkscape:current-layer="layer6"
     inkscape:cx="144.68008"
     inkscape:cy="87.105301"
     inkscape:document-units="px"
     inkscape:grid-bbox="true"
     inkscape:guide-bbox="true"
     inkscape:pageopacity="0.0"
     inkscape:pageshadow="2"
     inkscape:showpageshadow="false"
     inkscape:snap-bbox="true"
     inkscape:snap-nodes="true"
     inkscape:window-height="876"
     inkscape:window-width="968"
     inkscape:window-x="132"
     inkscape:window-y="8"
     inkscape:zoom="1"
     objecttolerance="7"
     pagecolor="#ffffff"
     showgrid="false"
     showguides="true"
     stroke="#ef2929"
     width="400px">
    <inkscape:grid
       empspacing="2"
       enabled="true"
       id="grid5883"
       spacingx="0.5px"
       spacingy="0.5px"
       type="xygrid"
       visible="true" />
  </sodipodi:namedview>
  <defs
     id="defs3">
    <linearGradient
       id="linearGradient1886">
      <stop
         id="stop1888"
         offset="0"
         style="stop-color:#fce94f;stop-opacity:1;" />
      <stop
         id="stop1890"
         offset="1"
         style="stop-color:white;stop-opacity:1" />
    </linearGradient>
    <linearGradient
       id="linearGradient2786"
       inkscape:collect="always">
      <stop
         id="stop2788"
         offset="0"
         style="stop-color:#fce94f;stop-opacity:1;" />
      <stop
         id="stop2790"
         offset="1"
         style="stop-color:#fce94f;stop-opacity:0;" />
    </linearGradient>
    <linearGradient
       id="linearGradient2760">
      <stop
         id="stop2762"
         offset="0"
         style="stop-color:white;stop-opacity:1;" />
      <stop
         id="stop1884"
         offset="0.36585367"
         style="stop-color:white;stop-opacity:1;" />
      <stop
         id="stop2764"
         offset="1"
         style="stop-color:#fce94f;stop-opacity:1;" />
    </linearGradient>
    <radialGradient
       cx="4.8321624"
       cy="1.09216"
       fx="4.8321624"
       fy="1.09216"
       gradientTransform="matrix(1.928522,0,0,1.843022,-1.841365,2.4769)"
       gradientUnits="userSpaceOnUse"
       id="radialGradient2766"
       inkscape:collect="always"
       r="15.17675"
       xlink:href="#linearGradient2760" />
    <radialGradient
       cx="25"
       cy="22"
       fx="25"
       fy="22"
       gradientTransform="matrix(1.30147,0,0,1.224913,-7.536765,-3.448096)"
       gradientUnits="userSpaceOnUse"
       id="radialGradient2792"
       inkscape:collect="always"
       r="17"
       xlink:href="#linearGradient2786" />
    <linearGradient
       gradientUnits="userSpaceOnUse"
       id="linearGradient1892"
       inkscape:collect="always"
       x1="20.374401"
       x2="-4.173214"
       xlink:href="#linearGradient1886"
       y1="16.574726"
       y2="-23.197165" />
    <linearGradient
       id="linearGradient2378">
      <stop
         id="stop2380"
         offset="0"
         style="stop-color:#ffffff;stop-opacity:1;" />
      <stop
         id="stop4146"
         offset="0.25"
         style="stop-color:#fefede;stop-opacity:0.91836733;" />
      <stop
         id="stop2386"
         offset="0.5"
         style="stop-color:#f5f328;stop-opacity:1;" />
      <stop
         id="stop2382"
         offset="1"
         style="stop-color:#f5f32d;stop-opacity:0.12234043;" />
    </linearGradient>
    <radialGradient
       cx="38.658855"
       cy="9.3411446"
       fx="38.658855"
       fy="9.3411446"
       gradientUnits="userSpaceOnUse"
       id="radialGradient1996"
       inkscape:collect="always"
       r="8.341651"
       xlink:href="#linearGradient2378" />
  </defs>
  <g
     id="layer6"
     inkscape:groupmode="layer"
     inkscape:label="baseplate"
     style="display:none">
    <rect
       height="48"
       id="rect6284"
       inkscape:label="48x48"
       style="fill:#eeeeec;fill-opacity:1;fill-rule:nonzero;stroke:none;stroke-width:2;marker:none;visibility:visible;display:inline;overflow:visible;enable-background:accumulate"
       width="48"
       x="296"
       y="50" />
    <rect
       height="32"
       id="rect6592"
       inkscape:label="32x32"
       style="fill:#eeeeec;fill-opacity:1;fill-rule:nonzero;stroke:none;stroke-width:2;marker:none;visibility:visible;display:inline;overflow:visible;enable-background:accumulate"
       width="32"
       x="303"
       y="126" />
    <rect
       height="22"
       id="rect6749"
       inkscape:label="22x22"
       style="fill:#eeeeec;fill-opacity:1;fill-rule:nonzero;stroke:none;stroke-width:2;marker:none;visibility:visible;display:inline;overflow:visible;enable-background:accumulate"
       width="22"
       x="303"
       y="177" />
    <rect
       height="16"
       id="rect6833"
       inkscape:label="16x16"
       style="fill:#eeeeec;fill-opacity:1;fill-rule:nonzero;stroke:none;stroke-width:2;marker:none;visibility:visible;display:inline;overflow:visible;enable-background:accumulate"
       width="16"
       x="303"
       y="219" />
    <text
       id="context"
       inkscape:label="context"
       style="font-size:18.30070686px;font-style:normal;font-weight:normal;fill:#000000;fill-opacity:1;stroke:none;display:inline;enable-background:new;font-family:Bitstream Vera Sans"
       x="20.970737"
       xml:space="preserve"
       y="21.513618"><tspan
         id="tspan2716"
         sodipodi:role="line"
         x="20.970737"
         y="21.513618">emblems</tspan></text>
    <text
       id="icon-name"
       inkscape:label="icon-name"
       sodipodi:linespacing="125%"
       style="font-size:18.30070686px;font-style:normal;font-variant:normal;font-weight:bold;font-stretch:normal;text-align:start;line-height:125%;writing-mode:lr-tb;text-anchor:start;fill:#000000;fill-opacity:1;stroke:none;display:inline;enable-background:new;font-family:Droid Sans;-inkscape-font-specification:Droid Sans Bold"
       x="191.97073"
       xml:space="preserve"
       y="21.513618"><tspan
         id="tspan3023"
         sodipodi:role="line"
         x="191.97073"
         y="21.513618">emblem-new</tspan></text>
  </g>
  <g
     id="layer2"
     inkscape:groupmode="layer"
     inkscape:label="small sizes"
     style="display:inline">
    <g
       id="g48"
       style="display:inline;enable-background:new"
       transform="translate(296,50) scale(1.000000,1.000000)">
      <rect
         height="41.647057"
         id="rect2776"
         style="opacity:1;fill:url(#radialGradient2792);fill-opacity:1;stroke:none;stroke-width:1.15199995;stroke-linecap:butt;stroke-linejoin:round;stroke-miterlimit:4;stroke-dasharray:none;stroke-dashoffset:0;stroke-opacity:1"
         width="44.25"
         x="2.875"
         y="2.6764705" />
      <path
         d="M 11,-7.2520323 C 12.781445,-7.2520323 14.790132,-0.12244253 16.23135,0.92466417 C 17.672569,1.9717709 25.07393,1.6789818 25.624427,3.3732361 C 26.174923,5.0674903 20.014999,9.1810294 19.464502,10.875284 C 18.914006,12.569538 21.479611,19.518174 20.038392,20.565281 C 18.597174,21.612387 12.781444,17.025105 11,17.025105 C 9.2185557,17.025104 3.4028256,21.612387 1.9616069,20.56528 C 0.52038819,19.518174 3.0859941,12.569538 2.5354976,10.875284 C 1.9850011,9.1810293 -4.1749232,5.0674896 -3.6244266,3.3732353 C -3.0739301,1.6789811 4.3274311,1.9717708 5.7686498,0.92466421 C 7.2098686,-0.12244246 9.2185561,-7.2520323 11,-7.2520323 z "
         id="path1869"
         inkscape:flatsided="false"
         inkscape:randomized="0"
         inkscape:rounded="0.18352206"
         sodipodi:arg1="-1.5707963"
         sodipodi:arg2="-0.9424778"
         sodipodi:cx="11"
         sodipodi:cy="8.125"
         sodipodi:r1="15.377032"
         sodipodi:r2="8.9001045"
         sodipodi:sides="5"
         sodipodi:type="star"
         style="opacity:1;fill:url(#radialGradient2766);fill-opacity:1.0;stroke:url(#linearGradient1892);stroke-width:1.03510201;stroke-linecap:butt;stroke-linejoin:miter;stroke-miterlimit:4;stroke-dasharray:none;stroke-dashoffset:0;stroke-opacity:1"
         transform="matrix(1.120396,0,0,1.105138,12.67565,14.55764)" />
      <path
         d="M 11,-6.25 C 11.110128,-6.25 11.090676,-6.2930567 10.96875,-6.1875 C 10.846824,-6.0819433 10.669189,-5.8612077 10.46875,-5.5625 C 10.067872,-4.9650846 9.6008838,-4.0696228 9.15625,-3.125 C 8.7116162,-2.1803772 8.2808694,-1.1985024 7.84375,-0.34375 C 7.4066306,0.51100241 7.0824747,1.2359897 6.375,1.75 C 5.6674837,2.2640406 4.8860659,2.3480061 3.9375,2.5 C 2.9889341,2.6519939 1.9116453,2.7747563 0.875,2.90625 C -0.16164527,3.0377437 -1.1509478,3.1779516 -1.84375,3.375 C -2.1901511,3.4735242 -2.4554072,3.603992 -2.59375,3.6875 C -2.7320928,3.771008 -2.7216057,3.7924666 -2.6875,3.6875 C -2.6536835,3.5834235 -2.6875494,3.5698447 -2.625,3.71875 C -2.5624506,3.8676553 -2.4089156,4.1230519 -2.1875,4.40625 C -1.7446688,4.9726462 -1.0399965,5.6907025 -0.28125,6.40625 C 0.47749652,7.1217975 1.2927385,7.8508232 1.96875,8.53125 C 2.6447615,9.2116768 3.1990663,9.7324991 3.46875,10.5625 C 3.7381818,11.391726 3.6147508,12.145893 3.46875,13.09375 C 3.3227492,14.041607 3.0983111,15.131237 2.90625,16.15625 C 2.7141889,17.181263 2.5558059,18.156288 2.53125,18.875 C 2.518972,19.234356 2.5253881,19.530035 2.5625,19.6875 C 2.5996119,19.844965 2.6508597,19.814197 2.5625,19.75 C 2.4742422,19.685877 2.4641468,19.732132 2.625,19.71875 C 2.7858532,19.705368 3.06871,19.654049 3.40625,19.53125 C 4.0813299,19.285652 4.9605341,18.812233 5.875,18.3125 C 6.7894659,17.812767 7.7381087,17.275825 8.59375,16.84375 C 9.4493913,16.411675 10.127851,16.03125 11,16.03125 C 11.872149,16.03125 12.550609,16.411675 13.40625,16.84375 C 14.261891,17.275825 15.210534,17.812767 16.125,18.3125 C 17.039466,18.812233 17.91867,19.285652 18.59375,19.53125 C 18.93129,19.654049 19.214147,19.705368 19.375,19.71875 C 19.535853,19.732132 19.525758,19.685877 19.4375,19.75 C 19.34914,19.814197 19.400388,19.844965 19.4375,19.6875 C 19.474612,19.530035 19.481028,19.234356 19.46875,18.875 C 19.444194,18.156288 19.285811,17.181263 19.09375,16.15625 C 18.901689,15.131237 18.677251,14.041607 18.53125,13.09375 C 18.385249,12.145893 18.261818,11.391726 18.53125,10.5625 C 18.800934,9.7324993 19.355239,9.2116769 20.03125,8.53125 C 20.707261,7.8508231 21.522504,7.1217975 22.28125,6.40625 C 23.039996,5.6907025 23.744669,4.9726462 24.1875,4.40625 C 24.408916,4.1230519 24.562451,3.8676553 24.625,3.71875 C 24.687549,3.5698447 24.653684,3.5834234 24.6875,3.6875 C 24.721606,3.7924664 24.732093,3.771008 24.59375,3.6875 C 24.455407,3.603992 24.190151,3.4735242 23.84375,3.375 C 23.150948,3.1779516 22.161645,3.0377437 21.125,2.90625 C 20.088355,2.7747563 19.011066,2.6519939 18.0625,2.5 C 17.113934,2.3480061 16.332516,2.2640406 15.625,1.75 C 14.917525,1.2359897 14.593369,0.51100241 14.15625,-0.34375 C 13.719131,-1.1985024 13.288384,-2.1803772 12.84375,-3.125 C 12.399116,-4.0696228 11.932128,-4.9650847 11.53125,-5.5625 C 11.330811,-5.8612077 11.153176,-6.0819433 11.03125,-6.1875 C 10.909324,-6.2930567 10.889872,-6.25 11,-6.25 z "
         id="path2758"
         inkscape:original="M 11 -7.25 C 9.2185557 -7.25 7.222469 -0.10960666 5.78125 0.9375 C 4.3400313 1.9846066 -3.0745035 1.6807459 -3.625 3.375 C -4.1754966 5.0692543 1.9807534 9.1807461 2.53125 10.875 C 3.0817465 12.569254 0.52753133 19.515393 1.96875 20.5625 C 3.4099688 21.609607 9.2185557 17.03125 11 17.03125 C 12.781444 17.03125 18.590031 21.609606 20.03125 20.5625 C 21.472469 19.515393 18.918253 12.569255 19.46875 10.875 C 20.019247 9.1807459 26.175496 5.0692541 25.625 3.375 C 25.074503 1.6807458 17.659969 1.9846068 16.21875 0.9375 C 14.777531 -0.1096067 12.781445 -7.25 11 -7.25 z "
         inkscape:radius="-0.99638325"
         sodipodi:type="inkscape:offset"
         style="opacity:1;fill:none;fill-opacity:1.0;stroke:white;stroke-width:1.03528154;stroke-linecap:butt;stroke-linejoin:round;stroke-miterlimit:4;stroke-dasharray:none;stroke-dashoffset:0;stroke-opacity:1"
         transform="matrix(1.120396,0,0,1.105138,12.67565,14.55764)" />
    </g>
    <g
       id="g32"
       style="display:inline;enable-background:new"
       transform="translate(303,126) scale(1.000000,1.000000)">
      <rect
         height="29.910681"
         id="rect42"
         style="opacity:1;fill:url(#radialGradient2792);fill-opacity:1;stroke:none;stroke-width:1.15199995;stroke-linecap:butt;stroke-linejoin:round;stroke-miterlimit:4;stroke-dasharray:none;stroke-dashoffset:0;stroke-opacity:1"
         width="31.80093"
         x="0.037034865"
         y="0.54465866" />
      <path
         d="M 11,-7.2520323 C 12.781445,-7.2520323 14.790132,-0.12244253 16.23135,0.92466417 C 17.672569,1.9717709 25.07393,1.6789818 25.624427,3.3732361 C 26.174923,5.0674903 20.014999,9.1810294 19.464502,10.875284 C 18.914006,12.569538 21.479611,19.518174 20.038392,20.565281 C 18.597174,21.612387 12.781444,17.025105 11,17.025105 C 9.2185557,17.025104 3.4028256,21.612387 1.9616069,20.56528 C 0.52038819,19.518174 3.0859941,12.569538 2.5354976,10.875284 C 1.9850011,9.1810293 -4.1749232,5.0674896 -3.6244266,3.3732353 C -3.0739301,1.6789811 4.3274311,1.9717708 5.7686498,0.92466421 C 7.2098686,-0.12244246 9.2185561,-7.2520323 11,-7.2520323 z "
         id="path44"
         inkscape:flatsided="false"
         inkscape:randomized="0"
         inkscape:rounded="0.18352206"
         sodipodi:arg1="-1.5707963"
         sodipodi:arg2="-0.9424778"
         sodipodi:cx="11"
         sodipodi:cy="8.125"
         sodipodi:r1="15.377032"
         sodipodi:r2="8.9001045"
         sodipodi:sides="5"
         sodipodi:type="star"
         style="opacity:1;fill:url(#radialGradient2766);fill-opacity:1;stroke:url(#linearGradient1892);stroke-width:1.44078398;stroke-linecap:butt;stroke-linejoin:miter;stroke-miterlimit:4;stroke-dasharray:none;stroke-dashoffset:0;stroke-opacity:1"
         transform="matrix(0.805189,0,0,0.793704,7.08042,9.07765)" />
      <path
         d="M 11,-6.25 C 11.110128,-6.25 11.090676,-6.2930567 10.96875,-6.1875 C 10.846824,-6.0819433 10.669189,-5.8612077 10.46875,-5.5625 C 10.067872,-4.9650846 9.6008838,-4.0696228 9.15625,-3.125 C 8.7116162,-2.1803772 8.2808694,-1.1985024 7.84375,-0.34375 C 7.4066306,0.51100241 7.0824747,1.2359897 6.375,1.75 C 5.6674837,2.2640406 4.8860659,2.3480061 3.9375,2.5 C 2.9889341,2.6519939 1.9116453,2.7747563 0.875,2.90625 C -0.16164527,3.0377437 -1.1509478,3.1779516 -1.84375,3.375 C -2.1901511,3.4735242 -2.4554072,3.603992 -2.59375,3.6875 C -2.7320928,3.771008 -2.7216057,3.7924666 -2.6875,3.6875 C -2.6536835,3.5834235 -2.6875494,3.5698447 -2.625,3.71875 C -2.5624506,3.8676553 -2.4089156,4.1230519 -2.1875,4.40625 C -1.7446688,4.9726462 -1.0399965,5.6907025 -0.28125,6.40625 C 0.47749652,7.1217975 1.2927385,7.8508232 1.96875,8.53125 C 2.6447615,9.2116768 3.1990663,9.7324991 3.46875,10.5625 C 3.7381818,11.391726 3.6147508,12.145893 3.46875,13.09375 C 3.3227492,14.041607 3.0983111,15.131237 2.90625,16.15625 C 2.7141889,17.181263 2.5558059,18.156288 2.53125,18.875 C 2.518972,19.234356 2.5253881,19.530035 2.5625,19.6875 C 2.5996119,19.844965 2.6508597,19.814197 2.5625,19.75 C 2.4742422,19.685877 2.4641468,19.732132 2.625,19.71875 C 2.7858532,19.705368 3.06871,19.654049 3.40625,19.53125 C 4.0813299,19.285652 4.9605341,18.812233 5.875,18.3125 C 6.7894659,17.812767 7.7381087,17.275825 8.59375,16.84375 C 9.4493913,16.411675 10.127851,16.03125 11,16.03125 C 11.872149,16.03125 12.550609,16.411675 13.40625,16.84375 C 14.261891,17.275825 15.210534,17.812767 16.125,18.3125 C 17.039466,18.812233 17.91867,19.285652 18.59375,19.53125 C 18.93129,19.654049 19.214147,19.705368 19.375,19.71875 C 19.535853,19.732132 19.525758,19.685877 19.4375,19.75 C 19.34914,19.814197 19.400388,19.844965 19.4375,19.6875 C 19.474612,19.530035 19.481028,19.234356 19.46875,18.875 C 19.444194,18.156288 19.285811,17.181263 19.09375,16.15625 C 18.901689,15.131237 18.677251,14.041607 18.53125,13.09375 C 18.385249,12.145893 18.261818,11.391726 18.53125,10.5625 C 18.800934,9.7324993 19.355239,9.2116769 20.03125,8.53125 C 20.707261,7.8508231 21.522504,7.1217975 22.28125,6.40625 C 23.039996,5.6907025 23.744669,4.9726462 24.1875,4.40625 C 24.408916,4.1230519 24.562451,3.8676553 24.625,3.71875 C 24.687549,3.5698447 24.653684,3.5834234 24.6875,3.6875 C 24.721606,3.7924664 24.732093,3.771008 24.59375,3.6875 C 24.455407,3.603992 24.190151,3.4735242 23.84375,3.375 C 23.150948,3.1779516 22.161645,3.0377437 21.125,2.90625 C 20.088355,2.7747563 19.011066,2.6519939 18.0625,2.5 C 17.113934,2.3480061 16.332516,2.2640406 15.625,1.75 C 14.917525,1.2359897 14.593369,0.51100241 14.15625,-0.34375 C 13.719131,-1.1985024 13.288384,-2.1803772 12.84375,-3.125 C 12.399116,-4.0696228 11.932128,-4.9650847 11.53125,-5.5625 C 11.330811,-5.8612077 11.153176,-6.0819433 11.03125,-6.1875 C 10.909324,-6.2930567 10.889872,-6.25 11,-6.25 z "
         id="path46"
         inkscape:original="M 11 -7.25 C 9.2185557 -7.25 7.222469 -0.10960666 5.78125 0.9375 C 4.3400313 1.9846066 -3.0745035 1.6807459 -3.625 3.375 C -4.1754966 5.0692543 1.9807534 9.1807461 2.53125 10.875 C 3.0817465 12.569254 0.52753133 19.515393 1.96875 20.5625 C 3.4099688 21.609607 9.2185557 17.03125 11 17.03125 C 12.781444 17.03125 18.590031 21.609606 20.03125 20.5625 C 21.472469 19.515393 18.918253 12.569255 19.46875 10.875 C 20.019247 9.1807459 26.175496 5.0692541 25.625 3.375 C 25.074503 1.6807458 17.659969 1.9846068 16.21875 0.9375 C 14.777531 -0.1096067 12.781445 -7.25 11 -7.25 z "
         inkscape:radius="-0.99638325"
         sodipodi:type="inkscape:offset"
         style="opacity:1;fill:none;fill-opacity:1;stroke:white;stroke-width:1.44103396;stroke-linecap:butt;stroke-linejoin:round;stroke-miterlimit:4;stroke-dasharray:none;stroke-dashoffset:0;stroke-opacity:1"
         transform="matrix(0.805189,0,0,0.793704,7.08042,9.07765)" />
    </g>
    <g
       id="g22"
       style="display:inline;enable-background:new"
       transform="translate(303,177) scale(1.000000,1.000000)">
      <path
         d="M 47.000506 9.3411446 A 8.341651 8.341651 0 1 1  30.317204,9.3411446 A 8.341651 8.341651 0 1 1  47.000506 9.3411446 z"
         id="path2388"
         sodipodi:cx="38.658855"
         sodipodi:cy="9.3411446"
         sodipodi:rx="8.341651"
         sodipodi:ry="8.341651"
         sodipodi:type="arc"
         style="fill:url(#radialGradient1996);fill-opacity:1;fill-rule:evenodd;stroke:none;stroke-width:1px;stroke-linecap:butt;stroke-linejoin:miter;stroke-opacity:1"
         transform="matrix(1.14985,0,0,1.14985,-33.59608,0.67968)" />
      <path
         d="M 44.520054,15.50279 C 44.012883,16.381236 39.925351,15.341967 38.998703,15.754538 C 38.072055,16.167108 36.109289,19.900142 35.117113,19.689249 C 34.124936,19.478355 33.850222,15.26973 33.171495,14.515926 C 32.492767,13.762123 28.335913,13.048993 28.229885,12.040207 C 28.123857,11.031421 32.041607,9.4696164 32.548778,8.5911701 C 33.055949,7.7127238 32.449637,3.5389508 33.376285,3.1263806 C 34.302933,2.7138103 36.998949,5.957187 37.991126,6.1680807 C 38.983302,6.3789743 42.765436,4.5125708 43.444163,5.2663741 C 44.122891,6.0201775 41.871371,9.5864995 41.977399,10.595285 C 42.083426,11.604071 45.027225,14.624343 44.520054,15.50279 z "
         id="path1345"
         inkscape:flatsided="false"
         inkscape:randomized="0"
         inkscape:rounded="0.18352206"
         sodipodi:arg1="0.52359878"
         sodipodi:arg2="1.1519173"
         sodipodi:cx="36.9375"
         sodipodi:cy="11.125"
         sodipodi:r1="8.755579"
         sodipodi:r2="5.0676599"
         sodipodi:sides="5"
         sodipodi:type="star"
         style="color:black;fill:white;fill-opacity:1;fill-rule:evenodd;stroke:none;stroke-width:0.5;stroke-linecap:butt;stroke-linejoin:miter;marker:none;marker-start:none;marker-mid:none;marker-end:none;stroke-miterlimit:4;stroke-dasharray:none;stroke-dashoffset:0;stroke-opacity:1;visibility:visible;display:inline;overflow:visible"
         transform="matrix(0.674116,0.299577,-0.299577,0.674116,-10.53662,-7.00368)" />
    </g>
    <g
       id="g16"
       style="display:inline;enable-background:new"
       transform="translate(303,219) scale(1.000000,1.000000)">
      <path
         d="M 47.000506 9.3411446 A 8.341651 8.341651 0 1 1  30.317204,9.3411446 A 8.341651 8.341651 0 1 1  47.000506 9.3411446 z"
         id="path52"
         sodipodi:cx="38.658855"
         sodipodi:cy="9.3411446"
         sodipodi:rx="8.341651"
         sodipodi:ry="8.341651"
         sodipodi:type="arc"
         style="fill:url(#radialGradient1996);fill-opacity:1;fill-rule:evenodd;stroke:none;stroke-width:1px;stroke-linecap:butt;stroke-linejoin:miter;stroke-opacity:1"
         transform="matrix(0.970029,0,0,0.970029,-29.59185,-0.969538)" />
      <path
         d="M 44.520054,15.50279 C 44.012883,16.381236 39.925351,15.341967 38.998703,15.754538 C 38.072055,16.167108 36.109289,19.900142 35.117113,19.689249 C 34.124936,19.478355 33.850222,15.26973 33.171495,14.515926 C 32.492767,13.762123 28.335913,13.048993 28.229885,12.040207 C 28.123857,11.031421 32.041607,9.4696164 32.548778,8.5911701 C 33.055949,7.7127238 32.449637,3.5389508 33.376285,3.1263806 C 34.302933,2.7138103 36.998949,5.957187 37.991126,6.1680807 C 38.983302,6.3789743 42.765436,4.5125708 43.444163,5.2663741 C 44.122891,6.0201775 41.871371,9.5864995 41.977399,10.595285 C 42.083426,11.604071 45.027225,14.624343 44.520054,15.50279 z "
         id="path54"
         inkscape:flatsided="false"
         inkscape:randomized="0"
         inkscape:rounded="0.18352206"
         sodipodi:arg1="0.52359878"
         sodipodi:arg2="1.1519173"
         sodipodi:cx="36.9375"
         sodipodi:cy="11.125"
         sodipodi:r1="8.755579"
         sodipodi:r2="5.0676599"
         sodipodi:sides="5"
         sodipodi:type="star"
         style="color:black;fill:white;fill-opacity:1;fill-rule:evenodd;stroke:none;stroke-width:0.5;stroke-linecap:butt;stroke-linejoin:miter;marker:none;marker-start:none;marker-mid:none;marker-end:none;stroke-miterlimit:4;stroke-dasharray:none;stroke-dashoffset:0;stroke-opacity:1;visibility:visible;display:inline;overflow:visible"
         transform="matrix(0.568694,0.252727,-0.252727,0.568694,-10.13857,-7.451327)" />
    </g>
  </g>
  <g
     id="layer4"
     inkscape:groupmode="layer"
     inkscape:label="hires"
     style="display:inline" />
</svg>
