<?xml version="1.0" encoding="UTF-8" standalone="no"?>
<!-- Created with Inkscape (http://www.inkscape.org/) -->
<svg
   xmlns:dc="http://purl.org/dc/elements/1.1/"
   xmlns:cc="http://creativecommons.org/ns#"
   xmlns:rdf="http://www.w3.org/1999/02/22-rdf-syntax-ns#"
   xmlns:svg="http://www.w3.org/2000/svg"
   xmlns="http://www.w3.org/2000/svg"
   xmlns:xlink="http://www.w3.org/1999/xlink"
   xmlns:sodipodi="http://sodipodi.sourceforge.net/DTD/sodipodi-0.dtd"
   xmlns:inkscape="http://www.inkscape.org/namespaces/inkscape"
   height="300"
   id="svg11300"
   inkscape:export-filename="/home/jimmac/Desktop/wi-fi.png"
   inkscape:export-xdpi="90.000000"
   inkscape:export-ydpi="90.000000"
   inkscape:output_extension="org.inkscape.output.svg.inkscape"
   inkscape:version="0.46"
   sodipodi:docname="emblem-readonly.svg"
   sodipodi:version="0.32"
   style="display:inline;enable-background:new"
   version="1.0"
   width="400">
  <title
     id="title8836">Optical Drive</title>
  <metadata
     id="metadata154">
    <rdf:RDF>
      <cc:Work
         rdf:about="">
        <dc:format>image/svg+xml</dc:format>
        <dc:type
           rdf:resource="http://purl.org/dc/dcmitype/StillImage" />
        <dc:title />
        <dc:creator>
          <cc:Agent>
            <dc:title />
          </cc:Agent>
        </dc:creator>
        <dc:contributor>
          <cc:Agent>
            <dc:title />
          </cc:Agent>
        </dc:contributor>
        <dc:source />
        <cc:license
           rdf:resource="" />
        <dc:subject>
          <rdf:Bag />
        </dc:subject>
      </cc:Work>
    </rdf:RDF>
  </metadata>
  <sodipodi:namedview
     bordercolor="#666666"
     borderopacity="0.25490196"
     fill="#f57900"
     gridtolerance="12"
     guidetolerance="13"
     height="300px"
     id="base"
     inkscape:current-layer="layer6"
     inkscape:cx="144.68008"
     inkscape:cy="87.105301"
     inkscape:document-units="px"
     inkscape:grid-bbox="true"
     inkscape:guide-bbox="true"
     inkscape:pageopacity="0.0"
     inkscape:pageshadow="2"
     inkscape:showpageshadow="false"
     inkscape:snap-bbox="true"
     inkscape:snap-nodes="true"
     inkscape:window-height="876"
     inkscape:window-width="968"
     inkscape:window-x="132"
     inkscape:window-y="8"
     inkscape:zoom="1"
     objecttolerance="7"
     pagecolor="#ffffff"
     showgrid="false"
     showguides="true"
     stroke="#ef2929"
     width="400px">
    <inkscape:grid
       empspacing="2"
       enabled="true"
       id="grid5883"
       spacingx="0.5px"
       spacingy="0.5px"
       type="xygrid"
       visible="true" />
  </sodipodi:namedview>
  <defs
     id="defs3">
    <linearGradient
       id="linearGradient7016">
      <stop
         id="stop7018"
         offset="0"
         style="stop-color:#000000;stop-opacity:0;" />
      <stop
         id="stop7026"
         offset="0.5"
         style="stop-color:#000000;stop-opacity:1;" />
      <stop
         id="stop7022"
         offset="1"
         style="stop-color:#000000;stop-opacity:0" />
    </linearGradient>
    <linearGradient
       id="linearGradient6992">
      <stop
         id="stop6994"
         offset="0"
         style="stop-color:#000000;stop-opacity:1;" />
      <stop
         id="stop6996"
         offset="1"
         style="stop-color:#000000;stop-opacity:0;" />
    </linearGradient>
    <linearGradient
       id="linearGradient6974"
       inkscape:collect="always">
      <stop
         id="stop6976"
         offset="0"
         style="stop-color:#ffffff;stop-opacity:1;" />
      <stop
         id="stop6978"
         offset="1"
         style="stop-color:#ffffff;stop-opacity:0;" />
    </linearGradient>
    <linearGradient
       id="linearGradient2790">
      <stop
         id="stop2792"
         offset="0"
         style="stop-color:white;stop-opacity:1;" />
      <stop
         id="stop2798"
         offset="0.8108108"
         style="stop-color:#d3d7cf;stop-opacity:1;" />
      <stop
         id="stop2794"
         offset="1"
         style="stop-color:#959e8b;stop-opacity:1;" />
    </linearGradient>
    <linearGradient
       gradientTransform="translate(0,4)"
       gradientUnits="userSpaceOnUse"
       id="linearGradient6962"
       inkscape:collect="always"
       x1="14.833632"
       x2="28.37484"
       xlink:href="#linearGradient2790"
       y1="0.52512646"
       y2="52.61792" />
    <linearGradient
       gradientUnits="userSpaceOnUse"
       id="linearGradient6980"
       inkscape:collect="always"
       x1="11.75"
       x2="19.414213"
       xlink:href="#linearGradient6974"
       y1="19.5"
       y2="57.480076" />
    <radialGradient
       cx="6"
       cy="39.27903"
       fx="6"
       fy="39.27903"
       gradientTransform="matrix(2,0,0,0.9069901,24,3.6533406)"
       gradientUnits="userSpaceOnUse"
       id="radialGradient7033"
       inkscape:collect="always"
       r="3"
       xlink:href="#linearGradient6992" />
    <radialGradient
       cx="6"
       cy="39.27903"
       fx="6"
       fy="39.27903"
       gradientTransform="matrix(2,0,0,0.9069901,-24,-74.904719)"
       gradientUnits="userSpaceOnUse"
       id="radialGradient7035"
       inkscape:collect="always"
       r="3"
       xlink:href="#linearGradient6992" />
    <linearGradient
       gradientTransform="matrix(4,0,0,1,-108,0)"
       gradientUnits="userSpaceOnUse"
       id="linearGradient7037"
       inkscape:collect="always"
       x1="33.237865"
       x2="33.237865"
       xlink:href="#linearGradient7016"
       y1="42.001678"
       y2="36.55806" />
    <linearGradient
       id="linearGradient6963"
       inkscape:collect="always">
      <stop
         id="stop6965"
         offset="0"
         style="stop-color:#ffffff;stop-opacity:1;" />
      <stop
         id="stop6967"
         offset="1"
         style="stop-color:#ffffff;stop-opacity:0;" />
    </linearGradient>
    <linearGradient
       gradientTransform="matrix(0.8943242,0,0,0.84375,-5.9314815,-0.453125)"
       gradientUnits="userSpaceOnUse"
       id="linearGradient5976"
       inkscape:collect="always"
       x1="15.829086"
       x2="33.645836"
       xlink:href="#linearGradient2790"
       y1="4.4628921"
       y2="44.254314" />
    <radialGradient
       cx="6"
       cy="39.27903"
       fx="6"
       fy="39.27903"
       gradientTransform="matrix(2,0,0,0.9069901,24,3.6533406)"
       gradientUnits="userSpaceOnUse"
       id="radialGradient5982"
       inkscape:collect="always"
       r="3"
       xlink:href="#linearGradient6992" />
    <radialGradient
       cx="6"
       cy="39.27903"
       fx="6"
       fy="39.27903"
       gradientTransform="matrix(2,0,0,0.9069901,-24,-74.904719)"
       gradientUnits="userSpaceOnUse"
       id="radialGradient5984"
       inkscape:collect="always"
       r="3"
       xlink:href="#linearGradient6992" />
    <linearGradient
       gradientTransform="matrix(4,0,0,1,-108,0)"
       gradientUnits="userSpaceOnUse"
       id="linearGradient5986"
       inkscape:collect="always"
       x1="33.237865"
       x2="33.237865"
       xlink:href="#linearGradient7016"
       y1="42.001678"
       y2="36.55806" />
    <linearGradient
       gradientUnits="userSpaceOnUse"
       id="linearGradient5988"
       inkscape:collect="always"
       x1="11.75"
       x2="19.414213"
       xlink:href="#linearGradient6974"
       y1="19.5"
       y2="57.480076" />
    <linearGradient
       gradientUnits="userSpaceOnUse"
       id="linearGradient6969"
       inkscape:collect="always"
       x1="4.8613591"
       x2="11.22532"
       xlink:href="#linearGradient6963"
       y1="18.034641"
       y2="41.634331" />
    <linearGradient
       id="linearGradient6996"
       inkscape:collect="always">
      <stop
         id="stop6998"
         offset="0"
         style="stop-color:#ffffff;stop-opacity:1;" />
      <stop
         id="stop7000"
         offset="1"
         style="stop-color:#ffffff;stop-opacity:0;" />
    </linearGradient>
    <linearGradient
       gradientTransform="matrix(0.6540615,0,0,0.6270583,-4.6974773,-1.6963369)"
       gradientUnits="userSpaceOnUse"
       id="linearGradient5992"
       inkscape:collect="always"
       x1="14.833632"
       x2="28.37484"
       xlink:href="#linearGradient2790"
       y1="0.52512646"
       y2="52.61792" />
    <linearGradient
       gradientUnits="userSpaceOnUse"
       id="linearGradient7002"
       inkscape:collect="always"
       x1="3.875"
       x2="9.75"
       xlink:href="#linearGradient6996"
       y1="11"
       y2="31.375" />
    <linearGradient
       id="linearGradient6935"
       inkscape:collect="always">
      <stop
         id="stop6937"
         offset="0"
         style="stop-color:#ffffff;stop-opacity:1;" />
      <stop
         id="stop6939"
         offset="1"
         style="stop-color:#ffffff;stop-opacity:0;" />
    </linearGradient>
    <linearGradient
       gradientUnits="userSpaceOnUse"
       id="linearGradient6941"
       inkscape:collect="always"
       x1="1.5"
       x2="5.6649756"
       xlink:href="#linearGradient6935"
       y1="10.125"
       y2="24.550699" />
  </defs>
  <g
     id="layer6"
     inkscape:groupmode="layer"
     inkscape:label="baseplate"
     style="display:none">
    <rect
       height="48"
       id="rect6284"
       inkscape:label="48x48"
       style="fill:#eeeeec;fill-opacity:1;fill-rule:nonzero;stroke:none;stroke-width:2;marker:none;visibility:visible;display:inline;overflow:visible;enable-background:accumulate"
       width="48"
       x="296"
       y="50" />
    <rect
       height="32"
       id="rect6592"
       inkscape:label="32x32"
       style="fill:#eeeeec;fill-opacity:1;fill-rule:nonzero;stroke:none;stroke-width:2;marker:none;visibility:visible;display:inline;overflow:visible;enable-background:accumulate"
       width="32"
       x="303"
       y="126" />
    <rect
       height="22"
       id="rect6749"
       inkscape:label="22x22"
       style="fill:#eeeeec;fill-opacity:1;fill-rule:nonzero;stroke:none;stroke-width:2;marker:none;visibility:visible;display:inline;overflow:visible;enable-background:accumulate"
       width="22"
       x="303"
       y="177" />
    <rect
       height="16"
       id="rect6833"
       inkscape:label="16x16"
       style="fill:#eeeeec;fill-opacity:1;fill-rule:nonzero;stroke:none;stroke-width:2;marker:none;visibility:visible;display:inline;overflow:visible;enable-background:accumulate"
       width="16"
       x="303"
       y="219" />
    <text
       id="context"
       inkscape:label="context"
       style="font-size:18.30070686px;font-style:normal;font-weight:normal;fill:#000000;fill-opacity:1;stroke:none;display:inline;enable-background:new;font-family:Bitstream Vera Sans"
       x="20.970737"
       xml:space="preserve"
       y="21.513618"><tspan
         id="tspan2716"
         sodipodi:role="line"
         x="20.970737"
         y="21.513618">emblems</tspan></text>
    <text
       id="icon-name"
       inkscape:label="icon-name"
       sodipodi:linespacing="125%"
       style="font-size:18.30070686px;font-style:normal;font-variant:normal;font-weight:bold;font-stretch:normal;text-align:start;line-height:125%;writing-mode:lr-tb;text-anchor:start;fill:#000000;fill-opacity:1;stroke:none;display:inline;enable-background:new;font-family:Droid Sans;-inkscape-font-specification:Droid Sans Bold"
       x="191.97073"
       xml:space="preserve"
       y="21.513618"><tspan
         id="tspan3023"
         sodipodi:role="line"
         x="191.97073"
         y="21.513618">emblem-readonly</tspan></text>
  </g>
  <g
     id="layer2"
     inkscape:groupmode="layer"
     inkscape:label="small sizes"
     style="display:inline">
    <g
       id="g48"
       style="display:inline;enable-background:new"
       transform="translate(296,50) scale(1.000000,1.000000)">
      <g
         id="g7028"
         style="opacity:0.2"
         transform="matrix(1.0687465,0,0,1,-1.6499158,0)">
        <rect
           height="5.4419403"
           id="rect6982"
           style="opacity:1;fill:url(#radialGradient7033);fill-opacity:1;fill-rule:evenodd;stroke:none;stroke-width:1;stroke-linecap:round;stroke-linejoin:miter;stroke-miterlimit:4;stroke-dasharray:none;stroke-opacity:1"
           width="6"
           x="36"
           y="36.55806" />
        <rect
           height="5.4419403"
           id="rect7000"
           style="opacity:1;fill:url(#radialGradient7035);fill-opacity:1;fill-rule:evenodd;stroke:none;stroke-width:1;stroke-linecap:round;stroke-linejoin:miter;stroke-miterlimit:4;stroke-dasharray:none;stroke-opacity:1"
           transform="scale(-1,-1)"
           width="6"
           x="-12"
           y="-42" />
        <rect
           height="5.4419403"
           id="rect7008"
           style="opacity:1;fill:url(#linearGradient7037);fill-opacity:1;fill-rule:evenodd;stroke:none;stroke-width:1;stroke-linecap:round;stroke-linejoin:miter;stroke-miterlimit:4;stroke-dasharray:none;stroke-opacity:1"
           width="24"
           x="12"
           y="36.55806" />
      </g>
      <path
         d="M 19.96875,7.5 C 15.828453,7.5 12.5,10.828453 12.5,14.96875 L 12.5,21.5 L 11.5625,21.5 C 10.413064,21.5 9.5,22.413063 9.5,23.5625 L 9.5,37.4375 C 9.5,38.586936 10.413064,39.5 11.5625,39.5 L 36.4375,39.5 C 37.586936,39.5 38.500002,38.586937 38.5,37.4375 L 38.5,23.5625 C 38.5,22.413064 37.586935,21.5 36.4375,21.5 L 35.5,21.5 L 35.5,14.96875 C 35.5,10.828453 32.171548,7.5 28.03125,7.5 L 19.96875,7.5 z M 19.96875,12.5 L 28.03125,12.5 C 29.495074,12.5 30.5,13.504927 30.5,14.96875 L 30.5,21.5 L 17.5,21.5 L 17.5,14.96875 C 17.5,13.504928 18.504928,12.5 19.96875,12.5 z "
         id="rect6904"
         style="opacity:1;fill:url(#linearGradient6962);fill-opacity:1;fill-rule:evenodd;stroke:#888a85;stroke-width:1;stroke-linecap:round;stroke-linejoin:miter;stroke-miterlimit:4;stroke-dasharray:none;stroke-opacity:1" />
      <path
         d="M 19.96875,4.5 C 16.356903,4.5 13.5,7.3569034 13.5,10.96875 L 13.5,17.5 C 13.503777,17.766357 13.399634,18.022911 13.211273,18.211273 C 13.022911,18.399634 12.766357,18.503777 12.5,18.5 L 11.5625,18.5 C 10.935231,18.5 10.5,18.93523 10.5,19.5625 L 10.5,33.4375 C 10.5,34.064769 10.935231,34.5 11.5625,34.5 L 36.4375,34.5 C 37.064769,34.5 37.500001,34.064768 37.5,33.4375 L 37.5,19.5625 C 37.5,18.935232 37.064767,18.5 36.4375,18.5 L 35.5,18.5 C 35.233643,18.503777 34.977089,18.399634 34.788727,18.211273 C 34.600366,18.022911 34.496223,17.766357 34.5,17.5 L 34.5,10.96875 C 34.5,7.3569032 31.643098,4.5 28.03125,4.5 L 19.96875,4.5 z M 19.96875,7.5 L 28.03125,7.5 C 28.988798,7.5 29.869916,7.869916 30.5,8.5 C 31.130084,9.130084 31.5,10.011202 31.5,10.96875 L 31.5,17.5 C 31.503777,17.766357 31.399634,18.022911 31.211273,18.211273 C 31.022911,18.399634 30.766357,18.503777 30.5,18.5 L 17.5,18.5 C 17.233643,18.503777 16.977089,18.399634 16.788727,18.211273 C 16.600366,18.022911 16.496223,17.766357 16.5,17.5 L 16.5,10.96875 C 16.5,10.011202 16.869916,9.1300838 17.5,8.5 C 18.130084,7.8699162 19.011202,7.5 19.96875,7.5 z "
         id="path6970"
         inkscape:original="M 19.96875 3.5 C 15.828453 3.5 12.5 6.8284531 12.5 10.96875 L 12.5 17.5 L 11.5625 17.5 C 10.413064 17.5 9.5 18.413063 9.5 19.5625 L 9.5 33.4375 C 9.5 34.586936 10.413064 35.5 11.5625 35.5 L 36.4375 35.5 C 37.586936 35.5 38.500002 34.586937 38.5 33.4375 L 38.5 19.5625 C 38.5 18.413064 37.586935 17.5 36.4375 17.5 L 35.5 17.5 L 35.5 10.96875 C 35.5 6.8284531 32.171548 3.5 28.03125 3.5 L 19.96875 3.5 z M 19.96875 8.5 L 28.03125 8.5 C 29.495074 8.5 30.5 9.5049271 30.5 10.96875 L 30.5 17.5 L 17.5 17.5 L 17.5 10.96875 C 17.5 9.5049279 18.504928 8.5 19.96875 8.5 z "
         inkscape:radius="-0.98601711"
         sodipodi:type="inkscape:offset"
         style="opacity:1;fill:none;fill-opacity:1;fill-rule:evenodd;stroke:url(#linearGradient6980);stroke-width:1;stroke-linecap:round;stroke-linejoin:miter;stroke-miterlimit:4;stroke-dasharray:none;stroke-opacity:1"
         transform="translate(0,4)" />
    </g>
    <g
       id="g32"
       style="display:inline;enable-background:new"
       transform="translate(303,126) scale(1.000000,1.000000)">
      <g
         id="g63"
         style="opacity:0.2"
         transform="matrix(0.8888889,0,0,0.7794755,-5.333333,-1.2060135)">
        <rect
           height="5.4419403"
           id="rect65"
           style="opacity:1;fill:url(#radialGradient5982);fill-opacity:1;fill-rule:evenodd;stroke:none;stroke-width:1;stroke-linecap:round;stroke-linejoin:miter;stroke-miterlimit:4;stroke-dasharray:none;stroke-opacity:1"
           width="6"
           x="36"
           y="36.55806" />
        <rect
           height="5.4419403"
           id="rect67"
           style="opacity:1;fill:url(#radialGradient5984);fill-opacity:1;fill-rule:evenodd;stroke:none;stroke-width:1;stroke-linecap:round;stroke-linejoin:miter;stroke-miterlimit:4;stroke-dasharray:none;stroke-opacity:1"
           transform="scale(-1,-1)"
           width="6"
           x="-12"
           y="-42" />
        <rect
           height="5.4419403"
           id="rect69"
           style="opacity:1;fill:url(#linearGradient5986);fill-opacity:1;fill-rule:evenodd;stroke:none;stroke-width:1;stroke-linecap:round;stroke-linejoin:miter;stroke-miterlimit:4;stroke-dasharray:none;stroke-opacity:1"
           width="24"
           x="12"
           y="36.55806" />
      </g>
      <path
         d="M 13.208305,2.5 C 9.5055371,2.5 6.528821,5.3083822 6.528821,8.8017577 L 6.528821,14.5 L 5.4091421,14.5 C 4.3811736,14.5 3.5645984,15.270397 3.5645984,16.240234 L 3.5645984,27.759765 C 3.5645984,28.729602 4.3811736,29.499999 5.4091421,29.499999 L 26.655457,29.499999 C 27.683425,29.499999 28.500002,28.729603 28.5,27.759765 L 28.5,16.240234 C 28.5,15.270397 27.683424,14.5 26.655457,14.5 L 25.535778,14.5 L 25.535778,8.8017577 C 25.535778,5.3083822 22.559062,2.5 18.856294,2.5 L 13.208305,2.5 z M 12.708305,6.5312499 L 19.293794,6.5312499 C 20.602927,6.5312499 21.501657,7.379157 21.501657,8.6142577 L 21.501657,14.5 L 10.500442,14.5 L 10.500442,8.6142577 C 10.500442,7.3791579 11.399173,6.5312499 12.708305,6.5312499 z "
         id="path71"
         sodipodi:nodetypes="cccccccccccccccccccccc"
         style="fill:url(#linearGradient5976);fill-opacity:1;fill-rule:evenodd;stroke:#888a85;stroke-width:0.99999994;stroke-linecap:round;stroke-linejoin:miter;stroke-miterlimit:4;stroke-dasharray:none;stroke-opacity:1" />
      <path
         d="M 19.96875,4.5 C 16.356903,4.5 13.5,7.3569034 13.5,10.96875 L 13.5,17.5 C 13.503777,17.766357 13.399634,18.022911 13.211273,18.211273 C 13.022911,18.399634 12.766357,18.503777 12.5,18.5 L 11.5625,18.5 C 10.935231,18.5 10.5,18.93523 10.5,19.5625 L 10.5,33.4375 C 10.5,34.064769 10.935231,34.5 11.5625,34.5 L 36.4375,34.5 C 37.064769,34.5 37.500001,34.064768 37.5,33.4375 L 37.5,19.5625 C 37.5,18.935232 37.064767,18.5 36.4375,18.5 L 35.5,18.5 C 35.233643,18.503777 34.977089,18.399634 34.788727,18.211273 C 34.600366,18.022911 34.496223,17.766357 34.5,17.5 L 34.5,10.96875 C 34.5,7.3569032 31.643098,4.5 28.03125,4.5 L 19.96875,4.5 z M 19.96875,7.5 L 28.03125,7.5 C 28.988798,7.5 29.869916,7.869916 30.5,8.5 C 31.130084,9.130084 31.5,10.011202 31.5,10.96875 L 31.5,17.5 C 31.503777,17.766357 31.399634,18.022911 31.211273,18.211273 C 31.022911,18.399634 30.766357,18.503777 30.5,18.5 L 17.5,18.5 C 17.233643,18.503777 16.977089,18.399634 16.788727,18.211273 C 16.600366,18.022911 16.496223,17.766357 16.5,17.5 L 16.5,10.96875 C 16.5,10.011202 16.869916,9.1300838 17.5,8.5 C 18.130084,7.8699162 19.011202,7.5 19.96875,7.5 z "
         id="path73"
         inkscape:original="M 19.96875 3.5 C 15.828453 3.5 12.5 6.8284531 12.5 10.96875 L 12.5 17.5 L 11.5625 17.5 C 10.413064 17.5 9.5 18.413063 9.5 19.5625 L 9.5 33.4375 C 9.5 34.586936 10.413064 35.5 11.5625 35.5 L 36.4375 35.5 C 37.586936 35.5 38.500002 34.586937 38.5 33.4375 L 38.5 19.5625 C 38.5 18.413064 37.586935 17.5 36.4375 17.5 L 35.5 17.5 L 35.5 10.96875 C 35.5 6.8284531 32.171548 3.5 28.03125 3.5 L 19.96875 3.5 z M 19.96875 8.5 L 28.03125 8.5 C 29.495074 8.5 30.5 9.5049271 30.5 10.96875 L 30.5 17.5 L 17.5 17.5 L 17.5 10.96875 C 17.5 9.5049279 18.504928 8.5 19.96875 8.5 z "
         inkscape:radius="-0.98601711"
         sodipodi:type="inkscape:offset"
         style="fill:none;fill-opacity:1;fill-rule:evenodd;stroke:url(#linearGradient5988);stroke-width:1.15591836;stroke-linecap:round;stroke-linejoin:miter;stroke-miterlimit:4;stroke-dasharray:none;stroke-opacity:1"
         transform="matrix(0.8943242,0,0,0.8368559,64.068519,-1.3715272)" />
      <path
         d="M 13.21875,2.53125 C 10.03191,2.53125 7.5625,4.8981019 7.5625,7.8125 L 7.5625,13.5 C 7.5664971,13.77471 7.4591319,14.039342 7.2648618,14.233612 C 7.0705917,14.427882 6.8059604,14.535247 6.53125,14.53125 L 5.40625,14.53125 C 4.8925705,14.53125 4.59375,14.850166 4.59375,15.25 L 4.59375,26.75 C 4.59375,27.149833 4.8925711,27.46875 5.40625,27.46875 L 26.65625,27.46875 C 27.169928,27.46875 27.468751,27.149833 27.46875,26.75 L 27.46875,15.25 C 27.46875,14.850166 27.169927,14.53125 26.65625,14.53125 L 25.53125,14.53125 C 25.25654,14.535247 24.991908,14.427882 24.797638,14.233612 C 24.603368,14.039342 24.496003,13.77471 24.5,13.5 L 24.5,7.8125 C 24.5,4.8981019 22.03059,2.53125 18.84375,2.53125 L 13.21875,2.53125 z M 12.71875,4.5 L 19.28125,4.5 C 21.034843,4.4999999 22.53125,5.890833 22.53125,7.625 L 22.53125,13.5 C 22.535247,13.77471 22.427882,14.039342 22.233612,14.233612 C 22.039342,14.427882 21.77471,14.535247 21.5,14.53125 L 10.5,14.53125 C 10.22529,14.535247 9.9606583,14.427882 9.7663882,14.233612 C 9.5721181,14.039342 9.4647529,13.77471 9.46875,13.5 L 9.46875,7.625 C 9.46875,5.8908334 10.965156,4.5 12.71875,4.5 z "
         id="path6961"
         inkscape:original="M 13.21875 1.5 C 9.5159817 1.5 6.53125 4.3191245 6.53125 7.8125 L 6.53125 13.5 L 5.40625 13.5 C 4.3782816 13.5 3.5625 14.280163 3.5625 15.25 L 3.5625 26.75 C 3.5625001 27.719836 4.3782815 28.5 5.40625 28.5 L 26.65625 28.5 C 27.684218 28.500001 28.500002 27.719838 28.5 26.75 L 28.5 15.25 C 28.5 14.280163 27.684217 13.5 26.65625 13.5 L 25.53125 13.5 L 25.53125 7.8125 C 25.53125 4.3191244 22.546518 1.5 18.84375 1.5 L 13.21875 1.5 z M 12.71875 5.53125 L 19.28125 5.53125 C 20.590382 5.5312499 21.5 6.3898993 21.5 7.625 L 21.5 13.5 L 10.5 13.5 L 10.5 7.625 C 10.5 6.3899001 11.409618 5.53125 12.71875 5.53125 z "
         inkscape:radius="-1.016466"
         sodipodi:type="inkscape:offset"
         style="fill:none;fill-opacity:1;fill-rule:evenodd;stroke:url(#linearGradient6969);stroke-width:0.99999994;stroke-linecap:round;stroke-linejoin:miter;stroke-miterlimit:4;stroke-dasharray:none;stroke-opacity:1"
         transform="translate(0,1)" />
    </g>
    <g
       id="g22"
       style="display:inline;enable-background:new"
       transform="translate(303,177) scale(1.000000,1.000000)">
      <g
         id="g77"
         style="opacity:0.25"
         transform="matrix(0.6454843,0,0,0.6086987,-4.4916245,-4.2528442)">
        <rect
           height="5.4419403"
           id="rect79"
           style="opacity:1;fill:url(#radialGradient7033);fill-opacity:1;fill-rule:evenodd;stroke:none;stroke-width:1;stroke-linecap:round;stroke-linejoin:miter;stroke-miterlimit:4;stroke-dasharray:none;stroke-opacity:1"
           width="6"
           x="36"
           y="36.55806" />
        <rect
           height="5.4419403"
           id="rect81"
           style="opacity:1;fill:url(#radialGradient7035);fill-opacity:1;fill-rule:evenodd;stroke:none;stroke-width:1;stroke-linecap:round;stroke-linejoin:miter;stroke-miterlimit:4;stroke-dasharray:none;stroke-opacity:1"
           transform="scale(-1,-1)"
           width="6"
           x="-12"
           y="-42" />
        <rect
           height="5.4419403"
           id="rect83"
           style="opacity:1;fill:url(#linearGradient7037);fill-opacity:1;fill-rule:evenodd;stroke:none;stroke-width:1;stroke-linecap:round;stroke-linejoin:miter;stroke-miterlimit:4;stroke-dasharray:none;stroke-opacity:1"
           width="24"
           x="12"
           y="36.55806" />
      </g>
      <path
         d="M 9.3633133,1.4983671 C 6.6553044,1.4983671 4.4782914,3.5855012 4.4782914,6.1817088 L 4.4782914,9.527183 L 3.8651088,9.527183 C 3.113307,9.527183 2.5161069,10.099727 2.5161069,10.820491 L 2.5161069,18.270925 C 2.5161069,18.991688 3.113307,19.564233 3.8651088,19.564233 L 18.134889,19.564233 C 18.88669,19.564233 19.483892,18.991689 19.48389,18.270925 L 19.48389,10.820491 C 19.48389,10.099728 18.88669,9.527183 18.134889,9.527183 L 17.521706,9.527183 L 17.521706,6.1817088 C 17.521706,3.5855012 15.344694,1.4983671 12.636684,1.4983671 L 9.3633133,1.4983671 z M 9.1445633,4.5086587 L 12.886684,4.5086587 C 13.844115,4.5086587 14.501398,5.1388065 14.501398,6.0567088 L 14.501398,9.527183 L 7.5298489,9.527183 L 7.5298489,6.0567088 C 7.5298489,5.1388071 8.1871337,4.5086587 9.1445633,4.5086587 z "
         id="path5964"
         sodipodi:nodetypes="cccccccccccccccccccccc"
         style="fill:url(#linearGradient5992);fill-opacity:1;fill-rule:evenodd;stroke:#888a85;stroke-width:0.99999988;stroke-linecap:round;stroke-linejoin:miter;stroke-miterlimit:4;stroke-dasharray:none;stroke-opacity:1" />
      <path
         d="M 9.375,2.5 C 7.1818327,2.5 5.46875,4.1557674 5.46875,6.1875 L 5.46875,9.53125 C 5.4686948,10.083512 5.0210119,10.531195 4.46875,10.53125 L 3.875,10.53125 C 3.620213,10.53125 3.53125,10.639255 3.53125,10.8125 L 3.53125,18.28125 C 3.53125,18.454491 3.6202154,18.5625 3.875,18.5625 L 18.125,18.5625 C 18.379785,18.5625 18.46875,18.45449 18.46875,18.28125 L 18.46875,10.8125 C 18.46875,10.639256 18.379784,10.53125 18.125,10.53125 L 17.53125,10.53125 C 16.978988,10.531195 16.531305,10.083512 16.53125,9.53125 L 16.53125,6.1875 C 16.53125,4.155767 14.818169,2.5 12.625,2.5 L 9.375,2.5 z "
         id="path6992"
         inkscape:original="M 9.375 1.5 C 6.6669913 1.5 4.46875 3.5912924 4.46875 6.1875 L 4.46875 9.53125 L 3.875 9.53125 C 3.123198 9.5312504 2.53125 10.091736 2.53125 10.8125 L 2.53125 18.28125 C 2.5312499 19.002012 3.123198 19.5625 3.875 19.5625 L 18.125 19.5625 C 18.8768 19.562499 19.468752 19.002014 19.46875 18.28125 L 19.46875 10.8125 C 19.468749 10.091737 18.876801 9.53125 18.125 9.53125 L 17.53125 9.53125 L 17.53125 6.1875 C 17.53125 3.5912924 15.33301 1.5 12.625 1.5 L 9.375 1.5 z "
         inkscape:radius="-1"
         sodipodi:type="inkscape:offset"
         style="fill:none;fill-opacity:1.0;fill-rule:evenodd;stroke:url(#linearGradient7002);stroke-width:0.99999988;stroke-linecap:round;stroke-linejoin:miter;stroke-miterlimit:4;stroke-dasharray:none;stroke-opacity:1" />
      <rect
         height="1.03125"
         id="rect7004"
         style="opacity:1;fill:#ffffff;fill-opacity:1;fill-rule:evenodd;stroke:none;stroke-width:1;stroke-linecap:round;stroke-linejoin:miter;stroke-miterlimit:4;stroke-dasharray:none;stroke-opacity:1"
         width="8"
         x="7"
         y="10" />
    </g>
    <g
       id="g16"
       style="display:inline;enable-background:new"
       transform="translate(303,219) scale(1.000000,1.000000)">
      <path
         d="M 7.363313,0.4983671 C 4.655304,0.4983671 2.478291,2.5855012 2.478291,5.1817088 L 2.478291,7.527183 L 1.865109,7.527183 C 1.113307,7.527183 0.516107,8.099727 0.516107,8.820491 L 0.516107,14.270925 C 0.516107,14.991688 1.113307,15.564233 1.865109,15.564233 L 14.134889,15.564233 C 14.88669,15.564233 15.483892,14.991689 15.48389,14.270925 L 15.48389,8.820491 C 15.48389,8.099728 14.88669,7.527183 14.134889,7.527183 L 13.521706,7.527183 L 13.521706,5.1817088 C 13.521706,2.5855012 11.344694,0.4983671 8.636684,0.4983671 L 7.363313,0.4983671 z M 7.144563,3.5086587 L 8.886684,3.5086587 C 9.844115,3.5086587 10.501398,4.1388065 10.501398,5.0567088 L 10.501398,7.527183 L 5.529849,7.527183 L 5.529849,5.0567088 C 5.529849,4.1388071 6.187134,3.5086587 7.144563,3.5086587 z "
         id="path89"
         sodipodi:nodetypes="cccccccccccccccccccccc"
         style="fill:url(#linearGradient5992);fill-opacity:1;fill-rule:evenodd;stroke:#888a85;stroke-width:0.99999988;stroke-linecap:round;stroke-linejoin:miter;stroke-miterlimit:4;stroke-dasharray:none;stroke-opacity:1" />
      <path
         d="M 7.375,1.5 C 5.1818321,1.5 3.46875,3.1557672 3.46875,5.1875 L 3.46875,7.53125 C 3.4686948,8.0835119 3.0210119,8.5311948 2.46875,8.53125 L 1.875,8.53125 C 1.6202138,8.53125 1.53125,8.639255 1.53125,8.8125 L 1.53125,14.28125 C 1.53125,14.454493 1.6202145,14.5625 1.875,14.5625 L 14.125,14.5625 C 14.379785,14.5625 14.46875,14.454491 14.46875,14.28125 L 14.46875,8.8125 C 14.46875,8.6392581 14.379784,8.53125 14.125,8.53125 L 13.53125,8.53125 C 12.978988,8.5311948 12.531305,8.0835119 12.53125,7.53125 L 12.53125,5.1875 C 12.53125,3.155767 10.818169,1.5 8.625,1.5 L 7.375,1.5 z "
         id="path6931"
         inkscape:original="M 7.375 0.5 C 4.6669908 0.5 2.46875 2.5912924 2.46875 5.1875 L 2.46875 7.53125 L 1.875 7.53125 C 1.123198 7.5312499 0.53125 8.091736 0.53125 8.8125 L 0.53125 14.28125 C 0.53124998 15.002013 1.123198 15.5625 1.875 15.5625 L 14.125 15.5625 C 14.876801 15.5625 15.468752 15.002014 15.46875 14.28125 L 15.46875 8.8125 C 15.46875 8.0917372 14.876801 7.53125 14.125 7.53125 L 13.53125 7.53125 L 13.53125 5.1875 C 13.53125 2.5912924 11.33301 0.5 8.625 0.5 L 7.375 0.5 z "
         inkscape:radius="-1"
         sodipodi:type="inkscape:offset"
         style="fill:none;fill-opacity:1.0;fill-rule:evenodd;stroke:url(#linearGradient6941);stroke-width:0.99999988;stroke-linecap:round;stroke-linejoin:miter;stroke-miterlimit:4;stroke-dasharray:none;stroke-opacity:1" />
      <rect
         height="1"
         id="rect6933"
         style="opacity:1;fill:#ffffff;fill-opacity:1;fill-rule:evenodd;stroke:none;stroke-width:1;stroke-linecap:round;stroke-linejoin:miter;stroke-miterlimit:4;stroke-dasharray:none;stroke-opacity:1"
         width="6"
         x="5"
         y="8" />
    </g>
  </g>
  <g
     id="layer4"
     inkscape:groupmode="layer"
     inkscape:label="hires"
     style="display:inline" />
</svg>
