<?xml version="1.0" encoding="UTF-8" standalone="no"?>
<!-- Created with Inkscape (http://www.inkscape.org/) -->
<svg
   xmlns:dc="http://purl.org/dc/elements/1.1/"
   xmlns:cc="http://creativecommons.org/ns#"
   xmlns:rdf="http://www.w3.org/1999/02/22-rdf-syntax-ns#"
   xmlns:svg="http://www.w3.org/2000/svg"
   xmlns="http://www.w3.org/2000/svg"
   xmlns:xlink="http://www.w3.org/1999/xlink"
   xmlns:sodipodi="http://sodipodi.sourceforge.net/DTD/sodipodi-0.dtd"
   xmlns:inkscape="http://www.inkscape.org/namespaces/inkscape"
   height="300"
   id="svg11300"
   inkscape:export-filename="/home/jimmac/Desktop/wi-fi.png"
   inkscape:export-xdpi="90.000000"
   inkscape:export-ydpi="90.000000"
   inkscape:output_extension="org.inkscape.output.svg.inkscape"
   inkscape:version="0.46"
   sodipodi:docname="format-text-underline.svg"
   sodipodi:version="0.32"
   style="display:inline;enable-background:new"
   version="1.0"
   width="400">
  <title
     id="title8836">Optical Drive</title>
  <metadata
     id="metadata154">
    <rdf:RDF>
      <cc:Work
         rdf:about="">
        <dc:format>image/svg+xml</dc:format>
        <dc:type
           rdf:resource="http://purl.org/dc/dcmitype/StillImage" />
        <dc:title />
        <dc:creator>
          <cc:Agent>
            <dc:title />
          </cc:Agent>
        </dc:creator>
        <dc:contributor>
          <cc:Agent>
            <dc:title />
          </cc:Agent>
        </dc:contributor>
        <dc:source />
        <cc:license
           rdf:resource="" />
        <dc:subject>
          <rdf:Bag />
        </dc:subject>
      </cc:Work>
    </rdf:RDF>
  </metadata>
  <sodipodi:namedview
     bordercolor="#666666"
     borderopacity="0.25490196"
     fill="#f57900"
     gridtolerance="12"
     guidetolerance="13"
     height="300px"
     id="base"
     inkscape:current-layer="layer6"
     inkscape:cx="144.68008"
     inkscape:cy="87.105301"
     inkscape:document-units="px"
     inkscape:grid-bbox="true"
     inkscape:guide-bbox="true"
     inkscape:pageopacity="0.0"
     inkscape:pageshadow="2"
     inkscape:showpageshadow="false"
     inkscape:snap-bbox="true"
     inkscape:snap-nodes="true"
     inkscape:window-height="876"
     inkscape:window-width="968"
     inkscape:window-x="132"
     inkscape:window-y="8"
     inkscape:zoom="1"
     objecttolerance="7"
     pagecolor="#ffffff"
     showgrid="false"
     showguides="true"
     stroke="#ef2929"
     width="400px">
    <inkscape:grid
       empspacing="2"
       enabled="true"
       id="grid5883"
       spacingx="0.5px"
       spacingy="0.5px"
       type="xygrid"
       visible="true" />
  </sodipodi:namedview>
  <defs
     id="defs3">
    <linearGradient
       id="linearGradient4348"
       inkscape:collect="always">
      <stop
         id="stop4350"
         offset="0"
         style="stop-color:#ffffff;stop-opacity:1;" />
      <stop
         id="stop4352"
         offset="1"
         style="stop-color:#ffffff;stop-opacity:0;" />
    </linearGradient>
    <linearGradient
       id="linearGradient4309"
       inkscape:collect="always">
      <stop
         id="stop4311"
         offset="0"
         style="stop-color:#ffffff;stop-opacity:1;" />
      <stop
         id="stop4313"
         offset="1"
         style="stop-color:#ffffff;stop-opacity:0;" />
    </linearGradient>
    <linearGradient
       id="linearGradient4301"
       inkscape:collect="always">
      <stop
         id="stop4303"
         offset="0"
         style="stop-color:#ffffff;stop-opacity:1;" />
      <stop
         id="stop4305"
         offset="1"
         style="stop-color:#ffffff;stop-opacity:0;" />
    </linearGradient>
    <linearGradient
       id="linearGradient4293"
       inkscape:collect="always">
      <stop
         id="stop4295"
         offset="0"
         style="stop-color:#ffffff;stop-opacity:1;" />
      <stop
         id="stop4297"
         offset="1"
         style="stop-color:#ffffff;stop-opacity:0;" />
    </linearGradient>
    <linearGradient
       id="linearGradient4285"
       inkscape:collect="always">
      <stop
         id="stop4287"
         offset="0"
         style="stop-color:#ffffff;stop-opacity:1;" />
      <stop
         id="stop4289"
         offset="1"
         style="stop-color:#ffffff;stop-opacity:0;" />
    </linearGradient>
    <linearGradient
       id="linearGradient4207"
       inkscape:collect="always">
      <stop
         id="stop4209"
         offset="0"
         style="stop-color:#555753;stop-opacity:1;" />
      <stop
         id="stop4211"
         offset="1"
         style="stop-color:#888a85;stop-opacity:1" />
    </linearGradient>
    <linearGradient
       id="linearGradient4176"
       inkscape:collect="always">
      <stop
         id="stop4178"
         offset="0"
         style="stop-color:#000000;stop-opacity:1;" />
      <stop
         id="stop4180"
         offset="1"
         style="stop-color:#000000;stop-opacity:0;" />
    </linearGradient>
    <linearGradient
       id="linearGradient2512">
      <stop
         id="stop2514"
         offset="0"
         style="stop-color:#babdb6;stop-opacity:1" />
      <stop
         id="stop2516"
         offset="1"
         style="stop-color:#555753;stop-opacity:1" />
    </linearGradient>
    <radialGradient
       cx="24.174213"
       cy="38.763416"
       fx="24.174213"
       fy="38.763416"
       gradientTransform="matrix(1,0,0,0.2326044,0,29.746876)"
       gradientUnits="userSpaceOnUse"
       id="radialGradient5706"
       inkscape:collect="always"
       r="22.22967"
       xlink:href="#linearGradient4176" />
    <linearGradient
       gradientTransform="translate(1,0)"
       gradientUnits="userSpaceOnUse"
       id="linearGradient5708"
       inkscape:collect="always"
       x1="28.75"
       x2="34.5"
       xlink:href="#linearGradient4207"
       y1="17.25"
       y2="57" />
    <linearGradient
       gradientTransform="translate(1,0)"
       gradientUnits="userSpaceOnUse"
       id="linearGradient5710"
       inkscape:collect="always"
       x1="22.75"
       x2="18.625"
       xlink:href="#linearGradient4301"
       y1="36.125"
       y2="19" />
    <radialGradient
       cx="21.40613"
       cy="8.5665998"
       fx="21.40613"
       fy="8.5665998"
       gradientTransform="matrix(3.3627251,0,0,2.1931621,-50.750694,-14.716108)"
       gradientUnits="userSpaceOnUse"
       id="radialGradient5712"
       inkscape:collect="always"
       r="11"
       xlink:href="#linearGradient4285" />
    <radialGradient
       cx="13.499985"
       cy="22.762897"
       fx="13.499985"
       fy="22.762897"
       gradientTransform="matrix(1.6866958,0,0,1.2901137,-8.2703838,-6.0386027)"
       gradientUnits="userSpaceOnUse"
       id="radialGradient5714"
       inkscape:collect="always"
       r="10.000016"
       xlink:href="#linearGradient4293" />
    <linearGradient
       gradientTransform="translate(1,0)"
       gradientUnits="userSpaceOnUse"
       id="linearGradient5716"
       inkscape:collect="always"
       x1="35.875"
       x2="32.4375"
       xlink:href="#linearGradient4309"
       y1="36.5625"
       y2="36.25" />
    <linearGradient
       gradientTransform="translate(60,50)"
       gradientUnits="userSpaceOnUse"
       id="linearGradient5718"
       inkscape:collect="always"
       x1="23.625"
       x2="22.457119"
       xlink:href="#linearGradient2512"
       y1="49.3125"
       y2="37.938366" />
    <linearGradient
       gradientTransform="translate(60,47)"
       gradientUnits="userSpaceOnUse"
       id="linearGradient5720"
       inkscape:collect="always"
       x1="20.155684"
       x2="20.155684"
       xlink:href="#linearGradient4348"
       y1="43.910683"
       y2="46" />
    <linearGradient
       gradientTransform="matrix(0.676554,0,0,0.7507059,59.435144,-3.1528772)"
       gradientUnits="userSpaceOnUse"
       id="linearGradient4482"
       inkscape:collect="always"
       x1="23.625"
       x2="22.457119"
       xlink:href="#linearGradient2512"
       y1="49.3125"
       y2="37.938366" />
    <linearGradient
       gradientTransform="matrix(0.6666654,0,0,0.6526182,60.988495,-1.5888133)"
       gradientUnits="userSpaceOnUse"
       id="linearGradient4484"
       inkscape:collect="always"
       x1="28.75"
       x2="34.5"
       xlink:href="#linearGradient4207"
       y1="17.25"
       y2="57" />
    <linearGradient
       gradientTransform="matrix(0.6666654,0,0,0.6526182,60.988495,-1.5888133)"
       gradientUnits="userSpaceOnUse"
       id="linearGradient4486"
       inkscape:collect="always"
       x1="28.75"
       x2="34.5"
       xlink:href="#linearGradient4207"
       y1="17.25"
       y2="57" />
    <radialGradient
       cx="21.40613"
       cy="8.5665998"
       fx="21.40613"
       fy="8.5665998"
       gradientTransform="matrix(2.2380227,0,0,1.4157024,26.426801,-10.832181)"
       gradientUnits="userSpaceOnUse"
       id="radialGradient4488"
       inkscape:collect="always"
       r="11"
       xlink:href="#linearGradient4285" />
    <radialGradient
       cx="13.499985"
       cy="22.762897"
       fx="13.499985"
       fy="22.762897"
       gradientTransform="matrix(1.1522034,0,0,0.858583,54.687031,-6.0821237)"
       gradientUnits="userSpaceOnUse"
       id="radialGradient4490"
       inkscape:collect="always"
       r="10.000016"
       xlink:href="#linearGradient4293" />
    <linearGradient
       gradientTransform="matrix(0.688263,0,0,0.6736704,60.872962,-2.6562397)"
       gradientUnits="userSpaceOnUse"
       id="linearGradient4492"
       inkscape:collect="always"
       x1="22.75"
       x2="18.625"
       xlink:href="#linearGradient4301"
       y1="36.125"
       y2="19" />
    <linearGradient
       gradientTransform="matrix(0.5026028,0,0,0.6526182,66.133026,-1.3231883)"
       gradientUnits="userSpaceOnUse"
       id="linearGradient4494"
       inkscape:collect="always"
       x1="35.875"
       x2="32.4375"
       xlink:href="#linearGradient4309"
       y1="36.5625"
       y2="36.25" />
    <radialGradient
       cx="24.174213"
       cy="38.763416"
       fx="24.174213"
       fy="38.763416"
       gradientTransform="matrix(1,0,0,0.2326044,0,29.746876)"
       gradientUnits="userSpaceOnUse"
       id="radialGradient4496"
       inkscape:collect="always"
       r="22.22967"
       xlink:href="#linearGradient4176" />
    <linearGradient
       id="linearGradient3787"
       inkscape:collect="always">
      <stop
         id="stop3789"
         offset="0"
         style="stop-color:#000000;stop-opacity:1" />
      <stop
         id="stop3791"
         offset="1"
         style="stop-color:#000000;stop-opacity:0" />
    </linearGradient>
    <linearGradient
       id="linearGradient3185"
       inkscape:collect="always">
      <stop
         id="stop3187"
         offset="0"
         style="stop-color:#888a85;stop-opacity:1" />
      <stop
         id="stop3189"
         offset="1"
         style="stop-color:#555753;stop-opacity:1" />
    </linearGradient>
    <linearGradient
       id="linearGradient4256"
       inkscape:collect="always">
      <stop
         id="stop4258"
         offset="0"
         style="stop-color:#ffffff;stop-opacity:1;" />
      <stop
         id="stop4260"
         offset="1"
         style="stop-color:#ffffff;stop-opacity:0;" />
    </linearGradient>
    <linearGradient
       gradientUnits="userSpaceOnUse"
       id="linearGradient3809"
       inkscape:collect="always"
       x1="7.2478447"
       x2="12.993087"
       xlink:href="#linearGradient4256"
       y1="6.3656702"
       y2="16.751301" />
    <radialGradient
       cx="3.8879435"
       cy="14.134427"
       fx="3.8879435"
       fy="14.134427"
       gradientTransform="matrix(1.1706733,6.11754e-6,0,0.4155624,62.41864,-17.378912)"
       gradientUnits="userSpaceOnUse"
       id="radialGradient3813"
       inkscape:collect="always"
       r="7"
       xlink:href="#linearGradient3185" />
    <radialGradient
       cx="11.03125"
       cy="17.125"
       fx="11.03125"
       fy="17.125"
       gradientTransform="matrix(1,0,0,0.2730159,0,12.449603)"
       gradientUnits="userSpaceOnUse"
       id="radialGradient3817"
       inkscape:collect="always"
       r="9.84375"
       xlink:href="#linearGradient3787" />
    <radialGradient
       cx="3.8879435"
       cy="14.134427"
       fx="3.8879435"
       fy="14.134427"
       gradientTransform="matrix(1.1706733,6.11754e-6,0,0.4155624,59.41864,-51.378912)"
       gradientUnits="userSpaceOnUse"
       id="radialGradient3640"
       inkscape:collect="always"
       r="7"
       xlink:href="#linearGradient3185" />
    <linearGradient
       gradientTransform="translate(-59.984835,-4.0298118)"
       gradientUnits="userSpaceOnUse"
       id="linearGradient3648"
       inkscape:collect="always"
       x1="7.2478447"
       x2="12.993087"
       xlink:href="#linearGradient4256"
       y1="6.3656702"
       y2="16.751301" />
    <linearGradient
       gradientTransform="translate(-59.984835,-4.0298118)"
       gradientUnits="userSpaceOnUse"
       id="linearGradient3650"
       inkscape:collect="always"
       x1="8.2643108"
       x2="4.7950678"
       xlink:href="#linearGradient4256"
       y1="14.541593"
       y2="10.431535" />
  </defs>
  <g
     id="layer6"
     inkscape:groupmode="layer"
     inkscape:label="baseplate"
     style="display:none">
    <rect
       height="48"
       id="rect6284"
       inkscape:label="48x48"
       style="fill:#eeeeec;fill-opacity:1;fill-rule:nonzero;stroke:none;stroke-width:2;marker:none;visibility:visible;display:inline;overflow:visible;enable-background:accumulate"
       width="48"
       x="296"
       y="50" />
    <rect
       height="32"
       id="rect6592"
       inkscape:label="32x32"
       style="fill:#eeeeec;fill-opacity:1;fill-rule:nonzero;stroke:none;stroke-width:2;marker:none;visibility:visible;display:inline;overflow:visible;enable-background:accumulate"
       width="32"
       x="303"
       y="126" />
    <rect
       height="22"
       id="rect6749"
       inkscape:label="22x22"
       style="fill:#eeeeec;fill-opacity:1;fill-rule:nonzero;stroke:none;stroke-width:2;marker:none;visibility:visible;display:inline;overflow:visible;enable-background:accumulate"
       width="22"
       x="303"
       y="177" />
    <rect
       height="16"
       id="rect6833"
       inkscape:label="16x16"
       style="fill:#eeeeec;fill-opacity:1;fill-rule:nonzero;stroke:none;stroke-width:2;marker:none;visibility:visible;display:inline;overflow:visible;enable-background:accumulate"
       width="16"
       x="303"
       y="219" />
    <text
       id="context"
       inkscape:label="context"
       style="font-size:18.30070686px;font-style:normal;font-weight:normal;fill:#000000;fill-opacity:1;stroke:none;display:inline;enable-background:new;font-family:Bitstream Vera Sans"
       x="20.970737"
       xml:space="preserve"
       y="21.513618"><tspan
         id="tspan2716"
         sodipodi:role="line"
         x="20.970737"
         y="21.513618">actions</tspan></text>
    <text
       id="icon-name"
       inkscape:label="icon-name"
       sodipodi:linespacing="125%"
       style="font-size:18.30070686px;font-style:normal;font-variant:normal;font-weight:bold;font-stretch:normal;text-align:start;line-height:125%;writing-mode:lr-tb;text-anchor:start;fill:#000000;fill-opacity:1;stroke:none;display:inline;enable-background:new;font-family:Droid Sans;-inkscape-font-specification:Droid Sans Bold"
       x="191.97073"
       xml:space="preserve"
       y="21.513618"><tspan
         id="tspan3023"
         sodipodi:role="line"
         x="191.97073"
         y="21.513618">format-text-underline</tspan></text>
  </g>
  <g
     id="layer2"
     inkscape:groupmode="layer"
     inkscape:label="small sizes"
     style="display:inline">
    <g
       id="g48"
       style="display:inline;enable-background:new"
       transform="translate(296,50) scale(1.000000,1.000000)">
      <g
         id="g5639"
         inkscape:export-filename="/home/lapo/Desktop/format-text.png"
         inkscape:export-xdpi="90"
         inkscape:export-ydpi="90"
         transform="translate(-60,0)">
        <path
           d="M 46.403883 38.763416 A 22.22967 5.1707182 0 1 1  1.9445438,38.763416 A 22.22967 5.1707182 0 1 1  46.403883 38.763416 z"
           id="path4319"
           sodipodi:cx="24.174213"
           sodipodi:cy="38.763416"
           sodipodi:rx="22.22967"
           sodipodi:ry="5.1707182"
           sodipodi:type="arc"
           style="opacity:0.5;color:#000000;fill:url(#radialGradient5706);fill-opacity:1;fill-rule:nonzero;stroke:none;stroke-width:1;stroke-linecap:round;stroke-linejoin:round;marker:none;marker-start:none;marker-mid:none;marker-end:none;stroke-miterlimit:4;stroke-dasharray:none;stroke-dashoffset:0;stroke-opacity:0.96078431;visibility:visible;display:inline;overflow:visible;enable-background:accumulate"
           transform="matrix(0.9439427,0,0,0.9669836,61.19739,5.016412)" />
        <g
           id="g4323"
           transform="translate(60,-3)">
          <path
             d="M 29,29.273427 L 29,23 L 22.82688,23.040567 C 18.12479,22.945541 15.762603,25.257574 15.524182,29.755565 C 15.511215,34.006726 18.196753,36.587167 22.314882,36.850131 C 26.854217,36.803026 28.827163,33.394704 29,29.273427 M 34,19.573578 L 34,36 L 38,36 L 38,39 L 29,38.985299 L 29,35.720357 C 26.940182,38.763206 23.923026,39.86992 20.374683,40 C 14.027853,40.007401 10.376826,35.827599 10,29.755565 C 10.04646,22.489294 15.834662,20.199049 22.260988,19.890697 L 29,19.85013 L 29,17.5 C 29.029267,12.769881 25.97336,10.257857 21.5,10 C 17.640478,9.948142 15.746665,12.362586 15,16 L 12,16 L 12,9.6708235 C 13.724616,8.8662144 15.605015,8.0107027 17.221857,7.6181644 C 18.856644,7.206064 20.446529,6.9999979 21.991516,6.9999658 C 29.981122,6.9161882 33.601803,12.111819 34,19.573578"
             id="path4205"
             sodipodi:nodetypes="cccccccccccccccccccccccc"
             style="font-size:57.68214035px;font-style:normal;font-weight:bold;fill:#555753;fill-opacity:1;stroke:#2e3436;stroke-width:2;stroke-linecap:butt;stroke-linejoin:round;stroke-miterlimit:4;stroke-dasharray:none;stroke-opacity:1;display:inline;font-family:Bitstream Vera Serif" />
          <path
             d="M 29,29.273427 L 29,23 L 22.82688,23.040567 C 18.12479,22.945541 15.762603,25.257574 15.524182,29.755565 C 15.511215,34.006726 18.196753,36.587167 22.314882,36.850131 C 26.854217,36.803026 28.827163,33.394704 29,29.273427 M 34,19.573578 L 34,36 L 38,36 L 38,39 L 29,38.985299 L 29,35.720357 C 26.940182,38.763206 23.923026,39.86992 20.374683,40 C 14.027853,40.007401 10.376826,35.827599 10,29.755565 C 10.04646,22.489294 15.834662,20.199049 22.260988,19.890697 L 29,19.85013 L 29,17.351024 C 29.029267,12.620905 25.97336,10.257857 21.5,10 C 17.640478,9.9481424 15.746665,12.362586 15,16 L 12,16 L 12,9.6708235 C 13.724616,8.8662144 15.605015,8.0107027 17.221857,7.6181644 C 18.856644,7.206064 20.446529,6.9999979 21.991516,6.9999658 C 29.981122,6.9161882 33.601803,12.111819 34,19.573578"
             id="text4190"
             sodipodi:nodetypes="cccccccccccccccccccccccc"
             style="font-size:57.68214035px;font-style:normal;font-weight:bold;fill:url(#linearGradient5708);fill-opacity:1;stroke:none;stroke-width:1px;stroke-linecap:butt;stroke-linejoin:miter;stroke-opacity:1;font-family:Bitstream Vera Serif" />
          <path
             d="M 22,7.5 C 20.501295,7.5000311 18.94278,7.7219131 17.34375,8.125 C 15.881923,8.4799036 14.139608,9.2405067 12.5,10 L 12.5,15.5 L 14.625,15.5 C 15.025092,13.806723 15.662735,12.30861 16.71875,11.25 C 17.863987,10.101948 19.464074,9.4726447 21.5,9.5 C 21.510414,9.499677 21.520836,9.499677 21.53125,9.5 C 23.849372,9.633623 25.85236,10.312034 27.28125,11.625 C 28.71014,12.937966 29.515308,14.869653 29.5,17.34375 L 29.5,19.84375 C 29.497826,20.118987 29.275237,20.341576 29,20.34375 L 22.25,20.40625 C 19.088726,20.557936 16.133564,21.191412 14,22.625 C 11.873378,24.053924 10.530934,26.238753 10.5,29.71875 C 10.499899,29.730109 10.500073,29.738613 10.5,29.75 C 10.687706,32.678265 11.664355,35.116293 13.3125,36.8125 C 14.966708,38.514947 17.312472,39.503571 20.375,39.5 C 23.829067,39.373376 26.630134,38.338236 28.59375,35.4375 C 28.721689,35.267468 28.942631,35.196107 29.145859,35.259178 C 29.349086,35.322248 29.490806,35.50616 29.5,35.71875 L 29.5,38.5 L 37.5,38.53125 L 37.5,36.5 L 34,36.5 C 33.724763,36.497826 33.502174,36.275237 33.5,36 L 33.5,19.59375 L 33.5,19.5625 C 33.300858,15.920703 32.314542,12.879437 30.46875,10.78125 C 28.617525,8.6768875 25.88502,7.4592624 22,7.5 z "
             id="path4274"
             sodipodi:nodetypes="cccccssssccccssssccsccccccccsc"
             style="font-size:57.68214035px;font-style:normal;font-weight:bold;opacity:0.12999998;fill:none;fill-opacity:1;stroke:#ffffff;stroke-width:1px;stroke-linecap:butt;stroke-linejoin:miter;stroke-opacity:1;display:inline;font-family:Bitstream Vera Serif" />
          <path
             d="M 29,22.5 C 29.275237,22.502174 29.497826,22.724763 29.5,23 L 29.5,29.28125 C 29.500323,29.291664 29.500323,29.302086 29.5,29.3125 C 29.410456,31.447654 28.859147,33.424368 27.6875,34.90625 C 26.515853,36.388132 24.706991,37.318902 22.3125,37.34375 C 22.302086,37.344073 22.291664,37.344073 22.28125,37.34375 C 20.124529,37.206032 18.281854,36.467385 17,35.15625 C 15.718146,33.845115 15.024443,31.981633 15.03125,29.75 C 15.030927,29.739586 15.030927,29.729164 15.03125,29.71875 C 15.154833,27.387269 15.83467,25.553393 17.15625,24.3125 C 18.47783,23.071607 20.377085,22.482032 22.8125,22.53125 L 29,22.5 z "
             id="path4277"
             sodipodi:nodetypes="cccsssssssscc"
             style="font-size:57.68214035px;font-style:normal;font-weight:bold;opacity:0.55;fill:none;fill-opacity:1;stroke:url(#linearGradient5710);stroke-width:1px;stroke-linecap:butt;stroke-linejoin:miter;stroke-opacity:1;display:inline;font-family:Bitstream Vera Serif" />
          <path
             d="M 33.5,36 L 33.5,19.59375 L 33.5,19.5625 C 33.300858,15.920703 32.314542,12.879437 30.46875,10.78125 C 28.617525,8.6768875 25.88502,7.4592624 22,7.5 C 20.501295,7.5000311 18.94278,7.7219131 17.34375,8.125 C 15.881923,8.4799036 14.139608,9.2405067 12.5,10 L 12.5,15.5"
             id="path4279"
             sodipodi:nodetypes="cccscccc"
             style="font-size:57.68214035px;font-style:normal;font-weight:bold;opacity:0.55;fill:none;fill-opacity:1;stroke:url(#radialGradient5712);stroke-width:1px;stroke-linecap:round;stroke-linejoin:miter;stroke-opacity:1;display:inline;font-family:Bitstream Vera Serif" />
          <path
             d="M 29.5,19.84375 C 29.497826,20.118987 29.275237,20.341576 29,20.34375 L 22.25,20.40625 C 19.088726,20.557936 16.133564,21.191412 14,22.625 C 11.873378,24.053924 10.530934,26.238753 10.5,29.71875 C 10.499899,29.730109 10.500073,29.738613 10.5,29.75 C 10.687706,32.678265 11.664355,35.116293 13.3125,36.8125"
             id="path4281"
             sodipodi:nodetypes="cccssss"
             style="font-size:57.68214035px;font-style:normal;font-weight:bold;opacity:0.55;fill:none;fill-opacity:1;stroke:url(#radialGradient5714);stroke-width:1px;stroke-linecap:round;stroke-linejoin:miter;stroke-opacity:1;display:inline;font-family:Bitstream Vera Serif" />
          <path
             d="M 37.5,36.5 L 34,36.5 C 33.724763,36.497826 33.502174,36.275237 33.5,36"
             id="path4283"
             sodipodi:nodetypes="ccc"
             style="font-size:57.68214035px;font-style:normal;font-weight:bold;opacity:0.45;fill:none;fill-opacity:1;stroke:url(#linearGradient5716);stroke-width:1px;stroke-linecap:round;stroke-linejoin:miter;stroke-opacity:1;display:inline;font-family:Bitstream Vera Serif" />
        </g>
        <g
           id="g4387"
           transform="translate(0,-50)">
          <rect
             height="4"
             id="rect4342"
             rx="0.95964491"
             ry="0.95964491"
             style="opacity:1;color:#000000;fill:url(#linearGradient5718);fill-opacity:1;fill-rule:nonzero;stroke:#2e3436;stroke-width:1;stroke-linecap:round;stroke-linejoin:round;marker:none;marker-start:none;marker-mid:none;marker-end:none;stroke-miterlimit:4;stroke-dasharray:none;stroke-dashoffset:0;stroke-opacity:1;visibility:visible;display:inline;overflow:visible;enable-background:accumulate"
             width="34"
             x="67.5"
             y="89.5" />
          <path
             d="M 68.5,90.5 L 68.5,92.5 L 100.5,92.5 L 100.5,90.5 L 68.5,90.5 z "
             id="path4346"
             sodipodi:nodetypes="ccccc"
             style="opacity:0.4;color:#000000;fill:none;fill-opacity:1;fill-rule:nonzero;stroke:url(#linearGradient5720);stroke-width:1;stroke-linecap:round;stroke-linejoin:round;marker:none;marker-start:none;marker-mid:none;marker-end:none;stroke-miterlimit:4;stroke-dashoffset:0;stroke-opacity:1;visibility:visible;display:inline;overflow:visible;enable-background:accumulate" />
        </g>
      </g>
    </g>
    <g
       id="g32"
       style="display:inline;enable-background:new"
       transform="translate(303,126) scale(1.000000,1.000000)">
      <g
         id="g3532"
         inkscape:export-filename="/home/lapo/Desktop/format-text.png"
         inkscape:export-xdpi="90"
         inkscape:export-ydpi="90"
         style="display:inline"
         transform="matrix(1.1234418,0,-0.7136519,1.2607334,166.69725,2.9002995)" />
      <g
         id="g3557"
         inkscape:export-filename="/home/lapo/Desktop/format-text.png"
         inkscape:export-xdpi="90"
         inkscape:export-ydpi="90"
         style="fill:#fce94f;stroke:none;display:inline"
         transform="matrix(1.1234418,0,-0.7136519,1.2607334,166.69725,2.9002995)" />
      <g
         id="g4507"
         transform="translate(-60,0)">
        <path
           d="M 46.403883 38.763416 A 22.22967 5.1707182 0 1 1  1.9445438,38.763416 A 22.22967 5.1707182 0 1 1  46.403883 38.763416 z"
           id="path3148"
           sodipodi:cx="24.174213"
           sodipodi:cy="38.763416"
           sodipodi:rx="22.22967"
           sodipodi:ry="5.1707182"
           sodipodi:type="arc"
           style="opacity:0.5;color:#000000;fill:url(#radialGradient4496);fill-opacity:1;fill-rule:nonzero;stroke:none;stroke-width:1;stroke-linecap:round;stroke-linejoin:round;marker:none;marker-start:none;marker-mid:none;marker-end:none;stroke-miterlimit:4;stroke-dasharray:none;stroke-dashoffset:0;stroke-opacity:0.96078431;visibility:visible;display:inline;overflow:visible;enable-background:accumulate"
           transform="matrix(0.6737865,0,0,0.6446558,60.711742,3.677607)" />
        <g
           id="g4431"
           transform="translate(1,0)">
          <path
             d="M 79.964486,17.515558 L 79.964486,13.00156 L 75.539721,13.028035 C 72.3425,13.028519 70.986039,15.048908 71.024818,17.83021 C 71.063484,20.603438 72.55882,21.98107 75.307765,21.991503 C 78.284374,22.0028 79.849261,20.205178 79.964486,17.515558 M 82.988454,11.18526 L 82.988454,21.99383 L 85.008668,21.99383 L 85.008668,23.99588 L 79.964486,23.986285 L 79.964486,21.722942 C 78.591276,23.70876 76.365558,23.915107 74,24 C 69.768788,24.00483 67.239701,21.79293 66.988484,17.83021 C 67.019457,13.088109 70.878251,11.195706 75.16246,10.99447 L 79.964486,10.967995 L 79.964486,9.734781 C 79.983997,6.647819 77.946869,5.0307605 74.986592,5.00366 C 72.41348,4.9801038 70.507087,5.6979853 70.009311,8.071828 L 68.009315,8.071828 L 68.009315,3.9412921 C 68.009315,3.9246676 72.637187,3.1006168 74.982813,2.9794918 C 80.309207,2.924817 82.722989,6.3155802 82.988454,11.18526"
             id="path4353"
             sodipodi:nodetypes="cccssccccccccccccsccccc"
             style="font-size:57.68214035px;font-style:normal;font-weight:bold;fill:url(#linearGradient4484);fill-opacity:1;stroke:#2e3436;stroke-width:2;stroke-linecap:butt;stroke-linejoin:round;stroke-miterlimit:4;stroke-dasharray:none;stroke-opacity:1;display:inline;font-family:Bitstream Vera Serif" />
          <path
             d="M 79.964486,17.515558 L 79.964486,13.00156 L 75.539721,13.028035 C 72.3425,13.028519 70.986039,15.048908 71.024818,17.83021 C 71.063484,20.603438 72.55882,21.98107 75.307765,21.991503 C 78.284374,22.0028 79.849261,20.205178 79.964486,17.515558 M 82.988454,11.18526 L 82.988454,21.99383 L 85.008668,21.99383 L 85.008668,23.99588 L 79.964486,23.986285 L 79.964486,21.722942 C 78.591276,23.70876 76.365558,23.915107 74,24 C 69.768788,24.00483 67.239701,21.79293 66.988484,17.83021 C 67.019457,13.088109 70.878251,11.195706 75.16246,10.99447 L 79.964486,10.967995 L 79.964486,9.734781 C 79.983997,6.647819 77.946869,5.0307605 74.986592,5.00366 C 72.41348,4.9801038 70.507087,5.6979853 70.009311,8.071828 L 68.009315,8.071828 L 68.009315,3.9412921 C 68.009315,3.9246676 72.637187,3.1006168 74.982813,2.9794918 C 80.309207,2.924817 82.722989,6.3155802 82.988454,11.18526"
             id="path3154"
             sodipodi:nodetypes="cccssccccccccccccsccccc"
             style="font-size:57.68214035px;font-style:normal;font-weight:bold;fill:url(#linearGradient4486);fill-opacity:1;stroke:none;stroke-width:1px;stroke-linecap:butt;stroke-linejoin:miter;stroke-opacity:1;font-family:Bitstream Vera Serif" />
          <path
             d="M 82.498874,21.905443 L 82.498874,11.315087 L 82.498874,11.294915 C 82.366337,8.944107 81.709906,6.9809477 80.481461,5.6265524 C 79.2494,4.2681708 77.585492,3.4821848 74.999862,3.5084813 C 72.75532,3.4724339 68.601997,4.1877438 68.522567,4.2704573 L 68.522567,7.688166"
             id="path3160"
             sodipodi:nodetypes="cccsccc"
             style="font-size:57.68214035px;font-style:normal;font-weight:bold;opacity:0.55;fill:none;fill-opacity:1;stroke:url(#radialGradient4488);stroke-width:1.00000012px;stroke-linecap:round;stroke-linejoin:miter;stroke-opacity:1;display:inline;font-family:Bitstream Vera Serif" />
          <path
             d="M 80.488463,11.142829 C 80.486978,11.326003 80.334925,11.474137 80.146907,11.475584 L 75.535895,11.517179 C 73.376389,11.618127 71.35768,12.039712 69.900216,12.993777 C 68.447492,13.94474 67.530452,15.398765 67.509321,17.714737 C 67.509251,17.722296 67.50937,17.727956 67.509321,17.735533 C 67.637546,19.684322 68.304707,21.306853 69.430575,22.435695"
             id="path3162"
             sodipodi:nodetypes="cccssss"
             style="font-size:57.68214035px;font-style:normal;font-weight:bold;opacity:0.55;fill:none;fill-opacity:1;stroke:url(#radialGradient4490);stroke-width:1.00000012px;stroke-linecap:round;stroke-linejoin:miter;stroke-opacity:1;display:inline;font-family:Bitstream Vera Serif" />
          <path
             d="M 74.988469,3.4776982 C 72.70682,3.4548731 68.47373,4.284566 68.530147,4.2811187 L 68.530147,7.526769 L 69.596724,7.526769 C 70.29663,5.1681176 72.218413,4.6558192 74.655136,4.4895256 C 74.662079,4.4893148 74.669027,4.4893148 74.675969,4.4895256 C 78.504309,4.4895256 80.361051,6.4731134 80.519709,9.509063 L 80.519709,11.140608 C 80.51826,11.320233 80.369868,11.465498 80.186377,11.466917 L 75.155135,11.507706 C 70.972475,11.619939 67.61327,13.440499 67.501505,17.845247 C 67.501437,17.85266 67.501553,17.85821 67.501505,17.865641 C 67.7494,21.83868 70.194285,23.309025 74,23.5 C 76.302706,23.417362 78.106469,23.431417 79.415544,21.538344 C 79.869494,20.987464 80.488459,20.987518 80.504084,21.721893 L 80.504084,23.536987 L 84.50419,23.557382 L 84.50419,22.519013 L 82.811677,22.519013 C 82.628186,22.517594 82.479793,22.372329 82.478344,22.192704 L 82.478344,11.198425 L 82.478344,11.17803 C 82.27828,6.3798942 79.718912,3.7384447 74.988469,3.4776982 z "
             id="path4355"
             sodipodi:nodetypes="ccccccccccccccccccccccc"
             style="font-size:57.68214035px;font-style:normal;font-weight:bold;opacity:0.12999998;fill:none;fill-opacity:1;stroke:#ffffff;stroke-width:1.00000012px;stroke-linecap:butt;stroke-linejoin:miter;stroke-opacity:1;display:inline;font-family:Bitstream Vera Serif" />
          <path
             d="M 80.144325,12.501346 C 80.333761,12.502811 80.48696,12.652762 80.488456,12.838181 L 80.488456,17.069674 C 80.48868,17.07669 80.48868,17.08371 80.488456,17.090727 C 80.426826,18.529116 80.047381,19.860771 79.24098,20.859071 C 78.434579,21.85737 77.189606,22.484402 75.541567,22.501142 C 75.534399,22.501359 75.527226,22.501359 75.520058,22.501142 C 71.458226,22.512052 70.602472,20.454275 70.530151,17.385456 C 70.529929,17.378442 70.529929,17.37142 70.530151,17.364405 C 70.61521,15.793755 71.083116,14.558327 71.99271,13.722374 C 72.902306,12.88642 74.209492,12.489241 75.885698,12.522399 L 80.144325,12.501346 z "
             id="path4357"
             sodipodi:nodetypes="cccsssccsscc"
             style="font-size:57.68214035px;font-style:normal;font-weight:bold;opacity:0.55;fill:none;fill-opacity:1;stroke:url(#linearGradient4492);stroke-width:1.00000024px;stroke-linecap:butt;stroke-linejoin:miter;stroke-opacity:1;display:inline;font-family:Bitstream Vera Serif" />
          <path
             d="M 84.47803,22.497376 L 82.718921,22.497376 C 82.580586,22.495957 82.468711,22.350692 82.467619,22.171067"
             id="path4361"
             sodipodi:nodetypes="ccc"
             style="font-size:57.68214035px;font-style:normal;font-weight:bold;opacity:0.45;fill:none;fill-opacity:1;stroke:url(#linearGradient4494);stroke-width:1.00000012px;stroke-linecap:round;stroke-linejoin:miter;stroke-opacity:1;display:inline;font-family:Bitstream Vera Serif" />
        </g>
        <g
           id="g4468"
           transform="translate(1,0)">
          <rect
             height="3.0028238"
             id="rect3168"
             rx="1.0518675"
             ry="1.0518675"
             style="color:#000000;fill:url(#linearGradient4482);fill-opacity:1;fill-rule:nonzero;stroke:#2e3436;stroke-width:1.0000006;stroke-linecap:round;stroke-linejoin:round;marker:none;marker-start:none;marker-mid:none;marker-end:none;stroke-miterlimit:4;stroke-dasharray:none;stroke-dashoffset:0;stroke-opacity:1;visibility:visible;display:inline;overflow:visible;enable-background:accumulate"
             width="23.002836"
             x="64.5093"
             y="26.500008" />
          <path
             d="M 65.5,28.5 L 65.5,27.5 L 86.5,27.5"
             id="path4375"
             style="opacity:0.35;fill:none;fill-rule:evenodd;stroke:#ffffff;stroke-width:1px;stroke-linecap:round;stroke-linejoin:round;stroke-opacity:1" />
        </g>
      </g>
    </g>
    <g
       id="g22"
       style="display:inline;enable-background:new"
       transform="translate(303,177) scale(1.000000,1.000000)">
      <g
         id="g5592"
         inkscape:export-filename="/home/lapo/Desktop/format-text.png"
         inkscape:export-xdpi="90"
         inkscape:export-ydpi="90"
         transform="translate(-60,30)">
        <g
           id="g3801"
           inkscape:export-filename="/home/lapo/Desktop/format-text.png"
           inkscape:export-xdpi="90"
           inkscape:export-ydpi="90"
           style="display:inline"
           transform="translate(64,-31.001565)">
          <path
             d="M 43,-0.5 C 42.866246,-0.503858 42.736815,-0.4524194 42.642198,-0.357802 C 42.547581,-0.2631845 42.496142,-0.1337537 42.5,0 L 42.5,1 C 42.496142,1.1337537 42.547581,1.2631845 42.642198,1.357802 C 42.736815,1.4524194 42.866246,1.503858 43,1.5 C 46.000107,1.5 47.771516,1.5034692 48.625,1.75 C 49.051742,1.8732654 49.194536,2.014441 49.3125,2.21875 C 49.430464,2.423059 49.498152,3.7680891 49.5,4.3125 L 49.5,4.5 L 46,4.5 C 44.821539,4.5227944 43.524606,4.5165905 42.4375,4.9375 C 41.893947,5.1479548 41.378886,5.4872257 41.03125,6 C 40.683614,6.5127743 40.5,9.1789739 40.5,10 C 40.5,10.763504 40.536984,11.348337 40.65625,11.84375 C 41.774979,14.389902 45.235068,13.483189 47.492417,13.005362 C 48.172307,12.835389 48.928528,12.680176 49.5,12.375 L 49.5,13 C 49.496142,13.133754 49.547581,13.263185 49.642198,13.357802 C 49.736815,13.452419 49.866246,13.503858 50,13.5 L 54,13.5 C 54.133754,13.503858 54.263185,13.452419 54.357802,13.357802 C 54.452419,13.263185 54.503858,13.133754 54.5,13 L 54.5,12 C 54.503858,11.866246 54.452419,11.736815 54.357802,11.642198 C 54.263185,11.547581 54.133754,11.496142 54,11.5 L 52.5,11.5 L 52.5,5.125 C 52.5,4.0647195 52.384855,2.2545209 52.15625,1.59375 C 51.927645,0.9329791 51.551078,0.4088838 51.03125,0.09375 C 49.991594,-0.5365177 49.604757,-0.4942165 47.71875,-0.5 C 45.995996,-0.4884564 44.5025,-0.5 43,-0.5 z M 49.5,6.5 L 49.5,9.375 C 49.194836,10.513889 46.44848,11.172298 45.34375,11.375 C 44.759158,11.482264 44.290743,11.413383 44,11.21875 C 43.709257,11.024117 43.497402,10.677797 43.5,9.875 C 43.497479,9.4685623 43.565386,7.2470771 43.6875,7.09375 C 43.809614,6.9404229 44.027291,6.789316 44.4375,6.6875 C 45.185,6.5019664 47.570062,6.5033054 49.5,6.5 z "
             id="path3803"
             sodipodi:nodetypes="csccscsscccsssccccsccsccscccssccccsssssc"
             style="font-size:21.15485954px;font-style:normal;font-weight:bold;fill:#555753;fill-opacity:1;stroke:#2e3436;stroke-width:1px;stroke-linecap:butt;stroke-linejoin:miter;stroke-opacity:1;font-family:Bitstream Vera Serif"
             transform="translate(-40,3)" />
          <path
             d="M 3,3 L 3,4 C 4.1901464,3.9995905 5.3578928,4.0091186 6.71875,4 C 10.491948,4.0115709 11,4.002432 11,8.125 L 11,16 L 13,16 L 14,16 L 14,15 L 12,15 L 12,7.125 C 12,3.002432 10.308492,3 7.71875,3 C 5.991948,3.0115707 4.5,3 3,3 z M 6,8 C 4.1006816,8.0367372 2.027151,8.0289371 1.28125,9.5625 C 2.264525,9.036321 3.6667974,9.025787 5,9 L 9,9 L 9,8.3125 C 8.9995899,8.1916851 8.9751262,8.1085413 8.96875,8 L 6,8 z M 3.09375,11.34375 C 2.3400912,11.599303 1.9947007,13.020751 2,13.875 C 1.9883029,17.489444 7.492137,15.499647 9,13.9375 L 9,13.71875 C 5.9597658,14.996802 2.9902773,15.879425 3,12.875 C 2.9987524,12.673882 3.0587947,11.504253 3.09375,11.34375 z "
             id="path3805"
             sodipodi:nodetypes="cccccccccccccccccccccccsc"
             style="font-size:21.15485954px;font-style:normal;font-weight:bold;opacity:0.4;fill:url(#linearGradient3809);fill-opacity:1;stroke:none;stroke-width:1px;stroke-linecap:butt;stroke-linejoin:miter;stroke-opacity:1;font-family:Bitstream Vera Serif" />
        </g>
        <path
           d="M 20.875 17.125 A 9.84375 2.6875 0 1 1  1.1875,17.125 A 9.84375 2.6875 0 1 1  20.875 17.125 z"
           id="path3815"
           inkscape:export-filename="/home/lapo/Desktop/format-text.png"
           inkscape:export-xdpi="90"
           inkscape:export-ydpi="90"
           sodipodi:cx="11.03125"
           sodipodi:cy="17.125"
           sodipodi:rx="9.84375"
           sodipodi:ry="2.6875"
           sodipodi:type="arc"
           style="opacity:0.6;color:#000000;fill:url(#radialGradient3817);fill-opacity:1;fill-rule:nonzero;stroke:none;stroke-width:1;stroke-linecap:round;stroke-linejoin:miter;marker:none;marker-start:none;marker-mid:none;marker-end:none;stroke-miterlimit:4;stroke-dasharray:none;stroke-dashoffset:0;stroke-opacity:1;visibility:visible;display:inline;overflow:visible;enable-background:accumulate"
           transform="matrix(1.015873,0,0,0.8372092,59.79365,-25.087207)" />
        <rect
           height="2"
           id="rect3811"
           inkscape:export-filename="/home/lapo/Desktop/format-text.png"
           inkscape:export-xdpi="90"
           inkscape:export-ydpi="90"
           rx="0.54054403"
           ry="0.54054403"
           style="opacity:1;color:#000000;fill:url(#radialGradient3813);fill-opacity:1;fill-rule:nonzero;stroke:#2e3436;stroke-width:1;stroke-linecap:round;stroke-linejoin:miter;marker:none;marker-start:none;marker-mid:none;marker-end:none;stroke-miterlimit:4;stroke-dasharray:none;stroke-dashoffset:0;stroke-opacity:1;visibility:visible;display:inline;overflow:visible;enable-background:accumulate"
           width="14"
           x="64.5"
           y="-12.5" />
      </g>
      <g
         id="g110"
         inkscape:export-filename="/home/lapo/Desktop/format-text.png"
         inkscape:export-xdpi="90"
         inkscape:export-ydpi="90"
         style="display:inline"
         transform="matrix(1.1234418,0,-0.7136519,1.2607334,166.69725,2.9002995)" />
      <g
         id="g112"
         inkscape:export-filename="/home/lapo/Desktop/format-text.png"
         inkscape:export-xdpi="90"
         inkscape:export-ydpi="90"
         style="fill:#fce94f;stroke:none;display:inline"
         transform="matrix(1.1234418,0,-0.7136519,1.2607334,166.69725,2.9002995)" />
    </g>
    <g
       id="g16"
       style="display:inline;enable-background:new"
       transform="translate(303,219) scale(1.000000,1.000000)">
      <g
         id="g5511"
         inkscape:export-filename="/home/lapo/Desktop/format-text.png"
         inkscape:export-xdpi="90"
         inkscape:export-ydpi="90"
         transform="translate(-60,60)">
        <rect
           height="2"
           id="rect3610"
           inkscape:export-filename="/home/lapo/Desktop/format-text.png"
           inkscape:export-xdpi="90"
           inkscape:export-ydpi="90"
           rx="0.54054403"
           ry="0.54054403"
           style="opacity:1;color:#000000;fill:url(#radialGradient3640);fill-opacity:1;fill-rule:nonzero;stroke:#2e3436;stroke-width:1;stroke-linecap:round;stroke-linejoin:miter;marker:none;marker-start:none;marker-mid:none;marker-end:none;stroke-miterlimit:4;stroke-dasharray:none;stroke-dashoffset:0;stroke-opacity:1;visibility:visible;display:inline;overflow:visible;enable-background:accumulate"
           width="13"
           x="61.5"
           y="-46.5" />
        <g
           id="g3622"
           inkscape:export-filename="/home/lapo/Desktop/format-text.png"
           inkscape:export-xdpi="90"
           inkscape:export-ydpi="90"
           transform="translate(119.98484,-59.971753)">
          <path
             d="M -54.984835,0.4701882 C -55.118589,0.4663302 -55.24802,0.5177688 -55.342637,0.6123862 C -55.437254,0.7070037 -55.488693,0.8364345 -55.484835,0.9701882 L -55.484835,1.9701882 C -55.488693,2.1039419 -55.437254,2.2333727 -55.342637,2.3279902 C -55.24802,2.4226076 -55.118589,2.4740462 -54.984835,2.4701882 C -51.984728,2.4701882 -52.213319,2.4736574 -51.359835,2.7201882 C -50.933093,2.8434536 -50.790299,2.9846292 -50.672335,3.1889382 C -50.554371,3.3932472 -50.486683,3.7382773 -50.484835,4.2826882 L -50.484835,4.4701882 L -52.984835,4.4701882 C -54.163296,4.4929826 -54.460229,4.4867787 -55.547335,4.9076882 C -56.090888,5.118143 -56.605949,5.4574139 -56.953585,5.9701882 C -57.301221,6.4829625 -57.484835,7.1491621 -57.484835,7.9701882 C -57.484835,8.733692 -57.447851,9.3185252 -57.328585,9.8139382 C -57.209319,10.309351 -56.970465,10.740185 -56.578585,11.001438 C -55.794826,11.523944 -55.734835,11.470188 -53.984835,11.470188 C -52.580373,11.489481 -51.492855,11.173204 -50.484835,10.345188 L -50.484835,10.970188 C -50.488693,11.103942 -50.437254,11.233373 -50.342637,11.32799 C -50.24802,11.422607 -50.118589,11.474046 -49.984835,11.470188 L -46.984835,11.470188 C -46.851081,11.474046 -46.72165,11.422607 -46.627033,11.32799 C -46.532416,11.233373 -46.480977,11.103942 -46.484835,10.970188 L -46.484835,9.9701882 C -46.480977,9.8364342 -46.532416,9.7070032 -46.627033,9.6123862 C -46.72165,9.5177692 -46.851081,9.4663302 -46.984835,9.4701882 L -48.484835,9.4701882 L -48.484835,5.0951882 C -48.484835,4.0349077 -48.59998,3.2247091 -48.828585,2.5639382 C -49.05719,1.9031673 -49.433757,1.379072 -49.953585,1.0639382 C -50.993241,0.4336705 -51.72087,0.4701882 -52.266085,0.4701882 C -53.988839,0.4817318 -53.482335,0.4701882 -54.984835,0.4701882 z M -50.484835,6.4701882 L -50.484835,7.6889382 C -51.188698,8.3502455 -52.536355,9.1424862 -53.641085,9.3451882 C -54.225677,9.4524522 -54.694092,9.3835712 -54.984835,9.1889382 C -55.275578,8.9943052 -55.487433,8.6479856 -55.484835,7.8451882 C -55.487356,7.4387505 -55.419449,7.2172653 -55.297335,7.0639382 C -55.175221,6.9106111 -54.957544,6.7595042 -54.547335,6.6576882 C -53.799835,6.4721546 -52.414773,6.4734936 -50.484835,6.4701882 z "
             id="path3624"
             sodipodi:nodetypes="csccscsscccssssscccsccsccscccssccccsssssc"
             style="font-size:21.15485954px;font-style:normal;font-weight:bold;fill:#555753;fill-opacity:1;stroke:#2e3436;stroke-width:1px;stroke-linecap:butt;stroke-linejoin:miter;stroke-opacity:1;font-family:Bitstream Vera Serif" />
          <path
             d="M -54.984835,0.9701882 L -54.984835,1.9701882 C -53.794689,1.9697787 -55.626942,1.9793068 -54.266085,1.9701882 C -49.84905,1.9701882 -49.984835,2.4365554 -49.984835,6.0951882 L -49.984835,10.970188 L -47.984835,10.970188 L -46.984835,10.970188 L -46.984835,9.9701882 L -48.984835,9.9701882 L -48.984835,5.0951882 C -48.984835,0.9726202 -50.774491,0.9701882 -53.266085,0.9701882 C -54.992887,0.9817589 -53.484835,0.9701882 -54.984835,0.9701882 z M -51.984835,4.9701882 C -53.884153,5.0069254 -55.957684,4.9991253 -56.703585,6.5326882 C -55.72031,6.0065092 -54.318038,5.9959752 -52.984835,5.9701882 L -50.984835,5.9701882 L -50.984835,5.2826882 C -50.985245,5.1618733 -51.009709,5.0787295 -51.016085,4.9701882 L -51.984835,4.9701882 z "
             id="path3626"
             sodipodi:nodetypes="ccccccccccccccccccc"
             style="font-size:21.15485954px;font-style:normal;font-weight:bold;opacity:0.4;fill:url(#linearGradient3648);fill-opacity:1;stroke:none;stroke-width:1px;stroke-linecap:butt;stroke-linejoin:miter;stroke-opacity:1;font-family:Bitstream Vera Serif" />
          <path
             d="M -55.891085,7.3139382 C -56.644744,7.5694912 -56.990134,7.9909392 -56.984835,8.8451882 C -56.996532,12.459632 -52.492698,10.469835 -50.984835,8.9076882 L -50.984835,8.6889382 C -52.900069,9.9669902 -55.994558,10.849613 -55.984835,7.8451882 C -55.986083,7.6440702 -55.92604,7.4744412 -55.891085,7.3139382 z "
             id="path3628"
             sodipodi:nodetypes="ccccsc"
             style="font-size:21.15485954px;font-style:normal;font-weight:bold;opacity:0.21072795;fill:url(#linearGradient3650);fill-opacity:1;stroke:none;stroke-width:1px;stroke-linecap:butt;stroke-linejoin:miter;stroke-opacity:1;font-family:Bitstream Vera Serif" />
        </g>
      </g>
      <g
         id="g121"
         inkscape:export-filename="/home/lapo/Desktop/format-text.png"
         inkscape:export-xdpi="90"
         inkscape:export-ydpi="90"
         style="display:inline"
         transform="matrix(1.1234418,0,-0.7136519,1.2607334,166.69725,2.9002995)" />
      <g
         id="g123"
         inkscape:export-filename="/home/lapo/Desktop/format-text.png"
         inkscape:export-xdpi="90"
         inkscape:export-ydpi="90"
         style="fill:#fce94f;stroke:none;display:inline"
         transform="matrix(1.1234418,0,-0.7136519,1.2607334,166.69725,2.9002995)" />
    </g>
  </g>
  <g
     id="layer4"
     inkscape:groupmode="layer"
     inkscape:label="hires"
     style="display:inline" />
</svg>
