<?xml version="1.0" encoding="UTF-8" standalone="no"?>
<!-- Created with Inkscape (http://www.inkscape.org/) -->
<svg
   xmlns:dc="http://purl.org/dc/elements/1.1/"
   xmlns:cc="http://creativecommons.org/ns#"
   xmlns:rdf="http://www.w3.org/1999/02/22-rdf-syntax-ns#"
   xmlns:svg="http://www.w3.org/2000/svg"
   xmlns="http://www.w3.org/2000/svg"
   xmlns:xlink="http://www.w3.org/1999/xlink"
   xmlns:sodipodi="http://sodipodi.sourceforge.net/DTD/sodipodi-0.dtd"
   xmlns:inkscape="http://www.inkscape.org/namespaces/inkscape"
   height="300"
   id="svg11300"
   inkscape:export-filename="/home/jimmac/Desktop/wi-fi.png"
   inkscape:export-xdpi="90.000000"
   inkscape:export-ydpi="90.000000"
   inkscape:output_extension="org.inkscape.output.svg.inkscape"
   inkscape:version="0.46"
   sodipodi:docname="go-jump.svg"
   sodipodi:version="0.32"
   style="display:inline;enable-background:new"
   version="1.0"
   width="400">
  <title
     id="title8836">Optical Drive</title>
  <metadata
     id="metadata154">
    <rdf:RDF>
      <cc:Work
         rdf:about="">
        <dc:format>image/svg+xml</dc:format>
        <dc:type
           rdf:resource="http://purl.org/dc/dcmitype/StillImage" />
        <dc:title />
        <dc:creator>
          <cc:Agent>
            <dc:title />
          </cc:Agent>
        </dc:creator>
        <dc:contributor>
          <cc:Agent>
            <dc:title />
          </cc:Agent>
        </dc:contributor>
        <dc:source />
        <cc:license
           rdf:resource="" />
        <dc:subject>
          <rdf:Bag />
        </dc:subject>
      </cc:Work>
    </rdf:RDF>
  </metadata>
  <sodipodi:namedview
     bordercolor="#666666"
     borderopacity="0.25490196"
     fill="#f57900"
     gridtolerance="12"
     guidetolerance="13"
     height="300px"
     id="base"
     inkscape:current-layer="layer6"
     inkscape:cx="144.68008"
     inkscape:cy="87.105301"
     inkscape:document-units="px"
     inkscape:grid-bbox="true"
     inkscape:guide-bbox="true"
     inkscape:pageopacity="0.0"
     inkscape:pageshadow="2"
     inkscape:showpageshadow="false"
     inkscape:snap-bbox="true"
     inkscape:snap-nodes="true"
     inkscape:window-height="876"
     inkscape:window-width="968"
     inkscape:window-x="132"
     inkscape:window-y="8"
     inkscape:zoom="1"
     objecttolerance="7"
     pagecolor="#ffffff"
     showgrid="false"
     showguides="true"
     stroke="#ef2929"
     width="400px">
    <inkscape:grid
       empspacing="2"
       enabled="true"
       id="grid5883"
       spacingx="0.5px"
       spacingy="0.5px"
       type="xygrid"
       visible="true" />
  </sodipodi:namedview>
  <defs
     id="defs3">
    <linearGradient
       id="linearGradient5105"
       inkscape:collect="always">
      <stop
         id="stop5107"
         offset="0"
         style="stop-color:black;stop-opacity:1;" />
      <stop
         id="stop5109"
         offset="1"
         style="stop-color:black;stop-opacity:0;" />
    </linearGradient>
    <radialGradient
       cx="11.25"
       cy="19.03125"
       fx="11.25"
       fy="19.03125"
       gradientTransform="matrix(1,0,0,0.282946,0,13.64644)"
       gradientUnits="userSpaceOnUse"
       id="radialGradient5855"
       inkscape:collect="always"
       r="8.0625"
       xlink:href="#linearGradient5105" />
    <linearGradient
       id="linearGradient5113"
       inkscape:collect="always">
      <stop
         id="stop5115"
         offset="0"
         style="stop-color:white;stop-opacity:1;" />
      <stop
         id="stop5117"
         offset="1"
         style="stop-color:white;stop-opacity:0;" />
    </linearGradient>
    <linearGradient
       gradientTransform="matrix(1.004639,0,0,1,-55.021331,-3.04779)"
       gradientUnits="userSpaceOnUse"
       id="linearGradient5862"
       inkscape:collect="always"
       x1="58.748795"
       x2="105.32369"
       xlink:href="#linearGradient5113"
       y1="2.047786"
       y2="58.047787" />
    <radialGradient
       cx="11.25"
       cy="19.03125"
       fx="11.25"
       fy="19.03125"
       gradientTransform="matrix(1,0,0,0.282946,0,13.64644)"
       gradientUnits="userSpaceOnUse"
       id="radialGradient5817"
       inkscape:collect="always"
       r="8.0625"
       xlink:href="#linearGradient5105" />
    <linearGradient
       gradientTransform="matrix(0.6206105,0,0,0.6141579,-31.743296,0.36894)"
       gradientUnits="userSpaceOnUse"
       id="linearGradient5807"
       inkscape:collect="always"
       x1="58.748795"
       x2="105.32369"
       xlink:href="#linearGradient5113"
       y1="2.047786"
       y2="58.047787" />
    <radialGradient
       cx="11.25"
       cy="19.03125"
       fx="11.25"
       fy="19.03125"
       gradientTransform="matrix(1,0,0,0.282946,0,13.64644)"
       gradientUnits="userSpaceOnUse"
       id="radialGradient5833"
       inkscape:collect="always"
       r="8.0625"
       xlink:href="#linearGradient5105" />
    <linearGradient
       gradientTransform="matrix(0.4586891,0,0,0.4431049,-25.49612,0.66149)"
       gradientUnits="userSpaceOnUse"
       id="linearGradient5837"
       inkscape:collect="always"
       x1="58.748795"
       x2="105.32369"
       xlink:href="#linearGradient5113"
       y1="2.047786"
       y2="58.047787" />
    <linearGradient
       gradientTransform="matrix(0.353039,0,0,0.3392119,-20.13214,7.847997e-2)"
       gradientUnits="userSpaceOnUse"
       id="linearGradient5853"
       inkscape:collect="always"
       x1="58.748795"
       x2="105.32369"
       xlink:href="#linearGradient5113"
       y1="2.047786"
       y2="58.047787" />
  </defs>
  <g
     id="layer6"
     inkscape:groupmode="layer"
     inkscape:label="baseplate"
     style="display:none">
    <rect
       height="48"
       id="rect6284"
       inkscape:label="48x48"
       style="fill:#eeeeec;fill-opacity:1;fill-rule:nonzero;stroke:none;stroke-width:2;marker:none;visibility:visible;display:inline;overflow:visible;enable-background:accumulate"
       width="48"
       x="296"
       y="50" />
    <rect
       height="32"
       id="rect6592"
       inkscape:label="32x32"
       style="fill:#eeeeec;fill-opacity:1;fill-rule:nonzero;stroke:none;stroke-width:2;marker:none;visibility:visible;display:inline;overflow:visible;enable-background:accumulate"
       width="32"
       x="303"
       y="126" />
    <rect
       height="22"
       id="rect6749"
       inkscape:label="22x22"
       style="fill:#eeeeec;fill-opacity:1;fill-rule:nonzero;stroke:none;stroke-width:2;marker:none;visibility:visible;display:inline;overflow:visible;enable-background:accumulate"
       width="22"
       x="303"
       y="177" />
    <rect
       height="16"
       id="rect6833"
       inkscape:label="16x16"
       style="fill:#eeeeec;fill-opacity:1;fill-rule:nonzero;stroke:none;stroke-width:2;marker:none;visibility:visible;display:inline;overflow:visible;enable-background:accumulate"
       width="16"
       x="303"
       y="219" />
    <text
       id="context"
       inkscape:label="context"
       style="font-size:18.30070686px;font-style:normal;font-weight:normal;fill:#000000;fill-opacity:1;stroke:none;display:inline;enable-background:new;font-family:Bitstream Vera Sans"
       x="20.970737"
       xml:space="preserve"
       y="21.513618"><tspan
         id="tspan2716"
         sodipodi:role="line"
         x="20.970737"
         y="21.513618">actions</tspan></text>
    <text
       id="icon-name"
       inkscape:label="icon-name"
       sodipodi:linespacing="125%"
       style="font-size:18.30070686px;font-style:normal;font-variant:normal;font-weight:bold;font-stretch:normal;text-align:start;line-height:125%;writing-mode:lr-tb;text-anchor:start;fill:#000000;fill-opacity:1;stroke:none;display:inline;enable-background:new;font-family:Droid Sans;-inkscape-font-specification:Droid Sans Bold"
       x="191.97073"
       xml:space="preserve"
       y="21.513618"><tspan
         id="tspan3023"
         sodipodi:role="line"
         x="191.97073"
         y="21.513618">go-jump</tspan></text>
  </g>
  <g
     id="layer2"
     inkscape:groupmode="layer"
     inkscape:label="small sizes"
     style="display:inline">
    <g
       id="g48"
       style="display:inline;enable-background:new"
       transform="translate(296,50) scale(1.000000,1.000000)">
      <path
         d="M 19.3125,19.03125 A 8.0625,2.28125 0 1 1 3.1875,19.03125 A 8.0625,2.28125 0 1 1 19.3125,19.03125 z"
         id="path4346"
         sodipodi:cx="11.25"
         sodipodi:cy="19.03125"
         sodipodi:rx="8.0625"
         sodipodi:ry="2.28125"
         sodipodi:type="arc"
         style="opacity:0.16292138;color:#000000;fill:url(#radialGradient5855);fill-opacity:1;fill-rule:nonzero;stroke:none;stroke-width:1;stroke-linecap:butt;stroke-linejoin:miter;marker:none;marker-start:none;marker-mid:none;marker-end:none;stroke-miterlimit:4;stroke-dasharray:none;stroke-dashoffset:0;stroke-opacity:1;visibility:visible;display:inline;overflow:visible"
         transform="matrix(2.5121226,0,0,2.410961,-4.51537,-13.87225)" />
      <path
         d="M 42.5,25.52548 L 30.46475,39.5 L 18.48982,25.52548 L 24.58161,25.52548 C 26.62891,20.03951 22.42491,16.54768 17.55054,16.54768 C 14.08678,16.54768 9.38731,18.45264 7.79986,23.18908 C 6.9742,25.6526 5.51992,24.5734 5.57612,22.43234 C 5.79365,14.17053 11.919,7.56333 21.06314,7.56333 C 30.20728,7.56333 37,14.66192 36.48691,25.52548 L 42.5,25.52548 z"
         id="path4972"
         sodipodi:nodetypes="ccccssszcc"
         style="color:#000000;fill:#3465a4;fill-opacity:1;fill-rule:nonzero;stroke:#204a87;stroke-width:0.99999964;stroke-linecap:butt;stroke-linejoin:miter;marker:none;marker-start:none;marker-mid:none;marker-end:none;stroke-miterlimit:4;stroke-dasharray:none;stroke-dashoffset:0;stroke-opacity:1;visibility:visible;display:inline;overflow:visible" />
      <path
         d="M 6.12214,21.74416 C 11.82862,5.67258 31.52706,9.69899 31.11819,25.79396 C 31.01756,29.68891 30.84925,35.8474 30.47014,39 L 41.46967,26.09181 L 36,26 C 38.09867,3.40351 8.41287,2.09254 6.12214,21.74416 z"
         id="path4984"
         sodipodi:nodetypes="cccccc"
         style="opacity:0.35393258;color:#000000;fill:#729fcf;fill-opacity:1;fill-rule:nonzero;stroke:none;stroke-width:1;stroke-linecap:butt;stroke-linejoin:miter;marker:none;marker-start:none;marker-mid:none;marker-end:none;stroke-miterlimit:4;stroke-dasharray:none;stroke-dashoffset:0;stroke-opacity:1;visibility:visible;display:inline;overflow:visible" />
      <path
         d="M 40.38215,26.52548 L 30.46475,38.06788 L 20.60768,26.52548 L 25.30663,26.52548 C 27.78439,21 24.20791,15.62862 18,15.52859 C 14.10075,15.46576 12.05305,16.76164 9.3376,19 C 7.84959,20.22658 7.08988,22.63896 6.73938,23.51309 C 6.25882,23.53771 6.54136,20.83259 7,19.15015 C 8.67191,13.01699 13.84662,8.49937 21.18388,8.48567 C 28.52114,8.47197 36.48525,13.51017 35.48691,26.52548 L 40.38215,26.52548 z"
         id="path4980"
         sodipodi:nodetypes="ccccsscszcc"
         style="opacity:0.35400002;color:#000000;fill:none;fill-opacity:1;fill-rule:nonzero;stroke:url(#linearGradient5862);stroke-width:0.99999958;stroke-linecap:butt;stroke-linejoin:miter;marker:none;marker-start:none;marker-mid:none;marker-end:none;stroke-miterlimit:4;stroke-dasharray:none;stroke-dashoffset:0;stroke-opacity:1;visibility:visible;display:inline;overflow:visible;enable-background:accumulate" />
    </g>
    <g
       id="g32"
       style="display:inline;enable-background:new"
       transform="translate(303,126) scale(1.000000,1.000000)">
      <path
         d="M 19.3125,19.03125 A 8.0625,2.28125 0 1 1 3.1875,19.03125 A 8.0625,2.28125 0 1 1 19.3125,19.03125 z"
         id="path5786"
         sodipodi:cx="11.25"
         sodipodi:cy="19.03125"
         sodipodi:rx="8.0625"
         sodipodi:ry="2.28125"
         sodipodi:type="arc"
         style="opacity:0.16292138;color:#000000;fill:url(#radialGradient5817);fill-opacity:1;fill-rule:nonzero;stroke:none;stroke-width:1;stroke-linecap:butt;stroke-linejoin:miter;marker:none;marker-start:none;marker-mid:none;marker-end:none;stroke-miterlimit:4;stroke-dasharray:none;stroke-dashoffset:0;stroke-opacity:1;visibility:visible;display:inline;overflow:visible"
         transform="matrix(1.5518507,0,0,1.4807107,-0.632224,-6.27899)" />
      <path
         d="M 28.5,17.50775 L 21.06529,26.5 L 13.66784,17.50775 L 17.43101,17.50775 C 18.69572,14.1385 16.19367,12.14955 13.18627,12 C 10.5239,11.8676 8.03248,13.43449 7,16 C 6.62292,16.57116 5.372341,17.21622 5.499481,15.2507 C 5.468624,10.74191 9.49772,6.48967 15.25749,6.5 C 21.01726,6.51033 24.8943,10.83581 24.57734,17.50775 L 28.5,17.50775 z"
         id="path5792"
         sodipodi:nodetypes="ccccscczcc"
         style="color:#000000;fill:#3465a4;fill-opacity:1;fill-rule:nonzero;stroke:#204a87;stroke-width:0.99999958;stroke-linecap:butt;stroke-linejoin:miter;marker:none;marker-start:none;marker-mid:none;marker-end:none;stroke-miterlimit:4;stroke-dasharray:none;stroke-dashoffset:0;stroke-opacity:1;visibility:visible;display:inline;overflow:visible" />
      <path
         d="M 6,15.90475 C 9.52514,6.03426 21.76823,7.6581 21.74887,18 C 21.6867,20.39211 21.63904,24.48241 21.09988,25.57903 L 27.3953,18.08967 L 24.00993,18.03329 C 25.81948,5.48472 8.40384,1.81911 6,15.90475 z"
         id="path5794"
         sodipodi:nodetypes="cccccc"
         style="opacity:0.35393258;color:#000000;fill:#729fcf;fill-opacity:1;fill-rule:nonzero;stroke:none;stroke-width:1;stroke-linecap:butt;stroke-linejoin:miter;marker:none;marker-start:none;marker-mid:none;marker-end:none;stroke-miterlimit:4;stroke-dasharray:none;stroke-dashoffset:0;stroke-opacity:1;visibility:visible;display:inline;overflow:visible" />
      <path
         d="M 26.43085,18.5316 L 21.06529,25.0937 L 15.67846,18.5316 L 18.11209,18.56472 C 20,15.18886 17.54186,11.10517 13.7079,11 C 10.62171,10.91534 8.0632,11.94747 6.883261,14.24197 C 6.635864,11.52012 10.37019,7.50312 15.21849,7.48171 C 20.06679,7.4603 24.21215,10.53814 23.59543,18.5316 L 26.43085,18.5316 z"
         id="path5798"
         sodipodi:nodetypes="ccccsczcc"
         style="opacity:0.35400002;color:#000000;fill:none;fill-opacity:1;fill-rule:nonzero;stroke:url(#linearGradient5807);stroke-width:0.99999958;stroke-linecap:butt;stroke-linejoin:miter;marker:none;marker-start:none;marker-mid:none;marker-end:none;stroke-miterlimit:4;stroke-dasharray:none;stroke-dashoffset:0;stroke-opacity:1;visibility:visible;display:inline;overflow:visible;enable-background:accumulate" />
    </g>
    <g
       id="g22"
       style="display:inline;enable-background:new"
       transform="translate(303,177) scale(1.000000,1.000000)">
      <path
         d="M 19.3125,19.03125 A 8.0625,2.28125 0 1 1 3.1875,19.03125 A 8.0625,2.28125 0 1 1 19.3125,19.03125 z"
         id="path5819"
         sodipodi:cx="11.25"
         sodipodi:cy="19.03125"
         sodipodi:rx="8.0625"
         sodipodi:ry="2.28125"
         sodipodi:type="arc"
         style="opacity:0.16292138;color:#000000;fill:url(#radialGradient5833);fill-opacity:1;fill-rule:nonzero;stroke:none;stroke-width:1;stroke-linecap:butt;stroke-linejoin:miter;marker:none;marker-start:none;marker-mid:none;marker-end:none;stroke-miterlimit:4;stroke-dasharray:none;stroke-dashoffset:0;stroke-opacity:1;visibility:visible;display:inline;overflow:visible"
         transform="matrix(1.141817,0,0,1.0830834,-2.408893,-4.47658)" />
      <path
         d="M 19.500003,12.49332 L 13.96049,19.5 L 8.44874,12.49332 L 11.252631,12.49332 C 12.194952,10.02883 10.164281,8.2037 7.920732,8.2037 C 6.392885,8.2037 4.291348,8.46238 3,10.56291 C 1.804582,12.5074 1.348115,10.9828 1.534705,10.09967 C 2.166684,7.10853 5.358885,4.44616 9.633168,4.44616 C 13.907451,4.44616 16.813438,7.61304 16.577277,12.49332 L 19.500003,12.49332 z"
         id="path5825"
         sodipodi:nodetypes="ccccssszcc"
         style="color:#000000;fill:#3465a4;fill-opacity:1;fill-rule:nonzero;stroke:#204a87;stroke-width:0.99999958;stroke-linecap:butt;stroke-linejoin:miter;marker:none;marker-start:none;marker-mid:none;marker-end:none;stroke-miterlimit:4;stroke-dasharray:none;stroke-dashoffset:0;stroke-opacity:1;visibility:visible;display:inline;overflow:visible" />
      <path
         d="M 2,10.81096 C 3.665207,6.4942 8.648649,6.07402 10.270778,6.26101 C 13.982957,6.68892 14.830625,13.70331 13.659836,19.09525 L 18.420464,13.03602 L 15.929586,12.99477 C 17.394669,4.26151 3.79818,1.50818 2,10.81096 z"
         id="path5827"
         sodipodi:nodetypes="cscccc"
         style="opacity:0.35393258;color:#000000;fill:#729fcf;fill-opacity:1;fill-rule:nonzero;stroke:none;stroke-width:1;stroke-linecap:butt;stroke-linejoin:miter;marker:none;marker-start:none;marker-mid:none;marker-end:none;stroke-miterlimit:4;stroke-dasharray:none;stroke-dashoffset:0;stroke-opacity:1;visibility:visible;display:inline;overflow:visible" />
      <path
         d="M 17.500003,13.53143 L 13.935003,17.89391 L 10.554607,13.53143 L 11.966689,13.55533 C 13.32337,11.11812 11.823312,7.76724 9,7.51336 C 6.552924,7.29331 4.843951,7.56712 3.180358,8.66715 C 4.291517,6.57935 6.34164,5.42052 9.618008,5.42674 C 12.894377,5.43296 16.000703,7.76427 15.544891,13.53143 L 17.500003,13.53143 z"
         id="path5831"
         sodipodi:nodetypes="ccccsczcc"
         style="opacity:0.35400002;color:#000000;fill:none;fill-opacity:1;fill-rule:nonzero;stroke:url(#linearGradient5837);stroke-width:0.99999958;stroke-linecap:butt;stroke-linejoin:miter;marker:none;marker-start:none;marker-mid:none;marker-end:none;stroke-miterlimit:4;stroke-dasharray:none;stroke-dashoffset:0;stroke-opacity:1;visibility:visible;display:inline;overflow:visible;enable-background:accumulate" />
    </g>
    <g
       id="g16"
       style="display:inline;enable-background:new"
       transform="translate(303,219) scale(1.000000,1.000000)">
      <path
         d="M 15.343926,9.52633 L 10.080332,14.46098 L 4.838106,9.52633 L 7.658016,9.52633 C 8.3832912,7.63968 7.403336,5.76455 5.689823,5.55081 C 3.379563,5.26263 2,6.38135 1.459018,8 C 1.197203,8.78337 0.36467598,8.67518 0.47351598,7.63641 C 0.74239198,5.07023 2.594431,2.48964 6.749724,2.48964 C 10.905017,2.48964 12.692356,5.79031 12.51059,9.52633 L 15.343926,9.52633 z"
         id="path5843"
         sodipodi:nodetypes="ccccssszcc"
         style="color:#000000;fill:#3465a4;fill-opacity:1;fill-rule:nonzero;stroke:#204a87;stroke-width:0.99999958;stroke-linecap:butt;stroke-linejoin:miter;marker:none;marker-start:none;marker-mid:none;marker-end:none;stroke-miterlimit:4;stroke-dasharray:none;stroke-dashoffset:0;stroke-opacity:1;visibility:visible;display:inline;overflow:visible" />
      <path
         d="M 0.91726598,7.51523 C 2.347356,4.80388 6.238141,4.04009 7.486645,4.18324 C 10.343796,4.51082 10.980873,9.70475 10.079753,13.83246 L 13.833262,9.9999995 L 11.847041,9.9999995 C 12.780872,4.95968 9.2103112,2.81671 6.09009,2.94786 C 3.869016,3.04122 1.656254,4.50057 0.91726598,7.51523 z"
         id="path5845"
         sodipodi:nodetypes="cscccsc"
         style="opacity:0.35393258;color:#000000;fill:#729fcf;fill-opacity:1;fill-rule:nonzero;stroke:none;stroke-width:1;stroke-linecap:butt;stroke-linejoin:miter;marker:none;marker-start:none;marker-mid:none;marker-end:none;stroke-miterlimit:4;stroke-dasharray:none;stroke-dashoffset:0;stroke-opacity:1;visibility:visible;display:inline;overflow:visible" />
      <path
         d="M 12.834692,10.477119 L 10.138756,13.03638 L 7.356355,10.516139 L 8.4138082,10.495419 C 10.752819,5.67653 5.15122,2.30988 1.926249,5.89623 C 3.668932,3.70283 5.338798,3.06452 8.178016,3.71553 C 10.648694,4.28204 11.859544,7.44158 11.338819,10.477119 L 12.834692,10.477119 z"
         id="path5849"
         sodipodi:nodetypes="cccccscc"
         style="opacity:0.35400002;color:#000000;fill:none;fill-opacity:1;fill-rule:nonzero;stroke:url(#linearGradient5853);stroke-width:0.99999958;stroke-linecap:butt;stroke-linejoin:miter;marker:none;marker-start:none;marker-mid:none;marker-end:none;stroke-miterlimit:4;stroke-dasharray:none;stroke-dashoffset:0;stroke-opacity:1;visibility:visible;display:inline;overflow:visible;enable-background:accumulate" />
    </g>
  </g>
  <g
     id="layer4"
     inkscape:groupmode="layer"
     inkscape:label="hires"
     style="display:inline" />
</svg>
