<?xml version="1.0" encoding="UTF-8" standalone="no"?>
<!-- Created with Inkscape (http://www.inkscape.org/) -->
<svg
   xmlns:dc="http://purl.org/dc/elements/1.1/"
   xmlns:cc="http://creativecommons.org/ns#"
   xmlns:rdf="http://www.w3.org/1999/02/22-rdf-syntax-ns#"
   xmlns:svg="http://www.w3.org/2000/svg"
   xmlns="http://www.w3.org/2000/svg"
   xmlns:xlink="http://www.w3.org/1999/xlink"
   xmlns:sodipodi="http://sodipodi.sourceforge.net/DTD/sodipodi-0.dtd"
   xmlns:inkscape="http://www.inkscape.org/namespaces/inkscape"
   height="300"
   id="svg11300"
   inkscape:export-filename="/home/jimmac/Desktop/wi-fi.png"
   inkscape:export-xdpi="90.000000"
   inkscape:export-ydpi="90.000000"
   inkscape:output_extension="org.inkscape.output.svg.inkscape"
   inkscape:version="0.46"
   sodipodi:docname="input-mouse.svg"
   sodipodi:version="0.32"
   style="display:inline;enable-background:new"
   version="1.0"
   width="400">
  <title
     id="title8836">Optical Drive</title>
  <metadata
     id="metadata154">
    <rdf:RDF>
      <cc:Work
         rdf:about="">
        <dc:format>image/svg+xml</dc:format>
        <dc:type
           rdf:resource="http://purl.org/dc/dcmitype/StillImage" />
        <dc:title />
        <dc:creator>
          <cc:Agent>
            <dc:title />
          </cc:Agent>
        </dc:creator>
        <dc:contributor>
          <cc:Agent>
            <dc:title />
          </cc:Agent>
        </dc:contributor>
        <dc:source />
        <cc:license
           rdf:resource="" />
        <dc:subject>
          <rdf:Bag />
        </dc:subject>
      </cc:Work>
    </rdf:RDF>
  </metadata>
  <sodipodi:namedview
     bordercolor="#666666"
     borderopacity="0.25490196"
     fill="#f57900"
     gridtolerance="12"
     guidetolerance="13"
     height="300px"
     id="base"
     inkscape:current-layer="layer6"
     inkscape:cx="144.68008"
     inkscape:cy="87.105301"
     inkscape:document-units="px"
     inkscape:grid-bbox="true"
     inkscape:guide-bbox="true"
     inkscape:pageopacity="0.0"
     inkscape:pageshadow="2"
     inkscape:showpageshadow="false"
     inkscape:snap-bbox="true"
     inkscape:snap-nodes="true"
     inkscape:window-height="876"
     inkscape:window-width="968"
     inkscape:window-x="132"
     inkscape:window-y="8"
     inkscape:zoom="1"
     objecttolerance="7"
     pagecolor="#ffffff"
     showgrid="false"
     showguides="true"
     stroke="#ef2929"
     width="400px">
    <inkscape:grid
       empspacing="2"
       enabled="true"
       id="grid5883"
       spacingx="0.5px"
       spacingy="0.5px"
       type="xygrid"
       visible="true" />
  </sodipodi:namedview>
  <defs
     id="defs3">
    <linearGradient
       id="linearGradient7116">
      <stop
         id="stop7118"
         offset="0"
         style="stop-color:#888a85;stop-opacity:1" />
      <stop
         id="stop7120"
         offset="1"
         style="stop-color:#d3d7cf;stop-opacity:1;" />
    </linearGradient>
    <linearGradient
       id="linearGradient7108"
       inkscape:collect="always">
      <stop
         id="stop7110"
         offset="0"
         style="stop-color:#ffffff;stop-opacity:1;" />
      <stop
         id="stop7112"
         offset="1"
         style="stop-color:#ffffff;stop-opacity:0;" />
    </linearGradient>
    <linearGradient
       id="linearGradient6967"
       inkscape:collect="always">
      <stop
         id="stop6969"
         offset="0"
         style="stop-color:#ffffff;stop-opacity:1;" />
      <stop
         id="stop6971"
         offset="1"
         style="stop-color:#ffffff;stop-opacity:0;" />
    </linearGradient>
    <linearGradient
       id="linearGradient7146">
      <stop
         id="stop7148"
         offset="0"
         style="stop-color:#000000" />
      <stop
         id="stop7151"
         offset="1"
         style="stop-color:#000000;stop-opacity:0" />
    </linearGradient>
    <linearGradient
       id="linearGradient7120">
      <stop
         id="stop7122"
         offset="0"
         style="stop-color:#eeeeec;stop-opacity:1" />
      <stop
         id="stop7124"
         offset="1"
         style="stop-color:#ffffff;stop-opacity:1;" />
    </linearGradient>
    <linearGradient
       id="linearGradient7148"
       inkscape:collect="always">
      <stop
         id="stop7150"
         offset="0"
         style="stop-color:#000000;stop-opacity:1;" />
      <stop
         id="stop7152"
         offset="1"
         style="stop-color:#000000;stop-opacity:0;" />
    </linearGradient>
    <linearGradient
       id="linearGradient7130">
      <stop
         id="stop7132"
         offset="0"
         style="stop-color:#9ebdde;stop-opacity:1;" />
      <stop
         id="stop6963"
         offset="0.46938777"
         style="stop-color:#729fcf;stop-opacity:1;" />
      <stop
         id="stop7134"
         offset="1"
         style="stop-color:#3465a4;stop-opacity:1" />
    </linearGradient>
    <linearGradient
       id="linearGradient5052"
       inkscape:collect="always">
      <stop
         id="stop5054"
         offset="0"
         style="stop-color:#eeeeec;stop-opacity:1;" />
      <stop
         id="stop5056"
         offset="1"
         style="stop-color:#888a85" />
    </linearGradient>
    <linearGradient
       id="linearGradient5024">
      <stop
         id="stop5026"
         offset="0"
         style="stop-color:#555753" />
      <stop
         id="stop5028"
         offset="1"
         style="stop-color:#555753;stop-opacity:0;" />
    </linearGradient>
    <linearGradient
       id="linearGradient2303">
      <stop
         id="stop2305"
         offset="0"
         style="stop-color:#ffffff" />
      <stop
         id="stop4891"
         offset="0.67346936"
         style="stop-color:#dedfdc;stop-opacity:1;" />
      <stop
         id="stop2307"
         offset="1"
         style="stop-color:#babdb6" />
    </linearGradient>
    <linearGradient
       gradientTransform="matrix(1,0,0,-1,0,30.171146)"
       gradientUnits="userSpaceOnUse"
       id="linearGradient5058"
       inkscape:collect="always"
       x1="23.499411"
       x2="26.000536"
       xlink:href="#linearGradient5052"
       y1="10.03125"
       y2="10.03125" />
    <radialGradient
       cx="24"
       cy="40.625"
       fx="24"
       fy="40.625"
       gradientTransform="matrix(1,0,0,0.414966,0,23.767007)"
       gradientUnits="userSpaceOnUse"
       id="radialGradient6062"
       inkscape:collect="always"
       r="18.375"
       xlink:href="#linearGradient7148" />
    <linearGradient
       gradientTransform="matrix(-1,0,0,2.084749,46.86229,0.4758936)"
       gradientUnits="userSpaceOnUse"
       id="linearGradient6086"
       inkscape:collect="always"
       x1="29.87479"
       x2="30.728344"
       xlink:href="#linearGradient5024"
       y1="4.7625585"
       y2="-0.46811083" />
    <radialGradient
       cx="22.672319"
       cy="11.946862"
       fx="22.672319"
       fy="11.946862"
       gradientTransform="matrix(0.8953602,0,0,0.8251299,2.4882484,1.9869056)"
       gradientUnits="userSpaceOnUse"
       id="radialGradient7095"
       inkscape:collect="always"
       r="2.2202047"
       xlink:href="#linearGradient7130" />
    <linearGradient
       gradientUnits="userSpaceOnUse"
       id="linearGradient7126"
       inkscape:collect="always"
       x1="26.03125"
       x2="25.478565"
       xlink:href="#linearGradient7120"
       y1="21.3125"
       y2="26.15625" />
    <linearGradient
       gradientTransform="matrix(-1,0,0,2.084749,46.86229,1.4758936)"
       gradientUnits="userSpaceOnUse"
       id="linearGradient7144"
       inkscape:collect="always"
       x1="26.93729"
       x2="30.728344"
       xlink:href="#linearGradient7146"
       y1="7.2808471"
       y2="-0.46811083" />
    <radialGradient
       cx="12.863017"
       cy="41.15139"
       fx="12.863017"
       fy="41.15139"
       gradientTransform="matrix(2.6078767,0,0,1.9794136,-20.682145,-42.26866)"
       gradientUnits="userSpaceOnUse"
       id="radialGradient6973"
       inkscape:collect="always"
       r="15.727942"
       xlink:href="#linearGradient6967" />
    <radialGradient
       cx="21.82951"
       cy="28.964069"
       fx="21.82951"
       fy="28.964069"
       gradientTransform="matrix(1.223979,0,0,0.8030336,-6.3668651,6.4413823)"
       gradientUnits="userSpaceOnUse"
       id="radialGradient6981"
       inkscape:collect="always"
       r="16.803994"
       xlink:href="#linearGradient2303" />
    <radialGradient
       cx="21.625"
       cy="27.849195"
       fx="21.625"
       fy="27.849195"
       gradientTransform="matrix(1.5200841,0,0,0.5956932,-11.246818,11.259629)"
       gradientUnits="userSpaceOnUse"
       id="radialGradient7114"
       inkscape:collect="always"
       r="12.5"
       xlink:href="#linearGradient7108" />
    <radialGradient
       cx="24"
       cy="50.348431"
       fx="24"
       fy="50.348431"
       gradientTransform="matrix(1,0,0,0.1975225,0,18.835663)"
       gradientUnits="userSpaceOnUse"
       id="radialGradient7122"
       inkscape:collect="always"
       r="12.5"
       xlink:href="#linearGradient7116" />
    <linearGradient
       id="linearGradient6020">
      <stop
         id="stop6022"
         offset="0"
         style="stop-color:#000000" />
      <stop
         id="stop6024"
         offset="1"
         style="stop-color:#000000;stop-opacity:0" />
    </linearGradient>
    <radialGradient
       cx="24"
       cy="50.348431"
       fx="24"
       fy="50.348431"
       gradientTransform="matrix(0.74,0,0,0.1499391,-1.5100003,10.561561)"
       gradientUnits="userSpaceOnUse"
       id="radialGradient5997"
       inkscape:collect="always"
       r="12.5"
       xlink:href="#linearGradient7116" />
    <linearGradient
       gradientTransform="matrix(0.7418825,0,0,0.7590986,-1.6761226,-3.9410708)"
       gradientUnits="userSpaceOnUse"
       id="linearGradient6002"
       inkscape:collect="always"
       x1="26.03125"
       x2="25.478565"
       xlink:href="#linearGradient7120"
       y1="21.3125"
       y2="26.15625" />
    <radialGradient
       cx="21.82951"
       cy="28.964069"
       fx="21.82951"
       fy="28.964069"
       gradientTransform="matrix(0.9080486,0,0,0.6095817,-6.5278244,0.8611963)"
       gradientUnits="userSpaceOnUse"
       id="radialGradient6007"
       inkscape:collect="always"
       r="16.803993"
       xlink:href="#linearGradient2303" />
    <linearGradient
       gradientTransform="matrix(0.7421494,0,0,-0.7421494,-1.8066266,19.134004)"
       gradientUnits="userSpaceOnUse"
       id="linearGradient6010"
       inkscape:collect="always"
       x1="23.499411"
       x2="26.000536"
       xlink:href="#linearGradient5052"
       y1="10.03125"
       y2="10.03125" />
    <radialGradient
       cx="22.672319"
       cy="11.946862"
       fx="22.672319"
       fy="11.946862"
       gradientTransform="matrix(0.8953602,0,0,0.8251299,2.4882484,1.9869056)"
       gradientUnits="userSpaceOnUse"
       id="radialGradient6012"
       inkscape:collect="always"
       r="2.2202046"
       xlink:href="#linearGradient7130" />
    <radialGradient
       cx="12.863017"
       cy="41.15139"
       fx="12.863017"
       fy="41.15139"
       gradientTransform="matrix(2.6078767,0,0,1.9794136,-20.682145,-42.26866)"
       gradientUnits="userSpaceOnUse"
       id="radialGradient6014"
       inkscape:collect="always"
       r="15.727942"
       xlink:href="#linearGradient6967" />
    <linearGradient
       gradientTransform="matrix(-0.5778343,0,0,1.194917,29.19118,1.0227686)"
       gradientUnits="userSpaceOnUse"
       id="linearGradient6018"
       inkscape:collect="always"
       x1="27.580317"
       x2="30.728344"
       xlink:href="#linearGradient6020"
       y1="10.606211"
       y2="-0.46811083" />
    <linearGradient
       id="linearGradient7246">
      <stop
         id="stop7248"
         offset="0"
         style="stop-color:#ffffff;stop-opacity:1;" />
      <stop
         id="stop7250"
         offset="1"
         style="stop-color:#729fcf;stop-opacity:1" />
    </linearGradient>
    <linearGradient
       id="linearGradient7204"
       inkscape:collect="always">
      <stop
         id="stop7206"
         offset="0"
         style="stop-color:#000000;stop-opacity:1" />
      <stop
         id="stop7208"
         offset="1"
         style="stop-color:#000000;stop-opacity:0" />
    </linearGradient>
    <linearGradient
       id="linearGradient7192"
       inkscape:collect="always">
      <stop
         id="stop7194"
         offset="0"
         style="stop-color:#555753;stop-opacity:1" />
      <stop
         id="stop7196"
         offset="1"
         style="stop-color:#555753;stop-opacity:0" />
    </linearGradient>
    <radialGradient
       cx="21.82951"
       cy="28.964069"
       fx="21.82951"
       fy="28.964069"
       gradientTransform="matrix(0.7120638,0,0,0.4816147,-7.1835723,-2.8935724)"
       gradientUnits="userSpaceOnUse"
       id="radialGradient7167"
       inkscape:collect="always"
       r="16.803993"
       xlink:href="#linearGradient2303" />
    <radialGradient
       cx="12.863017"
       cy="41.15139"
       fx="12.863017"
       fy="41.15139"
       gradientTransform="matrix(2.6078767,0,0,1.9794136,-20.682145,-42.26866)"
       gradientUnits="userSpaceOnUse"
       id="radialGradient7172"
       inkscape:collect="always"
       r="15.727942"
       xlink:href="#linearGradient6967" />
    <linearGradient
       gradientUnits="userSpaceOnUse"
       id="linearGradient7198"
       inkscape:collect="always"
       x1="6.1429901"
       x2="6.1429901"
       xlink:href="#linearGradient7192"
       y1="3.3046083"
       y2="-0.8125" />
    <linearGradient
       gradientTransform="translate(0,1)"
       gradientUnits="userSpaceOnUse"
       id="linearGradient7202"
       inkscape:collect="always"
       x1="6.0987959"
       x2="6.0987959"
       xlink:href="#linearGradient7204"
       y1="5.501441"
       y2="0.95416367" />
    <linearGradient
       gradientUnits="userSpaceOnUse"
       id="linearGradient7252"
       inkscape:collect="always"
       x1="23.549852"
       x2="23.549852"
       xlink:href="#linearGradient7246"
       y1="11.71743"
       y2="13.085086" />
    <linearGradient
       id="linearGradient6965"
       inkscape:collect="always">
      <stop
         id="stop6967"
         offset="0"
         style="stop-color:#ffffff;stop-opacity:1;" />
      <stop
         id="stop6970"
         offset="1"
         style="stop-color:#ffffff;stop-opacity:0;" />
    </linearGradient>
    <linearGradient
       gradientUnits="userSpaceOnUse"
       id="linearGradient5974"
       inkscape:collect="always"
       x1="23.549852"
       x2="23.549852"
       xlink:href="#linearGradient7246"
       y1="11.71743"
       y2="13.085086" />
    <radialGradient
       cx="9.6142769"
       cy="8.5215349"
       fx="9.6142769"
       fy="8.5215349"
       gradientTransform="matrix(1.0702521,0,0,0.9665105,-0.6754235,0.3692398)"
       gradientUnits="userSpaceOnUse"
       id="radialGradient6963"
       inkscape:collect="always"
       r="5.5"
       xlink:href="#linearGradient2303" />
    <linearGradient
       gradientUnits="userSpaceOnUse"
       id="linearGradient6972"
       inkscape:collect="always"
       x1="7.726398"
       x2="10.5"
       xlink:href="#linearGradient6965"
       y1="6.8031702"
       y2="25.226936" />
  </defs>
  <g
     id="layer6"
     inkscape:groupmode="layer"
     inkscape:label="baseplate"
     style="display:none">
    <rect
       height="48"
       id="rect6284"
       inkscape:label="48x48"
       style="fill:#eeeeec;fill-opacity:1;fill-rule:nonzero;stroke:none;stroke-width:2;marker:none;visibility:visible;display:inline;overflow:visible;enable-background:accumulate"
       width="48"
       x="296"
       y="50" />
    <rect
       height="32"
       id="rect6592"
       inkscape:label="32x32"
       style="fill:#eeeeec;fill-opacity:1;fill-rule:nonzero;stroke:none;stroke-width:2;marker:none;visibility:visible;display:inline;overflow:visible;enable-background:accumulate"
       width="32"
       x="303"
       y="126" />
    <rect
       height="22"
       id="rect6749"
       inkscape:label="22x22"
       style="fill:#eeeeec;fill-opacity:1;fill-rule:nonzero;stroke:none;stroke-width:2;marker:none;visibility:visible;display:inline;overflow:visible;enable-background:accumulate"
       width="22"
       x="303"
       y="177" />
    <rect
       height="16"
       id="rect6833"
       inkscape:label="16x16"
       style="fill:#eeeeec;fill-opacity:1;fill-rule:nonzero;stroke:none;stroke-width:2;marker:none;visibility:visible;display:inline;overflow:visible;enable-background:accumulate"
       width="16"
       x="303"
       y="219" />
    <text
       id="context"
       inkscape:label="context"
       style="font-size:18.30070686px;font-style:normal;font-weight:normal;fill:#000000;fill-opacity:1;stroke:none;display:inline;enable-background:new;font-family:Bitstream Vera Sans"
       x="20.970737"
       xml:space="preserve"
       y="21.513618"><tspan
         id="tspan2716"
         sodipodi:role="line"
         x="20.970737"
         y="21.513618">devices</tspan></text>
    <text
       id="icon-name"
       inkscape:label="icon-name"
       sodipodi:linespacing="125%"
       style="font-size:18.30070686px;font-style:normal;font-variant:normal;font-weight:bold;font-stretch:normal;text-align:start;line-height:125%;writing-mode:lr-tb;text-anchor:start;fill:#000000;fill-opacity:1;stroke:none;display:inline;enable-background:new;font-family:Droid Sans;-inkscape-font-specification:Droid Sans Bold"
       x="191.97073"
       xml:space="preserve"
       y="21.513618"><tspan
         id="tspan3023"
         sodipodi:role="line"
         x="191.97073"
         y="21.513618">input-mouse</tspan></text>
  </g>
  <g
     id="layer2"
     inkscape:groupmode="layer"
     inkscape:label="small sizes"
     style="display:inline">
    <g
       id="g48"
       style="display:inline;enable-background:new"
       transform="translate(296,50) scale(1.000000,1.000000)">
      <path
         d="M 24.42295,21.499999 C 20.429501,12.167483 37.943227,18.300964 34.541157,13.430812 C 31.197519,8.644307 12.735701,18.622087 8.8890873,13.545879 C 4.9770662,8.3833545 18.986255,10.18934 13,1"
         id="path7142"
         sodipodi:nodetypes="czzc"
         style="fill:none;fill-opacity:1;fill-rule:evenodd;stroke:url(#linearGradient7144);stroke-width:0.99999994;stroke-linecap:square;stroke-linejoin:miter;stroke-miterlimit:4;stroke-dasharray:none;stroke-opacity:1;display:inline;opacity:0.25" />
      <path
         d="M 24.42295,20.499999 C 20.429501,11.167483 37.943227,17.300964 34.541157,12.430812 C 31.197519,7.644307 12.735701,17.622087 8.8890873,12.545879 C 4.9770662,7.3833545 18.986255,9.1893399 13,0"
         id="path5014"
         sodipodi:nodetypes="czzc"
         style="fill:none;fill-opacity:1;fill-rule:evenodd;stroke:url(#linearGradient6086);stroke-width:0.99999994;stroke-linecap:square;stroke-linejoin:miter;stroke-miterlimit:4;stroke-dasharray:none;stroke-opacity:1" />
      <path
         d="M 22.5,21.171146 L 25.5,21.171146 L 25.5,19.671146 C 25.5,18.776282 22.5,18.776282 22.5,19.671146 L 22.5,21.171146 z "
         id="rect5006"
         sodipodi:nodetypes="cczzc"
         style="color:#000000;fill:url(#linearGradient5058);fill-opacity:1;fill-rule:nonzero;stroke:#888a85;stroke-width:1;stroke-linecap:square;stroke-linejoin:round;marker:none;marker-start:none;marker-mid:none;marker-end:none;stroke-miterlimit:4;stroke-dashoffset:0;stroke-opacity:1;visibility:visible;display:inline;overflow:visible" />
      <path
         d="M 42.375 40.625 A 18.375 7.625 0 1 1  5.625,40.625 A 18.375 7.625 0 1 1  42.375 40.625 z"
         id="path7146"
         sodipodi:cx="24"
         sodipodi:cy="40.625"
         sodipodi:rx="18.375"
         sodipodi:ry="7.625"
         sodipodi:type="arc"
         style="fill:url(#radialGradient6062);fill-opacity:1;fill-rule:evenodd;stroke:none;stroke-width:1.10000002;stroke-linecap:round;stroke-linejoin:round;stroke-miterlimit:4;stroke-dasharray:none;stroke-opacity:1"
         transform="matrix(0.9401387,0,0,1.2874992,1.4366709,-14.014031)" />
      <path
         d="M 21.987025,20.486027 C 31.858546,20.472054 15.837014,20.472054 25.8607,20.486027 C 35.884385,20.5 39.212029,30 39.490281,35.760764 C 39.768534,41.521528 34.026937,45.486116 28.01015,45.486116 L 19.987769,45.486116 C 13.970982,45.486116 8.2274109,41.467476 8.5076365,35.733738 C 8.7878621,30 12.115505,20.5 21.987025,20.486027 z "
         id="rect1413"
         sodipodi:nodetypes="czzcczz"
         style="color:#000000;fill:url(#radialGradient6981);fill-opacity:1;fill-rule:nonzero;stroke:#747672;stroke-width:1.00000024;stroke-linecap:round;stroke-linejoin:round;marker:none;marker-start:none;marker-mid:none;marker-end:none;stroke-miterlimit:4;stroke-dashoffset:0;stroke-opacity:1;visibility:visible;display:inline;overflow:visible" />
      <path
         d="M 21.875,21.5625 C 17.005935,21.569053 13.923138,23.726255 11.875,26.59375 C 9.826862,29.461245 8.9191743,33.098135 8.78125,35.78125 C 8.6535709,38.265061 9.8564493,40.339409 11.90625,41.90625 C 13.956051,43.473091 16.84316,44.4375 19.78125,44.4375 L 28.21875,44.4375 C 31.160096,44.4375 34.045593,43.493128 36.09375,41.9375 C 38.141907,40.381872 39.345735,38.312042 39.21875,35.8125 C 39.081721,33.115256 38.159122,29.464373 36.09375,26.59375 C 34.028378,23.723127 30.922588,21.569066 25.96875,21.5625 C 25.746608,21.562206 25.698356,21.562782 25.5,21.5625 C 25.116512,21.561955 24.893949,21.562999 24.59375,21.5625 C 24.128317,21.563601 23.289161,21.561093 22.3125,21.5625 C 22.125195,21.56277 22.083881,21.562219 21.875,21.5625 z "
         id="path6963"
         inkscape:original="M 21.875 20.5 C 11.49218 20.513973 8.0134902 29.985012 7.71875 35.71875 C 7.42401 41.452488 13.452822 45.500001 19.78125 45.5 L 28.21875 45.5 C 34.547179 45.5 40.573916 41.510763 40.28125 35.75 C 39.988585 29.989236 36.511618 20.513973 25.96875 20.5 C 15.425883 20.486027 32.25782 20.486027 21.875 20.5 z "
         inkscape:radius="-1.0606601"
         sodipodi:type="inkscape:offset"
         style="color:#000000;fill:none;fill-opacity:1;fill-rule:nonzero;stroke:url(#radialGradient6973);stroke-width:1.02552617;stroke-linecap:round;stroke-linejoin:round;marker:none;marker-start:none;marker-mid:none;marker-end:none;stroke-miterlimit:4;stroke-dashoffset:0;stroke-opacity:1;visibility:visible;display:inline;overflow:visible"
         transform="matrix(0.9508384,0,0,1,1.1798763,0)" />
      <path
         d="M 22,21 C 21.059343,22.582981 22.408226,23.578867 23.5,23.84375 L 23.5,26.5"
         id="path7111"
         sodipodi:nodetypes="ccc"
         style="fill:#d3d7cf;fill-opacity:1;fill-rule:evenodd;stroke:#d3d7cf;stroke-width:1;stroke-linecap:round;stroke-linejoin:round;stroke-miterlimit:4;stroke-dasharray:none;stroke-opacity:1;display:inline" />
      <path
         d="M 26,21 C 27.046162,22.582981 25.591774,23.547617 24.5,23.8125 L 24.5,26.5"
         id="path7118"
         sodipodi:nodetypes="ccc"
         style="fill:none;fill-opacity:1;fill-rule:evenodd;stroke:url(#linearGradient7126);stroke-width:1;stroke-linecap:round;stroke-linejoin:round;stroke-miterlimit:4;stroke-dasharray:none;stroke-opacity:1;display:inline" />
      <path
         d="M 21.200161,20.486027 L 26.694333,20.486027"
         id="path7120"
         sodipodi:nodetypes="cc"
         style="fill:none;fill-rule:evenodd;stroke:#747672;stroke-width:1.00000012px;stroke-linecap:round;stroke-linejoin:miter;stroke-opacity:1" />
      <path
         d="M 25.5 12.21875 A 1.75 1.21875 0 1 1  22,12.21875 A 1.75 1.21875 0 1 1  25.5 12.21875 z"
         id="path7103"
         sodipodi:cx="23.75"
         sodipodi:cy="12.21875"
         sodipodi:rx="1.75"
         sodipodi:ry="1.21875"
         sodipodi:type="arc"
         style="fill:url(#radialGradient7095);fill-opacity:1;fill-rule:evenodd;stroke:none;stroke-width:1.02007318;stroke-linecap:round;stroke-linejoin:round;stroke-miterlimit:4;stroke-dasharray:none;stroke-opacity:1"
         transform="matrix(1.1428565,0,0,1.83759,-3.1428433,-1.21349)" />
      <path
         d="M 24,26 C 18.976678,25.946121 14.360757,28.278 11.5,26.5 C 13.789347,29.348387 19.486803,27.100739 24,27 C 28.513197,27.100739 34.210653,29.348387 36.5,26.5 C 33.639243,28.278 29.023322,25.946121 24,26 z "
         id="path6957"
         sodipodi:nodetypes="ccccc"
         style="fill:url(#radialGradient7122);fill-opacity:1.0;fill-rule:evenodd;stroke:none;stroke-width:1px;stroke-linecap:round;stroke-linejoin:round;stroke-opacity:1;display:inline" />
      <path
         d="M 11.5,26.5 C 14.289347,31.45699 19.486803,28.083948 24,28 C 28.513197,28.083948 33.710653,31.45699 36.5,26.5 C 32.514243,29.762917 29.023322,26.9551 24,27 C 18.976678,26.9551 15.485757,29.762917 11.5,26.5 z "
         id="path7076"
         sodipodi:nodetypes="ccccc"
         style="fill:url(#radialGradient7114);fill-opacity:1.0;fill-rule:evenodd;stroke:none;stroke-width:1px;stroke-linecap:round;stroke-linejoin:round;stroke-opacity:1;display:inline" />
      <path
         d="M 24.174214 21.041553 A 0.86178637 0.66291261 0 1 1  22.450641,21.041553 A 0.86178637 0.66291261 0 1 1  24.174214 21.041553 z"
         id="path6965"
         sodipodi:cx="23.312428"
         sodipodi:cy="21.041553"
         sodipodi:rx="0.86178637"
         sodipodi:ry="0.66291261"
         sodipodi:type="arc"
         style="opacity:0.37686567;fill:#ffffff;fill-opacity:1;fill-rule:evenodd;stroke:none;stroke-width:1;stroke-linecap:round;stroke-linejoin:round;stroke-miterlimit:4;stroke-dasharray:none;stroke-opacity:1"
         transform="matrix(1,0,0,1.8013877,3.125e-2,-17.04366)" />
    </g>
    <g
       id="g32"
       style="display:inline;enable-background:new"
       transform="translate(303,126) scale(1.000000,1.000000)">
      <path
         d="M 16.22496,12.499999 C 13.917408,7.1508741 24.037439,10.666406 22.071607,7.8749773 C 20.139538,5.1314929 9.4716663,10.850464 7.2489609,7.9409303 C 4.988461,4.9819223 13.083451,6.0170605 9.6243873,0.7500001"
         id="path6016"
         sodipodi:nodetypes="czzc"
         style="fill:none;fill-opacity:1;fill-rule:evenodd;stroke:url(#linearGradient6018);stroke-width:0.99999988;stroke-linecap:square;stroke-linejoin:miter;stroke-miterlimit:4;stroke-dasharray:none;stroke-opacity:1;display:inline;opacity:0.2" />
      <path
         d="M 16.22496,11.499999 C 13.917408,6.1508741 24.037439,9.6664057 22.071607,6.8749773 C 20.139538,4.1314929 9.4716663,9.850464 7.2489609,6.9409303 C 4.988461,3.9819223 13.083451,5.0170605 9.6243873,-0.2499999"
         id="path106"
         sodipodi:nodetypes="czzc"
         style="fill:none;fill-opacity:1;fill-rule:evenodd;stroke:url(#linearGradient6086);stroke-width:0.99999988;stroke-linecap:square;stroke-linejoin:miter;stroke-miterlimit:4;stroke-dasharray:none;stroke-opacity:1" />
      <path
         d="M 42.375 40.625 A 18.375 7.625 0 1 1  5.625,40.625 A 18.375 7.625 0 1 1  42.375 40.625 z"
         id="path108"
         sodipodi:cx="24"
         sodipodi:cy="40.625"
         sodipodi:rx="18.375"
         sodipodi:ry="7.625"
         sodipodi:type="arc"
         style="fill:url(#radialGradient6062);fill-opacity:1;fill-rule:evenodd;stroke:none;stroke-width:1.10000002;stroke-linecap:round;stroke-linejoin:round;stroke-miterlimit:4;stroke-dasharray:none;stroke-opacity:1"
         transform="matrix(0.7330432,0,0,1.0385254,-1.5930382,-17.690095)" />
      <path
         d="M 14.891735,12.454659 L 17.118183,12.454659 L 17.118183,11.341435 C 17.118183,10.677313 14.891735,10.677313 14.891735,11.341435 L 14.891735,12.454659 z "
         id="path110"
         sodipodi:nodetypes="cczzc"
         style="color:#000000;fill:url(#linearGradient6010);fill-opacity:1;fill-rule:nonzero;stroke:#888a85;stroke-width:0.99999994;stroke-linecap:square;stroke-linejoin:round;marker:none;marker-start:none;marker-mid:none;marker-end:none;stroke-miterlimit:4;stroke-dashoffset:0;stroke-opacity:1;visibility:visible;display:inline;overflow:visible" />
      <path
         d="M 14.507431,11.522467 C 21.83094,11.51186 9.9448453,11.51186 17.381242,11.522467 C 24.817639,11.533074 27.28636,18.74451 27.492791,23.117499 C 27.699222,27.490486 23.439631,30.5 18.975882,30.5 L 13.024218,30.5 C 8.5604688,30.5 4.2994138,27.449456 4.5073082,23.096983 C 4.7152027,18.74451 7.1839229,11.533074 14.507431,11.522467 z "
         id="path112"
         sodipodi:nodetypes="czzcczz"
         style="color:#000000;fill:url(#radialGradient6007);fill-opacity:1;fill-rule:nonzero;stroke:#747672;stroke-width:1.00000024;stroke-linecap:round;stroke-linejoin:round;marker:none;marker-start:none;marker-mid:none;marker-end:none;stroke-miterlimit:4;stroke-dashoffset:0;stroke-opacity:1;visibility:visible;display:inline;overflow:visible" />
      <path
         d="M 21.875,21.5625 C 17.005935,21.569053 13.923138,23.726255 11.875,26.59375 C 9.826862,29.461245 8.9191743,33.098135 8.78125,35.78125 C 8.6535709,38.265061 9.8564493,40.339409 11.90625,41.90625 C 13.956051,43.473091 16.84316,44.4375 19.78125,44.4375 L 28.21875,44.4375 C 31.160096,44.4375 34.045593,43.493128 36.09375,41.9375 C 38.141907,40.381872 39.345735,38.312042 39.21875,35.8125 C 39.081721,33.115256 38.159122,29.464373 36.09375,26.59375 C 34.028378,23.723127 30.922588,21.569066 25.96875,21.5625 C 25.746608,21.562206 25.698356,21.562782 25.5,21.5625 C 25.116512,21.561955 24.893949,21.562999 24.59375,21.5625 C 24.128317,21.563601 23.289161,21.561093 22.3125,21.5625 C 22.125195,21.56277 22.083881,21.562219 21.875,21.5625 z "
         id="path114"
         inkscape:original="M 21.875 20.5 C 11.49218 20.513973 8.0134902 29.985012 7.71875 35.71875 C 7.42401 41.452488 13.452822 45.500001 19.78125 45.5 L 28.21875 45.5 C 34.547179 45.5 40.573916 41.510763 40.28125 35.75 C 39.988585 29.989236 36.511618 20.513973 25.96875 20.5 C 15.425883 20.486027 32.25782 20.486027 21.875 20.5 z "
         inkscape:radius="-1.0606601"
         sodipodi:type="inkscape:offset"
         style="color:#000000;fill:none;fill-opacity:1;fill-rule:nonzero;stroke:url(#radialGradient6014);stroke-width:1.40183938;stroke-linecap:round;stroke-linejoin:round;marker:none;marker-start:none;marker-mid:none;marker-end:none;stroke-miterlimit:4;stroke-dashoffset:0;stroke-opacity:1;visibility:visible;display:inline;overflow:visible"
         transform="matrix(0.689162,0,0,0.738384,-0.539071,-3.34487)" />
      <path
         d="M 14.387177,12 C 13.68932,13.201639 14.690033,13.957614 15.5,14.158687 L 15.5,16.175042"
         id="path116"
         sodipodi:nodetypes="ccc"
         style="fill:#d3d7cf;fill-opacity:1;fill-rule:evenodd;stroke:#d3d7cf;stroke-width:0.99999994;stroke-linecap:round;stroke-linejoin:round;stroke-miterlimit:4;stroke-dasharray:none;stroke-opacity:1;display:inline" />
      <path
         d="M 17.612823,12 C 18.388952,13.201639 17.309967,13.933892 16.5,14.134965 L 16.5,16.175042"
         id="path118"
         sodipodi:nodetypes="ccc"
         style="fill:none;fill-opacity:1;fill-rule:evenodd;stroke:url(#linearGradient6002);stroke-width:0.99999994;stroke-linecap:round;stroke-linejoin:round;stroke-miterlimit:4;stroke-dasharray:none;stroke-opacity:1;display:inline" />
      <path
         d="M 13.92367,11.522467 L 17.999701,11.522467"
         id="path120"
         sodipodi:nodetypes="cc"
         style="fill:none;fill-rule:evenodd;stroke:#747672;stroke-width:1.00000012px;stroke-linecap:round;stroke-linejoin:miter;stroke-opacity:1" />
      <path
         d="M 25.5 12.21875 A 1.75 1.21875 0 1 1  22,12.21875 A 1.75 1.21875 0 1 1  25.5 12.21875 z"
         id="path122"
         sodipodi:cx="23.75"
         sodipodi:cy="12.21875"
         sodipodi:rx="1.75"
         sodipodi:ry="1.21875"
         sodipodi:type="arc"
         style="fill:url(#radialGradient6012);fill-opacity:1;fill-rule:evenodd;stroke:none;stroke-width:1.02007318;stroke-linecap:round;stroke-linejoin:round;stroke-miterlimit:4;stroke-dasharray:none;stroke-opacity:1"
         transform="matrix(0.8478653,0,0,1.4792101,-4.1359787,-5.8768856)" />
      <path
         d="M 16,16 C 12.282742,15.959099 9,17.5 7,16.379548 C 9,19 12.660235,17.07647 16,17 C 19.339766,17.07647 23.5,19 25.5,16.379548 C 23.5,17.5 19.717259,15.959099 16,16 z "
         id="path124"
         sodipodi:nodetypes="ccccc"
         style="fill:url(#radialGradient5997);fill-opacity:1;fill-rule:evenodd;stroke:none;stroke-width:1px;stroke-linecap:round;stroke-linejoin:round;stroke-opacity:1;display:inline" />
      <path
         d="M 7,16.5 C 9.0641168,20.262844 12.660235,18.063725 16,18 C 19.339766,18.063725 23.435884,20.262844 25.5,16.5 C 22.55054,18.976876 19.717258,16.965916 16,17 C 12.282743,16.965916 9.9494603,18.976876 7,16.5 z "
         id="path126"
         sodipodi:nodetypes="ccccc"
         style="fill:#ffffff;fill-opacity:1;fill-rule:evenodd;stroke:none;stroke-width:1px;stroke-linecap:round;stroke-linejoin:round;stroke-opacity:1;display:inline" />
      <path
         d="M 24.174214 21.041553 A 0.86178637 0.66291261 0 1 1  22.450641,21.041553 A 0.86178637 0.66291261 0 1 1  24.174214 21.041553 z"
         id="path128"
         sodipodi:cx="23.312428"
         sodipodi:cy="21.041553"
         sodipodi:rx="0.86178637"
         sodipodi:ry="0.66291261"
         sodipodi:type="arc"
         style="opacity:0.37686564;fill:#ffffff;fill-opacity:1;fill-rule:evenodd;stroke:none;stroke-width:1;stroke-linecap:round;stroke-linejoin:round;stroke-miterlimit:4;stroke-dasharray:none;stroke-opacity:1"
         transform="matrix(0.7418825,0,0,1.3674309,-1.7811747,-16.966267)" />
    </g>
    <g
       id="g22"
       style="display:inline;enable-background:new"
       transform="translate(303,177) scale(1.000000,1.000000)">
      <path
         d="M 42.375 40.625 A 18.375 7.625 0 1 1  5.625,40.625 A 18.375 7.625 0 1 1  42.375 40.625 z"
         id="path131"
         sodipodi:cx="24"
         sodipodi:cy="40.625"
         sodipodi:rx="18.375"
         sodipodi:ry="7.625"
         sodipodi:type="arc"
         style="fill:url(#radialGradient6062);fill-opacity:1;fill-rule:evenodd;stroke:none;stroke-width:1.10000002;stroke-linecap:round;stroke-linejoin:round;stroke-miterlimit:4;stroke-dasharray:none;stroke-opacity:1;opacity:0.9"
         transform="matrix(0.6207742,0,0,0.943122,-4.3985805,-22.935526)" />
      <path
         d="M 10.5,6 C 11.0625,1 5,6 5.5,1"
         id="path7200"
         sodipodi:nodetypes="cc"
         style="fill:none;fill-opacity:1;fill-rule:evenodd;stroke:url(#linearGradient7202);stroke-width:1px;stroke-linecap:butt;stroke-linejoin:miter;stroke-opacity:1;display:inline;opacity:0.2" />
      <path
         d="M 10.5,5 C 11.0625,0 5,5 5.5,0"
         id="path7182"
         sodipodi:nodetypes="cc"
         style="fill:none;fill-rule:evenodd;stroke:url(#linearGradient7198);stroke-width:1px;stroke-linecap:round;stroke-linejoin:miter;stroke-opacity:1;fill-opacity:1.0" />
      <path
         d="M 9.3116269,5.5296212 C 15.054496,5.5212409 5.7337877,5.5212409 11.565181,5.5296212 C 17.396574,5.5380014 19.332469,11.23557 19.494345,14.690555 C 19.656223,18.145539 16.315982,20.523279 12.815649,20.523279 L 8.1485366,20.523279 C 4.6482023,20.523279 1.3068143,18.113123 1.4698386,14.674347 C 1.6328631,11.23557 3.5687575,5.5380014 9.3116269,5.5296212 z "
         id="path135"
         sodipodi:nodetypes="czzcczz"
         style="color:#000000;fill:url(#radialGradient7167);fill-opacity:1;fill-rule:nonzero;stroke:#888a85;stroke-width:1.00000012;stroke-linecap:round;stroke-linejoin:round;marker:none;marker-start:none;marker-mid:none;marker-end:none;stroke-miterlimit:4;stroke-dashoffset:0;stroke-opacity:1;visibility:visible;display:inline;overflow:visible" />
      <path
         d="M 21.875,21.5625 C 17.005935,21.569053 13.923138,23.726255 11.875,26.59375 C 9.826862,29.461245 8.9191743,33.098135 8.78125,35.78125 C 8.6535709,38.265061 9.8564493,40.339409 11.90625,41.90625 C 13.956051,43.473091 16.84316,44.4375 19.78125,44.4375 L 28.21875,44.4375 C 31.160096,44.4375 34.045593,43.493128 36.09375,41.9375 C 38.141907,40.381872 39.345735,38.312042 39.21875,35.8125 C 39.081721,33.115256 38.159122,29.464373 36.09375,26.59375 C 34.028378,23.723127 30.922588,21.569066 25.96875,21.5625 C 25.746608,21.562206 25.698356,21.562782 25.5,21.5625 C 25.116512,21.561955 24.893949,21.562999 24.59375,21.5625 C 24.128317,21.563601 23.289161,21.561093 22.3125,21.5625 C 22.125195,21.56277 22.083881,21.562219 21.875,21.5625 z "
         id="path137"
         inkscape:original="M 21.875 20.5 C 11.49218 20.513973 8.0134902 29.985012 7.71875 35.71875 C 7.42401 41.452488 13.452822 45.500001 19.78125 45.5 L 28.21875 45.5 C 34.547179 45.5 40.573916 41.510763 40.28125 35.75 C 39.988585 29.989236 36.511618 20.513973 25.96875 20.5 C 15.425883 20.486027 32.25782 20.486027 21.875 20.5 z "
         inkscape:radius="-1.0606601"
         sodipodi:type="inkscape:offset"
         style="color:#000000;fill:none;fill-opacity:1;fill-rule:nonzero;stroke:url(#radialGradient7172);stroke-width:1.82751977;stroke-linecap:round;stroke-linejoin:round;marker:none;marker-start:none;marker-mid:none;marker-end:none;stroke-miterlimit:4;stroke-dashoffset:0;stroke-opacity:1;visibility:visible;display:inline;overflow:visible"
         transform="matrix(0.5282063,0,0,0.5668553,-2.1942854,-5.7225681)" />
      <path
         d="M 10.5,6.5 L 10.5,9.5"
         id="path139"
         sodipodi:nodetypes="cc"
         style="fill:#babdb6;fill-opacity:1;fill-rule:evenodd;stroke:#babdb6;stroke-width:0.99999982;stroke-linecap:round;stroke-linejoin:round;stroke-miterlimit:4;stroke-dasharray:none;stroke-opacity:1;display:inline" />
      <path
         d="M 25.5 12.21875 A 1.75 1.21875 0 1 1  22,12.21875 A 1.75 1.21875 0 1 1  25.5 12.21875 z"
         id="path141"
         sodipodi:cx="23.75"
         sodipodi:cy="12.21875"
         sodipodi:rx="1.75"
         sodipodi:ry="1.21875"
         sodipodi:type="arc"
         style="fill:url(#linearGradient7252);fill-opacity:1.0;fill-rule:evenodd;stroke:#729fcf;stroke-width:1.19242465;stroke-linecap:round;stroke-linejoin:round;stroke-miterlimit:4;stroke-dasharray:none;stroke-opacity:1"
         transform="matrix(0.5714282,0,0,1.2307687,-3.0714191,-9.038456)" />
      <path
         d="M 10.485099,9 C 7.633851,8.9655139 5.0138423,11.138037 3.3900699,10 C 5.2820777,12 7.9233992,10.06448 10.485099,10 C 13.046802,10.06448 15.688121,12 17.580129,10 C 15.956358,11.138037 13.336351,8.9655139 10.485099,9 z "
         id="path143"
         sodipodi:nodetypes="ccccc"
         style="fill:#babdb6;fill-opacity:1;fill-rule:evenodd;stroke:none;stroke-width:1px;stroke-linecap:round;stroke-linejoin:round;stroke-opacity:1;display:inline" />
      <path
         d="M 3.3900699,10 C 4.9733098,13.1728 7.9233982,11.053732 10.485099,11 C 13.046801,11.053732 15.996889,13.1728 17.580129,10 C 15.317804,12.088482 13.33635,9.971261 10.485099,10 C 7.6338501,9.971261 5.652395,12.088482 3.3900699,10 z "
         id="path145"
         sodipodi:nodetypes="ccccc"
         style="fill:#ffffff;fill-opacity:1;fill-rule:evenodd;stroke:none;stroke-width:1px;stroke-linecap:round;stroke-linejoin:round;stroke-opacity:1;display:inline" />
    </g>
    <g
       id="g16"
       style="display:inline;enable-background:new"
       transform="translate(303,219) scale(1.000000,1.000000)">
      <path
         d="M 1.5,0 L 1.5,3 C 1.5,9 10.5,-6.5 10.5,5"
         id="path148"
         sodipodi:nodetypes="csc"
         style="fill:none;fill-opacity:1;fill-rule:evenodd;stroke:url(#linearGradient7198);stroke-width:1px;stroke-linecap:round;stroke-linejoin:miter;stroke-opacity:1" />
      <path
         d="M 9,4.5 L 12,4.5 C 14,4.5 15.5,7 15.5,8.5 L 15.5,12.760723 C 15.5,14.278283 14.061466,15.5 12.274587,15.5 L 8.725413,15.5 C 6.938534,15.5 5.5,14.278283 5.5,12.760723 L 5.5,8.5 C 5.5,7 7,4.5 9,4.5 z "
         id="rect5969"
         sodipodi:nodetypes="ccccccccc"
         style="opacity:1;fill:url(#radialGradient6963);fill-opacity:1;fill-rule:evenodd;stroke:none;stroke-width:0.99999994;stroke-linecap:round;stroke-linejoin:round;stroke-miterlimit:4;stroke-opacity:1" />
      <path
         d="M 10.5,6.5 L 10.5,9.5"
         id="path5976"
         sodipodi:nodetypes="cc"
         style="fill:#babdb6;fill-opacity:1;fill-rule:evenodd;stroke:#babdb6;stroke-width:0.99999982;stroke-linecap:round;stroke-linejoin:round;stroke-miterlimit:4;stroke-dasharray:none;stroke-opacity:1;display:inline" />
      <path
         d="M 5.5,7.5 C 5.5,7.5 6.4793094,9.5 8,9.5 L 13,9.5 C 14.520691,9.5 15.5,7.5 15.5,7.5"
         id="path5978"
         sodipodi:nodetypes="cssc"
         style="fill:none;fill-rule:evenodd;stroke:#d3d7cf;stroke-width:1px;stroke-linecap:butt;stroke-linejoin:miter;stroke-opacity:1" />
      <path
         d="M 9,5.5 C 8.4166667,5.5 7.7823435,5.9110785 7.28125,6.5625 C 6.7801565,7.2139215 6.5,8.0833333 6.5,8.5 L 6.5,12.75 C 6.5,13.638536 7.3916828,14.5 8.71875,14.5 L 12.28125,14.5 C 13.608318,14.5 14.5,13.638537 14.5,12.75 L 14.5,8.5 C 14.5,8.0833333 14.219843,7.2139215 13.71875,6.5625 C 13.217657,5.9110785 12.583333,5.5 12,5.5 L 9,5.5 z "
         id="path6955"
         inkscape:original="M 9 4.5 C 7 4.5 5.5 7 5.5 8.5 L 5.5 12.75 C 5.5 14.26756 6.9318716 15.5 8.71875 15.5 L 12.28125 15.5 C 14.068129 15.5 15.5 14.26756 15.5 12.75 L 15.5 8.5 C 15.5 7 14 4.5 12 4.5 L 9 4.5 z "
         inkscape:radius="-1"
         sodipodi:type="inkscape:offset"
         style="opacity:1;fill:none;fill-opacity:1.0;fill-rule:evenodd;stroke:url(#linearGradient6972);stroke-width:0.99999994;stroke-linecap:round;stroke-linejoin:round;stroke-miterlimit:4;stroke-opacity:1;display:inline" />
      <path
         d="M 5.5,8.5 C 5.5,8.5 6.4793094,10.5 8,10.5 L 13,10.5 C 14.520691,10.5 15.5,8.5 15.5,8.5"
         id="path5980"
         sodipodi:nodetypes="cssc"
         style="fill:none;fill-rule:evenodd;stroke:#ffffff;stroke-width:1px;stroke-linecap:butt;stroke-linejoin:miter;stroke-opacity:1;display:inline" />
      <path
         d="M 9,4.5 L 12,4.5 C 14,4.5 15.5,7 15.5,8.5 L 15.5,12.760723 C 15.5,14.278283 14.061466,15.5 12.274587,15.5 L 8.7254126,15.5 C 6.938534,15.5 5.5,14.278283 5.5,12.760723 L 5.5,8.5 C 5.5,7 7,4.5 9,4.5 z "
         id="path5982"
         sodipodi:nodetypes="ccccccccc"
         style="opacity:1;fill:none;fill-opacity:1;fill-rule:evenodd;stroke:#888a85;stroke-width:0.99999994;stroke-linecap:round;stroke-linejoin:round;stroke-miterlimit:4;stroke-opacity:1;display:inline" />
      <path
         d="M 25.5 12.21875 A 1.75 1.21875 0 1 1  22,12.21875 A 1.75 1.21875 0 1 1  25.5 12.21875 z"
         id="path5972"
         sodipodi:cx="23.75"
         sodipodi:cy="12.21875"
         sodipodi:rx="1.75"
         sodipodi:ry="1.21875"
         sodipodi:type="arc"
         style="fill:url(#linearGradient5974);fill-opacity:1;fill-rule:evenodd;stroke:#729fcf;stroke-width:1.19242465;stroke-linecap:round;stroke-linejoin:round;stroke-miterlimit:4;stroke-dasharray:none;stroke-opacity:1;display:inline"
         transform="matrix(0.5714282,0,0,1.2307687,-3.071419,-9.038456)" />
    </g>
  </g>
  <g
     id="layer4"
     inkscape:groupmode="layer"
     inkscape:label="hires"
     style="display:inline" />
</svg>
