<?xml version="1.0" encoding="UTF-8" standalone="no"?>
<!-- Created with Inkscape (http://www.inkscape.org/) -->
<svg
   xmlns:dc="http://purl.org/dc/elements/1.1/"
   xmlns:cc="http://creativecommons.org/ns#"
   xmlns:rdf="http://www.w3.org/1999/02/22-rdf-syntax-ns#"
   xmlns:svg="http://www.w3.org/2000/svg"
   xmlns="http://www.w3.org/2000/svg"
   xmlns:xlink="http://www.w3.org/1999/xlink"
   xmlns:sodipodi="http://sodipodi.sourceforge.net/DTD/sodipodi-0.dtd"
   xmlns:inkscape="http://www.inkscape.org/namespaces/inkscape"
   height="300"
   id="svg11300"
   inkscape:export-filename="/home/jimmac/Desktop/wi-fi.png"
   inkscape:export-xdpi="90.000000"
   inkscape:export-ydpi="90.000000"
   inkscape:output_extension="org.inkscape.output.svg.inkscape"
   inkscape:version="0.46"
   sodipodi:docname="media-playlist-repeat.svg"
   sodipodi:version="0.32"
   style="display:inline;enable-background:new"
   version="1.0"
   width="400">
  <title
     id="title8836">Optical Drive</title>
  <metadata
     id="metadata154">
    <rdf:RDF>
      <cc:Work
         rdf:about="">
        <dc:format>image/svg+xml</dc:format>
        <dc:type
           rdf:resource="http://purl.org/dc/dcmitype/StillImage" />
        <dc:title />
        <dc:creator>
          <cc:Agent>
            <dc:title />
          </cc:Agent>
        </dc:creator>
        <dc:contributor>
          <cc:Agent>
            <dc:title />
          </cc:Agent>
        </dc:contributor>
        <dc:source />
        <cc:license
           rdf:resource="" />
        <dc:subject>
          <rdf:Bag />
        </dc:subject>
      </cc:Work>
    </rdf:RDF>
  </metadata>
  <sodipodi:namedview
     bordercolor="#666666"
     borderopacity="0.25490196"
     fill="#f57900"
     gridtolerance="12"
     guidetolerance="13"
     height="300px"
     id="base"
     inkscape:current-layer="layer6"
     inkscape:cx="144.68008"
     inkscape:cy="87.105301"
     inkscape:document-units="px"
     inkscape:grid-bbox="true"
     inkscape:guide-bbox="true"
     inkscape:pageopacity="0.0"
     inkscape:pageshadow="2"
     inkscape:showpageshadow="false"
     inkscape:snap-bbox="true"
     inkscape:snap-nodes="true"
     inkscape:window-height="876"
     inkscape:window-width="968"
     inkscape:window-x="132"
     inkscape:window-y="8"
     inkscape:zoom="1"
     objecttolerance="7"
     pagecolor="#ffffff"
     showgrid="false"
     showguides="true"
     stroke="#ef2929"
     width="400px">
    <inkscape:grid
       empspacing="2"
       enabled="true"
       id="grid5883"
       spacingx="0.5px"
       spacingy="0.5px"
       type="xygrid"
       visible="true" />
  </sodipodi:namedview>
  <defs
     id="defs3">
    <linearGradient
       id="linearGradient7277">
      <stop
         id="stop7279"
         offset="0"
         style="stop-color:#ffffff;stop-opacity:1" />
      <stop
         id="stop7285"
         offset="0.52083331"
         style="stop-color:#000000;stop-opacity:0.23529412;" />
      <stop
         id="stop7287"
         offset="0.80034721"
         style="stop-color:#000000;stop-opacity:0.23529412;" />
      <stop
         id="stop7281"
         offset="1"
         style="stop-color:#ffffff;stop-opacity:1;" />
    </linearGradient>
    <linearGradient
       id="linearGradient7271"
       inkscape:collect="always">
      <stop
         id="stop7273"
         offset="0"
         style="stop-color:#000000;stop-opacity:0.23529412" />
      <stop
         id="stop7275"
         offset="1"
         style="stop-color:#ffffff;stop-opacity:1" />
    </linearGradient>
    <linearGradient
       id="linearGradient7344"
       inkscape:collect="always">
      <stop
         id="stop7346"
         offset="0"
         style="stop-color:#eeeeec;stop-opacity:1" />
      <stop
         id="stop7348"
         offset="1"
         style="stop-color:#92948f;stop-opacity:1" />
    </linearGradient>
    <linearGradient
       id="linearGradient7305">
      <stop
         id="stop7307"
         offset="0"
         style="stop-color:#ffffff;stop-opacity:1" />
      <stop
         id="stop7313"
         offset="0.20971029"
         style="stop-color:#ffffff;stop-opacity:0;" />
      <stop
         id="stop7329"
         offset="0.34936365"
         style="stop-color:#ffffff;stop-opacity:0.81065089;" />
      <stop
         id="stop7321"
         offset="0.42850056"
         style="stop-color:#ffffff;stop-opacity:0;" />
      <stop
         id="stop7323"
         offset="0.52134049"
         style="stop-color:#ffffff;stop-opacity:1;" />
      <stop
         id="stop7317"
         offset="0.55746967"
         style="stop-color:#ffffff;stop-opacity:0;" />
      <stop
         id="stop7319"
         offset="0.71001518"
         style="stop-color:#ffffff;stop-opacity:0.56804734;" />
      <stop
         id="stop7416"
         offset="0.74394959"
         style="stop-color:#ffffff;stop-opacity:0;" />
      <stop
         id="stop7309"
         offset="1"
         style="stop-color:#ffffff;stop-opacity:0" />
    </linearGradient>
    <linearGradient
       gradientUnits="userSpaceOnUse"
       id="linearGradient7760"
       inkscape:collect="always"
       x1="19.474762"
       x2="19.474762"
       xlink:href="#linearGradient7271"
       y1="14.031158"
       y2="31.518414" />
    <linearGradient
       gradientUnits="userSpaceOnUse"
       id="linearGradient7762"
       inkscape:collect="always"
       x1="20.75"
       x2="20.75"
       xlink:href="#linearGradient7277"
       y1="21.343321"
       y2="31.5" />
    <radialGradient
       cx="32.631359"
       cy="33.584618"
       fx="32.631359"
       fy="33.584618"
       gradientTransform="matrix(3.7501265,0,0,1.7574617,-142.58274,-77.71286)"
       gradientUnits="userSpaceOnUse"
       id="radialGradient7764"
       inkscape:collect="always"
       r="16"
       xlink:href="#linearGradient7344" />
    <linearGradient
       gradientUnits="userSpaceOnUse"
       id="linearGradient7766"
       inkscape:collect="always"
       x1="-5.6568542"
       x2="64.346718"
       xlink:href="#linearGradient7305"
       y1="41.63604"
       y2="3.0987194" />
    <filter
       id="filter7319"
       inkscape:collect="always">
      <feGaussianBlur
         id="feGaussianBlur7321"
         inkscape:collect="always"
         stdDeviation="0.7812031" />
    </filter>
    <radialGradient
       cx="32.631359"
       cy="33.584618"
       fx="32.631359"
       fy="33.584618"
       gradientTransform="matrix(3.7501265,0,0,1.7574617,-92.582739,-27.71286)"
       gradientUnits="userSpaceOnUse"
       id="radialGradient7564"
       inkscape:collect="always"
       r="16"
       xlink:href="#linearGradient7344" />
    <linearGradient
       id="linearGradient7003">
      <stop
         id="stop7005"
         offset="0"
         style="stop-color:#d3d7cf;stop-opacity:1" />
      <stop
         id="stop7007"
         offset="1"
         style="stop-color:#ffffff;stop-opacity:1" />
    </linearGradient>
    <linearGradient
       id="linearGradient6997">
      <stop
         id="stop6999"
         offset="0"
         style="stop-color:#d3d7cf;stop-opacity:1" />
      <stop
         id="stop7001"
         offset="1"
         style="stop-color:#ffffff;stop-opacity:1" />
    </linearGradient>
    <linearGradient
       id="linearGradient6730">
      <stop
         id="stop6732"
         offset="0"
         style="stop-color:#ffffff;stop-opacity:1;" />
      <stop
         id="stop6734"
         offset="1"
         style="stop-color:#eeeeec;stop-opacity:1" />
    </linearGradient>
    <linearGradient
       gradientTransform="translate(-50,50)"
       gradientUnits="userSpaceOnUse"
       id="linearGradient8227"
       inkscape:collect="always"
       x1="7.6845822"
       x2="15.420272"
       xlink:href="#linearGradient7003"
       y1="5.795495"
       y2="14.906407" />
    <linearGradient
       gradientTransform="translate(-50,50)"
       gradientUnits="userSpaceOnUse"
       id="linearGradient8229"
       inkscape:collect="always"
       x1="7.6845822"
       x2="16.357773"
       xlink:href="#linearGradient6997"
       y1="5.795495"
       y2="19.468908" />
    <linearGradient
       gradientTransform="translate(-50.77903,49)"
       gradientUnits="userSpaceOnUse"
       id="linearGradient8231"
       inkscape:collect="always"
       x1="11.844038"
       x2="13.081475"
       xlink:href="#linearGradient6730"
       y1="14.354407"
       y2="17.006058" />
    <linearGradient
       id="linearGradient7410">
      <stop
         id="stop7412"
         offset="0"
         style="stop-color:#d3d7cf;stop-opacity:1;" />
      <stop
         id="stop7414"
         offset="1"
         style="stop-color:#eeeeec;stop-opacity:1" />
    </linearGradient>
    <linearGradient
       gradientTransform="translate(0,90)"
       gradientUnits="userSpaceOnUse"
       id="linearGradient8130"
       inkscape:collect="always"
       x1="-45.115803"
       x2="-40.709263"
       xlink:href="#linearGradient7410"
       y1="4.607233"
       y2="10.269291" />
  </defs>
  <g
     id="layer6"
     inkscape:groupmode="layer"
     inkscape:label="baseplate"
     style="display:none">
    <rect
       height="48"
       id="rect6284"
       inkscape:label="48x48"
       style="fill:#eeeeec;fill-opacity:1;fill-rule:nonzero;stroke:none;stroke-width:2;marker:none;visibility:visible;display:inline;overflow:visible;enable-background:accumulate"
       width="48"
       x="296"
       y="50" />
    <rect
       height="32"
       id="rect6592"
       inkscape:label="32x32"
       style="fill:#eeeeec;fill-opacity:1;fill-rule:nonzero;stroke:none;stroke-width:2;marker:none;visibility:visible;display:inline;overflow:visible;enable-background:accumulate"
       width="32"
       x="303"
       y="126" />
    <rect
       height="22"
       id="rect6749"
       inkscape:label="22x22"
       style="fill:#eeeeec;fill-opacity:1;fill-rule:nonzero;stroke:none;stroke-width:2;marker:none;visibility:visible;display:inline;overflow:visible;enable-background:accumulate"
       width="22"
       x="303"
       y="177" />
    <rect
       height="16"
       id="rect6833"
       inkscape:label="16x16"
       style="fill:#eeeeec;fill-opacity:1;fill-rule:nonzero;stroke:none;stroke-width:2;marker:none;visibility:visible;display:inline;overflow:visible;enable-background:accumulate"
       width="16"
       x="303"
       y="219" />
    <text
       id="context"
       inkscape:label="context"
       style="font-size:18.30070686px;font-style:normal;font-weight:normal;fill:#000000;fill-opacity:1;stroke:none;display:inline;enable-background:new;font-family:Bitstream Vera Sans"
       x="20.970737"
       xml:space="preserve"
       y="21.513618"><tspan
         id="tspan2716"
         sodipodi:role="line"
         x="20.970737"
         y="21.513618">status</tspan></text>
    <text
       id="icon-name"
       inkscape:label="icon-name"
       sodipodi:linespacing="125%"
       style="font-size:18.30070686px;font-style:normal;font-variant:normal;font-weight:bold;font-stretch:normal;text-align:start;line-height:125%;writing-mode:lr-tb;text-anchor:start;fill:#000000;fill-opacity:1;stroke:none;display:inline;enable-background:new;font-family:Droid Sans;-inkscape-font-specification:Droid Sans Bold"
       x="191.97073"
       xml:space="preserve"
       y="21.513618"><tspan
         id="tspan3023"
         sodipodi:role="line"
         x="191.97073"
         y="21.513618">media-playlist-repeat</tspan></text>
  </g>
  <g
     id="layer2"
     inkscape:groupmode="layer"
     inkscape:label="small sizes"
     style="display:inline">
    <g
       id="g48"
       style="display:inline;enable-background:new"
       transform="translate(296,50) scale(1.000000,1.000000)">
      <g
         id="g7423"
         transform="translate(50,50)">
        <g
           id="g7289"
           style="opacity:0.4"
           transform="translate(-50,-50)">
          <path
             d="M 13.5,13 C 9.935113,13 7,15.935113 7,19.5 L 7,28.5625 C 7,32.127387 9.935113,35.0625 13.5,35.0625 L 18.5,35.0625 C 19.327799,35.060985 19.998485,34.390299 20,33.5625 L 20,31.5 L 11,31.5 L 11,17 L 37,17 L 37,31.5 L 21,31.5 C 21,31.982841 21.23341,32.436274 21.625,32.71875 L 28.625,37.71875 C 29.082441,38.044816 29.687707,38.100223 30.1875,37.84375 C 30.687293,37.587277 30.998151,37.061754 31,36.5 L 31,35.0625 L 34.5,35.0625 C 38.064887,35.0625 40.999997,32.127386 41,28.5625 L 41,19.5 C 41,15.935113 38.064888,13 34.5,13 L 13.5,13 z "
             id="path7261"
             style="opacity:1;fill:url(#linearGradient7760);fill-opacity:1;stroke:none;stroke-width:1;stroke-linecap:round;stroke-linejoin:round;stroke-miterlimit:4;stroke-dasharray:none;stroke-dashoffset:0.7;stroke-opacity:1" />
          <path
             d="M 11,17 L 11,31.5 L 20,31.5 L 20,29.5625 C 19.998485,28.734701 19.327799,28.064015 18.5,28.0625 L 14,28.0625 L 14,20 L 34,20 L 34,28.0625 L 31,28.0625 L 31,26.5 C 30.998151,25.938246 30.687293,25.412723 30.1875,25.15625 C 29.687707,24.899776 29.082441,24.955184 28.625,25.28125 L 21.625,30.28125 C 21.23341,30.563726 21,31.017159 21,31.5 L 37,31.5 L 37,17 L 11,17 z "
             id="path7255"
             style="opacity:1;fill:url(#linearGradient7762);fill-opacity:1;stroke:none;stroke-width:1;stroke-linecap:round;stroke-linejoin:round;stroke-miterlimit:4;stroke-dasharray:none;stroke-dashoffset:0.7;stroke-opacity:1" />
        </g>
        <path
           d="M -36.5,-35.5 C -39.235898,-35.5 -41.5,-33.235898 -41.5,-30.5 L -41.5,-21.4375 C -41.5,-18.701602 -39.235898,-16.4375 -36.5,-16.4375 L -31.5,-16.4375 L -31.5,-20.4375 L -36.5,-20.4375 C -37.089087,-20.4375 -37.5,-20.848413 -37.5,-21.4375 L -37.5,-30.5 C -37.5,-31.089086 -37.089087,-31.5 -36.5,-31.5 L -15.5,-31.5 C -14.910909,-31.5 -14.5,-31.089087 -14.5,-30.5 L -14.5,-21.4375 C -14.5,-20.848414 -14.910913,-20.4375 -15.5,-20.4375 L -20.5,-20.4375 L -20.5,-23.5 L -27.5,-18.5 L -20.5,-13.5 L -20.5,-16.4375 L -15.5,-16.4375 C -12.764102,-16.4375 -10.500002,-18.701602 -10.5,-21.4375 L -10.5,-30.5 C -10.5,-33.235898 -12.764101,-35.5 -15.5,-35.5 L -36.5,-35.5 z "
           id="rect7213"
           sodipodi:nodetypes="cccccccccccccccccccccccc"
           style="opacity:1;fill:url(#radialGradient7764);fill-opacity:1;stroke:#555753;stroke-width:1;stroke-linecap:round;stroke-linejoin:round;stroke-miterlimit:4;stroke-dasharray:none;stroke-dashoffset:0.7;stroke-opacity:1" />
        <path
           d="M 13.5,15.40625 C 11.264082,15.40625 9.40625,17.264082 9.40625,19.5 L 9.40625,28.5625 C 9.40625,30.798418 11.264082,32.65625 13.5,32.65625 L 17.59375,32.65625 L 17.59375,30.46875 L 13.5,30.46875 C 12.489481,30.46875 11.59375,29.573019 11.59375,28.5625 L 11.59375,19.5 C 11.59375,18.489482 12.48948,17.59375 13.5,17.59375 L 34.5,17.59375 C 35.51052,17.59375 36.40625,18.489485 36.40625,19.5 L 36.40625,28.5625 C 36.40625,29.573018 35.51052,30.46875 34.5,30.46875 L 29.5,30.46875 C 28.999513,30.4687 28.5938,30.062987 28.59375,29.5625 L 28.59375,28.28125 L 24.09375,31.5 L 28.59375,34.71875 L 28.59375,33.5625 C 28.5938,33.062013 28.999513,32.6563 29.5,32.65625 L 34.5,32.65625 C 36.735918,32.65625 38.593748,30.798419 38.59375,28.5625 L 38.59375,19.5 C 38.59375,17.264082 36.735919,15.40625 34.5,15.40625 L 13.5,15.40625 z "
           id="path7239"
           inkscape:original="M 13.5 14.5 C 10.764102 14.5 8.5 16.764102 8.5 19.5 L 8.5 28.5625 C 8.5 31.298398 10.764102 33.5625 13.5 33.5625 L 18.5 33.5625 L 18.5 29.5625 L 13.5 29.5625 C 12.910913 29.5625 12.5 29.151587 12.5 28.5625 L 12.5 19.5 C 12.5 18.910914 12.910913 18.5 13.5 18.5 L 34.5 18.5 C 35.089091 18.5 35.5 18.910913 35.5 19.5 L 35.5 28.5625 C 35.5 29.151586 35.089087 29.5625 34.5 29.5625 L 29.5 29.5625 L 29.5 26.5 L 22.5 31.5 L 29.5 36.5 L 29.5 33.5625 L 34.5 33.5625 C 37.235898 33.5625 39.499998 31.298398 39.5 28.5625 L 39.5 19.5 C 39.5 16.764102 37.235899 14.5 34.5 14.5 L 13.5 14.5 z "
           inkscape:radius="-0.90625"
           sodipodi:type="inkscape:offset"
           style="opacity:1;fill:none;fill-opacity:1;stroke:#ffffff;stroke-width:0.80000001;stroke-linecap:round;stroke-linejoin:miter;stroke-miterlimit:4;stroke-dasharray:none;stroke-dashoffset:0.7;stroke-opacity:1"
           transform="translate(-50,-50)" />
        <path
           d="M 13.5,15 C 11.039953,15 9,17.039953 9,19.5 L 9,28.5625 C 9,31.022547 11.039953,33.0625 13.5,33.0625 L 18,33.0625 L 18,30.0625 L 13.5,30.0625 C 12.678399,30.0625 12,29.384101 12,28.5625 L 12,19.5 C 12,18.6784 12.678398,18 13.5,18 L 34.5,18 C 35.321603,18 36,18.678401 36,19.5 L 36,28.5625 C 36,29.3841 35.321602,30.0625 34.5,30.0625 L 29.5,30.0625 C 29.223869,30.062472 29.000028,29.838631 29,29.5625 L 29,27.46875 L 23.34375,31.5 L 29,35.53125 L 29,33.5625 C 29.000028,33.286369 29.223869,33.062528 29.5,33.0625 L 34.5,33.0625 C 36.960047,33.0625 38.999998,31.022547 39,28.5625 L 39,19.5 C 39,17.039953 36.960048,15 34.5,15 L 13.5,15 z "
           id="path7247"
           inkscape:original="M 13.5 14.5 C 10.764102 14.5 8.5 16.764102 8.5 19.5 L 8.5 28.5625 C 8.5 31.298398 10.764102 33.5625 13.5 33.5625 L 18.5 33.5625 L 18.5 29.5625 L 13.5 29.5625 C 12.910913 29.5625 12.5 29.151587 12.5 28.5625 L 12.5 19.5 C 12.5 18.910914 12.910913 18.5 13.5 18.5 L 34.5 18.5 C 35.089091 18.5 35.5 18.910913 35.5 19.5 L 35.5 28.5625 C 35.5 29.151586 35.089087 29.5625 34.5 29.5625 L 29.5 29.5625 L 29.5 26.5 L 22.5 31.5 L 29.5 36.5 L 29.5 33.5625 L 34.5 33.5625 C 37.235898 33.5625 39.499998 31.298398 39.5 28.5625 L 39.5 19.5 C 39.5 16.764102 37.235899 14.5 34.5 14.5 L 13.5 14.5 z "
           inkscape:radius="-0.5"
           sodipodi:type="inkscape:offset"
           style="opacity:0.4;fill:url(#linearGradient7766);fill-opacity:1;stroke:none;stroke-width:1;stroke-linecap:round;stroke-linejoin:round;stroke-miterlimit:4;stroke-dasharray:none;stroke-dashoffset:0.7;stroke-opacity:1"
           transform="translate(-50,-50)" />
      </g>
    </g>
    <g
       id="g32"
       style="display:inline;enable-background:new"
       transform="translate(303,126) scale(1.000000,1.000000)">
      <g
         id="g7422"
         transform="translate(-138,-50)" />
      <g
         id="g7431"
         transform="translate(50,0)">
        <g
           id="g7325"
           transform="translate(-49,-50)">
          <path
             d="M 8.1620976,58.520223 C 6.1748685,58.520223 4.5303298,60.164761 4.5303298,62.15199 L 4.5303298,67.828319 C 4.5303298,69.815548 6.1748685,71.460086 8.1620976,71.460086 L 11.513535,71.460086 L 11.513535,68.554672 L 8.1620976,68.554672 C 7.7342121,68.554672 7.4357441,68.256204 7.4357441,67.828319 L 7.4357441,62.15199 C 7.4357441,61.724106 7.7342121,61.425637 8.1620976,61.425637 L 22.885191,61.425637 C 23.313079,61.425637 23.611544,61.724105 23.611544,62.15199 L 23.611544,67.828319 C 23.611544,68.256203 23.313076,68.554672 22.885191,68.554672 L 19.503423,68.554672 L 19.503423,66.330215 L 14.418949,69.961982 L 19.503423,73.59375 L 19.503423,71.460086 L 22.885191,71.460086 C 24.87242,71.460086 26.516957,69.815548 26.516958,67.828319 L 26.516958,62.15199 C 26.516958,60.164761 24.872421,58.520223 22.885191,58.520223 L 8.1620976,58.520223 z "
             id="path7317"
             sodipodi:nodetypes="cccccccccccccccccccccccc"
             style="opacity:0.3;fill:#000000;fill-opacity:1;stroke:#000000;stroke-width:0.99999988;stroke-linecap:round;stroke-linejoin:round;stroke-miterlimit:4;stroke-dasharray:none;stroke-dashoffset:0.7;stroke-opacity:1;filter:url(#filter7319)" />
          <path
             d="M 8.1620976,60.520223 C 6.1748685,60.520223 4.5303298,62.164761 4.5303298,64.15199 L 4.5303298,69.828319 C 4.5303298,71.815548 6.1748685,73.460086 8.1620976,73.460086 L 11.513535,73.460086 L 11.513535,70.554672 L 8.1620976,70.554672 C 7.7342121,70.554672 7.4357441,70.256204 7.4357441,69.828319 L 7.4357441,64.15199 C 7.4357441,63.724106 7.7342121,63.425637 8.1620976,63.425637 L 22.885191,63.425637 C 23.313079,63.425637 23.611544,63.724105 23.611544,64.15199 L 23.611544,69.828319 C 23.611544,70.256203 23.313076,70.554672 22.885191,70.554672 L 19.503423,70.554672 L 19.503423,68.330215 L 14.418949,71.961982 L 19.503423,75.59375 L 19.503423,73.460086 L 22.885191,73.460086 C 24.87242,73.460086 26.516957,71.815548 26.516958,69.828319 L 26.516958,64.15199 C 26.516958,62.164761 24.872421,60.520223 22.885191,60.520223 L 8.1620976,60.520223 z "
             id="path7323"
             sodipodi:nodetypes="cccccccccccccccccccccccc"
             style="opacity:0.6;fill:#ffffff;fill-opacity:1;stroke:#ffffff;stroke-width:0.99999988;stroke-linecap:round;stroke-linejoin:round;stroke-miterlimit:4;stroke-dasharray:none;stroke-dashoffset:0.7;stroke-opacity:1;filter:url(#filter7319)" />
        </g>
        <g
           id="g7299"
           transform="matrix(0.7263535,0,0,0.7263535,-51.174005,-1.011903)">
          <path
             d="M 14.230127,14.5 C 11.494229,14.5 9.2301267,16.764102 9.2301267,19.5 L 9.2301267,27.314829 C 9.2301267,30.050727 11.494229,32.314829 14.230127,32.314829 L 18.844185,32.314829 L 18.844185,28.314829 L 14.230127,28.314829 C 13.64104,28.314829 13.230127,27.903916 13.230127,27.314829 L 13.230127,19.5 C 13.230127,18.910914 13.64104,18.5 14.230127,18.5 L 34.5,18.5 C 35.089091,18.5 35.5,18.910913 35.5,19.5 L 35.5,27.314829 C 35.5,27.903915 35.089087,28.314829 34.5,28.314829 L 29.844185,28.314829 L 29.844185,25.252329 L 22.844185,30.252329 L 29.844185,35.252329 L 29.844185,32.314829 L 34.5,32.314829 C 37.235898,32.314829 39.499998,30.050727 39.5,27.314829 L 39.5,19.5 C 39.5,16.764102 37.235899,14.5 34.5,14.5 L 14.230127,14.5 z "
             id="path7293"
             sodipodi:nodetypes="cccccccccccccccccccccccc"
             style="opacity:1;fill:url(#radialGradient7564);fill-opacity:1;stroke:#555753;stroke-width:1.37673998;stroke-linecap:round;stroke-linejoin:round;stroke-miterlimit:4;stroke-dasharray:none;stroke-dashoffset:0.7;stroke-opacity:1" />
        </g>
        <g
           id="g7308"
           style="fill:none;stroke:#ffffff;stroke-width:0.82604408;stroke-miterlimit:4;stroke-dasharray:none"
           transform="matrix(0.7263535,0,0,0.7263535,-51.174005,-1.011903)">
          <path
             d="M 14.21875,15.59375 C 12.087071,15.59375 10.3125,17.368321 10.3125,19.5 L 10.3125,27.3125 C 10.3125,29.444179 12.087071,31.21875 14.21875,31.21875 L 17.75,31.21875 L 17.75,29.40625 L 14.21875,29.40625 C 13.120369,29.40625 12.125,28.410881 12.125,27.3125 L 12.125,19.5 C 12.125,18.401619 13.120368,17.40625 14.21875,17.40625 L 34.5,17.40625 C 35.598382,17.40625 36.59375,18.401624 36.59375,19.5 L 36.59375,27.3125 C 36.59375,28.410881 35.598382,29.40625 34.5,29.40625 L 29.84375,29.40625 C 29.240042,29.405396 28.750854,28.916208 28.75,28.3125 L 28.75,27.375 L 24.75,30.25 L 28.75,33.125 L 28.75,32.3125 C 28.750854,31.708792 29.240042,31.219604 29.84375,31.21875 L 34.5,31.21875 C 36.63168,31.218748 38.406248,29.44418 38.40625,27.3125 L 38.40625,19.5 C 38.40625,17.368321 36.63168,15.59375 34.5,15.59375 L 14.21875,15.59375 z "
             id="path7312"
             inkscape:original="M 14.21875 14.5 C 11.482852 14.5 9.21875 16.764102 9.21875 19.5 L 9.21875 27.3125 C 9.2187503 30.048398 11.482852 32.3125 14.21875 32.3125 L 18.84375 32.3125 L 18.84375 28.3125 L 14.21875 28.3125 C 13.629663 28.3125 13.21875 27.901587 13.21875 27.3125 L 13.21875 19.5 C 13.21875 18.910914 13.629663 18.5 14.21875 18.5 L 34.5 18.5 C 35.089091 18.5 35.5 18.910913 35.5 19.5 L 35.5 27.3125 C 35.5 27.901586 35.089087 28.3125 34.5 28.3125 L 29.84375 28.3125 L 29.84375 25.25 L 22.84375 30.25 L 29.84375 35.25 L 29.84375 32.3125 L 34.5 32.3125 C 37.235898 32.312498 39.499998 30.048398 39.5 27.3125 L 39.5 19.5 C 39.5 16.764102 37.235899 14.5 34.5 14.5 L 14.21875 14.5 z "
             inkscape:radius="-1.09519"
             sodipodi:type="inkscape:offset"
             style="opacity:0.5;fill:none;fill-opacity:1;stroke:#ffffff;stroke-width:0.82604408;stroke-linecap:round;stroke-linejoin:round;stroke-miterlimit:4;stroke-dasharray:none;stroke-dashoffset:0.7;stroke-opacity:1" />
        </g>
        <path
           d="M -38.462819,20.529018 L -40.846166,20.529018 C -41.730361,20.529018 -42.548557,19.710821 -42.548557,18.826627 M -26.114809,10.49626 L -40.846166,10.49626 C -42.292037,10.49626 -43.501896,11.70612 -43.501896,13.15199 L -43.501896,18.826627 M -24.412418,13.15199 L -24.412418,18.826627 C -24.412418,19.710822 -25.230613,20.529018 -26.114809,20.529018 L -29.496893,20.529018 C -30.034736,20.526115 -30.470027,20.090824 -30.47293,19.55298 L -30.47293,19.235201 L -32.901675,20.96029 L -30.47293,22.68538 L -30.47293,22.458394"
           id="path7314"
           sodipodi:nodetypes="cccccccccccccccc"
           style="opacity:0.7;fill:none;fill-opacity:1;stroke:#ffffff;stroke-width:1;stroke-linecap:round;stroke-linejoin:miter;stroke-miterlimit:4;stroke-dashoffset:0.7;stroke-opacity:1" />
      </g>
    </g>
    <g
       id="g22"
       style="display:inline;enable-background:new"
       transform="translate(303,177) scale(1.000000,1.000000)">
      <g
         id="g7441"
         transform="translate(50,-50)">
        <g
           id="g7601"
           style="opacity:0.4"
           transform="translate(0,90)">
          <path
             d="M -43.888889,-35 C -46.088024,-35 -47.888889,-33.162638 -47.888889,-30.96875 L -47.888889,-28.03125 C -47.888889,-25.837362 -46.088024,-24 -43.888889,-24 L -42.5,-24 C -42.366246,-23.996142 -42.236815,-24.047581 -42.142198,-24.142198 C -42.047581,-24.236815 -41.996142,-24.366246 -42,-24.5 L -42,-26.5 C -41.996142,-26.633754 -42.047581,-26.763185 -42.142198,-26.857802 C -42.236815,-26.952419 -42.366246,-27.003858 -42.5,-27 L -43.888889,-27 C -44.49083,-27 -44.888889,-27.417491 -44.888889,-28.03125 L -44.888889,-30.96875 C -44.888889,-31.582509 -44.49083,-32 -43.888889,-32 L -35.920139,-32 C -35.318199,-32 -35.444444,-31.601941 -35.444444,-31 L -35.444444,-28.0625 C -35.444445,-27.460557 -35.873753,-27.03125 -36.475694,-27.03125 L -36,-27 L -36,-28.5 C -35.996142,-28.633754 -36.047581,-28.763185 -36.142198,-28.857802 C -36.236815,-28.952419 -36.366246,-29.003858 -36.5,-29 L -37.5,-29 C -37.630955,-28.996357 -37.754898,-28.940019 -37.84375,-28.84375 L -40.84375,-25.84375 C -41.033571,-25.653891 -41.033571,-25.346109 -40.84375,-25.15625 L -37.84375,-22.15625 C -37.754898,-22.059981 -37.630955,-22.003643 -37.5,-22 L -36.5,-22 C -36.366246,-21.996142 -36.236815,-22.047581 -36.142198,-22.142198 C -36.047581,-22.236815 -35.996142,-22.366246 -36,-22.5 L -36,-24 L -35.03125,-24 C -32.832115,-24 -31.000001,-25.832116 -31,-28.03125 L -31,-30.96875 C -31,-33.167885 -32.832116,-35 -35.03125,-35 L -43.888889,-35 z "
             id="path7595"
             sodipodi:nodetypes="cccccsccscccccccccccsccccccccsccccccc"
             style="fill:#000000;fill-opacity:0.35294118;stroke:none;stroke-width:0.99999994;stroke-linecap:round;stroke-linejoin:round;stroke-miterlimit:4;stroke-dashoffset:0.7;stroke-opacity:1"
             transform="matrix(1.125,0,0,1,4.875,-1)" />
          <path
             d="M -43.941176,-35 C -46.140311,-35 -47.941176,-33.162638 -47.941176,-30.96875 L -47.941176,-28.03125 C -47.941176,-25.837362 -46.140311,-24 -43.941176,-24 L -42.5,-24 C -42.366246,-23.996142 -42.236815,-24.047581 -42.142198,-24.142198 C -42.047581,-24.236815 -41.996142,-24.366246 -42,-24.5 L -42,-26.5 C -41.996142,-26.633754 -42.047581,-26.763185 -42.142198,-26.857802 C -42.236815,-26.952419 -42.366246,-27.003858 -42.5,-27 L -43,-27 C -43.601941,-27 -43.705882,-27.386241 -43.705882,-28 L -43.705882,-30.9375 C -43.705882,-31.551259 -43.307823,-31.96875 -42.705882,-31.96875 L -35.03125,-32 C -34.42931,-32 -34,-31.570691 -34,-30.96875 L -34,-28.03125 C -34.000001,-27.429307 -34.429309,-27 -35.03125,-27 L -36,-27 L -36,-28.5 C -35.996142,-28.633754 -36.047581,-28.763185 -36.142198,-28.857802 C -36.236815,-28.952419 -36.366246,-29.003858 -36.5,-29 L -37.5,-29 C -37.630955,-28.996357 -37.754898,-28.940019 -37.84375,-28.84375 L -40.84375,-25.84375 C -41.033571,-25.653891 -41.033571,-25.346109 -40.84375,-25.15625 L -37.84375,-22.15625 C -37.754898,-22.059981 -37.630955,-22.003643 -37.5,-22 L -36.5,-22 C -36.366246,-21.996142 -36.236815,-22.047581 -36.142198,-22.142198 C -36.047581,-22.236815 -35.996142,-22.366246 -36,-22.5 L -36,-24 L -35.03125,-24 C -32.832115,-24 -31.000001,-25.832116 -31,-28.03125 L -31,-30.96875 C -31,-33.167885 -32.832116,-35 -35.03125,-35 L -43.941176,-35 z "
             id="path7599"
             sodipodi:nodetypes="cccccsccscccccccccccsccccccccsccccccc"
             style="fill:#ffffff;fill-opacity:1;stroke:none;stroke-width:0.99999994;stroke-linecap:round;stroke-linejoin:round;stroke-miterlimit:4;stroke-dashoffset:0.7;stroke-opacity:1"
             transform="matrix(1.0625,0,0,1,2.4375,1)" />
        </g>
        <path
           d="M -44,55.5 C -45.93036,55.5 -47.5,57.10089 -47.5,59.03125 L -47.5,61.96875 C -47.5,63.89911 -45.93036,65.5 -44,65.5 L -42.5,65.5 L -42.5,63.5 L -44,63.5 C -44.85695,63.5 -45.5,62.8257 -45.5,61.96875 L -45.5,59.03125 C -45.5,58.1743 -44.85695,57.5 -44,57.5 L -35.03125,57.5 C -34.1743,57.5 -33.5,58.1743 -33.5,59.03125 L -33.5,61.96875 C -33.5,62.8257 -34.1743,63.5 -35.03125,63.5 L -36.5,63.5 L -36.5,61.5 L -37.5,61.5 L -40.5,64.5 L -37.5,67.5 L -36.5,67.5 L -36.5,65.5 L -35.03125,65.5 C -33.10089,65.5 -31.5,63.89911 -31.5,61.96875 L -31.5,59.03125 C -31.5,57.10089 -33.10089,55.5 -35.03125,55.5 L -44,55.5 z "
           id="rect5727"
           sodipodi:nodetypes="cccccccccccccccccccccccccc"
           style="opacity:1;fill:url(#linearGradient8227);fill-opacity:1;stroke:#555753;stroke-width:0.99999994;stroke-linecap:round;stroke-linejoin:round;stroke-miterlimit:4;stroke-dasharray:none;stroke-dashoffset:0.7;stroke-opacity:1" />
        <path
           d="M -44,56 C -45.65898,56 -47,57.36697 -47,59.03125 L -47,61.96875 C -47,63.63303 -45.65898,65 -44,65 L -44,64 C -45.11444,64 -46,63.07125 -46,61.96875 L -46,59.03125 C -46,57.92875 -45.11444,57 -44,57 L -35.03125,57 C -33.91681,57 -33,57.91681 -33,59.03125 L -33,61.96875 C -33,63.08319 -33.91681,64 -35.03125,64 L -36.5,64 C -36.63336,64.0025 -36.76199,63.95062 -36.85631,63.85631 C -36.95062,63.76199 -37.0025,63.63336 -37,63.5 L -37,62 L -37.3125,62 L -39.8125,64.5 L -37.3125,67 L -37,67 L -37,65.5 C -37.0025,65.36664 -36.95062,65.23801 -36.85631,65.14369 C -36.76199,65.04938 -36.63336,64.9975 -36.5,65 L -35.03125,65 C -33.37227,65 -32,63.62773 -32,61.96875 L -32,59.03125 C -32,57.37227 -33.37227,56 -35.03125,56 L -44,56 z "
           id="path7609"
           sodipodi:nodetypes="cccccccccccccscccccccscccccc"
           style="fill:url(#linearGradient8229);fill-opacity:1;stroke:none;stroke-width:0.99999994;stroke-linecap:round;stroke-linejoin:round;stroke-miterlimit:4;stroke-dashoffset:0.7;stroke-opacity:1" />
        <path
           d="M -37.27903,62.5 L -39.27903,64.5 L -37.27903,66.5"
           id="path6728"
           style="fill:none;fill-opacity:1;fill-rule:evenodd;stroke:url(#linearGradient8231);stroke-width:0.69999999;stroke-linecap:round;stroke-linejoin:miter;stroke-miterlimit:4;stroke-dasharray:none;stroke-opacity:1" />
      </g>
    </g>
    <g
       id="g16"
       style="display:inline;enable-background:new"
       transform="translate(303,219) scale(1.000000,1.000000)">
      <g
         id="g7449"
         transform="translate(50,-90)">
        <g
           id="g7390"
           style="opacity:0.4"
           transform="matrix(1.1428571,0,0,1,6,90)">
          <path
             d="M -46.5,3 C -47.878552,3 -49,4.1214481 -49,5.5 L -49,9.5 C -49,10.878552 -47.878552,12 -46.5,12 L -44.5,12 C -44.227314,11.991829 -44.008171,11.772686 -44,11.5 L -44,9.5 C -44.008171,9.2273139 -44.227314,9.008171 -44.5,9 L -46,9 L -46,6 L -38,6 L -38,9 L -39,9 L -39,8.5 C -39.008171,8.2273139 -39.227314,8.008171 -39.5,8 L -40.5,8 C -40.636641,7.9902023 -40.771566,8.035177 -40.875,8.125 L -42.875,10.125 C -42.978209,10.222422 -43.036703,10.358074 -43.036703,10.5 C -43.036703,10.641926 -42.978209,10.777578 -42.875,10.875 L -40.875,12.875 C -40.771566,12.964823 -40.636641,13.009798 -40.5,13 L -39.5,13 C -39.227314,12.991829 -39.008171,12.772686 -39,12.5 L -39,12 L -37.5,12 C -36.121448,12 -35,10.878552 -35,9.5 L -35,5.5 C -35,4.1214481 -36.121448,3 -37.5,3 L -46.5,3 z "
             id="path7386"
             inkscape:original="M -46.5 3.5 C -47.593704 3.5 -48.5 4.406296 -48.5 5.5 L -48.5 9.5 C -48.5 10.593704 -47.593704 11.5 -46.5 11.5 L -44.5 11.5 L -44.5 9.5 L -46.5 9.5 L -46.5 5.5 L -37.5 5.5 L -37.5 9.5 L -39.5 9.5 L -39.5 8.5 L -40.5 8.5 L -42.5 10.5 L -40.5 12.5 L -39.5 12.5 L -39.5 11.5 L -37.5 11.5 C -36.406296 11.5 -35.5 10.593704 -35.5 9.5 L -35.5 5.5 C -35.5 4.406296 -36.406296 3.5 -37.5 3.5 L -46.5 3.5 z "
             inkscape:radius="0.515625"
             sodipodi:type="inkscape:offset"
             style="opacity:1;fill:#000000;fill-opacity:0.35294118;stroke:none;stroke-width:1;stroke-linecap:round;stroke-linejoin:round;stroke-miterlimit:4;stroke-dasharray:none;stroke-dashoffset:0.7;stroke-opacity:1"
             transform="translate(0,-1)" />
          <path
             d="M -46.5,3 C -47.878552,3 -49,4.1214481 -49,5.5 L -49,9.5 C -49,10.878552 -47.878552,12 -46.5,12 L -44.5,12 C -44.227314,11.991829 -44.008171,11.772686 -44,11.5 L -44,9.5 C -44.008171,9.2273139 -44.227314,9.008171 -44.5,9 L -46,9 L -46,6 L -38,6 L -38,9 L -39,9 L -39,8.5 C -39.008171,8.2273139 -39.227314,8.008171 -39.5,8 L -40.5,8 C -40.636641,7.9902023 -40.771566,8.035177 -40.875,8.125 L -42.875,10.125 C -42.978209,10.222422 -43.036703,10.358074 -43.036703,10.5 C -43.036703,10.641926 -42.978209,10.777578 -42.875,10.875 L -40.875,12.875 C -40.771566,12.964823 -40.636641,13.009798 -40.5,13 L -39.5,13 C -39.227314,12.991829 -39.008171,12.772686 -39,12.5 L -39,12 L -37.5,12 C -36.121448,12 -35,10.878552 -35,9.5 L -35,5.5 C -35,4.1214481 -36.121448,3 -37.5,3 L -46.5,3 z "
             id="path7388"
             inkscape:original="M -46.5 3.5 C -47.593704 3.5 -48.5 4.406296 -48.5 5.5 L -48.5 9.5 C -48.5 10.593704 -47.593704 11.5 -46.5 11.5 L -44.5 11.5 L -44.5 9.5 L -46.5 9.5 L -46.5 5.5 L -37.5 5.5 L -37.5 9.5 L -39.5 9.5 L -39.5 8.5 L -40.5 8.5 L -42.5 10.5 L -40.5 12.5 L -39.5 12.5 L -39.5 11.5 L -37.5 11.5 C -36.406296 11.5 -35.5 10.593704 -35.5 9.5 L -35.5 5.5 C -35.5 4.406296 -36.406296 3.5 -37.5 3.5 L -46.5 3.5 z "
             inkscape:radius="0.515625"
             sodipodi:type="inkscape:offset"
             style="opacity:1;fill:#ffffff;fill-opacity:1;stroke:none;stroke-width:1;stroke-linecap:round;stroke-linejoin:round;stroke-miterlimit:4;stroke-dasharray:none;stroke-dashoffset:0.7;stroke-opacity:1"
             transform="matrix(0.9375003,0,0,1,-2.6249891,1)" />
        </g>
        <path
           d="M -46.5,93.5 C -47.5937,93.5 -48.5,94.4063 -48.5,95.5 L -48.5,99.5 C -48.5,100.5937 -47.5937,101.5 -46.5,101.5 L -44.5,101.5 L -44.5,99.5 L -46.5,99.5 L -46.5,95.5 L -37.5,95.5 L -37.5,99.5 L -39.5,99.5 L -39.5,98.5 L -40.5,98.5 L -42.5,100.5 L -40.5,102.5 L -39.5,102.5 L -39.5,101.5 L -37.5,101.5 C -36.4063,101.5 -35.5,100.5937 -35.5,99.5 L -35.5,95.5 C -35.5,94.4063 -36.4063,93.5 -37.5,93.5 L -46.5,93.5 z "
           id="rect6898"
           style="opacity:1;fill:url(#linearGradient8130);fill-opacity:1;stroke:#555753;stroke-width:1;stroke-linecap:round;stroke-linejoin:round;stroke-miterlimit:4;stroke-dasharray:none;stroke-dashoffset:0.7;stroke-opacity:1" />
        <g
           id="g6876"
           transform="matrix(-1,0,0,1,-28,96)">
          <rect
             height="1"
             id="rect6878"
             style="opacity:1;fill:#555753;fill-opacity:1;stroke:none;stroke-width:0.69999999;stroke-linecap:round;stroke-linejoin:round;stroke-miterlimit:4;stroke-dasharray:none;stroke-dashoffset:0.7;stroke-opacity:1"
             width="1"
             x="12"
             y="2" />
          <rect
             height="1"
             id="rect6880"
             style="opacity:1;fill:#555753;fill-opacity:1;stroke:none;stroke-width:0.69999999;stroke-linecap:round;stroke-linejoin:round;stroke-miterlimit:4;stroke-dasharray:none;stroke-dashoffset:0.7;stroke-opacity:1"
             width="1"
             x="12"
             y="6" />
          <rect
             height="1"
             id="rect6882"
             style="opacity:1;fill:#555753;fill-opacity:1;stroke:none;stroke-width:0.69999999;stroke-linecap:round;stroke-linejoin:round;stroke-miterlimit:4;stroke-dasharray:none;stroke-dashoffset:0.7;stroke-opacity:1"
             width="1"
             x="13"
             y="5" />
          <rect
             height="1"
             id="rect6884"
             style="opacity:1;fill:#555753;fill-opacity:1;stroke:none;stroke-width:0.69999999;stroke-linecap:round;stroke-linejoin:round;stroke-miterlimit:4;stroke-dasharray:none;stroke-dashoffset:0.7;stroke-opacity:1"
             width="1"
             x="13"
             y="3" />
          <rect
             height="1"
             id="rect6886"
             style="opacity:1;fill:#555753;fill-opacity:1;stroke:none;stroke-width:0.69999999;stroke-linecap:round;stroke-linejoin:round;stroke-miterlimit:4;stroke-dasharray:none;stroke-dashoffset:0.7;stroke-opacity:1"
             width="1"
             x="14"
             y="4" />
        </g>
        <g
           id="g6888"
           style="fill:#eeeeec"
           transform="matrix(-1,0,0,1,-27,96)">
          <rect
             height="1"
             id="rect6890"
             style="opacity:1;fill:#f5f5f4;fill-opacity:1;stroke:none;stroke-width:0.69999999;stroke-linecap:round;stroke-linejoin:round;stroke-miterlimit:4;stroke-dasharray:none;stroke-dashoffset:0.7;stroke-opacity:1"
             width="1"
             x="13"
             y="5" />
          <rect
             height="1"
             id="rect6892"
             style="opacity:1;fill:#f5f5f4;fill-opacity:1;stroke:none;stroke-width:0.69999999;stroke-linecap:round;stroke-linejoin:round;stroke-miterlimit:4;stroke-dasharray:none;stroke-dashoffset:0.7;stroke-opacity:1"
             width="1"
             x="13"
             y="3" />
          <rect
             height="1"
             id="rect6894"
             style="opacity:1;fill:#f5f5f4;fill-opacity:1;stroke:none;stroke-width:0.69999999;stroke-linecap:round;stroke-linejoin:round;stroke-miterlimit:4;stroke-dasharray:none;stroke-dashoffset:0.7;stroke-opacity:1"
             width="1"
             x="14"
             y="4" />
        </g>
      </g>
    </g>
  </g>
  <g
     id="layer4"
     inkscape:groupmode="layer"
     inkscape:label="hires"
     style="display:inline" />
</svg>
