<?xml version="1.0" encoding="UTF-8" standalone="no"?>
<!-- Created with Inkscape (http://www.inkscape.org/) -->
<svg
   xmlns:dc="http://purl.org/dc/elements/1.1/"
   xmlns:cc="http://creativecommons.org/ns#"
   xmlns:rdf="http://www.w3.org/1999/02/22-rdf-syntax-ns#"
   xmlns:svg="http://www.w3.org/2000/svg"
   xmlns="http://www.w3.org/2000/svg"
   xmlns:xlink="http://www.w3.org/1999/xlink"
   xmlns:sodipodi="http://sodipodi.sourceforge.net/DTD/sodipodi-0.dtd"
   xmlns:inkscape="http://www.inkscape.org/namespaces/inkscape"
   height="300"
   id="svg11300"
   inkscape:export-filename="/home/jimmac/Desktop/wi-fi.png"
   inkscape:export-xdpi="90.000000"
   inkscape:export-ydpi="90.000000"
   inkscape:output_extension="org.inkscape.output.svg.inkscape"
   inkscape:version="0.46"
   sodipodi:docname="preferences-desktop-locale.svg"
   sodipodi:version="0.32"
   style="display:inline;enable-background:new"
   version="1.0"
   width="400">
  <title
     id="title8836">Optical Drive</title>
  <metadata
     id="metadata154">
    <rdf:RDF>
      <cc:Work
         rdf:about="">
        <dc:format>image/svg+xml</dc:format>
        <dc:type
           rdf:resource="http://purl.org/dc/dcmitype/StillImage" />
        <dc:title />
        <dc:creator>
          <cc:Agent>
            <dc:title />
          </cc:Agent>
        </dc:creator>
        <dc:contributor>
          <cc:Agent>
            <dc:title />
          </cc:Agent>
        </dc:contributor>
        <dc:source />
        <cc:license
           rdf:resource="" />
        <dc:subject>
          <rdf:Bag />
        </dc:subject>
      </cc:Work>
    </rdf:RDF>
  </metadata>
  <sodipodi:namedview
     bordercolor="#666666"
     borderopacity="0.25490196"
     fill="#f57900"
     gridtolerance="12"
     guidetolerance="13"
     height="300px"
     id="base"
     inkscape:current-layer="layer6"
     inkscape:cx="144.68008"
     inkscape:cy="87.105301"
     inkscape:document-units="px"
     inkscape:grid-bbox="true"
     inkscape:guide-bbox="true"
     inkscape:pageopacity="0.0"
     inkscape:pageshadow="2"
     inkscape:showpageshadow="false"
     inkscape:snap-bbox="true"
     inkscape:snap-nodes="true"
     inkscape:window-height="876"
     inkscape:window-width="968"
     inkscape:window-x="132"
     inkscape:window-y="8"
     inkscape:zoom="1"
     objecttolerance="7"
     pagecolor="#ffffff"
     showgrid="false"
     showguides="true"
     stroke="#ef2929"
     width="400px">
    <inkscape:grid
       empspacing="2"
       enabled="true"
       id="grid5883"
       spacingx="0.5px"
       spacingy="0.5px"
       type="xygrid"
       visible="true" />
  </sodipodi:namedview>
  <defs
     id="defs3">
    <linearGradient
       id="linearGradient6173"
       inkscape:collect="always">
      <stop
         id="stop6175"
         offset="0"
         style="stop-color:white;stop-opacity:1;" />
      <stop
         id="stop6177"
         offset="1"
         style="stop-color:white;stop-opacity:0;" />
    </linearGradient>
    <linearGradient
       id="linearGradient6165"
       inkscape:collect="always">
      <stop
         id="stop6167"
         offset="0"
         style="stop-color:#555753;stop-opacity:1;" />
      <stop
         id="stop6169"
         offset="1"
         style="stop-color:#555753;stop-opacity:0;" />
    </linearGradient>
    <linearGradient
       id="linearGradient6157"
       inkscape:collect="always">
      <stop
         id="stop6159"
         offset="0"
         style="stop-color:#888a85;stop-opacity:1" />
      <stop
         id="stop6161"
         offset="1"
         style="stop-color:#babdb6;stop-opacity:0" />
    </linearGradient>
    <linearGradient
       id="linearGradient6147"
       inkscape:collect="always">
      <stop
         id="stop6149"
         offset="0"
         style="stop-color:#595959;stop-opacity:1" />
      <stop
         id="stop6151"
         offset="1"
         style="stop-color:#414141;stop-opacity:0" />
    </linearGradient>
    <linearGradient
       id="linearGradient5239">
      <stop
         id="stop5241"
         offset="0"
         style="stop-color:#7ea7d3;stop-opacity:1;" />
      <stop
         id="stop5247"
         offset="0.125"
         style="stop-color:#8bb1d9;stop-opacity:1;" />
      <stop
         id="stop5249"
         offset="0.42562979"
         style="stop-color:#3871aa;stop-opacity:1;" />
      <stop
         id="stop5251"
         offset="0.69892961"
         style="stop-color:#3c77b6;stop-opacity:1;" />
      <stop
         id="stop5243"
         offset="1"
         style="stop-color:#6c9acf;stop-opacity:1;" />
    </linearGradient>
    <linearGradient
       gradientTransform="matrix(1,0,0,1.00176,1.928564,-1.144402e-2)"
       gradientUnits="userSpaceOnUse"
       id="linearGradient5245"
       inkscape:collect="always"
       x1="9.0877619"
       x2="35.799229"
       xlink:href="#linearGradient5239"
       y1="21.214285"
       y2="19.976284" />
    <linearGradient
       gradientTransform="matrix(1,0,0,0.986364,1.4999999,5.5833119e-2)"
       gradientUnits="userSpaceOnUse"
       id="linearGradient6153"
       inkscape:collect="always"
       x1="8.9642859"
       x2="8.5"
       xlink:href="#linearGradient6147"
       y1="36"
       y2="43.857143" />
    <linearGradient
       gradientTransform="matrix(1,0,0,1.025641,0.928584,-1.192325)"
       gradientUnits="userSpaceOnUse"
       id="linearGradient6163"
       inkscape:collect="always"
       x1="5.9999986"
       x2="5.9999986"
       xlink:href="#linearGradient6157"
       y1="36.573788"
       y2="44.618351" />
    <linearGradient
       gradientTransform="matrix(1,0,0,1.025641,0.928584,-1.192325)"
       gradientUnits="userSpaceOnUse"
       id="linearGradient6171"
       inkscape:collect="always"
       x1="5.9999986"
       x2="5.9999986"
       xlink:href="#linearGradient6165"
       y1="36.573788"
       y2="44.618351" />
    <linearGradient
       gradientTransform="translate(0.928584,-1.395367e-5)"
       gradientUnits="userSpaceOnUse"
       id="linearGradient6179"
       inkscape:collect="always"
       x1="5.5"
       x2="5.5"
       xlink:href="#linearGradient6173"
       y1="15.444439"
       y2="36.087296" />
    <linearGradient
       id="linearGradient6668"
       inkscape:collect="always">
      <stop
         id="stop6670"
         offset="0"
         style="stop-color:#204a87;stop-opacity:1;" />
      <stop
         id="stop6672"
         offset="1"
         style="stop-color:#204a87;stop-opacity:0;" />
    </linearGradient>
    <linearGradient
       gradientUnits="userSpaceOnUse"
       id="linearGradient6674"
       inkscape:collect="always"
       x1="9.7321424"
       x2="9.7321424"
       xlink:href="#linearGradient6668"
       y1="29.855312"
       y2="27.895502" />
    <linearGradient
       gradientTransform="matrix(0.5082832,0,0,0.4853112,27.279307,-1.6566929)"
       gradientUnits="userSpaceOnUse"
       id="linearGradient8677"
       inkscape:collect="always"
       x1="-47.598156"
       x2="-23.339315"
       xlink:href="#linearGradient5239"
       y1="17.479568"
       y2="17.479568" />
  </defs>
  <g
     id="layer6"
     inkscape:groupmode="layer"
     inkscape:label="baseplate"
     style="display:none">
    <rect
       height="48"
       id="rect6284"
       inkscape:label="48x48"
       style="fill:#eeeeec;fill-opacity:1;fill-rule:nonzero;stroke:none;stroke-width:2;marker:none;visibility:visible;display:inline;overflow:visible;enable-background:accumulate"
       width="48"
       x="296"
       y="50" />
    <rect
       height="32"
       id="rect6592"
       inkscape:label="32x32"
       style="fill:#eeeeec;fill-opacity:1;fill-rule:nonzero;stroke:none;stroke-width:2;marker:none;visibility:visible;display:inline;overflow:visible;enable-background:accumulate"
       width="32"
       x="303"
       y="126" />
    <rect
       height="22"
       id="rect6749"
       inkscape:label="22x22"
       style="fill:#eeeeec;fill-opacity:1;fill-rule:nonzero;stroke:none;stroke-width:2;marker:none;visibility:visible;display:inline;overflow:visible;enable-background:accumulate"
       width="22"
       x="303"
       y="177" />
    <rect
       height="16"
       id="rect6833"
       inkscape:label="16x16"
       style="fill:#eeeeec;fill-opacity:1;fill-rule:nonzero;stroke:none;stroke-width:2;marker:none;visibility:visible;display:inline;overflow:visible;enable-background:accumulate"
       width="16"
       x="303"
       y="219" />
    <text
       id="context"
       inkscape:label="context"
       style="font-size:18.30070686px;font-style:normal;font-weight:normal;fill:#000000;fill-opacity:1;stroke:none;display:inline;enable-background:new;font-family:Bitstream Vera Sans"
       x="20.970737"
       xml:space="preserve"
       y="21.513618"><tspan
         id="tspan2716"
         sodipodi:role="line"
         x="20.970737"
         y="21.513618">apps</tspan></text>
    <text
       id="icon-name"
       inkscape:label="icon-name"
       sodipodi:linespacing="125%"
       style="font-size:18.30070686px;font-style:normal;font-variant:normal;font-weight:bold;font-stretch:normal;text-align:start;line-height:125%;writing-mode:lr-tb;text-anchor:start;fill:#000000;fill-opacity:1;stroke:none;display:inline;enable-background:new;font-family:Droid Sans;-inkscape-font-specification:Droid Sans Bold"
       x="191.97073"
       xml:space="preserve"
       y="21.513618"><tspan
         id="tspan3023"
         sodipodi:role="line"
         x="191.97073"
         y="21.513618">preferences-desktop-locale</tspan></text>
  </g>
  <g
     id="layer2"
     inkscape:groupmode="layer"
     inkscape:label="small sizes"
     style="display:inline">
    <g
       id="g48"
       style="display:inline;enable-background:new"
       transform="translate(296,50) scale(1.000000,1.000000)">
      <rect
         height="40.000027"
         id="rect4321"
         rx="1.4999989"
         ry="1.4999989"
         style="opacity:1;fill:url(#linearGradient6163);fill-opacity:1;stroke:url(#linearGradient6171);stroke-width:1.00000083;stroke-linecap:round;stroke-linejoin:round;stroke-miterlimit:4;stroke-dasharray:none;stroke-opacity:1"
         width="2.9999979"
         x="5.4285841"
         y="6.4999857" />
      <path
         d="M 8.4285571,8.0191769 C 8.4285571,8.0191769 13.558991,6.3318604 18.776384,6.5137056 C 23.993777,6.6955518 25.385081,8.6621415 31.298129,8.4499877 C 37.211174,8.2378348 42.428567,6.7662186 42.428567,6.7662186 L 42.428567,31.348027 C 42.428567,31.348027 37.269145,33.5 31.356099,33.5 C 25.443053,33.5 24.341603,31.802646 18.776384,31.590494 C 13.211166,31.37834 8.4285571,32.507719 8.4285571,32.507719 C 8.4285571,32.507719 10.428557,26.385584 10.428557,20.263448 C 10.428557,14.141312 8.4285571,8.0191769 8.4285571,8.0191769 z "
         id="path4319"
         sodipodi:nodetypes="czzcczzczc"
         style="fill:url(#linearGradient5245);fill-opacity:1;fill-rule:evenodd;stroke:#204a87;stroke-width:1.00000143px;stroke-linecap:butt;stroke-linejoin:miter;stroke-opacity:1" />
      <path
         d="M 9.500001,8.7637787 C 9.500001,8.7637787 14.363355,7.344305 19.254661,7.5126806 C 24.145966,7.6810561 25.450314,9.5019736 30.993798,9.3055349 C 36.537278,9.1090971 41.428583,8.1036315 41.428583,8.1036315 L 41.428583,30.721717 C 41.428583,30.721717 36.591624,32.499999 31.048145,32.499999 C 25.504664,32.499999 24.472053,30.928375 19.254661,30.731937 C 14.037268,30.535499 9.7857153,31.224078 9.7857153,31.224078 C 9.7857153,31.224078 11.357149,25.894257 11.428572,20.351071 C 11.500001,14.807425 9.500001,8.7637787 9.500001,8.7637787 z "
         id="path5213"
         sodipodi:nodetypes="czzcczzczc"
         style="opacity:0.22826089;fill:none;fill-opacity:1;fill-rule:evenodd;stroke:white;stroke-width:1.00000191px;stroke-linecap:butt;stroke-linejoin:miter;stroke-opacity:1" />
      <path
         d="M 6.4285844,8.5098834 L 6.4285844,41.471314"
         id="path5255"
         sodipodi:nodetypes="cc"
         style="opacity:0.3;fill:none;fill-opacity:0.75;fill-rule:evenodd;stroke:url(#linearGradient6179);stroke-width:1px;stroke-linecap:round;stroke-linejoin:miter;stroke-opacity:1" />
      <path
         d="M 11.035714 29.053572 A 1.3035715 1.3035715 0 1 1  8.428571,29.053572 A 1.3035715 1.3035715 0 1 1  11.035714 29.053572 z"
         id="path6155"
         sodipodi:cx="9.7321424"
         sodipodi:cy="29.053572"
         sodipodi:rx="1.3035715"
         sodipodi:ry="1.3035715"
         sodipodi:type="arc"
         style="opacity:0.7;fill:#ffffff;fill-opacity:1;stroke:#204a87;stroke-width:0.65178639;stroke-linecap:round;stroke-linejoin:round;stroke-miterlimit:4;stroke-dasharray:none;stroke-opacity:1"
         transform="matrix(1.5342462,0,0,1.5342462,-1.4315025,-16.075332)" />
      <path
         d="M 13.5,28.5 C 13.238095,36.000002 11.119048,39.785718 9.9285717,45.428577"
         id="path6145"
         sodipodi:nodetypes="cc"
         style="fill:#2e3436;fill-opacity:0.75;fill-rule:evenodd;stroke:url(#linearGradient6153);stroke-width:1.00000024px;stroke-linecap:round;stroke-linejoin:miter;stroke-opacity:1" />
      <g
         id="g5593"
         style="opacity:0.50588235"
         transform="translate(0,-1)">
        <path
           d="M 34.25 20.125 A 8.125 8.125 0 1 1  18,20.125 A 8.125 8.125 0 1 1  34.25 20.125 z"
           id="path5577"
           sodipodi:cx="26.125"
           sodipodi:cy="20.125"
           sodipodi:rx="8.125"
           sodipodi:ry="8.125"
           sodipodi:type="arc"
           style="opacity:1;color:#000000;fill:none;fill-opacity:1;fill-rule:evenodd;stroke:#ffffff;stroke-width:1.015625;stroke-linecap:round;stroke-linejoin:miter;marker:none;marker-start:none;marker-mid:none;marker-end:none;stroke-miterlimit:4;stroke-dasharray:none;stroke-dashoffset:0;stroke-opacity:1;visibility:visible;display:inline;overflow:visible;enable-background:accumulate"
           transform="matrix(0.9846154,0,0,0.9846154,0.7769231,-0.3153846)" />
        <path
           d="M 33.186956,16.106991 A 8.125,8.125 0 0 1 26.959277,28.207055"
           id="path5579"
           sodipodi:cx="26.125"
           sodipodi:cy="20.125"
           sodipodi:end="7.7511201"
           sodipodi:open="true"
           sodipodi:rx="8.125"
           sodipodi:ry="8.125"
           sodipodi:start="5.765898"
           sodipodi:type="arc"
           style="opacity:1;color:#000000;fill:none;fill-opacity:1;fill-rule:evenodd;stroke:#ffffff;stroke-width:1.60493815;stroke-linecap:round;stroke-linejoin:miter;marker:none;marker-start:none;marker-mid:none;marker-end:none;stroke-miterlimit:4;stroke-dasharray:none;stroke-dashoffset:0;stroke-opacity:1;visibility:visible;display:inline;overflow:visible;enable-background:accumulate"
           transform="matrix(1.2461539,0,0,1.2461539,-6.0557692,-5.5788461)" />
        <path
           d="M 33.071089,15.909852 A 8.125,8.125 0 0 1 26.959277,28.207055"
           id="path5581"
           sodipodi:cx="26.125"
           sodipodi:cy="20.125"
           sodipodi:end="7.7511201"
           sodipodi:open="true"
           sodipodi:rx="8.125"
           sodipodi:ry="8.125"
           sodipodi:start="5.7377533"
           sodipodi:type="arc"
           style="opacity:1;color:#000000;fill:none;fill-opacity:1;fill-rule:evenodd;stroke:#ffffff;stroke-width:1.60493815;stroke-linecap:round;stroke-linejoin:miter;marker:none;marker-start:none;marker-mid:none;marker-end:none;stroke-miterlimit:4;stroke-dasharray:none;stroke-dashoffset:0;stroke-opacity:1;visibility:visible;display:inline;overflow:visible;enable-background:accumulate"
           transform="matrix(-1.2461539,0,0,1.2461539,58.90791,-5.5788461)" />
        <path
           d="M 34.25 20.125 A 8.125 8.125 0 1 1  18,20.125 A 8.125 8.125 0 1 1  34.25 20.125 z"
           id="path5583"
           sodipodi:cx="26.125"
           sodipodi:cy="20.125"
           sodipodi:rx="8.125"
           sodipodi:ry="8.125"
           sodipodi:type="arc"
           style="opacity:1;color:#000000;fill:none;fill-opacity:1;fill-rule:evenodd;stroke:#ffffff;stroke-width:1.35416675;stroke-linecap:round;stroke-linejoin:miter;marker:none;marker-start:none;marker-mid:none;marker-end:none;stroke-miterlimit:4;stroke-dasharray:none;stroke-dashoffset:0;stroke-opacity:1;visibility:visible;display:inline;overflow:visible;enable-background:accumulate"
           transform="matrix(0.7384615,0,0,0.7384615,7.2076941,4.6384629)" />
        <path
           d="M 34.25 20.125 A 8.125 8.125 0 1 1  18,20.125 A 8.125 8.125 0 1 1  34.25 20.125 z"
           id="path5585"
           sodipodi:cx="26.125"
           sodipodi:cy="20.125"
           sodipodi:rx="8.125"
           sodipodi:ry="8.125"
           sodipodi:type="arc"
           style="opacity:1;color:#000000;fill:none;fill-opacity:1;fill-rule:evenodd;stroke:#ffffff;stroke-width:2.0634923;stroke-linecap:round;stroke-linejoin:miter;marker:none;marker-start:none;marker-mid:none;marker-end:none;stroke-miterlimit:4;stroke-dasharray:none;stroke-dashoffset:0;stroke-opacity:1;visibility:visible;display:inline;overflow:visible;enable-background:accumulate"
           transform="matrix(0.4846153,0,0,0.4846153,13.839425,9.7471168)" />
        <path
           d="M 30,16 L 28.5,18 L 30.4375,20.5625 L 27.5625,23.4375 C 27.5625,23.4375 32,25 32,25 L 32,20 L 31,19 L 33,17 L 29.4375,14 L 30,16 z "
           id="path5587"
           style="opacity:1;color:#000000;fill:#ffffff;fill-opacity:1;fill-rule:evenodd;stroke:none;stroke-width:2;stroke-linecap:round;stroke-linejoin:miter;marker:none;marker-start:none;marker-mid:none;marker-end:none;stroke-miterlimit:4;stroke-dasharray:none;stroke-dashoffset:0;stroke-opacity:1;visibility:visible;display:inline;overflow:visible;enable-background:accumulate" />
        <path
           d="M 22,21 L 19.5625,25.5 L 25,23 L 22,21 z "
           id="path5589"
           style="opacity:1;color:#000000;fill:#ffffff;fill-opacity:1;fill-rule:evenodd;stroke:none;stroke-width:2;stroke-linecap:round;stroke-linejoin:miter;marker:none;marker-start:none;marker-mid:none;marker-end:none;stroke-miterlimit:4;stroke-dasharray:none;stroke-dashoffset:0;stroke-opacity:1;visibility:visible;display:inline;overflow:visible;enable-background:accumulate" />
        <path
           d="M 20.5625,19 C 20.5625,19 25,21.5 25,21 C 25,20.5 25,19 25,19 L 23.5,19 L 25,16.4375 L 20.5625,19 z "
           id="path5591"
           style="opacity:1;color:#000000;fill:#ffffff;fill-opacity:1;fill-rule:evenodd;stroke:none;stroke-width:2;stroke-linecap:round;stroke-linejoin:miter;marker:none;marker-start:none;marker-mid:none;marker-end:none;stroke-miterlimit:4;stroke-dasharray:none;stroke-dashoffset:0;stroke-opacity:1;visibility:visible;display:inline;overflow:visible;enable-background:accumulate" />
      </g>
    </g>
    <g
       id="g32"
       style="display:inline;enable-background:new"
       transform="translate(303,126) scale(1.000000,1.000000)">
      <rect
         height="30.312529"
         id="rect63"
         rx="1.4999989"
         ry="1.1367183"
         style="opacity:1;fill:url(#linearGradient6163);fill-opacity:1;stroke:url(#linearGradient6171);stroke-width:1.00000083;stroke-linecap:round;stroke-linejoin:round;stroke-miterlimit:4;stroke-dasharray:none;stroke-opacity:1"
         width="2.9999979"
         x="0.50000042"
         y="1.4999728" />
      <path
         d="M 3.4999734,2.7069657 C 3.4999734,2.7069657 7.5722522,1.3664003 11.713555,1.5108755 C 15.854857,1.6553515 16.959204,3.2177982 21.652682,3.0492429 C 26.346158,2.8806884 30.487461,1.711496 30.487461,1.711496 L 30.487461,21.241632 C 30.487461,21.241632 26.392172,22.951365 21.698696,22.951365 C 17.005219,22.951365 16.130944,21.602825 11.713555,21.434271 C 7.2961663,21.265715 3.4999734,22.163002 3.4999734,22.163002 C 3.4999734,22.163002 5.0874721,17.298993 5.0874721,12.434984 C 5.0874721,7.5709745 3.4999734,2.7069657 3.4999734,2.7069657 z "
         id="path65"
         sodipodi:nodetypes="czzcczzczc"
         style="fill:url(#linearGradient5245);fill-opacity:1;fill-rule:evenodd;stroke:#204a87;stroke-width:1.00000143px;stroke-linecap:butt;stroke-linejoin:miter;stroke-opacity:1" />
      <path
         d="M 4.8383693,3.5118249 C 4.8383693,3.5118249 8.5776203,2.4110041 12.338363,2.5415817 C 16.099103,2.672159 17.101968,4.0843048 21.364146,3.9319641 C 25.626319,3.7796239 29.38706,2.9998719 29.38706,2.9998719 L 29.38706,20.540497 C 29.38706,20.540497 25.668105,21.919581 21.40593,21.919581 C 17.143756,21.919581 16.34982,20.700764 12.338363,20.548423 C 8.3269042,20.396082 5.0580444,20.930086 5.0580444,20.930086 C 5.0580444,20.930086 6.2662609,16.796738 6.3211755,12.497924 C 6.3760944,8.1987531 4.8383693,3.5118249 4.8383693,3.5118249 z "
         id="path67"
         sodipodi:nodetypes="czzcczzczc"
         style="opacity:0.22826089;fill:none;fill-opacity:1;fill-rule:evenodd;stroke:#ffffff;stroke-width:1.00000191px;stroke-linecap:butt;stroke-linejoin:miter;stroke-opacity:1" />
      <path
         d="M 1.5000007,3.5098706 L 1.5000007,36.471301"
         id="path69"
         sodipodi:nodetypes="cc"
         style="opacity:0.3;fill:none;fill-opacity:0.75;fill-rule:evenodd;stroke:url(#linearGradient6179);stroke-width:1px;stroke-linecap:round;stroke-linejoin:miter;stroke-opacity:1" />
      <path
         d="M 11.035714 29.053572 A 1.3035715 1.3035715 0 1 1  8.428571,29.053572 A 1.3035715 1.3035715 0 1 1  11.035714 29.053572 z"
         id="path71"
         sodipodi:cx="9.7321424"
         sodipodi:cy="29.053572"
         sodipodi:rx="1.3035715"
         sodipodi:ry="1.3035715"
         sodipodi:type="arc"
         style="opacity:0.7;fill:#ffffff;fill-opacity:1;stroke:#204a87;stroke-width:0.82076317;stroke-linecap:round;stroke-linejoin:round;stroke-miterlimit:4;stroke-dasharray:none;stroke-opacity:1"
         transform="matrix(1.217807,0,0,1.2189516,-4.3264429,-16.436012)" />
      <path
         d="M 7.5254281,18.978887 C 7.3175412,24.937605 5.6355489,27.945339 4.6906091,32.428566"
         id="path73"
         sodipodi:nodetypes="cc"
         style="fill:#2e3436;fill-opacity:0.75;fill-rule:evenodd;stroke:url(#linearGradient6153);stroke-width:1.00000024px;stroke-linecap:round;stroke-linejoin:miter;stroke-opacity:1" />
      <g
         id="g75"
         style="opacity:0.50588229"
         transform="matrix(0.7311813,0,0,0.7318686,-1.7242496,-2.8404332)">
        <path
           d="M 34.25 20.125 A 8.125 8.125 0 1 1  18,20.125 A 8.125 8.125 0 1 1  34.25 20.125 z"
           id="path77"
           sodipodi:cx="26.125"
           sodipodi:cy="20.125"
           sodipodi:rx="8.125"
           sodipodi:ry="8.125"
           sodipodi:type="arc"
           style="opacity:1;color:#000000;fill:none;fill-opacity:1;fill-rule:evenodd;stroke:#ffffff;stroke-width:1.38836706;stroke-linecap:round;stroke-linejoin:miter;marker:none;marker-start:none;marker-mid:none;marker-end:none;stroke-miterlimit:4;stroke-dasharray:none;stroke-dashoffset:0;stroke-opacity:1;visibility:visible;display:inline;overflow:visible;enable-background:accumulate"
           transform="matrix(0.9846154,0,0,0.9846154,0.7769231,-0.3153846)" />
        <path
           d="M 33.186956,16.106991 A 8.125,8.125 0 0 1 26.959277,28.207055"
           id="path79"
           sodipodi:cx="26.125"
           sodipodi:cy="20.125"
           sodipodi:end="7.7511201"
           sodipodi:open="true"
           sodipodi:rx="8.125"
           sodipodi:ry="8.125"
           sodipodi:start="5.765898"
           sodipodi:type="arc"
           style="opacity:1;color:#000000;fill:none;fill-opacity:1;fill-rule:evenodd;stroke:#ffffff;stroke-width:2.19396257;stroke-linecap:round;stroke-linejoin:miter;marker:none;marker-start:none;marker-mid:none;marker-end:none;stroke-miterlimit:4;stroke-dasharray:none;stroke-dashoffset:0;stroke-opacity:1;visibility:visible;display:inline;overflow:visible;enable-background:accumulate"
           transform="matrix(1.2461539,0,0,1.2461539,-6.0557692,-5.5788461)" />
        <path
           d="M 33.071089,15.909852 A 8.125,8.125 0 0 1 26.959277,28.207055"
           id="path81"
           sodipodi:cx="26.125"
           sodipodi:cy="20.125"
           sodipodi:end="7.7511201"
           sodipodi:open="true"
           sodipodi:rx="8.125"
           sodipodi:ry="8.125"
           sodipodi:start="5.7377533"
           sodipodi:type="arc"
           style="opacity:1;color:#000000;fill:none;fill-opacity:1;fill-rule:evenodd;stroke:#ffffff;stroke-width:2.19396257;stroke-linecap:round;stroke-linejoin:miter;marker:none;marker-start:none;marker-mid:none;marker-end:none;stroke-miterlimit:4;stroke-dasharray:none;stroke-dashoffset:0;stroke-opacity:1;visibility:visible;display:inline;overflow:visible;enable-background:accumulate"
           transform="matrix(-1.2461539,0,0,1.2461539,58.90791,-5.5788461)" />
        <path
           d="M 34.25 20.125 A 8.125 8.125 0 1 1  18,20.125 A 8.125 8.125 0 1 1  34.25 20.125 z"
           id="path83"
           sodipodi:cx="26.125"
           sodipodi:cy="20.125"
           sodipodi:rx="8.125"
           sodipodi:ry="8.125"
           sodipodi:type="arc"
           style="opacity:1;color:#000000;fill:none;fill-opacity:1;fill-rule:evenodd;stroke:#ffffff;stroke-width:1.85115612;stroke-linecap:round;stroke-linejoin:miter;marker:none;marker-start:none;marker-mid:none;marker-end:none;stroke-miterlimit:4;stroke-dasharray:none;stroke-dashoffset:0;stroke-opacity:1;visibility:visible;display:inline;overflow:visible;enable-background:accumulate"
           transform="matrix(0.7384615,0,0,0.7384615,7.2076941,4.6384629)" />
        <path
           d="M 34.25 20.125 A 8.125 8.125 0 1 1  18,20.125 A 8.125 8.125 0 1 1  34.25 20.125 z"
           id="path85"
           sodipodi:cx="26.125"
           sodipodi:cy="20.125"
           sodipodi:rx="8.125"
           sodipodi:ry="8.125"
           sodipodi:type="arc"
           style="opacity:1;color:#000000;fill:none;fill-opacity:1;fill-rule:evenodd;stroke:#ffffff;stroke-width:2.8208096;stroke-linecap:round;stroke-linejoin:miter;marker:none;marker-start:none;marker-mid:none;marker-end:none;stroke-miterlimit:4;stroke-dasharray:none;stroke-dashoffset:0;stroke-opacity:1;visibility:visible;display:inline;overflow:visible;enable-background:accumulate"
           transform="matrix(0.4846153,0,0,0.4846153,13.839425,9.7471168)" />
        <path
           d="M 30,16 L 28.5,18 L 30.4375,20.5625 L 27.5625,23.4375 C 27.5625,23.4375 32,25 32,25 L 32,20 L 31,19 L 33,17 L 29.4375,14 L 30,16 z "
           id="path87"
           style="opacity:1;color:#000000;fill:#ffffff;fill-opacity:1;fill-rule:evenodd;stroke:none;stroke-width:2;stroke-linecap:round;stroke-linejoin:miter;marker:none;marker-start:none;marker-mid:none;marker-end:none;stroke-miterlimit:4;stroke-dasharray:none;stroke-dashoffset:0;stroke-opacity:1;visibility:visible;display:inline;overflow:visible;enable-background:accumulate" />
        <path
           d="M 22,21 L 19.5625,25.5 L 25,23 L 22,21 z "
           id="path89"
           style="opacity:1;color:#000000;fill:#ffffff;fill-opacity:1;fill-rule:evenodd;stroke:none;stroke-width:2;stroke-linecap:round;stroke-linejoin:miter;marker:none;marker-start:none;marker-mid:none;marker-end:none;stroke-miterlimit:4;stroke-dasharray:none;stroke-dashoffset:0;stroke-opacity:1;visibility:visible;display:inline;overflow:visible;enable-background:accumulate" />
        <path
           d="M 20.5625,19 C 20.5625,19 25,21.5 25,21 C 25,20.5 25,19 25,19 L 23.5,19 L 25,16.4375 L 20.5625,19 z "
           id="path91"
           style="opacity:1;color:#000000;fill:#ffffff;fill-opacity:1;fill-rule:evenodd;stroke:none;stroke-width:2;stroke-linecap:round;stroke-linejoin:miter;marker:none;marker-start:none;marker-mid:none;marker-end:none;stroke-miterlimit:4;stroke-dasharray:none;stroke-dashoffset:0;stroke-opacity:1;visibility:visible;display:inline;overflow:visible;enable-background:accumulate" />
      </g>
    </g>
    <g
       id="g22"
       style="display:inline;enable-background:new"
       transform="translate(303,177) scale(1.000000,1.000000)">
      <rect
         height="21.089226"
         id="rect94"
         rx="1.5729296"
         ry="0.79084486"
         style="opacity:1;fill:url(#linearGradient6163);fill-opacity:1;stroke:url(#linearGradient6171);stroke-width:0.85413945;stroke-linecap:round;stroke-linejoin:round;stroke-miterlimit:4;stroke-dasharray:none;stroke-opacity:1"
         width="3.1458592"
         x="0.42706972"
         y="1.4270421" />
      <path
         d="M 3.4999733,2.3102917 C 3.4999733,2.3102917 6.2277786,1.4103024 9.0018196,1.5072959 C 11.77586,1.6042899 12.515604,2.6532395 15.659518,2.5400798 C 18.803431,2.4269206 21.577472,1.6419826 21.577472,1.6419826 L 21.577472,14.753551 C 21.577472,14.753551 18.834253,15.901381 15.69034,15.901381 C 12.546427,15.901381 11.960796,14.996038 9.0018196,14.882879 C 6.0428432,14.769719 3.4999733,15.372113 3.4999733,15.372113 C 3.4999733,15.372113 4.5633552,12.106658 4.5633552,8.8412027 C 4.5633552,5.575747 3.4999733,2.3102917 3.4999733,2.3102917 z "
         id="path96"
         sodipodi:nodetypes="czzcczzczc"
         style="fill:url(#linearGradient5245);fill-opacity:1;fill-rule:evenodd;stroke:#204a87;stroke-width:1.00000143px;stroke-linecap:butt;stroke-linejoin:miter;stroke-opacity:1" />
      <path
         d="M 4.6455465,3.1199903 C 4.6455465,3.1199903 7.0744029,2.4061969 9.5172191,2.4908659 C 11.960032,2.5755346 12.61145,3.4911968 15.379979,3.3924164 C 18.148505,3.2936362 20.591317,2.7880299 20.591317,2.7880299 L 20.591317,14.161709 C 20.591317,14.161709 18.175647,15.055931 15.407119,15.055931 C 12.638598,15.055931 12.122888,14.265626 9.5172191,14.16685 C 6.9115481,14.068068 4.7882381,14.414323 4.7882381,14.414323 C 4.7882381,14.414323 5.5730431,11.734184 5.6087132,8.9467492 C 5.6443861,6.1590839 4.6455465,3.1199903 4.6455465,3.1199903 z "
         id="path98"
         sodipodi:nodetypes="czzcczzczc"
         style="opacity:0.22826089;fill:none;fill-opacity:1;fill-rule:evenodd;stroke:#ffffff;stroke-width:0.96777558px;stroke-linecap:butt;stroke-linejoin:miter;stroke-opacity:1" />
      <path
         d="M 1.5000007,3.5098706 L 1.5000007,36.471301"
         id="path100"
         sodipodi:nodetypes="cc"
         style="opacity:0.3;fill:none;fill-opacity:0.75;fill-rule:evenodd;stroke:url(#linearGradient6179);stroke-width:1px;stroke-linecap:round;stroke-linejoin:miter;stroke-opacity:1" />
      <path
         d="M 11.035714 29.053572 A 1.3035715 1.3035715 0 1 1  8.428571,29.053572 A 1.3035715 1.3035715 0 1 1  11.035714 29.053572 z"
         id="path102"
         sodipodi:cx="9.7321424"
         sodipodi:cy="29.053572"
         sodipodi:rx="1.3035715"
         sodipodi:ry="1.3035715"
         sodipodi:type="arc"
         style="opacity:0.7;fill:#ffffff;fill-opacity:1;stroke:url(#linearGradient6674);stroke-width:1.22392619;stroke-linecap:round;stroke-linejoin:round;stroke-miterlimit:4;stroke-dasharray:none;stroke-opacity:1"
         transform="matrix(0.9922101,0,0,0.9922101,-3.1226851,-15.926633)" />
      <path
         d="M 6.3988962,13.47055 C 6.2596437,17.470939 5.1329656,19.490183 4.5000001,22.5"
         id="path104"
         sodipodi:nodetypes="cc"
         style="fill:#2e3436;fill-opacity:0.75;fill-rule:evenodd;stroke:url(#linearGradient6153);stroke-width:1.00000024px;stroke-linecap:round;stroke-linejoin:miter;stroke-opacity:1" />
      <g
         id="g106"
         style="opacity:0.50588229"
         transform="matrix(0.3758845,0,0,0.3762378,3.0482162,0.8253072)">
        <path
           d="M 34.25 20.125 A 8.125 8.125 0 1 1  18,20.125 A 8.125 8.125 0 1 1  34.25 20.125 z"
           id="path108"
           sodipodi:cx="26.125"
           sodipodi:cy="20.125"
           sodipodi:rx="8.125"
           sodipodi:ry="8.125"
           sodipodi:type="arc"
           style="opacity:1;color:#000000;fill:none;fill-opacity:1;fill-rule:evenodd;stroke:#ffffff;stroke-width:1.38836706;stroke-linecap:round;stroke-linejoin:miter;marker:none;marker-start:none;marker-mid:none;marker-end:none;stroke-miterlimit:4;stroke-dasharray:none;stroke-dashoffset:0;stroke-opacity:1;visibility:visible;display:inline;overflow:visible;enable-background:accumulate"
           transform="matrix(0.9846154,0,0,0.9846154,0.7769231,-0.3153846)" />
        <path
           d="M 33.186956,16.106991 A 8.125,8.125 0 0 1 26.959277,28.207055"
           id="path110"
           sodipodi:cx="26.125"
           sodipodi:cy="20.125"
           sodipodi:end="7.7511201"
           sodipodi:open="true"
           sodipodi:rx="8.125"
           sodipodi:ry="8.125"
           sodipodi:start="5.765898"
           sodipodi:type="arc"
           style="opacity:1;color:#000000;fill:none;fill-opacity:1;fill-rule:evenodd;stroke:#ffffff;stroke-width:2.19396257;stroke-linecap:round;stroke-linejoin:miter;marker:none;marker-start:none;marker-mid:none;marker-end:none;stroke-miterlimit:4;stroke-dasharray:none;stroke-dashoffset:0;stroke-opacity:1;visibility:visible;display:inline;overflow:visible;enable-background:accumulate"
           transform="matrix(1.2461539,0,0,1.2461539,-6.0557692,-5.5788461)" />
        <path
           d="M 33.071089,15.909852 A 8.125,8.125 0 0 1 26.959277,28.207055"
           id="path112"
           sodipodi:cx="26.125"
           sodipodi:cy="20.125"
           sodipodi:end="7.7511201"
           sodipodi:open="true"
           sodipodi:rx="8.125"
           sodipodi:ry="8.125"
           sodipodi:start="5.7377533"
           sodipodi:type="arc"
           style="opacity:1;color:#000000;fill:none;fill-opacity:1;fill-rule:evenodd;stroke:#ffffff;stroke-width:2.19396257;stroke-linecap:round;stroke-linejoin:miter;marker:none;marker-start:none;marker-mid:none;marker-end:none;stroke-miterlimit:4;stroke-dasharray:none;stroke-dashoffset:0;stroke-opacity:1;visibility:visible;display:inline;overflow:visible;enable-background:accumulate"
           transform="matrix(-1.2461539,0,0,1.2461539,58.90791,-5.5788461)" />
        <path
           d="M 34.25 20.125 A 8.125 8.125 0 1 1  18,20.125 A 8.125 8.125 0 1 1  34.25 20.125 z"
           id="path114"
           sodipodi:cx="26.125"
           sodipodi:cy="20.125"
           sodipodi:rx="8.125"
           sodipodi:ry="8.125"
           sodipodi:type="arc"
           style="opacity:1;color:#000000;fill:none;fill-opacity:1;fill-rule:evenodd;stroke:#ffffff;stroke-width:1.85115612;stroke-linecap:round;stroke-linejoin:miter;marker:none;marker-start:none;marker-mid:none;marker-end:none;stroke-miterlimit:4;stroke-dasharray:none;stroke-dashoffset:0;stroke-opacity:1;visibility:visible;display:inline;overflow:visible;enable-background:accumulate"
           transform="matrix(0.7384615,0,0,0.7384615,7.2076941,4.6384629)" />
        <path
           d="M 34.25 20.125 A 8.125 8.125 0 1 1  18,20.125 A 8.125 8.125 0 1 1  34.25 20.125 z"
           id="path116"
           sodipodi:cx="26.125"
           sodipodi:cy="20.125"
           sodipodi:rx="8.125"
           sodipodi:ry="8.125"
           sodipodi:type="arc"
           style="opacity:1;color:#000000;fill:none;fill-opacity:1;fill-rule:evenodd;stroke:#ffffff;stroke-width:2.8208096;stroke-linecap:round;stroke-linejoin:miter;marker:none;marker-start:none;marker-mid:none;marker-end:none;stroke-miterlimit:4;stroke-dasharray:none;stroke-dashoffset:0;stroke-opacity:1;visibility:visible;display:inline;overflow:visible;enable-background:accumulate"
           transform="matrix(0.4846153,0,0,0.4846153,13.839425,9.7471168)" />
        <path
           d="M 27.86926,14.761663 L 26.052125,17.18451 L 28.399258,20.288782 L 24.916416,23.771624 C 24.916416,23.771624 30.292107,25.664473 30.292107,25.664473 L 30.292107,19.607356 L 29.080683,18.395933 L 31.50353,15.973086 L 27.187834,12.338816 L 27.86926,14.761663 z "
           id="path118"
           style="opacity:1;color:#000000;fill:#ffffff;fill-opacity:1;fill-rule:evenodd;stroke:none;stroke-width:2;stroke-linecap:round;stroke-linejoin:miter;marker:none;marker-start:none;marker-mid:none;marker-end:none;stroke-miterlimit:4;stroke-dasharray:none;stroke-dashoffset:0;stroke-opacity:1;visibility:visible;display:inline;overflow:visible;enable-background:accumulate" />
        <path
           d="M 22,21 L 19.5625,25.5 L 25,23 L 22,21 z "
           id="path120"
           style="opacity:1;color:#000000;fill:#ffffff;fill-opacity:1;fill-rule:evenodd;stroke:none;stroke-width:2;stroke-linecap:round;stroke-linejoin:miter;marker:none;marker-start:none;marker-mid:none;marker-end:none;stroke-miterlimit:4;stroke-dasharray:none;stroke-dashoffset:0;stroke-opacity:1;visibility:visible;display:inline;overflow:visible;enable-background:accumulate" />
        <path
           d="M 20.5625,18.184331 C 20.5625,18.184331 26.751852,21.67129 26.751852,20.973899 C 26.751852,20.276507 26.751852,18.184331 26.751852,18.184331 L 24.659677,18.184331 L 26.751852,14.610198 L 20.5625,18.184331 z "
           id="path122"
           style="opacity:1;color:#000000;fill:#ffffff;fill-opacity:1;fill-rule:evenodd;stroke:none;stroke-width:2;stroke-linecap:round;stroke-linejoin:miter;marker:none;marker-start:none;marker-mid:none;marker-end:none;stroke-miterlimit:4;stroke-dasharray:none;stroke-dashoffset:0;stroke-opacity:1;visibility:visible;display:inline;overflow:visible;enable-background:accumulate" />
      </g>
    </g>
    <g
       id="g16"
       style="display:inline;enable-background:new"
       transform="translate(303,219) scale(1.000000,1.000000)">
      <rect
         height="10.999998"
         id="rect8675"
         style="opacity:1;color:#000000;fill:url(#linearGradient8677);fill-opacity:1;fill-rule:evenodd;stroke:#204a87;stroke-width:1.00000143px;stroke-linecap:butt;stroke-linejoin:miter;marker:none;marker-start:none;marker-mid:none;marker-end:none;stroke-miterlimit:4;stroke-dasharray:none;stroke-dashoffset:0;stroke-opacity:1;visibility:visible;display:inline;overflow:visible;enable-background:accumulate"
         width="13.999999"
         x="1.5000007"
         y="0.50000072" />
      <rect
         height="16.925528"
         id="rect126"
         rx="1.0729303"
         ry="0.79084486"
         style="opacity:1;fill:url(#linearGradient6163);fill-opacity:1;stroke:url(#linearGradient6171);stroke-width:0.91369849;stroke-linecap:round;stroke-linejoin:round;stroke-miterlimit:4;stroke-dasharray:none;stroke-opacity:1"
         width="2.2321622"
         x="0.38391894"
         y="0.44055375" />
      <path
         d="M 1.5,1.2293953 L 1.5,13.809174"
         id="path128"
         sodipodi:nodetypes="cc"
         style="opacity:0.3;fill:none;fill-opacity:0.75;fill-rule:evenodd;stroke:url(#linearGradient6179);stroke-width:0.61777949px;stroke-linecap:round;stroke-linejoin:miter;stroke-opacity:1" />
      <g
         id="g130"
         style="opacity:0.50588229"
         transform="matrix(0.3272548,0,0,0.3275623,0.5665325,-0.5431816)">
        <path
           d="M 34.25 20.125 A 8.125 8.125 0 1 1  18,20.125 A 8.125 8.125 0 1 1  34.25 20.125 z"
           id="path132"
           sodipodi:cx="26.125"
           sodipodi:cy="20.125"
           sodipodi:rx="8.125"
           sodipodi:ry="8.125"
           sodipodi:type="arc"
           style="opacity:1;color:#000000;fill:none;fill-opacity:1;fill-rule:evenodd;stroke:#ffffff;stroke-width:1.38836706;stroke-linecap:round;stroke-linejoin:miter;marker:none;marker-start:none;marker-mid:none;marker-end:none;stroke-miterlimit:4;stroke-dasharray:none;stroke-dashoffset:0;stroke-opacity:1;visibility:visible;display:inline;overflow:visible;enable-background:accumulate"
           transform="matrix(0.9846154,0,0,0.9846154,0.7769231,-0.3153846)" />
        <path
           d="M 33.186956,16.106991 A 8.125,8.125 0 0 1 26.959277,28.207055"
           id="path134"
           sodipodi:cx="26.125"
           sodipodi:cy="20.125"
           sodipodi:end="7.7511201"
           sodipodi:open="true"
           sodipodi:rx="8.125"
           sodipodi:ry="8.125"
           sodipodi:start="5.765898"
           sodipodi:type="arc"
           style="opacity:1;color:#000000;fill:none;fill-opacity:1;fill-rule:evenodd;stroke:#ffffff;stroke-width:2.19396257;stroke-linecap:round;stroke-linejoin:miter;marker:none;marker-start:none;marker-mid:none;marker-end:none;stroke-miterlimit:4;stroke-dasharray:none;stroke-dashoffset:0;stroke-opacity:1;visibility:visible;display:inline;overflow:visible;enable-background:accumulate"
           transform="matrix(1.2461539,0,0,1.2461539,-6.0557692,-5.5788461)" />
        <path
           d="M 33.071089,15.909852 A 8.125,8.125 0 0 1 26.959277,28.207055"
           id="path136"
           sodipodi:cx="26.125"
           sodipodi:cy="20.125"
           sodipodi:end="7.7511201"
           sodipodi:open="true"
           sodipodi:rx="8.125"
           sodipodi:ry="8.125"
           sodipodi:start="5.7377533"
           sodipodi:type="arc"
           style="opacity:1;color:#000000;fill:none;fill-opacity:1;fill-rule:evenodd;stroke:#ffffff;stroke-width:2.19396257;stroke-linecap:round;stroke-linejoin:miter;marker:none;marker-start:none;marker-mid:none;marker-end:none;stroke-miterlimit:4;stroke-dasharray:none;stroke-dashoffset:0;stroke-opacity:1;visibility:visible;display:inline;overflow:visible;enable-background:accumulate"
           transform="matrix(-1.2461539,0,0,1.2461539,58.90791,-5.5788461)" />
        <path
           d="M 34.25 20.125 A 8.125 8.125 0 1 1  18,20.125 A 8.125 8.125 0 1 1  34.25 20.125 z"
           id="path138"
           sodipodi:cx="26.125"
           sodipodi:cy="20.125"
           sodipodi:rx="8.125"
           sodipodi:ry="8.125"
           sodipodi:type="arc"
           style="opacity:1;color:#000000;fill:none;fill-opacity:1;fill-rule:evenodd;stroke:#ffffff;stroke-width:1.85115612;stroke-linecap:round;stroke-linejoin:miter;marker:none;marker-start:none;marker-mid:none;marker-end:none;stroke-miterlimit:4;stroke-dasharray:none;stroke-dashoffset:0;stroke-opacity:1;visibility:visible;display:inline;overflow:visible;enable-background:accumulate"
           transform="matrix(0.7384615,0,0,0.7384615,7.2076941,4.6384629)" />
        <path
           d="M 34.25 20.125 A 8.125 8.125 0 1 1  18,20.125 A 8.125 8.125 0 1 1  34.25 20.125 z"
           id="path140"
           sodipodi:cx="26.125"
           sodipodi:cy="20.125"
           sodipodi:rx="8.125"
           sodipodi:ry="8.125"
           sodipodi:type="arc"
           style="opacity:1;color:#000000;fill:none;fill-opacity:1;fill-rule:evenodd;stroke:#ffffff;stroke-width:2.8208096;stroke-linecap:round;stroke-linejoin:miter;marker:none;marker-start:none;marker-mid:none;marker-end:none;stroke-miterlimit:4;stroke-dasharray:none;stroke-dashoffset:0;stroke-opacity:1;visibility:visible;display:inline;overflow:visible;enable-background:accumulate"
           transform="matrix(0.4846153,0,0,0.4846153,13.839425,9.7471168)" />
        <path
           d="M 27.86926,14.761663 L 26.052125,17.18451 L 28.399258,20.288782 L 24.916416,23.771624 C 24.916416,23.771624 30.292107,25.664473 30.292107,25.664473 L 30.292107,19.607356 L 29.080683,18.395933 L 31.50353,15.973086 L 27.187834,12.338816 L 27.86926,14.761663 z "
           id="path142"
           style="opacity:1;color:#000000;fill:#ffffff;fill-opacity:1;fill-rule:evenodd;stroke:none;stroke-width:2;stroke-linecap:round;stroke-linejoin:miter;marker:none;marker-start:none;marker-mid:none;marker-end:none;stroke-miterlimit:4;stroke-dasharray:none;stroke-dashoffset:0;stroke-opacity:1;visibility:visible;display:inline;overflow:visible;enable-background:accumulate" />
        <path
           d="M 22,21 L 19.5625,25.5 L 25,23 L 22,21 z "
           id="path144"
           style="opacity:1;color:#000000;fill:#ffffff;fill-opacity:1;fill-rule:evenodd;stroke:none;stroke-width:2;stroke-linecap:round;stroke-linejoin:miter;marker:none;marker-start:none;marker-mid:none;marker-end:none;stroke-miterlimit:4;stroke-dasharray:none;stroke-dashoffset:0;stroke-opacity:1;visibility:visible;display:inline;overflow:visible;enable-background:accumulate" />
        <path
           d="M 20.5625,18.184331 C 20.5625,18.184331 26.751852,21.67129 26.751852,20.973899 C 26.751852,20.276507 26.751852,18.184331 26.751852,18.184331 L 24.659677,18.184331 L 26.751852,14.610198 L 20.5625,18.184331 z "
           id="path146"
           style="opacity:1;color:#000000;fill:#ffffff;fill-opacity:1;fill-rule:evenodd;stroke:none;stroke-width:2;stroke-linecap:round;stroke-linejoin:miter;marker:none;marker-start:none;marker-mid:none;marker-end:none;stroke-miterlimit:4;stroke-dasharray:none;stroke-dashoffset:0;stroke-opacity:1;visibility:visible;display:inline;overflow:visible;enable-background:accumulate" />
      </g>
    </g>
  </g>
  <g
     id="layer4"
     inkscape:groupmode="layer"
     inkscape:label="hires"
     style="display:inline" />
</svg>
