<?xml version="1.0" encoding="UTF-8" standalone="no"?>
<!-- Created with Inkscape (http://www.inkscape.org/) -->
<svg
   xmlns:dc="http://purl.org/dc/elements/1.1/"
   xmlns:cc="http://creativecommons.org/ns#"
   xmlns:rdf="http://www.w3.org/1999/02/22-rdf-syntax-ns#"
   xmlns:svg="http://www.w3.org/2000/svg"
   xmlns="http://www.w3.org/2000/svg"
   xmlns:xlink="http://www.w3.org/1999/xlink"
   xmlns:sodipodi="http://sodipodi.sourceforge.net/DTD/sodipodi-0.dtd"
   xmlns:inkscape="http://www.inkscape.org/namespaces/inkscape"
   height="300"
   id="svg11300"
   inkscape:export-filename="/home/jimmac/Desktop/wi-fi.png"
   inkscape:export-xdpi="90.000000"
   inkscape:export-ydpi="90.000000"
   inkscape:output_extension="org.inkscape.output.svg.inkscape"
   inkscape:version="0.46"
   sodipodi:docname="security-low.svg"
   sodipodi:version="0.32"
   style="display:inline;enable-background:new"
   version="1.0"
   width="400">
  <title
     id="title8836">Optical Drive</title>
  <metadata
     id="metadata154">
    <rdf:RDF>
      <cc:Work
         rdf:about="">
        <dc:format>image/svg+xml</dc:format>
        <dc:type
           rdf:resource="http://purl.org/dc/dcmitype/StillImage" />
        <dc:title />
        <dc:creator>
          <cc:Agent>
            <dc:title />
          </cc:Agent>
        </dc:creator>
        <dc:contributor>
          <cc:Agent>
            <dc:title />
          </cc:Agent>
        </dc:contributor>
        <dc:source />
        <cc:license
           rdf:resource="" />
        <dc:subject>
          <rdf:Bag />
        </dc:subject>
      </cc:Work>
    </rdf:RDF>
  </metadata>
  <sodipodi:namedview
     bordercolor="#666666"
     borderopacity="0.25490196"
     fill="#f57900"
     gridtolerance="12"
     guidetolerance="13"
     height="300px"
     id="base"
     inkscape:current-layer="layer6"
     inkscape:cx="144.68008"
     inkscape:cy="87.105301"
     inkscape:document-units="px"
     inkscape:grid-bbox="true"
     inkscape:guide-bbox="true"
     inkscape:pageopacity="0.0"
     inkscape:pageshadow="2"
     inkscape:showpageshadow="false"
     inkscape:snap-bbox="true"
     inkscape:snap-nodes="true"
     inkscape:window-height="876"
     inkscape:window-width="968"
     inkscape:window-x="132"
     inkscape:window-y="8"
     inkscape:zoom="1"
     objecttolerance="7"
     pagecolor="#ffffff"
     showgrid="false"
     showguides="true"
     stroke="#ef2929"
     width="400px">
    <inkscape:grid
       empspacing="2"
       enabled="true"
       id="grid5883"
       spacingx="0.5px"
       spacingy="0.5px"
       type="xygrid"
       visible="true" />
  </sodipodi:namedview>
  <defs
     id="defs3">
    <linearGradient
       id="linearGradient6215"
       inkscape:collect="always">
      <stop
         id="stop6217"
         offset="0"
         style="stop-color:#8f5902;stop-opacity:1;" />
      <stop
         id="stop6219"
         offset="1"
         style="stop-color:#754e11;stop-opacity:1" />
    </linearGradient>
    <linearGradient
       id="linearGradient6134"
       inkscape:collect="always">
      <stop
         id="stop6136"
         offset="0"
         style="stop-color:#ffffff;stop-opacity:1;" />
      <stop
         id="stop6138"
         offset="1"
         style="stop-color:#ffffff;stop-opacity:0.25490196" />
    </linearGradient>
    <linearGradient
       id="linearGradient6118"
       inkscape:collect="always">
      <stop
         id="stop6120"
         offset="0"
         style="stop-color:#8f5902;stop-opacity:1;" />
      <stop
         id="stop6122"
         offset="1"
         style="stop-color:#8f5902;stop-opacity:0.42745098" />
    </linearGradient>
    <linearGradient
       id="linearGradient6089"
       inkscape:collect="always">
      <stop
         id="stop6091"
         offset="0"
         style="stop-color:#e09929;stop-opacity:1" />
      <stop
         id="stop6093"
         offset="1"
         style="stop-color:#b67a1c;stop-opacity:1" />
    </linearGradient>
    <linearGradient
       id="linearGradient15679"
       inkscape:collect="always">
      <stop
         id="stop15681"
         offset="0"
         style="stop-color:#000000;stop-opacity:1;" />
      <stop
         id="stop15683"
         offset="1"
         style="stop-color:#000000;stop-opacity:0;" />
    </linearGradient>
    <radialGradient
       cx="23.3125"
       cy="40.9375"
       fx="23.3125"
       fy="40.9375"
       gradientTransform="matrix(1.000000,0.000000,0.000000,0.316364,0.000000,27.98636)"
       gradientUnits="userSpaceOnUse"
       id="radialGradient15685"
       inkscape:collect="always"
       r="17.1875"
       xlink:href="#linearGradient15679" />
    <linearGradient
       gradientUnits="userSpaceOnUse"
       id="linearGradient6095"
       inkscape:collect="always"
       x1="22.408667"
       x2="28"
       xlink:href="#linearGradient6089"
       y1="17.525267"
       y2="31" />
    <linearGradient
       gradientUnits="userSpaceOnUse"
       id="linearGradient6111"
       inkscape:collect="always"
       x1="36"
       x2="39"
       xlink:href="#linearGradient6089"
       y1="12"
       y2="27" />
    <linearGradient
       gradientUnits="userSpaceOnUse"
       id="linearGradient6124"
       inkscape:collect="always"
       spreadMethod="reflect"
       x1="21.768894"
       x2="21.768894"
       xlink:href="#linearGradient6118"
       y1="16.065203"
       y2="4.7882247" />
    <linearGradient
       gradientUnits="userSpaceOnUse"
       id="linearGradient6140"
       inkscape:collect="always"
       x1="18.03125"
       x2="29.398239"
       xlink:href="#linearGradient6134"
       y1="2.4583249"
       y2="40.668037" />
    <linearGradient
       gradientUnits="userSpaceOnUse"
       id="linearGradient6162"
       inkscape:collect="always"
       x1="8.4586315"
       x2="13.490013"
       xlink:href="#linearGradient6134"
       y1="11.074956"
       y2="33.65271" />
    <linearGradient
       gradientUnits="userSpaceOnUse"
       id="linearGradient6178"
       inkscape:collect="always"
       x1="34.035664"
       x2="37.515675"
       xlink:href="#linearGradient6134"
       y1="9.667614"
       y2="35.281033" />
    <linearGradient
       gradientTransform="matrix(1.8293413,0,0,1,-21.526487,0)"
       gradientUnits="userSpaceOnUse"
       id="linearGradient6198"
       inkscape:collect="always"
       spreadMethod="reflect"
       x1="26.514629"
       x2="26.562061"
       xlink:href="#linearGradient6118"
       y1="19.39835"
       y2="5.6904283" />
    <linearGradient
       gradientUnits="userSpaceOnUse"
       id="linearGradient6209"
       inkscape:collect="always"
       spreadMethod="reflect"
       x1="35.303009"
       x2="35.408066"
       xlink:href="#linearGradient6118"
       y1="18.770054"
       y2="6.9774346" />
    <linearGradient
       gradientTransform="matrix(-1,0,0,1,47.873991,0.9395828)"
       gradientUnits="userSpaceOnUse"
       id="linearGradient6213"
       inkscape:collect="always"
       spreadMethod="reflect"
       x1="35.303009"
       x2="35.408066"
       xlink:href="#linearGradient6118"
       y1="18.770054"
       y2="6.9774346" />
    <linearGradient
       gradientUnits="userSpaceOnUse"
       id="linearGradient6221"
       inkscape:collect="always"
       x1="8.497467"
       x2="12.74407"
       xlink:href="#linearGradient6215"
       y1="11.45237"
       y2="34.564865" />
    <linearGradient
       gradientUnits="userSpaceOnUse"
       id="linearGradient6223"
       inkscape:collect="always"
       x1="7.3230166"
       x2="14.609904"
       xlink:href="#linearGradient6089"
       y1="16.488125"
       y2="26.591333" />
    <linearGradient
       gradientUnits="userSpaceOnUse"
       id="linearGradient6231"
       inkscape:collect="always"
       x1="17.536705"
       x2="25.051275"
       xlink:href="#linearGradient6215"
       y1="15.516562"
       y2="35.506447" />
    <linearGradient
       gradientUnits="userSpaceOnUse"
       id="linearGradient6239"
       inkscape:collect="always"
       x1="33.627586"
       x2="37.279495"
       xlink:href="#linearGradient6215"
       y1="15.624545"
       y2="30.408791" />
    <linearGradient
       id="linearGradient6414"
       inkscape:collect="always">
      <stop
         id="stop6416"
         offset="0"
         style="stop-color:#835101;stop-opacity:1" />
      <stop
         id="stop6418"
         offset="1"
         style="stop-color:#6a460f;stop-opacity:1" />
    </linearGradient>
    <linearGradient
       id="linearGradient6378"
       inkscape:collect="always">
      <stop
         id="stop6380"
         offset="0"
         style="stop-color:#e09929;stop-opacity:1" />
      <stop
         id="stop6382"
         offset="1"
         style="stop-color:#b67a1c;stop-opacity:1" />
    </linearGradient>
    <linearGradient
       gradientTransform="translate(10.037012,5.5)"
       gradientUnits="userSpaceOnUse"
       id="linearGradient6376"
       inkscape:collect="always"
       x1="-3.3495121"
       x2="0.12656879"
       xlink:href="#linearGradient6378"
       y1="-2.0850675"
       y2="4.8211827" />
    <linearGradient
       gradientTransform="translate(14.162012,5.625)"
       gradientUnits="userSpaceOnUse"
       id="linearGradient6390"
       inkscape:collect="always"
       x1="-3.7870121"
       x2="-3.5"
       xlink:href="#linearGradient6414"
       y1="-1.1163175"
       y2="6.0711823" />
    <linearGradient
       gradientTransform="translate(14.162012,5.625)"
       gradientUnits="userSpaceOnUse"
       id="linearGradient6423"
       inkscape:collect="always"
       x1="-10.106779"
       x2="1.1478151"
       xlink:href="#linearGradient6134"
       y1="-2.795696"
       y2="11.829342" />
  </defs>
  <g
     id="layer6"
     inkscape:groupmode="layer"
     inkscape:label="baseplate"
     style="display:none">
    <rect
       height="48"
       id="rect6284"
       inkscape:label="48x48"
       style="fill:#eeeeec;fill-opacity:1;fill-rule:nonzero;stroke:none;stroke-width:2;marker:none;visibility:visible;display:inline;overflow:visible;enable-background:accumulate"
       width="48"
       x="296"
       y="50" />
    <rect
       height="32"
       id="rect6592"
       inkscape:label="32x32"
       style="fill:#eeeeec;fill-opacity:1;fill-rule:nonzero;stroke:none;stroke-width:2;marker:none;visibility:visible;display:inline;overflow:visible;enable-background:accumulate"
       width="32"
       x="303"
       y="126" />
    <rect
       height="22"
       id="rect6749"
       inkscape:label="22x22"
       style="fill:#eeeeec;fill-opacity:1;fill-rule:nonzero;stroke:none;stroke-width:2;marker:none;visibility:visible;display:inline;overflow:visible;enable-background:accumulate"
       width="22"
       x="303"
       y="177" />
    <rect
       height="16"
       id="rect6833"
       inkscape:label="16x16"
       style="fill:#eeeeec;fill-opacity:1;fill-rule:nonzero;stroke:none;stroke-width:2;marker:none;visibility:visible;display:inline;overflow:visible;enable-background:accumulate"
       width="16"
       x="303"
       y="219" />
    <text
       id="context"
       inkscape:label="context"
       style="font-size:18.30070686px;font-style:normal;font-weight:normal;fill:#000000;fill-opacity:1;stroke:none;display:inline;enable-background:new;font-family:Bitstream Vera Sans"
       x="20.970737"
       xml:space="preserve"
       y="21.513618"><tspan
         id="tspan2716"
         sodipodi:role="line"
         x="20.970737"
         y="21.513618">status</tspan></text>
    <text
       id="icon-name"
       inkscape:label="icon-name"
       sodipodi:linespacing="125%"
       style="font-size:18.30070686px;font-style:normal;font-variant:normal;font-weight:bold;font-stretch:normal;text-align:start;line-height:125%;writing-mode:lr-tb;text-anchor:start;fill:#000000;fill-opacity:1;stroke:none;display:inline;enable-background:new;font-family:Droid Sans;-inkscape-font-specification:Droid Sans Bold"
       x="191.97073"
       xml:space="preserve"
       y="21.513618"><tspan
         id="tspan3023"
         sodipodi:role="line"
         x="191.97073"
         y="21.513618">security-low</tspan></text>
  </g>
  <g
     id="layer2"
     inkscape:groupmode="layer"
     inkscape:label="small sizes"
     style="display:inline">
    <g
       id="g48"
       style="display:inline;enable-background:new"
       transform="translate(296,50) scale(1.000000,1.000000)">
      <path
         d="M 40.5 40.9375 A 17.1875 5.4375 0 1 1  6.125,40.9375 A 17.1875 5.4375 0 1 1  40.5 40.9375 z"
         id="path15677"
         sodipodi:cx="23.3125"
         sodipodi:cy="40.9375"
         sodipodi:rx="17.1875"
         sodipodi:ry="5.4375"
         sodipodi:type="arc"
         style="opacity:0.36931817;color:#000000;fill:url(#radialGradient15685);fill-opacity:1;fill-rule:nonzero;stroke:none;stroke-width:1.00000024;stroke-linecap:round;stroke-linejoin:round;marker:none;marker-start:none;marker-mid:none;marker-end:none;stroke-miterlimit:4;stroke-dasharray:none;stroke-dashoffset:0;stroke-opacity:1;visibility:visible;display:block;overflow:visible"
         transform="translate(-0.125000,0.625000)" />
      <path
         d="M 4.503151,8.5 C 4.5258597,16.238665 6.1850752,22.521318 8.5268027,27.540223 L 9.5238359,23.447793 L 9.4741798,29.436938 C 11.121996,32.526181 13.011722,35.078684 14.871252,37.149284 C 15.459053,37.803805 15.925257,38.007 16.498429,38.566949 L 16.409215,6.5444802 L 14.474908,5.400703 C 11.111499,6.0731536 7.7819251,7.1035771 4.503151,8.5 z"
         id="path15651"
         inkscape:r_cx="true"
         inkscape:r_cy="true"
         sodipodi:nodetypes="ccccscccc"
         style="color:#000000;fill:url(#linearGradient6223);fill-opacity:1;fill-rule:nonzero;stroke:url(#linearGradient6221);stroke-width:1.00000011999999994;stroke-linecap:round;stroke-linejoin:round;marker:none;marker-start:none;marker-mid:none;marker-end:none;stroke-miterlimit:4;stroke-dasharray:none;stroke-dashoffset:0;stroke-opacity:1;visibility:visible;display:block;overflow:visible" />
      <g
         id="g3168"
         inkscape:r_cx="true"
         inkscape:r_cy="true"
         transform="translate(0,1)" />
      <path
         d="M 17.520158,40 C 21.058337,43.221875 24,44.5 24,44.5 C 24,44.5 24.969007,44.033926 26.474967,43.011598 L 27.527194,38 L 28.393311,41.606013 C 29.094339,41.054279 29.70664,40.299249 30.491326,39.573182 L 30.521336,4.5260433 C 26.156544,3.9704442 21.850675,4.3067372 17.543888,4.8874406 L 17.520158,40 z"
         id="path6085"
         inkscape:r_cx="true"
         inkscape:r_cy="true"
         sodipodi:nodetypes="ccccccccc"
         style="color:#000000;fill:url(#linearGradient6095);fill-opacity:1;fill-rule:nonzero;stroke:url(#linearGradient6231);stroke-width:1.00000011999999994;stroke-linecap:round;stroke-linejoin:round;marker:none;marker-start:none;marker-mid:none;marker-end:none;stroke-miterlimit:4;stroke-dasharray:none;stroke-dashoffset:0;stroke-opacity:1;visibility:visible;display:block;overflow:visible" />
      <path
         d="M 31.511491,38.496125 C 37.030582,33.080483 43.573184,24.08141 43.544282,8.4333097 C 42.858864,8.1743154 41.199801,7.2225176 40.512199,7 L 39.457431,10.588384 L 38.501067,6.55355 C 36.040629,5.8977186 34.072628,5.8595681 31.618419,5.4980387 L 31.511491,38.496125 z"
         id="path6087"
         inkscape:r_cx="true"
         inkscape:r_cy="true"
         sodipodi:nodetypes="ccccccc"
         style="color:#000000;fill:url(#linearGradient6111);fill-opacity:1;fill-rule:nonzero;stroke:url(#linearGradient6239);stroke-width:1.00000011999999994;stroke-linecap:round;stroke-linejoin:round;marker:none;marker-start:none;marker-mid:none;marker-end:none;stroke-miterlimit:4;stroke-dasharray:none;stroke-dashoffset:0;stroke-opacity:1;visibility:visible;display:block;overflow:visible" />
      <g
         id="g6180">
        <path
           d="M 23,16 C 22.971081,17.833722 22.192165,17.919911 22.039155,19.473238 L 21.514206,28.955543 L 21.505584,20.76595 C 21.566144,17.878861 20.514995,17.828241 20.538166,16 C 20.549114,15.148852 20.866016,14.421177 21.327609,14.13264 C 21.464669,14.046966 21.525056,11.14506 21.606889,7.7320367 L 22.005505,7.6749375 C 21.656747,7.7248948 22.208523,14.119266 22.325149,14.21546 C 22.725472,14.545651 23,15.221051 23,16 z"
           id="path6115"
           sodipodi:nodetypes="ccccsscssc"
           style="fill:url(#linearGradient6124);fill-opacity:1;stroke:none;stroke-width:1;stroke-linecap:square;stroke-linejoin:miter;stroke-miterlimit:4;stroke-opacity:1;opacity:0.56078431"
           transform="matrix(2.0470866,0,0,1.7707742,-22.023792,-8.8225789)" />
        <path
           d="M 23,16 A 1.2309169,2 0 1 1 20.538166,16 A 1.2309169,2 0 1 1 23,16 z"
           id="path6113"
           sodipodi:cx="21.769083"
           sodipodi:cy="16"
           sodipodi:rx="1.2309169"
           sodipodi:ry="2"
           sodipodi:type="arc"
           style="opacity:0.59215686;fill:#e9b96e;fill-opacity:1;stroke:none;stroke-width:1;stroke-linecap:square;stroke-linejoin:miter;stroke-miterlimit:4;stroke-dasharray:none;stroke-opacity:1"
           transform="matrix(1.2186038,0,0,1.25,-4.0278883,-0.5)" />
      </g>
      <path
         d="M 24.287957,4.5994868 L 26.196894,4.7892159 C 26.196894,4.7892159 25.37117,9.5156477 27.089769,14.79765 C 28.808368,20.079653 27.483164,22.711348 26.981206,26.939954 C 26.479248,31.16856 26.998789,34.662047 27.027527,37.849498 L 25.986203,42.853745 L 24.106325,43.873394 C 24.106325,43.873394 23.307386,27.822338 25.025185,23.951934 C 26.742984,20.08153 25.974829,18.918193 24.783543,15.271727 C 23.592259,11.625261 24.287957,4.5994868 24.287957,4.5994868 z"
         id="rect6186"
         sodipodi:nodetypes="cczzccczzc"
         style="opacity:0.28627451;fill:url(#linearGradient6198);fill-opacity:1;stroke:none;stroke-width:1;stroke-linecap:square;stroke-linejoin:miter;stroke-miterlimit:4;stroke-opacity:1" />
      <path
         d="M 24.03125,5.28125 C 22.202509,5.3550723 20.36745,5.5520013 18.53125,5.78125 L 18.53125,39.5 C 21.385875,42.021495 23.438911,43.094591 23.96875,43.34375 C 24.17147,43.238161 24.691078,42.938377 25.5625,42.375 L 26.53125,37.78125 C 26.603862,37.290119 27.021568,36.923896 27.517977,36.91614 C 28.014385,36.908384 28.44333,37.261378 28.53125,37.75 L 29,39.625 C 29.170991,39.44879 29.306465,39.315138 29.5,39.125 L 29.53125,5.5 C 27.702306,5.3164037 25.855413,5.2076125 24.03125,5.28125 z"
         id="path6130"
         inkscape:original="M 24 4.28125 C 21.839585 4.3684613 19.684643 4.5846483 17.53125 4.875 L 17.53125 40 C 21.069428 43.221875 24 44.5 24 44.5 C 24 44.5 24.96279 44.022328 26.46875 43 L 27.53125 38 L 28.40625 41.59375 C 29.107278 41.042015 29.715314 40.288567 30.5 39.5625 L 30.53125 4.53125 C 28.348854 4.2534504 26.160415 4.1940387 24 4.28125 z "
         inkscape:radius="-1.0133568"
         sodipodi:type="inkscape:offset"
         style="color:#000000;fill:none;fill-opacity:1;fill-rule:nonzero;stroke:url(#linearGradient6140);stroke-width:1;stroke-linecap:round;stroke-linejoin:miter;marker:none;marker-start:none;marker-mid:none;marker-end:none;stroke-miterlimit:4;stroke-dasharray:none;stroke-dashoffset:0;stroke-opacity:1;visibility:visible;display:block;overflow:visible;opacity:0.38039215999999998" />
      <path
         d="M 11.06656,6.8197406 L 9.0241331,7.2940632 C 8.866089,20.364703 10.386457,20.720211 10.023052,29.207765 L 12.067643,32.670319 C 12.22623,18.917156 10.498489,17.033328 11.06656,6.8197406 z"
         id="path6211"
         sodipodi:nodetypes="ccccc"
         style="opacity:0.25098039;fill:url(#linearGradient6213);fill-opacity:1;stroke:none;stroke-width:1;stroke-linecap:square;stroke-linejoin:miter;stroke-miterlimit:4;stroke-opacity:1" />
      <path
         d="M 14.3125,6.46875 C 11.35682,7.0819596 8.423121,7.9711647 5.53125,9.15625 C 5.6248563,15.086091 6.6876522,20.091142 8.28125,24.3125 L 8.5625,23.1875 C 8.6315356,22.643845 9.1282197,22.259089 9.671875,22.328125 C 10.21553,22.397161 10.600286,22.893845 10.53125,23.4375 L 10.46875,29.1875 C 12.008248,32.025922 13.774487,34.403282 15.5,36.34375 L 15.40625,7.09375 L 14.3125,6.46875 z"
         id="path6152"
         inkscape:original="M 14.46875 5.40625 C 11.105341 6.0787006 7.7787741 7.1035771 4.5 8.5 C 4.5227088 16.238665 6.1895225 22.512345 8.53125 27.53125 L 9.53125 23.4375 L 9.46875 29.4375 C 11.116566 32.526744 13.01547 35.08565 14.875 37.15625 C 15.462801 37.810771 15.926828 38.002551 16.5 38.5625 L 16.40625 6.53125 L 14.46875 5.40625 z "
         inkscape:radius="-0.98776132"
         sodipodi:type="inkscape:offset"
         style="color:#000000;fill:none;fill-opacity:1;fill-rule:nonzero;stroke:url(#linearGradient6162);stroke-width:1;stroke-linecap:round;stroke-linejoin:miter;marker:none;marker-start:none;marker-mid:none;marker-end:none;stroke-miterlimit:4;stroke-dasharray:none;stroke-dashoffset:0;stroke-opacity:1;visibility:visible;display:block;overflow:visible;opacity:0.38" />
      <path
         d="M 35.005005,6.4493449 L 37,6.5442094 C 36.588857,20.610926 38.199018,21.440757 37.993236,29.311692 L 35,33.91262 C 35.363167,24.380927 34.671863,19.888325 35.005005,6.4493449 z"
         id="rect6200"
         sodipodi:nodetypes="ccccc"
         style="opacity:0.25098039;fill:url(#linearGradient6209);fill-opacity:1;stroke:none;stroke-width:1;stroke-linecap:square;stroke-linejoin:miter;stroke-miterlimit:4;stroke-opacity:1" />
      <path
         d="M 32.59375,6.625 L 32.46875,35.90625 C 37.36045,30.573937 42.404104,22.482559 42.53125,9.03125 C 42.213668,8.8781276 41.910175,8.7399514 41.5625,8.5625 C 41.378976,8.46883 41.300518,8.4604691 41.125,8.375 L 40.40625,10.875 C 40.269243,11.285928 39.878353,11.557867 39.445427,11.543436 C 39.012501,11.529005 38.640588,11.23164 38.53125,10.8125 L 37.71875,7.40625 C 35.993244,6.9984534 34.364167,6.8422118 32.59375,6.625 z"
         id="path6168"
         inkscape:original="M 31.625 5.5 L 31.5 38.5 C 37.01909 33.084359 43.560152 24.0856 43.53125 8.4375 C 42.845833 8.1785058 41.187602 7.2225176 40.5 7 L 39.46875 10.59375 L 38.5 6.5625 C 36.039561 5.9066688 34.079209 5.8615294 31.625 5.5 z "
         inkscape:radius="-0.97836035"
         sodipodi:type="inkscape:offset"
         style="opacity:0.36470587999999998;color:#000000;fill:none;fill-opacity:1;fill-rule:nonzero;stroke:url(#linearGradient6178);stroke-width:1;stroke-linecap:round;stroke-linejoin:miter;marker:none;marker-start:none;marker-mid:none;marker-end:none;stroke-miterlimit:4;stroke-dasharray:none;stroke-dashoffset:0;stroke-opacity:1;visibility:visible;display:block;overflow:visible" />
    </g>
    <g
       id="g32"
       style="display:inline;enable-background:new"
       transform="translate(303,126) scale(1.000000,1.000000)">
      <path
         d="M 40.5,40.9375 A 17.1875,5.4375 0 1 1 6.125,40.9375 A 17.1875,5.4375 0 1 1 40.5,40.9375 z"
         id="path72"
         sodipodi:cx="23.3125"
         sodipodi:cy="40.9375"
         sodipodi:rx="17.1875"
         sodipodi:ry="5.4375"
         sodipodi:type="arc"
         style="opacity:0.36931817;color:#000000;fill:url(#radialGradient15685);fill-opacity:1;fill-rule:nonzero;stroke:none;stroke-width:1.00000024;stroke-linecap:round;stroke-linejoin:round;marker:none;marker-start:none;marker-mid:none;marker-end:none;stroke-miterlimit:4;stroke-dasharray:none;stroke-dashoffset:0;stroke-opacity:1;visibility:visible;display:block;overflow:visible"
         transform="matrix(0.6690909,0,0,0.6436782,-9.8181656e-2,1.1494254)" />
      <path
         d="M 2.5,4.6054767 C 2.5170381,9.983333 3.7619396,14.349358 5.5189266,17.837162 L 6.5,15 L 6.5,19.5 C 7.7363486,21.646818 8.8839402,23.075889 10.279137,24.514819 C 10.72016,24.969666 11.069952,25.110874 11.5,25.500001 L 11.433064,3.2465205 L 9.981762,2.451672 C 7.4582117,2.91898 4.9600484,3.6350554 2.5,4.6054767 z"
         id="path74"
         inkscape:r_cx="true"
         inkscape:r_cy="true"
         sodipodi:nodetypes="ccccscccc"
         style="color:#000000;fill:url(#linearGradient6223);fill-opacity:1;fill-rule:nonzero;stroke:url(#linearGradient6221);stroke-width:1;stroke-linecap:round;stroke-linejoin:round;marker:none;marker-start:none;marker-mid:none;marker-end:none;stroke-miterlimit:4;stroke-dasharray:none;stroke-dashoffset:0;stroke-opacity:1;visibility:visible;display:block;overflow:visible" />
      <g
         id="g76"
         inkscape:r_cx="true"
         inkscape:r_cy="true"
         transform="matrix(0.685672,0,0,0.6862695,1.4154664,15.274739)" />
      <path
         d="M 11.500001,26.370147 C 13.949287,28.611036 15.985638,29.500002 15.985638,29.500002 C 15.985638,29.500002 17.457506,29.211053 18.5,28.5 L 18.5,25 L 18.5,27.5 C 18.985284,27.116257 19.936032,26.578281 20.479228,26.073284 L 20.500001,1.697178 C 17.478496,1.3107465 14.497778,1.5446455 11.516428,1.9485384 L 11.500001,26.370147 z"
         id="path78"
         inkscape:r_cx="true"
         inkscape:r_cy="true"
         sodipodi:nodetypes="ccccccccc"
         style="color:#000000;fill:url(#linearGradient6095);fill-opacity:1;fill-rule:nonzero;stroke:url(#linearGradient6231);stroke-width:0.99999994;stroke-linecap:round;stroke-linejoin:round;marker:none;marker-start:none;marker-mid:none;marker-end:none;stroke-miterlimit:4;stroke-dasharray:none;stroke-dashoffset:0;stroke-opacity:1;visibility:visible;display:block;overflow:visible" />
      <path
         d="M 20.5,25.5 C 24.628006,21.728275 29.521545,15.460866 29.499928,4.5627405 C 28.987269,4.3823637 28.014292,4.1549735 27.5,4 L 26.5,6.5 L 26.5,3.5 C 24.659716,3.043246 22.334998,2.6854959 20.499374,2.4337082 L 20.5,25.5 z"
         id="path80"
         inkscape:r_cx="true"
         inkscape:r_cy="true"
         sodipodi:nodetypes="ccccccc"
         style="color:#000000;fill:url(#linearGradient6111);fill-opacity:1;fill-rule:nonzero;stroke:url(#linearGradient6239);stroke-width:1;stroke-linecap:round;stroke-linejoin:round;marker:none;marker-start:none;marker-mid:none;marker-end:none;stroke-miterlimit:4;stroke-dasharray:none;stroke-dashoffset:0;stroke-opacity:1;visibility:visible;display:block;overflow:visible" />
      <g
         id="g82"
         transform="matrix(0.7795949,0,0,0.6862695,-2.5408845,-0.8822553)">
        <path
           d="M 23,16 C 22.971081,17.833722 22.216146,18.144142 22.063136,19.697469 L 21.123226,28.749266 L 21.123226,20.52036 C 21.183786,17.633271 20.473449,17.822702 20.49662,15.994461 C 20.507568,15.143313 20.661633,14.225771 21.123226,13.937234 C 21.260286,13.85156 21.041393,10.767133 21.123226,7.3541095 L 21.749833,7.3541095 C 21.551382,5.9669206 21.853663,12.815317 22.376439,13.937234 C 22.623186,14.466772 23,15.221051 23,16 z"
           id="path84"
           sodipodi:nodetypes="ccccsscssc"
           style="opacity:0.56078384;fill:url(#linearGradient6124);fill-opacity:1;stroke:none;stroke-width:1;stroke-linecap:square;stroke-linejoin:miter;stroke-miterlimit:4;stroke-opacity:1"
           transform="matrix(2.0470866,0,0,1.7707742,-22.023792,-8.8225789)" />
        <path
           d="M 23,16 A 1.2309169,2 0 1 1 20.538166,16 A 1.2309169,2 0 1 1 23,16 z"
           id="path86"
           sodipodi:cx="21.769083"
           sodipodi:cy="16"
           sodipodi:rx="1.2309169"
           sodipodi:ry="2"
           sodipodi:type="arc"
           style="opacity:0.59215686;fill:#e9b96e;fill-opacity:1;stroke:none;stroke-width:1;stroke-linecap:square;stroke-linejoin:miter;stroke-miterlimit:4;stroke-dasharray:none;stroke-opacity:1"
           transform="matrix(1.2186038,0,0,1.25,-4.0278883,-0.5)" />
      </g>
      <path
         d="M 16.251761,2 L 17.560643,2.130205 C 17.560643,2.130205 16.994477,5.373811 18.172851,8.998688 C 19.351226,12.623565 18.442586,14.429617 18.098414,17.331581 C 17.754241,20.233544 18.11047,22.631017 18.130175,24.818468 L 18,28.268354 L 16.127223,28.952483 C 16.127223,28.952483 15.579423,17.937134 16.757249,15.280994 C 17.935075,12.624854 17.408381,11.826491 16.591565,9.324033 C 15.774749,6.821574 16.251761,2 16.251761,2 z"
         id="path88"
         sodipodi:nodetypes="cczzccczzc"
         style="opacity:0.37254902;fill:url(#linearGradient6198);fill-opacity:1;stroke:none;stroke-width:1;stroke-linecap:square;stroke-linejoin:miter;stroke-miterlimit:4;stroke-opacity:1" />
      <path
         d="M 24.03125,5.28125 C 22.202509,5.3550723 20.367448,5.4994593 18.531248,5.728708 L 18.531248,39.76271 C 21.385873,42.284205 23.452117,43.199675 23.981956,43.448834 C 24.184676,43.343245 25.446552,43.28227 26.317974,42.718893 L 26.317974,38.026446 C 26.390586,37.535315 27.021568,36.923896 27.517977,36.91614 C 28.014385,36.908384 29.048622,37.141909 29.136542,37.630531 L 29.382262,39.311284 L 29.432664,39.257792 L 29.432664,5.3608368 C 27.60372,5.1772405 25.855413,5.2076125 24.03125,5.28125 z"
         id="path90"
         sodipodi:nodetypes="ccccccsccccc"
         style="opacity:0.38039216;color:#000000;fill:none;fill-opacity:1;fill-rule:nonzero;stroke:url(#linearGradient6140);stroke-width:1.51662576;stroke-linecap:round;stroke-linejoin:miter;stroke-miterlimit:4;stroke-dashoffset:0;stroke-opacity:1;marker:none;marker-start:none;marker-mid:none;marker-end:none;visibility:visible;display:block;overflow:visible"
         transform="matrix(0.6421184,0,0,0.6770614,0.6007446,-1.0406802)" />
      <path
         d="M 7.1924203,3 L 5.5095285,3.3296722 C 5.3793054,12.414266 6.632038,12.661358 6.3326043,18.560531 L 8.0172792,20.967138 C 8.1479497,11.408165 6.7243486,10.098834 7.1924203,3 z"
         id="path92"
         sodipodi:nodetypes="ccccc"
         style="opacity:0.25098039;fill:url(#linearGradient6213);fill-opacity:1;stroke:none;stroke-width:1;stroke-linecap:square;stroke-linejoin:miter;stroke-miterlimit:4;stroke-opacity:1" />
      <path
         d="M 9.6952401,3.5153816 C 7.6257623,3.9151541 5.5716748,4.4948576 3.5468741,5.2674556 C 3.6124144,9.1333235 4.3063664,12.349514 5.4221554,15.101563 L 5.5,14.899386 C 5.5971133,14.336037 6.175282,13.954993 6.555933,14 C 6.9365837,14.045007 7.548337,14.457843 7.5,14.81227 L 7.5,19.170269 C 8.5779099,21.020734 9.2918477,21.98468 10.5,23.249738 L 10.5,3.8123553 L 9.6952401,3.5153816 z"
         id="path94"
         sodipodi:nodetypes="ccccsccccc"
         style="opacity:0.37999998;color:#000000;fill:none;fill-opacity:1;fill-rule:nonzero;stroke:url(#linearGradient6162);stroke-width:1;stroke-linecap:round;stroke-linejoin:miter;marker:none;marker-start:none;marker-mid:none;marker-end:none;stroke-miterlimit:4;stroke-dashoffset:0;stroke-opacity:1;visibility:visible;display:block;overflow:visible" />
      <path
         d="M 23.564202,3.1527929 L 24.932089,3.2178959 C 24.650185,12.871454 25.754208,13.440942 25.613111,18.842524 L 23.56077,22 C 23.809779,15.45869 23.33578,12.375555 23.564202,3.1527929 z"
         id="path96"
         sodipodi:nodetypes="ccccc"
         style="opacity:0.25098039;fill:url(#linearGradient6209);fill-opacity:1;stroke:none;stroke-width:1;stroke-linecap:square;stroke-linejoin:miter;stroke-miterlimit:4;stroke-opacity:1" />
      <path
         d="M 21.5,3.5 L 21.5,22.808308 C 24.843115,19.375562 28.413106,13.858323 28.500001,5.1988677 L 28.099437,5.1325825 L 27.504256,6.6212653 C 27.410622,6.8858055 26.904928,7.6194548 26.5,7.5 C 26.038011,7.3637122 25.574724,6.9936068 25.5,6.72378 L 25.5,4.2809625 C 24.320745,4.0184381 22.709949,3.6398329 21.5,3.5 z"
         id="path98"
         sodipodi:nodetypes="cccccsccc"
         style="opacity:0.36470588;color:#000000;fill:none;fill-opacity:1;fill-rule:nonzero;stroke:url(#linearGradient6178);stroke-width:0.99999988;stroke-linecap:round;stroke-linejoin:miter;marker:none;marker-start:none;marker-mid:none;marker-end:none;stroke-miterlimit:4;stroke-dashoffset:0;stroke-opacity:1;visibility:visible;display:block;overflow:visible" />
    </g>
    <g
       id="g22"
       style="display:inline;enable-background:new"
       transform="translate(303,177) scale(1.000000,1.000000)">
      <path
         d="M 40.5,40.9375 A 17.1875,5.4375 0 1 1 6.125,40.9375 A 17.1875,5.4375 0 1 1 40.5,40.9375 z"
         id="path101"
         sodipodi:cx="23.3125"
         sodipodi:cy="40.9375"
         sodipodi:rx="17.1875"
         sodipodi:ry="5.4375"
         sodipodi:type="arc"
         style="opacity:0.36931817;color:#000000;fill:url(#radialGradient15685);fill-opacity:1;fill-rule:nonzero;stroke:none;stroke-width:1.00000024;stroke-linecap:round;stroke-linejoin:round;marker:none;marker-start:none;marker-mid:none;marker-end:none;stroke-miterlimit:4;stroke-dasharray:none;stroke-dashoffset:0;stroke-opacity:1;visibility:visible;display:block;overflow:visible"
         transform="matrix(0.4654545,0,0,0.4597701,0.1490912,0.6781608)" />
      <path
         d="M 1.4999999,2.9996885 C 1.5113586,6.7442776 2.3286754,10.07145 3.5,12.5 L 4.5,10.5 L 4.5,13.5 C 5.3242324,14.994824 5.7559599,15.860593 6.686091,16.862517 C 6.9801064,17.179227 7.213301,17.277549 7.4999997,17.548497 L 7.4553758,2.0534511 L 6.4878411,1.5 C 4.8054742,1.8253849 3.140032,2.3239863 1.4999999,2.9996885 z"
         id="path103"
         inkscape:r_cx="true"
         inkscape:r_cy="true"
         sodipodi:nodetypes="ccccscccc"
         style="color:#000000;fill:url(#linearGradient6223);fill-opacity:1;fill-rule:nonzero;stroke:url(#linearGradient6221);stroke-width:1;stroke-linecap:round;stroke-linejoin:round;marker:none;marker-start:none;marker-mid:none;marker-end:none;stroke-miterlimit:4;stroke-dasharray:none;stroke-dashoffset:0;stroke-opacity:1;visibility:visible;display:block;overflow:visible" />
      <g
         id="g105"
         inkscape:r_cx="true"
         inkscape:r_cy="true"
         transform="matrix(0.685672,0,0,0.6862695,1.4154664,15.274739)" />
      <path
         d="M 7.4999998,18.264389 C 9.4049997,19.865025 10.988829,20.5 10.988829,20.5 C 10.988829,20.5 11.689171,20.007894 12.5,19.5 L 12.5,16 L 12.5,19 C 12.877443,18.725897 14.077514,18.360711 14.5,18 L 14.5,0.64084137 C 12.14994,0.36481889 9.8316044,0.53188956 7.5127764,0.82038451 L 7.4999998,18.264389 z"
         id="path107"
         inkscape:r_cx="true"
         inkscape:r_cy="true"
         sodipodi:nodetypes="ccccccccc"
         style="color:#000000;fill:url(#linearGradient6095);fill-opacity:1;fill-rule:nonzero;stroke:url(#linearGradient6231);stroke-width:0.99999994;stroke-linecap:round;stroke-linejoin:round;marker:none;marker-start:none;marker-mid:none;marker-end:none;stroke-miterlimit:4;stroke-dasharray:none;stroke-dashoffset:0;stroke-opacity:1;visibility:visible;display:block;overflow:visible" />
      <path
         d="M 14.522182,17.499999 C 17.264012,14.853328 20.514358,10.147366 20.5,2.5 L 19,2.5 L 18.5,4.5 L 18.5,2 C 17.27768,1.6794893 15.719225,1.6157456 14.5,1.4390628 L 14.522182,17.499999 z"
         id="path109"
         inkscape:r_cx="true"
         inkscape:r_cy="true"
         sodipodi:nodetypes="ccccccc"
         style="color:#000000;fill:url(#linearGradient6111);fill-opacity:1;fill-rule:nonzero;stroke:url(#linearGradient6239);stroke-width:1;stroke-linecap:round;stroke-linejoin:round;marker:none;marker-start:none;marker-mid:none;marker-end:none;stroke-miterlimit:4;stroke-dasharray:none;stroke-dashoffset:0;stroke-opacity:1;visibility:visible;display:block;overflow:visible" />
      <g
         id="g111"
         transform="matrix(0.5826648,0,0,0.5102985,-2.6145077,-1.4763616)">
        <path
           d="M 25.058566,19.545237 C 24.980163,22.792344 22.922635,25.617828 22.507808,28.368419 L 19.933429,41.106062 L 19.970434,27.549774 C 20.134619,22.437391 18.20882,22.77283 18.271639,19.535428 C 18.30132,18.028238 18.716914,15.161891 19.968342,14.650957 C 20.339926,14.499248 19.748576,10.279011 19.970434,4.2353169 L 21.669231,4.2353169 C 21.13121,1.7789186 21.948633,10.704658 23.365935,12.69132 C 24.034891,13.629012 25.058566,18.165894 25.058566,19.545237 z"
           id="path113"
           sodipodi:nodetypes="ccccsscssc"
           style="opacity:0.56078384;fill:url(#linearGradient6124);fill-opacity:1;stroke:none;stroke-width:1;stroke-linecap:square;stroke-linejoin:miter;stroke-miterlimit:4;stroke-opacity:1" />
        <path
           d="M 23,16 A 1.2309169,2 0 1 1 20.538166,16 A 1.2309169,2 0 1 1 23,16 z"
           id="path115"
           sodipodi:cx="21.769083"
           sodipodi:cy="16"
           sodipodi:rx="1.2309169"
           sodipodi:ry="2"
           sodipodi:type="arc"
           style="opacity:0.66666667;fill:#e9b96e;fill-opacity:1;stroke:none;stroke-width:1;stroke-linecap:square;stroke-linejoin:miter;stroke-miterlimit:4;stroke-dasharray:none;stroke-opacity:1"
           transform="matrix(1.3942881,0,0,1.469728,-8.7026912,-3.9655972)" />
      </g>
      <path
         d="M 12.170609,0.58716482 L 13.117529,0.68094652 C 13.117529,0.68094652 12.707932,3.0171908 13.560435,5.6280503 C 14.412938,8.23891 13.755576,9.539739 13.506583,11.629911 C 13.257589,13.720084 13.515305,15.446892 13.52956,17.022428 L 12,17 C 12,17 11.684202,12.066068 12.536308,10.152953 C 13.388414,8.239838 13.007374,7.6648077 12.416443,5.8623841 C 11.825512,4.0599587 12.170609,0.58716482 12.170609,0.58716482 z"
         id="path117"
         sodipodi:nodetypes="cczzcczzc"
         style="opacity:0.37254902;fill:url(#linearGradient6198);fill-opacity:1;stroke:none;stroke-width:1;stroke-linecap:square;stroke-linejoin:miter;stroke-miterlimit:4;stroke-opacity:1" />
      <path
         d="M 11.040115,1.52711 C 10.207278,1.5618724 9.3715629,1.6298636 8.5353294,1.7378151 L 8.5353294,17.764225 C 9.8353691,18.951583 10.758703,19.226422 11,19.34375 C 11.092322,19.294029 11.103141,19.26529 11.5,19 L 11.5,16 C 11.413668,15.669228 11.941996,15 12.5,15 C 13.126946,15 13.532972,15.637767 13.493833,15.978707 L 13.5,17.786027 L 13.517315,17.058655 L 13.499999,1.5645867 C 12.667072,1.4781329 11.870866,1.4924349 11.040115,1.52711 z"
         id="path119"
         sodipodi:nodetypes="ccccccsccccc"
         style="opacity:0.38039216;color:#000000;fill:none;fill-opacity:1;fill-rule:nonzero;stroke:url(#linearGradient6140);stroke-width:1.00000024;stroke-linecap:round;stroke-linejoin:miter;marker:none;marker-start:none;marker-mid:none;marker-end:none;stroke-miterlimit:4;stroke-dashoffset:0;stroke-opacity:1;visibility:visible;display:block;overflow:visible" />
      <path
         d="M 5.3170599,2 L 4.0074152,2.2293576 C 3.9060742,8.5496418 4.8809642,8.7215476 4.6479417,12.825688 L 5.958974,14.5 C 6.0606633,7.8496833 4.9528015,6.9387618 5.3170599,2 z"
         id="path121"
         sodipodi:nodetypes="ccccc"
         style="opacity:0.25098039;fill:url(#linearGradient6213);fill-opacity:1;stroke:none;stroke-width:1;stroke-linecap:square;stroke-linejoin:miter;stroke-miterlimit:4;stroke-opacity:1" />
      <path
         d="M 6.3026622,2.5703125 C 5.1121313,2.8235342 3.6648291,3.1829133 2.5,3.6722865 C 2.5873594,6.1063972 2.9616855,8.2858454 3.6036552,10 L 3.6953125,9.8250635 C 4.5078346,9.2410477 5.2843605,9.5 5.5,10.320313 L 5.5,13.283198 C 6.1216241,14.446167 5.8219475,14.096851 6.5000001,15.000001 L 6.5000001,2.6881072 L 6.3026622,2.5703125 z"
         id="path123"
         sodipodi:nodetypes="ccccccccc"
         style="opacity:0.37999998;color:#000000;fill:none;fill-opacity:1;fill-rule:nonzero;stroke:url(#linearGradient6162);stroke-width:1;stroke-linecap:round;stroke-linejoin:miter;marker:none;marker-start:none;marker-mid:none;marker-end:none;stroke-miterlimit:4;stroke-dashoffset:0;stroke-opacity:1;visibility:visible;display:block;overflow:visible" />
      <path
         d="M 17.008646,2 L 17.998253,2.0449048 C 17.794308,8.7035184 18.593021,9.0963261 18.490943,12.822108 L 17.006163,15 C 17.18631,10.488083 16.843393,8.3614677 17.008646,2 z"
         id="path125"
         sodipodi:nodetypes="ccccc"
         style="opacity:0.25098039;fill:url(#linearGradient6209);fill-opacity:1;stroke:none;stroke-width:1;stroke-linecap:square;stroke-linejoin:miter;stroke-miterlimit:4;stroke-opacity:1" />
      <path
         d="M 15.499999,2.5000001 L 15.499999,15 C 17.3166,12.715176 19.450345,8.6060428 19.5,3 L 19.331771,5 C 19.278266,5.1712609 18.599691,5.577334 18.368303,5.5 C 18.10431,5.4117688 17.542699,5.0429751 17.5,4.8682919 L 17.5,2.8180867 C 16.82614,2.648131 16.191398,2.5905262 15.499999,2.5000001 z"
         id="path127"
         sodipodi:nodetypes="ccccsccc"
         style="opacity:0.36470588;color:#000000;fill:none;fill-opacity:1;fill-rule:nonzero;stroke:url(#linearGradient6178);stroke-width:1;stroke-linecap:round;stroke-linejoin:miter;marker:none;marker-start:none;marker-mid:none;marker-end:none;stroke-miterlimit:4;stroke-dashoffset:0;stroke-opacity:1;visibility:visible;display:block;overflow:visible" />
    </g>
    <g
       id="g16"
       style="display:inline;enable-background:new"
       transform="translate(303,219) scale(1.000000,1.000000)">
      <path
         d="M 1.5057619,2.5 C 4.1754149,0.9942925 5.0515881,1.5231073 5.4998248,1.9138339 L 5.5456024,0.8747853 C 5.6645508,0.4285376 10.835307,0.4033679 10.537012,0.78125 L 10.581445,1.5000001 C 11.714764,1.3622866 11.813468,1.2591885 12.537012,1.53125 L 12.537012,4.46875 L 13.537012,2.5 L 14.538581,2.6008504 C 14.101238,9.1026337 12.942888,11.671742 10.537012,13.5625 L 10.51098,14.022815 L 8.5370119,15.5 L 8.5370119,12.96875 L 8.4432619,15.5 C 7.4042632,15.5 6.3094916,14.504337 5.5370119,13.84375 L 5.5370119,13.4375 C 4.9056223,13.001932 4.2751966,12.562509 3.7252379,11.80122 L 3.5370119,9 L 3.3938499,11.363174 C 1.3469889,8.5946943 1.4172539,5.3101535 1.5057619,2.5 z"
         id="path5409"
         sodipodi:nodetypes="cccccccccccccccccccc"
         style="fill:url(#linearGradient6376);fill-opacity:1;fill-rule:evenodd;stroke:none;stroke-width:1px;stroke-linecap:round;stroke-linejoin:round;stroke-opacity:1" />
      <g
         id="g131"
         inkscape:r_cx="true"
         inkscape:r_cy="true"
         transform="translate(0,1)" />
      <g
         id="g133"
         transform="matrix(0.5928725,0,0,0.650158,-6.8686194,-6.0999549)">
        <path
           d="M 23.833601,15.926601 C 23.804682,17.760323 22.192165,17.919911 22.039155,19.473238 L 21.514206,22.87537 L 21.505584,20.76595 C 21.566144,17.878861 20.514995,17.828241 20.538166,16 C 20.549114,15.148852 20.866016,14.421177 21.327609,14.13264 C 21.464669,14.046966 21.525056,14.619445 21.606889,11.206421 L 23.009648,11.149322 C 23.361348,11.135006 22.893022,14.093215 23.009648,14.189409 C 23.409971,14.5196 23.833601,15.147652 23.833601,15.926601 z"
           id="path135"
           sodipodi:nodetypes="ccccsscssc"
           style="opacity:0.64313725;fill:url(#linearGradient6124);fill-opacity:1;stroke:none;stroke-width:1;stroke-linecap:square;stroke-linejoin:miter;stroke-miterlimit:4;stroke-opacity:1"
           transform="matrix(2.0470866,0,0,1.7707742,-22.023792,-8.8225789)" />
        <path
           d="M 23,16 A 1.2309169,2 0 1 1 20.538166,16 A 1.2309169,2 0 1 1 23,16 z"
           id="path137"
           sodipodi:cx="21.769083"
           sodipodi:cy="16"
           sodipodi:rx="1.2309169"
           sodipodi:ry="2"
           sodipodi:type="arc"
           style="opacity:0.76078431;fill:#e9b96e;fill-opacity:1;stroke:none;stroke-width:1;stroke-linecap:square;stroke-linejoin:miter;stroke-miterlimit:4;stroke-dasharray:none;stroke-opacity:1"
           transform="matrix(1.4361199,0,0,1.1651118,-7.9518089,0.7611385)" />
      </g>
      <path
         d="M 3.9080548,1.5 L 2.8293311,1.676734 C 2.7458588,6.546878 3.5488532,6.679341 3.3569179,9.841819 L 4.4367847,11.131972 C 4.5205437,6.007519 3.6080237,5.305601 3.9080548,1.5 z"
         id="path139"
         sodipodi:nodetypes="ccccc"
         style="opacity:0.25098039;fill:url(#linearGradient6213);fill-opacity:1;stroke:none;stroke-width:1;stroke-linecap:square;stroke-linejoin:miter;stroke-miterlimit:4;stroke-opacity:1" />
      <path
         d="M 11.049079,1.5 L 12.44559,1.5345426 C 12.157787,6.6565524 13.284911,6.9587121 13.140862,9.824698 L 11.045576,11.5 C 11.299796,8.0292949 10.815878,6.3934365 11.049079,1.5 z"
         id="path141"
         sodipodi:nodetypes="ccccc"
         style="opacity:0.29019608;fill:url(#linearGradient6209);fill-opacity:1;stroke:none;stroke-width:1;stroke-linecap:square;stroke-linejoin:miter;stroke-miterlimit:4;stroke-opacity:1" />
      <path
         d="M 8.1875,1.5 C 7.5753117,1.507151 6.9429645,1.5437521 6.5,1.59375 C 6.4844962,1.5954999 6.4838191,1.5919254 6.46875,1.59375 L 6.46875,1.9375 C 6.4491624,2.3050207 6.2230126,2.6297012 5.885072,2.7754795 C 5.5471315,2.9212578 5.1557726,2.8629535 4.875,2.625 C 4.9962794,2.7307189 4.5282872,2.4615368 3.84375,2.46875 C 3.3010352,2.4744688 3.4417608,2.7657456 2.5625,3.15625 C 2.6016861,4.7337451 2.2848077,6.8258788 3,8.5 C 3.3931394,9.4202602 3.5602213,9.9640747 4.1875,10.8125 L 4.5,11.25 C 4.9449033,11.865864 5.4582185,12.186575 6.09375,12.625 C 6.3217122,12.785101 6.469725,13.035584 6.5,13.3125 C 7.1760233,13.850856 7.9238282,14.371598 8.3125,14.4375 L 9.5625,13.5 C 9.5818637,13.194985 9.7380244,12.90741 10,12.75 C 12.550707,11.217389 13.442765,8.5206608 13.46875,3.46875 L 13.4375,3.46875 C 13.212865,3.4470211 13.002865,3.3475474 12.84375,3.1875 L 12.0625,2.4375 C 11.667413,2.326801 11.779764,2.3398225 10.71875,2.46875 C 10.456561,2.5039009 10.191401,2.430306 9.9848332,2.2650522 C 9.7782659,2.0997984 9.6482602,1.8572606 9.625,1.59375 L 9.625,1.53125 C 9.2409741,1.5039252 8.729103,1.4936735 8.1875,1.5 z"
         id="path6408"
         sodipodi:nodetypes="csccssscsccscccsccccssccc"
         style="opacity:0.34901960999999998;fill:none;fill-opacity:1;fill-rule:evenodd;stroke:url(#linearGradient6423);stroke-width:1px;stroke-linecap:round;stroke-linejoin:miter;stroke-opacity:1" />
      <path
         d="M 1.5,2.5 C 4.169653,0.9942925 5.0515881,1.5231073 5.4998248,1.9138339 L 5.5456024,0.8747853 C 5.6645508,0.4285376 10.835307,0.4033679 10.537012,0.78125 L 10.581445,1.5000001 C 11.714764,1.3622866 11.813468,1.2591885 12.537012,1.53125 L 12.537012,4.46875 L 13.177637,2.5 L 14.538581,2.6008504 C 14.5,9.5 13.5,11.5 10.537012,13.5625 L 10.51098,14.022815 L 8.5370119,15.5 L 8.5370119,12.96875 L 8.4432619,15.5 C 7.4042632,15.5 6.3094916,14.504337 5.5370119,13.84375 L 5.5370119,13.4375 C 4.9056223,13.001932 4.2751966,12.562509 3.7252379,11.80122 L 3.5370119,9 L 3.3938499,11.363174 C 1.3469889,8.5946943 1.411492,5.3101535 1.5,2.5 z"
         id="path6421"
         sodipodi:nodetypes="cccccccccccccccccccc"
         style="fill:none;fill-opacity:1;fill-rule:evenodd;stroke:url(#linearGradient6390);stroke-width:1px;stroke-linecap:round;stroke-linejoin:round;stroke-opacity:1" />
    </g>
  </g>
  <g
     id="layer4"
     inkscape:groupmode="layer"
     inkscape:label="hires"
     style="display:inline" />
</svg>
