<?xml version="1.0" encoding="UTF-8"?>
<svg height="16px" viewBox="0 0 16 16" width="16px" xmlns="http://www.w3.org/2000/svg">
    <path d="m 8.007812 0 c -4.40625 0 -7.9999995 3.59375 -7.9999995 8 s 3.5937495 8 7.9999995 8 s 8 -3.59375 8 -8 s -3.59375 -8 -8 -8 z m 0 2 c 3.320313 0 6 2.679688 6 6 s -2.679687 6 -6 6 c -3.320312 0 -6 -2.679688 -6 -6 s 2.679688 -6 6 -6 z m -3.003906 4 c -1.105468 0 -2 0.894531 -2 2 s 0.894532 2 2 2 h 6 c 1.101563 0 2 -0.894531 2 -2 s -0.898437 -2 -2 -2 z m 0 0" fill="#2e3436"/>
</svg>
