<?xml version="1.0" encoding="UTF-8" standalone="no"?>
<svg
   xmlns:dc="http://purl.org/dc/elements/1.1/"
   xmlns:cc="http://creativecommons.org/ns#"
   xmlns:rdf="http://www.w3.org/1999/02/22-rdf-syntax-ns#"
   xmlns:svg="http://www.w3.org/2000/svg"
   xmlns="http://www.w3.org/2000/svg"
   xmlns:sodipodi="http://sodipodi.sourceforge.net/DTD/sodipodi-0.dtd"
   xmlns:inkscape="http://www.inkscape.org/namespaces/inkscape"
   width="16"
   height="16"
   version="1.1"
   id="svg12"
   sodipodi:docname="goa-panel-symbolic.svg"
   inkscape:version="0.92.3 (2405546, 2018-03-11)">
  <metadata
     id="metadata18">
    <rdf:RDF>
      <cc:Work
         rdf:about="">
        <dc:format>image/svg+xml</dc:format>
        <dc:type
           rdf:resource="http://purl.org/dc/dcmitype/StillImage" />
      </cc:Work>
    </rdf:RDF>
  </metadata>
  <defs
     id="defs16" />
  <sodipodi:namedview
     pagecolor="#ffffff"
     bordercolor="#666666"
     borderopacity="1"
     objecttolerance="10"
     gridtolerance="10"
     guidetolerance="10"
     inkscape:pageopacity="0"
     inkscape:pageshadow="2"
     inkscape:window-width="772"
     inkscape:window-height="480"
     id="namedview14"
     showgrid="false"
     inkscape:zoom="10.429825"
     inkscape:cx="6.7114977"
     inkscape:cy="3.4605083"
     inkscape:window-x="1438"
     inkscape:window-y="402"
     inkscape:window-maximized="0"
     inkscape:current-layer="svg12" />
  <g
     fill="#474747"
     id="g10">
    <path
       style="marker:none"
       d="M 7 3 A 4.5 4.5 0 0 0 2.5 7.5 A 4.5 4.5 0 0 0 2.7675781 9.0136719 A 2.5 2.5 0 0 0 2.5 9 A 2.5 2.5 0 0 0 0 11.5 A 2.5 2.5 0 0 0 2.3125 13.992188 L 2.3125 14 L 2.5 14 L 12.5 14 A 3.5 3.5 0 0 0 16 10.5 A 3.5 3.5 0 0 0 12.5 7 A 3.5 3.5 0 0 0 11.484375 7.1542969 A 4.5 4.5 0 0 0 7 3 z "
       id="path2" />
  </g>
</svg>
