<svg xmlns="http://www.w3.org/2000/svg" width="16" height="16">
    <path d="M8 0a8 8 0 1 0 0 16A8 8 0 0 0 8 0zm0 1.943a2.03 2.03 0 1 1 0 4.06 2.03 2.03 0 0 1 0-4.06zm-4.797 4.12c3.206-.045 6.413-.015 9.62.012 0 0 .43-.008.43.424v.208c0 .226-.236.288-.236.288l-2.985.579v2.11l1.355 3.907c.137.226-.158.29-.158.29l-.527.005c-.253 0-.348-.213-.348-.213l-2.072-3.591c-.222-.505-.236-.44-.446 0l-2.17 3.586c-.072.218-.355.223-.355.223l-.57-.01s-.209-.005-.16-.208l1.387-3.99v-2.11l-2.892-.555a.599.599 0 0 1-.33-.294v-.218s-.009-.443.457-.443z" style="marker:none" overflow="visible" fill="#474747"/>
</svg>
