<svg xmlns="http://www.w3.org/2000/svg" width="16" height="16">
    <g fill="#474747">
        <path d="M13.288 9.688c-.494.48-1.077.697-1.788.697-.71 0-1.297-.224-1.791-.704-.777.28-1.705.991-1.706 2.233L8 14.231c0 .426.312.769.7.769h5.6c.388 0 .7-.343.7-.77v-2.307c0-1.067-.772-1.966-1.712-2.236z"/>
        <path d="M13.808 7.308A2.308 2.308 0 0 1 11.5 9.615a2.308 2.308 0 0 1-2.308-2.307A2.308 2.308 0 0 1 11.5 5a2.308 2.308 0 0 1 2.308 2.308z" style="marker:none" color="#bebebe" overflow="visible"/>
        <path d="M6.288 5.688c-.494.48-1.077.697-1.788.697-.71 0-1.297-.224-1.791-.704-.777.28-1.705.991-1.706 2.233L1 10.231c0 .426.312.769.7.769h5.735c.063-.395.262-.723.565-1V7.923c0-1.067-.772-1.966-1.712-2.236z"/>
        <path d="M6.808 3.308A2.308 2.308 0 0 1 4.5 5.615a2.308 2.308 0 0 1-2.308-2.307A2.308 2.308 0 0 1 4.5 1a2.308 2.308 0 0 1 2.308 2.308z" style="marker:none" color="#bebebe" overflow="visible"/>
    </g>
</svg>
