<?xml version="1.0" encoding="UTF-8"?>
<svg xmlns="http://www.w3.org/2000/svg" xmlns:xlink="http://www.w3.org/1999/xlink" width="16pt" height="16pt" viewBox="0 0 16 16" version="1.1">
<g id="surface2">
<path style=" stroke:none;fill-rule:evenodd;fill:rgb(74.509804%,74.509804%,74.509804%);fill-opacity:1;" d="M 8 8 C 4 8 2.003906 11 2.003906 14 L 0.253906 14 C 0.00390625 14 0.00390625 14.15625 0.00390625 14.25 L 0.00390625 15.75 C 0.00390625 16 0.140625 16 0.253906 16 L 15.746094 16 C 15.941406 16.007812 15.996094 15.871094 15.996094 15.75 L 15.996094 14.25 C 16.019531 14.105469 15.996094 14 15.746094 14 L 13.996094 14 C 13.996094 11 12 8 8 8 Z M 8 11 C 10.351562 11 11 12.761719 11 14 L 5 14 C 5 12.800781 5.703125 11 8 11 Z M 8 11 "/>
<path style=" stroke:none;fill-rule:nonzero;fill:rgb(74.509804%,74.509804%,74.509804%);fill-opacity:1;" d="M 14.992188 0.601562 C 14.710938 0.359375 14.367188 0.179688 14.027344 0.0390625 L 14.003906 2.269531 C 14 2.730469 13.550781 3 13 3 L 12 3 C 11.445312 2.992188 10.996094 2.691406 11 2.230469 L 11.023438 0 C 10.675781 0.132812 10.332031 0.304688 10.042969 0.535156 C 8.667969 1.652344 8.648438 3.484375 10.003906 4.632812 C 10.289062 4.875 10.628906 5.054688 10.972656 5.195312 C 11 5.207031 11 7.25 11 7.25 C 12.488281 8 13.351562 9 13.996094 10 L 13.996094 5.25 C 14.34375 5.117188 14.664062 4.929688 14.953125 4.699219 C 16.328125 3.582031 16.347656 1.75 14.992188 0.601562 Z M 14.992188 0.601562 "/>
</g>
</svg>
