<?xml version="1.0" encoding="UTF-8"?>
<svg xmlns="http://www.w3.org/2000/svg" xmlns:xlink="http://www.w3.org/1999/xlink" width="16pt" height="16pt" viewBox="0 0 16 16" version="1.1">
<g id="surface2">
<path style=" stroke:none;fill-rule:nonzero;fill:rgb(74.509804%,74.509804%,74.509804%);fill-opacity:1;" d="M 10 8 L 10 12.28125 C 9.707031 12.109375 9.363281 12 9 12 C 7.894531 12 7 12.894531 7 14 C 7 15.105469 7.894531 16 9 16 C 10.105469 16 11 15.105469 11 14 L 11 9 L 15 9 L 15 12.28125 C 14.707031 12.109375 14.363281 12 14 12 C 12.894531 12 12 12.894531 12 14 C 12 15.105469 12.894531 16 14 16 C 15.105469 16 16 15.105469 16 14 L 16 8 Z M 10 8 "/>
<path style=" stroke:none;fill-rule:nonzero;fill:rgb(74.509804%,74.509804%,74.509804%);fill-opacity:1;" d="M 2.96875 0 C 2.96875 0 2 1 2 2 L 2 14 C 2 15.007812 1 16 1 16 L 2 16 C 2 16 2.421875 15.574219 2.71875 15 L 3.71875 15 C 3.421875 15.574219 3 16 3 16 L 4 16 C 4 16 5 14.980469 5 14 L 5 12 L 6 12 L 6 11 L 5 11 L 5 6 L 13 6 L 13 7 L 16 7 L 16 2 C 16 1 16.96875 0 16.96875 0 L 13.96875 0 C 13.96875 0 13 1 13 2 L 13 5 L 5 5 L 5 2 C 5 1 5.96875 0 5.96875 0 Z M 3.28125 1 L 4.28125 1 C 4.128906 1.304688 4 1.652344 4 2 L 3 2 C 3 1.652344 3.128906 1.304688 3.28125 1 Z M 14.28125 1 L 15.28125 1 C 15.128906 1.304688 15 1.652344 15 2 L 14 2 C 14 1.652344 14.128906 1.304688 14.28125 1 Z M 3 3 L 4 3 L 4 4 L 3 4 Z M 14 3 L 15 3 L 15 4 L 14 4 Z M 3 5 L 4 5 L 4 6 L 3 6 Z M 14 5 L 15 5 L 15 6 L 14 6 Z M 3 7 L 4 7 L 4 8 L 3 8 Z M 3 9 L 4 9 L 4 10 L 3 10 Z M 3 11 L 4 11 L 4 12 L 3 12 Z M 3 13 L 4 13 L 4 14 L 3 14 Z M 3 13 "/>
</g>
</svg>
