<?xml version="1.0" encoding="UTF-8"?>
<svg xmlns="http://www.w3.org/2000/svg" xmlns:xlink="http://www.w3.org/1999/xlink" width="16pt" height="16pt" viewBox="0 0 16 16" version="1.1">
<g id="surface2">
<path style=" stroke:none;fill-rule:nonzero;fill:rgb(74.509804%,74.509804%,74.509804%);fill-opacity:1;" d="M 0 12 C 0.0078125 11.777344 0.113281 11.46875 0.304688 11.296875 L 2.46875 9.179688 C 2.699219 8.9375 3.253906 8.886719 3.476562 9.023438 C 3.558594 9.023438 4.613281 9.652344 4.765625 9.886719 C 5.382812 10.832031 4.421875 11.714844 3.59375 11.433594 L 3.242188 11.222656 L 1.640625 12.792969 C 1.003906 13.320312 -0.0507812 12.886719 0 12 Z M 0 12 "/>
<path style=" stroke:none;fill-rule:nonzero;fill:rgb(74.509804%,74.509804%,74.509804%);fill-opacity:1;" d="M 11.617188 0.117188 C 12.007812 0.015625 12.410156 0.0078125 12.789062 0.0390625 L 11.429688 2.34375 C 11.152344 2.816406 11.308594 3.414062 11.785156 3.691406 L 12.65625 4.199219 C 13.132812 4.476562 13.734375 4.320312 14.015625 3.847656 L 15.375 1.539062 C 15.585938 1.855469 15.773438 2.207031 15.875 2.59375 C 16.363281 4.445312 15.246094 6.339844 13.378906 6.828125 C 12.992188 6.929688 12.589844 6.9375 12.210938 6.90625 L 11.40625 8.023438 L 7.996094 8 C 7.996094 8 9.515625 5.421875 9.625 5.40625 C 9.414062 5.089844 9.222656 4.738281 9.121094 4.351562 C 8.636719 2.5 9.753906 0.605469 11.617188 0.117188 Z M 11.617188 0.117188 "/>
<path style=" stroke:none;fill-rule:nonzero;fill:rgb(74.509804%,74.509804%,74.509804%);fill-opacity:1;" d="M 3.597656 0.71875 C 3.367188 0.765625 3.15625 0.851562 2.945312 0.9375 C 2.925781 1.5625 3.03125 2.378906 2.789062 2.59375 C 2.550781 2.804688 1.75 2.628906 1.132812 2.5625 C 1.003906 2.800781 0.898438 3.046875 0.820312 3.3125 C 1.300781 3.707031 1.960938 4.152344 1.976562 4.46875 C 1.992188 4.789062 1.351562 5.273438 0.914062 5.71875 C 1.019531 5.976562 1.164062 6.210938 1.320312 6.4375 C 1.929688 6.3125 2.683594 6.0625 2.945312 6.25 C 3.207031 6.4375 3.207031 7.253906 3.285156 7.875 C 3.535156 7.949219 3.796875 7.980469 4.066406 8 C 4.347656 7.445312 4.632812 6.679688 4.941406 6.59375 C 5.257812 6.503906 5.902344 7.050781 6.4375 7.375 C 6.65625 7.222656 6.851562 7.039062 7.03125 6.84375 C 6.777344 6.269531 6.3125 5.550781 6.4375 5.25 C 6.566406 4.949219 7.414062 4.78125 8 4.5625 C 8.003906 4.488281 8.03125 4.417969 8.03125 4.34375 C 8.03125 4.152344 7.996094 3.964844 7.96875 3.78125 C 7.363281 3.621094 6.503906 3.539062 6.34375 3.25 C 6.1875 2.960938 6.585938 2.1875 6.78125 1.59375 C 6.582031 1.414062 6.363281 1.257812 6.125 1.125 C 5.625 1.5 5.042969 2.121094 4.722656 2.0625 C 4.40625 2.007812 4.058594 1.242188 3.722656 0.71875 C 3.683594 0.726562 3.636719 0.710938 3.597656 0.71875 Z M 4.222656 2.59375 C 5.152344 2.59375 5.90625 3.347656 5.90625 4.28125 C 5.90625 5.214844 5.152344 5.96875 4.222656 5.96875 C 3.292969 5.96875 2.539062 5.214844 2.539062 4.28125 C 2.539062 3.347656 3.292969 2.59375 4.222656 2.59375 Z M 4.222656 2.59375 "/>
<path style=" stroke:none;fill-rule:nonzero;fill:rgb(74.509804%,74.509804%,74.509804%);fill-opacity:1;" d="M 2.996094 9 L 12.980469 9 L 12.992188 15.0625 C 12.992188 15.554688 12.519531 16 11.996094 16 L 4.003906 16 C 3.464844 16 3.003906 15.570312 3.003906 15 Z M 2.996094 9 "/>
<path style=" stroke:none;fill-rule:nonzero;fill:rgb(74.509804%,74.509804%,74.509804%);fill-opacity:1;" d="M 15.960938 11.976562 C 15.957031 11.753906 15.847656 11.445312 15.65625 11.273438 L 13.496094 9.15625 C 13.261719 8.914062 12.707031 8.863281 12.484375 9 C 12.402344 9 11.347656 9.628906 11.195312 9.863281 C 10.578125 10.8125 11.539062 11.691406 12.371094 11.410156 L 12.71875 11.199219 L 14.320312 12.773438 C 14.960938 13.296875 16.011719 12.863281 15.960938 11.976562 Z M 15.960938 11.976562 "/>
</g>
</svg>
