<?xml version="1.0" encoding="UTF-8"?>
<svg xmlns="http://www.w3.org/2000/svg" xmlns:xlink="http://www.w3.org/1999/xlink" width="16pt" height="16pt" viewBox="0 0 16 16" version="1.1">
<g id="surface2">
<path style=" stroke:none;fill-rule:nonzero;fill:rgb(74.509804%,74.509804%,74.509804%);fill-opacity:1;" d="M 1.972656 0 C 0.882812 0 0.00390625 0.878906 0.00390625 1.96875 L 0.00390625 14.03125 C 0.00390625 15.121094 0.882812 16 1.972656 16 L 14.003906 16 C 14.558594 16 15.003906 15.554688 15.003906 15 L 15.003906 4 C 15.003906 3.445312 14.558594 3 14.003906 3 L 2.003906 3 C 1.449219 3 1.003906 2.554688 1.003906 2 C 1.003906 1.445312 1.449219 1 2.003906 1 L 14.003906 1 C 14.003906 0.441406 13.5625 0 13.003906 0 Z M 8.003906 4.0625 C 10.730469 4.0625 12.941406 6.269531 12.941406 9 C 12.941406 11.730469 10.730469 13.9375 8.003906 13.9375 C 5.277344 13.9375 3.066406 11.730469 3.066406 9 C 3.066406 6.269531 5.277344 4.0625 8.003906 4.0625 Z M 8.003906 5.0625 C 7.367188 5.0625 6.785156 5.238281 6.253906 5.5 L 6.972656 7 C 7.285156 6.835938 7.628906 6.71875 8.003906 6.71875 C 8.378906 6.71875 8.722656 6.835938 9.035156 7 L 9.753906 5.5 C 9.222656 5.238281 8.640625 5.0625 8.003906 5.0625 Z M 4.503906 7.25 C 4.238281 7.78125 4.066406 8.363281 4.066406 9 C 4.066406 9.648438 4.230469 10.246094 4.503906 10.78125 L 6.003906 10.03125 C 5.839844 9.71875 5.722656 9.375 5.722656 9 C 5.722656 8.640625 5.820312 8.304688 5.972656 8 Z M 11.535156 7.25 L 10.035156 8 C 10.1875 8.304688 10.285156 8.640625 10.285156 9 C 10.285156 9.375 10.167969 9.71875 10.003906 10.03125 L 11.503906 10.78125 C 11.773438 10.246094 11.941406 9.648438 11.941406 9 C 11.941406 8.367188 11.792969 7.777344 11.535156 7.25 Z M 8.003906 7.71875 C 7.285156 7.71875 6.722656 8.28125 6.722656 9 C 6.722656 9.71875 7.285156 10.28125 8.003906 10.28125 C 8.71875 10.28125 9.285156 9.71875 9.285156 9 C 9.285156 8.28125 8.71875 7.71875 8.003906 7.71875 Z M 9.035156 11 C 8.722656 11.164062 8.378906 11.28125 8.003906 11.28125 C 7.640625 11.28125 7.308594 11.183594 7.003906 11.03125 L 6.253906 12.53125 C 6.78125 12.789062 7.371094 12.9375 8.003906 12.9375 C 8.640625 12.9375 9.222656 12.761719 9.753906 12.5 Z M 9.035156 11 "/>
<path style=" stroke:none;fill-rule:nonzero;fill:rgb(74.509804%,74.509804%,74.509804%);fill-opacity:1;" d="M 8.003906 5.03125 C 7.363281 5.03125 6.757812 5.167969 6.222656 5.4375 L 6.964844 6.96875 C 7.355469 6.792969 7.511719 6.757812 8.007812 6.722656 C 8.554688 6.722656 8.726562 6.859375 9.035156 6.957031 L 9.753906 5.4375 C 9.21875 5.167969 8.644531 5.03125 8.003906 5.03125 Z M 4.441406 7.25 C 4.175781 7.789062 4.003906 8.386719 4.003906 9.03125 C 4.003906 9.691406 4.195312 10.296875 4.472656 10.84375 L 6 10.066406 C 5.839844 9.789062 5.761719 9.570312 5.71875 9.011719 C 5.761719 8.515625 5.78125 8.539062 5.949219 8.023438 Z M 11.566406 7.25 L 10.070312 7.996094 C 10.21875 8.367188 10.269531 8.476562 10.292969 9.003906 C 10.285156 9.234375 10.308594 9.535156 10.023438 10.089844 L 11.535156 10.84375 C 11.8125 10.296875 11.972656 9.691406 11.972656 9.03125 C 11.972656 8.386719 11.832031 7.789062 11.566406 7.25 Z M 8.03125 11.289062 C 7.554688 11.25 7.414062 11.261719 7.019531 11.054688 L 6.222656 12.625 C 6.757812 12.894531 7.363281 13.0625 8.003906 13.0625 C 8.644531 13.0625 9.21875 12.894531 9.753906 12.625 L 9.007812 11.058594 C 8.613281 11.253906 8.574219 11.230469 8.03125 11.289062 Z M 8.03125 11.289062 "/>
<path style=" stroke:none;fill-rule:nonzero;fill:rgb(74.509804%,74.509804%,74.509804%);fill-opacity:1;" d="M 9.292969 9.007812 C 9.292969 9.714844 8.71875 10.289062 8.011719 10.289062 C 7.300781 10.289062 6.726562 9.714844 6.726562 9.007812 C 6.726562 8.300781 7.300781 7.730469 8.011719 7.730469 C 8.71875 7.730469 9.292969 8.300781 9.292969 9.007812 Z M 9.292969 9.007812 "/>
</g>
</svg>
