<?xml version="1.0" encoding="UTF-8" standalone="no"?>
<!-- Created with Inkscape (http://www.inkscape.org/) -->
<svg
   xmlns:dc="http://purl.org/dc/elements/1.1/"
   xmlns:cc="http://web.resource.org/cc/"
   xmlns:rdf="http://www.w3.org/1999/02/22-rdf-syntax-ns#"
   xmlns:svg="http://www.w3.org/2000/svg"
   xmlns="http://www.w3.org/2000/svg"
   xmlns:xlink="http://www.w3.org/1999/xlink"
   xmlns:sodipodi="http://sodipodi.sourceforge.net/DTD/sodipodi-0.dtd"
   xmlns:inkscape="http://www.inkscape.org/namespaces/inkscape"
   width="16"
   height="16"
   id="svg2"
   sodipodi:version="0.32"
   inkscape:version="0.45"
   version="1.0"
   sodipodi:docbase="/home/dobey/Projects/gnome-icon-theme/16x16/categories"
   sodipodi:docname="applications-system.svg"
   inkscape:output_extension="org.inkscape.output.svg.inkscape">
  <defs
     id="defs4">
    <linearGradient
       id="linearGradient5931">
      <stop
         style="stop-color:#dedede;stop-opacity:1;"
         offset="0"
         id="stop5933" />
      <stop
         style="stop-color:#bbbbbb;stop-opacity:1;"
         offset="1"
         id="stop5935" />
    </linearGradient>
    <linearGradient
       inkscape:collect="always"
       id="linearGradient5923">
      <stop
         style="stop-color:#ffffff;stop-opacity:1;"
         offset="0"
         id="stop5925" />
      <stop
         style="stop-color:#ffffff;stop-opacity:0;"
         offset="1"
         id="stop5927" />
    </linearGradient>
    <linearGradient
       inkscape:collect="always"
       id="linearGradient5769">
      <stop
         style="stop-color:#ffffff;stop-opacity:1;"
         offset="0"
         id="stop5771" />
      <stop
         style="stop-color:#ffffff;stop-opacity:0;"
         offset="1"
         id="stop5773" />
    </linearGradient>
    <linearGradient
       inkscape:collect="always"
       xlink:href="#linearGradient5769"
       id="linearGradient5775"
       x1="11.520816"
       y1="15.459263"
       x2="11.283378"
       y2="9.0953016"
       gradientUnits="userSpaceOnUse" />
    <linearGradient
       inkscape:collect="always"
       xlink:href="#linearGradient5923"
       id="linearGradient5929"
       x1="7.875"
       y1="11.625"
       x2="7.875"
       y2="7.5"
       gradientUnits="userSpaceOnUse" />
    <linearGradient
       inkscape:collect="always"
       xlink:href="#linearGradient5931"
       id="linearGradient5937"
       x1="6.6828032"
       y1="4.0400705"
       x2="8"
       y2="13.790071"
       gradientUnits="userSpaceOnUse" />
  </defs>
  <sodipodi:namedview
     id="base"
     pagecolor="#ffffff"
     bordercolor="#d6d6d6"
     borderopacity="1"
     gridtolerance="10000"
     guidetolerance="10"
     objecttolerance="10"
     inkscape:pageopacity="0.0"
     inkscape:pageshadow="2"
     inkscape:zoom="1"
     inkscape:cx="-5.5986918"
     inkscape:cy="33.764635"
     inkscape:document-units="px"
     inkscape:current-layer="layer1"
     width="16px"
     height="16px"
     inkscape:showpageshadow="false"
     borderlayer="true"
     inkscape:window-width="872"
     inkscape:window-height="630"
     inkscape:window-x="532"
     inkscape:window-y="168"
     showgrid="false" />
  <metadata
     id="metadata7">
    <rdf:RDF>
      <cc:Work
         rdf:about="">
        <dc:format>image/svg+xml</dc:format>
        <dc:type
           rdf:resource="http://purl.org/dc/dcmitype/StillImage" />
        <dc:title>System Applications</dc:title>
        <dc:subject>
          <rdf:Bag>
            <rdf:li>system</rdf:li>
            <rdf:li>applications</rdf:li>
            <rdf:li>category</rdf:li>
          </rdf:Bag>
        </dc:subject>
        <dc:creator>
          <cc:Agent>
            <dc:title>Jakub Steiner</dc:title>
          </cc:Agent>
        </dc:creator>
        <cc:license
           rdf:resource="http://creativecommons.org/licenses/GPL/2.0/" />
      </cc:Work>
      <cc:License
         rdf:about="http://creativecommons.org/licenses/GPL/2.0/">
        <cc:permits
           rdf:resource="http://web.resource.org/cc/Reproduction" />
        <cc:permits
           rdf:resource="http://web.resource.org/cc/Distribution" />
        <cc:requires
           rdf:resource="http://web.resource.org/cc/Notice" />
        <cc:permits
           rdf:resource="http://web.resource.org/cc/DerivativeWorks" />
        <cc:requires
           rdf:resource="http://web.resource.org/cc/ShareAlike" />
        <cc:requires
           rdf:resource="http://web.resource.org/cc/SourceCode" />
      </cc:License>
    </rdf:RDF>
  </metadata>
  <g
     inkscape:label="Layer 1"
     inkscape:groupmode="layer"
     id="layer1">
    <path
       sodipodi:type="arc"
       style="opacity:1;color:#000000;fill:none;fill-opacity:1;fill-rule:nonzero;stroke:url(#linearGradient5775);stroke-width:1.38463688;stroke-linecap:butt;stroke-linejoin:miter;marker:none;marker-start:none;marker-mid:none;marker-end:none;stroke-miterlimit:10;stroke-dasharray:none;stroke-dashoffset:0;stroke-opacity:1;visibility:visible;display:block;overflow:visible;enable-background:accumulate"
       id="path5767"
       sodipodi:cx="10.783379"
       sodipodi:cy="10.863069"
       sodipodi:rx="6.5407376"
       sodipodi:ry="6.5407376"
       d="M 17.324116 10.863069 A 6.5407376 6.5407376 0 1 1  4.242641,10.863069 A 6.5407376 6.5407376 0 1 1  17.324116 10.863069 z"
       transform="matrix(0.722211,0,0,0.722211,0.2026987,0.2026987)" />
    <path
       style="opacity:1;color:#000000;fill:url(#linearGradient5937);fill-opacity:1.0;fill-rule:nonzero;stroke:#888a85;stroke-width:0.99999994;stroke-linecap:butt;stroke-linejoin:miter;marker:none;marker-start:none;marker-mid:none;marker-end:none;stroke-miterlimit:10;stroke-dasharray:none;stroke-dashoffset:0;stroke-opacity:1;visibility:visible;display:block;overflow:visible;enable-background:accumulate"
       d="M 9.375 0.59375 C 8.4843797 0.63115784 8.4655815 2.454446 7.4375 2.5625 C 6.3408795 2.6777576 5.9135808 0.64526462 4.90625 1.09375 C 3.8989191 1.5422354 5.1319367 3.1996876 4.3125 3.9375 C 3.4930632 4.6753123 1.9575805 3.2950831 1.40625 4.25 C 0.85491951 5.204917 2.8230062 5.8277023 2.59375 6.90625 C 2.3644939 7.9847978 0.32224055 7.747147 0.4375 8.84375 C 0.55275945 9.9403528 2.5202573 9.2739357 2.96875 10.28125 C 3.4172426 11.288565 1.6059259 12.305576 2.34375 13.125 C 3.0815742 13.944424 4.2950678 12.261178 5.25 12.8125 C 6.2049324 13.363822 5.3276847 15.239497 6.40625 15.46875 C 7.4848152 15.698002 7.4658794 13.646508 8.5625 13.53125 C 9.6591205 13.415992 10.086419 15.417235 11.09375 14.96875 C 12.101081 14.520265 10.868063 12.894062 11.6875 12.15625 C 12.506937 11.418438 14.01117 12.798667 14.5625 11.84375 C 15.11383 10.888833 13.176994 10.266048 13.40625 9.1875 C 13.635506 8.1089522 15.677759 8.3466029 15.5625 7.25 C 15.447241 6.1533972 13.479743 6.8198148 13.03125 5.8125 C 12.582757 4.8051853 14.394074 3.7881737 13.65625 2.96875 C 12.918426 2.1493264 11.704933 3.8325717 10.75 3.28125 C 9.7950676 2.7299284 10.672315 0.85425243 9.59375 0.625 C 9.5263397 0.61067172 9.4343747 0.59125614 9.375 0.59375 z M 8 5.125 C 9.6100822 5.125 10.90625 6.4211678 10.90625 8.03125 C 10.90625 9.6413319 9.6100822 10.96875 8 10.96875 C 6.3899179 10.96875 5.09375 9.6413322 5.09375 8.03125 C 5.0937498 6.4211676 6.3899178 5.125 8 5.125 z "
       id="path5916" />
    <path
       sodipodi:type="arc"
       style="opacity:1;color:#000000;fill:none;fill-opacity:1;fill-rule:nonzero;stroke:url(#linearGradient5929);stroke-width:0.96721309;stroke-linecap:butt;stroke-linejoin:miter;marker:none;marker-start:none;marker-mid:none;marker-end:none;stroke-miterlimit:10;stroke-dasharray:none;stroke-dashoffset:0;stroke-opacity:1;visibility:visible;display:block;overflow:visible;enable-background:accumulate"
       id="path5921"
       sodipodi:cx="7.875"
       sodipodi:cy="8"
       sodipodi:rx="3.6875"
       sodipodi:ry="3.6875"
       d="M 11.5625 8 A 3.6875 3.6875 0 1 1  4.1875,8 A 3.6875 3.6875 0 1 1  11.5625 8 z"
       transform="matrix(1.0338983,0,0,1.0338983,-0.1419492,-0.1461864)" />
  </g>
</svg>
