<?xml version="1.0" encoding="UTF-8" standalone="no"?>
<!-- Created with Inkscape (http://www.inkscape.org/) -->
<svg
   xmlns:dc="http://purl.org/dc/elements/1.1/"
   xmlns:cc="http://web.resource.org/cc/"
   xmlns:rdf="http://www.w3.org/1999/02/22-rdf-syntax-ns#"
   xmlns:svg="http://www.w3.org/2000/svg"
   xmlns="http://www.w3.org/2000/svg"
   xmlns:xlink="http://www.w3.org/1999/xlink"
   xmlns:sodipodi="http://sodipodi.sourceforge.net/DTD/sodipodi-0.dtd"
   xmlns:inkscape="http://www.inkscape.org/namespaces/inkscape"
   width="16"
   height="16"
   id="svg2"
   sodipodi:version="0.32"
   inkscape:version="0.45"
   version="1.0"
   sodipodi:docname="applications-engineering.svg"
   sodipodi:docbase="/home/dobey/Projects/gnome-icon-theme/16x16/categories"
   inkscape:output_extension="org.inkscape.output.svg.inkscape">
  <defs
     id="defs4">
    <linearGradient
       inkscape:collect="always"
       id="linearGradient6967">
      <stop
         style="stop-color:#ffffff;stop-opacity:1;"
         offset="0"
         id="stop6969" />
      <stop
         style="stop-color:#ffffff;stop-opacity:0;"
         offset="1"
         id="stop6971" />
    </linearGradient>
    <linearGradient
       id="linearGradient6958"
       inkscape:collect="always">
      <stop
         id="stop6960"
         offset="0"
         style="stop-color:#ffffff;stop-opacity:1" />
      <stop
         id="stop6962"
         offset="1"
         style="stop-color:#ffffff;stop-opacity:0" />
    </linearGradient>
    <linearGradient
       id="linearGradient7065">
      <stop
         style="stop-color:#888a85;stop-opacity:1;"
         offset="0"
         id="stop7067" />
      <stop
         id="stop7073"
         offset="0.70408165"
         style="stop-color:#cfd0ce;stop-opacity:1;" />
      <stop
         style="stop-color:#888a85;stop-opacity:1;"
         offset="1"
         id="stop7069" />
    </linearGradient>
    <linearGradient
       inkscape:collect="always"
       id="linearGradient7033">
      <stop
         style="stop-color:#000000;stop-opacity:1;"
         offset="0"
         id="stop7035" />
      <stop
         style="stop-color:#000000;stop-opacity:0;"
         offset="1"
         id="stop7037" />
    </linearGradient>
    <linearGradient
       inkscape:collect="always"
       id="linearGradient6955">
      <stop
         style="stop-color:#ffffff;stop-opacity:1;"
         offset="0"
         id="stop6957" />
      <stop
         style="stop-color:#ffffff;stop-opacity:0;"
         offset="1"
         id="stop6959" />
    </linearGradient>
    <linearGradient
       id="linearGradient6939">
      <stop
         style="stop-color:#babdb6;stop-opacity:1;"
         offset="0"
         id="stop6941" />
      <stop
         id="stop7051"
         offset="0.24743238"
         style="stop-color:#ededed;stop-opacity:1;" />
      <stop
         style="stop-color:#b6b9b1;stop-opacity:1;"
         offset="0.75776166"
         id="stop7053" />
      <stop
         id="stop7049"
         offset="0.82653064"
         style="stop-color:#aaaea5;stop-opacity:1;" />
      <stop
         style="stop-color:#babdb6;stop-opacity:0;"
         offset="1"
         id="stop6943" />
    </linearGradient>
    <linearGradient
       inkscape:collect="always"
       xlink:href="#linearGradient6939"
       id="linearGradient6945"
       x1="6.3601508"
       y1="2.5681367"
       x2="13.166054"
       y2="21.292892"
       gradientUnits="userSpaceOnUse"
       gradientTransform="translate(-2,0)" />
    <linearGradient
       inkscape:collect="always"
       xlink:href="#linearGradient6955"
       id="linearGradient6961"
       x1="14.625"
       y1="18.872284"
       x2="14.625"
       y2="21.75"
       gradientUnits="userSpaceOnUse"
       gradientTransform="translate(-2,0)" />
    <linearGradient
       inkscape:collect="always"
       xlink:href="#linearGradient6958"
       id="linearGradient7039"
       x1="12.6875"
       y1="17.550121"
       x2="12.6875"
       y2="23.321859"
       gradientUnits="userSpaceOnUse"
       gradientTransform="translate(-2,-1)" />
    <linearGradient
       inkscape:collect="always"
       xlink:href="#linearGradient7033"
       id="linearGradient7043"
       gradientUnits="userSpaceOnUse"
       x1="12.6875"
       y1="17.550121"
       x2="12.6875"
       y2="21.500893"
       gradientTransform="matrix(0.5,0,0,1,2.5,-4)" />
    <linearGradient
       inkscape:collect="always"
       xlink:href="#linearGradient7033"
       id="linearGradient7047"
       gradientUnits="userSpaceOnUse"
       gradientTransform="matrix(0.5,0,0,1,6.5,-4)"
       x1="12.6875"
       y1="17.550121"
       x2="12.6875"
       y2="21.500893" />
    <linearGradient
       inkscape:collect="always"
       xlink:href="#linearGradient7065"
       id="linearGradient7071"
       x1="20.461903"
       y1="15.32668"
       x2="20.461903"
       y2="11.746678"
       gradientUnits="userSpaceOnUse"
       gradientTransform="matrix(1,0,0,0.75,-5,2.875)" />
    <linearGradient
       inkscape:collect="always"
       xlink:href="#linearGradient6967"
       id="linearGradient6973"
       x1="9.53125"
       y1="17.5625"
       x2="11.157452"
       y2="17.5625"
       gradientUnits="userSpaceOnUse"
       gradientTransform="translate(-3,0)" />
  </defs>
  <sodipodi:namedview
     id="base"
     pagecolor="#ffffff"
     bordercolor="#666666"
     borderopacity="0.37647059"
     inkscape:pageopacity="0.0"
     inkscape:pageshadow="2"
     inkscape:zoom="1"
     inkscape:cx="15.0823"
     inkscape:cy="4.9373055"
     inkscape:document-units="px"
     inkscape:current-layer="layer1"
     width="16px"
     height="16px"
     inkscape:showpageshadow="false"
     gridempspacing="2"
     gridspacingx="0.5px"
     gridspacingy="0.5px"
     inkscape:window-width="872"
     inkscape:window-height="598"
     inkscape:window-x="315"
     inkscape:window-y="92"
     borderlayer="true"
     showgrid="false"
     showborder="false"
     inkscape:grid-points="true"
     inkscape:guide-bbox="true"
     showguides="true" />
  <metadata
     id="metadata7">
    <rdf:RDF>
      <cc:Work
         rdf:about="">
        <dc:format>image/svg+xml</dc:format>
        <dc:type
           rdf:resource="http://purl.org/dc/dcmitype/StillImage" />
        <dc:creator>
          <cc:Agent>
            <dc:title>Lapo Calamandrei</dc:title>
          </cc:Agent>
        </dc:creator>
        <cc:license
           rdf:resource="http://creativecommons.org/licenses/GPL/2.0/" />
        <dc:title>Caliper</dc:title>
        <dc:date>2006-06-10</dc:date>
        <dc:subject>
          <rdf:Bag />
        </dc:subject>
      </cc:Work>
      <cc:License
         rdf:about="http://creativecommons.org/licenses/GPL/2.0/">
        <cc:permits
           rdf:resource="http://web.resource.org/cc/Reproduction" />
        <cc:permits
           rdf:resource="http://web.resource.org/cc/Distribution" />
        <cc:requires
           rdf:resource="http://web.resource.org/cc/Notice" />
        <cc:permits
           rdf:resource="http://web.resource.org/cc/DerivativeWorks" />
        <cc:requires
           rdf:resource="http://web.resource.org/cc/ShareAlike" />
        <cc:requires
           rdf:resource="http://web.resource.org/cc/SourceCode" />
      </cc:License>
    </rdf:RDF>
  </metadata>
  <g
     inkscape:label="Livello 1"
     inkscape:groupmode="layer"
     id="layer1">
    <path
       style="fill:#555753;fill-rule:evenodd;stroke:#555753;stroke-width:1px;stroke-linecap:butt;stroke-linejoin:round;stroke-opacity:1"
       d="M 13.5,6.5 L 15.5,6.5 L 12.5,3.5 L 13.5,6.5 z "
       id="path5940"
       sodipodi:nodetypes="cccc" />
    <path
       style="fill:url(#linearGradient6945);fill-opacity:1;fill-rule:evenodd;stroke:#a1a29e;stroke-width:1px;stroke-linecap:butt;stroke-linejoin:miter;stroke-opacity:1"
       d="M 11.5,0.5 L 7.5,0.5 C 5.4651474,0.5 1.4722718,1.5277282 1.4722718,1.5277282 C 0.6034698,2.0293312 0.5,1.9407971 0.5,3.5 L 8.5,3.5 L 8.5,23.5 L 12.5,23.5 L 12.5,5.53125 L 15.5,2.5 L 12.5,2.5 L 12.5,1.5 L 11.5,0.5 z "
       id="path5931"
       sodipodi:nodetypes="cccccccccccc" />
    <path
       style="opacity:0.69402986;fill:url(#linearGradient7039);fill-opacity:1;fill-rule:evenodd;stroke:none;stroke-width:1;stroke-linecap:round;stroke-linejoin:miter;stroke-miterlimit:10;stroke-dasharray:none;stroke-opacity:1"
       d="M 9,8 L 9,9 L 12,9 L 12,8 L 9,8 z M 9,10 L 9,11 L 11,11 L 11,10 L 9,10 z M 9,12 L 9,13 L 12,13 L 12,12 L 9,12 z M 9,14 L 9,15 L 11,15 L 11,14 L 9,14 z M 9,16 L 9,17 L 12,17 L 12,16 L 9,16 z M 9,18 L 9,19 L 11,19 L 11,18 L 9,18 z M 9,20 L 9,21 L 12,21 L 12,20 L 9,20 z "
       id="rect6994"
       sodipodi:nodetypes="ccccccccccccccccccccccccccccccccccc" />
    <path
       style="opacity:0.92537313;fill:none;fill-opacity:1;fill-rule:evenodd;stroke:url(#linearGradient6961);stroke-width:1px;stroke-linecap:butt;stroke-linejoin:miter;stroke-opacity:1"
       d="M 7.5,1.5 C 4.6322839,1.7272266 3.8567877,1.9289841 1.53125,2.53125 L 9.46875,2.5 L 9.46875,22.53125 L 11.53125,22.53125 L 11.53125,5.53125 C 11.533235,4.9970483 11.965798,4.5644846 12.5,4.5625 L 12.5,3.46875 C 11.965798,3.4667654 11.533235,3.0342017 11.53125,2.5 L 11.5,1.5 L 7.5,1.5 z "
       id="path5947"
       sodipodi:nodetypes="ccccccccccc" />
    <path
       style="opacity:1;fill:#babdb6;fill-opacity:1;fill-rule:evenodd;stroke:#888a85;stroke-width:1;stroke-linecap:round;stroke-linejoin:miter;stroke-miterlimit:10;stroke-dasharray:none;stroke-opacity:1"
       d="M 0.5,5.5 C 0.5,7.059203 0.5999481,6.967147 1.46875,7.46875 L 7,8.5 C 7.373164,8.685835 7.5,9 7.5,9.5 L 7.5,13.5 L 6.5,13.5 C 5.946,13.5 5.5,13.946 5.5,14.5 C 5.5,15.054 5.946,15.5 6.5,15.5 L 7.5,15.5 L 9.5,15.5 L 9.5,5.5 L 0.5,5.5 z M 11.5,5.5 L 11.5,15.5 L 13.5,15.5 L 13.5,5.5 L 11.5,5.5 z "
       id="rect6990"
       sodipodi:nodetypes="ccccccscccccccccc" />
    <g
       id="g6926"
       style="opacity:0.6268657"
       transform="translate(-2,-3)">
      <path
         style="fill:none;fill-rule:evenodd;stroke:#ffffff;stroke-width:1px;stroke-linecap:butt;stroke-linejoin:miter;stroke-opacity:1"
         d="M 3.515625,9.5 C 5.7070904,10.581809 8.6239684,9.5622795 10.28125,11.4375 C 10.452659,11.79686 10.5,13.165442 10.5,13.5 L 10.5,9.5 L 3.515625,9.5 z "
         id="path6920"
         sodipodi:nodetypes="ccccc" />
      <path
         sodipodi:nodetypes="cc"
         id="path6922"
         d="M 10.5,18 L 10.5,12.5"
         style="fill:none;fill-rule:evenodd;stroke:#ffffff;stroke-width:1px;stroke-linecap:butt;stroke-linejoin:miter;stroke-opacity:1" />
      <path
         sodipodi:nodetypes="cc"
         id="path6924"
         d="M 14.5,18 L 14.5,9"
         style="fill:none;fill-rule:evenodd;stroke:#ffffff;stroke-width:1px;stroke-linecap:butt;stroke-linejoin:miter;stroke-opacity:1" />
    </g>
    <rect
       style="opacity:1;fill:#eeeeec;fill-opacity:1;fill-rule:evenodd;stroke:url(#linearGradient7071);stroke-width:1;stroke-linecap:round;stroke-linejoin:miter;stroke-miterlimit:10;stroke-dasharray:none;stroke-opacity:1"
       id="rect6986"
       width="2"
       height="3"
       x="13.5"
       y="11.5"
       rx="0.4826141"
       ry="0.36196059" />
    <rect
       style="opacity:0.21268658;fill:#000000;fill-opacity:1;fill-rule:evenodd;stroke:none;stroke-width:1;stroke-linecap:round;stroke-linejoin:miter;stroke-miterlimit:10;stroke-dasharray:none;stroke-opacity:1"
       id="rect6992"
       width="1"
       height="1"
       x="14"
       y="13" />
    <path
       style="opacity:0.15671644;fill:url(#linearGradient7043);fill-opacity:1;fill-rule:evenodd;stroke:none;stroke-width:1;stroke-linecap:round;stroke-linejoin:miter;stroke-miterlimit:10;stroke-dasharray:none;stroke-opacity:1"
       d="M 8,7 L 8,8 L 9,8 L 9,7 L 8,7 z M 8,9 L 8,10 L 9,10 L 9,9 L 8,9 z M 8,11 L 8,12 L 9,12 L 9,11 L 8,11 z M 8,13 L 8,14 L 9,14 L 9,13 L 8,13 z "
       id="path7041"
       sodipodi:nodetypes="cccccccccccccccccccc" />
    <path
       style="opacity:0.1;fill:url(#linearGradient7047);fill-opacity:1;fill-rule:evenodd;stroke:none;stroke-width:1;stroke-linecap:round;stroke-linejoin:miter;stroke-miterlimit:10;stroke-dasharray:none;stroke-opacity:1"
       d="M 12,7 L 12,8 L 13,8 L 13,7 L 12,7 z M 12,9 L 12,10 L 13,10 L 13,9 L 12,9 z M 12,11 L 12,12 L 13,12 L 13,11 L 12,11 z M 12,13 L 12,14 L 13,14 L 13,13 L 12,13 z "
       id="path7045"
       sodipodi:nodetypes="cccccccccccccccccccc" />
    <path
       style="opacity:0.53731342;fill:none;fill-opacity:1;fill-rule:evenodd;stroke:url(#linearGradient6973);stroke-width:1px;stroke-linecap:round;stroke-linejoin:miter;stroke-opacity:1"
       d="M 6.5,17.5 L 8.5,17.5"
       id="path6965" />
    <rect
       style="opacity:1;fill:#d3d7cf;fill-opacity:1;fill-rule:evenodd;stroke:none;stroke-width:1;stroke-linecap:round;stroke-linejoin:miter;stroke-miterlimit:10;stroke-dasharray:none;stroke-opacity:1"
       id="rect6950"
       width="3"
       height="1"
       x="1"
       y="2" />
    <rect
       style="opacity:1;fill:#ffffff;fill-opacity:1;fill-rule:evenodd;stroke:none;stroke-width:1;stroke-linecap:round;stroke-linejoin:miter;stroke-miterlimit:10;stroke-dasharray:none;stroke-opacity:1"
       id="rect6952"
       width="3"
       height="1"
       x="1"
       y="6" />
    <rect
       style="opacity:1;fill:#ffffff;fill-opacity:1;fill-rule:evenodd;stroke:none;stroke-width:1;stroke-linecap:round;stroke-linejoin:miter;stroke-miterlimit:10;stroke-dasharray:none;stroke-opacity:1"
       id="rect5978"
       width="1"
       height="1"
       x="13"
       y="3" />
  </g>
</svg>
