<?xml version="1.0" encoding="UTF-8" standalone="no"?>
<!-- Created with Inkscape (http://www.inkscape.org/) -->
<svg
   xmlns:ns="http://creativecommons.org/ns#"
   xmlns:dc="http://purl.org/dc/elements/1.1/"
   xmlns:cc="http://web.resource.org/cc/"
   xmlns:rdf="http://www.w3.org/1999/02/22-rdf-syntax-ns#"
   xmlns:svg="http://www.w3.org/2000/svg"
   xmlns="http://www.w3.org/2000/svg"
   xmlns:xlink="http://www.w3.org/1999/xlink"
   xmlns:sodipodi="http://sodipodi.sourceforge.net/DTD/sodipodi-0.dtd"
   xmlns:inkscape="http://www.inkscape.org/namespaces/inkscape"
   sodipodi:docname="preferences-other.svg"
   sodipodi:docbase="/home/dobey/Projects/gnome-icon-theme/16x16/categories"
   inkscape:version="0.45"
   sodipodi:version="0.32"
   id="svg2963"
   height="16"
   width="16"
   inkscape:output_extension="org.inkscape.output.svg.inkscape"
   version="1.0">
  <defs
     id="defs3">
    <linearGradient
       inkscape:collect="always"
       id="linearGradient3683">
      <stop
         style="stop-color:#000000;stop-opacity:1;"
         offset="0"
         id="stop3686" />
      <stop
         style="stop-color:#000000;stop-opacity:0;"
         offset="1"
         id="stop3688" />
    </linearGradient>
    <linearGradient
       inkscape:collect="always"
       id="linearGradient3666">
      <stop
         style="stop-color:#eeeeec;stop-opacity:1;"
         offset="0"
         id="stop3668" />
      <stop
         style="stop-color:#e9b96e;stop-opacity:1"
         offset="1"
         id="stop3670" />
    </linearGradient>
    <linearGradient
       inkscape:collect="always"
       id="linearGradient3622">
      <stop
         style="stop-color:#ffffff;stop-opacity:1;"
         offset="0"
         id="stop3624" />
      <stop
         style="stop-color:#ffffff;stop-opacity:0;"
         offset="1"
         id="stop3626" />
    </linearGradient>
    <linearGradient
       inkscape:collect="always"
       id="linearGradient3270">
      <stop
         style="stop-color:#e9b96e;stop-opacity:1;"
         offset="0"
         id="stop3272" />
      <stop
         style="stop-color:#e9b96e;stop-opacity:0;"
         offset="1"
         id="stop3274" />
    </linearGradient>
    <linearGradient
       inkscape:collect="always"
       id="linearGradient3243">
      <stop
         style="stop-color:#000000;stop-opacity:1;"
         offset="0"
         id="stop3245" />
      <stop
         style="stop-color:#000000;stop-opacity:0"
         offset="1"
         id="stop3247" />
    </linearGradient>
    <linearGradient
       id="linearGradient3703">
      <stop
         style="stop-color:black;stop-opacity:0;"
         offset="0"
         id="stop3705" />
      <stop
         id="stop3711"
         offset="0.5"
         style="stop-color:black;stop-opacity:1;" />
      <stop
         style="stop-color:black;stop-opacity:0;"
         offset="1"
         id="stop3707" />
    </linearGradient>
    <linearGradient
       inkscape:collect="always"
       id="linearGradient3681">
      <stop
         style="stop-color:black;stop-opacity:1;"
         offset="0"
         id="stop3683" />
      <stop
         style="stop-color:black;stop-opacity:0;"
         offset="1"
         id="stop3685" />
    </linearGradient>
    <linearGradient
       id="linearGradient4210">
      <stop
         id="stop4212"
         offset="0.0000000"
         style="stop-color:#eaba6f;stop-opacity:1.0000000;" />
      <stop
         id="stop4214"
         offset="1.0000000"
         style="stop-color:#b97a1b;stop-opacity:1.0000000;" />
    </linearGradient>
    <linearGradient
       inkscape:collect="always"
       id="linearGradient5437">
      <stop
         style="stop-color:#2e3436;stop-opacity:1"
         offset="0"
         id="stop5439" />
      <stop
         style="stop-color:#729fcf;stop-opacity:1"
         offset="1"
         id="stop5441" />
    </linearGradient>
    <linearGradient
       id="linearGradient6707">
      <stop
         id="stop6709"
         offset="0"
         style="stop-color:#888a85;stop-opacity:1" />
      <stop
         id="stop6711"
         offset="1"
         style="stop-color:#555753;stop-opacity:1" />
    </linearGradient>
    <linearGradient
       inkscape:collect="always"
       id="linearGradient6696">
      <stop
         style="stop-color:#ffffff;stop-opacity:1;"
         offset="0"
         id="stop6698" />
      <stop
         style="stop-color:#ffffff;stop-opacity:0;"
         offset="1"
         id="stop6700" />
    </linearGradient>
    <linearGradient
       id="linearGradient6545">
      <stop
         style="stop-color:#d3d7cf;stop-opacity:1"
         offset="0"
         id="stop6547" />
      <stop
         style="stop-color:#eeeeec;stop-opacity:1"
         offset="1"
         id="stop6549" />
    </linearGradient>
    <linearGradient
       inkscape:collect="always"
       id="linearGradient3071">
      <stop
         style="stop-color:#eeeeec;stop-opacity:1;"
         offset="0"
         id="stop3073" />
      <stop
         style="stop-color:#eeeeec;stop-opacity:0;"
         offset="1"
         id="stop3075" />
    </linearGradient>
    <linearGradient
       inkscape:collect="always"
       id="linearGradient3065">
      <stop
         style="stop-color:#eeeeec;stop-opacity:1;"
         offset="0"
         id="stop3067" />
      <stop
         style="stop-color:#eeeeec;stop-opacity:0;"
         offset="1"
         id="stop3069" />
    </linearGradient>
    <linearGradient
       inkscape:collect="always"
       id="linearGradient3025">
      <stop
         style="stop-color:black;stop-opacity:1;"
         offset="0"
         id="stop3027" />
      <stop
         style="stop-color:black;stop-opacity:0;"
         offset="1"
         id="stop3029" />
    </linearGradient>
    <linearGradient
       inkscape:collect="always"
       id="linearGradient2892">
      <stop
         style="stop-color:white;stop-opacity:1;"
         offset="0"
         id="stop2894" />
      <stop
         style="stop-color:white;stop-opacity:0;"
         offset="1"
         id="stop2896" />
    </linearGradient>
    <linearGradient
       inkscape:collect="always"
       id="linearGradient2903">
      <stop
         style="stop-color:#888a85;stop-opacity:1"
         offset="0"
         id="stop2905" />
      <stop
         style="stop-color:#d3d7cf;stop-opacity:1"
         offset="1"
         id="stop2907" />
    </linearGradient>
    <linearGradient
       inkscape:collect="always"
       id="linearGradient2895">
      <stop
         style="stop-color:#d3d7cf;stop-opacity:1;"
         offset="0"
         id="stop2897" />
      <stop
         style="stop-color:#888a85;stop-opacity:1"
         offset="1"
         id="stop2899" />
    </linearGradient>
    <linearGradient
       inkscape:collect="always"
       xlink:href="#linearGradient2892"
       id="linearGradient6897"
       gradientUnits="userSpaceOnUse"
       x1="14.375"
       y1="31.0625"
       x2="30.4375"
       y2="44.0625" />
    <radialGradient
       inkscape:collect="always"
       xlink:href="#linearGradient3025"
       id="radialGradient6899"
       gradientUnits="userSpaceOnUse"
       gradientTransform="matrix(1,0,0,0.996403,13.843745,36.833494)"
       cx="42.5"
       cy="34.5"
       fx="42.5"
       fy="34.5"
       r="8.6875" />
    <linearGradient
       inkscape:collect="always"
       xlink:href="#linearGradient2903"
       id="linearGradient6901"
       gradientUnits="userSpaceOnUse"
       gradientTransform="translate(36.843745,36.709394)"
       x1="16.793787"
       y1="30.675884"
       x2="22.052893"
       y2="37.128235" />
    <linearGradient
       inkscape:collect="always"
       xlink:href="#linearGradient3071"
       id="linearGradient6903"
       gradientUnits="userSpaceOnUse"
       x1="20.806717"
       y1="36.825302"
       x2="17.449335"
       y2="30.900536" />
    <linearGradient
       inkscape:collect="always"
       xlink:href="#linearGradient3065"
       id="linearGradient6905"
       gradientUnits="userSpaceOnUse"
       x1="17.659994"
       y1="36.680489"
       x2="23.031794"
       y2="31.111195" />
    <linearGradient
       inkscape:collect="always"
       xlink:href="#linearGradient2895"
       id="linearGradient6909"
       gradientUnits="userSpaceOnUse"
       gradientTransform="matrix(1.2355397,0,0,1.2355397,32.250724,28.949224)"
       x1="14.495688"
       y1="29.88039"
       x2="26.737476"
       y2="42.564117" />
    <radialGradient
       inkscape:collect="always"
       xlink:href="#linearGradient3681"
       id="radialGradient7644"
       gradientUnits="userSpaceOnUse"
       gradientTransform="matrix(0.990017,0,0,1.1,32.1147,-5.15)"
       cx="5"
       cy="41.5"
       fx="5"
       fy="41.5"
       r="5" />
    <radialGradient
       inkscape:collect="always"
       xlink:href="#linearGradient3681"
       id="radialGradient7646"
       gradientUnits="userSpaceOnUse"
       gradientTransform="matrix(0.99001,0,0,1.1,-14.88523,-86.15)"
       cx="5"
       cy="41.5"
       fx="5"
       fy="41.5"
       r="5" />
    <linearGradient
       inkscape:collect="always"
       xlink:href="#linearGradient3703"
       id="linearGradient7648"
       gradientUnits="userSpaceOnUse"
       gradientTransform="matrix(1.179548,0,0,1,-4.219389,0)"
       x1="17.554192"
       y1="46.000275"
       x2="17.554192"
       y2="34.999718" />
    <linearGradient
       inkscape:collect="always"
       xlink:href="#linearGradient3270"
       id="linearGradient7715"
       gradientUnits="userSpaceOnUse"
       gradientTransform="matrix(0.3866501,0,0,0.473698,-1.070191,-3.8275504)"
       x1="22.1875"
       y1="20"
       x2="22.1875"
       y2="24.079771" />
    <linearGradient
       inkscape:collect="always"
       xlink:href="#linearGradient3683"
       id="linearGradient7718"
       gradientUnits="userSpaceOnUse"
       gradientTransform="matrix(0.3823087,0,0,0.2604499,-1.308431,2.4586202)"
       x1="18.9375"
       y1="33.375"
       x2="18.9375"
       y2="36.755203" />
    <linearGradient
       inkscape:collect="always"
       xlink:href="#linearGradient3622"
       id="linearGradient7732"
       gradientUnits="userSpaceOnUse"
       gradientTransform="matrix(0.3932333,0,0,0.3892144,-17.117304,-1.6689646)"
       x1="46.430019"
       y1="32.8722"
       x2="50.5"
       y2="48.125" />
    <linearGradient
       inkscape:collect="always"
       xlink:href="#linearGradient3666"
       id="linearGradient7735"
       gradientUnits="userSpaceOnUse"
       gradientTransform="matrix(0.4004376,0,0,0.2963551,-17.468383,0.7154273)"
       x1="66.840225"
       y1="18.675386"
       x2="71.5625"
       y2="40.005543" />
    <linearGradient
       inkscape:collect="always"
       xlink:href="#linearGradient4210"
       id="linearGradient7738"
       gradientUnits="userSpaceOnUse"
       gradientTransform="matrix(0.4291987,0,0,-0.5935003,-1.968644,21.988371)"
       x1="17.379599"
       y1="20.096134"
       x2="17.379599"
       y2="37.446911" />
    <linearGradient
       inkscape:collect="always"
       xlink:href="#linearGradient3243"
       id="linearGradient7746"
       gradientUnits="userSpaceOnUse"
       x1="20.78125"
       y1="25.67944"
       x2="20.8125"
       y2="22" />
    <linearGradient
       inkscape:collect="always"
       xlink:href="#linearGradient6545"
       id="linearGradient7758"
       gradientUnits="userSpaceOnUse"
       x1="101.75"
       y1="16.75"
       x2="84.875"
       y2="23.5" />
    <linearGradient
       inkscape:collect="always"
       xlink:href="#linearGradient6707"
       id="linearGradient7760"
       gradientUnits="userSpaceOnUse"
       x1="101.76143"
       y1="23.366385"
       x2="84.3106"
       y2="40.943737" />
    <linearGradient
       inkscape:collect="always"
       xlink:href="#linearGradient5437"
       id="linearGradient7762"
       gradientUnits="userSpaceOnUse"
       gradientTransform="matrix(0.9982232,0,0,1.1271997,101.97505,-16.992011)"
       x1="-5.7610831"
       y1="40.212852"
       x2="-12.691682"
       y2="44.514675" />
    <linearGradient
       inkscape:collect="always"
       xlink:href="#linearGradient6696"
       id="linearGradient7764"
       gradientUnits="userSpaceOnUse"
       gradientTransform="translate(-1,-1)"
       x1="19.5"
       y1="17.750786"
       x2="19.5"
       y2="7.8089299" />
  </defs>
  <sodipodi:namedview
     inkscape:window-y="59"
     inkscape:window-x="129"
     inkscape:window-height="905"
     inkscape:window-width="895"
     stroke="#c17d11"
     fill="#e9b96e"
     inkscape:showpageshadow="false"
     inkscape:document-units="px"
     inkscape:grid-bbox="true"
     showgrid="false"
     inkscape:current-layer="layer1"
     inkscape:cy="1.3883263"
     inkscape:cx="5.0034179"
     inkscape:zoom="1"
     inkscape:pageshadow="2"
     inkscape:pageopacity="0.0"
     borderopacity="1"
     bordercolor="#e0e0e0"
     pagecolor="#ffffff"
     id="base"
     showguides="false"
     inkscape:guide-bbox="true"
     showborder="false"
     gridspacingx="0.5px"
     gridspacingy="0.5px"
     gridempspacing="2"
     inkscape:grid-points="false"
     width="16px"
     height="16px"
     borderlayer="true">
    <sodipodi:guide
       orientation="horizontal"
       position="27.499825"
       id="guide3495" />
    <inkscape:grid
       type="xygrid"
       id="grid4867" />
  </sodipodi:namedview>
  <metadata
     id="metadata4">
    <rdf:RDF>
      <ns:Work
         rdf:about="">
        <dc:format>image/svg+xml</dc:format>
        <dc:type
           rdf:resource="http://purl.org/dc/dcmitype/StillImage" />
        <dc:title>Misc prefs</dc:title>
        <dc:creator>
          <ns:Agent>
            <dc:title>Lapo Calamandrei</dc:title>
          </ns:Agent>
        </dc:creator>
        <dc:source />
        <dc:subject>
          <rdf:Bag>
            <rdf:li>box</rdf:li>
            <rdf:li>misc</rdf:li>
            <rdf:li>various</rdf:li>
            <rdf:li>mess</rdf:li>
            <rdf:li>preferences</rdf:li>
            <rdf:li>tools</rdf:li>
          </rdf:Bag>
        </dc:subject>
        <ns:license
           rdf:resource="http://creativecommons.org/licenses/GPL/2.0/" />
        <dc:contributor>
          <ns:Agent>
            <dc:title>Jakub Steiner</dc:title>
          </ns:Agent>
        </dc:contributor>
        <dc:date />
      </ns:Work>
      <ns:License
         rdf:about="http://creativecommons.org/licenses/GPL/2.0/">
        <ns:permits
           rdf:resource="http://web.resource.org/cc/Reproduction" />
        <ns:permits
           rdf:resource="http://web.resource.org/cc/Distribution" />
        <ns:requires
           rdf:resource="http://web.resource.org/cc/Notice" />
        <ns:permits
           rdf:resource="http://web.resource.org/cc/DerivativeWorks" />
        <ns:requires
           rdf:resource="http://web.resource.org/cc/ShareAlike" />
        <ns:requires
           rdf:resource="http://web.resource.org/cc/SourceCode" />
      </ns:License>
      <cc:Work
         rdf:about="">
        <dc:format>image/svg+xml</dc:format>
        <dc:type
           rdf:resource="http://purl.org/dc/dcmitype/StillImage" />
      </cc:Work>
    </rdf:RDF>
  </metadata>
  <g
     inkscape:groupmode="layer"
     inkscape:label="Layer 1"
     id="layer1">
    <g
       id="g6502"
       style="opacity:0.29714284"
       transform="matrix(0.7309258,0,0,0.4874447,39.414635,8.3792123)" />
    <g
       id="g7526"
       style="opacity:0.52873565"
       transform="matrix(0.3714583,0,0,0.2677019,-0.787562,3.3760299)">
      <rect
         y="35"
         x="37.064781"
         height="11"
         width="4.9352183"
         id="rect7528"
         style="opacity:1;fill:url(#radialGradient7644);fill-opacity:1;stroke:none;stroke-width:1;stroke-linecap:round;stroke-linejoin:miter;stroke-miterlimit:4;stroke-dasharray:none;stroke-dashoffset:1.20000057;stroke-opacity:1" />
      <rect
         transform="scale(-1,-1)"
         y="-46"
         x="-9.9351835"
         height="11"
         width="4.9351835"
         id="rect7530"
         style="opacity:1;fill:url(#radialGradient7646);fill-opacity:1;stroke:none;stroke-width:1;stroke-linecap:round;stroke-linejoin:miter;stroke-miterlimit:4;stroke-dasharray:none;stroke-dashoffset:1.20000057;stroke-opacity:1" />
      <rect
         y="35"
         x="9.9351835"
         height="11"
         width="27.129599"
         id="rect7532"
         style="opacity:1;fill:url(#linearGradient7648);fill-opacity:1;stroke:none;stroke-width:1;stroke-linecap:round;stroke-linejoin:miter;stroke-miterlimit:4;stroke-dasharray:none;stroke-dashoffset:1.20000057;stroke-opacity:1" />
    </g>
    <path
       style="color:#000000;fill:url(#linearGradient7738);fill-opacity:1;fill-rule:nonzero;stroke:#a0670c;stroke-width:1.00000083;stroke-linecap:butt;stroke-linejoin:miter;marker:none;marker-start:none;marker-mid:none;marker-end:none;stroke-miterlimit:4;stroke-dashoffset:0;stroke-opacity:1;visibility:visible;display:block;overflow:visible"
       d="M 3.084426,4.5149003 C 2.508024,4.5149003 2.201138,4.8226803 2.040189,5.3031033 L 1.236929,7.9581033 L 0.562502,10.49438 L 1.486929,10.49438 L 1.486929,14.512633 C 1.486929,15.104624 1.954766,15.577398 2.531166,15.577398 L 13.477541,15.577398 C 14.053942,15.577398 14.522919,15.104623 14.52292,14.512633 L 14.52292,10.55688 L 15.5,10.55688 L 15.071595,7.9581033 L 14.24156,5.3584153 C 14.039386,4.7258523 13.527532,4.5148993 12.951128,4.5149003 L 3.084426,4.5149003 z "
       id="path7534"
       sodipodi:nodetypes="ccccccccccccccc" />
    <path
       style="opacity:0.6;color:#000000;fill:url(#linearGradient7715);fill-opacity:1;fill-rule:nonzero;stroke:none;stroke-width:1.00000083;stroke-linecap:butt;stroke-linejoin:miter;marker:none;marker-start:none;marker-mid:none;marker-end:none;stroke-miterlimit:4;stroke-dashoffset:0;stroke-opacity:1;visibility:visible;display:block;overflow:visible"
       d="M 3.485031,5.1727103 C 3.32486,5.1727103 3.273554,5.2060643 3.231291,5.2467263 C 3.189029,5.2873883 3.134193,5.3732153 3.086297,5.5427873 L 2.457991,8.0148993 L 13.550016,8.0148993 L 12.909627,5.6316053 C 12.82895,5.3859053 12.771215,5.3067093 12.716302,5.2615293 C 12.661389,5.2163483 12.577559,5.1727103 12.390066,5.1727103 L 3.485031,5.1727103 z "
       id="path7555" />
    <path
       sodipodi:nodetypes="ccccccccccccccccc"
       id="path7538"
       d="M 3.17779,5.5541363 C 2.989853,5.6626413 3.023973,5.4718093 2.919808,5.7252723 C 2.919808,5.7252723 2.181145,8.4026523 2.181145,8.4026523 L 2.09362,8.5721593 L 1.604916,10.533369 C 1.604916,10.533369 2.505785,10.533528 2.505785,10.533528 L 2.483688,14.165532 C 2.483688,14.426749 2.683968,14.621878 2.959685,14.621877 L 13.095005,14.621877 C 13.370722,14.621877 13.571001,14.426749 13.571002,14.165532 L 13.504711,10.524981 C 13.504711,10.524981 14.400158,10.515651 14.400158,10.515651 L 14.033554,8.4673763 L 14.017504,8.2613143 L 13.360409,5.8630853 C 13.278887,5.6496183 13.100632,5.5267463 12.936698,5.5188013 L 3.17779,5.5541363 z "
       style="opacity:0.69348659;color:#000000;fill:none;fill-opacity:1;fill-rule:nonzero;stroke:url(#linearGradient7732);stroke-width:1.00000083;stroke-linecap:butt;stroke-linejoin:miter;marker:none;marker-start:none;marker-mid:none;marker-end:none;stroke-miterlimit:4;stroke-dashoffset:0;stroke-opacity:1;visibility:visible;display:block;overflow:visible" />
    <g
       id="g6367"
       transform="matrix(0.3928675,0,0,0.3939968,-15.376966,-21.167085)">
      <path
         style="fill:url(#linearGradient6909);fill-opacity:1;stroke:#2e3436;stroke-width:2.54173684;stroke-linecap:round;stroke-linejoin:miter;stroke-miterlimit:4;stroke-opacity:1"
         d="M 55.880427,59.772056 C 55.26705,59.795637 54.704669,59.894198 54.142949,60.003721 L 54.104338,60.003721 C 54.077803,60.014933 54.052011,60.027831 54.027117,60.042332 C 54.001398,60.040859 53.975614,60.040859 53.949897,60.042332 C 53.484739,60.137596 53.030102,60.246377 52.598524,60.389826 C 51.964344,60.600615 51.398803,60.893231 50.822437,61.200649 C 50.556533,61.340868 50.414991,61.639679 50.47494,61.934251 L 51.208543,65.447817 C 50.842352,65.746653 50.484241,66.080606 50.166056,66.451692 L 46.652491,65.756704 C 46.370787,65.714759 46.092964,65.853665 45.9575,66.104197 C 45.633287,66.716689 45.293157,67.354616 45.069454,68.073337 C 44.768351,69.040734 44.569664,70.06332 44.528904,71.123578 C 44.504916,71.434285 44.6962,71.721208 44.992233,71.818569 L 48.467187,72.976886 C 48.543751,73.445912 48.653617,73.909975 48.814684,74.366871 L 46.420823,77.031 C 46.217126,77.253805 46.185624,77.584577 46.343606,77.841823 C 46.704509,78.415392 47.119187,78.992427 47.579144,79.50208 C 47.591488,79.515467 47.604369,79.528348 47.617755,79.540691 L 53.486569,79.115975 C 53.73115,79.209751 53.953765,79.314865 54.220169,79.38625 C 54.456706,79.449629 54.732782,79.490355 54.99238,79.540691 L 61.478967,77.725992 C 61.84515,77.427157 62.203263,77.093203 62.521453,76.722118 L 66.035018,77.417107 C 66.316724,77.459053 66.594543,77.320144 66.73001,77.06961 C 67.054223,76.457115 67.394354,75.819196 67.618053,75.100472 C 67.919161,74.133067 68.117844,73.110487 68.158603,72.050233 C 68.182592,71.739525 67.991308,71.452601 67.695275,71.355239 L 64.220319,70.196922 C 64.143755,69.727899 64.033891,69.26383 63.872823,68.80694 L 66.266682,66.142806 C 66.470383,65.920006 66.501885,65.589232 66.343906,65.331985 C 65.982997,64.758412 65.568317,64.181383 65.108364,63.67173 C 65.09602,63.658344 65.08314,63.645463 65.069753,63.633116 L 64.297541,62.899515 C 63.794161,62.438691 63.228158,62.001084 62.637284,61.625366 C 62.380039,61.467384 62.049263,61.498887 61.826461,61.702586 L 59.200939,64.057832 C 58.956356,63.96406 58.733742,63.858942 58.467338,63.787559 C 58.230798,63.724176 57.954722,63.683456 57.695125,63.633116 L 56.575416,60.273994 C 56.492772,59.96258 56.202035,59.752602 55.880427,59.772056 L 55.880427,59.772056 z M 56.150702,69.772207 C 56.218863,69.764595 56.320503,69.763881 56.459586,69.772207 C 56.588093,69.779897 56.699596,69.820625 56.80708,69.849428 C 57.76281,70.105512 58.339792,71.08527 58.081232,72.050233 C 57.825141,73.005975 56.845388,73.582943 55.880427,73.324382 C 54.924691,73.068295 54.347712,72.088542 54.606275,71.123578 C 54.802596,70.390897 55.439213,69.851627 56.150702,69.772207 z "
         id="path6907"
         sodipodi:nodetypes="cccssssccccsssccccssccsccccsssccccssccsccscccccsssssc" />
      <path
         transform="translate(36.843745,36.709394)"
         d="M 18.46875,26.46875 L 16.375,27.0625 L 17.21875,31.09375 C 17.274871,31.40599 17.174576,31.725926 16.950251,31.950251 C 16.725926,32.174576 16.40599,32.274871 16.09375,32.21875 L 12.03125,31.375 L 11.4375,33.46875 L 15.40625,34.78125 C 15.71319,34.886951 15.946796,35.139347 16.028484,35.453532 C 16.110172,35.767716 16.029085,36.101932 15.8125,36.34375 L 13.09375,39.40625 L 14.5625,40.90625 L 17.65625,38.15625 C 17.898068,37.939665 18.232284,37.858578 18.546468,37.940266 C 18.860653,38.021954 19.113049,38.25556 19.21875,38.5625 L 20.53125,42.53125 L 22.625,41.9375 L 21.78125,37.90625 C 21.725129,37.59401 21.825424,37.274074 22.049749,37.049749 C 22.274074,36.825424 22.59401,36.725129 22.90625,36.78125 L 26.96875,37.625 L 27.5625,35.53125 L 23.59375,34.21875 C 23.28681,34.113049 23.053204,33.860653 22.971516,33.546468 C 22.889828,33.232284 22.970915,32.898068 23.1875,32.65625 L 25.90625,29.59375 L 24.4375,28.09375 L 21.34375,30.84375 C 21.101932,31.060335 20.767716,31.141422 20.453532,31.059734 C 20.139347,30.978046 19.886951,30.74444 19.78125,30.4375 L 18.46875,26.46875 z "
         id="path2995"
         style="fill:none;fill-opacity:1;stroke:url(#linearGradient6897);stroke-width:2.54173708;stroke-linecap:round;stroke-linejoin:miter;stroke-miterlimit:4;stroke-dasharray:none;stroke-opacity:1"
         inkscape:original="M 19.09375 25.3125 L 15.25 26.34375 L 16.28125 31.28125 L 11.3125 30.25 L 10.28125 34.09375 L 15.09375 35.6875 L 11.75 39.4375 L 14.53125 42.25 L 18.3125 38.875 L 19.90625 43.6875 L 23.75 42.65625 L 22.71875 37.71875 L 27.6875 38.75 L 28.71875 34.90625 L 23.90625 33.3125 L 27.25 29.5625 L 24.46875 26.75 L 20.6875 30.125 L 19.09375 25.3125 z "
         inkscape:radius="-0.96878749"
         sodipodi:type="inkscape:offset" />
      <path
         id="path2999"
         d="M 55.624995,62.553144 L 52.624995,63.428144 L 53.562495,67.896894 C 53.589748,68.048522 53.54643,68.194209 53.437495,68.303144 C 53.328561,68.412079 53.182873,68.455397 53.031245,68.428144 L 48.531245,67.490644 L 47.656245,70.490644 L 52.093745,71.959394 C 52.242845,72.01074 52.335314,72.150525 52.374995,72.303144 C 52.414675,72.455761 52.386453,72.591929 52.281245,72.709394 L 49.249995,76.146894 L 51.374995,78.303144 L 54.843745,75.240644 C 54.961211,75.135435 55.097376,75.107213 55.249995,75.146894 C 55.402614,75.186575 55.542399,75.279044 55.593745,75.428144 L 57.062495,79.865644 L 60.062495,78.990644 L 59.124995,74.521894 C 59.097742,74.370266 59.14106,74.224579 59.249995,74.115644 C 59.35893,74.006709 59.504619,73.963391 59.656245,73.990644 L 64.156245,74.928144 L 65.031245,71.928144 L 60.593745,70.459394 C 60.444645,70.408048 60.352176,70.268263 60.312495,70.115644 C 60.272815,69.963027 60.301037,69.826859 60.406245,69.709394 L 63.437495,66.271894 L 61.312495,64.115644 L 57.843745,67.178144 C 57.726279,67.283353 57.590114,67.311575 57.437495,67.271894 C 57.284876,67.232213 57.145091,67.139744 57.093745,66.990644 L 55.624995,62.553144 z M 56.343745,68.209394 C 57.999743,68.209393 59.343745,69.553394 59.343745,71.209394 C 59.343746,72.865395 57.999743,74.209394 56.343745,74.209394 C 54.687747,74.209395 53.343745,72.865394 53.343745,71.209394 C 53.343745,69.553395 54.687747,68.209394 56.343745,68.209394 z "
         style="opacity:0.9372549;fill:url(#radialGradient6899);fill-opacity:1;stroke:none;stroke-width:1.00000012;stroke-linecap:round;stroke-linejoin:miter;stroke-miterlimit:4;stroke-dasharray:none;stroke-opacity:1" />
      <path
         id="path3002"
         d="M 56.343745,65.709394 C 53.307745,65.709394 50.843745,68.173396 50.843745,71.209394 C 50.843745,74.245394 53.307745,76.709392 56.343745,76.709394 C 59.379745,76.709394 61.843745,74.245396 61.843745,71.209394 C 61.843745,68.173394 59.379745,65.709394 56.343745,65.709394 z M 56.343745,68.709394 C 57.723742,68.709394 58.843744,69.829395 58.843745,71.209394 C 58.843745,72.589392 57.723743,73.709395 56.343745,73.709394 C 54.963748,73.709394 53.843746,72.589392 53.843745,71.209394 C 53.843745,69.829396 54.963748,68.709395 56.343745,68.709394 z "
         style="fill:url(#linearGradient6901);fill-opacity:1;stroke:none;stroke-width:1;stroke-linecap:round;stroke-linejoin:miter;stroke-miterlimit:4;stroke-dasharray:none;stroke-opacity:1" />
      <path
         transform="matrix(0.949401,0,0,0.949402,37.777328,38.37238)"
         d="M 22.715805 34.587067 A 3.1598835 3.1598835 0 1 1  16.396038,34.587067 A 3.1598835 3.1598835 0 1 1  22.715805 34.587067 z"
         sodipodi:ry="3.1598835"
         sodipodi:rx="3.1598835"
         sodipodi:cy="34.587067"
         sodipodi:cx="19.555922"
         id="path3033"
         style="fill:none;fill-opacity:1;stroke:url(#linearGradient6903);stroke-width:2.67720008;stroke-linecap:round;stroke-linejoin:miter;stroke-miterlimit:4;stroke-dasharray:none;stroke-opacity:1"
         sodipodi:type="arc" />
      <path
         transform="matrix(1.582334,0,0,-1.582339,25.399735,125.93786)"
         d="M 22.715805 34.587067 A 3.1598835 3.1598835 0 1 1  16.396038,34.587067 A 3.1598835 3.1598835 0 1 1  22.715805 34.587067 z"
         sodipodi:ry="3.1598835"
         sodipodi:rx="3.1598835"
         sodipodi:cy="34.587067"
         sodipodi:cx="19.555922"
         id="path3037"
         style="fill:none;fill-opacity:1;stroke:url(#linearGradient6905);stroke-width:1.60631919;stroke-linecap:round;stroke-linejoin:miter;stroke-miterlimit:4;stroke-dasharray:none;stroke-opacity:1"
         sodipodi:type="arc" />
    </g>
    <g
       id="g7748">
      <g
         transform="matrix(-0.2907548,0,0,0.2915906,17.484878,-0.3091843)"
         id="g6739">
        <g
           id="g6553"
           transform="matrix(0.7071068,-0.7071068,0.7071068,0.7071068,-57.460697,74.506628)">
          <path
             transform="translate(-0.2128011,1.2875901)"
             d="M 90.84375,0.03125 C 90.746265,0.049918433 90.651689,0.081443724 90.5625,0.125 C 87.521711,1.4595063 85.375,4.5089842 85.375,8.03125 C 85.375,11.063114 86.999517,13.682822 89.375,15.21875 L 89.375,31.9375 C 89.375,34.478441 91.459059,36.562499 94,36.5625 C 96.540941,36.562499 98.625,34.478441 98.625,31.9375 L 98.625,15.21875 C 101.00048,13.682822 102.625,11.063114 102.625,8.03125 C 102.625,4.5089837 100.47829,1.4595061 97.4375,0.125 C 97.091005,-0.023095038 96.693301,0.012687853 96.378806,0.22025462 C 96.06431,0.42782139 95.875053,0.77943289 95.875,1.15625 L 95.875,6.6875 L 94.78125,7.96875 L 93.21875,7.96875 L 92.125,6.6875 L 92.125,1.15625 C 92.129314,0.82835433 91.989923,0.51499188 91.743507,0.2986272 C 91.497092,0.082262529 91.168334,-0.015433073 90.84375,0.03125 L 90.84375,0.03125 z "
             id="path7907"
             style="opacity:1;fill:url(#linearGradient7758);fill-opacity:1;stroke:url(#linearGradient7760);stroke-width:3.43439126;stroke-linecap:round;stroke-linejoin:round;stroke-miterlimit:4;stroke-dasharray:none;stroke-dashoffset:0.7;stroke-opacity:1"
             inkscape:original="M 91 1.15625 C 88.356663 2.3163273 86.5 4.9611649 86.5 8.03125 C 86.5 10.90237 88.12854 13.395959 90.5 14.65625 L 90.5 31.9375 C 90.5 33.876499 92.061 35.437499 94 35.4375 C 95.939 35.437499 97.5 33.876499 97.5 31.9375 L 97.5 14.65625 C 99.87146 13.395959 101.5 10.90237 101.5 8.03125 C 101.5 4.9611643 99.643337 2.3163272 97 1.15625 L 97 7.09375 L 95.28125 9.09375 L 92.71875 9.09375 L 91 7.09375 L 91 1.15625 z "
             inkscape:radius="1.1215551"
             sodipodi:type="inkscape:offset" />
          <path
             sodipodi:nodetypes="ccccccccc"
             id="path7213"
             d="M 93.71875,17.5625 C 93.079596,17.5625 92.59375,18.063412 92.59375,18.71875 L 92.595216,33.396982 C 92.595216,34.052321 93.081062,34.553233 93.720216,34.553232 L 94.251466,34.553232 C 94.890619,34.553232 95.407714,34.03946 95.407716,33.396982 L 95.40625,18.71875 C 95.40625,18.076272 94.889153,17.5625 94.25,17.5625 L 93.71875,17.5625 z "
             style="opacity:0.23106061;fill:url(#linearGradient7762);fill-opacity:1;stroke:none;stroke-width:1;stroke-linecap:round;stroke-linejoin:round;stroke-miterlimit:4;stroke-opacity:1;display:inline"
             transform="matrix(0.9999999,3.8645919e-4,3.8358553e-4,0.9999999,0,0)" />
        </g>
        <path
           sodipodi:type="inkscape:offset"
           inkscape:radius="-0.58711064"
           inkscape:original="M 14.71875 6.8125 C 14.129935 6.8140249 13.543329 6.8880281 12.96875 7.03125 L 16.5 10.5625 C 16.589624 10.650873 16.646088 10.749545 16.65625 10.875 L 16.875 13.5 C 16.888638 13.656013 16.830347 13.827626 16.71875 13.9375 L 15.125 15.5625 C 17.279079 16.073694 19.038866 17.020591 21.34375 15.78125 C 22.074648 13.392376 21.483569 10.671069 19.59375 8.78125 C 18.245921 7.4334204 16.485196 6.8079254 14.71875 6.8125 z M 8 12 C 7.6061401 13.580092 7.7314214 15.26324 8.4375 16.75 C 9.564272 16.068398 10.560695 15.675078 11.46875 15.46875 L 8 12 z "
           style="opacity:0.59051723;fill:url(#linearGradient7764);fill-opacity:1;stroke:none;stroke-width:0.99999994;stroke-linecap:round;stroke-linejoin:round;stroke-miterlimit:4;stroke-dasharray:none;stroke-dashoffset:0.7;stroke-opacity:1"
           id="path7227"
           d="M 14.71875,7.40625 C 14.548995,7.4066896 14.387978,7.4552712 14.21875,7.46875 L 16.90625,10.15625 C 17.063666,10.311469 17.227708,10.537295 17.25,10.8125 L 17.46875,13.4375 C 17.498279,13.775303 17.381554,14.091157 17.125,14.34375 L 16.25,15.25 C 16.936616,15.444394 17.641286,15.661068 18.25,15.75 C 19.092265,15.873053 19.908475,15.79045 20.84375,15.34375 C 21.386944,13.227587 20.848438,10.848438 19.1875,9.1875 C 17.956226,7.956226 16.345591,7.4020369 14.71875,7.40625 z M 8.46875,13.28125 C 8.4005385,14.178418 8.5102153,15.057965 8.8125,15.90625 C 9.356914,15.618338 9.8774828,15.359339 10.375,15.1875 L 8.46875,13.28125 z " />
      </g>
      <rect
         y="2.03125"
         x="12"
         height="1"
         width="0.96875006"
         id="rect5509"
         style="opacity:1;color:#000000;fill:#ffffff;fill-opacity:1;fill-rule:evenodd;stroke:none;stroke-width:1;stroke-linecap:round;stroke-linejoin:miter;marker:none;marker-start:none;marker-mid:none;marker-end:none;stroke-miterlimit:4;stroke-dasharray:none;stroke-dashoffset:0;stroke-opacity:1;visibility:visible;display:inline;overflow:visible;enable-background:accumulate" />
      <rect
         style="opacity:1;color:#000000;fill:#ffffff;fill-opacity:1;fill-rule:evenodd;stroke:none;stroke-width:1;stroke-linecap:round;stroke-linejoin:miter;marker:none;marker-start:none;marker-mid:none;marker-end:none;stroke-miterlimit:4;stroke-dasharray:none;stroke-dashoffset:0;stroke-opacity:1;visibility:visible;display:inline;overflow:visible;enable-background:accumulate"
         id="rect5511"
         width="1.9687501"
         height="1"
         x="12.03125"
         y="4.03125" />
      <rect
         style="opacity:1;color:#000000;fill:#ffffff;fill-opacity:1;fill-rule:evenodd;stroke:none;stroke-width:1;stroke-linecap:round;stroke-linejoin:miter;marker:none;marker-start:none;marker-mid:none;marker-end:none;stroke-miterlimit:4;stroke-dasharray:none;stroke-dashoffset:0;stroke-opacity:1;visibility:visible;display:inline;overflow:visible;enable-background:accumulate"
         id="rect5513"
         width="0.96875006"
         height="1"
         x="14"
         y="3.03125" />
    </g>
    <path
       sodipodi:type="inkscape:offset"
       inkscape:radius="-0.5"
       inkscape:original="M 11.78125 19 C 11.367 19 11.234304 19.070411 11.125 19.15625 C 11.015696 19.242089 10.873873 19.423275 10.75 19.78125 L 9.125 25 L 37.8125 25 L 36.15625 19.96875 C 35.947593 19.450065 35.798273 19.282879 35.65625 19.1875 C 35.514227 19.092121 35.297418 19 34.8125 19 L 11.78125 19 z "
       style="opacity:0.4;color:#000000;fill:none;fill-opacity:1;fill-rule:nonzero;stroke:url(#linearGradient7746);stroke-width:2.66645122;stroke-linecap:butt;stroke-linejoin:miter;marker:none;marker-start:none;marker-mid:none;marker-end:none;stroke-miterlimit:4;stroke-dashoffset:0;stroke-opacity:1;visibility:visible;display:block;overflow:visible"
       id="path7582"
       d="M 11.78125,19.5 C 11.602454,19.5 11.502305,19.52161 11.46875,19.53125 C 11.435195,19.54089 11.467082,19.539268 11.4375,19.5625 C 11.431757,19.56701 11.321106,19.641707 11.21875,19.9375 L 9.8125,24.5 L 37.125,24.5 L 35.6875,20.15625 L 35.6875,20.125 C 35.513562,19.703318 35.424965,19.627305 35.375,19.59375 C 35.304793,19.546601 35.234094,19.5 34.8125,19.5 L 11.78125,19.5 z "
       transform="matrix(0.3295194,0,0,0.4268275,0.266592,-2.9423749)" />
    <path
       style="color:#000000;fill:url(#linearGradient7735);fill-opacity:1;fill-rule:nonzero;stroke:none;stroke-width:1.00000083;stroke-linecap:butt;stroke-linejoin:miter;marker:none;marker-start:none;marker-mid:none;marker-end:none;stroke-miterlimit:4;stroke-dashoffset:0;stroke-opacity:1;visibility:visible;display:block;overflow:visible"
       d="M 1.893538,8.3928523 L 1.282131,11.015304 L 14.408731,11.015304 L 14.065132,8.4277803 L 1.893538,8.3928523 z "
       id="path7536"
       sodipodi:nodetypes="ccccc" />
    <rect
       style="opacity:0;color:#000000;fill:#ffffff;fill-opacity:1;fill-rule:nonzero;stroke:none;stroke-width:1;stroke-linecap:round;stroke-linejoin:round;marker:none;marker-start:none;marker-mid:none;marker-end:none;stroke-miterlimit:4;stroke-dasharray:none;stroke-dashoffset:0;stroke-opacity:1;visibility:visible;display:inline;overflow:visible;enable-background:accumulate"
       id="rect7549"
       width="13.44379"
       height="1"
       x="1.3027401"
       y="9.0148993"
       rx="0.20369378"
       ry="0.5" />
    <path
       style="opacity:0.3;color:#000000;fill:url(#linearGradient7718);fill-opacity:1;fill-rule:nonzero;stroke:none;stroke-width:1.00000083;stroke-linecap:butt;stroke-linejoin:miter;marker:none;marker-start:none;marker-mid:none;marker-end:none;stroke-miterlimit:4;stroke-dashoffset:0;stroke-opacity:1;visibility:visible;display:block;overflow:visible"
       d="M 1.862898,11.015304 L 1.862898,12.591373 C 1.862898,12.828157 2.199327,13.0149 2.623724,13.014899 L 13.287562,13.014899 C 13.711961,13.014899 14.048388,12.828157 14.048388,12.591373 L 14.048388,11.015304 L 1.862898,11.015304 z "
       id="path7553"
       sodipodi:nodetypes="ccccccc" />
    <rect
       style="color:#000000;fill:#a0670c;fill-opacity:1;fill-rule:nonzero;stroke:none;stroke-width:1;stroke-linecap:round;stroke-linejoin:round;marker:none;marker-start:none;marker-mid:none;marker-end:none;stroke-miterlimit:4;stroke-dasharray:none;stroke-dashoffset:0;stroke-opacity:1;visibility:visible;display:inline;overflow:visible;enable-background:accumulate"
       id="rect7551"
       width="13.907957"
       height="0.99623203"
       x="1.0000019"
       y="10.018667" />
    <rect
       style="color:#000000;fill:#e9b96e;fill-opacity:1;fill-rule:nonzero;stroke:none;stroke-width:1;stroke-linecap:round;stroke-linejoin:miter;marker:none;marker-start:none;marker-mid:none;marker-end:none;stroke-miterlimit:4;stroke-dasharray:none;stroke-dashoffset:0;stroke-opacity:1;visibility:visible;display:inline;overflow:visible;enable-background:accumulate"
       id="rect7580"
       width="12.17322"
       height="1"
       x="2.0000019"
       y="8.0148993"
       rx="0.19634223"
       ry="0.5" />
  </g>
</svg>
