<?xml version="1.0" encoding="UTF-8" standalone="no"?>
<!-- Created with Inkscape (http://www.inkscape.org/) -->

<svg
   xmlns:svg="http://www.w3.org/2000/svg"
   xmlns="http://www.w3.org/2000/svg"
   version="1.1"
   width="16.000002"
   height="16"
   id="svg7384">
  <title
     id="title9167">Gnome Symbolic Icon Theme</title>
  <defs
     id="defs7386" />
  <g
     transform="translate(-80,-518)"
     id="layer9"
     style="display:inline" />
  <g
     transform="translate(-80,-518)"
     id="layer10" />
  <g
     transform="translate(-80,-518)"
     id="layer11" />
  <g
     transform="translate(-80,-518)"
     id="layer12">
    <rect
       width="16"
       height="16"
       rx="0.14408804"
       ry="0.15129246"
       x="-96"
       y="518"
       transform="scale(-1,1)"
       id="rect10837-5-8-4-9"
       style="color:#bebebe;fill:none;stroke:none;stroke-width:1;marker:none;visibility:visible;display:inline;overflow:visible;enable-background:new" />
    <path
       d="m 90,520 -1,0 c -0.0104,-1.2e-4 -0.0208,-4.6e-4 -0.0313,0 -0.25495,0.0112 -0.50987,0.12858 -0.6875,0.3125 l -5.28125,5.21875 5.28125,5.1875 C 88.46941,530.90694 88.73471,531 89,531 l 1,0 0,-1 c 0,-0.26529 -0.0931,-0.53058 -0.28125,-0.71875 l -3.8125,-3.75 3.8125,-3.78125 C 89.92949,521.55537 90.02191,521.28075 90,521 l 0,-1 z"
       id="path10839-9-9-3-6"
       style="font-size:medium;font-style:normal;font-variant:normal;font-weight:normal;font-stretch:normal;text-indent:0;text-align:start;text-decoration:none;line-height:normal;letter-spacing:normal;word-spacing:normal;text-transform:none;direction:ltr;block-progression:tb;writing-mode:lr-tb;text-anchor:start;color:#bebebe;fill:#bebebe;fill-opacity:1;fill-rule:nonzero;stroke:none;stroke-width:1.78124988;marker:none;visibility:visible;display:inline;overflow:visible;enable-background:new;font-family:Andale Mono;-inkscape-font-specification:Andale Mono" />
    <path
       d="m 87.625,525.67187 a 1.203125,1.203125 0 1 1 -2.40625,0 1.203125,1.203125 0 1 1 2.40625,0 z"
       transform="matrix(-1.2467533,0,0,1.2467533,198.24676,-129.88314)"
       id="path3490-1-8"
       style="color:#bebebe;fill:#bebebe;fill-opacity:1;fill-rule:nonzero;stroke:none;stroke-width:2;marker:none;visibility:visible;display:inline;overflow:visible;enable-background:accumulate" />
    <path
       d="m 87.625,525.67187 a 1.203125,1.203125 0 1 1 -2.40625,0 1.203125,1.203125 0 1 1 2.40625,0 z"
       transform="matrix(-1.2467533,0,0,1.2467533,202.24676,-129.88314)"
       id="path3490-3-9-2"
       style="color:#bebebe;fill:#bebebe;fill-opacity:1;fill-rule:nonzero;stroke:none;stroke-width:2;marker:none;visibility:visible;display:inline;overflow:visible;enable-background:accumulate" />
    <rect
       width="2"
       height="11"
       rx="0"
       ry="0"
       x="-82"
       y="520"
       transform="scale(-1,1)"
       id="rect4317-4"
       style="color:#bebebe;fill:#bebebe;fill-opacity:1;fill-rule:nonzero;stroke:none;stroke-width:2;marker:none;visibility:visible;display:inline;overflow:visible;enable-background:accumulate" />
  </g>
  <g
     transform="translate(-80,-518)"
     id="layer13" />
  <g
     transform="translate(-80,-518)"
     id="layer14" />
  <g
     transform="translate(-80,-518)"
     id="layer15" />
</svg>
