<?xml version="1.0" encoding="UTF-8" standalone="no"?>
<!-- Created with Inkscape (http://www.inkscape.org/) -->

<svg
   xmlns:svg="http://www.w3.org/2000/svg"
   xmlns="http://www.w3.org/2000/svg"
   version="1.1"
   width="16"
   height="16"
   id="svg7384">
  <title
     id="title9167">Gnome Symbolic Icon Theme</title>
  <defs
     id="defs7386" />
  <g
     transform="translate(-180.00019,-496)"
     id="layer9" />
  <g
     transform="translate(-180.00019,-496)"
     id="layer10" />
  <g
     transform="translate(-180.00019,-496)"
     id="layer11" />
  <g
     transform="translate(-180.00019,-496)"
     id="layer12">
    <rect
       width="16"
       height="16"
       rx="0.14408804"
       ry="0.15129246"
       x="-196.0002"
       y="496"
       transform="scale(-1,1)"
       id="rect3246-44-7"
       style="color:#bebebe;fill:none;stroke:none;stroke-width:1;marker:none;visibility:visible;display:inline;overflow:visible" />
    <g
       transform="matrix(0,1,-1,0,682.99995,516)"
       id="g4007">
      <path
         d="M -9,497.99985 -9,498 m 0,-3e-4 0,-5.99941"
         id="path3807-1-1-9-3-0-9"
         style="fill:none;stroke:#bebebe;stroke-width:2;stroke-linecap:square;stroke-linejoin:round;stroke-miterlimit:4;stroke-opacity:1;stroke-dasharray:none;display:inline" />
      <g
         id="g4002">
        <path
           d="m -12,497.9997 0,-5.99941 -3,2.99971 3,2.99985 0,1.5e-4"
           id="path3807-1-1-9-8-4"
           style="fill:#bebebe;fill-opacity:1;stroke:#bebebe;stroke-width:2;stroke-linecap:round;stroke-linejoin:round;stroke-miterlimit:4;stroke-opacity:1;stroke-dasharray:none;display:inline" />
        <rect
           width="1"
           height="1"
           x="11"
           y="498"
           transform="scale(-1,1)"
           id="rect3946-4-5-9-9-8-3"
           style="opacity:0.98000004;fill:#bebebe;fill-opacity:1;stroke:none;display:inline" />
        <rect
           width="1"
           height="1"
           x="11"
           y="491"
           transform="scale(-1,1)"
           id="rect3946-4-5-9-9-3-4-1"
           style="opacity:0.98000004;fill:#bebebe;fill-opacity:1;stroke:none;display:inline" />
      </g>
    </g>
  </g>
  <g
     transform="translate(-180.00019,-496)"
     id="layer13" />
  <g
     transform="translate(-180.00019,-496)"
     id="layer14" />
  <g
     transform="translate(-180.00019,-496)"
     id="layer15" />
</svg>
