<?xml version="1.0" encoding="UTF-8" standalone="no"?>
<!-- Created with Inkscape (http://www.inkscape.org/) -->

<svg
   xmlns:svg="http://www.w3.org/2000/svg"
   xmlns="http://www.w3.org/2000/svg"
   version="1.1"
   width="16"
   height="16"
   id="svg7384">
  <title
     id="title9167">Gnome Symbolic Icon Theme</title>
  <defs
     id="defs7386" />
  <g
     transform="translate(-60.999756,-789)"
     id="layer3"
     style="display:inline" />
  <g
     transform="translate(-60.999756,-789)"
     id="layer2"
     style="display:inline" />
  <g
     transform="translate(-41.000006,-760)"
     id="layer4">
    <rect
       width="16"
       height="16"
       x="41.000008"
       y="760"
       id="rect3215-3-4-27"
       style="color:#000000;fill:none;stroke:none;stroke-width:2;marker:none;visibility:visible;display:inline;overflow:visible;enable-background:accumulate" />
    <path
       d="m 44.125,761 c -1.108,0 -2,0.892 -2,2 l 0,9 c 0,1.108 0.892,2 2,2 L 53,774 c 1.108,0 2,-0.892 2,-2 l 0,-9 c 0,-1.108 -0.892,-2 -2,-2 l -8.875,0 z m 0.875,3 1.375,0 2.125,2.09375 L 50.59375,764 52,764 l 0,1.46875 -2.09375,2.0625 L 52,769.59375 52,771 50.5625,771 48.5,768.9375 46.4375,771 45,771 l 0,-1.40625 2.0625,-2.0625 L 45,765.46875 45,764 z"
       id="rect3319"
       style="color:#000000;fill:#bebebe;fill-opacity:1;fill-rule:nonzero;stroke:none;stroke-width:2;marker:none;visibility:visible;display:inline;overflow:visible;enable-background:accumulate" />
  </g>
  <g
     transform="translate(-60.999756,-789)"
     id="layer1"
     style="display:inline" />
</svg>
