<?xml version="1.0" encoding="UTF-8" standalone="no"?>
<!-- Created with Inkscape (http://www.inkscape.org/) -->
<svg
   xmlns:dc="http://purl.org/dc/elements/1.1/"
   xmlns:cc="http://web.resource.org/cc/"
   xmlns:rdf="http://www.w3.org/1999/02/22-rdf-syntax-ns#"
   xmlns:svg="http://www.w3.org/2000/svg"
   xmlns="http://www.w3.org/2000/svg"
   xmlns:xlink="http://www.w3.org/1999/xlink"
   xmlns:sodipodi="http://sodipodi.sourceforge.net/DTD/sodipodi-0.dtd"
   xmlns:inkscape="http://www.inkscape.org/namespaces/inkscape"
   width="16"
   height="16"
   id="svg2"
   sodipodi:version="0.32"
   inkscape:version="0.45.1"
   version="1.0"
   sodipodi:docbase="/home/lapo/Icone/gnome-icon-theme/16x16/emotes"
   sodipodi:docname="face-angry.svg"
   inkscape:export-filename="/home/lapo/Desktop/smileys.png"
   inkscape:export-xdpi="90"
   inkscape:export-ydpi="90"
   inkscape:output_extension="org.inkscape.output.svg.inkscape">
  <defs
     id="defs4">
    <linearGradient
       inkscape:collect="always"
       id="linearGradient3527">
      <stop
         style="stop-color:#000000;stop-opacity:0"
         offset="0"
         id="stop3529" />
      <stop
         style="stop-color:#000000;stop-opacity:1"
         offset="1"
         id="stop3531" />
    </linearGradient>
    <linearGradient
       inkscape:collect="always"
       id="linearGradient4029">
      <stop
         style="stop-color:black;stop-opacity:1;"
         offset="0"
         id="stop4031" />
      <stop
         style="stop-color:black;stop-opacity:0;"
         offset="1"
         id="stop4033" />
    </linearGradient>
    <linearGradient
       id="linearGradient3936">
      <stop
         id="stop3938"
         offset="0"
         style="stop-color:#fcaf3e;stop-opacity:1" />
      <stop
         style="stop-color:#ef2929;stop-opacity:1;"
         offset="0.64999998"
         id="stop3940" />
      <stop
         id="stop3942"
         offset="1"
         style="stop-color:#c00;stop-opacity:1" />
    </linearGradient>
    <linearGradient
       id="linearGradient3512">
      <stop
         style="stop-color:#babdb6;stop-opacity:1"
         offset="0"
         id="stop3514" />
      <stop
         id="stop3524"
         offset="0.1"
         style="stop-color:#e9ebe7;stop-opacity:1;" />
      <stop
         id="stop3520"
         offset="0.34999999"
         style="stop-color:white;stop-opacity:1;" />
      <stop
         style="stop-color:#e9ebe7;stop-opacity:1;"
         offset="0.89999998"
         id="stop3522" />
      <stop
         style="stop-color:#babdb6;stop-opacity:1"
         offset="1"
         id="stop3516" />
    </linearGradient>
    <linearGradient
       id="linearGradient2784">
      <stop
         style="stop-color:white;stop-opacity:1;"
         offset="0"
         id="stop2786" />
      <stop
         style="stop-color:white;stop-opacity:0.70588237;"
         offset="1"
         id="stop2788" />
    </linearGradient>
    <radialGradient
       inkscape:collect="always"
       xlink:href="#linearGradient3936"
       id="radialGradient10613"
       gradientUnits="userSpaceOnUse"
       gradientTransform="matrix(1.094627,0,0,1.094627,-0.925692,-0.73699)"
       cx="9.3747082"
       cy="7.8025141"
       fx="9.3747082"
       fy="7.8025141"
       r="10.049342" />
    <radialGradient
       inkscape:collect="always"
       xlink:href="#linearGradient2784"
       id="radialGradient10615"
       gradientUnits="userSpaceOnUse"
       cx="5.2865944"
       cy="3.462945"
       fx="5.2865944"
       fy="3.462945"
       r="10.108456" />
    <linearGradient
       id="linearGradient7837"
       inkscape:collect="always">
      <stop
         id="stop7839"
         offset="0"
         style="stop-color:#555753;stop-opacity:1" />
      <stop
         id="stop7841"
         offset="1"
         style="stop-color:#000000;stop-opacity:1" />
    </linearGradient>
    <linearGradient
       inkscape:collect="always"
       id="linearGradient6741">
      <stop
         style="stop-color:#555753;stop-opacity:1"
         offset="0"
         id="stop6743" />
      <stop
         style="stop-color:#000000;stop-opacity:1"
         offset="1"
         id="stop6745" />
    </linearGradient>
    <radialGradient
       inkscape:collect="always"
       xlink:href="#linearGradient6741"
       id="radialGradient2288"
       gradientUnits="userSpaceOnUse"
       gradientTransform="matrix(-0.6472658,0,0,-0.6524571,25.183838,-79.995674)"
       cx="30.294865"
       cy="-129.77917"
       fx="30.294865"
       fy="-129.77917"
       r="3.21875" />
    <radialGradient
       inkscape:collect="always"
       xlink:href="#linearGradient7837"
       id="radialGradient2290"
       gradientUnits="userSpaceOnUse"
       gradientTransform="matrix(-0.6472658,0,0,-0.6524571,29.183838,-79.995674)"
       cx="30.294865"
       cy="-129.77917"
       fx="30.294865"
       fy="-129.77917"
       r="3.21875" />
    <linearGradient
       id="linearGradient4826"
       inkscape:collect="always">
      <stop
         id="stop4828"
         offset="0"
         style="stop-color:#cc0000;stop-opacity:1;" />
      <stop
         id="stop4830"
         offset="1"
         style="stop-color:#ef2929;stop-opacity:1" />
    </linearGradient>
    <linearGradient
       inkscape:collect="always"
       xlink:href="#linearGradient3512"
       id="linearGradient2501"
       gradientUnits="userSpaceOnUse"
       x1="6.0038366"
       y1="222.90671"
       x2="16.103849"
       y2="222.90671"
       gradientTransform="matrix(0.843592,0,0,0.905918,-1.3083179,-192.25307)" />
    <linearGradient
       inkscape:collect="always"
       xlink:href="#linearGradient4826"
       id="linearGradient2503"
       gradientUnits="userSpaceOnUse"
       x1="10.78125"
       y1="222.28125"
       x2="10.78125"
       y2="224.37784"
       gradientTransform="matrix(0.843592,0,0,0.905918,-1.3083179,-192.25307)" />
    <linearGradient
       inkscape:collect="always"
       xlink:href="#linearGradient4029"
       id="linearGradient3521"
       gradientUnits="userSpaceOnUse"
       gradientTransform="matrix(1,0,0,0.833333,-4,-226)"
       x1="10.5"
       y1="282.6875"
       x2="10.5"
       y2="285.46005" />
    <radialGradient
       inkscape:collect="always"
       xlink:href="#linearGradient3527"
       id="radialGradient3533"
       cx="8"
       cy="10.558777"
       fx="8"
       fy="10.558777"
       r="5.0625"
       gradientTransform="matrix(2.0133607,0,0,2.6339634,-8.1068855,-16.873931)"
       gradientUnits="userSpaceOnUse" />
  </defs>
  <sodipodi:namedview
     id="base"
     pagecolor="#ffffff"
     bordercolor="#666666"
     borderopacity="1.0"
     inkscape:pageopacity="0"
     inkscape:pageshadow="2"
     inkscape:zoom="1"
     inkscape:cx="7.7551713"
     inkscape:cy="2.4605827"
     inkscape:document-units="px"
     inkscape:current-layer="layer1"
     width="16px"
     height="16px"
     inkscape:showpageshadow="false"
     showgrid="false"
     gridempspacing="2"
     gridspacingx="0.5px"
     gridspacingy="0.5px"
     borderlayer="false"
     showborder="false"
     showguides="false"
     inkscape:guide-bbox="true"
     inkscape:window-width="1112"
     inkscape:window-height="940"
     inkscape:window-x="132"
     inkscape:window-y="55"
     inkscape:grid-points="true"
     inkscape:grid-bbox="true"
     inkscape:object-points="false"
     inkscape:object-paths="false">
    <sodipodi:guide
       orientation="vertical"
       position="24"
       id="guide8441" />
    <sodipodi:guide
       orientation="horizontal"
       position="175"
       id="guide8443" />
    <sodipodi:guide
       orientation="horizontal"
       position="167.00978"
       id="guide7776" />
    <sodipodi:guide
       orientation="vertical"
       position="71.020038"
       id="guide7778" />
  </sodipodi:namedview>
  <metadata
     id="metadata7">
    <rdf:RDF>
      <cc:Work
         rdf:about="">
        <dc:format>image/svg+xml</dc:format>
        <dc:type
           rdf:resource="http://purl.org/dc/dcmitype/StillImage" />
        <dc:title>Emotes</dc:title>
        <dc:creator>
          <cc:Agent>
            <dc:title>Lapo Calamandrei</dc:title>
          </cc:Agent>
        </dc:creator>
        <dc:subject>
          <rdf:Bag>
            <rdf:li>emoticon</rdf:li>
            <rdf:li>emote</rdf:li>
            <rdf:li>smiley</rdf:li>
            <rdf:li>smile</rdf:li>
          </rdf:Bag>
        </dc:subject>
        <cc:license
           rdf:resource="http://creativecommons.org/licenses/GPL/2.0/" />
      </cc:Work>
      <cc:License
         rdf:about="http://creativecommons.org/licenses/GPL/2.0/">
        <cc:permits
           rdf:resource="http://web.resource.org/cc/Reproduction" />
        <cc:permits
           rdf:resource="http://web.resource.org/cc/Distribution" />
        <cc:requires
           rdf:resource="http://web.resource.org/cc/Notice" />
        <cc:permits
           rdf:resource="http://web.resource.org/cc/DerivativeWorks" />
        <cc:requires
           rdf:resource="http://web.resource.org/cc/ShareAlike" />
        <cc:requires
           rdf:resource="http://web.resource.org/cc/SourceCode" />
      </cc:License>
    </rdf:RDF>
  </metadata>
  <g
     inkscape:label="Livello 1"
     inkscape:groupmode="layer"
     id="layer1"
     style="display:inline">
    <path
       sodipodi:type="arc"
       style="fill:url(#radialGradient10613);fill-opacity:1;stroke:#a40000;stroke-width:1.27291667;stroke-linecap:round;stroke-linejoin:miter;stroke-miterlimit:4;stroke-dasharray:none;stroke-dashoffset:0;stroke-opacity:1;display:inline"
       id="path4323"
       sodipodi:cx="12.046875"
       sodipodi:cy="10.046875"
       sodipodi:rx="9.546875"
       sodipodi:ry="9.546875"
       d="M 21.59375 10.046875 A 9.546875 9.546875 0 1 1  2.5,10.046875 A 9.546875 9.546875 0 1 1  21.59375 10.046875 z"
       transform="matrix(0.785597,0,0,0.785597,-1.464,0.1071)"
       inkscape:export-filename="/home/lapo/Desktop/something-along-the-lines.png"
       inkscape:export-xdpi="90"
       inkscape:export-ydpi="90" />
    <path
       sodipodi:type="arc"
       style="opacity:0.6;fill:none;fill-opacity:1;stroke:url(#radialGradient10615);stroke-width:1.46875024;stroke-linecap:round;stroke-linejoin:miter;stroke-miterlimit:4;stroke-dasharray:none;stroke-dashoffset:0;stroke-opacity:1;display:inline"
       id="path4325"
       sodipodi:cx="12.046875"
       sodipodi:cy="10.046875"
       sodipodi:rx="9.546875"
       sodipodi:ry="9.546875"
       d="M 21.59375 10.046875 A 9.546875 9.546875 0 1 1  2.5,10.046875 A 9.546875 9.546875 0 1 1  21.59375 10.046875 z"
       transform="matrix(0.680851,0,0,0.680851,-0.2021,1.1596)"
       inkscape:export-filename="/home/lapo/Desktop/something-along-the-lines.png"
       inkscape:export-xdpi="90"
       inkscape:export-ydpi="90" />
    <path
       style="fill:url(#radialGradient2288);fill-opacity:1;fill-rule:evenodd;stroke:none;stroke-width:1;stroke-linecap:round;stroke-linejoin:miter;stroke-miterlimit:4;stroke-dasharray:none;stroke-dashoffset:0.69999992;stroke-opacity:1;display:inline"
       d="M 6 4 C 5.4480002 4 4.9999999 4.6719993 5 5.5 C 5 6.3280005 5.4480002 6.9999998 6 7 C 6.5519998 7 7.0000001 6.3280003 7 5.5 C 7 5.3248891 6.943071 5.1562754 6.90625 5 L 6 5 L 6 4 z "
       id="path2284" />
    <path
       style="fill:url(#radialGradient2290);fill-opacity:1;fill-rule:evenodd;stroke:none;stroke-width:1;stroke-linecap:round;stroke-linejoin:miter;stroke-miterlimit:4;stroke-dasharray:none;stroke-dashoffset:0.69999992;stroke-opacity:1;display:inline"
       d="M 10 4 L 10 5 L 9.09375 5 C 9.0569289 5.1562754 9.0000001 5.324889 9 5.5 C 9 6.3280005 9.4480002 6.9999998 10 7 C 10.552 7 11 6.3280003 11 5.5 C 11 4.6719995 10.552 4 10 4 z "
       id="path2286" />
    <path
       sodipodi:nodetypes="czzzz"
       id="path2497"
       d="M 2.5,10.5 C 2.5,14.5 3.3602441,11.5 8,11.5 C 12.639756,11.5 13.5,14.5 13.5,10.5 C 13.5,6.5 11.796164,9.5 8,9.5 C 4.203836,9.5 2.5,6.5 2.5,10.5 z "
       style="opacity:1;fill:url(#linearGradient2501);fill-opacity:1;stroke:url(#linearGradient2503);stroke-width:0.87419975;stroke-linecap:round;stroke-linejoin:miter;stroke-miterlimit:4;stroke-dasharray:none;stroke-dashoffset:0;stroke-opacity:1;display:inline" />
    <path
       style="opacity:0.2;fill:url(#linearGradient3521);fill-opacity:1;stroke:none;stroke-width:1;stroke-linecap:round;stroke-linejoin:round;stroke-miterlimit:4;stroke-dasharray:none;stroke-dashoffset:0;stroke-opacity:1;display:inline"
       d="M 3.28125 8.84375 C 3.209107 8.8522764 3.1992919 8.8500928 3.15625 8.90625 L 3.15625 8.9375 L 3.15625 12.15625 C 3.1939831 12.152727 3.2381259 12.136791 3.375 12.09375 C 3.5321688 12.044328 3.7577625 11.968989 4 11.875 L 4 9.03125 C 3.9128648 9.0012365 3.7622805 8.9270113 3.6875 8.90625 C 3.4885912 8.851027 3.353393 8.8352236 3.28125 8.84375 z M 12.71875 8.84375 C 12.644466 8.8350395 12.47988 8.8511043 12.28125 8.90625 C 12.215424 8.9245253 12.075077 8.9744204 12 9 L 12 11.875 C 12.242238 11.968989 12.467831 12.044328 12.625 12.09375 C 12.798646 12.148354 12.891776 12.158392 12.90625 12.15625 C 12.920724 12.154108 12.877635 12.177551 12.90625 12.125 C 12.934864 12.072449 12.968091 11.926309 13 11.65625 L 13 9.40625 C 12.956368 9.1509652 12.887974 8.9942816 12.84375 8.9375 C 12.799526 8.8807184 12.793034 8.8524605 12.71875 8.84375 z M 6 9.65625 L 6 11.28125 C 6.3175872 11.217335 6.6308152 11.128996 7 11.09375 L 7 9.875 C 6.6417626 9.8275916 6.3149591 9.7364629 6 9.65625 z M 10 9.65625 C 9.6837498 9.7380579 9.3619869 9.8268483 9 9.875 L 9 11.09375 C 9.3691848 11.128996 9.6824128 11.217335 10 11.28125 L 10 9.65625 z "
       id="path4361" />
    <path
       style="opacity:0.24710425;fill:url(#radialGradient3533);fill-opacity:1.0;stroke:none;stroke-width:0.87419975;stroke-linecap:round;stroke-linejoin:miter;stroke-miterlimit:4;stroke-dasharray:none;stroke-dashoffset:0;stroke-opacity:1;display:inline"
       d="M 3.28125 8.84375 C 3.209107 8.8522764 3.1992919 8.8500928 3.15625 8.90625 C 3.0701662 9.0185644 2.9375 9.5298321 2.9375 10.5 C 2.9375 10.646625 2.9648219 10.716984 2.96875 10.84375 C 3.0100975 10.285402 3.0916872 9.9904858 3.15625 9.90625 C 3.1992919 9.8500928 3.209107 9.8522764 3.28125 9.84375 C 3.353393 9.8352236 3.4885912 9.851027 3.6875 9.90625 C 4.483135 10.127142 5.9874797 10.9375 8 10.9375 C 10.01252 10.9375 11.486728 10.126833 12.28125 9.90625 C 12.47988 9.8511043 12.644466 9.8350395 12.71875 9.84375 C 12.793034 9.8524605 12.799526 9.8807184 12.84375 9.9375 C 12.910086 10.022672 12.990457 10.325875 13.03125 10.875 C 13.035871 10.738718 13.0625 10.659889 13.0625 10.5 C 13.0625 9.5308413 12.932198 9.0510631 12.84375 8.9375 C 12.799526 8.8807184 12.793034 8.8524605 12.71875 8.84375 C 12.644466 8.8350395 12.47988 8.8511043 12.28125 8.90625 C 11.486728 9.1268329 10.01252 9.9375 8 9.9375 C 5.9874797 9.9375 4.483135 9.127142 3.6875 8.90625 C 3.4885912 8.851027 3.353393 8.8352236 3.28125 8.84375 z "
       id="path3504" />
  </g>
</svg>
