<?xml version="1.0" encoding="UTF-8" standalone="no"?>
<!-- Created with Inkscape (http://www.inkscape.org/) -->
<svg
   xmlns:dc="http://purl.org/dc/elements/1.1/"
   xmlns:cc="http://web.resource.org/cc/"
   xmlns:rdf="http://www.w3.org/1999/02/22-rdf-syntax-ns#"
   xmlns:svg="http://www.w3.org/2000/svg"
   xmlns="http://www.w3.org/2000/svg"
   xmlns:xlink="http://www.w3.org/1999/xlink"
   xmlns:sodipodi="http://sodipodi.sourceforge.net/DTD/sodipodi-0.dtd"
   xmlns:inkscape="http://www.inkscape.org/namespaces/inkscape"
   width="16"
   height="16"
   id="svg2"
   sodipodi:version="0.32"
   inkscape:version="0.44+devel"
   version="1.0"
   sodipodi:docbase="/home/andreas/project/gnome-icon-theme/16x16/emotes"
   sodipodi:docname="face-monkey.svg"
   inkscape:export-filename="/home/andreas/project/gnome-icon-theme/16x16/emotes/face-monkey.png"
   inkscape:export-xdpi="90"
   inkscape:export-ydpi="90"
   inkscape:output_extension="org.inkscape.output.svg.inkscape"
   sodipodi:modified="true">
  <defs
     id="defs4">
    <linearGradient
       inkscape:collect="always"
       id="linearGradient3398">
      <stop
         style="stop-color:#ffffff;stop-opacity:1;"
         offset="0"
         id="stop3400" />
      <stop
         style="stop-color:#ffffff;stop-opacity:0;"
         offset="1"
         id="stop3402" />
    </linearGradient>
    <linearGradient
       inkscape:collect="always"
       id="linearGradient3390">
      <stop
         style="stop-color:#ffffff;stop-opacity:1;"
         offset="0"
         id="stop3392" />
      <stop
         style="stop-color:#ffffff;stop-opacity:0;"
         offset="1"
         id="stop3394" />
    </linearGradient>
    <linearGradient
       inkscape:collect="always"
       id="linearGradient3150">
      <stop
         style="stop-color:#2e3436;stop-opacity:1;"
         offset="0"
         id="stop3152" />
      <stop
         style="stop-color:#2e3436;stop-opacity:0;"
         offset="1"
         id="stop3154" />
    </linearGradient>
    <radialGradient
       inkscape:collect="always"
       xlink:href="#linearGradient3150"
       id="radialGradient3363"
       gradientUnits="userSpaceOnUse"
       gradientTransform="matrix(-0.842757,0,0,-0.35721,19.80716,14.19321)"
       cx="10.748654"
       cy="10.457643"
       fx="10.748654"
       fy="10.457643"
       r="6.6449099" />
    <radialGradient
       inkscape:collect="always"
       xlink:href="#linearGradient3390"
       id="radialGradient3396"
       cx="12"
       cy="2.7777374"
       fx="12"
       fy="2.7777374"
       r="6.96875"
       gradientTransform="matrix(1.435094,0,0,1.850224,-5.221128,-5.030137)"
       gradientUnits="userSpaceOnUse" />
    <linearGradient
       inkscape:collect="always"
       xlink:href="#linearGradient3398"
       id="linearGradient3404"
       x1="12"
       y1="1.9995501"
       x2="12"
       y2="20.389206"
       gradientUnits="userSpaceOnUse" />
  </defs>
  <sodipodi:namedview
     id="base"
     pagecolor="#ffffff"
     bordercolor="#666666"
     borderopacity="1.0"
     inkscape:pageopacity="0.0"
     inkscape:pageshadow="2"
     inkscape:zoom="25.730843"
     inkscape:cx="20.598983"
     inkscape:cy="6.1538897"
     inkscape:document-units="px"
     inkscape:current-layer="layer1"
     showgrid="false"
     fill="#eeeeec"
     inkscape:window-width="1674"
     inkscape:window-height="969"
     inkscape:window-x="0"
     inkscape:window-y="26"
     width="16px"
     height="16px" />
  <metadata
     id="metadata7">
    <rdf:RDF>
      <cc:Work
         rdf:about="">
        <dc:format>image/svg+xml</dc:format>
        <dc:type
           rdf:resource="http://purl.org/dc/dcmitype/StillImage" />
      </cc:Work>
    </rdf:RDF>
  </metadata>
  <g
     inkscape:label="Layer 1"
     inkscape:groupmode="layer"
     id="layer1">
    <path
       sodipodi:type="arc"
       style="opacity:1;fill:#e9b96e;fill-opacity:1;fill-rule:evenodd;stroke:#7a4c01;stroke-width:1.69851673;stroke-miterlimit:4;stroke-dasharray:none;stroke-opacity:1"
       id="path3342"
       sodipodi:cx="5.5769644"
       sodipodi:cy="5.3647771"
       sodipodi:rx="3.5560436"
       sodipodi:ry="3.2451327"
       d="M 9.133008 5.3647771 A 3.5560436 3.2451327 0 1 1  2.0209208,5.3647771 A 3.5560436 3.2451327 0 1 1  9.133008 5.3647771 z"
       transform="matrix(0.5624228,0,0,0.6163076,-0.636612,5.1936471)" />
    <path
       sodipodi:type="arc"
       style="opacity:1;fill:#e9b96e;fill-opacity:1;fill-rule:evenodd;stroke:#7a4c01;stroke-width:1.6866926;stroke-miterlimit:4;stroke-dasharray:none;stroke-opacity:1"
       id="path3344"
       sodipodi:cx="5.5769644"
       sodipodi:cy="5.3647771"
       sodipodi:rx="3.5560436"
       sodipodi:ry="3.2451327"
       d="M 9.133008 5.3647771 A 3.5560436 3.2451327 0 1 1  2.0209208,5.3647771 A 3.5560436 3.2451327 0 1 1  9.133008 5.3647771 z"
       transform="matrix(0.5703354,0,0,0.6163077,10.347397,5.1936464)" />
    <path
       style="opacity:1;fill:#c17d11;fill-opacity:1;fill-rule:evenodd;stroke:none;stroke-width:1;stroke-miterlimit:4;stroke-dasharray:none;stroke-opacity:1"
       d="M 7.6249998,0.0034574205 C 4.4922468,0.1948247 2,2.7158982 2,5.7799865 C 2,6.9944122 2.4056447,8.0989218 3.0714285,9.0292835 C 3.0748429,9.0340558 3.0679998,9.0522935 3.0714285,9.0570547 C 2.4056447,9.7727178 2,10.622341 2,11.556515 C 2,14.009318 4.6879996,15.999999 7.9999995,16 C 11.312001,16 14,14.009318 14,11.556515 C 14,10.622341 13.594355,9.7727178 12.928572,9.0570547 C 12.925158,9.0533856 12.932001,9.032945 12.928572,9.0292835 C 13.594355,8.0989218 14,6.9944122 14,5.7799865 C 14,2.591342 11.312001,0.0034574205 7.9999995,0.0034574205 C 7.8706232,0.0034574205 7.7523464,-0.0043217756 7.6249998,0.0034574205 z "
       id="path3369" />
    <path
       style="fill:none;fill-opacity:1;fill-rule:evenodd;stroke:#6a4200;stroke-width:0.99999994;stroke-miterlimit:4;stroke-opacity:1"
       d="M 7.59375,0.5033369 C 4.1999342,0.68274257 1.5,3.0462339 1.4999999,5.9187984 C 1.4999999,7.0573151 1.9394488,8.0927866 2.6607143,8.964995 C 2.6644131,8.9694689 2.6569999,8.9865666 2.6607143,8.9910303 C 1.9394487,9.6619601 1.4999999,10.458478 1.4999999,11.334259 C 1.4999999,13.633748 4.4119997,15.499999 7.9999997,15.5 C 11.588002,15.5 14.500001,13.633748 14.5,11.334259 C 14.5,10.458478 14.060552,9.6619601 13.339285,8.9910303 C 13.33559,8.9875907 13.343,8.9684276 13.339285,8.964995 C 14.060552,8.0927866 14.5,7.0573151 14.5,5.9187984 C 14.5,2.9294632 11.588002,0.5033369 7.9999997,0.5033369 C 7.8598421,0.5033369 7.731709,0.49604395 7.59375,0.5033369 z "
       id="path3346" />
    <path
       sodipodi:type="inkscape:offset"
       inkscape:radius="-1.0160223"
       inkscape:original="M 7.59375 0.5 C 4.1999342 0.67940566 1.5000001 3.0336855 1.5 5.90625 C 1.5 7.0447667 1.9349845 8.0965416 2.65625 8.96875 C 2.6599487 8.9732235 2.6525356 8.9955363 2.65625 9 C 1.9349843 9.6709294 1.5 10.467969 1.5 11.34375 C 1.5 13.643239 4.412 15.499999 8 15.5 C 11.588002 15.5 14.500001 13.643239 14.5 11.34375 C 14.5 10.467969 14.065017 9.6709298 13.34375 9 C 13.340055 8.99656 13.347465 8.9721826 13.34375 8.96875 C 14.065017 8.0965412 14.5 7.0447667 14.5 5.90625 C 14.5 2.9169148 11.588002 0.5 8 0.5 C 7.8598426 0.49999999 7.731709 0.49270705 7.59375 0.5 z "
       xlink:href="#path3346"
       style="opacity:0.3;fill:url(#radialGradient3396);fill-opacity:1;fill-rule:evenodd;stroke:url(#linearGradient3404);stroke-width:0.99879736;stroke-miterlimit:4;stroke-opacity:1"
       id="path3380"
       inkscape:href="#path3346"
       d="M 7.65625,1.5 C 4.7019794,1.6561702 2.5312501,3.6703276 2.53125,5.90625 C 2.53125,6.7859774 2.8440195,7.5948188 3.4375,8.3125 C 3.437517,8.3125206 3.4357662,8.3407331 3.4375,8.34375 C 3.4600512,8.37382 3.4809166,8.4051181 3.5,8.4375 C 3.5225512,8.46757 3.5434166,8.4988681 3.5625,8.53125 C 3.5851523,8.5707871 3.6249537,8.6248733 3.625,8.625 C 3.6250729,8.6251996 3.6137293,8.6772698 3.625,8.71875 C 3.636931,8.7494747 3.64736,8.7807617 3.65625,8.8125 C 3.658722,8.8235214 3.6550965,8.8362091 3.65625,8.84375 C 3.6568909,8.8645784 3.6568909,8.8854216 3.65625,8.90625 C 3.6693006,8.9472136 3.6797382,8.9889642 3.6875,9.03125 C 3.6851224,9.0880521 3.6583535,9.0810872 3.65625,9.09375 C 3.6553485,9.0991769 3.6563853,9.1240221 3.65625,9.125 C 3.629245,9.3637254 3.5185273,9.5851607 3.34375,9.75 C 2.7671411,10.286368 2.53125,10.804395 2.53125,11.34375 C 2.53125,12.064608 2.9587579,12.812215 3.9375,13.4375 C 4.9162421,14.062785 6.3812609,14.46875 8,14.46875 C 9.61874,14.46875 11.083758,14.062785 12.0625,13.4375 C 13.041242,12.812215 13.46875,12.064608 13.46875,11.34375 C 13.46875,10.804394 13.23286,10.286368 12.65625,9.75 C 12.656192,9.7499463 12.617177,9.6902133 12.59375,9.65625 C 12.515986,9.573626 12.452609,9.4785609 12.40625,9.375 C 12.40623,9.3749514 12.408153,9.3505807 12.40625,9.34375 C 12.406295,9.3438611 12.382987,9.3097203 12.375,9.28125 C 12.361949,9.2402864 12.351512,9.1985358 12.34375,9.15625 C 12.343706,9.1559693 12.345224,9.1132274 12.34375,9.09375 C 12.342908,9.0826201 12.313495,9.0766723 12.3125,9.0625 C 12.311058,9.0312666 12.311058,8.9999834 12.3125,8.96875 C 12.312226,8.9591282 12.31227,8.9430521 12.3125,8.9375 C 12.312829,8.9295684 12.343387,8.9442729 12.34375,8.9375 C 12.347015,8.8765438 12.343347,8.8467776 12.34375,8.84375 C 12.364044,8.6493107 12.439997,8.4648532 12.5625,8.3125 C 13.155981,7.5948189 13.46875,6.7859783 13.46875,5.90625 C 13.46875,3.5767393 11.131733,1.53125 8,1.53125 C 7.8245976,1.53125 7.7254341,1.4963427 7.65625,1.5 z "
       transform="matrix(1,0,0,1.0024096,-3.1250008e-2,-3.6138921e-3)" />
    <path
       sodipodi:type="arc"
       style="opacity:1;fill:#edc484;fill-opacity:1;fill-rule:evenodd;stroke:none;stroke-width:1;stroke-miterlimit:4;stroke-dasharray:none;stroke-opacity:1"
       id="path5925"
       sodipodi:cx="10.279492"
       sodipodi:cy="9.8535538"
       sodipodi:rx="1.1076201"
       sodipodi:ry="1.7100101"
       d="M 11.387112 9.8535538 A 1.1076201 1.7100101 0 1 1  9.1718723,9.8535538 A 1.1076201 1.7100101 0 1 1  11.387112 9.8535538 z"
       transform="matrix(4.514183,0,0,1.7543757,-38.40351,-6.2868355)" />
    <path
       sodipodi:type="arc"
       style="opacity:1;fill:#edc484;fill-opacity:1;fill-rule:evenodd;stroke:none;stroke-width:1;stroke-miterlimit:4;stroke-dasharray:none;stroke-opacity:1"
       id="path5923"
       sodipodi:cx="10.279492"
       sodipodi:cy="9.8535538"
       sodipodi:rx="1.1076201"
       sodipodi:ry="1.7100101"
       d="M 11.387112 9.8535538 A 1.1076201 1.7100101 0 1 1  9.1718723,9.8535538 A 1.1076201 1.7100101 0 1 1  11.387112 9.8535538 z"
       transform="matrix(2.2570914,0,0,1.4619797,-16.701753,-7.905696)" />
    <path
       style="opacity:1;fill:#2e3436;fill-opacity:1;stroke:none;stroke-width:1;stroke-miterlimit:4;stroke-dasharray:none;stroke-opacity:1"
       d="M 11.614038,9.9723992 C 11.193705,11.703014 9.7533472,13.003561 8.0305225,13.003561 C 6.3076991,13.003561 4.8673404,11.703014 4.4470077,9.9723992 C 5.2022313,11.093027 6.5286307,12.046235 8.0305225,12.046235 C 9.5324142,12.046235 10.858814,11.093027 11.614038,9.9723992 z "
       id="path2186"
       sodipodi:nodetypes="cscsc" />
    <path
       sodipodi:type="arc"
       style="opacity:1;fill:#2e3436;fill-opacity:1;fill-rule:evenodd;stroke:none;stroke-width:1;stroke-miterlimit:4;stroke-dasharray:none;stroke-opacity:1"
       id="path3337"
       sodipodi:cx="10.279492"
       sodipodi:cy="9.8535538"
       sodipodi:rx="1.1076201"
       sodipodi:ry="1.7100101"
       d="M 11.387112 9.8535538 A 1.1076201 1.7100101 0 1 1  9.1718723,9.8535538 A 1.1076201 1.7100101 0 1 1  11.387112 9.8535538 z"
       transform="matrix(0.9028366,0,0,0.877188,-3.2807014,-2.1434186)" />
    <path
       sodipodi:type="arc"
       style="opacity:1;fill:#edc484;fill-opacity:1;fill-rule:evenodd;stroke:none;stroke-width:1;stroke-miterlimit:4;stroke-dasharray:none;stroke-opacity:1"
       id="path3355"
       sodipodi:cx="10.279492"
       sodipodi:cy="9.8535538"
       sodipodi:rx="1.1076201"
       sodipodi:ry="1.7100101"
       d="M 11.387112 9.8535538 A 1.1076201 1.7100101 0 1 1  9.1718723,9.8535538 A 1.1076201 1.7100101 0 1 1  11.387112 9.8535538 z"
       transform="matrix(2.2570914,0,0,1.4619798,-13.701754,-7.9056966)" />
    <path
       sodipodi:type="arc"
       style="opacity:1;fill:#2e3436;fill-opacity:1;fill-rule:evenodd;stroke:none;stroke-width:1;stroke-miterlimit:4;stroke-dasharray:none;stroke-opacity:1"
       id="path3340"
       sodipodi:cx="10.279492"
       sodipodi:cy="9.8535538"
       sodipodi:rx="1.1076201"
       sodipodi:ry="1.7100101"
       d="M 11.387112 9.8535538 A 1.1076201 1.7100101 0 1 1  9.1718723,9.8535538 A 1.1076201 1.7100101 0 1 1  11.387112 9.8535538 z"
       transform="matrix(0.9028366,0,0,0.8771878,0.719298,-2.1434173)" />
    <path
       sodipodi:type="arc"
       style="opacity:1;fill:#8f5902;fill-opacity:1;fill-rule:evenodd;stroke:none;stroke-width:1;stroke-miterlimit:4;stroke-dasharray:none;stroke-opacity:1"
       id="path3365"
       sodipodi:cx="8.6860733"
       sodipodi:cy="3.6936309"
       sodipodi:rx="0.44693443"
       sodipodi:ry="0.40807056"
       d="M 9.1330077 3.6936309 A 0.44693443 0.40807056 0 1 1  8.2391389,3.6936309 A 0.44693443 0.40807056 0 1 1  9.1330077 3.6936309 z"
       transform="matrix(1.1187323,0,0,1.2252782,-3.2173911,4.9742745)" />
    <path
       sodipodi:type="arc"
       style="opacity:1;fill:#8f5902;fill-opacity:1;fill-rule:evenodd;stroke:none;stroke-width:1;stroke-miterlimit:4;stroke-dasharray:none;stroke-opacity:1"
       id="path3367"
       sodipodi:cx="8.6860733"
       sodipodi:cy="3.6936309"
       sodipodi:rx="0.44693443"
       sodipodi:ry="0.40807056"
       d="M 9.1330077 3.6936309 A 0.44693443 0.40807056 0 1 1  8.2391389,3.6936309 A 0.44693443 0.40807056 0 1 1  9.1330077 3.6936309 z"
       transform="matrix(1.1187323,0,0,1.2252783,-0.2173908,4.9742742)" />
  </g>
</svg>
