<?xml version="1.0" encoding="UTF-8" standalone="no"?>
<!-- Created with Inkscape (http://www.inkscape.org/) -->
<svg
   xmlns:dc="http://purl.org/dc/elements/1.1/"
   xmlns:cc="http://web.resource.org/cc/"
   xmlns:rdf="http://www.w3.org/1999/02/22-rdf-syntax-ns#"
   xmlns:svg="http://www.w3.org/2000/svg"
   xmlns="http://www.w3.org/2000/svg"
   xmlns:xlink="http://www.w3.org/1999/xlink"
   xmlns:sodipodi="http://sodipodi.sourceforge.net/DTD/sodipodi-0.dtd"
   xmlns:inkscape="http://www.inkscape.org/namespaces/inkscape"
   width="16"
   height="16"
   id="svg2"
   sodipodi:version="0.32"
   inkscape:version="0.45"
   version="1.0"
   sodipodi:docbase="/home/dobey/Projects/gnome-icon-theme/16x16/emotes"
   sodipodi:docname="face-monkey.svg"
   inkscape:export-filename="/home/andreas/project/gnome-icon-theme/22x22/emotes/face-monkey.png"
   inkscape:export-xdpi="90"
   inkscape:export-ydpi="90"
   inkscape:output_extension="org.inkscape.output.svg.inkscape">
  <defs
     id="defs4">
    <linearGradient
       inkscape:collect="always"
       id="linearGradient6044">
      <stop
         style="stop-color:#a40000;stop-opacity:1;"
         offset="0"
         id="stop6046" />
      <stop
         style="stop-color:#a40000;stop-opacity:0;"
         offset="1"
         id="stop6048" />
    </linearGradient>
    <linearGradient
       inkscape:collect="always"
       id="linearGradient6026">
      <stop
         style="stop-color:#e9b96e;stop-opacity:1;"
         offset="0"
         id="stop6028" />
      <stop
         style="stop-color:#ecc27f;stop-opacity:1"
         offset="1"
         id="stop6030" />
    </linearGradient>
    <linearGradient
       inkscape:collect="always"
       id="linearGradient6016">
      <stop
         style="stop-color:#c17d11;stop-opacity:1;"
         offset="0"
         id="stop6018" />
      <stop
         style="stop-color:#ae710f;stop-opacity:1"
         offset="1"
         id="stop6020" />
    </linearGradient>
    <linearGradient
       inkscape:collect="always"
       id="linearGradient5992">
      <stop
         style="stop-color:#8f5902;stop-opacity:1;"
         offset="0"
         id="stop5994" />
      <stop
         style="stop-color:#744800;stop-opacity:1"
         offset="1"
         id="stop5996" />
    </linearGradient>
    <linearGradient
       inkscape:collect="always"
       id="linearGradient3398">
      <stop
         style="stop-color:#ffffff;stop-opacity:1;"
         offset="0"
         id="stop3400" />
      <stop
         style="stop-color:#ffffff;stop-opacity:0.02568627"
         offset="1"
         id="stop3402" />
    </linearGradient>
    <linearGradient
       inkscape:collect="always"
       xlink:href="#linearGradient5992"
       id="linearGradient5998"
       x1="6.5056138"
       y1="4.1361318"
       x2="14.195889"
       y2="20.028084"
       gradientUnits="userSpaceOnUse"
       gradientTransform="matrix(0.7333298,0,0,0.7368397,-6.6655072e-2,-0.6053296)" />
    <linearGradient
       inkscape:collect="always"
       xlink:href="#linearGradient5992"
       id="linearGradient6006"
       x1="4.5483284"
       y1="2.2576585"
       x2="7.2317519"
       y2="8.2374868"
       gradientUnits="userSpaceOnUse" />
    <linearGradient
       inkscape:collect="always"
       xlink:href="#linearGradient5992"
       id="linearGradient6014"
       x1="3.1526313"
       y1="2.9913363"
       x2="5.5769644"
       y2="7.6185937"
       gradientUnits="userSpaceOnUse" />
    <radialGradient
       inkscape:collect="always"
       xlink:href="#linearGradient6016"
       id="radialGradient6022"
       cx="10.148121"
       cy="9.4611959"
       fx="10.148121"
       fy="9.4611959"
       r="8.0000286"
       gradientTransform="matrix(0.730174,-6.8283123e-2,5.0381207e-2,0.5439125,-0.5112979,1.6294516)"
       gradientUnits="userSpaceOnUse" />
    <radialGradient
       inkscape:collect="always"
       xlink:href="#linearGradient6044"
       id="radialGradient5970"
       gradientUnits="userSpaceOnUse"
       gradientTransform="matrix(1,0,0,0.423375,0,9.3482007)"
       cx="11.228074"
       cy="16.211924"
       fx="11.228074"
       fy="16.211924"
       r="2.6223004" />
    <linearGradient
       inkscape:collect="always"
       xlink:href="#linearGradient6026"
       id="linearGradient5977"
       gradientUnits="userSpaceOnUse"
       gradientTransform="matrix(0.6384434,0,0,0.7126512,0.9500594,-0.1094625)"
       x1="12.22694"
       y1="15.025814"
       x2="10.047332"
       y2="5.8992395" />
    <linearGradient
       inkscape:collect="always"
       xlink:href="#linearGradient3398"
       id="linearGradient5980"
       gradientUnits="userSpaceOnUse"
       x1="8.3736019"
       y1="2.9100885"
       x2="12"
       y2="20.389206"
       gradientTransform="matrix(1.1055335,0,0,1,-0.2932991,0)" />
  </defs>
  <sodipodi:namedview
     id="base"
     pagecolor="#ffffff"
     bordercolor="#666666"
     borderopacity="1.0"
     inkscape:pageopacity="0.0"
     inkscape:pageshadow="2"
     inkscape:zoom="1"
     inkscape:cx="153.36063"
     inkscape:cy="17.998867"
     inkscape:document-units="px"
     inkscape:current-layer="layer1"
     showgrid="false"
     fill="#eeeeec"
     inkscape:window-width="872"
     inkscape:window-height="925"
     inkscape:window-x="547"
     inkscape:window-y="44"
     width="16px"
     height="16px"
     inkscape:object-paths="true"
     inkscape:object-nodes="true"
     objecttolerance="12"
     gridtolerance="8"
     guidetolerance="6"
     inkscape:showpageshadow="false"
     showborder="false">
    <inkscape:grid
       type="xygrid"
       id="grid5394"
       spacingx="0.5px"
       spacingy="0.5px"
       empspacing="2" />
  </sodipodi:namedview>
  <metadata
     id="metadata7">
    <rdf:RDF>
      <cc:Work
         rdf:about="">
        <dc:format>image/svg+xml</dc:format>
        <dc:type
           rdf:resource="http://purl.org/dc/dcmitype/StillImage" />
        <cc:license
           rdf:resource="http://creativecommons.org/licenses/GPL/2.0/" />
        <dc:title>face-monkey</dc:title>
        <dc:creator>
          <cc:Agent>
            <dc:title>Ulisse Perusin</dc:title>
          </cc:Agent>
        </dc:creator>
        <dc:contributor>
          <cc:Agent>
            <dc:title>based on the work of someone who didn't fill the metadata...and then mangled by Lapo</dc:title>
          </cc:Agent>
        </dc:contributor>
        <dc:subject>
          <rdf:Bag>
            <rdf:li>emotes</rdf:li>
            <rdf:li>monkey</rdf:li>
          </rdf:Bag>
        </dc:subject>
        <dc:description />
      </cc:Work>
    </rdf:RDF>
  </metadata>
  <g
     inkscape:label="Layer 1"
     inkscape:groupmode="layer"
     id="layer1">
    <path
       sodipodi:type="arc"
       style="opacity:1;fill:#e9b96e;fill-opacity:1;fill-rule:evenodd;stroke:url(#linearGradient6014);stroke-width:1.46627021;stroke-miterlimit:4;stroke-dasharray:none;stroke-opacity:1"
       id="path3342"
       sodipodi:cx="5.5769644"
       sodipodi:cy="5.3647771"
       sodipodi:rx="3.5560436"
       sodipodi:ry="3.2451327"
       d="M 9.133008 5.3647771 A 3.5560436 3.2451327 0 1 1  2.0209208,5.3647771 A 3.5560436 3.2451327 0 1 1  9.133008 5.3647771 z"
       transform="matrix(0.6038153,0,0,0.7703141,-0.720263,2.8676655)" />
    <path
       sodipodi:type="arc"
       style="opacity:1;fill:#e9b96e;fill-opacity:1;fill-rule:evenodd;stroke:url(#linearGradient6006);stroke-width:1.4669522;stroke-miterlimit:4;stroke-dasharray:none;stroke-opacity:1"
       id="path3344"
       sodipodi:cx="5.5769644"
       sodipodi:cy="5.3647771"
       sodipodi:rx="3.5560436"
       sodipodi:ry="3.2451327"
       d="M 9.133008 5.3647771 A 3.5560436 3.2451327 0 1 1  2.0209208,5.3647771 A 3.5560436 3.2451327 0 1 1  9.133008 5.3647771 z"
       transform="matrix(0.6031984,0,0,0.7703845,9.9909841,2.8670585)" />
    <path
       style="fill:url(#radialGradient6022);fill-opacity:1;fill-rule:evenodd;stroke:url(#linearGradient5998);stroke-width:1;stroke-miterlimit:4;stroke-opacity:1"
       d="M 7.6614916,0.5030252 C 4.7898925,0.6704693 3.499999,2.3189597 3.4999989,5 L 3.4999989,8.5 C 2.7293879,8.8933817 2.5000001,9.3947407 2.5000001,10.5 C 2.5000001,12.646173 3.0104736,15.499618 8.0052303,15.499809 C 12.999987,15.5 13.499944,12.646173 13.499943,10.5 C 13.504656,9.3935569 13.217658,8.9454934 12.499987,8.5 L 12.499987,5 C 12.499987,2.2099745 11.041134,0.5030252 8.0052303,0.5030252 C 7.886639,0.5030252 7.7782221,0.4962184 7.6614916,0.5030252 z "
       id="path3346"
       sodipodi:nodetypes="cccczcccsc" />
    <path
       style="opacity:0.4;fill:none;fill-opacity:1;fill-rule:evenodd;stroke:url(#linearGradient5980);stroke-width:1.00000012;stroke-miterlimit:4;stroke-opacity:1"
       d="M 4.5415202,5 L 4.5415202,8.5 C 3.9743165,9.2698852 3.5050826,9.3486964 3.5050826,10.5 C 3.5050826,13.795386 5.3814722,14.46875 7.9982022,14.46875 C 10.566394,14.46875 12.491322,13.731116 12.491322,10.5 C 12.491322,9.564428 11.903205,9.1335243 11.454884,8.5 L 11.454884,5 C 11.454884,2.9556604 10.892497,1.53125 7.9982022,1.53125 C 4.9951413,1.53125 4.5137884,3.0420503 4.5415202,5 z "
       id="path3380"
       sodipodi:nodetypes="cccscccsc" />
    <path
       style="fill:url(#linearGradient5977);fill-opacity:1;fill-rule:evenodd;stroke:none;stroke-width:1;stroke-miterlimit:4;stroke-dasharray:none;stroke-opacity:1"
       d="M 6.1870947,3.6875 C 5.1298326,3.6875 4.4288037,5.104102 4.4183768,6.2841919 L 4.3987989,8.5 C 3.1181114,8.498659 3.0575771,9.5 3.1118402,10.97226 C 3.1865467,12.999187 4.8458729,14.0625 7.9753908,14.0625 C 11.104908,14.0625 12.764162,12.998926 12.842381,10.940313 C 12.899349,9.4410178 12.937659,8.5313137 11.551981,8.5 L 11.543778,6.2675797 C 11.53944,5.0874393 10.820946,3.6875 9.7636866,3.6875 C 8.8695387,3.6875 8.2307408,4.5297644 7.9753908,5.1875 C 7.7702147,4.5451613 7.0812428,3.6875 6.1870947,3.6875 z "
       id="path3357"
       sodipodi:nodetypes="cscssscsscc" />
    <path
       sodipodi:type="arc"
       style="opacity:0.39473684;fill:url(#radialGradient5970);fill-opacity:1;stroke:none;stroke-width:0.80000001;stroke-linecap:round;stroke-linejoin:miter;stroke-miterlimit:4;stroke-dasharray:none;stroke-opacity:1"
       id="path5982"
       sodipodi:cx="11.228074"
       sodipodi:cy="16.211924"
       sodipodi:rx="2.6223004"
       sodipodi:ry="1.1102164"
       d="M 13.850374 16.211924 A 2.6223004 1.1102164 0 1 1  8.6057737,16.211924 A 2.6223004 1.1102164 0 1 1  13.850374 16.211924 z"
       transform="matrix(1.4214457,0,0,1.0400491,-7.9790834,-10.051837)" />
    <g
       id="g5962"
       transform="matrix(1.2496736,0,0,1,-1.3915376,0)">
      <path
         sodipodi:nodetypes="cccsc"
         id="path5961"
         d="M 11,9.116117 C 10.943127,12.534475 9.182737,11.964325 7.500123,11.964325 C 5.8175098,11.964325 3.9755087,12.257743 4.0002465,9.116117 C 4.7922507,10.890019 6.0429066,10.53185 7.5097406,10.525181 C 9.1114637,10.518242 10.346192,10.781988 11,9.116117 z "
         style="opacity:0.50746268;fill:#ffffff;fill-opacity:1;stroke:none;stroke-width:1;stroke-miterlimit:4;stroke-dasharray:none;stroke-opacity:1" />
      <path
         sodipodi:nodetypes="cccsc"
         id="path2186"
         d="M 11,9 C 10.943128,11.370663 9.182737,10.975259 7.500123,10.975259 C 5.8175097,10.975259 3.9755087,11.178747 4.0002465,9 C 4.7922507,10.230218 6.0429066,9.981824 7.5097406,9.977199 C 9.1114637,9.972387 10.346191,10.155297 11,9 z "
         style="opacity:1;fill:#794b01;fill-opacity:1;stroke:none;stroke-width:1;stroke-miterlimit:4;stroke-dasharray:none;stroke-opacity:1" />
    </g>
    <path
       sodipodi:type="arc"
       style="opacity:1;fill:#16191a;fill-opacity:1;fill-rule:evenodd;stroke:none;stroke-width:1;stroke-miterlimit:4;stroke-dasharray:none;stroke-opacity:1"
       id="path6024"
       sodipodi:cx="10.279492"
       sodipodi:cy="9.8535538"
       sodipodi:rx="1.1076201"
       sodipodi:ry="1.7100101"
       d="M 11.387112 9.8535538 A 1.1076201 1.7100101 0 1 1  9.1718723,9.8535538 A 1.1076201 1.7100101 0 1 1  11.387112 9.8535538 z"
       transform="matrix(0.8962945,0,0,0.5847919,-3.2062063,0.2377215)" />
    <path
       sodipodi:type="arc"
       style="opacity:1;fill:#16191a;fill-opacity:1;fill-rule:evenodd;stroke:none;stroke-width:1;stroke-miterlimit:4;stroke-dasharray:none;stroke-opacity:1"
       id="path5987"
       sodipodi:cx="10.279492"
       sodipodi:cy="9.8535538"
       sodipodi:rx="1.1076201"
       sodipodi:ry="1.7100101"
       d="M 11.387112 9.8535538 A 1.1076201 1.7100101 0 1 1  9.1718723,9.8535538 A 1.1076201 1.7100101 0 1 1  11.387112 9.8535538 z"
       transform="matrix(0.8962945,0,0,0.5722317,0.7937937,0.3400068)" />
    <path
       sodipodi:type="arc"
       style="opacity:0.58582093;fill:#eeeeec;fill-opacity:1;stroke:none;stroke-width:1;stroke-linecap:round;stroke-linejoin:miter;stroke-miterlimit:4;stroke-dasharray:none;stroke-opacity:1"
       id="path5989"
       sodipodi:cx="-4.171875"
       sodipodi:cy="6.578125"
       sodipodi:rx="0.515625"
       sodipodi:ry="0.515625"
       d="M -3.65625 6.578125 A 0.515625 0.515625 0 1 1  -4.6875,6.578125 A 0.515625 0.515625 0 1 1  -3.65625 6.578125 z"
       transform="translate(9.7071691,-1.2526679)" />
    <path
       sodipodi:type="arc"
       style="opacity:0.58582093;fill:#eeeeec;fill-opacity:1;stroke:none;stroke-width:1;stroke-linecap:round;stroke-linejoin:miter;stroke-miterlimit:4;stroke-dasharray:none;stroke-opacity:1"
       id="path5991"
       sodipodi:cx="-4.171875"
       sodipodi:cy="6.578125"
       sodipodi:rx="0.515625"
       sodipodi:ry="0.515625"
       d="M -3.65625 6.578125 A 0.515625 0.515625 0 1 1  -4.6875,6.578125 A 0.515625 0.515625 0 1 1  -3.65625 6.578125 z"
       transform="translate(13.707169,-1.2526679)" />
  </g>
</svg>
