<?xml version="1.0" encoding="UTF-8" standalone="no"?>
<!-- Created with Inkscape (http://www.inkscape.org/) -->
<svg
   xmlns:svg="http://www.w3.org/2000/svg"
   xmlns="http://www.w3.org/2000/svg"
   version="1.0"
   width="24.000977"
   height="24"
   id="svg7384">
  <title
     id="title9167">Moblin Icon Theme</title>
  <defs
     id="defs7386" />
  <g
     transform="translate(-51.999,-208)"
     id="layer1"
     style="display:none">
    <rect
       width="299"
       height="212"
       rx="16"
       ry="16"
       x="2"
       y="106"
       id="rect9929"
       style="fill:#2e3436;stroke:none;stroke-width:2;marker:none;visibility:visible;display:inline;overflow:visible;enable-background:accumulate" />
  </g>
  <g
     transform="translate(-51.999,-208)"
     id="layer3"
     style="display:inline">
    <rect
       width="24"
       height="24"
       x="-232"
       y="51.999977"
       transform="matrix(0,-1,1,0,0,0)"
       id="rect7632"
       style="opacity:0;fill:#ffffff;fill-opacity:1;stroke:none;display:inline" />
    <path
       d="M 61,210 C 60.718223,210.01794 60.457157,210.15415 60.28125,210.375 L 55.53125,216.03125 L 53,216.03125 C 52.447738,216.03131 52.000055,216.47899 52,217.03125 L 52,223 C 52.000055,223.55226 52.447738,223.99994 53,224 L 55.5,224 L 60.28125,229.625 C 60.551887,229.93232 60.982527,230.0436 61.368167,229.90587 C 61.753807,229.76814 62.016523,229.40923 62.03125,229 L 62.03125,211 C 62.031354,210.72929 61.92171,210.4701 61.727366,210.28164 C 61.533021,210.09319 61.270581,209.99157 61,210 z M 60.03125,213.78125 L 60.03125,226.25 L 56.75,222.375 C 56.560074,222.13781 56.272613,221.99982 55.96875,222 L 54,222 L 54,218.03125 L 56,218.03125 C 56.303863,218.03143 56.591324,217.89344 56.78125,217.65625 L 60.03125,213.78125 z"
       id="use10023"
       style="fill:#bebebe;fill-opacity:1;stroke:none;stroke-width:2;stroke-linecap:round;stroke-linejoin:round;marker:none;stroke-miterlimit:4;stroke-dasharray:none;stroke-dashoffset:0;stroke-opacity:1;visibility:visible;display:inline;overflow:visible;enable-background:accumulate" />
    <path
       d="M 65.78125,214.96875 C 65.315621,215.07303 64.988514,215.49173 65,215.96875 L 65,224 C 64.9949,224.36064 65.184375,224.69608 65.495873,224.87789 C 65.80737,225.05969 66.19263,225.05969 66.504127,224.87789 C 66.815625,224.69608 67.0051,224.36064 67,224 L 67,215.96875 C 67.007439,215.66089 66.872637,215.36678 66.634572,215.17144 C 66.396507,214.9761 66.081727,214.90133 65.78125,214.96875 z"
       id="path9826-9"
       style="fill:#bebebe;fill-opacity:1;stroke:none;stroke-width:2;stroke-linecap:round;stroke-linejoin:round;marker:none;stroke-miterlimit:4;stroke-dasharray:none;stroke-dashoffset:0;stroke-opacity:1;visibility:visible;display:inline;overflow:visible;enable-background:accumulate" />
    <path
       d="M 69.8125,211.96875 C 69.346871,212.07303 69.019764,212.49173 69.03125,212.96875 L 69.03125,227 C 69.02615,227.36064 69.215625,227.69608 69.527123,227.87789 C 69.83862,228.05969 70.22388,228.05969 70.535377,227.87789 C 70.846875,227.69608 71.03635,227.36064 71.03125,227 L 71.03125,212.96875 C 71.038689,212.66089 70.903887,212.36678 70.665822,212.17144 C 70.427757,211.9761 70.112977,211.90133 69.8125,211.96875 z"
       id="path9828-7"
       style="fill:#bebebe;fill-opacity:1;stroke:none;stroke-width:2;stroke-linecap:round;stroke-linejoin:round;marker:none;stroke-miterlimit:4;stroke-dasharray:none;stroke-dashoffset:0;stroke-opacity:1;visibility:visible;display:inline;overflow:visible;enable-background:accumulate" />
  </g>
</svg>
