<?xml version="1.0" encoding="UTF-8" standalone="no"?>
<!-- Created with Inkscape (http://www.inkscape.org/) -->
<svg
   xmlns:svg="http://www.w3.org/2000/svg"
   xmlns="http://www.w3.org/2000/svg"
   version="1.0"
   width="24.000977"
   height="24"
   id="svg7384">
  <title
     id="title9167">Moblin Icon Theme</title>
  <defs
     id="defs7386" />
  <g
     transform="translate(-83.999,-208)"
     id="layer1"
     style="display:none">
    <rect
       width="299"
       height="212"
       rx="16"
       ry="16"
       x="2"
       y="106"
       id="rect9929"
       style="fill:#2e3436;stroke:none;stroke-width:2;marker:none;visibility:visible;display:inline;overflow:visible;enable-background:accumulate" />
  </g>
  <g
     transform="translate(-83.999,-208)"
     id="layer3"
     style="display:inline">
    <rect
       width="24"
       height="24"
       x="-232"
       y="83.999977"
       transform="matrix(0,-1,1,0,0,0)"
       id="rect7592"
       style="opacity:0;fill:#ffffff;fill-opacity:1;stroke:none;display:inline" />
    <path
       d="M 93,210 C 92.718223,210.01794 92.457157,210.15415 92.28125,210.375 L 87.53125,216.03125 L 85,216.03125 C 84.447738,216.03131 84.000055,216.47899 84,217.03125 L 84,223 C 84.000055,223.55226 84.447738,223.99994 85,224 L 87.5,224 L 92.28125,229.625 C 92.551887,229.93232 92.982527,230.0436 93.368167,229.90587 C 93.753807,229.76814 94.016523,229.40923 94.03125,229 L 94.03125,211 C 94.031354,210.72929 93.92171,210.4701 93.727366,210.28164 C 93.533021,210.09319 93.270581,209.99157 93,210 z M 92.03125,213.78125 L 92.03125,226.25 L 88.75,222.375 C 88.560074,222.13781 88.272613,221.99982 87.96875,222 L 86,222 L 86,218.03125 L 88,218.03125 C 88.303863,218.03143 88.591324,217.89344 88.78125,217.65625 L 92.03125,213.78125 z"
       id="use10023-9"
       style="fill:#bebebe;fill-opacity:1;stroke:none;stroke-width:2;stroke-linecap:round;stroke-linejoin:round;marker:none;stroke-miterlimit:4;stroke-dasharray:none;stroke-dashoffset:0;stroke-opacity:1;visibility:visible;display:inline;overflow:visible;enable-background:accumulate" />
    <path
       d="M 97.78125,214.96875 C 97.315621,215.07303 96.988514,215.49173 97,215.96875 L 97,224 C 96.9949,224.36064 97.184375,224.69608 97.495873,224.87789 C 97.80737,225.05969 98.19263,225.05969 98.504127,224.87789 C 98.815625,224.69608 99.0051,224.36064 99,224 L 99,215.96875 C 99.007439,215.66089 98.872637,215.36678 98.634572,215.17144 C 98.396507,214.9761 98.081727,214.90133 97.78125,214.96875 L 97.78125,214.96875 z"
       id="path9826-6"
       style="fill:#bebebe;fill-opacity:1;stroke:none;stroke-width:2;stroke-linecap:round;stroke-linejoin:round;marker:none;stroke-miterlimit:4;stroke-dasharray:none;stroke-dashoffset:0;stroke-opacity:1;visibility:visible;display:inline;overflow:visible;enable-background:accumulate" />
  </g>
</svg>
