<?xml version="1.0" encoding="UTF-8" standalone="no"?>
<!-- Created with Inkscape (http://www.inkscape.org/) -->
<svg
   xmlns:svg="http://www.w3.org/2000/svg"
   xmlns="http://www.w3.org/2000/svg"
   version="1.0"
   width="24.000977"
   height="24"
   id="svg7384">
  <title
     id="title9167">Moblin Icon Theme</title>
  <defs
     id="defs7386" />
  <g
     transform="translate(-19.999,-208)"
     id="layer1"
     style="display:none">
    <rect
       width="299"
       height="212"
       rx="16"
       ry="16"
       x="2"
       y="106"
       id="rect9929"
       style="fill:#2e3436;stroke:none;stroke-width:2;marker:none;visibility:visible;display:inline;overflow:visible;enable-background:accumulate" />
  </g>
  <g
     transform="translate(-19.999,-208)"
     id="layer3"
     style="display:inline">
    <rect
       width="24"
       height="24"
       x="-232"
       y="19.999977"
       transform="matrix(0,-1,1,0,0,0)"
       id="rect7624"
       style="opacity:0;fill:#ffffff;fill-opacity:1;stroke:none;display:inline" />
    <path
       d="M 29,210 C 28.718223,210.01794 28.457157,210.15415 28.28125,210.375 L 23.53125,216.03125 L 21,216.03125 C 20.447738,216.03131 20.000055,216.47899 20,217.03125 L 20,223 C 20.000055,223.55226 20.447738,223.99994 21,224 L 23.5,224 L 28.28125,229.625 C 28.551887,229.93232 28.982527,230.0436 29.368167,229.90587 C 29.753807,229.76814 30.016523,229.40923 30.03125,229 L 30.03125,211 C 30.031354,210.72929 29.92171,210.4701 29.727366,210.28164 C 29.533021,210.09319 29.270581,209.99157 29,210 L 29,210 z M 28.03125,213.78125 L 28.03125,226.25 L 24.75,222.375 C 24.560074,222.13781 24.272613,221.99982 23.96875,222 L 22,222 L 22,218.03125 L 24,218.03125 C 24.303863,218.03143 24.591324,217.89344 24.78125,217.65625 L 28.03125,213.78125 z"
       id="path8946"
       style="fill:#bebebe;fill-opacity:1;stroke:none;stroke-width:2;stroke-linecap:round;stroke-linejoin:round;marker:none;stroke-miterlimit:4;stroke-dasharray:none;stroke-dashoffset:0;stroke-opacity:1;visibility:visible;display:inline;overflow:visible;enable-background:accumulate" />
    <path
       d="M 33.78125,214.96875 C 33.315621,215.07303 32.988514,215.49173 33,215.96875 L 33,224 C 32.9949,224.36064 33.184375,224.69608 33.495873,224.87789 C 33.80737,225.05969 34.19263,225.05969 34.504127,224.87789 C 34.815625,224.69608 35.0051,224.36064 35,224 L 35,215.96875 C 35.007439,215.66089 34.872637,215.36678 34.634572,215.17144 C 34.396507,214.9761 34.081727,214.90133 33.78125,214.96875 z"
       id="path9826"
       style="fill:#bebebe;fill-opacity:1;stroke:none;stroke-width:2;stroke-linecap:round;stroke-linejoin:round;marker:none;stroke-miterlimit:4;stroke-dasharray:none;stroke-dashoffset:0;stroke-opacity:1;visibility:visible;display:inline;overflow:visible;enable-background:accumulate" />
    <path
       d="M 37.8125,211.96875 C 37.346871,212.07303 37.019764,212.49173 37.03125,212.96875 L 37.03125,227 C 37.02615,227.36064 37.215625,227.69608 37.527123,227.87789 C 37.83862,228.05969 38.22388,228.05969 38.535377,227.87789 C 38.846875,227.69608 39.03635,227.36064 39.03125,227 L 39.03125,212.96875 C 39.038689,212.66089 38.903887,212.36678 38.665822,212.17144 C 38.427757,211.9761 38.112977,211.90133 37.8125,211.96875 z"
       id="path9828"
       style="fill:#bebebe;fill-opacity:1;stroke:none;stroke-width:2;stroke-linecap:round;stroke-linejoin:round;marker:none;stroke-miterlimit:4;stroke-dasharray:none;stroke-dashoffset:0;stroke-opacity:1;visibility:visible;display:inline;overflow:visible;enable-background:accumulate" />
    <path
       d="M 41.78125,208.96875 C 41.315621,209.07303 40.988514,209.49173 41,209.96875 L 41,230 C 40.9949,230.36064 41.184375,230.69608 41.495873,230.87789 C 41.80737,231.05969 42.19263,231.05969 42.504127,230.87789 C 42.815625,230.69608 43.0051,230.36064 43,230 L 43,209.96875 C 43.007439,209.66089 42.872637,209.36678 42.634572,209.17144 C 42.396507,208.9761 42.081727,208.90133 41.78125,208.96875 z"
       id="path9830"
       style="fill:#bebebe;fill-opacity:1;stroke:none;stroke-width:2;stroke-linecap:round;stroke-linejoin:round;marker:none;stroke-miterlimit:4;stroke-dasharray:none;stroke-dashoffset:0;stroke-opacity:1;visibility:visible;display:inline;overflow:visible;enable-background:accumulate" />
  </g>
</svg>
