<?xml version="1.0" encoding="UTF-8" standalone="no"?>
<!-- Created with Inkscape (http://www.inkscape.org/) -->
<svg
   xmlns:svg="http://www.w3.org/2000/svg"
   xmlns="http://www.w3.org/2000/svg"
   version="1.0"
   width="24.031273"
   height="24"
   id="svg7384">
  <title
     id="title9167">Moblin Icon Theme</title>
  <defs
     id="defs7386" />
  <g
     transform="translate(-19.999977,-244)"
     id="layer1"
     style="display:none">
    <rect
       width="299"
       height="212"
       rx="16"
       ry="16"
       x="2"
       y="106"
       id="rect9929"
       style="fill:#2e3436;stroke:none;stroke-width:2;marker:none;visibility:visible;display:inline;overflow:visible;enable-background:accumulate" />
  </g>
  <g
     transform="translate(-19.999977,-244)"
     id="layer3"
     style="display:inline">
    <rect
       width="24"
       height="24"
       x="-43.999977"
       y="244"
       transform="scale(-1,1)"
       id="rect6863"
       style="opacity:0;fill:#ffffff;fill-opacity:1;stroke:none;display:inline" />
    <path
       d="M 22.9375,248 C 22.422144,248.04857 22.029018,248.48237 22.03125,249 L 22.03125,252.03125 L 21.03125,252.03125 C 20.478988,252.03131 20.031305,252.47899 20.03125,253.03125 L 20.03125,258.96875 C 20.031305,259.52101 20.478988,259.96869 21.03125,259.96875 L 22,259.96875 L 22,262.96875 C 22.000055,263.52101 22.447738,263.96869 23,263.96875 L 43.03125,263.96875 C 43.583512,263.96869 44.031195,263.52101 44.03125,262.96875 L 44.03125,249 C 44.031195,248.44774 43.583512,248.00006 43.03125,248 L 23.03125,248 C 23.000017,247.99853 22.968733,247.99853 22.9375,248 z M 24.03125,250 L 42.03125,250 L 42.03125,261.96875 L 24,261.96875 L 24,258.96875 C 23.999945,258.41649 23.552262,257.96881 23,257.96875 L 22.03125,257.96875 L 22.03125,254.03125 L 23.03125,254.03125 C 23.583512,254.03119 24.031195,253.58351 24.03125,253.03125 L 24.03125,250 z"
       id="path9832"
       style="fill:#bebebe;fill-opacity:1;stroke:none;stroke-width:2;stroke-linecap:round;stroke-linejoin:round;marker:none;stroke-miterlimit:4;stroke-dasharray:none;stroke-dashoffset:0;stroke-opacity:1;visibility:visible;display:inline;overflow:visible;enable-background:accumulate" />
    <path
       d="M 26.8125,252 C 26.346871,252.10428 26.019764,252.52298 26.03125,253 L 26.03125,259 C 26.02615,259.36064 26.215625,259.69608 26.527123,259.87789 C 26.83862,260.05969 27.22388,260.05969 27.535377,259.87789 C 27.846875,259.69608 28.03635,259.36064 28.03125,259 L 28.03125,253 C 28.038689,252.69214 27.903887,252.39803 27.665822,252.20269 C 27.427757,252.00735 27.112977,251.93258 26.8125,252 L 26.8125,252 z"
       id="path9834"
       style="fill:#bebebe;fill-opacity:1;stroke:none;stroke-width:2;stroke-linecap:round;stroke-linejoin:round;marker:none;stroke-miterlimit:4;stroke-dasharray:none;stroke-dashoffset:0;stroke-opacity:1;visibility:visible;display:inline;overflow:visible;enable-background:accumulate" />
    <path
       d="M 30.8125,252 C 30.346871,252.10428 30.019764,252.52298 30.03125,253 L 30.03125,259 C 30.02615,259.36064 30.215625,259.69608 30.527123,259.87789 C 30.83862,260.05969 31.22388,260.05969 31.535377,259.87789 C 31.846875,259.69608 32.03635,259.36064 32.03125,259 L 32.03125,253 C 32.038689,252.69214 31.903887,252.39803 31.665822,252.20269 C 31.427757,252.00735 31.112977,251.93258 30.8125,252 z"
       id="path9836"
       style="fill:#bebebe;fill-opacity:1;stroke:none;stroke-width:2;stroke-linecap:round;stroke-linejoin:round;marker:none;stroke-miterlimit:4;stroke-dasharray:none;stroke-dashoffset:0;stroke-opacity:1;visibility:visible;display:inline;overflow:visible;enable-background:accumulate" />
    <path
       d="M 34.8125,252 C 34.346871,252.10428 34.019764,252.52298 34.03125,253 L 34.03125,259 C 34.02615,259.36064 34.215625,259.69608 34.527123,259.87789 C 34.83862,260.05969 35.22388,260.05969 35.535377,259.87789 C 35.846875,259.69608 36.03635,259.36064 36.03125,259 L 36.03125,253 C 36.038689,252.69214 35.903887,252.39803 35.665822,252.20269 C 35.427757,252.00735 35.112977,251.93258 34.8125,252 z"
       id="path9838"
       style="fill:#bebebe;fill-opacity:1;stroke:none;stroke-width:2;stroke-linecap:round;stroke-linejoin:round;marker:none;stroke-miterlimit:4;stroke-dasharray:none;stroke-dashoffset:0;stroke-opacity:1;visibility:visible;display:inline;overflow:visible;enable-background:accumulate" />
    <path
       d="M 38.8125,252 C 38.346871,252.10428 38.019764,252.52298 38.03125,253 L 38.03125,259 C 38.02615,259.36064 38.215625,259.69608 38.527123,259.87789 C 38.83862,260.05969 39.22388,260.05969 39.535377,259.87789 C 39.846875,259.69608 40.03635,259.36064 40.03125,259 L 40.03125,253 C 40.038689,252.69214 39.903887,252.39803 39.665822,252.20269 C 39.427757,252.00735 39.112977,251.93258 38.8125,252 z"
       id="path9840"
       style="fill:#bebebe;fill-opacity:1;stroke:none;stroke-width:2;stroke-linecap:round;stroke-linejoin:round;marker:none;stroke-miterlimit:4;stroke-dasharray:none;stroke-dashoffset:0;stroke-opacity:1;visibility:visible;display:inline;overflow:visible;enable-background:accumulate" />
  </g>
</svg>
