<?xml version="1.0" encoding="UTF-8" standalone="no"?>
<!-- Created with Inkscape (http://www.inkscape.org/) -->
<svg
   xmlns:svg="http://www.w3.org/2000/svg"
   xmlns="http://www.w3.org/2000/svg"
   version="1.0"
   width="24.031324"
   height="24"
   id="svg7384">
  <title
     id="title9167">Moblin Icon Theme</title>
  <defs
     id="defs7386" />
  <g
     transform="translate(-83.999977,-244)"
     id="layer1"
     style="display:none">
    <rect
       width="299"
       height="212"
       rx="16"
       ry="16"
       x="2"
       y="106"
       id="rect9929"
       style="fill:#2e3436;stroke:none;stroke-width:2;marker:none;visibility:visible;display:inline;overflow:visible;enable-background:accumulate" />
  </g>
  <g
     transform="translate(-83.999977,-244)"
     id="layer3"
     style="display:inline">
    <rect
       width="24"
       height="24"
       x="-107.99998"
       y="244"
       transform="scale(-1,1)"
       id="rect6947"
       style="opacity:0;fill:#ffffff;fill-opacity:1;stroke:none;display:inline" />
    <path
       d="M 86.9375,248 C 86.422144,248.04857 86.029018,248.48237 86.03125,249 L 86.03125,252.03125 L 85.03125,252.03125 C 84.478988,252.03131 84.031305,252.47899 84.03125,253.03125 L 84.03125,258.96875 C 84.031305,259.52101 84.478988,259.96869 85.03125,259.96875 L 86,259.96875 L 86,262.96875 C 86.000055,263.52101 86.447738,263.96869 87,263.96875 L 107.03125,263.96875 C 107.58351,263.96869 108.03119,263.52101 108.03125,262.96875 L 108.03125,249 C 108.03119,248.44774 107.58351,248.00006 107.03125,248 L 87.03125,248 C 87.000017,247.99853 86.968733,247.99853 86.9375,248 z M 88.03125,250 L 106.03125,250 L 106.03125,261.96875 L 88,261.96875 L 88,258.96875 C 87.999945,258.41649 87.552262,257.96881 87,257.96875 L 86.03125,257.96875 L 86.03125,254.03125 L 87.03125,254.03125 C 87.583512,254.03119 88.031195,253.58351 88.03125,253.03125 L 88.03125,250 z"
       id="path9832-8"
       style="fill:#bebebe;fill-opacity:1;stroke:none;stroke-width:2;stroke-linecap:round;stroke-linejoin:round;marker:none;stroke-miterlimit:4;stroke-dasharray:none;stroke-dashoffset:0;stroke-opacity:1;visibility:visible;display:inline;overflow:visible;enable-background:accumulate" />
    <path
       d="M 98.8125,252 C 98.346871,252.10428 98.019764,252.52298 98.03125,253 L 98.03125,259 C 98.02615,259.36064 98.215625,259.69608 98.527123,259.87789 C 98.83862,260.05969 99.22388,260.05969 99.535377,259.87789 C 99.846875,259.69608 100.03635,259.36064 100.03125,259 L 100.03125,253 C 100.03869,252.69214 99.903887,252.39803 99.665822,252.20269 C 99.427757,252.00735 99.112977,251.93258 98.8125,252 z"
       id="path9838-3"
       style="fill:#bebebe;fill-opacity:1;stroke:none;stroke-width:2;stroke-linecap:round;stroke-linejoin:round;marker:none;stroke-miterlimit:4;stroke-dasharray:none;stroke-dashoffset:0;stroke-opacity:1;visibility:visible;display:inline;overflow:visible;enable-background:accumulate" />
    <path
       d="M 102.8125,252 C 102.34687,252.10428 102.01976,252.52298 102.03125,253 L 102.03125,259 C 102.02615,259.36064 102.21563,259.69608 102.52712,259.87789 C 102.83862,260.05969 103.22388,260.05969 103.53538,259.87789 C 103.84687,259.69608 104.03635,259.36064 104.03125,259 L 104.03125,253 C 104.03869,252.69214 103.90389,252.39803 103.66582,252.20269 C 103.42776,252.00735 103.11298,251.93258 102.8125,252 z"
       id="path9840-7"
       style="fill:#bebebe;fill-opacity:1;stroke:none;stroke-width:2;stroke-linecap:round;stroke-linejoin:round;marker:none;stroke-miterlimit:4;stroke-dasharray:none;stroke-dashoffset:0;stroke-opacity:1;visibility:visible;display:inline;overflow:visible;enable-background:accumulate" />
  </g>
</svg>
