<?xml version="1.0" encoding="UTF-8" standalone="no"?>
<!-- Created with Inkscape (http://www.inkscape.org/) -->
<svg
   xmlns:svg="http://www.w3.org/2000/svg"
   xmlns="http://www.w3.org/2000/svg"
   version="1.0"
   width="24.031324"
   height="24.000031"
   id="svg7384">
  <title
     id="title9167">Moblin Icon Theme</title>
  <defs
     id="defs7386" />
  <g
     transform="translate(-147.99998,-244)"
     id="layer1"
     style="display:none">
    <rect
       width="299"
       height="212"
       rx="16"
       ry="16"
       x="2"
       y="106"
       id="rect9929"
       style="fill:#2e3436;stroke:none;stroke-width:2;marker:none;visibility:visible;display:inline;overflow:visible;enable-background:accumulate" />
  </g>
  <g
     transform="translate(-147.99998,-244)"
     id="layer3"
     style="display:inline">
    <path
       d="M 150.9375,248 C 150.42214,248.04857 150.02902,248.48237 150.03125,249 L 150.03125,252.03125 L 149.03125,252.03125 C 148.47899,252.03131 148.03131,252.47899 148.03125,253.03125 L 148.03125,258.96875 C 148.03131,259.52101 148.47899,259.96869 149.03125,259.96875 L 150,259.96875 L 150,262.96875 C 150.00006,263.52101 150.44774,263.96869 151,263.96875 L 153,263.96875 C 153.36064,263.97385 153.69608,263.78437 153.87789,263.47288 C 154.05969,263.16138 154.05969,262.77612 153.87789,262.46462 C 153.69608,262.15313 153.36064,261.96365 153,261.96875 L 152,261.96875 L 152,258.96875 C 151.99994,258.41649 151.55226,257.96881 151,257.96875 L 150.03125,257.96875 L 150.03125,254.03125 L 151.03125,254.03125 C 151.58351,254.03119 152.03119,253.58351 152.03125,253.03125 L 152.03125,250 L 170.03125,250 L 170.03125,260.0625 C 170.02615,260.42314 170.21563,260.75858 170.52712,260.94039 C 170.83862,261.12219 171.22388,261.12219 171.53538,260.94039 C 171.84687,260.75858 172.03635,260.42314 172.03125,260.0625 L 172.03125,249 C 172.03119,248.44774 171.58351,248.00006 171.03125,248 L 151.03125,248 C 151.00002,247.99853 150.96873,247.99853 150.9375,248 z"
       id="path9832-7"
       style="fill:#bebebe;fill-opacity:1;stroke:none;stroke-width:2;stroke-linecap:round;stroke-linejoin:round;marker:none;stroke-miterlimit:4;stroke-dasharray:none;stroke-dashoffset:0;stroke-opacity:1;visibility:visible;display:inline;overflow:visible;enable-background:accumulate" />
    <rect
       width="24"
       height="24"
       x="-171.99997"
       y="244"
       transform="scale(-1,1)"
       id="rect10344"
       style="opacity:0;fill:#ffffff;fill-opacity:1;stroke:none;display:inline" />
    <path
       d="M 162.84375,252 C 162.54525,252.0465 162.2725,252.23634 162.125,252.5 L 154.125,266.5 C 153.7745,267.10722 154.2989,268.00619 155,268 L 171,267.9687 C 171.7011,267.9747 172.2255,267.07592 171.875,266.4687 L 163.875,252.49995 C 163.6767,252.14478 163.24545,251.93569 162.84375,251.99995 L 162.84375,252 z M 162.87505,256 C 162.88548,255.99984 162.89592,255.99984 162.90635,256 C 163.19292,255.97286 163.47728,256.07052 163.68672,256.26798 C 163.89615,256.46545 164.01035,256.74358 164.0001,257.03125 L 164.0001,261.96875 C 164.0052,262.32939 163.81572,262.66483 163.50423,262.84664 C 163.19273,263.02844 162.80747,263.02844 162.49597,262.84664 C 162.18448,262.66483 161.995,262.32939 162.0001,261.96875 L 162.0001,257.03125 C 161.98861,256.55423 162.31572,256.13553 162.78135,256.03125 C 162.81203,256.0193 162.84329,256.00887 162.875,256 L 162.87505,256 z M 163.00005,264 C 163.55233,264 164.00005,264.44772 164.00005,265 C 164.00005,265.55228 163.55233,266 163.00005,266 C 162.44777,266 162.00005,265.55228 162.00005,265 C 162.00005,264.44772 162.44777,264 163.00005,264 z"
       id="rect16671-4"
       style="font-size:medium;font-style:normal;font-variant:normal;font-weight:normal;font-stretch:normal;text-indent:0;text-align:start;text-decoration:none;line-height:normal;letter-spacing:normal;word-spacing:normal;text-transform:none;direction:ltr;block-progression:tb;writing-mode:lr-tb;text-anchor:start;fill:#bebebe;fill-opacity:1;stroke:none;stroke-width:2;marker:none;visibility:visible;display:inline;overflow:visible;enable-background:accumulate;font-family:Bitstream Vera Sans;-inkscape-font-specification:Bitstream Vera Sans" />
  </g>
</svg>
